<svg xmlns="http://www.w3.org/2000/svg" class="bg-white" width="500" height="400" viewBox="-40.36999999999998 -54.01000000000002 605.0000000000001 484.00000000000006"><path fill="none" stroke="rgb(35, 23, 27)" stroke-width="1.5" d="M100,221.738L100.723,220.551L101.445,220.317L102.168,220.697L102.891,221.055L103.613,221.529L104.336,222.055L105.059,222.759L105.781,223L106.504,223.748L107.227,224.482L107.949,225.58L108.672,226.43L109.395,227.033L110.117,227.845L110.84,228.568L111.563,229.52L112.285,230.19L113.008,230.409L113.73,231.124L114.453,231.716L115.176,232.595L115.898,233.165L116.621,233.615L117.344,233.926L118.066,234.395L118.789,234.779L119.512,234.993L120.234,235.611L120.957,235.313L121.68,235.482L122.402,235.362L123.125,235.277L123.848,234.798L124.57,233.86L125.293,232.668L126.016,235.11L126.738,237.378L127.461,239.053L128.184,242.246L128.906,244.494L129.629,246.236L130.352,248.097L131.074,250.503L131.797,252.692L132.52,255.046L133.242,257.439L133.965,259.102L134.688,261.896L135.41,263.771L136.133,265.856L136.855,268.135L137.578,270.314L138.301,272.261L139.023,273.949L139.746,276.205L140.469,278.047L141.191,280.014L141.914,281.8L142.637,283.727L143.359,284.994L144.082,287.617L144.805,289.362L145.527,291.116L146.25,292.91L146.973,294.614L147.695,295.781L148.418,297.386L149.141,299.709L149.863,301.806L150.586,303.467L151.309,304.034L152.031,305.642L152.754,308.197L153.477,309.068L154.199,311.23L154.922,312.253L155.645,313.809L156.367,315.25L157.09,316.721L157.813,317.665L158.535,319.466L159.258,320.343L159.98,321.697L160.703,323.064L161.426,324.454L162.148,325.609L162.871,326.947L163.594,327.389L164.316,328.582L165.039,330.212L165.762,331.283L166.484,331.876L167.207,333.285L167.93,334.185L168.652,335.146L169.375,335.719L170.098,336.499L170.82,337.08L171.543,338.321L172.266,339.146L172.988,339.82L173.711,340.767L174.434,341.454L175.156,341.796L175.879,342.412L176.602,342.666L177.324,343.19L178.047,344.137L178.77,344.659L179.492,345.106L180.215,345.566L180.938,345.994L181.66,346.681L182.383,346.914L183.105,346.88L183.828,347.167L184.551,347.721L185.273,348.187L185.996,348.85L186.719,348.549L187.441,348.81L188.164,348.941L188.887,349.123L189.609,349.422L190.332,349.381L191.055,349.652L191.777,349.351L192.5,349.625L193.223,349.512L193.945,350L194.668,349.431L195.391,349.491L196.113,349.415L196.836,349.258L197.559,349.173L198.281,348.983L199.004,348.924L199.727,347.959L200.449,347.802L201.172,348.06L201.895,347.704L202.617,347.511L203.34,347.138L204.063,346.31L204.785,346.585L205.508,346.256L206.23,345.932L206.953,344.832L207.676,344.377L208.398,344.208L209.121,343.923L209.844,343.503L210.566,342.714L211.289,342.548L212.012,342.166L212.734,341.609L213.457,341.081L214.18,339.88L214.902,339.718L215.625,339.337L216.348,338.762L217.07,337.811L217.793,337.19L218.516,336.996L219.238,335.858L219.961,335.569L220.684,334.436L221.406,333.371L222.129,332.62L222.852,332.715L223.574,331.557L224.297,331.065L225.02,329.909L225.742,329.408L226.465,328.343L227.188,327.695L227.91,326.769L228.633,326.036L229.355,325.364L230.078,324.487L230.801,323.401L231.523,322.679L232.246,321.826L232.969,320.583L233.691,319.816L234.414,318.745L235.137,317.936L235.859,316.952L236.582,316.291L237.305,315.072L238.027,314.402L238.75,313.549L239.473,312.153L240.195,311.339L240.918,310.089L241.641,309.292L242.363,308.285L243.086,307.567L243.809,306.089L244.531,305.374L245.254,304.312L245.977,303.295L246.699,302.37L247.422,300.721L248.145,300.044L248.867,299.073L249.59,298.016L250.313,296.892L251.035,295.899L251.758,294.661L252.48,293.631L253.203,292.414L253.926,291.418L254.648,290.117L255.371,289.386L256.094,288.149L256.816,287.256L257.539,285.802L258.262,285.377L258.984,283.809L259.707,282.684L260.43,281.553L261.152,280.53L261.875,279.324L262.598,277.91L263.32,277.096L264.043,275.866L264.766,274.615L265.488,273.176L266.211,272.158L266.934,271.611L267.656,270.535L268.379,268.789L269.102,267.678L269.824,266.655L270.547,265.534L271.27,263.743L271.992,262.926L272.715,261.772L273.438,260.599L274.16,259.921L274.883,257.877L275.605,257.387L276.328,256.205L277.051,254.711L277.773,253.76L278.496,252.465L279.219,251.195L279.941,249.925L280.664,249.449L281.387,247.369L282.109,246.651L282.832,245.788L283.555,243.967L284.277,242.695L285,241.842L285.723,239.827L286.445,239.44L287.168,237.858L287.891,236.835L288.613,235.52L289.336,234.619L290.059,233.012L290.781,231.814L291.504,230.934L292.227,229.45L292.949,228.39L293.672,227.132L294.395,225.871L295.117,224.674L295.84,223.325L296.563,222.5L297.285,221.214L298.008,220.188L298.73,218.929L299.453,217.53L300.176,216.563L300.898,215.671L301.621,214.174L302.344,212.992L303.066,211.555L303.789,210.828L304.512,209.26L305.234,208.177L305.957,206.726L306.68,205.838L307.402,205.082L308.125,203.886L308.848,202.684L309.57,201.572L310.293,200.044L311.016,198.792L311.738,198.313L312.461,197.315L313.184,195.867L313.906,194.522L314.629,193.899L315.352,192.789L316.074,191.184L316.797,189.993L317.52,189.424L318.242,187.722L318.965,186.937L319.688,186.464L320.41,184.693L321.133,184.302L321.855,182.426L322.578,181.214L323.301,180.408L324.023,179.412L324.746,178.233L325.469,177.406L326.191,176.188L326.914,175.354L327.637,174.566L328.359,173.775L329.082,172.343L329.805,173.282L330.527,173.986L331.25,175.229L331.973,176.143L332.695,176.653L333.418,177.54L334.141,178.37L334.863,178.391L335.586,179.384L336.309,181.074L337.031,181.399L337.754,182.229L338.477,182.837L339.199,184.292L339.922,184.727L340.645,185.734L341.367,185.799L342.09,185.028L342.813,184.304L343.535,183.407L344.258,182.967L344.98,182.286L345.703,181.674L346.426,180.791L347.148,180.487L347.871,179.244L348.594,178.92L349.316,178.15L350.039,177.257L350.762,176.726L351.484,175.737L352.207,175.444L352.93,174.511L353.652,173.89L354.375,173.704L355.098,173.027L355.82,171.87L356.543,171.503L357.266,170.517L357.988,169.801L358.711,169.329L359.434,168.731L360.156,168.093L360.879,167.228L361.602,166.821L362.324,166.446L363.047,164.891L363.77,164.771L364.492,163.885L365.215,163.262L365.938,162.576L366.66,162.213L367.383,161.243L368.105,160.679L368.828,160.304L369.551,159.628L370.273,158.69L370.996,158.61L371.719,157.715L372.441,156.848L373.164,156.103L373.887,155.568L374.609,154.817L375.332,154.529L376.055,153.895L376.777,153.319L377.5,152.617L378.223,152.204L378.945,151.235L379.668,150.844L380.391,149.9L381.113,149.362L381.836,148.624L382.559,148.04L383.281,147.595L384.004,146.888L384.727,146.394L385.449,145.681L386.172,145.152L386.895,144.585L387.617,143.941L388.34,143.429L389.063,142.685L389.785,142.458L390.508,141.478L391.23,141.14L391.953,139.802L392.676,139.714L393.398,139.021L394.121,138.544L394.844,138.288L395.566,137.459L396.289,136.869L397.012,136.414L397.734,135.62L398.457,135.019L399.18,134.503L399.902,134.143L400.625,133.458L401.348,132.825L402.07,132.26L402.793,131.638L403.516,131.082L404.238,130.513L404.961,130.283L405.684,129.751L406.406,129.194L407.129,128.677L407.852,127.985L408.574,127.176L409.297,126.833L410.02,126.162L410.742,125.835L411.465,124.88L412.188,124.878L412.91,123.843L413.633,123.739L414.355,122.859L415.078,122.378L415.801,121.669L416.523,121.403L417.246,120.827L417.969,120.093L418.691,120.169L419.414,119.537L420.137,118.609L420.859,118.229L421.582,117.594L422.305,117.371L423.027,116.546L423.75,116.597L424.473,115.886L425.195,115.324L425.918,114.707L426.641,114.201L427.363,113.948L428.086,113.055L428.809,112.565L429.531,112.055L430.254,111.945L430.977,111.124L431.699,110.934L432.422,110.569L433.145,109.892L433.867,109.355L434.59,108.77L435.313,108.5L436.035,108.036L436.758,107.185L437.48,106.986L438.203,106.727L438.926,106.115L439.648,105.557L440.371,105.221L441.094,104.919L441.816,104.187L442.539,103.826L443.262,103.329L443.984,102.865L444.707,102.623L445.43,102.024L446.152,101.519L446.875,101.277L447.598,100.622L448.32,100.29L449.043,99.955L449.766,99.45L450.488,98.629L451.211,98.701L451.934,98.294L452.656,97.721L453.379,97.291L454.102,96.514L454.824,96.22L455.547,96.072L456.27,95.57L456.992,95.055L457.715,94.588L458.438,94.654L459.16,93.876L459.883,93.343L460.605,92.788L461.328,92.374L462.051,92.405L462.773,92.216L463.496,91.724L464.219,91.216L464.941,90.903L465.664,90.322L466.387,90.067L467.109,89.681L467.832,89.366L468.555,88.97L469.277,87.991"/><path fill="none" stroke="rgb(69, 105, 238)" stroke-width="1.5" d="M100,221.168L100.723,219.602L101.445,218.964L102.168,219.391L102.891,219.61L103.613,219.465L104.336,219.972L105.059,220.441L105.781,220.913L106.504,221.034L107.227,221.476L107.949,222.535L108.672,222.325L109.395,222.849L110.117,223.592L110.84,224.083L111.563,224.556L112.285,225.177L113.008,225.556L113.73,225.84L114.453,226.196L115.176,225.926L115.898,225.983L116.621,226.044L117.344,226.356L118.066,226.123L118.789,226.499L119.512,226.31L120.234,225.937L120.957,225.751L121.68,225.237L122.402,224.372L123.125,223.632L123.848,222.603L124.57,221.89L125.293,222.115L126.016,224.361L126.738,226.549L127.461,228.837L128.184,230.972L128.906,232.674L129.629,234.98L130.352,237.066L131.074,238.905L131.797,241.018L132.52,242.82L133.242,244.667L133.965,246.582L134.688,248.253L135.41,250.239L136.133,252.155L136.855,253.567L137.578,255.491L138.301,257.344L139.023,259.089L139.746,260.368L140.469,262.138L141.191,263.776L141.914,264.826L142.637,266.303L143.359,268.032L144.082,270.125L144.805,271.155L145.527,272.202L146.25,274.352L146.973,275.791L147.695,277.166L148.418,278.478L149.141,279.242L149.863,280.723L150.586,282.019L151.309,283.369L152.031,284.82L152.754,285.785L153.477,287.193L154.199,288.026L154.922,289.434L155.645,290.389L156.367,291.615L157.09,292.611L157.813,293.042L158.535,294.197L159.258,295.567L159.98,296.161L160.703,297.334L161.426,297.867L162.148,298.893L162.871,299.74L163.594,300.723L164.316,301.215L165.039,301.78L165.762,302.585L166.484,303.045L167.207,303.627L167.93,304.809L168.652,305.249L169.375,305.551L170.098,306.255L170.82,306.578L171.543,307.418L172.266,307.429L172.988,307.733L173.711,307.883L174.434,308.411L175.156,308.93L175.879,309.332L176.602,309.605L177.324,309.65L178.047,310.131L178.77,310.346L179.492,310.237L180.215,310.547L180.938,310.513L181.66,310.79L182.383,310.616L183.105,310.542L183.828,310.7L184.551,311.04L185.273,310.643L185.996,310.717L186.719,310.252L187.441,310.286L188.164,310.392L188.887,310.163L189.609,309.93L190.332,309.713L191.055,309.46L191.777,309.324L192.5,309.294L193.223,308.986L193.945,308.357L194.668,308.4L195.391,307.646L196.113,307.682L196.836,307.315L197.559,307.139L198.281,305.944L199.004,306.109L199.727,305.492L200.449,304.843L201.172,304.435L201.895,303.946L202.617,303.369L203.34,302.978L204.063,301.796L204.785,301.571L205.508,300.66L206.23,300.423L206.953,299.453L207.676,298.815L208.398,298.032L209.121,297.738L209.844,296.72L210.566,295.935L211.289,295.165L212.012,294.395L212.734,294.447L213.457,292.86L214.18,292.039L214.902,292.163L215.625,291.158L216.348,289.913L217.07,289.174L217.793,288.057L218.516,287.207L219.238,286.265L219.961,286.134L220.684,285.267L221.406,283.655L222.129,283.156L222.852,282.51L223.574,280.87L224.297,280.483L225.02,279.439L225.742,277.912L226.465,277.54L227.188,276.138L227.91,275.229L228.633,274.155L229.355,273.846L230.078,272.7L230.801,271.35L231.523,270.416L232.246,269.028L232.969,268.071L233.691,267.566L234.414,266.063L235.137,264.782L235.859,263.93L236.582,262.96L237.305,261.81L238.027,260.716L238.75,259.509L239.473,258.804L240.195,257.624L240.918,256.347L241.641,255.762L242.363,254.152L243.086,253.243L243.809,252.112L244.531,250.647L245.254,250.159L245.977,248.508L246.699,247.502L247.422,246.288L248.145,245.761L248.867,243.81L249.59,242.976L250.313,241.666L251.035,240.832L251.758,239.471L252.48,238.451L253.203,237.17L253.926,235.821L254.648,234.921L255.371,234.335L256.094,232.856L256.816,231.472L257.539,230.28L258.262,229.343L258.984,228.187L259.707,227.418L260.43,225.942L261.152,224.64L261.875,223.619L262.598,222.36L263.32,221.917L264.043,219.969L264.766,219.262L265.488,217.889L266.211,216.436L266.934,215.862L267.656,214.144L268.379,213.206L269.102,212.388L269.824,210.864L270.547,209.434L271.27,208.334L271.992,207.483L272.715,206.602L273.438,205.409L274.16,204.231L274.883,202.543L275.605,201.896L276.328,200.448L277.051,199.665L277.773,198.239L278.496,197.606L279.219,195.581L279.941,194.92L280.664,193.474L281.387,192.364L282.109,191.289L282.832,190.164L283.555,188.858L284.277,187.902L285,186.66L285.723,185.516L286.445,184.194L287.168,183.3L287.891,182.355L288.613,180.908L289.336,180.307L290.059,178.49L290.781,177.822L291.504,176.903L292.227,175.76L292.949,174.37L293.672,173.731L294.395,172.502L295.117,171.273L295.84,170.354L296.563,169.084L297.285,168.059L298.008,167.178L298.73,166.08L299.453,164.881L300.176,163.932L300.898,162.592L301.621,162.244L302.344,160.831L303.066,159.815L303.789,158.787L304.512,158.067L305.234,156.974L305.957,155.698L306.68,154.82L307.402,153.789L308.125,152.867L308.848,152.018L309.57,150.944L310.293,149.764L311.016,148.703L311.738,147.614L312.461,146.866L313.184,145.852L313.906,144.795L314.629,143.978L315.352,142.971L316.074,142.166L316.797,141.503L317.52,140.201L318.242,139.363L318.965,138.349L319.688,137.189L320.41,136.243L321.133,135.374L321.855,134.56L322.578,133.573L323.301,133.3L324.023,132.446L324.746,131.233L325.469,130.531L326.191,129.306L326.914,130.969L327.637,131.754L328.359,132.21L329.082,132.966L329.805,134.199L330.527,135.257L331.25,136.504L331.973,137.446L332.695,138.34L333.418,138.406L334.141,140.283L334.863,141.271L335.586,142.425L336.309,143.804L337.031,144.428L337.754,145.404L338.477,145.896L339.199,144.817L339.922,144.296L340.645,143.996L341.367,143.324L342.09,143.015L342.813,142.215L343.535,141.868L344.258,141.3L344.98,140.733L345.703,140.322L346.426,139.66L347.148,139.41L347.871,138.821L348.594,138.137L349.316,137.684L350.039,137.705L350.762,136.66L351.484,136.281L352.207,135.833L352.93,135.154L353.652,134.62L354.375,134.063L355.098,133.848L355.82,133.46L356.543,132.704L357.266,132.117L357.988,131.913L358.711,131.52L359.434,130.983L360.156,130.734L360.879,129.638L361.602,129.56L362.324,128.747L363.047,128.335L363.77,127.506L364.492,127.712L365.215,126.945L365.938,126.336L366.66,125.997L367.383,125.363L368.105,124.89L368.828,124.494L369.551,123.953L370.273,123.491L370.996,123.321L371.719,122.242L372.441,122.111L373.164,121.61L373.887,121.366L374.609,120.424L375.332,120.277L376.055,119.746L376.777,119.61L377.5,118.983L378.223,118.295L378.945,117.647L379.668,117.177L380.391,116.78L381.113,116.494L381.836,116.358L382.559,115.416L383.281,115.261L384.004,114.674L384.727,114.467L385.449,114.025L386.172,113.569L386.895,113.289L387.617,112.658L388.34,112.237L389.063,111.528L389.785,111.097L390.508,110.927L391.23,110.642L391.953,109.758L392.676,109.795L393.398,108.887L394.121,108.641L394.844,108.301L395.566,107.554L396.289,107.66L397.012,107.08L397.734,106.655L398.457,106.127L399.18,105.939L399.902,105.38L400.625,104.702L401.348,104.666L402.07,104.334L402.793,103.39L403.516,103.247L404.238,102.717L404.961,102.639L405.684,101.891L406.406,101.703L407.129,101.24L407.852,100.977L408.574,100.447L409.297,100.165L410.02,99.737L410.742,99.342L411.465,98.97L412.188,98.71L412.91,98.188L413.633,97.72L414.355,97.319L415.078,97.004L415.801,96.784L416.523,96.165L417.246,95.908L417.969,95.356L418.691,95.052L419.414,94.689L420.137,94.287L420.859,93.789L421.582,93.641L422.305,93.251L423.027,92.706L423.75,92.336L424.473,92.257L425.195,91.844L425.918,91.092L426.641,90.871L427.363,90.736L428.086,90.398L428.809,89.984L429.531,89.355L430.254,89.164L430.977,88.81L431.699,88.438L432.422,88.164L433.145,87.815L433.867,87.358L434.59,87.112L435.313,86.916L436.035,86.555L436.758,86.075L437.48,85.963L438.203,85.628L438.926,85.215L439.648,84.605L440.371,84.139L441.094,83.961L441.816,83.876L442.539,83.493L443.262,83.205L443.984,82.727L444.707,82.309L445.43,82.249L446.152,81.691L446.875,81.254L447.598,81.035L448.32,80.648L449.043,80.656L449.766,80.126L450.488,79.708L451.211,79.732L451.934,79.124L452.656,78.974L453.379,78.553L454.102,78.413L454.824,78.077L455.547,77.51L456.27,77.27L456.992,77.038L457.715,76.471L458.438,76.472L459.16,75.991L459.883,75.846L460.605,75.676L461.328,75.027L462.051,74.763L462.773,74.671L463.496,74.134L464.219,74.238L464.941,73.468L465.664,73.397L466.387,72.901L467.109,72.941L467.832,72.369L468.555,72.157L469.277,71.825"/><path fill="none" stroke="rgb(38, 188, 225)" stroke-width="1.5" d="M100,217.234L100.723,215.676L101.445,214.842L102.168,214.385L102.891,213.919L103.613,213.519L104.336,213.025L105.059,212.829L105.781,212.574L106.504,212.03L107.227,212.225L107.949,211.415L108.672,211.448L109.395,211.281L110.117,210.845L110.84,210.55L111.563,210.175L112.285,209.571L113.008,209.073L113.73,208.351L114.453,207.972L115.176,207.093L115.898,206.292L116.621,205.561L117.344,204.522L118.066,203.507L118.789,202.663L119.512,201.522L120.234,200.342L120.957,198.736L121.68,197.581L122.402,196.136L123.125,194.436L123.848,192.926L124.57,196.34L125.293,198.05L126.016,199.653L126.738,201.296L127.461,202.389L128.184,203.852L128.906,205.498L129.629,206.975L130.352,208.314L131.074,209.616L131.797,210.963L132.52,212.09L133.242,213.024L133.965,214.565L134.688,215.326L135.41,216.467L136.133,217.39L136.855,218.379L137.578,219.403L138.301,220.665L139.023,221.242L139.746,222.059L140.469,223.025L141.191,224.006L141.914,224.407L142.637,225.402L143.359,226.168L144.082,227.157L144.805,227.133L145.527,228.495L146.25,228.931L146.973,229.401L147.695,230.096L148.418,230.578L149.141,231.232L149.863,231.57L150.586,232.432L151.309,233.099L152.031,233.003L152.754,233.566L153.477,234.294L154.199,234.308L154.922,234.784L155.645,235.513L156.367,235.836L157.09,236.158L157.813,236.151L158.535,236.636L159.258,236.584L159.98,237.072L160.703,237.185L161.426,237.12L162.148,236.97L162.871,237.405L163.594,237.377L164.316,237.706L165.039,237.408L165.762,237.365L166.484,237.484L167.207,237.804L167.93,237.64L168.652,237.499L169.375,237.524L170.098,237.215L170.82,237.347L171.543,236.937L172.266,237.027L172.988,236.412L173.711,236.222L174.434,236.139L175.156,236.293L175.879,235.513L176.602,235.257L177.324,235.056L178.047,234.493L178.77,234.179L179.492,234.015L180.215,233.639L180.938,233.498L181.66,232.817L182.383,232.479L183.105,232.072L183.828,231.94L184.551,230.872L185.273,230.521L185.996,229.969L186.719,229.495L187.441,229.293L188.164,228.585L188.887,227.883L189.609,227.662L190.332,226.852L191.055,226.586L191.777,225.796L192.5,224.738L193.223,224.552L193.945,223.649L194.668,223.169L195.391,222.559L196.113,221.692L196.836,220.838L197.559,220.183L198.281,219.66L199.004,219.396L199.727,218.011L200.449,217.227L201.172,216.482L201.895,216.098L202.617,215.119L203.34,214.761L204.063,214.005L204.785,212.895L205.508,212.087L206.23,211.661L206.953,210.706L207.676,210.05L208.398,209.195L209.121,208.507L209.844,207.566L210.566,206.756L211.289,206.101L212.012,204.816L212.734,204.324L213.457,203.47L214.18,202.741L214.902,201.617L215.625,200.902L216.348,199.76L217.07,199.104L217.793,198.28L218.516,197.478L219.238,196.458L219.961,195.708L220.684,194.693L221.406,193.867L222.129,192.927L222.852,192.165L223.574,191.145L224.297,190.203L225.02,189.158L225.742,188.52L226.465,187.481L227.188,186.826L227.91,185.596L228.633,185.008L229.355,184.035L230.078,183.164L230.801,182.116L231.523,181.297L232.246,180.497L232.969,179.365L233.691,178.352L234.414,177.546L235.137,176.516L235.859,175.953L236.582,174.853L237.305,174.08L238.027,173.261L238.75,172.234L239.473,171.078L240.195,170.47L240.918,169.543L241.641,168.49L242.363,167.651L243.086,166.932L243.809,165.717L244.531,165.087L245.254,164.159L245.977,163.348L246.699,162.366L247.422,161.147L248.145,160.381L248.867,159.409L249.59,158.45L250.313,157.326L251.035,156.847L251.758,155.725L252.48,154.894L253.203,154.463L253.926,153.17L254.648,152.377L255.371,151.553L256.094,150.707L256.816,149.616L257.539,148.873L258.262,147.961L258.984,147.147L259.707,146.102L260.43,145.393L261.152,144.375L261.875,143.796L262.598,142.664L263.32,141.811L264.043,140.719L264.766,140.234L265.488,139.004L266.211,138.357L266.934,137.44L267.656,136.431L268.379,135.909L269.102,134.67L269.824,133.934L270.547,133.388L271.27,132.359L271.992,131.447L272.715,130.6L273.438,129.868L274.16,128.948L274.883,128.125L275.605,127.638L276.328,126.493L277.051,125.829L277.773,124.649L278.496,124.104L279.219,123.283L279.941,122.544L280.664,121.915L281.387,121.135L282.109,120.015L282.832,119.249L283.555,118.85L284.277,117.877L285,117.017L285.723,116.155L286.445,115.633L287.168,114.461L287.891,113.981L288.613,113.054L289.336,112.285L290.059,111.676L290.781,110.969L291.504,110.22L292.227,109.324L292.949,108.641L293.672,107.885L294.395,107.226L295.117,106.26L295.84,105.632L296.563,105.202L297.285,104.301L298.008,103.515L298.73,102.992L299.453,102.483L300.176,101.492L300.898,100.62L301.621,100.408L302.344,99.391L303.066,98.707L303.789,98.207L304.512,97.297L305.234,96.649L305.957,96.242L306.68,95.525L307.402,95.002L308.125,94.029L308.848,93.303L309.57,92.911L310.293,91.782L311.016,91.572L311.738,90.522L312.461,90.108L313.184,89.563L313.906,89.035L314.629,88.416L315.352,87.637L316.074,86.8L316.797,86.543L317.52,85.794L318.242,87.026L318.965,88.661L319.688,89.641L320.41,90.738L321.133,91.833L321.855,93.22L322.578,94.579L323.301,95.941L324.023,97.093L324.746,98.226L325.469,99.419L326.191,100.317L326.914,101.914L327.637,103.045L328.359,103.984L329.082,105.214L329.805,106.11L330.527,105.893L331.25,105.587L331.973,105.184L332.695,105.199L333.418,104.869L334.141,104.524L334.863,104.388L335.586,103.976L336.309,103.755L337.031,103.29L337.754,103.129L338.477,102.931L339.199,102.56L339.922,102.119L340.645,102.033L341.367,101.87L342.09,101.303L342.813,101.307L343.535,100.742L344.258,100.698L344.98,100.387L345.703,100.142L346.426,99.651L347.148,99.525L347.871,98.972L348.594,98.792L349.316,98.692L350.039,98.578L350.762,97.996L351.484,97.731L352.207,97.594L352.93,97.276L353.652,96.843L354.375,96.767L355.098,96.48L355.82,96.16L356.543,95.955L357.266,95.548L357.988,95.374L358.711,95.083L359.434,94.7L360.156,94.435L360.879,94.179L361.602,93.965L362.324,93.754L363.047,93.493L363.77,93.015L364.492,92.654L365.215,92.598L365.938,92.158L366.66,91.814L367.383,91.853L368.105,91.34L368.828,91.159L369.551,91.022L370.273,90.626L370.996,90.486L371.719,90.126L372.441,89.932L373.164,89.459L373.887,89.264L374.609,89.014L375.332,88.66L376.055,88.204L376.777,88.222L377.5,87.941L378.223,87.75L378.945,87.277L379.668,87.04L380.391,86.571L381.113,86.501L381.836,86.412L382.559,86.146L383.281,85.769L384.004,85.367L384.727,85.375L385.449,84.933L386.172,84.622L386.895,84.556L387.617,84.243L388.34,83.994L389.063,83.732L389.785,83.664L390.508,83.21L391.23,83.011L391.953,82.595L392.676,82.305L393.398,81.875L394.121,81.901L394.844,81.544L395.566,81.352L396.289,81.243L397.012,80.979L397.734,80.803L398.457,80.359L399.18,80.14L399.902,79.969L400.625,79.54L401.348,79.457L402.07,79.157L402.793,78.752L403.516,78.739L404.238,78.333L404.961,78.104L405.684,77.934L406.406,77.552L407.129,77.345L407.852,77.021L408.574,76.784L409.297,76.644L410.02,76.225L410.742,76.047L411.465,75.866L412.188,75.751L412.91,75.383L413.633,75.142L414.355,74.886L415.078,74.857L415.801,74.524L416.523,74.425L417.246,74.056L417.969,73.718L418.691,73.444L419.414,73.189L420.137,73.318L420.859,72.84L421.582,72.547L422.305,72.392L423.027,72.075L423.75,72.06L424.473,71.454L425.195,71.485L425.918,71.145L426.641,70.902L427.363,70.672L428.086,70.499L428.809,70.065L429.531,70.205L430.254,69.786L430.977,69.569L431.699,69.43L432.422,69.279L433.145,68.843L433.867,68.709L434.59,68.471L435.313,68.181L436.035,67.726L436.758,67.492L437.48,67.78L438.203,67.316L438.926,67.294L439.648,66.972L440.371,66.786L441.094,66.626L441.816,66.245L442.539,66.048L443.262,65.913L443.984,65.801L444.707,65.362L445.43,65.128L446.152,64.97L446.875,64.833L447.598,64.766L448.32,64.546L449.043,64.421L449.766,64.024L450.488,63.851L451.211,63.31L451.934,63.523L452.656,63.076L453.379,62.828L454.102,62.842L454.824,62.774L455.547,62.438L456.27,62.143L456.992,62.038L457.715,61.778L458.438,61.528L459.16,61.247L459.883,60.873L460.605,60.882L461.328,60.651L462.051,60.444L462.773,60.091L463.496,60.205L464.219,59.832L464.941,59.504L465.664,59.357L466.387,59.188L467.109,59.09L467.832,59.052L468.555,58.854L469.277,58.648"/><path fill="none" stroke="rgb(63, 243, 147)" stroke-width="1.5" d="M100,210.347L100.723,208.906L101.445,207.702L102.168,206.145L102.891,204.772L103.613,203.604L104.336,202.576L105.059,200.959L105.781,200.434L106.504,199.124L107.227,197.659L107.949,196.371L108.672,195.141L109.395,194.1L110.117,192.433L110.84,190.661L111.563,189.722L112.285,187.897L113.008,186.316L113.73,184.742L114.453,182.823L115.176,180.955L115.898,179.228L116.621,177.273L117.344,175.281L118.066,173.512L118.789,170.98L119.512,169.088L120.234,166.747L120.957,164.329L121.68,164.396L122.402,169.124L123.125,169.995L123.848,170.661L124.57,171.627L125.293,172.144L126.016,172.748L126.738,173.552L127.461,173.929L128.184,174.615L128.906,175.034L129.629,175.756L130.352,175.979L131.074,176.749L131.797,176.44L132.52,177.181L133.242,177.292L133.965,177.955L134.688,178.036L135.41,178.293L136.133,178.333L136.855,178.679L137.578,178.532L138.301,178.681L139.023,179.04L139.746,179.023L140.469,178.472L141.191,179.087L141.914,179.059L142.637,179L143.359,179.014L144.082,179.119L144.805,178.883L145.527,178.955L146.25,178.458L146.973,178.692L147.695,178.668L148.418,178.589L149.141,178.233L149.863,178.163L150.586,177.86L151.309,177.854L152.031,177.687L152.754,177.31L153.477,177.254L154.199,176.743L154.922,176.533L155.645,175.923L156.367,176.076L157.09,175.702L157.813,175.092L158.535,174.848L159.258,174.746L159.98,174.197L160.703,173.972L161.426,173.275L162.148,172.594L162.871,172.319L163.594,171.958L164.316,171.049L165.039,170.91L165.762,170.204L166.484,169.849L167.207,169.294L167.93,168.551L168.652,167.947L169.375,167.415L170.098,166.931L170.82,166.493L171.543,165.739L172.266,165.216L172.988,164.45L173.711,163.703L174.434,163.386L175.156,162.573L175.879,162.123L176.602,161.225L177.324,160.431L178.047,159.8L178.77,159.041L179.492,158.477L180.215,157.688L180.938,156.974L181.66,156.324L182.383,155.79L183.105,154.756L183.828,154.14L184.551,153.279L185.273,152.758L185.996,151.909L186.719,151.214L187.441,150.325L188.164,149.781L188.887,148.97L189.609,148.311L190.332,147.463L191.055,146.543L191.777,146.091L192.5,145.313L193.223,144.27L193.945,143.454L194.668,142.881L195.391,142.366L196.113,141.286L196.836,140.649L197.559,139.876L198.281,139.081L199.004,138.131L199.727,137.675L200.449,136.826L201.172,136.349L201.895,134.88L202.617,134.55L203.34,133.96L204.063,133.052L204.785,132.268L205.508,131.573L206.23,130.81L206.953,130.152L207.676,129.152L208.398,128.528L209.121,127.68L209.844,127.057L210.566,126.305L211.289,125.523L212.012,124.879L212.734,124.188L213.457,123.338L214.18,122.601L214.902,121.818L215.625,121.115L216.348,120.314L217.07,119.629L217.793,118.932L218.516,118.328L219.238,117.557L219.961,116.868L220.684,116.099L221.406,115.379L222.129,114.78L222.852,114.093L223.574,113.198L224.297,112.614L225.02,111.893L225.742,111.14L226.465,110.409L227.188,109.879L227.91,109.169L228.633,108.274L229.355,107.873L230.078,107.083L230.801,106.396L231.523,105.832L232.246,104.96L232.969,104.191L233.691,103.631L234.414,102.826L235.137,102.282L235.859,101.704L236.582,100.933L237.305,100.386L238.027,99.534L238.75,98.93L239.473,98.337L240.195,97.649L240.918,97.017L241.641,96.415L242.363,95.729L243.086,95.107L243.809,94.523L244.531,93.858L245.254,93.053L245.977,92.368L246.699,91.921L247.422,91.304L248.145,90.804L248.867,90.07L249.59,89.447L250.313,88.798L251.035,88.289L251.758,87.759L252.48,87.053L253.203,86.419L253.926,85.939L254.648,85.034L255.371,84.515L256.094,83.903L256.816,83.611L257.539,82.758L258.262,82.291L258.984,81.669L259.707,81.124L260.43,80.608L261.152,80.039L261.875,79.361L262.598,78.68L263.32,78.106L264.043,77.769L264.766,77.287L265.488,76.467L266.211,76.169L266.934,75.62L267.656,74.958L268.379,74.4L269.102,73.826L269.824,73.288L270.547,72.733L271.27,72.431L271.992,71.732L272.715,71.089L273.438,70.78L274.16,70.249L274.883,69.683L275.605,69.097L276.328,68.645L277.051,68.086L277.773,67.551L278.496,67.097L279.219,66.748L279.941,66.248L280.664,65.642L281.387,65.17L282.109,64.738L282.832,64.348L283.555,63.602L284.277,63.275L285,62.846L285.723,62.447L286.445,61.786L287.168,61.405L287.891,61.006L288.613,60.472L289.336,60.173L290.059,59.57L290.781,59.207L291.504,58.705L292.227,58.239L292.949,57.84L293.672,57.425L294.395,56.971L295.117,56.601L295.84,55.968L296.563,55.522L297.285,55.092L298.008,54.798L298.73,54.401L299.453,53.809L300.176,53.497L300.898,53.161L301.621,53.485L302.344,54.618L303.066,56.133L303.789,57.246L304.512,58.868L305.234,59.748L305.957,61.506L306.68,62.808L307.402,64.341L308.125,65.669L308.848,66.759L309.57,68.525L310.293,69.928L311.016,71.3L311.738,72.66L312.461,73.423L313.184,75.309L313.906,76.381L314.629,76.435L315.352,76.188L316.074,76.096L316.797,76.051L317.52,75.842L318.242,75.807L318.965,75.617L319.688,75.54L320.41,75.48L321.133,75.339L321.855,75.251L322.578,75.167L323.301,75.099L324.023,74.93L324.746,74.738L325.469,74.675L326.191,74.729L326.914,74.381L327.637,74.362L328.359,74.357L329.082,74.084L329.805,74.061L330.527,73.808L331.25,73.772L331.973,73.715L332.695,73.681L333.418,73.509L334.141,73.444L334.863,73.315L335.586,73.078L336.309,73.143L337.031,72.923L337.754,72.698L338.477,72.589L339.199,72.494L339.922,72.456L340.645,72.444L341.367,72.127L342.09,71.949L342.813,71.954L343.535,71.68L344.258,71.5L344.98,71.562L345.703,71.371L346.426,71.336L347.148,71.118L347.871,71.148L348.594,70.83L349.316,70.796L350.039,70.754L350.762,70.698L351.484,70.483L352.207,70.223L352.93,70.068L353.652,70.014L354.375,69.968L355.098,69.832L355.82,69.651L356.543,69.61L357.266,69.414L357.988,69.339L358.711,69.052L359.434,69.244L360.156,68.927L360.879,68.76L361.602,68.587L362.324,68.592L363.047,68.387L363.77,68.367L364.492,68.078L365.215,67.942L365.938,67.824L366.66,67.779L367.383,67.657L368.105,67.494L368.828,67.407L369.551,67.292L370.273,67.178L370.996,66.95L371.719,66.766L372.441,66.766L373.164,66.542L373.887,66.322L374.609,66.104L375.332,66.165L376.055,65.924L376.777,65.977L377.5,65.684L378.223,65.677L378.945,65.347L379.668,65.443L380.391,65.087L381.113,65.028L381.836,64.892L382.559,64.783L383.281,64.775L384.004,64.626L384.727,64.376L385.449,64.13L386.172,64.205L386.895,64.076L387.617,63.855L388.34,63.613L389.063,63.589L389.785,63.474L390.508,63.235L391.23,62.964L391.953,63.018L392.676,62.964L393.398,62.724L394.121,62.726L394.844,62.588L395.566,62.273L396.289,62.172L397.012,62.158L397.734,61.947L398.457,61.771L399.18,61.754L399.902,61.629L400.625,61.253L401.348,61.235L402.07,61.136L402.793,60.947L403.516,61.025L404.238,60.835L404.961,60.6L405.684,60.426L406.406,60.365L407.129,60.2L407.852,60.101L408.574,59.888L409.297,59.794L410.02,59.692L410.742,59.52L411.465,59.412L412.188,59.249L412.91,58.876L413.633,59.006L414.355,58.848L415.078,58.781L415.801,58.611L416.523,58.434L417.246,58.348L417.969,58.274L418.691,57.981L419.414,57.861L420.137,57.718L420.859,57.742L421.582,57.483L422.305,57.374L423.027,57.118L423.75,57.15L424.473,57.063L425.195,56.815L425.918,56.664L426.641,56.509L427.363,56.485L428.086,56.412L428.809,56.259L429.531,56.006L430.254,56.012L430.977,55.779L431.699,55.651L432.422,55.255L433.145,55.408L433.867,55.439L434.59,55.223L435.313,54.718L436.035,54.941L436.758,54.661L437.48,54.738L438.203,54.515L438.926,54.056L439.648,54.274L440.371,53.81L441.094,53.937L441.816,53.833L442.539,53.669L443.262,53.606L443.984,53.513L444.707,53.104L445.43,53.339L446.152,53.076L446.875,52.969L447.598,52.824L448.32,52.748L449.043,52.633L449.766,52.385L450.488,52.177L451.211,52.156L451.934,52.187L452.656,51.997L453.379,51.857L454.102,51.666L454.824,51.437L455.547,51.459L456.27,51.282L456.992,51.083L457.715,51.062L458.438,50.838L459.16,50.727L459.883,50.666L460.605,50.545L461.328,50.181L462.051,50.229L462.773,50.103L463.496,50.057L464.219,49.819L464.941,49.851L465.664,49.822L466.387,49.615L467.109,49.423L467.832,49.298L468.555,49.228L469.277,49.139"/><path fill="none" stroke="rgb(149, 251, 81)" stroke-width="1.5" d="M100,201.876L100.723,199.984L101.445,198.496L102.168,196.317L102.891,194.87L103.613,192.671L104.336,190.7L105.059,188.552L105.781,187.073L106.504,184.509L107.227,182.651L107.949,180.659L108.672,178.216L109.395,176.112L110.117,173.601L110.84,170.935L111.563,168.814L112.285,166.432L113.008,163.573L113.73,161.447L114.453,158.413L115.176,155.942L115.898,152.942L116.621,149.919L117.344,146.923L118.066,145.137L118.789,150.329L119.512,151.691L120.234,151.594L120.957,151.782L121.68,151.904L122.402,151.568L123.125,151.621L123.848,151.215L124.57,151.134L125.293,150.922L126.016,150.885L126.738,150.702L127.461,150.395L128.184,150.108L128.906,149.802L129.629,149.562L130.352,149.192L131.074,148.671L131.797,148.356L132.52,147.755L133.242,147.752L133.965,147.399L134.688,146.74L135.41,146.094L136.133,145.819L136.855,145.017L137.578,144.796L138.301,144.227L139.023,143.485L139.746,143.011L140.469,142.285L141.191,142.095L141.914,141.457L142.637,140.928L143.359,139.883L144.082,139.736L144.805,139.098L145.527,138.57L146.25,137.962L146.973,137.244L147.695,136.787L148.418,135.748L149.141,135.434L149.863,134.832L150.586,134.258L151.309,133.449L152.031,132.774L152.754,131.907L153.477,131.798L154.199,130.943L154.922,130.201L155.645,129.583L156.367,128.892L157.09,128.037L157.813,127.371L158.535,126.52L159.258,125.821L159.98,125.009L160.703,124.267L161.426,123.353L162.148,122.516L162.871,121.764L163.594,120.885L164.316,120.024L165.039,119.347L165.762,118.144L166.484,117.28L167.207,116.597L167.93,115.724L168.652,114.866L169.375,114.052L170.098,113.014L170.82,111.976L171.543,111.152L172.266,110.248L172.988,109.445L173.711,108.477L174.434,107.584L175.156,106.513L175.879,105.802L176.602,104.99L177.324,103.841L178.047,102.998L178.77,102.027L179.492,101.134L180.215,100.494L180.938,99.587L181.66,98.532L182.383,97.753L183.105,96.497L183.828,95.808L184.551,94.903L185.273,94.005L185.996,93.285L186.719,92.128L187.441,91.284L188.164,90.636L188.887,89.608L189.609,88.889L190.332,88.075L191.055,87.181L191.777,86.321L192.5,85.357L193.223,84.623L193.945,83.71L194.668,82.82L195.391,82.158L196.113,81.38L196.836,80.442L197.559,79.348L198.281,78.602L199.004,77.98L199.727,76.949L200.449,76.44L201.172,75.505L201.895,74.749L202.617,74.061L203.34,73.122L204.063,72.254L204.785,71.632L205.508,71.075L206.23,70.228L206.953,69.391L207.676,68.757L208.398,67.94L209.121,67.097L209.844,66.487L210.566,65.973L211.289,65.249L212.012,64.508L212.734,63.591L213.457,63.111L214.18,62.444L214.902,61.775L215.625,61.196L216.348,60.373L217.07,59.801L217.793,59.042L218.516,58.549L219.238,57.832L219.961,57.103L220.684,56.707L221.406,56.043L222.129,55.374L222.852,54.968L223.574,54.044L224.297,53.823L225.02,53.09L225.742,52.509L226.465,51.851L227.188,51.346L227.91,50.744L228.633,50.03L229.355,49.627L230.078,49.254L230.801,48.682L231.523,48.085L232.246,47.529L232.969,47.167L233.691,46.505L234.414,45.824L235.137,45.52L235.859,45.13L236.582,44.76L237.305,44.159L238.027,43.586L238.75,43L239.473,42.672L240.195,42.123L240.918,41.746L241.641,41.333L242.363,40.754L243.086,40.295L243.809,40.068L244.531,39.61L245.254,39.218L245.977,38.807L246.699,38.418L247.422,37.889L248.145,37.45L248.867,37.048L249.59,36.78L250.313,36.218L251.035,35.888L251.758,35.498L252.48,35.207L253.203,34.849L253.926,34.385L254.648,34.123L255.371,33.777L256.094,33.429L256.816,33.042L257.539,32.562L258.262,32.331L258.984,32.11L259.707,31.68L260.43,31.407L261.152,31.051L261.875,30.572L262.598,30.27L263.32,30.078L264.043,29.658L264.766,29.436L265.488,29.229L266.211,28.837L266.934,28.585L267.656,28.235L268.379,27.995L269.102,27.61L269.824,27.369L270.547,26.979L271.27,26.828L271.992,26.494L272.715,26.264L273.438,27.684L274.16,29.356L274.883,30.754L275.605,31.757L276.328,33.024L277.051,33.691L277.773,35.694L278.496,36.523L279.219,38.01L279.941,39.336L280.664,40.732L281.387,42.19L282.109,43.647L282.832,44.507L283.555,45.981L284.277,47.441L285,48.933L285.723,50.449L286.445,51.512L287.168,51.724L287.891,51.816L288.613,51.747L289.336,51.881L290.059,51.869L290.781,51.858L291.504,51.812L292.227,52.055L292.949,51.844L293.672,52.077L294.395,51.854L295.117,51.826L295.84,51.885L296.563,51.869L297.285,51.881L298.008,51.984L298.73,51.92L299.453,51.939L300.176,51.995L300.898,51.952L301.621,51.959L302.344,51.939L303.066,51.954L303.789,51.938L304.512,51.97L305.234,51.975L305.957,52.051L306.68,52.135L307.402,52.057L308.125,52.082L308.848,51.989L309.57,51.969L310.293,52.141L311.016,52.026L311.738,51.952L312.461,52.045L313.184,52.074L313.906,51.956L314.629,52.034L315.352,51.848L316.074,51.994L316.797,51.931L317.52,52.001L318.242,51.94L318.965,51.964L319.688,51.881L320.41,51.963L321.133,51.913L321.855,52.077L322.578,51.985L323.301,51.887L324.023,51.882L324.746,51.813L325.469,51.88L326.191,51.78L326.914,51.875L327.637,51.73L328.359,51.824L329.082,51.961L329.805,51.737L330.527,51.738L331.25,51.811L331.973,51.715L332.695,51.735L333.418,51.737L334.141,51.651L334.863,51.612L335.586,51.545L336.309,51.607L337.031,51.609L337.754,51.463L338.477,51.608L339.199,51.497L339.922,51.42L340.645,51.349L341.367,51.395L342.09,51.286L342.813,51.246L343.535,51.371L344.258,51.277L344.98,51.339L345.703,51.084L346.426,51.232L347.148,51.314L347.871,51.023L348.594,51.229L349.316,50.999L350.039,51.021L350.762,50.931L351.484,50.87L352.207,50.959L352.93,50.835L353.652,50.742L354.375,50.804L355.098,50.715L355.82,50.711L356.543,50.689L357.266,50.529L357.988,50.541L358.711,50.513L359.434,50.332L360.156,50.461L360.879,50.454L361.602,50.244L362.324,50.449L363.047,50.254L363.77,50.169L364.492,50.118L365.215,50.186L365.938,50.075L366.66,49.982L367.383,49.919L368.105,49.864L368.828,49.722L369.551,49.764L370.273,49.787L370.996,49.611L371.719,49.645L372.441,49.623L373.164,49.534L373.887,49.446L374.609,49.521L375.332,49.351L376.055,49.352L376.777,49.354L377.5,49.253L378.223,49.188L378.945,49.043L379.668,49.117L380.391,49.07L381.113,48.9L381.836,48.829L382.559,48.713L383.281,48.708L384.004,48.658L384.727,48.67L385.449,48.528L386.172,48.612L386.895,48.414L387.617,48.481L388.34,48.431L389.063,48.329L389.785,48.252L390.508,48.117L391.23,48.095L391.953,47.992L392.676,47.955L393.398,47.828L394.121,47.995L394.844,47.729L395.566,47.789L396.289,47.68L397.012,47.611L397.734,47.505L398.457,47.443L399.18,47.446L399.902,47.361L400.625,47.182L401.348,47.176L402.07,47.159L402.793,47.056L403.516,46.925L404.238,47.06L404.961,46.951L405.684,46.841L406.406,46.831L407.129,46.748L407.852,46.61L408.574,46.599L409.297,46.456L410.02,46.36L410.742,46.311L411.465,46.262L412.188,46.166L412.91,46.101L413.633,46.054L414.355,45.918L415.078,45.929L415.801,45.762L416.523,45.861L417.246,45.667L417.969,45.665L418.691,45.684L419.414,45.478L420.137,45.553L420.859,45.399L421.582,45.293L422.305,45.284L423.027,45.2L423.75,45.136L424.473,45.047L425.195,44.98L425.918,44.919L426.641,44.947L427.363,44.698L428.086,44.706L428.809,44.59L429.531,44.499L430.254,44.469L430.977,44.468L431.699,44.311L432.422,44.308L433.145,44.076L433.867,44.102L434.59,44.16L435.313,43.883L436.035,43.993L436.758,43.822L437.48,43.76L438.203,43.732L438.926,43.64L439.648,43.661L440.371,43.498L441.094,43.476L441.816,43.301L442.539,43.279L443.262,43.214L443.984,43.086L444.707,43.14L445.43,42.886L446.152,42.894L446.875,42.784L447.598,42.787L448.32,42.766L449.043,42.578L449.766,42.485L450.488,42.455L451.211,42.379L451.934,42.295L452.656,42.176L453.379,42.152L454.102,42.107L454.824,42.011L455.547,42.056L456.27,41.917L456.992,41.839L457.715,41.788L458.438,41.702L459.16,41.573L459.883,41.633L460.605,41.429L461.328,41.483L462.051,41.321L462.773,41.277L463.496,41.229L464.219,41.081L464.941,40.961L465.664,40.877L466.387,40.84L467.109,40.76L467.832,40.767L468.555,40.604L469.277,40.636"/><path fill="none" stroke="rgb(236, 209, 46)" stroke-width="1.5" d="M100,194.774L100.723,193.089L101.445,191.277L102.168,188.644L102.891,186.406L103.613,184.245L104.336,181.724L105.059,179.011L105.781,176.282L106.504,174.099L107.227,171.357L107.949,168.793L108.672,166.001L109.395,162.58L110.117,159.596L110.84,156.717L111.563,153.91L112.285,150.466L113.008,147.489L113.73,143.931L114.453,140.287L115.176,141.143L115.898,144.56L116.621,144.262L117.344,143.414L118.066,142.868L118.789,142.332L119.512,141.423L120.234,141.247L120.957,140.026L121.68,139.486L122.402,138.733L123.125,137.958L123.848,137.325L124.57,136.392L125.293,135.695L126.016,134.765L126.738,133.675L127.461,133.048L128.184,132.243L128.906,131.352L129.629,130.722L130.352,129.513L131.074,128.405L131.797,127.68L132.52,126.878L133.242,125.86L133.965,124.689L134.688,123.968L135.41,122.985L136.133,122.252L136.855,121.218L137.578,120.303L138.301,119.54L139.023,118.422L139.746,117.378L140.469,116.431L141.191,115.606L141.914,114.459L142.637,113.696L143.359,112.657L144.082,112.07L144.805,110.843L145.527,109.83L146.25,108.902L146.973,108.156L147.695,107.037L148.418,106.325L149.141,105.525L149.863,104.528L150.586,103.384L151.309,102.512L152.031,101.523L152.754,100.925L153.477,99.899L154.199,99.005L154.922,98.247L155.645,96.999L156.367,96.319L157.09,95.439L157.813,94.264L158.535,93.225L159.258,92.413L159.98,91.339L160.703,90.254L161.426,89.501L162.148,88.366L162.871,87.347L163.594,86.316L164.316,85.34L165.039,84.517L165.762,83.248L166.484,82.535L167.207,81.438L167.93,80.435L168.652,79.561L169.375,78.454L170.098,77.466L170.82,76.37L171.543,75.58L172.266,74.412L172.988,73.7L173.711,72.552L174.434,71.63L175.156,70.521L175.879,69.699L176.602,68.645L177.324,67.541L178.047,66.7L178.77,66.03L179.492,64.749L180.215,63.932L180.938,63.129L181.66,62.192L182.383,61.196L183.105,60.224L183.828,59.514L184.551,58.479L185.273,57.383L185.996,56.709L186.719,55.926L187.441,54.88L188.164,54.01L188.887,53.199L189.609,52.199L190.332,51.482L191.055,50.62L191.777,49.857L192.5,49.074L193.223,48.305L193.945,47.523L194.668,46.621L195.391,45.724L196.113,45.059L196.836,44.221L197.559,43.338L198.281,42.625L199.004,41.787L199.727,41.049L200.449,40.475L201.172,39.637L201.895,38.984L202.617,38.173L203.34,37.584L204.063,36.666L204.785,36.088L205.508,35.422L206.23,34.867L206.953,33.968L207.676,33.358L208.398,32.706L209.121,31.949L209.844,31.325L210.566,30.768L211.289,30.174L212.012,29.528L212.734,28.868L213.457,28.178L214.18,27.651L214.902,27.045L215.625,26.39L216.348,25.959L217.07,25.429L217.793,24.698L218.516,24.134L219.238,23.609L219.961,23.07L220.684,22.59L221.406,22.005L222.129,21.552L222.852,20.97L223.574,20.523L224.297,20L225.02,20.469L225.742,21.412L226.465,22.614L227.188,23.834L227.91,25.179L228.633,26.73L229.355,27.816L230.078,29.129L230.801,30.66L231.523,31.436L232.246,32.984L232.969,33.911L233.691,35.505L234.414,36.745L235.137,38.286L235.859,38.852L236.582,40.612L237.305,41.855L238.027,42.096L238.75,41.864L239.473,41.649L240.195,41.541L240.918,41.49L241.641,41.253L242.363,41.182L243.086,40.921L243.809,40.846L244.531,40.804L245.254,40.605L245.977,40.457L246.699,40.516L247.422,40.303L248.145,40.258L248.867,39.962L249.59,39.864L250.313,39.858L251.035,39.651L251.758,39.572L252.48,39.507L253.203,39.36L253.926,39.145L254.648,39.116L255.371,39.124L256.094,38.882L256.816,38.842L257.539,38.667L258.262,38.605L258.984,38.514L259.707,38.377L260.43,38.352L261.152,38.287L261.875,38.139L262.598,38.084L263.32,37.929L264.043,37.888L264.766,37.931L265.488,37.792L266.211,37.65L266.934,37.545L267.656,37.589L268.379,37.453L269.102,37.369L269.824,37.372L270.547,37.083L271.27,37.223L271.992,37.145L272.715,37.079L273.438,36.998L274.16,36.977L274.883,36.827L275.605,36.802L276.328,36.791L277.051,36.818L277.773,36.737L278.496,36.595L279.219,36.562L279.941,36.51L280.664,36.527L281.387,36.483L282.109,36.502L282.832,36.383L283.555,36.337L284.277,36.36L285,36.344L285.723,36.286L286.445,36.115L287.168,36.112L287.891,36.113L288.613,36.16L289.336,36.054L290.059,36.043L290.781,36.009L291.504,35.929L292.227,35.877L292.949,35.919L293.672,35.81L294.395,35.815L295.117,35.894L295.84,35.827L296.563,35.791L297.285,35.815L298.008,35.754L298.73,35.779L299.453,35.607L300.176,35.701L300.898,35.749L301.621,35.675L302.344,35.674L303.066,35.754L303.789,35.684L304.512,35.572L305.234,35.619L305.957,35.657L306.68,35.719L307.402,35.664L308.125,35.654L308.848,35.521L309.57,35.655L310.293,35.56L311.016,35.649L311.738,35.608L312.461,35.638L313.184,35.607L313.906,35.627L314.629,35.588L315.352,35.587L316.074,35.599L316.797,35.611L317.52,35.697L318.242,35.587L318.965,35.754L319.688,35.753L320.41,35.671L321.133,35.618L321.855,35.665L322.578,35.653L323.301,35.559L324.023,35.75L324.746,35.646L325.469,35.73L326.191,35.803L326.914,35.749L327.637,35.708L328.359,35.719L329.082,35.675L329.805,35.734L330.527,35.718L331.25,35.784L331.973,35.798L332.695,35.826L333.418,35.794L334.141,35.811L334.863,35.785L335.586,35.788L336.309,35.823L337.031,35.682L337.754,35.788L338.477,35.833L339.199,35.833L339.922,35.864L340.645,35.911L341.367,35.843L342.09,35.846L342.813,35.907L343.535,35.855L344.258,35.832L344.98,35.88L345.703,35.908L346.426,35.888L347.148,35.908L347.871,35.949L348.594,35.968L349.316,35.957L350.039,35.88L350.762,35.971L351.484,35.977L352.207,35.96L352.93,35.896L353.652,35.882L354.375,36.035L355.098,36.074L355.82,35.981L356.543,35.949L357.266,36.007L357.988,35.943L358.711,35.921L359.434,35.998L360.156,35.989L360.879,35.999L361.602,36.015L362.324,35.997L363.047,35.964L363.77,35.911L364.492,36.064L365.215,35.952L365.938,35.993L366.66,35.988L367.383,36.015L368.105,35.967L368.828,36.014L369.551,35.967L370.273,35.995L370.996,35.899L371.719,35.995L372.441,35.893L373.164,35.939L373.887,35.867L374.609,35.93L375.332,35.963L376.055,35.96L376.777,35.86L377.5,35.984L378.223,35.935L378.945,35.978L379.668,35.802L380.391,35.847L381.113,35.893L381.836,35.866L382.559,35.815L383.281,35.757L384.004,35.772L384.727,35.793L385.449,35.768L386.172,35.694L386.895,35.811L387.617,35.8L388.34,35.728L389.063,35.707L389.785,35.68L390.508,35.608L391.23,35.684L391.953,35.589L392.676,35.533L393.398,35.591L394.121,35.656L394.844,35.527L395.566,35.532L396.289,35.553L397.012,35.456L397.734,35.472L398.457,35.56L399.18,35.439L399.902,35.36L400.625,35.395L401.348,35.332L402.07,35.326L402.793,35.323L403.516,35.27L404.238,35.236L404.961,35.239L405.684,35.243L406.406,35.189L407.129,35.133L407.852,35.18L408.574,35.096L409.297,35.104L410.02,35.117L410.742,35.068L411.465,35.046L412.188,34.974L412.91,35.022L413.633,34.976L414.355,34.923L415.078,34.85L415.801,34.777L416.523,34.887L417.246,34.823L417.969,34.757L418.691,34.766L419.414,34.778L420.137,34.612L420.859,34.658L421.582,34.551L422.305,34.633L423.027,34.51L423.75,34.503L424.473,34.517L425.195,34.452L425.918,34.366L426.641,34.369L427.363,34.349L428.086,34.309L428.809,34.263L429.531,34.197L430.254,34.186L430.977,34.159L431.699,34.184L432.422,34.071L433.145,34.06L433.867,34.042L434.59,34.017L435.313,33.951L436.035,33.943L436.758,33.922L437.48,33.892L438.203,33.78L438.926,33.894L439.648,33.743L440.371,33.718L441.094,33.681L441.816,33.715L442.539,33.602L443.262,33.645L443.984,33.607L444.707,33.464L445.43,33.411L446.152,33.417L446.875,33.4L447.598,33.314L448.32,33.255L449.043,33.251L449.766,33.269L450.488,33.17L451.211,33.126L451.934,33.18L452.656,33.125L453.379,33.047L454.102,33.048L454.824,32.866L455.547,33.023L456.27,32.932L456.992,32.926L457.715,32.884L458.438,32.763L459.16,32.757L459.883,32.817L460.605,32.665L461.328,32.64L462.051,32.677L462.773,32.595L463.496,32.431L464.219,32.498L464.941,32.412L465.664,32.315L466.387,32.269L467.109,32.285L467.832,32.323L468.555,32.22L469.277,32.255"/><path fill="none" stroke="rgb(255, 130, 29)" stroke-width="1.5" d="M100,191.507L100.723,189.451L101.445,187.331L102.168,184.461L102.891,181.702L103.613,179.086L104.336,176.391L105.059,173.59L105.781,170.84L106.504,167.79L107.227,164.954L107.949,161.959L108.672,158.978L109.395,155.799L110.117,152.342L110.84,148.876L111.563,145.244L112.285,141.429L113.008,138.919L113.73,142.576L114.453,141.703L115.176,140.92L115.898,139.893L116.621,139.112L117.344,137.986L118.066,137.04L118.789,135.999L119.512,135.033L120.234,133.676L120.957,132.803L121.68,131.306L122.402,130.666L123.125,129.423L123.848,128.284L124.57,127.065L125.293,125.786L126.016,124.698L126.738,123.469L127.461,122.12L128.184,120.673L128.906,119.759L129.629,118.458L130.352,117.302L131.074,116.054L131.797,114.914L132.52,113.708L133.242,112.534L133.965,111.457L134.688,110.181L135.41,108.802L136.133,107.703L136.855,106.578L137.578,105.261L138.301,104.149L139.023,102.913L139.746,101.755L140.469,100.723L141.191,99.553L141.914,98.424L142.637,97.153L143.359,96.136L144.082,94.788L144.805,93.552L145.527,92.577L146.25,91.619L146.973,90.518L147.695,89.032L148.418,88.307L149.141,87.116L149.863,85.992L150.586,85.141L151.309,83.8L152.031,82.827L152.754,81.67L153.477,80.914L154.199,79.627L154.922,78.632L155.645,77.604L156.367,76.549L157.09,75.588L157.813,74.496L158.535,73.544L159.258,72.413L159.98,71.362L160.703,70.264L161.426,69.235L162.148,68.142L162.871,67.143L163.594,66.042L164.316,65.017L165.039,63.969L165.762,62.989L166.484,62.012L167.207,60.852L167.93,59.764L168.652,58.606L169.375,57.733L170.098,56.805L170.82,55.665L171.543,54.776L172.266,53.667L172.988,52.773L173.711,51.676L174.434,50.726L175.156,49.866L175.879,48.904L176.602,47.998L177.324,46.866L178.047,46.035L178.77,45.071L179.492,44.125L180.215,43.377L180.938,42.438L181.66,41.463L182.383,40.7L183.105,39.773L183.828,38.718L184.551,37.966L185.273,37.128L185.996,36.231L186.719,35.558L187.441,34.743L188.164,33.816L188.887,32.853L189.609,32.232L190.332,31.373L191.055,32.267L191.777,35.114L192.5,37.578L193.223,39.825L193.945,42.844L194.668,45.119L195.391,48.288L196.113,50.388L196.836,52.505L197.559,54.452L198.281,54.379L199.004,54.111L199.727,53.931L200.449,53.765L201.172,53.547L201.895,53.371L202.617,53.173L203.34,53.094L204.063,52.948L204.785,52.739L205.508,52.717L206.23,52.375L206.953,52.176L207.676,51.931L208.398,51.776L209.121,51.557L209.844,51.514L210.566,51.254L211.289,51.076L212.012,50.873L212.734,50.744L213.457,50.532L214.18,50.483L214.902,50.223L215.625,50.008L216.348,49.884L217.07,49.732L217.793,49.581L218.516,49.368L219.238,49.174L219.961,48.987L220.684,48.816L221.406,48.734L222.129,48.485L222.852,48.192L223.574,48.209L224.297,47.882L225.02,47.829L225.742,47.606L226.465,47.462L227.188,47.169L227.91,47.053L228.633,46.966L229.355,46.717L230.078,46.64L230.801,46.317L231.523,46.159L232.246,46.07L232.969,45.818L233.691,45.666L234.414,45.515L235.137,45.379L235.859,45.302L236.582,44.989L237.305,44.844L238.027,44.639L238.75,44.466L239.473,44.365L240.195,44.165L240.918,43.949L241.641,43.825L242.363,43.689L243.086,43.526L243.809,43.49L244.531,43.171L245.254,42.92L245.977,42.867L246.699,42.752L247.422,42.537L248.145,42.375L248.867,42.234L249.59,42.089L250.313,41.959L251.035,41.756L251.758,41.63L252.48,41.38L253.203,41.311L253.926,41.154L254.648,41.015L255.371,40.847L256.094,40.746L256.816,40.502L257.539,40.296L258.262,40.241L258.984,40.065L259.707,39.946L260.43,39.734L261.152,39.61L261.875,39.437L262.598,39.361L263.32,39.329L264.043,39.185L264.766,38.879L265.488,38.738L266.211,38.597L266.934,38.46L267.656,38.355L268.379,38.242L269.102,38.041L269.824,38.058L270.547,37.898L271.27,37.659L271.992,37.553L272.715,37.481L273.438,37.273L274.16,37.127L274.883,37.097L275.605,36.885L276.328,36.787L277.051,36.666L277.773,36.535L278.496,36.451L279.219,36.312L279.941,36.192L280.664,36.081L281.387,35.878L282.109,35.874L282.832,35.634L283.555,35.603L284.277,35.423L285,35.365L285.723,35.17L286.445,35.09L287.168,34.98L287.891,34.768L288.613,34.692L289.336,34.645L290.059,34.513L290.781,34.444L291.504,34.388L292.227,34.267L292.949,34.096L293.672,34.014L294.395,33.929L295.117,33.783L295.84,33.687L296.563,33.637L297.285,33.449L298.008,33.456L298.73,33.28L299.453,33.218L300.176,33.151L300.898,32.955L301.621,32.94L302.344,32.76L303.066,32.75L303.789,32.585L304.512,32.546L305.234,32.459L305.957,32.293L306.68,32.216L307.402,32.199L308.125,32.153L308.848,32.013L309.57,31.87L310.293,31.792L311.016,31.751L311.738,31.679L312.461,31.601L313.184,31.48L313.906,31.435L314.629,31.375L315.352,31.269L316.074,31.194L316.797,31.092L317.52,31.072L318.242,30.876L318.965,30.862L319.688,30.767L320.41,30.74L321.133,30.613L321.855,30.555L322.578,30.497L323.301,30.426L324.023,30.371L324.746,30.276L325.469,30.182L326.191,30.085L326.914,30.058L327.637,29.955L328.359,29.893L329.082,29.853L329.805,29.813L330.527,29.809L331.25,29.645L331.973,29.561L332.695,29.549L333.418,29.4L334.141,29.401L334.863,29.405L335.586,29.264L336.309,29.272L337.031,29.169L337.754,29.099L338.477,29.072L339.199,28.932L339.922,28.864L340.645,28.828L341.367,28.811L342.09,28.785L342.813,28.742L343.535,28.646L344.258,28.626L344.98,28.554L345.703,28.441L346.426,28.456L347.148,28.394L347.871,28.277L348.594,28.303L349.316,28.263L350.039,28.164L350.762,28.179L351.484,28.154L352.207,28.091L352.93,28.001L353.652,28.003L354.375,27.944L355.098,27.87L355.82,27.805L356.543,27.736L357.266,27.736L357.988,27.726L358.711,27.704L359.434,27.573L360.156,27.612L360.879,27.47L361.602,27.516L362.324,27.415L363.047,27.403L363.77,27.357L364.492,27.279L365.215,27.219L365.938,27.198L366.66,27.162L367.383,27.195L368.105,27.157L368.828,27.12L369.551,27.064L370.273,27.063L370.996,26.947L371.719,26.874L372.441,26.977L373.164,26.919L373.887,26.887L374.609,26.766L375.332,26.732L376.055,26.745L376.777,26.735L377.5,26.641L378.223,26.591L378.945,26.585L379.668,26.552L380.391,26.542L381.113,26.49L381.836,26.5L382.559,26.428L383.281,26.413L384.004,26.394L384.727,26.312L385.449,26.272L386.172,26.33L386.895,26.288L387.617,26.243L388.34,26.222L389.063,26.156L389.785,26.117L390.508,26.091L391.23,26.119L391.953,26.112L392.676,26.065L393.398,26.044L394.121,25.964L394.844,25.974L395.566,25.932L396.289,25.887L397.012,25.908L397.734,25.895L398.457,25.835L399.18,25.853L399.902,25.771L400.625,25.791L401.348,25.754L402.07,25.78L402.793,25.693L403.516,25.621L404.238,25.606L404.961,25.632L405.684,25.599L406.406,25.555L407.129,25.553L407.852,25.522L408.574,25.492L409.297,25.498L410.02,25.46L410.742,25.399L411.465,25.413L412.188,25.398L412.91,25.363L413.633,25.406L414.355,25.339L415.078,25.339L415.801,25.286L416.523,25.303L417.246,25.258L417.969,25.289L418.691,25.246L419.414,25.16L420.137,25.127L420.859,25.162L421.582,25.164L422.305,25.115L423.027,25.105L423.75,25.079L424.473,25.051L425.195,25.049L425.918,25.087L426.641,25.094L427.363,25.009L428.086,25.029L428.809,24.912L429.531,24.964L430.254,24.946L430.977,24.919L431.699,24.891L432.422,24.894L433.145,24.893L433.867,24.866L434.59,24.818L435.313,24.83L436.035,24.819L436.758,24.792L437.48,24.825L438.203,24.755L438.926,24.734L439.648,24.766L440.371,24.802L441.094,24.744L441.816,24.703L442.539,24.698L443.262,24.668L443.984,24.655L444.707,24.626L445.43,24.642L446.152,24.6L446.875,24.584L447.598,24.604L448.32,24.635L449.043,24.589L449.766,24.565L450.488,24.521L451.211,24.542L451.934,24.489L452.656,24.481L453.379,24.474L454.102,24.441L454.824,24.471L455.547,24.417L456.27,24.402L456.992,24.339L457.715,24.438L458.438,24.355L459.16,24.358L459.883,24.376L460.605,24.366L461.328,24.352L462.051,24.363L462.773,24.285L463.496,24.254L464.219,24.309L464.941,24.279L465.664,24.256L466.387,24.296L467.109,24.249L467.832,24.2L468.555,24.206L469.277,24.158"/><path fill="none" stroke="rgb(203, 47, 13)" stroke-width="1.5" d="M100,190.1L100.723,188.347L101.445,185.784L102.168,183.363L102.891,180.364L103.613,177.609L104.336,175.119L105.059,172.053L105.781,169.091L106.504,166.148L107.227,163.313L107.949,159.986L108.672,156.68L109.395,153.378L110.117,149.789L110.84,145.828L111.563,142.515L112.285,138.346L113.008,142.347L113.73,141.77L114.453,140.525L115.176,139.539L115.898,138.232L116.621,136.829L117.344,135.981L118.066,134.728L118.789,133.507L119.512,132.114L120.234,131.368L120.957,130.069L121.68,128.758L122.402,127.405L123.125,126.183L123.848,124.784L124.57,123.552L125.293,122.008L126.016,121.254L126.738,119.606L127.461,118.439L128.184,117.051L128.906,115.731L129.629,114.452L130.352,113.158L131.074,111.9L131.797,110.338L132.52,109.114L133.242,107.775L133.965,106.622L134.688,105.298L135.41,104.196L136.133,102.704L136.855,101.579L137.578,100.397L138.301,99.043L139.023,97.727L139.746,96.374L140.469,95.382L141.191,93.93L141.914,92.777L142.637,91.761L143.359,90.288L144.082,89.237L144.805,87.876L145.527,86.718L146.25,85.734L146.973,84.054L147.695,83.355L148.418,81.726L149.141,80.88L149.863,79.863L150.586,78.624L151.309,77.485L152.031,76.43L152.754,75.437L153.477,74.003L154.199,73.156L154.922,72.147L155.645,70.883L156.367,69.913L157.09,68.891L157.813,67.816L158.535,66.586L159.258,65.423L159.98,64.428L160.703,63.348L161.426,62.235L162.148,61.141L162.871,60.152L163.594,59.134L164.316,57.997L165.039,56.585L165.762,55.751L166.484,54.745L167.207,53.707L167.93,52.643L168.652,51.551L169.375,50.536L170.098,49.595L170.82,48.512L171.543,47.369L172.266,46.515L172.988,45.459L173.711,44.557L174.434,43.505L175.156,42.528L175.879,41.408L176.602,40.581L177.324,39.551L178.047,38.56L178.77,37.752L179.492,36.758L180.215,35.896L180.938,35.004L181.66,38.304L182.383,42.559L183.105,44.938L183.828,48.544L184.551,52.448L185.273,55.41L185.996,58.961L186.719,58.791L187.441,58.75L188.164,58.652L188.887,58.539L189.609,58.425L190.332,58.365L191.055,58.1L191.777,58.158L192.5,57.945L193.223,57.866L193.945,57.803L194.668,57.804L195.391,57.603L196.113,57.52L196.836,57.307L197.559,57.322L198.281,57.152L199.004,57.091L199.727,56.89L200.449,56.914L201.172,56.675L201.895,56.613L202.617,56.525L203.34,56.393L204.063,56.311L204.785,56.226L205.508,56.021L206.23,56.013L206.953,55.994L207.676,55.848L208.398,55.678L209.121,55.42L209.844,55.508L210.566,55.452L211.289,55.299L212.012,55.162L212.734,55.162L213.457,54.893L214.18,54.758L214.902,54.73L215.625,54.616L216.348,54.427L217.07,54.334L217.793,54.352L218.516,53.985L219.238,54.118L219.961,53.877L220.684,53.763L221.406,53.602L222.129,53.542L222.852,53.349L223.574,53.29L224.297,53.213L225.02,53.121L225.742,52.96L226.465,52.975L227.188,52.687L227.91,52.618L228.633,52.516L229.355,52.484L230.078,52.265L230.801,52.313L231.523,52.098L232.246,52.04L232.969,51.782L233.691,51.712L234.414,51.597L235.137,51.422L235.859,51.331L236.582,51.258L237.305,51.133L238.027,51.029L238.75,50.927L239.473,50.779L240.195,50.595L240.918,50.51L241.641,50.42L242.363,50.246L243.086,50.232L243.809,50.062L244.531,49.92L245.254,49.816L245.977,49.625L246.699,49.675L247.422,49.469L248.145,49.226L248.867,49.188L249.59,49.08L250.313,48.88L251.035,48.751L251.758,48.735L252.48,48.593L253.203,48.429L253.926,48.284L254.648,48.186L255.371,48.15L256.094,47.877L256.816,47.857L257.539,47.609L258.262,47.659L258.984,47.484L259.707,47.293L260.43,47.196L261.152,47.069L261.875,47.086L262.598,46.82L263.32,46.82L264.043,46.637L264.766,46.47L265.488,46.311L266.211,46.315L266.934,46.144L267.656,46.034L268.379,45.865L269.102,45.698L269.824,45.671L270.547,45.455L271.27,45.471L271.992,45.236L272.715,45.133L273.438,45.019L274.16,44.829L274.883,44.68L275.605,44.621L276.328,44.52L277.051,44.438L277.773,44.273L278.496,44.202L279.219,43.993L279.941,43.833L280.664,43.707L281.387,43.733L282.109,43.555L282.832,43.515L283.555,43.322L284.277,43.056L285,43.028L285.723,42.925L286.445,42.799L287.168,42.711L287.891,42.518L288.613,42.441L289.336,42.338L290.059,42.207L290.781,42.149L291.504,42.037L292.227,41.895L292.949,41.82L293.672,41.682L294.395,41.484L295.117,41.478L295.84,41.219L296.563,41.14L297.285,41.058L298.008,40.921L298.73,40.749L299.453,40.684L300.176,40.632L300.898,40.456L301.621,40.49L302.344,40.337L303.066,40.144L303.789,40.056L304.512,40L305.234,39.822L305.957,39.647L306.68,39.529L307.402,39.431L308.125,39.308L308.848,39.292L309.57,39.092L310.293,39.103L311.016,38.918L311.738,38.873L312.461,38.788L313.184,38.59L313.906,38.525L314.629,38.45L315.352,38.333L316.074,38.148L316.797,38.056L317.52,37.974L318.242,37.843L318.965,37.781L319.688,37.67L320.41,37.508L321.133,37.417L321.855,37.393L322.578,37.167L323.301,37.09L324.023,36.972L324.746,36.972L325.469,36.875L326.191,36.674L326.914,36.54L327.637,36.474L328.359,36.333L329.082,36.26L329.805,36.203L330.527,36.063L331.25,36.085L331.973,35.812L332.695,35.791L333.418,35.699L334.141,35.623L334.863,35.452L335.586,35.497L336.309,35.275L337.031,35.145L337.754,35.079L338.477,34.992L339.199,34.888L339.922,34.785L340.645,34.711L341.367,34.618L342.09,34.508L342.813,34.326L343.535,34.333L344.258,34.194L344.98,34.13L345.703,34.057L346.426,33.952L347.148,33.793L347.871,33.774L348.594,33.561L349.316,33.645L350.039,33.551L350.762,33.259L351.484,33.257L352.207,33.209L352.93,33.083L353.652,32.989L354.375,32.83L355.098,32.844L355.82,32.718L356.543,32.69L357.266,32.673L357.988,32.497L358.711,32.417L359.434,32.257L360.156,32.244L360.879,32.199L361.602,32.086L362.324,31.913L363.047,31.818L363.77,31.875L364.492,31.686L365.215,31.582L365.938,31.439L366.66,31.466L367.383,31.324L368.105,31.252L368.828,31.26L369.551,31.2L370.273,31.095L370.996,31.03L371.719,30.873L372.441,30.837L373.164,30.614L373.887,30.683L374.609,30.547L375.332,30.456L376.055,30.362L376.777,30.402L377.5,30.275L378.223,30.207L378.945,30.122L379.668,30.081L380.391,29.973L381.113,29.844L381.836,29.852L382.559,29.806L383.281,29.654L384.004,29.555L384.727,29.614L385.449,29.386L386.172,29.334L386.895,29.337L387.617,29.146L388.34,29.153L389.063,29.075L389.785,29.082L390.508,28.917L391.23,28.906L391.953,28.847L392.676,28.67L393.398,28.615L394.121,28.638L394.844,28.439L395.566,28.468L396.289,28.523L397.012,28.256L397.734,28.319L398.457,28.159L399.18,28.078L399.902,28.047L400.625,27.986L401.348,27.868L402.07,27.954L402.793,27.931L403.516,27.711L404.238,27.652L404.961,27.594L405.684,27.595L406.406,27.459L407.129,27.36L407.852,27.38L408.574,27.291L409.297,27.36L410.02,27.226L410.742,27.097L411.465,27.114L412.188,27.008L412.91,26.872L413.633,26.874L414.355,26.804L415.078,26.708L415.801,26.717L416.523,26.667L417.246,26.508L417.969,26.527L418.691,26.493L419.414,26.509L420.137,26.307L420.859,26.3L421.582,26.267L422.305,26.212L423.027,26.183L423.75,26.106L424.473,26.085L425.195,25.951L425.918,25.954L426.641,25.892L427.363,25.78L428.086,25.765L428.809,25.688L429.531,25.631L430.254,25.581L430.977,25.645L431.699,25.443L432.422,25.419L433.145,25.427L433.867,25.427L434.59,25.396L435.313,25.209L436.035,25.188L436.758,25.185L437.48,25.101L438.203,25.02L438.926,24.972L439.648,24.968L440.371,24.934L441.094,24.857L441.816,24.832L442.539,24.687L443.262,24.75L443.984,24.691L444.707,24.656L445.43,24.556L446.152,24.569L446.875,24.432L447.598,24.454L448.32,24.42L449.043,24.327L449.766,24.337L450.488,24.266L451.211,24.232L451.934,24.147L452.656,24.104L453.379,24.114L454.102,23.973L454.824,23.944L455.547,23.987L456.27,23.871L456.992,23.865L457.715,23.826L458.438,23.862L459.16,23.797L459.883,23.697L460.605,23.691L461.328,23.7L462.051,23.572L462.773,23.546L463.496,23.554L464.219,23.45L464.941,23.428L465.664,23.425L466.387,23.333L467.109,23.31L467.832,23.309L468.555,23.283L469.277,23.223"/><g transform="translate(0,190) scale(1.7) rotate(-90)"><text>Drift</text></g><g transform="translate(315,395) scale(1.8)"><text></text></g><g transform="translate(0,350)" fill="none" font-size="10" font-family="sans-serif" text-anchor="middle"><path class="domain" stroke="currentColor" d="M100,6V0H470V6"/><g class="tick" opacity="1" transform="translate(136.66666666666666,0)"><line stroke="currentColor" y2="6"/><text fill="currentColor" y="9" dy="0.71em" font-size="20px"> </text></g><g class="tick" opacity="1" transform="translate(173.7037037037037,0)"><line stroke="currentColor" y2="6"/><text fill="currentColor" y="9" dy="0.71em" font-size="20px">200</text></g><g class="tick" opacity="1" transform="translate(210.74074074074076,0)"><line stroke="currentColor" y2="6"/><text fill="currentColor" y="9" dy="0.71em" font-size="20px"> </text></g><g class="tick" opacity="1" transform="translate(247.77777777777777,0)"><line stroke="currentColor" y2="6"/><text fill="currentColor" y="9" dy="0.71em" font-size="20px">400</text></g><g class="tick" opacity="1" transform="translate(284.81481481481484,0)"><line stroke="currentColor" y2="6"/><text fill="currentColor" y="9" dy="0.71em" font-size="20px"> </text></g><g class="tick" opacity="1" transform="translate(321.85185185185185,0)"><line stroke="currentColor" y2="6"/><text fill="currentColor" y="9" dy="0.71em" font-size="20px">600</text></g><g class="tick" opacity="1" transform="translate(358.8888888888889,0)"><line stroke="currentColor" y2="6"/><text fill="currentColor" y="9" dy="0.71em" font-size="20px"> </text></g><g class="tick" opacity="1" transform="translate(395.9259259259259,0)"><line stroke="currentColor" y2="6"/><text fill="currentColor" y="9" dy="0.71em" font-size="20px">800</text></g><g class="tick" opacity="1" transform="translate(432.96296296296293,0)"><line stroke="currentColor" y2="6"/><text fill="currentColor" y="9" dy="0.71em" font-size="20px"> </text></g><g class="tick" opacity="1" transform="translate(470,0)"><line stroke="currentColor" y2="6"/><text fill="currentColor" y="9" dy="0.71em" font-size="20px">1000</text></g></g><g transform="translate(100,0)" fill="none" font-size="10" font-family="sans-serif" text-anchor="end"><path class="domain" stroke="currentColor" d="M-6,350H0V20H-6"/><g class="tick" opacity="1" transform="translate(0,316.7263804876173)"><line stroke="currentColor" x2="-6"/><text fill="currentColor" x="-9" dy="0.32em" font-size="20px">0.35</text></g><g class="tick" opacity="1" transform="translate(0,271.392629632385)"><line stroke="currentColor" x2="-6"/><text fill="currentColor" x="-9" dy="0.32em" font-size="20px">0.30</text></g><g class="tick" opacity="1" transform="translate(0,226.05887877715267)"><line stroke="currentColor" x2="-6"/><text fill="currentColor" x="-9" dy="0.32em" font-size="20px">0.25</text></g><g class="tick" opacity="1" transform="translate(0,180.7251279219204)"><line stroke="currentColor" x2="-6"/><text fill="currentColor" x="-9" dy="0.32em" font-size="20px">0.20</text></g><g class="tick" opacity="1" transform="translate(0,135.39137706668808)"><line stroke="currentColor" x2="-6"/><text fill="currentColor" x="-9" dy="0.32em" font-size="20px">0.15</text></g><g class="tick" opacity="1" transform="translate(0,90.05762621145581)"><line stroke="currentColor" x2="-6"/><text fill="currentColor" x="-9" dy="0.32em" font-size="20px">0.10</text></g><g class="tick" opacity="1" transform="translate(0,44.72387535622347)"><line stroke="currentColor" x2="-6"/><text fill="currentColor" x="-9" dy="0.32em" font-size="20px">0.05</text></g></g><circle cx="300" cy="255" r="8" style="fill: rgb(35, 23, 27);"/><circle cx="300" cy="280" r="8" style="fill: rgb(69, 105, 238);"/><circle cx="300" cy="305" r="8" style="fill: rgb(38, 188, 225);"/><circle cx="300" cy="330" r="8" style="fill: rgb(63, 243, 147);"/><circle cx="420" cy="255" r="8" style="fill: rgb(149, 251, 81);"/><circle cx="420" cy="280" r="8" style="fill: rgb(236, 209, 46);"/><circle cx="420" cy="305" r="8" style="fill: rgb(255, 130, 29);"/><circle cx="420" cy="330" r="8" style="fill: rgb(203, 47, 13);"/><text x="315" y="255" text-anchor="left" font-size="22" alignment-baseline="middle" style="fill: rgb(35, 23, 27);"> = 0</text><text x="315" y="280" text-anchor="left" font-size="22" alignment-baseline="middle" style="fill: rgb(69, 105, 238);"> = 0.22</text><text x="315" y="305" text-anchor="left" font-size="22" alignment-baseline="middle" style="fill: rgb(38, 188, 225);"> = 0.45</text><text x="315" y="330" text-anchor="left" font-size="22" alignment-baseline="middle" style="fill: rgb(63, 243, 147);"> = 0.67</text><text x="440" y="255" text-anchor="left" font-size="22" alignment-baseline="middle" style="fill: rgb(149, 251, 81);"> = 0.9</text><text x="440" y="280" text-anchor="left" font-size="22" alignment-baseline="middle" style="fill: rgb(236, 209, 46);"> = 1.12</text><text x="440" y="305" text-anchor="left" font-size="22" alignment-baseline="middle" style="fill: rgb(255, 130, 29);"> = 1.35</text><text x="440" y="330" text-anchor="left" font-size="22" alignment-baseline="middle" style="fill: rgb(203, 47, 13);"> = 1.57</text></svg>