<svg xmlns="http://www.w3.org/2000/svg" class="bg-white" width="500" height="400" viewBox="2.4199999999999995 -44.77000000000002 605.0000000000001 484.00000000000006"><path fill="none" stroke="rgb(35, 23, 27)" stroke-width="1.5" d="M100,106.715L100.723,105.396L101.445,104.575L102.168,103.982L102.891,103.541L103.613,103.19L104.336,102.889L105.059,102.751L105.781,102.532L106.504,102.467L107.227,102.416L107.949,102.44L108.672,102.525L109.395,102.668L110.117,102.794L110.84,102.88L111.563,103.097L112.285,103.206L113.008,103.355L113.73,103.368L114.453,103.51L115.176,103.741L115.898,103.935L116.621,104.077L117.344,104.22L118.066,104.425L118.789,104.631L119.512,104.724L120.234,104.933L120.957,104.931L121.68,104.883L122.402,104.995L123.125,104.922L123.848,105.367L124.57,107.565L125.293,109.747L126.016,111.951L126.738,113.836L127.461,115.644L128.184,117.734L128.906,119.519L129.629,121.118L130.352,122.799L131.074,124.589L131.797,126.207L132.52,127.954L133.242,129.74L133.965,131.168L134.688,132.826L135.41,134.64L136.133,136.279L136.855,137.859L137.578,139.567L138.301,141.175L139.023,142.753L139.746,144.319L140.469,145.988L141.191,147.614L141.914,149.188L142.637,150.857L143.359,152.463L144.082,154.01L144.805,155.582L145.527,157.403L146.25,158.9L146.973,160.655L147.695,162.229L148.418,163.813L149.141,165.577L149.863,167.28L150.586,168.986L151.309,170.552L152.031,172.16L152.754,173.941L153.477,175.659L154.199,177.364L154.922,179.012L155.645,180.667L156.367,182.398L157.09,183.865L157.813,185.842L158.535,187.588L159.258,189.295L159.98,191.107L160.703,192.97L161.426,194.52L162.148,196.246L162.871,198.19L163.594,199.779L164.316,201.607L165.039,203.335L165.762,205.38L166.484,206.824L167.207,208.878L167.93,210.645L168.652,212.467L169.375,214.301L170.098,215.868L170.82,217.635L171.543,219.596L172.266,221.305L172.988,223.045L173.711,224.876L174.434,226.813L175.156,228.622L175.879,230.435L176.602,231.97L177.324,233.882L178.047,235.79L178.77,237.337L179.492,239.199L180.215,240.979L180.938,242.805L181.66,244.633L182.383,246.533L183.105,248.234L183.828,250.094L184.551,251.605L185.273,253.605L185.996,255.216L186.719,256.862L187.441,258.673L188.164,260.456L188.887,262.1L189.609,264.088L190.332,265.819L191.055,267.61L191.777,269.249L192.5,270.811L193.223,272.45L193.945,274.121L194.668,275.779L195.391,277.611L196.113,278.989L196.836,280.67L197.559,282.282L198.281,283.855L199.004,285.702L199.727,287.226L200.449,288.572L201.172,290.096L201.895,291.714L202.617,293.159L203.34,294.677L204.063,296.194L204.785,297.63L205.508,299.147L206.23,300.885L206.953,302.244L207.676,303.299L208.398,304.717L209.121,306.102L209.844,307.783L210.566,308.716L211.289,310.075L212.012,311.409L212.734,312.609L213.457,314.033L214.18,315.272L214.902,316.493L215.625,317.778L216.348,318.868L217.07,319.833L217.793,321.222L218.516,322.264L219.238,323.251L219.961,324.356L220.684,325.332L221.406,326.515L222.129,327.731L222.852,328.501L223.574,329.375L224.297,330.903L225.02,331.59L225.742,332.369L226.465,333.133L227.188,333.962L227.91,335.075L228.633,335.703L229.355,336.716L230.078,337.292L230.801,338.082L231.523,338.643L232.246,339.395L232.969,340.316L233.691,340.86L234.414,341.469L235.137,342.038L235.859,342.511L236.582,343.105L237.305,343.652L238.027,344.208L238.75,344.857L239.473,344.981L240.195,345.739L240.918,346.117L241.641,346.287L242.363,347.021L243.086,347.219L243.809,347.55L244.531,347.806L245.254,348.116L245.977,348.437L246.699,348.663L247.422,349.008L248.145,349.053L248.867,349.251L249.59,349.672L250.313,349.604L251.035,349.609L251.758,349.688L252.48,349.744L253.203,349.921L253.926,349.814L254.648,350L255.371,349.842L256.094,349.657L256.816,349.682L257.539,349.964L258.262,349.521L258.984,349.247L259.707,349.09L260.43,349.18L261.152,348.849L261.875,348.805L262.598,348.317L263.32,348.619L264.043,348.199L264.766,347.445L265.488,347.143L266.211,347.001L266.934,346.955L267.656,346.156L268.379,345.959L269.102,345.517L269.824,345.237L270.547,344.845L271.27,344.231L271.992,343.935L272.715,343.4L273.438,342.965L274.16,342.479L274.883,341.867L275.605,341.64L276.328,340.991L277.051,340.357L277.773,339.907L278.496,339.114L279.219,338.448L279.941,337.905L280.664,337.73L281.387,336.813L282.109,335.901L282.832,335.271L283.555,334.574L284.277,334.352L285,333.04L285.723,332.473L286.445,331.719L287.168,331.367L287.891,330.557L288.613,329.734L289.336,328.841L290.059,328.004L290.781,327.028L291.504,326.207L292.227,325.815L292.949,324.456L293.672,323.915L294.395,323.105L295.117,322.067L295.84,321.217L296.563,321.133L297.285,319.969L298.008,318.789L298.73,317.864L299.453,316.962L300.176,316.349L300.898,315.098L301.621,314.133L302.344,313.89L303.066,311.893L303.789,311.162L304.512,310.618L305.234,309.258L305.957,308.401L306.68,307.433L307.402,306.414L308.125,305.478L308.848,304.565L309.57,304.178L310.293,303.126L311.016,301.471L311.738,300.141L312.461,299.39L313.184,298.997L313.906,297.994L314.629,296.305L315.352,295.423L316.074,294.113L316.797,293.207L317.52,292.471L318.242,291.188L318.965,290.08L319.688,289.142L320.41,287.932L321.133,287.351L321.855,285.799L322.578,284.538L323.301,283.663L324.023,282.584L324.746,281.519L325.469,280.809L326.191,279.116L326.914,278.392L327.637,276.933L328.359,275.797L329.082,275.308L329.805,273.862L330.527,272.904L331.25,271.66L331.973,270.328L332.695,269.344L333.418,268.41L334.141,266.984L334.863,266.224L335.586,265.06L336.309,264.172L337.031,262.881L337.754,261.718L338.477,260.358L339.199,259.247L339.922,258.356L340.645,257.331L341.367,256.145L342.09,254.721L342.813,254.079L343.535,252.708L344.258,251.802L344.98,250.692L345.703,249.329L346.426,248.435L347.148,246.994L347.871,246.277L348.594,245.438L349.316,244.097L350.039,242.861L350.762,241.785L351.484,240.603L352.207,239.781L352.93,238.546L353.652,237.462L354.375,236.32L355.098,235.295L355.82,234.261L356.543,233.025L357.266,232.129L357.988,230.716L358.711,230.121L359.434,229.021L360.156,227.793L360.879,226.794L361.602,225.79L362.324,224.475L363.047,223.656L363.77,222.397L364.492,221.245L365.215,220.301L365.938,219.322L366.66,218.359L367.383,217.106L368.105,215.739L368.828,214.831L369.551,214.267L370.273,212.731L370.996,212.028L371.719,210.842L372.441,209.516L373.164,208.663L373.887,207.995L374.609,206.534L375.332,205.765L376.055,204.485L376.777,203.476L377.5,202.872L378.223,201.399L378.945,200.338L379.668,199.011L380.391,198.25L381.113,197.279L381.836,196.567L382.559,195.433L383.281,194.424L384.004,193.273L384.727,192.306L385.449,191.183L386.172,190.567L386.895,189.476L387.617,188.472L388.34,187.529L389.063,186.285L389.785,185.184L390.508,184.667L391.23,183.7L391.953,182.426L392.676,181.667L393.398,180.799L394.121,179.719L394.844,178.882L395.566,177.842L396.289,176.693L397.012,175.985L397.734,175.114L398.457,173.905L399.18,172.845L399.902,172.004L400.625,171.205L401.348,170.009L402.07,169.107L402.793,168.847L403.516,167.697L404.238,166.831L404.961,165.555L405.684,164.671L406.406,163.768L407.129,162.958L407.852,162.416L408.574,161.566L409.297,160.18L410.02,159.887L410.742,158.78L411.465,157.891L412.188,157.199L412.91,155.826L413.633,154.959L414.355,154.308L415.078,153.989L415.801,154.336L416.523,154.65L417.246,154.914L417.969,155.056L418.691,155.648L419.414,156.205L420.137,156.444L420.859,157.094L421.582,157.199L422.305,157.714L423.027,157.916L423.75,158.359L424.473,159.394L425.195,159.156L425.918,160.107L426.641,160.46L427.363,159.676L428.086,159.226L428.809,158.665L429.531,158.382L430.254,157.429L430.977,156.804L431.699,156.508L432.422,155.9L433.145,155.046L433.867,154.678L434.59,153.821L435.313,153.222L436.035,152.768L436.758,152.465L437.48,151.52L438.203,151.11L438.926,150.668L439.648,149.553L440.371,149.263L441.094,148.976L441.816,147.957L442.539,147.62L443.262,147.103L443.984,146.599L444.707,146.152L445.43,145.445L446.152,144.923L446.875,144.126L447.598,143.915L448.32,143.129L449.043,142.44L449.766,142.352L450.488,141.516L451.211,140.982L451.934,140.099L452.656,139.68L453.379,139.542L454.102,138.722L454.824,138.142L455.547,137.454L456.27,137.205L456.992,136.659L457.715,136.017L458.438,135.601L459.16,134.886L459.883,134.471L460.605,133.86L461.328,133.611L462.051,132.821L462.773,132.346L463.496,131.739L464.219,131.266L464.941,130.512L465.664,129.934L466.387,129.695L467.109,129.176L467.832,128.488L468.555,128.003L469.277,127.556"/><path fill="none" stroke="rgb(69, 105, 238)" stroke-width="1.5" d="M100,106.717L100.723,105.289L101.445,104.329L102.168,103.737L102.891,103.118L103.613,102.769L104.336,102.606L105.059,102.23L105.781,102.133L106.504,101.801L107.227,101.679L107.949,101.695L108.672,101.679L109.395,101.724L110.117,101.608L110.84,101.646L111.563,101.732L112.285,101.608L113.008,101.618L113.73,101.894L114.453,101.828L115.176,101.778L115.898,101.908L116.621,102.013L117.344,102.181L118.066,102.221L118.789,102.164L119.512,102.046L120.234,102.072L120.957,102.03L121.68,101.864L122.402,101.938L123.125,101.56L123.848,102.098L124.57,104.212L125.293,106.29L126.016,108.04L126.738,109.955L127.461,111.636L128.184,113.35L128.906,114.872L129.629,116.722L130.352,118.413L131.074,119.623L131.797,121.336L132.52,122.856L133.242,124.422L133.965,125.946L134.688,127.389L135.41,128.888L136.133,130.256L136.855,131.812L137.578,133.145L138.301,134.634L139.023,136.009L139.746,137.51L140.469,138.849L141.191,140.369L141.914,141.818L142.637,143.086L143.359,144.51L144.082,145.835L144.805,147.364L145.527,148.677L146.25,150.135L146.973,151.513L147.695,152.949L148.418,154.317L149.141,155.851L149.863,157.28L150.586,158.645L151.309,159.992L152.031,161.349L152.754,162.89L153.477,164.299L154.199,165.571L154.922,166.881L155.645,168.318L156.367,169.908L157.09,171.294L157.813,172.587L158.535,174.019L159.258,175.39L159.98,176.862L160.703,178.238L161.426,179.695L162.148,180.991L162.871,182.378L163.594,184.006L164.316,185.328L165.039,186.644L165.762,187.94L166.484,189.487L167.207,190.799L167.93,192.334L168.652,193.59L169.375,194.955L170.098,196.652L170.82,197.82L171.543,199.298L172.266,200.71L172.988,202.008L173.711,203.307L174.434,204.699L175.156,206.071L175.879,207.459L176.602,208.666L177.324,210.153L178.047,211.38L178.77,212.735L179.492,214.203L180.215,215.534L180.938,216.924L181.66,218.13L182.383,219.601L183.105,220.763L183.828,222.189L184.551,223.354L185.273,224.766L185.996,225.871L186.719,227.192L187.441,228.542L188.164,229.563L188.887,230.77L189.609,231.883L190.332,233.45L191.055,234.463L191.777,235.807L192.5,237.038L193.223,237.962L193.945,239.339L194.668,240.501L195.391,241.463L196.113,242.899L196.836,243.6L197.559,244.926L198.281,246.12L199.004,247.086L199.727,248.352L200.449,249.218L201.172,250.28L201.895,251.361L202.617,252.57L203.34,253.396L204.063,254.482L204.785,255.333L205.508,256.261L206.23,257.385L206.953,258.336L207.676,259.152L208.398,260.041L209.121,260.839L209.844,261.994L210.566,262.97L211.289,263.587L212.012,264.453L212.734,265.372L213.457,265.995L214.18,266.615L214.902,267.76L215.625,268.377L216.348,269.154L217.07,269.66L217.793,270.385L218.516,270.9L219.238,271.747L219.961,272.342L220.684,273.249L221.406,273.81L222.129,274.4L222.852,274.696L223.574,275.262L224.297,276.166L225.02,276.287L225.742,276.885L226.465,277.487L227.188,277.877L227.91,278.361L228.633,278.843L229.355,279.099L230.078,279.878L230.801,280.271L231.523,280.621L232.246,280.756L232.969,280.823L233.691,281.051L234.414,281.872L235.137,282.237L235.859,282.302L236.582,282.494L237.305,282.465L238.027,282.594L238.75,283.206L239.473,283.223L240.195,283.284L240.918,283.359L241.641,283.711L242.363,283.567L243.086,284.199L243.809,284.019L244.531,284.023L245.254,283.87L245.977,283.895L246.699,284.052L247.422,283.905L248.145,284.028L248.867,284.349L249.59,284.001L250.313,283.901L251.035,284.206L251.758,283.471L252.48,283.319L253.203,283.212L253.926,283.496L254.648,283.471L255.371,282.936L256.094,282.896L256.816,282.607L257.539,282.464L258.262,281.892L258.984,281.881L259.707,281.409L260.43,281.364L261.152,280.973L261.875,280.752L262.598,280.183L263.32,280.105L264.043,279.971L264.766,279.487L265.488,279.268L266.211,278.76L266.934,278.583L267.656,277.878L268.379,277.314L269.102,277.172L269.824,276.434L270.547,276.289L271.27,275.437L271.992,275.314L272.715,274.541L273.438,274.087L274.16,273.655L274.883,273.428L275.605,272.609L276.328,272.024L277.051,271.723L277.773,270.756L278.496,270.504L279.219,269.775L279.941,269.325L280.664,268.367L281.387,267.954L282.109,267.1L282.832,266.924L283.555,265.875L284.277,265.443L285,264.856L285.723,264.474L286.445,263.628L287.168,262.593L287.891,262.449L288.613,261.46L289.336,260.633L290.059,260.247L290.781,259.394L291.504,258.414L292.227,258.066L292.949,257.059L293.672,256.525L294.395,255.808L295.117,255.097L295.84,254.621L296.563,253.718L297.285,252.9L298.008,251.668L298.73,251.472L299.453,250.079L300.176,249.683L300.898,249.109L301.621,248.277L302.344,247.118L303.066,246.084L303.789,245.911L304.512,244.749L305.234,244.235L305.957,243.169L306.68,242.516L307.402,241.26L308.125,240.837L308.848,239.572L309.57,238.994L310.293,238L311.016,237.45L311.738,236.641L312.461,235.312L313.184,234.767L313.906,233.62L314.629,233.239L315.352,232.141L316.074,231.135L316.797,230.103L317.52,229.862L318.242,228.528L318.965,228.104L319.688,226.881L320.41,226.004L321.133,225.457L321.855,223.973L322.578,223.176L323.301,222.602L324.023,221.585L324.746,220.629L325.469,220.096L326.191,218.871L326.914,217.961L327.637,216.961L328.359,215.98L329.082,215.228L329.805,214.306L330.527,213.428L331.25,212.516L331.973,211.91L332.695,211.022L333.418,210.032L334.141,209.14L334.863,208.169L335.586,207.551L336.309,206.691L337.031,205.513L337.754,204.409L338.477,203.663L339.199,202.8L339.922,202.067L340.645,201.382L341.367,200.382L342.09,199.375L342.813,198.5L343.535,197.475L344.258,196.557L344.98,195.699L345.703,195.067L346.426,193.798L347.148,193.178L347.871,192.021L348.594,191.382L349.316,190.332L350.039,189.884L350.762,188.606L351.484,187.852L352.207,187.11L352.93,186.367L353.652,185.32L354.375,184.545L355.098,183.575L355.82,182.255L356.543,181.924L357.266,180.733L357.988,180.034L358.711,178.971L359.434,178.063L360.156,177.183L360.879,176.668L361.602,175.922L362.324,174.676L363.047,174.18L363.77,173.211L364.492,172.257L365.215,171.385L365.938,170.522L366.66,169.94L367.383,168.884L368.105,168.311L368.828,167.11L369.551,166.438L370.273,165.398L370.996,164.637L371.719,163.789L372.441,163.045L373.164,161.903L373.887,161.56L374.609,160.539L375.332,159.894L376.055,158.524L376.777,158.081L377.5,157.349L378.223,156.263L378.945,155.865L379.668,155.023L380.391,154.044L381.113,152.968L381.836,152.316L382.559,151.356L383.281,150.906L384.004,149.955L384.727,149.088L385.449,148.673L386.172,147.532L386.895,147.145L387.617,145.993L388.34,145.271L389.063,144.666L389.785,143.734L390.508,143.03L391.23,142.243L391.953,141.461L392.676,140.709L393.398,140.126L394.121,138.961L394.844,138.735L395.566,137.751L396.289,137.063L397.012,135.963L397.734,135.489L398.457,134.91L399.18,133.785L399.902,133.069L400.625,132.788L401.348,131.855L402.07,131.356L402.793,130.632L403.516,129.867L404.238,129.384L404.961,128.682L405.684,127.688L406.406,127.008L407.129,126.407L407.852,125.692L408.574,125.251L409.297,124.193L410.02,123.234L410.742,123.215L411.465,122.271L412.188,121.743L412.91,121.911L413.633,122.846L414.355,122.992L415.078,123.825L415.801,124.43L416.523,124.823L417.246,125.82L417.969,126.001L418.691,126.707L419.414,126.907L420.137,127.998L420.859,128.455L421.582,129.074L422.305,129.721L423.027,130.227L423.75,130.82L424.473,131.03L425.195,130.376L425.918,130.272L426.641,129.715L427.363,129.308L428.086,128.762L428.809,128.314L429.531,127.642L430.254,127.368L430.977,126.933L431.699,126.366L432.422,126.202L433.145,125.654L433.867,125.1L434.59,125.073L435.313,124.539L436.035,124.12L436.758,123.517L437.48,122.695L438.203,122.275L438.926,122.328L439.648,121.754L440.371,121.398L441.094,120.9L441.816,120.619L442.539,120.135L443.262,119.785L443.984,119.311L444.707,119.071L445.43,118.411L446.152,118.001L446.875,117.611L447.598,117.214L448.32,116.849L449.043,116.402L449.766,115.641L450.488,115.703L451.211,115.33L451.934,114.845L452.656,114.452L453.379,113.866L454.102,113.522L454.824,113.117L455.547,112.432L456.27,112.29L456.992,111.937L457.715,111.522L458.438,111.041L459.16,110.768L459.883,110.535L460.605,109.918L461.328,109.557L462.051,109.157L462.773,108.815L463.496,108.421L464.219,108.01L464.941,107.744L465.664,107.284L466.387,106.877L467.109,106.584L467.832,105.975L468.555,105.689L469.277,105.215"/><path fill="none" stroke="rgb(38, 188, 225)" stroke-width="1.5" d="M100,106.14L100.723,104.9L101.445,103.918L102.168,103.095L102.891,102.278L103.613,101.68L104.336,101.142L105.059,100.647L105.781,100.15L106.504,99.801L107.227,99.469L107.949,99.026L108.672,98.821L109.395,98.411L110.117,98.159L110.84,98.045L111.563,97.674L112.285,97.537L113.008,97.3L113.73,97.079L114.453,96.875L115.176,96.611L115.898,96.318L116.621,96.236L117.344,95.821L118.066,95.617L118.789,95.302L119.512,94.905L120.234,94.617L120.957,94.232L121.68,93.75L122.402,93.177L123.125,92.53L123.848,93.399L124.57,95.062L125.293,96.674L126.016,98.247L126.738,99.558L127.461,101.082L128.184,102.371L128.906,103.652L129.629,105.054L130.352,106.186L131.074,107.527L131.797,108.657L132.52,109.874L133.242,110.864L133.965,112.126L134.688,113.245L135.41,114.36L136.133,115.506L136.855,116.64L137.578,117.634L138.301,118.821L139.023,119.726L139.746,120.907L140.469,121.982L141.191,123.044L141.914,124.071L142.637,125.013L143.359,126.058L144.082,127.093L144.805,128.174L145.527,129.212L146.25,130.269L146.973,131.173L147.695,132.265L148.418,133.207L149.141,134.23L149.863,135.065L150.586,136.331L151.309,137.207L152.031,138.171L152.754,139.243L153.477,140.056L154.199,141.068L154.922,142.12L155.645,143.094L156.367,143.908L157.09,144.996L157.813,145.884L158.535,146.879L159.258,147.919L159.98,148.824L160.703,149.66L161.426,150.727L162.148,151.627L162.871,152.657L163.594,153.458L164.316,154.461L165.039,155.286L165.762,156.299L166.484,157.14L167.207,158.153L167.93,159.237L168.652,159.964L169.375,161.069L170.098,161.784L170.82,162.937L171.543,163.735L172.266,164.653L172.988,165.585L173.711,166.513L174.434,167.15L175.156,168.378L175.879,169.063L176.602,170.056L177.324,170.707L178.047,171.655L178.77,172.56L179.492,173.334L180.215,174.265L180.938,175.291L181.66,176.265L182.383,177.026L183.105,177.647L183.828,178.453L184.551,179.158L185.273,180.186L185.996,181.097L186.719,181.731L187.441,182.762L188.164,183.509L188.887,184.526L189.609,185.152L190.332,185.879L191.055,186.683L191.777,187.627L192.5,188.217L193.223,188.97L193.945,189.816L194.668,190.325L195.391,191.169L196.113,191.877L196.836,192.497L197.559,193.289L198.281,194.194L199.004,194.72L199.727,195.213L200.449,196.163L201.172,196.818L201.895,197.285L202.617,198.015L203.34,198.846L204.063,199.109L204.785,199.666L205.508,200.324L206.23,201.029L206.953,201.474L207.676,202.038L208.398,202.644L209.121,203.168L209.844,203.461L210.566,204.25L211.289,204.934L212.012,205.315L212.734,205.609L213.457,206.063L214.18,206.494L214.902,206.983L215.625,207.323L216.348,208.007L217.07,208.197L217.793,208.521L218.516,209.123L219.238,209.218L219.961,209.726L220.684,209.82L221.406,210.132L222.129,210.456L222.852,211.034L223.574,211.301L224.297,211.407L225.02,211.749L225.742,211.981L226.465,212.197L227.188,212.384L227.91,212.859L228.633,212.85L229.355,213.103L230.078,213.343L230.801,213.662L231.523,213.504L232.246,213.718L232.969,213.82L233.691,213.974L234.414,213.954L235.137,214.194L235.859,213.92L236.582,214.283L237.305,214.226L238.027,214.304L238.75,214.39L239.473,214.26L240.195,214.503L240.918,214.252L241.641,214.165L242.363,214.394L243.086,214.164L243.809,214.275L244.531,213.898L245.254,213.972L245.977,213.937L246.699,213.946L247.422,213.653L248.145,213.859L248.867,213.377L249.59,213.247L250.313,213.205L251.035,212.962L251.758,212.93L252.48,212.754L253.203,212.404L253.926,212.218L254.648,212.172L255.371,211.797L256.094,211.503L256.816,211.326L257.539,211.175L258.262,210.866L258.984,210.426L259.707,210.231L260.43,209.799L261.152,209.493L261.875,209.495L262.598,209.178L263.32,208.621L264.043,208.274L264.766,208.064L265.488,207.611L266.211,207.212L266.934,206.906L267.656,206.674L268.379,206.04L269.102,205.692L269.824,205.235L270.547,205.031L271.27,204.421L271.992,204.15L272.715,203.427L273.438,203.167L274.16,202.843L274.883,202.321L275.605,202.113L276.328,201.508L277.051,201.041L277.773,200.446L278.496,199.851L279.219,199.363L279.941,198.801L280.664,198.587L281.387,197.883L282.109,197.311L282.832,196.719L283.555,196.13L284.277,195.869L285,195.196L285.723,194.727L286.445,194.259L287.168,193.634L287.891,193.211L288.613,192.363L289.336,191.935L290.059,191.287L290.781,190.76L291.504,190.408L292.227,189.589L292.949,189.007L293.672,188.458L294.395,187.716L295.117,187.149L295.84,186.618L296.563,185.936L297.285,185.398L298.008,185.019L298.73,184.35L299.453,183.721L300.176,183.041L300.898,182.62L301.621,181.873L302.344,181.181L303.066,180.382L303.789,180.011L304.512,179.246L305.234,178.663L305.957,177.95L306.68,177.248L307.402,176.656L308.125,176.286L308.848,175.216L309.57,174.618L310.293,173.973L311.016,173.304L311.738,172.829L312.461,172.002L313.184,171.513L313.906,171.049L314.629,169.929L315.352,169.498L316.074,168.855L316.797,168.145L317.52,167.411L318.242,166.932L318.965,166.251L319.688,165.676L320.41,164.658L321.133,163.999L321.855,163.426L322.578,162.959L323.301,162.012L324.023,161.416L324.746,160.929L325.469,160.226L326.191,159.421L326.914,158.915L327.637,158.117L328.359,157.637L329.082,157.047L329.805,156.368L330.527,155.483L331.25,154.884L331.973,154.003L332.695,153.654L333.418,152.958L334.141,152.081L334.863,151.597L335.586,150.754L336.309,150.056L337.031,149.497L337.754,148.704L338.477,147.993L339.199,147.727L339.922,146.902L340.645,146.103L341.367,145.327L342.09,144.903L342.813,144.031L343.535,143.522L344.258,142.999L344.98,142.225L345.703,141.537L346.426,140.823L347.148,140.244L347.871,139.748L348.594,139.035L349.316,138.186L350.039,137.432L350.762,137.026L351.484,136.196L352.207,135.777L352.93,135.078L353.652,134.293L354.375,133.406L355.098,132.989L355.82,132.297L356.543,131.871L357.266,130.979L357.988,130.304L358.711,129.84L359.434,129.055L360.156,128.479L360.879,127.742L361.602,127.216L362.324,126.576L363.047,125.777L363.77,125.227L364.492,124.701L365.215,124.194L365.938,123.479L366.66,122.852L367.383,122.423L368.105,121.48L368.828,121.122L369.551,120.25L370.273,119.913L370.996,119.26L371.719,118.687L372.441,117.86L373.164,117.285L373.887,116.83L374.609,115.941L375.332,115.534L376.055,114.803L376.777,114.288L377.5,113.831L378.223,113.123L378.945,112.412L379.668,111.829L380.391,111.292L381.113,110.664L381.836,110.052L382.559,109.76L383.281,108.989L384.004,108.461L384.727,107.814L385.449,107.518L386.172,106.638L386.895,106.091L387.617,105.73L388.34,105.158L389.063,104.6L389.785,104.172L390.508,103.41L391.23,103.029L391.953,102.32L392.676,101.781L393.398,101.228L394.121,100.723L394.844,100.188L395.566,99.73L396.289,99.034L397.012,98.507L397.734,98.147L398.457,97.638L399.18,96.798L399.902,96.349L400.625,95.845L401.348,95.378L402.07,95.009L402.793,94.547L403.516,93.826L404.238,94.077L404.961,94.889L405.684,95.536L406.406,96.562L407.129,97.142L407.852,98.036L408.574,98.809L409.297,99.112L410.02,100.125L410.742,100.668L411.465,101.646L412.188,102.246L412.91,103.075L413.633,103.967L414.355,104.205L415.078,105.415L415.801,105.703L416.523,105.376L417.246,105.216L417.969,104.723L418.691,104.71L419.414,104.264L420.137,104.006L420.859,103.739L421.582,103.323L422.305,102.992L423.027,102.834L423.75,102.712L424.473,102.225L425.195,101.909L425.918,101.652L426.641,101.261L427.363,101.163L428.086,100.642L428.809,100.307L429.531,100.289L430.254,99.914L430.977,99.665L431.699,99.347L432.422,99.242L433.145,98.879L433.867,98.534L434.59,98.173L435.313,97.832L436.035,97.671L436.758,97.126L437.48,97.134L438.203,96.625L438.926,96.528L439.648,96.382L440.371,95.827L441.094,95.839L441.816,95.317L442.539,95.132L443.262,94.9L443.984,94.381L444.707,94.108L445.43,93.828L446.152,93.715L446.875,93.185L447.598,93.124L448.32,92.824L449.043,92.421L449.766,92.304L450.488,91.986L451.211,91.405L451.934,91.415L452.656,91.013L453.379,90.727L454.102,90.655L454.824,90.397L455.547,89.924L456.27,89.646L456.992,89.461L457.715,89.3L458.438,89.051L459.16,88.556L459.883,88.254L460.605,87.989L461.328,87.839L462.051,87.331L462.773,87.412L463.496,87.027L464.219,86.648L464.941,86.21L465.664,86.166L466.387,85.673L467.109,85.756L467.832,85.274L468.555,84.894L469.277,84.751"/><path fill="none" stroke="rgb(63, 243, 147)" stroke-width="1.5" d="M100,105.685L100.723,104.502L101.445,103.311L102.168,102.264L102.891,101.274L103.613,100.34L104.336,99.556L105.059,98.666L105.781,97.928L106.504,97.247L107.227,96.514L107.949,95.91L108.672,95.109L109.395,94.597L110.117,93.801L110.84,93.309L111.563,92.714L112.285,92.161L113.008,91.433L113.73,90.958L114.453,90.265L115.176,89.565L115.898,88.96L116.621,88.226L117.344,87.467L118.066,86.826L118.789,86.068L119.512,85.188L120.234,84.355L120.957,83.3L121.68,82.338L122.402,81.115L123.125,79.883L123.848,81.075L124.57,82.219L125.293,83.308L126.016,84.409L126.738,85.448L127.461,86.548L128.184,87.525L128.906,88.395L129.629,89.269L130.352,90.168L131.074,91.065L131.797,91.882L132.52,92.716L133.242,93.459L133.965,94.279L134.688,95.109L135.41,95.897L136.133,96.609L136.855,97.387L137.578,98.068L138.301,98.722L139.023,99.561L139.746,100.142L140.469,100.784L141.191,101.486L141.914,102.346L142.637,102.878L143.359,103.604L144.082,104.374L144.805,104.907L145.527,105.477L146.25,106.205L146.973,106.765L147.695,107.511L148.418,108.24L149.141,108.79L149.863,109.482L150.586,110.083L151.309,110.681L152.031,111.285L152.754,112.071L153.477,112.578L154.199,113.182L154.922,113.857L155.645,114.462L156.367,115.037L157.09,115.59L157.813,116.274L158.535,116.996L159.258,117.491L159.98,118.217L160.703,118.819L161.426,119.369L162.148,119.945L162.871,120.61L163.594,121.199L164.316,121.823L165.039,122.425L165.762,123.082L166.484,123.637L167.207,124.274L167.93,124.843L168.652,125.539L169.375,126.127L170.098,126.688L170.82,127.24L171.543,127.807L172.266,128.299L172.988,128.89L173.711,129.458L174.434,130.086L175.156,130.692L175.879,131.332L176.602,131.802L177.324,132.482L178.047,132.942L178.77,133.626L179.492,134.171L180.215,134.704L180.938,135.222L181.66,135.749L182.383,136.269L183.105,136.866L183.828,137.293L184.551,137.849L185.273,138.327L185.996,138.907L186.719,139.621L187.441,140.149L188.164,140.656L188.887,141.068L189.609,141.541L190.332,142.06L191.055,142.705L191.777,143.121L192.5,143.564L193.223,144.023L193.945,144.463L194.668,144.942L195.391,145.484L196.113,145.929L196.836,146.419L197.559,146.815L198.281,147.249L199.004,147.533L199.727,147.995L200.449,148.37L201.172,148.596L201.895,149.198L202.617,149.464L203.34,149.918L204.063,150.166L204.785,150.682L205.508,150.871L206.23,151.163L206.953,151.624L207.676,151.677L208.398,151.793L209.121,152.303L209.844,152.438L210.566,152.905L211.289,152.997L212.012,153.118L212.734,153.548L213.457,153.715L214.18,153.824L214.902,153.787L215.625,154.285L216.348,154.337L217.07,154.505L217.793,154.735L218.516,154.845L219.238,154.943L219.961,155.131L220.684,155.211L221.406,155.31L222.129,155.442L222.852,155.483L223.574,155.539L224.297,155.5L225.02,155.769L225.742,155.774L226.465,155.698L227.188,155.79L227.91,155.997L228.633,155.8L229.355,155.934L230.078,155.837L230.801,155.853L231.523,155.727L232.246,155.656L232.969,155.691L233.691,155.673L234.414,155.575L235.137,155.455L235.859,155.501L236.582,155.402L237.305,155.289L238.027,155.3L238.75,155.031L239.473,154.852L240.195,154.795L240.918,154.59L241.641,154.463L242.363,154.329L243.086,154.261L243.809,154.067L244.531,153.846L245.254,153.826L245.977,153.458L246.699,153.399L247.422,153.042L248.145,152.84L248.867,152.727L249.59,152.459L250.313,152.284L251.035,152.205L251.758,151.84L252.48,151.569L253.203,151.17L253.926,150.98L254.648,150.746L255.371,150.495L256.094,150.331L256.816,149.821L257.539,149.536L258.262,149.238L258.984,148.886L259.707,148.692L260.43,148.458L261.152,148.063L261.875,147.755L262.598,147.272L263.32,147.035L264.043,146.737L264.766,146.304L265.488,146.063L266.211,145.713L266.934,145.284L267.656,145.055L268.379,144.527L269.102,144.165L269.824,143.94L270.547,143.707L271.27,143.224L271.992,142.938L272.715,142.349L273.438,141.832L274.16,141.67L274.883,141.054L275.605,140.721L276.328,140.423L277.051,139.788L277.773,139.414L278.496,139.087L279.219,138.848L279.941,138.188L280.664,137.735L281.387,137.484L282.109,137.075L282.832,136.547L283.555,136.145L284.277,135.606L285,135.228L285.723,134.902L286.445,134.401L287.168,133.791L287.891,133.438L288.613,133.037L289.336,132.587L290.059,132.013L290.781,131.583L291.504,130.98L292.227,130.468L292.949,130.194L293.672,129.651L294.395,129.362L295.117,128.788L295.84,128.337L296.563,127.665L297.285,127.315L298.008,126.925L298.73,126.486L299.453,125.747L300.176,125.403L300.898,125.157L301.621,124.259L302.344,123.939L303.066,123.283L303.789,122.966L304.512,122.515L305.234,122.005L305.957,121.526L306.68,121.135L307.402,120.394L308.125,119.855L308.848,119.448L309.57,118.844L310.293,118.521L311.016,117.899L311.738,117.563L312.461,117.1L313.184,116.583L313.906,115.981L314.629,115.504L315.352,115.098L316.074,114.753L316.797,114.066L317.52,113.619L318.242,113.321L318.965,112.52L319.688,112.144L320.41,111.597L321.133,111.172L321.855,110.555L322.578,110.231L323.301,109.557L324.023,109.122L324.746,108.798L325.469,108.285L326.191,107.715L326.914,107.238L327.637,106.776L328.359,106.329L329.082,105.636L329.805,105.305L330.527,104.767L331.25,104.362L331.973,103.893L332.695,103.299L333.418,102.737L334.141,102.211L334.863,101.986L335.586,101.309L336.309,100.85L337.031,100.466L337.754,99.786L338.477,99.431L339.199,99.028L339.922,98.529L340.645,97.917L341.367,97.514L342.09,97.022L342.813,96.605L343.535,96.008L344.258,95.514L344.98,95.215L345.703,94.67L346.426,94.16L347.148,93.782L347.871,93.184L348.594,92.971L349.316,92.36L350.039,91.947L350.762,91.42L351.484,90.859L352.207,90.548L352.93,90.103L353.652,89.502L354.375,89.092L355.098,88.691L355.82,88.338L356.543,87.626L357.266,87.398L357.988,86.795L358.711,86.342L359.434,86.069L360.156,85.585L360.879,85.104L361.602,84.715L362.324,84.208L363.047,83.734L363.77,83.478L364.492,83.034L365.215,82.522L365.938,82.141L366.66,81.65L367.383,81.126L368.105,80.932L368.828,80.333L369.551,79.825L370.273,79.591L370.996,79.116L371.719,78.676L372.441,78.268L373.164,77.972L373.887,77.431L374.609,77.088L375.332,76.711L376.055,76.19L376.777,75.89L377.5,75.456L378.223,74.989L378.945,74.521L379.668,74.313L380.391,73.811L381.113,73.411L381.836,73.119L382.559,72.869L383.281,72.183L384.004,71.902L384.727,71.545L385.449,71.107L386.172,70.816L386.895,70.466L387.617,70.002L388.34,69.742L389.063,70.578L389.785,71.109L390.508,72.001L391.23,72.602L391.953,73.742L392.676,74.644L393.398,75.668L394.121,76.29L394.844,77.21L395.566,77.807L396.289,78.644L397.012,79.687L397.734,80.457L398.457,81.166L399.18,82.579L399.902,83.128L400.625,83.574L401.348,83.357L402.07,83.201L402.793,83.286L403.516,83.1L404.238,82.926L404.961,82.823L405.684,82.451L406.406,82.323L407.129,82.349L407.852,82.07L408.574,81.882L409.297,81.617L410.02,81.553L410.742,81.347L411.465,81.173L412.188,81.146L412.91,80.649L413.633,80.672L414.355,80.444L415.078,80.304L415.801,80.158L416.523,79.841L417.246,79.768L417.969,79.643L418.691,79.378L419.414,79.164L420.137,78.941L420.859,78.919L421.582,78.682L422.305,78.61L423.027,78.291L423.75,78.226L424.473,77.906L425.195,77.845L425.918,77.618L426.641,77.367L427.363,77.195L428.086,77.154L428.809,76.995L429.531,76.748L430.254,76.557L430.977,76.395L431.699,76.164L432.422,75.966L433.145,75.83L433.867,75.745L434.59,75.467L435.313,75.468L436.035,75.249L436.758,74.965L437.48,74.783L438.203,74.475L438.926,74.291L439.648,74.304L440.371,74.058L441.094,73.936L441.816,73.547L442.539,73.527L443.262,73.217L443.984,73.236L444.707,72.965L445.43,72.708L446.152,72.671L446.875,72.482L447.598,72.287L448.32,72.091L449.043,71.715L449.766,71.608L450.488,71.379L451.211,71.407L451.934,71.251L452.656,70.988L453.379,70.823L454.102,70.44L454.824,70.261L455.547,70.095L456.27,70.096L456.992,69.99L457.715,69.63L458.438,69.552L459.16,69.169L459.883,69.097L460.605,68.935L461.328,68.826L462.051,68.493L462.773,68.475L463.496,68.194L464.219,68.02L464.941,67.946L465.664,67.759L466.387,67.575L467.109,67.377L467.832,67.159L468.555,66.973L469.277,66.808"/><path fill="none" stroke="rgb(149, 251, 81)" stroke-width="1.5" d="M100,103.378L100.723,102.07L101.445,100.89L102.168,99.705L102.891,98.479L103.613,97.433L104.336,96.39L105.059,95.347L105.781,94.106L106.504,93.263L107.227,92.185L107.949,91.235L108.672,90.168L109.395,89.142L110.117,88.24L110.84,87.227L111.563,86.279L112.285,85.141L113.008,84.234L113.73,83.213L114.453,82.099L115.176,80.961L115.898,79.846L116.621,78.637L117.344,77.47L118.066,76.276L118.789,74.919L119.512,73.556L120.234,72.04L120.957,70.548L121.68,68.98L122.402,69.54L123.125,70.195L123.848,71.025L124.57,71.692L125.293,72.369L126.016,73.026L126.738,73.622L127.461,74.233L128.184,74.816L128.906,75.224L129.629,75.829L130.352,76.163L131.074,76.6L131.797,77.128L132.52,77.576L133.242,78.02L133.965,78.323L134.688,78.815L135.41,79.082L136.133,79.453L136.855,79.837L137.578,80.31L138.301,80.557L139.023,80.872L139.746,81.205L140.469,81.44L141.191,81.897L141.914,82.165L142.637,82.507L143.359,82.767L144.082,83.089L144.805,83.366L145.527,83.727L146.25,84.069L146.973,84.291L147.695,84.568L148.418,84.832L149.141,85.078L149.863,85.373L150.586,85.685L151.309,85.981L152.031,86.25L152.754,86.474L153.477,86.795L154.199,87.14L154.922,87.445L155.645,87.771L156.367,88.033L157.09,88.263L157.813,88.559L158.535,88.886L159.258,89.057L159.98,89.356L160.703,89.694L161.426,90.079L162.148,90.408L162.871,90.649L163.594,91.008L164.316,91.308L165.039,91.411L165.762,91.78L166.484,92.146L167.207,92.307L167.93,92.606L168.652,92.974L169.375,93.362L170.098,93.657L170.82,93.819L171.543,94.111L172.266,94.546L172.988,94.822L173.711,95.077L174.434,95.448L175.156,95.695L175.879,96.004L176.602,96.217L177.324,96.527L178.047,96.934L178.77,97.264L179.492,97.464L180.215,97.724L180.938,98.061L181.66,98.23L182.383,98.72L183.105,98.863L183.828,99.296L184.551,99.581L185.273,99.846L185.996,100.199L186.719,100.364L187.441,100.597L188.164,100.942L188.887,101.191L189.609,101.535L190.332,101.829L191.055,102.108L191.777,102.425L192.5,102.691L193.223,102.927L193.945,103.036L194.668,103.451L195.391,103.682L196.113,104.059L196.836,104.132L197.559,104.392L198.281,104.522L199.004,104.686L199.727,104.955L200.449,105.082L201.172,105.353L201.895,105.366L202.617,105.554L203.34,105.641L204.063,105.762L204.785,105.9L205.508,106.08L206.23,106.09L206.953,106.214L207.676,106.374L208.398,106.444L209.121,106.44L209.844,106.528L210.566,106.57L211.289,106.612L212.012,106.675L212.734,106.535L213.457,106.831L214.18,106.696L214.902,106.668L215.625,106.652L216.348,106.687L217.07,106.651L217.793,106.614L218.516,106.546L219.238,106.481L219.961,106.704L220.684,106.469L221.406,106.456L222.129,106.257L222.852,106.206L223.574,106.149L224.297,106.111L225.02,105.938L225.742,105.91L226.465,105.85L227.188,105.697L227.91,105.522L228.633,105.417L229.355,105.266L230.078,105.091L230.801,104.955L231.523,104.832L232.246,104.628L232.969,104.542L233.691,104.416L234.414,104.086L235.137,104.011L235.859,104.001L236.582,103.713L237.305,103.461L238.027,103.332L238.75,103.045L239.473,102.876L240.195,102.663L240.918,102.454L241.641,102.275L242.363,101.868L243.086,101.817L243.809,101.634L244.531,101.351L245.254,101.054L245.977,100.87L246.699,100.661L247.422,100.345L248.145,100.181L248.867,99.816L249.59,99.677L250.313,99.235L251.035,99.122L251.758,98.895L252.48,98.513L253.203,98.218L253.926,98.107L254.648,97.844L255.371,97.463L256.094,97.15L256.816,96.807L257.539,96.535L258.262,96.187L258.984,96.043L259.707,95.701L260.43,95.433L261.152,95.11L261.875,94.733L262.598,94.595L263.32,94.118L264.043,93.862L264.766,93.574L265.488,93.256L266.211,92.953L266.934,92.856L267.656,92.384L268.379,92.032L269.102,91.723L269.824,91.297L270.547,91.145L271.27,90.747L271.992,90.526L272.715,90.191L273.438,89.763L274.16,89.421L274.883,89.156L275.605,88.661L276.328,88.346L277.051,88.137L277.773,87.826L278.496,87.492L279.219,87.155L279.941,86.865L280.664,86.391L281.387,86.038L282.109,85.806L282.832,85.428L283.555,85.052L284.277,84.73L285,84.399L285.723,84.096L286.445,83.727L287.168,83.317L287.891,82.961L288.613,82.679L289.336,82.28L290.059,81.96L290.781,81.565L291.504,81.194L292.227,80.913L292.949,80.611L293.672,80.269L294.395,79.899L295.117,79.569L295.84,79.124L296.563,78.733L297.285,78.563L298.008,78.02L298.73,77.778L299.453,77.489L300.176,77.022L300.898,76.756L301.621,76.368L302.344,76.07L303.066,75.716L303.789,75.446L304.512,74.92L305.234,74.775L305.957,74.139L306.68,73.798L307.402,73.494L308.125,73.265L308.848,72.752L309.57,72.477L310.293,72.17L311.016,71.859L311.738,71.492L312.461,71.089L313.184,70.763L313.906,70.426L314.629,70.114L315.352,69.763L316.074,69.38L316.797,69.076L317.52,68.656L318.242,68.429L318.965,68.206L319.688,67.809L320.41,67.333L321.133,67.119L321.855,66.741L322.578,66.385L323.301,65.969L324.023,65.779L324.746,65.355L325.469,65.004L326.191,64.717L326.914,64.44L327.637,64.129L328.359,63.855L329.082,63.436L329.805,63.032L330.527,62.702L331.25,62.49L331.973,62.118L332.695,61.886L333.418,61.535L334.141,61.228L334.863,60.923L335.586,60.579L336.309,60.187L337.031,59.979L337.754,59.69L338.477,59.325L339.199,58.957L339.922,58.72L340.645,58.465L341.367,58.063L342.09,57.839L342.813,57.529L343.535,57.18L344.258,56.947L344.98,56.535L345.703,56.3L346.426,55.957L347.148,55.792L347.871,55.406L348.594,55.193L349.316,54.866L350.039,54.583L350.762,54.322L351.484,54.008L352.207,53.801L352.93,53.468L353.652,53.242L354.375,52.882L355.098,52.57L355.82,52.33L356.543,51.963L357.266,51.72L357.988,51.426L358.711,51.227L359.434,50.931L360.156,50.672L360.879,50.361L361.602,50.162L362.324,49.93L363.047,49.633L363.77,49.374L364.492,49.717L365.215,50.565L365.938,51.737L366.66,52.69L367.383,53.788L368.105,54.434L368.828,55.409L369.551,56.155L370.273,57.126L370.996,58.555L371.719,59.742L372.441,60.168L373.164,61.422L373.887,62.335L374.609,63.199L375.332,63.841L376.055,65.091L376.777,65.042L377.5,65.1L378.223,65.002L378.945,64.892L379.668,64.874L380.391,64.914L381.113,64.793L381.836,64.742L382.559,64.593L383.281,64.559L384.004,64.437L384.727,64.417L385.449,64.323L386.172,64.256L386.895,64.223L387.617,64.131L388.34,64.031L389.063,63.912L389.785,63.907L390.508,63.794L391.23,63.736L391.953,63.65L392.676,63.562L393.398,63.458L394.121,63.489L394.844,63.399L395.566,63.258L396.289,63.152L397.012,63.036L397.734,63.014L398.457,62.961L399.18,62.876L399.902,62.798L400.625,62.635L401.348,62.664L402.07,62.444L402.793,62.356L403.516,62.319L404.238,62.109L404.961,62.11L405.684,62.04L406.406,61.941L407.129,61.967L407.852,61.752L408.574,61.663L409.297,61.467L410.02,61.408L410.742,61.341L411.465,61.29L412.188,61.294L412.91,61.017L413.633,60.946L414.355,60.901L415.078,60.814L415.801,60.702L416.523,60.674L417.246,60.435L417.969,60.419L418.691,60.302L419.414,60.225L420.137,60.103L420.859,60.102L421.582,59.953L422.305,59.7L423.027,59.751L423.75,59.579L424.473,59.613L425.195,59.398L425.918,59.285L426.641,59.318L427.363,59.038L428.086,59.047L428.809,58.855L429.531,58.786L430.254,58.58L430.977,58.495L431.699,58.39L432.422,58.422L433.145,58.336L433.867,58.241L434.59,58.011L435.313,57.92L436.035,57.899L436.758,57.648L437.48,57.566L438.203,57.512L438.926,57.381L439.648,57.286L440.371,57.177L441.094,56.981L441.816,56.951L442.539,56.805L443.262,56.753L443.984,56.65L444.707,56.438L445.43,56.443L446.152,56.293L446.875,56.227L447.598,56.082L448.32,55.965L449.043,55.851L449.766,55.723L450.488,55.594L451.211,55.603L451.934,55.441L452.656,55.219L453.379,55.216L454.102,55.085L454.824,55.001L455.547,54.944L456.27,54.764L456.992,54.692L457.715,54.614L458.438,54.437L459.16,54.322L459.883,54.366L460.605,54.113L461.328,53.979L462.051,54.025L462.773,53.804L463.496,53.642L464.219,53.525L464.941,53.505L465.664,53.412L466.387,53.287L467.109,53.148L467.832,53.022L468.555,52.983L469.277,52.696"/><path fill="none" stroke="rgb(236, 209, 46)" stroke-width="1.5" d="M100,98.512L100.723,97.432L101.445,96.253L102.168,95.079L102.891,93.705L103.613,92.523L104.336,91.217L105.059,90.004L105.781,88.857L106.504,87.641L107.227,86.345L107.949,85.117L108.672,83.85L109.395,82.838L110.117,81.524L110.84,80.44L111.563,79.116L112.285,77.712L113.008,76.384L113.73,75.082L114.453,73.834L115.176,72.22L115.898,70.817L116.621,69.219L117.344,67.57L118.066,65.973L118.789,64.195L119.512,62.342L120.234,64.673L120.957,65.035L121.68,65.515L122.402,65.774L123.125,66.126L123.848,66.393L124.57,66.701L125.293,66.808L126.016,67.083L126.738,67.366L127.461,67.534L128.184,67.663L128.906,67.808L129.629,67.907L130.352,67.972L131.074,68.077L131.797,68.091L132.52,68.083L133.242,68.184L133.965,68.206L134.688,68.361L135.41,68.287L136.133,68.359L136.855,68.39L137.578,68.348L138.301,68.332L139.023,68.361L139.746,68.261L140.469,68.324L141.191,68.327L141.914,68.273L142.637,68.216L143.359,68.255L144.082,68.155L144.805,68.204L145.527,67.957L146.25,67.934L146.973,67.963L147.695,67.927L148.418,67.867L149.141,67.845L149.863,67.939L150.586,67.755L151.309,67.759L152.031,67.619L152.754,67.663L153.477,67.514L154.199,67.465L154.922,67.505L155.645,67.372L156.367,67.405L157.09,67.299L157.813,67.339L158.535,67.225L159.258,67.225L159.98,67.214L160.703,67.083L161.426,67.012L162.148,66.992L162.871,66.938L163.594,66.883L164.316,66.83L165.039,66.833L165.762,66.73L166.484,66.754L167.207,66.7L167.93,66.58L168.652,66.619L169.375,66.498L170.098,66.454L170.82,66.481L171.543,66.581L172.266,66.476L172.988,66.463L173.711,66.424L174.434,66.214L175.156,66.294L175.879,66.292L176.602,66.318L177.324,66.191L178.047,66.176L178.77,66.279L179.492,66.17L180.215,66.116L180.938,66.154L181.66,66.219L182.383,66.067L183.105,65.991L183.828,66.146L184.551,66.049L185.273,66.076L185.996,66.126L186.719,66.008L187.441,66.099L188.164,65.923L188.887,66.015L189.609,65.915L190.332,66.011L191.055,66.009L191.777,65.954L192.5,66.051L193.223,65.943L193.945,66.003L194.668,65.877L195.391,65.932L196.113,65.88L196.836,65.854L197.559,65.764L198.281,65.749L199.004,65.55L199.727,65.588L200.449,65.528L201.172,65.454L201.895,65.255L202.617,65.157L203.34,65.003L204.063,64.866L204.785,64.688L205.508,64.576L206.23,64.533L206.953,64.289L207.676,64.105L208.398,63.949L209.121,63.855L209.844,63.643L210.566,63.396L211.289,63.291L212.012,63.103L212.734,62.802L213.457,62.618L214.18,62.397L214.902,62.279L215.625,61.998L216.348,61.867L217.07,61.788L217.793,61.379L218.516,61.132L219.238,60.937L219.961,60.724L220.684,60.485L221.406,60.421L222.129,60.169L222.852,59.84L223.574,59.655L224.297,59.435L225.02,59.113L225.742,58.977L226.465,58.722L227.188,58.474L227.91,58.208L228.633,57.909L229.355,57.794L230.078,57.507L230.801,57.186L231.523,57.072L232.246,56.807L232.969,56.476L233.691,56.3L234.414,55.999L235.137,55.747L235.859,55.599L236.582,55.225L237.305,55.071L238.027,54.847L238.75,54.493L239.473,54.367L240.195,54.032L240.918,53.881L241.641,53.595L242.363,53.317L243.086,53.073L243.809,52.89L244.531,52.628L245.254,52.359L245.977,52.224L246.699,51.933L247.422,51.77L248.145,51.516L248.867,51.286L249.59,51.04L250.313,50.671L251.035,50.616L251.758,50.262L252.48,50.104L253.203,49.759L253.926,49.599L254.648,49.397L255.371,49.031L256.094,48.915L256.816,48.649L257.539,48.539L258.262,48.229L258.984,47.945L259.707,47.763L260.43,47.591L261.152,47.358L261.875,47.144L262.598,46.843L263.32,46.631L264.043,46.393L264.766,46.221L265.488,46.024L266.211,45.698L266.934,45.601L267.656,45.284L268.379,45.117L269.102,44.892L269.824,44.739L270.547,44.469L271.27,44.188L271.992,44.066L272.715,43.815L273.438,43.676L274.16,43.436L274.883,43.157L275.605,43.03L276.328,42.719L277.051,42.643L277.773,42.467L278.496,42.129L279.219,42.022L279.941,41.78L280.664,41.598L281.387,41.321L282.109,41.195L282.832,41.033L283.555,40.727L284.277,40.576L285,40.364L285.723,40.161L286.445,40.116L287.168,39.866L287.891,39.589L288.613,39.415L289.336,39.305L290.059,39.096L290.781,38.787L291.504,38.666L292.227,38.434L292.949,38.33L293.672,38.097L294.395,37.868L295.117,37.739L295.84,37.557L296.563,37.408L297.285,37.226L298.008,36.956L298.73,36.869L299.453,36.611L300.176,36.354L300.898,36.255L301.621,36.106L302.344,35.875L303.066,35.639L303.789,35.523L304.512,35.38L305.234,35.121L305.957,34.995L306.68,34.792L307.402,34.65L308.125,34.493L308.848,34.348L309.57,34.202L310.293,33.967L311.016,33.788L311.738,33.556L312.461,33.423L313.184,33.262L313.906,33.072L314.629,32.991L315.352,32.723L316.074,32.61L316.797,32.438L317.52,32.239L318.242,32.064L318.965,31.94L319.688,31.826L320.41,31.602L321.133,31.45L321.855,31.353L322.578,31.148L323.301,30.969L324.023,31.933L324.746,32.773L325.469,34.122L326.191,34.97L326.914,35.661L327.637,36.68L328.359,37.911L329.082,38.877L329.805,40.038L330.527,40.912L331.25,41.884L331.973,43.052L332.695,43.858L333.418,44.602L334.141,45.827L334.863,46.667L335.586,47.52L336.309,48.443L337.031,48.402L337.754,48.5L338.477,48.501L339.199,48.556L339.922,48.631L340.645,48.502L341.367,48.561L342.09,48.638L342.813,48.57L343.535,48.642L344.258,48.712L344.98,48.641L345.703,48.767L346.426,48.698L347.148,48.618L347.871,48.572L348.594,48.649L349.316,48.698L350.039,48.609L350.762,48.687L351.484,48.795L352.207,48.717L352.93,48.677L353.652,48.753L354.375,48.782L355.098,48.727L355.82,48.732L356.543,48.778L357.266,48.774L357.988,48.663L358.711,48.762L359.434,48.647L360.156,48.69L360.879,48.687L361.602,48.677L362.324,48.748L363.047,48.68L363.77,48.688L364.492,48.543L365.215,48.6L365.938,48.618L366.66,48.551L367.383,48.584L368.105,48.594L368.828,48.546L369.551,48.518L370.273,48.534L370.996,48.53L371.719,48.557L372.441,48.474L373.164,48.398L373.887,48.55L374.609,48.405L375.332,48.41L376.055,48.35L376.777,48.294L377.5,48.338L378.223,48.337L378.945,48.224L379.668,48.26L380.391,48.217L381.113,48.258L381.836,48.193L382.559,48.14L383.281,48.17L384.004,48.103L384.727,48.052L385.449,47.984L386.172,47.993L386.895,48.014L387.617,47.831L388.34,47.903L389.063,47.81L389.785,47.785L390.508,47.781L391.23,47.719L391.953,47.693L392.676,47.647L393.398,47.635L394.121,47.576L394.844,47.616L395.566,47.52L396.289,47.477L397.012,47.41L397.734,47.373L398.457,47.333L399.18,47.398L399.902,47.187L400.625,47.203L401.348,47.202L402.07,47.169L402.793,47.074L403.516,47.076L404.238,46.952L404.961,46.954L405.684,46.983L406.406,46.855L407.129,46.801L407.852,46.724L408.574,46.746L409.297,46.738L410.02,46.654L410.742,46.614L411.465,46.594L412.188,46.554L412.91,46.47L413.633,46.394L414.355,46.331L415.078,46.238L415.801,46.311L416.523,46.258L417.246,46.181L417.969,46.122L418.691,46.02L419.414,46.055L420.137,45.968L420.859,45.837L421.582,45.827L422.305,45.865L423.027,45.746L423.75,45.66L424.473,45.672L425.195,45.607L425.918,45.558L426.641,45.485L427.363,45.407L428.086,45.331L428.809,45.362L429.531,45.228L430.254,45.205L430.977,45.196L431.699,45.13L432.422,45.004L433.145,45.067L433.867,44.957L434.59,44.971L435.313,44.863L436.035,44.808L436.758,44.764L437.48,44.672L438.203,44.613L438.926,44.493L439.648,44.451L440.371,44.397L441.094,44.367L441.816,44.441L442.539,44.267L443.262,44.199L443.984,44.178L444.707,44.135L445.43,44L446.152,43.938L446.875,43.952L447.598,43.968L448.32,43.795L449.043,43.82L449.766,43.731L450.488,43.676L451.211,43.597L451.934,43.528L452.656,43.47L453.379,43.401L454.102,43.356L454.824,43.251L455.547,43.173L456.27,43.139L456.992,43.101L457.715,43.107L458.438,42.959L459.16,42.807L459.883,42.906L460.605,42.77L461.328,42.659L462.051,42.723L462.773,42.648L463.496,42.568L464.219,42.488L464.941,42.403L465.664,42.388L466.387,42.269L467.109,42.248L467.832,42.211L468.555,42.212L469.277,42.116"/><path fill="none" stroke="rgb(255, 130, 29)" stroke-width="1.5" d="M100,94.399L100.723,93.424L101.445,92.103L102.168,90.93L102.891,89.721L103.613,88.329L104.336,87.093L105.059,85.813L105.781,84.435L106.504,83.173L107.227,81.811L107.949,80.607L108.672,79.124L109.395,77.839L110.117,76.655L110.84,75.154L111.563,73.746L112.285,72.401L113.008,70.943L113.73,69.308L114.453,67.798L115.176,66.12L115.898,64.236L116.621,62.389L117.344,61.758L118.066,63.259L118.789,63.547L119.512,63.738L120.234,63.825L120.957,64.046L121.68,64.07L122.402,64.054L123.125,64.073L123.848,64.222L124.57,64.109L125.293,64.055L126.016,64.08L126.738,63.964L127.461,63.866L128.184,63.676L128.906,63.653L129.629,63.48L130.352,63.444L131.074,63.205L131.797,63.151L132.52,62.847L133.242,62.664L133.965,62.6L134.688,62.422L135.41,62.116L136.133,61.975L136.855,61.772L137.578,61.47L138.301,61.273L139.023,61.029L139.746,60.843L140.469,60.661L141.191,60.469L141.914,60.27L142.637,59.954L143.359,59.691L144.082,59.463L144.805,59.116L145.527,58.894L146.25,58.566L146.973,58.353L147.695,58.134L148.418,57.898L149.141,57.54L149.863,57.301L150.586,57.103L151.309,56.678L152.031,56.494L152.754,56.196L153.477,55.974L154.199,55.643L154.922,55.361L155.645,55.073L156.367,54.804L157.09,54.457L157.813,54.214L158.535,53.949L159.258,53.722L159.98,53.296L160.703,53.126L161.426,52.887L162.148,52.529L162.871,52.209L163.594,51.916L164.316,51.625L165.039,51.382L165.762,51.097L166.484,50.949L167.207,50.544L167.93,50.271L168.652,49.931L169.375,49.678L170.098,49.425L170.82,49.1L171.543,48.826L172.266,48.505L172.988,48.289L173.711,48.061L174.434,47.729L175.156,47.564L175.879,47.214L176.602,46.96L177.324,46.676L178.047,46.383L178.77,46.154L179.492,45.908L180.215,45.714L180.938,45.377L181.66,45.117L182.383,44.939L183.105,44.626L183.828,44.338L184.551,44.094L185.273,43.866L185.996,43.64L186.719,43.461L187.441,43.148L188.164,42.933L188.887,42.65L189.609,42.442L190.332,42.156L191.055,42.034L191.777,41.798L192.5,41.548L193.223,41.322L193.945,41.113L194.668,40.84L195.391,40.579L196.113,40.315L196.836,40.13L197.559,39.896L198.281,39.599L199.004,39.229L199.727,38.968L200.449,38.63L201.172,38.337L201.895,38.096L202.617,37.789L203.34,37.432L204.063,37.105L204.785,36.725L205.508,36.424L206.23,36.197L206.953,35.732L207.676,35.425L208.398,35.102L209.121,34.822L209.844,34.347L210.566,34.204L211.289,33.852L212.012,33.465L212.734,33.075L213.457,32.838L214.18,32.466L214.902,32.088L215.625,31.94L216.348,31.523L217.07,31.169L217.793,30.872L218.516,30.557L219.238,30.29L219.961,29.884L220.684,29.495L221.406,29.214L222.129,28.905L222.852,28.579L223.574,28.213L224.297,27.898L225.02,27.601L225.742,27.385L226.465,27.064L227.188,26.816L227.91,26.429L228.633,26.119L229.355,25.871L230.078,25.549L230.801,25.21L231.523,24.987L232.246,24.719L232.969,24.424L233.691,24.224L234.414,23.943L235.137,23.629L235.859,23.337L236.582,23.027L237.305,22.758L238.027,22.556L238.75,22.271L239.473,21.965L240.195,21.699L240.918,21.499L241.641,21.278L242.363,20.982L243.086,20.73L243.809,20.544L244.531,20.218L245.254,20L245.977,21.225L246.699,22.639L247.422,23.76L248.145,25.096L248.867,26.184L249.59,27.588L250.313,29.028L251.035,30.244L251.758,31.389L252.48,32.345L253.203,33.797L253.926,35.001L254.648,36.14L255.371,37.19L256.094,37.125L256.816,37.145L257.539,37.127L258.262,37.199L258.984,37.14L259.707,37.123L260.43,37.122L261.152,37.144L261.875,37.076L262.598,37.07L263.32,37.157L264.043,37.119L264.766,37.062L265.488,37.078L266.211,37.025L266.934,37.011L267.656,36.976L268.379,37.037L269.102,37.06L269.824,36.981L270.547,36.962L271.27,36.861L271.992,36.875L272.715,36.845L273.438,36.908L274.16,36.827L274.883,36.766L275.605,36.766L276.328,36.773L277.051,36.713L277.773,36.709L278.496,36.636L279.219,36.656L279.941,36.621L280.664,36.589L281.387,36.532L282.109,36.498L282.832,36.421L283.555,36.416L284.277,36.373L285,36.411L285.723,36.372L286.445,36.323L287.168,36.29L287.891,36.298L288.613,36.23L289.336,36.185L290.059,36.109L290.781,36.186L291.504,36.06L292.227,36.074L292.949,36.044L293.672,36.009L294.395,35.99L295.117,35.953L295.84,35.938L296.563,35.87L297.285,35.886L298.008,35.796L298.73,35.788L299.453,35.746L300.176,35.743L300.898,35.685L301.621,35.589L302.344,35.599L303.066,35.58L303.789,35.576L304.512,35.508L305.234,35.467L305.957,35.5L306.68,35.403L307.402,35.396L308.125,35.362L308.848,35.315L309.57,35.301L310.293,35.268L311.016,35.257L311.738,35.211L312.461,35.177L313.184,35.192L313.906,35.12L314.629,35.026L315.352,35.05L316.074,34.975L316.797,35.098L317.52,34.989L318.242,34.949L318.965,34.889L319.688,34.903L320.41,34.854L321.133,34.873L321.855,34.804L322.578,34.841L323.301,34.811L324.023,34.771L324.746,34.787L325.469,34.734L326.191,34.703L326.914,34.664L327.637,34.689L328.359,34.605L329.082,34.674L329.805,34.644L330.527,34.596L331.25,34.525L331.973,34.58L332.695,34.499L333.418,34.553L334.141,34.468L334.863,34.491L335.586,34.434L336.309,34.343L337.031,34.416L337.754,34.356L338.477,34.354L339.199,34.338L339.922,34.319L340.645,34.306L341.367,34.297L342.09,34.314L342.813,34.263L343.535,34.349L344.258,34.277L344.98,34.261L345.703,34.292L346.426,34.255L347.148,34.187L347.871,34.204L348.594,34.253L349.316,34.221L350.039,34.128L350.762,34.126L351.484,34.141L352.207,34.086L352.93,34.09L353.652,34.158L354.375,34.137L355.098,34.106L355.82,34.046L356.543,34.1L357.266,34.039L357.988,34.081L358.711,34.013L359.434,34.001L360.156,34.016L360.879,34.012L361.602,33.994L362.324,33.984L363.047,34.006L363.77,33.973L364.492,34.033L365.215,33.912L365.938,33.938L366.66,33.907L367.383,33.956L368.105,33.951L368.828,33.913L369.551,33.93L370.273,33.937L370.996,33.891L371.719,33.907L372.441,33.883L373.164,33.88L373.887,33.877L374.609,33.893L375.332,33.854L376.055,33.815L376.777,33.882L377.5,33.787L378.223,33.847L378.945,33.794L379.668,33.854L380.391,33.828L381.113,33.851L381.836,33.755L382.559,33.857L383.281,33.732L384.004,33.735L384.727,33.791L385.449,33.751L386.172,33.711L386.895,33.763L387.617,33.74L388.34,33.722L389.063,33.771L389.785,33.763L390.508,33.72L391.23,33.72L391.953,33.723L392.676,33.736L393.398,33.651L394.121,33.71L394.844,33.71L395.566,33.747L396.289,33.659L397.012,33.647L397.734,33.603L398.457,33.651L399.18,33.645L399.902,33.59L400.625,33.611L401.348,33.644L402.07,33.558L402.793,33.583L403.516,33.552L404.238,33.6L404.961,33.567L405.684,33.539L406.406,33.509L407.129,33.558L407.852,33.534L408.574,33.472L409.297,33.52L410.02,33.53L410.742,33.427L411.465,33.443L412.188,33.475L412.91,33.416L413.633,33.436L414.355,33.455L415.078,33.388L415.801,33.391L416.523,33.421L417.246,33.356L417.969,33.346L418.691,33.371L419.414,33.317L420.137,33.323L420.859,33.282L421.582,33.278L422.305,33.241L423.027,33.212L423.75,33.263L424.473,33.256L425.195,33.271L425.918,33.184L426.641,33.237L427.363,33.185L428.086,33.178L428.809,33.158L429.531,33.134L430.254,33.118L430.977,33.101L431.699,33.091L432.422,33.094L433.145,33.092L433.867,33.039L434.59,33L435.313,33.008L436.035,33.004L436.758,32.943L437.48,32.978L438.203,32.929L438.926,32.935L439.648,32.966L440.371,32.915L441.094,32.837L441.816,32.801L442.539,32.813L443.262,32.787L443.984,32.785L444.707,32.745L445.43,32.772L446.152,32.692L446.875,32.757L447.598,32.717L448.32,32.646L449.043,32.678L449.766,32.616L450.488,32.596L451.211,32.579L451.934,32.553L452.656,32.512L453.379,32.426L454.102,32.404L454.824,32.432L455.547,32.517L456.27,32.458L456.992,32.384L457.715,32.365L458.438,32.341L459.16,32.335L459.883,32.287L460.605,32.331L461.328,32.258L462.051,32.239L462.773,32.204L463.496,32.217L464.219,32.24L464.941,32.149L465.664,32.091L466.387,32.109L467.109,32.114L467.832,32.056L468.555,31.998L469.277,32.061"/><path fill="none" stroke="rgb(203, 47, 13)" stroke-width="1.5" d="M100,92.83L100.723,92.14L101.445,90.77L102.168,89.568L102.891,88.349L103.613,86.809L104.336,85.646L105.059,84.419L105.781,82.998L106.504,81.761L107.227,80.33L107.949,79.073L108.672,77.653L109.395,76.327L110.117,75.121L110.84,73.549L111.563,72.202L112.285,70.773L113.008,69.255L113.73,67.583L114.453,65.858L115.176,63.763L115.898,61.893L116.621,62.261L117.344,62.968L118.066,63.031L118.789,63.289L119.512,63.378L120.234,63.394L120.957,63.37L121.68,63.326L122.402,63.264L123.125,63.219L123.848,63.157L124.57,63.126L125.293,62.874L126.016,62.737L126.738,62.647L127.461,62.503L128.184,62.299L128.906,62.177L129.629,61.905L130.352,61.649L131.074,61.482L131.797,61.17L132.52,61.004L133.242,60.654L133.965,60.429L134.688,60.213L135.41,59.95L136.133,59.626L136.855,59.305L137.578,59.027L138.301,58.784L139.023,58.519L139.746,58.166L140.469,57.934L141.191,57.504L141.914,57.196L142.637,57.028L143.359,56.605L144.082,56.271L144.805,55.943L145.527,55.528L146.25,55.267L146.973,54.929L147.695,54.608L148.418,54.167L149.141,53.843L149.863,53.531L150.586,53.214L151.309,52.749L152.031,52.427L152.754,52.031L153.477,51.789L154.199,51.204L154.922,51.057L155.645,50.575L156.367,50.316L157.09,49.987L157.813,49.561L158.535,49.143L159.258,48.768L159.98,48.446L160.703,48.043L161.426,47.642L162.148,47.28L162.871,46.928L163.594,46.595L164.316,46.232L165.039,45.863L165.762,45.443L166.484,45.068L167.207,44.798L167.93,44.358L168.652,44.03L169.375,43.601L170.098,43.264L170.82,42.839L171.543,42.465L172.266,41.989L172.988,41.715L173.711,41.389L174.434,41.042L175.156,40.608L175.879,40.235L176.602,39.874L177.324,39.522L178.047,39.128L178.77,38.838L179.492,38.508L180.215,38.18L180.938,37.743L181.66,37.396L182.383,36.954L183.105,36.706L183.828,36.387L184.551,36L185.273,35.676L185.996,35.334L186.719,35.062L187.441,34.735L188.164,34.308L188.887,33.973L189.609,33.641L190.332,33.394L191.055,33.016L191.777,32.713L192.5,32.391L193.223,32.023L193.945,31.777L194.668,31.44L195.391,31.158L196.113,30.843L196.836,30.496L197.559,30.111L198.281,29.77L199.004,29.464L199.727,29.19L200.449,28.75L201.172,28.461L201.895,28.07L202.617,27.706L203.34,27.329L204.063,27.062L204.785,26.566L205.508,26.309L206.23,25.891L206.953,25.554L207.676,25.171L208.398,24.783L209.121,24.469L209.844,24.138L210.566,23.779L211.289,23.481L212.012,23.174L212.734,22.709L213.457,22.42L214.18,23.544L214.902,25.975L215.625,29.618L216.348,32.053L217.07,35.525L217.793,38.897L218.516,40.398L219.238,40.741L219.961,40.903L220.684,41.076L221.406,41.387L222.129,41.538L222.852,41.693L223.574,41.936L224.297,42.141L225.02,42.366L225.742,42.453L226.465,42.705L227.188,42.832L227.91,42.934L228.633,43.209L229.355,43.376L230.078,43.439L230.801,43.634L231.523,43.734L232.246,43.896L232.969,43.98L233.691,44.093L234.414,44.25L235.137,44.298L235.859,44.441L236.582,44.526L237.305,44.601L238.027,44.764L238.75,44.852L239.473,44.955L240.195,44.95L240.918,44.994L241.641,45.094L242.363,45.164L243.086,45.271L243.809,45.281L244.531,45.373L245.254,45.42L245.977,45.53L246.699,45.522L247.422,45.584L248.145,45.642L248.867,45.604L249.59,45.636L250.313,45.688L251.035,45.624L251.758,45.736L252.48,45.732L253.203,45.733L253.926,45.832L254.648,45.794L255.371,45.819L256.094,45.828L256.816,45.759L257.539,45.859L258.262,45.891L258.984,45.887L259.707,45.821L260.43,45.789L261.152,45.781L261.875,45.854L262.598,45.779L263.32,45.768L264.043,45.827L264.766,45.768L265.488,45.587L266.211,45.624L266.934,45.696L267.656,45.569L268.379,45.542L269.102,45.591L269.824,45.475L270.547,45.445L271.27,45.48L271.992,45.48L272.715,45.406L273.438,45.327L274.16,45.315L274.883,45.239L275.605,45.146L276.328,45.077L277.051,45.11L277.773,45.026L278.496,44.99L279.219,44.926L279.941,44.871L280.664,44.856L281.387,44.735L282.109,44.683L282.832,44.693L283.555,44.625L284.277,44.553L285,44.433L285.723,44.351L286.445,44.334L287.168,44.217L287.891,44.189L288.613,44.115L289.336,44.1L290.059,44L290.781,44.02L291.504,43.847L292.227,43.809L292.949,43.747L293.672,43.597L294.395,43.565L295.117,43.545L295.84,43.394L296.563,43.296L297.285,43.244L298.008,43.169L298.73,43.062L299.453,43.011L300.176,42.972L300.898,42.895L301.621,42.737L302.344,42.749L303.066,42.606L303.789,42.572L304.512,42.559L305.234,42.418L305.957,42.262L306.68,42.239L307.402,42.116L308.125,42.006L308.848,41.994L309.57,41.885L310.293,41.806L311.016,41.763L311.738,41.588L312.461,41.557L313.184,41.494L313.906,41.389L314.629,41.374L315.352,41.133L316.074,41.171L316.797,41.061L317.52,40.993L318.242,40.907L318.965,40.754L319.688,40.734L320.41,40.644L321.133,40.48L321.855,40.359L322.578,40.365L323.301,40.225L324.023,40.21L324.746,40.085L325.469,39.985L326.191,39.927L326.914,39.839L327.637,39.722L328.359,39.635L329.082,39.582L329.805,39.598L330.527,39.38L331.25,39.299L331.973,39.208L332.695,39.155L333.418,39.031L334.141,38.969L334.863,38.856L335.586,38.851L336.309,38.808L337.031,38.626L337.754,38.537L338.477,38.472L339.199,38.394L339.922,38.279L340.645,38.178L341.367,38.136L342.09,38.035L342.813,37.934L343.535,37.813L344.258,37.762L344.98,37.685L345.703,37.635L346.426,37.524L347.148,37.454L347.871,37.317L348.594,37.26L349.316,37.142L350.039,37.107L350.762,37.02L351.484,37.005L352.207,36.908L352.93,36.706L353.652,36.681L354.375,36.575L355.098,36.579L355.82,36.417L356.543,36.436L357.266,36.332L357.988,36.247L358.711,36.117L359.434,35.979L360.156,35.966L360.879,35.941L361.602,35.799L362.324,35.748L363.047,35.707L363.77,35.606L364.492,35.52L365.215,35.438L365.938,35.3L366.66,35.304L367.383,35.161L368.105,35.125L368.828,35.099L369.551,34.979L370.273,34.918L370.996,34.884L371.719,34.748L372.441,34.665L373.164,34.622L373.887,34.536L374.609,34.426L375.332,34.36L376.055,34.367L376.777,34.203L377.5,34.144L378.223,34.093L378.945,34.013L379.668,34.016L380.391,33.856L381.113,33.879L381.836,33.792L382.559,33.643L383.281,33.634L384.004,33.555L384.727,33.451L385.449,33.382L386.172,33.375L386.895,33.257L387.617,33.247L388.34,33.121L389.063,33.076L389.785,33.03L390.508,32.885L391.23,32.897L391.953,32.85L392.676,32.722L393.398,32.715L394.121,32.652L394.844,32.557L395.566,32.448L396.289,32.423L397.012,32.404L397.734,32.333L398.457,32.228L399.18,32.226L399.902,32.119L400.625,32.087L401.348,31.95L402.07,32.008L402.793,31.843L403.516,31.785L404.238,31.716L404.961,31.73L405.684,31.597L406.406,31.57L407.129,31.499L407.852,31.451L408.574,31.389L409.297,31.311L410.02,31.193L410.742,31.248L411.465,31.082L412.188,31.111L412.91,31.011L413.633,30.971L414.355,30.989L415.078,30.877L415.801,30.768L416.523,30.807L417.246,30.667L417.969,30.584L418.691,30.537L419.414,30.526L420.137,30.476L420.859,30.525L421.582,30.422L422.305,30.328L423.027,30.285L423.75,30.282L424.473,30.16L425.195,30.186L425.918,30.095L426.641,30.045L427.363,30.017L428.086,29.883L428.809,29.866L429.531,29.854L430.254,29.738L430.977,29.717L431.699,29.706L432.422,29.67L433.145,29.599L433.867,29.459L434.59,29.457L435.313,29.459L436.035,29.348L436.758,29.29L437.48,29.309L438.203,29.266L438.926,29.192L439.648,29.089L440.371,29.062L441.094,29.076L441.816,29.035L442.539,28.93L443.262,28.913L443.984,28.931L444.707,28.851L445.43,28.745L446.152,28.778L446.875,28.687L447.598,28.641L448.32,28.595L449.043,28.6L449.766,28.539L450.488,28.48L451.211,28.486L451.934,28.412L452.656,28.395L453.379,28.366L454.102,28.309L454.824,28.243L455.547,28.207L456.27,28.169L456.992,28.13L457.715,28.162L458.438,28.093L459.16,28.048L459.883,27.986L460.605,27.947L461.328,27.921L462.051,27.896L462.773,27.794L463.496,27.806L464.219,27.728L464.941,27.691L465.664,27.621L466.387,27.684L467.109,27.569L467.832,27.558L468.555,27.554L469.277,27.46"/><g transform="translate(0,190) scale(1.7) rotate(-90)"><text>Drift</text></g><g transform="translate(315,395) scale(1.8)"><text></text></g><g transform="translate(0,350)" fill="none" font-size="10" font-family="sans-serif" text-anchor="middle"><path class="domain" stroke="currentColor" d="M100,6V0H470V6"/><g class="tick" opacity="1" transform="translate(136.66666666666666,0)"><line stroke="currentColor" y2="6"/><text fill="currentColor" y="9" dy="0.71em" font-size="20px"> </text></g><g class="tick" opacity="1" transform="translate(173.7037037037037,0)"><line stroke="currentColor" y2="6"/><text fill="currentColor" y="9" dy="0.71em" font-size="20px">200</text></g><g class="tick" opacity="1" transform="translate(210.74074074074076,0)"><line stroke="currentColor" y2="6"/><text fill="currentColor" y="9" dy="0.71em" font-size="20px"> </text></g><g class="tick" opacity="1" transform="translate(247.77777777777777,0)"><line stroke="currentColor" y2="6"/><text fill="currentColor" y="9" dy="0.71em" font-size="20px">400</text></g><g class="tick" opacity="1" transform="translate(284.81481481481484,0)"><line stroke="currentColor" y2="6"/><text fill="currentColor" y="9" dy="0.71em" font-size="20px"> </text></g><g class="tick" opacity="1" transform="translate(321.85185185185185,0)"><line stroke="currentColor" y2="6"/><text fill="currentColor" y="9" dy="0.71em" font-size="20px">600</text></g><g class="tick" opacity="1" transform="translate(358.8888888888889,0)"><line stroke="currentColor" y2="6"/><text fill="currentColor" y="9" dy="0.71em" font-size="20px"> </text></g><g class="tick" opacity="1" transform="translate(395.9259259259259,0)"><line stroke="currentColor" y2="6"/><text fill="currentColor" y="9" dy="0.71em" font-size="20px">800</text></g><g class="tick" opacity="1" transform="translate(432.96296296296293,0)"><line stroke="currentColor" y2="6"/><text fill="currentColor" y="9" dy="0.71em" font-size="20px"> </text></g><g class="tick" opacity="1" transform="translate(470,0)"><line stroke="currentColor" y2="6"/><text fill="currentColor" y="9" dy="0.71em" font-size="20px">1000</text></g></g><g transform="translate(100,0)" fill="none" font-size="10" font-family="sans-serif" text-anchor="end"><path class="domain" stroke="currentColor" d="M-6,350H0V20H-6"/><g class="tick" opacity="1" transform="translate(0,343.2538538044851)"><line stroke="currentColor" x2="-6"/><text fill="currentColor" x="-9" dy="0.32em" font-size="20px">0.55</text></g><g class="tick" opacity="1" transform="translate(0,313.0474607526227)"><line stroke="currentColor" x2="-6"/><text fill="currentColor" x="-9" dy="0.32em" font-size="20px">0.50</text></g><g class="tick" opacity="1" transform="translate(0,282.84106770076033)"><line stroke="currentColor" x2="-6"/><text fill="currentColor" x="-9" dy="0.32em" font-size="20px">0.45</text></g><g class="tick" opacity="1" transform="translate(0,252.63467464889797)"><line stroke="currentColor" x2="-6"/><text fill="currentColor" x="-9" dy="0.32em" font-size="20px">0.40</text></g><g class="tick" opacity="1" transform="translate(0,222.42828159703555)"><line stroke="currentColor" x2="-6"/><text fill="currentColor" x="-9" dy="0.32em" font-size="20px">0.35</text></g><g class="tick" opacity="1" transform="translate(0,192.22188854517313)"><line stroke="currentColor" x2="-6"/><text fill="currentColor" x="-9" dy="0.32em" font-size="20px">0.30</text></g><g class="tick" opacity="1" transform="translate(0,162.01549549331074)"><line stroke="currentColor" x2="-6"/><text fill="currentColor" x="-9" dy="0.32em" font-size="20px">0.25</text></g><g class="tick" opacity="1" transform="translate(0,131.80910244144835)"><line stroke="currentColor" x2="-6"/><text fill="currentColor" x="-9" dy="0.32em" font-size="20px">0.20</text></g><g class="tick" opacity="1" transform="translate(0,101.60270938958597)"><line stroke="currentColor" x2="-6"/><text fill="currentColor" x="-9" dy="0.32em" font-size="20px">0.15</text></g><g class="tick" opacity="1" transform="translate(0,71.3963163377235)"><line stroke="currentColor" x2="-6"/><text fill="currentColor" x="-9" dy="0.32em" font-size="20px">0.10</text></g><g class="tick" opacity="1" transform="translate(0,41.189923285861155)"><line stroke="currentColor" x2="-6"/><text fill="currentColor" x="-9" dy="0.32em" font-size="20px">0.05</text></g></g><circle cx="360" cy="255" r="8" style="fill: rgb(35, 23, 27);"/><circle cx="360" cy="280" r="8" style="fill: rgb(69, 105, 238);"/><circle cx="360" cy="305" r="8" style="fill: rgb(38, 188, 225);"/><circle cx="360" cy="330" r="8" style="fill: rgb(63, 243, 147);"/><circle cx="480" cy="255" r="8" style="fill: rgb(149, 251, 81);"/><circle cx="480" cy="280" r="8" style="fill: rgb(236, 209, 46);"/><circle cx="480" cy="305" r="8" style="fill: rgb(255, 130, 29);"/><circle cx="480" cy="330" r="8" style="fill: rgb(203, 47, 13);"/><text x="375" y="255" text-anchor="left" font-size="22" alignment-baseline="middle" style="fill: rgb(35, 23, 27);"> = 0</text><text x="375" y="280" text-anchor="left" font-size="22" alignment-baseline="middle" style="fill: rgb(69, 105, 238);"> = 0.22</text><text x="375" y="305" text-anchor="left" font-size="22" alignment-baseline="middle" style="fill: rgb(38, 188, 225);"> = 0.45</text><text x="375" y="330" text-anchor="left" font-size="22" alignment-baseline="middle" style="fill: rgb(63, 243, 147);"> = 0.67</text><text x="500" y="255" text-anchor="left" font-size="22" alignment-baseline="middle" style="fill: rgb(149, 251, 81);"> = 0.9</text><text x="500" y="280" text-anchor="left" font-size="22" alignment-baseline="middle" style="fill: rgb(236, 209, 46);"> = 1.12</text><text x="500" y="305" text-anchor="left" font-size="22" alignment-baseline="middle" style="fill: rgb(255, 130, 29);"> = 1.35</text><text x="500" y="330" text-anchor="left" font-size="22" alignment-baseline="middle" style="fill: rgb(203, 47, 13);"> = 1.57</text></svg>