<svg xmlns="http://www.w3.org/2000/svg" class="bg-white" width="500" height="400" viewBox="-34.29999999999997 -29.999999999999964 550 440.00000000000006"><path fill="none" stroke="rgb(35, 23, 27)" stroke-width="1.5" d="M100,64.048L100.723,63.986L101.445,303.409L102.168,303.411L102.891,303.408L103.613,303.298L104.336,303.296L105.059,303.315L105.781,303.314L106.504,303.308L107.227,303.526L107.949,303.518L108.672,303.511L109.395,303.436L110.117,303.438L110.84,303.333L111.563,303.337L112.285,303.336L113.008,303.904L113.73,303.898L114.453,303.899L115.176,303.096L115.898,303.093L116.621,303.264L117.344,303.254L118.066,303.673L118.789,303.648L119.512,303.626L120.234,303.604L120.957,303.589L121.68,303.393L122.402,303.441L123.125,303.374L123.848,303.296L124.57,303.374L125.293,303.292L126.016,303.283L126.738,303.282L127.461,303.266L128.184,303.283L128.906,303.279L129.629,303.664L130.352,303.288L131.074,303.341L131.797,303.634L132.52,303.628L133.242,303.314L133.965,303.319L134.688,303.294L135.41,303.324L136.133,303.314L136.855,303.229L137.578,303.412L138.301,303.617L139.023,303.403L139.746,303.246L140.469,303.074L141.191,303.406L141.914,303.247L142.637,303.411L143.359,303.034L144.082,303.024L144.805,303.457L145.527,302.97L146.25,302.969L146.973,303.469L147.695,303.467L148.418,303.627L149.141,303.226L149.863,302.94L150.586,303.197L151.309,303.435L152.031,303.428L152.754,303.32L153.477,303.131L154.199,303.311L154.922,303.213L155.645,303.383L156.367,303.346L157.09,303.339L157.813,303.327L158.535,303.144L159.258,303.145L159.98,303.134L160.703,303.318L161.426,303.279L162.148,303.23L162.871,303.131L163.594,303.226L164.316,303.052L165.039,303.451L165.762,303.451L166.484,303.451L167.207,303.04L167.93,303.004L168.652,303.465L169.375,303.459L170.098,302.976L170.82,302.969L171.543,303.421L172.266,303.312L172.988,302.933L173.711,302.928L174.434,303.366L175.156,303.283L175.879,303.37L176.602,303.487L177.324,302.827L178.047,303.363L178.77,303.353L179.492,303.228L180.215,303.474L180.938,302.995L181.66,302.989L182.383,303.321L183.105,303.216L183.828,303.456L184.551,303.242L185.273,303.039L185.996,303.04L186.719,303.037L187.441,302.936L188.164,302.953L188.887,302.933L189.609,302.939L190.332,302.836L191.055,302.824L191.777,303.193L192.5,303.107L193.223,303.091L193.945,303.002L194.668,303.281L195.391,302.859L196.113,303.028L196.836,303.023L197.559,302.813L198.281,302.88L199.004,302.897L199.727,303.026L200.449,302.835L201.172,303.022L201.895,303.245L202.617,303.248L203.34,303.25L204.063,302.847L204.785,302.909L205.508,303.149L206.23,303.129L206.953,303.036L207.676,302.918L208.398,303.094L209.121,302.828L209.844,303.084L210.566,303.082L211.289,302.992L212.012,302.987L212.734,302.898L213.457,302.879L214.18,303.052L214.902,302.89L215.625,303.061L216.348,303.014L217.07,302.917L217.793,302.867L218.516,302.991L219.238,302.993L219.961,302.982L220.684,302.899L221.406,302.988L222.129,302.89L222.852,302.867L223.574,302.941L224.297,302.854L225.02,302.937L225.742,302.938L226.465,302.922L227.188,302.928L227.91,302.932L228.633,302.922L229.355,302.855L230.078,302.855L230.801,302.859L231.523,302.933L232.246,302.516L232.969,302.861L233.691,302.919L234.414,303.112L235.137,303.113L235.859,302.849L236.582,302.471L237.305,302.832L238.027,303.046L238.75,303.072L239.473,303.017L240.195,302.862L240.918,302.826L241.641,302.826L242.363,302.825L243.086,302.96L243.809,302.985L244.531,302.813L245.254,302.461L245.977,303.138L246.699,302.808L247.422,303.282L248.145,302.783L248.867,302.916L249.59,303.121L250.313,303.267L251.035,302.733L251.758,302.738L252.48,303.19L253.203,303.179L253.926,302.773L254.648,302.812L255.371,302.679L256.094,302.76L256.816,302.957L257.539,302.954L258.262,303.096L258.984,303.253L259.707,303.245L260.43,302.725L261.152,302.958L261.875,303.146L262.598,302.719L263.32,302.71L264.043,302.57L264.766,302.71L265.488,302.889L266.211,303.18L266.934,303.186L267.656,302.933L268.379,302.919L269.102,303.197L269.824,302.832L270.547,303.191L271.27,302.904L271.992,302.804L272.715,302.806L273.438,302.71L274.16,302.795L274.883,302.834L275.605,302.75L276.328,302.763L277.051,302.718L277.773,302.689L278.496,302.833L279.219,302.838L279.941,302.825L280.664,302.742L281.387,302.81L282.109,302.344L282.832,302.835L283.555,302.699L284.277,302.77L285,302.653L285.723,303.096L286.445,302.7L287.168,302.903L287.891,302.938L288.613,302.645L289.336,303.048L290.059,302.923L290.781,302.915L291.504,302.89L292.227,302.879L292.949,302.758L293.672,303.069L294.395,302.652L295.117,303.067L295.84,302.789L296.563,303.069L297.285,302.789L298.008,302.846L298.73,302.912L299.453,302.671L300.176,302.828L300.898,302.877L301.621,302.804L302.344,302.899L303.066,302.802L303.789,302.804L304.512,302.885L305.234,302.882L305.957,302.669L306.68,302.74L307.402,302.811L308.125,302.881L308.848,302.626L309.57,302.889L310.293,302.956L311.016,302.809L311.738,302.686L312.461,302.961L313.184,302.812L313.906,302.88L314.629,302.942L315.352,302.841L316.074,302.827L316.797,302.826L317.52,302.819L318.242,303.103L318.965,302.83L319.688,302.859L320.41,303.11L321.133,302.858L321.855,302.641L322.578,302.999L323.301,303.008L324.023,302.745L324.746,302.636L325.469,302.864L326.191,302.865L326.914,302.793L327.637,303.056L328.359,302.783L329.082,302.842L329.805,302.845L330.527,302.84L331.25,302.971L331.973,302.98L332.695,302.954L333.418,303.109L334.141,302.766L334.863,302.717L335.586,303.071L336.309,303.029L337.031,302.978L337.754,302.882L338.477,302.995L339.199,303.025L339.922,303.052L340.645,302.795L341.367,302.71L342.09,302.818L342.813,302.939L343.535,302.942L344.258,302.937L344.98,302.729L345.703,302.968L346.426,303.066L347.148,303.075L347.871,303.29L348.594,303.235L349.316,303.029L350.039,302.931L350.762,302.93L351.484,303.028L352.207,302.975L352.93,303.373L353.652,303.031L354.375,302.977L355.098,303.161L355.82,302.951L356.543,302.95L357.266,303.12L357.988,302.824L358.711,303.457L359.434,302.944L360.156,303.011L360.879,302.803L361.602,302.752L362.324,303.378L363.047,303.372L363.77,303.094L364.492,303.166L365.215,303.164L365.938,303.074L366.66,302.82L367.383,303.234L368.105,302.825L368.828,303.153L369.551,303.207L370.273,303.195L370.996,303.156L371.719,303.243L372.441,303.06L373.164,303.285L373.887,303.229L374.609,303.269L375.332,303.338L376.055,303.269L376.777,303.268L377.5,303.381L378.223,303.145L378.945,303.287L379.668,303.002L380.391,303.398L381.113,303.217L381.836,303.551L382.559,303.332L383.281,303.319L384.004,303.222L384.727,303.231L385.449,303.124L386.172,303.295L386.895,303.484L387.617,303.599L388.34,303.441L389.063,303.407L389.785,303.242L390.508,303.442L391.23,303.55L391.953,303.49L392.676,303.715L393.398,303.271L394.121,303.493L394.844,303.656L395.566,303.638L396.289,303.781L397.012,303.618L397.734,303.648L398.457,303.496L399.18,303.512L399.902,303.84L400.625,303.673L401.348,303.585L402.07,303.727L402.793,303.623L403.516,303.521L404.238,303.944L404.961,303.711L405.684,303.888L406.406,303.684L407.129,303.857L407.852,303.724L408.574,303.65L409.297,304.113L410.02,303.917L410.742,303.795L411.465,303.938L412.188,303.893L412.91,303.72L413.633,303.882L414.355,303.984L415.078,303.915L415.801,304.034L416.523,304.02L417.246,304.274L417.969,304.346L418.691,304.315L419.414,304.333L420.137,304.14L420.859,303.997L421.582,304.097L422.305,304.442L423.027,304.057L423.75,304.07L424.473,304.086L425.195,304.178L425.918,304.139L426.641,304.167L427.363,304.157L428.086,304.167L428.809,304.169L429.531,304.581L430.254,304.222L430.977,304.31L431.699,304.879L432.422,304.662L433.145,304.262L433.867,304.368L434.59,304.304L435.313,304.632L436.035,304.039L436.758,304.824L437.48,305.065L438.203,305.093L438.926,304.877L439.648,304.842L440.371,304.929L441.094,304.569L441.816,305.03L442.539,304.722L443.262,304.857L443.984,304.761L444.707,304.819L445.43,304.837L446.152,304.566L446.875,304.699L447.598,305.131L448.32,305.165L449.043,304.467L449.766,304.671L450.488,305.054L451.211,305.243L451.934,305.081L452.656,305.107L453.379,305.335L454.102,304.813L454.824,305.094L455.547,305.037L456.27,305.141L456.992,305.235L457.715,305.058L458.438,305.246L459.16,304.871L459.883,305.294L460.605,305.603L461.328,305.168L462.051,305.506L462.773,305.704L463.496,305.403L464.219,305.49L464.941,305.606L465.664,305.106L466.387,305.486L467.109,305.192L467.832,305.479L468.555,306.138L469.277,305.764"/><path fill="none" stroke="rgb(69, 105, 238)" stroke-width="1.5" d="M100,20L100.723,27.733L101.445,347.335L102.168,347.513L102.891,347.656L103.613,347.345L104.336,347.691L105.059,347.123L105.781,347.119L106.504,347.164L107.227,347.101L107.949,347.11L108.672,347.352L109.395,347.293L110.117,347.151L110.84,347.288L111.563,347.14L112.285,347.282L113.008,347.157L113.73,347.239L114.453,347.551L115.176,347.575L115.898,347.568L116.621,347.21L117.344,347.017L118.066,347.389L118.789,347.243L119.512,347.161L120.234,347.299L120.957,347.254L121.68,347.197L122.402,347.281L123.125,347.728L123.848,346.968L124.57,347.258L125.293,347.152L126.016,347.717L126.738,347.383L127.461,346.95L128.184,347.122L128.906,347.225L129.629,347.265L130.352,347.225L131.074,347.535L131.797,347.172L132.52,347.232L133.242,347.158L133.965,347.526L134.688,347.541L135.41,347.246L136.133,347.139L136.855,347.115L137.578,347.061L138.301,347.073L139.023,346.98L139.746,347.469L140.469,347.44L141.191,347.223L141.914,346.982L142.637,347.094L143.359,347.034L144.082,347.058L144.805,347.079L145.527,347.081L146.25,346.939L146.973,347.409L147.695,347.401L148.418,346.949L149.141,347.384L149.863,347.406L150.586,347.277L151.309,347.378L152.031,347.269L152.754,347.147L153.477,346.892L154.199,346.965L154.922,346.879L155.645,346.877L156.367,347.092L157.09,346.894L157.813,346.986L158.535,347.291L159.258,347.073L159.98,347.258L160.703,347.037L161.426,346.918L162.148,347.042L162.871,347.215L163.594,346.931L164.316,346.9L165.039,346.847L165.762,346.98L166.484,346.911L167.207,347.176L167.93,347.019L168.652,346.906L169.375,347.069L170.098,347.002L170.82,347.241L171.543,346.989L172.266,347.184L172.988,346.978L173.711,347.162L174.434,346.831L175.156,347.108L175.879,346.858L176.602,347.129L177.324,347.26L178.047,346.756L178.77,347.054L179.492,346.945L180.215,346.952L180.938,346.904L181.66,347.095L182.383,347.194L183.105,346.866L183.828,346.932L184.551,346.977L185.273,346.545L185.996,346.825L186.719,347.008L187.441,346.808L188.164,346.594L188.887,346.904L189.609,346.556L190.332,347.11L191.055,346.774L191.777,347.226L192.5,346.843L193.223,346.752L193.945,346.68L194.668,346.829L195.391,346.927L196.113,346.843L196.836,346.806L197.559,347.056L198.281,346.737L199.004,346.538L199.727,346.776L200.449,346.775L201.172,346.782L201.895,346.701L202.617,346.705L203.34,346.564L204.063,346.912L204.785,346.75L205.508,347.045L206.23,346.685L206.953,346.719L207.676,347.088L208.398,346.765L209.121,346.762L209.844,347.027L210.566,347.027L211.289,346.874L212.012,346.733L212.734,346.736L213.457,346.645L214.18,346.608L214.902,346.578L215.625,346.579L216.348,346.998L217.07,346.591L217.793,346.419L218.516,346.698L219.238,346.81L219.961,346.959L220.684,346.409L221.406,346.591L222.129,346.553L222.852,346.607L223.574,346.839L224.297,346.839L225.02,346.95L225.742,346.818L226.465,346.708L227.188,346.914L227.91,346.897L228.633,346.793L229.355,346.785L230.078,346.654L230.801,346.646L231.523,346.471L232.246,346.595L232.969,346.684L233.691,346.785L234.414,346.84L235.137,346.641L235.859,346.825L236.582,346.798L237.305,346.517L238.027,346.813L238.75,347.032L239.473,346.692L240.195,346.658L240.918,346.835L241.641,346.837L242.363,346.734L243.086,346.597L243.809,346.635L244.531,346.88L245.254,346.562L245.977,346.494L246.699,346.819L247.422,346.886L248.145,346.957L248.867,346.481L249.59,346.667L250.313,346.537L251.035,346.847L251.758,346.599L252.48,346.759L253.203,346.577L253.926,346.534L254.648,346.511L255.371,346.423L256.094,346.414L256.816,346.539L257.539,346.735L258.262,346.902L258.984,346.543L259.707,346.503L260.43,346.725L261.152,346.961L261.875,346.725L262.598,346.679L263.32,346.892L264.043,346.734L264.766,346.601L265.488,346.539L266.211,346.79L266.934,346.801L267.656,346.694L268.379,346.998L269.102,346.963L269.824,346.798L270.547,346.51L271.27,346.419L271.992,347.051L272.715,346.444L273.438,346.789L274.16,346.765L274.883,347.086L275.605,346.787L276.328,346.976L277.051,346.755L277.773,346.594L278.496,346.774L279.219,346.779L279.941,346.402L280.664,346.524L281.387,347.052L282.109,346.842L282.832,346.734L283.555,346.972L284.277,346.967L285,346.968L285.723,347.041L286.445,346.817L287.168,346.59L287.891,346.654L288.613,346.488L289.336,346.896L290.059,346.903L290.781,346.779L291.504,346.976L292.227,346.812L292.949,346.379L293.672,346.847L294.395,346.963L295.117,346.871L295.84,346.803L296.563,346.821L297.285,346.819L298.008,346.607L298.73,346.513L299.453,346.683L300.176,346.525L300.898,346.75L301.621,346.886L302.344,346.665L303.066,346.834L303.789,346.724L304.512,346.902L305.234,346.359L305.957,346.47L306.68,346.874L307.402,346.877L308.125,346.873L308.848,346.819L309.57,346.737L310.293,346.52L311.016,346.529L311.738,346.776L312.461,346.665L313.184,346.665L313.906,346.802L314.629,346.868L315.352,346.438L316.074,346.477L316.797,346.542L317.52,346.473L318.242,346.589L318.965,346.59L319.688,346.853L320.41,346.853L321.133,346.765L321.855,346.709L322.578,346.85L323.301,346.763L324.023,346.791L324.746,346.808L325.469,346.642L326.191,346.753L326.914,346.833L327.637,346.651L328.359,346.658L329.082,346.766L329.805,346.817L330.527,346.789L331.25,346.746L331.973,346.867L332.695,347.057L333.418,346.9L334.141,346.777L334.863,346.841L335.586,346.854L336.309,347.081L337.031,347.06L337.754,346.795L338.477,346.724L339.199,347.091L339.922,346.848L340.645,346.791L341.367,346.904L342.09,346.844L342.813,346.653L343.535,346.894L344.258,346.728L344.98,346.879L345.703,346.846L346.426,346.999L347.148,346.902L347.871,346.68L348.594,346.511L349.316,347.138L350.039,347.022L350.762,347.003L351.484,346.99L352.207,346.895L352.93,346.917L353.652,346.569L354.375,346.566L355.098,347.085L355.82,347.07L356.543,346.993L357.266,346.939L357.988,347.093L358.711,346.838L359.434,347.29L360.156,347.308L360.879,347.236L361.602,346.894L362.324,347.035L363.047,346.87L363.77,346.736L364.492,347.387L365.215,347.309L365.938,347.03L366.66,347.417L367.383,347.047L368.105,347.002L368.828,347.065L369.551,347.157L370.273,347.293L370.996,347.011L371.719,347.03L372.441,347.417L373.164,347.171L373.887,347.209L374.609,347.166L375.332,347.181L376.055,347.483L376.777,347.209L377.5,347.308L378.223,347.157L378.945,346.952L379.668,347.277L380.391,347.277L381.113,347.037L381.836,347.537L382.559,347.012L383.281,347.346L384.004,347.035L384.727,347.59L385.449,347.366L386.172,347.199L386.895,347.088L387.617,347.471L388.34,347.209L389.063,347.265L389.785,347.516L390.508,347.173L391.23,347.192L391.953,347.4L392.676,347.155L393.398,347.221L394.121,347.299L394.844,347.335L395.566,347.397L396.289,347.636L397.012,347.366L397.734,347.511L398.457,347.46L399.18,347.466L399.902,347.578L400.625,347.739L401.348,347.526L402.07,347.793L402.793,347.332L403.516,347.639L404.238,347.621L404.961,347.734L405.684,347.784L406.406,347.825L407.129,347.453L407.852,347.702L408.574,347.854L409.297,347.981L410.02,347.921L410.742,347.855L411.465,347.926L412.188,347.882L412.91,347.589L413.633,347.78L414.355,347.921L415.078,347.699L415.801,347.891L416.523,348.116L417.246,348.142L417.969,347.974L418.691,347.982L419.414,347.749L420.137,348.085L420.859,348.106L421.582,348.25L422.305,348.155L423.027,348.151L423.75,347.864L424.473,348.367L425.195,348.091L425.918,348.111L426.641,348.175L427.363,348.103L428.086,348.113L428.809,348.237L429.531,348.018L430.254,348.582L430.977,348.439L431.699,348.539L432.422,348.65L433.145,348.385L433.867,348.694L434.59,348.128L435.313,348.566L436.035,348.644L436.758,348.639L437.48,348.728L438.203,348.582L438.926,348.768L439.648,348.267L440.371,348.8L441.094,348.422L441.816,348.699L442.539,348.618L443.262,348.767L443.984,348.852L444.707,348.977L445.43,348.722L446.152,348.781L446.875,348.302L447.598,348.716L448.32,348.793L449.043,348.966L449.766,348.882L450.488,348.776L451.211,348.767L451.934,348.397L452.656,348.877L453.379,348.953L454.102,348.832L454.824,349.32L455.547,349.102L456.27,349.574L456.992,348.875L457.715,349.628L458.438,349.111L459.16,349.202L459.883,349.201L460.605,349.187L461.328,348.89L462.051,349.571L462.773,349.328L463.496,349.089L464.219,349.557L464.941,349.492L465.664,350L466.387,349.464L467.109,349.547L467.832,349.113L468.555,349.587L469.277,349.672"/><path fill="none" stroke="rgb(38, 188, 225)" stroke-width="1.5" d="M100,54.168L100.723,247.236L101.445,312.795L102.168,312.83L102.891,312.847L103.613,313.063L104.336,312.8L105.059,313.135L105.781,312.834L106.504,312.989L107.227,312.801L107.949,313.142L108.672,312.798L109.395,312.734L110.117,312.66L110.84,312.633L111.563,313.154L112.285,313.039L113.008,312.939L113.73,312.881L114.453,312.682L115.176,312.934L115.898,312.731L116.621,312.828L117.344,312.833L118.066,312.634L118.789,312.653L119.512,312.637L120.234,312.982L120.957,312.644L121.68,312.708L122.402,312.774L123.125,312.858L123.848,312.647L124.57,312.898L125.293,312.926L126.016,312.874L126.738,312.881L127.461,313L128.184,312.937L128.906,312.624L129.629,312.661L130.352,312.884L131.074,312.678L131.797,312.529L132.52,312.801L133.242,312.905L133.965,312.799L134.688,312.912L135.41,312.966L136.133,312.803L136.855,312.987L137.578,312.675L138.301,312.676L139.023,312.837L139.746,312.85L140.469,312.74L141.191,312.83L141.914,312.569L142.637,312.592L143.359,312.804L144.082,312.971L144.805,312.746L145.527,312.844L146.25,312.959L146.973,312.796L147.695,312.959L148.418,312.731L149.141,312.979L149.863,312.84L150.586,312.838L151.309,312.4L152.031,312.719L152.754,312.685L153.477,312.575L154.199,312.942L154.922,312.682L155.645,312.492L156.367,312.486L157.09,312.525L157.813,312.771L158.535,312.775L159.258,312.679L159.98,313.052L160.703,312.687L161.426,312.629L162.148,312.686L162.871,312.803L163.594,312.391L164.316,313.3L165.039,312.668L165.762,312.644L166.484,312.69L167.207,312.931L167.93,312.378L168.652,312.624L169.375,312.737L170.098,312.484L170.82,312.342L171.543,312.664L172.266,312.69L172.988,312.635L173.711,312.678L174.434,312.751L175.156,312.666L175.879,312.471L176.602,312.828L177.324,312.218L178.047,312.654L178.77,312.722L179.492,312.377L180.215,312.412L180.938,312.468L181.66,312.398L182.383,312.678L183.105,312.571L183.828,312.548L184.551,312.193L185.273,312.579L185.996,312.652L186.719,312.468L187.441,312.636L188.164,312.355L188.887,312.613L189.609,312.641L190.332,312.606L191.055,312.65L191.777,312.352L192.5,312.292L193.223,312.617L193.945,312.633L194.668,312.302L195.391,312.477L196.113,312.407L196.836,312.386L197.559,312.289L198.281,312.281L199.004,312.361L199.727,312.583L200.449,312.49L201.172,312.497L201.895,312.583L202.617,312.256L203.34,312.886L204.063,312.522L204.785,312.577L205.508,312.64L206.23,312.504L206.953,312.434L207.676,312.231L208.398,312.255L209.121,312.398L209.844,312.487L210.566,312.652L211.289,312.574L212.012,312.473L212.734,312.591L213.457,312.59L214.18,312.335L214.902,312.374L215.625,312.641L216.348,312.576L217.07,312.759L217.793,312.392L218.516,312.3L219.238,312.603L219.961,312.664L220.684,312.742L221.406,312.556L222.129,312.477L222.852,312.638L223.574,312.554L224.297,312.421L225.02,312.749L225.742,312.322L226.465,312.689L227.188,312.355L227.91,312.404L228.633,312.644L229.355,312.409L230.078,312.462L230.801,312.313L231.523,312.599L232.246,312.334L232.969,312.639L233.691,312.682L234.414,312.375L235.137,312.147L235.859,312.639L236.582,312.428L237.305,312.427L238.027,312.333L238.75,312.493L239.473,312.136L240.195,312.515L240.918,312.39L241.641,312.426L242.363,312.271L243.086,312.382L243.809,312.36L244.531,312.608L245.254,312.38L245.977,312.335L246.699,312.554L247.422,312.135L248.145,312.4L248.867,312.298L249.59,312.417L250.313,312.39L251.035,312.257L251.758,312.57L252.48,312.58L253.203,312.287L253.926,312.326L254.648,312.332L255.371,312.128L256.094,313.052L256.816,312.467L257.539,312.225L258.262,312.291L258.984,312.365L259.707,312.38L260.43,312.357L261.152,312.531L261.875,312.211L262.598,312.34L263.32,312.549L264.043,312.32L264.766,312.346L265.488,312.531L266.211,312.317L266.934,312.563L267.656,312.582L268.379,313.04L269.102,312.37L269.824,312.368L270.547,312.387L271.27,312.525L271.992,312.52L272.715,312.586L273.438,312.252L274.16,312.474L274.883,312.219L275.605,312.512L276.328,312.595L277.051,312.255L277.773,312.293L278.496,312.521L279.219,312.437L279.941,312.59L280.664,312.594L281.387,312.546L282.109,312.483L282.832,312.442L283.555,312.478L284.277,312.585L285,312.077L285.723,312.474L286.445,312.257L287.168,312.402L287.891,312.464L288.613,312.083L289.336,312.304L290.059,312.807L290.781,312.473L291.504,312.535L292.227,312.408L292.949,312.422L293.672,312.317L294.395,312.301L295.117,312.689L295.84,312.313L296.563,312.681L297.285,312.329L298.008,312.244L298.73,312.421L299.453,312.297L300.176,312.281L300.898,312.428L301.621,312.351L302.344,312.476L303.066,312.255L303.789,312.608L304.512,312.316L305.234,312.445L305.957,312.494L306.68,312.199L307.402,312.307L308.125,312.596L308.848,312.383L309.57,312.056L310.293,312.244L311.016,312.473L311.738,312.109L312.461,312.415L313.184,312.478L313.906,312.407L314.629,312.12L315.352,312.419L316.074,312.421L316.797,312.463L317.52,312.506L318.242,312.469L318.965,312.292L319.688,312.385L320.41,312.212L321.133,312.446L321.855,312.333L322.578,312.392L323.301,312.315L324.023,312.534L324.746,312.315L325.469,312.278L326.191,312.34L326.914,312.35L327.637,312.137L328.359,312.22L329.082,312.607L329.805,312.421L330.527,312.152L331.25,312.654L331.973,312.318L332.695,312.113L333.418,312.234L334.141,312.725L334.863,312.131L335.586,312.434L336.309,312.561L337.031,312.633L337.754,312.409L338.477,312.23L339.199,312.793L339.922,312.718L340.645,312.352L341.367,312.395L342.09,312.613L342.813,312.543L343.535,312.827L344.258,312.108L344.98,312.489L345.703,312.535L346.426,312.541L347.148,312.198L347.871,312.65L348.594,312.428L349.316,312.272L350.039,312.14L350.762,312.629L351.484,312.635L352.207,312.29L352.93,312.802L353.652,313.009L354.375,312.505L355.098,312.773L355.82,312.268L356.543,312.307L357.266,312.837L357.988,312.878L358.711,312.827L359.434,312.839L360.156,312.559L360.879,312.617L361.602,312.686L362.324,313.043L363.047,312.8L363.77,312.39L364.492,313.098L365.215,312.867L365.938,312.915L366.66,312.957L367.383,313.014L368.105,312.658L368.828,312.817L369.551,312.901L370.273,312.929L370.996,312.959L371.719,312.833L372.441,312.637L373.164,312.667L373.887,312.558L374.609,312.863L375.332,312.642L376.055,313.032L376.777,312.852L377.5,312.932L378.223,312.979L378.945,312.991L379.668,313.177L380.391,312.698L381.113,312.971L381.836,312.948L382.559,312.934L383.281,312.83L384.004,313.227L384.727,313.137L385.449,312.894L386.172,313.173L386.895,313.025L387.617,313.331L388.34,313.26L389.063,313.029L389.785,313.35L390.508,313.227L391.23,312.863L391.953,313.245L392.676,313.092L393.398,313.155L394.121,313.37L394.844,313.265L395.566,313.287L396.289,313.243L397.012,313.346L397.734,313.3L398.457,313.411L399.18,313.564L399.902,313.288L400.625,313.527L401.348,313.496L402.07,313.247L402.793,313.833L403.516,313.536L404.238,313.609L404.961,313.529L405.684,313.639L406.406,313.446L407.129,313.568L407.852,313.595L408.574,313.497L409.297,313.765L410.02,313.661L410.742,313.753L411.465,313.688L412.188,313.59L412.91,313.582L413.633,313.615L414.355,313.971L415.078,313.769L415.801,313.656L416.523,313.937L417.246,313.847L417.969,313.968L418.691,313.741L419.414,313.854L420.137,313.781L420.859,313.77L421.582,314.151L422.305,314.176L423.027,314.187L423.75,313.853L424.473,313.899L425.195,313.987L425.918,314.291L426.641,313.959L427.363,313.842L428.086,314.112L428.809,314.271L429.531,314.351L430.254,314.419L430.977,314.433L431.699,314.316L432.422,314.173L433.145,314.403L433.867,313.825L434.59,314.491L435.313,314.145L436.035,314.374L436.758,313.898L437.48,314.345L438.203,314.354L438.926,313.963L439.648,314.276L440.371,314.39L441.094,314.338L441.816,314.519L442.539,314.553L443.262,314.61L443.984,314.765L444.707,314.558L445.43,314.56L446.152,314.665L446.875,314.485L447.598,314.961L448.32,314.865L449.043,314.862L449.766,314.872L450.488,314.613L451.211,314.586L451.934,314.619L452.656,314.92L453.379,314.903L454.102,315.233L454.824,314.709L455.547,314.781L456.27,315.325L456.992,314.892L457.715,315.05L458.438,315.103L459.16,314.859L459.883,315.111L460.605,314.886L461.328,315.29L462.051,315.229L462.773,315.042L463.496,314.899L464.219,315.494L464.941,315.051L465.664,315.135L466.387,315.095L467.109,315.408L467.832,315.124L468.555,315.676L469.277,315.284"/><path fill="none" stroke="rgb(63, 243, 147)" stroke-width="1.5" d="M100,139.533L100.723,227.641L101.445,227.768L102.168,227.539L102.891,227.88L103.613,227.695L104.336,227.734L105.059,227.795L105.781,227.804L106.504,227.854L107.227,227.62L107.949,227.821L108.672,228.129L109.395,227.663L110.117,227.867L110.84,227.846L111.563,227.924L112.285,227.752L113.008,228.187L113.73,227.715L114.453,227.744L115.176,228.011L115.898,227.797L116.621,227.719L117.344,227.834L118.066,227.762L118.789,228.11L119.512,227.748L120.234,227.87L120.957,227.726L121.68,228.042L122.402,227.601L123.125,227.986L123.848,227.763L124.57,227.814L125.293,227.866L126.016,227.697L126.738,227.75L127.461,227.791L128.184,227.79L128.906,227.898L129.629,227.901L130.352,227.772L131.074,227.896L131.797,227.608L132.52,227.65L133.242,227.875L133.965,227.729L134.688,227.501L135.41,227.832L136.133,227.909L136.855,228.028L137.578,228.03L138.301,227.934L139.023,227.889L139.746,227.66L140.469,227.884L141.191,227.739L141.914,227.981L142.637,227.994L143.359,228.021L144.082,227.979L144.805,227.888L145.527,227.736L146.25,227.949L146.973,227.894L147.695,227.669L148.418,227.784L149.141,227.667L149.863,227.87L150.586,227.658L151.309,227.67L152.031,227.727L152.754,227.486L153.477,227.499L154.199,227.473L154.922,227.541L155.645,227.801L156.367,227.891L157.09,227.895L157.813,227.617L158.535,227.848L159.258,227.739L159.98,227.876L160.703,227.672L161.426,227.777L162.148,227.827L162.871,227.716L163.594,227.557L164.316,227.567L165.039,227.918L165.762,227.63L166.484,227.908L167.207,227.629L167.93,227.789L168.652,227.697L169.375,227.49L170.098,227.415L170.82,227.437L171.543,227.67L172.266,227.797L172.988,227.332L173.711,227.895L174.434,227.937L175.156,227.777L175.879,227.37L176.602,227.464L177.324,227.468L178.047,227.94L178.77,227.574L179.492,227.935L180.215,227.807L180.938,227.799L181.66,227.802L182.383,227.527L183.105,227.925L183.828,227.722L184.551,227.548L185.273,227.498L185.996,227.5L186.719,227.938L187.441,227.697L188.164,227.637L188.887,227.684L189.609,227.535L190.332,227.981L191.055,227.526L191.777,227.581L192.5,227.934L193.223,227.725L193.945,227.992L194.668,227.992L195.391,227.416L196.113,227.869L196.836,227.796L197.559,227.995L198.281,227.78L199.004,227.749L199.727,227.659L200.449,227.434L201.172,227.453L201.895,227.521L202.617,227.538L203.34,227.545L204.063,227.675L204.785,227.841L205.508,227.394L206.23,227.642L206.953,227.547L207.676,227.793L208.398,227.438L209.121,227.372L209.844,227.635L210.566,227.319L211.289,227.53L212.012,227.703L212.734,227.655L213.457,227.616L214.18,227.703L214.902,227.373L215.625,227.366L216.348,227.638L217.07,227.685L217.793,227.472L218.516,227.43L219.238,227.64L219.961,227.469L220.684,227.567L221.406,227.316L222.129,227.465L222.852,227.424L223.574,227.61L224.297,227.535L225.02,227.185L225.742,227.615L226.465,227.557L227.188,227.487L227.91,227.6L228.633,227.59L229.355,227.195L230.078,227.406L230.801,227.516L231.523,227.522L232.246,227.518L232.969,227.363L233.691,227.366L234.414,227.213L235.137,227.714L235.859,227.16L236.582,227.58L237.305,227.444L238.027,227.526L238.75,227.356L239.473,227.36L240.195,227.312L240.918,227.42L241.641,227.884L242.363,226.97L243.086,227.24L243.809,227.338L244.531,227.329L245.254,227.247L245.977,227.451L246.699,227.261L247.422,227.581L248.145,227.493L248.867,227.364L249.59,227.214L250.313,227.464L251.035,227.418L251.758,227.599L252.48,227.339L253.203,227.652L253.926,227.416L254.648,227.432L255.371,227.427L256.094,227.298L256.816,227.499L257.539,227.253L258.262,227.441L258.984,227.437L259.707,227.412L260.43,227.374L261.152,227.191L261.875,227.459L262.598,227.36L263.32,227.387L264.043,227.244L264.766,227.649L265.488,227.926L266.211,227.353L266.934,227.47L267.656,227.444L268.379,227.88L269.102,227.392L269.824,227.512L270.547,227.408L271.27,227.217L271.992,227.214L272.715,227.396L273.438,227.412L274.16,227.661L274.883,227.425L275.605,227.317L276.328,227.241L277.051,227.499L277.773,227.385L278.496,227.477L279.219,227.345L279.941,227.365L280.664,227.42L281.387,227.575L282.109,227.324L282.832,227.777L283.555,227.472L284.277,227.393L285,227.772L285.723,227.721L286.445,227.599L287.168,227.7L287.891,227.734L288.613,227.281L289.336,227.235L290.059,227.52L290.781,227.31L291.504,227.532L292.227,227.372L292.949,227.564L293.672,227.498L294.395,227.472L295.117,227.271L295.84,227.1L296.563,227.336L297.285,227.728L298.008,227.643L298.73,227.372L299.453,227.595L300.176,227.595L300.898,227.388L301.621,227.339L302.344,227.156L303.066,227.386L303.789,227.572L304.512,227.488L305.234,227.751L305.957,227.578L306.68,227.656L307.402,227.626L308.125,227.691L308.848,227.459L309.57,227.319L310.293,227.605L311.016,227.314L311.738,227.632L312.461,227.52L313.184,227.596L313.906,227.323L314.629,227.368L315.352,227.763L316.074,227.596L316.797,227.419L317.52,227.353L318.242,227.475L318.965,227.533L319.688,227.669L320.41,227.669L321.133,227.404L321.855,227.776L322.578,227.768L323.301,227.427L324.023,227.792L324.746,227.622L325.469,227.563L326.191,227.466L326.914,227.526L327.637,227.456L328.359,227.466L329.082,227.409L329.805,227.746L330.527,227.699L331.25,227.333L331.973,227.424L332.695,227.599L333.418,227.657L334.141,227.841L334.863,227.768L335.586,227.629L336.309,227.55L337.031,227.661L337.754,227.454L338.477,227.724L339.199,227.576L339.922,227.607L340.645,227.478L341.367,227.305L342.09,227.466L342.813,227.63L343.535,227.515L344.258,227.558L344.98,227.71L345.703,227.647L346.426,227.726L347.148,227.771L347.871,227.923L348.594,227.764L349.316,227.721L350.039,227.867L350.762,227.793L351.484,227.944L352.207,228.062L352.93,227.88L353.652,227.749L354.375,228.194L355.098,227.763L355.82,228.041L356.543,227.794L357.266,227.866L357.988,227.888L358.711,227.741L359.434,227.889L360.156,227.903L360.879,227.962L361.602,227.831L362.324,227.775L363.047,227.998L363.77,227.88L364.492,228.341L365.215,227.852L365.938,227.827L366.66,228.175L367.383,227.699L368.105,227.831L368.828,228.183L369.551,228.437L370.273,227.901L370.996,228.357L371.719,228.051L372.441,228.07L373.164,228.218L373.887,228.046L374.609,227.964L375.332,228.152L376.055,228.088L376.777,228.124L377.5,227.861L378.223,228.285L378.945,227.911L379.668,228.417L380.391,227.936L381.113,228.117L381.836,228.209L382.559,228.214L383.281,228.699L384.004,228.447L384.727,228.251L385.449,228.818L386.172,228.024L386.895,228.491L387.617,228.505L388.34,228.146L389.063,228.549L389.785,228.285L390.508,228.465L391.23,228.532L391.953,228.788L392.676,229.138L393.398,228.364L394.121,228.578L394.844,228.671L395.566,228.453L396.289,228.588L397.012,228.772L397.734,229.316L398.457,228.416L399.18,228.589L399.902,228.695L400.625,228.815L401.348,228.611L402.07,228.971L402.793,228.534L403.516,229.055L404.238,229.068L404.961,228.986L405.684,228.712L406.406,228.915L407.129,229.151L407.852,229.23L408.574,228.848L409.297,229.224L410.02,229.174L410.742,228.739L411.465,229.12L412.188,229.026L412.91,229.257L413.633,228.973L414.355,229.13L415.078,229.011L415.801,228.98L416.523,229.196L417.246,229.22L417.969,229.363L418.691,229.266L419.414,229.188L420.137,229.125L420.859,228.906L421.582,229.558L422.305,229.488L423.027,229.396L423.75,229.612L424.473,229.328L425.195,229.255L425.918,229.354L426.641,229.879L427.363,229.477L428.086,229.226L428.809,229.702L429.531,229.668L430.254,230.227L430.977,229.741L431.699,229.668L432.422,229.771L433.145,229.93L433.867,229.694L434.59,230.128L435.313,229.771L436.035,229.855L436.758,229.471L437.48,229.75L438.203,230.064L438.926,230.059L439.648,229.819L440.371,229.999L441.094,230.041L441.816,230.517L442.539,229.876L443.262,229.744L443.984,230.151L444.707,230.167L445.43,229.471L446.152,230.004L446.875,229.517L447.598,229.998L448.32,230.245L449.043,230.381L449.766,230.201L450.488,229.874L451.211,230.173L451.934,230.158L452.656,230.234L453.379,230.225L454.102,230.17L454.824,230.58L455.547,230.489L456.27,230.124L456.992,230.595L457.715,230.053L458.438,230.326L459.16,229.775L459.883,230.552L460.605,230.138L461.328,230.27L462.051,230.557L462.773,230.813L463.496,230.593L464.219,230.37L464.941,230.756L465.664,230.65L466.387,230.762L467.109,230.931L467.832,231.062L468.555,230.872L469.277,230.484"/><path fill="none" stroke="rgb(149, 251, 81)" stroke-width="1.5" d="M100,183.139L100.723,184.139L101.445,183.734L102.168,184.399L102.891,184.382L103.613,184.165L104.336,184.084L105.059,184.14L105.781,184.48L106.504,184.227L107.227,184.278L107.949,183.928L108.672,184.138L109.395,184.034L110.117,184.496L110.84,184.271L111.563,184.152L112.285,183.853L113.008,184.286L113.73,184.172L114.453,184.537L115.176,184.067L115.898,184.201L116.621,184.023L117.344,184.415L118.066,183.937L118.789,183.748L119.512,184.183L120.234,184.191L120.957,183.813L121.68,184.385L122.402,184.092L123.125,184.182L123.848,184.22L124.57,184.053L125.293,184.082L126.016,184.038L126.738,184.13L127.461,184.054L128.184,183.955L128.906,184.257L129.629,184.13L130.352,184.698L131.074,184.216L131.797,184.116L132.52,183.987L133.242,184.3L133.965,184.272L134.688,184.392L135.41,184.089L136.133,183.932L136.855,184.245L137.578,184.255L138.301,184.148L139.023,184.054L139.746,184.292L140.469,184.128L141.191,184.147L141.914,184.321L142.637,184.214L143.359,184.322L144.082,184.324L144.805,184.317L145.527,184.214L146.25,184.195L146.973,184.301L147.695,184.038L148.418,184.446L149.141,184.176L149.863,184.056L150.586,184.049L151.309,184.053L152.031,184.072L152.754,184.166L153.477,184.084L154.199,184.628L154.922,184.281L155.645,184.268L156.367,184.188L157.09,184.236L157.813,184.165L158.535,183.962L159.258,184.073L159.98,184.155L160.703,183.985L161.426,184.173L162.148,184.13L162.871,184.207L163.594,184.207L164.316,184.158L165.039,184.307L165.762,184.193L166.484,184.033L167.207,183.998L167.93,184.12L168.652,184.136L169.375,184.006L170.098,183.839L170.82,184.26L171.543,183.74L172.266,183.981L172.988,183.929L173.711,184.262L174.434,184.11L175.156,184.175L175.879,184.466L176.602,183.853L177.324,184.469L178.047,184.067L178.77,183.955L179.492,184.258L180.215,184.018L180.938,184.277L181.66,184.069L182.383,183.917L183.105,183.799L183.828,184.202L184.551,184.194L185.273,184.188L185.996,183.922L186.719,184.276L187.441,183.775L188.164,183.841L188.887,183.77L189.609,183.922L190.332,184.007L191.055,184.163L191.777,184.417L192.5,183.949L193.223,184.059L193.945,183.987L194.668,183.776L195.391,184.281L196.113,184.375L196.836,183.908L197.559,184.135L198.281,184.024L199.004,184.304L199.727,183.837L200.449,183.978L201.172,183.824L201.895,183.698L202.617,183.888L203.34,184.22L204.063,183.872L204.785,184.454L205.508,184.215L206.23,183.961L206.953,184.185L207.676,183.661L208.398,183.965L209.121,184.235L209.844,183.858L210.566,183.867L211.289,183.96L212.012,184.014L212.734,184.191L213.457,184.186L214.18,183.991L214.902,184.331L215.625,184.035L216.348,184.133L217.07,184.171L217.793,183.682L218.516,184.015L219.238,183.74L219.961,183.925L220.684,184.131L221.406,184.136L222.129,183.856L222.852,184.268L223.574,184.197L224.297,184.14L225.02,184.151L225.742,184.421L226.465,183.999L227.188,184.317L227.91,183.84L228.633,184.389L229.355,184.111L230.078,184.052L230.801,184.118L231.523,184.035L232.246,184.193L232.969,184.151L233.691,184.254L234.414,184.028L235.137,184.089L235.859,184.033L236.582,184.262L237.305,184.19L238.027,184.26L238.75,184.066L239.473,183.771L240.195,183.941L240.918,183.765L241.641,183.929L242.363,184.042L243.086,184.149L243.809,184.115L244.531,184.031L245.254,183.911L245.977,184.093L246.699,184.091L247.422,183.89L248.145,184.171L248.867,184.176L249.59,184.483L250.313,183.909L251.035,183.771L251.758,184.081L252.48,184.15L253.203,184.076L253.926,184.066L254.648,183.664L255.371,183.68L256.094,183.709L256.816,184.047L257.539,184.083L258.262,183.948L258.984,184.222L259.707,184.078L260.43,183.912L261.152,184.124L261.875,183.968L262.598,183.806L263.32,183.803L264.043,184.051L264.766,183.767L265.488,183.957L266.211,183.826L266.934,183.899L267.656,184.06L268.379,183.956L269.102,184.176L269.824,183.964L270.547,184.323L271.27,184.199L271.992,183.783L272.715,184.027L273.438,183.982L274.16,184.009L274.883,183.956L275.605,183.783L276.328,183.678L277.051,183.773L277.773,184.032L278.496,184.119L279.219,183.933L279.941,184.261L280.664,184.061L281.387,184.006L282.109,183.918L282.832,183.865L283.555,183.96L284.277,183.955L285,184.056L285.723,184.032L286.445,184.589L287.168,184.131L287.891,183.851L288.613,183.822L289.336,184.133L290.059,183.921L290.781,183.978L291.504,183.945L292.227,184.076L292.949,183.858L293.672,183.847L294.395,183.972L295.117,183.919L295.84,183.918L296.563,184.399L297.285,183.97L298.008,184.515L298.73,184.141L299.453,184.347L300.176,183.85L300.898,183.916L301.621,183.9L302.344,183.958L303.066,184.191L303.789,183.86L304.512,184.023L305.234,184.202L305.957,184.169L306.68,184.121L307.402,184.383L308.125,183.908L308.848,184.142L309.57,184.415L310.293,183.985L311.016,184.064L311.738,183.978L312.461,184.238L313.184,184.139L313.906,184.07L314.629,184.037L315.352,184.162L316.074,183.888L316.797,183.9L317.52,184.429L318.242,184.195L318.965,184.058L319.688,184.194L320.41,184.128L321.133,184.156L321.855,184.314L322.578,184.225L323.301,184.065L324.023,183.917L324.746,184.136L325.469,184.231L326.191,184.268L326.914,184.16L327.637,184.451L328.359,184.163L329.082,184.279L329.805,184.069L330.527,184.251L331.25,183.984L331.973,183.992L332.695,183.993L333.418,184.012L334.141,184.336L334.863,184.143L335.586,184.268L336.309,184.078L337.031,184.234L337.754,184.291L338.477,184.092L339.199,184.493L339.922,184.443L340.645,184.146L341.367,184.521L342.09,184.706L342.813,184.286L343.535,184.153L344.258,184.117L344.98,184.238L345.703,184.135L346.426,184.173L347.148,184.194L347.871,184.384L348.594,184.218L349.316,184.196L350.039,184.192L350.762,184.581L351.484,184.123L352.207,184.139L352.93,184.416L353.652,184.343L354.375,184.542L355.098,184.368L355.82,184.19L356.543,184.414L357.266,184.448L357.988,184.424L358.711,184.304L359.434,184.536L360.156,184.426L360.879,184.454L361.602,184.84L362.324,184.584L363.047,184.756L363.77,184.52L364.492,184.552L365.215,184.975L365.938,184.816L366.66,184.787L367.383,184.589L368.105,185.051L368.828,184.408L369.551,184.569L370.273,184.67L370.996,184.655L371.719,184.649L372.441,184.855L373.164,184.526L373.887,184.702L374.609,184.961L375.332,184.652L376.055,184.681L376.777,184.69L377.5,184.861L378.223,184.831L378.945,184.99L379.668,184.996L380.391,185.026L381.113,185.142L381.836,184.808L382.559,185.12L383.281,184.875L384.004,185.032L384.727,184.967L385.449,185.161L386.172,184.858L386.895,184.714L387.617,184.996L388.34,185.258L389.063,185.039L389.785,184.971L390.508,185.333L391.23,184.973L391.953,185.227L392.676,184.994L393.398,185.206L394.121,185.209L394.844,185.252L395.566,185.458L396.289,185.373L397.012,185.325L397.734,185.106L398.457,185.372L399.18,185.417L399.902,185.503L400.625,185.363L401.348,185.573L402.07,186.036L402.793,185.64L403.516,185.697L404.238,185.921L404.961,185.288L405.684,185.808L406.406,185.381L407.129,185.484L407.852,185.857L408.574,185.68L409.297,185.323L410.02,185.641L410.742,185.521L411.465,185.83L412.188,185.869L412.91,185.78L413.633,185.761L414.355,185.982L415.078,185.601L415.801,185.511L416.523,185.992L417.246,185.926L417.969,185.846L418.691,186.367L419.414,185.612L420.137,185.895L420.859,186.025L421.582,186.12L422.305,185.809L423.027,186.071L423.75,186.134L424.473,185.828L425.195,185.866L425.918,186.485L426.641,185.962L427.363,186.051L428.086,186.916L428.809,185.99L429.531,186.236L430.254,186.6L430.977,186.324L431.699,186.04L432.422,186.241L433.145,186.793L433.867,187.09L434.59,186.916L435.313,186.935L436.035,186.396L436.758,186.378L437.48,185.962L438.203,186.572L438.926,186.444L439.648,187.216L440.371,187.245L441.094,186.417L441.816,187.152L442.539,186.868L443.262,186.373L443.984,186.665L444.707,186.838L445.43,186.693L446.152,187.126L446.875,186.51L447.598,186.986L448.32,186.689L449.043,186.753L449.766,186.8L450.488,186.823L451.211,187.562L451.934,187.212L452.656,186.956L453.379,187.579L454.102,186.899L454.824,187.32L455.547,186.652L456.27,187.259L456.992,187.827L457.715,187.247L458.438,186.97L459.16,187.999L459.883,187.295L460.605,186.756L461.328,187.735L462.051,187.801L462.773,187.148L463.496,187.239L464.219,187.065L464.941,187.242L465.664,187.375L466.387,187.628L467.109,187.4L467.832,187.189L468.555,187.414L469.277,188.054"/><path fill="none" stroke="rgb(236, 209, 46)" stroke-width="1.5" d="M100,183.361L100.723,184.072L101.445,184.076L102.168,184.255L102.891,183.951L103.613,184.136L104.336,184.033L105.059,184.275L105.781,184.215L106.504,184.051L107.227,184.483L107.949,184.22L108.672,184.279L109.395,184.004L110.117,184.112L110.84,184.024L111.563,184.081L112.285,184.217L113.008,184.465L113.73,184.211L114.453,184.145L115.176,184.201L115.898,184.142L116.621,183.992L117.344,184.203L118.066,183.991L118.789,184.137L119.512,184.256L120.234,184.259L120.957,184.131L121.68,184.147L122.402,184.123L123.125,183.739L123.848,184.515L124.57,184.216L125.293,184.487L126.016,184.228L126.738,183.679L127.461,183.964L128.184,184.109L128.906,183.981L129.629,184.383L130.352,184.214L131.074,183.971L131.797,184.166L132.52,184.227L133.242,184.303L133.965,183.907L134.688,184.142L135.41,183.895L136.133,184.282L136.855,184.281L137.578,184.367L138.301,184.363L139.023,184.251L139.746,183.957L140.469,184.282L141.191,183.843L141.914,184.292L142.637,184.016L143.359,184.181L144.082,184.231L144.805,184.023L145.527,184.278L146.25,184.373L146.973,184.209L147.695,184.201L148.418,184.136L149.141,184.078L149.863,184.058L150.586,184.318L151.309,184.24L152.031,184.246L152.754,184.281L153.477,184.422L154.199,184.023L154.922,184.292L155.645,184.387L156.367,184.025L157.09,184.316L157.813,184.255L158.535,184.34L159.258,184.282L159.98,184.528L160.703,184.259L161.426,184.227L162.148,184.266L162.871,184.301L163.594,184.191L164.316,184.186L165.039,184.344L165.762,184.485L166.484,184.089L167.207,184.665L167.93,184.306L168.652,184.621L169.375,184.383L170.098,184.123L170.82,184.413L171.543,184.497L172.266,184.115L172.988,184.526L173.711,184.537L174.434,184.444L175.156,184.581L175.879,184.314L176.602,184.198L177.324,184.393L178.047,184.508L178.77,184.249L179.492,184.539L180.215,184.22L180.938,184.434L181.66,184.187L182.383,184.447L183.105,184.194L183.828,184.081L184.551,184.459L185.273,184.268L185.996,184.273L186.719,184.094L187.441,184.332L188.164,184.216L188.887,184.327L189.609,184.055L190.332,184.451L191.055,184.213L191.777,184.323L192.5,184.442L193.223,184.084L193.945,184.193L194.668,184.098L195.391,184.37L196.113,184.484L196.836,184.235L197.559,184.687L198.281,184.426L199.004,184.548L199.727,184.402L200.449,184.457L201.172,184.446L201.895,184.459L202.617,184.665L203.34,184.23L204.063,184.26L204.785,184.51L205.508,184.265L206.23,184.42L206.953,184.465L207.676,184.555L208.398,184.1L209.121,184.536L209.844,184.739L210.566,184.31L211.289,184.261L212.012,184.36L212.734,184.345L213.457,184.414L214.18,184.465L214.902,184.34L215.625,184.76L216.348,184.15L217.07,184.404L217.793,184.63L218.516,184.393L219.238,184.445L219.961,184.443L220.684,184.588L221.406,184.508L222.129,184.189L222.852,184.165L223.574,184.435L224.297,184.457L225.02,184.459L225.742,184.508L226.465,184.385L227.188,184.031L227.91,184.355L228.633,184.403L229.355,184.65L230.078,184.548L230.801,184.332L231.523,184.706L232.246,184.329L232.969,184.408L233.691,184.401L234.414,184.264L235.137,184.328L235.859,184.151L236.582,184.346L237.305,184.387L238.027,184.139L238.75,184.505L239.473,184.267L240.195,184.333L240.918,184.551L241.641,184.388L242.363,184.421L243.086,184.502L243.809,184.614L244.531,184.319L245.254,184.595L245.977,184.428L246.699,184.434L247.422,184.389L248.145,184.412L248.867,184.709L249.59,184.534L250.313,184.542L251.035,184.425L251.758,184.27L252.48,184.327L253.203,184.586L253.926,184.181L254.648,184.278L255.371,184.275L256.094,184.637L256.816,184.547L257.539,184.453L258.262,184.297L258.984,184.4L259.707,184.455L260.43,184.479L261.152,184.405L261.875,184.505L262.598,184.166L263.32,184.623L264.043,184.627L264.766,184.642L265.488,184.518L266.211,184.205L266.934,184.539L267.656,184.653L268.379,184.293L269.102,184.375L269.824,184.141L270.547,184.642L271.27,185.022L271.992,184.375L272.715,184.488L273.438,184.22L274.16,184.262L274.883,184.706L275.605,184.314L276.328,184.404L277.051,184.657L277.773,184.649L278.496,184.531L279.219,184.456L279.941,184.55L280.664,184.506L281.387,184.463L282.109,184.681L282.832,184.234L283.555,184.298L284.277,184.535L285,184.361L285.723,184.25L286.445,184.401L287.168,184.347L287.891,184.395L288.613,184.423L289.336,184.301L290.059,184.484L290.781,184.36L291.504,184.381L292.227,184.522L292.949,184.385L293.672,184.656L294.395,184.337L295.117,184.204L295.84,184.677L296.563,184.731L297.285,184.14L298.008,184.718L298.73,184.485L299.453,184.707L300.176,184.46L300.898,184.763L301.621,184.867L302.344,184.475L303.066,184.671L303.789,184.318L304.512,184.631L305.234,184.441L305.957,184.453L306.68,184.616L307.402,184.596L308.125,184.271L308.848,184.532L309.57,184.638L310.293,184.692L311.016,184.277L311.738,184.467L312.461,184.468L313.184,184.535L313.906,184.303L314.629,184.612L315.352,184.307L316.074,184.595L316.797,184.597L317.52,184.858L318.242,184.366L318.965,184.76L319.688,184.832L320.41,184.503L321.133,184.603L321.855,184.395L322.578,184.746L323.301,184.385L324.023,184.622L324.746,184.934L325.469,184.725L326.191,184.696L326.914,184.93L327.637,184.713L328.359,184.494L329.082,184.712L329.805,184.742L330.527,184.816L331.25,184.605L331.973,185.024L332.695,184.636L333.418,184.81L334.141,184.581L334.863,184.727L335.586,184.589L336.309,184.791L337.031,184.835L337.754,184.493L338.477,184.773L339.199,184.632L339.922,184.903L340.645,184.888L341.367,184.671L342.09,184.486L342.813,184.855L343.535,184.663L344.258,184.817L344.98,184.8L345.703,184.663L346.426,185.028L347.148,184.66L347.871,184.672L348.594,184.975L349.316,184.968L350.039,184.829L350.762,184.999L351.484,184.71L352.207,184.962L352.93,184.664L353.652,184.811L354.375,185.038L355.098,184.509L355.82,184.722L356.543,184.796L357.266,184.994L357.988,185.006L358.711,185.253L359.434,185.433L360.156,184.983L360.879,184.98L361.602,185.275L362.324,185.253L363.047,185.033L363.77,185.486L364.492,185.027L365.215,185.21L365.938,185.208L366.66,185.494L367.383,185.358L368.105,185.118L368.828,185.184L369.551,185.475L370.273,185.227L370.996,185.462L371.719,185.153L372.441,185.212L373.164,185.172L373.887,185.306L374.609,185.621L375.332,185.491L376.055,185.465L376.777,184.991L377.5,185.537L378.223,185.776L378.945,185.209L379.668,185.156L380.391,185.635L381.113,185.718L381.836,185.595L382.559,185.895L383.281,185.864L384.004,185.716L384.727,186.134L385.449,185.856L386.172,185.681L386.895,186.138L387.617,185.62L388.34,186.064L389.063,185.394L389.785,185.828L390.508,185.958L391.23,185.663L391.953,185.698L392.676,185.735L393.398,186.028L394.121,185.989L394.844,186.319L395.566,186.075L396.289,186.184L397.012,185.859L397.734,186.46L398.457,185.818L399.18,185.967L399.902,186.213L400.625,185.912L401.348,185.983L402.07,185.885L402.793,185.953L403.516,185.92L404.238,185.983L404.961,186.36L405.684,186.434L406.406,185.966L407.129,186.605L407.852,186.053L408.574,185.992L409.297,186.233L410.02,186.088L410.742,186.271L411.465,186.977L412.188,186.407L412.91,186.479L413.633,186.813L414.355,186.816L415.078,186.745L415.801,186.41L416.523,186.945L417.246,186.471L417.969,186.342L418.691,186.918L419.414,186.471L420.137,186.536L420.859,186.487L421.582,186.413L422.305,186.95L423.027,186.54L423.75,186.654L424.473,187.272L425.195,186.496L425.918,186.692L426.641,186.573L427.363,186.82L428.086,187.352L428.809,186.757L429.531,186.893L430.254,187.169L430.977,187.559L431.699,187.124L432.422,186.845L433.145,186.957L433.867,187.673L434.59,186.913L435.313,187.22L436.035,186.99L436.758,186.872L437.48,187.366L438.203,187.144L438.926,187.484L439.648,186.986L440.371,186.984L441.094,187.144L441.816,187.438L442.539,186.966L443.262,187.091L443.984,187.219L444.707,187.63L445.43,187.114L446.152,187.278L446.875,187.294L447.598,187.101L448.32,188.083L449.043,187.85L449.766,188.037L450.488,187.688L451.211,187.656L451.934,187.895L452.656,187.345L453.379,187.582L454.102,187.209L454.824,187.428L455.547,187.696L456.27,188.166L456.992,187.286L457.715,188.215L458.438,188.042L459.16,188.272L459.883,188.112L460.605,187.963L461.328,188.035L462.051,187.725L462.773,187.719L463.496,187.638L464.219,188.517L464.941,188.008L465.664,188.2L466.387,187.999L467.109,187.715L467.832,187.737L468.555,187.993L469.277,188.248"/><path fill="none" stroke="rgb(255, 130, 29)" stroke-width="1.5" d="M100,183.773L100.723,183.973L101.445,183.832L102.168,184.075L102.891,183.943L103.613,184.178L104.336,183.89L105.059,184.162L105.781,184.088L106.504,183.892L107.227,184.172L107.949,184.024L108.672,184.406L109.395,183.987L110.117,184.226L110.84,183.959L111.563,183.879L112.285,183.882L113.008,184.009L113.73,184.043L114.453,183.949L115.176,183.733L115.898,183.704L116.621,184.156L117.344,183.944L118.066,183.983L118.789,183.838L119.512,184.269L120.234,184.185L120.957,184.244L121.68,184.174L122.402,184.031L123.125,184.054L123.848,183.84L124.57,183.967L125.293,184.216L126.016,183.795L126.738,184.032L127.461,184.073L128.184,183.958L128.906,184.083L129.629,184.419L130.352,183.951L131.074,184.169L131.797,184.228L132.52,184.37L133.242,183.992L133.965,183.97L134.688,184.258L135.41,184.174L136.133,184.243L136.855,184.226L137.578,183.801L138.301,184.108L139.023,184.424L139.746,184.172L140.469,183.96L141.191,184.259L141.914,184.078L142.637,184.04L143.359,184.364L144.082,183.798L144.805,183.752L145.527,184.34L146.25,183.923L146.973,184.513L147.695,184.038L148.418,184.058L149.141,184.1L149.863,184.193L150.586,183.902L151.309,184.193L152.031,184.162L152.754,184.204L153.477,183.987L154.199,184.362L154.922,184.101L155.645,184.206L156.367,184.179L157.09,184.5L157.813,184.268L158.535,184.069L159.258,184.527L159.98,184.044L160.703,184.026L161.426,183.866L162.148,184.307L162.871,184.171L163.594,184.168L164.316,184.052L165.039,184.145L165.762,184.657L166.484,184.375L167.207,184.41L167.93,184.668L168.652,184.206L169.375,184.533L170.098,184.377L170.82,183.961L171.543,184.538L172.266,184.521L172.988,184.445L173.711,184.167L174.434,184.319L175.156,184.343L175.879,184.504L176.602,184.023L177.324,184.8L178.047,184.508L178.77,184.235L179.492,184.386L180.215,184.229L180.938,184.559L181.66,184.557L182.383,184.431L183.105,184.53L183.828,183.984L184.551,184.213L185.273,184.496L185.996,184.241L186.719,184.241L187.441,184.55L188.164,184.652L188.887,184.521L189.609,184.653L190.332,184.55L191.055,184.553L191.777,184.373L192.5,184.168L193.223,184.573L193.945,184.546L194.668,184.69L195.391,184.694L196.113,184.921L196.836,184.564L197.559,184.567L198.281,184.933L199.004,184.443L199.727,184.574L200.449,184.488L201.172,184.696L201.895,184.591L202.617,184.994L203.34,184.952L204.063,184.452L204.785,185.025L205.508,184.399L206.23,184.554L206.953,184.603L207.676,184.82L208.398,184.561L209.121,184.836L209.844,184.854L210.566,184.85L211.289,184.508L212.012,184.51L212.734,184.881L213.457,184.868L214.18,184.758L214.902,184.964L215.625,185.12L216.348,184.612L217.07,184.557L217.793,184.454L218.516,184.505L219.238,185.076L219.961,184.616L220.684,184.713L221.406,184.886L222.129,184.956L222.852,184.871L223.574,185.11L224.297,184.566L225.02,184.897L225.742,184.597L226.465,184.614L227.188,184.785L227.91,185.021L228.633,184.693L229.355,184.655L230.078,184.737L230.801,185.258L231.523,184.773L232.246,184.337L232.969,184.848L233.691,184.526L234.414,185.073L235.137,185.058L235.859,184.854L236.582,184.723L237.305,184.98L238.027,184.758L238.75,184.354L239.473,184.798L240.195,184.751L240.918,184.789L241.641,185.044L242.363,184.786L243.086,184.95L243.809,184.798L244.531,185.312L245.254,185.045L245.977,185L246.699,185.13L247.422,185.099L248.145,185.077L248.867,184.8L249.59,184.748L250.313,185.079L251.035,184.816L251.758,184.849L252.48,185.005L253.203,184.952L253.926,184.854L254.648,185.157L255.371,184.808L256.094,184.831L256.816,185.014L257.539,185.189L258.262,185.123L258.984,184.863L259.707,185.258L260.43,184.699L261.152,184.86L261.875,184.922L262.598,184.945L263.32,185.364L264.043,185.135L264.766,184.824L265.488,184.825L266.211,184.97L266.934,184.825L267.656,184.946L268.379,185.22L269.102,184.702L269.824,184.922L270.547,184.582L271.27,184.62L271.992,184.638L272.715,184.963L273.438,184.959L274.16,184.677L274.883,184.635L275.605,185.026L276.328,184.877L277.051,185.012L277.773,185.009L278.496,184.909L279.219,185.009L279.941,185.021L280.664,184.989L281.387,184.928L282.109,185.02L282.832,185.325L283.555,184.968L284.277,184.993L285,185.1L285.723,185.101L286.445,184.923L287.168,185.127L287.891,184.692L288.613,184.855L289.336,184.935L290.059,184.724L290.781,184.996L291.504,184.924L292.227,184.805L292.949,184.814L293.672,185.134L294.395,184.999L295.117,184.869L295.84,185.054L296.563,184.945L297.285,184.417L298.008,185.034L298.73,184.889L299.453,185.31L300.176,184.467L300.898,185.237L301.621,184.976L302.344,185.301L303.066,184.917L303.789,185.007L304.512,184.961L305.234,185.089L305.957,185.157L306.68,185.211L307.402,185.086L308.125,185.078L308.848,185.227L309.57,185.12L310.293,185.248L311.016,185.202L311.738,185.232L312.461,184.728L313.184,184.52L313.906,184.846L314.629,185.359L315.352,185.011L316.074,185.026L316.797,185.09L317.52,185.571L318.242,184.962L318.965,185.195L319.688,185.418L320.41,185.077L321.133,184.95L321.855,185.066L322.578,185.629L323.301,185.237L324.023,185.283L324.746,184.867L325.469,185.602L326.191,185.093L326.914,185.427L327.637,185.259L328.359,185.471L329.082,185.094L329.805,185.374L330.527,185.317L331.25,185.326L331.973,185.417L332.695,185.356L333.418,185.558L334.141,185.549L334.863,184.909L335.586,185.744L336.309,185.379L337.031,185.254L337.754,185.278L338.477,185.208L339.199,185.583L339.922,185.162L340.645,185.603L341.367,185.355L342.09,185.936L342.813,185.266L343.535,185.936L344.258,185.272L344.98,185.622L345.703,185.452L346.426,185.394L347.148,185.851L347.871,185.873L348.594,185.495L349.316,185.435L350.039,185.686L350.762,185.851L351.484,185.317L352.207,184.949L352.93,185.552L353.652,185.545L354.375,185.747L355.098,185.542L355.82,185.809L356.543,185.718L357.266,185.972L357.988,185.744L358.711,185.494L359.434,185.485L360.156,185.084L360.879,185.685L361.602,185.561L362.324,185.794L363.047,185.892L363.77,185.975L364.492,186.143L365.215,185.828L365.938,186.018L366.66,185.752L367.383,185.693L368.105,186.249L368.828,186.104L369.551,185.586L370.273,185.855L370.996,186.368L371.719,185.77L372.441,185.577L373.164,186.405L373.887,186.268L374.609,185.821L375.332,185.858L376.055,185.813L376.777,186.262L377.5,186.513L378.223,186.412L378.945,186.034L379.668,186.101L380.391,186.009L381.113,186.647L381.836,186.055L382.559,186.177L383.281,186.028L384.004,186.41L384.727,186.033L385.449,186.641L386.172,186.748L386.895,186.084L387.617,186.164L388.34,186.432L389.063,186.707L389.785,186.841L390.508,186.146L391.23,186.133L391.953,186.803L392.676,186.6L393.398,186.274L394.121,186.112L394.844,186.826L395.566,186.567L396.289,186.922L397.012,186.058L397.734,186.998L398.457,187.172L399.18,186.339L399.902,186.692L400.625,186.916L401.348,186.575L402.07,186.648L402.793,186.7L403.516,186.166L404.238,186.958L404.961,186.216L405.684,187.09L406.406,186.731L407.129,186.374L407.852,186.969L408.574,187.014L409.297,187.196L410.02,186.84L410.742,187.429L411.465,187.631L412.188,186.942L412.91,187.749L413.633,186.742L414.355,186.869L415.078,186.474L415.801,186.91L416.523,187.505L417.246,187.377L417.969,187.271L418.691,187.364L419.414,187.047L420.137,187.614L420.859,187.613L421.582,187.602L422.305,187.117L423.027,187.375L423.75,187.078L424.473,187.676L425.195,187.789L425.918,187.621L426.641,187.818L427.363,187.439L428.086,187.49L428.809,187.275L429.531,187.328L430.254,187.75L430.977,187.872L431.699,187.865L432.422,187.816L433.145,188.089L433.867,187.574L434.59,187.54L435.313,188.143L436.035,187.604L436.758,187.908L437.48,187.984L438.203,187.714L438.926,188.021L439.648,187.71L440.371,188.073L441.094,187.834L441.816,187.645L442.539,187.821L443.262,188.188L443.984,188.09L444.707,188.591L445.43,188.356L446.152,187.965L446.875,188.086L447.598,188.31L448.32,187.256L449.043,188.728L449.766,188.357L450.488,188.407L451.211,188.795L451.934,188.162L452.656,187.857L453.379,188.185L454.102,188.016L454.824,188.114L455.547,188.278L456.27,188.692L456.992,188.33L457.715,188.253L458.438,188.208L459.16,188.305L459.883,187.834L460.605,187.966L461.328,188.845L462.051,188.612L462.773,188.788L463.496,188.426L464.219,187.929L464.941,188.62L465.664,188.144L466.387,188.316L467.109,188.616L467.832,188.39L468.555,188.616L469.277,189.049"/><path fill="none" stroke="rgb(203, 47, 13)" stroke-width="1.5" d="M100,183.423L100.723,184.001L101.445,183.718L102.168,183.93L102.891,183.781L103.613,184.073L104.336,184.03L105.059,183.592L105.781,183.942L106.504,183.976L107.227,184.012L107.949,184.097L108.672,183.829L109.395,183.841L110.117,183.984L110.84,183.829L111.563,184.105L112.285,183.932L113.008,183.843L113.73,183.982L114.453,183.885L115.176,184.098L115.898,184.001L116.621,183.928L117.344,184.006L118.066,183.9L118.789,184.043L119.512,183.856L120.234,184.348L120.957,183.948L121.68,184.188L122.402,183.932L123.125,183.905L123.848,183.966L124.57,183.957L125.293,184.067L126.016,184.294L126.738,184.201L127.461,184.062L128.184,184.104L128.906,184.123L129.629,184.321L130.352,184.256L131.074,184.037L131.797,184.245L132.52,184.242L133.242,184.297L133.965,184.207L134.688,183.992L135.41,184.14L136.133,183.935L136.855,184.16L137.578,184.393L138.301,184.246L139.023,184.203L139.746,184.337L140.469,184.264L141.191,184.307L141.914,184.456L142.637,184.097L143.359,184.343L144.082,184.122L144.805,184.197L145.527,183.944L146.25,183.963L146.973,184.251L147.695,184.131L148.418,183.923L149.141,184.324L149.863,184.363L150.586,184.34L151.309,184.43L152.031,184.296L152.754,184.078L153.477,184.243L154.199,184.368L154.922,184.594L155.645,184.271L156.367,184.397L157.09,184.264L157.813,184.246L158.535,184.361L159.258,184.46L159.98,184.524L160.703,184.457L161.426,184.453L162.148,184.473L162.871,184.246L163.594,184.389L164.316,184.266L165.039,184.283L165.762,184.473L166.484,183.946L167.207,184.095L167.93,184.517L168.652,184.507L169.375,184.085L170.098,184.152L170.82,184.374L171.543,184.261L172.266,184.595L172.988,184.327L173.711,184.48L174.434,184.501L175.156,184.302L175.879,184.518L176.602,184.493L177.324,184.505L178.047,184.509L178.77,184.352L179.492,184.361L180.215,184.535L180.938,184.526L181.66,184.98L182.383,184.882L183.105,184.588L183.828,184.56L184.551,184.268L185.273,184.782L185.996,184.562L186.719,184.586L187.441,184.645L188.164,184.573L188.887,184.996L189.609,184.755L190.332,184.762L191.055,184.764L191.777,184.708L192.5,185.283L193.223,184.379L193.945,185.155L194.668,184.692L195.391,184.5L196.113,184.276L196.836,184.693L197.559,184.806L198.281,184.85L199.004,184.822L199.727,184.572L200.449,184.83L201.172,185.028L201.895,184.64L202.617,184.748L203.34,184.717L204.063,185.117L204.785,184.959L205.508,184.786L206.23,185.136L206.953,184.861L207.676,185.137L208.398,185.029L209.121,185.051L209.844,185.035L210.566,185.139L211.289,184.739L212.012,184.879L212.734,184.662L213.457,185.553L214.18,185.09L214.902,184.919L215.625,185.347L216.348,185.345L217.07,184.899L217.793,185.448L218.516,185.152L219.238,185.47L219.961,185.11L220.684,185.228L221.406,185.178L222.129,185.495L222.852,185.167L223.574,185.317L224.297,185.347L225.02,185.537L225.742,184.947L226.465,185.338L227.188,185.482L227.91,185.534L228.633,185.155L229.355,185.542L230.078,185.511L230.801,185.389L231.523,185.178L232.246,185.305L232.969,185.566L233.691,185.538L234.414,185.866L235.137,185.827L235.859,185.418L236.582,185.76L237.305,185.916L238.027,185.624L238.75,185.316L239.473,186.001L240.195,185.971L240.918,186.093L241.641,185.758L242.363,185.636L243.086,185.744L243.809,185.39L244.531,185.858L245.254,185.731L245.977,185.855L246.699,186.152L247.422,186.105L248.145,185.471L248.867,185.83L249.59,185.714L250.313,185.61L251.035,186.258L251.758,186.263L252.48,186.06L253.203,185.753L253.926,185.605L254.648,185.34L255.371,185.606L256.094,185.647L256.816,185.933L257.539,186.095L258.262,185.568L258.984,185.978L259.707,186.405L260.43,186.008L261.152,186.367L261.875,186.413L262.598,186.085L263.32,185.834L264.043,186.418L264.766,186.165L265.488,186.277L266.211,186.342L266.934,185.834L267.656,186.575L268.379,185.891L269.102,186.523L269.824,186.091L270.547,186.277L271.27,185.909L271.992,186.262L272.715,186.46L273.438,185.845L274.16,186.291L274.883,185.951L275.605,186.479L276.328,185.751L277.051,186.625L277.773,186.448L278.496,185.796L279.219,186.496L279.941,186.633L280.664,186.386L281.387,186.426L282.109,186.007L282.832,186.318L283.555,186.879L284.277,186.444L285,186.549L285.723,186.676L286.445,186.693L287.168,186.122L287.891,186.578L288.613,186.181L289.336,186.271L290.059,186.326L290.781,186.546L291.504,186.955L292.227,186.657L292.949,186.945L293.672,186.793L294.395,186.707L295.117,186.377L295.84,186.732L296.563,186.767L297.285,187.147L298.008,186.701L298.73,187.293L299.453,186.48L300.176,186.416L300.898,186.359L301.621,187.152L302.344,186.484L303.066,186.936L303.789,187.052L304.512,186.962L305.234,186.885L305.957,187.169L306.68,187.231L307.402,186.87L308.125,187.161L308.848,187.386L309.57,187.256L310.293,187.284L311.016,187.191L311.738,187.292L312.461,187.553L313.184,187.32L313.906,187.15L314.629,187.38L315.352,187.6L316.074,187.141L316.797,187.27L317.52,186.882L318.242,187.172L318.965,186.781L319.688,187.907L320.41,187.51L321.133,187.297L321.855,187.788L322.578,187.745L323.301,187.253L324.023,187.459L324.746,187.243L325.469,188.03L326.191,187.766L326.914,187.54L327.637,188.1L328.359,187.807L329.082,187.706L329.805,187.732L330.527,187.851L331.25,188.12L331.973,187.731L332.695,187.371L333.418,187.753L334.141,188L334.863,187.713L335.586,187.617L336.309,187.392L337.031,188.094L337.754,187.956L338.477,188.071L339.199,188.499L339.922,188.146L340.645,188.063L341.367,187.95L342.09,188.289L342.813,188.027L343.535,188.174L344.258,188.219L344.98,188.245L345.703,187.86L346.426,188.086L347.148,188.414L347.871,188.492L348.594,188.81L349.316,188.147L350.039,188.366L350.762,187.878L351.484,188.461L352.207,188.689L352.93,188.21L353.652,188.786L354.375,188.236L355.098,188.137L355.82,188.32L356.543,188.198L357.266,188.825L357.988,188.663L358.711,188.781L359.434,188.493L360.156,189.081L360.879,188.986L361.602,189.023L362.324,189.367L363.047,188.966L363.77,188.636L364.492,189.085L365.215,189.192L365.938,188.722L366.66,188.881L367.383,188.707L368.105,189.528L368.828,188.989L369.551,189.223L370.273,188.939L370.996,188.995L371.719,189.245L372.441,189.848L373.164,188.58L373.887,189.156L374.609,189.401L375.332,188.835L376.055,189.232L376.777,189.789L377.5,189.451L378.223,189.629L378.945,189.118L379.668,189.45L380.391,189.45L381.113,189.814L381.836,189.066L382.559,189.311L383.281,189.089L384.004,189.606L384.727,189.529L385.449,190.266L386.172,190.572L386.895,190.247L387.617,190.208L388.34,189.971L389.063,190.194L389.785,190.082L390.508,189.872L391.23,190.212L391.953,189.537L392.676,190.468L393.398,189.896L394.121,190.302L394.844,190.255L395.566,190.271L396.289,189.498L397.012,189.701L397.734,189.64L398.457,189.826L399.18,190.571L399.902,190.59L400.625,190.821L401.348,189.834L402.07,189.757L402.793,190.157L403.516,190.562L404.238,189.499L404.961,190.368L405.684,190.523L406.406,190.229L407.129,190.348L407.852,190.22L408.574,190.623L409.297,191.112L410.02,190.32L410.742,190.289L411.465,190.557L412.188,190.458L412.91,191.069L413.633,191.202L414.355,191.047L415.078,191.735L415.801,191.659L416.523,190.263L417.246,190.745L417.969,190.716L418.691,191.107L419.414,191.014L420.137,190.465L420.859,190.886L421.582,191.163L422.305,191.419L423.027,191.267L423.75,191.537L424.473,191.548L425.195,192.387L425.918,191.316L426.641,191.091L427.363,191.765L428.086,191.826L428.809,191.061L429.531,191.498L430.254,191.522L430.977,191.332L431.699,192.161L432.422,191.777L433.145,191.63L433.867,190.582L434.59,191.235L435.313,192.125L436.035,191.953L436.758,191.973L437.48,192.635L438.203,192.232L438.926,191.829L439.648,191.635L440.371,193.062L441.094,191.908L441.816,191.927L442.539,193.063L443.262,192.344L443.984,192.8L444.707,193.832L445.43,192.904L446.152,192.963L446.875,190.966L447.598,192.926L448.32,192.254L449.043,192.517L449.766,192.32L450.488,191.979L451.211,193.19L451.934,192.909L452.656,193.071L453.379,191.243L454.102,192.208L454.824,191.823L455.547,192.142L456.27,193.492L456.992,194.157L457.715,192.555L458.438,193.312L459.16,192.539L459.883,193.161L460.605,193.499L461.328,192.749L462.051,192.846L462.773,193.005L463.496,193.902L464.219,192.031L464.941,193.267L465.664,192.621L466.387,192.246L467.109,192.785L467.832,192.821L468.555,192.877L469.277,193.476"/><g transform="translate(0,190) scale(1.7) rotate(-90)"><text>Drift</text></g><g transform="translate(315,395) scale(1.8)"><text></text></g><g transform="translate(0,350)" fill="none" font-size="10" font-family="sans-serif" text-anchor="middle"><path class="domain" stroke="currentColor" d="M100,6V0H470V6"/><g class="tick" opacity="1" transform="translate(136.66666666666666,0)"><line stroke="currentColor" y2="6"/><text fill="currentColor" y="9" dy="0.71em" font-size="20px"> </text></g><g class="tick" opacity="1" transform="translate(173.7037037037037,0)"><line stroke="currentColor" y2="6"/><text fill="currentColor" y="9" dy="0.71em" font-size="20px">200</text></g><g class="tick" opacity="1" transform="translate(210.74074074074076,0)"><line stroke="currentColor" y2="6"/><text fill="currentColor" y="9" dy="0.71em" font-size="20px"> </text></g><g class="tick" opacity="1" transform="translate(247.77777777777777,0)"><line stroke="currentColor" y2="6"/><text fill="currentColor" y="9" dy="0.71em" font-size="20px">400</text></g><g class="tick" opacity="1" transform="translate(284.81481481481484,0)"><line stroke="currentColor" y2="6"/><text fill="currentColor" y="9" dy="0.71em" font-size="20px"> </text></g><g class="tick" opacity="1" transform="translate(321.85185185185185,0)"><line stroke="currentColor" y2="6"/><text fill="currentColor" y="9" dy="0.71em" font-size="20px">600</text></g><g class="tick" opacity="1" transform="translate(358.8888888888889,0)"><line stroke="currentColor" y2="6"/><text fill="currentColor" y="9" dy="0.71em" font-size="20px"> </text></g><g class="tick" opacity="1" transform="translate(395.9259259259259,0)"><line stroke="currentColor" y2="6"/><text fill="currentColor" y="9" dy="0.71em" font-size="20px">800</text></g><g class="tick" opacity="1" transform="translate(432.96296296296293,0)"><line stroke="currentColor" y2="6"/><text fill="currentColor" y="9" dy="0.71em" font-size="20px"> </text></g><g class="tick" opacity="1" transform="translate(470,0)"><line stroke="currentColor" y2="6"/><text fill="currentColor" y="9" dy="0.71em" font-size="20px">1000</text></g></g><g transform="translate(100,0)" fill="none" font-size="10" font-family="sans-serif" text-anchor="end"><path class="domain" stroke="currentColor" d="M-6,350H0V20H-6"/><g class="tick" opacity="1" transform="translate(0,320.3166424010527)"><line stroke="currentColor" x2="-6"/><text fill="currentColor" x="-9" dy="0.32em" font-size="20px">0.0190</text></g><g class="tick" opacity="1" transform="translate(0,290.48900800678666)"><line stroke="currentColor" x2="-6"/><text fill="currentColor" x="-9" dy="0.32em" font-size="20px">0.0185</text></g><g class="tick" opacity="1" transform="translate(0,260.6613736125205)"><line stroke="currentColor" x2="-6"/><text fill="currentColor" x="-9" dy="0.32em" font-size="20px">0.0180</text></g><g class="tick" opacity="1" transform="translate(0,230.8337392182546)"><line stroke="currentColor" x2="-6"/><text fill="currentColor" x="-9" dy="0.32em" font-size="20px">0.0175</text></g><g class="tick" opacity="1" transform="translate(0,201.0061048239885)"><line stroke="currentColor" x2="-6"/><text fill="currentColor" x="-9" dy="0.32em" font-size="20px">0.0170</text></g><g class="tick" opacity="1" transform="translate(0,171.17847042972238)"><line stroke="currentColor" x2="-6"/><text fill="currentColor" x="-9" dy="0.32em" font-size="20px">0.0165</text></g><g class="tick" opacity="1" transform="translate(0,141.35083603545627)"><line stroke="currentColor" x2="-6"/><text fill="currentColor" x="-9" dy="0.32em" font-size="20px">0.0160</text></g><g class="tick" opacity="1" transform="translate(0,111.52320164119017)"><line stroke="currentColor" x2="-6"/><text fill="currentColor" x="-9" dy="0.32em" font-size="20px">0.0155</text></g><g class="tick" opacity="1" transform="translate(0,81.69556724692404)"><line stroke="currentColor" x2="-6"/><text fill="currentColor" x="-9" dy="0.32em" font-size="20px">0.0150</text></g><g class="tick" opacity="1" transform="translate(0,51.86793285265803)"><line stroke="currentColor" x2="-6"/><text fill="currentColor" x="-9" dy="0.32em" font-size="20px">0.0145</text></g><g class="tick" opacity="1" transform="translate(0,22.040298458391938)"><line stroke="currentColor" x2="-6"/><text fill="currentColor" x="-9" dy="0.32em" font-size="20px">0.0140</text></g></g><circle cx="155" cy="50" r="8" style="fill: rgb(35, 23, 27);"/><circle cx="155" cy="75" r="8" style="fill: rgb(69, 105, 238);"/><circle cx="155" cy="100" r="8" style="fill: rgb(38, 188, 225);"/><circle cx="155" cy="125" r="8" style="fill: rgb(63, 243, 147);"/><circle cx="275" cy="50" r="8" style="fill: rgb(149, 251, 81);"/><circle cx="275" cy="75" r="8" style="fill: rgb(236, 209, 46);"/><circle cx="275" cy="100" r="8" style="fill: rgb(255, 130, 29);"/><circle cx="275" cy="125" r="8" style="fill: rgb(203, 47, 13);"/><text x="170" y="50" text-anchor="left" font-size="22" alignment-baseline="middle" style="fill: rgb(35, 23, 27);"> = 0</text><text x="170" y="75" text-anchor="left" font-size="22" alignment-baseline="middle" style="fill: rgb(69, 105, 238);"> = 0.22</text><text x="170" y="100" text-anchor="left" font-size="22" alignment-baseline="middle" style="fill: rgb(38, 188, 225);"> = 0.45</text><text x="170" y="125" text-anchor="left" font-size="22" alignment-baseline="middle" style="fill: rgb(63, 243, 147);"> = 0.67</text><text x="295" y="50" text-anchor="left" font-size="22" alignment-baseline="middle" style="fill: rgb(149, 251, 81);"> = 0.9</text><text x="295" y="75" text-anchor="left" font-size="22" alignment-baseline="middle" style="fill: rgb(236, 209, 46);"> = 1.12</text><text x="295" y="100" text-anchor="left" font-size="22" alignment-baseline="middle" style="fill: rgb(255, 130, 29);"> = 1.35</text><text x="295" y="125" text-anchor="left" font-size="22" alignment-baseline="middle" style="fill: rgb(203, 47, 13);"> = 1.57</text></svg>