<svg xmlns="http://www.w3.org/2000/svg" class="bg-white" width="500" height="400" viewBox="-35.199999999999996 -24.19999999999999 550 440.00000000000006"><path fill="none" stroke="rgb(35, 23, 27)" stroke-width="1.5" d="M100,53.269L100.723,51.75L101.445,50.391L102.168,49.166L102.891,48.011L103.613,46.887L104.336,45.775L105.059,44.824L105.781,43.813L106.504,42.892L107.227,41.965L107.949,41.091L108.672,40.29L109.395,39.471L110.117,38.682L110.84,37.827L111.563,37.02L112.285,36.16L113.008,35.332L113.73,34.532L114.453,33.663L115.176,32.855L115.898,31.985L116.621,31.056L117.344,30.136L118.066,29.231L118.789,28.229L119.512,27.123L120.234,26.044L120.957,24.802L121.68,23.418L122.402,23.398L123.125,24.867L123.848,26.218L124.57,27.333L125.293,28.467L126.016,29.488L126.738,30.505L127.461,31.447L128.184,32.38L128.906,33.21L129.629,34.06L130.352,34.768L131.074,35.604L131.797,36.315L132.52,37.011L133.242,37.719L133.965,38.337L134.688,38.944L135.41,39.594L136.133,40.185L136.855,40.724L137.578,41.393L138.301,41.941L139.023,42.429L139.746,42.888L140.469,43.469L141.191,43.92L141.914,44.532L142.637,44.936L143.359,45.418L144.082,45.891L144.805,46.311L145.527,46.834L146.25,47.274L146.973,47.681L147.695,48.174L148.418,48.525L149.141,48.929L149.863,49.441L150.586,49.869L151.309,50.205L152.031,50.622L152.754,51.014L153.477,51.366L154.199,51.84L154.922,52.218L155.645,52.539L156.367,52.947L157.09,53.347L157.813,53.684L158.535,54.146L159.258,54.387L159.98,54.876L160.703,55.283L161.426,55.603L162.148,55.94L162.871,56.375L163.594,56.691L164.316,57.012L165.039,57.412L165.762,57.876L166.484,58.065L167.207,58.581L167.93,58.915L168.652,59.28L169.375,59.621L170.098,60L170.82,60.21L171.543,60.671L172.266,60.984L172.988,61.272L173.711,61.707L174.434,62.024L175.156,62.391L175.879,62.744L176.602,63.138L177.324,63.451L178.047,63.758L178.77,64.108L179.492,64.455L180.215,64.795L180.938,65.119L181.66,65.52L182.383,65.921L183.105,66.299L183.828,66.64L184.551,66.95L185.273,67.32L185.996,67.641L186.719,67.957L187.441,68.348L188.164,68.681L188.887,69.008L189.609,69.425L190.332,69.795L191.055,70.169L191.777,70.452L192.5,70.877L193.223,71.22L193.945,71.543L194.668,71.944L195.391,72.281L196.113,72.605L196.836,72.939L197.559,73.312L198.281,73.637L199.004,74.095L199.727,74.399L200.449,74.84L201.172,75.137L201.895,75.513L202.617,75.909L203.34,76.258L204.063,76.591L204.785,76.946L205.508,77.358L206.23,77.752L206.953,78.048L207.676,78.439L208.398,78.727L209.121,79.05L209.844,79.503L210.566,79.887L211.289,80.322L212.012,80.593L212.734,80.899L213.457,81.42L214.18,81.702L214.902,82.147L215.625,82.558L216.348,82.867L217.07,83.248L217.793,83.547L218.516,83.946L219.238,84.337L219.961,84.699L220.684,85.066L221.406,85.466L222.129,85.962L222.852,86.285L223.574,86.571L224.297,86.943L225.02,87.304L225.742,87.91L226.465,88.236L227.188,88.633L227.91,88.941L228.633,89.298L229.355,89.688L230.078,90.065L230.801,90.568L231.523,90.866L232.246,91.306L232.969,91.639L233.691,92.126L234.414,92.451L235.137,92.854L235.859,93.263L236.582,93.597L237.305,94.043L238.027,94.435L238.75,94.901L239.473,95.245L240.195,95.677L240.918,96.135L241.641,96.49L242.363,96.903L243.086,97.296L243.809,97.764L244.531,98.123L245.254,98.522L245.977,98.886L246.699,99.302L247.422,99.837L248.145,100.146L248.867,100.64L249.59,101.09L250.313,101.497L251.035,101.91L251.758,102.246L252.48,102.654L253.203,103.165L253.926,103.589L254.648,103.949L255.371,104.392L256.094,104.788L256.816,105.31L257.539,105.724L258.262,106.158L258.984,106.559L259.707,106.873L260.43,107.498L261.152,107.87L261.875,108.154L262.598,108.81L263.32,109.125L264.043,109.71L264.766,110.004L265.488,110.45L266.211,110.863L266.934,111.449L267.656,111.783L268.379,112.167L269.102,112.721L269.824,113.095L270.547,113.595L271.27,114.033L271.992,114.545L272.715,114.975L273.438,115.435L274.16,115.915L274.883,116.266L275.605,116.919L276.328,117.313L277.051,117.889L277.773,118.236L278.496,118.834L279.219,119.202L279.941,119.769L280.664,120.248L281.387,120.611L282.109,121.148L282.832,121.621L283.555,122.156L284.277,122.657L285,123.125L285.723,123.675L286.445,124.141L287.168,124.578L287.891,125.086L288.613,125.608L289.336,126.206L290.059,126.631L290.781,127.092L291.504,127.647L292.227,128.01L292.949,128.631L293.672,129.134L294.395,129.649L295.117,130.2L295.84,130.84L296.563,131.254L297.285,131.701L298.008,132.275L298.73,132.934L299.453,133.495L300.176,133.968L300.898,134.509L301.621,134.958L302.344,135.406L303.066,135.948L303.789,136.677L304.512,137.2L305.234,137.639L305.957,138.193L306.68,138.719L307.402,139.35L308.125,139.979L308.848,140.331L309.57,140.827L310.293,141.506L311.016,142.122L311.738,142.689L312.461,143.293L313.184,143.723L313.906,144.54L314.629,144.952L315.352,145.669L316.074,146.076L316.797,146.58L317.52,147.407L318.242,147.778L318.965,148.555L319.688,149.02L320.41,149.785L321.133,150.12L321.855,150.795L322.578,151.299L323.301,151.969L324.023,152.594L324.746,153.266L325.469,153.821L326.191,154.482L326.914,155.296L327.637,155.693L328.359,156.479L329.082,157.157L329.805,157.577L330.527,158.189L331.25,158.768L331.973,159.44L332.695,160.105L333.418,160.838L334.141,161.359L334.863,162.044L335.586,162.775L336.309,163.243L337.031,164.104L337.754,164.589L338.477,165.29L339.199,165.852L339.922,166.583L340.645,167.133L341.367,167.703L342.09,168.627L342.813,169.248L343.535,169.872L344.258,170.599L344.98,171.286L345.703,171.959L346.426,172.666L347.148,173.267L347.871,173.962L348.594,174.726L349.316,175.234L350.039,175.995L350.762,176.809L351.484,177.441L352.207,178.243L352.93,178.86L353.652,179.59L354.375,180.149L355.098,180.985L355.82,181.8L356.543,182.443L357.266,183.176L357.988,183.737L358.711,184.621L359.434,185.363L360.156,186.07L360.879,186.761L361.602,187.546L362.324,188.246L363.047,188.907L363.77,189.728L364.492,190.564L365.215,191.398L365.938,192.026L366.66,192.739L367.383,193.62L368.105,194.204L368.828,194.985L369.551,195.767L370.273,196.653L370.996,197.233L371.719,198.056L372.441,199.051L373.164,199.829L373.887,200.425L374.609,201.393L375.332,202.211L376.055,203.011L376.777,203.827L377.5,204.644L378.223,205.461L378.945,206.158L379.668,207.133L380.391,207.786L381.113,208.541L381.836,209.311L382.559,210.351L383.281,211.168L384.004,212.123L384.727,213.004L385.449,213.501L386.172,214.284L386.895,215.446L387.617,216.303L388.34,217.209L389.063,217.731L389.785,218.815L390.508,219.807L391.23,220.597L391.953,221.526L392.676,222.49L393.398,223.041L394.121,224.026L394.844,224.988L395.566,225.666L396.289,226.827L397.012,227.802L397.734,228.48L398.457,229.325L399.18,230.421L399.902,231.133L400.625,232.498L401.348,233.107L402.07,234.321L402.793,234.873L403.516,235.731L404.238,236.872L404.961,237.995L405.684,239.18L406.406,239.694L407.129,240.7L407.852,241.744L408.574,242.794L409.297,243.652L410.02,244.793L410.742,245.574L411.465,246.6L412.188,247.463L412.91,248.668L413.633,249.382L414.355,250.745L415.078,251.686L415.801,252.635L416.523,253.814L417.246,254.882L417.969,255.926L418.691,256.761L419.414,257.879L420.137,258.982L420.859,260.011L421.582,261.041L422.305,261.904L423.027,263.201L423.75,264.408L424.473,265.239L425.195,266.777L425.918,267.499L426.641,268.654L427.363,269.786L428.086,270.768L428.809,272.095L429.531,273.024L430.254,274.259L430.977,275.391L431.699,276.766L432.422,277.723L433.145,279.15L433.867,280.299L434.59,281.241L435.313,282.589L436.035,283.771L436.758,285.046L437.48,286.386L438.203,287.46L438.926,288.381L439.648,289.663L440.371,290.972L441.094,292.38L441.816,293.597L442.539,294.707L443.262,296.287L443.984,297.521L444.707,298.627L445.43,300.096L446.152,301.258L446.875,302.779L447.598,303.894L448.32,305.492L449.043,306.506L449.766,308.434L450.488,309.499L451.211,310.644L451.934,312.62L452.656,313.657L453.379,315.293L454.102,316.794L454.824,318.436L455.547,319.658L456.27,321.014L456.992,322.546L457.715,324.308L458.438,325.469L459.16,327.115L459.883,328.85L460.605,330.242L461.328,331.646L462.051,333.429L462.773,334.814L463.496,336.603L464.219,338.335L464.941,339.786L465.664,341.369L466.387,343.455L467.109,344.492L467.832,346.299L468.555,347.874L469.277,350"/><path fill="none" stroke="rgb(69, 105, 238)" stroke-width="1.5" d="M100,53.285L100.723,51.712L101.445,50.288L102.168,49.021L102.891,47.991L103.613,46.865L104.336,45.772L105.059,44.798L105.781,43.802L106.504,42.894L107.227,41.908L107.949,41.102L108.672,40.23L109.395,39.382L110.117,38.506L110.84,37.682L111.563,36.928L112.285,36.134L113.008,35.286L113.73,34.499L114.453,33.657L115.176,32.744L115.898,31.851L116.621,30.986L117.344,30.07L118.066,29.105L118.789,28.091L119.512,27.001L120.234,25.907L120.957,24.62L121.68,23.29L122.402,23.322L123.125,24.769L123.848,26.067L124.57,27.261L125.293,28.363L126.016,29.414L126.738,30.462L127.461,31.443L128.184,32.282L128.906,33.075L129.629,33.949L130.352,34.807L131.074,35.431L131.797,36.161L132.52,36.969L133.242,37.573L133.965,38.169L134.688,38.799L135.41,39.431L136.133,40.096L136.855,40.645L137.578,41.205L138.301,41.72L139.023,42.287L139.746,42.833L140.469,43.378L141.191,43.844L141.914,44.337L142.637,44.814L143.359,45.29L144.082,45.791L144.805,46.187L145.527,46.643L146.25,47.094L146.973,47.554L147.695,48.033L148.418,48.38L149.141,48.772L149.863,49.278L150.586,49.631L151.309,50.101L152.031,50.446L152.754,50.887L153.477,51.3L154.199,51.653L154.922,52.01L155.645,52.4L156.367,52.804L157.09,53.201L157.813,53.586L158.535,53.975L159.258,54.276L159.98,54.636L160.703,55.067L161.426,55.38L162.148,55.757L162.871,56.143L163.594,56.52L164.316,56.9L165.039,57.24L165.762,57.534L166.484,57.9L167.207,58.23L167.93,58.612L168.652,59.013L169.375,59.295L170.098,59.678L170.82,60.047L171.543,60.419L172.266,60.754L172.988,61.098L173.711,61.488L174.434,61.751L175.156,62.082L175.879,62.442L176.602,62.818L177.324,63.139L178.047,63.471L178.77,63.907L179.492,64.237L180.215,64.611L180.938,64.909L181.66,65.232L182.383,65.689L183.105,65.975L183.828,66.265L184.551,66.658L185.273,67.076L185.996,67.421L186.719,67.746L187.441,68.036L188.164,68.349L188.887,68.764L189.609,69.126L190.332,69.49L191.055,69.825L191.777,70.097L192.5,70.594L193.223,70.807L193.945,71.167L194.668,71.55L195.391,71.984L196.113,72.316L196.836,72.746L197.559,72.982L198.281,73.406L199.004,73.737L199.727,74.146L200.449,74.495L201.172,74.849L201.895,75.227L202.617,75.493L203.34,75.879L204.063,76.242L204.785,76.628L205.508,76.988L206.23,77.419L206.953,77.762L207.676,78.136L208.398,78.442L209.121,78.77L209.844,79.234L210.566,79.524L211.289,79.857L212.012,80.152L212.734,80.679L213.457,81.011L214.18,81.36L214.902,81.817L215.625,82.081L216.348,82.607L217.07,82.802L217.793,83.274L218.516,83.584L219.238,84.107L219.961,84.387L220.684,84.825L221.406,85.102L222.129,85.578L222.852,85.973L223.574,86.326L224.297,86.846L225.02,87.16L225.742,87.397L226.465,87.91L227.188,88.24L227.91,88.599L228.633,88.962L229.355,89.381L230.078,89.715L230.801,90.091L231.523,90.694L232.246,90.998L232.969,91.294L233.691,91.771L234.414,92.136L235.137,92.621L235.859,92.945L236.582,93.378L237.305,93.694L238.027,94.201L238.75,94.461L239.473,95.042L240.195,95.33L240.918,95.629L241.641,96.183L242.363,96.685L243.086,97.098L243.809,97.437L244.531,97.645L245.254,98.171L245.977,98.677L246.699,99.015L247.422,99.599L248.145,99.763L248.867,100.381L249.59,100.567L250.313,101.103L251.035,101.438L251.758,101.903L252.48,102.311L253.203,102.866L253.926,103.3L254.648,103.646L255.371,104.099L256.094,104.52L256.816,104.975L257.539,105.416L258.262,105.848L258.984,106.17L259.707,106.575L260.43,107.133L261.152,107.516L261.875,107.96L262.598,108.291L263.32,108.818L264.043,109.162L264.766,109.554L265.488,110.12L266.211,110.717L266.934,111.175L267.656,111.478L268.379,112.066L269.102,112.492L269.824,112.874L270.547,113.372L271.27,113.763L271.992,114.379L272.715,114.83L273.438,115.275L274.16,115.701L274.883,116.091L275.605,116.572L276.328,117.066L277.051,117.531L277.773,118.043L278.496,118.458L279.219,119.073L279.941,119.491L280.664,119.747L281.387,120.369L282.109,120.831L282.832,121.316L283.555,121.782L284.277,122.358L285,122.854L285.723,123.27L286.445,123.767L287.168,124.347L287.891,124.894L288.613,125.417L289.336,125.81L290.059,126.3L290.781,126.81L291.504,127.385L292.227,127.74L292.949,128.428L293.672,128.954L294.395,129.329L295.117,129.927L295.84,130.556L296.563,130.974L297.285,131.49L298.008,132.023L298.73,132.502L299.453,133.005L300.176,133.634L300.898,134.073L301.621,134.654L302.344,135.328L303.066,135.67L303.789,136.214L304.512,136.615L305.234,137.337L305.957,137.863L306.68,138.448L307.402,138.954L308.125,139.682L308.848,140.109L309.57,140.661L310.293,141.129L311.016,141.545L311.738,142.348L312.461,142.858L313.184,143.403L313.906,144.083L314.629,144.744L315.352,145.043L316.074,145.958L316.797,146.367L317.52,146.943L318.242,147.626L318.965,148.102L319.688,148.716L320.41,149.174L321.133,149.929L321.855,150.455L322.578,151.076L323.301,151.622L324.023,152.249L324.746,152.825L325.469,153.401L326.191,154.045L326.914,154.54L327.637,155.222L328.359,155.892L329.082,156.494L329.805,157.06L330.527,157.918L331.25,158.53L331.973,158.878L332.695,159.521L333.418,160.452L334.141,160.886L334.863,161.471L335.586,162.199L336.309,162.652L337.031,163.418L337.754,164.158L338.477,164.778L339.199,165.419L339.922,166.06L340.645,166.673L341.367,167.431L342.09,167.966L342.813,168.848L343.535,169.456L344.258,169.955L344.98,170.72L345.703,171.239L346.426,172.233L347.148,172.701L347.871,173.373L348.594,174.074L349.316,174.878L350.039,175.429L350.762,175.954L351.484,176.711L352.207,177.503L352.93,178.374L353.652,178.989L354.375,179.615L355.098,180.33L355.82,181.031L356.543,181.613L357.266,182.803L357.988,183.06L358.711,183.873L359.434,184.726L360.156,185.409L360.879,186.102L361.602,186.806L362.324,187.73L363.047,188.508L363.77,188.992L364.492,189.674L365.215,190.556L365.938,191.425L366.66,192.087L367.383,192.855L368.105,193.427L368.828,194.262L369.551,195.156L370.273,195.869L370.996,196.808L371.719,197.284L372.441,198.065L373.164,198.892L373.887,199.724L374.609,200.368L375.332,201.366L376.055,202L376.777,202.699L377.5,203.743L378.223,204.374L378.945,205.419L379.668,206.171L380.391,207.132L381.113,207.457L381.836,208.391L382.559,209.19L383.281,210.164L384.004,211.062L384.727,211.879L385.449,212.671L386.172,213.354L386.895,214.258L387.617,214.991L388.34,215.85L389.063,217.034L389.785,217.859L390.508,218.397L391.23,219.368L391.953,220.102L392.676,221.042L393.398,222.192L394.121,222.757L394.844,223.752L395.566,224.532L396.289,225.378L397.012,226.424L397.734,227.167L398.457,228.238L399.18,229.072L399.902,229.959L400.625,230.658L401.348,231.572L402.07,232.777L402.793,233.582L403.516,234.708L404.238,235.504L404.961,236.482L405.684,237.257L406.406,238.458L407.129,239.178L407.852,240.236L408.574,241.074L409.297,242.1L410.02,242.862L410.742,243.957L411.465,245.109L412.188,245.911L412.91,246.9L413.633,247.865L414.355,248.836L415.078,249.874L415.801,251.019L416.523,251.831L417.246,252.756L417.969,253.78L418.691,254.846L419.414,256.062L420.137,256.918L420.859,257.81L421.582,258.689L422.305,259.956L423.027,261.057L423.75,262.389L424.473,263.19L425.195,264.252L425.918,265.41L426.641,266.382L427.363,267.395L428.086,268.592L428.809,269.628L429.531,270.703L430.254,271.965L430.977,272.994L431.699,274.071L432.422,275.215L433.145,276.334L433.867,277.837L434.59,278.804L435.313,279.641L436.035,280.812L436.758,282.187L437.48,283.217L438.203,284.308L438.926,285.749L439.648,287.06L440.371,288.069L441.094,289.153L441.816,290.726L442.539,291.514L443.262,292.689L443.984,293.686L444.707,295.121L445.43,296.634L446.152,298.032L446.875,298.751L447.598,300.069L448.32,300.931L449.043,302.304L449.766,303.78L450.488,305.366L451.211,306.439L451.934,307.935L452.656,308.981L453.379,310.28L454.102,311.871L454.824,313.088L455.547,314.214L456.27,315.771L456.992,317.17L457.715,318.329L458.438,319.831L459.16,321.065L459.883,322.663L460.605,323.993L461.328,325.299L462.051,326.746L462.773,328.268L463.496,329.684L464.219,331.206L464.941,332.5L465.664,333.954L466.387,335.191L467.109,336.98L467.832,338.612L468.555,339.984L469.277,341.371"/><path fill="none" stroke="rgb(38, 188, 225)" stroke-width="1.5" d="M100,53.285L100.723,51.797L101.445,50.466L102.168,49.179L102.891,47.956L103.613,46.855L104.336,45.886L105.059,44.832L105.781,43.822L106.504,42.842L107.227,41.976L107.949,41.041L108.672,40.205L109.395,39.311L110.117,38.463L110.84,37.672L111.563,36.812L112.285,35.972L113.008,35.174L113.73,34.417L114.453,33.497L115.176,32.672L115.898,31.745L116.621,30.885L117.344,29.89L118.066,28.946L118.789,27.885L119.512,26.817L120.234,25.709L120.957,24.473L121.68,23.143L122.402,22.984L123.125,24.37L123.848,25.704L124.57,26.9L125.293,28.026L126.016,29.094L126.738,30.014L127.461,30.953L128.184,31.834L128.906,32.694L129.629,33.584L130.352,34.256L131.074,35.098L131.797,35.787L132.52,36.4L133.242,37.065L133.965,37.708L134.688,38.408L135.41,38.942L136.133,39.552L136.855,40.215L137.578,40.665L138.301,41.248L139.023,41.77L139.746,42.238L140.469,42.811L141.191,43.366L141.914,43.755L142.637,44.225L143.359,44.695L144.082,45.118L144.805,45.568L145.527,46.088L146.25,46.549L146.973,46.945L147.695,47.388L148.418,47.831L149.141,48.224L149.863,48.554L150.586,49L151.309,49.441L152.031,49.874L152.754,50.208L153.477,50.618L154.199,50.851L154.922,51.313L155.645,51.718L156.367,52.064L157.09,52.466L157.813,52.816L158.535,53.294L159.258,53.522L159.98,53.932L160.703,54.248L161.426,54.681L162.148,54.984L162.871,55.454L163.594,55.724L164.316,56.061L165.039,56.489L165.762,56.794L166.484,57.205L167.207,57.394L167.93,57.89L168.652,58.206L169.375,58.523L170.098,58.943L170.82,59.186L171.543,59.599L172.266,59.885L172.988,60.248L173.711,60.581L174.434,60.947L175.156,61.297L175.879,61.63L176.602,61.927L177.324,62.314L178.047,62.587L178.77,62.984L179.492,63.321L180.215,63.668L180.938,64.053L181.66,64.361L182.383,64.685L183.105,65.013L183.828,65.353L184.551,65.579L185.273,66.057L185.996,66.489L186.719,66.779L187.441,67.05L188.164,67.447L188.887,67.831L189.609,68.128L190.332,68.465L191.055,68.825L191.777,69.166L192.5,69.495L193.223,69.853L193.945,70.2L194.668,70.554L195.391,70.871L196.113,71.243L196.836,71.621L197.559,71.927L198.281,72.257L199.004,72.71L199.727,73.014L200.449,73.35L201.172,73.756L201.895,74.049L202.617,74.405L203.34,74.842L204.063,75.186L204.785,75.494L205.508,75.831L206.23,76.22L206.953,76.59L207.676,77.033L208.398,77.403L209.121,77.693L209.844,78.14L210.566,78.508L211.289,78.847L212.012,79.157L212.734,79.439L213.457,79.936L214.18,80.206L214.902,80.694L215.625,81.042L216.348,81.429L217.07,81.814L217.793,82.241L218.516,82.582L219.238,82.876L219.961,83.202L220.684,83.644L221.406,84.045L222.129,84.392L222.852,84.851L223.574,85.312L224.297,85.567L225.02,86.05L225.742,86.397L226.465,86.723L227.188,87.117L227.91,87.502L228.633,87.942L229.355,88.301L230.078,88.726L230.801,89.137L231.523,89.435L232.246,89.841L232.969,90.209L233.691,90.582L234.414,91.103L235.137,91.578L235.859,91.899L236.582,92.262L237.305,92.761L238.027,93.12L238.75,93.415L239.473,93.917L240.195,94.287L240.918,94.688L241.641,95.184L242.363,95.555L243.086,95.834L243.809,96.34L244.531,96.718L245.254,97.076L245.977,97.564L246.699,97.962L247.422,98.48L248.145,98.901L248.867,99.131L249.59,99.639L250.313,100.232L251.035,100.521L251.758,101.016L252.48,101.484L253.203,101.856L253.926,102.335L254.648,102.612L255.371,103.036L256.094,103.556L256.816,104.011L257.539,104.47L258.262,104.961L258.984,105.218L259.707,105.774L260.43,106.099L261.152,106.526L261.875,106.909L262.598,107.556L263.32,107.911L264.043,108.393L264.766,108.753L265.488,109.376L266.211,109.781L266.934,110.114L267.656,110.578L268.379,110.945L269.102,111.529L269.824,112.097L270.547,112.355L271.27,112.87L271.992,113.456L272.715,113.707L273.438,114.269L274.16,114.76L274.883,115.202L275.605,115.651L276.328,116.163L277.051,116.602L277.773,117.048L278.496,117.672L279.219,117.97L279.941,118.461L280.664,119.064L281.387,119.475L282.109,120.016L282.832,120.321L283.555,120.886L284.277,121.468L285,122.005L285.723,122.385L286.445,122.823L287.168,123.357L287.891,123.799L288.613,124.293L289.336,124.888L290.059,125.227L290.781,125.799L291.504,126.354L292.227,126.835L292.949,127.491L293.672,127.812L294.395,128.391L295.117,128.797L295.84,129.466L296.563,129.897L297.285,130.493L298.008,131.008L298.73,131.376L299.453,131.949L300.176,132.634L300.898,132.886L301.621,133.515L302.344,134.125L303.066,134.749L303.789,135.206L304.512,135.728L305.234,136.426L305.957,136.921L306.68,137.387L307.402,137.923L308.125,138.499L308.848,139.067L309.57,139.496L310.293,140.201L311.016,140.719L311.738,141.326L312.461,141.739L313.184,142.352L313.906,142.836L314.629,143.362L315.352,144.102L316.074,144.687L316.797,145.129L317.52,145.807L318.242,146.366L318.965,146.902L319.688,147.551L320.41,147.897L321.133,148.603L321.855,149.113L322.578,149.796L323.301,150.338L324.023,150.813L324.746,151.55L325.469,152.171L326.191,152.6L326.914,153.203L327.637,154.006L328.359,154.591L329.082,155.153L329.805,155.717L330.527,156.335L331.25,156.929L331.973,157.609L332.695,158.178L333.418,158.746L334.141,159.382L334.863,159.9L335.586,160.762L336.309,161.249L337.031,162.01L337.754,162.584L338.477,163.191L339.199,163.837L339.922,164.287L340.645,164.995L341.367,165.87L342.09,166.286L342.813,167.079L343.535,167.678L344.258,168.471L344.98,169.018L345.703,169.704L346.426,170.233L347.148,171.004L347.871,171.566L348.594,172.441L349.316,172.88L350.039,173.727L350.762,174.361L351.484,175.189L352.207,175.612L352.93,176.446L353.652,176.845L354.375,177.714L355.098,178.481L355.82,179.01L356.543,179.687L357.266,180.261L357.988,181.315L358.711,181.956L359.434,182.572L360.156,183.24L360.879,184.004L361.602,184.712L362.324,185.362L363.047,185.904L363.77,186.87L364.492,187.543L365.215,188.53L365.938,189.019L366.66,189.642L367.383,190.631L368.105,191.264L368.828,192.048L369.551,192.729L370.273,193.311L370.996,194.174L371.719,194.721L372.441,195.677L373.164,196.295L373.887,197.173L374.609,198.011L375.332,198.632L376.055,199.377L376.777,200.281L377.5,201.061L378.223,201.802L378.945,202.774L379.668,203.341L380.391,204.104L381.113,204.851L381.836,205.619L382.559,206.245L383.281,207.324L384.004,207.951L384.727,208.659L385.449,209.766L386.172,210.374L386.895,210.982L387.617,211.884L388.34,212.799L389.063,213.549L389.785,214.262L390.508,215.315L391.23,216.265L391.953,216.939L392.676,217.797L393.398,218.474L394.121,219.587L394.844,220.179L395.566,221.089L396.289,221.804L397.012,222.516L397.734,223.663L398.457,224.528L399.18,225.337L399.902,226.098L400.625,227.098L401.348,227.955L402.07,228.743L402.793,229.789L403.516,230.707L404.238,231.527L404.961,232.232L405.684,233.333L406.406,234.155L407.129,234.938L407.852,235.721L408.574,236.709L409.297,237.763L410.02,238.54L410.742,239.725L411.465,240.383L412.188,241.271L412.91,242.29L413.633,243.357L414.355,244.472L415.078,245.086L415.801,245.828L416.523,246.743L417.246,247.938L417.969,248.911L418.691,249.751L419.414,250.568L420.137,251.837L420.859,252.58L421.582,253.416L422.305,254.701L423.027,255.725L423.75,256.609L424.473,257.454L425.195,258.272L425.918,259.6L426.641,260.585L427.363,261.359L428.086,262.638L428.809,263.461L429.531,264.213L430.254,265.299L430.977,266.586L431.699,267.634L432.422,268.758L433.145,269.53L433.867,270.314L434.59,271.782L435.313,272.813L436.035,273.437L436.758,275.145L437.48,276.078L438.203,277.145L438.926,278.263L439.648,279.38L440.371,280.346L441.094,281.6L441.816,282.544L442.539,283.623L443.262,284.748L443.984,285.574L444.707,286.935L445.43,288.076L446.152,289.176L446.875,290.12L447.598,291.157L448.32,292.439L449.043,293.854L449.766,294.672L450.488,296.036L451.211,297.112L451.934,298.403L452.656,299.506L453.379,300.577L454.102,301.923L454.824,302.727L455.547,304.429L456.27,305.35L456.992,306.607L457.715,307.707L458.438,308.96L459.16,310.165L459.883,311.503L460.605,312.728L461.328,313.557L462.051,315.085L462.773,316.4L463.496,317.412L464.219,318.761L464.941,320.167L465.664,321.057L466.387,322.621L467.109,323.942L467.832,324.652L468.555,326.464L469.277,327.7"/><path fill="none" stroke="rgb(63, 243, 147)" stroke-width="1.5" d="M100,53.225L100.723,51.708L101.445,50.355L102.168,49.071L102.891,47.872L103.613,46.622L104.336,45.679L105.059,44.56L105.781,43.638L106.504,42.692L107.227,41.668L107.949,40.809L108.672,39.962L109.395,39.127L110.117,38.18L110.84,37.371L111.563,36.524L112.285,35.625L113.008,34.836L113.73,34.051L114.453,33.148L115.176,32.252L115.898,31.35L116.621,30.412L117.344,29.432L118.066,28.533L118.789,27.457L119.512,26.352L120.234,25.278L120.957,23.915L121.68,22.618L122.402,22.657L123.125,24.048L123.848,25.315L124.57,26.468L125.293,27.595L126.016,28.569L126.738,29.608L127.461,30.544L128.184,31.419L128.906,32.215L129.629,33.065L130.352,33.827L131.074,34.616L131.797,35.166L132.52,35.903L133.242,36.523L133.965,37.179L134.688,37.851L135.41,38.359L136.133,38.869L136.855,39.626L137.578,39.973L138.301,40.577L139.023,41.112L139.746,41.605L140.469,41.989L141.191,42.6L141.914,43.033L142.637,43.533L143.359,43.977L144.082,44.432L144.805,44.774L145.527,45.304L146.25,45.682L146.973,46.204L147.695,46.492L148.418,46.995L149.141,47.374L149.863,47.721L150.586,48.102L151.309,48.505L152.031,48.935L152.754,49.323L153.477,49.544L154.199,49.98L154.922,50.347L155.645,50.736L156.367,51.109L157.09,51.416L157.813,51.746L158.535,52.212L159.258,52.547L159.98,52.916L160.703,53.229L161.426,53.57L162.148,53.871L162.871,54.204L163.594,54.571L164.316,54.978L165.039,55.342L165.762,55.61L166.484,55.952L167.207,56.229L167.93,56.571L168.652,56.927L169.375,57.272L170.098,57.589L170.82,57.916L171.543,58.26L172.266,58.509L172.988,58.92L173.711,59.257L174.434,59.612L175.156,59.939L175.879,60.203L176.602,60.593L177.324,60.905L178.047,61.274L178.77,61.655L179.492,61.926L180.215,62.326L180.938,62.506L181.66,62.887L182.383,63.121L183.105,63.618L183.828,63.865L184.551,64.174L185.273,64.581L185.996,64.879L186.719,65.244L187.441,65.515L188.164,65.965L188.887,66.266L189.609,66.573L190.332,66.808L191.055,67.223L191.777,67.616L192.5,67.884L193.223,68.206L193.945,68.509L194.668,68.923L195.391,69.261L196.113,69.622L196.836,70.037L197.559,70.383L198.281,70.644L199.004,70.945L199.727,71.305L200.449,71.643L201.172,72.048L201.895,72.443L202.617,72.741L203.34,73.115L204.063,73.421L204.785,73.852L205.508,74.196L206.23,74.487L206.953,74.971L207.676,75.122L208.398,75.546L209.121,76.026L209.844,76.234L210.566,76.713L211.289,77.039L212.012,77.339L212.734,77.81L213.457,78.097L214.18,78.575L214.902,78.722L215.625,79.282L216.348,79.572L217.07,79.856L217.793,80.352L218.516,80.829L219.238,81.195L219.961,81.553L220.684,81.893L221.406,82.222L222.129,82.74L222.852,82.951L223.574,83.373L224.297,83.762L225.02,84.28L225.742,84.664L226.465,84.972L227.188,85.313L227.91,85.762L228.633,86.25L229.355,86.587L230.078,86.953L230.801,87.349L231.523,87.747L232.246,88.159L232.969,88.579L233.691,88.972L234.414,89.442L235.137,89.752L235.859,90.164L236.582,90.516L237.305,91.046L238.027,91.359L238.75,91.853L239.473,92.043L240.195,92.626L240.918,92.941L241.641,93.452L242.363,94.017L243.086,94.254L243.809,94.641L244.531,95.095L245.254,95.549L245.977,96.007L246.699,96.449L247.422,96.709L248.145,97.219L248.867,97.715L249.59,98.091L250.313,98.426L251.035,98.943L251.758,99.433L252.48,99.758L253.203,100.21L253.926,100.61L254.648,101.049L255.371,101.725L256.094,102.064L256.816,102.324L257.539,102.897L258.262,103.406L258.984,103.737L259.707,104.171L260.43,104.722L261.152,105.049L261.875,105.504L262.598,105.999L263.32,106.439L264.043,106.958L264.766,107.275L265.488,107.817L266.211,108.281L266.934,108.652L267.656,109.276L268.379,109.533L269.102,110.152L269.824,110.523L270.547,111.072L271.27,111.45L271.992,112.001L272.715,112.455L273.438,112.923L274.16,113.257L274.883,113.799L275.605,114.341L276.328,114.693L277.051,115.243L277.773,115.695L278.496,116.347L279.219,116.729L279.941,117.265L280.664,117.647L281.387,117.98L282.109,118.629L282.832,119.182L283.555,119.458L284.277,120.094L285,120.543L285.723,121.035L286.445,121.5L287.168,121.988L287.891,122.514L288.613,123.047L289.336,123.594L290.059,123.912L290.781,124.497L291.504,125.018L292.227,125.467L292.949,126.101L293.672,126.519L294.395,127.005L295.117,127.447L295.84,128.061L296.563,128.52L297.285,129.257L298.008,129.524L298.73,130.162L299.453,130.499L300.176,131.216L300.898,131.928L301.621,132.191L302.344,132.935L303.066,133.11L303.789,133.861L304.512,134.311L305.234,134.974L305.957,135.202L306.68,135.885L307.402,136.382L308.125,137.053L308.848,137.652L309.57,138.117L310.293,138.53L311.016,139.06L311.738,139.67L312.461,140.147L313.184,140.956L313.906,141.539L314.629,141.858L315.352,142.402L316.074,142.948L316.797,143.708L317.52,144.068L318.242,144.833L318.965,145.349L319.688,145.808L320.41,146.239L321.133,146.993L321.855,147.403L322.578,148.158L323.301,148.715L324.023,149.234L324.746,149.855L325.469,150.389L326.191,150.85L326.914,151.683L327.637,152.231L328.359,152.783L329.082,153.311L329.805,153.932L330.527,154.449L331.25,155.254L331.973,155.774L332.695,156.233L333.418,156.875L334.141,157.444L334.863,158.063L335.586,158.527L336.309,159.138L337.031,160.047L337.754,160.445L338.477,161.186L339.199,161.731L339.922,162.344L340.645,162.899L341.367,163.68L342.09,164.369L342.813,165.032L343.535,165.52L344.258,166.204L344.98,166.655L345.703,167.348L346.426,167.962L347.148,168.612L347.871,169.377L348.594,169.983L349.316,170.616L350.039,171.443L350.762,171.851L351.484,172.519L352.207,173.172L352.93,173.848L353.652,174.817L354.375,175.308L355.098,175.877L355.82,176.68L356.543,177.028L357.266,177.79L357.988,178.539L358.711,179.348L359.434,180.037L360.156,180.642L360.879,181.175L361.602,181.978L362.324,182.769L363.047,183.205L363.77,183.786L364.492,184.371L365.215,185.234L365.938,185.938L366.66,186.482L367.383,187.531L368.105,188.064L368.828,188.794L369.551,189.626L370.273,190.344L370.996,190.997L371.719,191.777L372.441,192.262L373.164,193.157L373.887,193.941L374.609,194.388L375.332,195.259L376.055,195.998L376.777,196.668L377.5,197.185L378.223,198.008L378.945,198.979L379.668,199.682L380.391,200.572L381.113,201.059L381.836,201.983L382.559,202.805L383.281,203.291L384.004,204.065L384.727,204.819L385.449,205.934L386.172,206.353L386.895,206.955L387.617,207.799L388.34,208.672L389.063,209.256L389.785,210.209L390.508,210.969L391.23,211.502L391.953,212.663L392.676,213.415L393.398,214.04L394.121,214.939L394.844,215.837L395.566,216.577L396.289,217.447L397.012,218.035L397.734,219.058L398.457,219.832L399.18,220.418L399.902,221.516L400.625,222.29L401.348,223.131L402.07,223.645L402.793,224.539L403.516,225.652L404.238,226.15L404.961,227.074L405.684,228.138L406.406,228.822L407.129,229.673L407.852,230.292L408.574,231.426L409.297,232.226L410.02,232.881L410.742,234.012L411.465,234.648L412.188,235.496L412.91,236.051L413.633,237.284L414.355,238.204L415.078,238.749L415.801,240.021L416.523,240.831L417.246,241.613L417.969,242.435L418.691,243.447L419.414,244.098L420.137,245.061L420.859,245.982L421.582,247.056L422.305,248.106L423.027,248.888L423.75,249.57L424.473,250.967L425.195,251.524L425.918,252.576L426.641,253.505L427.363,254.354L428.086,255.346L428.809,256.349L429.531,257.016L430.254,258.165L430.977,259.057L431.699,259.995L432.422,260.935L433.145,262.072L433.867,262.816L434.59,263.673L435.313,264.551L436.035,265.789L436.758,266.832L437.48,267.857L438.203,268.396L438.926,269.552L439.648,270.621L440.371,271.687L441.094,272.631L441.816,273.927L442.539,274.582L443.262,275.777L443.984,276.474L444.707,277.815L445.43,278.782L446.152,279.693L446.875,280.764L447.598,281.653L448.32,282.492L449.043,283.645L449.766,284.769L450.488,285.622L451.211,286.759L451.934,287.933L452.656,288.948L453.379,290.167L454.102,291.225L454.824,292.184L455.547,293.428L456.27,294.188L456.992,295.502L457.715,296.497L458.438,297.64L459.16,298.722L459.883,299.957L460.605,300.714L461.328,301.771L462.051,302.894L462.773,304.11L463.496,304.958L464.219,306.043L464.941,307.191L465.664,308.534L466.387,309.349L467.109,310.6L467.832,311.794L468.555,313.043L469.277,313.834"/><path fill="none" stroke="rgb(149, 251, 81)" stroke-width="1.5" d="M100,53.072L100.723,51.669L101.445,50.322L102.168,48.999L102.891,47.732L103.613,46.663L104.336,45.526L105.059,44.52L105.781,43.498L106.504,42.49L107.227,41.618L107.949,40.67L108.672,39.752L109.395,38.824L110.117,37.945L110.84,37.087L111.563,36.266L112.285,35.403L113.008,34.502L113.73,33.64L114.453,32.765L115.176,31.879L115.898,30.874L116.621,30.033L117.344,29.003L118.066,28.068L118.789,26.959L119.512,25.864L120.234,24.59L120.957,23.321L121.68,21.955L122.402,22.123L123.125,23.366L123.848,24.676L124.57,25.812L125.293,26.96L126.016,27.89L126.738,28.83L127.461,29.765L128.184,30.71L128.906,31.435L129.629,32.211L130.352,32.933L131.074,33.6L131.797,34.277L132.52,34.998L133.242,35.576L133.965,36.15L134.688,36.829L135.41,37.37L136.133,37.954L136.855,38.465L137.578,39.007L138.301,39.453L139.023,39.971L139.746,40.475L140.469,40.875L141.191,41.382L141.914,41.769L142.637,42.296L143.359,42.677L144.082,43.162L144.805,43.544L145.527,43.952L146.25,44.366L146.973,44.694L147.695,45.247L148.418,45.548L149.141,45.994L149.863,46.267L150.586,46.627L151.309,47.001L152.031,47.239L152.754,47.669L153.477,48.128L154.199,48.458L154.922,48.811L155.645,49.056L156.367,49.462L157.09,49.737L157.813,50.095L158.535,50.453L159.258,50.799L159.98,50.964L160.703,51.393L161.426,51.763L162.148,52.037L162.871,52.365L163.594,52.774L164.316,53.02L165.039,53.385L165.762,53.587L166.484,53.954L167.207,54.28L167.93,54.608L168.652,54.829L169.375,55.317L170.098,55.583L170.82,55.85L171.543,56.024L172.266,56.473L172.988,56.691L173.711,57.075L174.434,57.382L175.156,57.59L175.879,58.025L176.602,58.203L177.324,58.602L178.047,58.962L178.77,59.304L179.492,59.53L180.215,59.895L180.938,60.235L181.66,60.403L182.383,60.852L183.105,60.989L183.828,61.318L184.551,61.811L185.273,62.046L185.996,62.42L186.719,62.71L187.441,62.955L188.164,63.348L188.887,63.647L189.609,64.043L190.332,64.204L191.055,64.655L191.777,64.993L192.5,65.253L193.223,65.617L193.945,65.817L194.668,66.274L195.391,66.596L196.113,67.018L196.836,67.327L197.559,67.542L198.281,67.947L199.004,68.24L199.727,68.502L200.449,68.94L201.172,69.239L201.895,69.541L202.617,70.06L203.34,70.292L204.063,70.549L204.785,70.931L205.508,71.362L206.23,71.58L206.953,71.947L207.676,72.371L208.398,72.718L209.121,73.124L209.844,73.493L210.566,73.85L211.289,74.166L212.012,74.641L212.734,74.903L213.457,75.335L214.18,75.73L214.902,76.012L215.625,76.418L216.348,76.651L217.07,77.141L217.793,77.496L218.516,77.911L219.238,78.251L219.961,78.714L220.684,79.084L221.406,79.334L222.129,79.862L222.852,80.221L223.574,80.557L224.297,81.002L225.02,81.313L225.742,81.802L226.465,82.149L227.188,82.662L227.91,82.934L228.633,83.425L229.355,83.841L230.078,84.123L230.801,84.56L231.523,84.931L232.246,85.299L232.969,85.798L233.691,86.178L234.414,86.46L235.137,87.058L235.859,87.376L236.582,87.971L237.305,88.314L238.027,88.768L238.75,89.019L239.473,89.497L240.195,89.884L240.918,90.312L241.641,90.822L242.363,91.197L243.086,91.626L243.809,92.115L244.531,92.541L245.254,92.997L245.977,93.371L246.699,93.961L247.422,94.292L248.145,94.65L248.867,95.215L249.59,95.557L250.313,96.067L251.035,96.379L251.758,96.929L252.48,97.345L253.203,97.832L253.926,98.315L254.648,98.687L255.371,99.249L256.094,99.532L256.816,99.978L257.539,100.487L258.262,100.953L258.984,101.423L259.707,101.767L260.43,102.268L261.152,102.791L261.875,103.287L262.598,103.593L263.32,104.143L264.043,104.508L264.766,105.051L265.488,105.516L266.211,106.063L266.934,106.563L267.656,106.974L268.379,107.473L269.102,107.97L269.824,108.466L270.547,108.776L271.27,109.341L271.992,109.896L272.715,110.391L273.438,110.89L274.16,111.33L274.883,111.604L275.605,112.284L276.328,112.677L277.051,113.248L277.773,113.702L278.496,114.239L279.219,114.743L279.941,115.146L280.664,115.657L281.387,116.128L282.109,116.595L282.832,117.201L283.555,117.865L284.277,118.245L285,118.642L285.723,119.13L286.445,119.671L287.168,120.016L287.891,120.722L288.613,121.099L289.336,121.457L290.059,122.274L290.781,122.756L291.504,123.27L292.227,123.695L292.949,124.267L293.672,124.606L294.395,125.213L295.117,125.709L295.84,126.226L296.563,126.821L297.285,127.332L298.008,127.711L298.73,128.24L299.453,128.82L300.176,129.376L300.898,129.858L301.621,130.445L302.344,130.876L303.066,131.482L303.789,132.074L304.512,132.62L305.234,133.111L305.957,133.597L306.68,134.1L307.402,134.709L308.125,135.143L308.848,135.669L309.57,136.282L310.293,136.897L311.016,137.286L311.738,138.004L312.461,138.511L313.184,139.148L313.906,139.531L314.629,140.098L315.352,140.646L316.074,141.201L316.797,141.69L317.52,142.229L318.242,142.741L318.965,143.452L319.688,144.143L320.41,144.421L321.133,145.021L321.855,145.591L322.578,146.129L323.301,146.773L324.023,147.503L324.746,147.933L325.469,148.749L326.191,149.028L326.914,149.61L327.637,150.299L328.359,150.817L329.082,151.255L329.805,151.944L330.527,152.542L331.25,152.902L331.973,153.781L332.695,154.323L333.418,154.876L334.141,155.352L334.863,156.202L335.586,156.665L336.309,157.398L337.031,157.843L337.754,158.427L338.477,158.905L339.199,159.687L339.922,160.263L340.645,160.984L341.367,161.509L342.09,161.918L342.813,162.643L343.535,163.068L344.258,163.977L344.98,164.629L345.703,165.225L346.426,165.595L347.148,166.445L347.871,167.058L348.594,167.654L349.316,168.33L350.039,168.757L350.762,169.557L351.484,170.059L352.207,170.787L352.93,171.408L353.652,172.126L354.375,172.647L355.098,173.374L355.82,173.979L356.543,174.668L357.266,175.145L357.988,175.984L358.711,176.739L359.434,177.287L360.156,177.737L360.879,178.471L361.602,179.259L362.324,179.992L363.047,180.312L363.77,180.968L364.492,181.737L365.215,182.443L365.938,182.909L366.66,184.003L367.383,184.225L368.105,185.102L368.828,185.776L369.551,186.451L370.273,187.478L370.996,187.795L371.719,188.311L372.441,189.159L373.164,189.951L373.887,190.645L374.609,191.133L375.332,191.993L376.055,192.709L376.777,193.557L377.5,194.051L378.223,195.096L378.945,195.773L379.668,196.529L380.391,196.906L381.113,197.662L381.836,198.463L382.559,199.384L383.281,199.789L384.004,200.491L384.727,201.276L385.449,202.225L386.172,202.612L386.895,203.386L387.617,204.06L388.34,204.897L389.063,205.668L389.785,206.427L390.508,206.942L391.23,208.102L391.953,208.592L392.676,209.3L393.398,210.197L394.121,210.813L394.844,211.627L395.566,212.384L396.289,213.173L397.012,213.825L397.734,214.745L398.457,215.603L399.18,216.252L399.902,217.243L400.625,218.054L401.348,218.603L402.07,219.354L402.793,220.154L403.516,220.745L404.238,221.814L404.961,222.468L405.684,223.362L406.406,224.102L407.129,224.974L407.852,225.723L408.574,226.608L409.297,227.308L410.02,228.371L410.742,228.793L411.465,230.04L412.188,230.734L412.91,231.452L413.633,232.387L414.355,233.12L415.078,234.053L415.801,234.666L416.523,235.576L417.246,236.504L417.969,237.207L418.691,238.161L419.414,239.211L420.137,239.838L420.859,241.012L421.582,241.714L422.305,242.464L423.027,243.333L423.75,244.443L424.473,245.228L425.195,245.862L425.918,246.612L426.641,247.845L427.363,248.873L428.086,249.501L428.809,250.141L429.531,251.333L430.254,252.104L430.977,252.902L431.699,253.743L432.422,255.224L433.145,255.826L433.867,256.545L434.59,257.359L435.313,258.298L436.035,259.174L436.758,260.457L437.48,261.122L438.203,261.939L438.926,263.188L439.648,263.911L440.371,265.07L441.094,265.75L441.816,266.72L442.539,267.546L443.262,268.881L443.984,269.499L444.707,270.8L445.43,271.586L446.152,272.364L446.875,273.286L447.598,274.226L448.32,275.282L449.043,276.308L449.766,277.269L450.488,277.968L451.211,279.134L451.934,280.127L452.656,280.911L453.379,281.962L454.102,282.751L454.824,283.711L455.547,284.596L456.27,285.665L456.992,287.018L457.715,287.756L458.438,288.703L459.16,289.903L459.883,290.494L460.605,291.549L461.328,292.372L462.051,293.602L462.773,294.538L463.496,295.164L464.219,296.293L464.941,297.33L465.664,298.484L466.387,299.24L467.109,300.129L467.832,301.127L468.555,302.212L469.277,303.255"/><path fill="none" stroke="rgb(236, 209, 46)" stroke-width="1.5" d="M100,53.105L100.723,51.606L101.445,50.223L102.168,49.044L102.891,47.73L103.613,46.55L104.336,45.468L105.059,44.378L105.781,43.426L106.504,42.411L107.227,41.401L107.949,40.548L108.672,39.527L109.395,38.661L110.117,37.81L110.84,36.958L111.563,36.061L112.285,35.154L113.008,34.242L113.73,33.39L114.453,32.508L115.176,31.475L115.898,30.626L116.621,29.675L117.344,28.705L118.066,27.71L118.789,26.579L119.512,25.357L120.234,24.268L120.957,22.74L121.68,21.418L122.402,21.418L123.125,22.795L123.848,23.975L124.57,25.134L125.293,26.122L126.016,27.049L126.738,28.023L127.461,28.926L128.184,29.725L128.906,30.525L129.629,31.308L130.352,31.968L131.074,32.565L131.797,33.266L132.52,33.838L133.242,34.426L133.965,34.96L134.688,35.582L135.41,36.077L136.133,36.657L136.855,37.148L137.578,37.663L138.301,38.086L139.023,38.578L139.746,38.905L140.469,39.387L141.191,39.879L141.914,40.251L142.637,40.66L143.359,41.009L144.082,41.446L144.805,41.774L145.527,42.138L146.25,42.357L146.973,42.95L147.695,43.196L148.418,43.613L149.141,43.838L149.863,44.251L150.586,44.528L151.309,44.883L152.031,45.139L152.754,45.582L153.477,45.792L154.199,46.176L154.922,46.485L155.645,46.648L156.367,47.076L157.09,47.286L157.813,47.658L158.535,47.907L159.258,48.272L159.98,48.522L160.703,48.792L161.426,49.034L162.148,49.354L162.871,49.571L163.594,49.9L164.316,50.207L165.039,50.471L165.762,50.684L166.484,51.036L167.207,51.303L167.93,51.478L168.652,51.688L169.375,52L170.098,52.282L170.82,52.59L171.543,52.904L172.266,53.012L172.988,53.396L173.711,53.592L174.434,53.783L175.156,54.155L175.879,54.418L176.602,54.737L177.324,55.054L178.047,55.336L178.77,55.625L179.492,55.851L180.215,56.103L180.938,56.464L181.66,56.697L182.383,56.998L183.105,57.054L183.828,57.533L184.551,57.768L185.273,58.136L185.996,58.4L186.719,58.574L187.441,58.97L188.164,59.18L188.887,59.55L189.609,59.742L190.332,60.099L191.055,60.348L191.777,60.74L192.5,61.065L193.223,61.229L193.945,61.527L194.668,61.916L195.391,62.209L196.113,62.532L196.836,62.833L197.559,63.162L198.281,63.478L199.004,63.642L199.727,64.124L200.449,64.57L201.172,64.819L201.895,65.108L202.617,65.423L203.34,65.724L204.063,65.929L204.785,66.406L205.508,66.657L206.23,67.181L206.953,67.418L207.676,67.722L208.398,68.048L209.121,68.459L209.844,68.798L210.566,69.088L211.289,69.545L212.012,69.725L212.734,70.204L213.457,70.484L214.18,70.876L214.902,71.187L215.625,71.529L216.348,72.019L217.07,72.482L217.793,72.684L218.516,73.016L219.238,73.526L219.961,73.91L220.684,74.192L221.406,74.722L222.129,75.124L222.852,75.351L223.574,75.837L224.297,76.214L225.02,76.558L225.742,77.002L226.465,77.413L227.188,77.853L227.91,78.238L228.633,78.519L229.355,79.02L230.078,79.376L230.801,79.773L231.523,80.306L232.246,80.622L232.969,81.076L233.691,81.512L234.414,81.95L235.137,82.365L235.859,82.817L236.582,83.131L237.305,83.663L238.027,84.076L238.75,84.491L239.473,84.908L240.195,85.309L240.918,85.852L241.641,86.178L242.363,86.747L243.086,87.195L243.809,87.608L244.531,88.006L245.254,88.486L245.977,88.964L246.699,89.402L247.422,89.976L248.145,90.323L248.867,90.823L249.59,91.266L250.313,91.686L251.035,92.211L251.758,92.658L252.48,93.164L253.203,93.62L253.926,93.979L254.648,94.588L255.371,94.945L256.094,95.517L256.816,95.921L257.539,96.475L258.262,96.931L258.984,97.365L259.707,97.846L260.43,98.362L261.152,98.904L261.875,99.315L262.598,99.82L263.32,100.354L264.043,100.824L264.766,101.324L265.488,101.967L266.211,102.304L266.934,102.868L267.656,103.367L268.379,103.862L269.102,104.378L269.824,104.896L270.547,105.342L271.27,105.892L271.992,106.384L272.715,106.888L273.438,107.42L274.16,107.843L274.883,108.505L275.605,108.926L276.328,109.295L277.051,110.09L277.773,110.547L278.496,110.984L279.219,111.524L279.941,111.936L280.664,112.57L281.387,113.014L282.109,113.709L282.832,114.119L283.555,114.604L284.277,115.189L285,115.751L285.723,116.223L286.445,116.793L287.168,117.393L287.891,117.864L288.613,118.434L289.336,118.87L290.059,119.564L290.781,120.031L291.504,120.636L292.227,120.97L292.949,121.649L293.672,122.149L294.395,122.825L295.117,123.3L295.84,123.863L296.563,124.337L297.285,124.954L298.008,125.611L298.73,126.08L299.453,126.471L300.176,127.037L300.898,127.733L301.621,128.158L302.344,128.853L303.066,129.249L303.789,129.933L304.512,130.423L305.234,131.026L305.957,131.62L306.68,132.169L307.402,132.622L308.125,133.27L308.848,133.778L309.57,134.492L310.293,134.913L311.016,135.406L311.738,136.107L312.461,136.698L313.184,137.297L313.906,137.79L314.629,138.461L315.352,139.086L316.074,139.446L316.797,140.17L317.52,140.663L318.242,141.331L318.965,141.798L319.688,142.327L320.41,143.072L321.133,143.6L321.855,144.176L322.578,144.755L323.301,145.291L324.023,145.97L324.746,146.588L325.469,147.039L326.191,147.717L326.914,148.258L327.637,149.035L328.359,149.429L329.082,150.067L329.805,150.707L330.527,151.271L331.25,151.827L331.973,152.186L332.695,152.967L333.418,153.572L334.141,154.245L334.863,155.063L335.586,155.514L336.309,156.196L337.031,156.765L337.754,157.166L338.477,157.959L339.199,158.513L339.922,159.284L340.645,159.863L341.367,160.435L342.09,161.177L342.813,161.666L343.535,162.438L344.258,162.876L344.98,163.553L345.703,164.082L346.426,164.884L347.148,165.564L347.871,166.066L348.594,166.689L349.316,167.339L350.039,167.967L350.762,168.719L351.484,169.206L352.207,169.804L352.93,170.602L353.652,171.138L354.375,171.932L355.098,172.407L355.82,173.156L356.543,173.955L357.266,174.383L357.988,175.317L358.711,175.644L359.434,176.681L360.156,177.264L360.879,177.848L361.602,178.622L362.324,179.212L363.047,180.095L363.77,180.664L364.492,181.245L365.215,181.942L365.938,182.634L366.66,183.451L367.383,183.84L368.105,184.561L368.828,185.364L369.551,186.148L370.273,186.709L370.996,187.507L371.719,188.117L372.441,188.802L373.164,189.62L373.887,190.25L374.609,190.981L375.332,191.781L376.055,192.231L376.777,193.054L377.5,193.509L378.223,194.537L378.945,195.189L379.668,196.065L380.391,196.852L381.113,197.476L381.836,198.138L382.559,198.731L383.281,199.567L384.004,200.493L384.727,201.356L385.449,201.778L386.172,202.602L386.895,203.562L387.617,204.228L388.34,205.014L389.063,205.763L389.785,206.596L390.508,207.522L391.23,207.933L391.953,208.658L392.676,209.431L393.398,210.409L394.121,210.936L394.844,211.856L395.566,212.426L396.289,213.376L397.012,214.305L397.734,215.023L398.457,215.682L399.18,216.459L399.902,217.449L400.625,218.232L401.348,219.095L402.07,219.931L402.793,220.704L403.516,221.354L404.238,222.123L404.961,222.983L405.684,223.857L406.406,224.545L407.129,225.375L407.852,226.194L408.574,226.907L409.297,227.813L410.02,228.672L410.742,229.483L411.465,230.37L412.188,231.181L412.91,232L413.633,232.607L414.355,233.542L415.078,234.431L415.801,235.133L416.523,235.923L417.246,237.023L417.969,237.547L418.691,238.419L419.414,239.468L420.137,240.156L420.859,241.048L421.582,241.973L422.305,242.694L423.027,243.568L423.75,244.336L424.473,245.053L425.195,245.78L425.918,246.7L426.641,247.655L427.363,248.413L428.086,249.262L428.809,250.053L429.531,250.952L430.254,251.654L430.977,252.448L431.699,253.374L432.422,254.163L433.145,255.008L433.867,255.777L434.59,256.691L435.313,257.4L436.035,258.171L436.758,259.133L437.48,260.068L438.203,260.938L438.926,261.431L439.648,262.293L440.371,263.246L441.094,263.815L441.816,264.725L442.539,265.577L443.262,266.378L443.984,267.193L444.707,267.86L445.43,268.745L446.152,269.397L446.875,270.222L447.598,270.867L448.32,272.013L449.043,272.633L449.766,273.155L450.488,273.949L451.211,274.78L451.934,275.48L452.656,276.243L453.379,276.836L454.102,278.036L454.824,278.483L455.547,279.305L456.27,279.944L456.992,280.622L457.715,281.295L458.438,282.191L459.16,282.763L459.883,283.505L460.605,283.903L461.328,285.043L462.051,285.216L462.773,286.294L463.496,286.762L464.219,287.647L464.941,288.2L465.664,288.709L466.387,289.284L467.109,290.088L467.832,290.703L468.555,291.156L469.277,291.744"/><path fill="none" stroke="rgb(255, 130, 29)" stroke-width="1.5" d="M100,52.7L100.723,51.199L101.445,49.768L102.168,48.507L102.891,47.346L103.613,46.165L104.336,44.986L105.059,43.917L105.781,42.897L106.504,41.926L107.227,40.987L107.949,40.059L108.672,39.026L109.395,38.207L110.117,37.252L110.84,36.397L111.563,35.419L112.285,34.583L113.008,33.707L113.73,32.724L114.453,31.847L115.176,30.949L115.898,29.889L116.621,28.985L117.344,27.957L118.066,26.931L118.789,25.832L119.512,24.615L120.234,23.229L120.957,22.017L121.68,20.455L122.402,21.418L123.125,22.678L123.848,23.894L124.57,24.918L125.293,25.901L126.016,26.91L126.738,27.692L127.461,28.5L128.184,29.206L128.906,30.008L129.629,30.709L130.352,31.43L131.074,32.006L131.797,32.678L132.52,33.155L133.242,33.714L133.965,34.265L134.688,34.805L135.41,35.184L136.133,35.755L136.855,36.175L137.578,36.607L138.301,37.132L139.023,37.508L139.746,37.848L140.469,38.223L141.191,38.72L141.914,39.037L142.637,39.407L143.359,39.731L144.082,40.058L144.805,40.276L145.527,40.65L146.25,40.883L146.973,41.269L147.695,41.494L148.418,41.879L149.141,42.082L149.863,42.369L150.586,42.717L151.309,42.851L152.031,43.121L152.754,43.347L153.477,43.65L154.199,43.798L154.922,44.073L155.645,44.316L156.367,44.589L157.09,44.779L157.813,44.984L158.535,45.227L159.258,45.466L159.98,45.602L160.703,45.827L161.426,46.118L162.148,46.238L162.871,46.334L163.594,46.643L164.316,46.646L165.039,47.027L165.762,47.227L166.484,47.472L167.207,47.569L167.93,47.747L168.652,47.868L169.375,48.093L170.098,48.261L170.82,48.473L171.543,48.703L172.266,48.796L172.988,49.024L173.711,49.206L174.434,49.362L175.156,49.657L175.879,49.666L176.602,49.916L177.324,50.106L178.047,50.239L178.77,50.476L179.492,50.619L180.215,51L180.938,50.987L181.66,51.299L182.383,51.418L183.105,51.575L183.828,51.731L184.551,51.904L185.273,52.106L185.996,52.399L186.719,52.575L187.441,52.733L188.164,52.842L188.887,53.044L189.609,53.433L190.332,53.502L191.055,53.829L191.777,53.986L192.5,54.222L193.223,54.498L193.945,54.642L194.668,54.92L195.391,54.961L196.113,55.291L196.836,55.609L197.559,55.83L198.281,55.932L199.004,56.25L199.727,56.583L200.449,56.679L201.172,56.99L201.895,57.327L202.617,57.658L203.34,57.899L204.063,58.006L204.785,58.176L205.508,58.548L206.23,58.959L206.953,59.017L207.676,59.354L208.398,59.758L209.121,59.941L209.844,60.142L210.566,60.645L211.289,60.832L212.012,61.192L212.734,61.385L213.457,61.804L214.18,62.141L214.902,62.373L215.625,62.788L216.348,63.119L217.07,63.396L217.793,63.72L218.516,64.206L219.238,64.461L219.961,64.798L220.684,65.024L221.406,65.373L222.129,65.821L222.852,66.178L223.574,66.502L224.297,66.795L225.02,67.146L225.742,67.698L226.465,68.043L227.188,68.52L227.91,68.841L228.633,69.09L229.355,69.554L230.078,69.921L230.801,70.385L231.523,70.786L232.246,71.148L232.969,71.647L233.691,72.133L234.414,72.562L235.137,72.875L235.859,73.31L236.582,73.731L237.305,74.143L238.027,74.659L238.75,75.112L239.473,75.543L240.195,75.951L240.918,76.391L241.641,76.799L242.363,77.185L243.086,77.676L243.809,78.21L244.531,78.607L245.254,79.201L245.977,79.632L246.699,80.018L247.422,80.662L248.145,81.012L248.867,81.6L249.59,82.038L250.313,82.562L251.035,83.01L251.758,83.457L252.48,84.101L253.203,84.501L253.926,84.986L254.648,85.634L255.371,86.011L256.094,86.551L256.816,87.203L257.539,87.64L258.262,88.131L258.984,88.74L259.707,89.208L260.43,89.938L261.152,90.335L261.875,90.901L262.598,91.435L263.32,91.885L264.043,92.538L264.766,93.245L265.488,93.608L266.211,94.197L266.934,94.818L267.656,95.356L268.379,95.815L269.102,96.381L269.824,97.105L270.547,97.636L271.27,98.28L271.992,98.763L272.715,99.391L273.438,99.856L274.16,100.487L274.883,101.065L275.605,101.609L276.328,102.169L277.051,102.891L277.773,103.323L278.496,104.181L279.219,104.627L279.941,105.325L280.664,105.841L281.387,106.488L282.109,107.284L282.832,107.821L283.555,108.405L284.277,108.95L285,109.586L285.723,110.313L286.445,110.774L287.168,111.452L287.891,112.156L288.613,112.818L289.336,113.346L290.059,113.957L290.781,114.569L291.504,115.39L292.227,115.924L292.949,116.649L293.672,117.271L294.395,117.851L295.117,118.506L295.84,119.241L296.563,119.87L297.285,120.574L298.008,120.962L298.73,121.746L299.453,122.541L300.176,123.134L300.898,123.805L301.621,124.481L302.344,125.185L303.066,125.778L303.789,126.349L304.512,127.13L305.234,127.928L305.957,128.558L306.68,129.276L307.402,129.837L308.125,130.573L308.848,131.425L309.57,131.894L310.293,132.751L311.016,133.439L311.738,134.125L312.461,134.736L313.184,135.464L313.906,136.207L314.629,136.926L315.352,137.61L316.074,138.231L316.797,138.934L317.52,139.666L318.242,140.524L318.965,141.049L319.688,141.904L320.41,142.586L321.133,143.32L321.855,144.025L322.578,144.638L323.301,145.472L324.023,146.141L324.746,146.817L325.469,147.574L326.191,148.374L326.914,149.035L327.637,149.901L328.359,150.537L329.082,151.27L329.805,151.93L330.527,152.631L331.25,153.41L331.973,154.017L332.695,155.005L333.418,155.787L334.141,156.365L334.863,156.995L335.586,158.012L336.309,158.543L337.031,159.334L337.754,160.122L338.477,160.882L339.199,161.397L339.922,162.216L340.645,163.173L341.367,163.822L342.09,164.628L342.813,165.337L343.535,166.067L344.258,166.91L344.98,167.544L345.703,168.497L346.426,169.01L347.148,169.799L347.871,170.548L348.594,171.291L349.316,171.912L350.039,172.761L350.762,173.478L351.484,174.006L352.207,174.95L352.93,175.81L353.652,176.607L354.375,177.324L355.098,177.931L355.82,178.687L356.543,179.461L357.266,180.18L357.988,180.883L358.711,181.779L359.434,182.289L360.156,183.4L360.879,183.979L361.602,184.555L362.324,185.155L363.047,186.194L363.77,186.886L364.492,187.495L365.215,188.299L365.938,188.995L366.66,189.756L367.383,190.414L368.105,191.125L368.828,192.045L369.551,192.704L370.273,193.317L370.996,194.072L371.719,194.988L372.441,195.435L373.164,196.017L373.887,196.968L374.609,197.495L375.332,198.496L376.055,198.949L376.777,199.956L377.5,200.315L378.223,200.944L378.945,201.846L379.668,202.407L380.391,203.435L381.113,203.737L381.836,204.436L382.559,205.003L383.281,205.851L384.004,206.615L384.727,207.252L385.449,207.786L386.172,208.409L386.895,209.048L387.617,209.767L388.34,210.329L389.063,211.101L389.785,211.712L390.508,212.281L391.23,212.906L391.953,213.429L392.676,214.37L393.398,214.772L394.121,215.483L394.844,216.105L395.566,216.305L396.289,217.113L397.012,217.922L397.734,218.347L398.457,218.899L399.18,219.501L399.902,219.853L400.625,220.562L401.348,220.966L402.07,221.491L402.793,222.228L403.516,222.853L404.238,223.047L404.961,223.828L405.684,224.376L406.406,224.708L407.129,225.447L407.852,225.808L408.574,226.05L409.297,226.618L410.02,226.961L410.742,227.389L411.465,227.798L412.188,228.436L412.91,229.013L413.633,229.425L414.355,229.67L415.078,229.897L415.801,230.239L416.523,230.994L417.246,231.145L417.969,231.43L418.691,232.043L419.414,232.315L420.137,232.524L420.859,232.801L421.582,233.091L422.305,233.474L423.027,233.897L423.75,233.885L424.473,234.129L425.195,234.624L425.918,234.88L426.641,235.305L427.363,235.553L428.086,235.454L428.809,235.882L429.531,236.015L430.254,236.38L430.977,236.373L431.699,236.277L432.422,236.769L433.145,236.876L433.867,236.931L434.59,237.159L435.313,237.412L436.035,237.406L436.758,237.424L437.48,237.792L438.203,237.492L438.926,237.817L439.648,237.774L440.371,237.9L441.094,238.106L441.816,237.848L442.539,237.632L443.262,237.772L443.984,237.612L444.707,238.004L445.43,237.914L446.152,238.064L446.875,237.865L447.598,237.91L448.32,237.64L449.043,237.335L449.766,237.6L450.488,237.167L451.211,237.263L451.934,237.337L452.656,237.006L453.379,236.98L454.102,236.924L454.824,236.424L455.547,236.297L456.27,236.127L456.992,236.067L457.715,236.029L458.438,235.71L459.16,235.555L459.883,235.195L460.605,235.086L461.328,234.744L462.051,234.711L462.773,234.269L463.496,233.814L464.219,233.653L464.941,233.319L465.664,233.042L466.387,232.724L467.109,232.262L467.832,232.097L468.555,231.539L469.277,231.365"/><path fill="none" stroke="rgb(203, 47, 13)" stroke-width="1.5" d="M100,52.374L100.723,50.887L101.445,49.413L102.168,48.22L102.891,47.003L103.613,45.841L104.336,44.725L105.059,43.659L105.781,42.641L106.504,41.677L107.227,40.64L107.949,39.735L108.672,38.81L109.395,37.926L110.117,37.212L110.84,36.093L111.563,35.227L112.285,34.427L113.008,33.436L113.73,32.562L114.453,31.62L115.176,30.605L115.898,29.694L116.621,28.64L117.344,27.657L118.066,26.561L118.789,25.503L119.512,24.245L120.234,22.973L120.957,21.524L121.68,20L122.402,21.464L123.125,22.72L123.848,23.941L124.57,24.882L125.293,25.812L126.016,26.689L126.738,27.574L127.461,28.369L128.184,29.102L128.906,29.935L129.629,30.524L130.352,31.295L131.074,31.83L131.797,32.399L132.52,32.943L133.242,33.458L133.965,33.968L134.688,34.432L135.41,34.957L136.133,35.39L136.855,35.808L137.578,36.211L138.301,36.643L139.023,36.993L139.746,37.371L140.469,37.757L141.191,38.021L141.914,38.44L142.637,38.727L143.359,38.994L144.082,39.423L144.805,39.713L145.527,39.91L146.25,40.175L146.973,40.529L147.695,40.766L148.418,40.944L149.141,41.184L149.863,41.408L150.586,41.79L151.309,41.856L152.031,42.063L152.754,42.306L153.477,42.543L154.199,42.618L154.922,43.02L155.645,43.121L156.367,43.304L157.09,43.553L157.813,43.702L158.535,43.755L159.258,43.905L159.98,44.123L160.703,44.249L161.426,44.362L162.148,44.456L162.871,44.648L163.594,44.871L164.316,45.035L165.039,44.936L165.762,45.213L166.484,45.356L167.207,45.487L167.93,45.511L168.652,45.645L169.375,45.635L170.098,45.902L170.82,45.862L171.543,45.994L172.266,46.082L172.988,46.208L173.711,46.298L174.434,46.392L175.156,46.398L175.879,46.469L176.602,46.486L177.324,46.59L178.047,46.648L178.77,46.852L179.492,46.961L180.215,47.054L180.938,46.932L181.66,46.994L182.383,46.879L183.105,47.216L183.828,47.207L184.551,47.231L185.273,47.39L185.996,47.314L186.719,47.585L187.441,47.604L188.164,47.575L188.887,47.599L189.609,47.596L190.332,47.779L191.055,47.783L191.777,47.885L192.5,47.894L193.223,47.715L193.945,47.888L194.668,47.87L195.391,48.003L196.113,47.974L196.836,48.045L197.559,47.995L198.281,48.111L199.004,48.179L199.727,48.288L200.449,48.176L201.172,48.244L201.895,48.097L202.617,48.19L203.34,48.195L204.063,48.426L204.785,48.087L205.508,48.32L206.23,48.377L206.953,48.299L207.676,48.267L208.398,48.383L209.121,48.37L209.844,48.416L210.566,48.263L211.289,48.484L212.012,48.643L212.734,48.37L213.457,48.409L214.18,48.409L214.902,48.6L215.625,48.507L216.348,48.661L217.07,48.561L217.793,48.501L218.516,48.644L219.238,48.4L219.961,48.633L220.684,48.582L221.406,48.515L222.129,48.547L222.852,48.651L223.574,48.427L224.297,48.523L225.02,48.459L225.742,48.721L226.465,48.347L227.188,48.506L227.91,48.49L228.633,48.481L229.355,48.364L230.078,48.497L230.801,48.242L231.523,48.39L232.246,48.275L232.969,48.282L233.691,48.189L234.414,48.159L235.137,48.331L235.859,48.216L236.582,48.103L237.305,48.134L238.027,48.106L238.75,48.055L239.473,47.933L240.195,47.958L240.918,47.899L241.641,47.821L242.363,47.844L243.086,47.663L243.809,47.636L244.531,47.611L245.254,47.542L245.977,47.564L246.699,47.328L247.422,47.266L248.145,47.2L248.867,47.247L249.59,47.02L250.313,47.06L251.035,47.13L251.758,46.906L252.48,46.887L253.203,46.789L253.926,46.58L254.648,46.471L255.371,46.366L256.094,46.371L256.816,46.362L257.539,46.113L258.262,46.03L258.984,45.835L259.707,45.824L260.43,45.64L261.152,45.556L261.875,45.385L262.598,45.362L263.32,45.179L264.043,45.041L264.766,45.046L265.488,44.858L266.211,44.713L266.934,44.497L267.656,44.456L268.379,44.196L269.102,44.119L269.824,43.872L270.547,43.888L271.27,43.556L271.992,43.47L272.715,43.212L273.438,43.369L274.16,43.033L274.883,42.894L275.605,42.671L276.328,42.666L277.051,42.458L277.773,42.234L278.496,42.033L279.219,41.909L279.941,41.698L280.664,41.539L281.387,41.41L282.109,41.143L282.832,40.997L283.555,40.874L284.277,40.67L285,40.492L285.723,40.348L286.445,40.103L287.168,39.96L287.891,39.758L288.613,39.505L289.336,39.321L290.059,39.186L290.781,38.95L291.504,38.811L292.227,38.614L292.949,38.408L293.672,38.227L294.395,37.995L295.117,37.729L295.84,37.577L296.563,37.391L297.285,37.261L298.008,36.982L298.73,36.869L299.453,36.599L300.176,36.41L300.898,36.307L301.621,35.951L302.344,35.92L303.066,35.629L303.789,35.538L304.512,35.182L305.234,35.071L305.957,34.791L306.68,34.635L307.402,34.496L308.125,34.328L308.848,34.003L309.57,33.801L310.293,33.623L311.016,33.448L311.738,33.139L312.461,32.963L313.184,32.852L313.906,32.46L314.629,32.366L315.352,32.174L316.074,31.94L316.797,31.741L317.52,31.468L318.242,31.284L318.965,31.107L319.688,30.896L320.41,30.599L321.133,30.422L321.855,30.203L322.578,29.957L323.301,29.708L324.023,29.516L324.746,29.307L325.469,29.078L326.191,28.892L326.914,28.637L327.637,28.398L328.359,28.199L329.082,27.883L329.805,27.759L330.527,31.271L331.25,34.804L331.973,38.441L332.695,42.828L333.418,46.301L334.141,49.679L334.863,50.129L335.586,50.614L336.309,50.962L337.031,51.478L337.754,51.914L338.477,52.267L339.199,52.773L339.922,53.046L340.645,53.453L341.367,53.788L342.09,54.218L342.813,54.507L343.535,54.759L344.258,55.147L344.98,55.421L345.703,55.752L346.426,56.081L347.148,56.318L347.871,56.595L348.594,56.854L349.316,57.143L350.039,57.467L350.762,57.583L351.484,57.926L352.207,58.067L352.93,58.379L353.652,58.522L354.375,58.755L355.098,58.943L355.82,59.089L356.543,59.346L357.266,59.33L357.988,59.547L358.711,59.708L359.434,59.91L360.156,60.062L360.879,60.059L361.602,60.328L362.324,60.328L363.047,60.539L363.77,60.585L364.492,60.713L365.215,60.821L365.938,60.962L366.66,60.876L367.383,61.123L368.105,61.083L368.828,61.079L369.551,61.12L370.273,61.303L370.996,61.239L371.719,61.251L372.441,61.413L373.164,61.38L373.887,61.47L374.609,61.481L375.332,61.609L376.055,61.587L376.777,61.535L377.5,61.473L378.223,61.498L378.945,61.394L379.668,61.558L380.391,61.484L381.113,61.598L381.836,61.535L382.559,61.508L383.281,61.378L384.004,61.358L384.727,61.363L385.449,61.38L386.172,61.245L386.895,61.279L387.617,61.291L388.34,61.13L389.063,61.022L389.785,61.014L390.508,60.866L391.23,60.905L391.953,60.864L392.676,60.693L393.398,60.678L394.121,60.615L394.844,60.53L395.566,60.431L396.289,60.359L397.012,60.09L397.734,60.218L398.457,60.073L399.18,60.004L399.902,59.874L400.625,59.722L401.348,59.595L402.07,59.486L402.793,59.363L403.516,59.412L404.238,59.318L404.961,59.142L405.684,59.102L406.406,58.948L407.129,58.86L407.852,58.699L408.574,58.61L409.297,58.282L410.02,58.366L410.742,58.162L411.465,58.14L412.188,57.915L412.91,57.855L413.633,57.829L414.355,57.433L415.078,57.409L415.801,57.344L416.523,57.165L417.246,56.89L417.969,56.926L418.691,56.741L419.414,56.628L420.137,56.424L420.859,56.406L421.582,56.144L422.305,56.081L423.027,55.897L423.75,55.718L424.473,55.664L425.195,55.425L425.918,55.335L426.641,55.05L427.363,55.118L428.086,54.877L428.809,54.634L429.531,54.633L430.254,54.302L430.977,54.328L431.699,54.004L432.422,53.93L433.145,53.693L433.867,53.73L434.59,53.515L435.313,53.383L436.035,53.13L436.758,53.108L437.48,52.912L438.203,52.699L438.926,52.588L439.648,52.434L440.371,52.274L441.094,52.118L441.816,52.033L442.539,51.715L443.262,51.762L443.984,51.659L444.707,51.317L445.43,51.156L446.152,50.81L446.875,50.701L447.598,50.582L448.32,50.471L449.043,50.503L449.766,50.295L450.488,50.057L451.211,49.906L451.934,49.683L452.656,49.435L453.379,49.529L454.102,49.262L454.824,49.075L455.547,49.015L456.27,48.913L456.992,48.599L457.715,48.474L458.438,48.335L459.16,48.225L459.883,47.913L460.605,47.86L461.328,47.779L462.051,47.561L462.773,47.333L463.496,47.293L464.219,47.015L464.941,46.845L465.664,46.859L466.387,46.731L467.109,46.5L467.832,46.167L468.555,46.323L469.277,46.143"/><g transform="translate(0,190) scale(1.7) rotate(-90)"><text>Drift</text></g><g transform="translate(315,395) scale(1.8)"><text></text></g><g transform="translate(0,350)" fill="none" font-size="10" font-family="sans-serif" text-anchor="middle"><path class="domain" stroke="currentColor" d="M100,6V0H470V6"/><g class="tick" opacity="1" transform="translate(136.66666666666666,0)"><line stroke="currentColor" y2="6"/><text fill="currentColor" y="9" dy="0.71em" font-size="20px"> </text></g><g class="tick" opacity="1" transform="translate(173.7037037037037,0)"><line stroke="currentColor" y2="6"/><text fill="currentColor" y="9" dy="0.71em" font-size="20px">200</text></g><g class="tick" opacity="1" transform="translate(210.74074074074076,0)"><line stroke="currentColor" y2="6"/><text fill="currentColor" y="9" dy="0.71em" font-size="20px"> </text></g><g class="tick" opacity="1" transform="translate(247.77777777777777,0)"><line stroke="currentColor" y2="6"/><text fill="currentColor" y="9" dy="0.71em" font-size="20px">400</text></g><g class="tick" opacity="1" transform="translate(284.81481481481484,0)"><line stroke="currentColor" y2="6"/><text fill="currentColor" y="9" dy="0.71em" font-size="20px"> </text></g><g class="tick" opacity="1" transform="translate(321.85185185185185,0)"><line stroke="currentColor" y2="6"/><text fill="currentColor" y="9" dy="0.71em" font-size="20px">600</text></g><g class="tick" opacity="1" transform="translate(358.8888888888889,0)"><line stroke="currentColor" y2="6"/><text fill="currentColor" y="9" dy="0.71em" font-size="20px"> </text></g><g class="tick" opacity="1" transform="translate(395.9259259259259,0)"><line stroke="currentColor" y2="6"/><text fill="currentColor" y="9" dy="0.71em" font-size="20px">800</text></g><g class="tick" opacity="1" transform="translate(432.96296296296293,0)"><line stroke="currentColor" y2="6"/><text fill="currentColor" y="9" dy="0.71em" font-size="20px"> </text></g><g class="tick" opacity="1" transform="translate(470,0)"><line stroke="currentColor" y2="6"/><text fill="currentColor" y="9" dy="0.71em" font-size="20px">1000</text></g></g><g transform="translate(100,0)" fill="none" font-size="10" font-family="sans-serif" text-anchor="end"><path class="domain" stroke="currentColor" d="M-6,350H0V20H-6"/><g class="tick" opacity="1" transform="translate(0,321.5613398051486)"><line stroke="currentColor" x2="-6"/><text fill="currentColor" x="-9" dy="0.32em" font-size="20px">0.45</text></g><g class="tick" opacity="1" transform="translate(0,286.98214809139233)"><line stroke="currentColor" x2="-6"/><text fill="currentColor" x="-9" dy="0.32em" font-size="20px">0.40</text></g><g class="tick" opacity="1" transform="translate(0,252.40295637763612)"><line stroke="currentColor" x2="-6"/><text fill="currentColor" x="-9" dy="0.32em" font-size="20px">0.35</text></g><g class="tick" opacity="1" transform="translate(0,217.82376466387984)"><line stroke="currentColor" x2="-6"/><text fill="currentColor" x="-9" dy="0.32em" font-size="20px">0.30</text></g><g class="tick" opacity="1" transform="translate(0,183.24457295012363)"><line stroke="currentColor" x2="-6"/><text fill="currentColor" x="-9" dy="0.32em" font-size="20px">0.25</text></g><g class="tick" opacity="1" transform="translate(0,148.6653812363674)"><line stroke="currentColor" x2="-6"/><text fill="currentColor" x="-9" dy="0.32em" font-size="20px">0.20</text></g><g class="tick" opacity="1" transform="translate(0,114.08618952261115)"><line stroke="currentColor" x2="-6"/><text fill="currentColor" x="-9" dy="0.32em" font-size="20px">0.15</text></g><g class="tick" opacity="1" transform="translate(0,79.50699780885495)"><line stroke="currentColor" x2="-6"/><text fill="currentColor" x="-9" dy="0.32em" font-size="20px">0.10</text></g><g class="tick" opacity="1" transform="translate(0,44.927806095098674)"><line stroke="currentColor" x2="-6"/><text fill="currentColor" x="-9" dy="0.32em" font-size="20px">0.05</text></g></g><circle cx="120" cy="155" r="8" style="fill: rgb(35, 23, 27);"/><circle cx="120" cy="180" r="8" style="fill: rgb(69, 105, 238);"/><circle cx="120" cy="205" r="8" style="fill: rgb(38, 188, 225);"/><circle cx="120" cy="230" r="8" style="fill: rgb(63, 243, 147);"/><circle cx="120" cy="255" r="8" style="fill: rgb(149, 251, 81);"/><circle cx="120" cy="280" r="8" style="fill: rgb(236, 209, 46);"/><circle cx="120" cy="305" r="8" style="fill: rgb(255, 130, 29);"/><circle cx="120" cy="330" r="8" style="fill: rgb(203, 47, 13);"/><text x="135" y="155" text-anchor="left" font-size="22" alignment-baseline="middle" style="fill: rgb(35, 23, 27);"> = 0</text><text x="135" y="180" text-anchor="left" font-size="22" alignment-baseline="middle" style="fill: rgb(69, 105, 238);"> = 0.22</text><text x="135" y="205" text-anchor="left" font-size="22" alignment-baseline="middle" style="fill: rgb(38, 188, 225);"> = 0.45</text><text x="135" y="230" text-anchor="left" font-size="22" alignment-baseline="middle" style="fill: rgb(63, 243, 147);"> = 0.67</text><text x="135" y="255" text-anchor="left" font-size="22" alignment-baseline="middle" style="fill: rgb(149, 251, 81);"> = 0.9</text><text x="135" y="280" text-anchor="left" font-size="22" alignment-baseline="middle" style="fill: rgb(236, 209, 46);"> = 1.12</text><text x="135" y="305" text-anchor="left" font-size="22" alignment-baseline="middle" style="fill: rgb(255, 130, 29);"> = 1.35</text><text x="135" y="330" text-anchor="left" font-size="22" alignment-baseline="middle" style="fill: rgb(203, 47, 13);"> = 1.57</text></svg>