<svg xmlns="http://www.w3.org/2000/svg" class="bg-white" width="500" height="400" viewBox="-37.51000000000001 -60.50000000000003 605.0000000000001 484.00000000000006"><path fill="none" stroke="rgb(35, 23, 27)" stroke-width="1.5" d="M100,151.805L100.723,150.666L101.445,150.216L102.168,150.12L102.891,150.163L103.613,150.326L104.336,150.543L105.059,150.944L105.781,151.206L106.504,151.686L107.227,152.188L107.949,152.745L108.672,153.399L109.395,154.162L110.117,154.857L110.84,155.51L111.563,156.284L112.285,156.948L113.008,157.655L113.73,158.077L114.453,158.772L115.176,159.745L115.898,160.49L116.621,161.174L117.344,161.68L118.066,162.417L118.789,163.195L119.512,163.809L120.234,164.636L120.957,165.05L121.68,165.572L122.402,166.072L123.125,166.662L123.848,166.937L124.57,166.629L125.293,169.684L126.016,172.634L126.738,175.149L127.461,177.566L128.184,180.469L128.906,182.896L129.629,184.976L130.352,187.256L131.074,189.52L131.797,191.991L132.52,194.255L133.242,196.718L133.965,198.534L134.688,200.771L135.41,203.508L136.133,205.524L136.855,207.652L137.578,209.929L138.301,212.271L139.023,214.389L139.746,216.255L140.469,218.434L141.191,220.761L141.914,222.702L142.637,224.719L143.359,226.88L144.082,229.011L144.805,231.011L145.527,233.023L146.25,234.875L146.973,236.884L147.695,238.982L148.418,240.913L149.141,243.231L149.863,245.269L150.586,247.384L151.309,248.819L152.031,250.775L152.754,253.134L153.477,254.681L154.199,256.616L154.922,258.849L155.645,260.776L156.367,262.302L157.09,264.348L157.813,266.355L158.535,268.232L159.258,269.748L159.98,271.856L160.703,273.667L161.426,275.337L162.148,277.091L162.871,279.103L163.594,280.489L164.316,282.258L165.039,284.048L165.762,286.011L166.484,287.554L167.207,289.5L167.93,291.126L168.652,292.607L169.375,294.015L170.098,295.573L170.82,297.044L171.543,298.87L172.266,300.443L172.988,301.861L173.711,303.173L174.434,305.018L175.156,306.479L175.879,307.527L176.602,308.832L177.324,310.186L178.047,311.523L178.77,313.132L179.492,314.462L180.215,315.641L180.938,316.991L181.66,318.33L182.383,319.554L183.105,320.675L183.828,321.907L184.551,323.026L185.273,324.432L185.996,325.543L186.719,326.633L187.441,327.34L188.164,328.43L188.887,329.425L189.609,330.803L190.332,331.414L191.055,332.635L191.777,333.473L192.5,334.165L193.223,335.412L193.945,336.229L194.668,336.846L195.391,337.494L196.113,338.278L196.836,339.025L197.559,339.498L198.281,340.214L199.004,340.92L199.727,341.872L200.449,341.807L201.172,342.723L201.895,343.285L202.617,343.776L203.34,344.754L204.063,344.768L204.785,345.554L205.508,346.046L206.23,346.432L206.953,346.743L207.676,346.999L208.398,347.4L209.121,347.67L209.844,347.906L210.566,348.062L211.289,348.633L212.012,348.687L212.734,349.028L213.457,349.005L214.18,349.611L214.902,349.729L215.625,349.605L216.348,349.724L217.07,349.474L217.793,349.764L218.516,349.812L219.238,350L219.961,349.718L220.684,349.455L221.406,349.69L222.129,349.725L222.852,349.634L223.574,349.057L224.297,349.189L225.02,348.913L225.742,348.961L226.465,348.646L227.188,348.085L227.91,347.831L228.633,347.606L229.355,347.47L230.078,347.287L230.801,346.78L231.523,346.417L232.246,345.982L232.969,345.522L233.691,345.677L234.414,345.01L235.137,344.283L235.859,343.89L236.582,343.406L237.305,342.873L238.027,342.67L238.75,341.979L239.473,341.335L240.195,340.874L240.918,340.188L241.641,339.612L242.363,339.014L243.086,338.428L243.809,337.841L244.531,337.107L245.254,336.706L245.977,335.954L246.699,335.03L247.422,334.586L248.145,333.939L248.867,333.178L249.59,332.532L250.313,331.534L251.035,330.99L251.758,329.825L252.48,329.433L253.203,328.605L253.926,327.601L254.648,326.74L255.371,326.078L256.094,325.043L256.816,324.174L257.539,323.248L258.262,322.326L258.984,321.296L259.707,320.416L260.43,319.707L261.152,318.937L261.875,317.984L262.598,316.954L263.32,316.177L264.043,315.304L264.766,314.274L265.488,313.267L266.211,312.738L266.934,311.885L267.656,310.188L268.379,309.233L269.102,308.288L269.824,307.348L270.547,306.758L271.27,305.711L271.992,304.353L272.715,303.546L273.438,302.485L274.16,301.445L274.883,300.805L275.605,299.507L276.328,297.74L277.051,297.241L277.773,296.68L278.496,295.119L279.219,294.053L279.941,293.199L280.664,291.896L281.387,290.334L282.109,289.686L282.832,288.233L283.555,287.569L284.277,286.586L285,285.372L285.723,283.835L286.445,283.144L287.168,282.663L287.891,281.162L288.613,280.109L289.336,278.953L290.059,277.586L290.781,277.156L291.504,275.098L292.227,274.45L292.949,273.36L293.672,272.259L294.395,271.194L295.117,269.963L295.84,268.852L296.563,267.797L297.285,266.65L298.008,265.57L298.73,264.116L299.453,263.367L300.176,262.125L300.898,260.961L301.621,259.868L302.344,258.78L303.066,257.486L303.789,256.698L304.512,255.021L305.234,254.409L305.957,253.017L306.68,251.847L307.402,250.596L308.125,249.431L308.848,248.33L309.57,247.701L310.293,246.132L311.016,245.29L311.738,243.948L312.461,243.025L313.184,242.346L313.906,240.61L314.629,240.003L315.352,238.431L316.074,237.786L316.797,236.648L317.52,235.554L318.242,234.237L318.965,233.157L319.688,231.808L320.41,230.985L321.133,229.827L321.855,228.686L322.578,227.348L323.301,226.282L324.023,225.327L324.746,224.344L325.469,223.454L326.191,222.043L326.914,221.136L327.637,219.797L328.359,218.68L329.082,217.605L329.805,216.629L330.527,215.396L331.25,214.66L331.973,213.159L332.695,212.258L333.418,211.364L334.141,209.921L334.863,208.853L335.586,207.757L336.309,206.654L337.031,206.118L337.754,205.061L338.477,203.379L339.199,202.382L339.922,201.281L340.645,200.417L341.367,199.458L342.09,198.267L342.813,197.119L343.535,196.056L344.258,195.027L344.98,193.948L345.703,193L346.426,191.906L347.148,190.808L347.871,190.078L348.594,188.674L349.316,187.639L350.039,186.839L350.762,185.995L351.484,184.749L352.207,184.156L352.93,182.791L353.652,181.978L354.375,181.12L355.098,180.133L355.82,179.122L356.543,177.962L357.266,176.876L357.988,175.633L358.711,174.889L359.434,173.71L360.156,173.009L360.879,172.054L361.602,171.508L362.324,170.147L363.047,169.526L363.77,168.034L364.492,167.405L365.215,166.315L365.938,165.852L366.66,164.811L367.383,163.446L368.105,162.858L368.828,161.954L369.551,160.588L370.273,159.851L370.996,158.674L371.719,158.005L372.441,158.06L373.164,158.76L373.887,159.513L374.609,159.447L375.332,160.441L376.055,160.439L376.777,161.234L377.5,161.44L378.223,162.492L378.945,162.689L379.668,163.32L380.391,163.717L381.113,163.963L381.836,165.09L382.559,165.33L383.281,166.053L384.004,166.641L384.727,166.109L385.449,165.343L386.172,164.871L386.895,164.464L387.617,163.242L388.34,163.043L389.063,162.52L389.785,161.807L390.508,161.057L391.23,160.687L391.953,159.922L392.676,159.004L393.398,158.433L394.121,157.645L394.844,157.508L395.566,157.036L396.289,156.181L397.012,154.965L397.734,154.991L398.457,154.204L399.18,153.773L399.902,153.057L400.625,152.709L401.348,151.859L402.07,151.549L402.793,150.515L403.516,150.145L404.238,149.41L404.961,148.746L405.684,148.576L406.406,147.622L407.129,147.44L407.852,146.436L408.574,146.056L409.297,144.972L410.02,145.12L410.742,144.578L411.465,143.887L412.188,143.354L412.91,142.792L413.633,142.281L414.355,141.572L415.078,140.8L415.801,140.555L416.523,139.96L417.246,139.401L417.969,138.901L418.691,137.683L419.414,137.623L420.137,137.197L420.859,136.363L421.582,135.875L422.305,135.542L423.027,135.046L423.75,134.379L424.473,133.858L425.195,133.451L425.918,132.699L426.641,132.191L427.363,131.843L428.086,130.942L428.809,130.649L429.531,130.238L430.254,129.608L430.977,129.044L431.699,128.396L432.422,127.913L433.145,127.426L433.867,126.991L434.59,126.455L435.313,125.625L436.035,125.122L436.758,125.039L437.48,124.1L438.203,123.993L438.926,123.096L439.648,122.816L440.371,122.519L441.094,121.976L441.816,121.546L442.539,120.852L443.262,120.136L443.984,120.073L444.707,119.162L445.43,118.678L446.152,118.52L446.875,117.718L447.598,117.255L448.32,117.086L449.043,116.623L449.766,115.753L450.488,115.748L451.211,115.085L451.934,114.662L452.656,114.008L453.379,113.586L454.102,113.134L454.824,112.882L455.547,112.275L456.27,112.121L456.992,111.383L457.715,110.909L458.438,110.6L459.16,110.002L459.883,109.418L460.605,108.983L461.328,108.785L462.051,108.225L462.773,107.915L463.496,107.029L464.219,106.864L464.941,106.44L465.664,106.103L466.387,105.679L467.109,105.192L467.832,104.386L468.555,104.025L469.277,103.794"/><path fill="none" stroke="rgb(69, 105, 238)" stroke-width="1.5" d="M100,151.555L100.723,150.402L101.445,149.658L102.168,149.268L102.891,149.675L103.613,149.314L104.336,149.593L105.059,149.901L105.781,150.167L106.504,150.381L107.227,150.688L107.949,151.113L108.672,151.511L109.395,152.022L110.117,152.163L110.84,152.753L111.563,153.375L112.285,153.892L113.008,154.221L113.73,154.962L114.453,155.404L115.176,155.646L115.898,156.331L116.621,156.574L117.344,157.191L118.066,157.47L118.789,157.885L119.512,158.443L120.234,158.671L120.957,158.915L121.68,159.275L122.402,159.194L123.125,159.368L123.848,159.265L124.57,158.973L125.293,161.736L126.016,163.966L126.738,166.118L127.461,168.912L128.184,170.544L128.906,172.958L129.629,175.222L130.352,177.294L131.074,179.19L131.797,181.249L132.52,183.292L133.242,185.237L133.965,187.305L134.688,189.269L135.41,190.864L136.133,192.922L136.855,194.603L137.578,196.512L138.301,198.674L139.023,200.405L139.746,202.275L140.469,204.065L141.191,205.569L141.914,207.361L142.637,209.251L143.359,211.076L144.082,212.829L144.805,214.387L145.527,216.416L146.25,217.867L146.973,219.58L147.695,221.253L148.418,222.867L149.141,224.725L149.863,226.356L150.586,227.689L151.309,229.39L152.031,231.007L152.754,232.332L153.477,234.192L154.199,235.708L154.922,237.211L155.645,238.689L156.367,240.076L157.09,241.563L157.813,243.274L158.535,244.607L159.258,246.125L159.98,247.338L160.703,248.685L161.426,249.971L162.148,251.604L162.871,252.973L163.594,254.102L164.316,255.619L165.039,257.106L165.762,258.097L166.484,259.581L167.207,260.709L167.93,261.783L168.652,263.095L169.375,264.161L170.098,265.437L170.82,266.531L171.543,267.866L172.266,269.017L172.988,269.992L173.711,270.904L174.434,271.788L175.156,273.021L175.879,274.155L176.602,275.204L177.324,276.053L178.047,277.032L178.77,277.951L179.492,278.917L180.215,279.883L180.938,280.702L181.66,281.238L182.383,282.301L183.105,282.928L183.828,283.58L184.551,284.478L185.273,285.373L185.996,286.097L186.719,286.383L187.441,287.104L188.164,287.669L188.887,288.443L189.609,288.81L190.332,289.522L191.055,290.197L191.777,290.706L192.5,291.172L193.223,291.603L193.945,292.17L194.668,292.307L195.391,292.675L196.113,293.262L196.836,293.232L197.559,294.121L198.281,294.152L199.004,294.697L199.727,294.573L200.449,295.072L201.172,294.881L201.895,295.631L202.617,295.71L203.34,295.357L204.063,295.965L204.785,296.094L205.508,296.161L206.23,295.766L206.953,296.019L207.676,296.152L208.398,295.873L209.121,295.894L209.844,296.144L210.566,295.755L211.289,296.004L212.012,295.548L212.734,295.519L213.457,296.084L214.18,295.519L214.902,295.418L215.625,295.425L216.348,295.201L217.07,294.809L217.793,294.852L218.516,294.344L219.238,294.243L219.961,293.83L220.684,293.641L221.406,293.051L222.129,293.142L222.852,292.054L223.574,291.967L224.297,291.758L225.02,291.275L225.742,290.753L226.465,290.579L227.188,290.279L227.91,289.079L228.633,288.881L229.355,287.901L230.078,288.143L230.801,287.658L231.523,286.683L232.246,285.735L232.969,285.665L233.691,285.421L234.414,284.607L235.137,283.793L235.859,283.717L236.582,282.383L237.305,281.875L238.027,281.686L238.75,281.028L239.473,280.435L240.195,279.191L240.918,278.13L241.641,277.895L242.363,277.171L243.086,276.504L243.809,275.949L244.531,275.001L245.254,274.469L245.977,273.526L246.699,272.724L247.422,272.505L248.145,271.385L248.867,270.506L249.59,269.792L250.313,268.762L251.035,268.106L251.758,266.718L252.48,266.558L253.203,265.692L253.926,264.598L254.648,263.982L255.371,263.199L256.094,262.38L256.816,261.451L257.539,260.44L258.262,259.611L258.984,259.033L259.707,257.887L260.43,256.908L261.152,256.095L261.875,255.149L262.598,253.943L263.32,253.362L264.043,252.19L264.766,250.81L265.488,250.83L266.211,249.297L266.934,248.765L267.656,247.44L268.379,246.691L269.102,245.778L269.824,244.944L270.547,244.454L271.27,243.008L271.992,242.224L272.715,240.996L273.438,240.533L274.16,239.182L274.883,238.321L275.605,237.356L276.328,236.809L277.051,235.644L277.773,234.61L278.496,233.165L279.219,232.822L279.941,231.43L280.664,230.452L281.387,229.478L282.109,228.616L282.832,227.276L283.555,227.047L284.277,225.632L285,224.681L285.723,223.503L286.445,222.364L287.168,221.598L287.891,220.707L288.613,219.763L289.336,219.087L290.059,218.09L290.781,216.858L291.504,215.748L292.227,214.793L292.949,213.866L293.672,213.247L294.395,211.986L295.117,210.82L295.84,210.165L296.563,209.165L297.285,207.838L298.008,207.203L298.73,206.054L299.453,205.259L300.176,204.168L300.898,203.158L301.621,202.152L302.344,201.636L303.066,199.992L303.789,199.415L304.512,198.431L305.234,197.101L305.957,196.68L306.68,195.555L307.402,194.468L308.125,193.369L308.848,192.743L309.57,191.629L310.293,190.778L311.016,189.794L311.738,188.645L312.461,188.027L313.184,187.025L313.906,185.883L314.629,184.897L315.352,184.085L316.074,183.493L316.797,182.283L317.52,181.384L318.242,180.453L318.965,179.561L319.688,178.786L320.41,177.2L321.133,176.986L321.855,175.762L322.578,174.622L323.301,173.811L324.023,173.081L324.746,172.117L325.469,170.851L326.191,170.446L326.914,169.303L327.637,168.163L328.359,167.196L329.082,166.637L329.805,165.605L330.527,164.885L331.25,163.91L331.973,162.901L332.695,162.067L333.418,160.992L334.141,160.207L334.863,159.23L335.586,158.61L336.309,157.772L337.031,156.798L337.754,155.938L338.477,154.755L339.199,154.298L339.922,153.415L340.645,152.7L341.367,151.865L342.09,150.715L342.813,150.159L343.535,149.324L344.258,148.434L344.98,147.254L345.703,146.634L346.426,145.815L347.148,145.029L347.871,144.063L348.594,143.244L349.316,142.569L350.039,141.599L350.762,140.983L351.484,140.109L352.207,139.375L352.93,138.245L353.652,137.854L354.375,136.619L355.098,136.243L355.82,135.445L356.543,134.34L357.266,133.779L357.988,133.182L358.711,132.19L359.434,131.57L360.156,130.834L360.879,129.932L361.602,128.804L362.324,128.565L363.047,127.704L363.77,126.705L364.492,126.403L365.215,125.452L365.938,124.585L366.66,123.981L367.383,123.327L368.105,122.524L368.828,121.842L369.551,121.797L370.273,122.084L370.996,123.017L371.719,123.526L372.441,124.426L373.164,124.791L373.887,125.859L374.609,126.792L375.332,126.844L376.055,128.084L376.777,128.765L377.5,129.639L378.223,129.909L378.945,131.203L379.668,131.186L380.391,131.662L381.113,133.356L381.836,132.721L382.559,132.589L383.281,131.861L384.004,131.011L384.727,130.932L385.449,130.498L386.172,129.692L386.895,129.249L387.617,129.199L388.34,128.654L389.063,128.474L389.785,127.457L390.508,127.291L391.23,126.995L391.953,126.15L392.676,126.012L393.398,125.547L394.121,125.148L394.844,124.686L395.566,124.114L396.289,123.85L397.012,123.778L397.734,123.237L398.457,122.466L399.18,121.977L399.902,121.513L400.625,121.113L401.348,120.51L402.07,120.375L402.793,120.014L403.516,119.665L404.238,119.188L404.961,118.917L405.684,118.206L406.406,118.017L407.129,117.457L407.852,117.03L408.574,116.606L409.297,116.008L410.02,115.792L410.742,115.367L411.465,114.886L412.188,114.633L412.91,114.067L413.633,113.918L414.355,113.329L415.078,112.908L415.801,112.151L416.523,112.099L417.246,111.873L417.969,111.347L418.691,110.825L419.414,110.428L420.137,110.237L420.859,109.31L421.582,108.916L422.305,109.036L423.027,108.127L423.75,108.291L424.473,107.686L425.195,107.085L425.918,106.788L426.641,106.315L427.363,106.131L428.086,105.86L428.809,105.216L429.531,105.087L430.254,104.71L430.977,104.186L431.699,104.003L432.422,103.255L433.145,103.03L433.867,102.666L434.59,102.249L435.313,102.078L436.035,101.571L436.758,101.185L437.48,100.954L438.203,100.273L438.926,99.906L439.648,99.539L440.371,99.149L441.094,98.939L441.816,98.498L442.539,98.163L443.262,97.519L443.984,97.28L444.707,97.316L445.43,96.867L446.152,96.604L446.875,96.064L447.598,95.71L448.32,95.528L449.043,94.872L449.766,94.651L450.488,94.225L451.211,93.927L451.934,93.428L452.656,93.051L453.379,92.661L454.102,92.464L454.824,91.92L455.547,91.805L456.27,91.461L456.992,91.245L457.715,90.631L458.438,90.67L459.16,90.247L459.883,89.753L460.605,89.28L461.328,89.328L462.051,88.584L462.773,88.559L463.496,88.041L464.219,87.756L464.941,87.309L465.664,87.242L466.387,86.84L467.109,86.616L467.832,86.093L468.555,85.719L469.277,85.389"/><path fill="none" stroke="rgb(38, 188, 225)" stroke-width="1.5" d="M100,150.695L100.723,149.408L101.445,148.742L102.168,147.941L102.891,147.54L103.613,147.162L104.336,146.854L105.059,146.567L105.781,146.192L106.504,146.183L107.227,145.971L107.949,145.753L108.672,145.835L109.395,145.597L110.117,145.464L110.84,145.419L111.563,145.277L112.285,145.306L113.008,145.171L113.73,145.048L114.453,144.881L115.176,144.866L115.898,144.638L116.621,144.311L117.344,144.184L118.066,143.714L118.789,143.444L119.512,142.976L120.234,142.694L120.957,142.185L121.68,141.479L122.402,140.876L123.125,139.808L123.848,138.74L124.57,139.422L125.293,141.264L126.016,142.905L126.738,144.451L127.461,146.214L128.184,147.636L128.906,149.36L129.629,150.891L130.352,152.093L131.074,153.606L131.797,154.866L132.52,156.443L133.242,157.673L133.965,159.068L134.688,160.318L135.41,161.591L136.133,162.933L136.855,164.231L137.578,165.307L138.301,166.542L139.023,167.4L139.746,168.897L140.469,169.946L141.191,171.122L141.914,172.209L142.637,173.302L143.359,174.401L144.082,175.241L144.805,176.411L145.527,177.542L146.25,178.559L146.973,179.664L147.695,180.466L148.418,181.511L149.141,182.612L149.863,183.305L150.586,184.444L151.309,185.111L152.031,186.15L152.754,187.188L153.477,188.115L154.199,188.891L154.922,189.525L155.645,190.734L156.367,191.517L157.09,192.414L157.813,193.084L158.535,194.006L159.258,194.428L159.98,195.591L160.703,196.217L161.426,196.982L162.148,197.871L162.871,198.572L163.594,198.947L164.316,200.053L165.039,200.515L165.762,201.305L166.484,201.895L167.207,202.613L167.93,203.25L168.652,203.721L169.375,204.533L170.098,205.08L170.82,205.655L171.543,205.947L172.266,206.828L172.988,207.196L173.711,207.998L174.434,208.591L175.156,209.095L175.879,209.566L176.602,210.141L177.324,210.452L178.047,210.693L178.77,211.458L179.492,211.766L180.215,212.045L180.938,212.491L181.66,212.688L182.383,213.108L183.105,213.326L183.828,213.41L184.551,214.029L185.273,214.287L185.996,214.342L186.719,214.829L187.441,215.161L188.164,214.887L188.887,215.42L189.609,215.633L190.332,215.862L191.055,215.929L191.777,216.09L192.5,215.929L193.223,216.082L193.945,216.25L194.668,216.556L195.391,216.517L196.113,216.54L196.836,216.692L197.559,216.637L198.281,216.369L199.004,216.726L199.727,216.727L200.449,216.427L201.172,216.487L201.895,216.268L202.617,216.375L203.34,216.17L204.063,216.229L204.785,216.078L205.508,215.902L206.23,215.804L206.953,215.615L207.676,215.554L208.398,215.349L209.121,215.063L209.844,215.059L210.566,214.637L211.289,214.504L212.012,214.304L212.734,213.799L213.457,213.836L214.18,213.414L214.902,213.241L215.625,212.579L216.348,212.676L217.07,212.332L217.793,211.782L218.516,211.656L219.238,210.999L219.961,210.977L220.684,210.528L221.406,209.839L222.129,209.833L222.852,209.493L223.574,208.952L224.297,208.466L225.02,208.18L225.742,207.845L226.465,207.246L227.188,206.818L227.91,206.21L228.633,206.046L229.355,205.512L230.078,205.033L230.801,204.695L231.523,203.859L232.246,203.505L232.969,203.002L233.691,202.372L234.414,201.857L235.137,201.338L235.859,200.496L236.582,200.281L237.305,199.699L238.027,199.364L238.75,198.522L239.473,198.132L240.195,197.442L240.918,197.15L241.641,196.369L242.363,196.088L243.086,195.321L243.809,194.746L244.531,193.853L245.254,193.382L245.977,192.672L246.699,192.169L247.422,191.561L248.145,190.781L248.867,190.344L249.59,189.784L250.313,189.006L251.035,188.332L251.758,187.683L252.48,187.165L253.203,186.401L253.926,185.562L254.648,185.155L255.371,184.417L256.094,183.572L256.816,183.081L257.539,182.464L258.262,181.624L258.984,180.861L259.707,180.377L260.43,179.677L261.152,179.015L261.875,178.123L262.598,177.53L263.32,176.901L264.043,176.111L264.766,175.514L265.488,174.7L266.211,173.997L266.934,173.4L267.656,172.639L268.379,171.909L269.102,171.249L269.824,170.528L270.547,170.019L271.27,169.065L271.992,168.509L272.715,167.716L273.438,166.989L274.16,166.195L274.883,165.751L275.605,164.96L276.328,164.345L277.051,163.442L277.773,163.008L278.496,161.919L279.219,161.28L279.941,160.469L280.664,159.839L281.387,159.087L282.109,158.631L282.832,157.748L283.555,156.91L284.277,156.148L285,155.836L285.723,154.885L286.445,154.171L287.168,153.331L287.891,152.511L288.613,151.888L289.336,151.401L290.059,150.648L290.781,149.67L291.504,149.038L292.227,148.37L292.949,147.761L293.672,146.869L294.395,146.48L295.117,145.369L295.84,145.039L296.563,144.018L297.285,143.62L298.008,142.675L298.73,142.113L299.453,141.267L300.176,140.449L300.898,139.9L301.621,138.978L302.344,138.753L303.066,137.865L303.789,137.002L304.512,136.266L305.234,135.817L305.957,134.787L306.68,134.252L307.402,133.683L308.125,132.839L308.848,132.124L309.57,131.379L310.293,130.563L311.016,129.925L311.738,129.249L312.461,128.607L313.184,128.206L313.906,127.392L314.629,126.802L315.352,126.082L316.074,125.471L316.797,124.854L317.52,123.948L318.242,123.224L318.965,122.832L319.688,122.123L320.41,121.288L321.133,120.739L321.855,120.128L322.578,119.412L323.301,118.43L324.023,117.832L324.746,117.159L325.469,116.479L326.191,116.006L326.914,115.138L327.637,114.694L328.359,114.007L329.082,113.583L329.805,113.088L330.527,112.289L331.25,111.796L331.973,110.914L332.695,110.493L333.418,109.744L334.141,108.946L334.863,108.374L335.586,107.776L336.309,107.139L337.031,106.501L337.754,106.1L338.477,105.363L339.199,104.725L339.922,104.312L340.645,103.609L341.367,102.873L342.09,102.213L342.813,101.801L343.535,101.388L344.258,100.584L344.98,100.203L345.703,99.549L346.426,98.719L347.148,98.597L347.871,97.704L348.594,97.305L349.316,96.793L350.039,96.094L350.762,95.468L351.484,95.141L352.207,94.472L352.93,93.814L353.652,93.222L354.375,92.619L355.098,92.36L355.82,91.669L356.543,91.111L357.266,90.507L357.988,90.032L358.711,89.388L359.434,89.136L360.156,88.479L360.879,88.392L361.602,89.094L362.324,89.76L363.047,90.808L363.77,91.255L364.492,92.548L365.215,93.47L365.938,94.277L366.66,94.898L367.383,95.916L368.105,97.035L368.828,97.639L369.551,98.685L370.273,99.889L370.996,100.607L371.719,101.715L372.441,102.491L373.164,102.615L373.887,102.284L374.609,102.118L375.332,101.795L376.055,101.612L376.777,101.188L377.5,101.04L378.223,100.657L378.945,100.417L379.668,100.327L380.391,99.767L381.113,99.655L381.836,99.278L382.559,99.004L383.281,98.723L384.004,98.518L384.727,98.307L385.449,97.879L386.172,97.744L386.895,97.543L387.617,97.293L388.34,96.938L389.063,96.543L389.785,96.219L390.508,95.95L391.23,95.963L391.953,95.701L392.676,95.217L393.398,94.981L394.121,94.848L394.844,94.585L395.566,94.266L396.289,94.1L397.012,93.699L397.734,93.467L398.457,93.183L399.18,92.893L399.902,92.398L400.625,92.291L401.348,92.152L402.07,91.862L402.793,91.291L403.516,91.236L404.238,91.063L404.961,90.721L405.684,90.508L406.406,90.172L407.129,89.764L407.852,89.721L408.574,89.478L409.297,89.119L410.02,88.984L410.742,88.587L411.465,88.192L412.188,87.98L412.91,87.712L413.633,87.587L414.355,87.313L415.078,86.903L415.801,86.474L416.523,86.418L417.246,86.214L417.969,86.015L418.691,85.542L419.414,85.212L420.137,85.172L420.859,84.782L421.582,84.706L422.305,84.29L423.027,83.962L423.75,83.819L424.473,83.412L425.195,83.298L425.918,82.892L426.641,82.753L427.363,82.518L428.086,82.421L428.809,81.965L429.531,81.648L430.254,81.499L430.977,81.405L431.699,81.138L432.422,80.825L433.145,80.59L433.867,80.237L434.59,79.884L435.313,79.816L436.035,79.581L436.758,79.354L437.48,79.156L438.203,78.701L438.926,78.662L439.648,78.344L440.371,78.094L441.094,77.723L441.816,77.699L442.539,77.268L443.262,76.986L443.984,76.838L444.707,76.585L445.43,76.364L446.152,76.015L446.875,75.865L447.598,75.729L448.32,75.314L449.043,75.218L449.766,74.891L450.488,74.822L451.211,74.388L451.934,74.176L452.656,73.964L453.379,73.753L454.102,73.596L454.824,73.178L455.547,73.019L456.27,72.864L456.992,72.535L457.715,72.184L458.438,72.083L459.16,71.826L459.883,71.605L460.605,71.364L461.328,71.284L462.051,70.781L462.773,70.655L463.496,70.4L464.219,70.376L464.941,69.95L465.664,69.806L466.387,69.515L467.109,69.405L467.832,69.092L468.555,68.863L469.277,68.651"/><path fill="none" stroke="rgb(63, 243, 147)" stroke-width="1.5" d="M100,148.627L100.723,147.477L101.445,146.079L102.168,145.043L102.891,144.025L103.613,142.936L104.336,142.374L105.059,141.352L105.781,140.593L106.504,139.838L107.227,138.94L107.949,138.125L108.672,137.445L109.395,136.72L110.117,135.838L110.84,135.078L111.563,134.22L112.285,133.327L113.008,132.442L113.73,131.575L114.453,130.668L115.176,129.637L115.898,128.688L116.621,127.593L117.344,126.485L118.066,125.367L118.789,123.935L119.512,122.811L120.234,121.389L120.957,119.877L121.68,118.383L122.402,116.813L123.125,115.522L123.848,116.527L124.57,117.537L125.293,118.507L126.016,119.392L126.738,120.401L127.461,121.231L128.184,122.186L128.906,122.93L129.629,123.827L130.352,124.335L131.074,125.35L131.797,125.901L132.52,126.609L133.242,127.368L133.965,127.796L134.688,128.456L135.41,129.18L136.133,129.651L136.855,130.366L137.578,130.785L138.301,131.325L139.023,131.926L139.746,132.427L140.469,132.843L141.191,133.488L141.914,133.938L142.637,134.364L143.359,134.861L144.082,135.427L144.805,135.765L145.527,136.139L146.25,136.587L146.973,137.216L147.695,137.389L148.418,137.863L149.141,138.277L149.863,138.56L150.586,139.016L151.309,139.284L152.031,139.849L152.754,140.153L153.477,140.569L154.199,140.794L154.922,141.121L155.645,141.675L156.367,141.876L157.09,142.151L157.813,142.544L158.535,142.723L159.258,143.249L159.98,143.323L160.703,143.731L161.426,144.144L162.148,144.342L162.871,144.631L163.594,145.139L164.316,145.239L165.039,145.53L165.762,145.637L166.484,146.22L167.207,146.329L167.93,146.621L168.652,146.706L169.375,147.049L170.098,147.278L170.82,147.47L171.543,147.787L172.266,147.951L172.988,148.229L173.711,148.612L174.434,148.711L175.156,148.949L175.879,149.118L176.602,149.231L177.324,149.426L178.047,149.585L178.77,149.832L179.492,150L180.215,150.144L180.938,150.088L181.66,150.305L182.383,150.283L183.105,150.471L183.828,150.433L184.551,150.451L185.273,150.489L185.996,150.735L186.719,150.595L187.441,150.607L188.164,150.662L188.887,150.684L189.609,150.518L190.332,150.677L191.055,150.384L191.777,150.478L192.5,150.331L193.223,150.223L193.945,150.115L194.668,149.942L195.391,150.063L196.113,149.865L196.836,149.734L197.559,149.593L198.281,149.441L199.004,149.37L199.727,149.175L200.449,149.015L201.172,148.82L201.895,148.785L202.617,148.37L203.34,148.082L204.063,147.919L204.785,147.862L205.508,147.63L206.23,147.278L206.953,147.128L207.676,146.786L208.398,146.502L209.121,146.381L209.844,146.018L210.566,145.805L211.289,145.429L212.012,145.083L212.734,144.878L213.457,144.558L214.18,144.195L214.902,143.762L215.625,143.577L216.348,143.213L217.07,142.801L217.793,142.405L218.516,142.109L219.238,141.943L219.961,141.298L220.684,141.202L221.406,140.83L222.129,140.392L222.852,140.032L223.574,139.437L224.297,139.181L225.02,138.918L225.742,138.227L226.465,137.879L227.188,137.381L227.91,137.173L228.633,136.776L229.355,136.345L230.078,135.896L230.801,135.617L231.523,134.869L232.246,134.665L232.969,134.013L233.691,133.813L234.414,133.161L235.137,132.86L235.859,132.156L236.582,131.808L237.305,131.332L238.027,130.967L238.75,130.432L239.473,130.055L240.195,129.685L240.918,129.152L241.641,128.715L242.363,128.236L243.086,127.634L243.809,127.134L244.531,126.773L245.254,126.296L245.977,125.914L246.699,125.262L247.422,124.776L248.145,124.113L248.867,123.833L249.59,123.098L250.313,122.829L251.035,122.178L251.758,121.757L252.48,121.133L253.203,120.828L253.926,120.337L254.648,119.704L255.371,119.443L256.094,118.724L256.816,117.99L257.539,117.795L258.262,117.224L258.984,116.53L259.707,116.061L260.43,115.669L261.152,115.11L261.875,114.475L262.598,114.036L263.32,113.457L264.043,113.124L264.766,112.336L265.488,111.948L266.211,111.391L266.934,110.846L267.656,110.368L268.379,109.943L269.102,109.345L269.824,109.099L270.547,108.421L271.27,107.952L271.992,107.21L272.715,107.043L273.438,106.213L274.16,105.737L274.883,105.249L275.605,104.724L276.328,104.182L277.051,103.678L277.773,103.252L278.496,102.82L279.219,102.394L279.941,101.737L280.664,101.081L281.387,100.729L282.109,100.226L282.832,99.755L283.555,99.161L284.277,98.742L285,98.277L285.723,97.709L286.445,97.123L287.168,96.469L287.891,96.033L288.613,95.612L289.336,95.09L290.059,94.445L290.781,94.037L291.504,93.618L292.227,92.92L292.949,92.506L293.672,91.984L294.395,91.57L295.117,90.93L295.84,90.587L296.563,90.044L297.285,89.552L298.008,89.038L298.73,88.731L299.453,88.089L300.176,87.635L300.898,87.256L301.621,86.484L302.344,86.047L303.066,85.827L303.789,85.254L304.512,84.743L305.234,84.27L305.957,83.712L306.68,83.344L307.402,82.75L308.125,82.391L308.848,81.81L309.57,81.414L310.293,80.876L311.016,80.492L311.738,79.982L312.461,79.712L313.184,79.045L313.906,78.684L314.629,78.227L315.352,77.58L316.074,77.265L316.797,76.948L317.52,76.433L318.242,75.944L318.965,75.565L319.688,75.014L320.41,74.642L321.133,74.106L321.855,73.833L322.578,73.275L323.301,73.095L324.023,72.412L324.746,72.113L325.469,71.605L326.191,71.16L326.914,70.884L327.637,70.45L328.359,70.064L329.082,69.631L329.805,69.112L330.527,68.672L331.25,68.311L331.973,67.931L332.695,67.651L333.418,67.069L334.141,66.628L334.863,66.242L335.586,66.103L336.309,65.531L337.031,65.303L337.754,64.896L338.477,64.409L339.199,64.058L339.922,63.644L340.645,63.268L341.367,62.865L342.09,62.565L342.813,62.314L343.535,61.755L344.258,61.359L344.98,60.952L345.703,61.288L346.426,61.939L347.148,63.549L347.871,64.307L348.594,65.084L349.316,66.112L350.039,67.089L350.762,68.465L351.484,69.207L352.207,70.542L352.93,71.363L353.652,72.386L354.375,73.355L355.098,74.562L355.82,75.48L356.543,76.897L357.266,77.464L357.988,77.938L358.711,77.809L359.434,77.616L360.156,77.437L360.879,77.468L361.602,77.206L362.324,77.266L363.047,76.996L363.77,76.931L364.492,76.812L365.215,76.66L365.938,76.503L366.66,76.526L367.383,76.276L368.105,76.045L368.828,75.973L369.551,75.879L370.273,75.581L370.996,75.492L371.719,75.44L372.441,75.334L373.164,75.223L373.887,75.015L374.609,74.963L375.332,74.825L376.055,74.394L376.777,74.423L377.5,74.374L378.223,74.104L378.945,73.971L379.668,73.875L380.391,73.629L381.113,73.579L381.836,73.441L382.559,73.386L383.281,73.226L384.004,72.989L384.727,72.746L385.449,72.747L386.172,72.389L386.895,72.282L387.617,72.33L388.34,72.125L389.063,71.965L389.785,71.809L390.508,71.758L391.23,71.372L391.953,71.261L392.676,71.092L393.398,71.011L394.121,70.831L394.844,70.696L395.566,70.517L396.289,70.354L397.012,70.343L397.734,70.141L398.457,70.006L399.18,69.897L399.902,69.605L400.625,69.525L401.348,69.296L402.07,69.19L402.793,69.205L403.516,68.936L404.238,68.802L404.961,68.603L405.684,68.411L406.406,68.218L407.129,68.054L407.852,67.947L408.574,67.999L409.297,67.62L410.02,67.487L410.742,67.291L411.465,67.324L412.188,67.155L412.91,66.902L413.633,66.707L414.355,66.658L415.078,66.553L415.801,66.356L416.523,66.218L417.246,66.06L417.969,65.813L418.691,65.658L419.414,65.522L420.137,65.322L420.859,65.311L421.582,65.021L422.305,64.811L423.027,64.841L423.75,64.717L424.473,64.58L425.195,64.421L425.918,64.121L426.641,64.073L427.363,63.857L428.086,63.67L428.809,63.498L429.531,63.322L430.254,63.273L430.977,63.035L431.699,62.872L432.422,62.757L433.145,62.809L433.867,62.494L434.59,62.323L435.313,62.197L436.035,62.002L436.758,61.894L437.48,61.743L438.203,61.53L438.926,61.517L439.648,61.43L440.371,61.254L441.094,60.888L441.816,60.786L442.539,60.672L443.262,60.556L443.984,60.303L444.707,60.252L445.43,60.045L446.152,59.732L446.875,59.745L447.598,59.427L448.32,59.621L449.043,59.367L449.766,59.266L450.488,58.847L451.211,58.895L451.934,58.812L452.656,58.511L453.379,58.439L454.102,58.324L454.824,58.099L455.547,58.061L456.27,57.696L456.992,57.7L457.715,57.543L458.438,57.481L459.16,57.07L459.883,57.088L460.605,56.958L461.328,56.77L462.051,56.679L462.773,56.61L463.496,56.389L464.219,56.233L464.941,56.041L465.664,55.998L466.387,55.72L467.109,55.746L467.832,55.641L468.555,55.483L469.277,55.349"/><path fill="none" stroke="rgb(149, 251, 81)" stroke-width="1.5" d="M100,143.57L100.723,141.746L101.445,140.425L102.168,139.178L102.891,137.525L103.613,136.141L104.336,134.777L105.059,133.49L105.781,132.214L106.504,130.848L107.227,129.422L107.949,128.029L108.672,126.699L109.395,125.321L110.117,123.501L110.84,122.088L111.563,120.769L112.285,119.381L113.008,117.689L113.73,115.998L114.453,114.391L115.176,112.71L115.898,110.741L116.621,109.145L117.344,107.018L118.066,105.166L118.789,103.381L119.512,101.217L120.234,99.092L120.957,98.107L121.68,100.282L122.402,100.826L123.125,101.213L123.848,101.53L124.57,101.931L125.293,102.327L126.016,102.449L126.738,102.51L127.461,102.933L128.184,103.308L128.906,103.364L129.629,103.456L130.352,103.5L131.074,103.733L131.797,103.922L132.52,104.067L133.242,104.122L133.965,104.284L134.688,104.375L135.41,104.255L136.133,104.314L136.855,104.47L137.578,104.355L138.301,104.454L139.023,104.362L139.746,104.597L140.469,104.399L141.191,104.383L141.914,104.4L142.637,104.22L143.359,104.432L144.082,104.273L144.805,104.245L145.527,104.29L146.25,104.258L146.973,104.161L147.695,104.149L148.418,104.001L149.141,104.043L149.863,103.927L150.586,103.846L151.309,103.943L152.031,103.758L152.754,103.756L153.477,103.693L154.199,103.678L154.922,103.587L155.645,103.578L156.367,103.501L157.09,103.295L157.813,103.374L158.535,103.287L159.258,103.233L159.98,103.112L160.703,103.074L161.426,103.07L162.148,102.883L162.871,102.856L163.594,103.057L164.316,102.782L165.039,102.772L165.762,102.387L166.484,102.59L167.207,102.425L167.93,102.505L168.652,102.277L169.375,102.354L170.098,102.201L170.82,102.033L171.543,102.079L172.266,102.129L172.988,102.011L173.711,101.842L174.434,101.834L175.156,101.841L175.879,101.754L176.602,101.455L177.324,101.518L178.047,101.403L178.77,101.427L179.492,101.044L180.215,100.996L180.938,100.975L181.66,100.729L182.383,100.596L183.105,100.412L183.828,100.209L184.551,99.998L185.273,99.762L185.996,99.67L186.719,99.417L187.441,99.198L188.164,99.026L188.887,98.829L189.609,98.5L190.332,98.281L191.055,97.911L191.777,97.851L192.5,97.52L193.223,97.316L193.945,96.814L194.668,96.733L195.391,96.246L196.113,96.064L196.836,95.796L197.559,95.324L198.281,95.177L199.004,94.911L199.727,94.545L200.449,94.193L201.172,93.906L201.895,93.337L202.617,93.231L203.34,92.936L204.063,92.354L204.785,92.266L205.508,91.93L206.23,91.441L206.953,91.28L207.676,90.719L208.398,90.542L209.121,90.195L209.844,89.844L210.566,89.535L211.289,89.009L212.012,88.747L212.734,88.234L213.457,88.117L214.18,87.791L214.902,87.343L215.625,87.087L216.348,86.557L217.07,86.215L217.793,85.812L218.516,85.386L219.238,85.099L219.961,84.834L220.684,84.388L221.406,84.015L222.129,83.573L222.852,83.251L223.574,82.839L224.297,82.588L225.02,82.146L225.742,81.737L226.465,81.43L227.188,81.108L227.91,80.674L228.633,80.134L229.355,79.894L230.078,79.55L230.801,79.145L231.523,78.754L232.246,78.294L232.969,77.897L233.691,77.557L234.414,77.115L235.137,76.781L235.859,76.608L236.582,76.156L237.305,75.817L238.027,75.402L238.75,75.036L239.473,74.701L240.195,74.307L240.918,73.812L241.641,73.554L242.363,73.179L243.086,72.714L243.809,72.418L244.531,72.118L245.254,71.822L245.977,71.193L246.699,70.888L247.422,70.593L248.145,70.291L248.867,69.812L249.59,69.559L250.313,69.235L251.035,68.764L251.758,68.523L252.48,68.056L253.203,67.693L253.926,67.322L254.648,67.03L255.371,66.57L256.094,66.267L256.816,65.95L257.539,65.487L258.262,65.092L258.984,64.879L259.707,64.377L260.43,64.127L261.152,63.673L261.875,63.448L262.598,62.979L263.32,62.703L264.043,62.363L264.766,61.994L265.488,61.662L266.211,61.309L266.934,60.985L267.656,60.693L268.379,60.142L269.102,59.817L269.824,59.522L270.547,59.203L271.27,58.831L271.992,58.658L272.715,58.198L273.438,57.791L274.16,57.492L274.883,57.102L275.605,56.884L276.328,56.601L277.051,56.356L277.773,55.825L278.496,55.555L279.219,55.299L279.941,54.914L280.664,54.625L281.387,54.334L282.109,53.928L282.832,53.679L283.555,53.429L284.277,53.053L285,52.752L285.723,52.38L286.445,52.122L287.168,51.802L287.891,51.345L288.613,51.093L289.336,50.734L290.059,50.564L290.781,50.261L291.504,49.929L292.227,49.617L292.949,49.419L293.672,49.014L294.395,48.728L295.117,48.352L295.84,48.049L296.563,47.828L297.285,47.507L298.008,47.141L298.73,47.003L299.453,46.787L300.176,46.463L300.898,46.235L301.621,45.854L302.344,45.568L303.066,45.284L303.789,44.991L304.512,44.752L305.234,44.442L305.957,44.185L306.68,43.799L307.402,43.665L308.125,43.42L308.848,43.128L309.57,42.903L310.293,42.635L311.016,42.353L311.738,42.238L312.461,41.787L313.184,41.591L313.906,41.324L314.629,40.971L315.352,40.822L316.074,40.504L316.797,40.313L317.52,40.029L318.242,39.782L318.965,39.539L319.688,39.349L320.41,39.467L321.133,40.45L321.855,41.413L322.578,42.751L323.301,43.818L324.023,44.656L324.746,45.799L325.469,46.828L326.191,47.987L326.914,49.318L327.637,50.31L328.359,51.321L329.082,52.936L329.805,53.826L330.527,54.801L331.25,56.67L331.973,57.131L332.695,58.188L333.418,58.322L334.141,58.233L334.863,58.166L335.586,58.183L336.309,58.207L337.031,58.221L337.754,58.162L338.477,58.248L339.199,58.138L339.922,58.067L340.645,58.007L341.367,57.976L342.09,58.032L342.813,58.009L343.535,58.003L344.258,57.861L344.98,57.922L345.703,57.883L346.426,57.883L347.148,57.745L347.871,57.748L348.594,57.644L349.316,57.767L350.039,57.587L350.762,57.645L351.484,57.577L352.207,57.595L352.93,57.468L353.652,57.405L354.375,57.49L355.098,57.406L355.82,57.329L356.543,57.318L357.266,57.377L357.988,57.126L358.711,57.123L359.434,57.128L360.156,57.078L360.879,57.051L361.602,57.089L362.324,56.826L363.047,56.943L363.77,56.824L364.492,56.78L365.215,56.738L365.938,56.698L366.66,56.61L367.383,56.549L368.105,56.498L368.828,56.495L369.551,56.379L370.273,56.357L370.996,56.306L371.719,56.258L372.441,56.177L373.164,56.064L373.887,56.05L374.609,55.997L375.332,55.869L376.055,55.87L376.777,55.959L377.5,55.764L378.223,55.621L378.945,55.603L379.668,55.546L380.391,55.474L381.113,55.493L381.836,55.337L382.559,55.303L383.281,55.27L384.004,55.077L384.727,55.046L385.449,55.03L386.172,55.004L386.895,54.928L387.617,54.789L388.34,54.762L389.063,54.708L389.785,54.632L390.508,54.637L391.23,54.526L391.953,54.437L392.676,54.421L393.398,54.293L394.121,54.216L394.844,54.093L395.566,54.062L396.289,53.946L397.012,54.011L397.734,53.828L398.457,53.652L399.18,53.692L399.902,53.667L400.625,53.546L401.348,53.542L402.07,53.333L402.793,53.354L403.516,53.248L404.238,53.262L404.961,53.097L405.684,53.128L406.406,52.914L407.129,52.869L407.852,52.856L408.574,52.691L409.297,52.55L410.02,52.572L410.742,52.396L411.465,52.362L412.188,52.225L412.91,52.25L413.633,52.077L414.355,52.069L415.078,51.944L415.801,51.858L416.523,51.912L417.246,51.781L417.969,51.567L418.691,51.515L419.414,51.572L420.137,51.496L420.859,51.33L421.582,51.161L422.305,51.26L423.027,51.101L423.75,51.034L424.473,50.91L425.195,50.871L425.918,50.815L426.641,50.756L427.363,50.709L428.086,50.547L428.809,50.404L429.531,50.362L430.254,50.235L430.977,50.134L431.699,50.103L432.422,50.002L433.145,49.952L433.867,49.871L434.59,49.743L435.313,49.674L436.035,49.579L436.758,49.5L437.48,49.427L438.203,49.433L438.926,49.216L439.648,49.158L440.371,49.134L441.094,48.998L441.816,49.026L442.539,48.909L443.262,48.726L443.984,48.699L444.707,48.561L445.43,48.435L446.152,48.414L446.875,48.263L447.598,48.378L448.32,48.152L449.043,48.019L449.766,48.061L450.488,47.976L451.211,47.87L451.934,47.739L452.656,47.568L453.379,47.56L454.102,47.5L454.824,47.413L455.547,47.191L456.27,47.217L456.992,47.201L457.715,47.097L458.438,46.952L459.16,46.953L459.883,46.975L460.605,46.7L461.328,46.584L462.051,46.66L462.773,46.47L463.496,46.546L464.219,46.395L464.941,46.255L465.664,46.133L466.387,45.982L467.109,46.065L467.832,45.876L468.555,45.711L469.277,45.673"/><path fill="none" stroke="rgb(236, 209, 46)" stroke-width="1.5" d="M100,136.559L100.723,135.319L101.445,133.735L102.168,132.026L102.891,130.297L103.613,128.679L104.336,126.822L105.059,125.013L105.781,123.278L106.504,121.501L107.227,119.705L107.949,118.027L108.672,116.028L109.395,114.427L110.117,112.569L110.84,110.76L111.563,108.875L112.285,106.711L113.008,104.813L113.73,102.79L114.453,100.521L115.176,98.108L115.898,95.917L116.621,93.547L117.344,91.35L118.066,93.408L118.789,94.088L119.512,94.035L120.234,94.102L120.957,93.94L121.68,93.988L122.402,93.705L123.125,93.711L123.848,93.385L124.57,93.175L125.293,93.03L126.016,92.911L126.738,92.565L127.461,92.52L128.184,92.214L128.906,91.804L129.629,91.711L130.352,91.22L131.074,90.849L131.797,90.608L132.52,90.121L133.242,89.787L133.965,89.526L134.688,89.186L135.41,88.956L136.133,88.686L136.855,88.154L137.578,87.809L138.301,87.485L139.023,87.173L139.746,86.593L140.469,86.353L141.191,85.955L141.914,85.661L142.637,85.187L143.359,84.802L144.082,84.613L144.805,84.11L145.527,83.565L146.25,83.214L146.973,82.984L147.695,82.545L148.418,82.301L149.141,81.782L149.863,81.481L150.586,81.19L151.309,80.911L152.031,80.406L152.754,79.999L153.477,79.569L154.199,79.227L154.922,78.929L155.645,78.523L156.367,78.295L157.09,77.71L157.813,77.448L158.535,77.161L159.258,76.717L159.98,76.524L160.703,76.173L161.426,75.588L162.148,75.341L162.871,74.866L163.594,74.681L164.316,74.249L165.039,73.961L165.762,73.685L166.484,73.295L167.207,72.877L167.93,72.472L168.652,72.365L169.375,72.039L170.098,71.65L170.82,71.319L171.543,71.067L172.266,70.743L172.988,70.346L173.711,70.054L174.434,69.724L175.156,69.533L175.879,69.258L176.602,68.867L177.324,68.509L178.047,68.175L178.77,67.937L179.492,67.495L180.215,67.039L180.938,66.841L181.66,66.357L182.383,65.882L183.105,65.401L183.828,65.098L184.551,64.615L185.273,64.272L185.996,63.834L186.719,63.358L187.441,62.962L188.164,62.345L188.887,62.079L189.609,61.547L190.332,60.935L191.055,60.467L191.777,60.011L192.5,59.59L193.223,58.957L193.945,58.51L194.668,58.106L195.391,57.591L196.113,57.159L196.836,56.677L197.559,56.175L198.281,55.806L199.004,55.153L199.727,54.676L200.449,54.218L201.172,53.698L201.895,53.14L202.617,52.768L203.34,52.269L204.063,51.701L204.785,51.323L205.508,50.699L206.23,50.383L206.953,49.767L207.676,49.222L208.398,48.957L209.121,48.45L209.844,47.84L210.566,47.448L211.289,46.985L212.012,46.516L212.734,46.062L213.457,45.616L214.18,45.179L214.902,44.652L215.625,44.237L216.348,43.735L217.07,43.369L217.793,42.923L218.516,42.393L219.238,41.96L219.961,41.487L220.684,41.193L221.406,40.844L222.129,40.354L222.852,39.918L223.574,39.435L224.297,39.133L225.02,38.674L225.742,38.293L226.465,37.89L227.188,37.449L227.91,37.126L228.633,36.727L229.355,36.336L230.078,35.996L230.801,35.59L231.523,35.207L232.246,34.819L232.969,34.548L233.691,34.147L234.414,33.772L235.137,33.42L235.859,33.141L236.582,32.769L237.305,32.367L238.027,32.006L238.75,31.715L239.473,31.356L240.195,31.08L240.918,30.729L241.641,30.361L242.363,30.188L243.086,29.932L243.809,29.562L244.531,29.195L245.254,28.923L245.977,28.602L246.699,28.264L247.422,28.124L248.145,27.767L248.867,27.518L249.59,27.293L250.313,27.019L251.035,26.724L251.758,26.487L252.48,26.131L253.203,25.873L253.926,25.587L254.648,25.46L255.371,25.144L256.094,24.921L256.816,24.694L257.539,24.484L258.262,24.259L258.984,23.984L259.707,23.72L260.43,23.488L261.152,23.297L261.875,23.122L262.598,22.84L263.32,22.697L264.043,22.474L264.766,22.221L265.488,22.129L266.211,21.83L266.934,21.621L267.656,21.479L268.379,21.254L269.102,21.092L269.824,20.906L270.547,20.714L271.27,20.534L271.992,20.355L272.715,20.227L273.438,20L274.16,20.296L274.883,21.245L275.605,22.205L276.328,23.498L277.051,24.127L277.773,25.124L278.496,26.406L279.219,27.243L279.941,28.432L280.664,29.098L281.387,30.399L282.109,31.425L282.832,32.432L283.555,33.489L284.277,34.245L285,35.289L285.723,36.756L286.445,37.269L287.168,38.68L287.891,39.751L288.613,40.084L289.336,40.054L290.059,40.14L290.781,40.213L291.504,40.18L292.227,40.23L292.949,40.309L293.672,40.363L294.395,40.352L295.117,40.393L295.84,40.48L296.563,40.547L297.285,40.506L298.008,40.574L298.73,40.695L299.453,40.657L300.176,40.669L300.898,40.662L301.621,40.879L302.344,40.837L303.066,40.873L303.789,40.942L304.512,40.991L305.234,41.003L305.957,41.022L306.68,41.048L307.402,41.122L308.125,41.155L308.848,41.257L309.57,41.258L310.293,41.333L311.016,41.322L311.738,41.414L312.461,41.448L313.184,41.476L313.906,41.459L314.629,41.55L315.352,41.535L316.074,41.648L316.797,41.635L317.52,41.567L318.242,41.669L318.965,41.725L319.688,41.793L320.41,41.782L321.133,41.742L321.855,41.819L322.578,41.808L323.301,41.902L324.023,41.976L324.746,41.912L325.469,42.041L326.191,42.05L326.914,42.052L327.637,42.046L328.359,42.071L329.082,42.103L329.805,42.244L330.527,42.157L331.25,42.208L331.973,42.297L332.695,42.265L333.418,42.209L334.141,42.257L334.863,42.294L335.586,42.305L336.309,42.304L337.031,42.306L337.754,42.323L338.477,42.393L339.199,42.454L339.922,42.394L340.645,42.394L341.367,42.423L342.09,42.41L342.813,42.444L343.535,42.446L344.258,42.472L344.98,42.421L345.703,42.405L346.426,42.509L347.148,42.534L347.871,42.537L348.594,42.503L349.316,42.573L350.039,42.525L350.762,42.559L351.484,42.492L352.207,42.543L352.93,42.522L353.652,42.423L354.375,42.592L355.098,42.538L355.82,42.517L356.543,42.558L357.266,42.609L357.988,42.481L358.711,42.511L359.434,42.478L360.156,42.472L360.879,42.514L361.602,42.425L362.324,42.433L363.047,42.477L363.77,42.525L364.492,42.476L365.215,42.411L365.938,42.457L366.66,42.417L367.383,42.446L368.105,42.411L368.828,42.421L369.551,42.367L370.273,42.434L370.996,42.347L371.719,42.444L372.441,42.268L373.164,42.279L373.887,42.299L374.609,42.311L375.332,42.29L376.055,42.314L376.777,42.279L377.5,42.374L378.223,42.183L378.945,42.146L379.668,42.17L380.391,42.131L381.113,42.122L381.836,42.13L382.559,42.087L383.281,42.161L384.004,42.039L384.727,41.999L385.449,41.975L386.172,42.017L386.895,41.91L387.617,41.99L388.34,41.886L389.063,41.894L389.785,41.801L390.508,41.836L391.23,41.837L391.953,41.752L392.676,41.7L393.398,41.714L394.121,41.694L394.844,41.646L395.566,41.647L396.289,41.615L397.012,41.587L397.734,41.58L398.457,41.549L399.18,41.478L399.902,41.383L400.625,41.378L401.348,41.372L402.07,41.305L402.793,41.34L403.516,41.202L404.238,41.285L404.961,41.257L405.684,41.187L406.406,41.258L407.129,41.149L407.852,41.024L408.574,41.078L409.297,41.047L410.02,40.997L410.742,40.976L411.465,40.883L412.188,40.895L412.91,40.855L413.633,40.82L414.355,40.777L415.078,40.777L415.801,40.666L416.523,40.641L417.246,40.595L417.969,40.512L418.691,40.553L419.414,40.438L420.137,40.475L420.859,40.341L421.582,40.449L422.305,40.401L423.027,40.315L423.75,40.24L424.473,40.22L425.195,40.24L425.918,40.197L426.641,40.13L427.363,40.104L428.086,40.008L428.809,39.968L429.531,39.99L430.254,39.893L430.977,39.904L431.699,39.87L432.422,39.737L433.145,39.798L433.867,39.664L434.59,39.67L435.313,39.688L436.035,39.635L436.758,39.488L437.48,39.456L438.203,39.488L438.926,39.394L439.648,39.388L440.371,39.372L441.094,39.286L441.816,39.268L442.539,39.125L443.262,39.159L443.984,39.119L444.707,39.075L445.43,39.001L446.152,38.919L446.875,38.89L447.598,38.828L448.32,38.798L449.043,38.765L449.766,38.826L450.488,38.68L451.211,38.622L451.934,38.596L452.656,38.534L453.379,38.555L454.102,38.474L454.824,38.471L455.547,38.472L456.27,38.387L456.992,38.313L457.715,38.227L458.438,38.185L459.16,38.178L459.883,38.121L460.605,38.08L461.328,38.029L462.051,37.926L462.773,37.888L463.496,37.881L464.219,37.831L464.941,37.823L465.664,37.858L466.387,37.687L467.109,37.657L467.832,37.693L468.555,37.542L469.277,37.564"/><path fill="none" stroke="rgb(255, 130, 29)" stroke-width="1.5" d="M100,132.407L100.723,131.16L101.445,129.486L102.168,127.507L102.891,125.757L103.613,123.758L104.336,121.809L105.059,119.947L105.781,117.886L106.504,116.119L107.227,113.949L107.949,112.153L108.672,110.133L109.395,107.948L110.117,106.076L110.84,103.935L111.563,101.759L112.285,99.594L113.008,97.17L113.73,94.713L114.453,92.173L115.176,89.624L115.898,92.134L116.621,92.038L117.344,91.703L118.066,91.482L118.789,91.186L119.512,90.795L120.234,90.134L120.957,89.951L121.68,89.428L122.402,89.206L123.125,88.718L123.848,88.162L124.57,87.621L125.293,87.217L126.016,86.752L126.738,86.148L127.461,85.587L128.184,85.091L128.906,84.496L129.629,83.974L130.352,83.311L131.074,82.986L131.797,82.462L132.52,81.796L133.242,81.047L133.965,80.63L134.688,80.013L135.41,79.3L136.133,78.918L136.855,78.165L137.578,77.716L138.301,77.1L139.023,76.515L139.746,75.997L140.469,75.315L141.191,74.873L141.914,74.236L142.637,73.589L143.359,73.11L144.082,72.48L144.805,71.823L145.527,71.326L146.25,70.664L146.973,70.215L147.695,69.562L148.418,69.029L149.141,68.406L149.863,67.85L150.586,67.344L151.309,66.638L152.031,66.064L152.754,65.441L153.477,65.053L154.199,64.581L154.922,63.917L155.645,63.407L156.367,62.993L157.09,62.353L157.813,61.694L158.535,61.162L159.258,60.647L159.98,60.135L160.703,59.625L161.426,59.096L162.148,58.502L162.871,57.957L163.594,57.587L164.316,56.87L165.039,56.592L165.762,56.049L166.484,55.589L167.207,55.043L167.93,54.577L168.652,53.94L169.375,53.477L170.098,53.115L170.82,52.642L171.543,52.176L172.266,51.653L172.988,51.283L173.711,50.762L174.434,50.329L175.156,49.895L175.879,49.415L176.602,48.967L177.324,48.42L178.047,48.05L178.77,47.585L179.492,47.099L180.215,46.649L180.938,46.077L181.66,45.63L182.383,45.153L183.105,44.604L183.828,44.047L184.551,43.562L185.273,43.01L185.996,42.586L186.719,41.997L187.441,41.481L188.164,40.979L188.887,40.426L189.609,40.04L190.332,39.394L191.055,38.936L191.777,38.361L192.5,37.941L193.223,37.437L193.945,36.935L194.668,36.425L195.391,35.846L196.113,35.426L196.836,34.975L197.559,34.479L198.281,33.928L199.004,33.386L199.727,32.939L200.449,32.406L201.172,31.939L201.895,31.506L202.617,31.113L203.34,30.589L204.063,30.094L204.785,29.62L205.508,29.124L206.23,28.785L206.953,28.298L207.676,27.764L208.398,27.324L209.121,26.955L209.844,26.454L210.566,26.088L211.289,25.675L212.012,25.274L212.734,24.742L213.457,24.431L214.18,24.041L214.902,23.603L215.625,23.321L216.348,25.245L217.07,27.264L217.793,29.377L218.516,30.799L219.238,32.945L219.961,34.639L220.684,36.829L221.406,38.6L222.129,40.321L222.852,41.88L223.574,42.511L224.297,42.439L225.02,42.471L225.742,42.487L226.465,42.439L227.188,42.385L227.91,42.322L228.633,42.332L229.355,42.264L230.078,42.266L230.801,42.248L231.523,42.208L232.246,42.146L232.969,42.062L233.691,42L234.414,41.983L235.137,41.925L235.859,41.861L236.582,41.84L237.305,41.829L238.027,41.706L238.75,41.662L239.473,41.616L240.195,41.604L240.918,41.543L241.641,41.474L242.363,41.428L243.086,41.354L243.809,41.284L244.531,41.248L245.254,41.071L245.977,41.073L246.699,41.029L247.422,40.852L248.145,40.837L248.867,40.776L249.59,40.717L250.313,40.573L251.035,40.572L251.758,40.529L252.48,40.416L253.203,40.287L253.926,40.272L254.648,40.193L255.371,40.13L256.094,40.03L256.816,39.874L257.539,39.894L258.262,39.747L258.984,39.711L259.707,39.649L260.43,39.515L261.152,39.431L261.875,39.357L262.598,39.29L263.32,39.22L264.043,39.158L264.766,39.027L265.488,38.978L266.211,38.922L266.934,38.756L267.656,38.7L268.379,38.598L269.102,38.595L269.824,38.568L270.547,38.386L271.27,38.298L271.992,38.213L272.715,38.176L273.438,38.133L274.16,38.022L274.883,37.966L275.605,37.835L276.328,37.751L277.051,37.712L277.773,37.584L278.496,37.514L279.219,37.444L279.941,37.298L280.664,37.308L281.387,37.192L282.109,37.114L282.832,36.952L283.555,36.949L284.277,36.898L285,36.785L285.723,36.694L286.445,36.578L287.168,36.571L287.891,36.529L288.613,36.429L289.336,36.295L290.059,36.258L290.781,36.17L291.504,36.117L292.227,36.059L292.949,35.95L293.672,35.907L294.395,35.812L295.117,35.734L295.84,35.686L296.563,35.61L297.285,35.562L298.008,35.485L298.73,35.444L299.453,35.338L300.176,35.285L300.898,35.192L301.621,35.168L302.344,35.083L303.066,35.006L303.789,34.975L304.512,34.879L305.234,34.842L305.957,34.711L306.68,34.619L307.402,34.599L308.125,34.491L308.848,34.473L309.57,34.504L310.293,34.444L311.016,34.318L311.738,34.236L312.461,34.209L313.184,34.153L313.906,34.086L314.629,34.073L315.352,33.899L316.074,33.955L316.797,33.861L317.52,33.791L318.242,33.746L318.965,33.67L319.688,33.65L320.41,33.591L321.133,33.555L321.855,33.5L322.578,33.434L323.301,33.403L324.023,33.296L324.746,33.347L325.469,33.248L326.191,33.167L326.914,33.115L327.637,33.125L328.359,33.091L329.082,33.02L329.805,33.003L330.527,32.942L331.25,32.805L331.973,32.919L332.695,32.752L333.418,32.785L334.141,32.698L334.863,32.702L335.586,32.623L336.309,32.654L337.031,32.585L337.754,32.508L338.477,32.446L339.199,32.476L339.922,32.428L340.645,32.386L341.367,32.317L342.09,32.24L342.813,32.28L343.535,32.211L344.258,32.218L344.98,32.149L345.703,32.067L346.426,32.027L347.148,32.036L347.871,32.002L348.594,32L349.316,31.998L350.039,31.943L350.762,31.883L351.484,31.849L352.207,31.866L352.93,31.807L353.652,31.749L354.375,31.706L355.098,31.689L355.82,31.711L356.543,31.672L357.266,31.695L357.988,31.643L358.711,31.609L359.434,31.503L360.156,31.463L360.879,31.449L361.602,31.477L362.324,31.471L363.047,31.429L363.77,31.37L364.492,31.372L365.215,31.356L365.938,31.272L366.66,31.335L367.383,31.285L368.105,31.231L368.828,31.204L369.551,31.197L370.273,31.188L370.996,31.152L371.719,31.143L372.441,31.125L373.164,31.133L373.887,31.047L374.609,30.996L375.332,31.014L376.055,31.059L376.777,30.965L377.5,31.004L378.223,30.979L378.945,30.963L379.668,30.903L380.391,30.866L381.113,30.899L381.836,30.88L382.559,30.841L383.281,30.796L384.004,30.778L384.727,30.813L385.449,30.796L386.172,30.744L386.895,30.787L387.617,30.727L388.34,30.695L389.063,30.727L389.785,30.657L390.508,30.638L391.23,30.638L391.953,30.665L392.676,30.602L393.398,30.616L394.121,30.645L394.844,30.552L395.566,30.538L396.289,30.514L397.012,30.591L397.734,30.59L398.457,30.434L399.18,30.494L399.902,30.492L400.625,30.474L401.348,30.493L402.07,30.413L402.793,30.482L403.516,30.401L404.238,30.368L404.961,30.392L405.684,30.364L406.406,30.385L407.129,30.334L407.852,30.332L408.574,30.325L409.297,30.286L410.02,30.286L410.742,30.325L411.465,30.267L412.188,30.257L412.91,30.282L413.633,30.24L414.355,30.261L415.078,30.247L415.801,30.202L416.523,30.174L417.246,30.182L417.969,30.217L418.691,30.169L419.414,30.189L420.137,30.204L420.859,30.119L421.582,30.117L422.305,30.133L423.027,30.082L423.75,30.052L424.473,30.074L425.195,30.085L425.918,30.088L426.641,30.034L427.363,30.065L428.086,30.009L428.809,29.951L429.531,29.965L430.254,29.948L430.977,29.944L431.699,29.926L432.422,29.925L433.145,29.972L433.867,29.879L434.59,29.94L435.313,29.882L436.035,29.904L436.758,29.881L437.48,29.872L438.203,29.833L438.926,29.844L439.648,29.81L440.371,29.809L441.094,29.806L441.816,29.781L442.539,29.771L443.262,29.759L443.984,29.77L444.707,29.78L445.43,29.691L446.152,29.745L446.875,29.718L447.598,29.696L448.32,29.718L449.043,29.656L449.766,29.599L450.488,29.653L451.211,29.666L451.934,29.593L452.656,29.553L453.379,29.544L454.102,29.574L454.824,29.52L455.547,29.587L456.27,29.533L456.992,29.489L457.715,29.536L458.438,29.466L459.16,29.462L459.883,29.504L460.605,29.473L461.328,29.438L462.051,29.483L462.773,29.43L463.496,29.345L464.219,29.378L464.941,29.409L465.664,29.335L466.387,29.338L467.109,29.296L467.832,29.306L468.555,29.315L469.277,29.278"/><path fill="none" stroke="rgb(203, 47, 13)" stroke-width="1.5" d="M100,131.103L100.723,129.892L101.445,128.008L102.168,126.13L102.891,124.348L103.613,122.274L104.336,120.139L105.059,118.23L105.781,116.306L106.504,114.335L107.227,112.132L107.949,110.254L108.672,108.049L109.395,106.281L110.117,104.274L110.84,101.737L111.563,99.801L112.285,97.348L113.008,94.55L113.73,92.053L114.453,89.361L115.176,91.768L115.898,91.532L116.621,91.138L117.344,90.772L118.066,90.313L118.789,89.858L119.512,89.208L120.234,88.834L120.957,88.417L121.68,87.852L122.402,87.233L123.125,86.569L123.848,85.941L124.57,85.523L125.293,84.915L126.016,84.243L126.738,83.843L127.461,83.09L128.184,82.359L128.906,81.895L129.629,81.275L130.352,80.728L131.074,79.792L131.797,79.316L132.52,78.656L133.242,78.061L133.965,77.317L134.688,76.704L135.41,76.155L136.133,75.429L136.855,74.761L137.578,73.974L138.301,73.396L139.023,72.57L139.746,72.051L140.469,71.504L141.191,70.759L141.914,70.091L142.637,69.472L143.359,68.792L144.082,68.168L144.805,67.423L145.527,66.796L146.25,66.287L146.973,65.622L147.695,65.006L148.418,64.313L149.141,63.675L149.863,62.968L150.586,62.508L151.309,61.767L152.031,61.106L152.754,60.554L153.477,59.821L154.199,59.312L154.922,58.736L155.645,58.063L156.367,57.371L157.09,56.952L157.813,56.308L158.535,55.631L159.258,55.015L159.98,54.454L160.703,53.823L161.426,53.179L162.148,52.708L162.871,52.179L163.594,51.545L164.316,51.01L165.039,50.395L165.762,49.903L166.484,49.274L167.207,48.696L167.93,48.115L168.652,47.667L169.375,46.977L170.098,46.407L170.82,45.971L171.543,45.394L172.266,44.88L172.988,44.342L173.711,43.878L174.434,43.353L175.156,42.717L175.879,42.283L176.602,41.726L177.324,41.217L178.047,40.725L178.77,40.255L179.492,39.689L180.215,39.13L180.938,38.451L181.66,38.05L182.383,37.373L183.105,36.987L183.828,36.425L184.551,35.819L185.273,35.387L185.996,34.834L186.719,34.301L187.441,33.746L188.164,33.182L188.887,32.691L189.609,32.071L190.332,31.63L191.055,31.086L191.777,30.584L192.5,29.977L193.223,29.364L193.945,28.881L194.668,28.379L195.391,27.922L196.113,27.355L196.836,26.795L197.559,26.33L198.281,26.489L199.004,29.321L199.727,32.347L200.449,35.812L201.172,38.932L201.895,42.89L202.617,45.903L203.34,46.071L204.063,46.122L204.785,46.316L205.508,46.414L206.23,46.525L206.953,46.759L207.676,46.793L208.398,46.979L209.121,47.015L209.844,47.074L210.566,47.227L211.289,47.278L212.012,47.301L212.734,47.501L213.457,47.608L214.18,47.62L214.902,47.605L215.625,47.763L216.348,47.785L217.07,47.818L217.793,47.965L218.516,47.843L219.238,48.091L219.961,48.084L220.684,48.144L221.406,48.243L222.129,48.178L222.852,48.183L223.574,48.289L224.297,48.261L225.02,48.415L225.742,48.306L226.465,48.355L227.188,48.362L227.91,48.419L228.633,48.458L229.355,48.461L230.078,48.425L230.801,48.523L231.523,48.37L232.246,48.442L232.969,48.385L233.691,48.39L234.414,48.427L235.137,48.397L235.859,48.318L236.582,48.33L237.305,48.323L238.027,48.268L238.75,48.347L239.473,48.341L240.195,48.255L240.918,48.22L241.641,48.256L242.363,48.177L243.086,48.143L243.809,48.116L244.531,48.02L245.254,48.055L245.977,47.919L246.699,47.991L247.422,47.792L248.145,47.9L248.867,47.747L249.59,47.784L250.313,47.67L251.035,47.572L251.758,47.614L252.48,47.573L253.203,47.481L253.926,47.434L254.648,47.306L255.371,47.374L256.094,47.187L256.816,47.151L257.539,47.07L258.262,47.063L258.984,46.949L259.707,46.965L260.43,46.898L261.152,46.787L261.875,46.76L262.598,46.671L263.32,46.568L264.043,46.487L264.766,46.446L265.488,46.336L266.211,46.318L266.934,46.303L267.656,46.075L268.379,46.09L269.102,45.892L269.824,45.894L270.547,45.844L271.27,45.769L271.992,45.699L272.715,45.588L273.438,45.446L274.16,45.406L274.883,45.308L275.605,45.281L276.328,45.188L277.051,45.045L277.773,45.034L278.496,44.963L279.219,44.847L279.941,44.749L280.664,44.673L281.387,44.569L282.109,44.497L282.832,44.445L283.555,44.278L284.277,44.215L285,44.114L285.723,44.052L286.445,43.997L287.168,43.9L287.891,43.751L288.613,43.745L289.336,43.606L290.059,43.489L290.781,43.454L291.504,43.36L292.227,43.254L292.949,43.157L293.672,42.982L294.395,42.945L295.117,42.862L295.84,42.833L296.563,42.62L297.285,42.569L298.008,42.497L298.73,42.347L299.453,42.345L300.176,42.125L300.898,42.111L301.621,42.102L302.344,41.901L303.066,41.807L303.789,41.732L304.512,41.672L305.234,41.528L305.957,41.476L306.68,41.401L307.402,41.266L308.125,41.185L308.848,41.047L309.57,40.953L310.293,40.877L311.016,40.88L311.738,40.76L312.461,40.68L313.184,40.525L313.906,40.53L314.629,40.441L315.352,40.258L316.074,40.182L316.797,40.188L317.52,40.017L318.242,39.897L318.965,39.795L319.688,39.782L320.41,39.718L321.133,39.517L321.855,39.485L322.578,39.377L323.301,39.281L324.023,39.234L324.746,39.142L325.469,39.082L326.191,38.869L326.914,38.879L327.637,38.766L328.359,38.612L329.082,38.557L329.805,38.523L330.527,38.38L331.25,38.345L331.973,38.084L332.695,38.119L333.418,37.96L334.141,38.016L334.863,37.9L335.586,37.781L336.309,37.743L337.031,37.654L337.754,37.494L338.477,37.425L339.199,37.336L339.922,37.316L340.645,37.194L341.367,37.088L342.09,37.027L342.813,36.963L343.535,36.836L344.258,36.761L344.98,36.578L345.703,36.603L346.426,36.591L347.148,36.365L347.871,36.399L348.594,36.232L349.316,36.229L350.039,36.082L350.762,36.013L351.484,35.94L352.207,35.872L352.93,35.825L353.652,35.636L354.375,35.648L355.098,35.54L355.82,35.438L356.543,35.371L357.266,35.271L357.988,35.267L358.711,35.102L359.434,35.092L360.156,35.094L360.879,34.925L361.602,34.948L362.324,34.709L363.047,34.743L363.77,34.584L364.492,34.566L365.215,34.417L365.938,34.386L366.66,34.223L367.383,34.21L368.105,34.089L368.828,34.011L369.551,33.98L370.273,33.901L370.996,33.87L371.719,33.8L372.441,33.745L373.164,33.56L373.887,33.54L374.609,33.508L375.332,33.403L376.055,33.441L376.777,33.302L377.5,33.288L378.223,33.156L378.945,33.072L379.668,32.931L380.391,32.927L381.113,32.866L381.836,32.789L382.559,32.747L383.281,32.675L384.004,32.636L384.727,32.626L385.449,32.385L386.172,32.475L386.895,32.394L387.617,32.261L388.34,32.283L389.063,32.123L389.785,32.022L390.508,31.994L391.23,31.939L391.953,31.901L392.676,31.812L393.398,31.857L394.121,31.759L394.844,31.638L395.566,31.613L396.289,31.54L397.012,31.402L397.734,31.291L398.457,31.371L399.18,31.283L399.902,31.148L400.625,31.253L401.348,31.102L402.07,31.114L402.793,30.98L403.516,31.002L404.238,30.803L404.961,30.783L405.684,30.792L406.406,30.758L407.129,30.641L407.852,30.654L408.574,30.542L409.297,30.477L410.02,30.405L410.742,30.467L411.465,30.302L412.188,30.312L412.91,30.183L413.633,30.088L414.355,30.165L415.078,30.032L415.801,29.965L416.523,29.891L417.246,29.915L417.969,29.811L418.691,29.78L419.414,29.777L420.137,29.591L420.859,29.631L421.582,29.567L422.305,29.568L423.027,29.469L423.75,29.456L424.473,29.372L425.195,29.361L425.918,29.26L426.641,29.222L427.363,29.228L428.086,29.061L428.809,29.049L429.531,29.065L430.254,28.974L430.977,28.991L431.699,28.928L432.422,28.878L433.145,28.827L433.867,28.713L434.59,28.744L435.313,28.653L436.035,28.611L436.758,28.568L437.48,28.57L438.203,28.51L438.926,28.441L439.648,28.41L440.371,28.3L441.094,28.307L441.816,28.324L442.539,28.217L443.262,28.187L443.984,28.125L444.707,28.115L445.43,28.027L446.152,28.09L446.875,27.989L447.598,27.991L448.32,27.859L449.043,27.824L449.766,27.901L450.488,27.808L451.211,27.739L451.934,27.688L452.656,27.624L453.379,27.554L454.102,27.537L454.824,27.513L455.547,27.474L456.27,27.434L456.992,27.439L457.715,27.386L458.438,27.313L459.16,27.312L459.883,27.347L460.605,27.25L461.328,27.195L462.051,27.172L462.773,27.144L463.496,27.1L464.219,27.04L464.941,27.051L465.664,26.986L466.387,26.976L467.109,26.964L467.832,26.849L468.555,26.874L469.277,26.855"/><g transform="translate(0,190) scale(1.7) rotate(-90)"><text>Drift</text></g><g transform="translate(315,395) scale(1.8)"><text></text></g><g transform="translate(0,350)" fill="none" font-size="10" font-family="sans-serif" text-anchor="middle"><path class="domain" stroke="currentColor" d="M100,6V0H470V6"/><g class="tick" opacity="1" transform="translate(136.66666666666666,0)"><line stroke="currentColor" y2="6"/><text fill="currentColor" y="9" dy="0.71em" font-size="20px"> </text></g><g class="tick" opacity="1" transform="translate(173.7037037037037,0)"><line stroke="currentColor" y2="6"/><text fill="currentColor" y="9" dy="0.71em" font-size="20px">200</text></g><g class="tick" opacity="1" transform="translate(210.74074074074076,0)"><line stroke="currentColor" y2="6"/><text fill="currentColor" y="9" dy="0.71em" font-size="20px"> </text></g><g class="tick" opacity="1" transform="translate(247.77777777777777,0)"><line stroke="currentColor" y2="6"/><text fill="currentColor" y="9" dy="0.71em" font-size="20px">400</text></g><g class="tick" opacity="1" transform="translate(284.81481481481484,0)"><line stroke="currentColor" y2="6"/><text fill="currentColor" y="9" dy="0.71em" font-size="20px"> </text></g><g class="tick" opacity="1" transform="translate(321.85185185185185,0)"><line stroke="currentColor" y2="6"/><text fill="currentColor" y="9" dy="0.71em" font-size="20px">600</text></g><g class="tick" opacity="1" transform="translate(358.8888888888889,0)"><line stroke="currentColor" y2="6"/><text fill="currentColor" y="9" dy="0.71em" font-size="20px"> </text></g><g class="tick" opacity="1" transform="translate(395.9259259259259,0)"><line stroke="currentColor" y2="6"/><text fill="currentColor" y="9" dy="0.71em" font-size="20px">800</text></g><g class="tick" opacity="1" transform="translate(432.96296296296293,0)"><line stroke="currentColor" y2="6"/><text fill="currentColor" y="9" dy="0.71em" font-size="20px"> </text></g><g class="tick" opacity="1" transform="translate(470,0)"><line stroke="currentColor" y2="6"/><text fill="currentColor" y="9" dy="0.71em" font-size="20px">1000</text></g></g><g transform="translate(100,0)" fill="none" font-size="10" font-family="sans-serif" text-anchor="end"><path class="domain" stroke="currentColor" d="M-6,350H0V20H-6"/><g class="tick" opacity="1" transform="translate(0,320.00815839098703)"><line stroke="currentColor" x2="-6"/><text fill="currentColor" x="-9" dy="0.32em" font-size="20px">0.45</text></g><g class="tick" opacity="1" transform="translate(0,285.38321843001484)"><line stroke="currentColor" x2="-6"/><text fill="currentColor" x="-9" dy="0.32em" font-size="20px">0.40</text></g><g class="tick" opacity="1" transform="translate(0,250.7582784690426)"><line stroke="currentColor" x2="-6"/><text fill="currentColor" x="-9" dy="0.32em" font-size="20px">0.35</text></g><g class="tick" opacity="1" transform="translate(0,216.13333850807038)"><line stroke="currentColor" x2="-6"/><text fill="currentColor" x="-9" dy="0.32em" font-size="20px">0.30</text></g><g class="tick" opacity="1" transform="translate(0,181.50839854709818)"><line stroke="currentColor" x2="-6"/><text fill="currentColor" x="-9" dy="0.32em" font-size="20px">0.25</text></g><g class="tick" opacity="1" transform="translate(0,146.883458586126)"><line stroke="currentColor" x2="-6"/><text fill="currentColor" x="-9" dy="0.32em" font-size="20px">0.20</text></g><g class="tick" opacity="1" transform="translate(0,112.25851862515378)"><line stroke="currentColor" x2="-6"/><text fill="currentColor" x="-9" dy="0.32em" font-size="20px">0.15</text></g><g class="tick" opacity="1" transform="translate(0,77.63357866418154)"><line stroke="currentColor" x2="-6"/><text fill="currentColor" x="-9" dy="0.32em" font-size="20px">0.10</text></g><g class="tick" opacity="1" transform="translate(0,43.00863870320933)"><line stroke="currentColor" x2="-6"/><text fill="currentColor" x="-9" dy="0.32em" font-size="20px">0.05</text></g></g><circle cx="320" cy="255" r="8" style="fill: rgb(35, 23, 27);"/><circle cx="320" cy="280" r="8" style="fill: rgb(69, 105, 238);"/><circle cx="320" cy="305" r="8" style="fill: rgb(38, 188, 225);"/><circle cx="320" cy="330" r="8" style="fill: rgb(63, 243, 147);"/><circle cx="440" cy="255" r="8" style="fill: rgb(149, 251, 81);"/><circle cx="440" cy="280" r="8" style="fill: rgb(236, 209, 46);"/><circle cx="440" cy="305" r="8" style="fill: rgb(255, 130, 29);"/><circle cx="440" cy="330" r="8" style="fill: rgb(203, 47, 13);"/><text x="335" y="255" text-anchor="left" font-size="22" alignment-baseline="middle" style="fill: rgb(35, 23, 27);"> = 0</text><text x="335" y="280" text-anchor="left" font-size="22" alignment-baseline="middle" style="fill: rgb(69, 105, 238);"> = 0.22</text><text x="335" y="305" text-anchor="left" font-size="22" alignment-baseline="middle" style="fill: rgb(38, 188, 225);"> = 0.45</text><text x="335" y="330" text-anchor="left" font-size="22" alignment-baseline="middle" style="fill: rgb(63, 243, 147);"> = 0.67</text><text x="460" y="255" text-anchor="left" font-size="22" alignment-baseline="middle" style="fill: rgb(149, 251, 81);"> = 0.9</text><text x="460" y="280" text-anchor="left" font-size="22" alignment-baseline="middle" style="fill: rgb(236, 209, 46);"> = 1.12</text><text x="460" y="305" text-anchor="left" font-size="22" alignment-baseline="middle" style="fill: rgb(255, 130, 29);"> = 1.35</text><text x="460" y="330" text-anchor="left" font-size="22" alignment-baseline="middle" style="fill: rgb(203, 47, 13);"> = 1.57</text></svg>