<svg xmlns="http://www.w3.org/2000/svg" class="bg-white" width="500" height="400" viewBox="-34.29999999999997 -29.999999999999964 550 440.00000000000006"><path fill="none" stroke="rgb(35, 23, 27)" stroke-width="1.5" d="M100,20.196L100.723,20.169L101.445,20.137L102.168,20.098L102.891,20.059L103.613,20L104.336,150.339L105.059,290.444L105.781,348.169L106.504,348.168L107.227,348.258L107.949,348.255L108.672,348.249L109.395,348.107L110.117,348.107L110.84,348.086L111.563,348.087L112.285,348.084L113.008,348.306L113.73,348.299L114.453,348.299L115.176,348.076L115.898,348.076L116.621,348.118L117.344,348.121L118.066,348.12L118.789,348.275L119.512,348.222L120.234,348.221L120.957,348.272L121.68,348.193L122.402,348.225L123.125,348.071L123.848,348.072L124.57,348.193L125.293,348.133L126.016,348.131L126.738,348.075L127.461,348.096L128.184,348.123L128.906,348.315L129.629,348.314L130.352,348.078L131.074,348.111L131.797,348.132L132.52,348.307L133.242,348.102L133.965,348.102L134.688,348.152L135.41,348.132L136.133,348.087L136.855,348.083L137.578,348.146L138.301,348.092L139.023,348.09L139.746,348.072L140.469,348.114L141.191,348.111L141.914,348.089L142.637,348.072L143.359,348.104L144.082,348.221L144.805,348.066L145.527,348.044L146.25,348.066L146.973,348.247L147.695,348.243L148.418,348.214L149.141,348.165L149.863,348.238L150.586,348.232L151.309,348.228L152.031,348.238L152.754,348.166L153.477,348.154L154.199,348.163L154.922,348.127L155.645,348.204L156.367,348.035L157.09,348.146L157.813,348.037L158.535,348.092L159.258,348.103L159.98,348.103L160.703,348.102L161.426,348.081L162.148,348.058L162.871,348.081L163.594,348.143L164.316,348.14L165.039,348.155L165.762,348.151L166.484,348.142L167.207,348.142L167.93,348.028L168.652,348.023L169.375,348.223L170.098,348.122L170.82,347.982L171.543,348.14L172.266,348.14L172.988,348.161L173.711,348.033L174.434,347.964L175.156,347.962L175.879,348.107L176.602,348.19L177.324,348.085L178.047,347.953L178.77,348.087L179.492,348.112L180.215,348.096L180.938,348.098L181.66,347.921L182.383,347.976L183.105,348.088L183.828,348.092L184.551,348.012L185.273,347.972L185.996,347.916L186.719,348.116L187.441,348.114L188.164,348.107L188.887,348.036L189.609,347.904L190.332,348.002L191.055,348.002L191.777,348.003L192.5,348.043L193.223,348.038L193.945,348.034L194.668,348.031L195.391,348.054L196.113,347.994L196.836,347.99L197.559,348.03L198.281,348.022L199.004,347.845L199.727,348.021L200.449,347.906L201.172,348.018L201.895,347.952L202.617,348.014L203.34,347.951L204.063,347.836L204.785,347.978L205.508,347.975L206.23,347.875L206.953,347.877L207.676,347.871L208.398,347.869L209.121,347.867L209.844,347.926L210.566,347.924L211.289,347.972L212.012,347.832L212.734,347.828L213.457,347.827L214.18,347.915L214.902,347.974L215.625,347.918L216.348,347.921L217.07,347.8L217.793,347.8L218.516,347.792L219.238,347.973L219.961,347.978L220.684,347.787L221.406,347.935L222.129,347.906L222.852,347.914L223.574,347.916L224.297,347.92L225.02,347.94L225.742,347.913L226.465,347.894L227.188,347.89L227.91,347.89L228.633,347.932L229.355,347.9L230.078,347.955L230.801,347.949L231.523,347.949L232.246,347.809L232.969,347.923L233.691,347.917L234.414,347.877L235.137,347.907L235.859,347.811L236.582,347.87L237.305,347.822L238.027,347.922L238.75,347.812L239.473,347.814L240.195,347.917L240.918,347.923L241.641,347.913L242.363,347.928L243.086,347.911L243.809,347.954L244.531,347.739L245.254,347.94L245.977,347.762L246.699,347.954L247.422,347.942L248.145,347.758L248.867,347.858L249.59,347.759L250.313,347.937L251.035,347.939L251.758,347.877L252.48,347.95L253.203,347.843L253.926,347.917L254.648,347.918L255.371,347.844L256.094,347.85L256.816,347.936L257.539,347.841L258.262,347.921L258.984,347.833L259.707,347.856L260.43,347.914L261.152,347.85L261.875,347.785L262.598,347.869L263.32,347.815L264.043,347.854L264.766,347.784L265.488,347.858L266.211,347.787L266.934,347.859L267.656,347.892L268.379,347.779L269.102,347.848L269.824,347.853L270.547,347.774L271.27,347.775L271.992,347.903L272.715,347.791L273.438,347.774L274.16,347.768L274.883,347.775L275.605,347.916L276.328,347.829L277.051,347.766L277.773,347.867L278.496,347.84L279.219,347.753L279.941,347.834L280.664,347.87L281.387,347.883L282.109,347.756L282.832,347.919L283.555,347.738L284.277,347.852L285,347.838L285.723,347.819L286.445,347.738L287.168,347.865L287.891,347.876L288.613,347.878L289.336,347.795L290.059,347.874L290.781,347.823L291.504,347.883L292.227,347.801L292.949,347.802L293.672,347.906L294.395,347.86L295.117,347.974L295.84,347.9L296.563,347.959L297.285,347.882L298.008,347.881L298.73,347.976L299.453,347.874L300.176,347.863L300.898,347.94L301.621,347.804L302.344,347.961L303.066,347.966L303.789,347.889L304.512,347.883L305.234,347.928L305.957,347.777L306.68,347.997L307.402,347.916L308.125,347.946L308.848,347.922L309.57,347.997L310.293,347.801L311.016,347.927L311.738,347.93L312.461,347.909L313.184,347.987L313.906,347.826L314.629,347.897L315.352,347.833L316.074,347.838L316.797,347.839L317.52,348.012L318.242,347.956L318.965,347.941L319.688,347.887L320.41,347.913L321.133,347.913L321.855,347.91L322.578,347.896L323.301,347.858L324.023,347.866L324.746,347.838L325.469,347.941L326.191,347.938L326.914,348.119L327.637,347.89L328.359,347.87L329.082,348.028L329.805,348.125L330.527,347.964L331.25,348.127L331.973,347.845L332.695,348.126L333.418,347.964L334.141,347.936L334.863,347.961L335.586,347.877L336.309,347.959L337.031,347.963L337.754,347.962L338.477,347.911L339.199,347.97L339.922,347.939L340.645,348.014L341.367,347.944L342.09,347.988L342.813,347.996L343.535,348.089L344.258,347.966L344.98,347.911L345.703,348.031L346.426,348.035L347.148,348.16L347.871,348.009L348.594,348.01L349.316,347.941L350.039,347.992L350.762,347.954L351.484,348.004L352.207,348.204L352.93,348.109L353.652,348.066L354.375,348.035L355.098,348.039L355.82,348.059L356.543,348.093L357.266,348.052L357.988,348.133L358.711,348.077L359.434,348.176L360.156,348.079L360.879,348.083L361.602,348.1L362.324,348.096L363.047,348.099L363.77,348.29L364.492,348.207L365.215,348.148L365.938,348.219L366.66,348.232L367.383,348.151L368.105,348.146L368.828,348.224L369.551,348.234L370.273,348.275L370.996,348.27L371.719,348.224L372.441,348.23L373.164,348.311L373.887,348.196L374.609,348.208L375.332,348.303L376.055,348.24L376.777,348.231L377.5,348.338L378.223,348.282L378.945,348.325L379.668,348.33L380.391,348.419L381.113,348.422L381.836,348.283L382.559,348.388L383.281,348.357L384.004,348.307L384.727,348.382L385.449,348.384L386.172,348.357L386.895,348.293L387.617,348.372L388.34,348.463L389.063,348.44L389.785,348.375L390.508,348.479L391.23,348.467L391.953,348.477L392.676,348.477L393.398,348.503L394.121,348.493L394.844,348.563L395.566,348.529L396.289,348.53L397.012,348.467L397.734,348.635L398.457,348.609L399.18,348.564L399.902,348.63L400.625,348.602L401.348,348.57L402.07,348.615L402.793,348.678L403.516,348.526L404.238,348.712L404.961,348.726L405.684,348.6L406.406,348.621L407.129,348.635L407.852,348.747L408.574,348.654L409.297,348.763L410.02,348.697L410.742,348.66L411.465,348.697L412.188,348.74L412.91,348.676L413.633,348.694L414.355,348.781L415.078,348.889L415.801,348.787L416.523,348.748L417.246,348.778L417.969,348.942L418.691,348.786L419.414,348.827L420.137,348.753L420.859,348.853L421.582,349.004L422.305,348.901L423.027,348.913L423.75,348.936L424.473,348.97L425.195,349.101L425.918,348.937L426.641,348.994L427.363,348.962L428.086,349.1L428.809,349.015L429.531,348.965L430.254,349.138L430.977,349.135L431.699,349.09L432.422,348.946L433.145,349.255L433.867,349.091L434.59,349.142L435.313,349.184L436.035,349.126L436.758,349.202L437.48,349.353L438.203,349.162L438.926,349.315L439.648,349.329L440.371,349.195L441.094,349.117L441.816,349.43L442.539,349.353L443.262,349.3L443.984,349.216L444.707,349.439L445.43,349.452L446.152,349.313L446.875,349.389L447.598,349.302L448.32,349.367L449.043,349.411L449.766,349.468L450.488,349.484L451.211,349.47L451.934,349.484L452.656,349.497L453.379,349.501L454.102,349.654L454.824,349.538L455.547,349.418L456.27,349.702L456.992,349.691L457.715,349.63L458.438,349.71L459.16,349.735L459.883,349.75L460.605,349.687L461.328,349.518L462.051,349.533L462.773,349.673L463.496,349.722L464.219,349.567L464.941,349.724L465.664,349.747L466.387,349.677L467.109,349.638L467.832,350L468.555,349.781L469.277,349.89"/><path fill="none" stroke="rgb(69, 105, 238)" stroke-width="1.5" d="M100,33.221L100.723,33.127L101.445,33.108L102.168,33.28L102.891,33.081L103.613,104.887L104.336,244.943L105.059,335.087L105.781,335.082L106.504,335.072L107.227,335.025L107.949,335.057L108.672,335.082L109.395,335.195L110.117,335.189L110.84,335.056L111.563,335.065L112.285,335.026L113.008,335.179L113.73,335.027L114.453,335.127L115.176,335.128L115.898,335.185L116.621,335.245L117.344,335.071L118.066,335.198L118.789,335.103L119.512,335.074L120.234,335.238L120.957,335.115L121.68,335.223L122.402,335.016L123.125,335.23L123.848,335.032L124.57,335.206L125.293,335.025L126.016,335.065L126.738,335.009L127.461,335.104L128.184,335.164L128.906,335.071L129.629,335.104L130.352,335.038L131.074,335.003L131.797,335.149L132.52,335.157L133.242,335.192L133.965,334.992L134.688,335.135L135.41,335.152L136.133,335.098L136.855,335.05L137.578,335.063L138.301,335.046L139.023,335.199L139.746,334.954L140.469,334.952L141.191,335.189L141.914,335.037L142.637,335.044L143.359,335.038L144.082,335.165L144.805,334.948L145.527,334.944L146.25,334.939L146.973,334.994L147.695,335.075L148.418,334.987L149.141,334.929L149.863,334.975L150.586,335.149L151.309,334.99L152.031,335.001L152.754,334.921L153.477,335.156L154.199,334.911L154.922,334.997L155.645,335.172L156.367,334.982L157.09,335.009L157.813,334.986L158.535,335.159L159.258,334.96L159.98,334.942L160.703,334.984L161.426,335.021L162.148,334.978L162.871,334.976L163.594,335.185L164.316,335.06L165.039,335.063L165.762,334.957L166.484,335.021L167.207,334.998L167.93,334.97L168.652,334.973L169.375,334.987L170.098,334.991L170.82,334.963L171.543,334.923L172.266,334.952L172.988,335.124L173.711,334.929L174.434,335.017L175.156,334.976L175.879,334.94L176.602,334.982L177.324,334.967L178.047,334.889L178.77,334.884L179.492,335.067L180.215,334.97L180.938,335.057L181.66,334.946L182.383,334.932L183.105,334.966L183.828,334.918L184.551,335.025L185.273,334.942L185.996,334.918L186.719,334.922L187.441,334.858L188.164,334.854L188.887,334.848L189.609,334.88L190.332,334.826L191.055,334.778L191.777,334.908L192.5,334.869L193.223,334.906L193.945,334.903L194.668,334.873L195.391,334.859L196.113,334.899L196.836,334.876L197.559,334.876L198.281,334.898L199.004,334.768L199.727,334.919L200.449,334.756L201.172,334.696L201.895,334.781L202.617,334.693L203.34,334.825L204.063,334.699L204.785,334.868L205.508,334.955L206.23,334.952L206.953,334.781L207.676,334.76L208.398,334.885L209.121,334.926L209.844,334.824L210.566,334.885L211.289,334.938L212.012,334.839L212.734,334.926L213.457,334.742L214.18,334.895L214.902,334.824L215.625,334.743L216.348,334.908L217.07,334.835L217.793,334.903L218.516,334.715L219.238,334.897L219.961,334.898L220.684,334.799L221.406,334.824L222.129,334.662L222.852,334.83L223.574,334.866L224.297,334.759L225.02,334.789L225.742,334.69L226.465,334.832L227.188,334.76L227.91,334.866L228.633,334.831L229.355,334.86L230.078,334.774L230.801,334.792L231.523,334.916L232.246,334.831L232.969,334.859L233.691,334.755L234.414,334.731L235.137,334.859L235.859,334.809L236.582,334.857L237.305,334.735L238.027,334.898L238.75,334.898L239.473,334.781L240.195,334.761L240.918,334.776L241.641,334.812L242.363,334.743L243.086,334.818L243.809,334.793L244.531,334.789L245.254,334.853L245.977,334.789L246.699,334.824L247.422,334.778L248.145,334.746L248.867,334.844L249.59,334.829L250.313,334.888L251.035,334.774L251.758,334.75L252.48,334.788L253.203,334.784L253.926,334.814L254.648,334.743L255.371,334.763L256.094,334.772L256.816,334.752L257.539,334.824L258.262,334.767L258.984,334.746L259.707,334.759L260.43,334.813L261.152,334.707L261.875,334.828L262.598,334.824L263.32,334.833L264.043,334.751L264.766,334.725L265.488,334.784L266.211,334.782L266.934,334.663L267.656,334.818L268.379,334.776L269.102,334.874L269.824,334.747L270.547,334.771L271.27,334.713L271.992,334.75L272.715,334.825L273.438,334.858L274.16,334.809L274.883,334.795L275.605,334.919L276.328,334.764L277.051,334.805L277.773,334.772L278.496,334.785L279.219,334.774L279.941,334.775L280.664,334.709L281.387,334.726L282.109,334.882L282.832,334.745L283.555,334.733L284.277,334.865L285,334.773L285.723,334.786L286.445,334.934L287.168,334.817L287.891,334.779L288.613,334.825L289.336,334.749L290.059,334.935L290.781,334.864L291.504,334.73L292.227,334.873L292.949,334.795L293.672,334.662L294.395,334.9L295.117,334.85L295.84,334.872L296.563,334.731L297.285,334.888L298.008,334.934L298.73,334.886L299.453,334.812L300.176,334.857L300.898,334.875L301.621,334.758L302.344,334.93L303.066,334.854L303.789,334.73L304.512,334.771L305.234,334.813L305.957,334.874L306.68,334.873L307.402,334.814L308.125,334.921L308.848,334.792L309.57,334.891L310.293,334.806L311.016,334.879L311.738,334.882L312.461,334.884L313.184,334.883L313.906,334.823L314.629,334.889L315.352,334.829L316.074,334.734L316.797,334.838L317.52,334.813L318.242,334.746L318.965,334.931L319.688,334.845L320.41,334.745L321.133,334.855L321.855,334.887L322.578,334.855L323.301,334.946L324.023,334.851L324.746,334.783L325.469,334.76L326.191,334.872L326.914,334.851L327.637,334.784L328.359,334.901L329.082,334.83L329.805,334.904L330.527,334.775L331.25,334.827L331.973,334.782L332.695,334.94L333.418,334.813L334.141,334.857L334.863,334.919L335.586,334.776L336.309,334.904L337.031,334.931L337.754,334.888L338.477,334.941L339.199,334.935L339.922,335.017L340.645,334.993L341.367,334.975L342.09,334.951L342.813,334.818L343.535,334.964L344.258,334.922L344.98,334.951L345.703,335.02L346.426,334.925L347.148,334.985L347.871,334.988L348.594,334.996L349.316,334.979L350.039,334.905L350.762,335.06L351.484,335.014L352.207,335.073L352.93,334.951L353.652,335.077L354.375,334.971L355.098,335.02L355.82,335.001L356.543,335.015L357.266,335.079L357.988,335.019L358.711,335.082L359.434,335.051L360.156,335.176L360.879,335.113L361.602,335.166L362.324,335.073L363.047,335.175L363.77,335.099L364.492,335.143L365.215,335.177L365.938,335.093L366.66,335.019L367.383,335.094L368.105,335.179L368.828,335.04L369.551,335.245L370.273,335.118L370.996,335.061L371.719,335.201L372.441,335.148L373.164,335.148L373.887,335.164L374.609,335.25L375.332,335.21L376.055,335.24L376.777,335.238L377.5,335.265L378.223,335.292L378.945,335.327L379.668,335.203L380.391,335.312L381.113,335.244L381.836,335.505L382.559,335.23L383.281,335.318L384.004,335.288L384.727,335.315L385.449,335.348L386.172,335.436L386.895,335.393L387.617,335.347L388.34,335.394L389.063,335.37L389.785,335.304L390.508,335.258L391.23,335.298L391.953,335.411L392.676,335.495L393.398,335.455L394.121,335.437L394.844,335.52L395.566,335.52L396.289,335.644L397.012,335.476L397.734,335.521L398.457,335.41L399.18,335.65L399.902,335.546L400.625,335.479L401.348,335.721L402.07,335.561L402.793,335.639L403.516,335.6L404.238,335.746L404.961,335.638L405.684,335.629L406.406,335.522L407.129,335.526L407.852,335.505L408.574,335.652L409.297,335.73L410.02,335.822L410.742,335.76L411.465,335.85L412.188,335.59L412.91,335.913L413.633,335.706L414.355,335.747L415.078,335.819L415.801,335.934L416.523,335.859L417.246,335.871L417.969,335.826L418.691,335.789L419.414,335.817L420.137,335.957L420.859,335.991L421.582,335.908L422.305,335.93L423.027,335.942L423.75,335.93L424.473,336.164L425.195,335.994L425.918,335.939L426.641,335.999L427.363,336.117L428.086,336.131L428.809,336.128L429.531,336.012L430.254,336.1L430.977,336.083L431.699,336.027L432.422,336.127L433.145,335.972L433.867,336.196L434.59,336.073L435.313,336.054L436.035,336.241L436.758,336.186L437.48,336.222L438.203,336.23L438.926,336.161L439.648,336.104L440.371,336.198L441.094,336.248L441.816,336.319L442.539,336.254L443.262,336.253L443.984,336.273L444.707,336.231L445.43,336.321L446.152,336.329L446.875,336.253L447.598,336.404L448.32,336.411L449.043,336.366L449.766,336.437L450.488,336.529L451.211,336.485L451.934,336.479L452.656,336.331L453.379,336.454L454.102,336.587L454.824,336.576L455.547,336.474L456.27,336.418L456.992,336.46L457.715,336.509L458.438,336.526L459.16,336.581L459.883,336.674L460.605,336.576L461.328,336.598L462.051,336.639L462.773,336.553L463.496,336.69L464.219,336.476L464.941,336.75L465.664,336.608L466.387,336.74L467.109,336.796L467.832,336.85L468.555,336.808L469.277,336.544"/><path fill="none" stroke="rgb(38, 188, 225)" stroke-width="1.5" d="M100,65.768L100.723,65.617L101.445,65.657L102.168,65.569L102.891,196.919L103.613,302.683L104.336,302.753L105.059,302.656L105.781,302.753L106.504,302.685L107.227,302.669L107.949,302.795L108.672,302.695L109.395,302.666L110.117,302.652L110.84,302.76L111.563,302.797L112.285,302.731L113.008,302.753L113.73,302.728L114.453,302.682L115.176,302.712L115.898,302.58L116.621,302.594L117.344,302.561L118.066,302.775L118.789,302.563L119.512,302.747L120.234,302.752L120.957,302.747L121.68,302.57L122.402,302.741L123.125,302.628L123.848,302.6L124.57,302.736L125.293,302.622L126.016,302.6L126.738,302.701L127.461,302.723L128.184,302.775L128.906,302.709L129.629,302.572L130.352,302.741L131.074,302.725L131.797,302.72L132.52,302.593L133.242,302.602L133.965,302.549L134.688,302.593L135.41,302.641L136.133,302.73L136.855,302.696L137.578,302.708L138.301,302.739L139.023,302.708L139.746,302.746L140.469,302.743L141.191,302.703L141.914,302.742L142.637,302.741L143.359,302.639L144.082,302.684L144.805,302.608L145.527,302.711L146.25,302.679L146.973,302.676L147.695,302.694L148.418,302.594L149.141,302.656L149.863,302.58L150.586,302.582L151.309,302.608L152.031,302.606L152.754,302.669L153.477,302.718L154.199,302.581L154.922,302.678L155.645,302.605L156.367,302.617L157.09,302.64L157.813,302.713L158.535,302.657L159.258,302.604L159.98,302.634L160.703,302.617L161.426,302.564L162.148,302.664L162.871,302.599L163.594,302.653L164.316,302.619L165.039,302.639L165.762,302.552L166.484,302.61L167.207,302.619L167.93,302.635L168.652,302.625L169.375,302.57L170.098,302.692L170.82,302.605L171.543,302.52L172.266,302.539L172.988,302.669L173.711,302.653L174.434,302.588L175.156,302.555L175.879,302.628L176.602,302.559L177.324,302.636L178.047,302.631L178.77,302.553L179.492,302.622L180.215,302.655L180.938,302.617L181.66,302.612L182.383,302.548L183.105,302.575L183.828,302.563L184.551,302.6L185.273,302.509L185.996,302.558L186.719,302.531L187.441,302.499L188.164,302.519L188.887,302.569L189.609,302.681L190.332,302.492L191.055,302.564L191.777,302.568L192.5,302.487L193.223,302.535L193.945,302.537L194.668,302.467L195.391,302.562L196.113,302.624L196.836,302.538L197.559,302.49L198.281,302.473L199.004,302.543L199.727,302.548L200.449,302.562L201.172,302.465L201.895,302.47L202.617,302.529L203.34,302.547L204.063,302.453L204.785,302.505L205.508,302.56L206.23,302.479L206.953,302.489L207.676,302.476L208.398,302.492L209.121,302.469L209.844,302.588L210.566,302.444L211.289,302.584L212.012,302.406L212.734,302.531L213.457,302.443L214.18,302.444L214.902,302.459L215.625,302.539L216.348,302.492L217.07,302.538L217.793,302.557L218.516,302.37L219.238,302.429L219.961,302.424L220.684,302.495L221.406,302.371L222.129,302.431L222.852,302.518L223.574,302.567L224.297,302.495L225.02,302.518L225.742,302.534L226.465,302.505L227.188,302.529L227.91,302.607L228.633,302.432L229.355,302.446L230.078,302.532L230.801,302.419L231.523,302.422L232.246,302.456L232.969,302.487L233.691,302.411L234.414,302.539L235.137,302.39L235.859,302.487L236.582,302.543L237.305,302.551L238.027,302.453L238.75,302.458L239.473,302.469L240.195,302.452L240.918,302.387L241.641,302.537L242.363,302.569L243.086,302.48L243.809,302.383L244.531,302.417L245.254,302.471L245.977,302.528L246.699,302.325L247.422,302.401L248.145,302.575L248.867,302.384L249.59,302.3L250.313,302.382L251.035,302.365L251.758,302.486L252.48,302.473L253.203,302.467L253.926,302.467L254.648,302.461L255.371,302.512L256.094,302.433L256.816,302.475L257.539,302.414L258.262,302.517L258.984,302.477L259.707,302.625L260.43,302.476L261.152,302.398L261.875,302.492L262.598,302.534L263.32,302.486L264.043,302.409L264.766,302.474L265.488,302.511L266.211,302.474L266.934,302.546L267.656,302.494L268.379,302.409L269.102,302.472L269.824,302.402L270.547,302.289L271.27,302.421L271.992,302.511L272.715,302.288L273.438,302.473L274.16,302.332L274.883,302.478L275.605,302.492L276.328,302.407L277.051,302.351L277.773,302.419L278.496,302.473L279.219,302.427L279.941,302.429L280.664,302.321L281.387,302.438L282.109,302.546L282.832,302.473L283.555,302.409L284.277,302.449L285,302.506L285.723,302.495L286.445,302.51L287.168,302.465L287.891,302.394L288.613,302.544L289.336,302.51L290.059,302.42L290.781,302.497L291.504,302.438L292.227,302.546L292.949,302.397L293.672,302.519L294.395,302.427L295.117,302.354L295.84,302.495L296.563,302.494L297.285,302.52L298.008,302.527L298.73,302.431L299.453,302.372L300.176,302.491L300.898,302.435L301.621,302.44L302.344,302.402L303.066,302.544L303.789,302.504L304.512,302.519L305.234,302.409L305.957,302.515L306.68,302.494L307.402,302.464L308.125,302.55L308.848,302.517L309.57,302.506L310.293,302.51L311.016,302.412L311.738,302.434L312.461,302.526L313.184,302.41L313.906,302.442L314.629,302.57L315.352,302.518L316.074,302.405L316.797,302.504L317.52,302.58L318.242,302.586L318.965,302.605L319.688,302.485L320.41,302.564L321.133,302.595L321.855,302.526L322.578,302.535L323.301,302.609L324.023,302.64L324.746,302.643L325.469,302.588L326.191,302.556L326.914,302.464L327.637,302.583L328.359,302.469L329.082,302.548L329.805,302.499L330.527,302.652L331.25,302.584L331.973,302.513L332.695,302.626L333.418,302.604L334.141,302.626L334.863,302.498L335.586,302.609L336.309,302.625L337.031,302.481L337.754,302.505L338.477,302.515L339.199,302.616L339.922,302.67L340.645,302.663L341.367,302.519L342.09,302.699L342.813,302.582L343.535,302.667L344.258,302.664L344.98,302.642L345.703,302.624L346.426,302.693L347.148,302.593L347.871,302.656L348.594,302.604L349.316,302.617L350.039,302.604L350.762,302.588L351.484,302.71L352.207,302.552L352.93,302.825L353.652,302.667L354.375,302.658L355.098,302.672L355.82,302.767L356.543,302.76L357.266,302.734L357.988,302.762L358.711,302.701L359.434,302.834L360.156,302.69L360.879,302.904L361.602,302.808L362.324,302.926L363.047,302.798L363.77,302.717L364.492,302.904L365.215,302.844L365.938,302.895L366.66,302.835L367.383,302.846L368.105,302.853L368.828,302.755L369.551,302.906L370.273,302.887L370.996,303.037L371.719,302.872L372.441,303.029L373.164,302.801L373.887,302.92L374.609,302.882L375.332,302.826L376.055,302.943L376.777,302.927L377.5,302.914L378.223,302.995L378.945,303.005L379.668,302.878L380.391,302.924L381.113,302.971L381.836,303.008L382.559,302.984L383.281,303.03L384.004,302.971L384.727,303.156L385.449,303.034L386.172,303.073L386.895,303.011L387.617,303.086L388.34,303.079L389.063,303.017L389.785,303.116L390.508,303.137L391.23,303.011L391.953,303.229L392.676,303.213L393.398,303.156L394.121,303.2L394.844,303.358L395.566,303.215L396.289,303.251L397.012,303.192L397.734,303.276L398.457,303.235L399.18,303.12L399.902,303.295L400.625,303.324L401.348,303.382L402.07,303.396L402.793,303.285L403.516,303.323L404.238,303.327L404.961,303.461L405.684,303.344L406.406,303.334L407.129,303.255L407.852,303.376L408.574,303.351L409.297,303.396L410.02,303.38L410.742,303.378L411.465,303.573L412.188,303.502L412.91,303.537L413.633,303.561L414.355,303.686L415.078,303.611L415.801,303.436L416.523,303.613L417.246,303.73L417.969,303.435L418.691,303.608L419.414,303.737L420.137,303.641L420.859,303.709L421.582,303.559L422.305,303.725L423.027,303.659L423.75,303.577L424.473,303.535L425.195,303.624L425.918,303.671L426.641,303.692L427.363,303.578L428.086,303.939L428.809,303.857L429.531,303.81L430.254,303.884L430.977,303.729L431.699,303.915L432.422,303.853L433.145,303.76L433.867,303.851L434.59,303.858L435.313,303.887L436.035,303.808L436.758,304.026L437.48,303.832L438.203,303.887L438.926,303.949L439.648,303.931L440.371,303.972L441.094,303.943L441.816,303.899L442.539,304.015L443.262,304.025L443.984,303.921L444.707,304.018L445.43,304.101L446.152,304.091L446.875,304.084L447.598,304.192L448.32,304.197L449.043,304.238L449.766,304.089L450.488,304.275L451.211,304.207L451.934,304.242L452.656,304.319L453.379,304.09L454.102,303.992L454.824,304.215L455.547,304.213L456.27,304.167L456.992,304.284L457.715,304.308L458.438,304.301L459.16,304.413L459.883,304.439L460.605,304.239L461.328,304.333L462.051,304.373L462.773,304.377L463.496,304.189L464.219,304.288L464.941,304.36L465.664,304.421L466.387,304.436L467.109,304.549L467.832,304.222L468.555,304.314L469.277,304.454"/><path fill="none" stroke="rgb(63, 243, 147)" stroke-width="1.5" d="M100,157.981L100.723,158.032L101.445,210.276L102.168,210.423L102.891,210.401L103.613,210.38L104.336,210.383L105.059,210.359L105.781,210.375L106.504,210.4L107.227,210.232L107.949,210.315L108.672,210.316L109.395,210.386L110.117,210.351L110.84,210.374L111.563,210.308L112.285,210.354L113.008,210.266L113.73,210.329L114.453,210.303L115.176,210.325L115.898,210.336L116.621,210.484L117.344,210.438L118.066,210.341L118.789,210.51L119.512,210.252L120.234,210.392L120.957,210.362L121.68,210.356L122.402,210.325L123.125,210.341L123.848,210.354L124.57,210.281L125.293,210.355L126.016,210.359L126.738,210.38L127.461,210.316L128.184,210.398L128.906,210.298L129.629,210.395L130.352,210.39L131.074,210.452L131.797,210.315L132.52,210.209L133.242,210.253L133.965,210.332L134.688,210.235L135.41,210.321L136.133,210.346L136.855,210.314L137.578,210.281L138.301,210.377L139.023,210.365L139.746,210.208L140.469,210.348L141.191,210.311L141.914,210.308L142.637,210.383L143.359,210.389L144.082,210.355L144.805,210.365L145.527,210.322L146.25,210.403L146.973,210.276L147.695,210.236L148.418,210.38L149.141,210.381L149.863,210.311L150.586,210.305L151.309,210.271L152.031,210.313L152.754,210.318L153.477,210.164L154.199,210.223L154.922,210.359L155.645,210.277L156.367,210.285L157.09,210.231L157.813,210.282L158.535,210.285L159.258,210.358L159.98,210.166L160.703,210.346L161.426,210.36L162.148,210.408L162.871,210.232L163.594,210.226L164.316,210.27L165.039,210.195L165.762,210.26L166.484,210.379L167.207,210.388L167.93,210.306L168.652,210.245L169.375,210.214L170.098,210.385L170.82,210.236L171.543,210.279L172.266,210.208L172.988,210.318L173.711,210.233L174.434,210.301L175.156,210.249L175.879,210.225L176.602,210.126L177.324,210.293L178.047,210.304L178.77,210.224L179.492,210.364L180.215,210.198L180.938,210.263L181.66,210.218L182.383,210.378L183.105,210.255L183.828,210.314L184.551,210.221L185.273,210.192L185.996,210.166L186.719,210.357L187.441,210.236L188.164,210.288L188.887,210.286L189.609,210.171L190.332,210.248L191.055,210.351L191.777,210.278L192.5,210.138L193.223,210.207L193.945,210.303L194.668,210.328L195.391,210.207L196.113,210.202L196.836,210.133L197.559,210.325L198.281,210.214L199.004,210.313L199.727,210.272L200.449,210.215L201.172,210.224L201.895,210.198L202.617,210.335L203.34,210.233L204.063,210.246L204.785,210.179L205.508,210.3L206.23,210.117L206.953,210.118L207.676,210.207L208.398,210.264L209.121,210.155L209.844,210.113L210.566,210.149L211.289,210.101L212.012,210.178L212.734,210.111L213.457,210.135L214.18,210.137L214.902,210.31L215.625,210.184L216.348,210.189L217.07,210.14L217.793,210.19L218.516,210.256L219.238,210.206L219.961,210.229L220.684,210.124L221.406,210.185L222.129,210.178L222.852,210.115L223.574,210.138L224.297,210.169L225.02,210.178L225.742,210.113L226.465,210.099L227.188,210.27L227.91,210.167L228.633,210.142L229.355,210.111L230.078,210.252L230.801,210.142L231.523,210.243L232.246,209.984L232.969,210.207L233.691,210.193L234.414,210.207L235.137,210.158L235.859,210.237L236.582,210.12L237.305,210.15L238.027,210.195L238.75,210.204L239.473,209.985L240.195,210.159L240.918,210.184L241.641,210.1L242.363,210.096L243.086,210.234L243.809,210.173L244.531,210.193L245.254,210.207L245.977,210.177L246.699,210.086L247.422,210.14L248.145,210.136L248.867,210.212L249.59,210.268L250.313,210.26L251.035,210.041L251.758,210.19L252.48,210.152L253.203,210.153L253.926,210.174L254.648,210.266L255.371,210.116L256.094,210.128L256.816,210.156L257.539,210.266L258.262,210.036L258.984,210.148L259.707,210.133L260.43,210.257L261.152,210.198L261.875,210.071L262.598,210.144L263.32,210.052L264.043,210.144L264.766,210.138L265.488,210.172L266.211,210.244L266.934,210.019L267.656,210.13L268.379,210.131L269.102,210.022L269.824,210.189L270.547,210.286L271.27,210.135L271.992,210.175L272.715,210.22L273.438,210.143L274.16,210.147L274.883,210.239L275.605,210.205L276.328,210.203L277.051,210.26L277.773,210.064L278.496,210.145L279.219,210.261L279.941,210.207L280.664,210.178L281.387,210.2L282.109,210.086L282.832,210.253L283.555,210.137L284.277,210.215L285,210.144L285.723,210.244L286.445,210.13L287.168,210.133L287.891,210.162L288.613,210.172L289.336,210.19L290.059,210.169L290.781,210.333L291.504,210.166L292.227,210.286L292.949,210.196L293.672,210.235L294.395,210.202L295.117,210.257L295.84,210.216L296.563,210.246L297.285,210.142L298.008,210.276L298.73,210.245L299.453,210.148L300.176,210.299L300.898,210.12L301.621,210.148L302.344,210.24L303.066,210.275L303.789,210.231L304.512,210.273L305.234,210.167L305.957,210.247L306.68,210.2L307.402,210.199L308.125,210.204L308.848,210.234L309.57,210.234L310.293,210.279L311.016,210.367L311.738,210.222L312.461,210.267L313.184,210.212L313.906,210.202L314.629,210.291L315.352,210.222L316.074,210.309L316.797,210.334L317.52,210.269L318.242,210.22L318.965,210.229L319.688,210.255L320.41,210.342L321.133,210.286L321.855,210.256L322.578,210.217L323.301,210.329L324.023,210.354L324.746,210.292L325.469,210.273L326.191,210.365L326.914,210.316L327.637,210.347L328.359,210.285L329.082,210.304L329.805,210.288L330.527,210.345L331.25,210.418L331.973,210.413L332.695,210.308L333.418,210.386L334.141,210.353L334.863,210.4L335.586,210.362L336.309,210.337L337.031,210.328L337.754,210.341L338.477,210.416L339.199,210.413L339.922,210.502L340.645,210.434L341.367,210.438L342.09,210.477L342.813,210.422L343.535,210.421L344.258,210.548L344.98,210.439L345.703,210.431L346.426,210.519L347.148,210.475L347.871,210.54L348.594,210.573L349.316,210.474L350.039,210.514L350.762,210.567L351.484,210.484L352.207,210.477L352.93,210.577L353.652,210.507L354.375,210.571L355.098,210.512L355.82,210.542L356.543,210.545L357.266,210.695L357.988,210.538L358.711,210.608L359.434,210.592L360.156,210.501L360.879,210.663L361.602,210.58L362.324,210.578L363.047,210.607L363.77,210.526L364.492,210.653L365.215,210.635L365.938,210.747L366.66,210.676L367.383,210.611L368.105,210.69L368.828,210.743L369.551,210.747L370.273,210.755L370.996,210.759L371.719,210.688L372.441,210.721L373.164,210.643L373.887,210.719L374.609,210.815L375.332,210.69L376.055,210.618L376.777,210.905L377.5,210.834L378.223,210.791L378.945,210.707L379.668,210.802L380.391,210.704L381.113,210.789L381.836,210.918L382.559,210.867L383.281,210.972L384.004,210.85L384.727,211.032L385.449,210.95L386.172,210.917L386.895,211.051L387.617,210.978L388.34,211.019L389.063,211.069L389.785,210.887L390.508,210.962L391.23,210.957L391.953,210.931L392.676,210.987L393.398,211.207L394.121,211.01L394.844,211.088L395.566,211.069L396.289,211.066L397.012,211.126L397.734,211.13L398.457,211.001L399.18,211.037L399.902,211.175L400.625,211.167L401.348,211.175L402.07,211.187L402.793,211.306L403.516,211.309L404.238,211.405L404.961,211.133L405.684,211.35L406.406,211.23L407.129,211.284L407.852,211.354L408.574,211.178L409.297,211.19L410.02,211.347L410.742,211.427L411.465,211.13L412.188,211.395L412.91,211.297L413.633,211.43L414.355,211.463L415.078,211.401L415.801,211.539L416.523,211.469L417.246,211.425L417.969,211.522L418.691,211.503L419.414,211.54L420.137,211.371L420.859,211.446L421.582,211.468L422.305,211.65L423.027,211.489L423.75,211.667L424.473,211.445L425.195,211.67L425.918,211.653L426.641,211.455L427.363,211.699L428.086,211.672L428.809,211.611L429.531,211.699L430.254,211.628L430.977,211.606L431.699,211.726L432.422,211.807L433.145,211.537L433.867,211.549L434.59,211.738L435.313,211.662L436.035,211.631L436.758,211.816L437.48,211.806L438.203,211.898L438.926,211.652L439.648,211.713L440.371,211.871L441.094,211.984L441.816,211.896L442.539,211.847L443.262,211.759L443.984,211.896L444.707,211.79L445.43,212.108L446.152,211.885L446.875,212.011L447.598,211.941L448.32,211.795L449.043,211.857L449.766,211.902L450.488,211.948L451.211,212.088L451.934,211.884L452.656,211.988L453.379,211.957L454.102,212.042L454.824,212.108L455.547,212.246L456.27,212.164L456.992,212.023L457.715,211.841L458.438,212.122L459.16,212.001L459.883,212.061L460.605,212.054L461.328,212.234L462.051,211.942L462.773,212.4L463.496,212.167L464.219,212.236L464.941,212.189L465.664,212.268L466.387,212.057L467.109,212.179L467.832,211.97L468.555,212.25L469.277,212.222"/><path fill="none" stroke="rgb(149, 251, 81)" stroke-width="1.5" d="M100,183.512L100.723,184.878L101.445,184.97L102.168,184.873L102.891,184.876L103.613,184.835L104.336,184.973L105.059,184.882L105.781,184.918L106.504,184.871L107.227,184.883L107.949,184.97L108.672,184.935L109.395,184.787L110.117,184.866L110.84,184.939L111.563,184.933L112.285,184.883L113.008,184.929L113.73,184.891L114.453,184.769L115.176,184.903L115.898,184.848L116.621,184.847L117.344,184.837L118.066,184.977L118.789,185.013L119.512,184.82L120.234,185.035L120.957,184.948L121.68,184.994L122.402,184.808L123.125,184.956L123.848,184.933L124.57,184.841L125.293,184.895L126.016,184.896L126.738,184.927L127.461,184.916L128.184,184.964L128.906,184.945L129.629,184.942L130.352,184.953L131.074,184.974L131.797,184.964L132.52,184.892L133.242,184.988L133.965,184.937L134.688,185.004L135.41,184.955L136.133,184.904L136.855,184.929L137.578,184.935L138.301,184.822L139.023,184.918L139.746,184.833L140.469,184.913L141.191,184.968L141.914,184.94L142.637,185.065L143.359,184.873L144.082,184.953L144.805,184.913L145.527,184.918L146.25,184.976L146.973,184.889L147.695,184.838L148.418,184.976L149.141,184.838L149.863,184.884L150.586,184.944L151.309,184.989L152.031,184.886L152.754,184.948L153.477,184.952L154.199,184.898L154.922,184.898L155.645,184.949L156.367,184.936L157.09,184.788L157.813,184.904L158.535,184.89L159.258,184.94L159.98,184.947L160.703,184.968L161.426,185.02L162.148,184.933L162.871,184.902L163.594,184.972L164.316,184.947L165.039,184.951L165.762,184.867L166.484,185.062L167.207,184.981L167.93,184.826L168.652,184.741L169.375,184.899L170.098,184.923L170.82,184.904L171.543,184.911L172.266,184.976L172.988,184.893L173.711,184.972L174.434,184.929L175.156,184.97L175.879,184.872L176.602,184.935L177.324,184.972L178.047,184.856L178.77,184.863L179.492,184.739L180.215,184.974L180.938,184.877L181.66,184.84L182.383,184.965L183.105,184.899L183.828,184.974L184.551,184.914L185.273,184.918L185.996,184.873L186.719,184.992L187.441,184.973L188.164,184.948L188.887,184.987L189.609,184.873L190.332,184.871L191.055,184.928L191.777,184.965L192.5,184.992L193.223,184.945L193.945,184.744L194.668,185.064L195.391,184.719L196.113,184.861L196.836,184.941L197.559,184.904L198.281,184.885L199.004,184.955L199.727,184.973L200.449,184.896L201.172,184.919L201.895,184.867L202.617,184.94L203.34,184.972L204.063,184.786L204.785,184.942L205.508,184.93L206.23,184.973L206.953,184.832L207.676,185.01L208.398,184.854L209.121,184.989L209.844,185.006L210.566,184.975L211.289,184.939L212.012,184.986L212.734,184.882L213.457,184.869L214.18,185.011L214.902,184.992L215.625,184.855L216.348,184.943L217.07,184.917L217.793,184.949L218.516,184.852L219.238,184.931L219.961,184.777L220.684,184.948L221.406,184.913L222.129,184.804L222.852,184.908L223.574,184.798L224.297,184.962L225.02,184.803L225.742,184.903L226.465,184.927L227.188,184.908L227.91,184.818L228.633,184.865L229.355,184.878L230.078,184.899L230.801,184.897L231.523,184.926L232.246,184.783L232.969,184.891L233.691,184.885L234.414,184.847L235.137,184.975L235.859,184.912L236.582,184.886L237.305,184.892L238.027,184.887L238.75,184.988L239.473,184.842L240.195,184.967L240.918,184.818L241.641,184.816L242.363,184.805L243.086,184.829L243.809,184.881L244.531,184.867L245.254,184.919L245.977,184.838L246.699,184.834L247.422,184.804L248.145,184.871L248.867,184.734L249.59,185.015L250.313,184.817L251.035,184.886L251.758,184.842L252.48,184.864L253.203,184.73L253.926,184.898L254.648,184.893L255.371,184.852L256.094,184.867L256.816,184.791L257.539,184.807L258.262,184.9L258.984,184.818L259.707,184.94L260.43,184.901L261.152,184.798L261.875,184.866L262.598,184.861L263.32,184.846L264.043,184.823L264.766,184.89L265.488,184.77L266.211,184.718L266.934,184.934L267.656,184.831L268.379,184.933L269.102,184.893L269.824,184.771L270.547,184.957L271.27,184.765L271.992,184.806L272.715,184.735L273.438,184.734L274.16,184.81L274.883,184.841L275.605,184.932L276.328,184.746L277.051,184.806L277.773,184.81L278.496,184.965L279.219,184.849L279.941,184.9L280.664,184.912L281.387,184.818L282.109,184.966L282.832,184.852L283.555,184.853L284.277,184.791L285,184.944L285.723,184.89L286.445,184.835L287.168,184.778L287.891,184.859L288.613,184.773L289.336,184.831L290.059,184.837L290.781,184.886L291.504,184.962L292.227,184.985L292.949,184.865L293.672,184.753L294.395,184.873L295.117,184.949L295.84,184.817L296.563,184.979L297.285,184.849L298.008,184.874L298.73,184.888L299.453,184.861L300.176,184.897L300.898,184.877L301.621,184.866L302.344,184.782L303.066,184.923L303.789,184.939L304.512,185.025L305.234,184.795L305.957,184.957L306.68,184.958L307.402,184.872L308.125,184.995L308.848,184.957L309.57,184.945L310.293,184.926L311.016,184.932L311.738,184.968L312.461,184.97L313.184,185.069L313.906,184.986L314.629,184.978L315.352,185.102L316.074,184.958L316.797,185.046L317.52,185.028L318.242,184.961L318.965,184.899L319.688,184.944L320.41,185.079L321.133,185.094L321.855,185.006L322.578,185.053L323.301,185.132L324.023,184.915L324.746,185.042L325.469,185.102L326.191,185.087L326.914,185.014L327.637,185.083L328.359,185.094L329.082,185.084L329.805,185.047L330.527,185.008L331.25,185.087L331.973,185.106L332.695,185.121L333.418,185.146L334.141,185.21L334.863,185.15L335.586,185.054L336.309,185.198L337.031,185.095L337.754,185.178L338.477,185.087L339.199,185.03L339.922,185.138L340.645,185.333L341.367,185.209L342.09,185.137L342.813,185.124L343.535,185.292L344.258,185.202L344.98,185.255L345.703,185.199L346.426,185.174L347.148,185.282L347.871,185.421L348.594,185.268L349.316,185.388L350.039,185.251L350.762,185.243L351.484,185.276L352.207,185.264L352.93,185.465L353.652,185.365L354.375,185.301L355.098,185.306L355.82,185.38L356.543,185.338L357.266,185.361L357.988,185.309L358.711,185.433L359.434,185.464L360.156,185.293L360.879,185.453L361.602,185.279L362.324,185.245L363.047,185.399L363.77,185.526L364.492,185.36L365.215,185.57L365.938,185.375L366.66,185.588L367.383,185.561L368.105,185.46L368.828,185.503L369.551,185.417L370.273,185.462L370.996,185.543L371.719,185.391L372.441,185.491L373.164,185.653L373.887,185.495L374.609,185.706L375.332,185.718L376.055,185.66L376.777,185.679L377.5,185.527L378.223,185.79L378.945,185.651L379.668,185.659L380.391,185.59L381.113,185.673L381.836,185.748L382.559,185.861L383.281,185.676L384.004,185.659L384.727,185.653L385.449,185.787L386.172,185.826L386.895,185.746L387.617,185.672L388.34,185.731L389.063,185.75L389.785,185.86L390.508,186.003L391.23,185.842L391.953,185.753L392.676,185.796L393.398,185.91L394.121,185.877L394.844,185.91L395.566,185.857L396.289,185.999L397.012,185.884L397.734,186.044L398.457,185.929L399.18,186.011L399.902,186.003L400.625,186.104L401.348,185.979L402.07,185.912L402.793,186.021L403.516,186.114L404.238,185.983L404.961,186.104L405.684,186.128L406.406,185.986L407.129,186.119L407.852,185.967L408.574,186.236L409.297,186.043L410.02,186.096L410.742,186.136L411.465,185.994L412.188,186.042L412.91,186.058L413.633,186.127L414.355,186.212L415.078,186.163L415.801,186.284L416.523,186.166L417.246,186.149L417.969,186.34L418.691,186.223L419.414,186.339L420.137,186.124L420.859,186.452L421.582,186.424L422.305,186.151L423.027,186.37L423.75,186.341L424.473,186.567L425.195,186.476L425.918,186.361L426.641,186.298L427.363,186.564L428.086,186.368L428.809,186.467L429.531,186.341L430.254,186.494L430.977,186.388L431.699,186.603L432.422,186.572L433.145,186.282L433.867,186.737L434.59,186.756L435.313,186.33L436.035,186.538L436.758,186.687L437.48,186.368L438.203,186.455L438.926,186.457L439.648,186.386L440.371,186.643L441.094,186.505L441.816,186.655L442.539,186.635L443.262,186.509L443.984,186.775L444.707,186.641L445.43,186.803L446.152,186.745L446.875,186.67L447.598,186.605L448.32,186.777L449.043,186.704L449.766,186.591L450.488,186.423L451.211,186.862L451.934,186.878L452.656,186.637L453.379,186.905L454.102,186.877L454.824,186.501L455.547,186.753L456.27,186.803L456.992,186.876L457.715,186.759L458.438,186.911L459.16,186.899L459.883,186.663L460.605,186.866L461.328,186.802L462.051,186.973L462.773,186.968L463.496,186.662L464.219,186.938L464.941,186.91L465.664,187.003L466.387,186.692L467.109,186.729L467.832,186.943L468.555,186.844L469.277,186.764"/><path fill="none" stroke="rgb(236, 209, 46)" stroke-width="1.5" d="M100,183.964L100.723,184.405L101.445,184.443L102.168,184.485L102.891,184.468L103.613,184.467L104.336,184.456L105.059,184.482L105.781,184.529L106.504,184.463L107.227,184.43L107.949,184.515L108.672,184.506L109.395,184.505L110.117,184.532L110.84,184.625L111.563,184.437L112.285,184.51L113.008,184.529L113.73,184.421L114.453,184.46L115.176,184.46L115.898,184.531L116.621,184.586L117.344,184.485L118.066,184.46L118.789,184.471L119.512,184.512L120.234,184.52L120.957,184.538L121.68,184.432L122.402,184.476L123.125,184.509L123.848,184.457L124.57,184.483L125.293,184.49L126.016,184.463L126.738,184.593L127.461,184.687L128.184,184.466L128.906,184.478L129.629,184.591L130.352,184.445L131.074,184.535L131.797,184.561L132.52,184.527L133.242,184.488L133.965,184.532L134.688,184.462L135.41,184.565L136.133,184.552L136.855,184.537L137.578,184.537L138.301,184.461L139.023,184.516L139.746,184.524L140.469,184.491L141.191,184.659L141.914,184.602L142.637,184.535L143.359,184.488L144.082,184.464L144.805,184.644L145.527,184.573L146.25,184.493L146.973,184.503L147.695,184.589L148.418,184.502L149.141,184.533L149.863,184.672L150.586,184.492L151.309,184.606L152.031,184.619L152.754,184.625L153.477,184.468L154.199,184.523L154.922,184.541L155.645,184.619L156.367,184.59L157.09,184.627L157.813,184.523L158.535,184.554L159.258,184.51L159.98,184.569L160.703,184.492L161.426,184.506L162.148,184.536L162.871,184.547L163.594,184.556L164.316,184.476L165.039,184.516L165.762,184.588L166.484,184.532L167.207,184.555L167.93,184.553L168.652,184.677L169.375,184.693L170.098,184.58L170.82,184.561L171.543,184.605L172.266,184.681L172.988,184.71L173.711,184.516L174.434,184.542L175.156,184.682L175.879,184.502L176.602,184.566L177.324,184.586L178.047,184.55L178.77,184.639L179.492,184.63L180.215,184.631L180.938,184.63L181.66,184.548L182.383,184.706L183.105,184.615L183.828,184.639L184.551,184.541L185.273,184.516L185.996,184.549L186.719,184.698L187.441,184.676L188.164,184.693L188.887,184.63L189.609,184.59L190.332,184.702L191.055,184.566L191.777,184.662L192.5,184.574L193.223,184.639L193.945,184.605L194.668,184.558L195.391,184.566L196.113,184.493L196.836,184.7L197.559,184.596L198.281,184.768L199.004,184.604L199.727,184.63L200.449,184.619L201.172,184.759L201.895,184.585L202.617,184.72L203.34,184.596L204.063,184.734L204.785,184.607L205.508,184.5L206.23,184.53L206.953,184.612L207.676,184.682L208.398,184.6L209.121,184.593L209.844,184.639L210.566,184.74L211.289,184.694L212.012,184.621L212.734,184.64L213.457,184.714L214.18,184.666L214.902,184.704L215.625,184.681L216.348,184.624L217.07,184.633L217.793,184.523L218.516,184.701L219.238,184.669L219.961,184.518L220.684,184.545L221.406,184.562L222.129,184.665L222.852,184.595L223.574,184.689L224.297,184.64L225.02,184.73L225.742,184.613L226.465,184.668L227.188,184.529L227.91,184.678L228.633,184.55L229.355,184.519L230.078,184.55L230.801,184.57L231.523,184.708L232.246,184.536L232.969,184.681L233.691,184.666L234.414,184.583L235.137,184.545L235.859,184.718L236.582,184.637L237.305,184.562L238.027,184.621L238.75,184.704L239.473,184.765L240.195,184.655L240.918,184.561L241.641,184.728L242.363,184.472L243.086,184.643L243.809,184.727L244.531,184.648L245.254,184.664L245.977,184.557L246.699,184.617L247.422,184.719L248.145,184.688L248.867,184.622L249.59,184.638L250.313,184.688L251.035,184.725L251.758,184.665L252.48,184.655L253.203,184.774L253.926,184.663L254.648,184.652L255.371,184.567L256.094,184.71L256.816,184.659L257.539,184.613L258.262,184.743L258.984,184.821L259.707,184.768L260.43,184.817L261.152,184.701L261.875,184.615L262.598,184.881L263.32,184.589L264.043,184.642L264.766,184.728L265.488,184.531L266.211,184.81L266.934,184.694L267.656,184.64L268.379,184.598L269.102,184.644L269.824,184.631L270.547,184.665L271.27,184.686L271.992,184.743L272.715,184.666L273.438,184.704L274.16,184.654L274.883,184.69L275.605,184.641L276.328,184.565L277.051,184.578L277.773,184.686L278.496,184.623L279.219,184.77L279.941,184.724L280.664,184.678L281.387,184.805L282.109,184.716L282.832,184.686L283.555,184.705L284.277,184.723L285,184.719L285.723,184.679L286.445,184.668L287.168,184.68L287.891,184.551L288.613,184.747L289.336,184.66L290.059,184.812L290.781,184.708L291.504,184.631L292.227,184.569L292.949,184.692L293.672,184.619L294.395,184.718L295.117,184.568L295.84,184.75L296.563,184.588L297.285,184.729L298.008,184.685L298.73,184.706L299.453,184.814L300.176,184.665L300.898,184.744L301.621,184.655L302.344,184.599L303.066,184.842L303.789,184.739L304.512,184.748L305.234,184.675L305.957,184.783L306.68,184.723L307.402,184.782L308.125,184.792L308.848,184.773L309.57,184.749L310.293,184.829L311.016,184.747L311.738,184.836L312.461,184.852L313.184,184.921L313.906,184.848L314.629,184.804L315.352,184.713L316.074,184.819L316.797,184.813L317.52,184.723L318.242,184.839L318.965,184.802L319.688,184.769L320.41,184.904L321.133,184.902L321.855,184.887L322.578,184.813L323.301,184.899L324.023,184.884L324.746,184.769L325.469,184.77L326.191,185.051L326.914,184.786L327.637,184.844L328.359,184.887L329.082,184.893L329.805,184.842L330.527,184.886L331.25,184.916L331.973,184.884L332.695,184.923L333.418,184.882L334.141,185.027L334.863,184.936L335.586,185.043L336.309,185.051L337.031,184.954L337.754,185.089L338.477,184.84L339.199,185.055L339.922,185.222L340.645,184.974L341.367,185.105L342.09,185.168L342.813,185.03L343.535,184.963L344.258,185.064L344.98,185.054L345.703,184.963L346.426,185.145L347.148,185.061L347.871,185.16L348.594,185.22L349.316,185.081L350.039,185.276L350.762,185.227L351.484,185.235L352.207,185.09L352.93,185.138L353.652,185.12L354.375,185.337L355.098,185.178L355.82,185.194L356.543,185.125L357.266,185.252L357.988,185.147L358.711,185.16L359.434,185.334L360.156,185.271L360.879,185.14L361.602,185.259L362.324,185.254L363.047,185.253L363.77,185.246L364.492,185.357L365.215,185.45L365.938,185.513L366.66,185.245L367.383,185.275L368.105,185.359L368.828,185.267L369.551,185.59L370.273,185.345L370.996,185.489L371.719,185.512L372.441,185.453L373.164,185.631L373.887,185.49L374.609,185.493L375.332,185.431L376.055,185.404L376.777,185.446L377.5,185.549L378.223,185.481L378.945,185.57L379.668,185.442L380.391,185.624L381.113,185.569L381.836,185.544L382.559,185.573L383.281,185.562L384.004,185.448L384.727,185.65L385.449,185.617L386.172,185.725L386.895,185.668L387.617,185.612L388.34,185.635L389.063,185.57L389.785,185.657L390.508,185.812L391.23,185.6L391.953,185.673L392.676,185.834L393.398,185.741L394.121,185.758L394.844,185.621L395.566,185.829L396.289,185.886L397.012,185.787L397.734,185.739L398.457,185.761L399.18,185.801L399.902,185.819L400.625,185.807L401.348,185.81L402.07,185.904L402.793,185.741L403.516,185.864L404.238,185.892L404.961,185.97L405.684,185.929L406.406,185.924L407.129,185.936L407.852,185.949L408.574,185.849L409.297,186.051L410.02,185.948L410.742,186.315L411.465,186.173L412.188,186.011L412.91,186.083L413.633,186.142L414.355,186.064L415.078,186.144L415.801,186.067L416.523,186.136L417.246,186.125L417.969,186.149L418.691,186.232L419.414,186.244L420.137,186.116L420.859,186.042L421.582,186.237L422.305,185.984L423.027,186.382L423.75,186.087L424.473,186.321L425.195,186.242L425.918,186.351L426.641,186.273L427.363,186.26L428.086,186.32L428.809,186.233L429.531,186.101L430.254,186.246L430.977,186.362L431.699,186.149L432.422,186.255L433.145,186.294L433.867,186.234L434.59,186.306L435.313,186.322L436.035,186.411L436.758,186.389L437.48,186.415L438.203,186.385L438.926,186.467L439.648,186.289L440.371,186.592L441.094,186.515L441.816,186.59L442.539,186.468L443.262,186.766L443.984,186.563L444.707,186.566L445.43,186.483L446.152,186.423L446.875,186.506L447.598,186.641L448.32,186.444L449.043,186.497L449.766,186.401L450.488,186.558L451.211,186.671L451.934,186.617L452.656,186.463L453.379,186.505L454.102,186.41L454.824,186.649L455.547,186.795L456.27,186.721L456.992,186.759L457.715,186.703L458.438,186.507L459.16,186.536L459.883,186.527L460.605,186.669L461.328,186.761L462.051,186.794L462.773,186.608L463.496,186.765L464.219,186.541L464.941,186.808L465.664,186.442L466.387,186.629L467.109,186.541L467.832,186.554L468.555,186.772L469.277,186.685"/><path fill="none" stroke="rgb(255, 130, 29)" stroke-width="1.5" d="M100,184.067L100.723,184.456L101.445,184.331L102.168,184.257L102.891,184.319L103.613,184.374L104.336,184.37L105.059,184.368L105.781,184.49L106.504,184.365L107.227,184.452L107.949,184.385L108.672,184.352L109.395,184.286L110.117,184.347L110.84,184.207L111.563,184.249L112.285,184.349L113.008,184.388L113.73,184.358L114.453,184.4L115.176,184.399L115.898,184.49L116.621,184.347L117.344,184.349L118.066,184.39L118.789,184.375L119.512,184.292L120.234,184.417L120.957,184.303L121.68,184.447L122.402,184.366L123.125,184.387L123.848,184.344L124.57,184.323L125.293,184.347L126.016,184.505L126.738,184.361L127.461,184.461L128.184,184.333L128.906,184.47L129.629,184.328L130.352,184.379L131.074,184.386L131.797,184.409L132.52,184.543L133.242,184.465L133.965,184.383L134.688,184.418L135.41,184.524L136.133,184.456L136.855,184.399L137.578,184.459L138.301,184.349L139.023,184.47L139.746,184.372L140.469,184.286L141.191,184.481L141.914,184.459L142.637,184.398L143.359,184.469L144.082,184.492L144.805,184.383L145.527,184.354L146.25,184.491L146.973,184.524L147.695,184.442L148.418,184.445L149.141,184.472L149.863,184.325L150.586,184.339L151.309,184.482L152.031,184.431L152.754,184.481L153.477,184.472L154.199,184.696L154.922,184.415L155.645,184.537L156.367,184.397L157.09,184.483L157.813,184.554L158.535,184.564L159.258,184.495L159.98,184.528L160.703,184.473L161.426,184.44L162.148,184.463L162.871,184.43L163.594,184.352L164.316,184.521L165.039,184.514L165.762,184.496L166.484,184.369L167.207,184.444L167.93,184.55L168.652,184.626L169.375,184.475L170.098,184.576L170.82,184.514L171.543,184.474L172.266,184.652L172.988,184.679L173.711,184.515L174.434,184.629L175.156,184.615L175.879,184.621L176.602,184.549L177.324,184.541L178.047,184.477L178.77,184.604L179.492,184.54L180.215,184.673L180.938,184.453L181.66,184.747L182.383,184.555L183.105,184.533L183.828,184.748L184.551,184.521L185.273,184.611L185.996,184.481L186.719,184.698L187.441,184.635L188.164,184.599L188.887,184.642L189.609,184.613L190.332,184.668L191.055,184.467L191.777,184.603L192.5,184.548L193.223,184.793L193.945,184.648L194.668,184.689L195.391,184.764L196.113,184.678L196.836,184.744L197.559,184.817L198.281,184.819L199.004,184.62L199.727,184.57L200.449,184.679L201.172,184.859L201.895,184.645L202.617,184.846L203.34,184.711L204.063,184.789L204.785,184.729L205.508,184.642L206.23,184.734L206.953,184.711L207.676,184.812L208.398,184.652L209.121,184.857L209.844,184.712L210.566,184.619L211.289,184.775L212.012,184.812L212.734,184.736L213.457,184.816L214.18,184.765L214.902,184.843L215.625,184.742L216.348,184.717L217.07,184.758L217.793,184.933L218.516,184.769L219.238,184.819L219.961,184.774L220.684,184.862L221.406,184.867L222.129,184.745L222.852,184.643L223.574,184.844L224.297,184.786L225.02,184.811L225.742,184.769L226.465,184.796L227.188,184.735L227.91,184.934L228.633,184.806L229.355,184.77L230.078,184.791L230.801,184.867L231.523,184.687L232.246,184.739L232.969,184.848L233.691,184.889L234.414,185.005L235.137,184.883L235.859,184.754L236.582,184.79L237.305,184.818L238.027,184.76L238.75,184.914L239.473,184.8L240.195,184.827L240.918,184.8L241.641,184.956L242.363,184.831L243.086,184.874L243.809,184.919L244.531,184.817L245.254,184.785L245.977,184.757L246.699,184.895L247.422,184.98L248.145,184.715L248.867,184.927L249.59,184.873L250.313,184.82L251.035,184.93L251.758,184.85L252.48,184.736L253.203,184.935L253.926,184.827L254.648,185.019L255.371,184.887L256.094,184.97L256.816,184.802L257.539,184.929L258.262,184.878L258.984,184.823L259.707,184.772L260.43,184.858L261.152,184.922L261.875,184.815L262.598,184.954L263.32,184.925L264.043,184.808L264.766,184.913L265.488,185.015L266.211,184.853L266.934,184.941L267.656,184.866L268.379,184.91L269.102,184.787L269.824,184.849L270.547,184.913L271.27,184.825L271.992,185.003L272.715,184.997L273.438,184.883L274.16,184.94L274.883,184.883L275.605,184.951L276.328,184.973L277.051,184.91L277.773,185.006L278.496,184.963L279.219,184.887L279.941,184.928L280.664,185.048L281.387,185.008L282.109,184.946L282.832,185.062L283.555,185.046L284.277,185.019L285,184.911L285.723,185.043L286.445,185.008L287.168,184.952L287.891,185.075L288.613,184.801L289.336,184.926L290.059,185.007L290.781,185.007L291.504,185.023L292.227,184.966L292.949,184.998L293.672,185.047L294.395,185.003L295.117,185.012L295.84,185.023L296.563,185.039L297.285,184.983L298.008,185.039L298.73,185.051L299.453,185.116L300.176,185.122L300.898,185.057L301.621,185.097L302.344,184.864L303.066,185.065L303.789,184.947L304.512,185.09L305.234,185.139L305.957,184.888L306.68,185.01L307.402,185.063L308.125,185.127L308.848,185.05L309.57,185.171L310.293,185.002L311.016,185.014L311.738,184.897L312.461,185.05L313.184,185.096L313.906,185.005L314.629,185.246L315.352,185.119L316.074,185.24L316.797,185.192L317.52,185.041L318.242,185.284L318.965,185.094L319.688,185.098L320.41,185.159L321.133,185.295L321.855,185.047L322.578,185.072L323.301,185.093L324.023,185.361L324.746,185.263L325.469,185.346L326.191,185.219L326.914,185.397L327.637,185.184L328.359,185.192L329.082,185.233L329.805,185.317L330.527,185.347L331.25,185.027L331.973,185.364L332.695,185.278L333.418,185.307L334.141,185.079L334.863,185.386L335.586,185.29L336.309,185.056L337.031,185.183L337.754,185.301L338.477,185.311L339.199,185.139L339.922,185.477L340.645,185.383L341.367,185.155L342.09,185.163L342.813,185.401L343.535,185.376L344.258,185.472L344.98,185.585L345.703,185.524L346.426,185.389L347.148,185.283L347.871,185.468L348.594,185.374L349.316,185.452L350.039,185.382L350.762,185.486L351.484,185.4L352.207,185.368L352.93,185.522L353.652,185.299L354.375,185.36L355.098,185.32L355.82,185.558L356.543,185.337L357.266,185.508L357.988,185.443L358.711,185.575L359.434,185.352L360.156,185.638L360.879,185.381L361.602,185.566L362.324,185.619L363.047,185.62L363.77,185.588L364.492,185.766L365.215,185.729L365.938,185.443L366.66,185.699L367.383,185.577L368.105,185.548L368.828,185.498L369.551,185.765L370.273,185.655L370.996,185.564L371.719,185.715L372.441,185.756L373.164,185.754L373.887,185.732L374.609,185.682L375.332,185.717L376.055,185.758L376.777,185.709L377.5,185.959L378.223,185.852L378.945,185.919L379.668,185.675L380.391,185.711L381.113,185.715L381.836,185.962L382.559,185.998L383.281,185.796L384.004,186.021L384.727,185.915L385.449,185.831L386.172,185.882L386.895,186.052L387.617,186L388.34,186.032L389.063,185.863L389.785,186.008L390.508,186.016L391.23,186.029L391.953,185.967L392.676,186.031L393.398,185.936L394.121,185.926L394.844,186.24L395.566,185.802L396.289,185.99L397.012,185.97L397.734,186.322L398.457,185.997L399.18,186.143L399.902,186.259L400.625,186.123L401.348,186.216L402.07,186.058L402.793,186.033L403.516,186.178L404.238,186.308L404.961,186.281L405.684,186.538L406.406,186.213L407.129,186.117L407.852,186.342L408.574,186.218L409.297,186.244L410.02,186.017L410.742,186.37L411.465,186.281L412.188,186.319L412.91,186.49L413.633,186.296L414.355,186.345L415.078,186.489L415.801,186.34L416.523,186.617L417.246,186.532L417.969,186.304L418.691,186.495L419.414,186.501L420.137,186.478L420.859,186.283L421.582,186.388L422.305,186.496L423.027,186.64L423.75,186.513L424.473,186.721L425.195,186.393L425.918,186.463L426.641,186.492L427.363,186.541L428.086,186.81L428.809,186.452L429.531,186.684L430.254,186.549L430.977,186.772L431.699,186.744L432.422,186.685L433.145,186.526L433.867,186.714L434.59,186.716L435.313,186.786L436.035,186.689L436.758,186.752L437.48,186.551L438.203,186.784L438.926,186.654L439.648,186.715L440.371,186.904L441.094,186.605L441.816,186.831L442.539,186.817L443.262,186.723L443.984,186.752L444.707,186.616L445.43,186.44L446.152,186.831L446.875,186.484L447.598,186.654L448.32,186.877L449.043,186.638L449.766,186.914L450.488,186.533L451.211,186.645L451.934,186.889L452.656,186.869L453.379,186.618L454.102,186.917L454.824,186.782L455.547,186.75L456.27,186.82L456.992,186.939L457.715,187L458.438,186.641L459.16,186.737L459.883,186.998L460.605,186.834L461.328,187.091L462.051,186.797L462.773,186.759L463.496,186.743L464.219,186.723L464.941,186.748L465.664,186.711L466.387,187.001L467.109,186.671L467.832,186.778L468.555,186.78L469.277,186.878"/><path fill="none" stroke="rgb(203, 47, 13)" stroke-width="1.5" d="M100,184.06L100.723,184.38L101.445,184.33L102.168,184.406L102.891,184.396L103.613,184.279L104.336,184.326L105.059,184.361L105.781,184.319L106.504,184.422L107.227,184.288L107.949,184.361L108.672,184.386L109.395,184.362L110.117,184.362L110.84,184.42L111.563,184.39L112.285,184.356L113.008,184.393L113.73,184.37L114.453,184.323L115.176,184.386L115.898,184.383L116.621,184.402L117.344,184.394L118.066,184.412L118.789,184.316L119.512,184.379L120.234,184.377L120.957,184.503L121.68,184.409L122.402,184.306L123.125,184.463L123.848,184.446L124.57,184.366L125.293,184.353L126.016,184.564L126.738,184.541L127.461,184.426L128.184,184.389L128.906,184.414L129.629,184.563L130.352,184.443L131.074,184.383L131.797,184.402L132.52,184.437L133.242,184.414L133.965,184.294L134.688,184.523L135.41,184.44L136.133,184.512L136.855,184.323L137.578,184.438L138.301,184.552L139.023,184.476L139.746,184.481L140.469,184.485L141.191,184.484L141.914,184.509L142.637,184.461L143.359,184.448L144.082,184.525L144.805,184.494L145.527,184.512L146.25,184.493L146.973,184.6L147.695,184.455L148.418,184.417L149.141,184.462L149.863,184.485L150.586,184.636L151.309,184.535L152.031,184.566L152.754,184.482L153.477,184.539L154.199,184.542L154.922,184.552L155.645,184.586L156.367,184.471L157.09,184.518L157.813,184.523L158.535,184.574L159.258,184.647L159.98,184.421L160.703,184.669L161.426,184.598L162.148,184.585L162.871,184.458L163.594,184.584L164.316,184.552L165.039,184.553L165.762,184.519L166.484,184.652L167.207,184.519L167.93,184.561L168.652,184.535L169.375,184.615L170.098,184.682L170.82,184.66L171.543,184.736L172.266,184.635L172.988,184.831L173.711,184.639L174.434,184.589L175.156,184.68L175.879,184.535L176.602,184.76L177.324,184.637L178.047,184.712L178.77,184.663L179.492,184.606L180.215,184.762L180.938,184.743L181.66,184.632L182.383,184.678L183.105,184.654L183.828,184.628L184.551,184.88L185.273,184.791L185.996,184.754L186.719,184.692L187.441,184.669L188.164,184.726L188.887,184.731L189.609,184.819L190.332,184.78L191.055,184.806L191.777,184.84L192.5,184.886L193.223,184.782L193.945,184.76L194.668,184.846L195.391,184.849L196.113,184.744L196.836,184.898L197.559,184.86L198.281,184.893L199.004,184.898L199.727,184.824L200.449,184.767L201.172,184.733L201.895,184.781L202.617,184.922L203.34,184.883L204.063,184.902L204.785,184.982L205.508,184.989L206.23,184.868L206.953,184.937L207.676,184.899L208.398,184.939L209.121,184.989L209.844,184.913L210.566,185.037L211.289,184.975L212.012,185.097L212.734,184.975L213.457,185.022L214.18,185.183L214.902,185.084L215.625,185.08L216.348,184.897L217.07,184.953L217.793,184.994L218.516,184.964L219.238,184.948L219.961,185.159L220.684,185.013L221.406,185.082L222.129,184.978L222.852,185.134L223.574,185.148L224.297,185.175L225.02,185.225L225.742,184.998L226.465,185.095L227.188,185.179L227.91,185.106L228.633,185.24L229.355,185.223L230.078,185.197L230.801,185.142L231.523,185.245L232.246,185.167L232.969,185.081L233.691,185.156L234.414,185.238L235.137,185.336L235.859,185.197L236.582,185.204L237.305,185.26L238.027,185.338L238.75,185.398L239.473,185.306L240.195,185.325L240.918,185.438L241.641,185.454L242.363,185.406L243.086,185.394L243.809,185.24L244.531,185.47L245.254,185.406L245.977,185.326L246.699,185.44L247.422,185.413L248.145,185.237L248.867,185.403L249.59,185.49L250.313,185.494L251.035,185.419L251.758,185.237L252.48,185.447L253.203,185.441L253.926,185.54L254.648,185.491L255.371,185.483L256.094,185.515L256.816,185.44L257.539,185.357L258.262,185.476L258.984,185.513L259.707,185.638L260.43,185.574L261.152,185.484L261.875,185.378L262.598,185.597L263.32,185.546L264.043,185.548L264.766,185.59L265.488,185.734L266.211,185.591L266.934,185.684L267.656,185.59L268.379,185.587L269.102,185.502L269.824,185.579L270.547,185.45L271.27,185.508L271.992,185.543L272.715,185.616L273.438,185.647L274.16,185.593L274.883,185.607L275.605,185.842L276.328,185.749L277.051,185.699L277.773,185.707L278.496,185.743L279.219,185.734L279.941,185.867L280.664,185.899L281.387,186.013L282.109,185.785L282.832,185.877L283.555,185.943L284.277,185.742L285,185.983L285.723,185.864L286.445,185.861L287.168,185.846L287.891,185.773L288.613,185.686L289.336,185.741L290.059,185.783L290.781,185.752L291.504,185.861L292.227,186.077L292.949,185.878L293.672,185.896L294.395,186.002L295.117,186.119L295.84,185.981L296.563,186.122L297.285,186.134L298.008,186.221L298.73,186.047L299.453,186.248L300.176,186.122L300.898,186.075L301.621,186.01L302.344,185.898L303.066,186.167L303.789,186.017L304.512,186.065L305.234,186.069L305.957,186.111L306.68,186.324L307.402,186.239L308.125,186.154L308.848,186.012L309.57,186.165L310.293,186.196L311.016,186.253L311.738,186.255L312.461,186.193L313.184,186.28L313.906,186.364L314.629,186.33L315.352,186.258L316.074,186.188L316.797,186.339L317.52,186.301L318.242,186.374L318.965,186.467L319.688,186.367L320.41,186.368L321.133,186.566L321.855,186.33L322.578,186.572L323.301,186.385L324.023,186.492L324.746,186.352L325.469,186.648L326.191,186.306L326.914,186.531L327.637,186.285L328.359,186.575L329.082,186.459L329.805,186.39L330.527,186.738L331.25,186.288L331.973,186.395L332.695,186.838L333.418,186.717L334.141,186.786L334.863,186.75L335.586,186.718L336.309,186.62L337.031,186.504L337.754,186.639L338.477,186.825L339.199,186.589L339.922,186.641L340.645,186.825L341.367,186.849L342.09,186.778L342.813,186.804L343.535,186.827L344.258,187.057L344.98,186.57L345.703,187.009L346.426,187.117L347.148,186.885L347.871,186.953L348.594,187.073L349.316,186.857L350.039,187.085L350.762,186.933L351.484,186.912L352.207,186.934L352.93,187.234L353.652,186.862L354.375,187.069L355.098,187.235L355.82,187.123L356.543,186.987L357.266,187.001L357.988,187.178L358.711,187.193L359.434,187.335L360.156,187.442L360.879,187.43L361.602,187.336L362.324,187.131L363.047,187.242L363.77,187.372L364.492,187.541L365.215,187.244L365.938,187.402L366.66,187.253L367.383,187.456L368.105,187.589L368.828,187.411L369.551,187.504L370.273,187.635L370.996,187.534L371.719,187.543L372.441,187.698L373.164,187.519L373.887,187.591L374.609,187.494L375.332,187.62L376.055,187.739L376.777,187.735L377.5,187.455L378.223,187.196L378.945,187.696L379.668,187.755L380.391,187.711L381.113,187.619L381.836,187.659L382.559,187.814L383.281,187.531L384.004,187.662L384.727,187.785L385.449,187.618L386.172,187.871L386.895,187.595L387.617,187.887L388.34,187.753L389.063,188.047L389.785,187.722L390.508,188.106L391.23,188.069L391.953,187.859L392.676,188.02L393.398,188.221L394.121,188.096L394.844,188.248L395.566,188.135L396.289,188.004L397.012,188.162L397.734,187.848L398.457,188.227L399.18,187.882L399.902,187.904L400.625,188.299L401.348,188.34L402.07,188.42L402.793,188.276L403.516,188.024L404.238,188.249L404.961,188.309L405.684,188.221L406.406,188.555L407.129,188.379L407.852,188.467L408.574,188.56L409.297,188.058L410.02,188.237L410.742,188.549L411.465,188.179L412.188,188.613L412.91,188.318L413.633,188.32L414.355,188.535L415.078,188.59L415.801,188.319L416.523,188.332L417.246,188.484L417.969,188.566L418.691,188.157L419.414,188.539L420.137,188.692L420.859,188.949L421.582,188.451L422.305,188.748L423.027,188.668L423.75,188.674L424.473,188.445L425.195,188.518L425.918,188.533L426.641,188.704L427.363,188.562L428.086,188.527L428.809,188.905L429.531,189.129L430.254,188.778L430.977,188.313L431.699,188.825L432.422,188.969L433.145,188.806L433.867,188.553L434.59,188.718L435.313,188.664L436.035,188.81L436.758,188.594L437.48,188.743L438.203,189.056L438.926,188.935L439.648,188.835L440.371,188.518L441.094,189.075L441.816,189.285L442.539,188.948L443.262,188.895L443.984,188.83L444.707,189.172L445.43,188.914L446.152,189.312L446.875,188.863L447.598,188.977L448.32,188.946L449.043,188.966L449.766,188.895L450.488,188.803L451.211,189.478L451.934,189.209L452.656,188.944L453.379,188.748L454.102,189.393L454.824,188.91L455.547,188.99L456.27,188.848L456.992,188.98L457.715,188.942L458.438,188.574L459.16,189.266L459.883,189.296L460.605,188.877L461.328,189.04L462.051,189.152L462.773,189.127L463.496,188.988L464.219,188.945L464.941,188.979L465.664,188.977L466.387,189.186L467.109,188.687L467.832,189.037L468.555,189.041L469.277,189.051"/><g transform="translate(0,190) scale(1.7) rotate(-90)"><text>Drift</text></g><g transform="translate(315,395) scale(1.8)"><text></text></g><g transform="translate(0,350)" fill="none" font-size="10" font-family="sans-serif" text-anchor="middle"><path class="domain" stroke="currentColor" d="M100,6V0H470V6"/><g class="tick" opacity="1" transform="translate(136.66666666666666,0)"><line stroke="currentColor" y2="6"/><text fill="currentColor" y="9" dy="0.71em" font-size="20px"> </text></g><g class="tick" opacity="1" transform="translate(173.7037037037037,0)"><line stroke="currentColor" y2="6"/><text fill="currentColor" y="9" dy="0.71em" font-size="20px">200</text></g><g class="tick" opacity="1" transform="translate(210.74074074074076,0)"><line stroke="currentColor" y2="6"/><text fill="currentColor" y="9" dy="0.71em" font-size="20px"> </text></g><g class="tick" opacity="1" transform="translate(247.77777777777777,0)"><line stroke="currentColor" y2="6"/><text fill="currentColor" y="9" dy="0.71em" font-size="20px">400</text></g><g class="tick" opacity="1" transform="translate(284.81481481481484,0)"><line stroke="currentColor" y2="6"/><text fill="currentColor" y="9" dy="0.71em" font-size="20px"> </text></g><g class="tick" opacity="1" transform="translate(321.85185185185185,0)"><line stroke="currentColor" y2="6"/><text fill="currentColor" y="9" dy="0.71em" font-size="20px">600</text></g><g class="tick" opacity="1" transform="translate(358.8888888888889,0)"><line stroke="currentColor" y2="6"/><text fill="currentColor" y="9" dy="0.71em" font-size="20px"> </text></g><g class="tick" opacity="1" transform="translate(395.9259259259259,0)"><line stroke="currentColor" y2="6"/><text fill="currentColor" y="9" dy="0.71em" font-size="20px">800</text></g><g class="tick" opacity="1" transform="translate(432.96296296296293,0)"><line stroke="currentColor" y2="6"/><text fill="currentColor" y="9" dy="0.71em" font-size="20px"> </text></g><g class="tick" opacity="1" transform="translate(470,0)"><line stroke="currentColor" y2="6"/><text fill="currentColor" y="9" dy="0.71em" font-size="20px">1000</text></g></g><g transform="translate(100,0)" fill="none" font-size="10" font-family="sans-serif" text-anchor="end"><path class="domain" stroke="currentColor" d="M-6,350H0V20H-6"/><g class="tick" opacity="1" transform="translate(0,324.99279182680004)"><line stroke="currentColor" x2="-6"/><text fill="currentColor" x="-9" dy="0.32em" font-size="20px">0.026</text></g><g class="tick" opacity="1" transform="translate(0,294.5008096685326)"><line stroke="currentColor" x2="-6"/><text fill="currentColor" x="-9" dy="0.32em" font-size="20px">0.024</text></g><g class="tick" opacity="1" transform="translate(0,264.0088275102651)"><line stroke="currentColor" x2="-6"/><text fill="currentColor" x="-9" dy="0.32em" font-size="20px">0.022</text></g><g class="tick" opacity="1" transform="translate(0,233.51684535199772)"><line stroke="currentColor" x2="-6"/><text fill="currentColor" x="-9" dy="0.32em" font-size="20px">0.020</text></g><g class="tick" opacity="1" transform="translate(0,203.0248631937302)"><line stroke="currentColor" x2="-6"/><text fill="currentColor" x="-9" dy="0.32em" font-size="20px">0.018</text></g><g class="tick" opacity="1" transform="translate(0,172.53288103546276)"><line stroke="currentColor" x2="-6"/><text fill="currentColor" x="-9" dy="0.32em" font-size="20px">0.016</text></g><g class="tick" opacity="1" transform="translate(0,142.04089887719533)"><line stroke="currentColor" x2="-6"/><text fill="currentColor" x="-9" dy="0.32em" font-size="20px">0.014</text></g><g class="tick" opacity="1" transform="translate(0,111.54891671892788)"><line stroke="currentColor" x2="-6"/><text fill="currentColor" x="-9" dy="0.32em" font-size="20px">0.012</text></g><g class="tick" opacity="1" transform="translate(0,81.05693456066042)"><line stroke="currentColor" x2="-6"/><text fill="currentColor" x="-9" dy="0.32em" font-size="20px">0.010</text></g><g class="tick" opacity="1" transform="translate(0,50.56495240239297)"><line stroke="currentColor" x2="-6"/><text fill="currentColor" x="-9" dy="0.32em" font-size="20px">0.008</text></g><g class="tick" opacity="1" transform="translate(0,20.07297024412548)"><line stroke="currentColor" x2="-6"/><text fill="currentColor" x="-9" dy="0.32em" font-size="20px">0.006</text></g></g><circle cx="155" cy="50" r="8" style="fill: rgb(35, 23, 27);"/><circle cx="155" cy="75" r="8" style="fill: rgb(69, 105, 238);"/><circle cx="155" cy="100" r="8" style="fill: rgb(38, 188, 225);"/><circle cx="155" cy="125" r="8" style="fill: rgb(63, 243, 147);"/><circle cx="275" cy="50" r="8" style="fill: rgb(149, 251, 81);"/><circle cx="275" cy="75" r="8" style="fill: rgb(236, 209, 46);"/><circle cx="275" cy="100" r="8" style="fill: rgb(255, 130, 29);"/><circle cx="275" cy="125" r="8" style="fill: rgb(203, 47, 13);"/><text x="170" y="50" text-anchor="left" font-size="22" alignment-baseline="middle" style="fill: rgb(35, 23, 27);"> = 0</text><text x="170" y="75" text-anchor="left" font-size="22" alignment-baseline="middle" style="fill: rgb(69, 105, 238);"> = 0.22</text><text x="170" y="100" text-anchor="left" font-size="22" alignment-baseline="middle" style="fill: rgb(38, 188, 225);"> = 0.45</text><text x="170" y="125" text-anchor="left" font-size="22" alignment-baseline="middle" style="fill: rgb(63, 243, 147);"> = 0.67</text><text x="295" y="50" text-anchor="left" font-size="22" alignment-baseline="middle" style="fill: rgb(149, 251, 81);"> = 0.9</text><text x="295" y="75" text-anchor="left" font-size="22" alignment-baseline="middle" style="fill: rgb(236, 209, 46);"> = 1.12</text><text x="295" y="100" text-anchor="left" font-size="22" alignment-baseline="middle" style="fill: rgb(255, 130, 29);"> = 1.35</text><text x="295" y="125" text-anchor="left" font-size="22" alignment-baseline="middle" style="fill: rgb(203, 47, 13);"> = 1.57</text></svg>