<svg xmlns="http://www.w3.org/2000/svg" class="bg-white" width="500" height="400" viewBox="-41.62399999999998 -70.54300000000029 605.0000000000001 484.00000000000006"><path fill="none" stroke="rgb(35, 23, 27)" stroke-width="1.5" d="M100,257.687L100.723,252.455L101.445,253.912L102.168,251.364L102.891,248.558L103.613,245.447L104.336,242.529L105.059,239.269L105.781,235.71L106.504,232.321L107.227,227.574L107.949,224.06L108.672,220.292L109.395,217.155L110.117,213.283L110.84,209.447L111.563,205.879L112.285,201.905L113.008,196.486L113.73,192.223L114.453,188.041L115.176,184.881L115.898,180.361L116.621,174.869L117.344,170.232L118.066,165.357L118.789,160.019L119.512,155.157L120.234,152.138L120.957,144.807L121.68,140.562L122.402,157.23L123.125,157.061L123.848,156.533L124.57,156.631L125.293,157.515L126.016,157.42L126.738,157.231L127.461,156.742L128.184,156.848L128.906,155.756L129.629,155.521L130.352,156.03L131.074,154.694L131.797,155.096L132.52,154.187L133.242,153.97L133.965,154.087L134.688,153.909L135.41,154.859L136.133,154.636L136.855,153.76L137.578,154.099L138.301,153.865L139.023,153.724L139.746,153.278L140.469,153.037L141.191,152.824L141.914,154.764L142.637,153.264L143.359,152.322L144.082,153.18L144.805,153.144L145.527,152.489L146.25,150.873L146.973,151.519L147.695,151.212L148.418,152.232L149.141,149.439L149.863,149.205L150.586,148.96L151.309,150.216L152.031,149.945L152.754,150.785L153.477,150.658L154.199,148.214L154.922,148.001L155.645,147.838L156.367,149.022L157.09,148.73L157.813,149.425L158.535,148.826L159.258,146.869L159.98,148.436L160.703,147.711L161.426,147.608L162.148,146.615L162.871,146.282L163.594,147.668L164.316,145.573L165.039,147.462L165.762,147.28L166.484,146.412L167.207,145.203L167.93,144.862L168.652,147.358L169.375,147.172L170.098,145.286L170.82,145.286L171.543,145.073L172.266,145.926L172.988,145.308L173.711,145.768L174.434,145.652L175.156,144.319L175.879,143.306L176.602,143.183L177.324,144.475L178.047,145.336L178.77,143.539L179.492,144.104L180.215,144.02L180.938,144.64L181.66,141.811L182.383,141.707L183.105,142.368L183.828,142.323L184.551,142.435L185.273,144.264L185.996,144.21L186.719,141.268L187.441,142.016L188.164,143.725L188.887,143.273L189.609,141.98L190.332,140.992L191.055,142.93L191.777,142.03L192.5,142.626L193.223,142.616L193.945,142.668L194.668,143.252L195.391,142.14L196.113,143.388L196.836,142.666L197.559,143.074L198.281,143.752L199.004,143.118L199.727,143.333L200.449,144.425L201.172,143.524L201.895,144.109L202.617,143.577L203.34,144.36L204.063,143.841L204.785,145.455L205.508,144.09L206.23,146.39L206.953,146.766L207.676,144.759L208.398,146.55L209.121,146.907L209.844,147.567L210.566,146.685L211.289,146.824L212.012,147.133L212.734,147.387L213.457,146.96L214.18,147.308L214.902,147.028L215.625,148.677L216.348,147.414L217.07,150.528L217.793,147.977L218.516,148.313L219.238,151.653L219.961,151.094L220.684,151.548L221.406,150.186L222.129,151.917L222.852,151.105L223.574,151.936L224.297,152.495L225.02,153.587L225.742,154.002L226.465,153.824L227.188,157.35L227.91,157.929L228.633,155.579L229.355,156.191L230.078,158.04L230.801,158.953L231.523,159.59L232.246,161.584L232.969,159.404L233.691,161.297L234.414,160.876L235.137,161.495L235.859,162.043L236.582,162.984L237.305,165.046L238.027,165.721L238.75,166.223L239.473,165.975L240.195,168.545L240.918,168.608L241.641,171.745L242.363,170.513L243.086,171.172L243.809,173.534L244.531,172.012L245.254,172.557L245.977,173.553L246.699,175.564L247.422,175.492L248.145,178.549L248.867,179.477L249.59,178.7L250.313,180.118L251.035,181.092L251.758,182.199L252.48,182.447L253.203,182.982L253.926,183.863L254.648,188.318L255.371,185.506L256.094,186.747L256.816,189.571L257.539,189.073L258.262,190.071L258.984,191.562L259.707,191.39L260.43,194.565L261.152,195.655L261.875,197.101L262.598,195.518L263.32,196.722L264.043,197.634L264.766,201.437L265.488,199.959L266.211,201.716L266.934,201.77L267.656,204.801L268.379,204.958L269.102,206.795L269.824,206.216L270.547,208.726L271.27,211.524L271.992,210.382L272.715,211.422L273.438,212.526L274.16,214.197L274.883,214.748L275.605,215.738L276.328,217.908L277.051,218.849L277.773,219.595L278.496,220.791L279.219,221.925L279.941,219.756L280.664,224.074L281.387,225.417L282.109,228.645L282.832,229.65L283.555,228.616L284.277,227.869L285,228.96L285.723,231.915L286.445,232.659L287.168,235.038L287.891,235.825L288.613,234.43L289.336,237.874L290.059,240.301L290.781,240.533L291.504,240.897L292.227,241.661L292.949,243.768L293.672,244.398L294.395,245.368L295.117,245.896L295.84,248.61L296.563,248.512L297.285,249.952L298.008,251.048L298.73,249.267L299.453,253.314L300.176,251.363L300.898,254.658L301.621,256.263L302.344,256.918L303.066,258.211L303.789,255.824L304.512,258.424L305.234,259.174L305.957,260.914L306.68,261.781L307.402,263.689L308.125,264.729L308.848,263.861L309.57,264.635L310.293,265.279L311.016,268.028L311.738,267.056L312.461,267.676L313.184,270.328L313.906,271.071L314.629,271.442L315.352,272.58L316.074,273.246L316.797,274.007L317.52,273.318L318.242,274.523L318.965,273.429L319.688,275.874L320.41,276.138L321.133,276.304L321.855,277.656L322.578,279.175L323.301,280.007L324.023,279.26L324.746,279.972L325.469,279.455L326.191,280.105L326.914,282.671L327.637,281.786L328.359,281.585L329.082,282.822L329.805,282.528L330.527,282.44L331.25,282.962L331.973,283.351L332.695,283.687L333.418,284.189L334.141,285.956L334.863,285.516L335.586,285.871L336.309,286.186L337.031,285.782L337.754,285.527L338.477,286.269L339.199,290.834L339.922,286.156L340.645,287.529L341.367,287.188L342.09,287.649L342.813,288.437L343.535,288.456L344.258,287.856L344.98,287.277L345.703,288.499L346.426,288.564L347.148,289.29L347.871,288.812L348.594,290.439L349.316,290.509L350.039,287.81L350.762,292.515L351.484,288.344L352.207,288.665L352.93,286.505L353.652,288.28L354.375,288.292L355.098,286.92L355.82,287.952L356.543,289.454L357.266,286.053L357.988,285.692L358.711,286.124L359.434,288.764L360.156,288.519L360.879,289.335L361.602,287.856L362.324,288.108L363.047,284.548L363.77,286.828L364.492,285.76L365.215,285.992L365.938,283.889L366.66,285.741L367.383,285.012L368.105,285.401L368.828,285.277L369.551,284.958L370.273,280.669L370.996,283.753L371.719,280.272L372.441,282.339L373.164,282.264L373.887,281.892L374.609,278.647L375.332,280.933L376.055,279.082L376.777,278.721L377.5,279.67L378.223,278.715L378.945,275.395L379.668,275.702L380.391,277.107L381.113,276.824L381.836,276.809L382.559,275.79L383.281,274.507L384.004,274.519L384.727,271.691L385.449,272.979L386.172,273.817L386.895,269.892L387.617,270.938L388.34,270.925L389.063,270.293L389.785,270.727L390.508,269.087L391.23,268.194L391.953,265.222L392.676,265.058L393.398,263.992L394.121,266.689L394.844,264.222L395.566,264.157L396.289,263.239L397.012,262.839L397.734,263.235L398.457,262.599L399.18,257.984L399.902,260.108L400.625,259.715L401.348,259.227L402.07,258.811L402.793,255.957L403.516,257.316L404.238,254.728L404.961,255.391L405.684,254.614L406.406,250.261L407.129,251.824L407.852,253.838L408.574,251.817L409.297,248.486L410.02,247.602L410.742,246.989L411.465,246.008L412.188,247.348L412.91,243.427L413.633,242.438L414.355,243.147L415.078,244.74L415.801,241.765L416.523,240.011L417.246,239.147L417.969,241.162L418.691,238.566L419.414,237.784L420.137,238.206L420.859,237.81L421.582,234.075L422.305,232.712L423.027,233.228L423.75,232.707L424.473,231.756L425.195,231.067L425.918,229.941L426.641,228.761L427.363,227.127L428.086,227.598L428.809,229.409L429.531,228.479L430.254,226.926L430.977,226.166L431.699,224.465L432.422,223.414L433.145,222.76L433.867,219.105L434.59,222.224L435.313,221.398L436.035,218.859L436.758,216.156L437.48,217.808L438.203,216.902L438.926,213.334L439.648,215.902L440.371,214.962L441.094,214.021L441.816,209.717L442.539,209.081L443.262,210.769L443.984,207.351L444.707,210.14L445.43,207.657L446.152,206.783L446.875,205.876L447.598,203.65L448.32,205.8L449.043,201.064L449.766,202.906L450.488,200.024L451.211,200.406L451.934,199.118L452.656,197.593L453.379,198.384L454.102,196.958L454.824,194.994L455.547,196.709L456.27,194.558L456.992,192.465L457.715,190.307L458.438,190.262L459.16,188.559L459.883,192.094L460.605,190.558L461.328,188.411L462.051,185.902L462.773,186.987L463.496,185.493L464.219,182.38L464.941,182.588L465.664,181.543L466.387,182.301L467.109,182.777L467.832,178.872L468.555,181.432L469.277,179.142"/><path fill="none" stroke="rgb(69, 105, 238)" stroke-width="1.5" d="M100,248.746L100.723,242.394L101.445,241.653L102.168,240.542L102.891,235.47L103.613,233.453L104.336,229.558L105.059,227.206L105.781,223.086L106.504,219.852L107.227,217.436L107.949,213.922L108.672,211.044L109.395,205.314L110.117,202.937L110.84,199.343L111.563,193.523L112.285,192.534L113.008,186.897L113.73,183.67L114.453,178.457L115.176,175.657L115.898,168.839L116.621,163.813L117.344,160.431L118.066,156.695L118.789,152.142L119.512,168.204L120.234,170.677L120.957,169.834L121.68,167.96L122.402,167.662L123.125,166.737L123.848,170.338L124.57,167.004L125.293,168.085L126.016,167.828L126.738,167.384L127.461,169.543L128.184,166.318L128.906,167.189L129.629,167.52L130.352,166.795L131.074,167.084L131.797,165.863L132.52,167.977L133.242,167.043L133.965,166.436L134.688,165.37L135.41,166.398L136.133,165.682L136.855,166.197L137.578,166.947L138.301,163.99L139.023,165.66L139.746,165.918L140.469,165.005L141.191,163.456L141.914,164.955L142.637,163.833L143.359,164.249L144.082,164.409L144.805,163.96L145.527,162.064L146.25,165.166L146.973,163.869L147.695,162.429L148.418,162.318L149.141,161.587L149.863,161.07L150.586,160.976L151.309,162.648L152.031,163.365L152.754,161.331L153.477,161.352L154.199,162.08L154.922,162.219L155.645,161.18L156.367,160.301L157.09,162.389L157.813,160.089L158.535,159.865L159.258,160.684L159.98,159.51L160.703,160.346L161.426,160.755L162.148,160.326L162.871,158.746L163.594,158.883L164.316,158.49L165.039,158.856L165.762,157.511L166.484,159.552L167.207,157.143L167.93,156.98L168.652,157.04L169.375,157.163L170.098,156.671L170.82,158.221L171.543,157.312L172.266,157.611L172.988,157.979L173.711,155.871L174.434,156.441L175.156,157.002L175.879,157.693L176.602,155.993L177.324,155.247L178.047,157.48L178.77,154.736L179.492,155.616L180.215,156.066L180.938,157.744L181.66,156.045L182.383,154.812L183.105,154.777L183.828,154.521L184.551,155.797L185.273,156.448L185.996,155.561L186.719,155.874L187.441,154.315L188.164,155.48L188.887,155.74L189.609,155.077L190.332,154.93L191.055,156.683L191.777,156.245L192.5,156.74L193.223,155.662L193.945,156.879L194.668,156.408L195.391,155.135L196.113,155.082L196.836,155.795L197.559,155.236L198.281,156.101L199.004,156.196L199.727,155.602L200.449,156.134L201.172,156.271L201.895,157.686L202.617,157.715L203.34,157.24L204.063,157.048L204.785,157.761L205.508,156.445L206.23,157.641L206.953,157.608L207.676,158.088L208.398,158.424L209.121,158.12L209.844,159.361L210.566,158.471L211.289,159.383L212.012,158.925L212.734,160.739L213.457,160.718L214.18,159.87L214.902,160.359L215.625,160.746L216.348,161.609L217.07,162.638L217.793,162.053L218.516,163.352L219.238,163.509L219.961,162.866L220.684,164.657L221.406,165.022L222.129,165.876L222.852,164.4L223.574,167.185L224.297,166.645L225.02,166.136L225.742,167.761L226.465,168.16L227.188,167.27L227.91,168.311L228.633,168.511L229.355,171.488L230.078,170.572L230.801,171.126L231.523,170.963L232.246,171.77L232.969,173.576L233.691,173.501L234.414,173.602L235.137,173.672L235.859,173.893L236.582,175.563L237.305,176.61L238.027,177.557L238.75,176.52L239.473,178.399L240.195,179.343L240.918,179.098L241.641,181.632L242.363,183.107L243.086,181.597L243.809,181.639L244.531,183.989L245.254,184.552L245.977,184.763L246.699,185.638L247.422,186.062L248.145,187.304L248.867,189.095L249.59,189.28L250.313,189.746L251.035,192.175L251.758,190.334L252.48,191.321L253.203,192.968L253.926,194.529L254.648,194.785L255.371,194.566L256.094,196.222L256.816,196.251L257.539,198.044L258.262,200.367L258.984,200.34L259.707,201.971L260.43,201.985L261.152,202.233L261.875,203.743L262.598,204.486L263.32,204.796L264.043,206.257L264.766,206.491L265.488,208.419L266.211,210.835L266.934,208.661L267.656,211.36L268.379,210.82L269.102,212.471L269.824,212.808L270.547,213.145L271.27,216.556L271.992,216.869L272.715,217.921L273.438,218.203L274.16,220.831L274.883,218.766L275.605,221.961L276.328,222.746L277.051,221.981L277.773,225.42L278.496,224.248L279.219,225.969L279.941,227.032L280.664,227.048L281.387,229.993L282.109,229.933L282.832,230.141L283.555,231.986L284.277,231.391L285,232.724L285.723,234.116L286.445,232.066L287.168,233.835L287.891,233.593L288.613,235.306L289.336,236.867L290.059,238.75L290.781,239.518L291.504,241.094L292.227,239.171L292.949,241.627L293.672,241.248L294.395,245.571L295.117,244.306L295.84,244.322L296.563,243.983L297.285,247.156L298.008,246.936L298.73,248.701L299.453,248.851L300.176,247.72L300.898,249.536L301.621,250.987L302.344,251.349L303.066,252.647L303.789,250.906L304.512,253.309L305.234,252.644L305.957,253.276L306.68,253.759L307.402,254.5L308.125,256.754L308.848,256.505L309.57,259.083L310.293,258.698L311.016,258.826L311.738,258.741L312.461,260.501L313.184,259.327L313.906,263.934L314.629,262.024L315.352,261.663L316.074,262.116L316.797,262.291L317.52,263.646L318.242,261.62L318.965,267.105L319.688,266.725L320.41,265.489L321.133,265.086L321.855,265.63L322.578,265.128L323.301,265.777L324.023,265.4L324.746,266.694L325.469,268.507L326.191,267.524L326.914,268.177L327.637,267.401L328.359,268.422L329.082,269.704L329.805,268.048L330.527,269.213L331.25,267.957L331.973,269.445L332.695,270.461L333.418,268.671L334.141,273.155L334.863,270.93L335.586,272.908L336.309,269.137L337.031,266.781L337.754,269.744L338.477,271.607L339.199,270.688L339.922,270.381L340.645,270.384L341.367,270.493L342.09,270.532L342.813,271.451L343.535,269.488L344.258,271.562L344.98,270.476L345.703,271.057L346.426,269.878L347.148,269.355L347.871,269.619L348.594,268.994L349.316,270.725L350.039,268.267L350.762,268.003L351.484,267.731L352.207,265.572L352.93,269.621L353.652,267.89L354.375,268.382L355.098,269.51L355.82,266.33L356.543,267.407L357.266,269.713L357.988,267.763L358.711,267.335L359.434,263.162L360.156,266.082L360.879,264.693L361.602,265.518L362.324,263.809L363.047,263.364L363.77,266.628L364.492,263.246L365.215,262.157L365.938,262.913L366.66,261.213L367.383,261.706L368.105,261.668L368.828,259.515L369.551,259.043L370.273,259.134L370.996,258.663L371.719,256.741L372.441,257.588L373.164,257.347L373.887,256.907L374.609,259.349L375.332,253.947L376.055,255.166L376.777,255.511L377.5,256.127L378.223,253.038L378.945,254.663L379.668,252.766L380.391,254.447L381.113,250.887L381.836,249.597L382.559,249.77L383.281,248.392L384.004,247.383L384.727,246.225L385.449,247.265L386.172,246.61L386.895,246.205L387.617,245.454L388.34,244.285L389.063,244.293L389.785,244.412L390.508,241.343L391.23,240.715L391.953,240.138L392.676,241.128L393.398,239.457L394.121,238.288L394.844,238.048L395.566,238.064L396.289,237.54L397.012,235.129L397.734,233.901L398.457,235.572L399.18,232.391L399.902,232.818L400.625,232.237L401.348,230.131L402.07,230.813L402.793,229.308L403.516,227.773L404.238,228.514L404.961,227.633L405.684,225.247L406.406,226.617L407.129,223.856L407.852,224.459L408.574,222.046L409.297,221.437L410.02,222.403L410.742,221.5L411.465,221.686L412.188,217.548L412.91,218.356L413.633,217.983L414.355,216.905L415.078,214.911L415.801,213.696L416.523,212.846L417.246,210.832L417.969,211.555L418.691,210.454L419.414,209.567L420.137,209.149L420.859,208.934L421.582,207.352L422.305,206.735L423.027,206.603L423.75,205.171L424.473,204.123L425.195,201.287L425.918,202.213L426.641,199.461L427.363,199.613L428.086,199.469L428.809,199.346L429.531,196.068L430.254,197.852L430.977,198.536L431.699,194.917L432.422,192.914L433.145,191.601L433.867,194.841L434.59,190.085L435.313,191.188L436.035,190.845L436.758,189.407L437.48,187.77L438.203,188.053L438.926,186.968L439.648,186.303L440.371,182.909L441.094,184.336L441.816,181.949L442.539,183.243L443.262,179.496L443.984,181.148L444.707,179.257L445.43,177.522L446.152,177.5L446.875,175.095L447.598,174.963L448.32,175.686L449.043,174.008L449.766,173.881L450.488,171.529L451.211,172.236L451.934,170.014L452.656,169.262L453.379,168.724L454.102,167.546L454.824,165.511L455.547,166.871L456.27,165.008L456.992,164.785L457.715,164.161L458.438,162.11L459.16,161.596L459.883,162.072L460.605,159.488L461.328,160.486L462.051,158.626L462.773,158.01L463.496,155.804L464.219,156.238L464.941,157.119L465.664,153.823L466.387,153.641L467.109,154.602L467.832,151.739L468.555,150.727L469.277,149.843"/><path fill="none" stroke="rgb(38, 188, 225)" stroke-width="1.5" d="M100,210.864L100.723,205.076L101.445,203.924L102.168,200.836L102.891,198.05L103.613,194.973L104.336,190.881L105.059,187.512L105.781,187.46L106.504,182.525L107.227,179.137L107.949,175.986L108.672,171.109L109.395,167.568L110.117,166.823L110.84,161.505L111.563,156.88L112.285,154.777L113.008,198.36L113.73,199.807L114.453,202.157L115.176,201.904L115.898,203.064L116.621,205.702L117.344,206.029L118.066,207.608L118.789,206.925L119.512,209.498L120.234,206.753L120.957,208.52L121.68,209.434L122.402,207.914L123.125,207.846L123.848,208.809L124.57,208.677L125.293,209.316L126.016,207.919L126.738,207.865L127.461,208.661L128.184,207.418L128.906,208.219L129.629,207.567L130.352,206.607L131.074,207.982L131.797,208.387L132.52,206.07L133.242,206.627L133.965,206.839L134.688,206.181L135.41,206.555L136.133,205.763L136.855,206.255L137.578,206.236L138.301,205.767L139.023,205.636L139.746,205.944L140.469,204.674L141.191,205.603L141.914,206.092L142.637,205.975L143.359,205.756L144.082,204.842L144.805,204.251L145.527,203.22L146.25,203.51L146.973,204.711L147.695,203.716L148.418,204.517L149.141,203.259L149.863,203.346L150.586,203.658L151.309,204.051L152.031,201.865L152.754,203.821L153.477,203.091L154.199,201.614L154.922,201.867L155.645,202.249L156.367,203.827L157.09,203.523L157.813,203.014L158.535,201.452L159.258,200.993L159.98,203.168L160.703,202.087L161.426,202.965L162.148,200.925L162.871,201.396L163.594,200.01L164.316,200.504L165.039,201.323L165.762,199.834L166.484,200.486L167.207,200.215L167.93,199.003L168.652,201.866L169.375,198.803L170.098,199.332L170.82,199.651L171.543,201.367L172.266,201.183L172.988,201.286L173.711,199.959L174.434,199.069L175.156,199.615L175.879,199.561L176.602,198.695L177.324,199.855L178.047,199.902L178.77,200.489L179.492,199.804L180.215,198.154L180.938,200.356L181.66,198.212L182.383,199.063L183.105,198.251L183.828,198.299L184.551,197.482L185.273,200.177L185.996,199.97L186.719,198.321L187.441,199.048L188.164,199.06L188.887,197.24L189.609,197.267L190.332,200.175L191.055,199.099L191.777,200.57L192.5,200.623L193.223,198.749L193.945,201.154L194.668,200.595L195.391,201.588L196.113,199.341L196.836,199.811L197.559,199.931L198.281,199.284L199.004,199.19L199.727,199.218L200.449,200.306L201.172,199.791L201.895,201.675L202.617,201.717L203.34,201.697L204.063,200.469L204.785,201.44L205.508,200.355L206.23,202.669L206.953,202.815L207.676,200.956L208.398,203.108L209.121,201.33L209.844,203.069L210.566,203.859L211.289,205.21L212.012,204.204L212.734,205.871L213.457,204.374L214.18,206.456L214.902,203.492L215.625,203.937L216.348,206.509L217.07,207.008L217.793,207.347L218.516,207.144L219.238,207.973L219.961,204.202L220.684,208.186L221.406,208.512L222.129,206.954L222.852,207.219L223.574,209.731L224.297,209.987L225.02,210.761L225.742,210.645L226.465,210.067L227.188,210.888L227.91,211.183L228.633,211.94L229.355,213.567L230.078,210.411L230.801,211.384L231.523,213.362L232.246,214.022L232.969,213.564L233.691,213.017L234.414,215.505L235.137,215.169L235.859,216.11L236.582,216.85L237.305,216.72L238.027,218.154L238.75,217.375L239.473,216.67L240.195,218.114L240.918,220.036L241.641,220.324L242.363,218.429L243.086,221.047L243.809,221.886L244.531,222.43L245.254,222.755L245.977,223.737L246.699,223.809L247.422,224.864L248.145,225.047L248.867,223.914L249.59,225.493L250.313,225.226L251.035,226.189L251.758,226.753L252.48,228.065L253.203,226.666L253.926,228.497L254.648,230.098L255.371,229.292L256.094,230.17L256.816,230.5L257.539,230.94L258.262,230.297L258.984,232.03L259.707,232.519L260.43,231.698L261.152,232.783L261.875,233.436L262.598,234.929L263.32,234.14L264.043,236.244L264.766,236.508L265.488,237.802L266.211,236.224L266.934,237.244L267.656,236.495L268.379,238.548L269.102,239.158L269.824,238.462L270.547,238.88L271.27,238.089L271.992,241.399L272.715,241.461L273.438,242.892L274.16,240.55L274.883,240.28L275.605,243.576L276.328,242.943L277.051,242.832L277.773,244.442L278.496,242.73L279.219,244.129L279.941,245.253L280.664,244.226L281.387,245.087L282.109,245.373L282.832,244.362L283.555,246.053L284.277,247.229L285,247.209L285.723,247.819L286.445,248.062L287.168,248.147L287.891,248.127L288.613,248.546L289.336,248.516L290.059,248.728L290.781,247.536L291.504,249.19L292.227,249.535L292.949,247.033L293.672,251.087L294.395,249.757L295.117,250.342L295.84,250.37L296.563,251.397L297.285,248.63L298.008,249.079L298.73,251.941L299.453,250.756L300.176,250.604L300.898,251.644L301.621,250.307L302.344,251.719L303.066,248.51L303.789,249.731L304.512,250.143L305.234,251.289L305.957,251.58L306.68,248.739L307.402,251.086L308.125,250.054L308.848,250.704L309.57,252.205L310.293,251.566L311.016,250.658L311.738,251.438L312.461,251.232L313.184,250.707L313.906,250.151L314.629,249.868L315.352,250.366L316.074,249.553L316.797,249.618L317.52,249.252L318.242,249.583L318.965,250.751L319.688,249.828L320.41,250.316L321.133,250.05L321.855,248.655L322.578,248.94L323.301,247.212L324.023,249.043L324.746,247.69L325.469,248.278L326.191,246.867L326.914,246.02L327.637,246.933L328.359,245.471L329.082,245.095L329.805,244.282L330.527,243.975L331.25,243.743L331.973,242.401L332.695,244.093L333.418,244.765L334.141,244.42L334.863,241.843L335.586,240.7L336.309,240.804L337.031,240.107L337.754,242.915L338.477,241.182L339.199,240.758L339.922,239.656L340.645,240.047L341.367,238.085L342.09,238.36L342.813,238.393L343.535,237.353L344.258,236.33L344.98,234.853L345.703,236.325L346.426,235.88L347.148,233.435L347.871,233.85L348.594,234.549L349.316,234.996L350.039,233.622L350.762,231.949L351.484,232.092L352.207,231.673L352.93,228.981L353.652,230.022L354.375,228.307L355.098,230.06L355.82,229.181L356.543,227.753L357.266,226.648L357.988,227.373L358.711,225.949L359.434,226.207L360.156,225.996L360.879,225.206L361.602,224.383L362.324,221.141L363.047,221.66L363.77,222.133L364.492,220.182L365.215,222.309L365.938,219.962L366.66,220.73L367.383,218.672L368.105,218.488L368.828,216.711L369.551,216.871L370.273,217.206L370.996,215.58L371.719,215.745L372.441,213.71L373.164,213.974L373.887,212.197L374.609,211.552L375.332,211.099L376.055,211.186L376.777,210.204L377.5,209.353L378.223,209.886L378.945,208.109L379.668,206L380.391,206.914L381.113,205.122L381.836,205.416L382.559,205.632L383.281,204.331L384.004,204.324L384.727,202.263L385.449,202.042L386.172,200.001L386.895,200.77L387.617,200.812L388.34,198.191L389.063,200.621L389.785,197.072L390.508,196.314L391.23,195.786L391.953,197.773L392.676,191.665L393.398,193.57L394.121,192.338L394.844,192.389L395.566,193.544L396.289,190.294L397.012,190.034L397.734,190.215L398.457,190.711L399.18,189.174L399.902,186.604L400.625,185.3L401.348,187.858L402.07,184.94L402.793,184.235L403.516,184.98L404.238,182.449L404.961,182.518L405.684,180.709L406.406,180.062L407.129,177.899L407.852,177.17L408.574,178.249L409.297,178.12L410.02,176.049L410.742,173.188L411.465,175.295L412.188,175.501L412.91,173.658L413.633,173.297L414.355,173.243L415.078,171.507L415.801,172.337L416.523,170.723L417.246,169.963L417.969,170.25L418.691,168.543L419.414,168.043L420.137,166.278L420.859,166.931L421.582,164.352L422.305,164.479L423.027,163.889L423.75,164.775L424.473,163.09L425.195,162.391L425.918,162.12L426.641,159.739L427.363,158.657L428.086,159.631L428.809,157.411L429.531,154.973L430.254,156.503L430.977,156.439L431.699,155.74L432.422,153.522L433.145,154.627L433.867,151.308L434.59,152.212L435.313,151.538L436.035,151.486L436.758,151.748L437.48,150.03L438.203,149.662L438.926,147.318L439.648,146.841L440.371,146.886L441.094,145.779L441.816,145.593L442.539,145.886L443.262,144.885L443.984,144.774L444.707,141.325L445.43,141.63L446.152,141.85L446.875,141.7L447.598,140.916L448.32,140.879L449.043,138.461L449.766,138.659L450.488,138.091L451.211,137.439L451.934,135.036L452.656,136.085L453.379,136.465L454.102,137.256L454.824,132.572L455.547,132.966L456.27,132.774L456.992,131.619L457.715,131.5L458.438,131.382L459.16,129.418L459.883,129.061L460.605,129.269L461.328,128.531L462.051,128.863L462.773,127.141L463.496,127.457L464.219,126.501L464.941,126.432L465.664,123.069L466.387,125.087L467.109,120.86L467.832,122.97L468.555,120.535L469.277,121.271"/><path fill="none" stroke="rgb(63, 243, 147)" stroke-width="1.5" d="M100,167.288L100.723,159.285L101.445,158.65L102.168,157.923L102.891,152.508L103.613,151.736L104.336,148.761L105.059,146.997L105.781,193.52L106.504,225.47L107.227,231.016L107.949,233.925L108.672,232.878L109.395,235.809L110.117,237.96L110.84,238.974L111.563,241.653L112.285,244.055L113.008,245.055L113.73,243.68L114.453,246.461L115.176,247.538L115.898,248.649L116.621,250.513L117.344,252.323L118.066,251.784L118.789,252.417L119.512,253.373L120.234,254.462L120.957,254.307L121.68,255.412L122.402,253.508L123.125,255.462L123.848,253.23L124.57,257.39L125.293,254.718L126.016,255.736L126.738,254.449L127.461,256.011L128.184,253.839L128.906,254.024L129.629,253.038L130.352,254.173L131.074,254.111L131.797,253.328L132.52,254.389L133.242,255.008L133.965,255.702L134.688,255.069L135.41,254.586L136.133,256.082L136.855,253.81L137.578,254.906L138.301,252.885L139.023,253.987L139.746,253.886L140.469,252.61L141.191,253.228L141.914,254.963L142.637,253.493L143.359,253.153L144.082,255.32L144.805,253.082L145.527,254.012L146.25,253.838L146.973,253.047L147.695,251.449L148.418,253.777L149.141,252.619L149.863,251.981L150.586,252.306L151.309,251.461L152.031,253.318L152.754,252.241L153.477,252.096L154.199,251.891L154.922,250.78L155.645,250.231L156.367,254.119L157.09,251.794L157.813,252.721L158.535,249.868L159.258,250.163L159.98,251.484L160.703,251.448L161.426,251.103L162.148,250.135L162.871,250.241L163.594,251.891L164.316,250.579L165.039,249.967L165.762,249.776L166.484,250.548L167.207,251.245L167.93,249.193L168.652,250.957L169.375,251.19L170.098,250.947L170.82,251.034L171.543,250.905L172.266,252.263L172.988,250.927L173.711,251.483L174.434,251.731L175.156,252.529L175.879,251.366L176.602,251.943L177.324,251.956L178.047,251.135L178.77,250.592L179.492,250.702L180.215,250.282L180.938,252.051L181.66,251.119L182.383,250.811L183.105,249.555L183.828,250.743L184.551,249.059L185.273,251.797L185.996,250.718L186.719,250.394L187.441,251.514L188.164,251.469L188.887,251.594L189.609,252.061L190.332,250.721L191.055,251.782L191.777,252.245L192.5,250.8L193.223,252.039L193.945,251.967L194.668,252.126L195.391,251.064L196.113,253.393L196.836,250.894L197.559,250.747L198.281,252.925L199.004,252.759L199.727,252.053L200.449,252.851L201.172,253.116L201.895,253.061L202.617,253.703L203.34,254.63L204.063,253.376L204.785,253.854L205.508,256.57L206.23,254.746L206.953,253.962L207.676,255.008L208.398,255.604L209.121,255.523L209.844,255.744L210.566,255.404L211.289,255.567L212.012,256.185L212.734,256.331L213.457,254.779L214.18,256.358L214.902,257.042L215.625,257.086L216.348,257.15L217.07,255.777L217.793,257.41L218.516,257.548L219.238,258.095L219.961,257.967L220.684,256.504L221.406,258.599L222.129,256.93L222.852,258.939L223.574,259.005L224.297,258.308L225.02,259.314L225.742,259.227L226.465,260.704L227.188,261.65L227.91,259.556L228.633,259.669L229.355,261.38L230.078,260.11L230.801,260.418L231.523,260.912L232.246,262.159L232.969,260.4L233.691,261.942L234.414,261.884L235.137,260.457L235.859,262.111L236.582,262.581L237.305,261.007L238.027,261.628L238.75,264.457L239.473,263.023L240.195,262.834L240.918,264.311L241.641,263.442L242.363,263.939L243.086,264.899L243.809,264.083L244.531,265.166L245.254,262.851L245.977,265.135L246.699,264.658L247.422,263.153L248.145,265.678L248.867,264.831L249.59,266.662L250.313,265.056L251.035,265.732L251.758,263.789L252.48,267.967L253.203,265.856L253.926,266.163L254.648,267.306L255.371,266.338L256.094,266.124L256.816,266.006L257.539,266.685L258.262,265.807L258.984,267.409L259.707,268.535L260.43,268.187L261.152,266.798L261.875,267.423L262.598,266.567L263.32,266.707L264.043,265.853L264.766,266.813L265.488,268.568L266.211,266.835L266.934,266.367L267.656,265.497L268.379,265.556L269.102,265.359L269.824,266.117L270.547,266.383L271.27,265.374L271.992,263.441L272.715,264.917L273.438,265.097L274.16,264.51L274.883,266.571L275.605,263.932L276.328,264.206L277.051,264.709L277.773,264.514L278.496,264.049L279.219,263L279.941,264.11L280.664,262.034L281.387,262.682L282.109,262.776L282.832,261.353L283.555,260.843L284.277,262.006L285,260.431L285.723,260.034L286.445,260.376L287.168,260.382L287.891,258.882L288.613,259.471L289.336,257.455L290.059,257.045L290.781,258.306L291.504,256.81L292.227,256.305L292.949,258.552L293.672,255.943L294.395,255.362L295.117,256.333L295.84,254.4L296.563,253.307L297.285,253.778L298.008,251.537L298.73,251.739L299.453,251.476L300.176,251.737L300.898,250.898L301.621,250.5L302.344,248.148L303.066,248.246L303.789,246.026L304.512,247.148L305.234,246.959L305.957,245.118L306.68,245.375L307.402,245.306L308.125,245.303L308.848,243.701L309.57,242.366L310.293,240.553L311.016,240.994L311.738,242.131L312.461,238.713L313.184,239.648L313.906,239.055L314.629,236.644L315.352,235.989L316.074,235.008L316.797,234.353L317.52,233.271L318.242,233.266L318.965,231.959L319.688,231.354L320.41,232.838L321.133,231.414L321.855,231.233L322.578,228.331L323.301,228.547L324.023,227.035L324.746,225.857L325.469,225.01L326.191,224.74L326.914,224.939L327.637,222.103L328.359,222.86L329.082,219.4L329.805,220.935L330.527,219.734L331.25,219.512L331.973,219.232L332.695,216.636L333.418,217.512L334.141,215.148L334.863,215.461L335.586,213.489L336.309,212.444L337.031,209.419L337.754,211.792L338.477,210.34L339.199,208.644L339.922,209.503L340.645,207.435L341.367,206.203L342.09,204.326L342.813,206.213L343.535,203.791L344.258,203.134L344.98,202.3L345.703,201.373L346.426,200.45L347.148,200.193L347.871,199.139L348.594,199.318L349.316,198.049L350.039,197.134L350.762,196.839L351.484,194.818L352.207,193.413L352.93,193.414L353.652,193.339L354.375,190.485L355.098,189.615L355.82,190.403L356.543,189.282L357.266,187.226L357.988,187.805L358.711,187.088L359.434,184.848L360.156,186.331L360.879,183.793L361.602,183.893L362.324,181.929L363.047,182.426L363.77,180.994L364.492,180.458L365.215,179.584L365.938,179.412L366.66,178.04L367.383,178.024L368.105,175.504L368.828,174.911L369.551,175.385L370.273,175.083L370.996,172.919L371.719,173.63L372.441,171.891L373.164,170.241L373.887,170.938L374.609,169.616L375.332,168.728L376.055,168.71L376.777,167.798L377.5,167.695L378.223,165.565L378.945,164.552L379.668,165.123L380.391,163.049L381.113,162.845L381.836,162.307L382.559,162.806L383.281,161.025L384.004,159.27L384.727,160.484L385.449,158.192L386.172,159.274L386.895,160.132L387.617,155.937L388.34,156.126L389.063,156.963L389.785,154.38L390.508,153.727L391.23,153.271L391.953,154.163L392.676,152.499L393.398,152.47L394.121,152.341L394.844,150.67L395.566,149.836L396.289,151.969L397.012,150.389L397.734,148.161L398.457,148.733L399.18,148.409L399.902,147.765L400.625,146.215L401.348,146.591L402.07,145.215L402.793,145.525L403.516,144.927L404.238,143.251L404.961,143.728L405.684,141.349L406.406,141.308L407.129,142.99L407.852,140.545L408.574,140.885L409.297,139.143L410.02,139.926L410.742,139.284L411.465,138.787L412.188,138.051L412.91,137.211L413.633,136.975L414.355,136.007L415.078,137.175L415.801,134.876L416.523,134.683L417.246,136.491L417.969,133.945L418.691,135.672L419.414,133.791L420.137,132.612L420.859,133.495L421.582,130.213L422.305,130.705L423.027,131.189L423.75,130.629L424.473,129.171L425.195,129.915L425.918,129.521L426.641,128.524L427.363,129.924L428.086,129.022L428.809,126.892L429.531,126.993L430.254,126.632L430.977,125.285L431.699,124.58L432.422,125.283L433.145,124.203L433.867,122.705L434.59,125.324L435.313,122.973L436.035,123.054L436.758,122.409L437.48,121.822L438.203,121.904L438.926,121.296L439.648,121.038L440.371,119.056L441.094,119.888L441.816,119.307L442.539,118.332L443.262,118.62L443.984,118.684L444.707,117.314L445.43,116.555L446.152,117.149L446.875,116.82L447.598,116.622L448.32,116.397L449.043,113.94L449.766,114.951L450.488,114.98L451.211,114.613L451.934,114.323L452.656,113.284L453.379,112.541L454.102,112.823L454.824,111.989L455.547,112.773L456.27,112.046L456.992,110.686L457.715,110.513L458.438,111.261L459.16,108.891L459.883,109.271L460.605,109.029L461.328,108.225L462.051,108.838L462.773,106.822L463.496,106.943L464.219,107.907L464.941,105.293L465.664,105.841L466.387,106.718L467.109,106.64L467.832,105.624L468.555,105.459L469.277,105.067"/><path fill="none" stroke="rgb(149, 251, 81)" stroke-width="1.5" d="M100,152.786L100.723,143.641L101.445,143.84L102.168,208.494L102.891,229.849L103.613,232.306L104.336,238.138L105.059,237.67L105.781,242.555L106.504,241.535L107.227,243.645L107.949,248.758L108.672,251.657L109.395,251.277L110.117,252.89L110.84,255.467L111.563,257.033L112.285,256.737L113.008,259.592L113.73,263.229L114.453,263.394L115.176,264.521L115.898,266.557L116.621,265.193L117.344,268.321L118.066,269.122L118.789,271.602L119.512,272.402L120.234,271.704L120.957,272.509L121.68,273.848L122.402,272.749L123.125,273.867L123.848,269.891L124.57,272.364L125.293,272.457L126.016,271.407L126.738,271.104L127.461,272.768L128.184,269.614L128.906,272.3L129.629,271.69L130.352,271.942L131.074,271.832L131.797,273.517L132.52,274.443L133.242,272.027L133.965,269.854L134.688,272.955L135.41,274.554L136.133,272.944L136.855,272.783L137.578,272.803L138.301,272.653L139.023,273.976L139.746,272.407L140.469,275.945L141.191,272.471L141.914,272.236L142.637,274.843L143.359,272.812L144.082,271.829L144.805,273.28L145.527,273.665L146.25,272.68L146.973,275.012L147.695,273.499L148.418,275.367L149.141,272.435L149.863,273.619L150.586,273.508L151.309,272.699L152.031,275.205L152.754,273.905L153.477,275.023L154.199,274.64L154.922,272.77L155.645,275.029L156.367,272.93L157.09,273.747L157.813,274.603L158.535,273.631L159.258,273.51L159.98,275.085L160.703,273.492L161.426,273.383L162.148,275.507L162.871,276.02L163.594,275.551L164.316,274.995L165.039,274.896L165.762,275.883L166.484,274.855L167.207,272.043L167.93,276.286L168.652,274.321L169.375,275.53L170.098,274.753L170.82,274.875L171.543,275.985L172.266,276.502L172.988,276.106L173.711,276.467L174.434,274.187L175.156,276.455L175.879,275.452L176.602,276.736L177.324,276.423L178.047,275.914L178.77,276.841L179.492,276.842L180.215,275.036L180.938,275.569L181.66,278.033L182.383,276.596L183.105,277.673L183.828,277.21L184.551,276.98L185.273,276.84L185.996,276.818L186.719,276.572L187.441,276.88L188.164,277.439L188.887,276.536L189.609,277.714L190.332,278.142L191.055,278.172L191.777,278.93L192.5,280.139L193.223,280.29L193.945,279.022L194.668,277.845L195.391,278.271L196.113,277.126L196.836,277.325L197.559,279.272L198.281,280.605L199.004,278.406L199.727,280.284L200.449,278.867L201.172,278.211L201.895,279.256L202.617,278.892L203.34,280.737L204.063,280.179L204.785,280.176L205.508,280.781L206.23,281.522L206.953,280.943L207.676,282.703L208.398,279.85L209.121,280.502L209.844,280.943L210.566,281.015L211.289,281.134L212.012,283.363L212.734,281.478L213.457,282.858L214.18,282.33L214.902,283.247L215.625,281.748L216.348,282.653L217.07,280.982L217.793,280.406L218.516,282.966L219.238,283L219.961,282.052L220.684,283.315L221.406,283.716L222.129,282.576L222.852,281.095L223.574,282.236L224.297,282.048L225.02,283.697L225.742,282.624L226.465,284.108L227.188,284.765L227.91,283.821L228.633,285.045L229.355,284.887L230.078,284.148L230.801,284.156L231.523,282.416L232.246,284.415L232.969,284.822L233.691,283.526L234.414,285.045L235.137,281.355L235.859,283.907L236.582,284.952L237.305,284.085L238.027,283.417L238.75,283.329L239.473,283.778L240.195,284.241L240.918,283.398L241.641,283.573L242.363,283.433L243.086,282.327L243.809,282.486L244.531,282.897L245.254,281.687L245.977,283.1L246.699,283.063L247.422,280.854L248.145,282.075L248.867,279.114L249.59,281.258L250.313,279.693L251.035,280.765L251.758,278.694L252.48,280.842L253.203,278.302L253.926,279.116L254.648,278.247L255.371,276.423L256.094,278.236L256.816,278.781L257.539,276.805L258.262,278.186L258.984,277.05L259.707,276.084L260.43,274.038L261.152,275.976L261.875,274.847L262.598,275.324L263.32,275.146L264.043,272.877L264.766,274.001L265.488,273.021L266.211,272.683L266.934,271.289L267.656,271.517L268.379,269.529L269.102,269.672L269.824,269.228L270.547,267.105L271.27,266.295L271.992,266.551L272.715,267.25L273.438,266.731L274.16,263.153L274.883,265.222L275.605,264.4L276.328,262.403L277.051,263.465L277.773,260.928L278.496,262.823L279.219,260.654L279.941,259.639L280.664,258.962L281.387,258.472L282.109,257.693L282.832,258.233L283.555,256.029L284.277,255.865L285,254.512L285.723,253.792L286.445,251.973L287.168,251.203L287.891,250.442L288.613,250.235L289.336,248.756L290.059,247.001L290.781,245.783L291.504,246.552L292.227,245.668L292.949,241.272L293.672,242.467L294.395,241.384L295.117,241.134L295.84,240.132L296.563,236.06L297.285,238.344L298.008,235.53L298.73,236.236L299.453,233.322L300.176,232.164L300.898,233.187L301.621,231.692L302.344,229.114L303.066,229.337L303.789,225.303L304.512,228.953L305.234,225.218L305.957,224.881L306.68,223.327L307.402,221.144L308.125,222.041L308.848,218.738L309.57,217.325L310.293,219.131L311.016,216.891L311.738,214.599L312.461,213.923L313.184,213.755L313.906,212.598L314.629,209.582L315.352,207.151L316.074,208.18L316.797,204.825L317.52,203.577L318.242,207.344L318.965,202.629L319.688,202.239L320.41,202.195L321.133,199.078L321.855,199.661L322.578,196.93L323.301,194.529L324.023,194.511L324.746,194.884L325.469,192.648L326.191,193.093L326.914,190.04L327.637,187.96L328.359,188.236L329.082,188.295L329.805,186.088L330.527,185.921L331.25,184.499L331.973,181.701L332.695,180.235L333.418,179.527L334.141,178.467L334.863,177.266L335.586,176.737L336.309,175.922L337.031,174.148L337.754,174.379L338.477,171.643L339.199,169.798L339.922,171.593L340.645,168.709L341.367,168.878L342.09,168.137L342.813,165.294L343.535,163.548L344.258,162.988L344.98,161.945L345.703,160.915L346.426,159.771L347.148,159.815L347.871,158.329L348.594,159.004L349.316,157.817L350.039,155.412L350.762,154.827L351.484,155.139L352.207,153.79L352.93,150.094L353.652,149.33L354.375,148.949L355.098,147.746L355.82,148.192L356.543,148.182L357.266,145.916L357.988,145.337L358.711,144.139L359.434,142.926L360.156,142.237L360.879,141.276L361.602,140.728L362.324,138.878L363.047,137.62L363.77,139.248L364.492,137.382L365.215,135.425L365.938,135.49L366.66,131.812L367.383,132.684L368.105,132.772L368.828,133.291L369.551,131.091L370.273,129.425L370.996,129.837L371.719,130.122L372.441,127.59L373.164,126.651L373.887,125.455L374.609,126.335L375.332,125.996L376.055,123.523L376.777,123.803L377.5,121.086L378.223,122.689L378.945,120.857L379.668,119.87L380.391,118.787L381.113,119.678L381.836,119.087L382.559,117.639L383.281,116.334L384.004,115.483L384.727,116.518L385.449,116.376L386.172,115.468L386.895,115.563L387.617,113.321L388.34,112.787L389.063,111.716L389.785,112.386L390.508,111.936L391.23,110.938L391.953,110.803L392.676,109.471L393.398,108.699L394.121,107.197L394.844,108.125L395.566,107.326L396.289,105.937L397.012,105.396L397.734,104.45L398.457,105.47L399.18,103.696L399.902,103.801L400.625,103.508L401.348,104.026L402.07,102.027L402.793,102.017L403.516,102.233L404.238,101.054L404.961,101.21L405.684,100.173L406.406,99.948L407.129,99.519L407.852,98.953L408.574,98.035L409.297,97.842L410.02,97.369L410.742,97.023L411.465,97.024L412.188,96.088L412.91,95.538L413.633,94.595L414.355,94.863L415.078,93.913L415.801,94.132L416.523,93.234L417.246,92.933L417.969,93.629L418.691,91.93L419.414,92.414L420.137,93.359L420.859,90.701L421.582,91.512L422.305,91.048L423.027,90.413L423.75,89.99L424.473,89.597L425.195,90.173L425.918,89.032L426.641,89.177L427.363,89.525L428.086,88.32L428.809,88.439L429.531,88.204L430.254,88.421L430.977,87.291L431.699,87.076L432.422,87.49L433.145,86.3L433.867,85.185L434.59,85.419L435.313,83.943L436.035,84.501L436.758,85.061L437.48,85.262L438.203,82.957L438.926,82.86L439.648,82.339L440.371,82.378L441.094,82.113L441.816,82.614L442.539,82.3L443.262,83.431L443.984,82.01L444.707,81.214L445.43,81.649L446.152,80.994L446.875,81.06L447.598,80.565L448.32,81.094L449.043,80.702L449.766,79.799L450.488,79.185L451.211,79.451L451.934,79.066L452.656,78.829L453.379,77.026L454.102,78.399L454.824,78.755L455.547,78.13L456.27,78.039L456.992,77.461L457.715,76.895L458.438,77.025L459.16,76.785L459.883,75.533L460.605,76.625L461.328,76.227L462.051,75.592L462.773,75.571L463.496,75.815L464.219,75.612L464.941,75.912L465.664,73.794L466.387,74.812L467.109,73.507L467.832,73.613L468.555,73.676L469.277,72.835"/><path fill="none" stroke="rgb(236, 209, 46)" stroke-width="1.5" d="M100,162.632L100.723,151.945L101.445,213.684L102.168,218.423L102.891,219.526L103.613,222.728L104.336,227.191L105.059,229.715L105.781,230.995L106.504,233.824L107.227,235.066L107.949,237.468L108.672,241.45L109.395,242.973L110.117,245.374L110.84,245.246L111.563,247.54L112.285,250.331L113.008,251.408L113.73,252.719L114.453,254.154L115.176,254.956L115.898,257.381L116.621,257.226L117.344,258.686L118.066,260.53L118.789,260.212L119.512,262.608L120.234,262.219L120.957,265.132L121.68,265.464L122.402,266.53L123.125,264.787L123.848,265.681L124.57,265.288L125.293,267.701L126.016,265.44L126.738,264.381L127.461,268.962L128.184,265.215L128.906,266.459L129.629,265.143L130.352,265.74L131.074,267.524L131.797,267.418L132.52,268.994L133.242,266.417L133.965,269.053L134.688,266.568L135.41,269.588L136.133,268.759L136.855,268.228L137.578,267.756L138.301,270.129L139.023,267.891L139.746,268.291L140.469,269.683L141.191,268.644L141.914,270.081L142.637,268.798L143.359,268.923L144.082,268.912L144.805,267.832L145.527,269.809L146.25,269.847L146.973,270.694L147.695,271.368L148.418,270.099L149.141,270.18L149.863,270.543L150.586,271.648L151.309,270.843L152.031,272.088L152.754,272.244L153.477,273.365L154.199,271.734L154.922,272.75L155.645,271.945L156.367,272.379L157.09,271.836L157.813,272.374L158.535,275.437L159.258,273.628L159.98,276.299L160.703,273.872L161.426,276.262L162.148,274.807L162.871,273.995L163.594,276.902L164.316,274.539L165.039,276.755L165.762,275.969L166.484,277.491L167.207,275.533L167.93,277.043L168.652,278.055L169.375,277.736L170.098,278.438L170.82,278.551L171.543,277.045L172.266,279.523L172.988,277.483L173.711,276.206L174.434,278.847L175.156,280.017L175.879,280.63L176.602,278.034L177.324,280.923L178.047,281.775L178.77,280.826L179.492,282.234L180.215,280.692L180.938,279.922L181.66,280.146L182.383,280.538L183.105,279.822L183.828,281.19L184.551,283.059L185.273,282.419L185.996,282.934L186.719,282.739L187.441,283.025L188.164,284.374L188.887,283.02L189.609,283.4L190.332,283.5L191.055,284.205L191.777,282.884L192.5,283.35L193.223,285.627L193.945,284.682L194.668,284.764L195.391,285.004L196.113,286.016L196.836,287.623L197.559,287.411L198.281,284.559L199.004,287.543L199.727,287.239L200.449,288.355L201.172,286.523L201.895,287.551L202.617,287.334L203.34,287.225L204.063,287.022L204.785,286.239L205.508,288.803L206.23,286.388L206.953,287.071L207.676,288.117L208.398,288.642L209.121,289.546L209.844,288.828L210.566,289.587L211.289,288.259L212.012,290.554L212.734,288.799L213.457,288.632L214.18,289.527L214.902,290.628L215.625,288.198L216.348,289.686L217.07,289.171L217.793,289.04L218.516,289.306L219.238,290.763L219.961,289.199L220.684,291.879L221.406,289.695L222.129,289.819L222.852,290.545L223.574,288.88L224.297,288.827L225.02,289.859L225.742,288.615L226.465,288.908L227.188,289.266L227.91,290.053L228.633,289.121L229.355,288.554L230.078,288.753L230.801,289.619L231.523,287.113L232.246,287.697L232.969,287.26L233.691,287.746L234.414,287.553L235.137,288.225L235.859,286.454L236.582,285.857L237.305,286.65L238.027,286.226L238.75,286.515L239.473,287.835L240.195,285.828L240.918,283.446L241.641,284.391L242.363,283.728L243.086,284.31L243.809,283.121L244.531,284.417L245.254,282.679L245.977,282.564L246.699,281.146L247.422,280.192L248.145,281.759L248.867,278.604L249.59,277.93L250.313,279.569L251.035,279.171L251.758,275.47L252.48,277.482L253.203,277.77L253.926,277.478L254.648,275.798L255.371,275.196L256.094,274.703L256.816,273.854L257.539,272.168L258.262,271.353L258.984,272.137L259.707,269.14L260.43,270.069L261.152,269.252L261.875,267.264L262.598,265.127L263.32,265.342L264.043,267.876L264.766,263.962L265.488,261.547L266.211,261.271L266.934,262.3L267.656,259.796L268.379,260.036L269.102,257.491L269.824,256.793L270.547,257.136L271.27,257.378L271.992,255.148L272.715,255.357L273.438,254.014L274.16,252.346L274.883,249.302L275.605,249.926L276.328,248.409L277.051,246.523L277.773,243.794L278.496,244.441L279.219,245.585L279.941,244.923L280.664,240.677L281.387,242.571L282.109,240.88L282.832,237.765L283.555,236.73L284.277,234.924L285,235.738L285.723,230.994L286.445,232.971L287.168,231.385L287.891,228.106L288.613,227.009L289.336,226.947L290.059,223.566L290.781,223.923L291.504,223.687L292.227,224.914L292.949,221.199L293.672,219.202L294.395,218.978L295.117,215.389L295.84,214.809L296.563,215.333L297.285,213.453L298.008,211.166L298.73,211.389L299.453,208.383L300.176,207.231L300.898,207.094L301.621,206.282L302.344,203.415L303.066,202.914L303.789,201.052L304.512,199.667L305.234,198.514L305.957,196.982L306.68,195.779L307.402,193.199L308.125,193.804L308.848,192.545L309.57,190.628L310.293,187.178L311.016,186.724L311.738,186.376L312.461,185.36L313.184,183.928L313.906,182.475L314.629,180.902L315.352,178.759L316.074,176.491L316.797,175.083L317.52,176.041L318.242,172.291L318.965,172.106L319.688,170.794L320.41,169.409L321.133,167.832L321.855,168.114L322.578,165.766L323.301,165.374L324.023,161.326L324.746,159.384L325.469,159.927L326.191,160.086L326.914,160.029L327.637,154.878L328.359,154.968L329.082,153.038L329.805,151.865L330.527,149.397L331.25,149.279L331.973,148.333L332.695,146.1L333.418,144.815L334.141,143.108L334.863,143.767L335.586,141.791L336.309,140.577L337.031,140.353L337.754,137.963L338.477,135.993L339.199,136.548L339.922,134.927L340.645,132.515L341.367,131.762L342.09,132.075L342.813,131.736L343.535,128.427L344.258,127.321L344.98,125.993L345.703,124.358L346.426,123.557L347.148,122.89L347.871,122.291L348.594,122.451L349.316,120.494L350.039,120.107L350.762,118.784L351.484,118.565L352.207,114.772L352.93,113.865L353.652,112.123L354.375,114.599L355.098,113.409L355.82,111.235L356.543,109.435L357.266,107.996L357.988,107.699L358.711,106.172L359.434,106.632L360.156,105.579L360.879,104.706L361.602,102.317L362.324,102.661L363.047,99.856L363.77,99.808L364.492,99.864L365.215,97.567L365.938,97.316L366.66,96.122L367.383,96.487L368.105,95.316L368.828,94.885L369.551,94.226L370.273,93.278L370.996,92.955L371.719,91.07L372.441,89.523L373.164,90.192L373.887,89.337L374.609,88.426L375.332,87.521L376.055,86.168L376.777,85.025L377.5,85.108L378.223,84.042L378.945,83.419L379.668,83.046L380.391,82.645L381.113,81.724L381.836,80.914L382.559,79.882L383.281,80.315L384.004,79.489L384.727,79.192L385.449,76.869L386.172,77.562L386.895,75.592L387.617,76.135L388.34,74.608L389.063,74.977L389.785,73.845L390.508,72.051L391.23,72.919L391.953,71.881L392.676,71.765L393.398,70.915L394.121,69.43L394.844,69.599L395.566,69.658L396.289,68.401L397.012,67.334L397.734,67.665L398.457,67.22L399.18,66.957L399.902,65.465L400.625,64.641L401.348,65.74L402.07,64.209L402.793,63.405L403.516,63.149L404.238,64.432L404.961,62.508L405.684,61.417L406.406,60.85L407.129,61.453L407.852,60.031L408.574,59.984L409.297,59.602L410.02,59.983L410.742,59.377L411.465,58.448L412.188,58.566L412.91,58.278L413.633,57.511L414.355,56.81L415.078,55.758L415.801,55.459L416.523,55.647L417.246,55.494L417.969,54.738L418.691,54.969L419.414,54.153L420.137,54.433L420.859,53.522L421.582,53.9L422.305,53.329L423.027,51.422L423.75,51.814L424.473,51.49L425.195,51.566L425.918,50.284L426.641,51.493L427.363,50.144L428.086,50.178L428.809,49.724L429.531,49.063L430.254,48.919L430.977,48.591L431.699,47.857L432.422,48.054L433.145,47.335L433.867,47.474L434.59,46.046L435.313,46.471L436.035,46.108L436.758,45.672L437.48,46.343L438.203,45.136L438.926,44.337L439.648,45.466L440.371,44.414L441.094,43.769L441.816,44.253L442.539,44.351L443.262,43.412L443.984,42.41L444.707,43.088L445.43,42.29L446.152,42.312L446.875,42.147L447.598,41.891L448.32,41.528L449.043,41.566L449.766,41.044L450.488,39.937L451.211,40.826L451.934,40.36L452.656,40.91L453.379,39.978L454.102,39.803L454.824,39.176L455.547,38.919L456.27,39.297L456.992,39.012L457.715,38.01L458.438,38L459.16,37.598L459.883,37.481L460.605,38.517L461.328,37.461L462.051,37.664L462.773,37.246L463.496,36.742L464.219,36.139L464.941,36.48L465.664,35.928L466.387,35.554L467.109,34.983L467.832,35.263L468.555,36.032L469.277,35.553"/><path fill="none" stroke="rgb(255, 130, 29)" stroke-width="1.5" d="M100,166.815L100.723,152.776L101.445,206.352L102.168,213.972L102.891,217.797L103.613,218.227L104.336,222.8L105.059,224.695L105.781,226.208L106.504,229.917L107.227,233.135L107.949,233.282L108.672,236.316L109.395,240.726L110.117,240.115L110.84,240.724L111.563,243.504L112.285,245.313L113.008,247.153L113.73,249.616L114.453,252.427L115.176,251.835L115.898,253.527L116.621,254.21L117.344,256.202L118.066,257.439L118.789,258.52L119.512,261.246L120.234,262L120.957,262.087L121.68,262.463L122.402,261.402L123.125,262.113L123.848,263.883L124.57,263.852L125.293,264.468L126.016,263.307L126.738,264.486L127.461,265.813L128.184,264.032L128.906,266.177L129.629,263.618L130.352,263.686L131.074,265.525L131.797,266.047L132.52,266.495L133.242,267.631L133.965,267.194L134.688,267.869L135.41,269.676L136.133,268.187L136.855,266.313L137.578,268.636L138.301,268.593L139.023,269.053L139.746,268.561L140.469,268.58L141.191,271.247L141.914,270.159L142.637,269.573L143.359,270.868L144.082,270.734L144.805,272.974L145.527,272.955L146.25,271.414L146.973,270.405L147.695,272.146L148.418,273.202L149.141,274.268L149.863,274.334L150.586,273.353L151.309,276.372L152.031,274.441L152.754,277.737L153.477,276.316L154.199,275.802L154.922,278.3L155.645,278.591L156.367,278.369L157.09,278.25L157.813,280.067L158.535,279.42L159.258,279.776L159.98,280.975L160.703,282.06L161.426,281.839L162.148,282.793L162.871,283.835L163.594,282.834L164.316,282.991L165.039,282.218L165.762,284.768L166.484,285.288L167.207,285.26L167.93,285.833L168.652,286.52L169.375,284.936L170.098,287.115L170.82,287.17L171.543,287.755L172.266,288.442L172.988,289.254L173.711,289.036L174.434,289.202L175.156,289.476L175.879,290.669L176.602,290.449L177.324,292.02L178.047,291.338L178.77,292.982L179.492,294.66L180.215,293.027L180.938,296.047L181.66,296.403L182.383,294.757L183.105,297.72L183.828,296.892L184.551,298.717L185.273,299.466L185.996,299.452L186.719,299.421L187.441,297.986L188.164,298.79L188.887,301.508L189.609,301.434L190.332,301.601L191.055,300.87L191.777,302.21L192.5,301.109L193.223,303.898L193.945,303.554L194.668,302.498L195.391,306.765L196.113,303.892L196.836,303.557L197.559,306.467L198.281,307.023L199.004,307.489L199.727,307.219L200.449,306.628L201.172,308.845L201.895,307.027L202.617,308.98L203.34,308.352L204.063,308.253L204.785,311.124L205.508,310.324L206.23,311.102L206.953,309.837L207.676,311.678L208.398,311.401L209.121,309.466L209.844,311.092L210.566,313.009L211.289,313.953L212.012,313.755L212.734,312.6L213.457,311.705L214.18,312.377L214.902,313.971L215.625,313.01L216.348,313.235L217.07,313.305L217.793,312.989L218.516,312.912L219.238,314.467L219.961,312.78L220.684,314.916L221.406,314.822L222.129,313.438L222.852,313.351L223.574,313.559L224.297,314.007L225.02,316.975L225.742,315.425L226.465,314.71L227.188,315.388L227.91,312.016L228.633,314.178L229.355,313.5L230.078,312.94L230.801,313.97L231.523,310.635L232.246,313.982L232.969,312.503L233.691,311.984L234.414,312.071L235.137,311.527L235.859,310.966L236.582,310.481L237.305,310.832L238.027,309.947L238.75,310.092L239.473,306.78L240.195,306.608L240.918,308.505L241.641,307.283L242.363,307.716L243.086,306.346L243.809,305.702L244.531,303.915L245.254,303.781L245.977,303.698L246.699,303.16L247.422,302.689L248.145,302.424L248.867,302.98L249.59,301.93L250.313,300.272L251.035,297.911L251.758,300.005L252.48,297.604L253.203,298.426L253.926,295.764L254.648,296.161L255.371,292.334L256.094,295.118L256.816,292.699L257.539,290.528L258.262,291.699L258.984,288.807L259.707,286.598L260.43,284.646L261.152,287.723L261.875,286.406L262.598,285.842L263.32,284.305L264.043,282.19L264.766,278.892L265.488,280.47L266.211,278.27L266.934,279.638L267.656,275.376L268.379,272.126L269.102,273.129L269.824,269.761L270.547,268.719L271.27,269.815L271.992,267.327L272.715,265.167L273.438,266.947L274.16,265.792L274.883,263.541L275.605,263.157L276.328,260.756L277.051,260.126L277.773,257.023L278.496,257.166L279.219,253.775L279.941,254.786L280.664,251.02L281.387,251.86L282.109,250.404L282.832,247.234L283.555,245.809L284.277,245.838L285,241.541L285.723,242.408L286.445,239.672L287.168,237.929L287.891,237.679L288.613,234.969L289.336,235.4L290.059,232.041L290.781,228.851L291.504,230.444L292.227,228.299L292.949,224.705L293.672,225.22L294.395,222.932L295.117,220.478L295.84,220.549L296.563,217.227L297.285,216.593L298.008,215.316L298.73,213.919L299.453,212.585L300.176,209.188L300.898,208.027L301.621,207.282L302.344,207.649L303.066,205.086L303.789,201.717L304.512,200.176L305.234,198.94L305.957,196.501L306.68,193.87L307.402,193.21L308.125,192.508L308.848,190.156L309.57,188.844L310.293,187.181L311.016,185.695L311.738,184.655L312.461,182.152L313.184,179.496L313.906,178.833L314.629,176.199L315.352,176.313L316.074,174.829L316.797,173.619L317.52,173.294L318.242,168.492L318.965,168.879L319.688,167.527L320.41,163.347L321.133,162.518L321.855,161.728L322.578,160.101L323.301,158.634L324.023,156.012L324.746,157.183L325.469,155.291L326.191,151.263L326.914,150.642L327.637,149.517L328.359,148.557L329.082,148.759L329.805,146.056L330.527,143.841L331.25,141.297L331.973,141.446L332.695,139.106L333.418,139.012L334.141,138.914L334.863,135.41L335.586,135.88L336.309,134.389L337.031,131.804L337.754,131.046L338.477,129.346L339.199,128.542L339.922,126.881L340.645,126.211L341.367,124.63L342.09,124.514L342.813,120.9L343.535,120.681L344.258,119.163L344.98,118.557L345.703,119.031L346.426,116.293L347.148,114.265L347.871,113.657L348.594,113.24L349.316,110.318L350.039,108.823L350.762,107.676L351.484,107.99L352.207,106.2L352.93,106.064L353.652,105.787L354.375,103.128L355.098,102.048L355.82,102.456L356.543,99.939L357.266,99.811L357.988,97.761L358.711,97.229L359.434,95.755L360.156,95.981L360.879,94.359L361.602,92.147L362.324,92.769L363.047,91.728L363.77,91.366L364.492,90.038L365.215,88.376L365.938,88.499L366.66,87.251L367.383,85.97L368.105,84.884L368.828,85.311L369.551,82.914L370.273,83.423L370.996,81.825L371.719,80.65L372.441,80.048L373.164,79.067L373.887,77.902L374.609,77.551L375.332,76.138L376.055,75.724L376.777,75.24L377.5,73.874L378.223,73.898L378.945,73.295L379.668,71.778L380.391,71.742L381.113,70.835L381.836,69.338L382.559,68.586L383.281,68.258L384.004,67.164L384.727,66.58L385.449,66.648L386.172,65.677L386.895,65.271L387.617,65.853L388.34,63.83L389.063,63.106L389.785,62.74L390.508,62.091L391.23,61.299L391.953,60.944L392.676,61.638L393.398,60.591L394.121,57.912L394.844,57.853L395.566,58.666L396.289,57.938L397.012,56.878L397.734,56.564L398.457,56.522L399.18,54.03L399.902,54.899L400.625,53.99L401.348,53.356L402.07,52.683L402.793,51.85L403.516,52.436L404.238,50.501L404.961,50.108L405.684,49.99L406.406,49.357L407.129,49.466L407.852,49.794L408.574,47.986L409.297,48.578L410.02,47.036L410.742,46.876L411.465,46.075L412.188,45.907L412.91,45.811L413.633,44.813L414.355,43.296L415.078,42.945L415.801,43.177L416.523,43.316L417.246,42.251L417.969,41.772L418.691,41.148L419.414,41.229L420.137,41.188L420.859,40.472L421.582,39.375L422.305,40.602L423.027,39.565L423.75,38.587L424.473,37.895L425.195,37.64L425.918,38.61L426.641,37.286L427.363,36.975L428.086,36.804L428.809,36.501L429.531,35.389L430.254,35.177L430.977,34.668L431.699,34.934L432.422,34.218L433.145,33.303L433.867,33.618L434.59,33.366L435.313,32.534L436.035,32.207L436.758,32.427L437.48,31.977L438.203,30.937L438.926,31.65L439.648,31.104L440.371,30.948L441.094,30.882L441.816,29.898L442.539,30.074L443.262,28.714L443.984,28.597L444.707,28.196L445.43,28.451L446.152,27.274L446.875,27.323L447.598,27.036L448.32,26.693L449.043,27.129L449.766,26.498L450.488,26.992L451.211,25.986L451.934,26.097L452.656,25.302L453.379,24.739L454.102,25.515L454.824,24.05L455.547,25.081L456.27,23.696L456.992,24.376L457.715,23.456L458.438,23.091L459.16,23.156L459.883,23.05L460.605,22.673L461.328,22.323L462.051,22.018L462.773,21.649L463.496,22.13L464.219,20.98L464.941,21.188L465.664,20.394L466.387,20.922L467.109,20.974L467.832,20.114L468.555,20.437L469.277,20"/><path fill="none" stroke="rgb(203, 47, 13)" stroke-width="1.5" d="M100,169.57L100.723,169.361L101.445,204.405L102.168,207.884L102.891,211.638L103.613,217.213L104.336,219.549L105.059,223.589L105.781,224.411L106.504,229.734L107.227,228.469L107.949,232.881L108.672,233.957L109.395,237.417L110.117,237.938L110.84,241.359L111.563,240.789L112.285,245.999L113.008,245.498L113.73,248.127L114.453,251.798L115.176,251.836L115.898,251.788L116.621,253.27L117.344,253.525L118.066,256.966L118.789,257.468L119.512,258.187L120.234,259.513L120.957,261.027L121.68,260.942L122.402,261.423L123.125,262.245L123.848,261.88L124.57,262.76L125.293,263.373L126.016,262.152L126.738,262.503L127.461,263.785L128.184,264.23L128.906,263.319L129.629,264.162L130.352,265.156L131.074,263.601L131.797,263.128L132.52,263.629L133.242,266.68L133.965,266.164L134.688,264.878L135.41,267.782L136.133,268.756L136.855,266.936L137.578,267.758L138.301,268.728L139.023,269.103L139.746,269.004L140.469,268.952L141.191,271.574L141.914,271.297L142.637,270.485L143.359,273.307L144.082,271.062L144.805,272.371L145.527,272.736L146.25,275.379L146.973,272.65L147.695,274.192L148.418,273.518L149.141,275.722L149.863,277.534L150.586,277.231L151.309,276.528L152.031,278.01L152.754,279.957L153.477,278.733L154.199,278.768L154.922,281.449L155.645,279.216L156.367,278.189L157.09,281.345L157.813,281.166L158.535,282.537L159.258,283.232L159.98,283.489L160.703,283.933L161.426,286.969L162.148,285.791L162.871,284.99L163.594,285.559L164.316,287.541L165.039,288.265L165.762,289.673L166.484,290.554L167.207,289.514L167.93,292.87L168.652,290.093L169.375,291.334L170.098,291.932L170.82,292.765L171.543,294.765L172.266,294.545L172.988,296.054L173.711,296.661L174.434,297.322L175.156,296.287L175.879,300.512L176.602,299.631L177.324,299.731L178.047,300.065L178.77,300.719L179.492,301.378L180.215,301.812L180.938,304.144L181.66,303.115L182.383,305.608L183.105,305.439L183.828,308.048L184.551,310.741L185.273,308.64L185.996,310.31L186.719,310.727L187.441,311.085L188.164,310.145L188.887,314.388L189.609,314.558L190.332,314.974L191.055,315.906L191.777,317.912L192.5,320.169L193.223,315.185L193.945,318.541L194.668,318.878L195.391,320.147L196.113,319.141L196.836,321.415L197.559,323.242L198.281,322.762L199.004,322.779L199.727,322.388L200.449,324.69L201.172,325.398L201.895,328.33L202.617,328.605L203.34,327.545L204.063,330.59L204.785,331.043L205.508,330.728L206.23,329.104L206.953,332.453L207.676,330.996L208.398,334.455L209.121,334.699L209.844,334.97L210.566,333.796L211.289,335.899L212.012,335.645L212.734,337.247L213.457,337.644L214.18,336.67L214.902,337.399L215.625,338.263L216.348,338.679L217.07,339.893L217.793,339.011L218.516,340.489L219.238,341.58L219.961,341.841L220.684,341.661L221.406,341.483L222.129,343.198L222.852,345.371L223.574,343.77L224.297,345.323L225.02,346.615L225.742,343.451L226.465,348.061L227.188,343.104L227.91,344.772L228.633,345.142L229.355,347.318L230.078,344.422L230.801,346.448L231.523,346.684L232.246,346.816L232.969,345.794L233.691,349.008L234.414,345.63L235.137,347.88L235.859,348.218L236.582,349.03L237.305,346.416L238.027,350L238.75,347.625L239.473,347.312L240.195,348.486L240.918,346.01L241.641,348.67L242.363,346.449L243.086,346.565L243.809,347.345L244.531,345.683L245.254,347.486L245.977,347.443L246.699,346.107L247.422,344.917L248.145,345.775L248.867,344.909L249.59,342.297L250.313,344.885L251.035,344.246L251.758,343.024L252.48,343.82L253.203,338.586L253.926,343.654L254.648,340.977L255.371,339.225L256.094,338.012L256.816,336.676L257.539,338.675L258.262,334.217L258.984,333.418L259.707,339.103L260.43,334.191L261.152,333.051L261.875,335.323L262.598,333.989L263.32,333.42L264.043,330.177L264.766,330.875L265.488,329.11L266.211,328.098L266.934,326.357L267.656,327.109L268.379,326.121L269.102,324.81L269.824,321.517L270.547,322.236L271.27,322.264L271.992,321.02L272.715,316.821L273.438,318.927L274.16,315.701L274.883,315.668L275.605,313.623L276.328,311.471L277.051,308.683L277.773,310.954L278.496,312.172L279.219,309.703L279.941,305.842L280.664,302.564L281.387,305.053L282.109,301.301L282.832,297.598L283.555,301.903L284.277,299.913L285,294.735L285.723,297.43L286.445,292.804L287.168,293.417L287.891,287.07L288.613,287.306L289.336,288.063L290.059,285.681L290.781,284.667L291.504,284.109L292.227,284.375L292.949,281.508L293.672,277.636L294.395,278.235L295.117,272.519L295.84,274.626L296.563,271.741L297.285,270.503L298.008,268.494L298.73,266.515L299.453,266.171L300.176,264.087L300.898,261.958L301.621,261.122L302.344,257.47L303.066,257.731L303.789,256.955L304.512,254.333L305.234,250.543L305.957,247.793L306.68,249.535L307.402,247.03L308.125,244.835L308.848,243.828L309.57,240.679L310.293,237.787L311.016,239.08L311.738,238.193L312.461,233.765L313.184,231.804L313.906,231.428L314.629,228.832L315.352,229.202L316.074,227.137L316.797,224.088L317.52,223.837L318.242,222.369L318.965,221.387L319.688,219.207L320.41,217.172L321.133,214.186L321.855,213.853L322.578,214.197L323.301,210.602L324.023,206.21L324.746,207.237L325.469,204.697L326.191,203.591L326.914,204.254L327.637,200.237L328.359,198.455L329.082,197.761L329.805,195.409L330.527,193.034L331.25,193.302L331.973,193.192L332.695,189.496L333.418,185.437L334.141,184.848L334.863,185.939L335.586,185.417L336.309,182.884L337.031,178.757L337.754,177.223L338.477,177.402L339.199,178.12L339.922,175.732L340.645,173.393L341.367,172.222L342.09,170.16L342.813,168.516L343.535,165.843L344.258,165.415L344.98,165.158L345.703,163.115L346.426,162.115L347.148,160.384L347.871,157.17L348.594,156.243L349.316,155.949L350.039,156.619L350.762,153.386L351.484,153.368L352.207,153.077L352.93,149.758L353.652,148.527L354.375,145.952L355.098,144.337L355.82,143.653L356.543,142.149L357.266,142.05L357.988,140.299L358.711,138.506L359.434,137.335L360.156,136.007L360.879,135.096L361.602,136.493L362.324,134.115L363.047,132.399L363.77,131.611L364.492,131.249L365.215,128.072L365.938,128.397L366.66,126.402L367.383,123.644L368.105,124.769L368.828,124.174L369.551,122.376L370.273,121.605L370.996,120.271L371.719,117.1L372.441,118.056L373.164,115.913L373.887,118.073L374.609,114.347L375.332,114.217L376.055,114.591L376.777,112.123L377.5,111.413L378.223,111.767L378.945,109.434L379.668,107.373L380.391,106.171L381.113,106.688L381.836,106.3L382.559,103.354L383.281,103.638L384.004,102.839L384.727,102.544L385.449,99.913L386.172,100.122L386.895,99.599L387.617,96.655L388.34,97.487L389.063,97.078L389.785,94.883L390.508,93.98L391.23,93.164L391.953,92.974L392.676,93.622L393.398,91.649L394.121,91.556L394.844,91.611L395.566,89.012L396.289,88.61L397.012,86.934L397.734,86.645L398.457,85.27L399.18,84.415L399.902,84.183L400.625,84.226L401.348,82.602L402.07,80.78L402.793,81.453L403.516,80.257L404.238,78.716L404.961,79.271L405.684,78.184L406.406,77.168L407.129,76.655L407.852,77.405L408.574,76.051L409.297,74.326L410.02,74.894L410.742,74.268L411.465,73.321L412.188,71.704L412.91,72.024L413.633,69.973L414.355,69.942L415.078,69.979L415.801,68.477L416.523,68.217L417.246,67.708L417.969,67.521L418.691,67.029L419.414,65.132L420.137,66.74L420.859,64.536L421.582,63.111L422.305,63.5L423.027,63.561L423.75,62.488L424.473,63.233L425.195,61.271L425.918,61.123L426.641,59.408L427.363,60.276L428.086,58.462L428.809,58.46L429.531,57.999L430.254,57.933L430.977,56.357L431.699,55.691L432.422,56.846L433.145,54.873L433.867,54.608L434.59,55.718L435.313,53.916L436.035,54.164L436.758,52.41L437.48,51.525L438.203,51.66L438.926,51.486L439.648,51.164L440.371,50.319L441.094,49.876L441.816,48.37L442.539,47.716L443.262,49.845L443.984,47.838L444.707,46.62L445.43,46.923L446.152,46.39L446.875,44.999L447.598,45.657L448.32,44.146L449.043,44.582L449.766,44.132L450.488,43.463L451.211,44.097L451.934,42.619L452.656,42.506L453.379,42.838L454.102,41.056L454.824,42.198L455.547,41.298L456.27,40.626L456.992,40.921L457.715,40.1L458.438,40.447L459.16,37.882L459.883,38.552L460.605,39.21L461.328,37.341L462.051,36.447L462.773,37.28L463.496,36.211L464.219,37.299L464.941,36.153L465.664,34.822L466.387,34.884L467.109,35.382L467.832,35.326L468.555,33.537L469.277,32.902"/><g transform="translate(0,190) scale(1.7) rotate(-90)"><text>Drift</text></g><g transform="translate(315,395) scale(1.8)"><text></text></g><g transform="translate(0,350)" fill="none" font-size="10" font-family="sans-serif" text-anchor="middle"><path class="domain" stroke="currentColor" d="M100,6V0H470V6"/><g class="tick" opacity="1" transform="translate(136.66666666666666,0)"><line stroke="currentColor" y2="6"/><text fill="currentColor" y="9" dy="0.71em" font-size="20px"> </text></g><g class="tick" opacity="1" transform="translate(173.7037037037037,0)"><line stroke="currentColor" y2="6"/><text fill="currentColor" y="9" dy="0.71em" font-size="20px">200</text></g><g class="tick" opacity="1" transform="translate(210.74074074074076,0)"><line stroke="currentColor" y2="6"/><text fill="currentColor" y="9" dy="0.71em" font-size="20px"> </text></g><g class="tick" opacity="1" transform="translate(247.77777777777777,0)"><line stroke="currentColor" y2="6"/><text fill="currentColor" y="9" dy="0.71em" font-size="20px">400</text></g><g class="tick" opacity="1" transform="translate(284.81481481481484,0)"><line stroke="currentColor" y2="6"/><text fill="currentColor" y="9" dy="0.71em" font-size="20px"> </text></g><g class="tick" opacity="1" transform="translate(321.85185185185185,0)"><line stroke="currentColor" y2="6"/><text fill="currentColor" y="9" dy="0.71em" font-size="20px">600</text></g><g class="tick" opacity="1" transform="translate(358.8888888888889,0)"><line stroke="currentColor" y2="6"/><text fill="currentColor" y="9" dy="0.71em" font-size="20px"> </text></g><g class="tick" opacity="1" transform="translate(395.9259259259259,0)"><line stroke="currentColor" y2="6"/><text fill="currentColor" y="9" dy="0.71em" font-size="20px">800</text></g><g class="tick" opacity="1" transform="translate(432.96296296296293,0)"><line stroke="currentColor" y2="6"/><text fill="currentColor" y="9" dy="0.71em" font-size="20px"> </text></g><g class="tick" opacity="1" transform="translate(470,0)"><line stroke="currentColor" y2="6"/><text fill="currentColor" y="9" dy="0.71em" font-size="20px">1000</text></g></g><g transform="translate(100,0)" fill="none" font-size="10" font-family="sans-serif" text-anchor="end"><path class="domain" stroke="currentColor" d="M-6,350H0V20H-6"/><g class="tick" opacity="1" transform="translate(0,319.2208578941697)"><line stroke="currentColor" x2="-6"/><text fill="currentColor" x="-9" dy="0.32em" font-size="20px">0.034</text></g><g class="tick" opacity="1" transform="translate(0,278.6643855943264)"><line stroke="currentColor" x2="-6"/><text fill="currentColor" x="-9" dy="0.32em" font-size="20px">0.032</text></g><g class="tick" opacity="1" transform="translate(0,238.10791329448315)"><line stroke="currentColor" x2="-6"/><text fill="currentColor" x="-9" dy="0.32em" font-size="20px">0.030</text></g><g class="tick" opacity="1" transform="translate(0,197.55144099463996)"><line stroke="currentColor" x2="-6"/><text fill="currentColor" x="-9" dy="0.32em" font-size="20px">0.028</text></g><g class="tick" opacity="1" transform="translate(0,156.99496869479677)"><line stroke="currentColor" x2="-6"/><text fill="currentColor" x="-9" dy="0.32em" font-size="20px">0.026</text></g><g class="tick" opacity="1" transform="translate(0,116.43849639495359)"><line stroke="currentColor" x2="-6"/><text fill="currentColor" x="-9" dy="0.32em" font-size="20px">0.024</text></g><g class="tick" opacity="1" transform="translate(0,75.88202409511032)"><line stroke="currentColor" x2="-6"/><text fill="currentColor" x="-9" dy="0.32em" font-size="20px">0.022</text></g><g class="tick" opacity="1" transform="translate(0,35.32555179526719)"><line stroke="currentColor" x2="-6"/><text fill="currentColor" x="-9" dy="0.32em" font-size="20px">0.020</text></g></g><circle cx="135" cy="-25" r="8" style="fill: rgb(35, 23, 27);"/><circle cx="135" cy="0" r="8" style="fill: rgb(69, 105, 238);"/><circle cx="135" cy="25" r="8" style="fill: rgb(38, 188, 225);"/><circle cx="135" cy="50" r="8" style="fill: rgb(63, 243, 147);"/><circle cx="255" cy="-25" r="8" style="fill: rgb(149, 251, 81);"/><circle cx="255" cy="0" r="8" style="fill: rgb(236, 209, 46);"/><circle cx="255" cy="25" r="8" style="fill: rgb(255, 130, 29);"/><circle cx="255" cy="50" r="8" style="fill: rgb(203, 47, 13);"/><text x="150" y="-25" text-anchor="left" font-size="22" alignment-baseline="middle" style="fill: rgb(35, 23, 27);"> = 0</text><text x="150" y="0" text-anchor="left" font-size="22" alignment-baseline="middle" style="fill: rgb(69, 105, 238);"> = 0.22</text><text x="150" y="25" text-anchor="left" font-size="22" alignment-baseline="middle" style="fill: rgb(38, 188, 225);"> = 0.45</text><text x="150" y="50" text-anchor="left" font-size="22" alignment-baseline="middle" style="fill: rgb(63, 243, 147);"> = 0.67</text><text x="275" y="-25" text-anchor="left" font-size="22" alignment-baseline="middle" style="fill: rgb(149, 251, 81);"> = 0.9</text><text x="275" y="0" text-anchor="left" font-size="22" alignment-baseline="middle" style="fill: rgb(236, 209, 46);"> = 1.12</text><text x="275" y="25" text-anchor="left" font-size="22" alignment-baseline="middle" style="fill: rgb(255, 130, 29);"> = 1.35</text><text x="275" y="50" text-anchor="left" font-size="22" alignment-baseline="middle" style="fill: rgb(203, 47, 13);"> = 1.57</text></svg>