<svg xmlns="http://www.w3.org/2000/svg" class="bg-white" width="500" height="400" viewBox="-34.29999999999997 -29.999999999999964 550 440.00000000000006"><path fill="none" stroke="rgb(35, 23, 27)" stroke-width="1.5" d="M100,29.388L100.723,29.18L101.445,28.754L102.168,28.54L102.891,28.296L103.613,27.773L104.336,27.529L105.059,27.264L105.781,27.18L106.504,26.896L107.227,26.741L107.949,26.43L108.672,26.084L109.395,26.13L110.117,25.741L110.84,25.171L111.563,24.789L112.285,24.421L113.008,23.518L113.73,23.132L114.453,22.769L115.176,22.107L115.898,21.712L116.621,21.116L117.344,20.736L118.066,20.363L118.789,20L119.512,122.346L120.234,327.389L120.957,327.626L121.68,327.53L122.402,327.513L123.125,327.295L123.848,327.79L124.57,327.504L125.293,326.912L126.016,327.761L126.738,327.736L127.461,326.907L128.184,326.899L128.906,327.58L129.629,327.547L130.352,326.835L131.074,327.381L131.797,327.489L132.52,327.086L133.242,327.059L133.965,327.283L134.688,327.083L135.41,327.074L136.133,326.949L136.855,327.522L137.578,327.078L138.301,327.254L139.023,327.239L139.746,326.976L140.469,326.924L141.191,326.834L141.914,326.812L142.637,326.827L143.359,327.149L144.082,327.123L144.805,327.107L145.527,327.189L146.25,326.722L146.973,326.692L147.695,326.678L148.418,327.028L149.141,327.031L149.863,327.126L150.586,326.595L151.309,326.964L152.031,326.6L152.754,326.619L153.477,326.871L154.199,326.839L154.922,326.766L155.645,326.86L156.367,326.477L157.09,326.486L157.813,326.447L158.535,326.206L159.258,326.626L159.98,326.594L160.703,326.566L161.426,326.548L162.148,326.062L162.871,326.072L163.594,326.053L164.316,326.417L165.039,326.307L165.762,326.37L166.484,326.449L167.207,325.767L167.93,326.253L168.652,326.229L169.375,325.711L170.098,325.72L170.82,325.858L171.543,326.421L172.266,326.39L172.988,326.243L173.711,326.28L174.434,326.153L175.156,326.154L175.879,326.199L176.602,326.168L177.324,325.775L178.047,325.891L178.77,326.093L179.492,325.92L180.215,325.886L180.938,325.921L181.66,325.098L182.383,325.081L183.105,325.877L183.828,325.716L184.551,325.766L185.273,325.364L185.996,325.701L186.719,325.4L187.441,325.569L188.164,325.533L188.887,325.447L189.609,324.924L190.332,325.216L191.055,325.68L191.777,325.693L192.5,325.616L193.223,325.165L193.945,325.159L194.668,325.293L195.391,325.227L196.113,325.482L196.836,325.326L197.559,325.307L198.281,324.942L199.004,325.393L199.727,325.393L200.449,325.378L201.172,325.467L201.895,325.342L202.617,325.184L203.34,325.182L204.063,325.398L204.785,325.162L205.508,325.132L206.23,325.304L206.953,324.848L207.676,324.881L208.398,325.187L209.121,325.187L209.844,324.755L210.566,324.754L211.289,324.731L212.012,324.992L212.734,325.181L213.457,324.887L214.18,324.647L214.902,324.711L215.625,324.434L216.348,324.408L217.07,325.097L217.793,324.488L218.516,324.703L219.238,324.369L219.961,324.822L220.684,324.962L221.406,324.528L222.129,324.924L222.852,324.869L223.574,324.422L224.297,324.838L225.02,324.534L225.742,324.614L226.465,324.5L227.188,324.197L227.91,324.202L228.633,324.518L229.355,324.371L230.078,324.526L230.801,324.499L231.523,324.415L232.246,324.489L232.969,324.488L233.691,324.467L234.414,324.681L235.137,324.02L235.859,324.648L236.582,324.205L237.305,324.209L238.027,324.25L238.75,324.066L239.473,324.331L240.195,324.363L240.918,324.936L241.641,324.078L242.363,324.681L243.086,324.082L243.809,324.957L244.531,324.963L245.254,324.955L245.977,324.749L246.699,324.667L247.422,324.263L248.145,324.251L248.867,324.677L249.59,324.398L250.313,324.783L251.035,324.699L251.758,324.349L252.48,324.353L253.203,324.57L253.926,324.846L254.648,324.39L255.371,324.536L256.094,324.656L256.816,324.796L257.539,324.445L258.262,324.42L258.984,324.557L259.707,323.805L260.43,324.841L261.152,324.678L261.875,324.386L262.598,324.642L263.32,324.445L264.043,324.366L264.766,324.793L265.488,324.625L266.211,324.683L266.934,324.635L267.656,324.529L268.379,324.726L269.102,324.698L269.824,324.767L270.547,324.778L271.27,324.933L271.992,324.816L272.715,324.664L273.438,324.511L274.16,324.64L274.883,324.882L275.605,325.115L276.328,324.484L277.051,324.442L277.773,324.607L278.496,324.692L279.219,324.709L279.941,324.709L280.664,325.222L281.387,324.88L282.109,325.266L282.832,324.805L283.555,324.761L284.277,324.648L285,324.845L285.723,324.679L286.445,325.165L287.168,325.55L287.891,324.744L288.613,325.582L289.336,325.149L290.059,325.186L290.781,325.229L291.504,325.783L292.227,325.145L292.949,325.372L293.672,325.31L294.395,324.972L295.117,325.943L295.84,325.338L296.563,325.281L297.285,325.471L298.008,325.76L298.73,325.477L299.453,325.617L300.176,325.579L300.898,326.212L301.621,325.767L302.344,325.373L303.066,325.686L303.789,325.646L304.512,326.374L305.234,326.404L305.957,325.641L306.68,325.91L307.402,326.543L308.125,326.215L308.848,325.979L309.57,326.407L310.293,325.718L311.016,325.817L311.738,326.511L312.461,326.441L313.184,326.283L313.906,326.536L314.629,326.107L315.352,326.63L316.074,327.305L316.797,326.883L317.52,326.698L318.242,327.002L318.965,327.521L319.688,327.07L320.41,327.569L321.133,327.249L321.855,327.261L322.578,327.772L323.301,327.293L324.023,327.525L324.746,327.528L325.469,327.242L326.191,327.311L326.914,327.79L327.637,328.277L328.359,327.96L329.082,327.933L329.805,327.976L330.527,327.764L331.25,328.084L331.973,328.191L332.695,328.265L333.418,328.349L334.141,328.435L334.863,328.496L335.586,328.946L336.309,329.131L337.031,328.877L337.754,328.618L338.477,329.024L339.199,329.146L339.922,329.192L340.645,329.897L341.367,329.282L342.09,329.699L342.813,330.214L343.535,329.556L344.258,329.553L344.98,330.087L345.703,329.579L346.426,329.894L347.148,330.733L347.871,330.14L348.594,330.932L349.316,330.501L350.039,330.744L350.762,330.693L351.484,330.638L352.207,331.054L352.93,331.159L353.652,331.265L354.375,331.647L355.098,331.193L355.82,331.332L356.543,331.95L357.266,332.267L357.988,331.485L358.711,331.808L359.434,331.666L360.156,332.643L360.879,331.885L361.602,332.764L362.324,332.557L363.047,332.164L363.77,332.266L364.492,333.057L365.215,332.496L365.938,332.725L366.66,332.391L367.383,333.491L368.105,333.007L368.828,333.153L369.551,333.811L370.273,333.496L370.996,333.099L371.719,334.17L372.441,333.874L373.164,334.415L373.887,333.764L374.609,334.771L375.332,335.019L376.055,334.702L376.777,334.601L377.5,334.744L378.223,334.853L378.945,334.553L379.668,335.37L380.391,335.451L381.113,335.39L381.836,335.299L382.559,335.884L383.281,335.303L384.004,335.433L384.727,335.803L385.449,336.433L386.172,336.2L386.895,336.265L387.617,336.613L388.34,337.096L389.063,336.348L389.785,337.061L390.508,337.162L391.23,337.13L391.953,337.152L392.676,337.337L393.398,337.426L394.121,337.08L394.844,338.418L395.566,337.719L396.289,337.962L397.012,337.972L397.734,337.782L398.457,338.205L399.18,338.301L399.902,338.871L400.625,338.76L401.348,339.302L402.07,339.379L402.793,339.38L403.516,339.322L404.238,339.568L404.961,339.31L405.684,339.661L406.406,339.569L407.129,340L407.852,340.062L408.574,340.18L409.297,340.565L410.02,340.236L410.742,340.835L411.465,340.741L412.188,341.506L412.91,341.554L413.633,341.14L414.355,341.107L415.078,341.348L415.801,341.236L416.523,341.453L417.246,342.401L417.969,342.55L418.691,342.328L419.414,341.74L420.137,342.196L420.859,342.336L421.582,343.038L422.305,343.039L423.027,342.676L423.75,343.203L424.473,342.628L425.195,343.853L425.918,344.013L426.641,343.971L427.363,343.421L428.086,343.546L428.809,343.243L429.531,344.158L430.254,343.741L430.977,344.871L431.699,344.128L432.422,343.894L433.145,344.807L433.867,344.429L434.59,344.709L435.313,344.476L436.035,344.8L436.758,344.558L437.48,344.915L438.203,345.585L438.926,345.268L439.648,345.389L440.371,345.05L441.094,346.3L441.816,345.313L442.539,346.048L443.262,345.755L443.984,345.808L444.707,345.663L445.43,346.618L446.152,346.729L446.875,346.42L447.598,346.204L448.32,346.336L449.043,346.211L449.766,346.948L450.488,346.716L451.211,346.858L451.934,346.914L452.656,347.044L453.379,347.222L454.102,347.16L454.824,347.859L455.547,348.181L456.27,347.14L456.992,347.211L457.715,347.356L458.438,347.576L459.16,347.435L459.883,348.559L460.605,348.011L461.328,348.065L462.051,348.168L462.773,348.68L463.496,348.426L464.219,348.879L464.941,348.438L465.664,348.813L466.387,348.916L467.109,349.225L467.832,348.19L468.555,348.98L469.277,350"/><path fill="none" stroke="rgb(69, 105, 238)" stroke-width="1.5" d="M100,72.22L100.723,72.195L101.445,71.98L102.168,71.764L102.891,71.663L103.613,71.875L104.336,71.595L105.059,71.694L105.781,69.981L106.504,70.744L107.227,70.456L107.949,70.159L108.672,69.805L109.395,69.328L110.117,68.792L110.84,68.335L111.563,67.929L112.285,68.255L113.008,67.338L113.73,67.161L114.453,66.342L115.176,66.536L115.898,65.599L116.621,65.336L117.344,272.641L118.066,283.741L118.789,283.92L119.512,284.313L120.234,283.789L120.957,283.905L121.68,284.39L122.402,283.619L123.125,283.824L123.848,284.194L124.57,284.357L125.293,283.777L126.016,283.479L126.738,283.713L127.461,283.688L128.184,284.181L128.906,283.672L129.629,283.704L130.352,283.273L131.074,284.131L131.797,283.653L132.52,283.623L133.242,283.355L133.965,283.284L134.688,283.493L135.41,283.491L136.133,284.008L136.855,283.984L137.578,283.941L138.301,283.92L139.023,283.864L139.746,284.009L140.469,283.439L141.191,283.412L141.914,283.779L142.637,283.384L143.359,283.251L144.082,283.191L144.805,283.236L145.527,283.216L146.25,283.256L146.973,283.489L147.695,283.784L148.418,283.178L149.141,283.688L149.863,282.979L150.586,283.63L151.309,283.227L152.031,283.219L152.754,283.309L153.477,283.462L154.199,282.928L154.922,283.13L155.645,282.959L156.367,283.358L157.09,283.07L157.813,283.321L158.535,283.07L159.258,283.533L159.98,282.942L160.703,283.18L161.426,283.276L162.148,282.852L162.871,283.237L163.594,283.413L164.316,282.888L165.039,283.074L165.762,282.766L166.484,283.079L167.207,282.688L167.93,283.043L168.652,282.626L169.375,282.5L170.098,282.928L170.82,282.725L171.543,282.685L172.266,282.955L172.988,282.538L173.711,283.231L174.434,282.772L175.156,282.75L175.879,282.552L176.602,282.768L177.324,282.616L178.047,282.412L178.77,283.129L179.492,282.374L180.215,282.219L180.938,282.597L181.66,282.569L182.383,282.06L183.105,282.359L183.828,282.268L184.551,282.188L185.273,282.235L185.996,282.27L186.719,282.17L187.441,282.413L188.164,281.777L188.887,282.145L189.609,282.219L190.332,282.637L191.055,282.322L191.777,282.719L192.5,281.624L193.223,282.072L193.945,282.688L194.668,281.988L195.391,281.563L196.113,281.755L196.836,281.658L197.559,282.151L198.281,281.598L199.004,281.565L199.727,281.872L200.449,281.721L201.172,281.491L201.895,281.821L202.617,281.514L203.34,282.046L204.063,281.541L204.785,281.568L205.508,281.98L206.23,281.49L206.953,281.618L207.676,281.59L208.398,281.434L209.121,281.969L209.844,281.368L210.566,281.465L211.289,281.503L212.012,281.733L212.734,281.376L213.457,281.27L214.18,281.217L214.902,281.643L215.625,281.663L216.348,281.246L217.07,280.714L217.793,281.49L218.516,281.483L219.238,281.293L219.961,281.292L220.684,281.385L221.406,281.599L222.129,281.612L222.852,281.812L223.574,280.987L224.297,281.108L225.02,280.969L225.742,281.415L226.465,281.024L227.188,281.382L227.91,281.593L228.633,281.267L229.355,281.157L230.078,281.056L230.801,280.553L231.523,281.511L232.246,281.205L232.969,280.952L233.691,281.264L234.414,281.152L235.137,280.662L235.859,281.232L236.582,281.564L237.305,281.847L238.027,281.807L238.75,280.94L239.473,281.011L240.195,281.054L240.918,281.065L241.641,281.22L242.363,280.414L243.086,280.743L243.809,281.071L244.531,281.138L245.254,281.18L245.977,280.437L246.699,280.965L247.422,280.988L248.145,281.126L248.867,281.169L249.59,281.049L250.313,281.016L251.035,281.226L251.758,281.011L252.48,281.43L253.203,281.024L253.926,281.426L254.648,281.133L255.371,281.447L256.094,281.12L256.816,280.939L257.539,281.023L258.262,281.276L258.984,281.259L259.707,281.224L260.43,281.053L261.152,281.047L261.875,281.057L262.598,281.344L263.32,281.367L264.043,281.973L264.766,281.44L265.488,281.056L266.211,281.579L266.934,281.529L267.656,281.589L268.379,281.258L269.102,281.398L269.824,281.818L270.547,280.82L271.27,281.617L271.992,281.512L272.715,281.261L273.438,281.521L274.16,281.363L274.883,281.853L275.605,281.247L276.328,281.284L277.051,282.19L277.773,281.36L278.496,281.607L279.219,281.638L279.941,282.094L280.664,281.9L281.387,281.492L282.109,281.899L282.832,281.92L283.555,281.255L284.277,281.515L285,281.656L285.723,282.14L286.445,281.838L287.168,281.702L287.891,282.114L288.613,282.016L289.336,282.263L290.059,282.277L290.781,282.1L291.504,281.934L292.227,282.165L292.949,282.593L293.672,282.235L294.395,282.134L295.117,282.57L295.84,282.034L296.563,282.455L297.285,282.43L298.008,282.465L298.73,282.654L299.453,282.685L300.176,282.355L300.898,282.701L301.621,282.871L302.344,282.711L303.066,282.867L303.789,282.675L304.512,283.087L305.234,283.365L305.957,282.831L306.68,283.072L307.402,283.115L308.125,283.183L308.848,283.587L309.57,283.644L310.293,283.706L311.016,283.189L311.738,283.916L312.461,282.871L313.184,284.026L313.906,283.424L314.629,283.631L315.352,283.636L316.074,284.272L316.797,284.329L317.52,282.957L318.242,283.967L318.965,284.001L319.688,284.093L320.41,284.131L321.133,284.205L321.855,284.087L322.578,284.228L323.301,284.523L324.023,284.702L324.746,284.993L325.469,284.579L326.191,284.483L326.914,284.903L327.637,284.471L328.359,285.138L329.082,284.739L329.805,284.984L330.527,284.791L331.25,284.855L331.973,285.076L332.695,285.36L333.418,285.386L334.141,285.502L334.863,285.898L335.586,285.684L336.309,285.755L337.031,284.988L337.754,286.222L338.477,285.878L339.199,286.198L339.922,285.384L340.645,285.833L341.367,286.691L342.09,286.374L342.813,286.538L343.535,286.844L344.258,286.994L344.98,286.818L345.703,287.2L346.426,287.484L347.148,287.144L347.871,287.355L348.594,287.806L349.316,287.147L350.039,287.777L350.762,287.304L351.484,287.06L352.207,287.039L352.93,287.629L353.652,287.685L354.375,287.636L355.098,287.731L355.82,288.835L356.543,288.1L357.266,288.291L357.988,288.287L358.711,288.073L359.434,288.435L360.156,288.744L360.879,288.569L361.602,289.033L362.324,288.554L363.047,288.772L363.77,289.628L364.492,289.945L365.215,290.033L365.938,290.233L366.66,289.803L367.383,290.209L368.105,289.897L368.828,289.494L369.551,290.508L370.273,290.574L370.996,290.252L371.719,291.148L372.441,290.459L373.164,290.317L373.887,290.659L374.609,291.07L375.332,290.962L376.055,291.303L376.777,291.837L377.5,291.921L378.223,291.549L378.945,291.756L379.668,292.322L380.391,292.145L381.113,292.847L381.836,292.248L382.559,292.246L383.281,292.909L384.004,292.467L384.727,293.043L385.449,292.96L386.172,293.345L386.895,293.238L387.617,293.349L388.34,292.928L389.063,293.966L389.785,293.176L390.508,293.639L391.23,293.678L391.953,294.215L392.676,294.547L393.398,294.32L394.121,293.868L394.844,293.986L395.566,294.48L396.289,294.214L397.012,294.332L397.734,295.06L398.457,295.838L399.18,294.689L399.902,295.786L400.625,295.804L401.348,295.687L402.07,295.102L402.793,295.381L403.516,295.95L404.238,295.564L404.961,295.785L405.684,296.359L406.406,296.734L407.129,297.35L407.852,297.268L408.574,296.171L409.297,297.254L410.02,297.293L410.742,297.178L411.465,297.715L412.188,297.202L412.91,298.127L413.633,297.772L414.355,298.115L415.078,298.185L415.801,298.222L416.523,297.565L417.246,298.309L417.969,298.848L418.691,298.72L419.414,297.993L420.137,298.714L420.859,299.182L421.582,298.943L422.305,299.403L423.027,299.183L423.75,299.266L424.473,299.756L425.195,299.031L425.918,299.282L426.641,299.741L427.363,300.301L428.086,299.996L428.809,300.972L429.531,300.973L430.254,300.436L430.977,300.546L431.699,300.888L432.422,300.736L433.145,300.418L433.867,301.769L434.59,300.691L435.313,300.456L436.035,301.116L436.758,301.129L437.48,301.385L438.203,301.442L438.926,301.015L439.648,301.623L440.371,301.714L441.094,302.395L441.816,301.013L442.539,301.926L443.262,301.256L443.984,301.658L444.707,301.848L445.43,302.255L446.152,301.953L446.875,301.766L447.598,301.782L448.32,302.613L449.043,302.002L449.766,302.784L450.488,302.46L451.211,302.899L451.934,303.122L452.656,302.548L453.379,302.933L454.102,303.312L454.824,302.576L455.547,303.232L456.27,302.999L456.992,303.505L457.715,302.908L458.438,304.012L459.16,303.957L459.883,302.542L460.605,302.93L461.328,304.177L462.051,303.729L462.773,303.855L463.496,304.041L464.219,304.212L464.941,303.631L465.664,303.938L466.387,303.376L467.109,304.307L467.832,304.079L468.555,304.549L469.277,303.594"/><path fill="none" stroke="rgb(38, 188, 225)" stroke-width="1.5" d="M100,82.572L100.723,82.204L101.445,82.325L102.168,81.926L102.891,81.552L103.613,81.569L104.336,81.457L105.059,80.961L105.781,81.242L106.504,80.682L107.227,79.804L107.949,79.968L108.672,79.42L109.395,78.833L110.117,78.281L110.84,78.063L111.563,274.139L112.285,274.545L113.008,274.042L113.73,274.627L114.453,274.218L115.176,274.468L115.898,274.855L116.621,274.532L117.344,274.022L118.066,274.429L118.789,274.361L119.512,274.116L120.234,274.17L120.957,274.532L121.68,274.223L122.402,274.301L123.125,273.545L123.848,273.859L124.57,274.425L125.293,274.254L126.016,273.722L126.738,274.271L127.461,274.459L128.184,274.263L128.906,273.733L129.629,274.17L130.352,274.577L131.074,273.816L131.797,273.45L132.52,274.259L133.242,274.395L133.965,273.779L134.688,274.466L135.41,274.527L136.133,273.722L136.855,274.675L137.578,273.783L138.301,274.468L139.023,274.141L139.746,273.364L140.469,274.542L141.191,273.421L141.914,274.073L142.637,274.054L143.359,274.044L144.082,273.837L144.805,274.409L145.527,273.305L146.25,273.513L146.973,274.127L147.695,273.932L148.418,273.615L149.141,273.569L149.863,273.462L150.586,273.889L151.309,273.557L152.031,273.554L152.754,273.515L153.477,273.82L154.199,273.532L154.922,273.433L155.645,273.868L156.367,273.957L157.09,273.942L157.813,273.919L158.535,273.901L159.258,273.547L159.98,273.285L160.703,273.38L161.426,272.704L162.148,273.52L162.871,273.596L163.594,273.718L164.316,273.729L165.039,273.407L165.762,273.601L166.484,272.993L167.207,273.758L167.93,272.897L168.652,273.389L169.375,273.429L170.098,273.128L170.82,273.547L171.543,273.102L172.266,273.314L172.988,273.638L173.711,272.456L174.434,273.009L175.156,272.672L175.879,273.366L176.602,273.24L177.324,273.303L178.047,273.171L178.77,273.385L179.492,273.357L180.215,272.79L180.938,273.388L181.66,273.364L182.383,272.474L183.105,272.731L183.828,272.727L184.551,273.027L185.273,272.985L185.996,272.427L186.719,272.946L187.441,273.03L188.164,272.141L188.887,273.277L189.609,272.724L190.332,272.895L191.055,273.106L191.777,272.382L192.5,272.923L193.223,272.298L193.945,272.603L194.668,272.199L195.391,272.789L196.113,272.697L196.836,272.161L197.559,272.721L198.281,272.653L199.004,272.566L199.727,272.458L200.449,272.567L201.172,273.111L201.895,272.795L202.617,272.966L203.34,272.061L204.063,272.563L204.785,272.791L205.508,273.03L206.23,272.294L206.953,272.339L207.676,272.14L208.398,272.046L209.121,272.573L209.844,272.857L210.566,272.673L211.289,271.629L212.012,272.504L212.734,271.935L213.457,272.442L214.18,272.444L214.902,272.207L215.625,272.374L216.348,272.125L217.07,272.199L217.793,272.215L218.516,271.891L219.238,271.874L219.961,272.78L220.684,272.466L221.406,272.224L222.129,271.966L222.852,272.205L223.574,272.478L224.297,272.315L225.02,271.986L225.742,271.878L226.465,272.499L227.188,272.005L227.91,271.575L228.633,272.182L229.355,271.927L230.078,271.975L230.801,272.314L231.523,272.071L232.246,271.562L232.969,271.965L233.691,272.074L234.414,272.481L235.137,272.053L235.859,272.449L236.582,272.058L237.305,272.315L238.027,272.451L238.75,271.915L239.473,272.441L240.195,271.97L240.918,272.454L241.641,271.75L242.363,271.769L243.086,271.979L243.809,271.979L244.531,272.259L245.254,272.201L245.977,272.312L246.699,272.378L247.422,272.278L248.145,271.939L248.867,272.073L249.59,272.31L250.313,271.673L251.035,272.525L251.758,272.195L252.48,272.05L253.203,272.194L253.926,271.708L254.648,272.41L255.371,271.885L256.094,271.873L256.816,272L257.539,272.289L258.262,271.898L258.984,272.255L259.707,272.446L260.43,271.233L261.152,272.377L261.875,272.189L262.598,272.056L263.32,272.22L264.043,272.522L264.766,272.453L265.488,272.241L266.211,272.305L266.934,271.949L267.656,272.252L268.379,272.096L269.102,272.098L269.824,272.546L270.547,272.367L271.27,272.246L271.992,272.516L272.715,272.548L273.438,272.666L274.16,272.227L274.883,272.559L275.605,272.398L276.328,272.242L277.051,272.043L277.773,272.904L278.496,272.918L279.219,272.563L279.941,272.808L280.664,272.444L281.387,272.721L282.109,272.792L282.832,272.579L283.555,272.691L284.277,273.06L285,272.803L285.723,273.237L286.445,272.906L287.168,272.486L287.891,272.539L288.613,272.335L289.336,272.575L290.059,272.779L290.781,272.805L291.504,273.485L292.227,273.528L292.949,273.556L293.672,273.667L294.395,273.421L295.117,273.477L295.84,273.013L296.563,273.083L297.285,273.062L298.008,273.819L298.73,273.133L299.453,274.102L300.176,273.964L300.898,273.276L301.621,273.507L302.344,273.675L303.066,273.877L303.789,274.532L304.512,274.599L305.234,274.381L305.957,274.292L306.68,273.606L307.402,274.101L308.125,274.235L308.848,275.006L309.57,273.865L310.293,274.552L311.016,274.628L311.738,274.911L312.461,273.962L313.184,274.647L313.906,275.157L314.629,274.614L315.352,274.327L316.074,274.764L316.797,275.444L317.52,275.091L318.242,275.441L318.965,275.482L319.688,275.424L320.41,275.28L321.133,275.465L321.855,274.979L322.578,275.678L323.301,276.415L324.023,275.113L324.746,275.654L325.469,275.94L326.191,275.96L326.914,276.079L327.637,276.532L328.359,275.524L329.082,276.448L329.805,275.739L330.527,276.498L331.25,275.831L331.973,276.715L332.695,276.263L333.418,277.128L334.141,277.017L334.863,277.356L335.586,276.04L336.309,277.178L337.031,277.71L337.754,276.946L338.477,276.384L339.199,277.587L339.922,276.94L340.645,277.158L341.367,277.853L342.09,277.756L342.813,277.805L343.535,278.353L344.258,278.873L344.98,277.912L345.703,277.998L346.426,278.586L347.148,278.161L347.871,278.843L348.594,279.406L349.316,278.502L350.039,279.437L350.762,279.434L351.484,279.467L352.207,279.678L352.93,279.069L353.652,279.758L354.375,279.629L355.098,279.551L355.82,278.518L356.543,280.099L357.266,280.377L357.988,280.287L358.711,279.829L359.434,280.504L360.156,280.427L360.879,280.215L361.602,279.9L362.324,281.078L363.047,281.462L363.77,281.127L364.492,280.288L365.215,281.295L365.938,281.444L366.66,280.888L367.383,281.9L368.105,281.217L368.828,281.957L369.551,281.55L370.273,281.892L370.996,281.984L371.719,282.384L372.441,281.968L373.164,282.965L373.887,282.439L374.609,282.518L375.332,282.05L376.055,282.715L376.777,282.559L377.5,283.023L378.223,282.599L378.945,283.341L379.668,282.784L380.391,283.545L381.113,282.652L381.836,282.98L382.559,283.797L383.281,283.606L384.004,283.529L384.727,283.771L385.449,283.495L386.172,284.1L386.895,284.154L387.617,284.576L388.34,284.183L389.063,284.008L389.785,284.111L390.508,285.159L391.23,284.325L391.953,284.72L392.676,285.267L393.398,284.461L394.121,285.099L394.844,285.221L395.566,285.673L396.289,285.736L397.012,285.98L397.734,285.906L398.457,285.822L399.18,285.454L399.902,285.995L400.625,285.861L401.348,286.165L402.07,286.208L402.793,286.293L403.516,286.504L404.238,286.806L404.961,286.581L405.684,286.179L406.406,286.96L407.129,286.961L407.852,286.747L408.574,286.933L409.297,287.148L410.02,287.899L410.742,287.763L411.465,287.241L412.188,287.131L412.91,287.366L413.633,287.558L414.355,288.233L415.078,287.419L415.801,287.49L416.523,287.972L417.246,287.918L417.969,287.84L418.691,288.184L419.414,287.865L420.137,289.294L420.859,288.445L421.582,288.884L422.305,289.915L423.027,288.084L423.75,288.627L424.473,289.184L425.195,289.416L425.918,289.167L426.641,288.711L427.363,289.614L428.086,289.128L428.809,289.387L429.531,289.331L430.254,290.069L430.977,289.403L431.699,289.257L432.422,288.798L433.145,289.64L433.867,289.128L434.59,289.646L435.313,289.314L436.035,289.778L436.758,289.411L437.48,289.744L438.203,289.603L438.926,289.956L439.648,290.414L440.371,290.092L441.094,290.186L441.816,289.487L442.539,291.221L443.262,290.59L443.984,290.299L444.707,289.53L445.43,290.363L446.152,290.578L446.875,291.447L447.598,289.505L448.32,290.363L449.043,291.069L449.766,290.555L450.488,290.662L451.211,290.133L451.934,290.158L452.656,289.64L453.379,289.973L454.102,291.126L454.824,290.027L455.547,290.933L456.27,291.065L456.992,290.318L457.715,291.477L458.438,290.257L459.16,290.8L459.883,290.781L460.605,290.301L461.328,290.792L462.051,290.696L462.773,291.056L463.496,291.804L464.219,290.399L464.941,290.285L465.664,291.861L466.387,291.832L467.109,291.052L467.832,291.536L468.555,291.947L469.277,290.295"/><path fill="none" stroke="rgb(63, 243, 147)" stroke-width="1.5" d="M100,156.316L100.723,157.19L101.445,155.818L102.168,155.779L102.891,155.758L103.613,155.15L104.336,200.146L105.059,199.787L105.781,200.73L106.504,200.15L107.227,199.968L107.949,200.936L108.672,200.374L109.395,200.373L110.117,200.91L110.84,199.781L111.563,200.416L112.285,200.202L113.008,200.227L113.73,200.385L114.453,200.334L115.176,200.097L115.898,200.519L116.621,200.08L117.344,200.413L118.066,200.128L118.789,200.272L119.512,200.391L120.234,200.505L120.957,200.223L121.68,200.018L122.402,200.399L123.125,200.537L123.848,200.482L124.57,201.093L125.293,199.979L126.016,200.394L126.738,199.96L127.461,200.417L128.184,199.811L128.906,200.245L129.629,199.575L130.352,200.273L131.074,199.993L131.797,200.003L132.52,199.695L133.242,199.963L133.965,200.025L134.688,200.669L135.41,200.143L136.133,199.924L136.855,200.268L137.578,200.216L138.301,200.097L139.023,199.91L139.746,199.823L140.469,199.844L141.191,200.527L141.914,200.104L142.637,199.77L143.359,200.052L144.082,200.321L144.805,199.968L145.527,200.366L146.25,199.803L146.973,200.674L147.695,200.038L148.418,200.129L149.141,200.152L149.863,199.647L150.586,199.773L151.309,199.833L152.031,200.259L152.754,200.225L153.477,200.562L154.199,199.732L154.922,200.209L155.645,199.571L156.367,199.836L157.09,199.366L157.813,199.816L158.535,199.575L159.258,199.989L159.98,199.63L160.703,199.484L161.426,199.305L162.148,199.616L162.871,199.318L163.594,199.921L164.316,199.691L165.039,199.534L165.762,199.197L166.484,199.304L167.207,199.456L167.93,199.147L168.652,199.526L169.375,199.447L170.098,199.416L170.82,199.405L171.543,199.275L172.266,199.727L172.988,199.558L173.711,199.827L174.434,199.685L175.156,199.353L175.879,199.659L176.602,199.051L177.324,199.446L178.047,199.609L178.77,199.263L179.492,199.336L180.215,199.447L180.938,199.364L181.66,199.749L182.383,199.437L183.105,199.265L183.828,199.391L184.551,199.071L185.273,199.055L185.996,199.755L186.719,199.145L187.441,199.864L188.164,198.926L188.887,199.352L189.609,198.914L190.332,199.605L191.055,199.181L191.777,198.822L192.5,198.999L193.223,199.216L193.945,199.225L194.668,199.183L195.391,198.833L196.113,199.001L196.836,198.674L197.559,199.342L198.281,198.753L199.004,199.131L199.727,198.87L200.449,199.275L201.172,199.076L201.895,199.223L202.617,198.906L203.34,198.636L204.063,199.24L204.785,198.847L205.508,199.405L206.23,199.182L206.953,198.913L207.676,199.482L208.398,198.704L209.121,199.094L209.844,198.845L210.566,198.742L211.289,199.356L212.012,199.167L212.734,198.845L213.457,198.955L214.18,198.73L214.902,198.862L215.625,198.701L216.348,199.16L217.07,198.868L217.793,198.654L218.516,198.911L219.238,199.357L219.961,198.909L220.684,198.67L221.406,198.059L222.129,198.991L222.852,199.068L223.574,198.786L224.297,198.741L225.02,198.787L225.742,198.655L226.465,198.794L227.188,198.801L227.91,198.815L228.633,199.024L229.355,198.767L230.078,198.814L230.801,199.371L231.523,198.109L232.246,199.021L232.969,199.443L233.691,198.825L234.414,199.146L235.137,199.474L235.859,198.685L236.582,198.47L237.305,198.991L238.027,198.727L238.75,198.929L239.473,198.789L240.195,198.733L240.918,198.749L241.641,199.189L242.363,199.03L243.086,198.804L243.809,198.765L244.531,199.539L245.254,198.89L245.977,199.26L246.699,198.961L247.422,199.524L248.145,198.511L248.867,198.672L249.59,199.203L250.313,198.928L251.035,198.754L251.758,199.075L252.48,199.027L253.203,198.973L253.926,198.89L254.648,198.767L255.371,198.987L256.094,199.044L256.816,198.804L257.539,199.038L258.262,199.571L258.984,198.727L259.707,198.876L260.43,199.413L261.152,198.493L261.875,199.173L262.598,199.176L263.32,198.552L264.043,198.691L264.766,199.201L265.488,199.034L266.211,199.03L266.934,199.353L267.656,199.131L268.379,199.34L269.102,199.437L269.824,199.45L270.547,199.971L271.27,199.543L271.992,200.239L272.715,199.609L273.438,200.066L274.16,199.52L274.883,199.364L275.605,199.943L276.328,199.877L277.051,199.386L277.773,199.307L278.496,200.047L279.219,199.127L279.941,199.967L280.664,200.099L281.387,199.622L282.109,200.235L282.832,200.212L283.555,200.58L284.277,200.618L285,200.332L285.723,200.013L286.445,199.732L287.168,200.08L287.891,200.461L288.613,199.741L289.336,199.855L290.059,200.139L290.781,200.794L291.504,200.047L292.227,200.851L292.949,200.763L293.672,200.81L294.395,200.731L295.117,200.641L295.84,200.802L296.563,201.331L297.285,201.073L298.008,200.827L298.73,200.421L299.453,200.806L300.176,201.28L300.898,201.333L301.621,200.933L302.344,201.529L303.066,201.795L303.789,201.334L304.512,201.508L305.234,201.425L305.957,201.655L306.68,201.898L307.402,201.861L308.125,201.587L308.848,201.364L309.57,201.931L310.293,202.323L311.016,202.101L311.738,202.679L312.461,202.739L313.184,202.121L313.906,202.752L314.629,202.473L315.352,202.349L316.074,202.582L316.797,202.663L317.52,202.924L318.242,202.667L318.965,202.787L319.688,203.426L320.41,203.165L321.133,202.317L321.855,202.839L322.578,203.2L323.301,203.773L324.023,203.677L324.746,204.095L325.469,203.339L326.191,204.592L326.914,204.004L327.637,203.526L328.359,203.881L329.082,204.244L329.805,204.102L330.527,204.116L331.25,204.115L331.973,203.977L332.695,204.384L333.418,204.627L334.141,204.25L334.863,204.183L335.586,203.909L336.309,204.413L337.031,205.158L337.754,204.947L338.477,204.395L339.199,205.053L339.922,205.103L340.645,205.397L341.367,205.269L342.09,205.93L342.813,205.847L343.535,206.21L344.258,205.402L344.98,205.775L345.703,206.234L346.426,206.398L347.148,206.934L347.871,205.834L348.594,205.777L349.316,206.185L350.039,206.478L350.762,206.53L351.484,206.509L352.207,206.634L352.93,206.979L353.652,206.703L354.375,206.816L355.098,206.628L355.82,207.963L356.543,206.659L357.266,207.68L357.988,207.268L358.711,207.734L359.434,207.083L360.156,207.759L360.879,208.42L361.602,208.343L362.324,208.535L363.047,208.729L363.77,208.427L364.492,209.432L365.215,208.316L365.938,208.576L366.66,208.748L367.383,208.999L368.105,208.832L368.828,209.148L369.551,208.724L370.273,209.01L370.996,208.801L371.719,209.473L372.441,208.98L373.164,209.769L373.887,210.004L374.609,209.695L375.332,209.142L376.055,210.31L376.777,209.841L377.5,209.247L378.223,209.727L378.945,210.286L379.668,209.875L380.391,209.966L381.113,209.313L381.836,210.662L382.559,210.478L383.281,209.721L384.004,210.867L384.727,211.18L385.449,210.968L386.172,211.371L386.895,211.606L387.617,210.47L388.34,211.787L389.063,211.092L389.785,210.737L390.508,211.448L391.23,210.903L391.953,211.966L392.676,212.263L393.398,212.575L394.121,212.388L394.844,212.672L395.566,212.024L396.289,211.591L397.012,212.607L397.734,212.068L398.457,212.261L399.18,212.639L399.902,212.572L400.625,212.357L401.348,212.914L402.07,212.058L402.793,212.19L403.516,213.308L404.238,212.784L404.961,212.665L405.684,213.252L406.406,213.601L407.129,211.691L407.852,212.63L408.574,212.893L409.297,213.407L410.02,213.094L410.742,213.111L411.465,212.88L412.188,212.412L412.91,213.2L413.633,213.652L414.355,212.478L415.078,212.496L415.801,213.09L416.523,213.714L417.246,213.424L417.969,214.974L418.691,214.071L419.414,214.345L420.137,212.3L420.859,213.569L421.582,213.037L422.305,213.488L423.027,213.614L423.75,213.318L424.473,215.409L425.195,214.031L425.918,213.164L426.641,214.834L427.363,213.697L428.086,213.69L428.809,213.628L429.531,213.823L430.254,214.056L430.977,214.231L431.699,214.645L432.422,213.122L433.145,214.167L433.867,213.671L434.59,213.305L435.313,214.181L436.035,213.112L436.758,213.782L437.48,215.166L438.203,214.356L438.926,214.201L439.648,213.734L440.371,213.397L441.094,213.473L441.816,215.548L442.539,213.524L443.262,213.44L443.984,213.708L444.707,213.385L445.43,213.841L446.152,214.022L446.875,215.281L447.598,213.018L448.32,213.403L449.043,212.953L449.766,214.493L450.488,212.985L451.211,213.356L451.934,213.424L452.656,213.197L453.379,212.752L454.102,213.473L454.824,213.285L455.547,212.989L456.27,213.19L456.992,214.67L457.715,212.199L458.438,212.143L459.16,213.501L459.883,212.633L460.605,213.736L461.328,212.461L462.051,212.069L462.773,212.383L463.496,212.394L464.219,212.23L464.941,212.681L465.664,212.717L466.387,212.204L467.109,212.368L467.832,212.56L468.555,211.21L469.277,210.624"/><path fill="none" stroke="rgb(149, 251, 81)" stroke-width="1.5" d="M100,170.456L100.723,185.34L101.445,185.673L102.168,185.825L102.891,186.199L103.613,186.032L104.336,185.996L105.059,186.285L105.781,186.536L106.504,186.656L107.227,186.582L107.949,186.793L108.672,186.702L109.395,186.581L110.117,187.134L110.84,186.702L111.563,186.4L112.285,186.267L113.008,186.657L113.73,186.892L114.453,186.7L115.176,186.925L115.898,187.04L116.621,186.747L117.344,186.586L118.066,186.625L118.789,187.134L119.512,186.463L120.234,186.879L120.957,186.825L121.68,186.883L122.402,186.832L123.125,186.646L123.848,187.082L124.57,186.993L125.293,186.741L126.016,186.505L126.738,186.803L127.461,187.215L128.184,186.523L128.906,187.693L129.629,186.49L130.352,186.87L131.074,186.192L131.797,186.662L132.52,187.139L133.242,186.872L133.965,186.62L134.688,187.018L135.41,186.478L136.133,186.794L136.855,186.742L137.578,186.177L138.301,186.644L139.023,187.235L139.746,186.377L140.469,187.291L141.191,186.916L141.914,186.829L142.637,187.016L143.359,186.669L144.082,186.742L144.805,186.798L145.527,186.971L146.25,186.627L146.973,186.763L147.695,186.595L148.418,186.43L149.141,186.898L149.863,186.642L150.586,186.92L151.309,186.901L152.031,187.245L152.754,186.411L153.477,187.39L154.199,186.623L154.922,186.656L155.645,186.197L156.367,186.907L157.09,186.881L157.813,186.775L158.535,187.166L159.258,186.633L159.98,187.223L160.703,187.349L161.426,186.83L162.148,186.22L162.871,186.627L163.594,187.053L164.316,186.853L165.039,186.31L165.762,186.805L166.484,186.322L167.207,186.816L167.93,187.163L168.652,186.898L169.375,186.708L170.098,187.277L170.82,186.417L171.543,186.626L172.266,186.391L172.988,186.956L173.711,186.372L174.434,186.872L175.156,187.109L175.879,186.631L176.602,186.73L177.324,186.392L178.047,186.441L178.77,187.002L179.492,187.122L180.215,186.476L180.938,185.978L181.66,186.512L182.383,187.253L183.105,186.159L183.828,186.385L184.551,186.196L185.273,186.876L185.996,185.927L186.719,187.206L187.441,186.592L188.164,186.585L188.887,186.369L189.609,187.027L190.332,186.373L191.055,186.41L191.777,186.579L192.5,186.588L193.223,186.121L193.945,186.291L194.668,186.47L195.391,186.702L196.113,186.236L196.836,186.412L197.559,186.425L198.281,186.741L199.004,186.741L199.727,186.391L200.449,186.173L201.172,186.48L201.895,186.433L202.617,186.185L203.34,186.107L204.063,186.441L204.785,186.897L205.508,186.251L206.23,186.631L206.953,186.69L207.676,186.448L208.398,186.386L209.121,186.239L209.844,186.547L210.566,186.718L211.289,186.557L212.012,186.78L212.734,186.804L213.457,186.385L214.18,185.653L214.902,187.417L215.625,187.023L216.348,186.729L217.07,186.602L217.793,186.37L218.516,187.501L219.238,186.589L219.961,186.027L220.684,185.839L221.406,186.738L222.129,185.841L222.852,186.425L223.574,186.261L224.297,187.431L225.02,186.631L225.742,186.493L226.465,186.676L227.188,186.614L227.91,186.474L228.633,186.336L229.355,186.629L230.078,186.419L230.801,186.429L231.523,186.48L232.246,186.46L232.969,186.151L233.691,186.392L234.414,186.998L235.137,186.569L235.859,186.463L236.582,186.621L237.305,186.524L238.027,186.634L238.75,186.723L239.473,186.069L240.195,186.7L240.918,186.608L241.641,186.758L242.363,186.573L243.086,186.533L243.809,186.752L244.531,186.665L245.254,186.642L245.977,186.611L246.699,186.557L247.422,186.333L248.145,186.823L248.867,186.397L249.59,186.427L250.313,186.15L251.035,186.918L251.758,186.215L252.48,186.87L253.203,187.235L253.926,187.401L254.648,187.21L255.371,186.95L256.094,186.534L256.816,187.072L257.539,187.376L258.262,187.582L258.984,187.659L259.707,186.715L260.43,187.038L261.152,187.549L261.875,186.659L262.598,186.708L263.32,186.604L264.043,187.552L264.766,186.955L265.488,187.244L266.211,187.192L266.934,186.614L267.656,187.625L268.379,187.155L269.102,187.441L269.824,187.988L270.547,187.184L271.27,186.98L271.992,188.071L272.715,187.316L273.438,187.945L274.16,187.923L274.883,187.471L275.605,188.019L276.328,187.404L277.051,187.633L277.773,188.29L278.496,187.562L279.219,188.207L279.941,187.859L280.664,188.587L281.387,188.837L282.109,187.4L282.832,187.592L283.555,187.971L284.277,187.774L285,187.506L285.723,188.191L286.445,188.347L287.168,187.873L287.891,188.101L288.613,188.342L289.336,188.557L290.059,188.597L290.781,189.309L291.504,188.688L292.227,188.152L292.949,189.027L293.672,188.872L294.395,188.852L295.117,188.837L295.84,189.035L296.563,189.142L297.285,189.014L298.008,189.149L298.73,189.315L299.453,190.141L300.176,189.453L300.898,189.37L301.621,189.128L302.344,189.266L303.066,189.348L303.789,189.425L304.512,189.443L305.234,189.383L305.957,189.297L306.68,190.028L307.402,189.461L308.125,190.81L308.848,190.154L309.57,190.194L310.293,190.242L311.016,189.866L311.738,190.534L312.461,191.166L313.184,190.383L313.906,190.001L314.629,190.735L315.352,190.984L316.074,190.806L316.797,190.866L317.52,190.847L318.242,191.421L318.965,190.886L319.688,191.49L320.41,191.571L321.133,191.118L321.855,190.925L322.578,191.735L323.301,191.092L324.023,190.996L324.746,191.448L325.469,191.985L326.191,192.13L326.914,192.506L327.637,192.049L328.359,191.845L329.082,192.355L329.805,192.203L330.527,192.173L331.25,192.43L331.973,192.415L332.695,192.984L333.418,192.615L334.141,192.671L334.863,192.941L335.586,193.155L336.309,193.141L337.031,192.825L337.754,193.279L338.477,193.829L339.199,193.389L339.922,193.592L340.645,193.752L341.367,193.803L342.09,193.512L342.813,193.97L343.535,193.912L344.258,194.082L344.98,194.436L345.703,194.757L346.426,194.779L347.148,195.187L347.871,194.936L348.594,194.438L349.316,195.783L350.039,195.129L350.762,195.268L351.484,194.972L352.207,194.673L352.93,194.624L353.652,195.666L354.375,195.583L355.098,195.001L355.82,196.072L356.543,195.635L357.266,195.713L357.988,196.239L358.711,196.393L359.434,196.213L360.156,195.835L360.879,197.154L361.602,196.506L362.324,195.835L363.047,195.676L363.77,196.919L364.492,196.312L365.215,196.412L365.938,196.722L366.66,196.885L367.383,196.945L368.105,197.187L368.828,197.353L369.551,197.12L370.273,197.204L370.996,197.447L371.719,196.768L372.441,198.171L373.164,197.261L373.887,197.565L374.609,197.679L375.332,197.412L376.055,197.486L376.777,198.673L377.5,197.43L378.223,197.645L378.945,198.814L379.668,198.21L380.391,198.152L381.113,198.624L381.836,198.481L382.559,198.296L383.281,199.364L384.004,197.979L384.727,198.935L385.449,198.59L386.172,199.261L386.895,198.63L387.617,198.657L388.34,199.606L389.063,198.59L389.785,199.239L390.508,198.737L391.23,199.936L391.953,198.819L392.676,199.018L393.398,199.601L394.121,199.82L394.844,199.412L395.566,199.586L396.289,200.204L397.012,199.173L397.734,199.046L398.457,199.471L399.18,199.599L399.902,198.733L400.625,199.513L401.348,198.907L402.07,199.099L402.793,199.562L403.516,199.043L404.238,199.712L404.961,199.146L405.684,199.895L406.406,199.817L407.129,198.86L407.852,199.77L408.574,198.944L409.297,200.135L410.02,199.16L410.742,199.644L411.465,199.327L412.188,199.824L412.91,199.442L413.633,199.507L414.355,199.562L415.078,199.89L415.801,199.643L416.523,200.132L417.246,199.441L417.969,200.078L418.691,198.962L419.414,199.646L420.137,200.064L420.859,199.746L421.582,200.048L422.305,197.653L423.027,199.048L423.75,199.041L424.473,199.864L425.195,199.989L425.918,199.951L426.641,199.341L427.363,199.533L428.086,199.426L428.809,199.106L429.531,198.315L430.254,199.785L430.977,198.424L431.699,199.386L432.422,199.822L433.145,199.426L433.867,197.771L434.59,198.305L435.313,199.12L436.035,198.174L436.758,198.976L437.48,198.744L438.203,198.899L438.926,197.5L439.648,198.742L440.371,199.045L441.094,197.842L441.816,197.98L442.539,198.387L443.262,198.442L443.984,198.022L444.707,198.868L445.43,198.465L446.152,198.021L446.875,196.748L447.598,197.798L448.32,197.448L449.043,197.631L449.766,198.13L450.488,197.385L451.211,196.402L451.934,197.285L452.656,197.257L453.379,197.1L454.102,196.396L454.824,197.161L455.547,197.449L456.27,196.5L456.992,197.122L457.715,196.449L458.438,196.865L459.16,195.868L459.883,196.461L460.605,196.525L461.328,196.433L462.051,195.778L462.773,194.841L463.496,194.489L464.219,195.861L464.941,195.549L465.664,195.77L466.387,195.077L467.109,195.144L467.832,194.983L468.555,194.662L469.277,195.028"/><path fill="none" stroke="rgb(236, 209, 46)" stroke-width="1.5" d="M100,175.838L100.723,180.208L101.445,180.428L102.168,180.734L102.891,180.965L103.613,180.55L104.336,181.086L105.059,181.367L105.781,181.406L106.504,180.954L107.227,180.847L107.949,181.643L108.672,181.708L109.395,181.501L110.117,181.739L110.84,181.781L111.563,182.005L112.285,181.579L113.008,181.705L113.73,181.21L114.453,181.801L115.176,181.411L115.898,181.489L116.621,181.558L117.344,181.636L118.066,181.64L118.789,181.798L119.512,181.603L120.234,181.966L120.957,181.08L121.68,181.653L122.402,181.715L123.125,181.731L123.848,181.464L124.57,181.716L125.293,181.518L126.016,181.855L126.738,181.94L127.461,181.408L128.184,181.627L128.906,181.669L129.629,181.93L130.352,182.073L131.074,181.607L131.797,181.756L132.52,181.691L133.242,181.912L133.965,182.544L134.688,182.653L135.41,181.597L136.133,182.066L136.855,182.063L137.578,181.873L138.301,181.936L139.023,182.272L139.746,182.083L140.469,182.379L141.191,182.749L141.914,181.765L142.637,182.351L143.359,182.688L144.082,182.014L144.805,182.34L145.527,182.452L146.25,183.027L146.973,182.159L147.695,182.011L148.418,182.255L149.141,181.839L149.863,182.342L150.586,182.171L151.309,182.456L152.031,182.085L152.754,182.803L153.477,181.674L154.199,182.021L154.922,182.259L155.645,182.725L156.367,182.257L157.09,182.728L157.813,182.514L158.535,182.218L159.258,182.718L159.98,182.473L160.703,182.367L161.426,182.376L162.148,182.211L162.871,182.504L163.594,182.748L164.316,182.013L165.039,182.328L165.762,182.137L166.484,182.8L167.207,182.176L167.93,183.082L168.652,182.792L169.375,182.682L170.098,182.401L170.82,182.321L171.543,182.373L172.266,182.463L172.988,182.424L173.711,183.05L174.434,183.365L175.156,182.468L175.879,182.486L176.602,182.383L177.324,182.143L178.047,182.089L178.77,182.436L179.492,182.149L180.215,182.352L180.938,182.837L181.66,182.921L182.383,182.85L183.105,182.756L183.828,182.217L184.551,182.873L185.273,182.379L185.996,182.796L186.719,183.053L187.441,182.802L188.164,182.88L188.887,182.901L189.609,183.097L190.332,183.187L191.055,182.986L191.777,182.828L192.5,183.404L193.223,183.442L193.945,182.705L194.668,183.286L195.391,183.155L196.113,183.44L196.836,183.082L197.559,183.003L198.281,183.024L199.004,183.314L199.727,183.292L200.449,183.453L201.172,182.581L201.895,183.216L202.617,183.383L203.34,182.853L204.063,183.213L204.785,183.042L205.508,182.64L206.23,182.725L206.953,183.915L207.676,183.52L208.398,183.509L209.121,183.115L209.844,183.571L210.566,183.173L211.289,183.306L212.012,183.021L212.734,182.623L213.457,182.916L214.18,183.53L214.902,183.075L215.625,182.959L216.348,183.663L217.07,182.85L217.793,183.46L218.516,183.553L219.238,182.857L219.961,183.609L220.684,183.238L221.406,183.032L222.129,183.27L222.852,183.287L223.574,183.866L224.297,182.934L225.02,183.595L225.742,183.631L226.465,183.192L227.188,183.8L227.91,183.845L228.633,183.245L229.355,183.694L230.078,183.431L230.801,183.271L231.523,183.663L232.246,184.138L232.969,183.771L233.691,183.763L234.414,184.089L235.137,184.043L235.859,183.222L236.582,183.678L237.305,183.501L238.027,183.771L238.75,184.035L239.473,183.79L240.195,183.384L240.918,183.798L241.641,183.318L242.363,183.429L243.086,183.57L243.809,183.698L244.531,184.382L245.254,184.412L245.977,184.009L246.699,183.773L247.422,183.523L248.145,183.887L248.867,183.267L249.59,183.385L250.313,184.028L251.035,183.62L251.758,184.005L252.48,184.421L253.203,184.327L253.926,184.523L254.648,183.943L255.371,184.388L256.094,183.925L256.816,184.435L257.539,183.772L258.262,184.025L258.984,184.394L259.707,183.858L260.43,184.983L261.152,184.424L261.875,184.411L262.598,184.288L263.32,184.604L264.043,183.921L264.766,184.954L265.488,184.095L266.211,184.369L266.934,184.725L267.656,184.563L268.379,184.892L269.102,184.748L269.824,184.103L270.547,184.974L271.27,184.595L271.992,185.199L272.715,184.422L273.438,184.575L274.16,184.823L274.883,185.73L275.605,185.521L276.328,184.777L277.051,185.264L277.773,184.774L278.496,185.713L279.219,185.208L279.941,185.239L280.664,185.28L281.387,185.872L282.109,185.741L282.832,186.214L283.555,186.17L284.277,185.727L285,185.617L285.723,185.63L286.445,185.258L287.168,186.207L287.891,185.368L288.613,185.577L289.336,186L290.059,185.821L290.781,185.718L291.504,186.065L292.227,185.586L292.949,186.419L293.672,186.204L294.395,185.509L295.117,187.012L295.84,186.949L296.563,185.864L297.285,186.366L298.008,187.111L298.73,186.725L299.453,186.851L300.176,186.918L300.898,186.989L301.621,187.326L302.344,187.11L303.066,187.475L303.789,186.966L304.512,187.491L305.234,187.165L305.957,187.521L306.68,186.76L307.402,187.241L308.125,187.751L308.848,187.376L309.57,187.706L310.293,187.884L311.016,187.449L311.738,188.363L312.461,189.045L313.184,188.385L313.906,188.454L314.629,188.919L315.352,188.441L316.074,188.705L316.797,188.773L317.52,189.053L318.242,189.01L318.965,188.712L319.688,188.373L320.41,189.258L321.133,188.425L321.855,188.979L322.578,189.164L323.301,189.065L324.023,188.741L324.746,189.774L325.469,189.833L326.191,190.242L326.914,188.854L327.637,190.127L328.359,190.063L329.082,190.076L329.805,189.527L330.527,190.643L331.25,189.68L331.973,191.259L332.695,190.91L333.418,191.021L334.141,190.777L334.863,190.51L335.586,190.817L336.309,190.972L337.031,190.325L337.754,191.438L338.477,191.159L339.199,191.161L339.922,190.666L340.645,191.06L341.367,191.66L342.09,191.456L342.813,191.938L343.535,191.173L344.258,192.539L344.98,191.271L345.703,192.166L346.426,191.413L347.148,191.49L347.871,191.991L348.594,192.493L349.316,192.039L350.039,191.99L350.762,191.724L351.484,192.266L352.207,192.343L352.93,192.907L353.652,192.746L354.375,193.198L355.098,193.082L355.82,192.148L356.543,193.87L357.266,193.262L357.988,193.845L358.711,193.386L359.434,192.623L360.156,194.114L360.879,193.659L361.602,193.428L362.324,194.122L363.047,193.746L363.77,193.965L364.492,193.272L365.215,194.075L365.938,193.686L366.66,193.482L367.383,193.382L368.105,195.06L368.828,194.357L369.551,194.49L370.273,193.934L370.996,194.783L371.719,195.163L372.441,194.648L373.164,194.915L373.887,195.522L374.609,195.619L375.332,194.81L376.055,194.628L376.777,195.216L377.5,194.733L378.223,195.056L378.945,195.981L379.668,194.664L380.391,195.178L381.113,195.043L381.836,195.587L382.559,195.953L383.281,195.072L384.004,196.15L384.727,194.671L385.449,195.313L386.172,195.473L386.895,195.607L387.617,196.225L388.34,195.905L389.063,195.209L389.785,196.7L390.508,195.444L391.23,195.985L391.953,195.665L392.676,195.92L393.398,195.2L394.121,196.245L394.844,195.497L395.566,195.557L396.289,196.079L397.012,195.036L397.734,196.224L398.457,194.654L399.18,196.75L399.902,195.912L400.625,195.748L401.348,195.558L402.07,195.501L402.793,195.372L403.516,195.23L404.238,196.349L404.961,195.464L405.684,195.405L406.406,195.691L407.129,195.781L407.852,195.519L408.574,195.83L409.297,195.97L410.02,194.677L410.742,195.131L411.465,195.085L412.188,196.034L412.91,195.984L413.633,195.403L414.355,194.773L415.078,194.867L415.801,195.296L416.523,194.513L417.246,195.064L417.969,195.256L418.691,196.008L419.414,194.433L420.137,194.311L420.859,194.046L421.582,195.067L422.305,195.088L423.027,193.557L423.75,194.586L424.473,195.433L425.195,195.395L425.918,194.3L426.641,194.013L427.363,194.435L428.086,195.008L428.809,193.468L429.531,193.668L430.254,193.624L430.977,193.462L431.699,194.59L432.422,194.623L433.145,192.319L433.867,194.312L434.59,193.11L435.313,193.581L436.035,192.655L436.758,193.642L437.48,193.865L438.203,192.458L438.926,192.731L439.648,192.181L440.371,192.783L441.094,192.886L441.816,192.706L442.539,193.355L443.262,192.771L443.984,192.131L444.707,191.937L445.43,191.328L446.152,192.588L446.875,191.083L447.598,191.57L448.32,190.662L449.043,191.136L449.766,191.428L450.488,190.864L451.211,191.818L451.934,190.053L452.656,190.374L453.379,190.1L454.102,191.657L454.824,191.574L455.547,189.855L456.27,190.695L456.992,189.781L457.715,189.242L458.438,189.702L459.16,190.244L459.883,189.666L460.605,188.66L461.328,189.115L462.051,189.034L462.773,189.742L463.496,189.042L464.219,189.368L464.941,188.226L465.664,186.952L466.387,188.181L467.109,188.877L467.832,188.414L468.555,189.413L469.277,187.311"/><path fill="none" stroke="rgb(255, 130, 29)" stroke-width="1.5" d="M100,175.74L100.723,179.877L101.445,179.423L102.168,180.7L102.891,179.681L103.613,179.793L104.336,180.859L105.059,180.161L105.781,180.497L106.504,180.607L107.227,180.594L107.949,180.689L108.672,180.868L109.395,180.63L110.117,180.824L110.84,181.669L111.563,180.98L112.285,181.286L113.008,181.098L113.73,180.826L114.453,180.983L115.176,181.78L115.898,180.694L116.621,180.704L117.344,181.621L118.066,180.818L118.789,181.592L119.512,180.958L120.234,181.527L120.957,181.312L121.68,182.176L122.402,180.825L123.125,180.568L123.848,181.393L124.57,181.301L125.293,180.974L126.016,181.575L126.738,181.366L127.461,181.838L128.184,181.672L128.906,181.906L129.629,181.493L130.352,181.371L131.074,182L131.797,180.744L132.52,181.373L133.242,181.5L133.965,181.914L134.688,181.326L135.41,181.27L136.133,181.766L136.855,181.724L137.578,182.242L138.301,181.765L139.023,182.439L139.746,182.034L140.469,181.168L141.191,182.817L141.914,181.637L142.637,182.005L143.359,181.939L144.082,182.296L144.805,182.05L145.527,181.846L146.25,181.697L146.973,181.661L147.695,181.673L148.418,181.982L149.141,181.745L149.863,182.398L150.586,182.348L151.309,181.986L152.031,182.444L152.754,182.931L153.477,182.596L154.199,182.294L154.922,182.843L155.645,182.92L156.367,182.535L157.09,182.05L157.813,182.618L158.535,182.383L159.258,182.549L159.98,183.071L160.703,182.765L161.426,182.252L162.148,182.86L162.871,183.579L163.594,183.194L164.316,183.258L165.039,183.041L165.762,182.92L166.484,182.593L167.207,183.172L167.93,183.702L168.652,182.993L169.375,183.395L170.098,183.093L170.82,183.199L171.543,183.411L172.266,183.354L172.988,183.19L173.711,183.296L174.434,183.463L175.156,184.031L175.879,183.797L176.602,183.411L177.324,183.489L178.047,183.181L178.77,183.569L179.492,183.852L180.215,184.014L180.938,183.378L181.66,183.881L182.383,183.871L183.105,183.823L183.828,183.977L184.551,183.759L185.273,183.937L185.996,184.546L186.719,184.599L187.441,183.881L188.164,184.317L188.887,184.16L189.609,184.429L190.332,184.261L191.055,184.375L191.777,183.422L192.5,184.265L193.223,184.229L193.945,184.096L194.668,184.624L195.391,183.523L196.113,185.067L196.836,183.973L197.559,184.95L198.281,184.076L199.004,184.632L199.727,184.733L200.449,184.763L201.172,184.311L201.895,184.995L202.617,184.029L203.34,185.283L204.063,184.951L204.785,184.891L205.508,185.452L206.23,184.946L206.953,184.944L207.676,185.041L208.398,185.222L209.121,185.965L209.844,185.308L210.566,185.686L211.289,185.686L212.012,185.5L212.734,184.49L213.457,185.328L214.18,185.747L214.902,185.095L215.625,186.548L216.348,185.69L217.07,185.495L217.793,185.895L218.516,185.912L219.238,185.735L219.961,185.466L220.684,186.345L221.406,185.803L222.129,186.128L222.852,185.279L223.574,185.53L224.297,185.778L225.02,185.132L225.742,186.374L226.465,185.966L227.188,186.067L227.91,186.326L228.633,185.875L229.355,185.704L230.078,185.881L230.801,185.818L231.523,185.734L232.246,186.856L232.969,186.077L233.691,185.872L234.414,186.525L235.137,186.987L235.859,186.298L236.582,186.199L237.305,186.566L238.027,186.577L238.75,186.854L239.473,187.406L240.195,186.588L240.918,187.102L241.641,187.142L242.363,185.875L243.086,187.299L243.809,186.267L244.531,187.649L245.254,187.114L245.977,186.446L246.699,186.919L247.422,187.466L248.145,187.373L248.867,187.233L249.59,187.747L250.313,186.574L251.035,187.617L251.758,187.336L252.48,186.863L253.203,187.438L253.926,186.673L254.648,187.325L255.371,186.931L256.094,186.857L256.816,187.351L257.539,187.861L258.262,188.034L258.984,187.274L259.707,187.938L260.43,187.342L261.152,187.603L261.875,187.22L262.598,188.374L263.32,187.496L264.043,187.792L264.766,188.063L265.488,188.493L266.211,188.225L266.934,187.79L267.656,188.286L268.379,187.622L269.102,188.44L269.824,188.154L270.547,188.399L271.27,187.535L271.992,188.439L272.715,188.637L273.438,187.5L274.16,189.031L274.883,187.871L275.605,187.955L276.328,188.259L277.051,188.616L277.773,188.678L278.496,189.213L279.219,189.205L279.941,188.635L280.664,189.309L281.387,189.143L282.109,188.868L282.832,188.894L283.555,188.936L284.277,189.918L285,189.794L285.723,189.013L286.445,189.239L287.168,190.39L287.891,189.479L288.613,189.366L289.336,189.726L290.059,189.65L290.781,189.362L291.504,189.46L292.227,189.588L292.949,189.78L293.672,190.147L294.395,189.91L295.117,190.305L295.84,189.801L296.563,191.132L297.285,189.858L298.008,191.068L298.73,190.326L299.453,189.779L300.176,191.067L300.898,189.453L301.621,190.051L302.344,190.622L303.066,190.607L303.789,190.259L304.512,191.314L305.234,190.806L305.957,190.379L306.68,191.261L307.402,191.584L308.125,191.668L308.848,191.134L309.57,190.576L310.293,191.892L311.016,191.361L311.738,192.353L312.461,191.918L313.184,190.67L313.906,191.907L314.629,191.7L315.352,191.999L316.074,192.614L316.797,192.409L317.52,191.169L318.242,192.191L318.965,192.745L319.688,192.963L320.41,192.02L321.133,192.936L321.855,193.226L322.578,192.59L323.301,193.412L324.023,192.414L324.746,192.601L325.469,193.365L326.191,193.625L326.914,193.139L327.637,193.152L328.359,192.682L329.082,192.922L329.805,193.555L330.527,193.351L331.25,193.404L331.973,193.311L332.695,193.316L333.418,194.123L334.141,194.673L334.863,194.475L335.586,193.762L336.309,194.977L337.031,194.235L337.754,194.457L338.477,194.291L339.199,193.61L339.922,195.131L340.645,194.654L341.367,194.842L342.09,194.847L342.813,194.928L343.535,195.714L344.258,194.594L344.98,195.176L345.703,194.105L346.426,194.791L347.148,196.306L347.871,195.999L348.594,195.94L349.316,195.106L350.039,195.475L350.762,195.9L351.484,195.827L352.207,196.01L352.93,196.549L353.652,195.977L354.375,195.901L355.098,195.809L355.82,196.154L356.543,196.418L357.266,196.154L357.988,196.39L358.711,196.524L359.434,196.578L360.156,196.634L360.879,197.004L361.602,196.593L362.324,196.62L363.047,196.803L363.77,197.004L364.492,197.243L365.215,196.788L365.938,197.771L366.66,197.807L367.383,197.354L368.105,197.701L368.828,196.683L369.551,196.384L370.273,197.291L370.996,196.739L371.719,198.127L372.441,197.241L373.164,197.289L373.887,198.043L374.609,197.029L375.332,197.742L376.055,198.217L376.777,197.315L377.5,198.006L378.223,198.473L378.945,196.698L379.668,197.735L380.391,197.381L381.113,197.826L381.836,197.191L382.559,197.814L383.281,197.725L384.004,198.331L384.727,197.978L385.449,197.31L386.172,196.894L386.895,198.59L387.617,198.631L388.34,198.584L389.063,198.002L389.785,197.841L390.508,197.815L391.23,197.731L391.953,197.285L392.676,197.487L393.398,197.606L394.121,197.611L394.844,198.321L395.566,197.865L396.289,197.784L397.012,198.326L397.734,197.831L398.457,197.265L399.18,197.775L399.902,198.025L400.625,198.546L401.348,198.396L402.07,197.721L402.793,197.125L403.516,197.456L404.238,197.414L404.961,197.562L405.684,196.612L406.406,197.79L407.129,197.093L407.852,197.755L408.574,196.499L409.297,196.702L410.02,196.152L410.742,196.137L411.465,196.689L412.188,196.273L412.91,196.704L413.633,197.187L414.355,196.801L415.078,196.903L415.801,196.626L416.523,196.628L417.246,196.087L417.969,194.999L418.691,195.615L419.414,196.595L420.137,195.757L420.859,195.875L421.582,195.69L422.305,195.679L423.027,195.803L423.75,195.993L424.473,196.105L425.195,195.832L425.918,194.931L426.641,195.429L427.363,194.443L428.086,194.89L428.809,194.962L429.531,194.975L430.254,194.742L430.977,194.139L431.699,193.87L432.422,194.952L433.145,194.317L433.867,194.002L434.59,193.553L435.313,193.757L436.035,194.063L436.758,194.05L437.48,193.633L438.203,193.245L438.926,193.102L439.648,193.549L440.371,193.137L441.094,194.171L441.816,191.704L442.539,192.007L443.262,192.347L443.984,192.086L444.707,192.733L445.43,191.371L446.152,193.565L446.875,190.774L447.598,190.385L448.32,190.506L449.043,191.497L449.766,190.763L450.488,191.594L451.211,190.967L451.934,190.667L452.656,190.258L453.379,191.013L454.102,190.189L454.824,189.849L455.547,189.602L456.27,188.596L456.992,189.54L457.715,189.93L458.438,190.075L459.16,189.1L459.883,188.846L460.605,188.956L461.328,189.406L462.051,189.124L462.773,188.401L463.496,188.019L464.219,187.92L464.941,188.271L465.664,188L466.387,187.307L467.109,187.363L467.832,187.639L468.555,187.338L469.277,187.529"/><path fill="none" stroke="rgb(203, 47, 13)" stroke-width="1.5" d="M100,176.241L100.723,179.938L101.445,179.538L102.168,179.738L102.891,179.304L103.613,179.936L104.336,180.103L105.059,180.55L105.781,180.392L106.504,180.536L107.227,180.726L107.949,181.036L108.672,181.107L109.395,181.378L110.117,181.287L110.84,181.326L111.563,180.753L112.285,181.2L113.008,180.78L113.73,181.217L114.453,181.205L115.176,180.673L115.898,181.357L116.621,180.569L117.344,181.117L118.066,181.239L118.789,180.893L119.512,180.917L120.234,181.099L120.957,182.034L121.68,181.626L122.402,181.436L123.125,181.511L123.848,180.973L124.57,180.77L125.293,181.019L126.016,181.717L126.738,180.783L127.461,181.668L128.184,181.992L128.906,182.004L129.629,182.282L130.352,181.935L131.074,181.746L131.797,181.876L132.52,182.072L133.242,181.309L133.965,181.781L134.688,181.459L135.41,182.03L136.133,182.082L136.855,181.471L137.578,181.954L138.301,181.867L139.023,181.712L139.746,181.597L140.469,181.889L141.191,181.943L141.914,182.046L142.637,182.308L143.359,182.397L144.082,182.262L144.805,182.521L145.527,182.129L146.25,182.28L146.973,182.221L147.695,182.389L148.418,182.367L149.141,182.334L149.863,182.355L150.586,182.655L151.309,182.134L152.031,182.329L152.754,182.416L153.477,182.723L154.199,183.12L154.922,183.079L155.645,182.799L156.367,182.48L157.09,182.812L157.813,183.504L158.535,182.832L159.258,182.864L159.98,183.031L160.703,182.44L161.426,183.699L162.148,183.716L162.871,182.811L163.594,183.164L164.316,183.79L165.039,183.933L165.762,183.976L166.484,183.65L167.207,184.026L167.93,183.736L168.652,184.283L169.375,183.577L170.098,183.498L170.82,183.669L171.543,183.291L172.266,183.457L172.988,183.891L173.711,183.588L174.434,184.485L175.156,184.679L175.879,183.774L176.602,184.222L177.324,184.422L178.047,184.474L178.77,183.905L179.492,185.054L180.215,184.702L180.938,185.183L181.66,184.232L182.383,184.006L183.105,184.859L183.828,185.454L184.551,184.764L185.273,184.738L185.996,184.946L186.719,184.412L187.441,185.701L188.164,184.959L188.887,184.783L189.609,185.34L190.332,185.175L191.055,185.926L191.777,185.601L192.5,185.13L193.223,185.942L193.945,185.337L194.668,185.681L195.391,185.55L196.113,185.869L196.836,186.466L197.559,186.341L198.281,186.182L199.004,186.623L199.727,186.907L200.449,186.782L201.172,186.275L201.895,186.486L202.617,186.289L203.34,186.812L204.063,186.791L204.785,187.029L205.508,187.204L206.23,187.534L206.953,187.714L207.676,186.875L208.398,187.164L209.121,187.376L209.844,187.473L210.566,187.482L211.289,187.621L212.012,187.84L212.734,187.583L213.457,187.744L214.18,188.366L214.902,187.987L215.625,188.013L216.348,187.506L217.07,187.614L217.793,188.378L218.516,188.832L219.238,189.022L219.961,188.693L220.684,188.434L221.406,188.934L222.129,188.607L222.852,188.282L223.574,188.832L224.297,188.894L225.02,190.026L225.742,188.839L226.465,188.429L227.188,188.808L227.91,189.092L228.633,188.98L229.355,189.601L230.078,190.635L230.801,189.23L231.523,190.251L232.246,189.876L232.969,191.32L233.691,191.421L234.414,189.728L235.137,189.741L235.859,190.368L236.582,190.123L237.305,190.831L238.027,190.38L238.75,190.833L239.473,191.256L240.195,190.708L240.918,191.255L241.641,191.69L242.363,190.683L243.086,191.278L243.809,191.535L244.531,191.368L245.254,190.825L245.977,191.643L246.699,191.907L247.422,191.539L248.145,191.709L248.867,192.754L249.59,192.398L250.313,191.969L251.035,192.902L251.758,192.955L252.48,192.797L253.203,192.714L253.926,191.77L254.648,192.483L255.371,194.251L256.094,192.689L256.816,192.794L257.539,193.439L258.262,193.308L258.984,193.628L259.707,194.157L260.43,193.502L261.152,192.896L261.875,193.481L262.598,194.256L263.32,194.216L264.043,194.001L264.766,194.164L265.488,193.595L266.211,194.539L266.934,194.03L267.656,194.744L268.379,194.687L269.102,194.949L269.824,195L270.547,195.112L271.27,195.936L271.992,196.128L272.715,195.637L273.438,196.557L274.16,196.28L274.883,195.629L275.605,196.562L276.328,196.585L277.051,195.877L277.773,196.925L278.496,196.141L279.219,196.59L279.941,197.198L280.664,196.882L281.387,196.815L282.109,197.502L282.832,197.465L283.555,197.16L284.277,197.797L285,197.885L285.723,197.628L286.445,197.863L287.168,197.669L287.891,198.566L288.613,198.333L289.336,198.771L290.059,199.029L290.781,199.128L291.504,198.911L292.227,199.288L292.949,200.013L293.672,199.279L294.395,199.446L295.117,199.638L295.84,200.927L296.563,200.497L297.285,199.263L298.008,199.674L298.73,199.96L299.453,200.514L300.176,200.997L300.898,202.077L301.621,200.683L302.344,201.89L303.066,200.937L303.789,200.441L304.512,202.06L305.234,201.696L305.957,201.593L306.68,202.237L307.402,202.439L308.125,202.086L308.848,203.172L309.57,202.325L310.293,202.427L311.016,202.941L311.738,202.651L312.461,202.73L313.184,203.359L313.906,203.987L314.629,202.753L315.352,203.355L316.074,204.259L316.797,203.714L317.52,203.642L318.242,203.827L318.965,204.363L319.688,205.076L320.41,203.881L321.133,205.419L321.855,205.434L322.578,205.445L323.301,205.588L324.023,205.631L324.746,206.363L325.469,206.866L326.191,205.713L326.914,206.607L327.637,206.052L328.359,205.931L329.082,206.095L329.805,205.827L330.527,207.814L331.25,206.963L331.973,206.917L332.695,206.193L333.418,206.606L334.141,206.248L334.863,207.304L335.586,207.267L336.309,207.665L337.031,208.035L337.754,207.801L338.477,208.826L339.199,209.033L339.922,209.193L340.645,209.345L341.367,207.606L342.09,208.272L342.813,208.831L343.535,209.878L344.258,209.984L344.98,209.153L345.703,210.263L346.426,209.705L347.148,210.092L347.871,208.333L348.594,209.392L349.316,210.686L350.039,211.274L350.762,210.47L351.484,211.406L352.207,210.753L352.93,210.381L353.652,210.79L354.375,209.532L355.098,210.956L355.82,212.351L356.543,210.885L357.266,212.388L357.988,209.725L358.711,210.452L359.434,211.729L360.156,211.786L360.879,210.978L361.602,210.808L362.324,211.939L363.047,212.33L363.77,212.251L364.492,210.58L365.215,212.161L365.938,212.095L366.66,213.557L367.383,212.633L368.105,212.898L368.828,213.024L369.551,212.891L370.273,211.761L370.996,213.204L371.719,212.4L372.441,213.48L373.164,214.122L373.887,213.334L374.609,213.314L375.332,213.776L376.055,212.197L376.777,212.46L377.5,213.267L378.223,213.31L378.945,212.491L379.668,212.453L380.391,213.346L381.113,213.26L381.836,212.937L382.559,214.213L383.281,215.154L384.004,213.537L384.727,214.188L385.449,213.562L386.172,213.953L386.895,213.596L387.617,214.249L388.34,213.907L389.063,213.552L389.785,214.244L390.508,213.893L391.23,213.128L391.953,214.84L392.676,213.161L393.398,213.271L394.121,211.733L394.844,213.757L395.566,213.623L396.289,212.749L397.012,213.286L397.734,212.918L398.457,214.38L399.18,212.953L399.902,213.709L400.625,213.631L401.348,211.911L402.07,212.596L402.793,212.666L403.516,213.272L404.238,213.288L404.961,212.386L405.684,214.574L406.406,212.542L407.129,212.098L407.852,213.068L408.574,210.104L409.297,211.813L410.02,212.563L410.742,211.858L411.465,212.622L412.188,210.651L412.91,211.763L413.633,212.193L414.355,211.221L415.078,211.747L415.801,211.023L416.523,211.311L417.246,211L417.969,213.474L418.691,210.284L419.414,210.351L420.137,210.698L420.859,211.075L421.582,211.571L422.305,210.189L423.027,210.884L423.75,210.248L424.473,210.919L425.195,211.263L425.918,209.36L426.641,208.853L427.363,209.339L428.086,209.106L428.809,209.306L429.531,209.484L430.254,208.475L430.977,209.683L431.699,208.229L432.422,208.59L433.145,208.005L433.867,208.394L434.59,207.399L435.313,206.335L436.035,207.66L436.758,207.505L437.48,207.422L438.203,207.178L438.926,207.641L439.648,208.8L440.371,204.481L441.094,206.516L441.816,205.981L442.539,206.008L443.262,206.921L443.984,205.949L444.707,205.267L445.43,206.319L446.152,204.611L446.875,204.283L447.598,205.462L448.32,202.984L449.043,202.398L449.766,203.444L450.488,204.069L451.211,202.178L451.934,203.904L452.656,203.841L453.379,202.58L454.102,202.934L454.824,202.203L455.547,202.564L456.27,201.684L456.992,202.158L457.715,201.592L458.438,200.736L459.16,201.013L459.883,200.202L460.605,199.697L461.328,200.227L462.051,200.042L462.773,200.288L463.496,198.776L464.219,199.553L464.941,198.672L465.664,199.382L466.387,199.801L467.109,198.585L467.832,198.94L468.555,197.74L469.277,198.053"/><g transform="translate(0,190) scale(1.7) rotate(-90)"><text>Drift</text></g><g transform="translate(315,395) scale(1.8)"><text></text></g><g transform="translate(0,350)" fill="none" font-size="10" font-family="sans-serif" text-anchor="middle"><path class="domain" stroke="currentColor" d="M100,6V0H470V6"/><g class="tick" opacity="1" transform="translate(136.66666666666666,0)"><line stroke="currentColor" y2="6"/><text fill="currentColor" y="9" dy="0.71em" font-size="20px"> </text></g><g class="tick" opacity="1" transform="translate(173.7037037037037,0)"><line stroke="currentColor" y2="6"/><text fill="currentColor" y="9" dy="0.71em" font-size="20px">200</text></g><g class="tick" opacity="1" transform="translate(210.74074074074076,0)"><line stroke="currentColor" y2="6"/><text fill="currentColor" y="9" dy="0.71em" font-size="20px"> </text></g><g class="tick" opacity="1" transform="translate(247.77777777777777,0)"><line stroke="currentColor" y2="6"/><text fill="currentColor" y="9" dy="0.71em" font-size="20px">400</text></g><g class="tick" opacity="1" transform="translate(284.81481481481484,0)"><line stroke="currentColor" y2="6"/><text fill="currentColor" y="9" dy="0.71em" font-size="20px"> </text></g><g class="tick" opacity="1" transform="translate(321.85185185185185,0)"><line stroke="currentColor" y2="6"/><text fill="currentColor" y="9" dy="0.71em" font-size="20px">600</text></g><g class="tick" opacity="1" transform="translate(358.8888888888889,0)"><line stroke="currentColor" y2="6"/><text fill="currentColor" y="9" dy="0.71em" font-size="20px"> </text></g><g class="tick" opacity="1" transform="translate(395.9259259259259,0)"><line stroke="currentColor" y2="6"/><text fill="currentColor" y="9" dy="0.71em" font-size="20px">800</text></g><g class="tick" opacity="1" transform="translate(432.96296296296293,0)"><line stroke="currentColor" y2="6"/><text fill="currentColor" y="9" dy="0.71em" font-size="20px"> </text></g><g class="tick" opacity="1" transform="translate(470,0)"><line stroke="currentColor" y2="6"/><text fill="currentColor" y="9" dy="0.71em" font-size="20px">1000</text></g></g><g transform="translate(100,0)" fill="none" font-size="10" font-family="sans-serif" text-anchor="end"><path class="domain" stroke="currentColor" d="M-6,350H0V20H-6"/><g class="tick" opacity="1" transform="translate(0,334.0883713409082)"><line stroke="currentColor" x2="-6"/><text fill="currentColor" x="-9" dy="0.32em" font-size="20px">0.022</text></g><g class="tick" opacity="1" transform="translate(0,301.9069513862863)"><line stroke="currentColor" x2="-6"/><text fill="currentColor" x="-9" dy="0.32em" font-size="20px">0.021</text></g><g class="tick" opacity="1" transform="translate(0,269.72553143166436)"><line stroke="currentColor" x2="-6"/><text fill="currentColor" x="-9" dy="0.32em" font-size="20px">0.020</text></g><g class="tick" opacity="1" transform="translate(0,237.54411147704238)"><line stroke="currentColor" x2="-6"/><text fill="currentColor" x="-9" dy="0.32em" font-size="20px">0.019</text></g><g class="tick" opacity="1" transform="translate(0,205.3626915224204)"><line stroke="currentColor" x2="-6"/><text fill="currentColor" x="-9" dy="0.32em" font-size="20px">0.018</text></g><g class="tick" opacity="1" transform="translate(0,173.18127156779852)"><line stroke="currentColor" x2="-6"/><text fill="currentColor" x="-9" dy="0.32em" font-size="20px">0.017</text></g><g class="tick" opacity="1" transform="translate(0,140.99985161317653)"><line stroke="currentColor" x2="-6"/><text fill="currentColor" x="-9" dy="0.32em" font-size="20px">0.016</text></g><g class="tick" opacity="1" transform="translate(0,108.81843165855456)"><line stroke="currentColor" x2="-6"/><text fill="currentColor" x="-9" dy="0.32em" font-size="20px">0.015</text></g><g class="tick" opacity="1" transform="translate(0,76.63701170393264)"><line stroke="currentColor" x2="-6"/><text fill="currentColor" x="-9" dy="0.32em" font-size="20px">0.014</text></g><g class="tick" opacity="1" transform="translate(0,44.455591749310656)"><line stroke="currentColor" x2="-6"/><text fill="currentColor" x="-9" dy="0.32em" font-size="20px">0.013</text></g></g><circle cx="155" cy="50" r="8" style="fill: rgb(35, 23, 27);"/><circle cx="155" cy="75" r="8" style="fill: rgb(69, 105, 238);"/><circle cx="155" cy="100" r="8" style="fill: rgb(38, 188, 225);"/><circle cx="155" cy="125" r="8" style="fill: rgb(63, 243, 147);"/><circle cx="275" cy="50" r="8" style="fill: rgb(149, 251, 81);"/><circle cx="275" cy="75" r="8" style="fill: rgb(236, 209, 46);"/><circle cx="275" cy="100" r="8" style="fill: rgb(255, 130, 29);"/><circle cx="275" cy="125" r="8" style="fill: rgb(203, 47, 13);"/><text x="170" y="50" text-anchor="left" font-size="22" alignment-baseline="middle" style="fill: rgb(35, 23, 27);"> = 0</text><text x="170" y="75" text-anchor="left" font-size="22" alignment-baseline="middle" style="fill: rgb(69, 105, 238);"> = 0.22</text><text x="170" y="100" text-anchor="left" font-size="22" alignment-baseline="middle" style="fill: rgb(38, 188, 225);"> = 0.45</text><text x="170" y="125" text-anchor="left" font-size="22" alignment-baseline="middle" style="fill: rgb(63, 243, 147);"> = 0.67</text><text x="295" y="50" text-anchor="left" font-size="22" alignment-baseline="middle" style="fill: rgb(149, 251, 81);"> = 0.9</text><text x="295" y="75" text-anchor="left" font-size="22" alignment-baseline="middle" style="fill: rgb(236, 209, 46);"> = 1.12</text><text x="295" y="100" text-anchor="left" font-size="22" alignment-baseline="middle" style="fill: rgb(255, 130, 29);"> = 1.35</text><text x="295" y="125" text-anchor="left" font-size="22" alignment-baseline="middle" style="fill: rgb(203, 47, 13);"> = 1.57</text></svg>