<svg xmlns="http://www.w3.org/2000/svg" class="bg-white" width="500" height="400" viewBox="-35.199999999999996 -24.19999999999999 550 440.00000000000006"><path fill="none" stroke="rgb(35, 23, 27)" stroke-width="1.5" d="M100,41.294L100.723,40.319L101.445,39.46L102.168,38.69L102.891,37.969L103.613,37.268L104.336,36.577L105.059,35.989L105.781,35.361L106.504,34.794L107.227,34.223L107.949,33.688L108.672,33.197L109.395,32.696L110.117,32.216L110.84,31.693L111.563,31.204L112.285,30.679L113.008,30.174L113.73,29.683L114.453,29.153L115.176,28.647L115.898,28.131L116.621,27.564L117.344,27.004L118.066,26.475L118.789,25.826L119.512,25.172L120.234,24.516L120.957,23.756L121.68,22.91L122.402,22.724L123.125,23.694L123.848,24.579L124.57,25.308L125.293,26.053L126.016,26.755L126.738,27.406L127.461,28.016L128.184,28.643L128.906,29.224L129.629,29.757L130.352,30.229L131.074,30.774L131.797,31.256L132.52,31.722L133.242,32.18L133.965,32.583L134.688,33.019L135.41,33.427L136.133,33.858L136.855,34.225L137.578,34.674L138.301,35.049L139.023,35.383L139.746,35.698L140.469,36.088L141.191,36.442L141.914,36.811L142.637,37.105L143.359,37.39L144.082,37.762L144.805,38.036L145.527,38.368L146.25,38.706L146.973,38.987L147.695,39.32L148.418,39.569L149.141,39.887L149.863,40.21L150.586,40.51L151.309,40.747L152.031,41.012L152.754,41.31L153.477,41.559L154.199,41.894L154.922,42.117L155.645,42.392L156.367,42.679L157.09,42.96L157.813,43.198L158.535,43.487L159.258,43.704L159.98,44.045L160.703,44.342L161.426,44.564L162.148,44.807L162.871,45.118L163.594,45.366L164.316,45.524L165.039,45.861L165.762,46.192L166.484,46.339L167.207,46.651L167.93,46.943L168.652,47.2L169.375,47.448L170.098,47.692L170.82,47.886L171.543,48.166L172.266,48.503L172.988,48.658L173.711,48.93L174.434,49.239L175.156,49.506L175.879,49.718L176.602,50.005L177.324,50.206L178.047,50.466L178.77,50.722L179.492,50.986L180.215,51.223L180.938,51.469L181.66,51.79L182.383,52.05L183.105,52.33L183.828,52.534L184.551,52.779L185.273,53.038L185.996,53.286L186.719,53.583L187.441,53.844L188.164,54.092L188.887,54.385L189.609,54.644L190.332,54.917L191.055,55.195L191.777,55.42L192.5,55.729L193.223,55.975L193.945,56.229L194.668,56.503L195.391,56.751L196.113,57.038L196.836,57.278L197.559,57.542L198.281,57.803L199.004,58.131L199.727,58.367L200.449,58.681L201.172,58.933L201.895,59.195L202.617,59.487L203.34,59.77L204.063,59.994L204.785,60.281L205.508,60.587L206.23,60.911L206.953,61.12L207.676,61.388L208.398,61.633L209.121,61.945L209.844,62.246L210.566,62.471L211.289,62.786L212.012,63.049L212.734,63.362L213.457,63.644L214.18,63.957L214.902,64.248L215.625,64.488L216.348,64.795L217.07,65.089L217.793,65.32L218.516,65.624L219.238,65.981L219.961,66.206L220.684,66.47L221.406,66.804L222.129,67.166L222.852,67.487L223.574,67.67L224.297,67.934L225.02,68.245L225.742,68.676L226.465,68.94L227.188,69.198L227.91,69.499L228.633,69.803L229.355,70.143L230.078,70.375L230.801,70.766L231.523,71.037L232.246,71.339L232.969,71.611L233.691,71.981L234.414,72.271L235.137,72.554L235.859,72.909L236.582,73.204L237.305,73.503L238.027,73.843L238.75,74.18L239.473,74.459L240.195,74.798L240.918,75.061L241.641,75.418L242.363,75.701L243.086,76.173L243.809,76.445L244.531,76.717L245.254,77.04L245.977,77.419L246.699,77.783L247.422,78.023L248.145,78.365L248.867,78.757L249.59,79.109L250.313,79.45L251.035,79.717L251.758,80.047L252.48,80.418L253.203,80.761L253.926,81.133L254.648,81.477L255.371,81.761L256.094,82.114L256.816,82.541L257.539,82.788L258.262,83.23L258.984,83.573L259.707,83.824L260.43,84.296L261.152,84.634L261.875,84.88L262.598,85.293L263.32,85.669L264.043,86.099L264.766,86.446L265.488,86.728L266.211,87.041L266.934,87.504L267.656,87.868L268.379,88.229L269.102,88.688L269.824,88.995L270.547,89.366L271.27,89.803L271.992,90.103L272.715,90.564L273.438,90.85L274.16,91.353L274.883,91.708L275.605,92.142L276.328,92.495L277.051,92.957L277.773,93.257L278.496,93.727L279.219,94.075L279.941,94.538L280.664,94.947L281.387,95.264L282.109,95.685L282.832,96.13L283.555,96.55L284.277,96.998L285,97.363L285.723,97.794L286.445,98.264L287.168,98.668L287.891,99.195L288.613,99.525L289.336,99.995L290.059,100.406L290.781,100.809L291.504,101.353L292.227,101.814L292.949,102.214L293.672,102.579L294.395,103.062L295.117,103.589L295.84,103.966L296.563,104.384L297.285,104.859L298.008,105.247L298.73,105.767L299.453,106.357L300.176,106.608L300.898,107.319L301.621,107.723L302.344,108.189L303.066,108.713L303.789,109.022L304.512,109.487L305.234,110.085L305.957,110.534L306.68,111.12L307.402,111.47L308.125,111.947L308.848,112.577L309.57,113.017L310.293,113.483L311.016,114.022L311.738,114.529L312.461,115.163L313.184,115.463L313.906,116.169L314.629,116.722L315.352,117.112L316.074,117.614L316.797,118.295L317.52,118.687L318.242,119.181L318.965,119.902L319.688,120.471L320.41,120.839L321.133,121.386L321.855,121.95L322.578,122.455L323.301,123.051L324.023,123.599L324.746,124.207L325.469,124.725L326.191,125.483L326.914,125.888L327.637,126.67L328.359,127.105L329.082,127.814L329.805,128.26L330.527,128.836L331.25,129.45L331.973,130.049L332.695,130.673L333.418,131.236L334.141,131.873L334.863,132.579L335.586,133.224L336.309,133.822L337.031,134.487L337.754,134.993L338.477,135.782L339.199,136.253L339.922,136.906L340.645,137.57L341.367,138.079L342.09,138.907L342.813,139.528L343.535,140.266L344.258,140.928L344.98,141.571L345.703,142.205L346.426,142.867L347.148,143.617L347.871,144.281L348.594,144.932L349.316,145.781L350.039,146.454L350.762,147.142L351.484,147.865L352.207,148.58L352.93,149.371L353.652,150.057L354.375,150.877L355.098,151.57L355.82,152.31L356.543,152.918L357.266,153.887L357.988,154.617L358.711,155.282L359.434,156.165L360.156,156.872L360.879,157.719L361.602,158.454L362.324,159.305L363.047,160.197L363.77,160.995L364.492,161.901L365.215,162.676L365.938,163.479L366.66,164.359L367.383,165.267L368.105,165.981L368.828,166.859L369.551,167.657L370.273,168.773L370.996,169.417L371.719,170.512L372.441,171.446L373.164,172.419L373.887,173.283L374.609,174.088L375.332,175.233L376.055,176.21L376.777,177.125L377.5,178.145L378.223,179.313L378.945,180.137L379.668,181.112L380.391,182.048L381.113,183.259L381.836,184.123L382.559,185.281L383.281,186.382L384.004,187.239L384.727,188.317L385.449,189.388L386.172,190.575L386.895,191.987L387.617,192.8L388.34,193.954L389.063,195.307L389.785,196.45L390.508,197.195L391.23,198.558L391.953,199.779L392.676,200.821L393.398,202.223L394.121,203.414L394.844,204.59L395.566,205.783L396.289,207.107L397.012,208.41L397.734,209.571L398.457,210.87L399.18,212.193L399.902,213.201L400.625,214.494L401.348,215.992L402.07,217.373L402.793,218.638L403.516,219.92L404.238,221.14L404.961,223.027L405.684,224.33L406.406,225.542L407.129,226.895L407.852,228.093L408.574,229.855L409.297,231.182L410.02,232.656L410.742,233.848L411.465,235.407L412.188,236.766L412.91,238.286L413.633,240.068L414.355,241.453L415.078,242.7L415.801,244.184L416.523,245.885L417.246,247.217L417.969,249.061L418.691,250.32L419.414,251.821L420.137,253.447L420.859,255.163L421.582,256.185L422.305,258.051L423.027,259.166L423.75,261.098L424.473,262.721L425.195,264.104L425.918,265.571L426.641,267.429L427.363,268.998L428.086,270.444L428.809,271.77L429.531,273.615L430.254,275.236L430.977,276.488L431.699,278.234L432.422,279.96L433.145,281.345L433.867,283.088L434.59,284.311L435.313,286.069L436.035,287.593L436.758,289.166L437.48,290.668L438.203,292.289L438.926,293.826L439.648,295.238L440.371,296.76L441.094,298.497L441.816,299.736L442.539,301.336L443.262,303.071L443.984,304.231L444.707,306.228L445.43,307.606L446.152,309.005L446.875,309.979L447.598,311.364L448.32,313.235L449.043,314.619L449.766,315.722L450.488,317.678L451.211,319.061L451.934,320.638L452.656,321.447L453.379,322.838L454.102,324.461L454.824,325.931L455.547,327.176L456.27,328.172L456.992,329.641L457.715,331.139L458.438,332.436L459.16,333.385L459.883,335.03L460.605,336.086L461.328,337.345L462.051,338.631L462.773,339.631L463.496,340.768L464.219,342.405L464.941,343.597L465.664,344.586L466.387,345.707L467.109,346.691L467.832,347.298L468.555,348.421L469.277,350"/><path fill="none" stroke="rgb(69, 105, 238)" stroke-width="1.5" d="M100,41.339L100.723,40.305L101.445,39.421L102.168,38.618L102.891,37.945L103.613,37.242L104.336,36.595L105.059,36.01L105.781,35.424L106.504,34.802L107.227,34.225L107.949,33.684L108.672,33.131L109.395,32.663L110.117,32.086L110.84,31.621L111.563,31.145L112.285,30.672L113.008,30.148L113.73,29.637L114.453,29.151L115.176,28.59L115.898,28.064L116.621,27.524L117.344,26.971L118.066,26.383L118.789,25.77L119.512,25.089L120.234,24.43L120.957,23.624L121.68,22.823L122.402,22.606L123.125,23.551L123.848,24.403L124.57,25.195L125.293,25.928L126.016,26.61L126.738,27.296L127.461,27.916L128.184,28.503L128.906,29.014L129.629,29.606L130.352,30.186L131.074,30.608L131.797,31.087L132.52,31.601L133.242,32.005L133.965,32.451L134.688,32.832L135.41,33.282L136.133,33.711L136.855,34.048L137.578,34.435L138.301,34.807L139.023,35.173L139.746,35.569L140.469,35.911L141.191,36.222L141.914,36.614L142.637,36.905L143.359,37.269L144.082,37.564L144.805,37.871L145.527,38.179L146.25,38.476L146.973,38.798L147.695,39.112L148.418,39.386L149.141,39.643L149.863,40.026L150.586,40.267L151.309,40.577L152.031,40.841L152.754,41.129L153.477,41.418L154.199,41.668L154.922,41.907L155.645,42.172L156.367,42.487L157.09,42.761L157.813,43.01L158.535,43.278L159.258,43.502L159.98,43.784L160.703,44.092L161.426,44.303L162.148,44.594L162.871,44.861L163.594,45.094L164.316,45.347L165.039,45.651L165.762,45.833L166.484,46.127L167.207,46.326L167.93,46.636L168.652,46.919L169.375,47.143L170.098,47.409L170.82,47.611L171.543,47.936L172.266,48.145L172.988,48.403L173.711,48.672L174.434,48.88L175.156,49.191L175.879,49.431L176.602,49.666L177.324,49.937L178.047,50.18L178.77,50.464L179.492,50.75L180.215,51.023L180.938,51.203L181.66,51.47L182.383,51.771L183.105,51.972L183.828,52.22L184.551,52.447L185.273,52.796L185.996,53.034L186.719,53.248L187.441,53.501L188.164,53.78L188.887,54.03L189.609,54.277L190.332,54.561L191.055,54.895L191.777,55.048L192.5,55.375L193.223,55.592L193.945,55.86L194.668,56.12L195.391,56.443L196.113,56.733L196.836,56.943L197.559,57.211L198.281,57.514L199.004,57.784L199.727,57.988L200.449,58.288L201.172,58.551L201.895,58.828L202.617,59.134L203.34,59.387L204.063,59.611L204.785,59.917L205.508,60.209L206.23,60.431L206.953,60.736L207.676,60.977L208.398,61.28L209.121,61.57L209.844,61.85L210.566,62.167L211.289,62.457L212.012,62.671L212.734,62.967L213.457,63.203L214.18,63.561L214.902,63.909L215.625,64.131L216.348,64.434L217.07,64.709L217.793,64.951L218.516,65.16L219.238,65.591L219.961,65.835L220.684,66.14L221.406,66.396L222.129,66.749L222.852,67.052L223.574,67.34L224.297,67.685L225.02,67.904L225.742,68.109L226.465,68.538L227.188,68.83L227.91,69.152L228.633,69.336L229.355,69.716L230.078,70.043L230.801,70.344L231.523,70.686L232.246,70.844L232.969,71.192L233.691,71.46L234.414,71.8L235.137,72.144L235.859,72.54L236.582,72.774L237.305,73.129L238.027,73.378L238.75,73.678L239.473,74.097L240.195,74.269L240.918,74.682L241.641,74.974L242.363,75.357L243.086,75.682L243.809,75.934L244.531,76.246L245.254,76.644L245.977,77.006L246.699,77.22L247.422,77.597L248.145,77.926L248.867,78.245L249.59,78.649L250.313,78.875L251.035,79.313L251.758,79.632L252.48,79.999L253.203,80.317L253.926,80.647L254.648,81.021L255.371,81.312L256.094,81.752L256.816,82.075L257.539,82.355L258.262,82.623L258.984,83.127L259.707,83.475L260.43,83.824L261.152,84.203L261.875,84.506L262.598,84.911L263.32,85.128L264.043,85.474L264.766,85.965L265.488,86.342L266.211,86.694L266.934,87.047L267.656,87.366L268.379,87.808L269.102,88.082L269.824,88.54L270.547,88.884L271.27,89.276L271.992,89.696L272.715,90.097L273.438,90.398L274.16,90.779L274.883,91.253L275.605,91.596L276.328,92.01L277.051,92.375L277.773,92.681L278.496,93.238L279.219,93.652L279.941,93.969L280.664,94.263L281.387,94.752L282.109,95.179L282.832,95.642L283.555,95.932L284.277,96.366L285,96.721L285.723,97.194L286.445,97.603L287.168,98.062L287.891,98.508L288.613,98.823L289.336,99.404L290.059,99.757L290.781,100.237L291.504,100.631L292.227,101.01L292.949,101.521L293.672,101.874L294.395,102.389L295.117,102.86L295.84,103.305L296.563,103.853L297.285,104.174L298.008,104.642L298.73,105.175L299.453,105.654L300.176,106.049L300.898,106.506L301.621,107.038L302.344,107.394L303.066,107.92L303.789,108.366L304.512,108.812L305.234,109.351L305.957,109.804L306.68,110.249L307.402,110.675L308.125,111.29L308.848,111.776L309.57,112.19L310.293,112.627L311.016,113.28L311.738,113.708L312.461,114.271L313.184,114.718L313.906,115.286L314.629,115.895L315.352,116.201L316.074,116.789L316.797,117.246L317.52,117.818L318.242,118.36L318.965,118.871L319.688,119.526L320.41,119.853L321.133,120.485L321.855,120.97L322.578,121.554L323.301,122.076L324.023,122.689L324.746,123.196L325.469,123.684L326.191,124.292L326.914,124.827L327.637,125.406L328.359,125.967L329.082,126.589L329.805,127.171L330.527,127.761L331.25,128.408L331.973,128.831L332.695,129.593L333.418,130.193L334.141,130.669L334.863,131.274L335.586,131.688L336.309,132.433L337.031,133.061L337.754,133.821L338.477,134.266L339.199,134.963L339.922,135.549L340.645,136.247L341.367,136.867L342.09,137.416L342.813,138.054L343.535,138.751L344.258,139.337L344.98,140L345.703,140.457L346.426,141.399L347.148,141.976L347.871,142.574L348.594,143.332L349.316,143.976L350.039,144.773L350.762,145.339L351.484,146.06L352.207,146.676L352.93,147.489L353.652,148.284L354.375,148.94L355.098,149.461L355.82,150.271L356.543,151.04L357.266,151.755L357.988,152.414L358.711,153.207L359.434,154.023L360.156,154.661L360.879,155.338L361.602,156.151L362.324,156.793L363.047,157.685L363.77,158.486L364.492,159.069L365.215,159.829L365.938,160.768L366.66,161.525L367.383,162.452L368.105,163.186L368.828,163.775L369.551,164.845L370.273,165.573L370.996,166.338L371.719,167.098L372.441,167.92L373.164,168.88L373.887,169.744L374.609,170.49L375.332,171.362L376.055,172.314L376.777,173.181L377.5,173.854L378.223,174.732L378.945,175.65L379.668,176.607L380.391,177.624L381.113,178.435L381.836,179.209L382.559,180.259L383.281,180.938L384.004,181.975L384.727,182.8L385.449,183.708L386.172,184.764L386.895,185.636L387.617,186.482L388.34,187.433L389.063,188.445L389.785,189.275L390.508,190.497L391.23,191.427L391.953,192.265L392.676,193.16L393.398,194.529L394.121,195.337L394.844,196.332L395.566,197.32L396.289,198.228L397.012,199.364L397.734,200.23L398.457,201.441L399.18,202.41L399.902,203.268L400.625,204.458L401.348,205.519L402.07,206.525L402.793,207.684L403.516,208.552L404.238,209.426L404.961,210.724L405.684,211.752L406.406,212.95L407.129,213.82L407.852,215.112L408.574,215.893L409.297,217.036L410.02,218.048L410.742,219.256L411.465,220.408L412.188,221.656L412.91,222.623L413.633,223.716L414.355,224.817L415.078,225.846L415.801,227.204L416.523,227.892L417.246,229.164L417.969,230.311L418.691,231.525L419.414,232.577L420.137,233.722L420.859,234.839L421.582,235.763L422.305,237L423.027,238.579L423.75,239.453L424.473,240.423L425.195,241.677L425.918,242.69L426.641,243.72L427.363,244.896L428.086,246.411L428.809,247.163L429.531,248.198L430.254,249.263L430.977,250.414L431.699,251.419L432.422,252.365L433.145,253.878L433.867,254.953L434.59,255.921L435.313,257.222L436.035,258.217L436.758,259.427L437.48,260.463L438.203,261.529L438.926,262.139L439.648,263.464L440.371,264.849L441.094,265.338L441.816,266.774L442.539,267.658L443.262,268.828L443.984,270.041L444.707,270.49L445.43,272.147L446.152,272.928L446.875,274.035L447.598,275.086L448.32,276.171L449.043,276.981L449.766,278.082L450.488,278.929L451.211,279.884L451.934,280.883L452.656,281.843L453.379,282.686L454.102,283.795L454.824,284.968L455.547,285.579L456.27,286.377L456.992,287.781L457.715,288.816L458.438,289.214L459.16,289.983L459.883,291.071L460.605,291.673L461.328,292.335L462.051,293.419L462.773,294.793L463.496,295.079L464.219,295.756L464.941,296.582L465.664,297.714L466.387,298.1L467.109,299.298L467.832,299.69L468.555,300.787L469.277,301.061"/><path fill="none" stroke="rgb(38, 188, 225)" stroke-width="1.5" d="M100,41.208L100.723,40.279L101.445,39.43L102.168,38.617L102.891,37.844L103.613,37.173L104.336,36.546L105.059,35.89L105.781,35.239L106.504,34.652L107.227,34.132L107.949,33.544L108.672,33.001L109.395,32.462L110.117,31.923L110.84,31.442L111.563,30.893L112.285,30.388L113.008,29.888L113.73,29.444L114.453,28.849L115.176,28.387L115.898,27.771L116.621,27.275L117.344,26.657L118.066,26.076L118.789,25.438L119.512,24.756L120.234,24.091L120.957,23.32L121.68,22.497L122.402,22.365L123.125,23.266L123.848,24.141L124.57,24.942L125.293,25.673L126.016,26.352L126.738,26.959L127.461,27.582L128.184,28.15L128.906,28.725L129.629,29.319L130.352,29.744L131.074,30.321L131.797,30.748L132.52,31.175L133.242,31.631L133.965,32.07L134.688,32.491L135.41,32.903L136.133,33.261L136.855,33.701L137.578,33.996L138.301,34.428L139.023,34.764L139.746,35.115L140.469,35.472L141.191,35.819L141.914,36.148L142.637,36.44L143.359,36.745L144.082,37.078L144.805,37.397L145.527,37.708L146.25,37.969L146.973,38.287L147.695,38.63L148.418,38.87L149.141,39.179L149.863,39.4L150.586,39.722L151.309,39.974L152.031,40.278L152.754,40.536L153.477,40.764L154.199,41.035L154.922,41.315L155.645,41.598L156.367,41.873L157.09,42.19L157.813,42.427L158.535,42.675L159.258,42.906L159.98,43.161L160.703,43.378L161.426,43.698L162.148,43.925L162.871,44.204L163.594,44.486L164.316,44.696L165.039,44.949L165.762,45.192L166.484,45.466L167.207,45.633L167.93,45.977L168.652,46.185L169.375,46.418L170.098,46.656L170.82,46.872L171.543,47.152L172.266,47.447L172.988,47.666L173.711,47.89L174.434,48.151L175.156,48.395L175.879,48.726L176.602,48.898L177.324,49.21L178.047,49.369L178.77,49.615L179.492,49.895L180.215,50.174L180.938,50.394L181.66,50.651L182.383,50.953L183.105,51.158L183.828,51.389L184.551,51.597L185.273,51.854L185.996,52.119L186.719,52.423L187.441,52.612L188.164,52.955L188.887,53.21L189.609,53.454L190.332,53.716L191.055,53.991L191.777,54.12L192.5,54.4L193.223,54.691L193.945,55.012L194.668,55.212L195.391,55.421L196.113,55.735L196.836,55.977L197.559,56.222L198.281,56.483L199.004,56.812L199.727,57.042L200.449,57.294L201.172,57.53L201.895,57.868L202.617,58.127L203.34,58.382L204.063,58.632L204.785,58.896L205.508,59.145L206.23,59.381L206.953,59.756L207.676,60.003L208.398,60.267L209.121,60.592L209.844,60.858L210.566,61.099L211.289,61.424L212.012,61.67L212.734,61.874L213.457,62.265L214.18,62.458L214.902,62.825L215.625,63.078L216.348,63.302L217.07,63.673L217.793,63.849L218.516,64.234L219.238,64.421L219.961,64.722L220.684,65.002L221.406,65.339L222.129,65.599L222.852,65.905L223.574,66.195L224.297,66.528L225.02,66.764L225.742,67.04L226.465,67.339L227.188,67.7L227.91,67.906L228.633,68.346L229.355,68.573L230.078,68.894L230.801,69.212L231.523,69.511L232.246,69.743L232.969,70.1L233.691,70.336L234.414,70.715L235.137,71.083L235.859,71.379L236.582,71.649L237.305,71.909L238.027,72.219L238.75,72.532L239.473,72.825L240.195,73.206L240.918,73.532L241.641,73.832L242.363,74.112L243.086,74.44L243.809,74.818L244.531,75.121L245.254,75.375L245.977,75.722L246.699,76.143L247.422,76.376L248.145,76.74L248.867,77.078L249.59,77.488L250.313,77.783L251.035,78.08L251.758,78.342L252.48,78.782L253.203,79.088L253.926,79.446L254.648,79.727L255.371,80.106L256.094,80.431L256.816,80.869L257.539,81.155L258.262,81.558L258.984,81.842L259.707,82.113L260.43,82.482L261.152,82.899L261.875,83.133L262.598,83.744L263.32,83.886L264.043,84.266L264.766,84.58L265.488,85.139L266.211,85.436L266.934,85.685L267.656,86.045L268.379,86.395L269.102,86.842L269.824,87.169L270.547,87.541L271.27,87.9L271.992,88.306L272.715,88.631L273.438,89.165L274.16,89.407L274.883,89.764L275.605,90.246L276.328,90.562L277.051,91.019L277.773,91.386L278.496,91.754L279.219,92.017L279.941,92.478L280.664,92.851L281.387,93.41L282.109,93.791L282.832,93.98L283.555,94.469L284.277,94.917L285,95.341L285.723,95.665L286.445,96.08L287.168,96.502L287.891,96.823L288.613,97.282L289.336,97.748L290.059,98.164L290.781,98.604L291.504,99.074L292.227,99.424L292.949,99.919L293.672,100.278L294.395,100.783L295.117,101.09L295.84,101.494L296.563,101.894L297.285,102.413L298.008,102.832L298.73,103.211L299.453,103.834L300.176,104.258L300.898,104.564L301.621,105.099L302.344,105.493L303.066,105.964L303.789,106.37L304.512,106.81L305.234,107.274L305.957,107.785L306.68,108.265L307.402,108.575L308.125,109.237L308.848,109.597L309.57,110.103L310.293,110.561L311.016,111.075L311.738,111.567L312.461,111.969L313.184,112.528L313.906,112.929L314.629,113.494L315.352,113.975L316.074,114.422L316.797,114.883L317.52,115.352L318.242,115.973L318.965,116.436L319.688,116.971L320.41,117.414L321.133,117.907L321.855,118.335L322.578,118.934L323.301,119.408L324.023,119.991L324.746,120.558L325.469,120.923L326.191,121.482L326.914,122.069L327.637,122.685L328.359,123.121L329.082,123.75L329.805,124.188L330.527,124.841L331.25,125.288L331.973,125.75L332.695,126.38L333.418,126.888L334.141,127.381L334.863,127.97L335.586,128.675L336.309,129.179L337.031,129.869L337.754,130.366L338.477,130.915L339.199,131.446L339.922,132.094L340.645,132.544L341.367,133.252L342.09,133.783L342.813,134.322L343.535,135.04L344.258,135.515L344.98,136.1L345.703,136.64L346.426,137.31L347.148,138.045L347.871,138.538L348.594,139.181L349.316,139.794L350.039,140.441L350.762,141.095L351.484,141.702L352.207,142.329L352.93,143.017L353.652,143.568L354.375,144.103L355.098,144.743L355.82,145.533L356.543,146.178L357.266,146.713L357.988,147.518L358.711,148.252L359.434,148.81L360.156,149.436L360.879,150.102L361.602,150.832L362.324,151.365L363.047,152.081L363.77,152.757L364.492,153.36L365.215,154.155L365.938,154.85L366.66,155.618L367.383,156.352L368.105,156.985L368.828,157.701L369.551,158.491L370.273,159.05L370.996,159.758L371.719,160.562L372.441,161.205L373.164,161.969L373.887,162.79L374.609,163.394L375.332,164.163L376.055,164.937L376.777,165.681L377.5,166.486L378.223,167.153L378.945,167.917L379.668,168.893L380.391,169.405L381.113,170.087L381.836,170.947L382.559,171.766L383.281,172.512L384.004,173.319L384.727,174.059L385.449,174.85L386.172,175.61L386.895,176.414L387.617,177.222L388.34,178.012L389.063,178.732L389.785,179.537L390.508,180.391L391.23,181.286L391.953,181.991L392.676,182.828L393.398,183.616L394.121,184.35L394.844,185.376L395.566,185.982L396.289,186.808L397.012,187.632L397.734,188.74L398.457,189.404L399.18,190.318L399.902,190.919L400.625,191.976L401.348,192.813L402.07,193.63L402.793,194.479L403.516,195.263L404.238,196.133L404.961,196.947L405.684,197.88L406.406,198.673L407.129,199.486L407.852,200.174L408.574,201.077L409.297,202.062L410.02,202.7L410.742,203.73L411.465,204.545L412.188,205.493L412.91,206.329L413.633,207.103L414.355,208.016L415.078,208.825L415.801,209.768L416.523,210.662L417.246,211.296L417.969,212.268L418.691,213.003L419.414,213.905L420.137,214.788L420.859,215.68L421.582,216.407L422.305,217.435L423.027,217.866L423.75,218.854L424.473,219.788L425.195,220.583L425.918,221.65L426.641,222.344L427.363,223.155L428.086,223.863L428.809,224.663L429.531,225.478L430.254,226.54L430.977,227.46L431.699,228.123L432.422,229.214L433.145,229.664L433.867,230.617L434.59,231.157L435.313,232.128L436.035,232.918L436.758,233.593L437.48,234.521L438.203,235.152L438.926,236.077L439.648,236.843L440.371,237.251L441.094,238.366L441.816,239.159L442.539,239.776L443.262,240.576L443.984,241.289L444.707,241.914L445.43,242.551L446.152,243.501L446.875,244.228L447.598,244.954L448.32,245.437L449.043,246.434L449.766,247.155L450.488,247.597L451.211,248.398L451.934,249.209L452.656,249.621L453.379,250.17L454.102,250.864L454.824,251.578L455.547,252.259L456.27,252.76L456.992,253.267L457.715,253.975L458.438,254.622L459.16,255.335L459.883,255.676L460.605,256.501L461.328,256.672L462.051,257.358L462.773,257.964L463.496,258.428L464.219,259.014L464.941,259.482L465.664,259.644L466.387,260.461L467.109,261.067L467.832,261.512L468.555,262.03L469.277,261.959"/><path fill="none" stroke="rgb(63, 243, 147)" stroke-width="1.5" d="M100,41.26L100.723,40.269L101.445,39.415L102.168,38.611L102.891,37.825L103.613,37.059L104.336,36.435L105.059,35.738L105.781,35.15L106.504,34.585L107.227,33.958L107.949,33.397L108.672,32.841L109.395,32.33L110.117,31.762L110.84,31.223L111.563,30.705L112.285,30.122L113.008,29.625L113.73,29.123L114.453,28.593L115.176,28.002L115.898,27.486L116.621,26.887L117.344,26.296L118.066,25.715L118.789,25.03L119.512,24.37L120.234,23.668L120.957,22.85L121.68,22.041L122.402,21.909L123.125,22.813L123.848,23.601L124.57,24.382L125.293,25.095L126.016,25.73L126.738,26.374L127.461,27.016L128.184,27.575L128.906,28.108L129.629,28.669L130.352,29.148L131.074,29.672L131.797,30.033L132.52,30.536L133.242,30.938L133.965,31.347L134.688,31.804L135.41,32.148L136.133,32.479L136.855,32.96L137.578,33.211L138.301,33.6L139.023,33.943L139.746,34.305L140.469,34.575L141.191,34.966L141.914,35.267L142.637,35.597L143.359,35.863L144.082,36.227L144.805,36.488L145.527,36.782L146.25,37.036L146.973,37.363L147.695,37.612L148.418,37.941L149.141,38.187L149.863,38.45L150.586,38.717L151.309,38.98L152.031,39.262L152.754,39.521L153.477,39.697L154.199,39.971L154.922,40.267L155.645,40.524L156.367,40.736L157.09,41.007L157.813,41.286L158.535,41.541L159.258,41.776L159.98,42.027L160.703,42.257L161.426,42.512L162.148,42.733L162.871,42.969L163.594,43.202L164.316,43.496L165.039,43.721L165.762,43.95L166.484,44.177L167.207,44.406L167.93,44.628L168.652,44.866L169.375,45.135L170.098,45.341L170.82,45.6L171.543,45.747L172.266,46.024L172.988,46.297L173.711,46.515L174.434,46.799L175.156,47.005L175.879,47.274L176.602,47.488L177.324,47.743L178.047,47.927L178.77,48.242L179.492,48.397L180.215,48.74L180.938,48.916L181.66,49.124L182.383,49.324L183.105,49.64L183.828,49.838L184.551,50.117L185.273,50.323L185.996,50.585L186.719,50.844L187.441,51.06L188.164,51.393L188.887,51.612L189.609,51.832L190.332,51.982L191.055,52.317L191.777,52.628L192.5,52.803L193.223,53.032L193.945,53.258L194.668,53.549L195.391,53.806L196.113,54.089L196.836,54.349L197.559,54.568L198.281,54.732L199.004,55.087L199.727,55.324L200.449,55.611L201.172,55.86L201.895,56.127L202.617,56.34L203.34,56.613L204.063,56.863L204.785,57.175L205.508,57.431L206.23,57.652L206.953,57.971L207.676,58.178L208.398,58.457L209.121,58.74L209.844,58.954L210.566,59.238L211.289,59.557L212.012,59.773L212.734,60.157L213.457,60.441L214.18,60.596L214.902,60.78L215.625,61.211L216.348,61.421L217.07,61.594L217.793,62.01L218.516,62.273L219.238,62.567L219.961,62.824L220.684,63.18L221.406,63.4L222.129,63.745L222.852,63.995L223.574,64.368L224.297,64.615L225.02,64.923L225.742,65.213L226.465,65.52L227.188,65.707L227.91,66.138L228.633,66.349L229.355,66.721L230.078,66.995L230.801,67.254L231.523,67.471L232.246,67.798L232.969,68.14L233.691,68.49L234.414,68.755L235.137,69.054L235.859,69.443L236.582,69.778L237.305,69.956L238.027,70.39L238.75,70.607L239.473,70.83L240.195,71.232L240.918,71.486L241.641,71.946L242.363,72.2L243.086,72.468L243.809,72.811L244.531,73.117L245.254,73.54L245.977,73.747L246.699,74.119L247.422,74.424L248.145,74.797L248.867,75.105L249.59,75.377L250.313,75.799L251.035,76.019L251.758,76.324L252.48,76.725L253.203,77.066L253.926,77.368L254.648,77.679L255.371,78.125L256.094,78.362L256.816,78.705L257.539,79.081L258.262,79.494L258.984,79.743L259.707,80.174L260.43,80.51L261.152,80.843L261.875,81.142L262.598,81.559L263.32,81.827L264.043,82.268L264.766,82.462L265.488,82.985L266.211,83.243L266.934,83.66L267.656,84.023L268.379,84.256L269.102,84.682L269.824,85.167L270.547,85.472L271.27,85.842L271.992,86.155L272.715,86.48L273.438,86.846L274.16,87.171L274.883,87.717L275.605,87.956L276.328,88.365L277.051,88.639L277.773,89.106L278.496,89.518L279.219,89.877L279.941,90.289L280.664,90.64L281.387,91.031L282.109,91.457L282.832,91.835L283.555,92.072L284.277,92.495L285,92.969L285.723,93.372L286.445,93.717L287.168,93.969L287.891,94.45L288.613,94.782L289.336,95.301L290.059,95.711L290.781,96.12L291.504,96.572L292.227,96.883L292.949,97.309L293.672,97.743L294.395,98.266L295.117,98.539L295.84,99.001L296.563,99.391L297.285,99.838L298.008,100.186L298.73,100.546L299.453,100.992L300.176,101.514L300.898,102.033L301.621,102.313L302.344,102.774L303.066,103.168L303.789,103.588L304.512,103.887L305.234,104.506L305.957,104.86L306.68,105.352L307.402,105.64L308.125,106.225L308.848,106.707L309.57,107.137L310.293,107.571L311.016,108.004L311.738,108.41L312.461,108.931L313.184,109.321L313.906,109.834L314.629,110.241L315.352,110.555L316.074,111.257L316.797,111.729L317.52,112.133L318.242,112.614L318.965,113.088L319.688,113.557L320.41,113.902L321.133,114.365L321.855,114.915L322.578,115.439L323.301,115.941L324.023,116.316L324.746,117.019L325.469,117.193L326.191,117.844L326.914,118.401L327.637,118.802L328.359,119.303L329.082,119.87L329.805,120.376L330.527,120.858L331.25,121.26L331.973,121.913L332.695,122.378L333.418,122.817L334.141,123.261L334.863,123.89L335.586,124.316L336.309,124.855L337.031,125.506L337.754,126.027L338.477,126.446L339.199,127.079L339.922,127.507L340.645,128.011L341.367,128.667L342.09,129.161L342.813,129.62L343.535,130.184L344.258,130.71L344.98,131.398L345.703,131.725L346.426,132.416L347.148,132.959L347.871,133.569L348.594,134.168L349.316,134.665L350.039,135.327L350.762,135.791L351.484,136.478L352.207,136.93L352.93,137.539L353.652,138.065L354.375,138.694L355.098,139.24L355.82,139.915L356.543,140.351L357.266,141.021L357.988,141.52L358.711,142.212L359.434,142.749L360.156,143.453L360.879,143.977L361.602,144.549L362.324,145.148L363.047,145.684L363.77,146.332L364.492,146.916L365.215,147.536L365.938,148.221L366.66,148.747L367.383,149.561L368.105,150.226L368.828,150.627L369.551,151.404L370.273,152.126L370.996,152.561L371.719,153.16L372.441,153.783L373.164,154.407L373.887,155.125L374.609,155.861L375.332,156.492L376.055,157.206L376.777,157.679L377.5,158.392L378.223,159.101L378.945,159.773L379.668,160.353L380.391,161.028L381.113,161.729L381.836,162.266L382.559,162.945L383.281,163.595L384.004,164.392L384.727,165.003L385.449,165.753L386.172,166.386L386.895,166.956L387.617,167.488L388.34,168.336L389.063,169.12L389.785,169.734L390.508,170.402L391.23,171.215L391.953,171.623L392.676,172.443L393.398,173.035L394.121,173.687L394.844,174.318L395.566,175.01L396.289,175.884L397.012,176.607L397.734,177.077L398.457,177.654L399.18,178.61L399.902,179.141L400.625,180.048L401.348,180.505L402.07,181.294L402.793,182.049L403.516,182.631L404.238,183.354L404.961,183.896L405.684,184.509L406.406,185.412L407.129,185.655L407.852,186.627L408.574,187.237L409.297,188.245L410.02,188.699L410.742,189.439L411.465,189.921L412.188,190.585L412.91,191.411L413.633,192.223L414.355,192.686L415.078,193.061L415.801,194.046L416.523,194.754L417.246,195.185L417.969,195.766L418.691,196.403L419.414,197.276L420.137,197.847L420.859,198.34L421.582,199.139L422.305,199.665L423.027,200.39L423.75,201.098L424.473,201.502L425.195,202.205L425.918,202.736L426.641,203.588L427.363,203.917L428.086,204.594L428.809,205.38L429.531,205.842L430.254,206.375L430.977,207.017L431.699,207.426L432.422,208.196L433.145,208.694L433.867,209.09L434.59,209.9L435.313,210.448L436.035,210.8L436.758,211.58L437.48,211.91L438.203,212.641L438.926,212.992L439.648,213.631L440.371,214.055L441.094,214.758L441.816,215.202L442.539,215.677L443.262,216.104L443.984,216.528L444.707,216.971L445.43,217.554L446.152,217.924L446.875,218.374L447.598,219.041L448.32,219.273L449.043,219.614L449.766,220.091L450.488,220.544L451.211,220.898L451.934,221.639L452.656,221.721L453.379,222.06L454.102,222.363L454.824,222.791L455.547,223.167L456.27,223.435L456.992,223.992L457.715,224.368L458.438,224.654L459.16,224.929L459.883,225.467L460.605,225.502L461.328,225.958L462.051,225.987L462.773,226.514L463.496,226.666L464.219,226.925L464.941,227.192L465.664,227.296L466.387,227.595L467.109,227.949L467.832,228.103L468.555,228.199L469.277,228.489"/><path fill="none" stroke="rgb(149, 251, 81)" stroke-width="1.5" d="M100,41.115L100.723,40.209L101.445,39.33L102.168,38.496L102.891,37.693L103.613,37.013L104.336,36.286L105.059,35.649L105.781,34.976L106.504,34.339L107.227,33.764L107.949,33.181L108.672,32.596L109.395,31.993L110.117,31.457L110.84,30.937L111.563,30.356L112.285,29.828L113.008,29.259L113.73,28.704L114.453,28.151L115.176,27.594L115.898,26.97L116.621,26.421L117.344,25.745L118.066,25.172L118.789,24.463L119.512,23.775L120.234,22.964L120.957,22.169L121.68,21.325L122.402,21.38L123.125,22.174L123.848,22.999L124.57,23.704L125.293,24.437L126.016,25.049L126.738,25.649L127.461,26.222L128.184,26.838L128.906,27.315L129.629,27.806L130.352,28.264L131.074,28.718L131.797,29.139L132.52,29.6L133.242,29.984L133.965,30.359L134.688,30.792L135.41,31.136L136.133,31.507L136.855,31.844L137.578,32.186L138.301,32.507L139.023,32.832L139.746,33.143L140.469,33.421L141.191,33.78L141.914,34.022L142.637,34.365L143.359,34.605L144.082,34.91L144.805,35.176L145.527,35.443L146.25,35.703L146.973,35.96L147.695,36.286L148.418,36.507L149.141,36.806L149.863,37.02L150.586,37.248L151.309,37.503L152.031,37.724L152.754,37.947L153.477,38.274L154.199,38.467L154.922,38.719L155.645,38.946L156.367,39.162L157.09,39.392L157.813,39.617L158.535,39.848L159.258,40.084L159.98,40.278L160.703,40.456L161.426,40.773L162.148,40.98L162.871,41.167L163.594,41.453L164.316,41.676L165.039,41.883L165.762,42.077L166.484,42.317L167.207,42.514L167.93,42.718L168.652,42.966L169.375,43.233L170.098,43.43L170.82,43.648L171.543,43.786L172.266,44.092L172.988,44.235L173.711,44.485L174.434,44.715L175.156,44.921L175.879,45.201L176.602,45.329L177.324,45.561L178.047,45.848L178.77,46.087L179.492,46.251L180.215,46.53L180.938,46.733L181.66,46.911L182.383,47.202L183.105,47.305L183.828,47.514L184.551,47.863L185.273,48.031L185.996,48.341L186.719,48.512L187.441,48.74L188.164,49.002L188.887,49.185L189.609,49.459L190.332,49.641L191.055,49.914L191.777,50.169L192.5,50.37L193.223,50.649L193.945,50.81L194.668,51.103L195.391,51.315L196.113,51.64L196.836,51.883L197.559,52.061L198.281,52.312L199.004,52.542L199.727,52.79L200.449,52.96L201.172,53.336L201.895,53.525L202.617,53.778L203.34,54.075L204.063,54.25L204.785,54.489L205.508,54.758L206.23,54.962L206.953,55.27L207.676,55.56L208.398,55.83L209.121,56.107L209.844,56.371L210.566,56.603L211.289,56.845L212.012,57.203L212.734,57.415L213.457,57.682L214.18,58.045L214.902,58.218L215.625,58.485L216.348,58.748L217.07,59.005L217.793,59.321L218.516,59.595L219.238,59.899L219.961,60.199L220.684,60.475L221.406,60.732L222.129,60.95L222.852,61.27L223.574,61.602L224.297,61.881L225.02,62.158L225.742,62.429L226.465,62.725L227.188,63.077L227.91,63.329L228.633,63.624L229.355,63.93L230.078,64.198L230.801,64.454L231.523,64.792L232.246,65.056L232.969,65.39L233.691,65.762L234.414,65.922L235.137,66.307L235.859,66.648L236.582,66.988L237.305,67.268L238.027,67.534L238.75,67.812L239.473,68.139L240.195,68.484L240.918,68.774L241.641,69.176L242.363,69.455L243.086,69.742L243.809,70.136L244.531,70.434L245.254,70.784L245.977,70.97L246.699,71.4L247.422,71.736L248.145,72.04L248.867,72.39L249.59,72.738L250.313,73.07L251.035,73.302L251.758,73.722L252.48,74.073L253.203,74.389L253.926,74.65L254.648,75.037L255.371,75.33L256.094,75.684L256.816,76.026L257.539,76.41L258.262,76.783L258.984,77.078L259.707,77.377L260.43,77.802L261.152,78.033L261.875,78.417L262.598,78.784L263.32,79.166L264.043,79.487L264.766,79.871L265.488,80.266L266.211,80.562L266.934,80.93L267.656,81.332L268.379,81.693L269.102,82.125L269.824,82.362L270.547,82.695L271.27,83.096L271.992,83.502L272.715,83.857L273.438,84.235L274.16,84.476L274.883,84.916L275.605,85.272L276.328,85.658L277.051,86.169L277.773,86.463L278.496,86.816L279.219,87.137L279.941,87.578L280.664,87.927L281.387,88.424L282.109,88.732L282.832,89.104L283.555,89.51L284.277,89.783L285,90.196L285.723,90.708L286.445,90.976L287.168,91.41L287.891,91.822L288.613,92.237L289.336,92.522L290.059,93.024L290.781,93.35L291.504,93.642L292.227,94.075L292.949,94.668L293.672,95.053L294.395,95.385L295.117,95.596L295.84,96.07L296.563,96.521L297.285,96.964L298.008,97.469L298.73,97.88L299.453,98.258L300.176,98.578L300.898,99.024L301.621,99.379L302.344,99.905L303.066,100.257L303.789,100.705L304.512,101.159L305.234,101.516L305.957,101.907L306.68,102.407L307.402,102.748L308.125,103.263L308.848,103.591L309.57,104.196L310.293,104.533L311.016,104.889L311.738,105.384L312.461,105.814L313.184,106.27L313.906,106.732L314.629,107.173L315.352,107.663L316.074,107.926L316.797,108.471L317.52,109.022L318.242,109.321L318.965,109.829L319.688,110.332L320.41,110.769L321.133,111.085L321.855,111.645L322.578,112.118L323.301,112.577L324.023,112.964L324.746,113.505L325.469,113.993L326.191,114.608L326.914,114.973L327.637,115.462L328.359,115.846L329.082,116.288L329.805,116.755L330.527,117.389L331.25,117.664L331.973,118.249L332.695,118.819L333.418,119.196L334.141,119.849L334.863,120.236L335.586,120.947L336.309,121.115L337.031,121.781L337.754,122.223L338.477,122.647L339.199,123.209L339.922,123.711L340.645,124.327L341.367,124.754L342.09,125.184L342.813,125.748L343.535,126.241L344.258,126.797L344.98,127.283L345.703,127.732L346.426,128.292L347.148,128.882L347.871,129.324L348.594,129.87L349.316,130.412L350.039,131.027L350.762,131.648L351.484,132.065L352.207,132.547L352.93,133.108L353.652,133.787L354.375,134.137L355.098,134.739L355.82,135.205L356.543,135.623L357.266,136.313L357.988,136.824L358.711,137.289L359.434,137.909L360.156,138.409L360.879,139.065L361.602,139.671L362.324,140.155L363.047,140.57L363.77,141.328L364.492,141.748L365.215,142.312L365.938,142.871L366.66,143.427L367.383,143.877L368.105,144.496L368.828,145.146L369.551,145.753L370.273,146.291L370.996,146.666L371.719,147.223L372.441,147.866L373.164,148.531L373.887,148.966L374.609,149.403L375.332,150.173L376.055,150.708L376.777,151.199L377.5,151.729L378.223,152.368L378.945,153.03L379.668,153.481L380.391,154.001L381.113,154.544L381.836,155.122L382.559,155.672L383.281,156.295L384.004,156.784L384.727,157.468L385.449,158.113L386.172,158.312L386.895,159.109L387.617,159.744L388.34,160.064L389.063,160.749L389.785,161.221L390.508,161.83L391.23,162.395L391.953,162.806L392.676,163.452L393.398,163.996L394.121,164.34L394.844,164.989L395.566,165.603L396.289,166.02L397.012,166.467L397.734,167.072L398.457,167.61L399.18,168.168L399.902,168.639L400.625,169.176L401.348,169.71L402.07,170.276L402.793,170.736L403.516,171.337L404.238,171.597L404.961,172.219L405.684,172.599L406.406,173.267L407.129,173.62L407.852,174.209L408.574,174.569L409.297,175.337L410.02,175.646L410.742,176.035L411.465,176.516L412.188,176.833L412.91,177.538L413.633,177.857L414.355,178.466L415.078,178.82L415.801,179.184L416.523,179.659L417.246,180.197L417.969,180.676L418.691,180.906L419.414,181.418L420.137,181.647L420.859,182.29L421.582,182.61L422.305,182.915L423.027,183.348L423.75,183.835L424.473,184.123L425.195,184.618L425.918,184.961L426.641,185.301L427.363,185.646L428.086,185.867L428.809,186.307L429.531,186.446L430.254,186.785L430.977,187.293L431.699,187.642L432.422,187.883L433.145,188.288L433.867,188.457L434.59,188.89L435.313,189.261L436.035,189.328L436.758,189.719L437.48,189.974L438.203,190.147L438.926,190.397L439.648,190.71L440.371,190.831L441.094,191.274L441.816,191.278L442.539,191.451L443.262,191.654L443.984,191.987L444.707,192.043L445.43,192.132L446.152,192.443L446.875,192.671L447.598,192.72L448.32,192.935L449.043,193.014L449.766,193.235L450.488,193.271L451.211,193.531L451.934,193.451L452.656,193.699L453.379,193.643L454.102,193.808L454.824,193.857L455.547,194.045L456.27,193.888L456.992,194.037L457.715,194.145L458.438,194.127L459.16,194.386L459.883,194.082L460.605,194.208L461.328,194.263L462.051,193.951L462.773,194.102L463.496,193.872L464.219,194.071L464.941,194.104L465.664,194.085L466.387,193.875L467.109,193.927L467.832,193.779L468.555,193.918L469.277,193.8"/><path fill="none" stroke="rgb(236, 209, 46)" stroke-width="1.5" d="M100,40.921L100.723,39.983L101.445,39.082L102.168,38.277L102.891,37.489L103.613,36.775L104.336,36.035L105.059,35.375L105.781,34.721L106.504,34.108L107.227,33.447L107.949,32.898L108.672,32.24L109.395,31.692L110.117,31.147L110.84,30.576L111.563,29.973L112.285,29.421L113.008,28.82L113.73,28.272L114.453,27.72L115.176,27.037L115.898,26.479L116.621,25.872L117.344,25.243L118.066,24.582L118.789,23.871L119.512,23.093L120.234,22.366L120.957,21.391L121.68,20.523L122.402,20.897L123.125,21.725L123.848,22.49L124.57,23.19L125.293,23.801L126.016,24.396L126.738,24.989L127.461,25.553L128.184,26.069L128.906,26.546L129.629,27.044L130.352,27.455L131.074,27.829L131.797,28.25L132.52,28.594L133.242,28.988L133.965,29.33L134.688,29.688L135.41,30.022L136.133,30.38L136.855,30.684L137.578,30.982L138.301,31.276L139.023,31.581L139.746,31.765L140.469,32.132L141.191,32.431L141.914,32.606L142.637,32.896L143.359,33.118L144.082,33.379L144.805,33.602L145.527,33.801L146.25,34.005L146.973,34.337L147.695,34.493L148.418,34.776L149.141,34.96L149.863,35.194L150.586,35.384L151.309,35.598L152.031,35.782L152.754,36.076L153.477,36.21L154.199,36.415L154.922,36.605L155.645,36.757L156.367,37.027L157.09,37.148L157.813,37.443L158.535,37.597L159.258,37.813L159.98,37.964L160.703,38.186L161.426,38.319L162.148,38.586L162.871,38.729L163.594,38.907L164.316,39.095L165.039,39.321L165.762,39.483L166.484,39.696L167.207,39.854L167.93,39.987L168.652,40.125L169.375,40.364L170.098,40.6L170.82,40.79L171.543,40.966L172.266,41.085L172.988,41.36L173.711,41.536L174.434,41.634L175.156,41.879L175.879,42.044L176.602,42.24L177.324,42.492L178.047,42.656L178.77,42.956L179.492,43.067L180.215,43.184L180.938,43.487L181.66,43.626L182.383,43.863L183.105,43.955L183.828,44.291L184.551,44.428L185.273,44.665L185.996,44.843L186.719,45.011L187.441,45.272L188.164,45.415L188.887,45.729L189.609,45.855L190.332,46.071L191.055,46.304L191.777,46.533L192.5,46.73L193.223,46.958L193.945,47.178L194.668,47.421L195.391,47.605L196.113,47.855L196.836,48.104L197.559,48.298L198.281,48.539L199.004,48.696L199.727,48.986L200.449,49.31L201.172,49.499L201.895,49.695L202.617,49.991L203.34,50.131L204.063,50.329L204.785,50.656L205.508,50.918L206.23,51.171L206.953,51.371L207.676,51.623L208.398,51.889L209.121,52.08L209.844,52.435L210.566,52.649L211.289,52.931L212.012,53.067L212.734,53.364L213.457,53.684L214.18,53.907L214.902,54.251L215.625,54.479L216.348,54.751L217.07,55.092L217.793,55.313L218.516,55.565L219.238,55.907L219.961,56.104L220.684,56.399L221.406,56.75L222.129,57.021L222.852,57.204L223.574,57.565L224.297,57.821L225.02,58.14L225.742,58.473L226.465,58.741L227.188,59.007L227.91,59.364L228.633,59.585L229.355,59.918L230.078,60.211L230.801,60.499L231.523,60.863L232.246,61.117L232.969,61.447L233.691,61.731L234.414,62.056L235.137,62.371L235.859,62.722L236.582,62.989L237.305,63.296L238.027,63.577L238.75,63.932L239.473,64.278L240.195,64.603L240.918,64.926L241.641,65.205L242.363,65.588L243.086,65.889L243.809,66.268L244.531,66.543L245.254,66.886L245.977,67.258L246.699,67.601L247.422,68.013L248.145,68.321L248.867,68.596L249.59,68.959L250.313,69.33L251.035,69.703L251.758,69.973L252.48,70.376L253.203,70.734L253.926,71.086L254.648,71.389L255.371,71.743L256.094,72.097L256.816,72.502L257.539,72.895L258.262,73.244L258.984,73.569L259.707,73.922L260.43,74.296L261.152,74.651L261.875,75.05L262.598,75.398L263.32,75.801L264.043,76.131L264.766,76.517L265.488,76.954L266.211,77.291L266.934,77.661L267.656,77.972L268.379,78.424L269.102,78.789L269.824,79.114L270.547,79.527L271.27,79.941L271.992,80.321L272.715,80.784L273.438,81.085L274.16,81.518L274.883,81.918L275.605,82.314L276.328,82.677L277.051,83.136L277.773,83.518L278.496,83.833L279.219,84.336L279.941,84.637L280.664,85.066L281.387,85.441L282.109,85.789L282.832,86.324L283.555,86.63L284.277,87.149L285,87.612L285.723,87.893L286.445,88.395L287.168,88.766L287.891,89.206L288.613,89.61L289.336,89.913L290.059,90.463L290.781,90.914L291.504,91.359L292.227,91.742L292.949,92.104L293.672,92.588L294.395,93.065L295.117,93.349L295.84,93.852L296.563,94.347L297.285,94.739L298.008,95.256L298.73,95.563L299.453,96.072L300.176,96.488L300.898,96.967L301.621,97.329L302.344,97.846L303.066,98.207L303.789,98.756L304.512,99.082L305.234,99.563L305.957,99.972L306.68,100.41L307.402,100.954L308.125,101.378L308.848,101.832L309.57,102.217L310.293,102.667L311.016,103.006L311.738,103.689L312.461,104.032L313.184,104.523L313.906,104.99L314.629,105.419L315.352,105.979L316.074,106.352L316.797,106.817L317.52,107.194L318.242,107.788L318.965,108.198L319.688,108.708L320.41,109.021L321.133,109.724L321.855,110.059L322.578,110.522L323.301,110.989L324.023,111.41L324.746,112.114L325.469,112.362L326.191,112.954L326.914,113.454L327.637,113.842L328.359,114.314L329.082,114.851L329.805,115.246L330.527,115.834L331.25,116.202L331.973,116.676L332.695,117.108L333.418,117.696L334.141,118.071L334.863,118.61L335.586,119.133L336.309,119.492L337.031,120.12L337.754,120.532L338.477,121.066L339.199,121.411L339.922,122.068L340.645,122.396L341.367,122.828L342.09,123.384L342.813,123.686L343.535,124.314L344.258,124.845L344.98,125.281L345.703,125.729L346.426,126.092L347.148,126.638L347.871,127.096L348.594,127.553L349.316,128.01L350.039,128.509L350.762,129.046L351.484,129.409L352.207,129.994L352.93,130.437L353.652,130.795L354.375,131.291L355.098,131.59L355.82,132.162L356.543,132.662L357.266,133.036L357.988,133.665L358.711,134.013L359.434,134.505L360.156,134.881L360.879,135.401L361.602,135.862L362.324,136.271L363.047,136.691L363.77,137.092L364.492,137.542L365.215,138.016L365.938,138.462L366.66,138.812L367.383,139.245L368.105,139.679L368.828,140.076L369.551,140.513L370.273,140.925L370.996,141.371L371.719,141.678L372.441,142.096L373.164,142.655L373.887,142.833L374.609,143.271L375.332,143.745L376.055,144.128L376.777,144.523L377.5,144.935L378.223,145.404L378.945,145.737L379.668,146.142L380.391,146.507L381.113,146.898L381.836,147.271L382.559,147.396L383.281,147.793L384.004,148.136L384.727,148.634L385.449,148.789L386.172,149.225L386.895,149.546L387.617,149.859L388.34,150.175L389.063,150.54L389.785,150.912L390.508,151.126L391.23,151.523L391.953,151.716L392.676,152.107L393.398,152.331L394.121,152.603L394.844,152.9L395.566,153.121L396.289,153.5L397.012,153.678L397.734,153.85L398.457,154.304L399.18,154.5L399.902,154.726L400.625,154.847L401.348,155.271L402.07,155.292L402.793,155.73L403.516,155.966L404.238,155.93L404.961,156.202L405.684,156.456L406.406,156.592L407.129,156.866L407.852,156.92L408.574,157.195L409.297,157.229L410.02,157.403L410.742,157.651L411.465,157.802L412.188,157.726L412.91,157.995L413.633,158.079L414.355,158.175L415.078,158.291L415.801,158.339L416.523,158.403L417.246,158.724L417.969,158.765L418.691,158.727L419.414,158.715L420.137,158.858L420.859,158.896L421.582,158.991L422.305,159.023L423.027,159.019L423.75,159L424.473,159.107L425.195,159.112L425.918,159.142L426.641,158.924L427.363,159.114L428.086,159.132L428.809,158.917L429.531,159.114L430.254,158.984L430.977,159.047L431.699,158.777L432.422,158.856L433.145,158.807L433.867,158.68L434.59,158.568L435.313,158.563L436.035,158.433L436.758,158.3L437.48,158.204L438.203,158.208L438.926,157.949L439.648,158.163L440.371,157.925L441.094,157.681L441.816,157.548L442.539,157.402L443.262,157.263L443.984,156.903L444.707,157.036L445.43,156.856L446.152,156.505L446.875,156.393L447.598,156.13L448.32,156.076L449.043,155.876L449.766,155.535L450.488,155.535L451.211,155.302L451.934,154.951L452.656,154.8L453.379,154.6L454.102,154.25L454.824,153.891L455.547,153.765L456.27,153.576L456.992,153.247L457.715,153.09L458.438,152.702L459.16,152.462L459.883,152.132L460.605,151.721L461.328,151.57L462.051,151.304L462.773,151.111L463.496,150.733L464.219,150.493L464.941,150.175L465.664,149.751L466.387,149.576L467.109,149.056L467.832,148.847L468.555,148.559L469.277,148.167"/><path fill="none" stroke="rgb(255, 130, 29)" stroke-width="1.5" d="M100,40.433L100.723,39.496L101.445,38.639L102.168,37.818L102.891,37.098L103.613,36.331L104.336,35.596L105.059,34.938L105.781,34.26L106.504,33.677L107.227,33.038L107.949,32.453L108.672,31.804L109.395,31.24L110.117,30.637L110.84,30.086L111.563,29.442L112.285,28.914L113.008,28.342L113.73,27.691L114.453,27.152L115.176,26.533L115.898,25.849L116.621,25.278L117.344,24.566L118.066,23.884L118.789,23.151L119.512,22.348L120.234,21.44L120.957,20.633L121.68,20L122.402,20.856L123.125,21.599L123.848,22.308L124.57,22.924L125.293,23.534L126.016,24.127L126.738,24.591L127.461,25.071L128.184,25.533L128.906,25.983L129.629,26.377L130.352,26.848L131.074,27.176L131.797,27.585L132.52,27.859L133.242,28.193L133.965,28.5L134.688,28.833L135.41,29.068L136.133,29.407L136.855,29.676L137.578,29.928L138.301,30.215L139.023,30.436L139.746,30.627L140.469,30.858L141.191,31.179L141.914,31.368L142.637,31.57L143.359,31.721L144.082,31.919L144.805,32.065L145.527,32.279L146.25,32.428L146.973,32.667L147.695,32.79L148.418,33.006L149.141,33.102L149.863,33.279L150.586,33.521L151.309,33.582L152.031,33.708L152.754,33.846L153.477,34.018L154.199,34.111L154.922,34.288L155.645,34.391L156.367,34.565L157.09,34.687L157.813,34.812L158.535,34.947L159.258,35.091L159.98,35.175L160.703,35.3L161.426,35.455L162.148,35.526L162.871,35.607L163.594,35.793L164.316,35.784L165.039,35.982L165.762,36.081L166.484,36.237L167.207,36.332L167.93,36.429L168.652,36.497L169.375,36.61L170.098,36.761L170.82,36.896L171.543,36.997L172.266,37.034L172.988,37.209L173.711,37.314L174.434,37.394L175.156,37.607L175.879,37.611L176.602,37.747L177.324,37.826L178.047,38.006L178.77,38.079L179.492,38.194L180.215,38.406L180.938,38.453L181.66,38.611L182.383,38.715L183.105,38.846L183.828,38.937L184.551,39.07L185.273,39.172L185.996,39.344L186.719,39.457L187.441,39.605L188.164,39.703L188.887,39.794L189.609,39.974L190.332,40.111L191.055,40.335L191.777,40.457L192.5,40.597L193.223,40.785L193.945,40.851L194.668,41.042L195.391,41.126L196.113,41.33L196.836,41.592L197.559,41.767L198.281,41.867L199.004,41.984L199.727,42.222L200.449,42.314L201.172,42.565L201.895,42.767L202.617,42.991L203.34,43.23L204.063,43.307L204.785,43.407L205.508,43.648L206.23,43.995L206.953,44.022L207.676,44.288L208.398,44.527L209.121,44.723L209.844,44.878L210.566,45.169L211.289,45.41L212.012,45.597L212.734,45.772L213.457,46.092L214.18,46.285L214.902,46.466L215.625,46.824L216.348,47.065L217.07,47.276L217.793,47.501L218.516,47.806L219.238,48.043L219.961,48.32L220.684,48.497L221.406,48.756L222.129,49.012L222.852,49.328L223.574,49.521L224.297,49.83L225.02,50.105L225.742,50.439L226.465,50.702L227.188,51.025L227.91,51.319L228.633,51.493L229.355,51.928L230.078,52.165L230.801,52.444L231.523,52.805L232.246,53.113L232.969,53.407L233.691,53.761L234.414,54.151L235.137,54.377L235.859,54.737L236.582,55.078L237.305,55.371L238.027,55.716L238.75,56.056L239.473,56.353L240.195,56.685L240.918,57.025L241.641,57.354L242.363,57.709L243.086,58.052L243.809,58.45L244.531,58.75L245.254,59.165L245.977,59.535L246.699,59.805L247.422,60.267L248.145,60.594L248.867,61.108L249.59,61.347L250.313,61.742L251.035,62.154L251.758,62.514L252.48,62.942L253.203,63.292L253.926,63.719L254.648,64.076L255.371,64.392L256.094,64.842L256.816,65.297L257.539,65.693L258.262,66.045L258.984,66.456L259.707,66.851L260.43,67.365L261.152,67.742L261.875,68.185L262.598,68.556L263.32,68.943L264.043,69.394L264.766,69.775L265.488,70.221L266.211,70.646L266.934,71.107L267.656,71.531L268.379,71.98L269.102,72.283L269.824,72.778L270.547,73.253L271.27,73.793L271.992,74.043L272.715,74.529L273.438,74.921L274.16,75.442L274.883,75.89L275.605,76.25L276.328,76.694L277.051,77.234L277.773,77.58L278.496,78.103L279.219,78.543L279.941,79.005L280.664,79.402L281.387,79.887L282.109,80.427L282.832,80.821L283.555,81.35L284.277,81.67L285,82.223L285.723,82.694L286.445,83.022L287.168,83.659L287.891,84.006L288.613,84.505L289.336,84.963L290.059,85.384L290.781,85.864L291.504,86.304L292.227,86.767L292.949,87.195L293.672,87.657L294.395,87.985L295.117,88.531L295.84,88.903L296.563,89.371L297.285,89.927L298.008,90.25L298.73,90.663L299.453,91.156L300.176,91.586L300.898,91.971L301.621,92.434L302.344,92.855L303.066,93.137L303.789,93.649L304.512,94.131L305.234,94.504L305.957,94.953L306.68,95.35L307.402,95.679L308.125,96.115L308.848,96.524L309.57,96.816L310.293,97.286L311.016,97.696L311.738,98.037L312.461,98.445L313.184,98.809L313.906,99.149L314.629,99.519L315.352,100.02L316.074,100.259L316.797,100.735L317.52,101.107L318.242,101.476L318.965,101.696L319.688,102.14L320.41,102.483L321.133,102.792L321.855,103.131L322.578,103.398L323.301,103.826L324.023,104.111L324.746,104.455L325.469,104.784L326.191,105.117L326.914,105.374L327.637,105.665L328.359,105.919L329.082,106.311L329.805,106.483L330.527,106.721L331.25,107.034L331.973,107.198L332.695,107.711L333.418,107.88L334.141,108.21L334.863,108.487L335.586,108.699L336.309,108.952L337.031,109.176L337.754,109.388L338.477,109.61L339.199,109.798L339.922,109.943L340.645,110.249L341.367,110.406L342.09,110.725L342.813,110.823L343.535,111.044L344.258,111.218L344.98,111.28L345.703,111.585L346.426,111.8L347.148,111.994L347.871,112.129L348.594,112.206L349.316,112.411L350.039,112.549L350.762,112.771L351.484,112.784L352.207,112.864L352.93,113.015L353.652,113.212L354.375,113.32L355.098,113.381L355.82,113.453L356.543,113.46L357.266,113.579L357.988,113.754L358.711,113.784L359.434,113.901L360.156,113.976L360.879,113.96L361.602,114.068L362.324,114.066L363.047,114.1L363.77,114.22L364.492,114.217L365.215,114.234L365.938,114.219L366.66,114.177L367.383,114.143L368.105,114.309L368.828,114.272L369.551,114.261L370.273,114.221L370.996,114.216L371.719,114.255L372.441,114.175L373.164,114.061L373.887,114.098L374.609,114.068L375.332,113.842L376.055,113.849L376.777,113.899L377.5,113.783L378.223,113.644L378.945,113.655L379.668,113.6L380.391,113.49L381.113,113.305L381.836,113.286L382.559,113.1L383.281,113.038L384.004,113.082L384.727,112.812L385.449,112.653L386.172,112.55L386.895,112.488L387.617,112.283L388.34,112.046L389.063,112.073L389.785,111.776L390.508,111.783L391.23,111.584L391.953,111.385L392.676,111.266L393.398,111.096L394.121,111.035L394.844,110.806L395.566,110.458L396.289,110.377L397.012,110.178L397.734,109.888L398.457,109.842L399.18,109.617L399.902,109.357L400.625,109.239L401.348,109.009L402.07,108.84L402.793,108.526L403.516,108.369L404.238,108.046L404.961,107.817L405.684,107.671L406.406,107.411L407.129,107.244L407.852,106.969L408.574,106.652L409.297,106.483L410.02,106.139L410.742,105.957L411.465,105.72L412.188,105.502L412.91,105.24L413.633,104.839L414.355,104.672L415.078,104.4L415.801,104.168L416.523,103.789L417.246,103.621L417.969,103.26L418.691,103.014L419.414,102.793L420.137,102.632L420.859,102.107L421.582,101.837L422.305,101.678L423.027,101.416L423.75,101.132L424.473,100.797L425.195,100.39L425.918,100.215L426.641,99.887L427.363,99.614L428.086,99.203L428.809,98.917L429.531,98.687L430.254,98.451L430.977,98.053L431.699,97.69L432.422,97.366L433.145,97.151L433.867,96.887L434.59,96.517L435.313,96.182L436.035,95.748L436.758,95.562L437.48,95.193L438.203,94.804L438.926,94.529L439.648,94.294L440.371,93.852L441.094,93.596L441.816,93.214L442.539,92.927L443.262,92.674L443.984,92.204L444.707,91.906L445.43,91.561L446.152,91.358L446.875,90.988L447.598,90.605L448.32,90.347L449.043,90.011L449.766,89.699L450.488,89.512L451.211,88.956L451.934,88.65L452.656,88.311L453.379,88.035L454.102,87.629L454.824,87.175L455.547,86.902L456.27,86.588L456.992,86.326L457.715,85.992L458.438,85.605L459.16,85.479L459.883,84.913L460.605,84.597L461.328,84.163L462.051,83.946L462.773,83.621L463.496,83.303L464.219,82.902L464.941,82.587L465.664,82.151L466.387,81.853L467.109,81.708L467.832,81.377L468.555,81.062L469.277,80.56"/><path fill="none" stroke="rgb(203, 47, 13)" stroke-width="1.5" d="M100,40.035L100.723,39.101L101.445,38.213L102.168,37.442L102.891,36.693L103.613,35.974L104.336,35.275L105.059,34.549L105.781,33.939L106.504,33.306L107.227,32.676L107.949,32.068L108.672,31.47L109.395,30.947L110.117,30.476L110.84,29.727L111.563,29.178L112.285,28.663L113.008,28.009L113.73,27.44L114.453,26.825L115.176,26.174L115.898,25.574L116.621,24.874L117.344,24.229L118.066,23.474L118.789,22.767L119.512,21.918L120.234,21.038L120.957,20.066L121.68,20.213L122.402,20.967L123.125,21.691L123.848,22.41L124.57,22.936L125.293,23.499L126.016,24.023L126.738,24.541L127.461,25.002L128.184,25.411L128.906,25.9L129.629,26.253L130.352,26.695L131.074,27.02L131.797,27.345L132.52,27.651L133.242,27.979L133.965,28.27L134.688,28.521L135.41,28.816L136.133,29.057L136.855,29.31L137.578,29.546L138.301,29.782L139.023,30.004L139.746,30.22L140.469,30.407L141.191,30.597L141.914,30.803L142.637,30.991L143.359,31.171L144.082,31.356L144.805,31.529L145.527,31.634L146.25,31.771L146.973,31.966L147.695,32.118L148.418,32.192L149.141,32.327L149.863,32.413L150.586,32.67L151.309,32.686L152.031,32.795L152.754,32.927L153.477,33.049L154.199,33.03L154.922,33.302L155.645,33.36L156.367,33.454L157.09,33.611L157.813,33.625L158.535,33.684L159.258,33.699L159.98,33.866L160.703,33.897L161.426,33.932L162.148,34.009L162.871,34.098L163.594,34.227L164.316,34.26L165.039,34.248L165.762,34.401L166.484,34.435L167.207,34.491L167.93,34.476L168.652,34.531L169.375,34.574L170.098,34.646L170.82,34.61L171.543,34.666L172.266,34.691L172.988,34.755L173.711,34.774L174.434,34.82L175.156,34.789L175.879,34.823L176.602,34.785L177.324,34.833L178.047,34.806L178.77,34.967L179.492,34.971L180.215,35.018L180.938,34.902L181.66,34.932L182.383,34.808L183.105,34.917L183.828,34.968L184.551,34.934L185.273,34.999L185.996,34.938L186.719,35.027L187.441,35.037L188.164,34.98L188.887,34.98L189.609,34.913L190.332,34.962L191.055,34.987L191.777,34.962L192.5,34.947L193.223,34.775L193.945,34.891L194.668,34.828L195.391,34.842L196.113,34.829L196.836,34.788L197.559,34.744L198.281,34.724L199.004,34.75L199.727,34.765L200.449,34.714L201.172,34.684L201.895,34.539L202.617,34.562L203.34,34.514L204.063,34.552L204.785,34.371L205.508,34.426L206.23,34.411L206.953,34.337L207.676,34.215L208.398,34.197L209.121,34.182L209.844,34.156L210.566,34.072L211.289,34.062L212.012,34.124L212.734,33.905L213.457,33.917L214.18,33.863L214.902,33.879L215.625,33.766L216.348,33.8L217.07,33.676L217.793,33.592L218.516,33.619L219.238,33.408L219.961,33.459L220.684,33.373L221.406,33.254L222.129,33.228L222.852,33.21L223.574,33.045L224.297,32.994L225.02,32.895L225.742,32.948L226.465,32.676L227.188,32.743L227.91,32.661L228.633,32.556L229.355,32.434L230.078,32.42L230.801,32.248L231.523,32.237L232.246,32.15L232.969,32.05L233.691,31.943L234.414,31.85L235.137,31.817L235.859,31.726L236.582,31.58L237.305,31.52L238.027,31.434L238.75,31.309L239.473,31.236L240.195,31.168L240.918,31.072L241.641,30.88L242.363,30.874L243.086,30.7L243.809,30.677L244.531,30.498L245.254,30.406L245.977,30.297L246.699,30.195L247.422,30.086L248.145,29.958L248.867,29.927L249.59,29.756L250.313,29.692L251.035,29.586L251.758,29.476L252.48,29.412L253.203,29.249L253.926,29.127L254.648,29.019L255.371,28.872L256.094,28.762L256.816,28.71L257.539,28.503L258.262,28.449L258.984,28.296L259.707,28.235L260.43,28.076L261.152,27.93L261.875,27.787L262.598,27.715L263.32,27.599L264.043,27.387L264.766,27.38L265.488,27.27L266.211,27.149L266.934,26.961L267.656,26.871L268.379,26.705L269.102,26.619L269.824,26.489L270.547,26.393L271.27,26.265L271.992,26.129L272.715,25.946L273.438,25.968L274.16,25.717L274.883,25.654L275.605,25.512L276.328,25.428L277.051,25.297L277.773,25.144L278.496,25.004L279.219,24.886L279.941,24.799L280.664,24.698L281.387,24.525L282.109,24.428L282.832,24.273L283.555,24.231L284.277,24.053L285,23.945L285.723,23.838L286.445,23.694L287.168,23.541L287.891,23.438L288.613,23.261L289.336,23.117L290.059,22.988L290.781,22.855L291.504,22.773L292.227,22.609L292.949,22.462L293.672,22.317L294.395,22.173L295.117,22.001L295.84,21.876L296.563,21.787L297.285,21.614L298.008,21.434L298.73,21.366L299.453,21.185L300.176,21.057L300.898,20.945L301.621,21.862L302.344,23.921L303.066,26.796L303.789,28.861L304.512,31.711L305.234,33.955L305.957,34.955L306.68,35.24L307.402,35.465L308.125,35.771L308.848,36.077L309.57,36.339L310.293,36.627L311.016,36.862L311.738,37.043L312.461,37.308L313.184,37.555L313.906,37.832L314.629,37.992L315.352,38.212L316.074,38.443L316.797,38.593L317.52,38.794L318.242,38.944L318.965,39.125L319.688,39.352L320.41,39.566L321.133,39.678L321.855,39.782L322.578,40.01L323.301,40.104L324.023,40.268L324.746,40.404L325.469,40.602L326.191,40.636L326.914,40.775L327.637,40.91L328.359,41.04L329.082,41.167L329.805,41.273L330.527,41.309L331.25,41.426L331.973,41.518L332.695,41.555L333.418,41.698L334.141,41.72L334.863,41.797L335.586,41.893L336.309,41.94L337.031,42.076L337.754,42.075L338.477,42.139L339.199,42.15L339.922,42.165L340.645,42.256L341.367,42.242L342.09,42.362L342.813,42.375L343.535,42.348L344.258,42.47L344.98,42.48L345.703,42.512L346.426,42.492L347.148,42.553L347.871,42.475L348.594,42.514L349.316,42.483L350.039,42.573L350.762,42.498L351.484,42.565L352.207,42.482L352.93,42.509L353.652,42.521L354.375,42.497L355.098,42.438L355.82,42.496L356.543,42.435L357.266,42.459L357.988,42.431L358.711,42.378L359.434,42.384L360.156,42.296L360.879,42.252L361.602,42.192L362.324,42.206L363.047,42.247L363.77,42.182L364.492,42.146L365.215,42.04L365.938,42.024L366.66,41.965L367.383,41.928L368.105,41.912L368.828,41.746L369.551,41.71L370.273,41.76L370.996,41.693L371.719,41.559L372.441,41.577L373.164,41.519L373.887,41.442L374.609,41.373L375.332,41.36L376.055,41.227L376.777,41.255L377.5,41.176L378.223,40.967L378.945,40.939L379.668,40.831L380.391,40.815L381.113,40.779L381.836,40.738L382.559,40.665L383.281,40.575L384.004,40.449L384.727,40.412L385.449,40.341L386.172,40.264L386.895,40.141L387.617,40.112L388.34,39.976L389.063,39.923L389.785,39.877L390.508,39.733L391.23,39.746L391.953,39.57L392.676,39.523L393.398,39.454L394.121,39.375L394.844,39.279L395.566,39.116L396.289,39.116L397.012,39.049L397.734,38.945L398.457,38.859L399.18,38.71L399.902,38.627L400.625,38.6L401.348,38.409L402.07,38.383L402.793,38.309L403.516,38.225L404.238,38.055L404.961,38.017L405.684,37.846L406.406,37.803L407.129,37.729L407.852,37.628L408.574,37.633L409.297,37.506L410.02,37.368L410.742,37.331L411.465,37.222L412.188,37.114L412.91,37.008L413.633,36.902L414.355,36.871L415.078,36.781L415.801,36.742L416.523,36.504L417.246,36.421L417.969,36.331L418.691,36.284L419.414,36.105L420.137,36.068L420.859,35.947L421.582,35.946L422.305,35.711L423.027,35.673L423.75,35.654L424.473,35.558L425.195,35.407L425.918,35.381L426.641,35.164L427.363,35.092L428.086,35.128L428.809,34.993L429.531,34.926L430.254,34.795L430.977,34.619L431.699,34.643L432.422,34.497L433.145,34.427L433.867,34.233L434.59,34.138L435.313,34.159L436.035,34.051L436.758,33.871L437.48,33.887L438.203,33.807L438.926,33.708L439.648,33.648L440.371,33.496L441.094,33.44L441.816,33.334L442.539,33.127L443.262,33.077L443.984,33.066L444.707,32.974L445.43,32.79L446.152,32.809L446.875,32.712L447.598,32.611L448.32,32.586L449.043,32.48L449.766,32.349L450.488,32.333L451.211,32.173L451.934,32.125L452.656,32.056L453.379,31.962L454.102,31.833L454.824,31.825L455.547,31.713L456.27,31.601L456.992,31.546L457.715,31.479L458.438,31.359L459.16,31.326L459.883,31.21L460.605,31.151L461.328,31.017L462.051,30.975L462.773,30.904L463.496,30.804L464.219,30.782L464.941,30.678L465.664,30.564L466.387,30.491L467.109,30.421L467.832,30.318L468.555,30.301L469.277,30.225"/><g transform="translate(0,190) scale(1.7) rotate(-90)"><text>Drift</text></g><g transform="translate(315,395) scale(1.8)"><text></text></g><g transform="translate(0,350)" fill="none" font-size="10" font-family="sans-serif" text-anchor="middle"><path class="domain" stroke="currentColor" d="M100,6V0H470V6"/><g class="tick" opacity="1" transform="translate(136.66666666666666,0)"><line stroke="currentColor" y2="6"/><text fill="currentColor" y="9" dy="0.71em" font-size="20px"> </text></g><g class="tick" opacity="1" transform="translate(173.7037037037037,0)"><line stroke="currentColor" y2="6"/><text fill="currentColor" y="9" dy="0.71em" font-size="20px">200</text></g><g class="tick" opacity="1" transform="translate(210.74074074074076,0)"><line stroke="currentColor" y2="6"/><text fill="currentColor" y="9" dy="0.71em" font-size="20px"> </text></g><g class="tick" opacity="1" transform="translate(247.77777777777777,0)"><line stroke="currentColor" y2="6"/><text fill="currentColor" y="9" dy="0.71em" font-size="20px">400</text></g><g class="tick" opacity="1" transform="translate(284.81481481481484,0)"><line stroke="currentColor" y2="6"/><text fill="currentColor" y="9" dy="0.71em" font-size="20px"> </text></g><g class="tick" opacity="1" transform="translate(321.85185185185185,0)"><line stroke="currentColor" y2="6"/><text fill="currentColor" y="9" dy="0.71em" font-size="20px">600</text></g><g class="tick" opacity="1" transform="translate(358.8888888888889,0)"><line stroke="currentColor" y2="6"/><text fill="currentColor" y="9" dy="0.71em" font-size="20px"> </text></g><g class="tick" opacity="1" transform="translate(395.9259259259259,0)"><line stroke="currentColor" y2="6"/><text fill="currentColor" y="9" dy="0.71em" font-size="20px">800</text></g><g class="tick" opacity="1" transform="translate(432.96296296296293,0)"><line stroke="currentColor" y2="6"/><text fill="currentColor" y="9" dy="0.71em" font-size="20px"> </text></g><g class="tick" opacity="1" transform="translate(470,0)"><line stroke="currentColor" y2="6"/><text fill="currentColor" y="9" dy="0.71em" font-size="20px">1000</text></g></g><g transform="translate(100,0)" fill="none" font-size="10" font-family="sans-serif" text-anchor="end"><path class="domain" stroke="currentColor" d="M-6,350H0V20H-6"/><g class="tick" opacity="1" transform="translate(0,319.7693847931544)"><line stroke="currentColor" x2="-6"/><text fill="currentColor" x="-9" dy="0.32em" font-size="20px">0.7</text></g><g class="tick" opacity="1" transform="translate(0,275.7765002698152)"><line stroke="currentColor" x2="-6"/><text fill="currentColor" x="-9" dy="0.32em" font-size="20px">0.6</text></g><g class="tick" opacity="1" transform="translate(0,231.7836157464759)"><line stroke="currentColor" x2="-6"/><text fill="currentColor" x="-9" dy="0.32em" font-size="20px">0.5</text></g><g class="tick" opacity="1" transform="translate(0,187.79073122313665)"><line stroke="currentColor" x2="-6"/><text fill="currentColor" x="-9" dy="0.32em" font-size="20px">0.4</text></g><g class="tick" opacity="1" transform="translate(0,143.79784669979736)"><line stroke="currentColor" x2="-6"/><text fill="currentColor" x="-9" dy="0.32em" font-size="20px">0.3</text></g><g class="tick" opacity="1" transform="translate(0,99.80496217645812)"><line stroke="currentColor" x2="-6"/><text fill="currentColor" x="-9" dy="0.32em" font-size="20px">0.2</text></g><g class="tick" opacity="1" transform="translate(0,55.81207765311882)"><line stroke="currentColor" x2="-6"/><text fill="currentColor" x="-9" dy="0.32em" font-size="20px">0.1</text></g></g><circle cx="120" cy="155" r="8" style="fill: rgb(35, 23, 27);"/><circle cx="120" cy="180" r="8" style="fill: rgb(69, 105, 238);"/><circle cx="120" cy="205" r="8" style="fill: rgb(38, 188, 225);"/><circle cx="120" cy="230" r="8" style="fill: rgb(63, 243, 147);"/><circle cx="120" cy="255" r="8" style="fill: rgb(149, 251, 81);"/><circle cx="120" cy="280" r="8" style="fill: rgb(236, 209, 46);"/><circle cx="120" cy="305" r="8" style="fill: rgb(255, 130, 29);"/><circle cx="120" cy="330" r="8" style="fill: rgb(203, 47, 13);"/><text x="135" y="155" text-anchor="left" font-size="22" alignment-baseline="middle" style="fill: rgb(35, 23, 27);"> = 0</text><text x="135" y="180" text-anchor="left" font-size="22" alignment-baseline="middle" style="fill: rgb(69, 105, 238);"> = 0.22</text><text x="135" y="205" text-anchor="left" font-size="22" alignment-baseline="middle" style="fill: rgb(38, 188, 225);"> = 0.45</text><text x="135" y="230" text-anchor="left" font-size="22" alignment-baseline="middle" style="fill: rgb(63, 243, 147);"> = 0.67</text><text x="135" y="255" text-anchor="left" font-size="22" alignment-baseline="middle" style="fill: rgb(149, 251, 81);"> = 0.9</text><text x="135" y="280" text-anchor="left" font-size="22" alignment-baseline="middle" style="fill: rgb(236, 209, 46);"> = 1.12</text><text x="135" y="305" text-anchor="left" font-size="22" alignment-baseline="middle" style="fill: rgb(255, 130, 29);"> = 1.35</text><text x="135" y="330" text-anchor="left" font-size="22" alignment-baseline="middle" style="fill: rgb(203, 47, 13);"> = 1.57</text></svg>