<svg xmlns="http://www.w3.org/2000/svg" class="bg-white" width="500" height="400" viewBox="-35.199999999999996 -24.19999999999999 550 440.00000000000006"><path fill="none" stroke="rgb(35, 23, 27)" stroke-width="1.5" d="M100,48.004L100.723,46.97L101.445,46.09L102.168,45.311L102.891,44.591L103.613,43.898L104.336,43.218L105.059,42.648L105.781,42.031L106.504,41.485L107.227,40.939L107.949,40.432L108.672,39.97L109.395,39.503L110.117,39.051L110.84,38.559L111.563,38.109L112.285,37.615L113.008,37.143L113.73,36.675L114.453,36.179L115.176,35.707L115.898,35.228L116.621,34.697L117.344,34.174L118.066,33.664L118.789,33.074L119.512,32.439L120.234,31.858L120.957,31.138L121.68,30.358L122.402,29.777L123.125,30.88L123.848,31.872L124.57,32.699L125.293,33.54L126.016,34.333L126.738,35.069L127.461,35.776L128.184,36.468L128.906,37.141L129.629,37.742L130.352,38.294L131.074,38.929L131.797,39.473L132.52,40.019L133.242,40.578L133.965,41.069L134.688,41.539L135.41,42.066L136.133,42.54L136.855,42.985L137.578,43.511L138.301,43.95L139.023,44.372L139.746,44.712L140.469,45.225L141.191,45.607L141.914,46.114L142.637,46.47L143.359,46.855L144.082,47.266L144.805,47.61L145.527,48.051L146.25,48.433L146.973,48.8L147.695,49.207L148.418,49.531L149.141,49.94L149.863,50.339L150.586,50.722L151.309,51.032L152.031,51.403L152.754,51.781L153.477,52.072L154.199,52.501L154.922,52.793L155.645,53.156L156.367,53.527L157.09,53.894L157.813,54.2L158.535,54.573L159.258,54.883L159.98,55.311L160.703,55.661L161.426,56.002L162.148,56.33L162.871,56.735L163.594,57.003L164.316,57.303L165.039,57.75L165.762,58.162L166.484,58.435L167.207,58.808L167.93,59.165L168.652,59.536L169.375,59.857L170.098,60.195L170.82,60.478L171.543,60.855L172.266,61.297L172.988,61.529L173.711,61.896L174.434,62.255L175.156,62.678L175.879,63.008L176.602,63.361L177.324,63.654L178.047,64.022L178.77,64.369L179.492,64.73L180.215,65.074L180.938,65.42L181.66,65.855L182.383,66.221L183.105,66.57L183.828,66.911L184.551,67.239L185.273,67.665L185.996,67.983L186.719,68.348L187.441,68.697L188.164,69.104L188.887,69.509L189.609,69.893L190.332,70.269L191.055,70.666L191.777,71.001L192.5,71.427L193.223,71.782L193.945,72.149L194.668,72.553L195.391,72.92L196.113,73.309L196.836,73.686L197.559,74.067L198.281,74.44L199.004,74.914L199.727,75.263L200.449,75.687L201.172,76.065L201.895,76.459L202.617,76.874L203.34,77.292L204.063,77.663L204.785,78.06L205.508,78.524L206.23,78.957L206.953,79.322L207.676,79.726L208.398,80.085L209.121,80.532L209.844,80.974L210.566,81.342L211.289,81.842L212.012,82.19L212.734,82.649L213.457,83.155L214.18,83.579L214.902,83.975L215.625,84.361L216.348,84.848L217.07,85.295L217.793,85.657L218.516,86.155L219.238,86.555L219.961,87.025L220.684,87.468L221.406,87.923L222.129,88.458L222.852,88.935L223.574,89.369L224.297,89.812L225.02,90.256L225.742,90.794L226.465,91.22L227.188,91.667L227.91,92.141L228.633,92.626L229.355,93.052L230.078,93.608L230.801,94.038L231.523,94.512L232.246,95.035L232.969,95.496L233.691,96.056L234.414,96.445L235.137,97.022L235.859,97.516L236.582,98.03L237.305,98.534L238.027,99.081L238.75,99.608L239.473,100.079L240.195,100.597L240.918,101.215L241.641,101.63L242.363,102.187L243.086,102.797L243.809,103.33L244.531,103.845L245.254,104.356L245.977,104.963L246.699,105.45L247.422,106.063L248.145,106.613L248.867,107.255L249.59,107.789L250.313,108.369L251.035,108.846L251.758,109.403L252.48,110.103L253.203,110.7L253.926,111.278L254.648,111.818L255.371,112.395L256.094,113.045L256.816,113.671L257.539,114.315L258.262,114.91L258.984,115.521L259.707,116.117L260.43,116.789L261.152,117.424L261.875,118.019L262.598,118.593L263.32,119.21L264.043,119.926L264.766,120.679L265.488,121.231L266.211,121.881L266.934,122.729L267.656,123.37L268.379,124.043L269.102,124.647L269.824,125.332L270.547,126.149L271.27,126.826L271.992,127.533L272.715,128.185L273.438,128.97L274.16,129.752L274.883,130.518L275.605,131.311L276.328,132.042L277.051,132.842L277.773,133.598L278.496,134.378L279.219,135.168L279.941,136.017L280.664,136.759L281.387,137.469L282.109,138.276L282.832,139.258L283.555,140.026L284.277,140.908L285,141.661L285.723,142.618L286.445,143.45L287.168,144.315L287.891,145.433L288.613,146.114L289.336,147.053L290.059,147.964L290.781,148.903L291.504,150.011L292.227,150.828L292.949,151.689L293.672,152.633L294.395,153.686L295.117,154.749L295.84,155.779L296.563,156.697L297.285,157.675L298.008,158.82L298.73,159.727L299.453,160.803L300.176,161.878L300.898,162.956L301.621,164.231L302.344,165.182L303.066,166.444L303.789,167.026L304.512,168.389L305.234,169.553L305.957,170.722L306.68,171.852L307.402,173.027L308.125,174.184L308.848,175.581L309.57,176.894L310.293,177.854L311.016,179.045L311.738,180.367L312.461,181.55L313.184,183.078L313.906,184.053L314.629,185.387L315.352,186.806L316.074,188.079L316.797,189.265L317.52,190.897L318.242,192.252L318.965,193.303L319.688,194.656L320.41,195.986L321.133,197.482L321.855,198.923L322.578,200.221L323.301,201.624L324.023,202.927L324.746,204.374L325.469,205.816L326.191,207.381L326.914,208.795L327.637,210.267L328.359,211.809L329.082,213.277L329.805,215.021L330.527,216.162L331.25,218.01L331.973,219.282L332.695,221.076L333.418,222.066L334.141,223.638L334.863,225.245L335.586,227.063L336.309,228.316L337.031,230.123L337.754,231.254L338.477,233.233L339.199,234.618L339.922,236.041L340.645,237.446L341.367,239.173L342.09,240.781L342.813,242.123L343.535,244.04L344.258,245.439L344.98,247.084L345.703,248.393L346.426,250.036L347.148,251.519L347.871,253.297L348.594,254.745L349.316,256.394L350.039,257.759L350.762,259.502L351.484,261.3L352.207,262.67L352.93,264.119L353.652,265.961L354.375,266.95L355.098,268.672L355.82,270.344L356.543,271.662L357.266,273.263L357.988,274.748L358.711,276.214L359.434,277.959L360.156,279.431L360.879,280.725L361.602,282.276L362.324,283.657L363.047,285.041L363.77,286.662L364.492,287.96L365.215,289.634L365.938,290.768L366.66,292.359L367.383,293.71L368.105,295.191L368.828,296.363L369.551,297.691L370.273,299.265L370.996,300.502L371.719,301.872L372.441,303.087L373.164,304.615L373.887,305.489L374.609,306.949L375.332,308.377L376.055,309.392L376.777,310.522L377.5,311.919L378.223,312.993L378.945,314.583L379.668,315.391L380.391,316.638L381.113,317.863L381.836,318.498L382.559,319.926L383.281,321.101L384.004,322.239L384.727,323.235L385.449,324.168L386.172,324.939L386.895,325.983L387.617,327.086L388.34,327.833L389.063,329.203L389.785,329.56L390.508,330.921L391.23,331.768L391.953,332.566L392.676,332.999L393.398,333.816L394.121,334.619L394.844,336.067L395.566,336.44L396.289,337.286L397.012,337.968L397.734,338.642L398.457,339.335L399.18,339.925L399.902,340.448L400.625,341.205L401.348,341.664L402.07,342.136L402.793,342.722L403.516,343.326L404.238,343.437L404.961,344.171L405.684,344.918L406.406,345.108L407.129,345.769L407.852,346.154L408.574,346.504L409.297,347.11L410.02,347.569L410.742,347.58L411.465,347.908L412.188,348.124L412.91,348.292L413.633,348.655L414.355,348.99L415.078,349.063L415.801,349.058L416.523,349.546L417.246,349.426L417.969,349.509L418.691,349.382L419.414,349.846L420.137,349.988L420.859,349.832L421.582,349.843L422.305,350L423.027,349.81L423.75,349.801L424.473,349.858L425.195,349.864L425.918,349.814L426.641,349.151L427.363,349.579L428.086,349.463L428.809,349.13L429.531,349L430.254,348.479L430.977,348.529L431.699,348.294L432.422,348.381L433.145,347.873L433.867,347.254L434.59,347.436L435.313,346.931L436.035,346.56L436.758,346.471L437.48,345.944L438.203,345.322L438.926,344.994L439.648,344.336L440.371,344.046L441.094,343.904L441.816,342.94L442.539,342.751L443.262,342.531L443.984,341.893L444.707,341.137L445.43,340.908L446.152,340.598L446.875,339.85L447.598,339.262L448.32,338.046L449.043,337.663L449.766,337.316L450.488,336.872L451.211,336.183L451.934,334.631L452.656,334.694L453.379,333.807L454.102,332.89L454.824,332.311L455.547,331.726L456.27,330.774L456.992,329.862L457.715,329.391L458.438,328.67L459.16,328.185L459.883,327.079L460.605,326.123L461.328,325.173L462.051,324.665L462.773,324.137L463.496,323.007L464.219,321.803L464.941,321.309L465.664,320.719L466.387,319.585L467.109,318.585L467.832,317.904L468.555,316.37L469.277,315.766"/><path fill="none" stroke="rgb(69, 105, 238)" stroke-width="1.5" d="M100,48.011L100.723,46.964L101.445,46.068L102.168,45.209L102.891,44.604L103.613,43.861L104.336,43.281L105.059,42.64L105.781,42.091L106.504,41.456L107.227,40.925L107.949,40.435L108.672,39.922L109.395,39.39L110.117,38.905L110.84,38.412L111.563,37.98L112.285,37.524L113.008,37.052L113.73,36.576L114.453,36.134L115.176,35.577L115.898,35.078L116.621,34.561L117.344,34.075L118.066,33.519L118.789,32.935L119.512,32.311L120.234,31.681L120.957,30.922L121.68,30.148L122.402,29.522L123.125,30.608L123.848,31.563L124.57,32.434L125.293,33.244L126.016,34.046L126.738,34.817L127.461,35.516L128.184,36.17L128.906,36.775L129.629,37.451L130.352,38.094L131.074,38.558L131.797,39.131L132.52,39.747L133.242,40.227L133.965,40.727L134.688,41.181L135.41,41.687L136.133,42.175L136.855,42.626L137.578,43.091L138.301,43.505L139.023,43.976L139.746,44.401L140.469,44.856L141.191,45.243L141.914,45.665L142.637,46.07L143.359,46.418L144.082,46.871L144.805,47.247L145.527,47.608L146.25,47.99L146.973,48.349L147.695,48.754L148.418,49.12L149.141,49.451L149.863,49.892L150.586,50.222L151.309,50.602L152.031,50.909L152.754,51.316L153.477,51.684L154.199,52.02L154.922,52.29L155.645,52.689L156.367,53.109L157.09,53.432L157.813,53.755L158.535,54.118L159.258,54.402L159.98,54.786L160.703,55.179L161.426,55.461L162.148,55.819L162.871,56.224L163.594,56.527L164.316,56.851L165.039,57.202L165.762,57.522L166.484,57.871L167.207,58.16L167.93,58.573L168.652,58.947L169.375,59.215L170.098,59.627L170.82,59.911L171.543,60.267L172.266,60.651L172.988,60.986L173.711,61.306L174.434,61.637L175.156,61.953L175.879,62.348L176.602,62.705L177.324,63.012L178.047,63.392L178.77,63.776L179.492,64.123L180.215,64.496L180.938,64.812L181.66,65.127L182.383,65.55L183.105,65.848L183.828,66.219L184.551,66.561L185.273,67.008L185.996,67.331L186.719,67.719L187.441,68.057L188.164,68.397L188.887,68.756L189.609,69.095L190.332,69.53L191.055,69.901L191.777,70.233L192.5,70.669L193.223,71.025L193.945,71.371L194.668,71.753L195.391,72.125L196.113,72.584L196.836,72.909L197.559,73.242L198.281,73.723L199.004,74.106L199.727,74.385L200.449,74.828L201.172,75.193L201.895,75.582L202.617,76.053L203.34,76.397L204.063,76.786L204.785,77.205L205.508,77.611L206.23,78.057L206.953,78.416L207.676,78.817L208.398,79.161L209.121,79.645L209.844,80.133L210.566,80.437L211.289,80.901L212.012,81.298L212.734,81.783L213.457,82.145L214.18,82.492L214.902,82.98L215.625,83.353L216.348,83.832L217.07,84.292L217.793,84.697L218.516,85.074L219.238,85.616L219.961,86.016L220.684,86.541L221.406,86.892L222.129,87.423L222.852,87.796L223.574,88.231L224.297,88.851L225.02,89.22L225.742,89.666L226.465,90.119L227.188,90.538L227.91,90.983L228.633,91.554L229.355,91.933L230.078,92.459L230.801,92.828L231.523,93.451L232.246,93.806L232.969,94.272L233.691,94.847L234.414,95.301L235.137,95.793L235.859,96.322L236.582,96.834L237.305,97.329L238.027,97.815L238.75,98.369L239.473,98.785L240.195,99.198L240.918,99.771L241.641,100.388L242.363,100.974L243.086,101.528L243.809,102.045L244.531,102.352L245.254,102.928L245.977,103.445L246.699,103.995L247.422,104.715L248.145,105.046L248.867,105.678L249.59,106.333L250.313,106.822L251.035,107.319L251.758,107.994L252.48,108.466L253.203,108.961L253.926,109.568L254.648,110.183L255.371,110.781L256.094,111.296L256.816,111.981L257.539,112.61L258.262,113.157L258.984,113.798L259.707,114.394L260.43,114.977L261.152,115.562L261.875,116.112L262.598,116.684L263.32,117.304L264.043,118.032L264.766,118.701L265.488,119.431L266.211,120.016L266.934,120.482L267.656,121.227L268.379,121.875L269.102,122.469L269.824,123.198L270.547,123.876L271.27,124.587L271.992,125.317L272.715,126L273.438,126.496L274.16,127.234L274.883,128.082L275.605,128.696L276.328,129.414L277.051,130.219L277.773,130.806L278.496,131.617L279.219,132.321L279.941,133.087L280.664,133.735L281.387,134.477L282.109,135.152L282.832,135.96L283.555,136.723L284.277,137.334L285,138.211L285.723,138.979L286.445,139.899L287.168,140.687L287.891,141.531L288.613,142.32L289.336,142.869L290.059,143.72L290.781,144.533L291.504,145.499L292.227,146.341L292.949,147.182L293.672,147.991L294.395,148.803L295.117,149.685L295.84,150.554L296.563,151.44L297.285,152.212L298.008,153.119L298.73,153.932L299.453,154.956L300.176,155.834L300.898,156.701L301.621,157.537L302.344,158.467L303.066,159.396L303.789,160.343L304.512,161.1L305.234,162.237L305.957,163.106L306.68,164.092L307.402,164.948L308.125,165.955L308.848,166.967L309.57,167.984L310.293,168.889L311.016,169.791L311.738,170.815L312.461,171.84L313.184,172.865L313.906,173.935L314.629,174.851L315.352,175.802L316.074,176.947L316.797,177.91L317.52,179.027L318.242,180.04L318.965,181.098L319.688,182.116L320.41,183.088L321.133,184.109L321.855,185.341L322.578,186.399L323.301,187.431L324.023,188.36L324.746,189.394L325.469,190.628L326.191,191.462L326.914,192.635L327.637,193.6L328.359,194.675L329.082,196.006L329.805,197.169L330.527,198.124L331.25,199.066L331.973,200.164L332.695,201.363L333.418,202.304L334.141,203.572L334.863,204.57L335.586,205.827L336.309,206.973L337.031,208.008L337.754,209.228L338.477,210.252L339.199,211.392L339.922,212.358L340.645,213.726L341.367,214.556L342.09,215.695L342.813,216.844L343.535,217.943L344.258,218.949L344.98,220.249L345.703,221.317L346.426,222.466L347.148,223.447L347.871,224.515L348.594,225.598L349.316,226.562L350.039,227.945L350.762,229.053L351.484,229.958L352.207,231.104L352.93,232.219L353.652,233.216L354.375,234.048L355.098,235.229L355.82,236.461L356.543,237.292L357.266,238.181L357.988,239.606L358.711,240.298L359.434,241.55L360.156,242.437L360.879,243.512L361.602,244.607L362.324,245.524L363.047,246.608L363.77,247.521L364.492,248.398L365.215,249.67L365.938,250.468L366.66,251.454L367.383,252.378L368.105,253.288L368.828,254.409L369.551,255.031L370.273,256.252L370.996,256.831L371.719,257.868L372.441,258.558L373.164,259.538L373.887,260.337L374.609,261.289L375.332,262.359L376.055,262.934L376.777,263.672L377.5,264.624L378.223,265.409L378.945,266.012L379.668,266.959L380.391,267.872L381.113,268.613L381.836,269.128L382.559,269.614L383.281,270.506L384.004,271.36L384.727,272.024L385.449,272.745L386.172,273.417L386.895,273.747L387.617,274.388L388.34,275.612L389.063,275.87L389.785,276.501L390.508,277.062L391.23,277.669L391.953,278.192L392.676,278.643L393.398,279.611L394.121,279.843L394.844,280.267L395.566,280.786L396.289,281.122L397.012,281.754L397.734,282.215L398.457,282.687L399.18,283.364L399.902,283.234L400.625,283.937L401.348,284.045L402.07,284.563L402.793,284.876L403.516,285.578L404.238,285.603L404.961,285.802L405.684,286.232L406.406,286.537L407.129,286.669L407.852,286.882L408.574,287.18L409.297,287.391L410.02,287.639L410.742,287.883L411.465,287.753L412.188,288.22L412.91,288.246L413.633,288.605L414.355,288.567L415.078,288.761L415.801,288.728L416.523,288.923L417.246,288.68L417.969,289.18L418.691,288.871L419.414,288.992L420.137,288.807L420.859,288.873L421.582,288.409L422.305,288.615L423.027,288.732L423.75,288.528L424.473,288.659L425.195,288.544L425.918,288.301L426.641,288.323L427.363,288.105L428.086,288.001L428.809,287.766L429.531,287.362L430.254,287.15L430.977,286.927L431.699,286.621L432.422,286.629L433.145,286.253L433.867,286.085L434.59,286.299L435.313,285.601L436.035,285.408L436.758,284.945L437.48,284.857L438.203,284.128L438.926,283.524L439.648,283.438L440.371,283.193L441.094,282.793L441.816,282.56L442.539,282.131L443.262,281.524L443.984,281.264L444.707,280.604L445.43,280.027L446.152,279.642L446.875,279.408L447.598,278.728L448.32,278.288L449.043,278.06L449.766,277.055L450.488,276.872L451.211,276.208L451.934,275.678L452.656,275.057L453.379,274.522L454.102,274.105L454.824,273.35L455.547,272.642L456.27,272.164L456.992,271.535L457.715,271.042L458.438,270.072L459.16,270.005L459.883,269.119L460.605,268.589L461.328,267.831L462.051,267.426L462.773,266.145L463.496,265.701L464.219,265.188L464.941,264.418L465.664,263.681L466.387,262.837L467.109,262.453L467.832,261.636L468.555,260.493L469.277,259.965"/><path fill="none" stroke="rgb(38, 188, 225)" stroke-width="1.5" d="M100,47.957L100.723,46.935L101.445,46.049L102.168,45.202L102.891,44.431L103.613,43.73L104.336,43.111L105.059,42.456L105.781,41.825L106.504,41.2L107.227,40.711L107.949,40.094L108.672,39.597L109.395,39.06L110.117,38.535L110.84,38.074L111.563,37.574L112.285,37.06L113.008,36.591L113.73,36.149L114.453,35.622L115.176,35.115L115.898,34.571L116.621,34.057L117.344,33.47L118.066,32.908L118.789,32.307L119.512,31.667L120.234,31.022L120.957,30.278L121.68,29.499L122.402,28.958L123.125,29.983L123.848,30.936L124.57,31.809L125.293,32.624L126.016,33.409L126.738,34.095L127.461,34.771L128.184,35.422L128.906,36.073L129.629,36.708L130.352,37.238L131.074,37.833L131.797,38.364L132.52,38.834L133.242,39.368L133.965,39.827L134.688,40.37L135.41,40.771L136.133,41.245L136.855,41.725L137.578,42.133L138.301,42.611L139.023,43.042L139.746,43.431L140.469,43.846L141.191,44.246L141.914,44.597L142.637,44.989L143.359,45.371L144.082,45.785L144.805,46.14L145.527,46.533L146.25,46.903L146.973,47.239L147.695,47.65L148.418,47.947L149.141,48.302L149.863,48.625L150.586,49.063L151.309,49.375L152.031,49.722L152.754,50.059L153.477,50.401L154.199,50.697L154.922,51.058L155.645,51.395L156.367,51.731L157.09,52.096L157.813,52.402L158.535,52.783L159.258,53.121L159.98,53.442L160.703,53.703L161.426,54.091L162.148,54.443L162.871,54.748L163.594,55.057L164.316,55.417L165.039,55.733L165.762,56.028L166.484,56.378L167.207,56.747L167.93,57.045L168.652,57.375L169.375,57.701L170.098,57.974L170.82,58.331L171.543,58.765L172.266,59.099L172.988,59.298L173.711,59.644L174.434,59.975L175.156,60.38L175.879,60.721L176.602,61.03L177.324,61.365L178.047,61.687L178.77,61.983L179.492,62.397L180.215,62.809L180.938,63.008L181.66,63.341L182.383,63.735L183.105,64.097L183.828,64.464L184.551,64.647L185.273,65.115L185.996,65.412L186.719,65.795L187.441,66.062L188.164,66.421L188.887,66.931L189.609,67.255L190.332,67.518L191.055,67.938L191.777,68.264L192.5,68.613L193.223,68.975L193.945,69.341L194.668,69.638L195.391,69.998L196.113,70.412L196.836,70.812L197.559,71.162L198.281,71.486L199.004,71.882L199.727,72.256L200.449,72.717L201.172,72.998L201.895,73.34L202.617,73.788L203.34,74.141L204.063,74.544L204.785,74.936L205.508,75.271L206.23,75.607L206.953,76.081L207.676,76.488L208.398,76.828L209.121,77.243L209.844,77.65L210.566,78.03L211.289,78.446L212.012,78.942L212.734,79.178L213.457,79.629L214.18,80.007L214.902,80.507L215.625,80.9L216.348,81.249L217.07,81.652L217.793,82.11L218.516,82.572L219.238,82.87L219.961,83.357L220.684,83.749L221.406,84.219L222.129,84.589L222.852,85.072L223.574,85.495L224.297,85.886L225.02,86.322L225.742,86.782L226.465,87.276L227.188,87.781L227.91,88.101L228.633,88.554L229.355,89.11L230.078,89.454L230.801,89.968L231.523,90.353L232.246,90.866L232.969,91.251L233.691,91.72L234.414,92.229L235.137,92.695L235.859,93.093L236.582,93.674L237.305,94.1L238.027,94.612L238.75,95.01L239.473,95.463L240.195,95.947L240.918,96.575L241.641,97.033L242.363,97.434L243.086,97.861L243.809,98.508L244.531,98.96L245.254,99.415L245.977,99.997L246.699,100.455L247.422,100.896L248.145,101.526L248.867,101.886L249.59,102.608L250.313,103.094L251.035,103.458L251.758,104.051L252.48,104.558L253.203,105.169L253.926,105.617L254.648,106.155L255.371,106.601L256.094,107.231L256.816,107.822L257.539,108.309L258.262,108.911L258.984,109.45L259.707,110.054L260.43,110.627L261.152,111.197L261.875,111.552L262.598,112.353L263.32,112.758L264.043,113.358L264.766,113.984L265.488,114.689L266.211,115.074L266.934,115.653L267.656,116.2L268.379,116.797L269.102,117.629L269.824,117.952L270.547,118.539L271.27,119.256L271.992,119.906L272.715,120.539L273.438,121.08L274.16,121.721L274.883,122.239L275.605,122.903L276.328,123.575L277.051,124.166L277.773,124.772L278.496,125.461L279.219,126.158L279.941,126.79L280.664,127.414L281.387,128.139L282.109,128.762L282.832,129.299L283.555,129.966L284.277,130.752L285,131.377L285.723,132.138L286.445,132.891L287.168,133.478L287.891,133.985L288.613,134.723L289.336,135.498L290.059,136.181L290.781,136.954L291.504,137.753L292.227,138.272L292.949,138.895L293.672,139.77L294.395,140.525L295.117,141.002L295.84,141.888L296.563,142.496L297.285,143.397L298.008,144.121L298.73,144.719L299.453,145.618L300.176,146.227L300.898,146.974L301.621,147.758L302.344,148.414L303.066,149.28L303.789,150.046L304.512,150.849L305.234,151.59L305.957,152.329L306.68,153.085L307.402,153.8L308.125,154.553L308.848,155.41L309.57,156.199L310.293,156.897L311.016,157.705L311.738,158.444L312.461,159.35L313.184,160.009L313.906,160.952L314.629,161.586L315.352,162.422L316.074,163.379L316.797,163.977L317.52,164.791L318.242,165.718L318.965,166.369L319.688,167.225L320.41,168.162L321.133,168.965L321.855,169.716L322.578,170.549L323.301,171.365L324.023,172.124L324.746,173.017L325.469,173.697L326.191,174.591L326.914,175.446L327.637,176.181L328.359,177.142L329.082,177.919L329.805,178.67L330.527,179.677L331.25,180.302L331.973,181.109L332.695,181.994L333.418,182.901L334.141,183.556L334.863,184.367L335.586,185.383L336.309,185.975L337.031,186.919L337.754,187.842L338.477,188.659L339.199,189.459L339.922,190.135L340.645,190.899L341.367,191.787L342.09,192.351L342.813,193.388L343.535,194.131L344.258,194.858L344.98,195.812L345.703,196.613L346.426,197.268L347.148,198.214L347.871,198.957L348.594,199.531L349.316,200.421L350.039,201.234L350.762,201.82L351.484,202.791L352.207,203.459L352.93,204.082L353.652,204.732L354.375,205.546L355.098,206.571L355.82,207.126L356.543,207.949L357.266,208.616L357.988,209.323L358.711,209.984L359.434,210.834L360.156,211.401L360.879,211.982L361.602,212.931L362.324,213.476L363.047,214.123L363.77,214.902L364.492,215.574L365.215,216.214L365.938,216.865L366.66,217.785L367.383,217.963L368.105,218.583L368.828,219.446L369.551,219.997L370.273,220.565L370.996,220.881L371.719,221.708L372.441,222.131L373.164,222.793L373.887,223.22L374.609,223.905L375.332,224.46L376.055,224.907L376.777,225.63L377.5,226.015L378.223,226.365L378.945,227.462L379.668,227.644L380.391,228.033L381.113,228.428L381.836,229.096L382.559,229.465L383.281,229.961L384.004,230.344L384.727,230.547L385.449,231.11L386.172,231.692L386.895,231.927L387.617,232.184L388.34,232.647L389.063,233.149L389.785,233.608L390.508,233.89L391.23,234.132L391.953,234.483L392.676,234.508L393.398,235.006L394.121,235.413L394.844,235.562L395.566,235.77L396.289,235.82L397.012,236.261L397.734,236.417L398.457,236.903L399.18,237.096L399.902,237.095L400.625,237.207L401.348,237.538L402.07,237.531L402.793,238.061L403.516,238.189L404.238,237.99L404.961,238.215L405.684,238.43L406.406,238.578L407.129,238.593L407.852,238.601L408.574,238.563L409.297,238.694L410.02,238.652L410.742,238.627L411.465,238.755L412.188,238.698L412.91,238.935L413.633,238.557L414.355,238.918L415.078,238.843L415.801,238.554L416.523,238.783L417.246,238.569L417.969,238.51L418.691,238.27L419.414,238.429L420.137,238.255L420.859,238.267L421.582,237.994L422.305,237.726L423.027,237.878L423.75,237.586L424.473,237.244L425.195,237.076L425.918,236.938L426.641,236.798L427.363,236.592L428.086,236.226L428.809,235.965L429.531,235.772L430.254,235.595L430.977,235.451L431.699,234.917L432.422,234.661L433.145,234.512L433.867,233.924L434.59,233.859L435.313,233.437L436.035,233.036L436.758,232.883L437.48,232.39L438.203,232.227L438.926,231.763L439.648,231.334L440.371,230.912L441.094,230.494L441.816,230.434L442.539,229.685L443.262,229.33L443.984,228.884L444.707,228.663L445.43,228.207L446.152,227.944L446.875,227.098L447.598,226.741L448.32,226.167L449.043,225.722L449.766,225.257L450.488,224.688L451.211,224.387L451.934,224.032L452.656,223.315L453.379,222.873L454.102,222.447L454.824,221.484L455.547,221.096L456.27,220.651L456.992,220.124L457.715,219.191L458.438,219.066L459.16,218.341L459.883,217.819L460.605,217.358L461.328,216.679L462.051,216.034L462.773,215.475L463.496,215.009L464.219,214.548L464.941,213.809L465.664,212.918L466.387,212.519L467.109,211.992L467.832,211.233L468.555,210.522L469.277,210.015"/><path fill="none" stroke="rgb(63, 243, 147)" stroke-width="1.5" d="M100,47.904L100.723,46.898L101.445,45.988L102.168,45.13L102.891,44.331L103.613,43.531L104.336,42.922L105.059,42.136L105.781,41.567L106.504,40.976L107.227,40.295L107.949,39.764L108.672,39.224L109.395,38.693L110.117,38.136L110.84,37.594L111.563,37.039L112.285,36.487L113.008,35.955L113.73,35.506L114.453,34.933L115.176,34.403L115.898,33.821L116.621,33.246L117.344,32.673L118.066,32.108L118.789,31.434L119.512,30.777L120.234,30.098L120.957,29.281L121.68,28.474L122.402,28.033L123.125,29.019L123.848,29.871L124.57,30.716L125.293,31.449L126.016,32.16L126.738,32.865L127.461,33.547L128.184,34.147L128.906,34.785L129.629,35.392L130.352,35.939L131.074,36.483L131.797,36.921L132.52,37.464L133.242,37.902L133.965,38.374L134.688,38.875L135.41,39.272L136.133,39.667L136.855,40.183L137.578,40.51L138.301,40.889L139.023,41.307L139.746,41.745L140.469,42.06L141.191,42.524L141.914,42.839L142.637,43.249L143.359,43.585L144.082,43.974L144.805,44.312L145.527,44.611L146.25,44.954L146.973,45.371L147.695,45.659L148.418,46.051L149.141,46.339L149.863,46.636L150.586,46.956L151.309,47.293L152.031,47.667L152.754,48.004L153.477,48.246L154.199,48.556L154.922,48.834L155.645,49.183L156.367,49.535L157.09,49.769L157.813,50.165L158.535,50.541L159.258,50.784L159.98,51.081L160.703,51.331L161.426,51.671L162.148,51.997L162.871,52.262L163.594,52.597L164.316,52.968L165.039,53.276L165.762,53.579L166.484,53.844L167.207,54.168L167.93,54.419L168.652,54.69L169.375,55.091L170.098,55.352L170.82,55.691L171.543,55.953L172.266,56.26L172.988,56.572L173.711,56.881L174.434,57.256L175.156,57.53L175.879,57.841L176.602,58.154L177.324,58.45L178.047,58.823L178.77,59.142L179.492,59.414L180.215,59.778L180.938,59.98L181.66,60.351L182.383,60.63L183.105,61.013L183.828,61.372L184.551,61.657L185.273,61.976L185.996,62.274L186.719,62.64L187.441,62.948L188.164,63.338L188.887,63.614L189.609,63.932L190.332,64.234L191.055,64.572L191.777,64.945L192.5,65.299L193.223,65.629L193.945,65.911L194.668,66.234L195.391,66.591L196.113,66.969L196.836,67.304L197.559,67.684L198.281,68.049L199.004,68.358L199.727,68.714L200.449,69.061L201.172,69.43L201.895,69.741L202.617,70.139L203.34,70.466L204.063,70.768L204.785,71.281L205.508,71.606L206.23,71.958L206.953,72.248L207.676,72.66L208.398,73.016L209.121,73.456L209.844,73.752L210.566,74.174L211.289,74.528L212.012,74.907L212.734,75.273L213.457,75.72L214.18,76.024L214.902,76.323L215.625,76.885L216.348,77.132L217.07,77.46L217.793,77.955L218.516,78.375L219.238,78.829L219.961,79.179L220.684,79.59L221.406,79.972L222.129,80.426L222.852,80.759L223.574,81.169L224.297,81.549L225.02,82.024L225.742,82.433L226.465,82.84L227.188,83.214L227.91,83.695L228.633,84.091L229.355,84.62L230.078,84.953L230.801,85.288L231.523,85.695L232.246,86.217L232.969,86.593L233.691,87.051L234.414,87.569L235.137,87.922L235.859,88.407L236.582,88.876L237.305,89.265L238.027,89.718L238.75,90.2L239.473,90.584L240.195,91.029L240.918,91.577L241.641,91.962L242.363,92.434L243.086,92.798L243.809,93.298L244.531,93.9L245.254,94.359L245.977,94.727L246.699,95.201L247.422,95.68L248.145,96.126L248.867,96.607L249.59,97.219L250.313,97.568L251.035,98.063L251.758,98.556L252.48,99.064L253.203,99.529L253.926,99.922L254.648,100.527L255.371,100.928L256.094,101.526L256.816,101.859L257.539,102.404L258.262,103.023L258.984,103.415L259.707,104.02L260.43,104.477L261.152,104.981L261.875,105.43L262.598,105.93L263.32,106.559L264.043,107.196L264.766,107.652L265.488,108.172L266.211,108.623L266.934,109.169L267.656,109.657L268.379,110.283L269.102,110.836L269.824,111.428L270.547,111.929L271.27,112.519L271.992,112.996L272.715,113.396L273.438,114.132L274.16,114.673L274.883,115.312L275.605,115.672L276.328,116.281L277.051,116.823L277.773,117.433L278.496,117.92L279.219,118.564L279.941,119.167L280.664,119.629L281.387,120.209L282.109,120.889L282.832,121.358L283.555,122.056L284.277,122.667L285,123.232L285.723,123.783L286.445,124.369L287.168,125.002L287.891,125.597L288.613,126.196L289.336,126.714L290.059,127.409L290.781,127.954L291.504,128.612L292.227,129.172L292.949,129.679L293.672,130.408L294.395,131.004L295.117,131.63L295.84,132.238L296.563,132.895L297.285,133.465L298.008,134.043L298.73,134.672L299.453,135.309L300.176,136.029L300.898,136.705L301.621,137.173L302.344,137.963L303.066,138.44L303.789,139.131L304.512,139.504L305.234,140.282L305.957,140.854L306.68,141.57L307.402,142.27L308.125,142.871L308.848,143.502L309.57,144.085L310.293,144.733L311.016,145.369L311.738,146.044L312.461,146.781L313.184,147.106L313.906,147.944L314.629,148.448L315.352,149.174L316.074,149.76L316.797,150.389L317.52,150.965L318.242,151.777L318.965,152.37L319.688,152.81L320.41,153.747L321.133,154.226L321.855,154.862L322.578,155.527L323.301,156.094L324.023,156.692L324.746,157.423L325.469,158.018L326.191,158.663L326.914,159.128L327.637,159.951L328.359,160.341L329.082,161.244L329.805,161.815L330.527,162.245L331.25,162.873L331.973,163.562L332.695,164.063L333.418,164.65L334.141,165.291L334.863,166.078L335.586,166.546L336.309,167.146L337.031,167.708L337.754,168.381L338.477,168.939L339.199,169.522L339.922,169.99L340.645,170.39L341.367,171.253L342.09,171.701L342.813,172.227L343.535,172.755L344.258,173.332L344.98,173.703L345.703,174.252L346.426,174.889L347.148,175.473L347.871,175.966L348.594,176.566L349.316,177.144L350.039,177.66L350.762,177.972L351.484,178.733L352.207,178.97L352.93,179.614L353.652,180.228L354.375,180.605L355.098,181.036L355.82,181.574L356.543,181.951L357.266,182.449L357.988,182.98L358.711,183.512L359.434,183.809L360.156,184.381L360.879,184.73L361.602,184.997L362.324,185.5L363.047,185.786L363.77,186.195L364.492,186.813L365.215,187.117L365.938,187.621L366.66,187.913L367.383,188.036L368.105,188.733L368.828,188.912L369.551,189.386L370.273,189.733L370.996,190.102L371.719,190.401L372.441,190.637L373.164,191.015L373.887,191.246L374.609,191.65L375.332,191.865L376.055,192.008L376.777,192.201L377.5,192.706L378.223,193.013L378.945,193.117L379.668,193.173L380.391,193.637L381.113,193.872L381.836,194.033L382.559,194.23L383.281,194.564L384.004,194.63L384.727,194.696L385.449,195.173L386.172,195.179L386.895,195.299L387.617,195.614L388.34,195.543L389.063,195.743L389.785,195.88L390.508,195.96L391.23,196.24L391.953,196.144L392.676,196.52L393.398,196.331L394.121,196.48L394.844,196.24L395.566,196.566L396.289,196.625L397.012,196.504L397.734,196.831L398.457,196.748L399.18,196.683L399.902,196.74L400.625,196.742L401.348,196.713L402.07,196.504L402.793,196.668L403.516,196.507L404.238,196.518L404.961,196.206L405.684,196.176L406.406,196.196L407.129,196.156L407.852,195.93L408.574,196.064L409.297,195.81L410.02,195.599L410.742,195.513L411.465,195.333L412.188,195.158L412.91,195.168L413.633,195.023L414.355,194.707L415.078,194.641L415.801,194.436L416.523,194.237L417.246,193.828L417.969,193.723L418.691,193.392L419.414,193.561L420.137,193.269L420.859,192.859L421.582,192.61L422.305,192.314L423.027,192.323L423.75,191.777L424.473,191.548L425.195,191.332L425.918,191.185L426.641,190.778L427.363,190.327L428.086,189.899L428.809,189.767L429.531,189.41L430.254,189.004L430.977,188.961L431.699,188.465L432.422,187.973L433.145,187.703L433.867,187.478L434.59,186.971L435.313,186.786L436.035,186.172L436.758,185.839L437.48,185.48L438.203,185.104L438.926,184.884L439.648,184.375L440.371,183.803L441.094,183.711L441.816,183.04L442.539,182.556L443.262,182.222L443.984,181.842L444.707,181.422L445.43,180.871L446.152,180.416L446.875,180.063L447.598,179.486L448.32,179.005L449.043,178.633L449.766,177.88L450.488,177.668L451.211,177.212L451.934,176.628L452.656,176.12L453.379,175.506L454.102,175.102L454.824,174.622L455.547,174.189L456.27,173.409L456.992,172.945L457.715,172.619L458.438,172.124L459.16,171.674L459.883,171.043L460.605,170.732L461.328,169.955L462.051,169.643L462.773,169.017L463.496,168.333L464.219,168.157L464.941,167.381L465.664,166.731L466.387,166.364L467.109,165.715L467.832,165.092L468.555,164.415L469.277,164.188"/><path fill="none" stroke="rgb(149, 251, 81)" stroke-width="1.5" d="M100,47.61L100.723,46.65L101.445,45.785L102.168,44.881L102.891,44.048L103.613,43.286L104.336,42.488L105.059,41.863L105.781,41.162L106.504,40.474L107.227,39.888L107.949,39.274L108.672,38.589L109.395,38.02L110.117,37.433L110.84,36.886L111.563,36.283L112.285,35.746L113.008,35.141L113.73,34.567L114.453,33.995L115.176,33.398L115.898,32.773L116.621,32.206L117.344,31.523L118.066,30.913L118.789,30.176L119.512,29.507L120.234,28.634L120.957,27.812L121.68,26.932L122.402,26.949L123.125,27.787L123.848,28.653L124.57,29.378L125.293,30.132L126.016,30.741L126.738,31.432L127.461,32.012L128.184,32.684L128.906,33.134L129.629,33.665L130.352,34.158L131.074,34.659L131.797,35.096L132.52,35.589L133.242,35.994L133.965,36.423L134.688,36.851L135.41,37.274L136.133,37.611L136.855,38.023L137.578,38.442L138.301,38.759L139.023,39.085L139.746,39.496L140.469,39.767L141.191,40.147L141.914,40.456L142.637,40.829L143.359,41.096L144.082,41.398L144.805,41.711L145.527,42.039L146.25,42.335L146.973,42.611L147.695,43.038L148.418,43.262L149.141,43.588L149.863,43.844L150.586,44.11L151.309,44.45L152.031,44.682L152.754,44.96L153.477,45.321L154.199,45.556L154.922,45.877L155.645,46.13L156.367,46.384L157.09,46.656L157.813,46.95L158.535,47.225L159.258,47.5L159.98,47.72L160.703,47.997L161.426,48.313L162.148,48.566L162.871,48.83L163.594,49.17L164.316,49.395L165.039,49.664L165.762,49.909L166.484,50.255L167.207,50.533L167.93,50.805L168.652,51.022L169.375,51.399L170.098,51.643L170.82,51.929L171.543,52.146L172.266,52.447L172.988,52.703L173.711,53.012L174.434,53.222L175.156,53.539L175.879,53.827L176.602,54.051L177.324,54.367L178.047,54.688L178.77,54.989L179.492,55.298L180.215,55.599L180.938,55.893L181.66,56.078L182.383,56.467L183.105,56.657L183.828,56.945L184.551,57.302L185.273,57.619L185.996,57.89L186.719,58.161L187.441,58.501L188.164,58.801L188.887,59.124L189.609,59.447L190.332,59.706L191.055,60.033L191.777,60.357L192.5,60.612L193.223,60.992L193.945,61.259L194.668,61.578L195.391,61.941L196.113,62.317L196.836,62.542L197.559,62.852L198.281,63.166L199.004,63.465L199.727,63.811L200.449,64.129L201.172,64.479L201.895,64.824L202.617,65.127L203.34,65.484L204.063,65.791L204.785,66.094L205.508,66.495L206.23,66.8L206.953,67.157L207.676,67.57L208.398,67.939L209.121,68.273L209.844,68.548L210.566,68.946L211.289,69.234L212.012,69.657L212.734,69.962L213.457,70.379L214.18,70.732L214.902,71.117L215.625,71.44L216.348,71.838L217.07,72.214L217.793,72.605L218.516,72.956L219.238,73.31L219.961,73.714L220.684,74.115L221.406,74.423L222.129,74.908L222.852,75.177L223.574,75.68L224.297,76.003L225.02,76.416L225.742,76.786L226.465,77.164L227.188,77.694L227.91,78.06L228.633,78.299L229.355,78.887L230.078,79.257L230.801,79.619L231.523,79.983L232.246,80.451L232.969,80.883L233.691,81.305L234.414,81.63L235.137,82.165L235.859,82.577L236.582,82.84L237.305,83.374L238.027,83.749L238.75,84.162L239.473,84.693L240.195,85.083L240.918,85.46L241.641,85.949L242.363,86.323L243.086,86.81L243.809,87.315L244.531,87.812L245.254,88.067L245.977,88.528L246.699,89.078L247.422,89.505L248.145,89.939L248.867,90.418L249.59,90.933L250.313,91.355L251.035,91.788L251.758,92.256L252.48,92.781L253.203,93.162L253.926,93.622L254.648,94.225L255.371,94.602L256.094,95.032L256.816,95.46L257.539,95.967L258.262,96.444L258.984,96.969L259.707,97.425L260.43,97.875L261.152,98.316L261.875,98.943L262.598,99.298L263.32,99.869L264.043,100.349L264.766,100.773L265.488,101.414L266.211,101.842L266.934,102.44L267.656,102.87L268.379,103.317L269.102,104.053L269.824,104.331L270.547,104.834L271.27,105.35L271.992,106.063L272.715,106.433L273.438,106.924L274.16,107.426L274.883,107.912L275.605,108.405L276.328,108.935L277.051,109.526L277.773,110.026L278.496,110.594L279.219,111.151L279.941,111.605L280.664,112.075L281.387,112.532L282.109,113.211L282.832,113.66L283.555,114.184L284.277,114.682L285,115.089L285.723,115.594L286.445,116.208L287.168,116.602L287.891,117.209L288.613,117.681L289.336,118.254L290.059,118.741L290.781,119.251L291.504,119.806L292.227,120.236L292.949,120.965L293.672,121.327L294.395,121.863L295.117,122.324L295.84,122.854L296.563,123.435L297.285,123.989L298.008,124.33L298.73,124.948L299.453,125.428L300.176,126.064L300.898,126.326L301.621,126.968L302.344,127.641L303.066,128.183L303.789,128.436L304.512,129.054L305.234,129.564L305.957,129.956L306.68,130.374L307.402,130.89L308.125,131.468L308.848,131.842L309.57,132.522L310.293,133.091L311.016,133.362L311.738,133.897L312.461,134.451L313.184,134.88L313.906,135.234L314.629,135.644L315.352,136.253L316.074,136.919L316.797,137.174L317.52,137.723L318.242,138.089L318.965,138.605L319.688,139.07L320.41,139.637L321.133,139.93L321.855,140.403L322.578,140.93L323.301,141.228L324.023,141.764L324.746,142.162L325.469,142.559L326.191,142.988L326.914,143.459L327.637,143.926L328.359,144.237L329.082,144.601L329.805,144.994L330.527,145.478L331.25,145.721L331.973,146.362L332.695,146.633L333.418,147.084L334.141,147.395L334.863,147.868L335.586,148.202L336.309,148.514L337.031,148.809L337.754,149.268L338.477,149.515L339.199,149.925L339.922,150.218L340.645,150.523L341.367,150.883L342.09,151.161L342.813,151.648L343.535,151.951L344.258,152.279L344.98,152.422L345.703,152.6L346.426,153.141L347.148,153.598L347.871,153.663L348.594,153.95L349.316,154.088L350.039,154.4L350.762,154.762L351.484,154.958L352.207,155.21L352.93,155.469L353.652,155.677L354.375,155.852L355.098,156.184L355.82,156.416L356.543,156.478L357.266,156.79L357.988,156.869L358.711,157.223L359.434,157.427L360.156,157.464L360.879,157.696L361.602,157.767L362.324,157.921L363.047,158.105L363.77,158.251L364.492,158.36L365.215,158.608L365.938,158.538L366.66,158.739L367.383,158.778L368.105,158.969L368.828,159.155L369.551,159.201L370.273,159.111L370.996,159.248L371.719,159.295L372.441,159.375L373.164,159.313L373.887,159.46L374.609,159.51L375.332,159.722L376.055,159.727L376.777,159.776L377.5,159.566L378.223,159.802L378.945,159.691L379.668,159.677L380.391,159.535L381.113,159.541L381.836,159.472L382.559,159.488L383.281,159.588L384.004,159.45L384.727,159.22L385.449,159.296L386.172,159.051L386.895,158.996L387.617,159.092L388.34,158.878L389.063,158.653L389.785,158.76L390.508,158.677L391.23,158.569L391.953,158.445L392.676,158.307L393.398,158.09L394.121,157.909L394.844,157.851L395.566,157.628L396.289,157.447L397.012,157.349L397.734,157.075L398.457,156.983L399.18,156.859L399.902,156.631L400.625,156.401L401.348,156.154L402.07,155.943L402.793,155.642L403.516,155.443L404.238,155.436L404.961,155.039L405.684,154.85L406.406,154.55L407.129,154.408L407.852,154.206L408.574,153.917L409.297,153.551L410.02,153.218L410.742,152.959L411.465,152.525L412.188,152.368L412.91,152.139L413.633,151.818L414.355,151.606L415.078,151.294L415.801,150.923L416.523,150.592L417.246,150.369L417.969,149.977L418.691,149.677L419.414,149.467L420.137,148.936L420.859,148.727L421.582,148.266L422.305,148.057L423.027,147.601L423.75,147.337L424.473,146.794L425.195,146.627L425.918,146.208L426.641,145.816L427.363,145.469L428.086,145.179L428.809,144.922L429.531,144.384L430.254,143.974L430.977,143.656L431.699,143.075L432.422,142.685L433.145,142.206L433.867,142.017L434.59,141.567L435.313,141.21L436.035,140.735L436.758,140.464L437.48,140.003L438.203,139.508L438.926,139.186L439.648,138.711L440.371,138.364L441.094,138.013L441.816,137.574L442.539,137.033L443.262,136.599L443.984,135.968L444.707,135.653L445.43,135.206L446.152,135.001L446.875,134.325L447.598,133.955L448.32,133.665L449.043,133.076L449.766,132.839L450.488,132.144L451.211,131.771L451.934,131.382L452.656,130.911L453.379,130.443L454.102,129.966L454.824,129.536L455.547,129.141L456.27,128.637L456.992,128.032L457.715,127.722L458.438,127.266L459.16,126.861L459.883,126.36L460.605,125.978L461.328,125.447L462.051,124.983L462.773,124.43L463.496,124.025L464.219,123.615L464.941,122.957L465.664,122.808L466.387,122.264L467.109,121.78L467.832,121.174L468.555,120.651L469.277,120.191"/><path fill="none" stroke="rgb(236, 209, 46)" stroke-width="1.5" d="M100,47.11L100.723,46.195L101.445,45.231L102.168,44.416L102.891,43.548L103.613,42.848L104.336,42.052L105.059,41.34L105.781,40.644L106.504,39.956L107.227,39.269L107.949,38.658L108.672,37.969L109.395,37.344L110.117,36.789L110.84,36.215L111.563,35.56L112.285,34.926L113.008,34.245L113.73,33.664L114.453,33.083L115.176,32.348L115.898,31.727L116.621,31.05L117.344,30.408L118.066,29.677L118.789,28.867L119.512,28.052L120.234,27.236L120.957,26.234L121.68,25.253L122.402,26.03L123.125,26.867L123.848,27.597L124.57,28.296L125.293,28.884L126.016,29.469L126.738,30.082L127.461,30.636L128.184,31.108L128.906,31.604L129.629,32.088L130.352,32.494L131.074,32.829L131.797,33.292L132.52,33.636L133.242,34.012L133.965,34.317L134.688,34.716L135.41,34.991L136.133,35.366L136.855,35.651L137.578,36.027L138.301,36.276L139.023,36.561L139.746,36.749L140.469,37.082L141.191,37.379L141.914,37.609L142.637,37.896L143.359,38.111L144.082,38.377L144.805,38.614L145.527,38.821L146.25,39.014L146.973,39.368L147.695,39.53L148.418,39.824L149.141,40.01L149.863,40.231L150.586,40.475L151.309,40.691L152.031,40.928L152.754,41.144L153.477,41.315L154.199,41.563L154.922,41.75L155.645,41.938L156.367,42.228L157.09,42.372L157.813,42.612L158.535,42.814L159.258,43.072L159.98,43.225L160.703,43.475L161.426,43.643L162.148,43.94L162.871,44.076L163.594,44.33L164.316,44.504L165.039,44.776L165.762,44.908L166.484,45.216L167.207,45.407L167.93,45.575L168.652,45.723L169.375,46.001L170.098,46.24L170.82,46.459L171.543,46.693L172.266,46.884L172.988,47.177L173.711,47.372L174.434,47.535L175.156,47.848L175.879,48.005L176.602,48.261L177.324,48.547L178.047,48.757L178.77,49.063L179.492,49.266L180.215,49.461L180.938,49.795L181.66,50.02L182.383,50.298L183.105,50.406L183.828,50.762L184.551,51.053L185.273,51.289L185.996,51.512L186.719,51.733L187.441,52.06L188.164,52.212L188.887,52.564L189.609,52.754L190.332,53.136L191.055,53.418L191.777,53.694L192.5,53.991L193.223,54.178L193.945,54.508L194.668,54.8L195.391,55.093L196.113,55.382L196.836,55.624L197.559,55.951L198.281,56.309L199.004,56.505L199.727,56.858L200.449,57.256L201.172,57.445L201.895,57.787L202.617,58.128L203.34,58.357L204.063,58.623L204.785,59.048L205.508,59.349L206.23,59.679L206.953,59.988L207.676,60.235L208.398,60.55L209.121,60.953L209.844,61.286L210.566,61.672L211.289,62.019L212.012,62.296L212.734,62.66L213.457,62.953L214.18,63.376L214.902,63.707L215.625,64.026L216.348,64.416L217.07,64.85L217.793,65.076L218.516,65.471L219.238,65.893L219.961,66.148L220.684,66.587L221.406,67.004L222.129,67.416L222.852,67.72L223.574,68.154L224.297,68.488L225.02,68.89L225.742,69.277L226.465,69.681L227.188,70.069L227.91,70.463L228.633,70.792L229.355,71.265L230.078,71.603L230.801,71.987L231.523,72.48L232.246,72.862L232.969,73.33L233.691,73.687L234.414,74.094L235.137,74.422L235.859,74.998L236.582,75.305L237.305,75.718L238.027,76.077L238.75,76.618L239.473,77.004L240.195,77.455L240.918,77.946L241.641,78.322L242.363,78.766L243.086,79.201L243.809,79.645L244.531,80.074L245.254,80.526L245.977,80.936L246.699,81.394L247.422,81.881L248.145,82.298L248.867,82.763L249.59,83.194L250.313,83.631L251.035,84.147L251.758,84.579L252.48,85.07L253.203,85.516L253.926,86.04L254.648,86.426L255.371,86.836L256.094,87.412L256.816,87.865L257.539,88.283L258.262,88.689L258.984,89.189L259.707,89.66L260.43,90.154L261.152,90.508L261.875,90.92L262.598,91.458L263.32,91.94L264.043,92.457L264.766,92.785L265.488,93.367L266.211,93.887L266.934,94.269L267.656,94.741L268.379,95.149L269.102,95.681L269.824,96.062L270.547,96.563L271.27,96.915L271.992,97.397L272.715,97.83L273.438,98.361L274.16,98.685L274.883,99.19L275.605,99.625L276.328,99.986L277.051,100.407L277.773,100.839L278.496,101.386L279.219,101.729L279.941,102.25L280.664,102.653L281.387,103.016L282.109,103.4L282.832,103.815L283.555,104.311L284.277,104.791L285,105.13L285.723,105.446L286.445,106.055L287.168,106.228L287.891,106.695L288.613,107.12L289.336,107.451L290.059,107.899L290.781,108.182L291.504,108.54L292.227,109.004L292.949,109.37L293.672,109.752L294.395,110.166L295.117,110.508L295.84,110.978L296.563,111.211L297.285,111.567L298.008,111.822L298.73,112.256L299.453,112.55L300.176,112.829L300.898,113.307L301.621,113.574L302.344,113.906L303.066,114.264L303.789,114.513L304.512,114.727L305.234,115.151L305.957,115.427L306.68,115.634L307.402,116.024L308.125,116.378L308.848,116.633L309.57,116.847L310.293,117.149L311.016,117.33L311.738,117.701L312.461,117.829L313.184,118.031L313.906,118.343L314.629,118.705L315.352,118.818L316.074,119.111L316.797,119.401L317.52,119.536L318.242,119.777L318.965,119.951L319.688,120.204L320.41,120.411L321.133,120.684L321.855,120.746L322.578,121.059L323.301,121.06L324.023,121.303L324.746,121.456L325.469,121.608L326.191,121.822L326.914,121.859L327.637,122.054L328.359,122.128L329.082,122.275L329.805,122.431L330.527,122.664L331.25,122.756L331.973,122.873L332.695,122.926L333.418,123.126L334.141,123.098L334.863,123.197L335.586,123.312L336.309,123.292L337.031,123.439L337.754,123.444L338.477,123.516L339.199,123.612L339.922,123.642L340.645,123.718L341.367,123.824L342.09,123.802L342.813,123.689L343.535,123.851L344.258,123.863L344.98,123.711L345.703,123.832L346.426,123.759L347.148,123.886L347.871,123.843L348.594,123.857L349.316,123.693L350.039,123.826L350.762,123.746L351.484,123.685L352.207,123.614L352.93,123.551L353.652,123.544L354.375,123.398L355.098,123.373L355.82,123.206L356.543,123.27L357.266,122.975L357.988,122.967L358.711,122.995L359.434,122.82L360.156,122.685L360.879,122.643L361.602,122.501L362.324,122.31L363.047,122.287L363.77,122.008L364.492,121.985L365.215,121.809L365.938,121.573L366.66,121.615L367.383,121.349L368.105,121.277L368.828,121.137L369.551,120.91L370.273,120.649L370.996,120.614L371.719,120.381L372.441,120.305L373.164,120.101L373.887,119.657L374.609,119.613L375.332,119.378L376.055,119.133L376.777,119.039L377.5,118.632L378.223,118.524L378.945,118.279L379.668,118.19L380.391,117.937L381.113,117.63L381.836,117.418L382.559,117.088L383.281,117.005L384.004,116.563L384.727,116.469L385.449,116.191L386.172,116.003L386.895,115.672L387.617,115.436L388.34,115.106L389.063,114.884L389.785,114.546L390.508,114.39L391.23,113.955L391.953,113.698L392.676,113.504L393.398,113.205L394.121,112.987L394.844,112.655L395.566,112.286L396.289,112.103L397.012,111.763L397.734,111.47L398.457,111.116L399.18,110.829L399.902,110.601L400.625,110.308L401.348,109.904L402.07,109.67L402.793,109.317L403.516,109.155L404.238,108.732L404.961,108.428L405.684,107.904L406.406,107.685L407.129,107.38L407.852,107.068L408.574,106.576L409.297,106.421L410.02,106.213L410.742,105.67L411.465,105.472L412.188,105.009L412.91,104.894L413.633,104.456L414.355,104.043L415.078,103.719L415.801,103.315L416.523,102.859L417.246,102.667L417.969,102.36L418.691,102.034L419.414,101.602L420.137,101.305L420.859,101.002L421.582,100.57L422.305,100.376L423.027,99.872L423.75,99.516L424.473,99.066L425.195,98.871L425.918,98.513L426.641,98.019L427.363,97.862L428.086,97.423L428.809,97.177L429.531,96.618L430.254,96.374L430.977,96.04L431.699,95.639L432.422,95.194L433.145,95.077L433.867,94.576L434.59,94.06L435.313,93.869L436.035,93.399L436.758,93.155L437.48,92.663L438.203,92.457L438.926,91.982L439.648,91.81L440.371,91.27L441.094,90.955L441.816,90.57L442.539,90.272L443.262,89.806L443.984,89.483L444.707,89.21L445.43,88.822L446.152,88.424L446.875,88.195L447.598,87.673L448.32,87.387L449.043,86.859L449.766,86.614L450.488,86.389L451.211,86.01L451.934,85.543L452.656,85.255L453.379,84.838L454.102,84.59L454.824,84.131L455.547,83.874L456.27,83.386L456.992,83.012L457.715,82.853L458.438,82.534L459.16,82.078L459.883,81.8L460.605,81.402L461.328,80.954L462.051,80.555L462.773,80.313L463.496,80.012L464.219,79.622L464.941,79.3L465.664,78.947L466.387,78.646L467.109,78.227L467.832,77.969L468.555,77.539L469.277,77.201"/><path fill="none" stroke="rgb(255, 130, 29)" stroke-width="1.5" d="M100,46.026L100.723,45.153L101.445,44.239L102.168,43.396L102.891,42.674L103.613,41.874L104.336,41.074L105.059,40.4L105.781,39.654L106.504,39.054L107.227,38.355L107.949,37.737L108.672,37.015L109.395,36.458L110.117,35.806L110.84,35.181L111.563,34.485L112.285,33.903L113.008,33.232L113.73,32.549L114.453,31.926L115.176,31.263L115.898,30.49L116.621,29.826L117.344,29.024L118.066,28.265L118.789,27.429L119.512,26.482L120.234,25.439L120.957,24.406L121.68,25.271L122.402,26.026L123.125,26.682L123.848,27.338L124.57,27.869L125.293,28.393L126.016,28.958L126.738,29.347L127.461,29.763L128.184,30.149L128.906,30.578L129.629,30.965L130.352,31.353L131.074,31.635L131.797,31.995L132.52,32.249L133.242,32.551L133.965,32.83L134.688,33.09L135.41,33.285L136.133,33.585L136.855,33.841L137.578,34.013L138.301,34.271L139.023,34.444L139.746,34.639L140.469,34.812L141.191,35.087L141.914,35.255L142.637,35.431L143.359,35.562L144.082,35.726L144.805,35.819L145.527,35.966L146.25,36.073L146.973,36.302L147.695,36.415L148.418,36.571L149.141,36.646L149.863,36.782L150.586,36.986L151.309,37.053L152.031,37.133L152.754,37.247L153.477,37.419L154.199,37.417L154.922,37.585L155.645,37.662L156.367,37.832L157.09,37.898L157.813,38.006L158.535,38.095L159.258,38.209L159.98,38.238L160.703,38.342L161.426,38.446L162.148,38.537L162.871,38.588L163.594,38.725L164.316,38.715L165.039,38.917L165.762,38.984L166.484,39.134L167.207,39.1L167.93,39.233L168.652,39.258L169.375,39.35L170.098,39.45L170.82,39.565L171.543,39.659L172.266,39.681L172.988,39.816L173.711,39.885L174.434,39.984L175.156,40.119L175.879,40.161L176.602,40.265L177.324,40.342L178.047,40.396L178.77,40.531L179.492,40.602L180.215,40.832L180.938,40.828L181.66,40.972L182.383,41.126L183.105,41.219L183.828,41.271L184.551,41.394L185.273,41.483L185.996,41.654L186.719,41.704L187.441,41.864L188.164,41.96L188.887,42.063L189.609,42.251L190.332,42.338L191.055,42.565L191.777,42.652L192.5,42.818L193.223,42.983L193.945,43.054L194.668,43.231L195.391,43.337L196.113,43.483L196.836,43.672L197.559,43.919L198.281,44.009L199.004,44.186L199.727,44.362L200.449,44.452L201.172,44.678L201.895,44.88L202.617,45.173L203.34,45.305L204.063,45.461L204.785,45.591L205.508,45.82L206.23,46.141L206.953,46.144L207.676,46.478L208.398,46.716L209.121,46.902L209.844,47.089L210.566,47.377L211.289,47.581L212.012,47.803L212.734,47.961L213.457,48.316L214.18,48.587L214.902,48.733L215.625,49.076L216.348,49.322L217.07,49.546L217.793,49.749L218.516,50.059L219.238,50.307L219.961,50.596L220.684,50.827L221.406,51.09L222.129,51.388L222.852,51.706L223.574,51.916L224.297,52.203L225.02,52.471L225.742,52.838L226.465,53.112L227.188,53.472L227.91,53.675L228.633,53.891L229.355,54.358L230.078,54.613L230.801,54.927L231.523,55.231L232.246,55.576L232.969,55.945L233.691,56.282L234.414,56.563L235.137,56.927L235.859,57.14L236.582,57.546L237.305,57.799L238.027,58.171L238.75,58.519L239.473,58.755L240.195,59.097L240.918,59.454L241.641,59.835L242.363,60.064L243.086,60.46L243.809,60.788L244.531,61.022L245.254,61.486L245.977,61.808L246.699,62.025L247.422,62.437L248.145,62.795L248.867,63.147L249.59,63.492L250.313,63.759L251.035,64.066L251.758,64.514L252.48,64.794L253.203,65.144L253.926,65.443L254.648,65.732L255.371,66.111L256.094,66.459L256.816,66.741L257.539,67.118L258.262,67.388L258.984,67.642L259.707,67.916L260.43,68.297L261.152,68.598L261.875,68.768L262.598,69.04L263.32,69.253L264.043,69.521L264.766,69.858L265.488,70.072L266.211,70.365L266.934,70.58L267.656,70.831L268.379,71.015L269.102,71.178L269.824,71.445L270.547,71.674L271.27,71.947L271.992,72.049L272.715,72.259L273.438,72.409L274.16,72.61L274.883,72.752L275.605,72.906L276.328,73.131L277.051,73.329L277.773,73.34L278.496,73.608L279.219,73.69L279.941,73.989L280.664,74.021L281.387,74.112L282.109,74.375L282.832,74.403L283.555,74.518L284.277,74.569L285,74.702L285.723,74.891L286.445,74.892L287.168,75.09L287.891,75.086L288.613,75.297L289.336,75.308L290.059,75.392L290.781,75.452L291.504,75.499L292.227,75.548L292.949,75.618L293.672,75.633L294.395,75.679L295.117,75.818L295.84,75.744L296.563,75.724L297.285,75.853L298.008,75.789L298.73,75.791L299.453,75.93L300.176,75.878L300.898,75.848L301.621,75.888L302.344,75.93L303.066,75.858L303.789,75.828L304.512,75.968L305.234,75.881L305.957,75.885L306.68,75.848L307.402,75.766L308.125,75.751L308.848,75.734L309.57,75.669L310.293,75.645L311.016,75.673L311.738,75.415L312.461,75.498L313.184,75.38L313.906,75.323L314.629,75.28L315.352,75.327L316.074,75.181L316.797,75.077L317.52,75.009L318.242,74.977L318.965,74.841L319.688,74.764L320.41,74.621L321.133,74.643L321.855,74.512L322.578,74.286L323.301,74.294L324.023,74.172L324.746,74.107L325.469,73.895L326.191,73.76L326.914,73.678L327.637,73.541L328.359,73.478L329.082,73.331L329.805,73.216L330.527,73.02L331.25,73.041L331.973,72.802L332.695,72.754L333.418,72.493L334.141,72.448L334.863,72.274L335.586,72.138L336.309,71.974L337.031,71.819L337.754,71.606L338.477,71.478L339.199,71.298L339.922,71.136L340.645,71.065L341.367,70.8L342.09,70.619L342.813,70.502L343.535,70.282L344.258,70.158L344.98,69.951L345.703,69.806L346.426,69.54L347.148,69.391L347.871,69.291L348.594,69.014L349.316,68.93L350.039,68.704L350.762,68.489L351.484,68.255L352.207,68.026L352.93,67.802L353.652,67.628L354.375,67.49L355.098,67.324L355.82,67.111L356.543,66.871L357.266,66.613L357.988,66.509L358.711,66.319L359.434,66.106L360.156,65.931L360.879,65.692L361.602,65.429L362.324,65.205L363.047,65.124L363.77,64.877L364.492,64.658L365.215,64.408L365.938,64.179L366.66,63.994L367.383,63.77L368.105,63.466L368.828,63.327L369.551,63.092L370.273,62.977L370.996,62.656L371.719,62.495L372.441,62.275L373.164,61.977L373.887,61.821L374.609,61.615L375.332,61.317L376.055,61.101L376.777,60.965L377.5,60.595L378.223,60.309L378.945,60.236L379.668,59.967L380.391,59.76L381.113,59.617L381.836,59.351L382.559,59.02L383.281,58.767L384.004,58.676L384.727,58.395L385.449,58.201L386.172,57.815L386.895,57.688L387.617,57.402L388.34,57.309L389.063,56.988L389.785,56.731L390.508,56.546L391.23,56.37L391.953,56.059L392.676,55.922L393.398,55.628L394.121,55.477L394.844,55.292L395.566,54.959L396.289,54.76L397.012,54.519L397.734,54.272L398.457,54.043L399.18,53.703L399.902,53.609L400.625,53.421L401.348,53.205L402.07,52.962L402.793,52.712L403.516,52.49L404.238,52.225L404.961,52.116L405.684,51.896L406.406,51.75L407.129,51.448L407.852,51.174L408.574,50.935L409.297,50.812L410.02,50.538L410.742,50.305L411.465,50.059L412.188,49.851L412.91,49.771L413.633,49.468L414.355,49.218L415.078,48.999L415.801,48.783L416.523,48.537L417.246,48.276L417.969,48.132L418.691,47.974L419.414,47.704L420.137,47.5L420.859,47.282L421.582,47.108L422.305,46.884L423.027,46.667L423.75,46.47L424.473,46.388L425.195,46.056L425.918,46.462L426.641,47.301L427.363,47.997L428.086,48.837L428.809,49.455L429.531,50.083L430.254,50.778L430.977,51.557L431.699,52.556L432.422,53.273L433.145,53.569L433.867,54.481L434.59,55.259L435.313,55.952L436.035,56.784L436.758,57.472L437.48,58.003L438.203,57.918L438.926,57.887L439.648,57.675L440.371,57.708L441.094,57.669L441.816,57.643L442.539,57.516L443.262,57.421L443.984,57.373L444.707,57.242L445.43,57.321L446.152,57.173L446.875,57.119L447.598,57.023L448.32,56.978L449.043,56.974L449.766,56.852L450.488,56.732L451.211,56.659L451.934,56.652L452.656,56.496L453.379,56.507L454.102,56.401L454.824,56.34L455.547,56.144L456.27,56.294L456.992,56.134L457.715,55.985L458.438,55.992L459.16,55.945L459.883,55.825L460.605,55.635L461.328,55.579L462.051,55.51L462.773,55.472L463.496,55.374L464.219,55.289L464.941,55.296L465.664,55.025L466.387,55.147L467.109,54.982L467.832,54.854L468.555,54.743L469.277,54.658"/><path fill="none" stroke="rgb(203, 47, 13)" stroke-width="1.5" d="M100,45.265L100.723,44.383L101.445,43.428L102.168,42.71L102.891,41.959L103.613,41.103L104.336,40.404L105.059,39.724L105.781,39.049L106.504,38.391L107.227,37.708L107.949,37.028L108.672,36.43L109.395,35.811L110.117,35.296L110.84,34.531L111.563,33.896L112.285,33.318L113.008,32.634L113.73,31.955L114.453,31.282L115.176,30.576L115.898,29.853L116.621,29.077L117.344,28.34L118.066,27.424L118.789,26.569L119.512,25.571L120.234,24.434L120.957,24.881L121.68,25.62L122.402,26.261L123.125,26.899L123.848,27.481L124.57,27.939L125.293,28.39L126.016,28.83L126.738,29.269L127.461,29.698L128.184,30.057L128.906,30.45L129.629,30.754L130.352,31.149L131.074,31.394L131.797,31.64L132.52,31.944L133.242,32.14L133.965,32.419L134.688,32.631L135.41,32.878L136.133,33.067L136.855,33.265L137.578,33.456L138.301,33.628L139.023,33.801L139.746,33.962L140.469,34.117L141.191,34.246L141.914,34.419L142.637,34.564L143.359,34.661L144.082,34.796L144.805,34.943L145.527,34.996L146.25,35.088L146.973,35.225L147.695,35.335L148.418,35.385L149.141,35.438L149.863,35.512L150.586,35.66L151.309,35.658L152.031,35.676L152.754,35.816L153.477,35.884L154.199,35.904L154.922,36.034L155.645,36.016L156.367,36.043L157.09,36.18L157.813,36.167L158.535,36.138L159.258,36.18L159.98,36.239L160.703,36.224L161.426,36.211L162.148,36.195L162.871,36.249L163.594,36.349L164.316,36.342L165.039,36.225L165.762,36.3L166.484,36.289L167.207,36.289L167.93,36.245L168.652,36.266L169.375,36.205L170.098,36.193L170.82,36.178L171.543,36.143L172.266,36.067L172.988,36.094L173.711,36.06L174.434,36.036L175.156,35.939L175.879,35.909L176.602,35.863L177.324,35.78L178.047,35.742L178.77,35.749L179.492,35.734L180.215,35.696L180.938,35.537L181.66,35.518L182.383,35.292L183.105,35.378L183.828,35.32L184.551,35.218L185.273,35.213L185.996,35.108L186.719,35.061L187.441,35.024L188.164,34.871L188.887,34.816L189.609,34.702L190.332,34.711L191.055,34.624L191.777,34.508L192.5,34.404L193.223,34.225L193.945,34.224L194.668,34.04L195.391,34.051L196.113,33.922L196.836,33.823L197.559,33.7L198.281,33.573L199.004,33.547L199.727,33.455L200.449,33.319L201.172,33.236L201.895,33.046L202.617,32.933L203.34,32.788L204.063,32.769L204.785,32.477L205.508,32.504L206.23,32.378L206.953,32.249L207.676,32.085L208.398,32.018L209.121,31.918L209.844,31.786L210.566,31.591L211.289,31.531L212.012,31.496L212.734,31.248L213.457,31.144L214.18,30.988L214.902,30.985L215.625,30.743L216.348,30.681L217.07,30.555L217.793,30.383L218.516,30.316L219.238,30.113L219.961,30.037L220.684,29.863L221.406,29.661L222.129,29.611L222.852,29.529L223.574,29.355L224.297,29.201L225.02,29.081L225.742,29.03L226.465,28.747L227.188,28.685L227.91,28.556L228.633,28.357L229.355,28.245L230.078,28.114L230.801,27.938L231.523,27.866L232.246,27.715L232.969,27.596L233.691,27.399L234.414,27.278L235.137,27.202L235.859,27.073L236.582,26.896L237.305,26.75L238.027,26.649L238.75,26.5L239.473,26.371L240.195,26.251L240.918,26.105L241.641,25.938L242.363,25.808L243.086,25.671L243.809,25.543L244.531,25.394L245.254,25.286L245.977,25.152L246.699,25.009L247.422,24.832L248.145,24.699L248.867,24.64L249.59,24.469L250.313,24.363L251.035,24.259L251.758,24.116L252.48,24.001L253.203,23.87L253.926,23.719L254.648,23.549L255.371,23.456L256.094,23.295L256.816,23.26L257.539,22.982L258.262,22.933L258.984,22.732L259.707,22.597L260.43,22.439L261.152,22.321L261.875,22.132L262.598,22.046L263.32,21.876L264.043,21.671L264.766,21.597L265.488,21.41L266.211,21.272L266.934,21.105L267.656,20.968L268.379,20.775L269.102,20.66L269.824,20.464L270.547,20.33L271.27,20.119L271.992,20L272.715,20.153L273.438,22.028L274.16,25.213L274.883,27.566L275.605,30.535L276.328,32.618L277.051,34.397L277.773,34.729L278.496,35.042L279.219,35.245L279.941,35.54L280.664,35.824L281.387,36.064L282.109,36.355L282.832,36.596L283.555,36.796L284.277,37.085L285,37.265L285.723,37.479L286.445,37.716L287.168,37.889L287.891,38.135L288.613,38.279L289.336,38.48L290.059,38.67L290.781,38.882L291.504,39.018L292.227,39.179L292.949,39.352L293.672,39.53L294.395,39.669L295.117,39.858L295.84,39.965L296.563,40.064L297.285,40.212L298.008,40.28L298.73,40.438L299.453,40.593L300.176,40.71L300.898,40.73L301.621,40.893L302.344,40.956L303.066,41.078L303.789,41.131L304.512,41.234L305.234,41.26L305.957,41.365L306.68,41.514L307.402,41.524L308.125,41.544L308.848,41.615L309.57,41.736L310.293,41.75L311.016,41.738L311.738,41.932L312.461,41.929L313.184,41.942L313.906,42.057L314.629,42.028L315.352,42.065L316.074,42.131L316.797,42.117L317.52,42.159L318.242,42.125L318.965,42.181L319.688,42.194L320.41,42.184L321.133,42.15L321.855,42.232L322.578,42.222L323.301,42.244L324.023,42.227L324.746,42.234L325.469,42.179L326.191,42.128L326.914,42.183L327.637,42.171L328.359,42.134L329.082,42.157L329.805,42.098L330.527,42.055L331.25,42.063L331.973,42.011L332.695,41.984L333.418,42.003L334.141,41.914L334.863,41.919L335.586,41.812L336.309,41.809L337.031,41.793L337.754,41.692L338.477,41.734L339.199,41.661L339.922,41.548L340.645,41.546L341.367,41.439L342.09,41.521L342.813,41.423L343.535,41.34L344.258,41.341L344.98,41.254L345.703,41.217L346.426,41.112L347.148,41.055L347.871,40.972L348.594,40.893L349.316,40.869L350.039,40.736L350.762,40.713L351.484,40.653L352.207,40.631L352.93,40.578L353.652,40.48L354.375,40.384L355.098,40.31L355.82,40.259L356.543,40.155L357.266,40.128L357.988,40L358.711,39.989L359.434,39.833L360.156,39.802L360.879,39.691L361.602,39.639L362.324,39.523L363.047,39.533L363.77,39.408L364.492,39.371L365.215,39.305L365.938,39.144L366.66,39.074L367.383,39.001L368.105,38.955L368.828,38.768L369.551,38.791L370.273,38.681L370.996,38.613L371.719,38.503L372.441,38.383L373.164,38.413L373.887,38.27L374.609,38.207L375.332,38.1L376.055,37.96L376.777,37.938L377.5,37.843L378.223,37.759L378.945,37.593L379.668,37.544L380.391,37.501L381.113,37.363L381.836,37.267L382.559,37.249L383.281,37.14L384.004,37.01L384.727,36.935L385.449,36.82L386.172,36.698L386.895,36.638L387.617,36.609L388.34,36.471L389.063,36.377L389.785,36.372L390.508,36.184L391.23,36.126L391.953,36.058L392.676,35.971L393.398,35.846L394.121,35.792L394.844,35.729L395.566,35.598L396.289,35.593L397.012,35.403L397.734,35.409L398.457,35.311L399.18,35.093L399.902,35.077L400.625,34.99L401.348,34.954L402.07,34.851L402.793,34.741L403.516,34.631L404.238,34.547L404.961,34.428L405.684,34.336L406.406,34.238L407.129,34.172L407.852,34.167L408.574,34.054L409.297,33.923L410.02,33.873L410.742,33.798L411.465,33.724L412.188,33.666L412.91,33.573L413.633,33.485L414.355,33.417L415.078,33.363L415.801,33.201L416.523,33.269L417.246,33.092L417.969,32.993L418.691,32.853L419.414,32.826L420.137,32.763L420.859,32.689L421.582,32.531L422.305,32.535L423.027,32.428L423.75,32.323L424.473,32.248L425.195,32.185L425.918,32.089L426.641,32.054L427.363,31.92L428.086,31.839L428.809,31.826L429.531,31.736L430.254,31.66L430.977,31.576L431.699,31.425L432.422,31.335L433.145,31.347L433.867,31.28L434.59,31.18L435.313,31.097L436.035,30.975L436.758,30.979L437.48,30.908L438.203,30.83L438.926,30.799L439.648,30.698L440.371,30.586L441.094,30.553L441.816,30.534L442.539,30.377L443.262,30.324L443.984,30.277L444.707,30.181L445.43,30.05L446.152,30.107L446.875,29.986L447.598,29.877L448.32,29.87L449.043,29.787L449.766,29.718L450.488,29.621L451.211,29.584L451.934,29.436L452.656,29.412L453.379,29.436L454.102,29.359L454.824,29.282L455.547,29.176L456.27,29.12L456.992,29.042L457.715,28.996L458.438,28.923L459.16,28.91L459.883,28.8L460.605,28.757L461.328,28.683L462.051,28.576L462.773,28.518L463.496,28.583L464.219,28.456L464.941,28.406L465.664,28.277L466.387,28.287L467.109,28.224L467.832,28.197L468.555,28.06L469.277,28.058"/><g transform="translate(0,190) scale(1.7) rotate(-90)"><text>Drift</text></g><g transform="translate(315,395) scale(1.8)"><text></text></g><g transform="translate(0,350)" fill="none" font-size="10" font-family="sans-serif" text-anchor="middle"><path class="domain" stroke="currentColor" d="M100,6V0H470V6"/><g class="tick" opacity="1" transform="translate(136.66666666666666,0)"><line stroke="currentColor" y2="6"/><text fill="currentColor" y="9" dy="0.71em" font-size="20px"> </text></g><g class="tick" opacity="1" transform="translate(173.7037037037037,0)"><line stroke="currentColor" y2="6"/><text fill="currentColor" y="9" dy="0.71em" font-size="20px">200</text></g><g class="tick" opacity="1" transform="translate(210.74074074074076,0)"><line stroke="currentColor" y2="6"/><text fill="currentColor" y="9" dy="0.71em" font-size="20px"> </text></g><g class="tick" opacity="1" transform="translate(247.77777777777777,0)"><line stroke="currentColor" y2="6"/><text fill="currentColor" y="9" dy="0.71em" font-size="20px">400</text></g><g class="tick" opacity="1" transform="translate(284.81481481481484,0)"><line stroke="currentColor" y2="6"/><text fill="currentColor" y="9" dy="0.71em" font-size="20px"> </text></g><g class="tick" opacity="1" transform="translate(321.85185185185185,0)"><line stroke="currentColor" y2="6"/><text fill="currentColor" y="9" dy="0.71em" font-size="20px">600</text></g><g class="tick" opacity="1" transform="translate(358.8888888888889,0)"><line stroke="currentColor" y2="6"/><text fill="currentColor" y="9" dy="0.71em" font-size="20px"> </text></g><g class="tick" opacity="1" transform="translate(395.9259259259259,0)"><line stroke="currentColor" y2="6"/><text fill="currentColor" y="9" dy="0.71em" font-size="20px">800</text></g><g class="tick" opacity="1" transform="translate(432.96296296296293,0)"><line stroke="currentColor" y2="6"/><text fill="currentColor" y="9" dy="0.71em" font-size="20px"> </text></g><g class="tick" opacity="1" transform="translate(470,0)"><line stroke="currentColor" y2="6"/><text fill="currentColor" y="9" dy="0.71em" font-size="20px">1000</text></g></g><g transform="translate(100,0)" fill="none" font-size="10" font-family="sans-serif" text-anchor="end"><path class="domain" stroke="currentColor" d="M-6,350H0V20H-6"/><g class="tick" opacity="1" transform="translate(0,333.2417857519087)"><line stroke="currentColor" x2="-6"/><text fill="currentColor" x="-9" dy="0.32em" font-size="20px">0.7</text></g><g class="tick" opacity="1" transform="translate(0,287.383942000882)"><line stroke="currentColor" x2="-6"/><text fill="currentColor" x="-9" dy="0.32em" font-size="20px">0.6</text></g><g class="tick" opacity="1" transform="translate(0,241.52609824985535)"><line stroke="currentColor" x2="-6"/><text fill="currentColor" x="-9" dy="0.32em" font-size="20px">0.5</text></g><g class="tick" opacity="1" transform="translate(0,195.66825449882867)"><line stroke="currentColor" x2="-6"/><text fill="currentColor" x="-9" dy="0.32em" font-size="20px">0.4</text></g><g class="tick" opacity="1" transform="translate(0,149.81041074780194)"><line stroke="currentColor" x2="-6"/><text fill="currentColor" x="-9" dy="0.32em" font-size="20px">0.3</text></g><g class="tick" opacity="1" transform="translate(0,103.95256699677523)"><line stroke="currentColor" x2="-6"/><text fill="currentColor" x="-9" dy="0.32em" font-size="20px">0.2</text></g><g class="tick" opacity="1" transform="translate(0,58.094723245748554)"><line stroke="currentColor" x2="-6"/><text fill="currentColor" x="-9" dy="0.32em" font-size="20px">0.1</text></g></g><circle cx="120" cy="155" r="8" style="fill: rgb(35, 23, 27);"/><circle cx="120" cy="180" r="8" style="fill: rgb(69, 105, 238);"/><circle cx="120" cy="205" r="8" style="fill: rgb(38, 188, 225);"/><circle cx="120" cy="230" r="8" style="fill: rgb(63, 243, 147);"/><circle cx="120" cy="255" r="8" style="fill: rgb(149, 251, 81);"/><circle cx="120" cy="280" r="8" style="fill: rgb(236, 209, 46);"/><circle cx="120" cy="305" r="8" style="fill: rgb(255, 130, 29);"/><circle cx="120" cy="330" r="8" style="fill: rgb(203, 47, 13);"/><text x="135" y="155" text-anchor="left" font-size="22" alignment-baseline="middle" style="fill: rgb(35, 23, 27);"> = 0</text><text x="135" y="180" text-anchor="left" font-size="22" alignment-baseline="middle" style="fill: rgb(69, 105, 238);"> = 0.22</text><text x="135" y="205" text-anchor="left" font-size="22" alignment-baseline="middle" style="fill: rgb(38, 188, 225);"> = 0.45</text><text x="135" y="230" text-anchor="left" font-size="22" alignment-baseline="middle" style="fill: rgb(63, 243, 147);"> = 0.67</text><text x="135" y="255" text-anchor="left" font-size="22" alignment-baseline="middle" style="fill: rgb(149, 251, 81);"> = 0.9</text><text x="135" y="280" text-anchor="left" font-size="22" alignment-baseline="middle" style="fill: rgb(236, 209, 46);"> = 1.12</text><text x="135" y="305" text-anchor="left" font-size="22" alignment-baseline="middle" style="fill: rgb(255, 130, 29);"> = 1.35</text><text x="135" y="330" text-anchor="left" font-size="22" alignment-baseline="middle" style="fill: rgb(203, 47, 13);"> = 1.57</text></svg>