<svg xmlns="http://www.w3.org/2000/svg" class="bg-white" width="500" height="400" viewBox="0 0 500 400"><path fill="none" stroke="rgb(35, 23, 27)" stroke-width="1.5" d="M100,350L100.723,342.891L101.445,339.758L102.168,336.896L102.891,334.176L103.613,331.954L104.336,329.143L105.059,325.94L105.781,322.327L106.504,318.981L107.227,315.81L107.949,312.239L108.672,308.424L109.395,304.231L110.117,300.224L110.84,296.246L111.563,292.281L112.285,288.071L113.008,283.711L113.73,279.101L114.453,274.52L115.176,269.081L115.898,264.146L116.621,259.648L117.344,254.457L118.066,249.027L118.789,243.955L119.512,238.325L120.234,232.474L120.957,226.474L121.68,220.404L122.402,213.644L123.125,227.355L123.848,227.422L124.57,227.523L125.293,228.434L126.016,228.7L126.738,228.597L127.461,228.755L128.184,229.263L128.906,229.575L129.629,229.289L130.352,228.673L131.074,228.726L131.797,228.972L132.52,229.606L133.242,230.356L133.965,229.758L134.688,229.962L135.41,231.392L136.133,230.716L136.855,231.056L137.578,231.932L138.301,231.516L139.023,231.865L139.746,231.979L140.469,232.069L141.191,232.561L141.914,232.625L142.637,232.62L143.359,232.703L144.082,232.814L144.805,233.186L145.527,233.468L146.25,233.952L146.973,234.171L147.695,234.409L148.418,234.369L149.141,234.844L149.863,234.767L150.586,234.946L151.309,236.408L152.031,235.991L152.754,236.725L153.477,236.273L154.199,236.086L154.922,237.898L155.645,237.828L156.367,238.552L157.09,237.541L157.813,237.769L158.535,237.628L159.258,239.812L159.98,238.608L160.703,239.493L161.426,239.15L162.148,240.238L162.871,240.303L163.594,239.711L164.316,239.182L165.039,240.387L165.762,240.643L166.484,242.261L167.207,240.545L167.93,242.485L168.652,241.99L169.375,243.609L170.098,241.62L170.82,242.183L171.543,243.991L172.266,243.445L172.988,243.975L173.711,244.015L174.434,244.435L175.156,246.789L175.879,245.531L176.602,245.985L177.324,247.958L178.047,247.517L178.77,247.939L179.492,247.879L180.215,248.393L180.938,249.539L181.66,250.683L182.383,251.173L183.105,251.429L183.828,251.416L184.551,251.475L185.273,251.843L185.996,253.099L186.719,254.028L187.441,255.257L188.164,254.604L188.887,256.306L189.609,254.696L190.332,255.244L191.055,257.162L191.777,257.35L192.5,259.108L193.223,258.05L193.945,258.752L194.668,259.131L195.391,259.791L196.113,262.169L196.836,261.572L197.559,262.398L198.281,262.846L199.004,263.232L199.727,263.993L200.449,264.582L201.172,264.768L201.895,265.451L202.617,266.919L203.34,267.407L204.063,268.252L204.785,268.969L205.508,269.53L206.23,270.468L206.953,270.965L207.676,272.025L208.398,272.686L209.121,273.495L209.844,275.126L210.566,275.443L211.289,275.233L212.012,276.027L212.734,276.279L213.457,278.733L214.18,279.502L214.902,279.581L215.625,280.244L216.348,279.714L217.07,282.177L217.793,281.35L218.516,282.965L219.238,282.82L219.961,283.395L220.684,284.559L221.406,286.798L222.129,285.957L222.852,286.53L223.574,287.966L224.297,288.758L225.02,289.781L225.742,290.353L226.465,290.043L227.188,290.774L227.91,291.417L228.633,293.376L229.355,294.164L230.078,294.923L230.801,294.831L231.523,295.574L232.246,297.414L232.969,297L233.691,298.289L234.414,298.847L235.137,299.217L235.859,300.217L236.582,299.897L237.305,301.906L238.027,301.804L238.75,302.342L239.473,302.986L240.195,304.659L240.918,303.659L241.641,305.071L242.363,305.931L243.086,305.903L243.809,307.737L244.531,306.663L245.254,308.936L245.977,308.747L246.699,308.627L247.422,309.117L248.145,310.052L248.867,310.382L249.59,311.442L250.313,310.492L251.035,311.004L251.758,312.868L252.48,312.638L253.203,312.577L253.926,312.956L254.648,314.487L255.371,315.153L256.094,314.568L256.816,314.761L257.539,315.296L258.262,315.807L258.984,316.108L259.707,316.259L260.43,316.112L261.152,316.601L261.875,317.651L262.598,317.769L263.32,317.64L264.043,316.968L264.766,317.247L265.488,318.434L266.211,317.6L266.934,318.464L267.656,319.131L268.379,319.297L269.102,318.924L269.824,319.483L270.547,319.07L271.27,319.088L271.992,318.762L272.715,320.09L273.438,319.378L274.16,319.693L274.883,319.796L275.605,319.19L276.328,319.987L277.051,319.608L277.773,318.486L278.496,318.754L279.219,318.603L279.941,319.012L280.664,318.87L281.387,318.785L282.109,318.055L282.832,318.39L283.555,318.347L284.277,317.791L285,317.54L285.723,318.332L286.445,317.436L287.168,316.965L287.891,316.964L288.613,317.378L289.336,317.143L290.059,315.29L290.781,316.056L291.504,315.245L292.227,314.266L292.949,314.14L293.672,314.626L294.395,314.203L295.117,313.565L295.84,312.631L296.563,313.154L297.285,311.849L298.008,312.409L298.73,311.999L299.453,311.244L300.176,310.171L300.898,311.318L301.621,309.443L302.344,308.986L303.066,309.163L303.789,308.63L304.512,307.436L305.234,308.356L305.957,307.836L306.68,306.87L307.402,306.373L308.125,305.691L308.848,305.172L309.57,304.699L310.293,305.495L311.016,302.982L311.738,302.92L312.461,302.441L313.184,301.57L313.906,302.612L314.629,300.826L315.352,300.16L316.074,300.106L316.797,299.524L317.52,297.512L318.242,297.77L318.965,296.212L319.688,295.493L320.41,294.999L321.133,295.185L321.855,293.514L322.578,293.825L323.301,292.038L324.023,292.264L324.746,291.859L325.469,290.168L326.191,289.344L326.914,289.331L327.637,287.78L328.359,287.068L329.082,287.384L329.805,285.695L330.527,285.401L331.25,284.81L331.973,283.501L332.695,283.46L333.418,282.726L334.141,281.873L334.863,280.698L335.586,280.161L336.309,280.372L337.031,277.991L337.754,277.836L338.477,276.522L339.199,275.783L339.922,275.078L340.645,274.196L341.367,273.484L342.09,272.552L342.813,272.954L343.535,272.152L344.258,270.637L344.98,270.439L345.703,268.662L346.426,268.08L347.148,266.862L347.871,267.089L348.594,264.942L349.316,264.166L350.039,263.125L350.762,263.614L351.484,261.689L352.207,260.866L352.93,259.969L353.652,259.333L354.375,258.214L355.098,258.037L355.82,255.979L356.543,256.778L357.266,255.727L357.988,254.073L358.711,253.127L359.434,252.641L360.156,250.956L360.879,250.12L361.602,249.998L362.324,248.221L363.047,247.351L363.77,247.874L364.492,246.866L365.215,245.232L365.938,244.289L366.66,243.657L367.383,242.425L368.105,242.513L368.828,241.749L369.551,240.771L370.273,238.948L370.996,238.812L371.719,237.223L372.441,236.16L373.164,235.028L373.887,234.775L374.609,232.294L375.332,232.542L376.055,231.595L376.777,231.356L377.5,229.688L378.223,229.547L378.945,227.811L379.668,227.294L380.391,225.737L381.113,225.985L381.836,224.812L382.559,223.705L383.281,223.625L384.004,222.316L384.727,222.143L385.449,220.635L386.172,219.968L386.895,218.585L387.617,216.017L388.34,216.464L389.063,215.954L389.785,215.252L390.508,214.163L391.23,213.222L391.953,212.736L392.676,210.84L393.398,210.516L394.121,209.811L394.844,207.009L395.566,208.099L396.289,206.022L397.012,205.585L397.734,205.749L398.457,203.562L399.18,202.555L399.902,203.217L400.625,202.33L401.348,201.09L402.07,199.942L402.793,198.842L403.516,198.093L404.238,197.48L404.961,195.725L405.684,194.675L406.406,194.405L407.129,194.663L407.852,193.824L408.574,192.37L409.297,190.709L410.02,190.481L410.742,190.487L411.465,189.505L412.188,188.771L412.91,187.108L413.633,185.98L414.355,185.395L415.078,185.427L415.801,183.739L416.523,183.121L417.246,182.226L417.969,180.99L418.691,180.59L419.414,179.809L420.137,179.436L420.859,178.241L421.582,177.259L422.305,175.93L423.027,176.76L423.75,174.802L424.473,174.045L425.195,173.291L425.918,171.977L426.641,170.778L427.363,170.785L428.086,169.853L428.809,169.609L429.531,168.276L430.254,168.624L430.977,167.024L431.699,166.397L432.422,165.975L433.145,164.787L433.867,164.497L434.59,162.478L435.313,161.964L436.035,160.678L436.758,160.418L437.48,159.491L438.203,160.088L438.926,159.226L439.648,157.3L440.371,156.552L441.094,155.83L441.816,154.877L442.539,154.696L443.262,153.419L443.984,153.521L444.707,152.724L445.43,152.148L446.152,150.883L446.875,149.633L447.598,149.921L448.32,149.293L449.043,147.384L449.766,147.947L450.488,145.832L451.211,145.426L451.934,145.355L452.656,144.161L453.379,144.302L454.102,142.574L454.824,141.642L455.547,141.678L456.27,140.406L456.992,139.661L457.715,139.14L458.438,137.992L459.16,136.826L459.883,136.752L460.605,137.074L461.328,135.632L462.051,135.466L462.773,134.899L463.496,133.604L464.219,133.532L464.941,132.827L465.664,131.8L466.387,131.219L467.109,130.356L467.832,129.447L468.555,128.285L469.277,128.576"/><path fill="none" stroke="rgb(69, 105, 238)" stroke-width="1.5" d="M100,335.348L100.723,329.211L101.445,324.347L102.168,322.627L102.891,319.849L103.613,316.622L104.336,314.472L105.059,309.816L105.781,307.466L106.504,303.257L107.227,301.467L107.949,297.173L108.672,292.557L109.395,289.839L110.117,285.841L110.84,280.276L111.563,277.957L112.285,273.291L113.008,269.179L113.73,264.064L114.453,259.621L115.176,254.835L115.898,249.965L116.621,244.807L117.344,239.655L118.066,233.386L118.789,229.102L119.512,222.39L120.234,222.15L120.957,239.68L121.68,240.101L122.402,241.353L123.125,241.509L123.848,242.032L124.57,241.206L125.293,242.521L126.016,243.224L126.738,241.821L127.461,242.946L128.184,243.232L128.906,243.481L129.629,243.902L130.352,242.651L131.074,243.681L131.797,245.149L132.52,245.449L133.242,244.854L133.965,245.127L134.688,244.793L135.41,245.527L136.133,245.619L136.855,246.698L137.578,244.891L138.301,246.405L139.023,245.26L139.746,247.035L140.469,247.039L141.191,245.701L141.914,245.891L142.637,245.564L143.359,247.478L144.082,247.592L144.805,247.868L145.527,246.259L146.25,247.734L146.973,248.668L147.695,248.788L148.418,249.325L149.141,248.728L149.863,249.114L150.586,248.21L151.309,248.235L152.031,249.944L152.754,249.567L153.477,250.408L154.199,250.69L154.922,249.789L155.645,250.944L156.367,250.061L157.09,250.182L157.813,250.292L158.535,250.58L159.258,251.613L159.98,252.2L160.703,252.056L161.426,252.741L162.148,253.155L162.871,252.796L163.594,252.594L164.316,253.15L165.039,252.564L165.762,254.307L166.484,252.931L167.207,253.777L167.93,253.445L168.652,254.777L169.375,254.422L170.098,254.506L170.82,254.916L171.543,254.781L172.266,256.354L172.988,256.431L173.711,256.676L174.434,257.297L175.156,257.414L175.879,257.796L176.602,257.827L177.324,257.993L178.047,258.251L178.77,258.957L179.492,258.989L180.215,258.858L180.938,259.819L181.66,260.086L182.383,260.321L183.105,260.816L183.828,260.11L184.551,261.368L185.273,261.868L185.996,262.301L186.719,262.94L187.441,263.317L188.164,262.811L188.887,262.758L189.609,262.491L190.332,262.293L191.055,265.479L191.777,265.701L192.5,265.46L193.223,265.503L193.945,266.13L194.668,266.775L195.391,266.53L196.113,268.253L196.836,268.48L197.559,266.692L198.281,268.28L199.004,269.902L199.727,269.697L200.449,270.622L201.172,268.936L201.895,270.631L202.617,271.415L203.34,272.496L204.063,271.864L204.785,273.064L205.508,273.468L206.23,273.173L206.953,273.594L207.676,273.953L208.398,274.265L209.121,275.484L209.844,275.881L210.566,275.882L211.289,275.767L212.012,276.991L212.734,277.519L213.457,278.413L214.18,277.506L214.902,279.14L215.625,279.855L216.348,279.056L217.07,280.193L217.793,281.319L218.516,281.787L219.238,281.581L219.961,281.419L220.684,281.712L221.406,282.184L222.129,283.906L222.852,282.54L223.574,283.49L224.297,284.427L225.02,285.682L225.742,285.989L226.465,286.008L227.188,286.515L227.91,286.147L228.633,287.437L229.355,286.547L230.078,288.536L230.801,288.348L231.523,288.826L232.246,289.651L232.969,288.726L233.691,289.776L234.414,290.261L235.137,290.598L235.859,291.249L236.582,289.866L237.305,291.856L238.027,291.673L238.75,292.475L239.473,291.549L240.195,293.436L240.918,293.328L241.641,292.851L242.363,294.456L243.086,292.454L243.809,293.386L244.531,293.175L245.254,293.615L245.977,293.611L246.699,294.393L247.422,294.401L248.145,294.322L248.867,295.975L249.59,294.593L250.313,294.739L251.035,296.414L251.758,296.684L252.48,296.236L253.203,296.454L253.926,296.932L254.648,297.039L255.371,296.336L256.094,296.776L256.816,297.315L257.539,296.887L258.262,296.788L258.984,296.133L259.707,297.108L260.43,296.03L261.152,296.863L261.875,296.09L262.598,297.652L263.32,296.289L264.043,297.053L264.766,297.576L265.488,297.154L266.211,297.032L266.934,296.754L267.656,296.643L268.379,296.503L269.102,296.912L269.824,295.797L270.547,296.429L271.27,295.323L271.992,296.085L272.715,295.597L273.438,295.193L274.16,295.632L274.883,294.782L275.605,294.212L276.328,295.018L277.051,295.744L277.773,294.397L278.496,293.553L279.219,293.67L279.941,293.678L280.664,293.467L281.387,292.486L282.109,292.531L282.832,291.317L283.555,292.2L284.277,291.592L285,290.961L285.723,290.41L286.445,289.454L287.168,289.018L287.891,289.145L288.613,288.803L289.336,287.703L290.059,287.438L290.781,287.826L291.504,286.92L292.227,286.947L292.949,287.636L293.672,286.534L294.395,285.389L295.117,285.059L295.84,284.883L296.563,284.547L297.285,282.821L298.008,283.057L298.73,282.305L299.453,281.641L300.176,281.113L300.898,280.844L301.621,280.608L302.344,278.246L303.066,278.421L303.789,278.502L304.512,277.787L305.234,276.707L305.957,276.957L306.68,275.941L307.402,275.72L308.125,273.808L308.848,274.289L309.57,273.75L310.293,272.629L311.016,271.599L311.738,271.472L312.461,270.912L313.184,269.387L313.906,268.518L314.629,268.013L315.352,267.376L316.074,267.568L316.797,266.323L317.52,265.356L318.242,264.787L318.965,263.476L319.688,262.625L320.41,262.95L321.133,262.08L321.855,261.201L322.578,260.597L323.301,260.01L324.023,259.02L324.746,258.695L325.469,257.291L326.191,256.191L326.914,254.951L327.637,254.99L328.359,253.281L329.082,252.296L329.805,251.531L330.527,251.753L331.25,250.696L331.973,249.226L332.695,249.238L333.418,248.122L334.141,246.579L334.863,247.022L335.586,244.915L336.309,245.12L337.031,243.383L337.754,242.532L338.477,240.505L339.199,241.505L339.922,240.727L340.645,238.831L341.367,239.296L342.09,237.127L342.813,236.288L343.535,236.595L344.258,235.585L344.98,234.908L345.703,233.898L346.426,231.999L347.148,232.052L347.871,231.482L348.594,229.617L349.316,228.744L350.039,228.168L350.762,227.1L351.484,227.773L352.207,226.204L352.93,225.241L353.652,224.213L354.375,223.368L355.098,222.655L355.82,220.938L356.543,220.689L357.266,219.648L357.988,219.007L358.711,218.183L359.434,217.187L360.156,215.698L360.879,214.337L361.602,214.11L362.324,213.073L363.047,212.626L363.77,211.529L364.492,210.9L365.215,210.553L365.938,208.66L366.66,208.778L367.383,206.921L368.105,206.126L368.828,205.535L369.551,205.778L370.273,203.193L370.996,203.144L371.719,201.442L372.441,200.259L373.164,201.016L373.887,199.583L374.609,197.218L375.332,197.053L376.055,196.503L376.777,194.262L377.5,195.854L378.223,193.712L378.945,192.889L379.668,193.244L380.391,191.7L381.113,189.946L381.836,189.54L382.559,187.501L383.281,188.444L384.004,187.612L384.727,187.32L385.449,186.354L386.172,185.058L386.895,184.24L387.617,183.148L388.34,182.328L389.063,182.234L389.785,180.838L390.508,179.828L391.23,179.309L391.953,177.82L392.676,177.192L393.398,176.334L394.121,176.273L394.844,175.131L395.566,174.352L396.289,174.64L397.012,173.343L397.734,171.812L398.457,171.659L399.18,169.738L399.902,169.985L400.625,169.186L401.348,167.387L402.07,166.504L402.793,165.753L403.516,165.981L404.238,164.705L404.961,163.754L405.684,161.818L406.406,161.696L407.129,162.288L407.852,161.122L408.574,160.37L409.297,159.538L410.02,158.517L410.742,158.004L411.465,157.261L412.188,156.844L412.91,155.604L413.633,155.301L414.355,154.045L415.078,153.698L415.801,152.546L416.523,152.386L417.246,150.745L417.969,150.805L418.691,149.58L419.414,149.004L420.137,148.257L420.859,147.952L421.582,146.725L422.305,146.577L423.027,145.573L423.75,144.538L424.473,143.553L425.195,143.616L425.918,142.551L426.641,141.836L427.363,141.624L428.086,140.748L428.809,139.921L429.531,139.405L430.254,138.755L430.977,137.762L431.699,137.364L432.422,136.424L433.145,135.794L433.867,135.355L434.59,134.341L435.313,133.9L436.035,133.208L436.758,132.617L437.48,131.703L438.203,131.252L438.926,130.031L439.648,129.571L440.371,129.132L441.094,128.7L441.816,127.383L442.539,126.137L443.262,126.932L443.984,125.829L444.707,125.817L445.43,124.769L446.152,122.914L446.875,124.221L447.598,123.185L448.32,122.484L449.043,121.141L449.766,121.392L450.488,119.903L451.211,119.679L451.934,119.233L452.656,118.117L453.379,118.224L454.102,117.69L454.824,116.674L455.547,116.106L456.27,115.299L456.992,115.652L457.715,114.859L458.438,113.558L459.16,112.968L459.883,113.092L460.605,112.99L461.328,111.277L462.051,111.238L462.773,110.851L463.496,110.239L464.219,109.762L464.941,108.815L465.664,108.908L466.387,107.494L467.109,107.08L467.832,106.966L468.555,106.423L469.277,105.926"/><path fill="none" stroke="rgb(38, 188, 225)" stroke-width="1.5" d="M100,303.08L100.723,297.718L101.445,293.641L102.168,289.357L102.891,286.903L103.613,282.81L104.336,280.443L105.059,277.349L105.781,275.115L106.504,271.53L107.227,267.967L107.949,264.658L108.672,260.06L109.395,256.481L110.117,252.881L110.84,248.859L111.563,244.075L112.285,240.164L113.008,235.047L113.73,231.413L114.453,226.787L115.176,252.543L115.898,264.346L116.621,266.464L117.344,267.484L118.066,268.585L118.789,270.139L119.512,270.934L120.234,272.154L120.957,272.24L121.68,273.728L122.402,273.512L123.125,274.422L123.848,274.179L124.57,274.753L125.293,274.958L126.016,275.093L126.738,275.648L127.461,274.802L128.184,274.875L128.906,275.389L129.629,275.958L130.352,275.711L131.074,275.211L131.797,275.163L132.52,275.329L133.242,276.211L133.965,276.629L134.688,275.961L135.41,276.712L136.133,276.622L136.855,277.216L137.578,276.111L138.301,277.401L139.023,277.165L139.746,276.323L140.469,277.724L141.191,277.923L141.914,277.294L142.637,277.925L143.359,277.516L144.082,277.466L144.805,278.444L145.527,277.837L146.25,277.877L146.973,277.653L147.695,277.853L148.418,278.646L149.141,278.305L149.863,278.336L150.586,278.697L151.309,278.642L152.031,277.956L152.754,278.212L153.477,278.288L154.199,278.508L154.922,278.594L155.645,279.173L156.367,278.311L157.09,278.966L157.813,278.61L158.535,278.163L159.258,278.296L159.98,278.692L160.703,278.697L161.426,279.535L162.148,278.354L162.871,278.889L163.594,278.727L164.316,279.638L165.039,279.716L165.762,279.244L166.484,278.72L167.207,279.387L167.93,279.001L168.652,278.299L169.375,278.937L170.098,278.802L170.82,278.413L171.543,278.748L172.266,279.248L172.988,279.881L173.711,278.96L174.434,279.576L175.156,279.956L175.879,279.367L176.602,278.353L177.324,278.978L178.047,279.337L178.77,278.853L179.492,278.073L180.215,278.795L180.938,279.551L181.66,278.965L182.383,278.625L183.105,278.302L183.828,279.279L184.551,278.747L185.273,278.975L185.996,278.475L186.719,277.949L187.441,278.536L188.164,278.439L188.887,279.077L189.609,277.643L190.332,278.289L191.055,278.355L191.777,278.363L192.5,278.474L193.223,278.678L193.945,276.594L194.668,278.256L195.391,277.39L196.113,277.345L196.836,277.795L197.559,277.259L198.281,277.579L199.004,277.483L199.727,278.082L200.449,277.193L201.172,277.131L201.895,277.567L202.617,276.58L203.34,277.072L204.063,277.615L204.785,275.906L205.508,276.639L206.23,276.183L206.953,276.917L207.676,275.675L208.398,275.425L209.121,274.977L209.844,275.405L210.566,275.338L211.289,274.809L212.012,274.665L212.734,274.313L213.457,274.923L214.18,273.888L214.902,272.792L215.625,274.488L216.348,272.896L217.07,272.683L217.793,272.704L218.516,272.798L219.238,273.526L219.961,271.715L220.684,272.767L221.406,272.487L222.129,270.983L222.852,270.612L223.574,270.946L224.297,271.921L225.02,271.072L225.742,270.208L226.465,270.546L227.188,269.47L227.91,268.576L228.633,269.075L229.355,268.44L230.078,268.732L230.801,267.401L231.523,267.396L232.246,266.345L232.969,265.51L233.691,266.438L234.414,266.364L235.137,266.436L235.859,264.432L236.582,264.219L237.305,264.108L238.027,264.05L238.75,263.007L239.473,263.92L240.195,263.097L240.918,262.237L241.641,260.945L242.363,260.47L243.086,261.091L243.809,260.626L244.531,259.17L245.254,259.778L245.977,258.996L246.699,259.97L247.422,257.082L248.145,256.837L248.867,257.308L249.59,256.486L250.313,256.246L251.035,255.179L251.758,254.743L252.48,254.657L253.203,254.784L253.926,253.606L254.648,252.837L255.371,252.781L256.094,252.023L256.816,250.878L257.539,250.961L258.262,250.626L258.984,249.876L259.707,250.145L260.43,249.107L261.152,247.797L261.875,247.343L262.598,246.076L263.32,246.808L264.043,246.727L264.766,245.338L265.488,245.477L266.211,244.011L266.934,243.704L267.656,243.022L268.379,243.979L269.102,242.051L269.824,241.199L270.547,240.913L271.27,240.455L271.992,239.261L272.715,238.775L273.438,238.397L274.16,237.097L274.883,237.14L275.605,236.519L276.328,235.444L277.051,235.133L277.773,234.328L278.496,233.444L279.219,233.278L279.941,232.01L280.664,232.611L281.387,231.008L282.109,230.757L282.832,230.098L283.555,229.16L284.277,228.583L285,227.507L285.723,227.46L286.445,227.03L287.168,226.15L287.891,225.556L288.613,225.007L289.336,224.425L290.059,223.104L290.781,223.335L291.504,222.027L292.227,221.319L292.949,220.719L293.672,220.533L294.395,219.811L295.117,218.81L295.84,218.59L296.563,217.658L297.285,216.72L298.008,216.527L298.73,215.236L299.453,214.472L300.176,214.022L300.898,214.168L301.621,213.906L302.344,212.979L303.066,212.073L303.789,210.865L304.512,210.057L305.234,209.684L305.957,208.511L306.68,208.067L307.402,208.754L308.125,207.295L308.848,206.368L309.57,205.227L310.293,204.558L311.016,203.629L311.738,203.898L312.461,202.255L313.184,203.163L313.906,201.352L314.629,200.964L315.352,201.012L316.074,198.88L316.797,199.019L317.52,198.204L318.242,196.897L318.965,197.016L319.688,196.276L320.41,195.426L321.133,195.077L321.855,193.305L322.578,193.277L323.301,192.543L324.023,192.085L324.746,190.87L325.469,190.054L326.191,189.235L326.914,189.18L327.637,187.972L328.359,186.954L329.082,186.751L329.805,186.971L330.527,185.639L331.25,184.675L331.973,184.645L332.695,183.405L333.418,182.64L334.141,182.594L334.863,181.474L335.586,180.795L336.309,180.939L337.031,179.96L337.754,178.7L338.477,178.779L339.199,177.737L339.922,176.966L340.645,176.425L341.367,175.741L342.09,175.13L342.813,174.231L343.535,173.935L344.258,173.193L344.98,173.221L345.703,172.325L346.426,171.378L347.148,170.467L347.871,169.587L348.594,168.844L349.316,168.475L350.039,167.163L350.762,166.934L351.484,166.704L352.207,165.953L352.93,165.943L353.652,165.128L354.375,164.227L355.098,163.497L355.82,162.301L356.543,162.134L357.266,161.792L357.988,161.074L358.711,160.453L359.434,159.079L360.156,158.795L360.879,158.337L361.602,157.859L362.324,157.334L363.047,156.84L363.77,155.683L364.492,155.601L365.215,155.112L365.938,153.636L366.66,154.183L367.383,152.776L368.105,151.876L368.828,151.878L369.551,151.016L370.273,150.517L370.996,150.322L371.719,149.451L372.441,148.727L373.164,147.806L373.887,147.445L374.609,147.452L375.332,147.279L376.055,146.244L376.777,145.545L377.5,144.434L378.223,144.62L378.945,143.838L379.668,143.081L380.391,142.944L381.113,141.98L381.836,141.234L382.559,140.618L383.281,140.073L384.004,139.657L384.727,139.068L385.449,138.83L386.172,139.259L386.895,137.774L387.617,137.818L388.34,136.792L389.063,136.569L389.785,135.645L390.508,134.869L391.23,134.478L391.953,134.142L392.676,134.038L393.398,133.042L394.121,131.855L394.844,131.701L395.566,131.316L396.289,130.707L397.012,130.082L397.734,130.03L398.457,129.167L399.18,129.026L399.902,128.507L400.625,127.383L401.348,127.611L402.07,126.526L402.793,126.802L403.516,125.209L404.238,125.273L404.961,124.1L405.684,124.376L406.406,124.147L407.129,123.138L407.852,123.198L408.574,122.907L409.297,122.354L410.02,121.545L410.742,120.588L411.465,120.627L412.188,119.976L412.91,119.028L413.633,118.855L414.355,117.98L415.078,117.467L415.801,117.316L416.523,117.636L417.246,116.756L417.969,115.506L418.691,115.215L419.414,115.438L420.137,114.842L420.859,114.061L421.582,113.518L422.305,113.595L423.027,112.627L423.75,112.96L424.473,111.549L425.195,111.751L425.918,110.79L426.641,110.547L427.363,110.513L428.086,109.857L428.809,109.014L429.531,108.971L430.254,107.629L430.977,108.257L431.699,107.352L432.422,106.977L433.145,106.915L433.867,106.007L434.59,105.378L435.313,105.518L436.035,105.045L436.758,105.038L437.48,103.732L438.203,103.654L438.926,102.635L439.648,102.684L440.371,102.014L441.094,101.477L441.816,101.549L442.539,100.934L443.262,100.582L443.984,100.199L444.707,100.282L445.43,99.709L446.152,99.151L446.875,98.022L447.598,97.997L448.32,97.846L449.043,97.493L449.766,96.788L450.488,96.866L451.211,96.568L451.934,96.174L452.656,95.676L453.379,95.146L454.102,94.705L454.824,94.378L455.547,93.865L456.27,93.431L456.992,93.035L457.715,92.906L458.438,92.272L459.16,90.662L459.883,91.163L460.605,91.135L461.328,90.763L462.051,90.685L462.773,89.613L463.496,89.89L464.219,88.796L464.941,88.798L465.664,88.606L466.387,88.542L467.109,87.368L467.832,87.245L468.555,87.164L469.277,86.85"/><path fill="none" stroke="rgb(63, 243, 147)" stroke-width="1.5" d="M100,272.452L100.723,266.769L101.445,260.854L102.168,257.15L102.891,255.349L103.613,252.603L104.336,248.237L105.059,245.912L105.781,242.061L106.504,238.906L107.227,234.708L107.949,231.673L108.672,227.498L109.395,237.342L110.117,279.507L110.84,281.611L111.563,283.181L112.285,285.556L113.008,287.925L113.73,289.867L114.453,291.902L115.176,293.273L115.898,294.922L116.621,296.005L117.344,297.63L118.066,298.85L118.789,300.302L119.512,301.125L120.234,302.049L120.957,303.873L121.68,304.552L122.402,304.148L123.125,305.366L123.848,306.149L124.57,304.473L125.293,306.273L126.016,304.838L126.738,306.002L127.461,304.545L128.184,305.963L128.906,305.718L129.629,305.913L130.352,306.108L131.074,305.413L131.797,306.334L132.52,305.636L133.242,304.999L133.965,306.098L134.688,306.222L135.41,306.372L136.133,305.802L136.855,305.495L137.578,304.976L138.301,305.835L139.023,305.555L139.746,305.523L140.469,305.688L141.191,305.845L141.914,305.166L142.637,305.43L143.359,304.587L144.082,305.899L144.805,305.85L145.527,304.461L146.25,304.232L146.973,305.081L147.695,305.108L148.418,305.132L149.141,303.275L149.863,303.774L150.586,303.524L151.309,304.473L152.031,304.14L152.754,304.03L153.477,303.908L154.199,303.554L154.922,303.75L155.645,302.392L156.367,303.352L157.09,302.825L157.813,302.499L158.535,302.391L159.258,301.562L159.98,301.659L160.703,302.013L161.426,300.86L162.148,302.041L162.871,301.066L163.594,300.791L164.316,299.949L165.039,301.301L165.762,300.395L166.484,299.841L167.207,299.155L167.93,298.455L168.652,299.639L169.375,298.568L170.098,298.641L170.82,296.862L171.543,297.723L172.266,297.182L172.988,296.975L173.711,296.288L174.434,295.925L175.156,295.881L175.879,296.204L176.602,295.955L177.324,294.86L178.047,294.254L178.77,294.205L179.492,291.878L180.215,293.971L180.938,292.073L181.66,292.442L182.383,290.617L183.105,292.182L183.828,290.785L184.551,289.17L185.273,290.838L185.996,290.433L186.719,289.167L187.441,288.046L188.164,287.543L188.887,286.545L189.609,287.465L190.332,286.786L191.055,286.171L191.777,283.758L192.5,284.596L193.223,284.085L193.945,283.88L194.668,282.706L195.391,282.116L196.113,281.357L196.836,280.624L197.559,280.181L198.281,279.376L199.004,278.658L199.727,278.444L200.449,277.089L201.172,276.577L201.895,275.526L202.617,274.814L203.34,274.348L204.063,272.928L204.785,271.799L205.508,272.157L206.23,271.43L206.953,270.647L207.676,269.898L208.398,269.23L209.121,267.884L209.844,267.637L210.566,265.74L211.289,265.778L212.012,265.522L212.734,262.675L213.457,262.42L214.18,263.689L214.902,261.171L215.625,260.163L216.348,258.993L217.07,257.665L217.793,256.935L218.516,256.487L219.238,256.78L219.961,256.372L220.684,253.698L221.406,253.164L222.129,252.173L222.852,252.557L223.574,249.789L224.297,249.102L225.02,247.234L225.742,247.284L226.465,247.07L227.188,244.843L227.91,243.391L228.633,243.794L229.355,242.375L230.078,240.22L230.801,239.725L231.523,239.468L232.246,238.055L232.969,237.771L233.691,235.562L234.414,234.125L235.137,234.159L235.859,233.205L236.582,231.533L237.305,230.399L238.027,228.952L238.75,228.757L239.473,227.311L240.195,226.818L240.918,224.9L241.641,224.682L242.363,223.212L243.086,222.534L243.809,221.473L244.531,220.442L245.254,218.457L245.977,217.779L246.699,216.604L247.422,215.97L248.145,215.255L248.867,213.276L249.59,212.417L250.313,211.702L251.035,210.99L251.758,209.516L252.48,208.54L253.203,206.718L253.926,206.474L254.648,206.191L255.371,203.965L256.094,203.317L256.816,202.908L257.539,201.33L258.262,200.621L258.984,199.134L259.707,198.295L260.43,197.118L261.152,195.799L261.875,195.615L262.598,193.811L263.32,192.61L264.043,192.245L264.766,190.8L265.488,190.418L266.211,188.34L266.934,188.143L267.656,186.475L268.379,186.223L269.102,185.69L269.824,184.557L270.547,182.669L271.27,182.465L271.992,182.035L272.715,181.232L273.438,179.324L274.16,178.746L274.883,177.201L275.605,177.199L276.328,175.608L277.051,175.299L277.773,174.022L278.496,173.636L279.219,172.762L279.941,170.307L280.664,169.514L281.387,169.625L282.109,168.744L282.832,167.465L283.555,167.408L284.277,166.64L285,166.107L285.723,163.81L286.445,164.199L287.168,163.775L287.891,162.238L288.613,162.562L289.336,161.328L290.059,160.133L290.781,159.47L291.504,158.567L292.227,158.342L292.949,157.419L293.672,156.799L294.395,155.922L295.117,155.225L295.84,154.417L296.563,153.59L297.285,153.16L298.008,152.592L298.73,152.676L299.453,150.815L300.176,149.937L300.898,150.26L301.621,149.75L302.344,148.105L303.066,147.412L303.789,147.393L304.512,147.428L305.234,146.146L305.957,144.454L306.68,144.752L307.402,144.483L308.125,143.48L308.848,142.607L309.57,142.326L310.293,142.282L311.016,141.526L311.738,140.499L312.461,139.929L313.184,139.236L313.906,138.671L314.629,139.163L315.352,138.331L316.074,137.213L316.797,137.046L317.52,136.336L318.242,136.11L318.965,134.947L319.688,135.565L320.41,133.672L321.133,134.379L321.855,132.961L322.578,132.944L323.301,132.537L324.023,131.929L324.746,131.691L325.469,131.04L326.191,130.631L326.914,130.435L327.637,129.885L328.359,129.31L329.082,128.431L329.805,128.321L330.527,127.937L331.25,127.57L331.973,127.118L332.695,127.754L333.418,126.659L334.141,126.344L334.863,125.883L335.586,125.518L336.309,124.908L337.031,124.85L337.754,124.153L338.477,123.525L339.199,123.443L339.922,122.89L340.645,122.903L341.367,122.557L342.09,121.429L342.813,121.917L343.535,120.629L344.258,121.004L344.98,120.571L345.703,119.956L346.426,119.876L347.148,119.44L347.871,118.974L348.594,118.695L349.316,118.421L350.039,117.602L350.762,117.265L351.484,117.335L352.207,116.657L352.93,116.715L353.652,116.13L354.375,115.953L355.098,115.909L355.82,114.911L356.543,114.687L357.266,114.645L357.988,114.412L358.711,113.913L359.434,113.452L360.156,113.24L360.879,112.893L361.602,112.522L362.324,112.835L363.047,112.25L363.77,112.239L364.492,111.391L365.215,111.398L365.938,110.381L366.66,110.927L367.383,110.131L368.105,109.601L368.828,109.689L369.551,109.336L370.273,109.479L370.996,108.698L371.719,108.74L372.441,108.58L373.164,108.1L373.887,107.957L374.609,106.805L375.332,107.145L376.055,107.169L376.777,105.952L377.5,105.757L378.223,105.626L378.945,105.856L379.668,105.321L380.391,104.696L381.113,104.346L381.836,104.32L382.559,103.444L383.281,103.807L384.004,103.839L384.727,103.421L385.449,103.109L386.172,103.147L386.895,102.23L387.617,101.674L388.34,102.006L389.063,101.057L389.785,100.846L390.508,100.649L391.23,100.188L391.953,99.836L392.676,100.32L393.398,99.512L394.121,98.714L394.844,99.012L395.566,99.031L396.289,98.284L397.012,98.175L397.734,97.878L398.457,98.067L399.18,97.81L399.902,96.392L400.625,96.787L401.348,96.845L402.07,95.696L402.793,96.214L403.516,95.515L404.238,95.584L404.961,94.963L405.684,94.696L406.406,94.725L407.129,94.216L407.852,93.902L408.574,93.514L409.297,93.213L410.02,92.908L410.742,92.944L411.465,92.327L412.188,92.228L412.91,91.901L413.633,91.882L414.355,91.08L415.078,91.386L415.801,90.834L416.523,90.36L417.246,90.782L417.969,89.537L418.691,90.052L419.414,89.682L420.137,89.138L420.859,89.322L421.582,88.669L422.305,88.364L423.027,87.739L423.75,87.469L424.473,87.64L425.195,87.368L425.918,86.972L426.641,86.895L427.363,86.5L428.086,86.292L428.809,85.519L429.531,85.695L430.254,85.65L430.977,85.13L431.699,84.751L432.422,84.965L433.145,84.311L433.867,83.959L434.59,84.22L435.313,83.11L436.035,83.258L436.758,82.63L437.48,82.54L438.203,82.463L438.926,82.144L439.648,82.014L440.371,81.439L441.094,81.133L441.816,81.231L442.539,80.973L443.262,80.728L443.984,80.66L444.707,80.366L445.43,79.763L446.152,79.473L446.875,79.309L447.598,78.477L448.32,78.224L449.043,78.866L449.766,78.142L450.488,78.311L451.211,77.815L451.934,76.872L452.656,77.419L453.379,76.905L454.102,76.966L454.824,76.573L455.547,76.309L456.27,76.036L456.992,75.493L457.715,75.578L458.438,75.093L459.16,75.048L459.883,74.791L460.605,74.601L461.328,74.308L462.051,74.47L462.773,73.861L463.496,73.8L464.219,73.186L464.941,73.807L465.664,72.891L466.387,72.051L467.109,72.372L467.832,72.266L468.555,72.238L469.277,71.715"/><path fill="none" stroke="rgb(149, 251, 81)" stroke-width="1.5" d="M100,256.137L100.723,252.299L101.445,245.768L102.168,240.709L102.891,235.858L103.613,232.405L104.336,229.234L105.059,225.351L105.781,235.531L106.504,280.372L107.227,283.349L107.949,285.712L108.672,289.973L109.395,292.278L110.117,293.799L110.84,296.484L111.563,298.998L112.285,301.899L113.008,303.467L113.73,304.866L114.453,306.465L115.176,308.359L115.898,310.456L116.621,310.704L117.344,313.064L118.066,315.198L118.789,315.821L119.512,316.114L120.234,318.791L120.957,318.216L121.68,319.698L122.402,319.826L123.125,319.825L123.848,321.19L124.57,321.987L125.293,320.634L126.016,321.989L126.738,321.033L127.461,321.057L128.184,320.802L128.906,321.134L129.629,320.188L130.352,320.199L131.074,321.316L131.797,319.457L132.52,319.932L133.242,320.418L133.965,320.389L134.688,320.444L135.41,320.017L136.133,319.853L136.855,320.19L137.578,318.815L138.301,318.949L139.023,319.213L139.746,318.824L140.469,319.437L141.191,319.677L141.914,318.164L142.637,318.079L143.359,318.597L144.082,317.399L144.805,317.387L145.527,318.353L146.25,316.65L146.973,317.355L147.695,316.943L148.418,314.671L149.141,315.253L149.863,315.38L150.586,314.967L151.309,315.377L152.031,313.722L152.754,314.128L153.477,312.867L154.199,312.788L154.922,314.056L155.645,312.631L156.367,311.396L157.09,311.62L157.813,311.157L158.535,311.115L159.258,310.853L159.98,310.75L160.703,309.272L161.426,308.429L162.148,309.912L162.871,307.757L163.594,308.115L164.316,307.292L165.039,306.632L165.762,306.565L166.484,306.379L167.207,305.878L167.93,304.51L168.652,303.67L169.375,302.957L170.098,303.673L170.82,302.153L171.543,301.74L172.266,301.451L172.988,300.645L173.711,299.506L174.434,298.938L175.156,299.416L175.879,298.125L176.602,296.976L177.324,296.601L178.047,295.49L178.77,294.263L179.492,295.232L180.215,293.902L180.938,292.405L181.66,292.788L182.383,291.156L183.105,289.685L183.828,289.067L184.551,288.223L185.273,287.799L185.996,287.422L186.719,286.873L187.441,285.121L188.164,283.911L188.887,282.683L189.609,282.368L190.332,282.058L191.055,280.315L191.777,279.069L192.5,278.025L193.223,278.144L193.945,277.203L194.668,276.408L195.391,273.729L196.113,274.207L196.836,273.469L197.559,271.743L198.281,270.832L199.004,269.572L199.727,268.604L200.449,266.851L201.172,265L201.895,265.192L202.617,263.928L203.34,262.731L204.063,261.049L204.785,261.28L205.508,259.243L206.23,257.904L206.953,256.911L207.676,254.417L208.398,254.124L209.121,252.808L209.844,251.613L210.566,250.176L211.289,249.005L212.012,247.586L212.734,247.599L213.457,245.213L214.18,243.952L214.902,242.675L215.625,241.093L216.348,240.483L217.07,238.776L217.793,237.881L218.516,235.696L219.238,234.35L219.961,233.647L220.684,231.276L221.406,230.001L222.129,228.804L222.852,227.541L223.574,226.386L224.297,225.357L225.02,222.851L225.742,222.27L226.465,221.557L227.188,218.852L227.91,217.785L228.633,217.307L229.355,215.395L230.078,214.473L230.801,212.683L231.523,210.773L232.246,210.035L232.969,207.89L233.691,206.405L234.414,204.641L235.137,203.801L235.859,201.847L236.582,201.154L237.305,199.731L238.027,198.438L238.75,196.166L239.473,196.401L240.195,194.877L240.918,191.998L241.641,191.288L242.363,190.386L243.086,188.254L243.809,186.994L244.531,184.969L245.254,185.21L245.977,183.18L246.699,181.674L247.422,180.535L248.145,178.396L248.867,177.696L249.59,177.105L250.313,176.094L251.035,174.126L251.758,172.578L252.48,171.331L253.203,169.537L253.926,167.81L254.648,167.304L255.371,166.049L256.094,164.995L256.816,163.494L257.539,162.127L258.262,160.67L258.984,159.417L259.707,158.698L260.43,157.561L261.152,156.721L261.875,155.256L262.598,153.978L263.32,152.197L264.043,151.563L264.766,150.216L265.488,149.882L266.211,147.804L266.934,146.511L267.656,146.074L268.379,145.025L269.102,143.103L269.824,142.153L270.547,141.592L271.27,140.015L271.992,138.363L272.715,138.066L273.438,137.254L274.16,137.092L274.883,134.876L275.605,134.147L276.328,133.098L277.051,132.014L277.773,130.653L278.496,130.647L279.219,129.044L279.941,127.881L280.664,126.988L281.387,126.01L282.109,125.087L282.832,124.078L283.555,123.013L284.277,122.748L285,122.527L285.723,121.322L286.445,119.372L287.168,119.294L287.891,118.148L288.613,117.487L289.336,117.041L290.059,116.347L290.781,114.955L291.504,114.128L292.227,113.972L292.949,113.174L293.672,112.062L294.395,111.998L295.117,110.187L295.84,110.516L296.563,108.74L297.285,108.703L298.008,108.276L298.73,106.769L299.453,106.683L300.176,105.678L300.898,104.653L301.621,104.439L302.344,104.082L303.066,102.949L303.789,102.628L304.512,101.981L305.234,101.387L305.957,100.955L306.68,100.717L307.402,99.254L308.125,98.949L308.848,98.424L309.57,98.128L310.293,97.423L311.016,96.531L311.738,96.428L312.461,95.894L313.184,95.795L313.906,95.808L314.629,94.005L315.352,93.979L316.074,93.472L316.797,93.014L317.52,92.478L318.242,92.522L318.965,92.245L319.688,91.103L320.41,91.161L321.133,90.309L321.855,89.573L322.578,89.379L323.301,88.973L324.023,88.521L324.746,87.782L325.469,87.772L326.191,87.963L326.914,86.895L327.637,86.627L328.359,86.152L329.082,86.306L329.805,85.453L330.527,85.129L331.25,85.638L331.973,84.583L332.695,84.03L333.418,83.822L334.141,83.57L334.863,83.291L335.586,83.019L336.309,82.671L337.031,81.99L337.754,82.08L338.477,81.954L339.199,81.478L339.922,80.985L340.645,81.328L341.367,80.579L342.09,80.591L342.813,80.107L343.535,79.997L344.258,79.701L344.98,79.393L345.703,79.229L346.426,79.18L347.148,78.903L347.871,78.467L348.594,78.223L349.316,77.974L350.039,78.242L350.762,77.281L351.484,77.252L352.207,77.536L352.93,76.859L353.652,76.786L354.375,77.268L355.098,76.318L355.82,76.651L356.543,75.886L357.266,76.359L357.988,75.692L358.711,75.507L359.434,74.796L360.156,75.765L360.879,74.787L361.602,74.581L362.324,74.835L363.047,74.457L363.77,73.967L364.492,73.853L365.215,73.905L365.938,73.56L366.66,73.496L367.383,72.93L368.105,72.997L368.828,73.428L369.551,72.766L370.273,72.603L370.996,72.023L371.719,72.167L372.441,72.101L373.164,71.627L373.887,71.894L374.609,71.485L375.332,71.544L376.055,71.021L376.777,70.939L377.5,70.998L378.223,71.018L378.945,71.021L379.668,70.578L380.391,70.335L381.113,70.293L381.836,69.945L382.559,70.501L383.281,70.122L384.004,69.626L384.727,69.864L385.449,69.111L386.172,68.986L386.895,69.835L387.617,69.021L388.34,69.278L389.063,69.11L389.785,68.734L390.508,68.556L391.23,68.379L391.953,68.768L392.676,68.602L393.398,68.621L394.121,68.168L394.844,67.953L395.566,67.61L396.289,67.304L397.012,67.278L397.734,67.636L398.457,67.347L399.18,66.756L399.902,66.356L400.625,67.007L401.348,66.829L402.07,66.467L402.793,66.616L403.516,66.369L404.238,65.884L404.961,66.165L405.684,65.918L406.406,65.561L407.129,65.28L407.852,65.479L408.574,65.521L409.297,65.008L410.02,65.304L410.742,65.389L411.465,64.807L412.188,64.541L412.91,64.767L413.633,64.511L414.355,64.199L415.078,64.191L415.801,64.007L416.523,64.2L417.246,64.153L417.969,63.622L418.691,63.566L419.414,63.296L420.137,63.282L420.859,63.031L421.582,63.156L422.305,62.513L423.027,62.63L423.75,62.451L424.473,62.765L425.195,62.136L425.918,62.016L426.641,62.394L427.363,61.968L428.086,62.004L428.809,61.61L429.531,61.421L430.254,61.656L430.977,61.103L431.699,60.947L432.422,60.856L433.145,60.989L433.867,60.916L434.59,60.533L435.313,60.489L436.035,60.394L436.758,60.218L437.48,60.265L438.203,59.586L438.926,59.899L439.648,59.321L440.371,59.221L441.094,59.374L441.816,58.9L442.539,59.232L443.262,58.962L443.984,58.987L444.707,58.817L445.43,58.509L446.152,58.611L446.875,58.543L447.598,58.125L448.32,58.012L449.043,57.792L449.766,57.645L450.488,57.63L451.211,57.499L451.934,57.208L452.656,57.367L453.379,57.045L454.102,56.969L454.824,56.668L455.547,56.46L456.27,56.481L456.992,56.499L457.715,56.297L458.438,55.835L459.16,55.71L459.883,55.467L460.605,55.594L461.328,55.293L462.051,55.151L462.773,55.387L463.496,55.327L464.219,54.937L464.941,54.858L465.664,54.978L466.387,54.322L467.109,54.489L467.832,53.774L468.555,53.97L469.277,53.761"/><path fill="none" stroke="rgb(236, 209, 46)" stroke-width="1.5" d="M100,251.588L100.723,249.395L101.445,243.553L102.168,235.497L102.891,229.374L103.613,223.074L104.336,253.565L105.059,274.44L105.781,278.399L106.504,281.182L107.227,286.053L107.949,289.829L108.672,291.872L109.395,295.325L110.117,297.425L110.84,299.413L111.563,301.553L112.285,304.416L113.008,306.798L113.73,307.287L114.453,309.746L115.176,311.362L115.898,314.044L116.621,314.835L117.344,315.362L118.066,317.3L118.789,317.888L119.512,320.353L120.234,321.01L120.957,321.84L121.68,323.097L122.402,323.968L123.125,324.819L123.848,324.771L124.57,323.983L125.293,324.462L126.016,325.831L126.738,325.15L127.461,324.358L128.184,323.913L128.906,323.758L129.629,324.07L130.352,323.932L131.074,324.225L131.797,324.366L132.52,322.781L133.242,323.026L133.965,323.071L134.688,322.156L135.41,323.124L136.133,322.285L136.855,322.61L137.578,323.025L138.301,321.306L139.023,320.785L139.746,322.109L140.469,321.839L141.191,320.354L141.914,321.016L142.637,320.203L143.359,319.072L144.082,320.488L144.805,319.576L145.527,318.15L146.25,318.229L146.973,318.447L147.695,316.982L148.418,317.602L149.141,316.893L149.863,316.672L150.586,315.311L151.309,316.252L152.031,314.669L152.754,315.238L153.477,314.095L154.199,314.35L154.922,314.676L155.645,313.469L156.367,312.316L157.09,311.774L157.813,311.385L158.535,311.206L159.258,310.848L159.98,310.32L160.703,309.156L161.426,308.798L162.148,308.183L162.871,307.855L163.594,307.127L164.316,306.861L165.039,305.578L165.762,307.355L166.484,305.368L167.207,303.54L167.93,303.72L168.652,303.43L169.375,301.904L170.098,299.712L170.82,301.328L171.543,299.997L172.266,298.825L172.988,297.816L173.711,297.051L174.434,297.51L175.156,296.296L175.879,295.797L176.602,294.199L177.324,293.341L178.047,292.489L178.77,290.544L179.492,290.829L180.215,289.145L180.938,288.806L181.66,287.367L182.383,284.987L183.105,284.93L183.828,284.94L184.551,284.562L185.273,282.617L185.996,281.746L186.719,280.767L187.441,281.11L188.164,278.301L188.887,276.84L189.609,275.794L190.332,274.688L191.055,273.837L191.777,272.996L192.5,271.206L193.223,269.354L193.945,268.647L194.668,267.211L195.391,267.654L196.113,266.691L196.836,263.972L197.559,262.333L198.281,261.362L199.004,260.105L199.727,258.705L200.449,257.038L201.172,255.852L201.895,254.197L202.617,253.421L203.34,252.259L204.063,250.743L204.785,248.997L205.508,247.999L206.23,246.487L206.953,244.818L207.676,243.69L208.398,242.157L209.121,240.041L209.844,238.219L210.566,236.769L211.289,235.836L212.012,233.513L212.734,232.907L213.457,231.505L214.18,229.855L214.902,228.61L215.625,226.826L216.348,225.185L217.07,223.961L217.793,222.456L218.516,220.852L219.238,219.348L219.961,217.462L220.684,214.961L221.406,214.2L222.129,212.802L222.852,211.689L223.574,209.746L224.297,207.96L225.02,206.157L225.742,204.381L226.465,204.087L227.188,200.856L227.91,200.466L228.633,199.044L229.355,197.558L230.078,195.939L230.801,194.007L231.523,192.462L232.246,190.689L232.969,189.321L233.691,187.567L234.414,187.134L235.137,184.373L235.859,182.57L236.582,181.347L237.305,180.752L238.027,178.469L238.75,177.162L239.473,176.455L240.195,174.072L240.918,173.284L241.641,171.105L242.363,170.948L243.086,168.769L243.809,166.191L244.531,165.359L245.254,163.833L245.977,163.011L246.699,161.909L247.422,159.453L248.145,158.278L248.867,155.342L249.59,155.56L250.313,153.746L251.035,152.058L251.758,152.071L252.48,149.978L253.203,148.68L253.926,147.137L254.648,145.858L255.371,144.46L256.094,143.931L256.816,141.364L257.539,140.546L258.262,139.614L258.984,138.171L259.707,137.267L260.43,135.295L261.152,134.56L261.875,133.05L262.598,132.4L263.32,130.692L264.043,129.314L264.766,129.274L265.488,127.237L266.211,125.341L266.934,125.052L267.656,123.581L268.379,122.543L269.102,121.773L269.824,120.292L270.547,118.941L271.27,118.228L271.992,116.9L272.715,116.039L273.438,114.849L274.16,113.97L274.883,113.255L275.605,112.418L276.328,110.997L277.051,110.076L277.773,109.507L278.496,107.909L279.219,107.429L279.941,106.064L280.664,104.289L281.387,104.59L282.109,103.507L282.832,101.749L283.555,101.706L284.277,100.805L285,99.778L285.723,99.324L286.445,97.938L287.168,96.565L287.891,96.091L288.613,95.291L289.336,94.536L290.059,93.856L290.781,93.234L291.504,92.24L292.227,91.289L292.949,90.283L293.672,89.566L294.395,88.612L295.117,89.037L295.84,88.065L296.563,86.96L297.285,86.375L298.008,85.622L298.73,84.96L299.453,84.013L300.176,83.67L300.898,83.051L301.621,82.505L302.344,81.973L303.066,81.176L303.789,80.373L304.512,79.43L305.234,79.099L305.957,79.175L306.68,78.312L307.402,77.246L308.125,77.078L308.848,76.112L309.57,75.599L310.293,75.368L311.016,74.686L311.738,73.784L312.461,73.494L313.184,73.399L313.906,72.428L314.629,72.266L315.352,71.955L316.074,71.043L316.797,70.488L317.52,69.903L318.242,69.532L318.965,69.687L319.688,69.082L320.41,68.105L321.133,67.859L321.855,66.927L322.578,66.786L323.301,66.092L324.023,65.814L324.746,65.598L325.469,65.535L326.191,64.383L326.914,64.313L327.637,64.337L328.359,63.769L329.082,63.136L329.805,62.387L330.527,62.12L331.25,62.077L331.973,61.273L332.695,61.341L333.418,61.345L334.141,60.756L334.863,59.72L335.586,60.199L336.309,59.412L337.031,58.746L337.754,59.181L338.477,58.399L339.199,57.89L339.922,57.8L340.645,57.28L341.367,57.235L342.09,56.873L342.813,56.21L343.535,56.11L344.258,56.09L344.98,55.616L345.703,55.925L346.426,54.972L347.148,54.785L347.871,54.627L348.594,54.495L349.316,53.637L350.039,53.626L350.762,53.523L351.484,53.377L352.207,52.941L352.93,52.859L353.652,52.204L354.375,52.729L355.098,51.97L355.82,51.608L356.543,51.675L357.266,50.784L357.988,50.932L358.711,50.807L359.434,50.779L360.156,50.278L360.879,49.95L361.602,49.913L362.324,49.577L363.047,49.706L363.77,49.824L364.492,48.987L365.215,48.969L365.938,48.859L366.66,48.331L367.383,48.429L368.105,48.208L368.828,48.242L369.551,47.586L370.273,47.448L370.996,47.347L371.719,46.806L372.441,47.034L373.164,46.509L373.887,46.543L374.609,46.343L375.332,46.032L376.055,45.723L376.777,45.596L377.5,45.628L378.223,45.467L378.945,45.19L379.668,44.998L380.391,45.641L381.113,44.714L381.836,44.556L382.559,44.391L383.281,44.659L384.004,44.548L384.727,44.145L385.449,43.834L386.172,43.787L386.895,43.652L387.617,43.601L388.34,43.222L389.063,43.278L389.785,43.341L390.508,42.858L391.23,43.006L391.953,42.509L392.676,42.711L393.398,42.796L394.121,42.129L394.844,42.376L395.566,42.358L396.289,42.172L397.012,41.612L397.734,41.639L398.457,41.548L399.18,41.528L399.902,41.379L400.625,41.09L401.348,41.408L402.07,40.842L402.793,40.982L403.516,40.926L404.238,40.455L404.961,40.456L405.684,40.887L406.406,40.128L407.129,40.123L407.852,40.367L408.574,39.947L409.297,39.834L410.02,40.244L410.742,39.618L411.465,39.596L412.188,39.736L412.91,39.372L413.633,39.542L414.355,39.46L415.078,39.168L415.801,39.503L416.523,39.035L417.246,38.714L417.969,38.966L418.691,38.504L419.414,38.518L420.137,38.472L420.859,38.677L421.582,38.478L422.305,38.586L423.027,38.638L423.75,37.957L424.473,37.811L425.195,37.863L425.918,37.661L426.641,37.613L427.363,38.096L428.086,38.035L428.809,37.811L429.531,37.453L430.254,37.516L430.977,37.163L431.699,37.407L432.422,37.24L433.145,36.831L433.867,37.143L434.59,36.978L435.313,36.743L436.035,37.037L436.758,36.939L437.48,36.794L438.203,36.681L438.926,36.535L439.648,36.38L440.371,36.126L441.094,36.213L441.816,36.34L442.539,36.316L443.262,36.303L443.984,35.998L444.707,35.749L445.43,35.808L446.152,36.097L446.875,35.776L447.598,35.537L448.32,35.643L449.043,35.837L449.766,35.307L450.488,35.632L451.211,35.472L451.934,35.243L452.656,35.354L453.379,35.093L454.102,35.249L454.824,35.205L455.547,34.923L456.27,34.772L456.992,34.504L457.715,34.671L458.438,34.638L459.16,34.768L459.883,34.559L460.605,34.333L461.328,34.658L462.051,34.315L462.773,34.523L463.496,34.481L464.219,34.369L464.941,34.088L465.664,34.239L466.387,34.127L467.109,34.069L467.832,33.948L468.555,34.047L469.277,33.937"/><path fill="none" stroke="rgb(255, 130, 29)" stroke-width="1.5" d="M100,251.604L100.723,249.095L101.445,243.609L102.168,235.23L102.891,225.771L103.613,254.761L104.336,268.05L105.059,270.165L105.781,275.195L106.504,279.141L107.227,282.562L107.949,286.741L108.672,290.448L109.395,293.368L110.117,296.166L110.84,299.712L111.563,302.272L112.285,304.098L113.008,306.161L113.73,307.353L114.453,310.202L115.176,312.052L115.898,312.763L116.621,314.485L117.344,315.565L118.066,317.007L118.789,316.716L119.512,319.279L120.234,320.447L120.957,321.225L121.68,322.886L122.402,322.933L123.125,324.213L123.848,325.293L124.57,323.636L125.293,324.947L126.016,325.734L126.738,325.803L127.461,325.068L128.184,325.872L128.906,325.553L129.629,323.771L130.352,324.434L131.074,324.661L131.797,322.859L132.52,322.891L133.242,323.432L133.965,322.35L134.688,323.762L135.41,322.687L136.133,322.843L136.855,322.033L137.578,321.596L138.301,321.39L139.023,321.974L139.746,321.316L140.469,321.152L141.191,319.831L141.914,321.102L142.637,320.213L143.359,319.765L144.082,319.165L144.805,319.053L145.527,318.262L146.25,318.523L146.973,318.078L147.695,318.834L148.418,318.459L149.141,317.265L149.863,317.698L150.586,315.536L151.309,317.003L152.031,314.896L152.754,315.511L153.477,313.856L154.199,314.007L154.922,313.769L155.645,313.584L156.367,312.735L157.09,313.752L157.813,311.879L158.535,310.746L159.258,310.999L159.98,310.303L160.703,310.615L161.426,308.704L162.148,310.195L162.871,309.145L163.594,306.862L164.316,308.713L165.039,307.17L165.762,307.165L166.484,306.504L167.207,306.006L167.93,304.404L168.652,303.027L169.375,303.437L170.098,302.985L170.82,301.932L171.543,301.478L172.266,300.102L172.988,300.482L173.711,298.661L174.434,298.09L175.156,297.498L175.879,296.526L176.602,295.921L177.324,294.187L178.047,293.655L178.77,292.486L179.492,292.563L180.215,290.373L180.938,291.408L181.66,288.777L182.383,288.088L183.105,287.819L183.828,286.819L184.551,284.543L185.273,284.129L185.996,283.147L186.719,283.012L187.441,282.105L188.164,279.63L188.887,279.687L189.609,278.254L190.332,277.164L191.055,275.756L191.777,273.609L192.5,273.441L193.223,271.552L193.945,270.576L194.668,268.766L195.391,268.229L196.113,266.8L196.836,266.262L197.559,263.808L198.281,262.251L199.004,261.635L199.727,260.576L200.449,258.591L201.172,257.008L201.895,256.38L202.617,254.242L203.34,252.539L204.063,251.458L204.785,250.782L205.508,249.243L206.23,246.968L206.953,245.871L207.676,244.771L208.398,243.623L209.121,241.101L209.844,240.545L210.566,238.256L211.289,237.135L212.012,235.77L212.734,234.562L213.457,232.239L214.18,230.616L214.902,229.327L215.625,226.819L216.348,226.651L217.07,225.047L217.793,223.188L218.516,220.982L219.238,220.852L219.961,218.64L220.684,216.85L221.406,215.509L222.129,213.447L222.852,211.749L223.574,211.472L224.297,208.356L225.02,207.264L225.742,206.318L226.465,204.76L227.188,202.596L227.91,200.684L228.633,199.44L229.355,197.952L230.078,195.451L230.801,194.528L231.523,192.315L232.246,191.057L232.969,189.762L233.691,188.082L234.414,186.428L235.137,183.831L235.859,182.375L236.582,181.775L237.305,179.761L238.027,177.682L238.75,177.484L239.473,175.81L240.195,173.976L240.918,173.296L241.641,171.176L242.363,169.802L243.086,168.391L243.809,166.426L244.531,165.488L245.254,163.978L245.977,161.448L246.699,160.622L247.422,159.048L248.145,157.884L248.867,156.777L249.59,154.712L250.313,152.545L251.035,152.003L251.758,150.714L252.48,148.5L253.203,148.057L253.926,146.88L254.648,144.779L255.371,143.722L256.094,142.157L256.816,140.623L257.539,139.291L258.262,138.72L258.984,136.3L259.707,135.938L260.43,134.819L261.152,133.064L261.875,131.988L262.598,131.054L263.32,129.804L264.043,128.588L264.766,126.3L265.488,126.07L266.211,124.786L266.934,123.516L267.656,122.843L268.379,122.091L269.102,119.868L269.824,119.267L270.547,118.087L271.27,116.849L271.992,115.527L272.715,114.561L273.438,112.99L274.16,112.481L274.883,111.839L275.605,110.128L276.328,108.682L277.051,108.529L277.773,107.498L278.496,106.377L279.219,105.166L279.941,104.32L280.664,103.693L281.387,102.424L282.109,101.089L282.832,100.452L283.555,99.399L284.277,98.308L285,97.985L285.723,96.831L286.445,95.583L287.168,95.103L287.891,94.694L288.613,93.351L289.336,92.285L290.059,91.308L290.781,90.844L291.504,90.65L292.227,89.434L292.949,88.338L293.672,87.596L294.395,86.703L295.117,86.222L295.84,84.837L296.563,84.598L297.285,83.952L298.008,83.111L298.73,82.58L299.453,81.572L300.176,81.224L300.898,80.568L301.621,79.723L302.344,79.13L303.066,78.838L303.789,77.583L304.512,76.797L305.234,76.48L305.957,75.698L306.68,74.869L307.402,74.166L308.125,73.7L308.848,72.553L309.57,72.918L310.293,72.314L311.016,71.728L311.738,71.262L312.461,70.345L313.184,69.462L313.906,69.182L314.629,68.468L315.352,67.791L316.074,67.711L316.797,67.025L317.52,66.223L318.242,65.967L318.965,65.48L319.688,65.173L320.41,63.698L321.133,63.609L321.855,63.218L322.578,62.833L323.301,62.404L324.023,61.866L324.746,61.357L325.469,60.956L326.191,60.44L326.914,60.057L327.637,59.639L328.359,59.148L329.082,58.485L329.805,58.151L330.527,57.508L331.25,57.596L331.973,56.726L332.695,55.985L333.418,55.574L334.141,55.523L334.863,55.081L335.586,54.729L336.309,54.373L337.031,54.117L337.754,53.306L338.477,53.26L339.199,52.978L339.922,52.693L340.645,52.003L341.367,51.294L342.09,51.473L342.813,51.459L343.535,50.801L344.258,50.316L344.98,49.589L345.703,49.475L346.426,48.979L347.148,48.735L347.871,48.639L348.594,48.175L349.316,47.947L350.039,47.615L350.762,47.289L351.484,46.76L352.207,46.674L352.93,46.238L353.652,46.115L354.375,45.846L355.098,45.783L355.82,45.201L356.543,44.786L357.266,44.789L357.988,44.169L358.711,43.802L359.434,43.681L360.156,43.036L360.879,42.981L361.602,42.62L362.324,42.296L363.047,42.46L363.77,41.898L364.492,41.329L365.215,41.658L365.938,40.967L366.66,41.099L367.383,40.751L368.105,40.591L368.828,40.001L369.551,39.79L370.273,39.377L370.996,39.476L371.719,38.953L372.441,38.948L373.164,38.81L373.887,38.327L374.609,38.2L375.332,37.988L376.055,37.9L376.777,37.498L377.5,37.304L378.223,37.076L378.945,36.71L379.668,36.852L380.391,36.464L381.113,36.124L381.836,36.093L382.559,35.792L383.281,35.653L384.004,35.243L384.727,35.156L385.449,35.005L386.172,34.795L386.895,34.264L387.617,34.126L388.34,33.964L389.063,33.908L389.785,33.404L390.508,33.464L391.23,33.286L391.953,33.235L392.676,32.872L393.398,32.746L394.121,32.565L394.844,32.273L395.566,32.297L396.289,31.934L397.012,32.125L397.734,31.848L398.457,31.456L399.18,31.402L399.902,31.542L400.625,30.878L401.348,30.867L402.07,30.777L402.793,30.402L403.516,30.2L404.238,30.229L404.961,30.107L405.684,29.719L406.406,29.811L407.129,29.399L407.852,29.399L408.574,29.317L409.297,29.312L410.02,28.957L410.742,28.797L411.465,28.548L412.188,28.42L412.91,28.616L413.633,28.039L414.355,28.128L415.078,28.115L415.801,27.958L416.523,27.677L417.246,27.46L417.969,27.53L418.691,27.108L419.414,27.161L420.137,26.943L420.859,26.887L421.582,26.553L422.305,26.528L423.027,26.238L423.75,26.388L424.473,26.399L425.195,25.991L425.918,26.21L426.641,25.811L427.363,25.721L428.086,25.707L428.809,25.4L429.531,25.412L430.254,25.175L430.977,25.115L431.699,24.856L432.422,24.874L433.145,24.926L433.867,24.726L434.59,24.399L435.313,24.58L436.035,24.329L436.758,23.935L437.48,24.128L438.203,24.055L438.926,23.881L439.648,23.655L440.371,23.84L441.094,23.548L441.816,23.284L442.539,23.037L443.262,23.242L443.984,23.236L444.707,23.068L445.43,23.092L446.152,22.968L446.875,22.662L447.598,22.652L448.32,22.601L449.043,22.19L449.766,22.321L450.488,22.46L451.211,22.145L451.934,22.053L452.656,21.968L453.379,21.813L454.102,21.928L454.824,21.725L455.547,21.683L456.27,21.556L456.992,21.428L457.715,21.284L458.438,21.082L459.16,21.112L459.883,20.925L460.605,21.362L461.328,21.049L462.051,20.704L462.773,20.699L463.496,20.711L464.219,20.567L464.941,20.581L465.664,20.439L466.387,20.356L467.109,20.151L467.832,20.358L468.555,20.407L469.277,20"/><path fill="none" stroke="rgb(203, 47, 13)" stroke-width="1.5" d="M100,250.744L100.723,249.382L101.445,244.034L102.168,234.55L102.891,224.482L103.613,263.214L104.336,265.498L105.059,267.926L105.781,272.559L106.504,276.316L107.227,280.573L107.949,285.901L108.672,288.824L109.395,292.614L110.117,296.05L110.84,297.941L111.563,301.408L112.285,302.913L113.008,304.531L113.73,307.748L114.453,309.033L115.176,311.393L115.898,311.823L116.621,314.584L117.344,314.923L118.066,316.635L118.789,317.505L119.512,318.384L120.234,320.148L120.957,323.015L121.68,322.118L122.402,323.817L123.125,323.742L123.848,324.546L124.57,324.875L125.293,324.908L126.016,326.426L126.738,326.515L127.461,325.291L128.184,324.35L128.906,324.003L129.629,324.738L130.352,323.826L131.074,323.376L131.797,323.532L132.52,322.962L133.242,322.914L133.965,322.769L134.688,323.809L135.41,322.766L136.133,323.296L136.855,323.093L137.578,322.374L138.301,323.22L139.023,321.465L139.746,321.972L140.469,320.566L141.191,321.257L141.914,321.625L142.637,321.661L143.359,319.908L144.082,320.019L144.805,319.725L145.527,318.29L146.25,320.126L146.973,318.948L147.695,319.082L148.418,318.029L149.141,317.177L149.863,318.667L150.586,316.139L151.309,317.149L152.031,317.064L152.754,315.285L153.477,315.859L154.199,315.676L154.922,314.937L155.645,314.443L156.367,314.29L157.09,313.898L157.813,314.329L158.535,313.455L159.258,313.14L159.98,312.53L160.703,311.473L161.426,310.792L162.148,311.73L162.871,312.184L163.594,308.113L164.316,309.098L165.039,309.013L165.762,308.371L166.484,307.518L167.207,307.948L167.93,306.998L168.652,306.521L169.375,306.341L170.098,305.651L170.82,304.62L171.543,303.291L172.266,303.908L172.988,302.969L173.711,301.565L174.434,300.971L175.156,301.792L175.879,298.93L176.602,299.941L177.324,297.261L178.047,297.842L178.77,296.72L179.492,295.861L180.215,295.543L180.938,294.37L181.66,294.332L182.383,294.001L183.105,292.765L183.828,291.169L184.551,290.947L185.273,289.991L185.996,287.311L186.719,287.484L187.441,286.553L188.164,286.131L188.887,284.158L189.609,283.646L190.332,282.795L191.055,281.097L191.777,280.594L192.5,280.455L193.223,278.958L193.945,277.981L194.668,276.183L195.391,274.776L196.113,274.255L196.836,273.482L197.559,272.589L198.281,271.598L199.004,268.486L199.727,267.795L200.449,267.338L201.172,265.384L201.895,264.919L202.617,263.283L203.34,262.813L204.063,261.581L204.785,260.229L205.508,258.362L206.23,257.613L206.953,256.008L207.676,255.523L208.398,254.208L209.121,253.328L209.844,251.398L210.566,250.615L211.289,248.8L212.012,246.156L212.734,246.004L213.457,243.787L214.18,243.588L214.902,242.191L215.625,240.798L216.348,238.275L217.07,236.913L217.793,237.233L218.516,235.528L219.238,233.049L219.961,232.708L220.684,229.569L221.406,228.984L222.129,228.042L222.852,224.923L223.574,225.592L224.297,223.288L225.02,221.601L225.742,221.055L226.465,220.026L227.188,216.583L227.91,215.806L228.633,214.771L229.355,213.214L230.078,211.636L230.801,210.194L231.523,208.792L232.246,208.058L232.969,206.742L233.691,204.098L234.414,203.392L235.137,202.225L235.859,200.967L236.582,199.173L237.305,198.553L238.027,196.729L238.75,195.495L239.473,193.766L240.195,193.3L240.918,190.823L241.641,189.825L242.363,187.921L243.086,187.528L243.809,185.857L244.531,183.769L245.254,182.669L245.977,182.666L246.699,179.707L247.422,179.175L248.145,177.693L248.867,175.598L249.59,174.5L250.313,174.722L251.035,173.277L251.758,171.093L252.48,169.892L253.203,169.078L253.926,168.223L254.648,166.491L255.371,164.845L256.094,164.253L256.816,163.572L257.539,161.53L258.262,160.841L258.984,159.411L259.707,158.756L260.43,156.878L261.152,156.247L261.875,154.137L262.598,154.029L263.32,152.537L264.043,151.846L264.766,150.015L265.488,148.937L266.211,148.47L266.934,147.291L267.656,145.664L268.379,144.475L269.102,143.108L269.824,142.724L270.547,141.523L271.27,140.936L271.992,139.74L272.715,138.436L273.438,137.233L274.16,136.306L274.883,136.143L275.605,135.126L276.328,133.752L277.051,132.911L277.773,131.83L278.496,130.841L279.219,130.298L279.941,128.598L280.664,127.881L281.387,127.421L282.109,125.964L282.832,125.341L283.555,124.323L284.277,122.909L285,122.47L285.723,121.515L286.445,121.129L287.168,119.658L287.891,118.96L288.613,118.749L289.336,118.298L290.059,116.359L290.781,115.627L291.504,115.011L292.227,113.616L292.949,113.598L293.672,112.367L294.395,111.421L295.117,110.654L295.84,110.215L296.563,108.854L297.285,108.458L298.008,108.499L298.73,107.082L299.453,106.791L300.176,105.939L300.898,105.209L301.621,104.091L302.344,103.515L303.066,102.977L303.789,102.42L304.512,101.407L305.234,101.151L305.957,100.266L306.68,99.783L307.402,98.847L308.125,98.462L308.848,97.847L309.57,97.114L310.293,96.744L311.016,96.119L311.738,95.574L312.461,94.245L313.184,93.812L313.906,93.718L314.629,93.003L315.352,91.754L316.074,91.256L316.797,90.397L317.52,89.843L318.242,89.816L318.965,89.025L319.688,88.263L320.41,87.859L321.133,86.292L321.855,87.226L322.578,85.689L323.301,85.338L324.023,84.954L324.746,84.476L325.469,83.925L326.191,83.357L326.914,82.722L327.637,82.112L328.359,81.723L329.082,81.493L329.805,80.939L330.527,79.972L331.25,79.238L331.973,79.449L332.695,78.032L333.418,77.726L334.141,77.278L334.863,77.682L335.586,76.26L336.309,76.058L337.031,76.126L337.754,75.366L338.477,74.546L339.199,73.977L339.922,73.772L340.645,72.932L341.367,72.965L342.09,71.852L342.813,71.657L343.535,71.237L344.258,71.279L344.98,70.833L345.703,69.795L346.426,69.637L347.148,68.752L347.871,69.481L348.594,68.732L349.316,67.902L350.039,67.074L350.762,67.335L351.484,66.385L352.207,66.027L352.93,65.466L353.652,65.468L354.375,64.922L355.098,64.347L355.82,64.316L356.543,63.472L357.266,63.562L357.988,62.726L358.711,62.221L359.434,61.761L360.156,61.322L360.879,61.077L361.602,60.827L362.324,60.176L363.047,60.022L363.77,59.444L364.492,59.427L365.215,58.638L365.938,58.55L366.66,57.727L367.383,57.597L368.105,57.48L368.828,57.101L369.551,56.625L370.273,56.353L370.996,56.268L371.719,55.675L372.441,55.144L373.164,54.936L373.887,55.17L374.609,54.273L375.332,54.217L376.055,53.767L376.777,53.976L377.5,53.172L378.223,52.999L378.945,52.414L379.668,52.038L380.391,52.259L381.113,51.058L381.836,50.83L382.559,51.068L383.281,50.558L384.004,49.965L384.727,49.869L385.449,50.066L386.172,48.976L386.895,49.064L387.617,49.204L388.34,48.704L389.063,47.902L389.785,47.908L390.508,47.29L391.23,47.136L391.953,47.108L392.676,46.329L393.398,46.073L394.121,46.113L394.844,45.25L395.566,45.427L396.289,45.286L397.012,45.35L397.734,44.126L398.457,44.167L399.18,44.23L399.902,43.78L400.625,44.017L401.348,43.666L402.07,42.987L402.793,42.48L403.516,42.021L404.238,41.954L404.961,41.732L405.684,41.64L406.406,41.595L407.129,41.075L407.852,41.102L408.574,40.761L409.297,40.948L410.02,39.877L410.742,39.697L411.465,39.778L412.188,39.372L412.91,39.462L413.633,39.547L414.355,38.321L415.078,38.586L415.801,38.096L416.523,38.033L417.246,38.346L417.969,37.771L418.691,37.186L419.414,37.543L420.137,36.476L420.859,36.798L421.582,36.278L422.305,36.589L423.027,36.044L423.75,35.918L424.473,35.527L425.195,35.212L425.918,35.273L426.641,34.871L427.363,34.433L428.086,34.909L428.809,34.192L429.531,34.037L430.254,33.896L430.977,33.597L431.699,33.892L432.422,33.201L433.145,33.235L433.867,33.144L434.59,33.097L435.313,32.235L436.035,32.571L436.758,32.41L437.48,31.661L438.203,31.433L438.926,31.321L439.648,31.481L440.371,31.279L441.094,30.395L441.816,30.792L442.539,30.798L443.262,30.273L443.984,30.109L444.707,30.167L445.43,29.959L446.152,29.637L446.875,29.513L447.598,29.503L448.32,29.21L449.043,28.756L449.766,28.967L450.488,28.867L451.211,28.509L451.934,28.104L452.656,28.357L453.379,27.848L454.102,27.951L454.824,27.812L455.547,27.79L456.27,27.375L456.992,27.128L457.715,27.146L458.438,26.968L459.16,26.814L459.883,26.666L460.605,26.48L461.328,26.206L462.051,26.45L462.773,26.045L463.496,25.857L464.219,25.456L464.941,25.588L465.664,25.517L466.387,25.394L467.109,25.321L467.832,24.853L468.555,24.792L469.277,24.862"/><g transform="translate(0,190) scale(1.7) rotate(-90)"><text>Drift</text></g><g transform="translate(315,395) scale(1.8)"><text></text></g><g transform="translate(0,350)" fill="none" font-size="10" font-family="sans-serif" text-anchor="middle"><path class="domain" stroke="currentColor" d="M100,6V0H470V6"/><g class="tick" opacity="1" transform="translate(136.66666666666666,0)"><line stroke="currentColor" y2="6"/><text fill="currentColor" y="9" dy="0.71em" font-size="20px"> </text></g><g class="tick" opacity="1" transform="translate(173.7037037037037,0)"><line stroke="currentColor" y2="6"/><text fill="currentColor" y="9" dy="0.71em" font-size="20px">200</text></g><g class="tick" opacity="1" transform="translate(210.74074074074076,0)"><line stroke="currentColor" y2="6"/><text fill="currentColor" y="9" dy="0.71em" font-size="20px"> </text></g><g class="tick" opacity="1" transform="translate(247.77777777777777,0)"><line stroke="currentColor" y2="6"/><text fill="currentColor" y="9" dy="0.71em" font-size="20px">400</text></g><g class="tick" opacity="1" transform="translate(284.81481481481484,0)"><line stroke="currentColor" y2="6"/><text fill="currentColor" y="9" dy="0.71em" font-size="20px"> </text></g><g class="tick" opacity="1" transform="translate(321.85185185185185,0)"><line stroke="currentColor" y2="6"/><text fill="currentColor" y="9" dy="0.71em" font-size="20px">600</text></g><g class="tick" opacity="1" transform="translate(358.8888888888889,0)"><line stroke="currentColor" y2="6"/><text fill="currentColor" y="9" dy="0.71em" font-size="20px"> </text></g><g class="tick" opacity="1" transform="translate(395.9259259259259,0)"><line stroke="currentColor" y2="6"/><text fill="currentColor" y="9" dy="0.71em" font-size="20px">800</text></g><g class="tick" opacity="1" transform="translate(432.96296296296293,0)"><line stroke="currentColor" y2="6"/><text fill="currentColor" y="9" dy="0.71em" font-size="20px"> </text></g><g class="tick" opacity="1" transform="translate(470,0)"><line stroke="currentColor" y2="6"/><text fill="currentColor" y="9" dy="0.71em" font-size="20px">1000</text></g></g><g transform="translate(100,0)" fill="none" font-size="10" font-family="sans-serif" text-anchor="end"><path class="domain" stroke="currentColor" d="M-6,350H0V20H-6"/><g class="tick" opacity="1" transform="translate(0,346.9000649492282)"><line stroke="currentColor" x2="-6"/><text fill="currentColor" x="-9" dy="0.32em" font-size="20px">0.080</text></g><g class="tick" opacity="1" transform="translate(0,318.2424070334525)"><line stroke="currentColor" x2="-6"/><text fill="currentColor" x="-9" dy="0.32em" font-size="20px">0.075</text></g><g class="tick" opacity="1" transform="translate(0,289.5847491176768)"><line stroke="currentColor" x2="-6"/><text fill="currentColor" x="-9" dy="0.32em" font-size="20px">0.070</text></g><g class="tick" opacity="1" transform="translate(0,260.927091201901)"><line stroke="currentColor" x2="-6"/><text fill="currentColor" x="-9" dy="0.32em" font-size="20px">0.065</text></g><g class="tick" opacity="1" transform="translate(0,232.26943328612526)"><line stroke="currentColor" x2="-6"/><text fill="currentColor" x="-9" dy="0.32em" font-size="20px">0.060</text></g><g class="tick" opacity="1" transform="translate(0,203.61177537034956)"><line stroke="currentColor" x2="-6"/><text fill="currentColor" x="-9" dy="0.32em" font-size="20px">0.055</text></g><g class="tick" opacity="1" transform="translate(0,174.95411745457383)"><line stroke="currentColor" x2="-6"/><text fill="currentColor" x="-9" dy="0.32em" font-size="20px">0.050</text></g><g class="tick" opacity="1" transform="translate(0,146.29645953879808)"><line stroke="currentColor" x2="-6"/><text fill="currentColor" x="-9" dy="0.32em" font-size="20px">0.045</text></g><g class="tick" opacity="1" transform="translate(0,117.63880162302237)"><line stroke="currentColor" x2="-6"/><text fill="currentColor" x="-9" dy="0.32em" font-size="20px">0.040</text></g><g class="tick" opacity="1" transform="translate(0,88.98114370724667)"><line stroke="currentColor" x2="-6"/><text fill="currentColor" x="-9" dy="0.32em" font-size="20px">0.035</text></g><g class="tick" opacity="1" transform="translate(0,60.32348579147089)"><line stroke="currentColor" x2="-6"/><text fill="currentColor" x="-9" dy="0.32em" font-size="20px">0.030</text></g><g class="tick" opacity="1" transform="translate(0,31.665827875695175)"><line stroke="currentColor" x2="-6"/><text fill="currentColor" x="-9" dy="0.32em" font-size="20px">0.025</text></g></g><circle cx="115" cy="25" r="8" style="fill: rgb(35, 23, 27);"/><circle cx="115" cy="50" r="8" style="fill: rgb(69, 105, 238);"/><circle cx="115" cy="75" r="8" style="fill: rgb(38, 188, 225);"/><circle cx="115" cy="100" r="8" style="fill: rgb(63, 243, 147);"/><circle cx="115" cy="125" r="8" style="fill: rgb(149, 251, 81);"/><circle cx="115" cy="150" r="8" style="fill: rgb(236, 209, 46);"/><circle cx="115" cy="175" r="8" style="fill: rgb(255, 130, 29);"/><circle cx="115" cy="200" r="8" style="fill: rgb(203, 47, 13);"/><text x="130" y="25" text-anchor="left" font-size="22" alignment-baseline="middle" style="fill: rgb(35, 23, 27);"> = 0</text><text x="130" y="50" text-anchor="left" font-size="22" alignment-baseline="middle" style="fill: rgb(69, 105, 238);"> = 0.22</text><text x="130" y="75" text-anchor="left" font-size="22" alignment-baseline="middle" style="fill: rgb(38, 188, 225);"> = 0.45</text><text x="130" y="100" text-anchor="left" font-size="22" alignment-baseline="middle" style="fill: rgb(63, 243, 147);"> = 0.67</text><text x="130" y="125" text-anchor="left" font-size="22" alignment-baseline="middle" style="fill: rgb(149, 251, 81);"> = 0.9</text><text x="130" y="150" text-anchor="left" font-size="22" alignment-baseline="middle" style="fill: rgb(236, 209, 46);"> = 1.12</text><text x="130" y="175" text-anchor="left" font-size="22" alignment-baseline="middle" style="fill: rgb(255, 130, 29);"> = 1.35</text><text x="130" y="200" text-anchor="left" font-size="22" alignment-baseline="middle" style="fill: rgb(203, 47, 13);"> = 1.57</text></svg>