<svg xmlns="http://www.w3.org/2000/svg" class="bg-white" width="500" height="400" viewBox="-35.199999999999996 -24.19999999999999 550 440.00000000000006"><path fill="none" stroke="rgb(35, 23, 27)" stroke-width="1.5" d="M100,46.028L100.723,44.84L101.445,43.785L102.168,42.835L102.891,41.942L103.613,41.072L104.336,40.215L105.059,39.482L105.781,38.701L106.504,37.992L107.227,37.278L107.949,36.608L108.672,35.993L109.395,35.364L110.117,34.761L110.84,34.105L111.563,33.488L112.285,32.829L113.008,32.194L113.73,31.579L114.453,30.914L115.176,30.296L115.898,29.629L116.621,28.917L117.344,28.213L118.066,27.521L118.789,26.732L119.512,25.907L120.234,25.081L120.957,24.145L121.68,23.084L122.402,22.829L123.125,23.991L123.848,25.056L124.57,25.937L125.293,26.833L126.016,27.663L126.738,28.445L127.461,29.177L128.184,29.927L128.906,30.583L129.629,31.26L130.352,31.82L131.074,32.483L131.797,33.046L132.52,33.6L133.242,34.163L133.965,34.656L134.688,35.138L135.41,35.658L136.133,36.129L136.855,36.551L137.578,37.093L138.301,37.528L139.023,37.923L139.746,38.292L140.469,38.703L141.191,39.171L141.914,39.619L142.637,39.946L143.359,40.321L144.082,40.721L144.805,41.016L145.527,41.45L146.25,41.815L146.973,42.143L147.695,42.536L148.418,42.823L149.141,43.187L149.863,43.565L150.586,43.911L151.309,44.155L152.031,44.492L152.754,44.837L153.477,45.184L154.199,45.51L154.922,45.809L155.645,46.079L156.367,46.41L157.09,46.735L157.813,47.008L158.535,47.342L159.258,47.617L159.98,47.982L160.703,48.323L161.426,48.586L162.148,48.85L162.871,49.205L163.594,49.424L164.316,49.693L165.039,50.053L165.762,50.433L166.484,50.592L167.207,50.966L167.93,51.286L168.652,51.587L169.375,51.867L170.098,52.173L170.82,52.351L171.543,52.671L172.266,52.986L172.988,53.225L173.711,53.603L174.434,53.844L175.156,54.19L175.879,54.47L176.602,54.758L177.324,55.018L178.047,55.272L178.77,55.561L179.492,55.86L180.215,56.136L180.938,56.398L181.66,56.762L182.383,57.053L183.105,57.37L183.828,57.652L184.551,57.871L185.273,58.181L185.996,58.485L186.719,58.746L187.441,59.064L188.164,59.404L188.887,59.658L189.609,59.966L190.332,60.274L191.055,60.58L191.777,60.817L192.5,61.167L193.223,61.452L193.945,61.723L194.668,62.041L195.391,62.308L196.113,62.636L196.836,62.874L197.559,63.198L198.281,63.469L199.004,63.848L199.727,64.105L200.449,64.457L201.172,64.744L201.895,65.031L202.617,65.345L203.34,65.655L204.063,65.929L204.785,66.234L205.508,66.575L206.23,66.933L206.953,67.156L207.676,67.45L208.398,67.722L209.121,67.995L209.844,68.33L210.566,68.674L211.289,69.058L212.012,69.285L212.734,69.531L213.457,69.981L214.18,70.274L214.902,70.589L215.625,70.853L216.348,71.302L217.07,71.439L217.793,71.773L218.516,72.108L219.238,72.435L219.961,72.712L220.684,73.071L221.406,73.424L222.129,73.735L222.852,74.076L223.574,74.404L224.297,74.61L225.02,75.05L225.742,75.452L226.465,75.726L227.188,75.992L227.91,76.33L228.633,76.635L229.355,76.961L230.078,77.332L230.801,77.629L231.523,77.961L232.246,78.343L232.969,78.62L233.691,79.027L234.414,79.337L235.137,79.67L235.859,80.025L236.582,80.309L237.305,80.62L238.027,81.031L238.75,81.42L239.473,81.69L240.195,82.137L240.918,82.409L241.641,82.676L242.363,83.043L243.086,83.478L243.809,83.801L244.531,84.109L245.254,84.524L245.977,84.803L246.699,85.233L247.422,85.508L248.145,85.831L248.867,86.336L249.59,86.681L250.313,87.045L251.035,87.371L251.758,87.624L252.48,88.034L253.203,88.471L253.926,88.831L254.648,89.178L255.371,89.534L256.094,89.875L256.816,90.297L257.539,90.577L258.262,91.004L258.984,91.391L259.707,91.671L260.43,92.217L261.152,92.456L261.875,92.853L262.598,93.212L263.32,93.536L264.043,94.115L264.766,94.436L265.488,94.768L266.211,95.177L266.934,95.59L267.656,95.925L268.379,96.343L269.102,96.69L269.824,97.168L270.547,97.524L271.27,97.875L271.992,98.291L272.715,98.676L273.438,99.037L274.16,99.477L274.883,99.932L275.605,100.376L276.328,100.684L277.051,101.163L277.773,101.571L278.496,101.984L279.219,102.397L279.941,102.894L280.664,103.303L281.387,103.646L282.109,104.086L282.832,104.558L283.555,104.953L284.277,105.385L285,105.792L285.723,106.258L286.445,106.688L287.168,107.068L287.891,107.603L288.613,108.122L289.336,108.606L290.059,108.995L290.781,109.298L291.504,109.776L292.227,110.127L292.949,110.649L293.672,111.078L294.395,111.727L295.117,112.022L295.84,112.483L296.563,113.078L297.285,113.459L298.008,113.762L298.73,114.317L299.453,114.953L300.176,115.479L300.898,115.878L301.621,116.218L302.344,116.684L303.066,117.172L303.789,117.838L304.512,118.131L305.234,118.732L305.957,119.148L306.68,119.562L307.402,120.204L308.125,120.601L308.848,121.067L309.57,121.805L310.293,122.19L311.016,122.671L311.738,123.184L312.461,123.66L313.184,124.302L313.906,124.711L314.629,125.387L315.352,125.795L316.074,126.283L316.797,126.919L317.52,127.413L318.242,127.859L318.965,128.335L319.688,128.919L320.41,129.497L321.133,130.115L321.855,130.443L322.578,131.001L323.301,131.567L324.023,132.125L324.746,132.748L325.469,133.244L326.191,133.745L326.914,134.508L327.637,134.968L328.359,135.514L329.082,136.077L329.805,136.646L330.527,137.206L331.25,137.926L331.973,138.356L332.695,139.147L333.418,139.5L334.141,140.134L334.863,140.758L335.586,141.313L336.309,142.024L337.031,142.478L337.754,143.091L338.477,143.813L339.199,144.242L339.922,144.898L340.645,145.492L341.367,146.062L342.09,146.804L342.813,147.336L343.535,147.857L344.258,148.559L344.98,149.186L345.703,149.866L346.426,150.554L347.148,151.128L347.871,151.822L348.594,152.449L349.316,152.973L350.039,153.758L350.762,154.416L351.484,155.048L352.207,155.791L352.93,156.286L353.652,157.086L354.375,157.663L355.098,158.259L355.82,159.081L356.543,159.703L357.266,160.485L357.988,161.003L358.711,161.78L359.434,162.453L360.156,163.102L360.879,163.885L361.602,164.519L362.324,165.364L363.047,166.052L363.77,166.671L364.492,167.438L365.215,168.153L365.938,168.923L366.66,169.826L367.383,170.283L368.105,171.031L368.828,171.796L369.551,172.433L370.273,173.532L370.996,173.906L371.719,174.874L372.441,175.591L373.164,176.484L373.887,176.996L374.609,177.978L375.332,178.669L376.055,179.472L376.777,180.26L377.5,181.001L378.223,181.785L378.945,182.81L379.668,183.4L380.391,184.315L381.113,185.004L381.836,185.918L382.559,186.777L383.281,187.532L384.004,188.643L384.727,189.306L385.449,190.029L386.172,191.032L386.895,191.76L387.617,192.667L388.34,193.415L389.063,194.29L389.785,195.123L390.508,196.168L391.23,197.214L391.953,197.961L392.676,198.801L393.398,199.888L394.121,200.743L394.844,201.645L395.566,202.572L396.289,203.717L397.012,204.558L397.734,205.199L398.457,206.337L399.18,207.286L399.902,208.097L400.625,209.319L401.348,210.183L402.07,211.196L402.793,212.307L403.516,213.199L404.238,214.426L404.961,215.464L405.684,216.381L406.406,217.453L407.129,218.616L407.852,219.513L408.574,220.602L409.297,221.541L410.02,222.784L410.742,223.996L411.465,225.075L412.188,226.052L412.91,226.969L413.633,228.175L414.355,229.621L415.078,230.566L415.801,231.6L416.523,232.891L417.246,234.098L417.969,235.266L418.691,236.186L419.414,237.394L420.137,238.903L420.859,240.095L421.582,241.244L422.305,242.533L423.027,243.899L423.75,244.971L424.473,246.194L425.195,247.765L425.918,249.286L426.641,250.352L427.363,251.888L428.086,252.798L428.809,254.442L429.531,255.726L430.254,257.142L430.977,258.535L431.699,260.026L432.422,261.454L433.145,262.932L433.867,264.404L434.59,265.751L435.313,267.39L436.035,268.826L436.758,270.314L437.48,271.823L438.203,273.454L438.926,274.851L439.648,276.436L440.371,278.086L441.094,279.761L441.816,281.225L442.539,282.847L443.262,284.503L443.984,286.224L444.707,287.824L445.43,289.727L446.152,291.231L446.875,292.545L447.598,294.593L448.32,296.163L449.043,297.592L449.766,299.674L450.488,301.288L451.211,303.214L451.934,304.989L452.656,306.408L453.379,308.561L454.102,310.481L454.824,312.032L455.547,314.036L456.27,315.79L456.992,317.593L457.715,319.296L458.438,321.261L459.16,323.166L459.883,325.186L460.605,327.035L461.328,328.918L462.051,330.679L462.773,332.157L463.496,334.381L464.219,336.324L464.941,338.104L465.664,339.769L466.387,341.897L467.109,343.463L467.832,345.323L468.555,347.912L469.277,350"/><path fill="none" stroke="rgb(69, 105, 238)" stroke-width="1.5" d="M100,45.949L100.723,44.707L101.445,43.702L102.168,42.608L102.891,41.793L103.613,40.977L104.336,40.127L105.059,39.342L105.781,38.672L106.504,37.919L107.227,37.176L107.949,36.533L108.672,35.839L109.395,35.202L110.117,34.524L110.84,33.898L111.563,33.299L112.285,32.713L113.008,32.081L113.73,31.445L114.453,30.809L115.176,30.132L115.898,29.472L116.621,28.799L117.344,28.078L118.066,27.339L118.789,26.599L119.512,25.724L120.234,24.899L120.957,23.879L121.68,22.895L122.402,22.809L123.125,23.972L123.848,24.985L124.57,25.922L125.293,26.803L126.016,27.648L126.738,28.45L127.461,29.228L128.184,29.894L128.906,30.538L129.629,31.216L130.352,31.882L131.074,32.374L131.797,32.966L132.52,33.59L133.242,34.083L133.965,34.59L134.688,35.054L135.41,35.595L136.133,36.097L136.855,36.516L137.578,37.017L138.301,37.389L139.023,37.877L139.746,38.285L140.469,38.718L141.191,39.09L141.914,39.502L142.637,39.875L143.359,40.281L144.082,40.661L144.805,40.993L145.527,41.377L146.25,41.711L146.973,42.083L147.695,42.436L148.418,42.753L149.141,43.072L149.863,43.478L150.586,43.776L151.309,44.139L152.031,44.435L152.754,44.753L153.477,45.045L154.199,45.382L154.922,45.694L155.645,45.977L156.367,46.354L157.09,46.663L157.813,46.945L158.535,47.265L159.258,47.526L159.98,47.83L160.703,48.173L161.426,48.408L162.148,48.733L162.871,49.066L163.594,49.401L164.316,49.621L165.039,49.945L165.762,50.206L166.484,50.525L167.207,50.79L167.93,51.102L168.652,51.386L169.375,51.671L170.098,51.985L170.82,52.246L171.543,52.614L172.266,52.826L172.988,53.125L173.711,53.398L174.434,53.684L175.156,53.911L175.879,54.275L176.602,54.555L177.324,54.794L178.047,55.094L178.77,55.41L179.492,55.732L180.215,55.972L180.938,56.278L181.66,56.502L182.383,56.886L183.105,57.077L183.828,57.459L184.551,57.732L185.273,58.055L185.996,58.274L186.719,58.585L187.441,58.838L188.164,59.135L188.887,59.421L189.609,59.751L190.332,60.094L191.055,60.337L191.777,60.605L192.5,60.943L193.223,61.232L193.945,61.522L194.668,61.787L195.391,62.081L196.113,62.41L196.836,62.703L197.559,62.985L198.281,63.324L199.004,63.568L199.727,63.915L200.449,64.113L201.172,64.479L201.895,64.703L202.617,65.072L203.34,65.361L204.063,65.652L204.785,65.996L205.508,66.329L206.23,66.628L206.953,66.841L207.676,67.256L208.398,67.485L209.121,67.777L209.844,68.171L210.566,68.444L211.289,68.79L212.012,68.962L212.734,69.421L213.457,69.687L214.18,70.019L214.902,70.407L215.625,70.663L216.348,70.922L217.07,71.267L217.793,71.556L218.516,71.858L219.238,72.149L219.961,72.617L220.684,72.909L221.406,73.135L222.129,73.528L222.852,73.811L223.574,74.142L224.297,74.596L225.02,74.739L225.742,75.09L226.465,75.384L227.188,75.711L227.91,76.105L228.633,76.322L229.355,76.671L230.078,77.005L230.801,77.323L231.523,77.731L232.246,78.047L232.969,78.371L233.691,78.766L234.414,79.011L235.137,79.349L235.859,79.782L236.582,80.115L237.305,80.449L238.027,80.784L238.75,81.147L239.473,81.521L240.195,81.655L240.918,82.093L241.641,82.5L242.363,82.857L243.086,83.213L243.809,83.551L244.531,83.837L245.254,84.142L245.977,84.494L246.699,84.899L247.422,85.383L248.145,85.557L248.867,86.074L249.59,86.388L250.313,86.716L251.035,87.101L251.758,87.387L252.48,87.864L253.203,88.086L253.926,88.577L254.648,88.963L255.371,89.2L256.094,89.737L256.816,90.073L257.539,90.275L258.262,90.674L258.984,91.037L259.707,91.551L260.43,91.862L261.152,92.181L261.875,92.644L262.598,92.879L263.32,93.411L264.043,93.746L264.766,94.05L265.488,94.593L266.211,94.961L266.934,95.42L267.656,95.707L268.379,96.1L269.102,96.462L269.824,96.915L270.547,97.23L271.27,97.606L271.992,98.156L272.715,98.41L273.438,98.78L274.16,99.333L274.883,99.715L275.605,100.165L276.328,100.502L277.051,100.974L277.773,101.257L278.496,101.838L279.219,102.187L279.941,102.687L280.664,102.893L281.387,103.33L282.109,103.842L282.832,104.204L283.555,104.689L284.277,105.048L285,105.541L285.723,105.789L286.445,106.42L287.168,106.876L287.891,107.36L288.613,107.739L289.336,108.154L290.059,108.543L290.781,108.992L291.504,109.497L292.227,109.977L292.949,110.346L293.672,110.818L294.395,111.335L295.117,111.746L295.84,112.207L296.563,112.655L297.285,113.161L298.008,113.655L298.73,114.032L299.453,114.613L300.176,115.029L300.898,115.387L301.621,115.887L302.344,116.374L303.066,116.854L303.789,117.375L304.512,117.825L305.234,118.362L305.957,118.675L306.68,119.23L307.402,119.712L308.125,120.213L308.848,120.814L309.57,121.319L310.293,121.696L311.016,122.078L311.738,122.728L312.461,123.349L313.184,123.752L313.906,124.34L314.629,124.697L315.352,125.405L316.074,125.822L316.797,126.313L317.52,126.828L318.242,127.433L318.965,127.997L319.688,128.441L320.41,128.981L321.133,129.526L321.855,130.024L322.578,130.588L323.301,131.142L324.023,131.678L324.746,132.047L325.469,132.721L326.191,133.345L326.914,133.828L327.637,134.343L328.359,134.933L329.082,135.543L329.805,135.906L330.527,136.64L331.25,137.183L331.973,137.768L332.695,138.277L333.418,139.003L334.141,139.442L334.863,140.123L335.586,140.788L336.309,141.182L337.031,142.023L337.754,142.398L338.477,143.139L339.199,143.656L339.922,144.24L340.645,144.857L341.367,145.424L342.09,145.934L342.813,146.727L343.535,147.229L344.258,147.954L344.98,148.454L345.703,149.118L346.426,149.717L347.148,150.307L347.871,151.148L348.594,151.64L349.316,152.377L350.039,152.909L350.762,153.535L351.484,154.162L352.207,154.898L352.93,155.472L353.652,156.245L354.375,156.796L355.098,157.409L355.82,158.266L356.543,158.744L357.266,159.579L357.988,160.056L358.711,160.932L359.434,161.607L360.156,162.201L360.879,163.072L361.602,163.483L362.324,164.296L363.047,165.009L363.77,165.701L364.492,166.492L365.215,167.236L365.938,167.893L366.66,168.574L367.383,169.231L368.105,169.922L368.828,170.602L369.551,171.563L370.273,172.153L370.996,172.766L371.719,173.525L372.441,174.162L373.164,175.071L373.887,175.757L374.609,176.594L375.332,177.361L376.055,178.079L376.777,178.722L377.5,179.57L378.223,180.305L378.945,181.179L379.668,182.017L380.391,182.744L381.113,183.603L381.836,184.269L382.559,185.152L383.281,185.971L384.004,186.824L384.727,187.504L385.449,188.319L386.172,189.139L386.895,190.031L387.617,190.914L388.34,191.789L389.063,192.598L389.785,193.421L390.508,194.315L391.23,194.992L391.953,195.977L392.676,196.881L393.398,197.74L394.121,198.503L394.844,199.428L395.566,200.472L396.289,201.125L397.012,202.296L397.734,203.023L398.457,203.726L399.18,204.771L399.902,205.681L400.625,206.455L401.348,207.696L402.07,208.403L402.793,209.427L403.516,210.512L404.238,211.284L404.961,212.222L405.684,213.217L406.406,214.327L407.129,215.18L407.852,216.162L408.574,217.163L409.297,218.22L410.02,218.949L410.742,220.07L411.465,221.184L412.188,222.145L412.91,223.301L413.633,224.189L414.355,225.364L415.078,226.267L415.801,227.367L416.523,228.441L417.246,229.471L417.969,230.478L418.691,231.673L419.414,232.611L420.137,233.746L420.859,234.888L421.582,235.903L422.305,237.038L423.027,238.546L423.75,239.325L424.473,240.377L425.195,241.457L425.918,242.845L426.641,243.961L427.363,244.985L428.086,245.906L428.809,247.074L429.531,248.575L430.254,249.805L430.977,250.746L431.699,252.012L432.422,253.295L433.145,254.463L433.867,255.595L434.59,257.032L435.313,257.868L436.035,259.648L436.758,260.589L437.48,261.653L438.203,263.181L438.926,264.397L439.648,265.29L440.371,266.691L441.094,268.203L441.816,269.454L442.539,270.714L443.262,271.969L443.984,273.365L444.707,274.592L445.43,276.276L446.152,277.16L446.875,278.467L447.598,280.006L448.32,281.457L449.043,282.483L449.766,284.304L450.488,285.161L451.211,286.39L451.934,287.841L452.656,289.096L453.379,290.507L454.102,291.992L454.824,293.227L455.547,294.589L456.27,296.033L456.992,297.562L457.715,298.771L458.438,300.183L459.16,301.444L459.883,303.374L460.605,304.404L461.328,305.617L462.051,307L462.773,308.462L463.496,309.788L464.219,310.974L464.941,312.772L465.664,313.975L466.387,315.266L467.109,317.373L467.832,318.218L468.555,319.977L469.277,320.742"/><path fill="none" stroke="rgb(38, 188, 225)" stroke-width="1.5" d="M100,45.956L100.723,44.794L101.445,43.736L102.168,42.76L102.891,41.797L103.613,40.975L104.336,40.202L105.059,39.393L105.781,38.584L106.504,37.858L107.227,37.16L107.949,36.443L108.672,35.832L109.395,35.132L110.117,34.438L110.84,33.88L111.563,33.199L112.285,32.577L113.008,31.923L113.73,31.361L114.453,30.674L115.176,30.019L115.898,29.285L116.621,28.631L117.344,27.895L118.066,27.149L118.789,26.349L119.512,25.506L120.234,24.687L120.957,23.722L121.68,22.687L122.402,22.498L123.125,23.604L123.848,24.651L124.57,25.593L125.293,26.482L126.016,27.32L126.738,28.044L127.461,28.787L128.184,29.484L128.906,30.172L129.629,30.864L130.352,31.394L131.074,32.084L131.797,32.603L132.52,33.093L133.242,33.611L133.965,34.159L134.688,34.671L135.41,35.122L136.133,35.56L136.855,36.069L137.578,36.495L138.301,36.97L139.023,37.363L139.746,37.763L140.469,38.203L141.191,38.617L141.914,38.943L142.637,39.34L143.359,39.703L144.082,40.044L144.805,40.415L145.527,40.836L146.25,41.16L146.973,41.466L147.695,41.838L148.418,42.188L149.141,42.542L149.863,42.786L150.586,43.181L151.309,43.479L152.031,43.84L152.754,44.1L153.477,44.423L154.199,44.713L154.922,45.005L155.645,45.392L156.367,45.632L157.09,45.978L157.813,46.284L158.535,46.593L159.258,46.859L159.98,47.15L160.703,47.395L161.426,47.743L162.148,48.032L162.871,48.416L163.594,48.588L164.316,48.919L165.039,49.232L165.762,49.446L166.484,49.792L167.207,49.985L167.93,50.37L168.652,50.636L169.375,50.888L170.098,51.156L170.82,51.425L171.543,51.726L172.266,52.013L172.988,52.289L173.711,52.673L174.434,52.819L175.156,53.164L175.879,53.505L176.602,53.737L177.324,53.996L178.047,54.271L178.77,54.56L179.492,54.816L180.215,55.122L180.938,55.421L181.66,55.653L182.383,55.948L183.105,56.21L183.828,56.51L184.551,56.777L185.273,57.089L185.996,57.353L186.719,57.716L187.441,57.887L188.164,58.176L188.887,58.53L189.609,58.817L190.332,59.041L191.055,59.378L191.777,59.589L192.5,59.895L193.223,60.189L193.945,60.522L194.668,60.752L195.391,61.06L196.113,61.416L196.836,61.682L197.559,61.929L198.281,62.204L199.004,62.587L199.727,62.863L200.449,63.178L201.172,63.421L201.895,63.734L202.617,64.083L203.34,64.366L204.063,64.648L204.785,64.95L205.508,65.214L206.23,65.491L206.953,65.845L207.676,66.209L208.398,66.406L209.121,66.715L209.844,67.021L210.566,67.413L211.289,67.679L212.012,68.005L212.734,68.27L213.457,68.598L214.18,68.912L214.902,69.315L215.625,69.546L216.348,69.84L217.07,70.132L217.793,70.46L218.516,70.846L219.238,71.059L219.961,71.374L220.684,71.753L221.406,72.055L222.129,72.357L222.852,72.712L223.574,73.037L224.297,73.304L225.02,73.611L225.742,74.044L226.465,74.295L227.188,74.646L227.91,74.935L228.633,75.331L229.355,75.652L230.078,75.986L230.801,76.418L231.523,76.609L232.246,76.997L232.969,77.261L233.691,77.556L234.414,77.987L235.137,78.285L235.859,78.622L236.582,78.998L237.305,79.322L238.027,79.689L238.75,79.93L239.473,80.268L240.195,80.681L240.918,81.042L241.641,81.491L242.363,81.809L243.086,82.098L243.809,82.402L244.531,82.819L245.254,83.056L245.977,83.404L246.699,83.824L247.422,84.162L248.145,84.552L248.867,84.798L249.59,85.349L250.313,85.695L251.035,85.939L251.758,86.296L252.48,86.663L253.203,87.096L253.926,87.452L254.648,87.806L255.371,88.101L256.094,88.626L256.816,88.984L257.539,89.296L258.262,89.572L258.984,90.034L259.707,90.353L260.43,90.66L261.152,91.041L261.875,91.469L262.598,91.919L263.32,92.285L264.043,92.706L264.766,92.968L265.488,93.467L266.211,93.79L266.934,94.172L267.656,94.671L268.379,94.981L269.102,95.383L269.824,95.736L270.547,96.096L271.27,96.531L271.992,96.924L272.715,97.393L273.438,97.885L274.16,98.114L274.883,98.491L275.605,98.922L276.328,99.436L277.051,99.716L277.773,100.124L278.496,100.577L279.219,101.001L279.941,101.391L280.664,101.902L281.387,102.265L282.109,102.724L282.832,102.943L283.555,103.417L284.277,103.825L285,104.309L285.723,104.702L286.445,105.182L287.168,105.651L287.891,105.956L288.613,106.398L289.336,107.085L290.059,107.357L290.781,107.742L291.504,108.184L292.227,108.617L292.949,109.157L293.672,109.466L294.395,109.986L295.117,110.374L295.84,110.93L296.563,111.411L297.285,111.782L298.008,112.238L298.73,112.687L299.453,113.21L300.176,113.653L300.898,114.089L301.621,114.41L302.344,115.109L303.066,115.463L303.789,115.941L304.512,116.405L305.234,116.98L305.957,117.377L306.68,117.845L307.402,118.313L308.125,118.769L308.848,119.304L309.57,119.782L310.293,120.281L311.016,120.699L311.738,121.246L312.461,121.757L313.184,122.152L313.906,122.633L314.629,123.204L315.352,123.79L316.074,124.227L316.797,124.708L317.52,125.294L318.242,125.704L318.965,126.299L319.688,126.827L320.41,127.252L321.133,127.696L321.855,128.248L322.578,128.779L323.301,129.265L324.023,129.77L324.746,130.429L325.469,130.907L326.191,131.454L326.914,131.924L327.637,132.543L328.359,133.2L329.082,133.727L329.805,134.174L330.527,134.643L331.25,135.177L331.973,135.821L332.695,136.412L333.418,136.856L334.141,137.276L334.863,137.983L335.586,138.53L336.309,139.109L337.031,139.748L337.754,140.352L338.477,140.815L339.199,141.523L339.922,142.022L340.645,142.482L341.367,143.283L342.09,143.784L342.813,144.485L343.535,144.919L344.258,145.431L344.98,146.039L345.703,146.648L346.426,147.387L347.148,147.813L347.871,148.551L348.594,149.182L349.316,149.711L350.039,150.376L350.762,150.859L351.484,151.508L352.207,152.155L352.93,152.756L353.652,153.412L354.375,153.879L355.098,154.678L355.82,155.271L356.543,155.781L357.266,156.452L357.988,157.243L358.711,157.873L359.434,158.748L360.156,158.971L360.879,159.774L361.602,160.422L362.324,161.081L363.047,161.72L363.77,162.45L364.492,163.106L365.215,163.63L365.938,164.468L366.66,165.13L367.383,165.915L368.105,166.523L368.828,167.062L369.551,167.855L370.273,168.458L370.996,169.225L371.719,169.893L372.441,170.665L373.164,171.299L373.887,172.107L374.609,172.571L375.332,173.413L376.055,174.045L376.777,174.879L377.5,175.63L378.223,176.419L378.945,177.062L379.668,177.767L380.391,178.43L381.113,179.228L381.836,179.901L382.559,180.748L383.281,181.445L384.004,182.447L384.727,183.025L385.449,183.831L386.172,184.512L386.895,185.219L387.617,185.662L388.34,186.748L389.063,187.611L389.785,188.346L390.508,189.043L391.23,189.955L391.953,190.642L392.676,191.503L393.398,192.174L394.121,193.047L394.844,194.017L395.566,194.704L396.289,195.45L397.012,196.277L397.734,196.94L398.457,198.026L399.18,198.825L399.902,199.515L400.625,200.468L401.348,201.237L402.07,202.049L402.793,203.035L403.516,203.952L404.238,204.843L404.961,205.514L405.684,206.469L406.406,207.333L407.129,208.17L407.852,209.122L408.574,209.683L409.297,210.908L410.02,211.653L410.742,212.649L411.465,213.46L412.188,214.227L412.91,215.269L413.633,215.966L414.355,217.093L415.078,217.963L415.801,218.899L416.523,219.967L417.246,220.52L417.969,221.684L418.691,222.376L419.414,223.61L420.137,224.401L420.859,225.53L421.582,226.046L422.305,227.373L423.027,228.412L423.75,229.282L424.473,230.251L425.195,231.204L425.918,232.094L426.641,233.335L427.363,233.94L428.086,235.181L428.809,236.221L429.531,237.018L430.254,238.232L430.977,239.019L431.699,240.085L432.422,241.06L433.145,242.033L433.867,243.212L434.59,243.803L435.313,245.217L436.035,246.162L436.758,247.367L437.48,248.253L438.203,249.42L438.926,250.431L439.648,251.454L440.371,252.49L441.094,253.525L441.816,254.558L442.539,255.162L443.262,256.456L443.984,257.581L444.707,258.706L445.43,259.567L446.152,260.681L446.875,261.805L447.598,262.87L448.32,263.725L449.043,264.918L449.766,266.17L450.488,267.102L451.211,268.224L451.934,268.909L452.656,270.37L453.379,271.491L454.102,272.822L454.824,273.29L455.547,274.614L456.27,275.692L456.992,276.934L457.715,278.072L458.438,278.865L459.16,279.975L459.883,280.939L460.605,282.391L461.328,283.169L462.051,284.218L462.773,285.214L463.496,286.398L464.219,287.514L464.941,288.6L465.664,289.683L466.387,290.806L467.109,291.768L467.832,292.546L468.555,293.942L469.277,294.749"/><path fill="none" stroke="rgb(63, 243, 147)" stroke-width="1.5" d="M100,45.837L100.723,44.676L101.445,43.562L102.168,42.591L102.891,41.627L103.613,40.706L104.336,39.95L105.059,39.062L105.781,38.352L106.504,37.629L107.227,36.84L107.949,36.186L108.672,35.498L109.395,34.85L110.117,34.156L110.84,33.497L111.563,32.858L112.285,32.146L113.008,31.51L113.73,30.933L114.453,30.227L115.176,29.519L115.898,28.818L116.621,28.116L117.344,27.383L118.066,26.672L118.789,25.826L119.512,25.005L120.234,24.152L120.957,23.125L121.68,22.093L122.402,22.251L123.125,23.327L123.848,24.303L124.57,25.246L125.293,26.106L126.016,26.873L126.738,27.687L127.461,28.452L128.184,29.126L128.906,29.75L129.629,30.413L130.352,31.042L131.074,31.653L131.797,32.111L132.52,32.663L133.242,33.177L133.965,33.654L134.688,34.21L135.41,34.598L136.133,35.015L136.855,35.598L137.578,35.887L138.301,36.349L139.023,36.76L139.746,37.159L140.469,37.519L141.191,37.97L141.914,38.336L142.637,38.727L143.359,39.035L144.082,39.46L144.805,39.771L145.527,40.119L146.25,40.441L146.973,40.813L147.695,41.076L148.418,41.506L149.141,41.79L149.863,42.04L150.586,42.376L151.309,42.665L152.031,43.029L152.754,43.373L153.477,43.521L154.199,43.898L154.922,44.1L155.645,44.495L156.367,44.791L157.09,45.084L157.813,45.396L158.535,45.717L159.258,45.934L159.98,46.226L160.703,46.523L161.426,46.797L162.148,47.017L162.871,47.314L163.594,47.605L164.316,47.935L165.039,48.201L165.762,48.475L166.484,48.696L167.207,49.007L167.93,49.249L168.652,49.502L169.375,49.824L170.098,50.046L170.82,50.336L171.543,50.602L172.266,50.833L172.988,51.126L173.711,51.404L174.434,51.724L175.156,51.982L175.879,52.262L176.602,52.502L177.324,52.74L178.047,53.083L178.77,53.375L179.492,53.653L180.215,53.959L180.938,54.114L181.66,54.357L182.383,54.633L183.105,54.945L183.828,55.262L184.551,55.448L185.273,55.752L185.996,56.03L186.719,56.338L187.441,56.588L188.164,56.893L188.887,57.18L189.609,57.42L190.332,57.702L191.055,57.961L191.777,58.331L192.5,58.575L193.223,58.782L193.945,59.073L194.668,59.296L195.391,59.666L196.113,59.928L196.836,60.228L197.559,60.527L198.281,60.777L199.004,61.072L199.727,61.334L200.449,61.63L201.172,61.973L201.895,62.27L202.617,62.552L203.34,62.902L204.063,63.087L204.785,63.42L205.508,63.731L206.23,63.972L206.953,64.369L207.676,64.499L208.398,64.889L209.121,65.19L209.844,65.432L210.566,65.849L211.289,66.082L212.012,66.291L212.734,66.722L213.457,67.007L214.18,67.306L214.902,67.529L215.625,67.953L216.348,68.181L217.07,68.448L217.793,68.871L218.516,69.244L219.238,69.476L219.961,69.812L220.684,70.223L221.406,70.498L222.129,70.826L222.852,71.1L223.574,71.405L224.297,71.639L225.02,72.129L225.742,72.388L226.465,72.715L227.188,73.002L227.91,73.47L228.633,73.714L229.355,74.065L230.078,74.384L230.801,74.74L231.523,74.976L232.246,75.35L232.969,75.623L233.691,75.959L234.414,76.448L235.137,76.676L235.859,77.068L236.582,77.476L237.305,77.719L238.027,78.085L238.75,78.456L239.473,78.792L240.195,79.12L240.918,79.444L241.641,79.775L242.363,80.204L243.086,80.515L243.809,80.845L244.531,81.222L245.254,81.54L245.977,81.853L246.699,82.264L247.422,82.628L248.145,83.073L248.867,83.441L249.59,83.673L250.313,84L251.035,84.454L251.758,84.871L252.48,85.166L253.203,85.542L253.926,85.84L254.648,86.286L255.371,86.578L256.094,87.021L256.816,87.341L257.539,87.727L258.262,88.14L258.984,88.43L259.707,88.82L260.43,89.304L261.152,89.615L261.875,89.975L262.598,90.361L263.32,90.707L264.043,91.162L264.766,91.515L265.488,91.892L266.211,92.293L266.934,92.624L267.656,93.113L268.379,93.385L269.102,93.853L269.824,94.254L270.547,94.672L271.27,95.037L271.992,95.402L272.715,95.768L273.438,96.306L274.16,96.677L274.883,97.039L275.605,97.446L276.328,97.818L277.051,98.184L277.773,98.532L278.496,99.062L279.219,99.565L279.941,99.921L280.664,100.269L281.387,100.703L282.109,101.198L282.832,101.575L283.555,101.867L284.277,102.374L285,102.735L285.723,103.282L286.445,103.546L287.168,104.03L287.891,104.395L288.613,104.861L289.336,105.426L290.059,105.879L290.781,106.1L291.504,106.528L292.227,107.01L292.949,107.523L293.672,107.93L294.395,108.389L295.117,108.63L295.84,109.203L296.563,109.621L297.285,110.092L298.008,110.526L298.73,111.027L299.453,111.328L300.176,111.916L300.898,112.446L301.621,112.693L302.344,113.205L303.066,113.744L303.789,114.204L304.512,114.552L305.234,115.099L305.957,115.458L306.68,116.053L307.402,116.471L308.125,116.918L308.848,117.271L309.57,117.682L310.293,118.435L311.016,118.708L311.738,119.26L312.461,119.829L313.184,120.259L313.906,120.776L314.629,121.275L315.352,121.53L316.074,122.266L316.797,122.658L317.52,123.105L318.242,123.656L318.965,124.159L319.688,124.589L320.41,125.14L321.133,125.525L321.855,126.134L322.578,126.664L323.301,127.216L324.023,127.662L324.746,128.229L325.469,128.665L326.191,129.115L326.914,129.724L327.637,130.131L328.359,130.695L329.082,131.269L329.805,131.755L330.527,132.2L331.25,132.721L331.973,133.243L332.695,133.771L333.418,134.284L334.141,134.834L334.863,135.363L335.586,135.845L336.309,136.399L337.031,137.089L337.754,137.555L338.477,138.027L339.199,138.773L339.922,139.262L340.645,139.656L341.367,140.313L342.09,140.77L342.813,141.349L343.535,141.981L344.258,142.438L344.98,142.96L345.703,143.541L346.426,144.12L347.148,144.777L347.871,145.48L348.594,145.815L349.316,146.53L350.039,146.974L350.762,147.616L351.484,148.23L352.207,148.768L352.93,149.444L353.652,150.014L354.375,150.457L355.098,151.225L355.82,151.925L356.543,152.366L357.266,153.064L357.988,153.653L358.711,154.112L359.434,154.863L360.156,155.473L360.879,156.09L361.602,156.737L362.324,157.27L363.047,157.735L363.77,158.323L364.492,159.071L365.215,159.59L365.938,160.343L366.66,160.993L367.383,161.689L368.105,162.212L368.828,163.03L369.551,163.588L370.273,164.265L370.996,164.712L371.719,165.516L372.441,166.02L373.164,166.734L373.887,167.407L374.609,168.133L375.332,168.604L376.055,169.354L376.777,169.9L377.5,170.618L378.223,171.368L378.945,171.745L379.668,172.642L380.391,173.53L381.113,173.899L381.836,174.775L382.559,175.374L383.281,176.037L384.004,176.814L384.727,177.535L385.449,178.221L386.172,178.908L386.895,179.321L387.617,180.192L388.34,181.072L389.063,181.791L389.785,182.559L390.508,183.256L391.23,183.853L391.953,184.65L392.676,185.232L393.398,186.035L394.121,186.783L394.844,187.437L395.566,188.357L396.289,189.046L397.012,189.766L397.734,190.498L398.457,191.138L399.18,191.868L399.902,192.905L400.625,193.482L401.348,194.407L402.07,194.968L402.793,195.749L403.516,196.405L404.238,197.27L404.961,198.107L405.684,198.882L406.406,199.628L407.129,200.55L407.852,201.148L408.574,202.119L409.297,202.842L410.02,203.488L410.742,204.333L411.465,205.201L412.188,205.994L412.91,207.08L413.633,207.566L414.355,208.564L415.078,209.306L415.801,210.04L416.523,210.959L417.246,211.792L417.969,212.602L418.691,213.434L419.414,214.308L420.137,215.022L420.859,215.885L421.582,216.684L422.305,217.493L423.027,218.283L423.75,219.435L424.473,219.932L425.195,220.788L425.918,221.711L426.641,222.529L427.363,223.264L428.086,224.279L428.809,225.298L429.531,225.964L430.254,226.734L430.977,227.511L431.699,228.608L432.422,229.512L433.145,230.072L433.867,230.912L434.59,232.048L435.313,232.634L436.035,233.652L436.758,234.481L437.48,235.502L438.203,236.242L438.926,237.234L439.648,237.799L440.371,238.919L441.094,239.723L441.816,240.577L442.539,241.362L443.262,242.485L443.984,243.023L444.707,243.973L445.43,244.812L446.152,245.727L446.875,246.578L447.598,247.534L448.32,248.308L449.043,249.042L449.766,249.994L450.488,250.993L451.211,251.548L451.934,252.619L452.656,253.489L453.379,254.386L454.102,254.976L454.824,255.791L455.547,256.944L456.27,257.428L456.992,258.522L457.715,259.57L458.438,260.197L459.16,260.906L459.883,261.696L460.605,262.855L461.328,263.352L462.051,264.33L462.773,264.965L463.496,265.626L464.219,266.561L464.941,267.53L465.664,268.119L466.387,268.869L467.109,270.006L467.832,270.866L468.555,271.447L469.277,272.239"/><path fill="none" stroke="rgb(149, 251, 81)" stroke-width="1.5" d="M100,45.727L100.723,44.625L101.445,43.624L102.168,42.532L102.891,41.558L103.613,40.751L104.336,39.85L105.059,39.083L105.781,38.221L106.504,37.516L107.227,36.796L107.949,36.07L108.672,35.316L109.395,34.622L110.117,33.947L110.84,33.283L111.563,32.617L112.285,31.968L113.008,31.259L113.73,30.571L114.453,29.906L115.176,29.206L115.898,28.47L116.621,27.797L117.344,26.987L118.066,26.275L118.789,25.374L119.512,24.547L120.234,23.572L120.957,22.547L121.68,21.519L122.402,21.683L123.125,22.637L123.848,23.661L124.57,24.533L125.293,25.453L126.016,26.172L126.738,26.904L127.461,27.638L128.184,28.381L128.906,28.923L129.629,29.532L130.352,30.125L131.074,30.629L131.797,31.156L132.52,31.735L133.242,32.191L133.965,32.652L134.688,33.189L135.41,33.581L136.133,34.025L136.855,34.443L137.578,34.877L138.301,35.191L139.023,35.601L139.746,36.027L140.469,36.325L141.191,36.776L141.914,37.072L142.637,37.507L143.359,37.794L144.082,38.109L144.805,38.434L145.527,38.794L146.25,39.126L146.973,39.354L147.695,39.785L148.418,40.012L149.141,40.355L149.863,40.603L150.586,40.946L151.309,41.229L152.031,41.453L152.754,41.737L153.477,42.106L154.199,42.298L154.922,42.612L155.645,42.914L156.367,43.154L157.09,43.447L157.813,43.644L158.535,43.965L159.258,44.26L159.98,44.461L160.703,44.701L161.426,45.018L162.148,45.278L162.871,45.516L163.594,45.848L164.316,46.074L165.039,46.323L165.762,46.48L166.484,46.827L167.207,47.013L167.93,47.275L168.652,47.587L169.375,47.84L170.098,48.086L170.82,48.34L171.543,48.507L172.266,48.889L172.988,49.053L173.711,49.339L174.434,49.6L175.156,49.763L175.879,50.068L176.602,50.276L177.324,50.58L178.047,50.906L178.77,51.152L179.492,51.346L180.215,51.611L180.938,51.832L181.66,52.066L182.383,52.43L183.105,52.577L183.828,52.775L184.551,53.178L185.273,53.408L185.996,53.724L186.719,53.937L187.441,54.149L188.164,54.519L188.887,54.724L189.609,55.02L190.332,55.196L191.055,55.451L191.777,55.764L192.5,56.007L193.223,56.302L193.945,56.532L194.668,56.898L195.391,57.131L196.113,57.481L196.836,57.74L197.559,57.937L198.281,58.24L199.004,58.464L199.727,58.756L200.449,59.035L201.172,59.325L201.895,59.598L202.617,59.868L203.34,60.245L204.063,60.366L204.785,60.728L205.508,61.086L206.23,61.265L206.953,61.599L207.676,61.944L208.398,62.268L209.121,62.495L209.844,62.751L210.566,63.048L211.289,63.408L212.012,63.725L212.734,64.017L213.457,64.296L214.18,64.646L214.902,64.952L215.625,65.234L216.348,65.53L217.07,65.795L217.793,66.169L218.516,66.435L219.238,66.74L219.961,67.154L220.684,67.408L221.406,67.688L222.129,68.031L222.852,68.346L223.574,68.723L224.297,69.07L225.02,69.377L225.742,69.661L226.465,70.087L227.188,70.422L227.91,70.697L228.633,70.986L229.355,71.253L230.078,71.694L230.801,72.011L231.523,72.296L232.246,72.582L232.969,73.037L233.691,73.362L234.414,73.522L235.137,74.127L235.859,74.392L236.582,74.705L237.305,75.111L238.027,75.349L238.75,75.75L239.473,76.063L240.195,76.409L240.918,76.757L241.641,77.179L242.363,77.422L243.086,77.844L243.809,78.229L244.531,78.612L245.254,78.979L245.977,79.301L246.699,79.628L247.422,80.026L248.145,80.354L248.867,80.774L249.59,81.19L250.313,81.551L251.035,81.932L251.758,82.208L252.48,82.515L253.203,83.027L253.926,83.386L254.648,83.834L255.371,84.203L256.094,84.451L256.816,84.817L257.539,85.197L258.262,85.605L258.984,85.993L259.707,86.349L260.43,86.806L261.152,87.182L261.875,87.52L262.598,87.864L263.32,88.388L264.043,88.636L264.766,89.044L265.488,89.559L266.211,89.823L266.934,90.431L267.656,90.705L268.379,91.096L269.102,91.507L269.824,91.831L270.547,92.274L271.27,92.548L271.992,93.068L272.715,93.502L273.438,94.044L274.16,94.304L274.883,94.722L275.605,95.043L276.328,95.439L277.051,96.067L277.773,96.316L278.496,96.912L279.219,97.163L279.941,97.646L280.664,97.936L281.387,98.511L282.109,98.788L282.832,99.351L283.555,99.756L284.277,100.045L285,100.527L285.723,100.841L286.445,101.43L287.168,101.649L287.891,102.31L288.613,102.607L289.336,103.09L290.059,103.575L290.781,103.851L291.504,104.423L292.227,104.812L292.949,105.301L293.672,105.671L294.395,106.046L295.117,106.45L295.84,106.885L296.563,107.369L297.285,107.817L298.008,108.174L298.73,108.704L299.453,109.199L300.176,109.469L300.898,109.999L301.621,110.54L302.344,110.973L303.066,111.524L303.789,111.852L304.512,112.304L305.234,112.725L305.957,113.136L306.68,113.634L307.402,114.077L308.125,114.553L308.848,114.982L309.57,115.543L310.293,115.917L311.016,116.482L311.738,117.03L312.461,117.461L313.184,117.821L313.906,118.386L314.629,118.811L315.352,119.356L316.074,119.863L316.797,120.126L317.52,120.675L318.242,121.253L318.965,121.766L319.688,122.245L320.41,122.499L321.133,123.176L321.855,123.559L322.578,123.989L323.301,124.571L324.023,125.034L324.746,125.391L325.469,125.989L326.191,126.648L326.914,126.999L327.637,127.485L328.359,128.081L329.082,128.382L329.805,129.024L330.527,129.513L331.25,130.016L331.973,130.416L332.695,131.008L333.418,131.42L334.141,132.058L334.863,132.659L335.586,133.14L336.309,133.55L337.031,134.214L337.754,134.669L338.477,135.14L339.199,135.685L339.922,136.295L340.645,136.878L341.367,137.315L342.09,137.933L342.813,138.363L343.535,138.923L344.258,139.525L344.98,139.967L345.703,140.525L346.426,140.959L347.148,141.698L347.871,142.037L348.594,142.703L349.316,143.258L350.039,143.764L350.762,144.544L351.484,144.816L352.207,145.472L352.93,146.166L353.652,146.731L354.375,147.277L355.098,147.805L355.82,148.449L356.543,148.871L357.266,149.396L357.988,150.131L358.711,150.579L359.434,151.287L360.156,151.864L360.879,152.377L361.602,153.026L362.324,153.676L363.047,154.117L363.77,154.609L364.492,155.187L365.215,155.868L365.938,156.586L366.66,157.101L367.383,157.758L368.105,158.375L368.828,158.877L369.551,159.736L370.273,160.131L370.996,160.857L371.719,161.37L372.441,162.038L373.164,162.724L373.887,163.297L374.609,163.831L375.332,164.458L376.055,165.149L376.777,165.892L377.5,166.32L378.223,167.066L378.945,167.77L379.668,168.35L380.391,168.914L381.113,169.768L381.836,170.408L382.559,170.917L383.281,171.557L384.004,172.301L384.727,172.916L385.449,173.677L386.172,174.227L386.895,174.805L387.617,175.592L388.34,176.205L389.063,176.985L389.785,177.582L390.508,178.099L391.23,178.962L391.953,179.477L392.676,180.257L393.398,181.013L394.121,181.579L394.844,182.465L395.566,183.007L396.289,183.647L397.012,184.404L397.734,185.15L398.457,185.745L399.18,186.411L399.902,187.255L400.625,187.854L401.348,188.645L402.07,189.419L402.793,189.994L403.516,190.746L404.238,191.469L404.961,192.152L405.684,193.048L406.406,193.577L407.129,194.1L407.852,195.118L408.574,195.912L409.297,196.264L410.02,197.27L410.742,197.919L411.465,198.53L412.188,199.278L412.91,200.056L413.633,200.784L414.355,201.628L415.078,202.259L415.801,203.016L416.523,203.511L417.246,204.327L417.969,205.183L418.691,205.791L419.414,206.714L420.137,207.265L420.859,207.829L421.582,208.598L422.305,209.293L423.027,210.149L423.75,210.692L424.473,211.516L425.195,212.164L425.918,212.844L426.641,213.547L427.363,214.301L428.086,214.88L428.809,215.845L429.531,216.788L430.254,217.43L430.977,217.816L431.699,218.824L432.422,219.49L433.145,219.994L433.867,220.57L434.59,221.379L435.313,222.037L436.035,222.698L436.758,223.543L437.48,224.224L438.203,224.939L438.926,225.583L439.648,226.497L440.371,226.805L441.094,227.518L441.816,228.044L442.539,228.986L443.262,229.415L443.984,230.231L444.707,230.79L445.43,231.681L446.152,232.197L446.875,232.786L447.598,233.43L448.32,234.016L449.043,234.782L449.766,235.685L450.488,236.03L451.211,236.663L451.934,237.273L452.656,237.725L453.379,238.284L454.102,239.12L454.824,239.575L455.547,240.198L456.27,240.678L456.992,241.435L457.715,241.831L458.438,242.368L459.16,243.163L459.883,243.315L460.605,244.017L461.328,244.746L462.051,245.03L462.773,245.721L463.496,246.343L464.219,246.988L464.941,247.35L465.664,247.681L466.387,248.281L467.109,248.912L467.832,249.216L468.555,249.651L469.277,250.135"/><path fill="none" stroke="rgb(236, 209, 46)" stroke-width="1.5" d="M100,45.683L100.723,44.498L101.445,43.405L102.168,42.44L102.891,41.474L103.613,40.598L104.336,39.69L105.059,38.888L105.781,38.085L106.504,37.329L107.227,36.534L107.949,35.857L108.672,35.064L109.395,34.395L110.117,33.727L110.84,33.028L111.563,32.348L112.285,31.63L113.008,30.913L113.73,30.278L114.453,29.595L115.176,28.774L115.898,28.099L116.621,27.342L117.344,26.584L118.066,25.815L118.789,24.903L119.512,23.962L120.234,23.097L120.957,21.939L121.68,20.857L122.402,21.129L123.125,22.17L123.848,23.1L124.57,23.996L125.293,24.753L126.016,25.477L126.738,26.24L127.461,26.921L128.184,27.531L128.906,28.152L129.629,28.741L130.352,29.281L131.074,29.759L131.797,30.287L132.52,30.719L133.242,31.168L133.965,31.581L134.688,32.02L135.41,32.423L136.133,32.911L136.855,33.282L137.578,33.679L138.301,33.987L139.023,34.374L139.746,34.609L140.469,34.982L141.191,35.391L141.914,35.67L142.637,35.98L143.359,36.259L144.082,36.594L144.805,36.874L145.527,37.158L146.25,37.35L146.973,37.75L147.695,37.964L148.418,38.284L149.141,38.516L149.863,38.782L150.586,39.06L151.309,39.298L152.031,39.514L152.754,39.833L153.477,40.007L154.199,40.269L154.922,40.486L155.645,40.695L156.367,41.02L157.09,41.148L157.813,41.463L158.535,41.682L159.258,41.979L159.98,42.147L160.703,42.352L161.426,42.552L162.148,42.902L162.871,43.022L163.594,43.244L164.316,43.459L165.039,43.682L165.762,43.894L166.484,44.189L167.207,44.359L167.93,44.555L168.652,44.695L169.375,45.014L170.098,45.154L170.82,45.429L171.543,45.665L172.266,45.786L172.988,46.13L173.711,46.281L174.434,46.441L175.156,46.759L175.879,46.904L176.602,47.157L177.324,47.375L178.047,47.625L178.77,47.918L179.492,48.092L180.215,48.298L180.938,48.538L181.66,48.807L182.383,49.04L183.105,49.092L183.828,49.422L184.551,49.68L185.273,49.87L185.996,50.159L186.719,50.284L187.441,50.697L188.164,50.746L188.887,51.102L189.609,51.251L190.332,51.542L191.055,51.787L191.777,52.037L192.5,52.352L193.223,52.498L193.945,52.787L194.668,53.025L195.391,53.196L196.113,53.588L196.836,53.83L197.559,54.037L198.281,54.387L199.004,54.515L199.727,54.816L200.449,55.187L201.172,55.382L201.895,55.653L202.617,55.927L203.34,56.177L204.063,56.325L204.785,56.706L205.508,56.98L206.23,57.389L206.953,57.585L207.676,57.789L208.398,58.119L209.121,58.374L209.844,58.69L210.566,58.947L211.289,59.295L212.012,59.517L212.734,59.824L213.457,60.151L214.18,60.403L214.902,60.716L215.625,60.99L216.348,61.401L217.07,61.806L217.793,61.961L218.516,62.295L219.238,62.66L219.961,62.888L220.684,63.235L221.406,63.564L222.129,63.893L222.852,64.148L223.574,64.609L224.297,64.887L225.02,65.134L225.742,65.571L226.465,65.854L227.188,66.168L227.91,66.537L228.633,66.785L229.355,67.221L230.078,67.509L230.801,67.796L231.523,68.255L232.246,68.504L232.969,68.937L233.691,69.212L234.414,69.553L235.137,69.932L235.859,70.345L236.582,70.598L237.305,70.968L238.027,71.312L238.75,71.718L239.473,72.047L240.195,72.428L240.918,72.858L241.641,73.065L242.363,73.472L243.086,73.969L243.809,74.345L244.531,74.604L245.254,74.984L245.977,75.385L246.699,75.796L247.422,76.174L248.145,76.553L248.867,76.921L249.59,77.281L250.313,77.653L251.035,78.161L251.758,78.481L252.48,78.849L253.203,79.239L253.926,79.698L254.648,80.051L255.371,80.379L256.094,80.843L256.816,81.229L257.539,81.617L258.262,81.997L258.984,82.425L259.707,82.855L260.43,83.301L261.152,83.597L261.875,84.046L262.598,84.36L263.32,84.839L264.043,85.329L264.766,85.732L265.488,86.188L266.211,86.576L266.934,86.994L267.656,87.328L268.379,87.813L269.102,88.247L269.824,88.679L270.547,89.129L271.27,89.524L271.992,89.897L272.715,90.391L273.438,90.789L274.16,91.195L274.883,91.611L275.605,92.096L276.328,92.424L277.051,92.971L277.773,93.404L278.496,93.76L279.219,94.286L279.941,94.731L280.664,95.164L281.387,95.588L282.109,95.958L282.832,96.506L283.555,96.882L284.277,97.412L285,97.918L285.723,98.178L286.445,98.803L287.168,99.122L287.891,99.609L288.613,100.134L289.336,100.486L290.059,100.999L290.781,101.447L291.504,101.935L292.227,102.246L292.949,102.797L293.672,103.264L294.395,103.76L295.117,104.109L295.84,104.781L296.563,105.09L297.285,105.692L298.008,106.178L298.73,106.5L299.453,106.849L300.176,107.468L300.898,107.935L301.621,108.414L302.344,108.872L303.066,109.371L303.789,109.87L304.512,110.4L305.234,110.793L305.957,111.357L306.68,111.727L307.402,112.183L308.125,112.766L308.848,113.226L309.57,113.706L310.293,114.132L311.016,114.568L311.738,115.225L312.461,115.531L313.184,116.148L313.906,116.618L314.629,117.046L315.352,117.616L316.074,118.169L316.797,118.761L317.52,119.215L318.242,119.678L318.965,120.087L319.688,120.573L320.41,121.199L321.133,121.676L321.855,122.179L322.578,122.783L323.301,123.219L324.023,123.704L324.746,124.324L325.469,124.693L326.191,125.23L326.914,125.827L327.637,126.335L328.359,126.823L329.082,127.416L329.805,127.825L330.527,128.481L331.25,128.931L331.973,129.249L332.695,130.053L333.418,130.644L334.141,131.074L334.863,131.617L335.586,132.044L336.309,132.66L337.031,133.386L337.754,133.729L338.477,134.309L339.199,134.654L339.922,135.44L340.645,135.777L341.367,136.663L342.09,137.164L342.813,137.526L343.535,138.076L344.258,138.673L344.98,139.188L345.703,139.716L346.426,140.513L347.148,140.976L347.871,141.392L348.594,142L349.316,142.69L350.039,143.324L350.762,143.779L351.484,144.52L352.207,144.875L352.93,145.527L353.652,146.044L354.375,146.671L355.098,147.247L355.82,147.907L356.543,148.322L357.266,149.049L357.988,149.64L358.711,150.225L359.434,150.84L360.156,151.341L360.879,152.155L361.602,152.647L362.324,153.121L363.047,153.969L363.77,154.359L364.492,155.024L365.215,155.695L365.938,156.098L366.66,156.769L367.383,157.428L368.105,158.075L368.828,158.531L369.551,159.289L370.273,159.804L370.996,160.334L371.719,161.001L372.441,161.704L373.164,162.306L373.887,162.952L374.609,163.461L375.332,164.022L376.055,164.712L376.777,165.258L377.5,165.887L378.223,166.411L378.945,167.224L379.668,167.718L380.391,168.313L381.113,169.027L381.836,169.493L382.559,170.215L383.281,170.907L384.004,171.31L384.727,172.123L385.449,172.77L386.172,173.294L386.895,173.808L387.617,174.487L388.34,175.076L389.063,175.754L389.785,176.325L390.508,177.091L391.23,177.468L391.953,178.074L392.676,178.76L393.398,179.266L394.121,179.83L394.844,180.47L395.566,180.994L396.289,181.911L397.012,182.404L397.734,182.724L398.457,183.539L399.18,184.022L399.902,184.824L400.625,185.331L401.348,185.831L402.07,186.512L402.793,187.042L403.516,187.9L404.238,188.029L404.961,188.734L405.684,189.412L406.406,189.919L407.129,190.528L407.852,191.034L408.574,191.468L409.297,191.864L410.02,192.699L410.742,193.19L411.465,193.785L412.188,194.276L412.91,194.966L413.633,195.473L414.355,195.962L415.078,196.442L415.801,196.915L416.523,197.61L417.246,198.113L417.969,198.513L418.691,199.067L419.414,199.413L420.137,199.881L420.859,200.449L421.582,201.021L422.305,201.506L423.027,202.003L423.75,202.325L424.473,202.946L425.195,203.307L425.918,203.811L426.641,204.362L427.363,204.637L428.086,205.06L428.809,205.595L429.531,205.938L430.254,206.475L430.977,206.837L431.699,207.109L432.422,207.576L433.145,208.018L433.867,208.479L434.59,208.764L435.313,209.27L436.035,209.494L436.758,209.897L437.48,210.306L438.203,210.624L438.926,210.91L439.648,211.238L440.371,211.38L441.094,211.948L441.816,212.089L442.539,212.38L443.262,212.943L443.984,212.999L444.707,213.313L445.43,213.492L446.152,213.833L446.875,214.329L447.598,214.272L448.32,214.504L449.043,214.788L449.766,215.153L450.488,215.209L451.211,215.698L451.934,215.416L452.656,215.761L453.379,215.919L454.102,216.288L454.824,216.337L455.547,216.589L456.27,216.669L456.992,216.942L457.715,216.889L458.438,217.005L459.16,217.055L459.883,217.097L460.605,217.403L461.328,217.393L462.051,217.53L462.773,217.363L463.496,217.495L464.219,217.711L464.941,217.667L465.664,217.774L466.387,217.92L467.109,217.583L467.832,217.525L468.555,217.389L469.277,217.355"/><path fill="none" stroke="rgb(255, 130, 29)" stroke-width="1.5" d="M100,45.274L100.723,44.119L101.445,43.055L102.168,42.016L102.891,41.172L103.613,40.225L104.336,39.29L105.059,38.492L105.781,37.649L106.504,36.94L107.227,36.18L107.949,35.464L108.672,34.655L109.395,34.035L110.117,33.3L110.84,32.592L111.563,31.851L112.285,31.191L113.008,30.482L113.73,29.708L114.453,29.041L115.176,28.332L115.898,27.509L116.621,26.772L117.344,25.946L118.066,25.148L118.789,24.282L119.512,23.32L120.234,22.229L120.957,21.245L121.68,20L122.402,21.049L123.125,22.008L123.848,22.93L124.57,23.696L125.293,24.471L126.016,25.226L126.738,25.8L127.461,26.42L128.184,26.987L128.906,27.584L129.629,28.095L130.352,28.664L131.074,29.092L131.797,29.631L132.52,29.977L133.242,30.403L133.965,30.797L134.688,31.187L135.41,31.512L136.133,31.942L136.855,32.263L137.578,32.596L138.301,32.981L139.023,33.262L139.746,33.511L140.469,33.817L141.191,34.229L141.914,34.473L142.637,34.694L143.359,34.942L144.082,35.182L144.805,35.384L145.527,35.635L146.25,35.814L146.973,36.142L147.695,36.299L148.418,36.56L149.141,36.699L149.863,36.929L150.586,37.196L151.309,37.28L152.031,37.522L152.754,37.681L153.477,37.889L154.199,38.042L154.922,38.22L155.645,38.399L156.367,38.592L157.09,38.741L157.813,38.892L158.535,39.078L159.258,39.298L159.98,39.359L160.703,39.542L161.426,39.748L162.148,39.832L162.871,39.931L163.594,40.154L164.316,40.167L165.039,40.432L165.762,40.594L166.484,40.766L167.207,40.865L167.93,40.981L168.652,41.072L169.375,41.257L170.098,41.428L170.82,41.569L171.543,41.752L172.266,41.778L172.988,41.965L173.711,42.1L174.434,42.244L175.156,42.462L175.879,42.497L176.602,42.674L177.324,42.781L178.047,42.928L178.77,43.079L179.492,43.193L180.215,43.468L180.938,43.515L181.66,43.74L182.383,43.86L183.105,44.005L183.828,44.143L184.551,44.263L185.273,44.411L185.996,44.605L186.719,44.678L187.441,44.897L188.164,45.008L188.887,45.142L189.609,45.407L190.332,45.509L191.055,45.789L191.777,45.902L192.5,46.066L193.223,46.296L193.945,46.43L194.668,46.617L195.391,46.704L196.113,46.952L196.836,47.212L197.559,47.424L198.281,47.555L199.004,47.726L199.727,47.976L200.449,48.078L201.172,48.337L201.895,48.567L202.617,48.93L203.34,49.07L204.063,49.236L204.785,49.309L205.508,49.568L206.23,50.029L206.953,49.994L207.676,50.384L208.398,50.567L209.121,50.859L209.844,50.973L210.566,51.333L211.289,51.559L212.012,51.842L212.734,51.985L213.457,52.335L214.18,52.618L214.902,52.762L215.625,53.191L216.348,53.462L217.07,53.713L217.793,53.947L218.516,54.271L219.238,54.553L219.961,54.872L220.684,55.084L221.406,55.336L222.129,55.651L222.852,56.008L223.574,56.239L224.297,56.575L225.02,56.845L225.742,57.254L226.465,57.545L227.188,57.849L227.91,58.208L228.633,58.404L229.355,58.813L230.078,59.219L230.801,59.469L231.523,59.878L232.246,60.216L232.969,60.626L233.691,60.99L234.414,61.325L235.137,61.639L235.859,61.976L236.582,62.316L237.305,62.736L238.027,63.207L238.75,63.469L239.473,63.886L240.195,64.125L240.918,64.597L241.641,65.017L242.363,65.315L243.086,65.774L243.809,66.139L244.531,66.429L245.254,66.989L245.977,67.342L246.699,67.663L247.422,68.125L248.145,68.52L248.867,69.033L249.59,69.321L250.313,69.728L251.035,70.144L251.758,70.724L252.48,71.082L253.203,71.498L253.926,71.933L254.648,72.387L255.371,72.791L256.094,73.255L256.816,73.749L257.539,74.179L258.262,74.614L258.984,75.016L259.707,75.545L260.43,76.063L261.152,76.492L261.875,76.92L262.598,77.41L263.32,77.736L264.043,78.183L264.766,78.784L265.488,79.195L266.211,79.63L266.934,80.177L267.656,80.676L268.379,81.107L269.102,81.577L269.824,82.132L270.547,82.599L271.27,83.197L271.992,83.652L272.715,84.198L273.438,84.571L274.16,85.068L274.883,85.587L275.605,86.072L276.328,86.666L277.051,87.124L277.773,87.603L278.496,88.193L279.219,88.695L279.941,89.32L280.664,89.765L281.387,90.34L282.109,90.923L282.832,91.372L283.555,91.913L284.277,92.392L285,92.851L285.723,93.556L286.445,93.962L287.168,94.521L287.891,95.19L288.613,95.643L289.336,96.153L290.059,96.74L290.781,97.393L291.504,97.843L292.227,98.424L292.949,98.895L293.672,99.49L294.395,100.115L295.117,100.6L295.84,101.195L296.563,101.705L297.285,102.308L298.008,102.709L298.73,103.365L299.453,104.034L300.176,104.559L300.898,105.148L301.621,105.698L302.344,106.379L303.066,106.788L303.789,107.461L304.512,107.969L305.234,108.528L305.957,109.131L306.68,109.895L307.402,110.292L308.125,110.868L308.848,111.499L309.57,112.003L310.293,112.641L311.016,113.26L311.738,113.804L312.461,114.48L313.184,114.97L313.906,115.575L314.629,116.151L315.352,116.793L316.074,117.304L316.797,117.788L317.52,118.44L318.242,119.073L318.965,119.639L319.688,120.058L320.41,120.637L321.133,121.224L321.855,121.855L322.578,122.446L323.301,122.958L324.023,123.605L324.746,124.146L325.469,124.728L326.191,125.374L326.914,125.823L327.637,126.389L328.359,126.917L329.082,127.536L329.805,128.022L330.527,128.596L331.25,129.218L331.973,129.653L332.695,130.438L333.418,130.713L334.141,131.295L334.863,131.866L335.586,132.408L336.309,132.938L337.031,133.467L337.754,134.062L338.477,134.67L339.199,135.064L339.922,135.624L340.645,136.18L341.367,136.672L342.09,137.098L342.813,137.723L343.535,138.289L344.258,138.718L344.98,139.185L345.703,139.775L346.426,140.381L347.148,140.609L347.871,141.084L348.594,141.589L349.316,142.011L350.039,142.631L350.762,143.143L351.484,143.611L352.207,144.017L352.93,144.459L353.652,144.918L354.375,145.471L355.098,145.898L355.82,146.288L356.543,146.678L357.266,147.228L357.988,147.582L358.711,148.191L359.434,148.589L360.156,148.872L360.879,149.324L361.602,149.807L362.324,150.07L363.047,150.538L363.77,150.992L364.492,151.461L365.215,151.771L365.938,152.026L366.66,152.419L367.383,152.843L368.105,153.157L368.828,153.686L369.551,153.744L370.273,154.425L370.996,154.535L371.719,154.919L372.441,155.271L373.164,155.55L373.887,155.841L374.609,156.238L375.332,156.443L376.055,156.81L376.777,156.962L377.5,157.387L378.223,157.579L378.945,157.983L379.668,158.006L380.391,158.346L381.113,158.67L381.836,158.986L382.559,159.056L383.281,159.231L384.004,159.624L384.727,159.712L385.449,159.955L386.172,160.169L386.895,160.377L387.617,160.495L388.34,160.572L389.063,160.908L389.785,161.014L390.508,161.23L391.23,161.443L391.953,161.351L392.676,161.52L393.398,161.691L394.121,161.854L394.844,161.872L395.566,162.014L396.289,162.069L397.012,162.109L397.734,162.204L398.457,162.253L399.18,162.41L399.902,162.614L400.625,162.532L401.348,162.601L402.07,162.556L402.793,162.458L403.516,162.514L404.238,162.487L404.961,162.599L405.684,162.674L406.406,162.693L407.129,162.7L407.852,162.496L408.574,162.541L409.297,162.418L410.02,162.323L410.742,162.35L411.465,162.318L412.188,162.223L412.91,162.161L413.633,162.039L414.355,161.9L415.078,161.86L415.801,161.808L416.523,161.683L417.246,161.5L417.969,161.344L418.691,161.271L419.414,161.067L420.137,160.968L420.859,160.752L421.582,160.759L422.305,160.54L423.027,160.241L423.75,160.111L424.473,160.161L425.195,159.639L425.918,159.539L426.641,159.402L427.363,159.164L428.086,158.937L428.809,158.724L429.531,158.536L430.254,158.361L430.977,158.003L431.699,157.565L432.422,157.535L433.145,157.328L433.867,156.824L434.59,156.746L435.313,156.517L436.035,156.05L436.758,155.947L437.48,155.523L438.203,155.276L438.926,154.904L439.648,154.737L440.371,154.409L441.094,154.128L441.816,153.681L442.539,153.391L443.262,153.285L443.984,152.599L444.707,152.435L445.43,151.896L446.152,151.833L446.875,151.249L447.598,151.041L448.32,150.695L449.043,150.343L449.766,150.092L450.488,149.483L451.211,149.099L451.934,148.877L452.656,148.599L453.379,148.147L454.102,147.558L454.824,147.218L455.547,146.706L456.27,146.496L456.992,145.989L457.715,145.598L458.438,145.111L459.16,144.889L459.883,144.373L460.605,144.004L461.328,143.441L462.051,143.017L462.773,142.786L463.496,142.297L464.219,141.811L464.941,141.345L465.664,140.989L466.387,140.387L467.109,140.164L467.832,139.844L468.555,139.213L469.277,138.852"/><path fill="none" stroke="rgb(203, 47, 13)" stroke-width="1.5" d="M100,44.922L100.723,43.787L101.445,42.693L102.168,41.744L102.891,40.822L103.613,39.899L104.336,39.027L105.059,38.222L105.781,37.412L106.504,36.688L107.227,35.906L107.949,35.146L108.672,34.43L109.395,33.736L110.117,33.174L110.84,32.357L111.563,31.608L112.285,30.989L113.008,30.19L113.73,29.541L114.453,28.804L115.176,28L115.898,27.294L116.621,26.443L117.344,25.694L118.066,24.762L118.789,23.94L119.512,22.949L120.234,21.912L120.957,20.777L121.68,20.116L122.402,21.119L123.125,22.067L123.848,22.969L124.57,23.696L125.293,24.402L126.016,25.062L126.738,25.741L127.461,26.313L128.184,26.891L128.906,27.499L129.629,27.95L130.352,28.529L131.074,28.938L131.797,29.353L132.52,29.731L133.242,30.169L133.965,30.55L134.688,30.869L135.41,31.28L136.133,31.584L136.855,31.886L137.578,32.241L138.301,32.485L139.023,32.788L139.746,33.078L140.469,33.357L141.191,33.567L141.914,33.838L142.637,34.117L143.359,34.312L144.082,34.585L144.805,34.836L145.527,34.948L146.25,35.165L146.973,35.427L147.695,35.592L148.418,35.701L149.141,35.93L149.863,36.051L150.586,36.381L151.309,36.374L152.031,36.501L152.754,36.701L153.477,36.858L154.199,36.92L154.922,37.264L155.645,37.281L156.367,37.439L157.09,37.648L157.813,37.672L158.535,37.769L159.258,37.835L159.98,38.014L160.703,38.094L161.426,38.157L162.148,38.242L162.871,38.367L163.594,38.545L164.316,38.619L165.039,38.64L165.762,38.782L166.484,38.862L167.207,39.004L167.93,38.965L168.652,39.029L169.375,39.135L170.098,39.212L170.82,39.224L171.543,39.298L172.266,39.369L172.988,39.455L173.711,39.478L174.434,39.62L175.156,39.547L175.879,39.585L176.602,39.637L177.324,39.668L178.047,39.739L178.77,39.825L179.492,39.834L180.215,39.951L180.938,39.878L181.66,39.93L182.383,39.844L183.105,39.995L183.828,40.026L184.551,40.024L185.273,40.108L185.996,40.106L186.719,40.157L187.441,40.202L188.164,40.225L188.887,40.221L189.609,40.168L190.332,40.253L191.055,40.329L191.777,40.328L192.5,40.323L193.223,40.162L193.945,40.267L194.668,40.237L195.391,40.348L196.113,40.342L196.836,40.266L197.559,40.312L198.281,40.281L199.004,40.344L199.727,40.41L200.449,40.345L201.172,40.356L201.895,40.247L202.617,40.28L203.34,40.255L204.063,40.393L204.785,40.102L205.508,40.261L206.23,40.266L206.953,40.179L207.676,40.152L208.398,40.153L209.121,40.164L209.844,40.159L210.566,40.1L211.289,40.161L212.012,40.258L212.734,40.016L213.457,40.077L214.18,40.035L214.902,40.108L215.625,40.006L216.348,40.092L217.07,40.004L217.793,39.898L218.516,40.009L219.238,39.813L219.961,39.836L220.684,39.831L221.406,39.663L222.129,39.755L222.852,39.7L223.574,39.596L224.297,39.576L225.02,39.483L225.742,39.66L226.465,39.323L227.188,39.384L227.91,39.408L228.633,39.298L229.355,39.165L230.078,39.2L230.801,39.004L231.523,39.001L232.246,38.971L232.969,38.939L233.691,38.846L234.414,38.692L235.137,38.827L235.859,38.673L236.582,38.561L237.305,38.492L238.027,38.472L238.75,38.337L239.473,38.293L240.195,38.181L240.918,38.153L241.641,38.016L242.363,37.988L243.086,37.87L243.809,37.826L244.531,37.642L245.254,37.573L245.977,37.538L246.699,37.413L247.422,37.258L248.145,37.205L248.867,37.141L249.59,36.951L250.313,36.905L251.035,36.877L251.758,36.729L252.48,36.681L253.203,36.545L253.926,36.342L254.648,36.259L255.371,36.149L256.094,36.064L256.816,36.014L257.539,35.72L258.262,35.697L258.984,35.501L259.707,35.483L260.43,35.247L261.152,35.176L261.875,34.986L262.598,34.911L263.32,34.794L264.043,34.618L264.766,34.591L265.488,34.441L266.211,34.281L266.934,34.122L267.656,34.001L268.379,33.784L269.102,33.752L269.824,33.56L270.547,33.447L271.27,33.275L271.992,33.086L272.715,32.967L273.438,32.961L274.16,32.693L274.883,32.6L275.605,32.366L276.328,32.35L277.051,32.169L277.773,32.045L278.496,31.765L279.219,31.732L279.941,31.603L280.664,31.453L281.387,31.261L282.109,31.055L282.832,30.926L283.555,30.854L284.277,30.671L285,30.532L285.723,30.417L286.445,30.162L287.168,30.064L287.891,29.93L288.613,29.733L289.336,29.561L290.059,29.422L290.781,29.211L291.504,29.153L292.227,28.963L292.949,28.82L293.672,28.652L294.395,28.54L295.117,28.285L295.84,28.209L296.563,28.08L297.285,27.928L298.008,27.729L298.73,27.667L299.453,27.424L300.176,27.283L300.898,27.163L301.621,26.935L302.344,26.876L303.066,26.602L303.789,26.537L304.512,26.303L305.234,26.181L305.957,25.988L306.68,25.836L307.402,25.72L308.125,25.503L308.848,25.264L309.57,25.116L310.293,24.972L311.016,24.808L311.738,24.621L312.461,24.42L313.184,24.343L313.906,24.057L314.629,23.919L315.352,23.807L316.074,25.454L316.797,28.376L317.52,31.562L318.242,34.512L318.965,37.443L319.688,40.599L320.41,41.09L321.133,41.363L321.855,41.71L322.578,42.153L323.301,42.405L324.023,42.8L324.746,43.097L325.469,43.386L326.191,43.644L326.914,43.988L327.637,44.214L328.359,44.48L329.082,44.752L329.805,45.007L330.527,45.31L331.25,45.535L331.973,45.767L332.695,45.937L333.418,46.163L334.141,46.377L334.863,46.64L335.586,46.83L336.309,47.044L337.031,47.177L337.754,47.337L338.477,47.495L339.199,47.774L339.922,47.844L340.645,47.985L341.367,48.117L342.09,48.252L342.813,48.363L343.535,48.495L344.258,48.725L344.98,48.713L345.703,48.928L346.426,49.018L347.148,49.064L347.871,49.191L348.594,49.257L349.316,49.41L350.039,49.521L350.762,49.525L351.484,49.623L352.207,49.702L352.93,49.796L353.652,49.852L354.375,49.853L355.098,50.01L355.82,50.002L356.543,49.995L357.266,50.115L357.988,49.981L358.711,50.134L359.434,50.177L360.156,50.144L360.879,50.166L361.602,50.189L362.324,50.13L363.047,50.172L363.77,50.226L364.492,50.201L365.215,50.276L365.938,50.263L366.66,50.174L367.383,50.198L368.105,50.1L368.828,50.183L369.551,50.126L370.273,50L370.996,50.067L371.719,50.07L372.441,50.019L373.164,49.99L373.887,49.909L374.609,49.859L375.332,49.767L376.055,49.775L376.777,49.702L377.5,49.657L378.223,49.695L378.945,49.615L379.668,49.539L380.391,49.494L381.113,49.354L381.836,49.464L382.559,49.226L383.281,49.119L384.004,49.135L384.727,49.125L385.449,48.869L386.172,48.873L386.895,48.889L387.617,48.909L388.34,48.73L389.063,48.561L389.785,48.604L390.508,48.587L391.23,48.398L391.953,48.337L392.676,48.242L393.398,48.166L394.121,48.098L394.844,47.993L395.566,47.829L396.289,47.747L397.012,47.724L397.734,47.669L398.457,47.501L399.18,47.428L399.902,47.31L400.625,47.124L401.348,47.079L402.07,47.015L402.793,46.87L403.516,46.8L404.238,46.636L404.961,46.629L405.684,46.505L406.406,46.308L407.129,46.223L407.852,46.215L408.574,46.048L409.297,45.907L410.02,45.873L410.742,45.749L411.465,45.657L412.188,45.491L412.91,45.428L413.633,45.276L414.355,45.191L415.078,45.103L415.801,45.014L416.523,44.82L417.246,44.753L417.969,44.61L418.691,44.554L419.414,44.305L420.137,44.201L420.859,44.18L421.582,44.024L422.305,43.999L423.027,43.906L423.75,43.566L424.473,43.603L425.195,43.451L425.918,43.258L426.641,43.175L427.363,43.021L428.086,43.055L428.809,42.704L429.531,42.827L430.254,42.62L430.977,42.43L431.699,42.377L432.422,42.249L433.145,42.104L433.867,42.044L434.59,41.958L435.313,41.761L436.035,41.642L436.758,41.645L437.48,41.459L438.203,41.238L438.926,41.132L439.648,41.186L440.371,40.934L441.094,40.797L441.816,40.683L442.539,40.552L443.262,40.441L443.984,40.369L444.707,40.148L445.43,40.2L446.152,40.092L446.875,39.911L447.598,39.885L448.32,39.738L449.043,39.62L449.766,39.443L450.488,39.295L451.211,39.249L451.934,39.138L452.656,39.011L453.379,38.852L454.102,38.798L454.824,38.649L455.547,38.482L456.27,38.416L456.992,38.29L457.715,38.124L458.438,38.07L459.16,37.975L459.883,37.975L460.605,37.745L461.328,37.617L462.051,37.595L462.773,37.418L463.496,37.232L464.219,37.209L464.941,37.108L465.664,36.929L466.387,36.801L467.109,36.681L467.832,36.639L468.555,36.493L469.277,36.478"/><g transform="translate(0,190) scale(1.7) rotate(-90)"><text>Drift</text></g><g transform="translate(315,395) scale(1.8)"><text></text></g><g transform="translate(0,350)" fill="none" font-size="10" font-family="sans-serif" text-anchor="middle"><path class="domain" stroke="currentColor" d="M100,6V0H470V6"/><g class="tick" opacity="1" transform="translate(136.66666666666666,0)"><line stroke="currentColor" y2="6"/><text fill="currentColor" y="9" dy="0.71em" font-size="20px"> </text></g><g class="tick" opacity="1" transform="translate(173.7037037037037,0)"><line stroke="currentColor" y2="6"/><text fill="currentColor" y="9" dy="0.71em" font-size="20px">200</text></g><g class="tick" opacity="1" transform="translate(210.74074074074076,0)"><line stroke="currentColor" y2="6"/><text fill="currentColor" y="9" dy="0.71em" font-size="20px"> </text></g><g class="tick" opacity="1" transform="translate(247.77777777777777,0)"><line stroke="currentColor" y2="6"/><text fill="currentColor" y="9" dy="0.71em" font-size="20px">400</text></g><g class="tick" opacity="1" transform="translate(284.81481481481484,0)"><line stroke="currentColor" y2="6"/><text fill="currentColor" y="9" dy="0.71em" font-size="20px"> </text></g><g class="tick" opacity="1" transform="translate(321.85185185185185,0)"><line stroke="currentColor" y2="6"/><text fill="currentColor" y="9" dy="0.71em" font-size="20px">600</text></g><g class="tick" opacity="1" transform="translate(358.8888888888889,0)"><line stroke="currentColor" y2="6"/><text fill="currentColor" y="9" dy="0.71em" font-size="20px"> </text></g><g class="tick" opacity="1" transform="translate(395.9259259259259,0)"><line stroke="currentColor" y2="6"/><text fill="currentColor" y="9" dy="0.71em" font-size="20px">800</text></g><g class="tick" opacity="1" transform="translate(432.96296296296293,0)"><line stroke="currentColor" y2="6"/><text fill="currentColor" y="9" dy="0.71em" font-size="20px"> </text></g><g class="tick" opacity="1" transform="translate(470,0)"><line stroke="currentColor" y2="6"/><text fill="currentColor" y="9" dy="0.71em" font-size="20px">1000</text></g></g><g transform="translate(100,0)" fill="none" font-size="10" font-family="sans-serif" text-anchor="end"><path class="domain" stroke="currentColor" d="M-6,350H0V20H-6"/><g class="tick" opacity="1" transform="translate(0,334.6747925482197)"><line stroke="currentColor" x2="-6"/><text fill="currentColor" x="-9" dy="0.32em" font-size="20px">0.60</text></g><g class="tick" opacity="1" transform="translate(0,307.74013784428337)"><line stroke="currentColor" x2="-6"/><text fill="currentColor" x="-9" dy="0.32em" font-size="20px">0.55</text></g><g class="tick" opacity="1" transform="translate(0,280.805483140347)"><line stroke="currentColor" x2="-6"/><text fill="currentColor" x="-9" dy="0.32em" font-size="20px">0.50</text></g><g class="tick" opacity="1" transform="translate(0,253.87082843641062)"><line stroke="currentColor" x2="-6"/><text fill="currentColor" x="-9" dy="0.32em" font-size="20px">0.45</text></g><g class="tick" opacity="1" transform="translate(0,226.9361737324742)"><line stroke="currentColor" x2="-6"/><text fill="currentColor" x="-9" dy="0.32em" font-size="20px">0.40</text></g><g class="tick" opacity="1" transform="translate(0,200.0015190285378)"><line stroke="currentColor" x2="-6"/><text fill="currentColor" x="-9" dy="0.32em" font-size="20px">0.35</text></g><g class="tick" opacity="1" transform="translate(0,173.06686432460145)"><line stroke="currentColor" x2="-6"/><text fill="currentColor" x="-9" dy="0.32em" font-size="20px">0.30</text></g><g class="tick" opacity="1" transform="translate(0,146.13220962066507)"><line stroke="currentColor" x2="-6"/><text fill="currentColor" x="-9" dy="0.32em" font-size="20px">0.25</text></g><g class="tick" opacity="1" transform="translate(0,119.1975549167287)"><line stroke="currentColor" x2="-6"/><text fill="currentColor" x="-9" dy="0.32em" font-size="20px">0.20</text></g><g class="tick" opacity="1" transform="translate(0,92.26290021279233)"><line stroke="currentColor" x2="-6"/><text fill="currentColor" x="-9" dy="0.32em" font-size="20px">0.15</text></g><g class="tick" opacity="1" transform="translate(0,65.32824550885593)"><line stroke="currentColor" x2="-6"/><text fill="currentColor" x="-9" dy="0.32em" font-size="20px">0.10</text></g><g class="tick" opacity="1" transform="translate(0,38.3935908049196)"><line stroke="currentColor" x2="-6"/><text fill="currentColor" x="-9" dy="0.32em" font-size="20px">0.05</text></g></g><circle cx="120" cy="155" r="8" style="fill: rgb(35, 23, 27);"/><circle cx="120" cy="180" r="8" style="fill: rgb(69, 105, 238);"/><circle cx="120" cy="205" r="8" style="fill: rgb(38, 188, 225);"/><circle cx="120" cy="230" r="8" style="fill: rgb(63, 243, 147);"/><circle cx="120" cy="255" r="8" style="fill: rgb(149, 251, 81);"/><circle cx="120" cy="280" r="8" style="fill: rgb(236, 209, 46);"/><circle cx="120" cy="305" r="8" style="fill: rgb(255, 130, 29);"/><circle cx="120" cy="330" r="8" style="fill: rgb(203, 47, 13);"/><text x="135" y="155" text-anchor="left" font-size="22" alignment-baseline="middle" style="fill: rgb(35, 23, 27);"> = 0</text><text x="135" y="180" text-anchor="left" font-size="22" alignment-baseline="middle" style="fill: rgb(69, 105, 238);"> = 0.22</text><text x="135" y="205" text-anchor="left" font-size="22" alignment-baseline="middle" style="fill: rgb(38, 188, 225);"> = 0.45</text><text x="135" y="230" text-anchor="left" font-size="22" alignment-baseline="middle" style="fill: rgb(63, 243, 147);"> = 0.67</text><text x="135" y="255" text-anchor="left" font-size="22" alignment-baseline="middle" style="fill: rgb(149, 251, 81);"> = 0.9</text><text x="135" y="280" text-anchor="left" font-size="22" alignment-baseline="middle" style="fill: rgb(236, 209, 46);"> = 1.12</text><text x="135" y="305" text-anchor="left" font-size="22" alignment-baseline="middle" style="fill: rgb(255, 130, 29);"> = 1.35</text><text x="135" y="330" text-anchor="left" font-size="22" alignment-baseline="middle" style="fill: rgb(203, 47, 13);"> = 1.57</text></svg>