<svg xmlns="http://www.w3.org/2000/svg" class="bg-white" width="500" height="400" viewBox="-35.199999999999996 -24.19999999999999 550 440.00000000000006"><path fill="none" stroke="rgb(35, 23, 27)" stroke-width="1.5" d="M100,55.315L100.723,54.203L101.445,53.285L102.168,52.476L102.891,51.745L103.613,51.047L104.336,50.372L105.059,49.811L105.781,49.2L106.504,48.668L107.227,48.135L107.949,47.648L108.672,47.209L109.395,46.766L110.117,46.338L110.84,45.869L111.563,45.454L112.285,44.985L113.008,44.541L113.73,44.089L114.453,43.62L115.176,43.179L115.898,42.731L116.621,42.229L117.344,41.735L118.066,41.257L118.789,40.699L119.512,40.13L120.234,39.561L120.957,38.869L121.68,38.097L122.402,37.256L123.125,38.436L123.848,39.56L124.57,40.514L125.293,41.472L126.016,42.389L126.738,43.23L127.461,44.018L128.184,44.835L128.906,45.622L129.629,46.308L130.352,46.958L131.074,47.693L131.797,48.326L132.52,48.97L133.242,49.599L133.965,50.216L134.688,50.769L135.41,51.403L136.133,51.97L136.855,52.487L137.578,53.113L138.301,53.656L139.023,54.169L139.746,54.638L140.469,55.199L141.191,55.721L141.914,56.281L142.637,56.725L143.359,57.193L144.082,57.698L144.805,58.135L145.527,58.694L146.25,59.142L146.973,59.602L147.695,60.099L148.418,60.516L149.141,60.97L149.863,61.532L150.586,62.007L151.309,62.401L152.031,62.826L152.754,63.302L153.477,63.719L154.199,64.245L154.922,64.691L155.645,65.115L156.367,65.578L157.09,66.044L157.813,66.498L158.535,66.915L159.258,67.337L159.98,67.843L160.703,68.347L161.426,68.765L162.148,69.221L162.871,69.715L163.594,70.08L164.316,70.506L165.039,71.018L165.762,71.58L166.484,71.873L167.207,72.432L167.93,72.913L168.652,73.384L169.375,73.804L170.098,74.325L170.82,74.653L171.543,75.142L172.266,75.702L172.988,76.043L173.711,76.528L174.434,77.075L175.156,77.524L175.879,77.998L176.602,78.472L177.324,78.898L178.047,79.41L178.77,79.841L179.492,80.33L180.215,80.805L180.938,81.272L181.66,81.852L182.383,82.345L183.105,82.808L183.828,83.278L184.551,83.742L185.273,84.303L185.996,84.787L186.719,85.245L187.441,85.736L188.164,86.332L188.887,86.842L189.609,87.362L190.332,87.876L191.055,88.424L191.777,88.895L192.5,89.469L193.223,89.964L193.945,90.481L194.668,91.051L195.391,91.542L196.113,92.116L196.836,92.64L197.559,93.17L198.281,93.699L199.004,94.347L199.727,94.851L200.449,95.462L201.172,95.963L201.895,96.521L202.617,97.103L203.34,97.685L204.063,98.25L204.785,98.822L205.508,99.412L206.23,100.076L206.953,100.618L207.676,101.2L208.398,101.712L209.121,102.343L209.844,102.972L210.566,103.54L211.289,104.253L212.012,104.751L212.734,105.482L213.457,106.159L214.18,106.724L214.902,107.341L215.625,108.009L216.348,108.762L217.07,109.164L217.793,109.847L218.516,110.605L219.238,111.228L219.961,111.873L220.684,112.576L221.406,113.299L222.129,113.88L222.852,114.766L223.574,115.249L224.297,116.001L225.02,116.648L225.742,117.524L226.465,118.193L227.188,118.901L227.91,119.648L228.633,120.343L229.355,121.027L230.078,121.863L230.801,122.614L231.523,123.298L232.246,124.099L232.969,124.85L233.691,125.659L234.414,126.358L235.137,127.246L235.859,128.132L236.582,128.852L237.305,129.576L238.027,130.531L238.75,131.412L239.473,132.205L240.195,132.985L240.918,133.886L241.641,134.749L242.363,135.595L243.086,136.56L243.809,137.443L244.531,138.374L245.254,139.326L245.977,140.188L246.699,141.122L247.422,141.94L248.145,142.84L248.867,143.95L249.59,144.942L250.313,145.931L251.035,146.904L251.758,147.804L252.48,148.965L253.203,149.996L253.926,150.986L254.648,152.07L255.371,152.992L256.094,154.06L256.816,155.302L257.539,156.275L258.262,157.339L258.984,158.452L259.707,159.545L260.43,160.732L261.152,161.866L261.875,162.761L262.598,164.002L263.32,165.339L264.043,166.379L264.766,167.521L265.488,168.958L266.211,169.998L266.934,171.265L267.656,172.649L268.379,173.791L269.102,175.033L269.824,176.34L270.547,177.818L271.27,179.105L271.992,180.253L272.715,181.561L273.438,183.005L274.16,184.327L274.883,185.662L275.605,187.126L276.328,188.341L277.051,189.723L277.773,191.062L278.496,192.601L279.219,194.149L279.941,195.462L280.664,196.822L281.387,198.288L282.109,199.854L282.832,201.355L283.555,202.753L284.277,204.276L285,205.881L285.723,207.358L286.445,208.844L287.168,210.312L287.891,211.924L288.613,213.418L289.336,215.234L290.059,216.457L290.781,218.06L291.504,219.628L292.227,221.162L292.949,222.379L293.672,224.352L294.395,226.034L295.117,227.14L295.84,229.348L296.563,230.683L297.285,232.228L298.008,233.993L298.73,235.543L299.453,237.091L300.176,238.728L300.898,240.783L301.621,241.854L302.344,243.655L303.066,245.553L303.789,246.859L304.512,248.586L305.234,249.805L305.957,252.026L306.68,253.274L307.402,254.781L308.125,256.207L308.848,258.105L309.57,260.009L310.293,261.176L311.016,262.752L311.738,264.415L312.461,266.038L313.184,267.701L313.906,269.025L314.629,270.473L315.352,272.248L316.074,273.563L316.797,275.712L317.52,276.843L318.242,278.767L318.965,280.275L319.688,281.234L320.41,282.872L321.133,284.2L321.855,285.71L322.578,287.173L323.301,288.612L324.023,289.979L324.746,291.453L325.469,293.04L326.191,294.579L326.914,295.78L327.637,297.258L328.359,298.485L329.082,300.282L329.805,301.843L330.527,302.611L331.25,304.069L331.973,305.373L332.695,306.914L333.418,308.367L334.141,308.96L334.863,310.829L335.586,311.158L336.309,312.333L337.031,313.934L337.754,315.12L338.477,316.763L339.199,317.331L339.922,318.513L340.645,319.605L341.367,320.245L342.09,322L342.813,322.899L343.535,323.453L344.258,324.535L344.98,325.995L345.703,327.173L346.426,328.01L347.148,328.868L347.871,329.893L348.594,330.6L349.316,331.215L350.039,332.454L350.762,333.234L351.484,334.213L352.207,334.834L352.93,335.554L353.652,336.396L354.375,336.902L355.098,337.867L355.82,338.516L356.543,339.125L357.266,340.017L357.988,340.545L358.711,341.108L359.434,341.885L360.156,342.39L360.879,343.002L361.602,343.207L362.324,344.189L363.047,344.299L363.77,344.816L364.492,345.39L365.215,346.022L365.938,345.858L366.66,346.251L367.383,346.702L368.105,347.001L368.828,347.348L369.551,348.027L370.273,347.909L370.996,347.913L371.719,348.426L372.441,348.773L373.164,348.938L373.887,349.404L374.609,349.065L375.332,349.606L376.055,349.777L376.777,349.381L377.5,349.641L378.223,349.981L378.945,349.515L379.668,349.651L380.391,350L381.113,349.982L381.836,349.691L382.559,349.936L383.281,349.557L384.004,349.573L384.727,348.933L385.449,349.458L386.172,348.805L386.895,349.067L387.617,348.633L388.34,348.221L389.063,348.362L389.785,348.261L390.508,347.919L391.23,347.31L391.953,347.002L392.676,347.003L393.398,346.32L394.121,345.81L394.844,345.497L395.566,345.213L396.289,345.142L397.012,344.114L397.734,343.977L398.457,343.408L399.18,342.917L399.902,342.337L400.625,342.16L401.348,341.22L402.07,340.883L402.793,340.393L403.516,339.565L404.238,339.247L404.961,338.556L405.684,338.837L406.406,337.879L407.129,336.986L407.852,336.295L408.574,335.46L409.297,335.087L410.02,334.516L410.742,334.075L411.465,333.174L412.188,332.254L412.91,331.72L413.633,330.967L414.355,330.182L415.078,329.349L415.801,328.327L416.523,327.982L417.246,327.235L417.969,326.488L418.691,325.186L419.414,324.418L420.137,323.822L420.859,323.057L421.582,322.065L422.305,321.301L423.027,320.455L423.75,319.363L424.473,318.791L425.195,317.796L425.918,316.88L426.641,315.959L427.363,314.986L428.086,314.584L428.809,313.661L429.531,312.349L430.254,311.269L430.977,310.252L431.699,309.926L432.422,308.248L433.145,307.503L433.867,306.405L434.59,305.56L435.313,304.702L436.035,303.729L436.758,302.566L437.48,301.905L438.203,300.717L438.926,299.682L439.648,298.612L440.371,297.493L441.094,296.437L441.816,295.365L442.539,294.969L443.262,293.554L443.984,292.398L444.707,290.913L445.43,290.633L446.152,289.378L446.875,288.232L447.598,287.221L448.32,286.052L449.043,284.986L449.766,283.816L450.488,283.126L451.211,281.61L451.934,280.39L452.656,280.066L453.379,278.45L454.102,277.684L454.824,276.274L455.547,275.022L456.27,274.111L456.992,272.918L457.715,271.733L458.438,270.958L459.16,269.437L459.883,268.515L460.605,267.461L461.328,266.578L462.051,265.068L462.773,264.267L463.496,263.219L464.219,262.382L464.941,260.763L465.664,259.701L466.387,258.599L467.109,258.065L467.832,256.658L468.555,255.837L469.277,254.034"/><path fill="none" stroke="rgb(69, 105, 238)" stroke-width="1.5" d="M100,55.389L100.723,54.186L101.445,53.27L102.168,52.381L102.891,51.704L103.613,51.032L104.336,50.404L105.059,49.786L105.781,49.249L106.504,48.582L107.227,48.047L107.949,47.606L108.672,47.059L109.395,46.607L110.117,46.112L110.84,45.646L111.563,45.298L112.285,44.821L113.008,44.358L113.73,43.882L114.453,43.488L115.176,42.997L115.898,42.499L116.621,42.049L117.344,41.493L118.066,40.971L118.789,40.498L119.512,39.84L120.234,39.23L120.957,38.507L121.68,37.779L122.402,36.946L123.125,38.001L123.848,39.081L124.57,40.099L125.293,40.996L126.016,41.902L126.738,42.802L127.461,43.606L128.184,44.378L128.906,45.028L129.629,45.793L130.352,46.546L131.074,47.134L131.797,47.779L132.52,48.43L133.242,49.038L133.965,49.661L134.688,50.208L135.41,50.825L136.133,51.374L136.855,51.907L137.578,52.424L138.301,52.96L139.023,53.478L139.746,54.03L140.469,54.514L141.191,55.061L141.914,55.611L142.637,56.038L143.359,56.478L144.082,57.049L144.805,57.486L145.527,57.98L146.25,58.437L146.973,58.939L147.695,59.389L148.418,59.822L149.141,60.261L149.863,60.792L150.586,61.167L151.309,61.664L152.031,62.119L152.754,62.593L153.477,62.968L154.199,63.382L154.922,63.89L155.645,64.29L156.367,64.823L157.09,65.175L157.813,65.708L158.535,66.086L159.258,66.541L159.98,66.965L160.703,67.452L161.426,67.855L162.148,68.321L162.871,68.778L163.594,69.222L164.316,69.653L165.039,70.088L165.762,70.513L166.484,70.982L167.207,71.445L167.93,71.878L168.652,72.34L169.375,72.785L170.098,73.256L170.82,73.665L171.543,74.158L172.266,74.586L172.988,75.088L173.711,75.545L174.434,75.912L175.156,76.361L175.879,76.873L176.602,77.38L177.324,77.792L178.047,78.261L178.77,78.758L179.492,79.213L180.215,79.665L180.938,80.197L181.66,80.602L182.383,81.158L183.105,81.574L183.828,82.012L184.551,82.518L185.273,83.035L185.996,83.553L186.719,84.008L187.441,84.528L188.164,85.056L188.887,85.556L189.609,85.944L190.332,86.547L191.055,87.03L191.777,87.473L192.5,88.028L193.223,88.578L193.945,89.085L194.668,89.527L195.391,90.109L196.113,90.662L196.836,91.183L197.559,91.628L198.281,92.152L199.004,92.718L199.727,93.253L200.449,93.83L201.172,94.386L201.895,94.824L202.617,95.566L203.34,96.005L204.063,96.581L204.785,97.136L205.508,97.656L206.23,98.26L206.953,98.842L207.676,99.452L208.398,99.98L209.121,100.566L209.844,101.102L210.566,101.69L211.289,102.329L212.012,102.98L212.734,103.603L213.457,104.128L214.18,104.683L214.902,105.434L215.625,105.991L216.348,106.616L217.07,107.054L217.793,107.709L218.516,108.466L219.238,109.128L219.961,109.668L220.684,110.387L221.406,111.004L222.129,111.64L222.852,112.327L223.574,113.035L224.297,113.722L225.02,114.308L225.742,114.914L226.465,115.682L227.188,116.319L227.91,117.103L228.633,117.697L229.355,118.457L230.078,118.983L230.801,119.78L231.523,120.582L232.246,121.109L232.969,121.959L233.691,122.682L234.414,123.439L235.137,124.171L235.859,124.897L236.582,125.573L237.305,126.366L238.027,127.123L238.75,127.947L239.473,128.682L240.195,129.434L240.918,130.194L241.641,130.849L242.363,131.845L243.086,132.627L243.809,133.283L244.531,134.014L245.254,134.971L245.977,135.759L246.699,136.587L247.422,137.408L248.145,138.191L248.867,139.269L249.59,139.969L250.313,140.847L251.035,141.666L251.758,142.494L252.48,143.217L253.203,144.246L253.926,145.23L254.648,145.949L255.371,147.012L256.094,147.991L256.816,148.663L257.539,149.501L258.262,150.568L258.984,151.492L259.707,152.578L260.43,153.163L261.152,154.166L261.875,155.114L262.598,156.307L263.32,157.155L264.043,158.199L264.766,158.871L265.488,160.173L266.211,161.16L266.934,162.028L267.656,163.044L268.379,164.03L269.102,165.005L269.824,165.99L270.547,167.068L271.27,167.898L271.992,169.179L272.715,170.085L273.438,171.353L274.16,172.029L274.883,173.332L275.605,174.142L276.328,175.525L277.051,176.455L277.773,177.385L278.496,178.692L279.219,179.628L279.941,180.529L280.664,181.799L281.387,182.794L282.109,183.945L282.832,185.078L283.555,186.146L284.277,187.287L285,188.516L285.723,189.593L286.445,190.614L287.168,191.651L287.891,192.891L288.613,193.659L289.336,194.979L290.059,196.054L290.781,196.982L291.504,198.592L292.227,199.468L292.949,200.576L293.672,201.655L294.395,202.915L295.117,204.108L295.84,205.12L296.563,206.321L297.285,207.458L298.008,208.583L298.73,209.809L299.453,210.705L300.176,211.97L300.898,212.939L301.621,214.061L302.344,215.398L303.066,216.366L303.789,217.409L304.512,218.606L305.234,219.5L305.957,220.882L306.68,222.178L307.402,223.005L308.125,224.141L308.848,225.341L309.57,226.321L310.293,227.402L311.016,228.612L311.738,229.751L312.461,230.713L313.184,231.818L313.906,232.592L314.629,233.826L315.352,234.928L316.074,235.932L316.797,237.077L317.52,238.114L318.242,238.925L318.965,240.107L319.688,241.319L320.41,242.112L321.133,243.065L321.855,244.086L322.578,245.148L323.301,246.177L324.023,246.771L324.746,247.798L325.469,249.034L326.191,249.829L326.914,250.895L327.637,251.773L328.359,252.708L329.082,253.684L329.805,254.507L330.527,255.41L331.25,256.262L331.973,257.232L332.695,258.034L333.418,258.954L334.141,259.68L334.863,260.444L335.586,261.303L336.309,262.085L337.031,262.937L337.754,263.654L338.477,264.482L339.199,265.322L339.922,265.956L340.645,266.995L341.367,267.467L342.09,268.063L342.813,268.848L343.535,269.588L344.258,270.433L344.98,270.857L345.703,271.363L346.426,272.238L347.148,272.941L347.871,273.549L348.594,273.805L349.316,274.003L350.039,274.572L350.762,275.588L351.484,276.342L352.207,276.627L352.93,277.283L353.652,277.611L354.375,277.995L355.098,278.784L355.82,279.227L356.543,279.302L357.266,279.974L357.988,280.127L358.711,280.482L359.434,280.937L360.156,281.238L360.879,281.936L361.602,281.955L362.324,282.194L363.047,282.568L363.77,282.815L364.492,283.051L365.215,283.294L365.938,283.557L366.66,283.75L367.383,283.745L368.105,284.176L368.828,284.647L369.551,284.492L370.273,284.845L370.996,284.916L371.719,284.866L372.441,284.951L373.164,285.315L373.887,285.113L374.609,285.479L375.332,285.155L376.055,285.131L376.777,285.065L377.5,285.466L378.223,285.454L378.945,284.938L379.668,285.145L380.391,285.329L381.113,285.25L381.836,284.784L382.559,284.858L383.281,284.658L384.004,284.471L384.727,284.297L385.449,284.14L386.172,284.018L386.895,283.896L387.617,283.659L388.34,283.55L389.063,283.184L389.785,283.252L390.508,282.966L391.23,282.434L391.953,282.418L392.676,281.814L393.398,281.943L394.121,281.54L394.844,281.099L395.566,280.963L396.289,280.251L397.012,280.121L397.734,279.453L398.457,279.227L399.18,278.65L399.902,278.299L400.625,277.686L401.348,277.332L402.07,277.199L402.793,276.709L403.516,276.289L404.238,275.654L404.961,275.085L405.684,274.628L406.406,274.194L407.129,273.895L407.852,273.357L408.574,272.738L409.297,272.491L410.02,271.458L410.742,270.936L411.465,270.294L412.188,269.982L412.91,269.29L413.633,268.715L414.355,268.071L415.078,267.459L415.801,266.852L416.523,266.082L417.246,265.805L417.969,264.916L418.691,264.169L419.414,263.77L420.137,262.873L420.859,262.324L421.582,261.548L422.305,261.172L423.027,260.375L423.75,259.623L424.473,258.758L425.195,258.311L425.918,257.369L426.641,256.377L427.363,256.218L428.086,255.343L428.809,254.382L429.531,253.285L430.254,252.871L430.977,251.762L431.699,251.337L432.422,250.768L433.145,249.7L433.867,248.895L434.59,248.282L435.313,247.584L436.035,246.605L436.758,246.12L437.48,245.125L438.203,244.414L438.926,243.715L439.648,242.594L440.371,241.956L441.094,240.696L441.816,240.266L442.539,239.663L443.262,238.187L443.984,237.808L444.707,236.829L445.43,236.001L446.152,235.176L446.875,234.302L447.598,233.891L448.32,232.774L449.043,231.672L449.766,231.111L450.488,230.418L451.211,229.183L451.934,228.47L452.656,227.51L453.379,226.768L454.102,225.884L454.824,224.992L455.547,224.174L456.27,223.016L456.992,222.454L457.715,221.732L458.438,220.7L459.16,219.827L459.883,219.134L460.605,218.029L461.328,217.38L462.051,216.349L462.773,215.356L463.496,214.509L464.219,213.725L464.941,213.001L465.664,211.728L466.387,210.855L467.109,210.187L467.832,209.322L468.555,208.313L469.277,207.582"/><path fill="none" stroke="rgb(38, 188, 225)" stroke-width="1.5" d="M100,55.3L100.723,54.241L101.445,53.268L102.168,52.387L102.891,51.573L103.613,50.909L104.336,50.2L105.059,49.549L105.781,48.891L106.504,48.334L107.227,47.742L107.949,47.17L108.672,46.677L109.395,46.148L110.117,45.592L110.84,45.172L111.563,44.665L112.285,44.202L113.008,43.695L113.73,43.261L114.453,42.727L115.176,42.276L115.898,41.73L116.621,41.28L117.344,40.682L118.066,40.127L118.789,39.546L119.512,38.91L120.234,38.272L120.957,37.57L121.68,36.798L122.402,35.759L123.125,36.907L123.848,37.996L124.57,38.954L125.293,39.873L126.016,40.752L126.738,41.514L127.461,42.3L128.184,43.031L128.906,43.751L129.629,44.536L130.352,45.085L131.074,45.801L131.797,46.389L132.52,46.978L133.242,47.521L133.965,48.103L134.688,48.708L135.41,49.232L136.133,49.759L136.855,50.346L137.578,50.782L138.301,51.341L139.023,51.826L139.746,52.286L140.469,52.819L141.191,53.321L141.914,53.729L142.637,54.209L143.359,54.673L144.082,55.139L144.805,55.545L145.527,56.13L146.25,56.495L146.973,56.925L147.695,57.366L148.418,57.791L149.141,58.222L149.863,58.628L150.586,59.081L151.309,59.547L152.031,60.002L152.754,60.409L153.477,60.789L154.199,61.155L154.922,61.651L155.645,62.109L156.367,62.562L157.09,62.921L157.813,63.349L158.535,63.815L159.258,64.132L159.98,64.552L160.703,64.991L161.426,65.454L162.148,65.883L162.871,66.265L163.594,66.653L164.316,67.159L165.039,67.511L165.762,67.967L166.484,68.385L167.207,68.747L167.93,69.201L168.652,69.646L169.375,70.018L170.098,70.55L170.82,70.944L171.543,71.285L172.266,71.753L172.988,72.164L173.711,72.679L174.434,73.027L175.156,73.46L175.879,74.004L176.602,74.325L177.324,74.792L178.047,75.208L178.77,75.725L179.492,76.163L180.215,76.541L180.938,76.969L181.66,77.366L182.383,77.853L183.105,78.352L183.828,78.877L184.551,79.149L185.273,79.769L185.996,80.106L186.719,80.549L187.441,80.981L188.164,81.481L188.887,82.038L189.609,82.423L190.332,82.976L191.055,83.371L191.777,83.778L192.5,84.275L193.223,84.813L193.945,85.324L194.668,85.839L195.391,86.203L196.113,86.703L196.836,87.174L197.559,87.793L198.281,88.199L199.004,88.756L199.727,89.18L200.449,89.676L201.172,90.277L201.895,90.773L202.617,91.191L203.34,91.733L204.063,92.201L204.785,92.76L205.508,93.271L206.23,93.778L206.953,94.263L207.676,94.934L208.398,95.394L209.121,95.872L209.844,96.432L210.566,96.95L211.289,97.593L212.012,98.084L212.734,98.689L213.457,99.14L214.18,99.757L214.902,100.404L215.625,100.811L216.348,101.365L217.07,101.945L217.793,102.556L218.516,103.181L219.238,103.614L219.961,104.219L220.684,104.982L221.406,105.509L222.129,105.956L222.852,106.641L223.574,107.324L224.297,107.764L225.02,108.36L225.742,108.994L226.465,109.626L227.188,110.187L227.91,110.859L228.633,111.548L229.355,112.115L230.078,112.743L230.801,113.346L231.523,113.91L232.246,114.63L232.969,115.209L233.691,115.86L234.414,116.417L235.137,117.264L235.859,117.775L236.582,118.44L237.305,119.034L238.027,119.681L238.75,120.42L239.473,120.98L240.195,121.805L240.918,122.484L241.641,123.13L242.363,123.736L243.086,124.416L243.809,125.164L244.531,125.979L245.254,126.477L245.977,127.259L246.699,127.957L247.422,128.769L248.145,129.533L248.867,130.023L249.59,130.796L250.313,131.411L251.035,132.264L251.758,133.055L252.48,133.725L253.203,134.588L253.926,135.112L254.648,135.95L255.371,136.707L256.094,137.43L256.816,138.376L257.539,138.86L258.262,139.694L258.984,140.333L259.707,141.05L260.43,141.953L261.152,142.681L261.875,143.371L262.598,144.275L263.32,145.105L264.043,145.716L264.766,146.54L265.488,147.365L266.211,148.103L266.934,148.922L267.656,149.74L268.379,150.616L269.102,151.288L269.824,152.154L270.547,152.884L271.27,153.766L271.992,154.502L272.715,155.419L273.438,156.122L274.16,156.954L274.883,157.85L275.605,158.493L276.328,159.362L277.051,160.238L277.773,161.058L278.496,161.845L279.219,162.554L279.941,163.428L280.664,164.485L281.387,165.074L282.109,165.996L282.832,166.651L283.555,167.539L284.277,168.291L285,169.222L285.723,169.961L286.445,170.811L287.168,171.689L287.891,172.484L288.613,173.202L289.336,174.133L290.059,174.922L290.781,175.876L291.504,176.762L292.227,177.389L292.949,178.295L293.672,179.18L294.395,180.008L295.117,180.773L295.84,181.558L296.563,182.377L297.285,183.252L298.008,184.162L298.73,184.791L299.453,185.718L300.176,186.501L300.898,187.2L301.621,187.892L302.344,188.632L303.066,189.588L303.789,190.12L304.512,190.987L305.234,191.882L305.957,192.632L306.68,193.562L307.402,194.136L308.125,195.037L308.848,195.816L309.57,196.321L310.293,197.246L311.016,197.95L311.738,198.609L312.461,199.497L313.184,200.139L313.906,200.879L314.629,201.504L315.352,202.226L316.074,203.083L316.797,203.699L317.52,204.49L318.242,205.133L318.965,205.678L319.688,206.633L320.41,207.04L321.133,207.751L321.855,208.401L322.578,209.107L323.301,209.7L324.023,210.422L324.746,210.965L325.469,211.646L326.191,212.403L326.914,212.93L327.637,213.409L328.359,214.116L329.082,214.795L329.805,215.372L330.527,215.95L331.25,216.394L331.973,216.947L332.695,217.45L333.418,217.923L334.141,218.297L334.863,219.008L335.586,219.55L336.309,219.904L337.031,220.737L337.754,221.064L338.477,221.563L339.199,222.011L339.922,222.242L340.645,222.974L341.367,223.363L342.09,223.78L342.813,224.119L343.535,224.439L344.258,224.928L344.98,225.135L345.703,225.591L346.426,225.839L347.148,226.203L347.871,226.631L348.594,227.068L349.316,227.454L350.039,227.767L350.762,227.892L351.484,228.334L352.207,228.485L352.93,228.817L353.652,228.9L354.375,229.148L355.098,229.501L355.82,229.78L356.543,229.817L357.266,229.819L357.988,230.335L358.711,230.504L359.434,230.737L360.156,230.699L360.879,230.894L361.602,231.003L362.324,231.24L363.047,231.281L363.77,231.196L364.492,231.526L365.215,231.461L365.938,231.633L366.66,231.775L367.383,231.892L368.105,231.728L368.828,231.815L369.551,231.768L370.273,231.727L370.996,231.747L371.719,231.544L372.441,231.653L373.164,231.574L373.887,231.574L374.609,231.345L375.332,231.371L376.055,231.696L376.777,231.04L377.5,231.08L378.223,231.06L378.945,230.795L379.668,230.859L380.391,230.612L381.113,230.336L381.836,230.281L382.559,230.028L383.281,230.019L384.004,229.755L384.727,229.465L385.449,229.236L386.172,229.407L386.895,228.733L387.617,228.257L388.34,228.381L389.063,228.195L389.785,227.739L390.508,227.386L391.23,226.975L391.953,226.799L392.676,226.449L393.398,226.158L394.121,225.829L394.844,225.676L395.566,224.968L396.289,224.953L397.012,224.333L397.734,224.295L398.457,223.719L399.18,223.026L399.902,222.958L400.625,222.49L401.348,222.209L402.07,221.729L402.793,221.539L403.516,220.839L404.238,220.115L404.961,219.941L405.684,219.814L406.406,219.05L407.129,218.646L407.852,218.141L408.574,217.258L409.297,217.016L410.02,216.487L410.742,216.139L411.465,215.723L412.188,214.995L412.91,214.613L413.633,214.297L414.355,213.79L415.078,212.767L415.801,212.616L416.523,212.018L417.246,211.328L417.969,210.822L418.691,210.197L419.414,209.593L420.137,209.065L420.859,208.605L421.582,207.877L422.305,207.489L423.027,206.697L423.75,206.027L424.473,205.532L425.195,204.908L425.918,204.387L426.641,203.928L427.363,203.344L428.086,202.564L428.809,201.863L429.531,201.177L430.254,200.638L430.977,200.052L431.699,199.586L432.422,198.847L433.145,198.05L433.867,197.388L434.59,196.812L435.313,196.345L436.035,195.34L436.758,194.992L437.48,194.167L438.203,193.466L438.926,192.888L439.648,192.251L440.371,191.776L441.094,191.111L441.816,190.01L442.539,189.415L443.262,188.635L443.984,188.137L444.707,187.503L445.43,186.741L446.152,186.131L446.875,185.513L447.598,184.717L448.32,184.181L449.043,183.251L449.766,182.793L450.488,181.823L451.211,181.222L451.934,180.575L452.656,179.859L453.379,179.062L454.102,178.76L454.824,177.885L455.547,177.1L456.27,176.389L456.992,175.675L457.715,175.023L458.438,174.154L459.16,173.618L459.883,172.802L460.605,172.424L461.328,171.319L462.051,170.771L462.773,170.237L463.496,169.561L464.219,168.909L464.941,167.911L465.664,167.187L466.387,166.314L467.109,165.803L467.832,165.115L468.555,164.715L469.277,163.848"/><path fill="none" stroke="rgb(63, 243, 147)" stroke-width="1.5" d="M100,55.112L100.723,54.053L101.445,53.041L102.168,52.133L102.891,51.336L103.613,50.476L104.336,49.831L105.059,49.08L105.781,48.386L106.504,47.776L107.227,47.095L107.949,46.543L108.672,45.981L109.395,45.405L110.117,44.804L110.84,44.282L111.563,43.754L112.285,43.143L113.008,42.574L113.73,42.13L114.453,41.566L115.176,40.973L115.898,40.437L116.621,39.845L117.344,39.241L118.066,38.689L118.789,37.966L119.512,37.333L120.234,36.647L120.957,35.807L121.68,34.981L122.402,34.301L123.125,35.393L123.848,36.353L124.57,37.261L125.293,38.119L126.016,38.852L126.738,39.667L127.461,40.428L128.184,41.093L128.906,41.725L129.629,42.434L130.352,43.021L131.074,43.645L131.797,44.155L132.52,44.73L133.242,45.238L133.965,45.755L134.688,46.33L135.41,46.783L136.133,47.204L136.855,47.835L137.578,48.231L138.301,48.691L139.023,49.17L139.746,49.657L140.469,50.014L141.191,50.566L141.914,50.941L142.637,51.386L143.359,51.826L144.082,52.243L144.805,52.645L145.527,53.049L146.25,53.412L146.973,53.884L147.695,54.242L148.418,54.71L149.141,55.084L149.863,55.411L150.586,55.855L151.309,56.198L152.031,56.594L152.754,57.044L153.477,57.321L154.199,57.695L154.922,58.087L155.645,58.544L156.367,58.93L157.09,59.302L157.813,59.684L158.535,60.062L159.258,60.433L159.98,60.826L160.703,61.193L161.426,61.61L162.148,61.944L162.871,62.308L163.594,62.68L164.316,63.104L165.039,63.482L165.762,63.865L166.484,64.202L167.207,64.651L167.93,64.964L168.652,65.362L169.375,65.811L170.098,66.133L170.82,66.551L171.543,66.894L172.266,67.279L172.988,67.701L173.711,68.083L174.434,68.549L175.156,68.801L175.879,69.286L176.602,69.674L177.324,69.976L178.047,70.539L178.77,70.91L179.492,71.304L180.215,71.678L180.938,72.059L181.66,72.454L182.383,72.858L183.105,73.337L183.828,73.672L184.551,74.135L185.273,74.509L185.996,74.946L186.719,75.267L187.441,75.756L188.164,76.263L188.887,76.615L189.609,77.038L190.332,77.434L191.055,77.788L191.777,78.317L192.5,78.781L193.223,79.134L193.945,79.559L194.668,80.043L195.391,80.474L196.113,80.886L196.836,81.358L197.559,81.83L198.281,82.206L199.004,82.703L199.727,83.089L200.449,83.576L201.172,84.017L201.895,84.49L202.617,84.991L203.34,85.516L204.063,85.79L204.785,86.394L205.508,86.853L206.23,87.205L206.953,87.789L207.676,88.183L208.398,88.651L209.121,89.229L209.844,89.619L210.566,90.201L211.289,90.714L212.012,91.159L212.734,91.728L213.457,92.174L214.18,92.646L214.902,93.068L215.625,93.655L216.348,94.044L217.07,94.56L217.793,95.108L218.516,95.637L219.238,96.206L219.961,96.705L220.684,97.243L221.406,97.69L222.129,98.286L222.852,98.866L223.574,99.342L224.297,99.787L225.02,100.448L225.742,100.863L226.465,101.431L227.188,102.001L227.91,102.602L228.633,103.144L229.355,103.654L230.078,104.275L230.801,104.731L231.523,105.372L232.246,105.867L232.969,106.355L233.691,107.045L234.414,107.534L235.137,108.257L235.859,108.745L236.582,109.331L237.305,109.858L238.027,110.451L238.75,111.122L239.473,111.494L240.195,112.162L240.918,112.732L241.641,113.297L242.363,113.898L243.086,114.578L243.809,115.127L244.531,115.692L245.254,116.355L245.977,116.846L246.699,117.418L247.422,118.173L248.145,118.613L248.867,119.447L249.59,120.002L250.313,120.602L251.035,121.224L251.758,121.831L252.48,122.374L253.203,122.946L253.926,123.744L254.648,124.323L255.371,124.879L256.094,125.594L256.816,126.104L257.539,126.843L258.262,127.452L258.984,127.863L259.707,128.686L260.43,129.525L261.152,129.863L261.875,130.556L262.598,131.224L263.32,131.896L264.043,132.42L264.766,133.222L265.488,133.725L266.211,134.37L266.934,134.931L267.656,135.67L268.379,136.269L269.102,137.056L269.824,137.677L270.547,138.265L271.27,138.863L271.992,139.555L272.715,140.167L273.438,140.975L274.16,141.218L274.883,142.058L275.605,142.584L276.328,143.113L277.051,143.909L277.773,144.592L278.496,145.249L279.219,145.739L279.941,146.461L280.664,147.059L281.387,147.723L282.109,148.245L282.832,148.852L283.555,149.562L284.277,150.191L285,150.802L285.723,151.287L286.445,152.012L287.168,152.497L287.891,153.047L288.613,153.733L289.336,154.449L290.059,155.032L290.781,155.61L291.504,156.169L292.227,156.912L292.949,157.447L293.672,158.049L294.395,158.528L295.117,159.013L295.84,159.677L296.563,160.164L297.285,160.9L298.008,161.409L298.73,162.052L299.453,162.445L300.176,163.078L300.898,163.689L301.621,164.192L302.344,164.713L303.066,165.316L303.789,165.819L304.512,166.31L305.234,166.939L305.957,167.354L306.68,167.85L307.402,168.373L308.125,168.758L308.848,169.437L309.57,169.895L310.293,170.307L311.016,170.696L311.738,171.498L312.461,171.915L313.184,172.231L313.906,172.81L314.629,173.237L315.352,173.497L316.074,174.149L316.797,174.689L317.52,174.975L318.242,175.206L318.965,175.92L319.688,176.113L320.41,176.593L321.133,176.871L321.855,177.163L322.578,177.739L323.301,177.974L324.023,178.624L324.746,178.847L325.469,179.271L326.191,179.408L326.914,179.935L327.637,180.292L328.359,180.348L329.082,180.688L329.805,181.114L330.527,181.421L331.25,181.65L331.973,182.114L332.695,182.34L333.418,182.54L334.141,182.858L334.863,183.097L335.586,183.375L336.309,183.797L337.031,183.732L337.754,183.871L338.477,184.176L339.199,184.513L339.922,184.555L340.645,184.77L341.367,185.108L342.09,185.238L342.813,185.289L343.535,185.614L344.258,185.619L344.98,185.938L345.703,185.905L346.426,186.155L347.148,186.05L347.871,186.314L348.594,186.245L349.316,186.597L350.039,186.626L350.762,186.578L351.484,186.629L352.207,186.726L352.93,186.83L353.652,186.988L354.375,187.004L355.098,186.736L355.82,187.013L356.543,186.969L357.266,186.868L357.988,186.921L358.711,186.974L359.434,186.984L360.156,186.972L360.879,186.876L361.602,186.781L362.324,186.754L363.047,186.574L363.77,186.52L364.492,186.534L365.215,186.43L365.938,186.297L366.66,185.959L367.383,185.931L368.105,185.941L368.828,185.553L369.551,185.598L370.273,185.366L370.996,185.378L371.719,185.049L372.441,184.811L373.164,184.899L373.887,184.658L374.609,184.438L375.332,184.298L376.055,184.066L376.777,183.825L377.5,183.651L378.223,183.571L378.945,183.148L379.668,182.817L380.391,182.927L381.113,182.348L381.836,182.188L382.559,181.733L383.281,181.382L384.004,181.291L384.727,181.015L385.449,180.834L386.172,180.402L386.895,180.089L387.617,179.876L388.34,179.405L389.063,179.126L389.785,178.948L390.508,178.615L391.23,178.342L391.953,177.774L392.676,177.395L393.398,177.016L394.121,176.719L394.844,176.302L395.566,176.006L396.289,175.432L397.012,175.223L397.734,174.881L398.457,174.582L399.18,174.003L399.902,173.683L400.625,173.258L401.348,172.772L402.07,172.383L402.793,172.072L403.516,171.81L404.238,171.255L404.961,170.726L405.684,170.258L406.406,169.709L407.129,169.324L407.852,169.04L408.574,168.396L409.297,168.168L410.02,167.278L410.742,166.878L411.465,166.465L412.188,166.304L412.91,165.686L413.633,165.228L414.355,164.62L415.078,164.081L415.801,163.558L416.523,163.298L417.246,162.844L417.969,162.258L418.691,161.83L419.414,161.286L420.137,160.661L420.859,160.086L421.582,159.463L422.305,159.114L423.027,158.667L423.75,158.182L424.473,157.483L425.195,157.145L425.918,156.654L426.641,156.112L427.363,155.406L428.086,154.862L428.809,154.64L429.531,153.904L430.254,153.415L430.977,152.898L431.699,152.487L432.422,151.947L433.145,151.438L433.867,150.718L434.59,150.155L435.313,149.609L436.035,149.29L436.758,148.701L437.48,148.005L438.203,147.253L438.926,146.837L439.648,146.303L440.371,145.716L441.094,145.376L441.816,144.58L442.539,144.103L443.262,143.709L443.984,143.043L444.707,142.378L445.43,141.759L446.152,141.535L446.875,140.841L447.598,140.311L448.32,139.829L449.043,139.051L449.766,138.47L450.488,137.906L451.211,137.459L451.934,136.932L452.656,136.385L453.379,136.065L454.102,135.239L454.824,134.838L455.547,134.199L456.27,133.667L456.992,133.205L457.715,132.566L458.438,132.068L459.16,131.364L459.883,130.915L460.605,130.359L461.328,129.772L462.051,129.29L462.773,128.835L463.496,128.416L464.219,127.667L464.941,127.103L465.664,126.45L466.387,126.024L467.109,125.458L467.832,124.885L468.555,124.465L469.277,123.86"/><path fill="none" stroke="rgb(149, 251, 81)" stroke-width="1.5" d="M100,54.768L100.723,53.738L101.445,52.782L102.168,51.776L102.891,50.909L103.613,50.142L104.336,49.343L105.059,48.584L105.781,47.853L106.504,47.12L107.227,46.488L107.949,45.794L108.672,45.107L109.395,44.423L110.117,43.826L110.84,43.203L111.563,42.631L112.285,42.038L113.008,41.361L113.73,40.739L114.453,40.106L115.176,39.501L115.898,38.828L116.621,38.211L117.344,37.487L118.066,36.833L118.789,36.049L119.512,35.324L120.234,34.422L120.957,33.517L121.68,32.598L122.402,32.41L123.125,33.307L123.848,34.212L124.57,34.98L125.293,35.823L126.016,36.473L126.738,37.145L127.461,37.805L128.184,38.501L128.906,39L129.629,39.577L130.352,40.082L131.074,40.632L131.797,41.134L132.52,41.641L133.242,42.083L133.965,42.553L134.688,43.055L135.41,43.442L136.133,43.878L136.855,44.289L137.578,44.726L138.301,45.122L139.023,45.457L139.746,45.901L140.469,46.218L141.191,46.619L141.914,46.948L142.637,47.393L143.359,47.714L144.082,48.099L144.805,48.419L145.527,48.744L146.25,49.127L146.973,49.399L147.695,49.815L148.418,50.143L149.141,50.52L149.863,50.794L150.586,51.13L151.309,51.511L152.031,51.778L152.754,52.065L153.477,52.447L154.199,52.782L154.922,53.15L155.645,53.404L156.367,53.753L157.09,54.037L157.813,54.372L158.535,54.747L159.258,55.045L159.98,55.301L160.703,55.666L161.426,56.021L162.148,56.282L162.871,56.665L163.594,57.015L164.316,57.296L165.039,57.638L165.762,57.963L166.484,58.254L167.207,58.64L167.93,58.974L168.652,59.284L169.375,59.663L170.098,59.957L170.82,60.309L171.543,60.584L172.266,61.027L172.988,61.283L173.711,61.648L174.434,61.999L175.156,62.296L175.879,62.679L176.602,62.937L177.324,63.288L178.047,63.731L178.77,64.114L179.492,64.398L180.215,64.807L180.938,65.153L181.66,65.449L182.383,65.85L183.105,66.126L183.828,66.499L184.551,66.955L185.273,67.263L185.996,67.722L186.719,67.989L187.441,68.303L188.164,68.736L188.887,69.178L189.609,69.555L190.332,69.813L191.055,70.231L191.777,70.719L192.5,70.982L193.223,71.441L193.945,71.784L194.668,72.195L195.391,72.604L196.113,73.106L196.836,73.446L197.559,73.728L198.281,74.182L199.004,74.604L199.727,74.992L200.449,75.436L201.172,75.773L201.895,76.209L202.617,76.681L203.34,77.058L204.063,77.342L204.785,77.831L205.508,78.35L206.23,78.687L206.953,79.184L207.676,79.587L208.398,80.023L209.121,80.42L209.844,80.901L210.566,81.353L211.289,81.809L212.012,82.264L212.734,82.661L213.457,83.162L214.18,83.567L214.902,84.052L215.625,84.472L216.348,84.845L217.07,85.395L217.793,85.832L218.516,86.234L219.238,86.805L219.961,87.275L220.684,87.733L221.406,88.179L222.129,88.651L222.852,89.168L223.574,89.615L224.297,90.057L225.02,90.673L225.742,91.035L226.465,91.597L227.188,92.095L227.91,92.544L228.633,92.968L229.355,93.489L230.078,94.085L230.801,94.446L231.523,95.062L232.246,95.524L232.969,96.055L233.691,96.564L234.414,96.973L235.137,97.586L235.859,98.176L236.582,98.653L237.305,99.153L238.027,99.645L238.75,100.105L239.473,100.748L240.195,101.202L240.918,101.777L241.641,102.298L242.363,102.685L243.086,103.424L243.809,103.797L244.531,104.314L245.254,104.981L245.977,105.274L246.699,105.918L247.422,106.498L248.145,106.981L248.867,107.51L249.59,108.048L250.313,108.487L251.035,109.076L251.758,109.661L252.48,110.142L253.203,110.67L253.926,111.151L254.648,111.809L255.371,112.251L256.094,112.636L256.816,113.218L257.539,113.788L258.262,114.298L258.984,114.865L259.707,115.46L260.43,115.965L261.152,116.45L261.875,116.913L262.598,117.434L263.32,117.901L264.043,118.432L264.766,118.817L265.488,119.404L266.211,119.829L266.934,120.468L267.656,120.947L268.379,121.544L269.102,121.945L269.824,122.448L270.547,122.855L271.27,123.539L271.992,123.86L272.715,124.328L273.438,124.968L274.16,125.188L274.883,125.654L275.605,126.188L276.328,126.649L277.051,127.179L277.773,127.547L278.496,128.055L279.219,128.708L279.941,128.926L280.664,129.415L281.387,129.783L282.109,130.089L282.832,130.84L283.555,131.094L284.277,131.601L285,131.894L285.723,132.277L286.445,132.818L287.168,133.182L287.891,133.621L288.613,134.086L289.336,134.553L290.059,134.832L290.781,135.268L291.504,135.567L292.227,135.968L292.949,136.438L293.672,136.608L294.395,137.062L295.117,137.32L295.84,137.732L296.563,138.056L297.285,138.461L298.008,138.797L298.73,139.276L299.453,139.307L300.176,139.815L300.898,140.101L301.621,140.359L302.344,140.503L303.066,141.079L303.789,141.504L304.512,141.61L305.234,141.768L305.957,142.043L306.68,142.325L307.402,142.516L308.125,142.802L308.848,142.992L309.57,143.341L310.293,143.522L311.016,143.796L311.738,144.109L312.461,144.283L313.184,144.392L313.906,144.666L314.629,144.873L315.352,145.04L316.074,145.129L316.797,145.446L317.52,145.718L318.242,145.754L318.965,146.077L319.688,146.046L320.41,146.197L321.133,146.518L321.855,146.497L322.578,146.703L323.301,146.665L324.023,146.858L324.746,146.949L325.469,147.103L326.191,147.187L326.914,147.195L327.637,147.328L328.359,147.513L329.082,147.525L329.805,147.436L330.527,147.652L331.25,147.625L331.973,147.772L332.695,147.708L333.418,147.722L334.141,147.812L334.863,147.696L335.586,147.721L336.309,147.849L337.031,147.639L337.754,147.861L338.477,147.595L339.199,147.637L339.922,147.73L340.645,147.686L341.367,147.664L342.09,147.411L342.813,147.658L343.535,147.358L344.258,147.456L344.98,147.235L345.703,147.029L346.426,147.054L347.148,147.108L347.871,146.839L348.594,146.703L349.316,146.618L350.039,146.562L350.762,146.387L351.484,146.227L352.207,146.208L352.93,146.078L353.652,145.832L354.375,145.656L355.098,145.705L355.82,145.407L356.543,145.119L357.266,145.027L357.988,144.831L358.711,144.604L359.434,144.498L360.156,144.233L360.879,144.059L361.602,143.97L362.324,143.549L363.047,143.59L363.77,143.201L364.492,143.001L365.215,142.833L365.938,142.599L366.66,142.354L367.383,142.166L368.105,141.874L368.828,141.441L369.551,141.38L370.273,141.02L370.996,140.807L371.719,140.438L372.441,140.241L373.164,139.814L373.887,139.558L374.609,139.366L375.332,139.055L376.055,138.795L376.777,138.474L377.5,138.115L378.223,137.781L378.945,137.647L379.668,137.155L380.391,136.943L381.113,136.452L381.836,136.058L382.559,135.77L383.281,135.539L384.004,135.302L384.727,134.769L385.449,134.57L386.172,134.199L386.895,133.789L387.617,133.455L388.34,133.052L389.063,132.683L389.785,132.483L390.508,131.892L391.23,131.587L391.953,131.083L392.676,130.926L393.398,130.539L394.121,130.06L394.844,129.899L395.566,129.444L396.289,128.963L397.012,128.644L397.734,128.255L398.457,127.866L399.18,127.405L399.902,127.052L400.625,126.648L401.348,126.307L402.07,125.81L402.793,125.377L403.516,125.003L404.238,124.734L404.961,124.095L405.684,123.828L406.406,123.407L407.129,123.067L407.852,122.527L408.574,122.194L409.297,121.688L410.02,121.393L410.742,120.864L411.465,120.495L412.188,120.149L412.91,119.62L413.633,119.415L414.355,118.781L415.078,118.47L415.801,117.954L416.523,117.531L417.246,117.146L417.969,116.651L418.691,116.274L419.414,115.918L420.137,115.458L420.859,115.022L421.582,114.491L422.305,114.14L423.027,113.708L423.75,113.259L424.473,112.732L425.195,112.353L425.918,111.986L426.641,111.608L427.363,111.175L428.086,110.627L428.809,110.187L429.531,109.856L430.254,109.383L430.977,108.978L431.699,108.583L432.422,108.063L433.145,107.691L433.867,107.117L434.59,106.932L435.313,106.348L436.035,105.836L436.758,105.631L437.48,104.965L438.203,104.713L438.926,104.244L439.648,103.86L440.371,103.358L441.094,102.913L441.816,102.353L442.539,102.055L443.262,101.748L443.984,101.271L444.707,100.798L445.43,100.451L446.152,99.93L446.875,99.529L447.598,98.833L448.32,98.606L449.043,98.23L449.766,97.814L450.488,97.528L451.211,97.029L451.934,96.626L452.656,96.282L453.379,95.615L454.102,95.25L454.824,94.909L455.547,94.567L456.27,93.875L456.992,93.694L457.715,93.011L458.438,92.921L459.16,92.397L459.883,92.029L460.605,91.637L461.328,91.224L462.051,90.611L462.773,90.286L463.496,89.877L464.219,89.499L464.941,89.252L465.664,88.617L466.387,88.426L467.109,87.964L467.832,87.638L468.555,87.105L469.277,86.706"/><path fill="none" stroke="rgb(236, 209, 46)" stroke-width="1.5" d="M100,53.855L100.723,52.913L101.445,51.928L102.168,50.999L102.891,50.163L103.613,49.295L104.336,48.47L105.059,47.691L105.781,46.928L106.504,46.207L107.227,45.439L107.949,44.791L108.672,44.031L109.395,43.356L110.117,42.699L110.84,42.04L111.563,41.323L112.285,40.651L113.008,39.918L113.73,39.277L114.453,38.57L115.176,37.8L115.898,37.061L116.621,36.325L117.344,35.589L118.066,34.775L118.789,33.869L119.512,32.944L120.234,32.044L120.957,30.91L121.68,30.325L122.402,31.164L123.125,31.994L123.848,32.723L124.57,33.395L125.293,33.992L126.016,34.563L126.738,35.144L127.461,35.708L128.184,36.161L128.906,36.676L129.629,37.137L130.352,37.546L131.074,37.934L131.797,38.311L132.52,38.682L133.242,39.04L133.965,39.389L134.688,39.731L135.41,40.02L136.133,40.387L136.855,40.738L137.578,41.029L138.301,41.319L139.023,41.584L139.746,41.78L140.469,42.079L141.191,42.412L141.914,42.605L142.637,42.907L143.359,43.104L144.082,43.421L144.805,43.595L145.527,43.829L146.25,44.003L146.973,44.377L147.695,44.549L148.418,44.824L149.141,45.031L149.863,45.282L150.586,45.499L151.309,45.715L152.031,45.931L152.754,46.196L153.477,46.422L154.199,46.661L154.922,46.82L155.645,46.976L156.367,47.376L157.09,47.504L157.813,47.738L158.535,48.013L159.258,48.217L159.98,48.382L160.703,48.629L161.426,48.855L162.148,49.08L162.871,49.284L163.594,49.554L164.316,49.728L165.039,50.058L165.762,50.233L166.484,50.481L167.207,50.765L167.93,50.937L168.652,51.102L169.375,51.425L170.098,51.659L170.82,51.895L171.543,52.202L172.266,52.366L172.988,52.707L173.711,52.976L174.434,53.12L175.156,53.455L175.879,53.703L176.602,53.958L177.324,54.245L178.047,54.514L178.77,54.888L179.492,55.107L180.215,55.38L180.938,55.699L181.66,55.958L182.383,56.225L183.105,56.446L183.828,56.782L184.551,57.08L185.273,57.436L185.996,57.693L186.719,57.972L187.441,58.336L188.164,58.554L188.887,58.953L189.609,59.224L190.332,59.522L191.055,59.907L191.777,60.211L192.5,60.616L193.223,60.834L193.945,61.207L194.668,61.56L195.391,61.849L196.113,62.225L196.836,62.527L197.559,62.927L198.281,63.285L199.004,63.558L199.727,64.011L200.449,64.396L201.172,64.717L201.895,65.099L202.617,65.508L203.34,65.788L204.063,66.033L204.785,66.472L205.508,66.878L206.23,67.332L206.953,67.641L207.676,68.081L208.398,68.454L209.121,68.805L209.844,69.185L210.566,69.582L211.289,70.046L212.012,70.377L212.734,70.782L213.457,71.146L214.18,71.599L214.902,71.947L215.625,72.369L216.348,72.803L217.07,73.384L217.793,73.614L218.516,74.075L219.238,74.513L219.961,74.826L220.684,75.283L221.406,75.825L222.129,76.231L222.852,76.583L223.574,77.048L224.297,77.514L225.02,77.95L225.742,78.388L226.465,78.82L227.188,79.322L227.91,79.755L228.633,80.061L229.355,80.532L230.078,81.047L230.801,81.394L231.523,81.903L232.246,82.32L232.969,82.855L233.691,83.207L234.414,83.65L235.137,84.157L235.859,84.666L236.582,85.005L237.305,85.453L238.027,85.93L238.75,86.366L239.473,86.918L240.195,87.292L240.918,87.79L241.641,88.068L242.363,88.584L243.086,89.033L243.809,89.528L244.531,89.9L245.254,90.371L245.977,90.749L246.699,91.125L247.422,91.669L248.145,92.103L248.867,92.487L249.59,92.827L250.313,93.244L251.035,93.686L251.758,93.938L252.48,94.505L253.203,94.895L253.926,95.264L254.648,95.661L255.371,95.904L256.094,96.346L256.816,96.807L257.539,97.052L258.262,97.406L258.984,97.805L259.707,98.121L260.43,98.489L261.152,98.833L261.875,99.179L262.598,99.512L263.32,99.852L264.043,100.208L264.766,100.471L265.488,100.869L266.211,101.089L266.934,101.479L267.656,101.701L268.379,102.063L269.102,102.363L269.824,102.565L270.547,102.849L271.27,103.163L271.992,103.445L272.715,103.672L273.438,103.891L274.16,104.193L274.883,104.395L275.605,104.641L276.328,104.827L277.051,105.19L277.773,105.408L278.496,105.547L279.219,105.812L279.941,105.895L280.664,106.27L281.387,106.351L282.109,106.606L282.832,106.816L283.555,107.042L284.277,107.063L285,107.306L285.723,107.457L286.445,107.66L287.168,107.808L287.891,107.975L288.613,108.102L289.336,108.179L290.059,108.371L290.781,108.612L291.504,108.623L292.227,108.697L292.949,108.812L293.672,109.055L294.395,109.07L295.117,109.195L295.84,109.237L296.563,109.335L297.285,109.342L298.008,109.458L298.73,109.431L299.453,109.524L300.176,109.592L300.898,109.701L301.621,109.691L302.344,109.782L303.066,109.73L303.789,109.765L304.512,109.766L305.234,109.834L305.957,109.876L306.68,109.814L307.402,109.86L308.125,109.838L308.848,109.82L309.57,109.743L310.293,109.716L311.016,109.613L311.738,109.73L312.461,109.69L313.184,109.56L313.906,109.527L314.629,109.418L315.352,109.463L316.074,109.456L316.797,109.465L317.52,109.139L318.242,109.131L318.965,109.091L319.688,108.946L320.41,109.004L321.133,108.855L321.855,108.655L322.578,108.637L323.301,108.452L324.023,108.302L324.746,108.365L325.469,108.025L326.191,107.938L326.914,107.946L327.637,107.622L328.359,107.628L329.082,107.33L329.805,107.192L330.527,107.09L331.25,106.874L331.973,106.689L332.695,106.533L333.418,106.471L334.141,106.285L334.863,106.157L335.586,106.031L336.309,105.758L337.031,105.639L337.754,105.342L338.477,105.05L339.199,104.895L339.922,104.744L340.645,104.511L341.367,104.465L342.09,104.21L342.813,103.967L343.535,103.742L344.258,103.48L344.98,103.197L345.703,102.921L346.426,102.767L347.148,102.449L347.871,102.165L348.594,102.124L349.316,101.858L350.039,101.497L350.762,101.364L351.484,101.037L352.207,100.784L352.93,100.582L353.652,100.276L354.375,100.168L355.098,99.774L355.82,99.666L356.543,99.363L357.266,98.86L357.988,98.616L358.711,98.38L359.434,98.189L360.156,97.978L360.879,97.759L361.602,97.267L362.324,97.008L363.047,96.696L363.77,96.502L364.492,96.23L365.215,95.986L365.938,95.612L366.66,95.414L367.383,95.073L368.105,94.845L368.828,94.473L369.551,94.194L370.273,93.888L370.996,93.586L371.719,93.127L372.441,92.864L373.164,92.606L373.887,92.275L374.609,91.97L375.332,91.757L376.055,91.336L376.777,91.074L377.5,90.717L378.223,90.44L378.945,90.084L379.668,89.766L380.391,89.448L381.113,89.175L381.836,88.787L382.559,88.608L383.281,88.328L384.004,87.827L384.727,87.752L385.449,87.334L386.172,86.986L386.895,86.56L387.617,86.331L388.34,86.029L389.063,85.577L389.785,85.471L390.508,85.121L391.23,84.747L391.953,84.445L392.676,84.005L393.398,83.892L394.121,83.512L394.844,83.102L395.566,82.904L396.289,82.482L397.012,82.092L397.734,81.866L398.457,81.435L399.18,81.095L399.902,80.93L400.625,80.439L401.348,80.225L402.07,79.929L402.793,79.638L403.516,79.315L404.238,78.923L404.961,78.707L405.684,78.31L406.406,77.988L407.129,77.537L407.852,77.222L408.574,76.907L409.297,76.587L410.02,76.268L410.742,75.95L411.465,75.606L412.188,75.469L412.91,75.038L413.633,74.801L414.355,74.448L415.078,74.121L415.801,73.835L416.523,73.41L417.246,73.25L417.969,72.977L418.691,72.509L419.414,72.15L420.137,71.907L420.859,71.629L421.582,71.258L422.305,71.046L423.027,70.663L423.75,70.289L424.473,70.117L425.195,69.788L425.918,69.509L426.641,69.116L427.363,68.863L428.086,68.582L428.809,68.259L429.531,67.978L430.254,67.689L430.977,67.393L431.699,66.952L432.422,66.785L433.145,66.559L433.867,66.214L434.59,65.902L435.313,65.522L436.035,65.192L436.758,65.045L437.48,64.659L438.203,64.372L438.926,64.2L439.648,63.817L440.371,63.443L441.094,63.324L441.816,62.972L442.539,62.745L443.262,62.369L443.984,62.019L444.707,61.794L445.43,61.505L446.152,61.185L446.875,61.016L447.598,60.78L448.32,60.324L449.043,60.087L449.766,59.939L450.488,59.506L451.211,59.364L451.934,58.939L452.656,58.837L453.379,58.496L454.102,58.301L454.824,59.097L455.547,59.752L456.27,60.521L456.992,61.141L457.715,61.654L458.438,62.572L459.16,63.342L459.883,63.894L460.605,64.823L461.328,65.286L462.051,66.29L462.773,66.694L463.496,67.683L464.219,68.413L464.941,69.186L465.664,69.765L466.387,70.061L467.109,69.979L467.832,69.926L468.555,69.703L469.277,69.666"/><path fill="none" stroke="rgb(255, 130, 29)" stroke-width="1.5" d="M100,52.219L100.723,51.309L101.445,50.323L102.168,49.493L102.891,48.676L103.613,47.812L104.336,47.037L105.059,46.257L105.781,45.485L106.504,44.747L107.227,44.051L107.949,43.34L108.672,42.583L109.395,41.921L110.117,41.208L110.84,40.481L111.563,39.735L112.285,39.056L113.008,38.34L113.73,37.565L114.453,36.823L115.176,36.063L115.898,35.212L116.621,34.428L117.344,33.525L118.066,32.625L118.789,31.615L119.512,30.518L120.234,29.249L120.957,29.75L121.68,30.453L122.402,31.106L123.125,31.693L123.848,32.318L124.57,32.799L125.293,33.251L126.016,33.779L126.738,34.091L127.461,34.509L128.184,34.865L128.906,35.235L129.629,35.57L130.352,35.944L131.074,36.174L131.797,36.524L132.52,36.696L133.242,36.966L133.965,37.198L134.688,37.429L135.41,37.598L136.133,37.88L136.855,38.067L137.578,38.226L138.301,38.457L139.023,38.613L139.746,38.732L140.469,38.888L141.191,39.147L141.914,39.253L142.637,39.363L143.359,39.496L144.082,39.605L144.805,39.672L145.527,39.823L146.25,39.883L146.973,40.092L147.695,40.114L148.418,40.263L149.141,40.286L149.863,40.393L150.586,40.54L151.309,40.586L152.031,40.662L152.754,40.704L153.477,40.838L154.199,40.857L154.922,40.973L155.645,40.995L156.367,41.123L157.09,41.173L157.813,41.231L158.535,41.279L159.258,41.374L159.98,41.357L160.703,41.44L161.426,41.525L162.148,41.547L162.871,41.547L163.594,41.67L164.316,41.603L165.039,41.779L165.762,41.816L166.484,41.896L167.207,41.904L167.93,41.985L168.652,41.97L169.375,42.042L170.098,42.109L170.82,42.181L171.543,42.226L172.266,42.237L172.988,42.325L173.711,42.33L174.434,42.423L175.156,42.503L175.879,42.52L176.602,42.582L177.324,42.638L178.047,42.717L178.77,42.721L179.492,42.807L180.215,42.944L180.938,42.932L181.66,43.043L182.383,43.085L183.105,43.135L183.828,43.188L184.551,43.274L185.273,43.307L185.996,43.421L186.719,43.507L187.441,43.579L188.164,43.634L188.887,43.682L189.609,43.816L190.332,43.867L191.055,44.006L191.777,44.084L192.5,44.184L193.223,44.285L193.945,44.319L194.668,44.466L195.391,44.432L196.113,44.622L196.836,44.745L197.559,44.9L198.281,44.922L199.004,45.05L199.727,45.213L200.449,45.266L201.172,45.423L201.895,45.535L202.617,45.768L203.34,45.795L204.063,45.896L204.785,45.972L205.508,46.065L206.23,46.407L206.953,46.374L207.676,46.566L208.398,46.737L209.121,46.882L209.844,46.935L210.566,47.127L211.289,47.327L212.012,47.464L212.734,47.535L213.457,47.781L214.18,47.943L214.902,48.05L215.625,48.307L216.348,48.454L217.07,48.586L217.793,48.732L218.516,48.911L219.238,49.083L219.961,49.288L220.684,49.358L221.406,49.58L222.129,49.71L222.852,49.939L223.574,50.077L224.297,50.271L225.02,50.432L225.742,50.651L226.465,50.796L227.188,51.058L227.91,51.216L228.633,51.36L229.355,51.568L230.078,51.734L230.801,51.912L231.523,52.135L232.246,52.323L232.969,52.548L233.691,52.789L234.414,52.962L235.137,53.166L235.859,53.337L236.582,53.54L237.305,53.698L238.027,53.941L238.75,54.148L239.473,54.325L240.195,54.366L240.918,54.677L241.641,54.865L242.363,54.912L243.086,55.203L243.809,55.289L244.531,55.496L245.254,55.61L245.977,55.758L246.699,55.889L247.422,56.076L248.145,56.162L248.867,56.338L249.59,56.386L250.313,56.505L251.035,56.569L251.758,56.719L252.48,56.833L253.203,56.835L253.926,56.991L254.648,57.026L255.371,57.083L256.094,57.255L256.816,57.238L257.539,57.413L258.262,57.34L258.984,57.461L259.707,57.469L260.43,57.582L261.152,57.574L261.875,57.61L262.598,57.66L263.32,57.633L264.043,57.63L264.766,57.809L265.488,57.784L266.211,57.75L266.934,57.764L267.656,57.868L268.379,57.735L269.102,57.751L269.824,57.84L270.547,57.785L271.27,57.949L271.992,57.821L272.715,57.88L273.438,57.809L274.16,57.778L274.883,57.736L275.605,57.714L276.328,57.673L277.051,57.652L277.773,57.591L278.496,57.64L279.219,57.578L279.941,57.571L280.664,57.508L281.387,57.472L282.109,57.513L282.832,57.474L283.555,57.386L284.277,57.326L285,57.193L285.723,57.313L286.445,57.199L287.168,57.109L287.891,57.09L288.613,56.997L289.336,56.894L290.059,56.872L290.781,56.838L291.504,56.746L292.227,56.657L292.949,56.62L293.672,56.568L294.395,56.451L295.117,56.338L295.84,56.328L296.563,56.153L297.285,56.209L298.008,56.023L298.73,55.9L299.453,55.832L300.176,55.719L300.898,55.656L301.621,55.545L302.344,55.517L303.066,55.351L303.789,55.217L304.512,55.159L305.234,54.996L305.957,54.923L306.68,54.844L307.402,54.663L308.125,54.534L308.848,54.419L309.57,54.36L310.293,54.256L311.016,54.048L311.738,53.953L312.461,53.823L313.184,53.76L313.906,53.651L314.629,53.575L315.352,53.383L316.074,53.256L316.797,53.067L317.52,53.035L318.242,52.868L318.965,52.724L319.688,52.527L320.41,52.45L321.133,52.325L321.855,52.231L322.578,51.97L323.301,51.897L324.023,51.707L324.746,51.549L325.469,51.474L326.191,51.356L326.914,51.178L327.637,51.037L328.359,50.852L329.082,50.724L329.805,50.488L330.527,50.298L331.25,50.202L331.973,50.063L332.695,49.945L333.418,49.727L334.141,49.658L334.863,49.41L335.586,49.213L336.309,49.152L337.031,48.955L337.754,48.779L338.477,48.661L339.199,48.486L339.922,48.21L340.645,48.094L341.367,47.961L342.09,47.73L342.813,47.667L343.535,47.398L344.258,47.291L344.98,47.045L345.703,46.906L346.426,46.825L347.148,46.56L347.871,46.393L348.594,46.192L349.316,46.092L350.039,45.955L350.762,45.735L351.484,45.513L352.207,45.381L352.93,45.189L353.652,45.06L354.375,44.921L355.098,44.712L355.82,44.546L356.543,44.375L357.266,44.172L357.988,44.004L358.711,43.869L359.434,43.691L360.156,43.518L360.879,43.299L361.602,43.191L362.324,42.945L363.047,42.825L363.77,42.661L364.492,42.434L365.215,42.282L365.938,42.15L366.66,41.988L367.383,41.8L368.105,41.576L368.828,41.399L369.551,41.285L370.273,41.094L370.996,40.836L371.719,40.828L372.441,40.567L373.164,40.335L373.887,40.213L374.609,39.939L375.332,39.89L376.055,39.664L376.777,39.507L377.5,39.312L378.223,39.157L378.945,39.052L379.668,38.772L380.391,38.697L381.113,38.479L381.836,38.566L382.559,39.482L383.281,40.079L384.004,40.975L384.727,41.859L385.449,42.644L386.172,43.193L386.895,44.145L387.617,45.02L388.34,45.747L389.063,46.512L389.785,47.425L390.508,48.076L391.23,48.796L391.953,50.045L392.676,50.557L393.398,51.35L394.121,51.778L394.844,51.876L395.566,51.802L396.289,51.803L397.012,51.756L397.734,51.793L398.457,51.731L399.18,51.624L399.902,51.62L400.625,51.655L401.348,51.565L402.07,51.574L402.793,51.506L403.516,51.537L404.238,51.549L404.961,51.499L405.684,51.391L406.406,51.512L407.129,51.38L407.852,51.341L408.574,51.284L409.297,51.267L410.02,51.242L410.742,51.174L411.465,51.203L412.188,51.195L412.91,51.088L413.633,51.005L414.355,51.015L415.078,51.052L415.801,50.957L416.523,50.869L417.246,50.822L417.969,50.776L418.691,50.656L419.414,50.641L420.137,50.657L420.859,50.63L421.582,50.64L422.305,50.485L423.027,50.489L423.75,50.376L424.473,50.388L425.195,50.297L425.918,50.255L426.641,50.176L427.363,50.088L428.086,49.988L428.809,50.01L429.531,49.924L430.254,49.859L430.977,49.838L431.699,49.831L432.422,49.628L433.145,49.557L433.867,49.663L434.59,49.554L435.313,49.47L436.035,49.44L436.758,49.395L437.48,49.279L438.203,49.196L438.926,49.175L439.648,49.121L440.371,49.038L441.094,49.021L441.816,48.943L442.539,48.863L443.262,48.775L443.984,48.682L444.707,48.686L445.43,48.638L446.152,48.539L446.875,48.488L447.598,48.441L448.32,48.265L449.043,48.283L449.766,48.2L450.488,48.12L451.211,48.036L451.934,48.04L452.656,47.955L453.379,47.861L454.102,47.875L454.824,47.792L455.547,47.681L456.27,47.639L456.992,47.563L457.715,47.434L458.438,47.405L459.16,47.253L459.883,47.198L460.605,47.165L461.328,47.059L462.051,47.019L462.773,46.946L463.496,46.907L464.219,46.807L464.941,46.784L465.664,46.652L466.387,46.519L467.109,46.46L467.832,46.464L468.555,46.304L469.277,46.225"/><path fill="none" stroke="rgb(203, 47, 13)" stroke-width="1.5" d="M100,51.086L100.723,50.142L101.445,49.255L102.168,48.51L102.891,47.67L103.613,46.854L104.336,46.067L105.059,45.319L105.781,44.607L106.504,43.842L107.227,43.124L107.949,42.389L108.672,41.701L109.395,41.06L110.117,40.401L110.84,39.572L111.563,38.896L112.285,38.229L113.008,37.377L113.73,36.712L114.453,35.939L115.176,35.089L115.898,34.275L116.621,33.345L117.344,32.422L118.066,31.433L118.789,30.362L119.512,29.075L120.234,29.485L120.957,30.168L121.68,30.822L122.402,31.388L123.125,31.924L123.848,32.478L124.57,32.843L125.293,33.248L126.016,33.661L126.738,34.049L127.461,34.4L128.184,34.688L128.906,35.086L129.629,35.312L130.352,35.647L131.074,35.868L131.797,36.069L132.52,36.292L133.242,36.466L133.965,36.665L134.688,36.842L135.41,37.058L136.133,37.187L136.855,37.345L137.578,37.528L138.301,37.625L139.023,37.737L139.746,37.847L140.469,37.962L141.191,38.063L141.914,38.135L142.637,38.241L143.359,38.324L144.082,38.473L144.805,38.456L145.527,38.512L146.25,38.547L146.973,38.659L147.695,38.707L148.418,38.713L149.141,38.773L149.863,38.771L150.586,38.926L151.309,38.811L152.031,38.845L152.754,38.89L153.477,38.943L154.199,38.83L154.922,38.987L155.645,38.886L156.367,38.9L157.09,38.959L157.813,38.86L158.535,38.796L159.258,38.794L159.98,38.802L160.703,38.711L161.426,38.688L162.148,38.597L162.871,38.58L163.594,38.632L164.316,38.584L165.039,38.441L165.762,38.42L166.484,38.423L167.207,38.371L167.93,38.274L168.652,38.173L169.375,38.111L170.098,38.081L170.82,37.978L171.543,37.889L172.266,37.766L172.988,37.713L173.711,37.648L174.434,37.579L175.156,37.35L175.879,37.289L176.602,37.19L177.324,37.072L178.047,37.006L178.77,36.946L179.492,36.855L180.215,36.811L180.938,36.568L181.66,36.447L182.383,36.231L183.105,36.236L183.828,36.124L184.551,35.96L185.273,35.9L185.996,35.725L186.719,35.636L187.441,35.471L188.164,35.361L188.887,35.258L189.609,35.054L190.332,34.977L191.055,34.851L191.777,34.657L192.5,34.541L193.223,34.328L193.945,34.21L194.668,34.051L195.391,33.965L196.113,33.802L196.836,33.624L197.559,33.487L198.281,33.303L199.004,33.226L199.727,33.024L200.449,32.903L201.172,32.747L201.895,32.525L202.617,32.395L203.34,32.224L204.063,32.145L204.785,31.83L205.508,31.776L206.23,31.615L206.953,31.428L207.676,31.21L208.398,31.1L209.121,30.928L209.844,30.819L210.566,30.582L211.289,30.453L212.012,30.363L212.734,30.126L213.457,30L214.18,29.807L214.902,29.721L215.625,29.537L216.348,29.398L217.07,29.21L217.793,29.023L218.516,28.944L219.238,28.69L219.961,28.604L220.684,28.425L221.406,28.185L222.129,28.099L222.852,27.936L223.574,27.729L224.297,27.602L225.02,27.414L225.742,27.391L226.465,27.096L227.188,26.964L227.91,26.821L228.633,26.655L229.355,26.51L230.078,26.362L230.801,26.142L231.523,26.074L232.246,25.876L232.969,25.737L233.691,25.583L234.414,25.407L235.137,25.283L235.859,25.166L236.582,24.943L237.305,24.865L238.027,24.69L238.75,24.556L239.473,24.373L240.195,24.278L240.918,24.104L241.641,23.92L242.363,23.84L243.086,23.614L243.809,23.447L244.531,23.343L245.254,23.163L245.977,22.98L246.699,22.779L247.422,22.597L248.145,22.425L248.867,22.285L249.59,22.11L250.313,21.953L251.035,21.826L251.758,21.602L252.48,21.466L253.203,21.28L253.926,21.044L254.648,20.885L255.371,20.698L256.094,20.56L256.816,20.385L257.539,20.161L258.262,20L258.984,22.744L259.707,25.128L260.43,28.124L261.152,30.875L261.875,33.859L262.598,35.391L263.32,35.659L264.043,35.986L264.766,36.223L265.488,36.548L266.211,36.819L266.934,37.074L267.656,37.322L268.379,37.605L269.102,37.836L269.824,38.103L270.547,38.271L271.27,38.505L271.992,38.715L272.715,38.957L273.438,39.126L274.16,39.38L274.883,39.518L275.605,39.741L276.328,39.831L277.051,40.044L277.773,40.27L278.496,40.489L279.219,40.53L279.941,40.665L280.664,40.863L281.387,40.982L282.109,41.114L282.832,41.289L283.555,41.371L284.277,41.5L285,41.656L285.723,41.746L286.445,41.889L287.168,41.961L287.891,42.057L288.613,42.153L289.336,42.259L290.059,42.358L290.781,42.365L291.504,42.424L292.227,42.569L292.949,42.651L293.672,42.635L294.395,42.775L295.117,42.819L295.84,42.837L296.563,42.887L297.285,42.933L298.008,43.04L298.73,43.012L299.453,43.131L300.176,43.144L300.898,43.116L301.621,43.211L302.344,43.209L303.066,43.179L303.789,43.16L304.512,43.262L305.234,43.287L305.957,43.267L306.68,43.246L307.402,43.268L308.125,43.313L308.848,43.325L309.57,43.316L310.293,43.251L311.016,43.24L311.738,43.271L312.461,43.231L313.184,43.209L313.906,43.229L314.629,43.213L315.352,43.067L316.074,43.184L316.797,43.126L317.52,43.105L318.242,43.073L318.965,42.926L319.688,43.035L320.41,42.924L321.133,42.964L321.855,42.873L322.578,42.814L323.301,42.826L324.023,42.805L324.746,42.714L325.469,42.717L326.191,42.526L326.914,42.525L327.637,42.468L328.359,42.427L329.082,42.477L329.805,42.347L330.527,42.322L331.25,42.328L331.973,42.193L332.695,42.121L333.418,42.044L334.141,41.945L334.863,41.89L335.586,41.907L336.309,41.878L337.031,41.752L337.754,41.711L338.477,41.607L339.199,41.522L339.922,41.435L340.645,41.409L341.367,41.3L342.09,41.271L342.813,41.083L343.535,41.046L344.258,40.92L344.98,40.926L345.703,40.911L346.426,40.735L347.148,40.718L347.871,40.601L348.594,40.546L349.316,40.492L350.039,40.449L350.762,40.316L351.484,40.25L352.207,40.176L352.93,40.032L353.652,40.009L354.375,39.889L355.098,39.787L355.82,39.825L356.543,39.618L357.266,39.611L357.988,39.475L358.711,39.325L359.434,39.296L360.156,39.245L360.879,39.144L361.602,39.046L362.324,38.933L363.047,38.857L363.77,38.804L364.492,38.682L365.215,38.605L365.938,38.578L366.66,38.487L367.383,38.406L368.105,38.286L368.828,38.206L369.551,38.037L370.273,37.983L370.996,37.935L371.719,37.762L372.441,37.77L373.164,37.717L373.887,37.552L374.609,37.445L375.332,37.377L376.055,37.315L376.777,37.229L377.5,37.107L378.223,36.99L378.945,36.916L379.668,36.89L380.391,36.795L381.113,36.67L381.836,36.611L382.559,36.46L383.281,36.392L384.004,36.291L384.727,36.262L385.449,36.108L386.172,36.024L386.895,36.008L387.617,35.971L388.34,35.83L389.063,35.763L389.785,35.623L390.508,35.564L391.23,35.449L391.953,35.357L392.676,35.256L393.398,35.241L394.121,35.204L394.844,35.068L395.566,34.932L396.289,34.826L397.012,34.81L397.734,34.717L398.457,34.647L399.18,34.481L399.902,34.44L400.625,34.376L401.348,34.246L402.07,34.192L402.793,34.145L403.516,34.123L404.238,33.924L404.961,33.947L405.684,33.862L406.406,33.669L407.129,33.638L407.852,33.6L408.574,33.425L409.297,33.482L410.02,33.398L410.742,33.198L411.465,33.121L412.188,33.042L412.91,33.064L413.633,32.954L414.355,32.956L415.078,32.721L415.801,32.692L416.523,32.659L417.246,32.573L417.969,32.549L418.691,32.459L419.414,32.332L420.137,32.322L420.859,32.185L421.582,32.118L422.305,32.038L423.027,32.002L423.75,31.877L424.473,31.873L425.195,31.74L425.918,31.749L426.641,31.582L427.363,31.563L428.086,31.539L428.809,31.457L429.531,31.328L430.254,31.298L430.977,31.228L431.699,31.113L432.422,31.065L433.145,31.017L433.867,30.951L434.59,30.904L435.313,30.865L436.035,30.777L436.758,30.629L437.48,30.621L438.203,30.521L438.926,30.419L439.648,30.429L440.371,30.383L441.094,30.28L441.816,30.223L442.539,30.161L443.262,30.128L443.984,30.008L444.707,30.06L445.43,29.958L446.152,29.871L446.875,29.783L447.598,29.707L448.32,29.665L449.043,29.555L449.766,29.606L450.488,29.474L451.211,29.412L451.934,29.33L452.656,29.386L453.379,29.199L454.102,29.27L454.824,29.086L455.547,29.099L456.27,29.077L456.992,29.033L457.715,28.892L458.438,28.891L459.16,28.831L459.883,28.807L460.605,28.72L461.328,28.703L462.051,28.62L462.773,28.556L463.496,28.533L464.219,28.505L464.941,28.407L465.664,28.357L466.387,28.295L467.109,28.209L467.832,28.097L468.555,28.124L469.277,28.065"/><g transform="translate(0,190) scale(1.7) rotate(-90)"><text>Drift</text></g><g transform="translate(315,395) scale(1.8)"><text></text></g><g transform="translate(0,350)" fill="none" font-size="10" font-family="sans-serif" text-anchor="middle"><path class="domain" stroke="currentColor" d="M100,6V0H470V6"/><g class="tick" opacity="1" transform="translate(136.66666666666666,0)"><line stroke="currentColor" y2="6"/><text fill="currentColor" y="9" dy="0.71em" font-size="20px"> </text></g><g class="tick" opacity="1" transform="translate(173.7037037037037,0)"><line stroke="currentColor" y2="6"/><text fill="currentColor" y="9" dy="0.71em" font-size="20px">200</text></g><g class="tick" opacity="1" transform="translate(210.74074074074076,0)"><line stroke="currentColor" y2="6"/><text fill="currentColor" y="9" dy="0.71em" font-size="20px"> </text></g><g class="tick" opacity="1" transform="translate(247.77777777777777,0)"><line stroke="currentColor" y2="6"/><text fill="currentColor" y="9" dy="0.71em" font-size="20px">400</text></g><g class="tick" opacity="1" transform="translate(284.81481481481484,0)"><line stroke="currentColor" y2="6"/><text fill="currentColor" y="9" dy="0.71em" font-size="20px"> </text></g><g class="tick" opacity="1" transform="translate(321.85185185185185,0)"><line stroke="currentColor" y2="6"/><text fill="currentColor" y="9" dy="0.71em" font-size="20px">600</text></g><g class="tick" opacity="1" transform="translate(358.8888888888889,0)"><line stroke="currentColor" y2="6"/><text fill="currentColor" y="9" dy="0.71em" font-size="20px"> </text></g><g class="tick" opacity="1" transform="translate(395.9259259259259,0)"><line stroke="currentColor" y2="6"/><text fill="currentColor" y="9" dy="0.71em" font-size="20px">800</text></g><g class="tick" opacity="1" transform="translate(432.96296296296293,0)"><line stroke="currentColor" y2="6"/><text fill="currentColor" y="9" dy="0.71em" font-size="20px"> </text></g><g class="tick" opacity="1" transform="translate(470,0)"><line stroke="currentColor" y2="6"/><text fill="currentColor" y="9" dy="0.71em" font-size="20px">1000</text></g></g><g transform="translate(100,0)" fill="none" font-size="10" font-family="sans-serif" text-anchor="end"><path class="domain" stroke="currentColor" d="M-6,350H0V20H-6"/><g class="tick" opacity="1" transform="translate(0,329.13219194248825)"><line stroke="currentColor" x2="-6"/><text fill="currentColor" x="-9" dy="0.32em" font-size="20px">0.65</text></g><g class="tick" opacity="1" transform="translate(0,304.7774045519495)"><line stroke="currentColor" x2="-6"/><text fill="currentColor" x="-9" dy="0.32em" font-size="20px">0.60</text></g><g class="tick" opacity="1" transform="translate(0,280.42261716141076)"><line stroke="currentColor" x2="-6"/><text fill="currentColor" x="-9" dy="0.32em" font-size="20px">0.55</text></g><g class="tick" opacity="1" transform="translate(0,256.06782977087187)"><line stroke="currentColor" x2="-6"/><text fill="currentColor" x="-9" dy="0.32em" font-size="20px">0.50</text></g><g class="tick" opacity="1" transform="translate(0,231.7130423803331)"><line stroke="currentColor" x2="-6"/><text fill="currentColor" x="-9" dy="0.32em" font-size="20px">0.45</text></g><g class="tick" opacity="1" transform="translate(0,207.35825498979432)"><line stroke="currentColor" x2="-6"/><text fill="currentColor" x="-9" dy="0.32em" font-size="20px">0.40</text></g><g class="tick" opacity="1" transform="translate(0,183.00346759925552)"><line stroke="currentColor" x2="-6"/><text fill="currentColor" x="-9" dy="0.32em" font-size="20px">0.35</text></g><g class="tick" opacity="1" transform="translate(0,158.6486802087167)"><line stroke="currentColor" x2="-6"/><text fill="currentColor" x="-9" dy="0.32em" font-size="20px">0.30</text></g><g class="tick" opacity="1" transform="translate(0,134.29389281817797)"><line stroke="currentColor" x2="-6"/><text fill="currentColor" x="-9" dy="0.32em" font-size="20px">0.25</text></g><g class="tick" opacity="1" transform="translate(0,109.93910542763916)"><line stroke="currentColor" x2="-6"/><text fill="currentColor" x="-9" dy="0.32em" font-size="20px">0.20</text></g><g class="tick" opacity="1" transform="translate(0,85.58431803710039)"><line stroke="currentColor" x2="-6"/><text fill="currentColor" x="-9" dy="0.32em" font-size="20px">0.15</text></g><g class="tick" opacity="1" transform="translate(0,61.22953064656158)"><line stroke="currentColor" x2="-6"/><text fill="currentColor" x="-9" dy="0.32em" font-size="20px">0.10</text></g><g class="tick" opacity="1" transform="translate(0,36.8747432560228)"><line stroke="currentColor" x2="-6"/><text fill="currentColor" x="-9" dy="0.32em" font-size="20px">0.05</text></g></g><circle cx="120" cy="155" r="8" style="fill: rgb(35, 23, 27);"/><circle cx="120" cy="180" r="8" style="fill: rgb(69, 105, 238);"/><circle cx="120" cy="205" r="8" style="fill: rgb(38, 188, 225);"/><circle cx="120" cy="230" r="8" style="fill: rgb(63, 243, 147);"/><circle cx="120" cy="255" r="8" style="fill: rgb(149, 251, 81);"/><circle cx="120" cy="280" r="8" style="fill: rgb(236, 209, 46);"/><circle cx="120" cy="305" r="8" style="fill: rgb(255, 130, 29);"/><circle cx="120" cy="330" r="8" style="fill: rgb(203, 47, 13);"/><text x="135" y="155" text-anchor="left" font-size="22" alignment-baseline="middle" style="fill: rgb(35, 23, 27);"> = 0</text><text x="135" y="180" text-anchor="left" font-size="22" alignment-baseline="middle" style="fill: rgb(69, 105, 238);"> = 0.22</text><text x="135" y="205" text-anchor="left" font-size="22" alignment-baseline="middle" style="fill: rgb(38, 188, 225);"> = 0.45</text><text x="135" y="230" text-anchor="left" font-size="22" alignment-baseline="middle" style="fill: rgb(63, 243, 147);"> = 0.67</text><text x="135" y="255" text-anchor="left" font-size="22" alignment-baseline="middle" style="fill: rgb(149, 251, 81);"> = 0.9</text><text x="135" y="280" text-anchor="left" font-size="22" alignment-baseline="middle" style="fill: rgb(236, 209, 46);"> = 1.12</text><text x="135" y="305" text-anchor="left" font-size="22" alignment-baseline="middle" style="fill: rgb(255, 130, 29);"> = 1.35</text><text x="135" y="330" text-anchor="left" font-size="22" alignment-baseline="middle" style="fill: rgb(203, 47, 13);"> = 1.57</text></svg>