<svg xmlns="http://www.w3.org/2000/svg" class="bg-white" width="500" height="400" viewBox="-35.199999999999996 -24.19999999999999 550 440.00000000000006"><path fill="none" stroke="rgb(35, 23, 27)" stroke-width="1.5" d="M100,42.802L100.723,41.839L101.445,41.002L102.168,40.256L102.891,39.56L103.613,38.886L104.336,38.221L105.059,37.66L105.781,37.059L106.504,36.519L107.227,35.976L107.949,35.47L108.672,35.007L109.395,34.539L110.117,34.084L110.84,33.59L111.563,33.132L112.285,32.636L113.008,32.161L113.73,31.695L114.453,31.196L115.176,30.72L115.898,30.235L116.621,29.702L117.344,29.175L118.066,28.658L118.789,28.067L119.512,27.452L120.234,26.837L120.957,26.119L121.68,25.319L122.402,24.982L123.125,25.967L123.848,26.861L124.57,27.605L125.293,28.36L126.016,29.068L126.738,29.727L127.461,30.345L128.184,31.016L128.906,31.576L129.629,32.115L130.352,32.6L131.074,33.165L131.797,33.646L132.52,34.125L133.242,34.616L133.965,35.044L134.688,35.494L135.41,35.916L136.133,36.338L136.855,36.702L137.578,37.165L138.301,37.555L139.023,37.913L139.746,38.242L140.469,38.647L141.191,38.972L141.914,39.398L142.637,39.696L143.359,40.011L144.082,40.395L144.805,40.677L145.527,41.073L146.25,41.396L146.973,41.705L147.695,42.04L148.418,42.346L149.141,42.609L149.863,42.989L150.586,43.308L151.309,43.533L152.031,43.843L152.754,44.16L153.477,44.485L154.199,44.73L154.922,45.073L155.645,45.331L156.367,45.632L157.09,45.934L157.813,46.188L158.535,46.536L159.258,46.741L159.98,47.103L160.703,47.411L161.426,47.665L162.148,47.931L162.871,48.265L163.594,48.479L164.316,48.716L165.039,49.11L165.762,49.39L166.484,49.624L167.207,49.947L167.93,50.237L168.652,50.54L169.375,50.8L170.098,51.071L170.82,51.29L171.543,51.595L172.266,51.928L172.988,52.199L173.711,52.432L174.434,52.771L175.156,53.063L175.879,53.328L176.602,53.611L177.324,53.843L178.047,54.127L178.77,54.429L179.492,54.696L180.215,54.971L180.938,55.272L181.66,55.589L182.383,55.875L183.105,56.183L183.828,56.425L184.551,56.688L185.273,57.026L185.996,57.295L186.719,57.554L187.441,57.869L188.164,58.199L188.887,58.475L189.609,58.763L190.332,59.066L191.055,59.378L191.777,59.626L192.5,59.975L193.223,60.25L193.945,60.531L194.668,60.85L195.391,61.136L196.113,61.44L196.836,61.721L197.559,62.017L198.281,62.304L199.004,62.677L199.727,62.94L200.449,63.283L201.172,63.572L201.895,63.879L202.617,64.199L203.34,64.52L204.063,64.789L204.785,65.109L205.508,65.459L206.23,65.789L206.953,66.058L207.676,66.369L208.398,66.646L209.121,66.995L209.844,67.335L210.566,67.602L211.289,67.979L212.012,68.254L212.734,68.621L213.457,68.9L214.18,69.283L214.902,69.603L215.625,69.964L216.348,70.251L217.07,70.512L217.793,70.936L218.516,71.246L219.238,71.576L219.961,71.882L220.684,72.225L221.406,72.647L222.129,72.988L222.852,73.344L223.574,73.641L224.297,73.967L225.02,74.242L225.742,74.723L226.465,75.027L227.188,75.312L227.91,75.662L228.633,76.028L229.355,76.379L230.078,76.783L230.801,77.134L231.523,77.481L232.246,77.817L232.969,78.159L233.691,78.506L234.414,78.846L235.137,79.332L235.859,79.639L236.582,80.011L237.305,80.386L238.027,80.773L238.75,81.171L239.473,81.505L240.195,81.867L240.918,82.231L241.641,82.591L242.363,83.06L243.086,83.424L243.809,83.839L244.531,84.183L245.254,84.557L245.977,84.999L246.699,85.396L247.422,85.828L248.145,86.132L248.867,86.599L249.59,87.007L250.313,87.412L251.035,87.742L251.758,88.173L252.48,88.591L253.203,89.047L253.926,89.445L254.648,89.848L255.371,90.207L256.094,90.631L256.816,91.139L257.539,91.536L258.262,91.952L258.984,92.369L259.707,92.787L260.43,93.267L261.152,93.675L261.875,94.095L262.598,94.474L263.32,94.981L264.043,95.49L264.766,95.836L265.488,96.281L266.211,96.671L266.934,97.274L267.656,97.685L268.379,98.076L269.102,98.525L269.824,99.051L270.547,99.465L271.27,99.955L271.992,100.471L272.715,100.896L273.438,101.364L274.16,101.863L274.883,102.368L275.605,102.834L276.328,103.256L277.051,103.822L277.773,104.257L278.496,104.869L279.219,105.288L279.941,105.889L280.664,106.408L281.387,106.815L282.109,107.375L282.832,107.927L283.555,108.392L284.277,108.985L285,109.446L285.723,110.021L286.445,110.634L287.168,111.046L287.891,111.627L288.613,112.176L289.336,112.777L290.059,113.373L290.781,113.793L291.504,114.254L292.227,115.016L292.949,115.512L293.672,116.11L294.395,116.699L295.117,117.227L295.84,117.991L296.563,118.45L297.285,119.05L298.008,119.629L298.73,120.206L299.453,120.927L300.176,121.606L300.898,121.952L301.621,122.658L302.344,123.389L303.066,123.893L303.789,124.405L304.512,125.335L305.234,125.867L305.957,126.56L306.68,127.166L307.402,127.873L308.125,128.406L308.848,129.106L309.57,129.95L310.293,130.651L311.016,131.183L311.738,131.916L312.461,132.573L313.184,133.439L313.906,134.117L314.629,134.901L315.352,135.465L316.074,136.184L316.797,137.019L317.52,137.627L318.242,138.405L318.965,139.289L319.688,139.959L320.41,140.623L321.133,141.344L321.855,142.224L322.578,143.104L323.301,143.766L324.023,144.736L324.746,145.451L325.469,146.176L326.191,146.972L326.914,147.903L327.637,148.732L328.359,149.799L329.082,150.607L329.805,151.276L330.527,152.144L331.25,153.282L331.973,153.909L332.695,154.897L333.418,155.681L334.141,156.691L334.863,157.67L335.586,158.507L336.309,159.653L337.031,160.433L337.754,161.37L338.477,162.315L339.199,163.328L339.922,164.377L340.645,165.366L341.367,166.266L342.09,167.48L342.813,168.417L343.535,169.435L344.258,170.54L344.98,171.558L345.703,172.708L346.426,173.85L347.148,174.833L347.871,176L348.594,177.132L349.316,178.205L350.039,179.308L350.762,180.521L351.484,181.754L352.207,182.935L352.93,184.08L353.652,185.309L354.375,186.335L355.098,187.597L355.82,188.788L356.543,190.052L357.266,191.336L357.988,192.502L358.711,193.781L359.434,195.164L360.156,196.571L360.879,197.782L361.602,198.978L362.324,200.359L363.047,201.623L363.77,203.002L364.492,204.303L365.215,205.634L365.938,206.95L366.66,208.351L367.383,209.833L368.105,211.305L368.828,212.557L369.551,213.844L370.273,215.347L370.996,216.665L371.719,218.328L372.441,219.769L373.164,221.103L373.887,222.604L374.609,223.741L375.332,225.523L376.055,226.961L376.777,228.287L377.5,229.734L378.223,231.237L378.945,232.775L379.668,234.205L380.391,235.92L381.113,237.463L381.836,238.727L382.559,240.185L383.281,241.885L384.004,243.423L384.727,244.653L385.449,246.371L386.172,247.67L386.895,249.228L387.617,250.956L388.34,252.059L389.063,253.725L389.785,255.673L390.508,256.685L391.23,258.133L391.953,260.229L392.676,261.377L393.398,262.987L394.121,264.387L394.844,266.201L395.566,267.376L396.289,268.48L397.012,270.537L397.734,271.745L398.457,272.989L399.18,274.784L399.902,275.822L400.625,277.799L401.348,279.178L402.07,280.218L402.793,281.58L403.516,283.533L404.238,284.866L404.961,285.824L405.684,287.838L406.406,288.906L407.129,290.224L407.852,291.605L408.574,293.247L409.297,294.326L410.02,295.512L410.742,297.076L411.465,298.369L412.188,299.789L412.91,300.894L413.633,302.24L414.355,303.609L415.078,304.724L415.801,305.762L416.523,307.195L417.246,308.632L417.969,309.589L418.691,310.77L419.414,311.941L420.137,313.396L420.859,314.451L421.582,315.289L422.305,316.415L423.027,317.912L423.75,318.887L424.473,320.055L425.195,320.785L425.918,321.665L426.641,323.409L427.363,324.011L428.086,324.828L428.809,325.888L429.531,326.683L430.254,328.295L430.977,328.828L431.699,329.72L432.422,330.46L433.145,331.267L433.867,332.053L434.59,332.948L435.313,333.59L436.035,334.524L436.758,335.188L437.48,336.107L438.203,336.93L438.926,337.308L439.648,338.522L440.371,339.106L441.094,339.421L441.816,339.989L442.539,340.825L443.262,341.693L443.984,341.707L444.707,342.792L445.43,342.845L446.152,343.597L446.875,344.066L447.598,344.729L448.32,345.221L449.043,345.583L449.766,345.779L450.488,346.384L451.211,346.688L451.934,347.315L452.656,347.164L453.379,347.504L454.102,347.775L454.824,347.488L455.547,348.437L456.27,347.989L456.992,348.877L457.715,348.755L458.438,349.148L459.16,349.202L459.883,349.147L460.605,349.181L461.328,349.631L462.051,349.443L462.773,349.448L463.496,349.623L464.219,349.533L464.941,349.53L465.664,349.654L466.387,349.684L467.109,350L467.832,349.887L468.555,349.237L469.277,349.671"/><path fill="none" stroke="rgb(69, 105, 238)" stroke-width="1.5" d="M100,42.786L100.723,41.803L101.445,40.94L102.168,40.132L102.891,39.551L103.613,38.846L104.336,38.243L105.059,37.616L105.781,37.081L106.504,36.459L107.227,35.953L107.949,35.442L108.672,34.957L109.395,34.436L110.117,33.928L110.84,33.492L111.563,33.026L112.285,32.564L113.008,32.104L113.73,31.614L114.453,31.128L115.176,30.6L115.898,30.126L116.621,29.611L117.344,29.099L118.066,28.535L118.789,27.952L119.512,27.319L120.234,26.697L120.957,25.924L121.68,25.19L122.402,24.83L123.125,25.814L123.848,26.658L124.57,27.462L125.293,28.19L126.016,28.88L126.738,29.578L127.461,30.223L128.184,30.806L128.906,31.341L129.629,31.929L130.352,32.512L131.074,32.932L131.797,33.429L132.52,33.959L133.242,34.37L133.965,34.834L134.688,35.223L135.41,35.692L136.133,36.113L136.855,36.512L137.578,36.919L138.301,37.272L139.023,37.673L139.746,38.051L140.469,38.433L141.191,38.759L141.914,39.136L142.637,39.477L143.359,39.79L144.082,40.174L144.805,40.466L145.527,40.793L146.25,41.114L146.973,41.466L147.695,41.767L148.418,42.078L149.141,42.37L149.863,42.706L150.586,43L151.309,43.284L152.031,43.605L152.754,43.901L153.477,44.224L154.199,44.507L154.922,44.797L155.645,45.037L156.367,45.362L157.09,45.655L157.813,45.936L158.535,46.217L159.258,46.52L159.98,46.763L160.703,47.093L161.426,47.33L162.148,47.626L162.871,47.908L163.594,48.204L164.316,48.465L165.039,48.74L165.762,49.026L166.484,49.271L167.207,49.554L167.93,49.865L168.652,50.147L169.375,50.398L170.098,50.706L170.82,50.935L171.543,51.291L172.266,51.525L172.988,51.85L173.711,52.068L174.434,52.311L175.156,52.583L175.879,52.911L176.602,53.195L177.324,53.459L178.047,53.711L178.77,54.041L179.492,54.338L180.215,54.634L180.938,54.849L181.66,55.14L182.383,55.456L183.105,55.73L183.828,56.022L184.551,56.281L185.273,56.64L185.996,56.855L186.719,57.127L187.441,57.466L188.164,57.689L188.887,58.056L189.609,58.317L190.332,58.609L191.055,58.879L191.777,59.193L192.5,59.479L193.223,59.742L193.945,60.08L194.668,60.357L195.391,60.653L196.113,60.96L196.836,61.278L197.559,61.549L198.281,61.833L199.004,62.132L199.727,62.433L200.449,62.769L201.172,63.097L201.895,63.368L202.617,63.724L203.34,63.965L204.063,64.254L204.785,64.56L205.508,64.92L206.23,65.241L206.953,65.502L207.676,65.855L208.398,66.148L209.121,66.377L209.844,66.849L210.566,67.169L211.289,67.444L212.012,67.768L212.734,68.119L213.457,68.416L214.18,68.728L214.902,69.015L215.625,69.297L216.348,69.639L217.07,70.021L217.793,70.317L218.516,70.597L219.238,71.029L219.961,71.398L220.684,71.712L221.406,71.971L222.129,72.37L222.852,72.738L223.574,73.071L224.297,73.453L225.02,73.71L225.742,73.954L226.465,74.43L227.188,74.773L227.91,75.127L228.633,75.46L229.355,75.861L230.078,76.133L230.801,76.534L231.523,76.841L232.246,77.205L232.969,77.571L233.691,77.938L234.414,78.232L235.137,78.59L235.859,79.053L236.582,79.358L237.305,79.782L238.027,80.128L238.75,80.517L239.473,80.819L240.195,81.239L240.918,81.529L241.641,81.9L242.363,82.432L243.086,82.742L243.809,83.102L244.531,83.403L245.254,83.829L245.977,84.206L246.699,84.607L247.422,85.034L248.145,85.426L248.867,85.893L249.59,86.28L250.313,86.516L251.035,87.027L251.758,87.495L252.48,87.76L253.203,88.299L253.926,88.586L254.648,89.106L255.371,89.549L256.094,89.828L256.816,90.368L257.539,90.752L258.262,91.122L258.984,91.594L259.707,91.961L260.43,92.435L261.152,92.852L261.875,93.282L262.598,93.707L263.32,94.218L264.043,94.506L264.766,94.974L265.488,95.517L266.211,95.919L266.934,96.356L267.656,96.84L268.379,97.292L269.102,97.738L269.824,98.167L270.547,98.651L271.27,99.05L271.992,99.488L272.715,99.962L273.438,100.601L274.16,101.012L274.883,101.366L275.605,101.924L276.328,102.286L277.051,102.965L277.773,103.342L278.496,103.814L279.219,104.419L279.941,104.959L280.664,105.316L281.387,105.71L282.109,106.209L282.832,106.897L283.555,107.336L284.277,107.928L285,108.407L285.723,108.901L286.445,109.385L287.168,109.979L287.891,110.521L288.613,111.044L289.336,111.568L290.059,112.076L290.781,112.62L291.504,113.231L292.227,113.849L292.949,114.311L293.672,114.833L294.395,115.373L295.117,116.069L295.84,116.608L296.563,117.064L297.285,117.752L298.008,118.272L298.73,118.781L299.453,119.451L300.176,119.972L300.898,120.597L301.621,121.191L302.344,121.659L303.066,122.35L303.789,122.979L304.512,123.668L305.234,124.258L305.957,124.819L306.68,125.494L307.402,126.005L308.125,126.658L308.848,127.344L309.57,128.035L310.293,128.648L311.016,129.342L311.738,129.991L312.461,130.735L313.184,131.273L313.906,131.985L314.629,132.664L315.352,133.27L316.074,133.984L316.797,134.656L317.52,135.419L318.242,136.091L318.965,136.718L319.688,137.444L320.41,138.134L321.133,138.856L321.855,139.629L322.578,140.448L323.301,141.04L324.023,141.767L324.746,142.516L325.469,143.194L326.191,144.103L326.914,144.76L327.637,145.454L328.359,146.339L329.082,147.093L329.805,147.988L330.527,148.479L331.25,149.402L331.973,150.302L332.695,150.95L333.418,151.957L334.141,152.577L334.863,153.273L335.586,154.258L336.309,155.219L337.031,155.972L337.754,156.896L338.477,157.698L339.199,158.483L339.922,159.369L340.645,160.15L341.367,161.057L342.09,162.009L342.813,162.727L343.535,163.728L344.258,164.725L344.98,165.666L345.703,166.41L346.426,167.337L347.148,168.274L347.871,169.151L348.594,170.082L349.316,171.08L350.039,171.872L350.762,172.961L351.484,173.725L352.207,174.81L352.93,175.792L353.652,176.711L354.375,177.495L355.098,178.406L355.82,179.479L356.543,180.612L357.266,181.742L357.988,182.429L358.711,183.473L359.434,184.634L360.156,185.675L360.879,186.391L361.602,187.59L362.324,188.681L363.047,189.476L363.77,190.499L364.492,191.6L365.215,192.706L365.938,193.459L366.66,194.812L367.383,195.65L368.105,196.815L368.828,197.737L369.551,198.888L370.273,200.069L370.996,200.715L371.719,202.215L372.441,203.123L373.164,203.969L373.887,205.269L374.609,206.458L375.332,207.542L376.055,208.261L376.777,209.514L377.5,210.459L378.223,211.744L378.945,212.626L379.668,213.714L380.391,214.76L381.113,215.83L381.836,216.837L382.559,218.075L383.281,219.264L384.004,220.089L384.727,221.231L385.449,222.405L386.172,223.222L386.895,224.503L387.617,225.42L388.34,226.483L389.063,227.649L389.785,228.813L390.508,229.632L391.23,230.848L391.953,231.84L392.676,232.891L393.398,234.16L394.121,234.803L394.844,236.244L395.566,237.324L396.289,237.919L397.012,239.024L397.734,240.198L398.457,241.314L399.18,242.133L399.902,243.201L400.625,244.292L401.348,245.198L402.07,246.324L402.793,247.278L403.516,248.083L404.238,249.055L404.961,250.158L405.684,251.045L406.406,252.245L407.129,253.023L407.852,254.067L408.574,255.153L409.297,255.688L410.02,256.663L410.742,257.692L411.465,258.391L412.188,259.465L412.91,260.258L413.633,261.178L414.355,262.138L415.078,262.794L415.801,263.714L416.523,264.652L417.246,265.303L417.969,266.726L418.691,266.963L419.414,267.769L420.137,268.836L420.859,269.392L421.582,270.135L422.305,270.962L423.027,271.579L423.75,272.276L424.473,273.042L425.195,273.803L425.918,274.551L426.641,275.107L427.363,275.85L428.086,276.619L428.809,277.281L429.531,277.689L430.254,278.504L430.977,278.984L431.699,279.545L432.422,280.271L433.145,281.068L433.867,281.395L434.59,282.055L435.313,282.353L436.035,282.955L436.758,283.801L437.48,283.961L438.203,284.332L438.926,284.803L439.648,285.387L440.371,285.761L441.094,286.506L441.816,287.024L442.539,287.107L443.262,287.436L443.984,287.767L444.707,287.999L445.43,288.796L446.152,288.786L446.875,289.324L447.598,289.367L448.32,289.882L449.043,290.007L449.766,290.152L450.488,290.774L451.211,290.575L451.934,290.906L452.656,291.034L453.379,291.11L454.102,291.774L454.824,291.416L455.547,291.961L456.27,291.602L456.992,291.845L457.715,291.941L458.438,292.066L459.16,291.947L459.883,292.359L460.605,292.277L461.328,292.183L462.051,292.232L462.773,292.05L463.496,291.94L464.219,291.931L464.941,292.042L465.664,291.688L466.387,292.048L467.109,291.66L467.832,291.462L468.555,291.559L469.277,291.624"/><path fill="none" stroke="rgb(38, 188, 225)" stroke-width="1.5" d="M100,42.733L100.723,41.797L101.445,40.978L102.168,40.175L102.891,39.451L103.613,38.745L104.336,38.163L105.059,37.54L105.781,36.892L106.504,36.328L107.227,35.817L107.949,35.248L108.672,34.782L109.395,34.234L110.117,33.705L110.84,33.265L111.563,32.767L112.285,32.252L113.008,31.78L113.73,31.375L114.453,30.818L115.176,30.334L115.898,29.795L116.621,29.295L117.344,28.717L118.066,28.17L118.789,27.548L119.512,26.917L120.234,26.286L120.957,25.565L121.68,24.774L122.402,24.474L123.125,25.403L123.848,26.286L124.57,27.045L125.293,27.784L126.016,28.489L126.738,29.119L127.461,29.727L128.184,30.312L128.906,30.873L129.629,31.469L130.352,31.915L131.074,32.482L131.797,32.958L132.52,33.364L133.242,33.805L133.965,34.251L134.688,34.716L135.41,35.105L136.133,35.498L136.855,35.935L137.578,36.256L138.301,36.679L139.023,37.045L139.746,37.405L140.469,37.779L141.191,38.141L141.914,38.433L142.637,38.765L143.359,39.099L144.082,39.413L144.805,39.776L145.527,40.123L146.25,40.393L146.973,40.688L147.695,41.032L148.418,41.352L149.141,41.62L149.863,41.884L150.586,42.19L151.309,42.511L152.031,42.812L152.754,43.101L153.477,43.388L154.199,43.611L154.922,43.981L155.645,44.223L156.367,44.492L157.09,44.799L157.813,45.058L158.535,45.325L159.258,45.583L159.98,45.899L160.703,46.147L161.426,46.392L162.148,46.696L162.871,47.034L163.594,47.22L164.316,47.576L165.039,47.84L165.762,48.054L166.484,48.376L167.207,48.539L167.93,48.979L168.652,49.148L169.375,49.43L170.098,49.633L170.82,49.91L171.543,50.21L172.266,50.48L172.988,50.786L173.711,51.068L174.434,51.276L175.156,51.551L175.879,51.879L176.602,52.13L177.324,52.441L178.047,52.594L178.77,52.919L179.492,53.195L180.215,53.509L180.938,53.787L181.66,54.004L182.383,54.306L183.105,54.555L183.828,54.917L184.551,55.031L185.273,55.372L185.996,55.724L186.719,55.97L187.441,56.195L188.164,56.452L188.887,56.817L189.609,57.075L190.332,57.336L191.055,57.611L191.777,57.897L192.5,58.149L193.223,58.435L193.945,58.768L194.668,58.992L195.391,59.385L196.113,59.637L196.836,59.918L197.559,60.197L198.281,60.457L199.004,60.791L199.727,61.078L200.449,61.41L201.172,61.646L201.895,62.009L202.617,62.285L203.34,62.623L204.063,62.882L204.785,63.154L205.508,63.425L206.23,63.805L206.953,64.061L207.676,64.402L208.398,64.703L209.121,65.027L209.844,65.312L210.566,65.642L211.289,66.039L212.012,66.257L212.734,66.536L213.457,66.911L214.18,67.164L214.902,67.539L215.625,67.834L216.348,68.201L217.07,68.466L217.793,68.855L218.516,69.158L219.238,69.392L219.961,69.798L220.684,70.14L221.406,70.413L222.129,70.734L222.852,71.094L223.574,71.431L224.297,71.735L225.02,72.084L225.742,72.451L226.465,72.816L227.188,73.082L227.91,73.41L228.633,73.867L229.355,74.193L230.078,74.47L230.801,74.909L231.523,75.124L232.246,75.506L232.969,75.821L233.691,76.181L234.414,76.624L235.137,76.907L235.859,77.261L236.582,77.681L237.305,77.985L238.027,78.298L238.75,78.626L239.473,79.001L240.195,79.485L240.918,79.777L241.641,80.132L242.363,80.61L243.086,80.908L243.809,81.266L244.531,81.634L245.254,81.99L245.977,82.344L246.699,82.765L247.422,83.138L248.145,83.551L248.867,83.814L249.59,84.386L250.313,84.66L251.035,85.131L251.758,85.381L252.48,85.93L253.203,86.282L253.926,86.611L254.648,87.118L255.371,87.411L256.094,87.912L256.816,88.252L257.539,88.728L258.262,89.145L258.984,89.381L259.707,89.865L260.43,90.359L261.152,90.627L261.875,90.981L262.598,91.574L263.32,91.948L264.043,92.405L264.766,92.707L265.488,93.256L266.211,93.69L266.934,94.035L267.656,94.472L268.379,94.957L269.102,95.383L269.824,95.756L270.547,96.29L271.27,96.748L271.992,97.097L272.715,97.58L273.438,97.998L274.16,98.42L274.883,98.976L275.605,99.444L276.328,99.844L277.051,100.259L277.773,100.739L278.496,101.222L279.219,101.635L279.941,102.2L280.664,102.628L281.387,103.139L282.109,103.585L282.832,104.014L283.555,104.504L284.277,104.916L285,105.498L285.723,105.948L286.445,106.414L287.168,106.932L287.891,107.378L288.613,108.047L289.336,108.491L290.059,108.891L290.781,109.561L291.504,110.008L292.227,110.476L292.949,110.966L293.672,111.593L294.395,111.981L295.117,112.451L295.84,113.19L296.563,113.547L297.285,114.168L298.008,114.687L298.73,115.275L299.453,115.772L300.176,116.334L300.898,116.807L301.621,117.394L302.344,117.94L303.066,118.42L303.789,119.078L304.512,119.596L305.234,120.277L305.957,120.727L306.68,121.322L307.402,121.854L308.125,122.472L308.848,123.003L309.57,123.541L310.293,124.215L311.016,124.798L311.738,125.385L312.461,125.986L313.184,126.49L313.906,127.189L314.629,127.763L315.352,128.399L316.074,129.139L316.797,129.632L317.52,130.181L318.242,130.961L318.965,131.48L319.688,132.152L320.41,132.74L321.133,133.303L321.855,133.966L322.578,134.693L323.301,135.293L324.023,135.999L324.746,136.586L325.469,137.274L326.191,137.835L326.914,138.452L327.637,139.215L328.359,139.997L329.082,140.569L329.805,141.331L330.527,142.026L331.25,142.573L331.973,143.383L332.695,143.971L333.418,144.685L334.141,145.366L334.863,146.143L335.586,146.801L336.309,147.49L337.031,148.203L337.754,149.037L338.477,149.679L339.199,150.447L339.922,150.991L340.645,151.774L341.367,152.571L342.09,153.211L342.813,154.165L343.535,154.765L344.258,155.396L344.98,156.211L345.703,157.015L346.426,157.7L347.148,158.556L347.871,159.231L348.594,160.222L349.316,160.721L350.039,161.54L350.762,162.291L351.484,163.079L352.207,163.883L352.93,164.673L353.652,165.209L354.375,166.18L355.098,167L355.82,167.644L356.543,168.44L357.266,169.253L357.988,170.001L358.711,171.041L359.434,171.718L360.156,172.442L360.879,173.199L361.602,174.068L362.324,174.87L363.047,175.639L363.77,176.451L364.492,177.215L365.215,178.119L365.938,178.814L366.66,179.743L367.383,180.433L368.105,181.372L368.828,182.262L369.551,182.985L370.273,183.748L370.996,184.417L371.719,185.289L372.441,186.115L373.164,186.719L373.887,187.585L374.609,188.628L375.332,189.301L376.055,190.101L376.777,191.041L377.5,191.923L378.223,192.632L378.945,193.422L379.668,194.222L380.391,195.086L381.113,195.58L381.836,196.706L382.559,197.222L383.281,198.199L384.004,199.04L384.727,199.772L385.449,200.592L386.172,201.256L386.895,202.109L387.617,202.768L388.34,203.741L389.063,204.467L389.785,205.283L390.508,205.989L391.23,206.58L391.953,207.243L392.676,208.181L393.398,208.989L394.121,209.772L394.844,210.483L395.566,211.121L396.289,211.91L397.012,212.672L397.734,213.432L398.457,214.01L399.18,214.693L399.902,215.283L400.625,216.072L401.348,216.899L402.07,217.674L402.793,218.386L403.516,219.152L404.238,219.686L404.961,220.017L405.684,220.814L406.406,221.606L407.129,222.221L407.852,222.756L408.574,223.453L409.297,224.164L410.02,224.963L410.742,225.288L411.465,226.114L412.188,226.62L412.91,227.257L413.633,227.806L414.355,228.498L415.078,229.105L415.801,229.549L416.523,230.166L417.246,230.751L417.969,231.26L418.691,231.586L419.414,232.281L420.137,232.778L420.859,233.42L421.582,233.876L422.305,234.095L423.027,234.757L423.75,235.116L424.473,235.39L425.195,235.938L425.918,236.557L426.641,236.897L427.363,237.344L428.086,237.872L428.809,238.018L429.531,238.303L430.254,238.928L430.977,239.283L431.699,239.666L432.422,239.836L433.145,240.388L433.867,240.66L434.59,240.942L435.313,241.21L436.035,241.453L436.758,241.834L437.48,242.048L438.203,242.46L438.926,242.319L439.648,242.865L440.371,243.099L441.094,243.348L441.816,243.382L442.539,243.487L443.262,243.826L443.984,243.918L444.707,244.198L445.43,244.211L446.152,244.408L446.875,244.514L447.598,244.514L448.32,244.865L449.043,244.826L449.766,245.003L450.488,244.983L451.211,245.168L451.934,245.137L452.656,245.171L453.379,245.092L454.102,245.284L454.824,245.232L455.547,245.148L456.27,245.035L456.992,245.11L457.715,245.042L458.438,244.984L459.16,244.874L459.883,244.882L460.605,245.108L461.328,244.595L462.051,244.656L462.773,244.485L463.496,244.255L464.219,244.282L464.941,244.094L465.664,243.931L466.387,243.739L467.109,243.478L467.832,243.165L468.555,242.975L469.277,242.912"/><path fill="none" stroke="rgb(63, 243, 147)" stroke-width="1.5" d="M100,42.782L100.723,41.835L101.445,40.974L102.168,40.176L102.891,39.393L103.613,38.651L104.336,38.068L105.059,37.383L105.781,36.788L106.504,36.229L107.227,35.601L107.949,35.072L108.672,34.537L109.395,34.052L110.117,33.488L110.84,32.964L111.563,32.464L112.285,31.944L113.008,31.445L113.73,30.991L114.453,30.438L115.176,29.893L115.898,29.361L116.621,28.794L117.344,28.23L118.066,27.673L118.789,27.024L119.512,26.387L120.234,25.725L120.957,24.927L121.68,24.138L122.402,23.833L123.125,24.733L123.848,25.54L124.57,26.274L125.293,27.009L126.016,27.654L126.738,28.308L127.461,28.913L128.184,29.492L128.906,30.024L129.629,30.577L130.352,31.069L131.074,31.578L131.797,31.959L132.52,32.466L133.242,32.877L133.965,33.288L134.688,33.744L135.41,34.084L136.133,34.439L136.855,34.925L137.578,35.18L138.301,35.576L139.023,35.952L139.746,36.267L140.469,36.58L141.191,36.967L141.914,37.302L142.637,37.564L143.359,37.903L144.082,38.248L144.805,38.537L145.527,38.866L146.25,39.122L146.973,39.463L147.695,39.698L148.418,40.042L149.141,40.29L149.863,40.586L150.586,40.858L151.309,41.117L152.031,41.427L152.754,41.734L153.477,41.914L154.199,42.203L154.922,42.463L155.645,42.77L156.367,43.008L157.09,43.285L157.813,43.608L158.535,43.83L159.258,44.051L159.98,44.303L160.703,44.593L161.426,44.858L162.148,45.098L162.871,45.311L163.594,45.595L164.316,45.911L165.039,46.155L165.762,46.44L166.484,46.662L167.207,46.899L167.93,47.11L168.652,47.416L169.375,47.702L170.098,47.873L170.82,48.16L171.543,48.408L172.266,48.644L172.988,48.865L173.711,49.171L174.434,49.477L175.156,49.716L175.879,49.98L176.602,50.224L177.324,50.455L178.047,50.712L178.77,51.027L179.492,51.259L180.215,51.547L180.938,51.765L181.66,52.014L182.383,52.273L183.105,52.58L183.828,52.801L184.551,53.076L185.273,53.333L185.996,53.588L186.719,53.901L187.441,54.12L188.164,54.421L188.887,54.668L189.609,54.924L190.332,55.233L191.055,55.453L191.777,55.782L192.5,56.017L193.223,56.282L193.945,56.573L194.668,56.732L195.391,57.151L196.113,57.392L196.836,57.702L197.559,57.953L198.281,58.257L199.004,58.55L199.727,58.773L200.449,59.076L201.172,59.337L201.895,59.621L202.617,59.933L203.34,60.228L204.063,60.438L204.785,60.836L205.508,61.164L206.23,61.409L206.953,61.664L207.676,61.932L208.398,62.202L209.121,62.617L209.844,62.798L210.566,63.203L211.289,63.472L212.012,63.696L212.734,64.121L213.457,64.381L214.18,64.668L214.902,64.887L215.625,65.356L216.348,65.563L217.07,65.779L217.793,66.217L218.516,66.519L219.238,66.81L219.961,67.225L220.684,67.453L221.406,67.791L222.129,68.129L222.852,68.384L223.574,68.764L224.297,69.007L225.02,69.421L225.742,69.752L226.465,70.092L227.188,70.337L227.91,70.711L228.633,70.995L229.355,71.412L230.078,71.812L230.801,72.034L231.523,72.396L232.246,72.742L232.969,73.073L233.691,73.456L234.414,73.849L235.137,74.082L235.859,74.417L236.582,74.803L237.305,75.129L238.027,75.427L238.75,75.824L239.473,76.155L240.195,76.456L240.918,76.853L241.641,77.23L242.363,77.594L243.086,77.965L243.809,78.297L244.531,78.643L245.254,79.028L245.977,79.413L246.699,79.767L247.422,80.162L248.145,80.533L248.867,80.929L249.59,81.265L250.313,81.652L251.035,81.936L251.758,82.361L252.48,82.695L253.203,83.186L253.926,83.472L254.648,83.868L255.371,84.242L256.094,84.663L256.816,84.991L257.539,85.456L258.262,85.865L258.984,86.245L259.707,86.626L260.43,87.13L261.152,87.404L261.875,87.901L262.598,88.268L263.32,88.61L264.043,89.031L264.766,89.458L265.488,89.788L266.211,90.247L266.934,90.532L267.656,91.07L268.379,91.515L269.102,91.899L269.824,92.336L270.547,92.705L271.27,93.185L271.992,93.586L272.715,93.969L273.438,94.484L274.16,94.733L274.883,95.214L275.605,95.697L276.328,96.164L277.051,96.583L277.773,97.016L278.496,97.438L279.219,98.011L279.941,98.377L280.664,98.679L281.387,99.289L282.109,99.646L282.832,100.178L283.555,100.58L284.277,101.101L285,101.377L285.723,101.958L286.445,102.253L287.168,102.706L287.891,103.256L288.613,103.699L289.336,104.224L290.059,104.688L290.781,105.131L291.504,105.653L292.227,106.14L292.949,106.641L293.672,107.18L294.395,107.563L295.117,107.987L295.84,108.512L296.563,109.023L297.285,109.499L298.008,109.947L298.73,110.486L299.453,110.858L300.176,111.449L300.898,112.051L301.621,112.492L302.344,112.91L303.066,113.458L303.789,113.918L304.512,114.489L305.234,115.09L305.957,115.534L306.68,115.998L307.402,116.541L308.125,117.106L308.848,117.544L309.57,118.119L310.293,118.621L311.016,119.079L311.738,119.696L312.461,120.397L313.184,120.82L313.906,121.355L314.629,121.903L315.352,122.267L316.074,123.027L316.797,123.659L317.52,124.076L318.242,124.678L318.965,125.143L319.688,125.791L320.41,126.285L321.133,126.907L321.855,127.504L322.578,128.043L323.301,128.78L324.023,129.104L324.746,129.906L325.469,130.332L326.191,130.805L326.914,131.563L327.637,132.084L328.359,132.58L329.082,133.265L329.805,133.889L330.527,134.381L331.25,135.118L331.973,135.628L332.695,136.204L333.418,136.777L334.141,137.356L334.863,138.083L335.586,138.626L336.309,139.261L337.031,139.913L337.754,140.435L338.477,141.172L339.199,141.712L339.922,142.322L340.645,142.959L341.367,143.543L342.09,144.297L342.813,144.817L343.535,145.456L344.258,145.926L344.98,146.566L345.703,147.251L346.426,147.958L347.148,148.456L347.871,149.144L348.594,149.793L349.316,150.433L350.039,151.152L350.762,151.716L351.484,152.361L352.207,153.053L352.93,153.758L353.652,154.354L354.375,154.768L355.098,155.545L355.82,156.176L356.543,156.68L357.266,157.432L357.988,158.111L358.711,158.653L359.434,159.364L360.156,160.03L360.879,160.542L361.602,161.236L362.324,161.743L363.047,162.448L363.77,163.045L364.492,163.938L365.215,164.246L365.938,164.942L366.66,165.652L367.383,166.17L368.105,166.892L368.828,167.524L369.551,168.03L370.273,168.737L370.996,169.268L371.719,169.845L372.441,170.675L373.164,171.072L373.887,171.898L374.609,172.324L375.332,173.004L376.055,173.654L376.777,174.202L377.5,174.727L378.223,175.412L378.945,175.818L379.668,176.511L380.391,177.179L381.113,177.765L381.836,178.323L382.559,178.962L383.281,179.398L384.004,179.974L384.727,180.701L385.449,181.133L386.172,181.783L386.895,182.473L387.617,182.84L388.34,183.361L389.063,183.857L389.785,184.386L390.508,185.1L391.23,185.514L391.953,186.148L392.676,186.572L393.398,186.923L394.121,187.445L394.844,188.021L395.566,188.613L396.289,189.099L397.012,189.657L397.734,189.978L398.457,190.386L399.18,190.955L399.902,191.365L400.625,191.948L401.348,192.264L402.07,192.723L402.793,193.217L403.516,193.721L404.238,193.868L404.961,194.503L405.684,194.668L406.406,195.134L407.129,195.841L407.852,195.971L408.574,196.552L409.297,196.784L410.02,197.118L410.742,197.752L411.465,197.851L412.188,198.317L412.91,198.671L413.633,199.08L414.355,199.381L415.078,199.576L415.801,199.892L416.523,200.39L417.246,200.527L417.969,200.864L418.691,201.078L419.414,201.304L420.137,201.506L420.859,201.797L421.582,202.217L422.305,202.491L423.027,202.571L423.75,202.783L424.473,203.086L425.195,203.311L425.918,203.341L426.641,203.572L427.363,203.761L428.086,203.862L428.809,204.273L429.531,204.389L430.254,204.355L430.977,204.533L431.699,204.68L432.422,204.68L433.145,205.027L433.867,204.943L434.59,204.995L435.313,205.024L436.035,205.138L436.758,205.389L437.48,205.223L438.203,205.364L438.926,205.45L439.648,205.326L440.371,205.489L441.094,205.496L441.816,205.382L442.539,205.474L443.262,205.38L443.984,205.366L444.707,205.32L445.43,205.15L446.152,205.261L446.875,205.296L447.598,205.273L448.32,205.025L449.043,204.878L449.766,204.879L450.488,204.734L451.211,204.561L451.934,204.477L452.656,204.332L453.379,204.116L454.102,203.884L454.824,203.814L455.547,203.613L456.27,203.431L456.992,203.292L457.715,203.268L458.438,202.898L459.16,202.865L459.883,202.429L460.605,202.466L461.328,202.231L462.051,201.853L462.773,201.424L463.496,201.03L464.219,200.901L464.941,200.75L465.664,200.512L466.387,200.181L467.109,199.896L467.832,199.692L468.555,199.088L469.277,199.021"/><path fill="none" stroke="rgb(149, 251, 81)" stroke-width="1.5" d="M100,42.553L100.723,41.701L101.445,40.821L102.168,39.987L102.891,39.182L103.613,38.524L104.336,37.781L105.059,37.179L105.781,36.532L106.504,35.887L107.227,35.351L107.949,34.757L108.672,34.116L109.395,33.593L110.117,33.026L110.84,32.497L111.563,31.988L112.285,31.434L113.008,30.896L113.73,30.324L114.453,29.805L115.176,29.245L115.898,28.665L116.621,28.128L117.344,27.5L118.066,26.908L118.789,26.206L119.512,25.552L120.234,24.753L120.957,23.966L121.68,23.134L122.402,23.139L123.125,23.925L123.848,24.731L124.57,25.433L125.293,26.152L126.016,26.727L126.738,27.316L127.461,27.939L128.184,28.546L128.906,28.956L129.629,29.47L130.352,29.917L131.074,30.343L131.797,30.782L132.52,31.269L133.242,31.645L133.965,31.99L134.688,32.426L135.41,32.796L136.133,33.154L136.855,33.462L137.578,33.84L138.301,34.125L139.023,34.447L139.746,34.818L140.469,35.074L141.191,35.427L141.914,35.698L142.637,36.012L143.359,36.265L144.082,36.577L144.805,36.855L145.527,37.123L146.25,37.419L146.973,37.64L147.695,37.981L148.418,38.195L149.141,38.507L149.863,38.748L150.586,38.987L151.309,39.259L152.031,39.447L152.754,39.699L153.477,40.028L154.199,40.208L154.922,40.496L155.645,40.75L156.367,40.939L157.09,41.177L157.813,41.425L158.535,41.697L159.258,41.88L159.98,42.084L160.703,42.359L161.426,42.592L162.148,42.809L162.871,43.048L163.594,43.312L164.316,43.557L165.039,43.803L165.762,43.967L166.484,44.223L167.207,44.482L167.93,44.727L168.652,44.944L169.375,45.25L170.098,45.427L170.82,45.664L171.543,45.808L172.266,46.136L172.988,46.363L173.711,46.554L174.434,46.807L175.156,47.029L175.879,47.329L176.602,47.449L177.324,47.734L178.047,48.045L178.77,48.304L179.492,48.462L180.215,48.737L180.938,48.96L181.66,49.151L182.383,49.424L183.105,49.601L183.828,49.845L184.551,50.236L185.273,50.459L185.996,50.706L186.719,50.9L187.441,51.154L188.164,51.426L188.887,51.655L189.609,51.896L190.332,52.157L191.055,52.428L191.777,52.64L192.5,52.88L193.223,53.202L193.945,53.419L194.668,53.734L195.391,54.006L196.113,54.308L196.836,54.57L197.559,54.75L198.281,55.063L199.004,55.265L199.727,55.562L200.449,55.793L201.172,56.064L201.895,56.367L202.617,56.669L203.34,56.942L204.063,57.152L204.785,57.406L205.508,57.737L206.23,57.961L206.953,58.269L207.676,58.632L208.398,58.922L209.121,59.165L209.844,59.461L210.566,59.753L211.289,60.04L212.012,60.39L212.734,60.627L213.457,60.928L214.18,61.228L214.902,61.452L215.625,61.817L216.348,62.032L217.07,62.445L217.793,62.699L218.516,62.986L219.238,63.247L219.961,63.635L220.684,63.914L221.406,64.23L222.129,64.534L222.852,64.911L223.574,65.138L224.297,65.488L225.02,65.874L225.742,66.194L226.465,66.496L227.188,66.824L227.91,67.135L228.633,67.358L229.355,67.755L230.078,68.091L230.801,68.437L231.523,68.681L232.246,69.077L232.969,69.424L233.691,69.734L234.414,69.992L235.137,70.465L235.859,70.844L236.582,71.105L237.305,71.471L238.027,71.831L238.75,72.067L239.473,72.568L240.195,72.809L240.918,73.167L241.641,73.575L242.363,73.77L243.086,74.241L243.809,74.527L244.531,74.967L245.254,75.275L245.977,75.576L246.699,76.09L247.422,76.4L248.145,76.818L248.867,77.115L249.59,77.546L250.313,77.839L251.035,78.29L251.758,78.559L252.48,79.034L253.203,79.285L253.926,79.751L254.648,80.194L255.371,80.509L256.094,80.819L256.816,81.135L257.539,81.651L258.262,81.966L258.984,82.421L259.707,82.739L260.43,83.153L261.152,83.587L261.875,83.88L262.598,84.287L263.32,84.749L264.043,85.076L264.766,85.475L265.488,85.918L266.211,86.304L266.934,86.702L267.656,87.168L268.379,87.517L269.102,88.041L269.824,88.343L270.547,88.804L271.27,89.16L271.992,89.601L272.715,90.075L273.438,90.404L274.16,90.731L274.883,91.245L275.605,91.775L276.328,92.017L277.051,92.626L277.773,92.918L278.496,93.466L279.219,93.752L279.941,94.24L280.664,94.623L281.387,95.075L282.109,95.514L282.832,96.06L283.555,96.382L284.277,96.891L285,97.336L285.723,97.679L286.445,98.165L287.168,98.614L287.891,99.101L288.613,99.5L289.336,99.9L290.059,100.52L290.781,100.863L291.504,101.261L292.227,101.753L292.949,102.264L293.672,102.719L294.395,103.117L295.117,103.539L295.84,104.046L296.563,104.564L297.285,104.941L298.008,105.477L298.73,105.924L299.453,106.398L300.176,106.891L300.898,107.355L301.621,107.897L302.344,108.311L303.066,108.879L303.789,109.394L304.512,109.858L305.234,110.264L305.957,110.652L306.68,111.326L307.402,111.826L308.125,112.232L308.848,112.655L309.57,113.16L310.293,113.605L311.016,114.117L311.738,114.679L312.461,115.08L313.184,115.596L313.906,116.126L314.629,116.733L315.352,117.326L316.074,117.653L316.797,118.215L317.52,118.774L318.242,119.09L318.965,119.794L319.688,120.186L320.41,120.758L321.133,121.368L321.855,121.773L322.578,122.2L323.301,122.701L324.023,123.382L324.746,123.737L325.469,124.349L326.191,124.809L326.914,125.273L327.637,125.776L328.359,126.353L329.082,126.802L329.805,127.318L330.527,127.828L331.25,128.284L331.973,128.893L332.695,129.438L333.418,129.983L334.141,130.549L334.863,130.968L335.586,131.592L336.309,132.006L337.031,132.51L337.754,133.129L338.477,133.429L339.199,134.084L339.922,134.544L340.645,135.141L341.367,135.639L342.09,135.992L342.813,136.653L343.535,137.011L344.258,137.501L344.98,138.1L345.703,138.5L346.426,139.174L347.148,139.718L347.871,140.027L348.594,140.666L349.316,141.156L350.039,141.52L350.762,141.982L351.484,142.511L352.207,143.032L352.93,143.562L353.652,144.075L354.375,144.62L355.098,145.109L355.82,145.7L356.543,145.856L357.266,146.398L357.988,146.855L358.711,147.391L359.434,147.968L360.156,148.254L360.879,148.796L361.602,149.334L362.324,149.795L363.047,150.067L363.77,150.732L364.492,151.202L365.215,151.498L365.938,151.891L366.66,152.368L367.383,152.743L368.105,153.198L368.828,153.744L369.551,154.176L370.273,154.656L370.996,154.92L371.719,155.256L372.441,155.733L373.164,156.068L373.887,156.467L374.609,157.088L375.332,157.381L376.055,157.895L376.777,158.122L377.5,158.495L378.223,158.905L378.945,159.316L379.668,159.621L380.391,160.105L381.113,160.288L381.836,160.705L382.559,161.029L383.281,161.28L384.004,161.861L384.727,162.136L385.449,162.413L386.172,162.893L386.895,162.88L387.617,163.433L388.34,163.625L389.063,164.006L389.785,164.108L390.508,164.603L391.23,164.938L391.953,165.07L392.676,165.446L393.398,165.56L394.121,165.705L394.844,166.054L395.566,166.223L396.289,166.52L397.012,166.743L397.734,167.13L398.457,167.149L399.18,167.42L399.902,167.648L400.625,167.837L401.348,168.047L402.07,168.114L402.793,168.403L403.516,168.613L404.238,168.664L404.961,168.761L405.684,168.954L406.406,169.133L407.129,169.283L407.852,169.267L408.574,169.674L409.297,169.5L410.02,169.577L410.742,169.883L411.465,169.858L412.188,170.037L412.91,170.167L413.633,170.101L414.355,170.129L415.078,170.23L415.801,170.111L416.523,170.244L417.246,170.218L417.969,170.291L418.691,170.399L419.414,170.529L420.137,170.399L420.859,170.264L421.582,170.298L422.305,170.42L423.027,170.284L423.75,170.341L424.473,170.313L425.195,170.204L425.918,170.095L426.641,169.898L427.363,169.969L428.086,169.789L428.809,169.827L429.531,169.637L430.254,169.477L430.977,169.5L431.699,169.421L432.422,169.126L433.145,169.033L433.867,168.979L434.59,168.752L435.313,168.694L436.035,168.477L436.758,168.432L437.48,168.211L438.203,168.02L438.926,167.845L439.648,167.629L440.371,167.393L441.094,167.337L441.816,167.001L442.539,166.981L443.262,166.537L443.984,166.34L444.707,166.037L445.43,165.785L446.152,165.727L446.875,165.361L447.598,165.26L448.32,164.849L449.043,164.774L449.766,164.299L450.488,163.935L451.211,163.791L451.934,163.378L452.656,163.259L453.379,162.978L454.102,162.585L454.824,162.442L455.547,161.989L456.27,161.807L456.992,161.431L457.715,160.946L458.438,160.663L459.16,160.251L459.883,159.865L460.605,159.821L461.328,159.344L462.051,158.976L462.773,158.53L463.496,158.084L464.219,157.92L464.941,157.477L465.664,157.039L466.387,156.512L467.109,156.372L467.832,155.958L468.555,155.551L469.277,155.175"/><path fill="none" stroke="rgb(236, 209, 46)" stroke-width="1.5" d="M100,42.208L100.723,41.32L101.445,40.436L102.168,39.646L102.891,38.867L103.613,38.158L104.336,37.413L105.059,36.762L105.781,36.137L106.504,35.5L107.227,34.863L107.949,34.305L108.672,33.682L109.395,33.085L110.117,32.553L110.84,32.011L111.563,31.443L112.285,30.884L113.008,30.25L113.73,29.72L114.453,29.173L115.176,28.493L115.898,27.939L116.621,27.317L117.344,26.714L118.066,26.044L118.789,25.316L119.512,24.574L120.234,23.843L120.957,22.889L121.68,22.003L122.402,22.572L123.125,23.399L123.848,24.102L124.57,24.781L125.293,25.364L126.016,25.916L126.738,26.507L127.461,27.044L128.184,27.515L128.906,28.007L129.629,28.484L130.352,28.859L131.074,29.249L131.797,29.648L132.52,29.981L133.242,30.337L133.965,30.662L134.688,31.007L135.41,31.313L136.133,31.708L136.855,31.959L137.578,32.297L138.301,32.536L139.023,32.832L139.746,33.01L140.469,33.331L141.191,33.614L141.914,33.845L142.637,34.113L143.359,34.307L144.082,34.592L144.805,34.811L145.527,35.001L146.25,35.199L146.973,35.523L147.695,35.706L148.418,35.953L149.141,36.15L149.863,36.412L150.586,36.549L151.309,36.764L152.031,36.941L152.754,37.204L153.477,37.356L154.199,37.615L154.922,37.755L155.645,37.954L156.367,38.2L157.09,38.336L157.813,38.579L158.535,38.743L159.258,38.979L159.98,39.115L160.703,39.351L161.426,39.534L162.148,39.773L162.871,39.911L163.594,40.112L164.316,40.299L165.039,40.559L165.762,40.62L166.484,40.928L167.207,41.041L167.93,41.289L168.652,41.407L169.375,41.617L170.098,41.811L170.82,42.04L171.543,42.248L172.266,42.352L172.988,42.612L173.711,42.812L174.434,42.938L175.156,43.186L175.879,43.372L176.602,43.598L177.324,43.795L178.047,44.005L178.77,44.308L179.492,44.424L180.215,44.629L180.938,44.878L181.66,45.102L182.383,45.269L183.105,45.429L183.828,45.703L184.551,45.91L185.273,46.176L185.996,46.348L186.719,46.52L187.441,46.846L188.164,46.957L188.887,47.273L189.609,47.429L190.332,47.713L191.055,47.966L191.777,48.179L192.5,48.421L193.223,48.559L193.945,48.855L194.668,49.118L195.391,49.331L196.113,49.599L196.836,49.805L197.559,50.058L198.281,50.415L199.004,50.514L199.727,50.842L200.449,51.19L201.172,51.359L201.895,51.629L202.617,51.87L203.34,52.081L204.063,52.302L204.785,52.662L205.508,52.896L206.23,53.231L206.953,53.448L207.676,53.683L208.398,53.993L209.121,54.267L209.844,54.528L210.566,54.827L211.289,55.133L212.012,55.394L212.734,55.671L213.457,55.911L214.18,56.263L214.902,56.485L215.625,56.734L216.348,57.138L217.07,57.512L217.793,57.632L218.516,57.999L219.238,58.326L219.961,58.588L220.684,58.894L221.406,59.301L222.129,59.586L222.852,59.837L223.574,60.186L224.297,60.518L225.02,60.806L225.742,61.166L226.465,61.45L227.188,61.845L227.91,62.067L228.633,62.371L229.355,62.694L230.078,63.143L230.801,63.421L231.523,63.718L232.246,64.075L232.969,64.429L233.691,64.793L234.414,65.078L235.137,65.429L235.859,65.889L236.582,66.099L237.305,66.483L238.027,66.826L238.75,67.144L239.473,67.569L240.195,67.897L240.918,68.313L241.641,68.623L242.363,69.075L243.086,69.349L243.809,69.806L244.531,70.035L245.254,70.478L245.977,70.796L246.699,71.194L247.422,71.619L248.145,72.028L248.867,72.384L249.59,72.786L250.313,73.188L251.035,73.539L251.758,73.916L252.48,74.284L253.203,74.704L253.926,75.096L254.648,75.456L255.371,75.885L256.094,76.342L256.816,76.666L257.539,77.017L258.262,77.465L258.984,77.882L259.707,78.296L260.43,78.751L261.152,79.121L261.875,79.451L262.598,79.886L263.32,80.324L264.043,80.766L264.766,81.195L265.488,81.685L266.211,81.981L266.934,82.498L267.656,82.885L268.379,83.32L269.102,83.729L269.824,84.068L270.547,84.548L271.27,85.038L271.992,85.486L272.715,85.946L273.438,86.268L274.16,86.71L274.883,87.22L275.605,87.684L276.328,87.99L277.051,88.521L277.773,89.012L278.496,89.346L279.219,89.845L279.941,90.245L280.664,90.76L281.387,91.187L282.109,91.679L282.832,92.105L283.555,92.468L284.277,92.978L285,93.476L285.723,93.801L286.445,94.369L287.168,94.807L287.891,95.199L288.613,95.697L289.336,96.082L290.059,96.585L290.781,97.039L291.504,97.495L292.227,97.861L292.949,98.393L293.672,98.812L294.395,99.299L295.117,99.747L295.84,100.258L296.563,100.652L297.285,101.073L298.008,101.651L298.73,101.973L299.453,102.441L300.176,102.855L300.898,103.349L301.621,103.788L302.344,104.19L303.066,104.594L303.789,105.109L304.512,105.567L305.234,105.991L305.957,106.46L306.68,106.717L307.402,107.283L308.125,107.749L308.848,108.25L309.57,108.64L310.293,109.092L311.016,109.428L311.738,109.823L312.461,110.383L313.184,110.81L313.906,111.215L314.629,111.638L315.352,112.008L316.074,112.468L316.797,112.972L317.52,113.358L318.242,113.846L318.965,114.058L319.688,114.589L320.41,115.036L321.133,115.396L321.855,115.928L322.578,116.236L323.301,116.59L324.023,116.955L324.746,117.454L325.469,117.709L326.191,118.128L326.914,118.637L327.637,118.989L328.359,119.358L329.082,119.745L329.805,120.148L330.527,120.555L331.25,120.941L331.973,121.202L332.695,121.572L333.418,122.029L334.141,122.346L334.863,122.733L335.586,123.113L336.309,123.437L337.031,123.768L337.754,124.08L338.477,124.428L339.199,124.841L339.922,125.155L340.645,125.348L341.367,125.833L342.09,126.11L342.813,126.422L343.535,126.654L344.258,127.017L344.98,127.348L345.703,127.716L346.426,127.953L347.148,128.231L347.871,128.508L348.594,128.837L349.316,129.06L350.039,129.279L350.762,129.632L351.484,129.92L352.207,130.065L352.93,130.413L353.652,130.59L354.375,130.877L355.098,131.209L355.82,131.478L356.543,131.662L357.266,131.754L357.988,132.071L358.711,132.322L359.434,132.584L360.156,132.733L360.879,133.003L361.602,133.192L362.324,133.404L363.047,133.453L363.77,133.728L364.492,133.843L365.215,134.105L365.938,134.16L366.66,134.391L367.383,134.524L368.105,134.618L368.828,134.833L369.551,134.93L370.273,135.101L370.996,135.101L371.719,135.196L372.441,135.348L373.164,135.526L373.887,135.593L374.609,135.662L375.332,135.817L376.055,135.861L376.777,135.858L377.5,135.889L378.223,136.088L378.945,136.19L379.668,136.211L380.391,136.235L381.113,136.33L381.836,136.301L382.559,136.341L383.281,136.351L384.004,136.395L384.727,136.359L385.449,136.358L386.172,136.436L386.895,136.349L387.617,136.351L388.34,136.257L389.063,136.363L389.785,136.236L390.508,136.337L391.23,136.094L391.953,136.04L392.676,135.987L393.398,136.082L394.121,136.038L394.844,135.923L395.566,135.846L396.289,135.808L397.012,135.639L397.734,135.502L398.457,135.352L399.18,135.344L399.902,135.294L400.625,135.062L401.348,135.044L402.07,134.776L402.793,134.835L403.516,134.724L404.238,134.445L404.961,134.379L405.684,134.153L406.406,134.049L407.129,133.793L407.852,133.551L408.574,133.449L409.297,133.324L410.02,133.182L410.742,132.906L411.465,132.655L412.188,132.715L412.91,132.478L413.633,132.199L414.355,132.105L415.078,131.771L415.801,131.592L416.523,131.306L417.246,131.101L417.969,130.946L418.691,130.715L419.414,130.356L420.137,130.098L420.859,129.874L421.582,129.531L422.305,129.341L423.027,128.965L423.75,128.753L424.473,128.446L425.195,128.268L425.918,128.093L426.641,127.914L427.363,127.541L428.086,127.29L428.809,127.001L429.531,126.577L430.254,126.247L430.977,126.024L431.699,125.756L432.422,125.541L433.145,125.242L433.867,124.745L434.59,124.583L435.313,124.05L436.035,123.995L436.758,123.614L437.48,123.138L438.203,122.873L438.926,122.466L439.648,122.141L440.371,121.851L441.094,121.542L441.816,121.172L442.539,120.962L443.262,120.616L443.984,120.337L444.707,119.821L445.43,119.443L446.152,119.137L446.875,118.83L447.598,118.384L448.32,118.05L449.043,117.683L449.766,117.525L450.488,117.057L451.211,116.762L451.934,116.276L452.656,115.851L453.379,115.684L454.102,115.108L454.824,114.959L455.547,114.339L456.27,114.085L456.992,113.754L457.715,113.232L458.438,112.99L459.16,112.568L459.883,112.286L460.605,111.851L461.328,111.39L462.051,110.933L462.773,110.679L463.496,110.273L464.219,109.831L464.941,109.449L465.664,109.132L466.387,108.577L467.109,108.256L467.832,108.001L468.555,107.518L469.277,106.994"/><path fill="none" stroke="rgb(255, 130, 29)" stroke-width="1.5" d="M100,41.538L100.723,40.695L101.445,39.794L102.168,39.037L102.891,38.318L103.613,37.59L104.336,36.876L105.059,36.203L105.781,35.518L106.504,34.961L107.227,34.325L107.949,33.744L108.672,33.115L109.395,32.553L110.117,31.964L110.84,31.383L111.563,30.766L112.285,30.206L113.008,29.645L113.73,28.994L114.453,28.413L115.176,27.809L115.898,27.148L116.621,26.552L117.344,25.854L118.066,25.16L118.789,24.428L119.512,23.598L120.234,22.682L120.957,21.81L121.68,21.748L122.402,22.505L123.125,23.195L123.848,23.864L124.57,24.426L125.293,24.964L126.016,25.543L126.738,25.945L127.461,26.401L128.184,26.818L128.906,27.233L129.629,27.617L130.352,28.039L131.074,28.328L131.797,28.737L132.52,28.972L133.242,29.271L133.965,29.567L134.688,29.862L135.41,30.077L136.133,30.395L136.855,30.614L137.578,30.859L138.301,31.122L139.023,31.332L139.746,31.519L140.469,31.71L141.191,32.017L141.914,32.184L142.637,32.355L143.359,32.536L144.082,32.68L144.805,32.794L145.527,32.956L146.25,33.132L146.973,33.362L147.695,33.463L148.418,33.625L149.141,33.725L149.863,33.887L150.586,34.11L151.309,34.169L152.031,34.288L152.754,34.405L153.477,34.555L154.199,34.654L154.922,34.777L155.645,34.89L156.367,35.038L157.09,35.124L157.813,35.254L158.535,35.341L159.258,35.515L159.98,35.556L160.703,35.69L161.426,35.849L162.148,35.885L162.871,35.962L163.594,36.097L164.316,36.084L165.039,36.314L165.762,36.42L166.484,36.563L167.207,36.6L167.93,36.705L168.652,36.738L169.375,36.85L170.098,36.96L170.82,37.067L171.543,37.182L172.266,37.239L172.988,37.391L173.711,37.476L174.434,37.6L175.156,37.726L175.879,37.784L176.602,37.889L177.324,37.979L178.047,38.099L178.77,38.208L179.492,38.317L180.215,38.509L180.938,38.514L181.66,38.709L182.383,38.777L183.105,38.938L183.828,39.008L184.551,39.131L185.273,39.224L185.996,39.394L186.719,39.527L187.441,39.671L188.164,39.739L188.887,39.817L189.609,40.03L190.332,40.154L191.055,40.363L191.777,40.477L192.5,40.64L193.223,40.802L193.945,40.894L194.668,41.085L195.391,41.172L196.113,41.368L196.836,41.583L197.559,41.783L198.281,41.868L199.004,42.048L199.727,42.295L200.449,42.377L201.172,42.61L201.895,42.799L202.617,43.068L203.34,43.237L204.063,43.406L204.785,43.542L205.508,43.721L206.23,44.101L206.953,44.144L207.676,44.387L208.398,44.646L209.121,44.863L209.844,45.003L210.566,45.328L211.289,45.583L212.012,45.769L212.734,45.918L213.457,46.34L214.18,46.503L214.902,46.765L215.625,47.063L216.348,47.284L217.07,47.531L217.793,47.736L218.516,48.08L219.238,48.328L219.961,48.579L220.684,48.809L221.406,49.134L222.129,49.426L222.852,49.753L223.574,49.946L224.297,50.309L225.02,50.56L225.742,50.897L226.465,51.174L227.188,51.534L227.91,51.781L228.633,52.048L229.355,52.492L230.078,52.734L230.801,53.088L231.523,53.424L232.246,53.782L232.969,54.115L233.691,54.463L234.414,54.878L235.137,55.153L235.859,55.452L236.582,55.813L237.305,56.155L238.027,56.542L238.75,56.862L239.473,57.127L240.195,57.49L240.918,57.905L241.641,58.289L242.363,58.531L243.086,58.929L243.809,59.318L244.531,59.675L245.254,60.094L245.977,60.534L246.699,60.825L247.422,61.236L248.145,61.571L248.867,62.048L249.59,62.387L250.313,62.733L251.035,63.152L251.758,63.538L252.48,63.957L253.203,64.294L253.926,64.734L254.648,65.102L255.371,65.494L256.094,65.932L256.816,66.301L257.539,66.7L258.262,67.029L258.984,67.462L259.707,67.883L260.43,68.326L261.152,68.746L261.875,69.033L262.598,69.497L263.32,69.839L264.043,70.233L264.766,70.705L265.488,71.073L266.211,71.498L266.934,71.882L267.656,72.336L268.379,72.606L269.102,73.033L269.824,73.511L270.547,73.849L271.27,74.342L271.992,74.692L272.715,75.071L273.438,75.398L274.16,75.84L274.883,76.236L275.605,76.486L276.328,76.932L277.051,77.217L277.773,77.568L278.496,77.983L279.219,78.423L279.941,78.779L280.664,79.067L281.387,79.354L282.109,79.78L282.832,80.132L283.555,80.46L284.277,80.702L285,80.989L285.723,81.374L286.445,81.614L287.168,82.046L287.891,82.363L288.613,82.612L289.336,82.913L290.059,83.118L290.781,83.478L291.504,83.775L292.227,83.97L292.949,84.365L293.672,84.542L294.395,84.815L295.117,85.218L295.84,85.348L296.563,85.61L297.285,85.898L298.008,86.001L298.73,86.286L299.453,86.522L300.176,86.819L300.898,86.993L301.621,87.253L302.344,87.377L303.066,87.586L303.789,87.761L304.512,88.096L305.234,88.223L305.957,88.468L306.68,88.691L307.402,88.724L308.125,88.962L308.848,89.053L309.57,89.269L310.293,89.523L311.016,89.7L311.738,89.794L312.461,89.946L313.184,90.013L313.906,90.09L314.629,90.287L315.352,90.512L316.074,90.604L316.797,90.61L317.52,90.751L318.242,90.896L318.965,90.946L319.688,91.045L320.41,91.141L321.133,91.32L321.855,91.398L322.578,91.448L323.301,91.465L324.023,91.53L324.746,91.599L325.469,91.733L326.191,91.76L326.914,91.819L327.637,91.807L328.359,91.87L329.082,91.914L329.805,91.911L330.527,91.879L331.25,91.926L331.973,91.861L332.695,91.969L333.418,91.972L334.141,91.962L334.863,91.95L335.586,92L336.309,91.981L337.031,91.895L337.754,91.944L338.477,91.857L339.199,91.677L339.922,91.757L340.645,91.75L341.367,91.624L342.09,91.69L342.813,91.613L343.535,91.581L344.258,91.489L344.98,91.428L345.703,91.309L346.426,91.199L347.148,91.109L347.871,91.136L348.594,90.978L349.316,90.897L350.039,90.927L350.762,90.693L351.484,90.584L352.207,90.394L352.93,90.443L353.652,90.212L354.375,90.207L355.098,89.999L355.82,89.945L356.543,89.729L357.266,89.781L357.988,89.509L358.711,89.435L359.434,89.294L360.156,89.093L360.879,88.985L361.602,88.813L362.324,88.696L363.047,88.481L363.77,88.349L364.492,88.117L365.215,88.021L365.938,87.734L366.66,87.651L367.383,87.39L368.105,87.257L368.828,87.223L369.551,86.947L370.273,86.801L370.996,86.603L371.719,86.439L372.441,86.183L373.164,85.955L373.887,85.928L374.609,85.591L375.332,85.36L376.055,85.215L376.777,84.901L377.5,84.68L378.223,84.513L378.945,84.276L379.668,84.106L380.391,83.894L381.113,83.622L381.836,83.531L382.559,83.238L383.281,82.897L384.004,82.808L384.727,82.457L385.449,82.25L386.172,82.136L386.895,81.852L387.617,81.564L388.34,81.347L389.063,81.08L389.785,80.778L390.508,80.568L391.23,80.413L391.953,80.042L392.676,79.943L393.398,79.71L394.121,79.416L394.844,79.206L395.566,78.912L396.289,78.689L397.012,78.381L397.734,78.082L398.457,78.051L399.18,77.599L399.902,77.485L400.625,77.183L401.348,76.876L402.07,76.568L402.793,76.393L403.516,76.139L404.238,75.947L404.961,75.501L405.684,75.3L406.406,75.027L407.129,74.824L407.852,74.471L408.574,74.36L409.297,73.951L410.02,73.631L410.742,73.466L411.465,73.126L412.188,72.915L412.91,72.734L413.633,72.411L414.355,72.119L415.078,71.9L415.801,71.568L416.523,71.374L417.246,70.928L417.969,70.699L418.691,70.464L419.414,70.219L420.137,69.918L420.859,69.714L421.582,69.412L422.305,69.165L423.027,68.97L423.75,68.672L424.473,68.287L425.195,68.015L425.918,67.834L426.641,67.459L427.363,67.264L428.086,66.926L428.809,66.686L429.531,66.394L430.254,66.281L430.977,65.859L431.699,65.576L432.422,65.271L433.145,65.12L433.867,64.822L434.59,64.426L435.313,64.293L436.035,63.954L436.758,63.76L437.48,63.507L438.203,63.247L438.926,62.973L439.648,62.683L440.371,62.299L441.094,62.224L441.816,61.821L442.539,61.485L443.262,61.381L443.984,61.039L444.707,60.799L445.43,60.582L446.152,60.428L446.875,60.071L447.598,59.817L448.32,59.555L449.043,59.265L449.766,58.997L450.488,58.778L451.211,58.442L451.934,58.283L452.656,58.035L453.379,57.863L454.102,57.428L454.824,57.216L455.547,56.986L456.27,56.739L456.992,56.592L457.715,56.22L458.438,56.014L459.16,55.727L459.883,55.453L460.605,55.236L461.328,55.017L462.051,54.683L462.773,54.51L463.496,54.284L464.219,53.989L464.941,53.785L465.664,53.505L466.387,53.203L467.109,53.029L467.832,52.782L468.555,52.97L469.277,53.576"/><path fill="none" stroke="rgb(203, 47, 13)" stroke-width="1.5" d="M100,40.971L100.723,40.092L101.445,39.24L102.168,38.563L102.891,37.835L103.613,37.049L104.336,36.395L105.059,35.735L105.781,35.108L106.504,34.495L107.227,33.844L107.949,33.247L108.672,32.664L109.395,32.132L110.117,31.624L110.84,30.938L111.563,30.339L112.285,29.828L113.008,29.167L113.73,28.615L114.453,28.004L115.176,27.328L115.898,26.725L116.621,26.019L117.344,25.347L118.066,24.581L118.789,23.859L119.512,22.984L120.234,22.046L120.957,21.003L121.68,22.018L122.402,22.691L123.125,23.326L123.848,23.994L124.57,24.482L125.293,24.968L126.016,25.438L126.738,25.928L127.461,26.336L128.184,26.717L128.906,27.16L129.629,27.481L130.352,27.908L131.074,28.161L131.797,28.464L132.52,28.735L133.242,29.017L133.965,29.287L134.688,29.483L135.41,29.789L136.133,30.031L136.855,30.218L137.578,30.426L138.301,30.645L139.023,30.846L139.746,30.999L140.469,31.218L141.191,31.367L141.914,31.513L142.637,31.674L143.359,31.816L144.082,32.002L144.805,32.161L145.527,32.221L146.25,32.333L146.973,32.532L147.695,32.643L148.418,32.722L149.141,32.829L149.863,32.906L150.586,33.103L151.309,33.093L152.031,33.191L152.754,33.341L153.477,33.382L154.199,33.434L154.922,33.63L155.645,33.646L156.367,33.7L157.09,33.861L157.813,33.793L158.535,33.877L159.258,33.934L159.98,34.025L160.703,34.024L161.426,34.068L162.148,34.115L162.871,34.166L163.594,34.257L164.316,34.249L165.039,34.261L165.762,34.316L166.484,34.393L167.207,34.402L167.93,34.368L168.652,34.396L169.375,34.409L170.098,34.492L170.82,34.449L171.543,34.448L172.266,34.476L172.988,34.483L173.711,34.503L174.434,34.522L175.156,34.443L175.879,34.408L176.602,34.427L177.324,34.45L178.047,34.404L178.77,34.481L179.492,34.492L180.215,34.452L180.938,34.358L181.66,34.381L182.383,34.234L183.105,34.295L183.828,34.313L184.551,34.248L185.273,34.255L185.996,34.192L186.719,34.235L187.441,34.16L188.164,34.162L188.887,34.101L189.609,34.036L190.332,34.069L191.055,34.053L191.777,34L192.5,33.912L193.223,33.776L193.945,33.824L194.668,33.687L195.391,33.73L196.113,33.651L196.836,33.62L197.559,33.528L198.281,33.45L199.004,33.454L199.727,33.426L200.449,33.327L201.172,33.251L201.895,33.122L202.617,33.044L203.34,33.017L204.063,33.012L204.785,32.762L205.508,32.82L206.23,32.723L206.953,32.646L207.676,32.541L208.398,32.478L209.121,32.392L209.844,32.319L210.566,32.217L211.289,32.172L212.012,32.198L212.734,32.001L213.457,31.916L214.18,31.786L214.902,31.833L215.625,31.671L216.348,31.651L217.07,31.493L217.793,31.361L218.516,31.374L219.238,31.16L219.961,31.105L220.684,30.996L221.406,30.883L222.129,30.804L222.852,30.788L223.574,30.604L224.297,30.518L225.02,30.375L225.742,30.361L226.465,30.147L227.188,30.091L227.91,30.023L228.633,29.9L229.355,29.763L230.078,29.708L230.801,29.481L231.523,29.471L232.246,29.323L232.969,29.205L233.691,29.047L234.414,28.953L235.137,28.895L235.859,28.811L236.582,28.64L237.305,28.549L238.027,28.425L238.75,28.272L239.473,28.171L240.195,28.116L240.918,28.001L241.641,27.853L242.363,27.774L243.086,27.608L243.809,27.521L244.531,27.362L245.254,27.238L245.977,27.144L246.699,26.984L247.422,26.828L248.145,26.778L248.867,26.664L249.59,26.509L250.313,26.427L251.035,26.304L251.758,26.175L252.48,26.118L253.203,25.963L253.926,25.786L254.648,25.668L255.371,25.554L256.094,25.473L256.816,25.384L257.539,25.151L258.262,25.071L258.984,24.917L259.707,24.873L260.43,24.689L261.152,24.581L261.875,24.441L262.598,24.331L263.32,24.236L264.043,24.045L264.766,24.019L265.488,23.893L266.211,23.769L266.934,23.607L267.656,23.509L268.379,23.348L269.102,23.261L269.824,23.14L270.547,23.048L271.27,22.907L271.992,22.754L272.715,22.58L273.438,22.549L274.16,22.374L274.883,22.271L275.605,22.095L276.328,21.987L277.051,21.873L277.773,21.703L278.496,21.555L279.219,21.458L279.941,21.295L280.664,21.181L281.387,21.003L282.109,20.881L282.832,20.717L283.555,20.617L284.277,20.447L285,20.283L285.723,20.181L286.445,20L287.168,20.19L287.891,22.657L288.613,25.226L289.336,27.714L290.059,30.182L290.781,32.824L291.504,33.676L292.227,34.005L292.949,34.245L293.672,34.544L294.395,34.796L295.117,35.117L295.84,35.298L296.563,35.561L297.285,35.787L298.008,36.052L298.73,36.198L299.453,36.499L300.176,36.701L300.898,36.819L301.621,37.105L302.344,37.259L303.066,37.505L303.789,37.569L304.512,37.786L305.234,37.979L305.957,38.128L306.68,38.282L307.402,38.384L308.125,38.533L308.848,38.774L309.57,38.906L310.293,39.032L311.016,39.152L311.738,39.266L312.461,39.41L313.184,39.483L313.906,39.606L314.629,39.714L315.352,39.713L316.074,39.938L316.797,39.97L317.52,40.093L318.242,40.134L318.965,40.212L319.688,40.349L320.41,40.441L321.133,40.397L321.855,40.577L322.578,40.619L323.301,40.658L324.023,40.699L324.746,40.774L325.469,40.898L326.191,40.871L326.914,40.86L327.637,40.93L328.359,40.979L329.082,40.99L329.805,41.053L330.527,41.125L331.25,41.12L331.973,41.06L332.695,41.126L333.418,41.116L334.141,41.097L334.863,41.173L335.586,41.156L336.309,41.135L337.031,41.178L337.754,41.188L338.477,41.131L339.199,41.137L339.922,41.074L340.645,41.153L341.367,41.059L342.09,41.032L342.813,41.008L343.535,40.981L344.258,40.989L344.98,41.005L345.703,40.923L346.426,40.937L347.148,40.912L347.871,40.923L348.594,40.904L349.316,40.81L350.039,40.826L350.762,40.754L351.484,40.703L352.207,40.74L352.93,40.607L353.652,40.619L354.375,40.552L355.098,40.486L355.82,40.472L356.543,40.382L357.266,40.336L357.988,40.313L358.711,40.145L359.434,40.149L360.156,40.046L360.879,40.11L361.602,39.936L362.324,39.948L363.047,39.782L363.77,39.761L364.492,39.683L365.215,39.687L365.938,39.598L366.66,39.574L367.383,39.491L368.105,39.42L368.828,39.364L369.551,39.285L370.273,39.237L370.996,39.059L371.719,39.03L372.441,38.945L373.164,38.86L373.887,38.837L374.609,38.762L375.332,38.738L376.055,38.629L376.777,38.533L377.5,38.411L378.223,38.344L378.945,38.318L379.668,38.205L380.391,38.217L381.113,38.008L381.836,37.961L382.559,37.896L383.281,37.871L384.004,37.739L384.727,37.616L385.449,37.586L386.172,37.477L386.895,37.348L387.617,37.338L388.34,37.243L389.063,37.095L389.785,37.064L390.508,37.054L391.23,36.856L391.953,36.778L392.676,36.654L393.398,36.655L394.121,36.499L394.844,36.438L395.566,36.378L396.289,36.231L397.012,36.165L397.734,36.108L398.457,36.022L399.18,36.009L399.902,35.867L400.625,35.704L401.348,35.658L402.07,35.628L402.793,35.493L403.516,35.446L404.238,35.332L404.961,35.234L405.684,35.111L406.406,35.032L407.129,34.969L407.852,34.833L408.574,34.737L409.297,34.684L410.02,34.48L410.742,34.532L411.465,34.453L412.188,34.355L412.91,34.312L413.633,34.193L414.355,34.101L415.078,33.957L415.801,33.981L416.523,33.781L417.246,33.732L417.969,33.692L418.691,33.572L419.414,33.49L420.137,33.34L420.859,33.334L421.582,33.233L422.305,33.148L423.027,33.066L423.75,32.959L424.473,32.854L425.195,32.752L425.918,32.764L426.641,32.648L427.363,32.532L428.086,32.49L428.809,32.388L429.531,32.336L430.254,32.293L430.977,32.133L431.699,32.082L432.422,32.05L433.145,31.843L433.867,31.825L434.59,31.738L435.313,31.674L436.035,31.527L436.758,31.525L437.48,31.431L438.203,31.346L438.926,31.257L439.648,31.116L440.371,31.093L441.094,31.036L441.816,30.889L442.539,30.866L443.262,30.793L443.984,30.729L444.707,30.665L445.43,30.572L446.152,30.47L446.875,30.437L447.598,30.374L448.32,30.23L449.043,30.166L449.766,30.086L450.488,29.991L451.211,29.987L451.934,29.939L452.656,29.81L453.379,29.845L454.102,29.663L454.824,29.58L455.547,29.486L456.27,29.47L456.992,29.388L457.715,29.378L458.438,29.294L459.16,29.25L459.883,29.173L460.605,28.995L461.328,29.038L462.051,28.928L462.773,28.844L463.496,28.823L464.219,28.746L464.941,28.696L465.664,28.606L466.387,28.583L467.109,28.421L467.832,28.407L468.555,28.404L469.277,28.237"/><g transform="translate(0,190) scale(1.7) rotate(-90)"><text>Drift</text></g><g transform="translate(315,395) scale(1.8)"><text></text></g><g transform="translate(0,350)" fill="none" font-size="10" font-family="sans-serif" text-anchor="middle"><path class="domain" stroke="currentColor" d="M100,6V0H470V6"/><g class="tick" opacity="1" transform="translate(136.66666666666666,0)"><line stroke="currentColor" y2="6"/><text fill="currentColor" y="9" dy="0.71em" font-size="20px"> </text></g><g class="tick" opacity="1" transform="translate(173.7037037037037,0)"><line stroke="currentColor" y2="6"/><text fill="currentColor" y="9" dy="0.71em" font-size="20px">200</text></g><g class="tick" opacity="1" transform="translate(210.74074074074076,0)"><line stroke="currentColor" y2="6"/><text fill="currentColor" y="9" dy="0.71em" font-size="20px"> </text></g><g class="tick" opacity="1" transform="translate(247.77777777777777,0)"><line stroke="currentColor" y2="6"/><text fill="currentColor" y="9" dy="0.71em" font-size="20px">400</text></g><g class="tick" opacity="1" transform="translate(284.81481481481484,0)"><line stroke="currentColor" y2="6"/><text fill="currentColor" y="9" dy="0.71em" font-size="20px"> </text></g><g class="tick" opacity="1" transform="translate(321.85185185185185,0)"><line stroke="currentColor" y2="6"/><text fill="currentColor" y="9" dy="0.71em" font-size="20px">600</text></g><g class="tick" opacity="1" transform="translate(358.8888888888889,0)"><line stroke="currentColor" y2="6"/><text fill="currentColor" y="9" dy="0.71em" font-size="20px"> </text></g><g class="tick" opacity="1" transform="translate(395.9259259259259,0)"><line stroke="currentColor" y2="6"/><text fill="currentColor" y="9" dy="0.71em" font-size="20px">800</text></g><g class="tick" opacity="1" transform="translate(432.96296296296293,0)"><line stroke="currentColor" y2="6"/><text fill="currentColor" y="9" dy="0.71em" font-size="20px"> </text></g><g class="tick" opacity="1" transform="translate(470,0)"><line stroke="currentColor" y2="6"/><text fill="currentColor" y="9" dy="0.71em" font-size="20px">1000</text></g></g><g transform="translate(100,0)" fill="none" font-size="10" font-family="sans-serif" text-anchor="end"><path class="domain" stroke="currentColor" d="M-6,350H0V20H-6"/><g class="tick" opacity="1" transform="translate(0,314.002138497519)"><line stroke="currentColor" x2="-6"/><text fill="currentColor" x="-9" dy="0.32em" font-size="20px">0.7</text></g><g class="tick" opacity="1" transform="translate(0,270.85664610864427)"><line stroke="currentColor" x2="-6"/><text fill="currentColor" x="-9" dy="0.32em" font-size="20px">0.6</text></g><g class="tick" opacity="1" transform="translate(0,227.71115371976947)"><line stroke="currentColor" x2="-6"/><text fill="currentColor" x="-9" dy="0.32em" font-size="20px">0.5</text></g><g class="tick" opacity="1" transform="translate(0,184.5656613308947)"><line stroke="currentColor" x2="-6"/><text fill="currentColor" x="-9" dy="0.32em" font-size="20px">0.4</text></g><g class="tick" opacity="1" transform="translate(0,141.4201689420199)"><line stroke="currentColor" x2="-6"/><text fill="currentColor" x="-9" dy="0.32em" font-size="20px">0.3</text></g><g class="tick" opacity="1" transform="translate(0,98.27467655314513)"><line stroke="currentColor" x2="-6"/><text fill="currentColor" x="-9" dy="0.32em" font-size="20px">0.2</text></g><g class="tick" opacity="1" transform="translate(0,55.12918416427031)"><line stroke="currentColor" x2="-6"/><text fill="currentColor" x="-9" dy="0.32em" font-size="20px">0.1</text></g></g><circle cx="120" cy="155" r="8" style="fill: rgb(35, 23, 27);"/><circle cx="120" cy="180" r="8" style="fill: rgb(69, 105, 238);"/><circle cx="120" cy="205" r="8" style="fill: rgb(38, 188, 225);"/><circle cx="120" cy="230" r="8" style="fill: rgb(63, 243, 147);"/><circle cx="120" cy="255" r="8" style="fill: rgb(149, 251, 81);"/><circle cx="120" cy="280" r="8" style="fill: rgb(236, 209, 46);"/><circle cx="120" cy="305" r="8" style="fill: rgb(255, 130, 29);"/><circle cx="120" cy="330" r="8" style="fill: rgb(203, 47, 13);"/><text x="135" y="155" text-anchor="left" font-size="22" alignment-baseline="middle" style="fill: rgb(35, 23, 27);"> = 0</text><text x="135" y="180" text-anchor="left" font-size="22" alignment-baseline="middle" style="fill: rgb(69, 105, 238);"> = 0.22</text><text x="135" y="205" text-anchor="left" font-size="22" alignment-baseline="middle" style="fill: rgb(38, 188, 225);"> = 0.45</text><text x="135" y="230" text-anchor="left" font-size="22" alignment-baseline="middle" style="fill: rgb(63, 243, 147);"> = 0.67</text><text x="135" y="255" text-anchor="left" font-size="22" alignment-baseline="middle" style="fill: rgb(149, 251, 81);"> = 0.9</text><text x="135" y="280" text-anchor="left" font-size="22" alignment-baseline="middle" style="fill: rgb(236, 209, 46);"> = 1.12</text><text x="135" y="305" text-anchor="left" font-size="22" alignment-baseline="middle" style="fill: rgb(255, 130, 29);"> = 1.35</text><text x="135" y="330" text-anchor="left" font-size="22" alignment-baseline="middle" style="fill: rgb(203, 47, 13);"> = 1.57</text></svg>