<svg xmlns="http://www.w3.org/2000/svg" class="bg-white" width="500" height="400" viewBox="-31.400000000000002 -25.870000000000047 550 440.00000000000006"><path fill="none" stroke="rgb(35, 23, 27)" stroke-width="1.5" d="M100,64.039L100.723,303.032L101.445,302.646L102.168,302.633L102.891,302.585L103.613,302.823L104.336,302.829L105.059,303.724L105.781,303.752L106.504,303.679L107.227,303.013L107.949,303.018L108.672,303.022L109.395,303.338L110.117,303.315L110.84,303.718L111.563,303.721L112.285,303.727L113.008,303.632L113.73,303.661L114.453,302.801L115.176,302.815L115.898,302.49L116.621,302.501L117.344,302.5L118.066,302.502L118.789,302.506L119.512,302.894L120.234,302.89L120.957,302.995L121.68,302.289L122.402,302.839L123.125,303.109L123.848,303.094L124.57,302.136L125.293,301.861L126.016,302.994L126.738,302.977L127.461,303.624L128.184,301.831L128.906,302.69L129.629,302.675L130.352,303.693L131.074,302.075L131.797,302.587L132.52,302.513L133.242,302.498L133.965,303.528L134.688,303.514L135.41,302.449L136.133,302.413L136.855,302.394L137.578,302.714L138.301,303.494L139.023,302.68L139.746,301.909L140.469,301.895L141.191,302.663L141.914,302.255L142.637,302.647L143.359,302.066L144.082,301.869L144.805,302.219L145.527,301.628L146.25,302.21L146.973,302.011L147.695,303.229L148.418,303.223L149.141,301.476L149.863,301.688L150.586,302.337L151.309,302.348L152.031,302.347L152.754,301.929L153.477,301.464L154.199,301.453L154.922,302.285L155.645,302.297L156.367,301.887L157.09,301.872L157.813,301.855L158.535,302.162L159.258,302.887L159.98,301.792L160.703,301.785L161.426,302.849L162.148,302.587L162.871,302.604L163.594,302.129L164.316,301.874L165.039,302.144L165.762,301.832L166.484,301.194L167.207,301.165L167.93,302L168.652,302.122L169.375,301.878L170.098,301.873L170.82,301.582L171.543,301.862L172.266,302.153L172.988,301.073L173.711,301.082L174.434,302.832L175.156,301.952L175.879,301.927L176.602,301.879L177.324,302.811L178.047,301.703L178.77,302.941L179.492,302.628L180.215,302.018L180.938,302.034L181.66,302.043L182.383,302.57L183.105,302.8L183.828,302.79L184.551,302.039L185.273,302.746L185.996,301.518L186.719,302.091L187.441,302.5L188.164,302.451L188.887,302.026L189.609,302.052L190.332,302.876L191.055,301.762L191.777,301.792L192.5,302.017L193.223,301.489L193.945,301.766L194.668,302.227L195.391,302.253L196.113,302.147L196.836,302.133L197.559,302.119L198.281,302.023L199.004,302.048L199.727,302.061L200.449,302.091L201.172,302.105L201.895,301.987L202.617,301.996L203.34,302.148L204.063,302.503L204.785,301.949L205.508,302.523L206.23,301.664L206.953,301.726L207.676,301.682L208.398,301.676L209.121,301.149L209.844,302.163L210.566,301.828L211.289,301.836L212.012,302.674L212.734,302.571L213.457,301.746L214.18,301.715L214.902,301.091L215.625,301.497L216.348,301.473L217.07,301.134L217.793,301.691L218.516,302.277L219.238,301.317L219.961,302.247L220.684,301.811L221.406,301.656L222.129,301.64L222.852,301.547L223.574,302.268L224.297,301.814L225.02,301.488L225.742,301.496L226.465,302.044L227.188,301.173L227.91,301.188L228.633,300.756L229.355,300.762L230.078,300.743L230.801,301.424L231.523,301.436L232.246,300.388L232.969,300.396L233.691,302.71L234.414,302.687L235.137,300.387L235.859,301.454L236.582,302.028L237.305,300.447L238.027,301.918L238.75,301.997L239.473,301.394L240.195,301.775L240.918,300.478L241.641,301.857L242.363,301.624L243.086,301.662L243.809,301.69L244.531,301.748L245.254,300.514L245.977,302.021L246.699,302.025L247.422,301.787L248.145,301.847L248.867,302.084L249.59,301.854L250.313,302.052L251.035,301.676L251.758,301.533L252.48,301.539L253.203,301.465L253.926,301.431L254.648,301.565L255.371,301.423L256.094,301.398L256.816,302.411L257.539,301.908L258.262,301.884L258.984,301.441L259.707,301.064L260.43,301.424L261.152,301.434L261.875,302.707L262.598,302.098L263.32,301.242L264.043,301.907L264.766,301.144L265.488,301.609L266.211,301.324L266.934,302.684L267.656,302.339L268.379,302.131L269.102,301.29L269.824,301.977L270.547,302.001L271.27,302.286L271.992,301.272L272.715,301.256L273.438,301.97L274.16,301.772L274.883,300.693L275.605,301.181L276.328,300.892L277.051,300.656L277.773,300.779L278.496,301.209L279.219,301.14L279.941,301.54L280.664,301.179L281.387,301.197L282.109,301.2L282.832,301.638L283.555,300.755L284.277,301.209L285,301.58L285.723,300.873L286.445,301.916L287.168,301.379L287.891,301.399L288.613,300.829L289.336,300.992L290.059,301.537L290.781,301.457L291.504,301.502L292.227,301.569L292.949,300.907L293.672,301.59L294.395,301.408L295.117,301.523L295.84,301.695L296.563,301.347L297.285,300.987L298.008,301.009L298.73,301.873L299.453,301.083L300.176,302.069L300.898,302.057L301.621,300.952L302.344,302.031L303.066,300.917L303.789,301.962L304.512,301.536L305.234,302.018L305.957,302.398L306.68,301.055L307.402,301.118L308.125,301.21L308.848,302.029L309.57,302.61L310.293,300.563L311.016,301.158L311.738,301.159L312.461,302.393L313.184,300.654L313.906,301.533L314.629,301.213L315.352,301.124L316.074,301.954L316.797,301.108L317.52,302.047L318.242,302.073L318.965,302.085L319.688,302.012L320.41,301.135L321.133,301.763L321.855,301.47L322.578,301.007L323.301,301.794L324.023,301.906L324.746,301.132L325.469,301.777L326.191,301.736L326.914,301.605L327.637,302.1L328.359,301.711L329.082,300.522L329.805,302.217L330.527,301.748L331.25,301.717L331.973,301.8L332.695,301.349L333.418,300.499L334.141,301.65L334.863,302.216L335.586,302.187L336.309,301.62L337.031,302.102L337.754,301.711L338.477,302.134L339.199,300.793L339.922,302.165L340.645,302.328L341.367,301.655L342.09,302.05L342.813,300.488L343.535,300.885L344.258,300.815L344.98,301.484L345.703,302.253L346.426,301.965L347.148,301.135L347.871,302.295L348.594,301.957L349.316,301.489L350.039,303.008L350.762,301.276L351.484,301.211L352.207,301.275L352.93,302.17L353.652,301.568L354.375,301.194L355.098,301.573L355.82,301.13L356.543,302.082L357.266,301.025L357.988,301.176L358.711,301.971L359.434,301.876L360.156,301.954L360.879,301.605L361.602,302.183L362.324,302.195L363.047,302.715L363.77,301.246L364.492,301.918L365.215,301.826L365.938,302.471L366.66,302.442L367.383,302.478L368.105,301.116L368.828,302.899L369.551,302.05L370.273,300.579L370.996,302.061L371.719,302.575L372.441,301.466L373.164,300.496L373.887,301.462L374.609,301.339L375.332,301.452L376.055,300.87L376.777,300.847L377.5,302.693L378.223,301.397L378.945,302.59L379.668,302.529L380.391,300.427L381.113,301.71L381.836,302.657L382.559,301.44L383.281,301.761L384.004,302.099L384.727,301.379L385.449,301.607L386.172,301.86L386.895,302.223L387.617,302.265L388.34,302.866L389.063,301.583L389.785,301.888L390.508,301.634L391.23,302.324L391.953,302.408L392.676,302.712L393.398,301.795L394.121,302.39L394.844,302.748L395.566,302.572L396.289,303.425L397.012,301.881L397.734,301.972L398.457,301.994L399.18,302.589L399.902,302.088L400.625,303.616L401.348,303.33L402.07,303.387L402.793,302.099L403.516,302.145L404.238,302.703L404.961,302.183L405.684,302.208L406.406,302.551L407.129,302.282L407.852,302.146L408.574,302.185L409.297,302.217L410.02,302.287L410.742,303.154L411.465,303.787L412.188,302.595L412.91,303.418L413.633,302.453L414.355,303.467L415.078,302.419L415.801,302.613L416.523,302.548L417.246,303.062L417.969,302.106L418.691,303.119L419.414,303.037L420.137,302.823L420.859,303.05L421.582,302.775L422.305,302.906L423.027,302.802L423.75,302.595L424.473,303.868L425.195,303.24L425.918,303.309L426.641,304.115L427.363,302.813L428.086,303.09L428.809,303.11L429.531,304.196L430.254,303.313L430.977,304.27L431.699,304.055L432.422,302.985L433.145,303.367L433.867,303.963L434.59,303.982L435.313,303.194L436.035,304.032L436.758,303.732L437.48,303.777L438.203,304.494L438.926,302.972L439.648,302.914L440.371,303.193L441.094,304.494L441.816,303.996L442.539,304.586L443.262,304.971L443.984,304.291L444.707,303.975L445.43,303.519L446.152,304.136L446.875,304.42L447.598,305.206L448.32,304.442L449.043,305.135L449.766,304.932L450.488,304.134L451.211,305.461L451.934,304.702L452.656,304.524L453.379,304.114L454.102,304.288L454.824,305.179L455.547,304.385L456.27,305.508L456.992,306.268L457.715,305.714L458.438,304.709L459.16,306.3L459.883,306.334L460.605,306.441L461.328,306.427L462.051,305.496L462.773,306.034L463.496,305.724L464.219,306.134L464.941,305.986L465.664,305.996L466.387,305.521L467.109,304.959L467.832,306.048L468.555,305.292L469.277,305.607"/><path fill="none" stroke="rgb(69, 105, 238)" stroke-width="1.5" d="M100,20L100.723,345.943L101.445,345.946L102.168,346.883L102.891,345.656L103.613,346.761L104.336,345.861L105.059,345.515L105.781,346.455L106.504,346.199L107.227,346.182L107.949,345.794L108.672,346.278L109.395,346.435L110.117,346.394L110.84,346.29L111.563,345.7L112.285,345.643L113.008,345.482L113.73,346.721L114.453,346.884L115.176,346.23L115.898,346.486L116.621,345.469L117.344,346.786L118.066,345.084L118.789,347.11L119.512,346.95L120.234,345.378L120.957,345.645L121.68,345.901L122.402,345.817L123.125,346.05L123.848,346.988L124.57,345.567L125.293,347.145L126.016,345.765L126.738,346.434L127.461,346.087L128.184,345.343L128.906,345.573L129.629,346.849L130.352,346.069L131.074,344.726L131.797,345.362L132.52,346.126L133.242,345.673L133.965,346.569L134.688,345.551L135.41,346.905L136.133,345.591L136.855,345.645L137.578,345.908L138.301,345.361L139.023,346.135L139.746,346.088L140.469,345.425L141.191,346.767L141.914,345.758L142.637,345.511L143.359,346.085L144.082,345.54L144.805,345.698L145.527,345.434L146.25,346.004L146.973,345.493L147.695,345.742L148.418,346.054L149.141,345.306L149.863,345.028L150.586,345.456L151.309,346.421L152.031,345.076L152.754,345.545L153.477,346.427L154.199,345.202L154.922,345.733L155.645,344.747L156.367,346.359L157.09,345.532L157.813,346.07L158.535,345.234L159.258,345.301L159.98,346.75L160.703,345.64L161.426,345.656L162.148,344.784L162.871,344.848L163.594,345.925L164.316,345.938L165.039,345.131L165.762,345.918L166.484,345.706L167.207,345.851L167.93,345.975L168.652,345.169L169.375,346.647L170.098,344.53L170.82,345.926L171.543,345.499L172.266,345.401L172.988,344.923L173.711,345.799L174.434,346.592L175.156,345.887L175.879,345.383L176.602,345.709L177.324,346.483L178.047,345.725L178.77,345.589L179.492,344.533L180.215,345.761L180.938,345.651L181.66,345.648L182.383,345.607L183.105,345.418L183.828,344.718L184.551,345.624L185.273,345.295L185.996,344.711L186.719,344.722L187.441,344.986L188.164,344.913L188.887,344.886L189.609,345.171L190.332,344.993L191.055,345.461L191.777,345.099L192.5,345.422L193.223,345.325L193.945,346.536L194.668,345.633L195.391,345.731L196.113,345.155L196.836,345.5L197.559,345.638L198.281,344.512L199.004,344.734L199.727,344.724L200.449,345.613L201.172,345.374L201.895,345.205L202.617,344.21L203.34,345.261L204.063,344.221L204.785,344.183L205.508,345.079L206.23,345.079L206.953,345.341L207.676,345.314L208.398,345.342L209.121,345.186L209.844,344.263L210.566,345.469L211.289,344.996L212.012,344.352L212.734,344.942L213.457,345.305L214.18,344.261L214.902,344.733L215.625,345.583L216.348,345.218L217.07,345.064L217.793,345.232L218.516,345.846L219.238,344.825L219.961,344.742L220.684,345.83L221.406,344.264L222.129,345.109L222.852,346.139L223.574,345.029L224.297,345.293L225.02,345.086L225.742,345.508L226.465,345.349L227.188,345.738L227.91,344.993L228.633,344.955L229.355,344.979L230.078,345.003L230.801,345.267L231.523,345.904L232.246,345.887L232.969,344.358L233.691,345.55L234.414,345.581L235.137,345.551L235.859,345.76L236.582,345.649L237.305,344.339L238.027,345.137L238.75,345.216L239.473,345.563L240.195,345.387L240.918,345.648L241.641,345.221L242.363,345.313L243.086,344.968L243.809,344.61L244.531,345.378L245.254,345.769L245.977,345.404L246.699,344.502L247.422,345.699L248.145,344.788L248.867,344.592L249.59,345.533L250.313,345.026L251.035,344.94L251.758,344.754L252.48,344.485L253.203,345.074L253.926,345.095L254.648,344.736L255.371,344.377L256.094,344.839L256.816,344.124L257.539,344.411L258.262,346.627L258.984,344.161L259.707,345.359L260.43,345.819L261.152,345.346L261.875,344.954L262.598,344.552L263.32,344.877L264.043,344.953L264.766,344.118L265.488,344.061L266.211,345.303L266.934,345.333L267.656,344.674L268.379,344.508L269.102,344.837L269.824,345.006L270.547,344.702L271.27,344.813L271.992,343.971L272.715,344.821L273.438,344.068L274.16,344.741L274.883,344.356L275.605,344.387L276.328,344.796L277.051,343.448L277.773,343.954L278.496,345.441L279.219,344.661L279.941,344.882L280.664,344.903L281.387,343.942L282.109,345.257L282.832,344.736L283.555,343.739L284.277,344.332L285,344.098L285.723,345.093L286.445,344.617L287.168,347.164L287.891,344.522L288.613,344.175L289.336,345.49L290.059,343.756L290.781,344.543L291.504,345.503L292.227,344.52L292.949,345.514L293.672,343.451L294.395,344.527L295.117,347.023L295.84,345.097L296.563,345.469L297.285,345.043L298.008,345.062L298.73,344.023L299.453,344.676L300.176,344.57L300.898,344.914L301.621,345.485L302.344,345.356L303.066,344.867L303.789,345.004L304.512,345.13L305.234,344.625L305.957,344.913L306.68,345.069L307.402,344.892L308.125,345.075L308.848,345.3L309.57,343.967L310.293,345.057L311.016,345.212L311.738,345.628L312.461,344.974L313.184,344.445L313.906,344.454L314.629,344.666L315.352,343.994L316.074,345.604L316.797,344.822L317.52,344.806L318.242,345.199L318.965,345.141L319.688,345.02L320.41,344.99L321.133,344.786L321.855,344.97L322.578,344.92L323.301,344.69L324.023,344.627L324.746,346.805L325.469,345.117L326.191,345.253L326.914,345.979L327.637,346.006L328.359,345.379L329.082,343.972L329.805,344.582L330.527,343.957L331.25,344.945L331.973,344.908L332.695,343.998L333.418,344.845L334.141,344.829L334.863,346.983L335.586,344.596L336.309,344.678L337.031,344.161L337.754,345.208L338.477,345.831L339.199,344.973L339.922,344.963L340.645,345.122L341.367,344.513L342.09,344.751L342.813,344.435L343.535,345.798L344.258,346.714L344.98,345.171L345.703,344.814L346.426,345.072L347.148,345.34L347.871,345.365L348.594,345.075L349.316,345.643L350.039,345.589L350.762,344.378L351.484,345.226L352.207,345.518L352.93,344.867L353.652,346.532L354.375,345L355.098,344.682L355.82,345.267L356.543,345.879L357.266,344.74L357.988,346.331L358.711,346.311L359.434,345.278L360.156,345.389L360.879,344.84L361.602,344.673L362.324,345.151L363.047,346.094L363.77,346.08L364.492,344.724L365.215,346.069L365.938,346.048L366.66,345.34L367.383,345.225L368.105,345.049L368.828,345.124L369.551,344.838L370.273,345.095L370.996,345.882L371.719,345.125L372.441,346.134L373.164,344.991L373.887,345.58L374.609,345.887L375.332,345.857L376.055,345.103L376.777,345.547L377.5,345.55L378.223,345.745L378.945,345.915L379.668,345.103L380.391,346.331L381.113,345.6L381.836,345.73L382.559,345.641L383.281,345.565L384.004,345.5L384.727,345.877L385.449,346.228L386.172,345.755L386.895,345.378L387.617,345.765L388.34,345.983L389.063,346.403L389.785,345.494L390.508,345.987L391.23,346.011L391.953,345.596L392.676,346.087L393.398,346.03L394.121,346.059L394.844,346.351L395.566,346.518L396.289,346.138L397.012,346.185L397.734,346.065L398.457,346.091L399.18,346.877L399.902,346.294L400.625,345.831L401.348,345.748L402.07,345.203L402.793,346.911L403.516,346.967L404.238,347.002L404.961,347.245L405.684,347.075L406.406,346.392L407.129,346.318L407.852,345.417L408.574,347.385L409.297,346.544L410.02,345.995L410.742,345.447L411.465,346.398L412.188,346.281L412.91,345.559L413.633,347.457L414.355,347.559L415.078,347.458L415.801,346.116L416.523,346.163L417.246,345.994L417.969,346.868L418.691,346.46L419.414,345.713L420.137,347.203L420.859,347.866L421.582,346.456L422.305,347.54L423.027,347.556L423.75,346.013L424.473,347.594L425.195,346.582L425.918,346.722L426.641,346.761L427.363,346.824L428.086,346.896L428.809,347.854L429.531,347.625L430.254,346.888L430.977,345.986L431.699,346.905L432.422,347.274L433.145,347.194L433.867,347.218L434.59,346.851L435.313,347.425L436.035,347.311L436.758,347.324L437.48,347.026L438.203,347.259L438.926,347.423L439.648,347.803L440.371,347.501L441.094,346.924L441.816,348.086L442.539,348.831L443.262,347.788L443.984,347.398L444.707,347.956L445.43,347.723L446.152,348.115L446.875,347.438L447.598,348.218L448.32,348.218L449.043,348.384L449.766,347.315L450.488,348.872L451.211,348.456L451.934,348.072L452.656,348.357L453.379,347.782L454.102,346.948L454.824,347.638L455.547,348.437L456.27,348.934L456.992,348.572L457.715,348.215L458.438,349.609L459.16,348.002L459.883,348.588L460.605,349.263L461.328,348.667L462.051,348.418L462.773,348.298L463.496,349.62L464.219,347.773L464.941,349.804L465.664,349.941L466.387,348.812L467.109,349.021L467.832,349.628L468.555,350L469.277,348.206"/><path fill="none" stroke="rgb(38, 188, 225)" stroke-width="1.5" d="M100,98.93L100.723,267.389L101.445,267.536L102.168,267.409L102.891,267.803L103.613,267.004L104.336,266.23L105.059,267.246L105.781,267.255L106.504,267.59L107.227,267.689L107.949,267.099L108.672,267.75L109.395,267.928L110.117,266.868L110.84,267.347L111.563,266.895L112.285,267.561L113.008,266.998L113.73,267.256L114.453,267.507L115.176,266.998L115.898,267.423L116.621,267.819L117.344,266.954L118.066,267.415L118.789,267.297L119.512,268.312L120.234,267.913L120.957,267.186L121.68,266.312L122.402,267.435L123.125,267.565L123.848,267.008L124.57,268.154L125.293,267.667L126.016,266.85L126.738,268.169L127.461,267.615L128.184,266.754L128.906,267.918L129.629,267.036L130.352,267.172L131.074,268.073L131.797,266.763L132.52,267.456L133.242,267.123L133.965,266.774L134.688,267.09L135.41,266.459L136.133,267.483L136.855,266.555L137.578,267.675L138.301,267.94L139.023,267.513L139.746,267.418L140.469,267.627L141.191,267.346L141.914,266.686L142.637,267.422L143.359,266.942L144.082,267.403L144.805,267.247L145.527,266.933L146.25,266.577L146.973,267.242L147.695,267.169L148.418,266.319L149.141,266.345L149.863,266.908L150.586,266.673L151.309,268.232L152.031,267.494L152.754,266.081L153.477,266.681L154.199,267.339L154.922,267.449L155.645,267.294L156.367,267.309L157.09,267.278L157.813,267.656L158.535,267.409L159.258,266.704L159.98,267.153L160.703,267.835L161.426,267.2L162.148,267.563L162.871,268.704L163.594,267.432L164.316,266.544L165.039,267.593L165.762,266.417L166.484,266.612L167.207,267.626L167.93,267.244L168.652,266.943L169.375,266.925L170.098,268.017L170.82,266.289L171.543,267.11L172.266,267.466L172.988,268.385L173.711,267.108L174.434,266.433L175.156,267.027L175.879,266.607L176.602,267.514L177.324,267.166L178.047,266.172L178.77,267.066L179.492,266.642L180.215,267.337L180.938,268.024L181.66,267.497L182.383,267.336L183.105,266.69L183.828,266.703L184.551,267.185L185.273,267.369L185.996,267.219L186.719,267.627L187.441,266.096L188.164,266.658L188.887,267.395L189.609,267.466L190.332,266.849L191.055,267.545L191.777,266.496L192.5,267.136L193.223,266.027L193.945,267.466L194.668,267.371L195.391,267.327L196.113,266.619L196.836,266.823L197.559,267.781L198.281,266.943L199.004,266.703L199.727,267.431L200.449,267.081L201.172,266.602L201.895,266.599L202.617,266.734L203.34,266.687L204.063,266.213L204.785,266.753L205.508,266.488L206.23,266.603L206.953,266.452L207.676,267.656L208.398,266.491L209.121,266.604L209.844,266.382L210.566,266.199L211.289,266.466L212.012,266.583L212.734,267.013L213.457,266.685L214.18,265.829L214.902,266.104L215.625,266.534L216.348,266.751L217.07,266.542L217.793,267.414L218.516,266.542L219.238,266.097L219.961,266.506L220.684,266.825L221.406,266.893L222.129,267.312L222.852,266.728L223.574,266.534L224.297,266.054L225.02,265.842L225.742,267.025L226.465,265.932L227.188,266.967L227.91,266.836L228.633,266.843L229.355,267.742L230.078,265.62L230.801,267.302L231.523,266.478L232.246,266.437L232.969,265.898L233.691,266.415L234.414,265.724L235.137,266.149L235.859,267.024L236.582,266.023L237.305,266.378L238.027,266.116L238.75,266.551L239.473,266.134L240.195,266.196L240.918,266.911L241.641,265.991L242.363,266.345L243.086,266.649L243.809,265.412L244.531,266.778L245.254,266.237L245.977,266.985L246.699,265.278L247.422,266.672L248.145,266.681L248.867,265.65L249.59,266.373L250.313,266.802L251.035,266.783L251.758,265.616L252.48,266.458L253.203,266.113L253.926,266.516L254.648,266.322L255.371,265.44L256.094,266.017L256.816,266.128L257.539,266.47L258.262,266.292L258.984,265.967L259.707,266.389L260.43,266.809L261.152,266.033L261.875,266.205L262.598,265.639L263.32,267.209L264.043,265.523L264.766,266.285L265.488,266.529L266.211,265.714L266.934,266.975L267.656,267.479L268.379,266.567L269.102,266.88L269.824,267.798L270.547,267.292L271.27,267.214L271.992,266.136L272.715,265.473L273.438,266.521L274.16,267.593L274.883,267.587L275.605,266.443L276.328,265.37L277.051,266.429L277.773,266.686L278.496,265.945L279.219,267.064L279.941,266.384L280.664,266.058L281.387,265.374L282.109,266.464L282.832,265.447L283.555,267.044L284.277,267.351L285,266.551L285.723,266.151L286.445,266.618L287.168,265.437L287.891,266.413L288.613,265.656L289.336,266.47L290.059,267.482L290.781,266.45L291.504,265.532L292.227,265.513L292.949,266.979L293.672,267.349L294.395,265.718L295.117,267.323L295.84,266.799L296.563,265.938L297.285,266.366L298.008,266.16L298.73,266.32L299.453,266.023L300.176,265.987L300.898,267.143L301.621,266.185L302.344,266.304L303.066,266.433L303.789,266.277L304.512,266.231L305.234,266.708L305.957,267.2L306.68,266.646L307.402,266.256L308.125,266.007L308.848,266.411L309.57,266.714L310.293,266.233L311.016,266.993L311.738,266.706L312.461,266.415L313.184,265.35L313.906,266.458L314.629,266.257L315.352,266.783L316.074,266.104L316.797,266.862L317.52,266.01L318.242,266.493L318.965,267.216L319.688,266.526L320.41,266.684L321.133,265.894L321.855,266.495L322.578,266.147L323.301,266.548L324.023,266.558L324.746,266.348L325.469,267.269L326.191,266.388L326.914,266.672L327.637,266.201L328.359,267.324L329.082,266.649L329.805,266.612L330.527,266.67L331.25,266.238L331.973,266.64L332.695,267.764L333.418,265.646L334.141,267.088L334.863,266.93L335.586,267.775L336.309,267.267L337.031,267.661L337.754,265.93L338.477,266.174L339.199,267.219L339.922,266.199L340.645,265.851L341.367,265.887L342.09,266.243L342.813,266.525L343.535,266.945L344.258,266.204L344.98,266.774L345.703,266.432L346.426,266.473L347.148,266.272L347.871,267.896L348.594,267.855L349.316,266.053L350.039,266.123L350.762,267.651L351.484,267.046L352.207,267.055L352.93,267.118L353.652,266.99L354.375,268.05L355.098,266.653L355.82,265.936L356.543,266.4L357.266,266.167L357.988,266.947L358.711,266.623L359.434,265.959L360.156,267.218L360.879,266.824L361.602,266.818L362.324,266.423L363.047,266.703L363.77,267.606L364.492,267.305L365.215,267.175L365.938,266.46L366.66,265.728L367.383,266.384L368.105,267.183L368.828,267.215L369.551,267.189L370.273,266.412L370.996,267.213L371.719,267.12L372.441,266.239L373.164,267.107L373.887,265.947L374.609,266.877L375.332,266.207L376.055,268.447L376.777,266.576L377.5,266.401L378.223,268.008L378.945,267.543L379.668,267.224L380.391,267.899L381.113,266.91L381.836,266.433L382.559,267.441L383.281,267.78L384.004,267.235L384.727,266.118L385.449,266.956L386.172,268.426L386.895,267.453L387.617,266.353L388.34,267.778L389.063,266.434L389.785,267.832L390.508,267.358L391.23,267.582L391.953,266.799L392.676,268.673L393.398,268.711L394.121,267.082L394.844,267.039L395.566,267.596L396.289,267.655L397.012,268.038L397.734,267.035L398.457,267.055L399.18,269.021L399.902,268.318L400.625,267.973L401.348,267.708L402.07,267.072L402.793,267.653L403.516,267.206L404.238,267.748L404.961,269.312L405.684,267.645L406.406,266.716L407.129,267.792L407.852,267.798L408.574,268.2L409.297,267.462L410.02,267.071L410.742,268.031L411.465,267.387L412.188,268.13L412.91,268.608L413.633,267.793L414.355,267.787L415.078,269.379L415.801,267.486L416.523,267.137L417.246,267.377L417.969,268.02L418.691,267.983L419.414,268.541L420.137,268.217L420.859,268.351L421.582,267.659L422.305,267.304L423.027,268.866L423.75,268.538L424.473,268.404L425.195,269.339L425.918,268.653L426.641,268.985L427.363,269.711L428.086,267.994L428.809,269.503L429.531,269.129L430.254,269.179L430.977,269.52L431.699,268.517L432.422,269.29L433.145,268.721L433.867,269.853L434.59,268.548L435.313,269.494L436.035,270.149L436.758,270.292L437.48,269.815L438.203,270.075L438.926,269.902L439.648,270.093L440.371,270.011L441.094,269.927L441.816,269.866L442.539,269.659L443.262,270.054L443.984,269.865L444.707,270.041L445.43,270.613L446.152,269.93L446.875,270.13L447.598,270.548L448.32,269.978L449.043,270.241L449.766,271.691L450.488,270.66L451.211,269.629L451.934,269.549L452.656,270.565L453.379,270.568L454.102,270.557L454.824,270.51L455.547,270.634L456.27,271.178L456.992,270.17L457.715,270.842L458.438,272.159L459.16,270.175L459.883,270.426L460.605,271.018L461.328,271.056L462.051,271.026L462.773,271.076L463.496,271.736L464.219,271.343L464.941,271.017L465.664,270.043L466.387,271.672L467.109,270.731L467.832,271.209L468.555,272.305L469.277,271.61"/><path fill="none" stroke="rgb(63, 243, 147)" stroke-width="1.5" d="M100,172.734L100.723,194.674L101.445,193.923L102.168,194.347L102.891,193.083L103.613,193.906L104.336,194.642L105.059,194.641L105.781,193.582L106.504,194.032L107.227,193.712L107.949,192.93L108.672,193.589L109.395,193.741L110.117,193.802L110.84,192.655L111.563,193.919L112.285,193.217L113.008,193.553L113.73,194.496L114.453,194.746L115.176,193.902L115.898,193.833L116.621,193.927L117.344,193.666L118.066,192.644L118.789,193.045L119.512,194.13L120.234,193.912L120.957,194.197L121.68,194.383L122.402,194.61L123.125,194.105L123.848,193.814L124.57,193.466L125.293,193.075L126.016,193.754L126.738,193.795L127.461,192.713L128.184,193.561L128.906,193.969L129.629,193.433L130.352,193.096L131.074,193.957L131.797,194.177L132.52,194.032L133.242,193.266L133.965,192.84L134.688,193.124L135.41,192.616L136.133,194.08L136.855,194.062L137.578,194.588L138.301,193.79L139.023,193.848L139.746,193.53L140.469,194.007L141.191,193.211L141.914,194.662L142.637,194.223L143.359,193.405L144.082,194.218L144.805,193.545L145.527,194.305L146.25,193.459L146.973,193.767L147.695,193.899L148.418,193.399L149.141,193.517L149.863,193.207L150.586,193.748L151.309,194.338L152.031,193.914L152.754,193.976L153.477,193.595L154.199,192.755L154.922,192.852L155.645,193.907L156.367,193.859L157.09,194.107L157.813,193.757L158.535,194.272L159.258,194.04L159.98,193.7L160.703,194.751L161.426,192.792L162.148,192.778L162.871,193.608L163.594,193.622L164.316,192.921L165.039,193.814L165.762,193.762L166.484,193.839L167.207,193.312L167.93,193.691L168.652,194.712L169.375,194.147L170.098,194.145L170.82,194.744L171.543,193.564L172.266,193.284L172.988,193.667L173.711,194.749L174.434,193.752L175.156,193.405L175.879,193.505L176.602,193.697L177.324,194.527L178.047,193.742L178.77,193.522L179.492,193.341L180.215,193.992L180.938,192.205L181.66,194.125L182.383,193.64L183.105,194.915L183.828,194.001L184.551,193.477L185.273,193.631L185.996,194.915L186.719,194.32L187.441,193.72L188.164,193.604L188.887,193.314L189.609,194.281L190.332,194.521L191.055,194.193L191.777,194.006L192.5,193.102L193.223,194.496L193.945,192.829L194.668,193.304L195.391,193.301L196.113,194.081L196.836,193.372L197.559,193.355L198.281,193.297L199.004,192.78L199.727,193.192L200.449,193.239L201.172,193.33L201.895,193.279L202.617,193.26L203.34,193.696L204.063,193.833L204.785,194.245L205.508,194.103L206.23,193.693L206.953,194.075L207.676,193.248L208.398,194.042L209.121,193.229L209.844,193.216L210.566,193.245L211.289,192.849L212.012,193.496L212.734,193.167L213.457,193.103L214.18,193.246L214.902,192.807L215.625,193.908L216.348,193.229L217.07,193.268L217.793,193.361L218.516,193.161L219.238,192.696L219.961,192.999L220.684,193.342L221.406,194.347L222.129,193.23L222.852,193.129L223.574,193.599L224.297,194.698L225.02,192.613L225.742,193.088L226.465,193.304L227.188,192.972L227.91,193.294L228.633,192.576L229.355,193.085L230.078,193.96L230.801,192.962L231.523,193.332L232.246,194.425L232.969,193.052L233.691,193.767L234.414,193.514L235.137,193.537L235.859,193.028L236.582,194.211L237.305,193.317L238.027,193.147L238.75,192.966L239.473,193.62L240.195,192.905L240.918,193.077L241.641,192.089L242.363,193.107L243.086,193.202L243.809,193.205L244.531,193.098L245.254,191.964L245.977,192.243L246.699,192.876L247.422,193.694L248.145,192.35L248.867,192.933L249.59,193.255L250.313,193.038L251.035,193.985L251.758,193.053L252.48,192.777L253.203,194.454L253.926,192.036L254.648,193.909L255.371,192.747L256.094,193.242L256.816,193.068L257.539,193.168L258.262,193.295L258.984,193.607L259.707,192.637L260.43,193.784L261.152,194.191L261.875,192.645L262.598,194.186L263.32,194.632L264.043,192.972L264.766,193.348L265.488,193.626L266.211,192.537L266.934,192.94L267.656,193.966L268.379,193.895L269.102,193.867L269.824,193.765L270.547,193.132L271.27,192.541L271.992,192.592L272.715,192.365L273.438,193.623L274.16,192.354L274.883,193.752L275.605,192.877L276.328,192.373L277.051,193.15L277.773,193.345L278.496,193.828L279.219,193.626L279.941,192.766L280.664,192.707L281.387,192.842L282.109,193.193L282.832,193.484L283.555,193.489L284.277,192.852L285,193.937L285.723,192.813L286.445,192.871L287.168,192.821L287.891,193.544L288.613,193.713L289.336,193.003L290.059,194.059L290.781,192.486L291.504,193.783L292.227,192.262L292.949,192.007L293.672,193.759L294.395,192.313L295.117,192.585L295.84,192.563L296.563,193.697L297.285,193.214L298.008,193.168L298.73,192.856L299.453,193.555L300.176,192.337L300.898,192.76L301.621,192.37L302.344,193.094L303.066,192.515L303.789,193.824L304.512,192.794L305.234,193.311L305.957,193.165L306.68,193.6L307.402,192.221L308.125,193.161L308.848,193.416L309.57,192.345L310.293,193.914L311.016,192.366L311.738,192.805L312.461,193.644L313.184,193.344L313.906,194.001L314.629,193.321L315.352,192.881L316.074,193.083L316.797,193.923L317.52,191.848L318.242,192.739L318.965,192.606L319.688,193.036L320.41,192.289L321.133,194.02L321.855,192.389L322.578,193.421L323.301,192.869L324.023,193.103L324.746,193.367L325.469,193.118L326.191,192.363L326.914,192.647L327.637,193.449L328.359,193.539L329.082,192.275L329.805,194.15L330.527,193.478L331.25,194.291L331.973,192.805L332.695,193.007L333.418,192.364L334.141,193.384L334.863,193.839L335.586,192.96L336.309,192.5L337.031,192.508L337.754,192.842L338.477,193.277L339.199,193.424L339.922,194.505L340.645,193.666L341.367,193.179L342.09,193.35L342.813,193.048L343.535,193.342L344.258,193.78L344.98,193.588L345.703,193.56L346.426,192.729L347.148,193.249L347.871,193.637L348.594,193.976L349.316,193.436L350.039,193.876L350.762,193.607L351.484,193.495L352.207,192.74L352.93,193.846L353.652,192.774L354.375,193.606L355.098,193.461L355.82,192.996L356.543,193.503L357.266,193.06L357.988,193.458L358.711,193.706L359.434,194.903L360.156,193.718L360.879,194.731L361.602,193.636L362.324,193.586L363.047,193.78L363.77,194.372L364.492,193.883L365.215,194.089L365.938,193.104L366.66,193.107L367.383,193.823L368.105,193.788L368.828,194.034L369.551,193.544L370.273,193.958L370.996,193.372L371.719,193.768L372.441,193.464L373.164,193.69L373.887,194.46L374.609,193.65L375.332,193.588L376.055,193.897L376.777,193.758L377.5,193.689L378.223,194.03L378.945,194.452L379.668,194.351L380.391,193.051L381.113,193.503L381.836,194.677L382.559,194.787L383.281,194.263L384.004,194.422L384.727,194.084L385.449,194.521L386.172,194.576L386.895,194.191L387.617,195.108L388.34,194.78L389.063,193.381L389.785,193.671L390.508,194.413L391.23,194.767L391.953,194.444L392.676,194.765L393.398,194.322L394.121,194.565L394.844,193.722L395.566,194.274L396.289,194.961L397.012,194.497L397.734,194.388L398.457,194.535L399.18,194.371L399.902,195.27L400.625,194.046L401.348,195.049L402.07,194.629L402.793,194.682L403.516,194.445L404.238,195.115L404.961,194.131L405.684,195.528L406.406,194.568L407.129,194.651L407.852,194.896L408.574,195.024L409.297,194.652L410.02,194.788L410.742,195.158L411.465,194.942L412.188,195.6L412.91,195.686L413.633,195.903L414.355,196.513L415.078,194.649L415.801,195.286L416.523,195.065L417.246,195.805L417.969,195.658L418.691,196.194L419.414,195.171L420.137,194.941L420.859,195.666L421.582,195.854L422.305,195.27L423.027,197.177L423.75,195.71L424.473,196.012L425.195,197.858L425.918,195.69L426.641,195.451L427.363,197.081L428.086,196.064L428.809,197.434L429.531,196.606L430.254,196.066L430.977,195.764L431.699,197.236L432.422,196.06L433.145,196.646L433.867,196.692L434.59,195.086L435.313,196.666L436.035,196.518L436.758,197.421L437.48,196.529L438.203,195.744L438.926,196.646L439.648,198.567L440.371,198.095L441.094,197.415L441.816,196.38L442.539,197.591L443.262,198.038L443.984,196.786L444.707,197.559L445.43,196.62L446.152,196.899L446.875,197.279L447.598,198.064L448.32,198.239L449.043,198.996L449.766,197.782L450.488,197.871L451.211,197.86L451.934,198.172L452.656,197.435L453.379,195.702L454.102,197.991L454.824,199.374L455.547,197.261L456.27,198.314L456.992,198.225L457.715,198.71L458.438,197.816L459.16,197.757L459.883,198.915L460.605,197.379L461.328,198.956L462.051,198.116L462.773,200.71L463.496,198.206L464.219,198.301L464.941,199.357L465.664,198.722L466.387,198.351L467.109,198.401L467.832,197.96L468.555,199.392L469.277,199.732"/><path fill="none" stroke="rgb(149, 251, 81)" stroke-width="1.5" d="M100,182.047L100.723,184.506L101.445,183.754L102.168,184.651L102.891,184.749L103.613,185.088L104.336,185.317L105.059,185.091L105.781,185.319L106.504,185.33L107.227,185.341L107.949,184.854L108.672,185.511L109.395,184.864L110.117,185.478L110.84,186.178L111.563,185.661L112.285,185.21L113.008,184.807L113.73,185.038L114.453,185.286L115.176,187.344L115.898,185.069L116.621,185.36L117.344,185.561L118.066,185.16L118.789,185.411L119.512,186.388L120.234,185.719L120.957,185.916L121.68,184.372L122.402,183.519L123.125,185.054L123.848,184.27L124.57,184.21L125.293,185.15L126.016,184.482L126.738,185.681L127.461,186.221L128.184,184.758L128.906,185.242L129.629,185.108L130.352,185.399L131.074,186.251L131.797,185.22L132.52,185.194L133.242,186.269L133.965,185.981L134.688,185.704L135.41,184.254L136.133,185.289L136.855,184.275L137.578,184.768L138.301,185.216L139.023,185.142L139.746,184.782L140.469,185.281L141.191,185.193L141.914,185.368L142.637,185.256L143.359,185.916L144.082,184.606L144.805,185.277L145.527,185.983L146.25,185.297L146.973,184.703L147.695,185.981L148.418,185.186L149.141,184.457L149.863,185.621L150.586,184.351L151.309,185.175L152.031,184.872L152.754,184.382L153.477,184.199L154.199,185.847L154.922,185.068L155.645,185.972L156.367,185.309L157.09,185.21L157.813,184.575L158.535,185.463L159.258,184.234L159.98,184.926L160.703,185.496L161.426,185.913L162.148,184.635L162.871,184.977L163.594,186.29L164.316,185.677L165.039,186.664L165.762,185.601L166.484,185.058L167.207,185.835L167.93,185.534L168.652,185.041L169.375,184.114L170.098,185.777L170.82,186.65L171.543,184.597L172.266,185.508L172.988,184.298L173.711,185.674L174.434,185.357L175.156,184.763L175.879,184.248L176.602,185.24L177.324,184.332L178.047,185.199L178.77,185.594L179.492,185.362L180.215,185.221L180.938,185.839L181.66,184.351L182.383,185.283L183.105,185.838L183.828,185.458L184.551,184.509L185.273,185.705L185.996,184.591L186.719,185.712L187.441,185.689L188.164,185.11L188.887,184.308L189.609,185.538L190.332,185.038L191.055,186.21L191.777,184.905L192.5,185.084L193.223,185.029L193.945,185.588L194.668,184.327L195.391,184.302L196.113,185.544L196.836,184.504L197.559,185.25L198.281,185.581L199.004,185.065L199.727,184.555L200.449,185.381L201.172,185.668L201.895,185.692L202.617,185.404L203.34,185.266L204.063,185.538L204.785,184.221L205.508,184.182L206.23,184.798L206.953,184.8L207.676,185.012L208.398,184.539L209.121,185.158L209.844,185.228L210.566,185.332L211.289,185.05L212.012,185.307L212.734,185.052L213.457,184.657L214.18,184.886L214.902,185.527L215.625,185.235L216.348,184.672L217.07,183.985L217.793,185.068L218.516,184.461L219.238,185.05L219.961,185.012L220.684,184.638L221.406,185.295L222.129,185.105L222.852,185.302L223.574,184.925L224.297,184.733L225.02,185.652L225.742,185.003L226.465,184.904L227.188,184.92L227.91,184.773L228.633,184.167L229.355,185.023L230.078,185.496L230.801,184.738L231.523,184.189L232.246,184.664L232.969,183.866L233.691,185.384L234.414,185.202L235.137,183.738L235.859,184.288L236.582,184.848L237.305,185.114L238.027,185.496L238.75,184.333L239.473,185.137L240.195,183.927L240.918,184.409L241.641,185.079L242.363,185.402L243.086,184.495L243.809,185.019L244.531,184.519L245.254,185.249L245.977,185.203L246.699,184.145L247.422,185.207L248.145,184.909L248.867,185.571L249.59,184.758L250.313,184.993L251.035,183.512L251.758,183.98L252.48,185.079L253.203,184.156L253.926,183.757L254.648,185.835L255.371,185.818L256.094,185.261L256.816,185.81L257.539,185.102L258.262,184.984L258.984,185.805L259.707,185.236L260.43,184.693L261.152,185.087L261.875,184.739L262.598,183.494L263.32,185.312L264.043,185.264L264.766,185.332L265.488,184.954L266.211,184.444L266.934,185.276L267.656,184.52L268.379,185.214L269.102,183.969L269.824,184.589L270.547,184.699L271.27,184.421L271.992,184.946L272.715,185.715L273.438,184.58L274.16,184.569L274.883,183.985L275.605,183.71L276.328,184.563L277.051,184.806L277.773,184.734L278.496,184.983L279.219,183.792L279.941,184.787L280.664,183.628L281.387,185.401L282.109,185.237L282.832,185.254L283.555,185.404L284.277,185.604L285,185.696L285.723,185.208L286.445,185.548L287.168,184.768L287.891,184.205L288.613,185.332L289.336,184.681L290.059,184.563L290.781,185.227L291.504,185.312L292.227,185.455L292.949,184.914L293.672,184.806L294.395,185.264L295.117,185.434L295.84,184.415L296.563,185.65L297.285,184.136L298.008,184.16L298.73,183.639L299.453,185.223L300.176,185.81L300.898,184.215L301.621,184.751L302.344,185.274L303.066,184.719L303.789,185.389L304.512,185.49L305.234,184.518L305.957,183.759L306.68,185.193L307.402,184.556L308.125,185.155L308.848,185.372L309.57,185.502L310.293,184.468L311.016,184.209L311.738,184.073L312.461,184.983L313.184,184.964L313.906,184.004L314.629,185.341L315.352,184.245L316.074,185.776L316.797,184.597L317.52,185.196L318.242,185.074L318.965,185.442L319.688,184.917L320.41,185.224L321.133,184.655L321.855,184.59L322.578,186.23L323.301,185.098L324.023,185.566L324.746,185.339L325.469,184.698L326.191,184.827L326.914,184.921L327.637,185.38L328.359,184.185L329.082,185L329.805,184.118L330.527,185.554L331.25,185.264L331.973,185.211L332.695,185.563L333.418,185.417L334.141,185.102L334.863,185.904L335.586,185.428L336.309,185.601L337.031,185.942L337.754,185.077L338.477,185.312L339.199,185.639L339.922,185.222L340.645,185.994L341.367,185.796L342.09,185.335L342.813,184.859L343.535,185.197L344.258,185.208L344.98,185.619L345.703,186.244L346.426,184.643L347.148,185.796L347.871,185.119L348.594,185.157L349.316,185.06L350.039,185.687L350.762,185.502L351.484,185.65L352.207,185.881L352.93,185.016L353.652,185.421L354.375,185.46L355.098,184.829L355.82,185.039L356.543,185.463L357.266,184.9L357.988,185.678L358.711,186.012L359.434,185.706L360.156,185.194L360.879,185.556L361.602,186.306L362.324,185.504L363.047,185.795L363.77,185.519L364.492,185.943L365.215,185.031L365.938,185.918L366.66,185.754L367.383,185.433L368.105,185.214L368.828,185.892L369.551,185.694L370.273,186.18L370.996,186.646L371.719,186.262L372.441,185.89L373.164,185.952L373.887,185.301L374.609,186.939L375.332,185.158L376.055,185.932L376.777,185.561L377.5,185.925L378.223,186.171L378.945,186.111L379.668,186.416L380.391,186.157L381.113,186.354L381.836,185.59L382.559,185.851L383.281,186.66L384.004,185.855L384.727,186.521L385.449,185.622L386.172,185.625L386.895,186.345L387.617,186.597L388.34,185.595L389.063,186.572L389.785,186.698L390.508,187.234L391.23,186.783L391.953,187.325L392.676,185.91L393.398,187.175L394.121,185.616L394.844,185.537L395.566,185.987L396.289,186.614L397.012,187.25L397.734,186.612L398.457,187.029L399.18,186.009L399.902,187.088L400.625,186.109L401.348,186.818L402.07,187.07L402.793,186.333L403.516,187.192L404.238,186.929L404.961,187.428L405.684,186.687L406.406,187.247L407.129,185.534L407.852,188.312L408.574,186.329L409.297,187.162L410.02,186.705L410.742,187.57L411.465,187.153L412.188,187.483L412.91,187.856L413.633,188.388L414.355,188.059L415.078,187.812L415.801,187.495L416.523,188.537L417.246,187.777L417.969,187.313L418.691,187.455L419.414,186.872L420.137,187.217L420.859,188.129L421.582,187.002L422.305,187.826L423.027,188.555L423.75,187.442L424.473,188.045L425.195,187.965L425.918,188.182L426.641,188.595L427.363,188.837L428.086,188.84L428.809,189.751L429.531,189.349L430.254,188.63L430.977,187.875L431.699,188.197L432.422,188.716L433.145,188.542L433.867,189.064L434.59,188.884L435.313,188.745L436.035,188.786L436.758,188.265L437.48,189.059L438.203,190.227L438.926,189.751L439.648,188.494L440.371,188.713L441.094,190.338L441.816,190.162L442.539,189.17L443.262,190.843L443.984,188.651L444.707,191.3L445.43,188.548L446.152,190.375L446.875,190.382L447.598,188.823L448.32,188.777L449.043,190.484L449.766,189.008L450.488,190.723L451.211,188.879L451.934,189.706L452.656,190.567L453.379,190.402L454.102,189.948L454.824,189.867L455.547,190.429L456.27,189.722L456.992,190.502L457.715,191.2L458.438,190.834L459.16,190.347L459.883,190.904L460.605,190.653L461.328,189.853L462.051,188.799L462.773,190.699L463.496,190.434L464.219,190.162L464.941,190.19L465.664,190.52L466.387,192.466L467.109,192.101L467.832,190.812L468.555,190.346L469.277,189.534"/><path fill="none" stroke="rgb(236, 209, 46)" stroke-width="1.5" d="M100,182.8L100.723,184.608L101.445,183.893L102.168,184.73L102.891,184.604L103.613,184.526L104.336,183.624L105.059,183.919L105.781,183.816L106.504,183.575L107.227,184.393L107.949,183.991L108.672,183.834L109.395,184.116L110.117,184.378L110.84,184.511L111.563,184.003L112.285,183.672L113.008,183.82L113.73,184.746L114.453,184.261L115.176,183.888L115.898,183.609L116.621,183.175L117.344,184.486L118.066,184.839L118.789,184.778L119.512,184.84L120.234,184.539L120.957,183.934L121.68,184.85L122.402,183.811L123.125,185.143L123.848,184.829L124.57,184.651L125.293,184.872L126.016,184.828L126.738,184.799L127.461,183.848L128.184,184.018L128.906,184.306L129.629,184.444L130.352,183.413L131.074,183.314L131.797,183.63L132.52,184.579L133.242,184.818L133.965,184.24L134.688,184.251L135.41,183.342L136.133,184.178L136.855,185.115L137.578,184.444L138.301,186.01L139.023,184.576L139.746,183.654L140.469,183.283L141.191,183.896L141.914,183.98L142.637,184.945L143.359,184.946L144.082,184.639L144.805,184.544L145.527,184.229L146.25,186.265L146.973,184.954L147.695,184.258L148.418,184.424L149.141,183.88L149.863,184.502L150.586,183.848L151.309,184.416L152.031,185.294L152.754,183.468L153.477,184.338L154.199,184.882L154.922,184.154L155.645,184.622L156.367,185.202L157.09,182.977L157.813,183.871L158.535,183.934L159.258,184.229L159.98,183.123L160.703,184.847L161.426,184.293L162.148,184.414L162.871,183.918L163.594,185.062L164.316,184.539L165.039,184.308L165.762,184.581L166.484,183.836L167.207,185.062L167.93,183.884L168.652,183.689L169.375,184.636L170.098,184.652L170.82,183.906L171.543,184.01L172.266,184.425L172.988,184.987L173.711,184.627L174.434,184.166L175.156,185.086L175.879,185.297L176.602,184.571L177.324,184.622L178.047,183.978L178.77,184.456L179.492,183.995L180.215,184.342L180.938,184.387L181.66,184.689L182.383,183.96L183.105,185.132L183.828,185.537L184.551,183.24L185.273,185.372L185.996,184.07L186.719,183.603L187.441,184.563L188.164,184.795L188.887,184.597L189.609,184.76L190.332,184.952L191.055,185.873L191.777,184.679L192.5,184.693L193.223,185.514L193.945,185.919L194.668,184.908L195.391,184.871L196.113,184.583L196.836,184.809L197.559,184.293L198.281,184.307L199.004,184.833L199.727,184.065L200.449,185.125L201.172,184.55L201.895,185.332L202.617,184.293L203.34,184.623L204.063,183.568L204.785,185.326L205.508,184.722L206.23,183.795L206.953,184.18L207.676,184.781L208.398,184.619L209.121,185.327L209.844,184.768L210.566,184.828L211.289,184.834L212.012,184.704L212.734,185.42L213.457,185.939L214.18,185.009L214.902,184.874L215.625,185.032L216.348,184.684L217.07,183.881L217.793,184.843L218.516,186.152L219.238,184.079L219.961,184.071L220.684,184.993L221.406,184.798L222.129,184.995L222.852,183.966L223.574,183.811L224.297,183.988L225.02,184.971L225.742,184.639L226.465,184.386L227.188,185.649L227.91,184.971L228.633,186.144L229.355,184.218L230.078,184.545L230.801,184.51L231.523,184.503L232.246,184.323L232.969,184.07L233.691,186.142L234.414,184.498L235.137,184.976L235.859,184.284L236.582,185.089L237.305,183.936L238.027,183.697L238.75,184.298L239.473,185.768L240.195,184.321L240.918,184.772L241.641,184.466L242.363,184.824L243.086,184.33L243.809,184.806L244.531,184.113L245.254,183.927L245.977,184.041L246.699,184.879L247.422,184.517L248.145,184.339L248.867,184.588L249.59,184.684L250.313,184.449L251.035,184.354L251.758,184.109L252.48,185.238L253.203,185.02L253.926,184.112L254.648,184.217L255.371,184.864L256.094,185.12L256.816,184.742L257.539,185.404L258.262,184.757L258.984,185.443L259.707,184.541L260.43,184.517L261.152,184.677L261.875,184.81L262.598,184.511L263.32,184.873L264.043,185.383L264.766,184.799L265.488,184.41L266.211,184.346L266.934,184.417L267.656,185.659L268.379,185.276L269.102,184.193L269.824,184.221L270.547,184.618L271.27,184.654L271.992,184.641L272.715,184.261L273.438,183.796L274.16,183.714L274.883,184.661L275.605,184.83L276.328,184.713L277.051,184.128L277.773,184.892L278.496,184.42L279.219,185.445L279.941,184.56L280.664,184.969L281.387,185.091L282.109,183.817L282.832,184.494L283.555,183.827L284.277,184.416L285,185.031L285.723,185.071L286.445,185.225L287.168,186.522L287.891,185.556L288.613,184.848L289.336,184.792L290.059,184.754L290.781,184.504L291.504,183.976L292.227,183.099L292.949,184.89L293.672,184.853L294.395,184.513L295.117,184.62L295.84,185.189L296.563,183.798L297.285,184.908L298.008,184.662L298.73,184.379L299.453,185.435L300.176,185.782L300.898,184.61L301.621,184.474L302.344,185.598L303.066,184.906L303.789,185.171L304.512,184.164L305.234,185.576L305.957,184.295L306.68,183.893L307.402,184.306L308.125,183.429L308.848,185.009L309.57,184.128L310.293,185.104L311.016,184.83L311.738,185.73L312.461,185.057L313.184,184.211L313.906,183.804L314.629,184.771L315.352,184.626L316.074,184.243L316.797,184.809L317.52,184.186L318.242,184.486L318.965,185.584L319.688,184.747L320.41,185.323L321.133,184.689L321.855,184.066L322.578,185.18L323.301,184.184L324.023,185.071L324.746,184.666L325.469,184.723L326.191,183.863L326.914,184.105L327.637,184.222L328.359,184.527L329.082,184.892L329.805,184.648L330.527,184.789L331.25,186.681L331.973,184.075L332.695,186.449L333.418,184.996L334.141,184.692L334.863,185.753L335.586,183.968L336.309,185.843L337.031,185.512L337.754,185.244L338.477,186.137L339.199,185.033L339.922,185.148L340.645,185.408L341.367,185.195L342.09,185.234L342.813,184.832L343.535,185.752L344.258,185.182L344.98,184.835L345.703,185.027L346.426,184.486L347.148,185.866L347.871,185.227L348.594,184.891L349.316,185.066L350.039,185.14L350.762,184.849L351.484,184.444L352.207,185.222L352.93,186.669L353.652,185.797L354.375,185.729L355.098,184.543L355.82,185.273L356.543,185.869L357.266,185.512L357.988,186.111L358.711,185.969L359.434,185.365L360.156,186.592L360.879,184.72L361.602,184.773L362.324,185.178L363.047,184.915L363.77,185.369L364.492,185.284L365.215,186.897L365.938,185.796L366.66,186.331L367.383,185.618L368.105,185.72L368.828,185.41L369.551,185.68L370.273,185.191L370.996,186.427L371.719,185.757L372.441,185.985L373.164,184.906L373.887,186.205L374.609,185.768L375.332,186.136L376.055,185.674L376.777,186.155L377.5,186.237L378.223,185.605L378.945,185.799L379.668,185.629L380.391,185.783L381.113,186.485L381.836,185.544L382.559,186.564L383.281,187.105L384.004,185.754L384.727,185.726L385.449,186.328L386.172,186.682L386.895,186.036L387.617,186.852L388.34,186.613L389.063,186.096L389.785,186.217L390.508,186.17L391.23,186.219L391.953,185.968L392.676,187.042L393.398,186.585L394.121,186.156L394.844,187.87L395.566,185.916L396.289,186.31L397.012,187.724L397.734,186.355L398.457,187.919L399.18,186.813L399.902,188.271L400.625,186.348L401.348,186.838L402.07,187.512L402.793,186.586L403.516,187.844L404.238,187.437L404.961,187.317L405.684,187.534L406.406,187.958L407.129,187.366L407.852,187.225L408.574,187.939L409.297,187.785L410.02,187.494L410.742,187.599L411.465,188.595L412.188,186.637L412.91,187.775L413.633,187.144L414.355,187.92L415.078,187.512L415.801,188.548L416.523,189.056L417.246,189.19L417.969,188.146L418.691,187.952L419.414,188.979L420.137,188.449L420.859,187.15L421.582,188.115L422.305,188.146L423.027,189.726L423.75,187.748L424.473,188.248L425.195,187.552L425.918,187.863L426.641,188.045L427.363,188.524L428.086,188.709L428.809,188.78L429.531,187.393L430.254,189.269L430.977,189.26L431.699,188.967L432.422,189.197L433.145,188.573L433.867,188.626L434.59,189.983L435.313,190.452L436.035,189.265L436.758,190.537L437.48,190.444L438.203,188.882L438.926,189.412L439.648,190.507L440.371,190.844L441.094,188.595L441.816,188.899L442.539,190.086L443.262,188.983L443.984,189.096L444.707,189.4L445.43,190.285L446.152,190.903L446.875,191.587L447.598,188.549L448.32,190.276L449.043,191.023L449.766,191.237L450.488,191.095L451.211,190.302L451.934,189.637L452.656,190.067L453.379,189.182L454.102,190.124L454.824,190.245L455.547,189.812L456.27,191.428L456.992,189.85L457.715,191.637L458.438,190.995L459.16,190.494L459.883,191.083L460.605,191.645L461.328,191.111L462.051,190.81L462.773,191.979L463.496,189.677L464.219,191.658L464.941,190.568L465.664,192.069L466.387,191.334L467.109,189.986L467.832,191.431L468.555,192.979L469.277,190.403"/><path fill="none" stroke="rgb(255, 130, 29)" stroke-width="1.5" d="M100,182.244L100.723,183.373L101.445,184.245L102.168,184.344L102.891,183.834L103.613,184.166L104.336,184.201L105.059,184.239L105.781,184.91L106.504,184.016L107.227,185.373L107.949,184.306L108.672,184.2L109.395,184.125L110.117,183.386L110.84,184.189L111.563,184.114L112.285,184.951L113.008,184.283L113.73,183.738L114.453,184.612L115.176,183.392L115.898,183.842L116.621,184.041L117.344,183.746L118.066,184.068L118.789,183.813L119.512,184.399L120.234,185.296L120.957,185.374L121.68,185.194L122.402,185.126L123.125,183.6L123.848,184.204L124.57,183.719L125.293,184.01L126.016,185.041L126.738,185.153L127.461,183.417L128.184,184.931L128.906,184.742L129.629,185.099L130.352,184.33L131.074,184.322L131.797,182.922L132.52,184.592L133.242,184.563L133.965,184.129L134.688,183.53L135.41,184.715L136.133,183.546L136.855,183.631L137.578,184.732L138.301,183.649L139.023,184.699L139.746,184.695L140.469,184.814L141.191,184.333L141.914,184.703L142.637,184.748L143.359,184.025L144.082,184.822L144.805,184.307L145.527,185.365L146.25,184.307L146.973,183.662L147.695,185.288L148.418,185.203L149.141,184.648L149.863,183.805L150.586,184.698L151.309,183.411L152.031,184.517L152.754,184.793L153.477,185.365L154.199,185.665L154.922,185.305L155.645,183.867L156.367,183.996L157.09,184.42L157.813,184.693L158.535,185.412L159.258,183.502L159.98,185.365L160.703,184.834L161.426,184.544L162.148,184.334L162.871,184.892L163.594,185.182L164.316,184.312L165.039,184.296L165.762,185.104L166.484,185.307L167.207,185.78L167.93,185.352L168.652,184.441L169.375,184.887L170.098,184.905L170.82,184.04L171.543,185.267L172.266,185.102L172.988,184.968L173.711,184.039L174.434,184.934L175.156,186.517L175.879,183.629L176.602,185.454L177.324,184.278L178.047,184.858L178.77,185.72L179.492,184.465L180.215,186.029L180.938,184.278L181.66,185.125L182.383,185.017L183.105,185.256L183.828,184.041L184.551,185.495L185.273,183.668L185.996,184.529L186.719,184.945L187.441,184.503L188.164,186.388L188.887,184.648L189.609,186.374L190.332,184.924L191.055,185.156L191.777,185.104L192.5,185.996L193.223,184.941L193.945,184.88L194.668,185.49L195.391,184.964L196.113,185.306L196.836,185.517L197.559,184.888L198.281,185.463L199.004,184.706L199.727,185.182L200.449,185.571L201.172,185.711L201.895,184.737L202.617,186.41L203.34,184.734L204.063,186.082L204.785,185.762L205.508,185.751L206.23,185.211L206.953,184.807L207.676,185.565L208.398,185.951L209.121,185.192L209.844,185.684L210.566,185.316L211.289,186.672L212.012,186.244L212.734,185.634L213.457,185.992L214.18,185.184L214.902,185.082L215.625,187.22L216.348,185.04L217.07,185.14L217.793,186.587L218.516,185.982L219.238,184.713L219.961,184.887L220.684,185.091L221.406,185.194L222.129,186.007L222.852,185.857L223.574,185.607L224.297,185.327L225.02,185.827L225.742,184.999L226.465,186.811L227.188,185.916L227.91,185.829L228.633,185.206L229.355,186.021L230.078,185.908L230.801,185.35L231.523,186.243L232.246,185.378L232.969,185.437L233.691,185.755L234.414,185.289L235.137,187.438L235.859,186.045L236.582,185.743L237.305,186.033L238.027,185.221L238.75,187.185L239.473,185.165L240.195,186.323L240.918,187.46L241.641,185.965L242.363,187.473L243.086,185.743L243.809,185.904L244.531,186.392L245.254,185.162L245.977,186.525L246.699,185.986L247.422,185.305L248.145,185.348L248.867,186.313L249.59,185.614L250.313,187.028L251.035,186.061L251.758,185.207L252.48,186.151L253.203,187.147L253.926,187.186L254.648,186.663L255.371,185.405L256.094,187.182L256.816,187.18L257.539,186.344L258.262,185.875L258.984,186.907L259.707,186.135L260.43,185.99L261.152,186.313L261.875,184.777L262.598,185.921L263.32,186.145L264.043,185.576L264.766,185.137L265.488,185.858L266.211,185.692L266.934,185.606L267.656,186.044L268.379,186.136L269.102,186.813L269.824,185.988L270.547,186.515L271.27,184.773L271.992,186.822L272.715,185.574L273.438,185.504L274.16,186.175L274.883,184.866L275.605,186.619L276.328,185.622L277.051,186.426L277.773,186.225L278.496,186.437L279.219,185.346L279.941,186.574L280.664,185.169L281.387,185.88L282.109,186.405L282.832,186.825L283.555,185.642L284.277,185.65L285,186.814L285.723,186.452L286.445,186.568L287.168,186.441L287.891,185.959L288.613,186.016L289.336,185.894L290.059,185.192L290.781,185.27L291.504,185.818L292.227,185.195L292.949,185.81L293.672,186.305L294.395,185.411L295.117,186.158L295.84,185.948L296.563,186.415L297.285,186.269L298.008,186.229L298.73,186.291L299.453,185.712L300.176,187.212L300.898,186.001L301.621,187.83L302.344,185.99L303.066,187.276L303.789,185.193L304.512,186.219L305.234,185.427L305.957,185.508L306.68,186.523L307.402,185.432L308.125,186.722L308.848,185.897L309.57,185.75L310.293,187.032L311.016,186.588L311.738,185.453L312.461,186.34L313.184,185.499L313.906,187.153L314.629,185.998L315.352,186.022L316.074,185.542L316.797,186.026L317.52,185.265L318.242,187.569L318.965,186.534L319.688,185.643L320.41,185.439L321.133,185.455L321.855,185.438L322.578,185.394L323.301,185.848L324.023,185.037L324.746,186.869L325.469,186.216L326.191,185.758L326.914,186.134L327.637,186.449L328.359,187.589L329.082,186.944L329.805,187.682L330.527,184.23L331.25,185.587L331.973,187.763L332.695,185.383L333.418,185.633L334.141,184.788L334.863,186.007L335.586,186.533L336.309,185.573L337.031,185.109L337.754,188.299L338.477,186.744L339.199,186.288L339.922,185.505L340.645,186.778L341.367,186.476L342.09,185.409L342.813,186.764L343.535,186.774L344.258,186.225L344.98,186.858L345.703,185.513L346.426,185.758L347.148,185.626L347.871,186.613L348.594,185.738L349.316,186.717L350.039,187.234L350.762,186.883L351.484,186.426L352.207,186.779L352.93,186.831L353.652,187.223L354.375,185.929L355.098,186.865L355.82,186.003L356.543,187.048L357.266,188.655L357.988,187.442L358.711,187.15L359.434,186.653L360.156,187.649L360.879,186.463L361.602,187.388L362.324,186.223L363.047,187.207L363.77,187.845L364.492,186.013L365.215,187.038L365.938,187.169L366.66,185.144L367.383,188.246L368.105,186.197L368.828,188.066L369.551,186.181L370.273,186.506L370.996,186.526L371.719,186.665L372.441,187.673L373.164,186.895L373.887,186.78L374.609,188.001L375.332,187.167L376.055,188.306L376.777,187.385L377.5,186.219L378.223,186.279L378.945,185.309L379.668,188.612L380.391,187.84L381.113,187.525L381.836,188.686L382.559,186.889L383.281,188.704L384.004,187.627L384.727,187.772L385.449,186.867L386.172,186.425L386.895,188.023L387.617,189.18L388.34,186.469L389.063,188.016L389.785,187.225L390.508,188.529L391.23,188.72L391.953,187.616L392.676,187.899L393.398,188.839L394.121,188.04L394.844,187.503L395.566,187.707L396.289,187.659L397.012,187.669L397.734,188.854L398.457,186.666L399.18,188.673L399.902,189.183L400.625,189.668L401.348,188.594L402.07,186.427L402.793,186.466L403.516,187.784L404.238,188.083L404.961,187.77L405.684,189.361L406.406,189.707L407.129,189.11L407.852,189.79L408.574,187.919L409.297,190.831L410.02,190.045L410.742,189.076L411.465,190.089L412.188,190.614L412.91,190.098L413.633,189.454L414.355,188.602L415.078,189.661L415.801,188.619L416.523,188.827L417.246,188.893L417.969,188.987L418.691,190.999L419.414,190.158L420.137,191.108L420.859,191.167L421.582,189.892L422.305,188.454L423.027,189.753L423.75,190.821L424.473,188.685L425.195,190.724L425.918,191.902L426.641,189.568L427.363,191.05L428.086,188.852L428.809,191.396L429.531,189.002L430.254,187.907L430.977,191.485L431.699,191.756L432.422,190.732L433.145,192.124L433.867,190.555L434.59,190.072L435.313,188.74L436.035,191.619L436.758,192.046L437.48,189.859L438.203,189.586L438.926,190.352L439.648,189.805L440.371,191.226L441.094,191.066L441.816,189.397L442.539,190.943L443.262,191.063L443.984,190.482L444.707,191.875L445.43,192.096L446.152,190.979L446.875,191.504L447.598,191.89L448.32,192.791L449.043,191.181L449.766,189.954L450.488,192.58L451.211,191.244L451.934,190.318L452.656,191.766L453.379,192.494L454.102,191.723L454.824,191.99L455.547,192.394L456.27,190.837L456.992,192.033L457.715,191.049L458.438,190.869L459.16,191.948L459.883,191.972L460.605,193.727L461.328,194.524L462.051,193.698L462.773,193.654L463.496,192.247L464.219,192.528L464.941,194.902L465.664,191.392L466.387,191.985L467.109,192.861L467.832,192.901L468.555,192.828L469.277,193.576"/><path fill="none" stroke="rgb(203, 47, 13)" stroke-width="1.5" d="M100,183.713L100.723,184.286L101.445,183.578L102.168,184.454L102.891,183.524L103.613,183.262L104.336,184.647L105.059,183.896L105.781,183.904L106.504,183.74L107.227,183.231L107.949,183.983L108.672,183.775L109.395,183.276L110.117,183.732L110.84,184.662L111.563,184.203L112.285,184.166L113.008,183.854L113.73,183.9L114.453,184.359L115.176,183.564L115.898,184.203L116.621,185.248L117.344,183.269L118.066,184.634L118.789,184.748L119.512,183.647L120.234,183.926L120.957,183.761L121.68,183.437L122.402,183.631L123.125,184.518L123.848,184.637L124.57,184.488L125.293,184.477L126.016,183.839L126.738,184.566L127.461,184.154L128.184,184.636L128.906,183.228L129.629,183.492L130.352,183.736L131.074,183.307L131.797,183.694L132.52,184.765L133.242,183.797L133.965,183.927L134.688,183.446L135.41,184.549L136.133,183.773L136.855,183.75L137.578,184.149L138.301,184.024L139.023,183.771L139.746,184.653L140.469,182.64L141.191,185.166L141.914,185.281L142.637,185.002L143.359,184.007L144.082,184.525L144.805,184.77L145.527,184.757L146.25,185.06L146.973,183.527L147.695,184.898L148.418,184.994L149.141,184.754L149.863,184.418L150.586,184.096L151.309,184.757L152.031,183.801L152.754,184.833L153.477,184.819L154.199,184.624L154.922,185.367L155.645,185.38L156.367,184.606L157.09,184.655L157.813,184.358L158.535,185.95L159.258,184.358L159.98,184.899L160.703,185.05L161.426,184.7L162.148,184.704L162.871,185.447L163.594,184.372L164.316,185.075L165.039,184.627L165.762,185.054L166.484,186.044L167.207,184.704L167.93,183.998L168.652,184.024L169.375,184.615L170.098,185.044L170.82,185.149L171.543,184.051L172.266,185.715L172.988,185.053L173.711,184.286L174.434,185.468L175.156,184.69L175.879,185.453L176.602,185.246L177.324,184.768L178.047,184.742L178.77,185.892L179.492,185.475L180.215,184.383L180.938,186.363L181.66,185.563L182.383,185.897L183.105,185.615L183.828,186.154L184.551,185.732L185.273,184.811L185.996,185.921L186.719,185.52L187.441,185.79L188.164,185.81L188.887,186.693L189.609,185.639L190.332,184.894L191.055,185.701L191.777,186.84L192.5,185.468L193.223,186.597L193.945,185.385L194.668,186.307L195.391,185.946L196.113,185.211L196.836,185.141L197.559,185.819L198.281,185.904L199.004,183.846L199.727,185.971L200.449,186.088L201.172,184.962L201.895,186.244L202.617,185.726L203.34,186.565L204.063,186.462L204.785,185.627L205.508,186.549L206.23,186.179L206.953,187.351L207.676,186.74L208.398,186.873L209.121,186.573L209.844,186.616L210.566,185.967L211.289,186.987L212.012,186.105L212.734,185.76L213.457,185.907L214.18,185.29L214.902,186.798L215.625,186.789L216.348,186.789L217.07,185.533L217.793,185.92L218.516,186.547L219.238,187.8L219.961,185.781L220.684,187.928L221.406,186.607L222.129,186.164L222.852,186.545L223.574,186.219L224.297,188.059L225.02,187.019L225.742,188.494L226.465,186.753L227.188,186.082L227.91,187.116L228.633,186.392L229.355,185.966L230.078,185.946L230.801,186.45L231.523,187.983L232.246,186.869L232.969,185.703L233.691,186.918L234.414,187.818L235.137,186.832L235.859,187.243L236.582,188.431L237.305,187.762L238.027,186.888L238.75,187.197L239.473,186.958L240.195,187.95L240.918,185.984L241.641,189.034L242.363,188.304L243.086,187.265L243.809,189.31L244.531,187.67L245.254,186.771L245.977,188.553L246.699,187.492L247.422,188.967L248.145,187.021L248.867,187.185L249.59,186.752L250.313,187.759L251.035,186.667L251.758,187.805L252.48,187.474L253.203,187.751L253.926,185.557L254.648,187.93L255.371,187.508L256.094,186.577L256.816,187.978L257.539,187.95L258.262,187.671L258.984,188.952L259.707,188.549L260.43,189.105L261.152,188.542L261.875,188.975L262.598,188.51L263.32,188.312L264.043,188.781L264.766,188.45L265.488,188.076L266.211,187.211L266.934,187.52L267.656,188.001L268.379,189.289L269.102,188.019L269.824,188.069L270.547,188.797L271.27,188.506L271.992,187.735L272.715,189.001L273.438,188.977L274.16,189.182L274.883,189.468L275.605,189.632L276.328,187.172L277.051,188.991L277.773,188.566L278.496,188.836L279.219,188.179L279.941,189.541L280.664,189.676L281.387,187.223L282.109,189.635L282.832,190.025L283.555,187.904L284.277,189.768L285,189.125L285.723,189.909L286.445,189.16L287.168,187.766L287.891,188.943L288.613,189.61L289.336,190.052L290.059,188.924L290.781,189.315L291.504,188.287L292.227,189.524L292.949,189.096L293.672,189.076L294.395,190.001L295.117,189.075L295.84,189.502L296.563,188.814L297.285,189.863L298.008,189.684L298.73,190.066L299.453,189.359L300.176,190.04L300.898,188.239L301.621,190.311L302.344,189.86L303.066,189.861L303.789,190.782L304.512,190.491L305.234,188.327L305.957,191.747L306.68,190.24L307.402,189.969L308.125,190.058L308.848,189.637L309.57,190.377L310.293,188.94L311.016,191.936L311.738,191.903L312.461,190.635L313.184,192.838L313.906,188.805L314.629,191.346L315.352,190.666L316.074,190.943L316.797,190.866L317.52,190.635L318.242,190.563L318.965,190.895L319.688,192.261L320.41,190.416L321.133,191.541L321.855,190.578L322.578,192.698L323.301,189.835L324.023,192.597L324.746,190.339L325.469,189.382L326.191,191.177L326.914,190.973L327.637,191.191L328.359,191.493L329.082,190.591L329.805,191.825L330.527,191.383L331.25,192.057L331.973,191.418L332.695,191.151L333.418,192.102L334.141,190.863L334.863,192.521L335.586,192.072L336.309,191.457L337.031,192.919L337.754,190.742L338.477,190.064L339.199,192.678L339.922,192.806L340.645,191.718L341.367,191.305L342.09,190.129L342.813,193.199L343.535,190.754L344.258,192.31L344.98,191.479L345.703,192.396L346.426,193.846L347.148,190.534L347.871,192.238L348.594,192.198L349.316,194.189L350.039,194.217L350.762,192.39L351.484,192.193L352.207,192.652L352.93,192.463L353.652,193.069L354.375,192.139L355.098,193.397L355.82,191.718L356.543,193.149L357.266,192.138L357.988,191.978L358.711,190.626L359.434,191.809L360.156,192.662L360.879,191.941L361.602,192.862L362.324,191.454L363.047,192.418L363.77,193.545L364.492,193.945L365.215,193.822L365.938,191.933L366.66,194.493L367.383,192.807L368.105,192.825L368.828,193.943L369.551,193.53L370.273,191.96L370.996,195.153L371.719,193.185L372.441,192.495L373.164,195.242L373.887,194.01L374.609,193.748L375.332,193.835L376.055,194.898L376.777,195.588L377.5,193.568L378.223,195.205L378.945,196.002L379.668,193.733L380.391,193.902L381.113,195.89L381.836,193.039L382.559,193.846L383.281,195.932L384.004,194.986L384.727,195.647L385.449,195.654L386.172,195.637L386.895,195.87L387.617,196.282L388.34,195.797L389.063,196.367L389.785,196.165L390.508,194.667L391.23,195.866L391.953,196.189L392.676,195.749L393.398,197.181L394.121,197.201L394.844,196.935L395.566,196.913L396.289,196.139L397.012,196.672L397.734,194.88L398.457,196.989L399.18,195.862L399.902,196.627L400.625,195.813L401.348,195.534L402.07,196.692L402.793,193L403.516,196.788L404.238,197.963L404.961,197.494L405.684,195.987L406.406,196.632L407.129,195.841L407.852,197.133L408.574,198.509L409.297,197.261L410.02,196.464L410.742,196.772L411.465,197.513L412.188,198.076L412.91,202.215L413.633,197.306L414.355,198.949L415.078,197.911L415.801,197.736L416.523,198.981L417.246,197.078L417.969,198.555L418.691,195.67L419.414,198.408L420.137,196.477L420.859,199.13L421.582,199.375L422.305,199.192L423.027,197.098L423.75,194.571L424.473,197.034L425.195,199.562L425.918,199.798L426.641,197.152L427.363,197.217L428.086,196.368L428.809,202.01L429.531,197.802L430.254,197.22L430.977,199.806L431.699,200.422L432.422,197.885L433.145,198.786L433.867,197.811L434.59,197.295L435.313,196.815L436.035,199.769L436.758,203.157L437.48,200.627L438.203,199.686L438.926,199.218L439.648,201.552L440.371,200.906L441.094,199.911L441.816,200.778L442.539,201.331L443.262,198.859L443.984,198.961L444.707,199.887L445.43,200.506L446.152,200.077L446.875,200.128L447.598,201.96L448.32,199.116L449.043,202.692L449.766,200.372L450.488,202.283L451.211,202.565L451.934,199.264L452.656,201.044L453.379,202.984L454.102,203.125L454.824,202.986L455.547,200.925L456.27,203.492L456.992,200.598L457.715,202.957L458.438,200.751L459.16,199.061L459.883,203.148L460.605,204.639L461.328,201.404L462.051,202.013L462.773,203.634L463.496,200.732L464.219,202.724L464.941,203.365L465.664,201.45L466.387,204.67L467.109,205.529L467.832,203.397L468.555,202.302L469.277,202.218"/><g transform="translate(0,190) scale(1.7) rotate(-90)"><text>Drift</text></g><g transform="translate(315,395) scale(1.8)"><text></text></g><g transform="translate(0,350)" fill="none" font-size="10" font-family="sans-serif" text-anchor="middle"><path class="domain" stroke="currentColor" d="M100,6V0H470V6"/><g class="tick" opacity="1" transform="translate(136.66666666666666,0)"><line stroke="currentColor" y2="6"/><text fill="currentColor" y="9" dy="0.71em" font-size="20px"> </text></g><g class="tick" opacity="1" transform="translate(173.7037037037037,0)"><line stroke="currentColor" y2="6"/><text fill="currentColor" y="9" dy="0.71em" font-size="20px">200</text></g><g class="tick" opacity="1" transform="translate(210.74074074074076,0)"><line stroke="currentColor" y2="6"/><text fill="currentColor" y="9" dy="0.71em" font-size="20px"> </text></g><g class="tick" opacity="1" transform="translate(247.77777777777777,0)"><line stroke="currentColor" y2="6"/><text fill="currentColor" y="9" dy="0.71em" font-size="20px">400</text></g><g class="tick" opacity="1" transform="translate(284.81481481481484,0)"><line stroke="currentColor" y2="6"/><text fill="currentColor" y="9" dy="0.71em" font-size="20px"> </text></g><g class="tick" opacity="1" transform="translate(321.85185185185185,0)"><line stroke="currentColor" y2="6"/><text fill="currentColor" y="9" dy="0.71em" font-size="20px">600</text></g><g class="tick" opacity="1" transform="translate(358.8888888888889,0)"><line stroke="currentColor" y2="6"/><text fill="currentColor" y="9" dy="0.71em" font-size="20px"> </text></g><g class="tick" opacity="1" transform="translate(395.9259259259259,0)"><line stroke="currentColor" y2="6"/><text fill="currentColor" y="9" dy="0.71em" font-size="20px">800</text></g><g class="tick" opacity="1" transform="translate(432.96296296296293,0)"><line stroke="currentColor" y2="6"/><text fill="currentColor" y="9" dy="0.71em" font-size="20px"> </text></g><g class="tick" opacity="1" transform="translate(470,0)"><line stroke="currentColor" y2="6"/><text fill="currentColor" y="9" dy="0.71em" font-size="20px">1000</text></g></g><g transform="translate(100,0)" fill="none" font-size="10" font-family="sans-serif" text-anchor="end"><path class="domain" stroke="currentColor" d="M-6,350H0V20H-6"/><g class="tick" opacity="1" transform="translate(0,327.03096381756745)"><line stroke="currentColor" x2="-6"/><text fill="currentColor" x="-9" dy="0.32em" font-size="20px">0.0172</text></g><g class="tick" opacity="1" transform="translate(0,299.14764291603984)"><line stroke="currentColor" x2="-6"/><text fill="currentColor" x="-9" dy="0.32em" font-size="20px">0.0171</text></g><g class="tick" opacity="1" transform="translate(0,271.2643220145121)"><line stroke="currentColor" x2="-6"/><text fill="currentColor" x="-9" dy="0.32em" font-size="20px">0.0170</text></g><g class="tick" opacity="1" transform="translate(0,243.38100111298348)"><line stroke="currentColor" x2="-6"/><text fill="currentColor" x="-9" dy="0.32em" font-size="20px">0.0169</text></g><g class="tick" opacity="1" transform="translate(0,215.49768021145582)"><line stroke="currentColor" x2="-6"/><text fill="currentColor" x="-9" dy="0.32em" font-size="20px">0.0168</text></g><g class="tick" opacity="1" transform="translate(0,187.61435930992815)"><line stroke="currentColor" x2="-6"/><text fill="currentColor" x="-9" dy="0.32em" font-size="20px">0.0167</text></g><g class="tick" opacity="1" transform="translate(0,159.73103840840045)"><line stroke="currentColor" x2="-6"/><text fill="currentColor" x="-9" dy="0.32em" font-size="20px">0.0166</text></g><g class="tick" opacity="1" transform="translate(0,131.84771750687278)"><line stroke="currentColor" x2="-6"/><text fill="currentColor" x="-9" dy="0.32em" font-size="20px">0.0165</text></g><g class="tick" opacity="1" transform="translate(0,103.96439660534509)"><line stroke="currentColor" x2="-6"/><text fill="currentColor" x="-9" dy="0.32em" font-size="20px">0.0164</text></g><g class="tick" opacity="1" transform="translate(0,76.08107570381648)"><line stroke="currentColor" x2="-6"/><text fill="currentColor" x="-9" dy="0.32em" font-size="20px">0.0163</text></g><g class="tick" opacity="1" transform="translate(0,48.19775480228877)"><line stroke="currentColor" x2="-6"/><text fill="currentColor" x="-9" dy="0.32em" font-size="20px">0.0162</text></g><g class="tick" opacity="1" transform="translate(0,20.31443390076111)"><line stroke="currentColor" x2="-6"/><text fill="currentColor" x="-9" dy="0.32em" font-size="20px">0.0161</text></g></g><circle cx="155" cy="50" r="8" style="fill: rgb(35, 23, 27);"/><circle cx="155" cy="75" r="8" style="fill: rgb(69, 105, 238);"/><circle cx="155" cy="100" r="8" style="fill: rgb(38, 188, 225);"/><circle cx="155" cy="125" r="8" style="fill: rgb(63, 243, 147);"/><circle cx="275" cy="50" r="8" style="fill: rgb(149, 251, 81);"/><circle cx="275" cy="75" r="8" style="fill: rgb(236, 209, 46);"/><circle cx="275" cy="100" r="8" style="fill: rgb(255, 130, 29);"/><circle cx="275" cy="125" r="8" style="fill: rgb(203, 47, 13);"/><text x="170" y="50" text-anchor="left" font-size="22" alignment-baseline="middle" style="fill: rgb(35, 23, 27);"> = 0</text><text x="170" y="75" text-anchor="left" font-size="22" alignment-baseline="middle" style="fill: rgb(69, 105, 238);"> = 0.22</text><text x="170" y="100" text-anchor="left" font-size="22" alignment-baseline="middle" style="fill: rgb(38, 188, 225);"> = 0.45</text><text x="170" y="125" text-anchor="left" font-size="22" alignment-baseline="middle" style="fill: rgb(63, 243, 147);"> = 0.67</text><text x="295" y="50" text-anchor="left" font-size="22" alignment-baseline="middle" style="fill: rgb(149, 251, 81);"> = 0.9</text><text x="295" y="75" text-anchor="left" font-size="22" alignment-baseline="middle" style="fill: rgb(236, 209, 46);"> = 1.12</text><text x="295" y="100" text-anchor="left" font-size="22" alignment-baseline="middle" style="fill: rgb(255, 130, 29);"> = 1.35</text><text x="295" y="125" text-anchor="left" font-size="22" alignment-baseline="middle" style="fill: rgb(203, 47, 13);"> = 1.57</text></svg>