<svg xmlns="http://www.w3.org/2000/svg" class="bg-white" width="500" height="400" viewBox="-51.48000000000002 -55 605.0000000000001 484.00000000000006"><path fill="none" stroke="rgb(35, 23, 27)" stroke-width="1.5" d="M100,326.229L100.723,320.469L101.445,317.831L102.168,315.209L102.891,313.597L103.613,313.116L104.336,311.436L105.059,309.936L105.781,307.311L106.504,305.485L107.227,304.009L107.949,301.911L108.672,299.831L109.395,296.823L110.117,294.424L110.84,291.749L111.563,289.219L112.285,286.212L113.008,283.198L113.73,280.061L114.453,276.576L115.176,272.754L115.898,269.059L116.621,265.073L117.344,261.138L118.066,257.001L118.789,252.551L119.512,247.917L120.234,243.088L120.957,238.383L121.68,233.53L122.402,227.658L123.125,222.156L123.848,231.455L124.57,232.487L125.293,233.762L126.016,235.047L126.738,236.349L127.461,237.194L128.184,238.485L128.906,240.354L129.629,240.338L130.352,241.778L131.074,242.245L131.797,243.325L132.52,244.64L133.242,246.649L133.965,246.945L134.688,247.41L135.41,249.024L136.133,250.7L136.855,250.808L137.578,252.063L138.301,253.009L139.023,253.836L139.746,253.323L140.469,255.626L141.191,255.242L141.914,256.249L142.637,257.675L143.359,257.78L144.082,259.81L144.805,259.405L145.527,261.452L146.25,262.213L146.973,262.792L147.695,264.074L148.418,264.285L149.141,265.612L149.863,266.619L150.586,267.147L151.309,267.46L152.031,268.382L152.754,268.399L153.477,269.689L154.199,270.33L154.922,271.104L155.645,271.697L156.367,272.336L157.09,272.004L157.813,272.538L158.535,273.241L159.258,274.479L159.98,275.191L160.703,276.101L161.426,275.22L162.148,276.306L162.871,276.835L163.594,276.575L164.316,278.132L165.039,278.734L165.762,278.296L166.484,279.359L167.207,279.102L167.93,279.791L168.652,279.886L169.375,280.769L170.098,280.587L170.82,281.07L171.543,281.493L172.266,281.509L172.988,281.642L173.711,282.008L174.434,282.249L175.156,283.036L175.879,282.402L176.602,282.637L177.324,282.782L178.047,284.016L178.77,284.237L179.492,283.531L180.215,283.691L180.938,284.644L181.66,284.907L182.383,284.337L183.105,285.612L183.828,286.378L184.551,284.457L185.273,285.855L185.996,285.016L186.719,284.793L187.441,285.885L188.164,285.448L188.887,285.302L189.609,285.372L190.332,284.993L191.055,285.595L191.777,286.864L192.5,285.544L193.223,285.073L193.945,285.133L194.668,284.574L195.391,284.454L196.113,284.362L196.836,285.509L197.559,284.725L198.281,284.069L199.004,284.692L199.727,284.414L200.449,283.936L201.172,283.683L201.895,283.463L202.617,283.836L203.34,283.109L204.063,283.769L204.785,283.509L205.508,283.322L206.23,282.446L206.953,281.599L207.676,281.248L208.398,281.434L209.121,281.631L209.844,280.961L210.566,280.394L211.289,280.173L212.012,278.305L212.734,277.773L213.457,278.769L214.18,277.512L214.902,276.524L215.625,276.611L216.348,277.215L217.07,276.075L217.793,275.159L218.516,274.67L219.238,274.294L219.961,273.679L220.684,273.072L221.406,273.516L222.129,271.197L222.852,272.341L223.574,271.043L224.297,269.46L225.02,268.775L225.742,268.314L226.465,268.893L227.188,267.709L227.91,266.268L228.633,265.967L229.355,265.196L230.078,264.448L230.801,263.518L231.523,262.506L232.246,263.069L232.969,264.577L233.691,267.972L234.414,271.741L235.137,274.107L235.859,276.658L236.582,282.5L237.305,285.911L238.027,289.713L238.75,290.84L239.473,296.585L240.195,299.007L240.918,303.685L241.641,307.705L242.363,312.421L243.086,314.657L243.809,319.339L244.531,325.166L245.254,327.811L245.977,332.199L246.699,335.896L247.422,340.049L248.145,344.916L248.867,348.224L249.59,350L250.313,348.105L251.035,348.005L251.758,348.098L252.48,348.274L253.203,347.567L253.926,347.754L254.648,346.331L255.371,347.498L256.094,346.416L256.816,346.066L257.539,345.572L258.262,345.133L258.984,344.763L259.707,345.03L260.43,343.626L261.152,343.041L261.875,343.86L262.598,342.074L263.32,341.391L264.043,340.786L264.766,340.925L265.488,340.773L266.211,340.286L266.934,339.459L267.656,339.081L268.379,337.745L269.102,337.595L269.824,337.422L270.547,336.81L271.27,335.942L271.992,334.842L272.715,334.136L273.438,334.314L274.16,333.432L274.883,332.35L275.605,333.692L276.328,331.068L277.051,332.322L277.773,330.808L278.496,330.852L279.219,328.621L279.941,329.506L280.664,328.416L281.387,326.901L282.109,326.541L282.832,326.784L283.555,324.592L284.277,324.216L285,323.672L285.723,323.098L286.445,321.744L287.168,321.605L287.891,320.757L288.613,320.986L289.336,319.379L290.059,319.038L290.781,317.95L291.504,317.667L292.227,315.847L292.949,315.966L293.672,313.569L294.395,314.475L295.117,313.157L295.84,312.376L296.563,311.593L297.285,309.539L298.008,308.755L298.73,309.277L299.453,308.103L300.176,306.815L300.898,307.432L301.621,305.909L302.344,305.058L303.066,303.836L303.789,303.359L304.512,301.874L305.234,300.634L305.957,300.95L306.68,299.013L307.402,298.614L308.125,297.45L308.848,297.004L309.57,297.112L310.293,295.468L311.016,293.706L311.738,293.281L312.461,293.419L313.184,292.627L313.906,290.665L314.629,290.663L315.352,289.319L316.074,287.998L316.797,288.114L317.52,286.63L318.242,285.219L318.965,284.305L319.688,283.82L320.41,283.492L321.133,281.602L321.855,281.738L322.578,279.445L323.301,278.987L324.023,277.788L324.746,278.333L325.469,276.245L326.191,274.887L326.914,273.692L327.637,272.832L328.359,271.85L329.082,271.178L329.805,270.226L330.527,269.21L331.25,268.984L331.973,268.619L332.695,266.795L333.418,266.708L334.141,265.238L334.863,264.772L335.586,262.912L336.309,262.907L337.031,261.168L337.754,259.787L338.477,258.782L339.199,258.306L339.922,256.983L340.645,256.309L341.367,255.956L342.09,253.783L342.813,252.928L343.535,253.081L344.258,252.039L344.98,251.088L345.703,249.204L346.426,248.974L347.148,248.062L347.871,247.123L348.594,246.179L349.316,245.46L350.039,244.515L350.762,243.341L351.484,242.533L352.207,241.771L352.93,240.561L353.652,239.335L354.375,238.401L355.098,237.026L355.82,236.506L356.543,235.331L357.266,234.396L357.988,234.276L358.711,233.036L359.434,232.089L360.156,231.147L360.879,230.536L361.602,229.644L362.324,228.748L363.047,227.191L363.77,226.856L364.492,225.307L365.215,224.182L365.938,223.485L366.66,223.491L367.383,221.595L368.105,221.653L368.828,219.682L369.551,218.671L370.273,217.427L370.996,217.589L371.719,216.633L372.441,215.706L373.164,214.261L373.887,213.407L374.609,212.186L375.332,211.917L376.055,211.087L376.777,209.83L377.5,209.671L378.223,207.325L378.945,207.155L379.668,206.458L380.391,204.933L381.113,204.865L381.836,203.668L382.559,202.83L383.281,202.224L384.004,200.166L384.727,200.292L385.449,198.071L386.172,198.166L386.895,196.823L387.617,196.335L388.34,195.938L389.063,194.689L389.785,194.501L390.508,192.888L391.23,191.596L391.953,191.254L392.676,190.889L393.398,189.955L394.121,189.157L394.844,188.249L395.566,186.38L396.289,186.584L397.012,184.667L397.734,184.922L398.457,183.044L399.18,182.223L399.902,181.494L400.625,181.71L401.348,180.645L402.07,178.944L402.793,178.641L403.516,178.061L404.238,177.216L404.961,175.841L405.684,175.392L406.406,174.812L407.129,174.556L407.852,172.917L408.574,172.318L409.297,170.935L410.02,171.076L410.742,170.444L411.465,169.176L412.188,167.583L412.91,167.981L413.633,166.085L414.355,166.5L415.078,164.507L415.801,164.479L416.523,164.209L417.246,162.942L417.969,162.155L418.691,160.658L419.414,160.889L420.137,160.306L420.859,158.363L421.582,158.04L422.305,158.202L423.027,157.188L423.75,156.346L424.473,155.936L425.195,154.552L425.918,154.859L426.641,152.809L427.363,151.893L428.086,151.149L428.809,151.03L429.531,150.194L430.254,149.541L430.977,148.993L431.699,147.597L432.422,147L433.145,146.198L433.867,145.935L434.59,145.504L435.313,144.93L436.035,143.391L436.758,143.371L437.48,142.476L438.203,141.279L438.926,140.446L439.648,139.987L440.371,140L441.094,139.121L441.816,138.586L442.539,137.802L443.262,135.934L443.984,135.712L444.707,135.551L445.43,134.507L446.152,133.629L446.875,132.964L447.598,132.642L448.32,132.64L449.043,131.98L449.766,130.247L450.488,130.229L451.211,129.592L451.934,129.302L452.656,127.974L453.379,127.318L454.102,126.921L454.824,125.565L455.547,125.407L456.27,124.333L456.992,124.683L457.715,123.524L458.438,123.186L459.16,122.956L459.883,122.277L460.605,121.008L461.328,120.753L462.051,120.015L462.773,119.915L463.496,119.166L464.219,117.691L464.941,117.394L465.664,116.782L466.387,116.389L467.109,115.63L467.832,115.346L468.555,114.288L469.277,113.785"/><path fill="none" stroke="rgb(69, 105, 238)" stroke-width="1.5" d="M100,315.509L100.723,308.462L101.445,305.471L102.168,302.919L102.891,302.388L103.613,300.602L104.336,297.084L105.059,296.764L105.781,294.909L106.504,291.647L107.227,290.49L107.949,287.827L108.672,285.23L109.395,283.481L110.117,280.936L110.84,276.525L111.563,273.875L112.285,270.804L113.008,268.285L113.73,264.894L114.453,261.587L115.176,258.395L115.898,253.298L116.621,249.798L117.344,245.175L118.066,240.468L118.789,237.327L119.512,232.533L120.234,227.477L120.957,222.98L121.68,217.622L122.402,236.088L123.125,236.124L123.848,237.886L124.57,238.783L125.293,240.805L126.016,242.039L126.738,243.136L127.461,244.07L128.184,244.823L128.906,244.845L129.629,246.779L130.352,248.316L131.074,248.804L131.797,249.714L132.52,250.273L133.242,251.64L133.965,252.089L134.688,252.803L135.41,253.453L136.133,255.132L136.855,254.107L137.578,256.352L138.301,256.688L139.023,258.498L139.746,258.66L140.469,257.903L141.191,259.443L141.914,260.209L142.637,261.398L143.359,261.712L144.082,263.029L144.805,263.1L145.527,263.711L146.25,264.485L146.973,264.391L147.695,265.08L148.418,264.147L149.141,265.693L149.863,266.861L150.586,267.176L151.309,267.432L152.031,267.755L152.754,268.249L153.477,268.239L154.199,268.99L154.922,269.425L155.645,269.073L156.367,270.04L157.09,269.778L157.813,269.253L158.535,270.639L159.258,269.504L159.98,271.002L160.703,270.904L161.426,271.338L162.148,271.611L162.871,272.007L163.594,272.796L164.316,272.879L165.039,271.537L165.762,272.25L166.484,272.796L167.207,271.699L167.93,273.638L168.652,272.893L169.375,272.703L170.098,272.179L170.82,272.541L171.543,272.668L172.266,272.651L172.988,272.559L173.711,273.109L174.434,273.049L175.156,272.141L175.879,271.2L176.602,273.22L177.324,272.824L178.047,272.707L178.77,271.925L179.492,272.163L180.215,272.542L180.938,270.517L181.66,271.59L182.383,271.632L183.105,271.529L183.828,270.881L184.551,268.957L185.273,270.968L185.996,269.553L186.719,269.213L187.441,268.885L188.164,268.696L188.887,269.226L189.609,267.447L190.332,267.649L191.055,268.281L191.777,266.953L192.5,266.478L193.223,267.14L193.945,266.266L194.668,264.515L195.391,263.712L196.113,264.111L196.836,264.647L197.559,263.968L198.281,261.929L199.004,262.958L199.727,262.529L200.449,261.887L201.172,260.835L201.895,261.019L202.617,260.549L203.34,259.067L204.063,258.385L204.785,259.008L205.508,257.622L206.23,256.216L206.953,256.737L207.676,255.748L208.398,253.824L209.121,253.06L209.844,253.216L210.566,253.435L211.289,252.218L212.012,251.9L212.734,251.34L213.457,250.369L214.18,248.829L214.902,249.001L215.625,247.589L216.348,247.514L217.07,245.51L217.793,246.011L218.516,245.199L219.238,243.478L219.961,242.323L220.684,241.82L221.406,241.382L222.129,239.961L222.852,238.779L223.574,238.108L224.297,236.635L225.02,236.715L225.742,235.463L226.465,234.72L227.188,233.812L227.91,232.726L228.633,235.341L229.355,237.365L230.078,240.704L230.801,245.351L231.523,246.211L232.246,250.859L232.969,255.242L233.691,257.699L234.414,261.63L235.137,265.121L235.859,268.132L236.582,271.491L237.305,275.953L238.027,277.754L238.75,282.483L239.473,285.668L240.195,291.111L240.918,293.472L241.641,297.579L242.363,299.435L243.086,303.618L243.809,307.985L244.531,312.799L245.254,314.727L245.977,316.291L246.699,313.887L247.422,314.029L248.145,313.75L248.867,313.713L249.59,312.866L250.313,312.562L251.035,312.24L251.758,311.365L252.48,310.811L253.203,311.089L253.926,310.315L254.648,309.484L255.371,308.872L256.094,308.749L256.816,308.546L257.539,307.775L258.262,307.006L258.984,306.36L259.707,305.941L260.43,305.4L261.152,304.543L261.875,304.745L262.598,303.909L263.32,303.602L264.043,303.045L264.766,302.071L265.488,300.826L266.211,299.802L266.934,299.151L267.656,298.606L268.379,298.494L269.102,297.167L269.824,297.417L270.547,296.663L271.27,294.7L271.992,294.755L272.715,294.47L273.438,293.956L274.16,293.035L274.883,291.559L275.605,291.679L276.328,291.044L277.051,290.194L277.773,289.077L278.496,288.635L279.219,287.812L279.941,286.294L280.664,286.061L281.387,284.979L282.109,284.155L282.832,283.889L283.555,282.917L284.277,282.284L285,282.341L285.723,280.625L286.445,280.721L287.168,278.693L287.891,277.853L288.613,277.354L289.336,277.35L290.059,276.093L290.781,274.982L291.504,273.795L292.227,272.873L292.949,272.045L293.672,271.052L294.395,270.171L295.117,270.277L295.84,268.356L296.563,267.599L297.285,266.753L298.008,266.101L298.73,265.155L299.453,264.111L300.176,263.312L300.898,262.232L301.621,260.811L302.344,260.454L303.066,259.825L303.789,259.261L304.512,258.41L305.234,257.19L305.957,256.082L306.68,254.921L307.402,254.369L308.125,254.053L308.848,252.032L309.57,251.606L310.293,251.007L311.016,250.126L311.738,249.49L312.461,248.011L313.184,247.112L313.906,245.614L314.629,244.915L315.352,244.1L316.074,242.868L316.797,241.981L317.52,242.133L318.242,240.745L318.965,239.058L319.688,239.16L320.41,238.6L321.133,237.285L321.855,235.435L322.578,235.254L323.301,234.699L324.023,233.689L324.746,232.564L325.469,231.611L326.191,230.45L326.914,229.122L327.637,228.631L328.359,228.055L329.082,226.326L329.805,226.128L330.527,224.921L331.25,224.398L331.973,223.612L332.695,222.406L333.418,221.422L334.141,220.541L334.863,220.159L335.586,218.97L336.309,217.37L337.031,216.782L337.754,216.234L338.477,214.864L339.199,214.05L339.922,213.315L340.645,212.437L341.367,212.173L342.09,210.505L342.813,210.471L343.535,208.822L344.258,207.852L344.98,206.77L345.703,205.919L346.426,206.033L347.148,204.619L347.871,203.613L348.594,202.86L349.316,201.532L350.039,200.649L350.762,200.057L351.484,198.806L352.207,198.527L352.93,197.678L353.652,197.327L354.375,195.714L355.098,194.632L355.82,194.287L356.543,194.088L357.266,192.314L357.988,192.353L358.711,190.867L359.434,190.1L360.156,189.194L360.879,188.382L361.602,186.91L362.324,186.588L363.047,186.088L363.77,185.526L364.492,184.03L365.215,183.02L365.938,182.061L366.66,181.114L367.383,180.292L368.105,179.773L368.828,179.204L369.551,178.645L370.273,177.755L370.996,177.04L371.719,175.545L372.441,175.326L373.164,174.855L373.887,173.33L374.609,173.824L375.332,172.285L376.055,171.362L376.777,170.721L377.5,169.852L378.223,169.238L378.945,168.517L379.668,167.683L380.391,166.939L381.113,165.552L381.836,165.529L382.559,164.689L383.281,163.85L384.004,162.734L384.727,162.023L385.449,162.115L386.172,161.031L386.895,160.248L387.617,158.954L388.34,158.695L389.063,157.751L389.785,157.566L390.508,156.829L391.23,155.873L391.953,155.179L392.676,154.76L393.398,153.151L394.121,152.877L394.844,152.632L395.566,151.807L396.289,150.885L397.012,150.594L397.734,148.166L398.457,148.496L399.18,147.826L399.902,147.145L400.625,147.086L401.348,146.166L402.07,145.5L402.793,145.163L403.516,143.987L404.238,143.594L404.961,143.196L405.684,141.743L406.406,141.781L407.129,140.38L407.852,139.678L408.574,139.486L409.297,138.196L410.02,138.476L410.742,137.206L411.465,137.459L412.188,135.99L412.91,135.71L413.633,135.308L414.355,134.061L415.078,134.111L415.801,133.192L416.523,132.415L417.246,130.669L417.969,131.119L418.691,130.365L419.414,130.427L420.137,129.571L420.859,128.31L421.582,127.89L422.305,127.252L423.027,127.085L423.75,126.401L424.473,125.027L425.195,124.941L425.918,124.991L426.641,124.32L427.363,123.493L428.086,122.854L428.809,122.917L429.531,122.363L430.254,120.698L430.977,120.354L431.699,120.259L432.422,119.133L433.145,119.086L433.867,117.805L434.59,118.449L435.313,117.09L436.035,116.898L436.758,116.262L437.48,115.324L438.203,115.196L438.926,114.649L439.648,114.695L440.371,112.796L441.094,112.855L441.816,112.185L442.539,111.422L443.262,111.412L443.984,109.982L444.707,110.23L445.43,109.956L446.152,109.204L446.875,109.179L447.598,108.279L448.32,107.759L449.043,106.802L449.766,107.25L450.488,105.79L451.211,105.808L451.934,105.227L452.656,104.56L453.379,104.365L454.102,103.831L454.824,103.583L455.547,102.716L456.27,102.138L456.992,101.462L457.715,100.739L458.438,100.613L459.16,100.064L459.883,99.942L460.605,99.416L461.328,98.83L462.051,98.201L462.773,97.825L463.496,97.156L464.219,96.328L464.941,96.285L465.664,96.044L466.387,95.657L467.109,94.027L467.832,94.8L468.555,93.636L469.277,94.071"/><path fill="none" stroke="rgb(38, 188, 225)" stroke-width="1.5" d="M100,289.043L100.723,283.577L101.445,279.801L102.168,275.972L102.891,274.162L103.613,271.146L104.336,269.067L105.059,265.388L105.781,263.759L106.504,261.186L107.227,258.446L107.949,255.805L108.672,253.453L109.395,249.266L110.117,246.996L110.84,244.037L111.563,239.775L112.285,236.268L113.008,233.1L113.73,229.416L114.453,225.572L115.176,220.867L115.898,217.626L116.621,213.058L117.344,207.927L118.066,232.635L118.789,242.077L119.512,244.02L120.234,246.337L120.957,247.838L121.68,248.969L122.402,251.001L123.125,252.105L123.848,253.618L124.57,252.87L125.293,254.646L126.016,254.369L126.738,256.101L127.461,256.455L128.184,256.09L128.906,257.081L129.629,258.374L130.352,257.299L131.074,258.306L131.797,259.35L132.52,258.726L133.242,259.361L133.965,259.522L134.688,259.793L135.41,259.806L136.133,260.681L136.855,260.755L137.578,260.76L138.301,261.742L139.023,261.886L139.746,261.896L140.469,261.044L141.191,261.319L141.914,261.175L142.637,262.186L143.359,262.184L144.082,261.703L144.805,262.143L145.527,260.814L146.25,262.291L146.973,261.227L147.695,261.631L148.418,261.757L149.141,261.202L149.863,260.94L150.586,260.346L151.309,260.624L152.031,260.498L152.754,259.775L153.477,260.249L154.199,258.473L154.922,259.473L155.645,258.423L156.367,259.05L157.09,257.857L157.813,258.125L158.535,257.46L159.258,256.823L159.98,256.23L160.703,255.606L161.426,255.038L162.148,253.717L162.871,254.332L163.594,253.732L164.316,253.437L165.039,251.421L165.762,251.363L166.484,251.855L167.207,250.095L167.93,249.867L168.652,249L169.375,249.093L170.098,247.796L170.82,246.822L171.543,245.354L172.266,245.405L172.988,244.152L173.711,243.823L174.434,242.571L175.156,242.061L175.879,240.838L176.602,240.391L177.324,240.078L178.047,237.969L178.77,238.435L179.492,236.061L180.215,236.133L180.938,235.425L181.66,234.015L182.383,232.355L183.105,231.904L183.828,230.239L184.551,229.683L185.273,228.969L185.996,227.503L186.719,226.001L187.441,225.432L188.164,224.387L188.887,222.756L189.609,222.214L190.332,221.284L191.055,220.386L191.777,218.794L192.5,217.914L193.223,215.707L193.945,215.409L194.668,213.957L195.391,212.233L196.113,210.994L196.836,210.506L197.559,209.36L198.281,207.13L199.004,206.363L199.727,204.876L200.449,203.592L201.172,202.81L201.895,200.985L202.617,199.994L203.34,199.479L204.063,197.338L204.785,196.686L205.508,195.07L206.23,193.478L206.953,192.824L207.676,190.455L208.398,189.992L209.121,187.9L209.844,186.96L210.566,185.547L211.289,184.155L212.012,182.924L212.734,182.304L213.457,182.691L214.18,185.574L214.902,186.481L215.625,190.118L216.348,192.295L217.07,195.258L217.793,196.717L218.516,197.711L219.238,202.736L219.961,205.514L220.684,207.314L221.406,208.302L222.129,213.347L222.852,215.617L223.574,216.339L224.297,220.819L225.02,223.446L225.742,227.177L226.465,228.237L227.188,231.213L227.91,235.742L228.633,236.799L229.355,239.281L230.078,242.885L230.801,244.814L231.523,249.857L232.246,251.921L232.969,251.334L233.691,250.969L234.414,250.662L235.137,248.876L235.859,249.054L236.582,248.409L237.305,247.011L238.027,246.594L238.75,245.465L239.473,244.42L240.195,243.853L240.918,243.037L241.641,242.27L242.363,241.421L243.086,240.521L243.809,240.523L244.531,239.365L245.254,238.058L245.977,237.682L246.699,237.5L247.422,235.926L248.145,235.357L248.867,234.61L249.59,234.511L250.313,232.704L251.035,232.114L251.758,231.736L252.48,231.507L253.203,230.315L253.926,229.673L254.648,228.858L255.371,228.551L256.094,226.844L256.816,226.269L257.539,225.507L258.262,224.755L258.984,224.501L259.707,223.73L260.43,223.332L261.152,222.646L261.875,221.902L262.598,220.932L263.32,220.119L264.043,219.497L264.766,218.717L265.488,218.097L266.211,216.582L266.934,216.465L267.656,215.916L268.379,215.134L269.102,214.531L269.824,213.706L270.547,213.044L271.27,212.376L271.992,211.559L272.715,210.673L273.438,209.919L274.16,209.507L274.883,208.795L275.605,207.642L276.328,206.541L277.051,206.614L277.773,205.993L278.496,204.972L279.219,204.357L279.941,203.803L280.664,202.896L281.387,202.059L282.109,201.171L282.832,200.977L283.555,199.8L284.277,199.479L285,198.448L285.723,198.637L286.445,196.915L287.168,196.419L287.891,195.747L288.613,195.061L289.336,194.381L290.059,193.585L290.781,193.345L291.504,192.318L292.227,191.557L292.949,191.781L293.672,190.594L294.395,189.815L295.117,189.29L295.84,188.327L296.563,187.962L297.285,187.219L298.008,186.377L298.73,185.651L299.453,184.882L300.176,184.532L300.898,183.807L301.621,183.267L302.344,182.634L303.066,181.983L303.789,181.27L304.512,180.711L305.234,179.693L305.957,179.29L306.68,179.018L307.402,178.087L308.125,177.583L308.848,176.789L309.57,176.945L310.293,175.709L311.016,175.67L311.738,174.194L312.461,173.067L313.184,173.355L313.906,172.416L314.629,171.683L315.352,170.985L316.074,170.78L316.797,170.349L317.52,169.282L318.242,168.745L318.965,168.073L319.688,167.874L320.41,166.659L321.133,166.286L321.855,165.65L322.578,165.132L323.301,164.711L324.023,164.244L324.746,163.422L325.469,162.819L326.191,162.192L326.914,161.552L327.637,161.31L328.359,160.843L329.082,160.211L329.805,159.631L330.527,159.131L331.25,158.024L331.973,158.343L332.695,157.322L333.418,156.274L334.141,156.442L334.863,155.71L335.586,154.983L336.309,154.584L337.031,153.72L337.754,153.67L338.477,153.053L339.199,152.27L339.922,151.927L340.645,151.373L341.367,150.883L342.09,150.308L342.813,149.182L343.535,149.198L344.258,148.717L344.98,148.058L345.703,147.776L346.426,146.914L347.148,146.195L347.871,145.653L348.594,145.143L349.316,144.532L350.039,144.772L350.762,144.433L351.484,143.202L352.207,143.045L352.93,142.372L353.652,141.663L354.375,141.822L355.098,140.801L355.82,140.588L356.543,139.687L357.266,139.583L357.988,139.058L358.711,138.425L359.434,138.063L360.156,137.199L360.879,136.778L361.602,136.574L362.324,135.799L363.047,135.22L363.77,135.05L364.492,134.698L365.215,134.383L365.938,133.759L366.66,133.052L367.383,132.417L368.105,132.259L368.828,131.29L369.551,130.97L370.273,130.782L370.996,130.035L371.719,129.582L372.441,129.62L373.164,129.016L373.887,128.006L374.609,128.041L375.332,127.492L376.055,127.046L376.777,126.85L377.5,126.173L378.223,125.388L378.945,125.245L379.668,124.523L380.391,124.633L381.113,123.809L381.836,123.657L382.559,122.965L383.281,122.226L384.004,122.125L384.727,122.139L385.449,121.05L386.172,120.217L386.895,120.013L387.617,120.099L388.34,119.196L389.063,118.626L389.785,118.248L390.508,118.276L391.23,117.945L391.953,117.297L392.676,116.859L393.398,116.302L394.121,116.291L394.844,115.199L395.566,115.247L396.289,114.257L397.012,114.119L397.734,113.713L398.457,113.689L399.18,112.691L399.902,112.747L400.625,111.986L401.348,111.703L402.07,111.479L402.793,110.568L403.516,110.16L404.238,110.04L404.961,109.267L405.684,109.249L406.406,108.423L407.129,108.51L407.852,108.096L408.574,107.84L409.297,107.205L410.02,106.454L410.742,106.579L411.465,106.259L412.188,105.327L412.91,105.017L413.633,105.089L414.355,104.338L415.078,104.314L415.801,103.62L416.523,103.277L417.246,102.946L417.969,102.551L418.691,102.093L419.414,101.723L420.137,101.386L420.859,101.095L421.582,100.826L422.305,100.379L423.027,100.056L423.75,99.71L424.473,99.056L425.195,99.282L425.918,98.324L426.641,97.977L427.363,98.035L428.086,96.861L428.809,96.679L429.531,96.449L430.254,96.412L430.977,95.688L431.699,95.419L432.422,95.262L433.145,94.651L433.867,94.055L434.59,93.826L435.313,93.306L436.035,93.561L436.758,92.805L437.48,92.689L438.203,92.278L438.926,92.008L439.648,91.529L440.371,91.112L441.094,90.701L441.816,90.78L442.539,90.245L443.262,90.011L443.984,89.039L444.707,88.901L445.43,88.876L446.152,88.175L446.875,88.127L447.598,87.713L448.32,87.65L449.043,87.273L449.766,86.954L450.488,86.399L451.211,86.047L451.934,85.638L452.656,85.559L453.379,85.042L454.102,84.634L454.824,84.122L455.547,84.234L456.27,83.769L456.992,83.824L457.715,82.817L458.438,82.993L459.16,82.275L459.883,82.474L460.605,82.139L461.328,81.43L462.051,81.386L462.773,81.179L463.496,80.913L464.219,80.028L464.941,79.566L465.664,79.307L466.387,79.322L467.109,79.193L467.832,78.58L468.555,78.406L469.277,77.743"/><path fill="none" stroke="rgb(63, 243, 147)" stroke-width="1.5" d="M100,264.127L100.723,259.621L101.445,255.153L102.168,251.448L102.891,246.592L103.613,242.164L104.336,239.118L105.059,235.207L105.781,232.726L106.504,229.194L107.227,224.989L107.949,222.34L108.672,218.64L109.395,215.375L110.117,210.93L110.84,207.744L111.563,204.24L112.285,199.694L113.008,214.492L113.73,240.458L114.453,242.179L115.176,243.284L115.898,245.555L116.621,246.669L117.344,249.121L118.066,250.786L118.789,252.334L119.512,253.858L120.234,253.884L120.957,256.062L121.68,257.12L122.402,257.931L123.125,257.922L123.848,258.935L124.57,259.572L125.293,258.399L126.016,258.828L126.738,259.604L127.461,260.003L128.184,259.766L128.906,259.5L129.629,258.194L130.352,258.22L131.074,258.948L131.797,258.566L132.52,257.636L133.242,257.386L133.965,257.506L134.688,257.078L135.41,256.099L136.133,254.805L136.855,255.267L137.578,254.624L138.301,254.174L139.023,253.497L139.746,252.666L140.469,251.969L141.191,251.913L141.914,250.868L142.637,250.102L143.359,248.999L144.082,248.508L144.805,247.348L145.527,246.659L146.25,245.655L146.973,245.783L147.695,244.919L148.418,243.583L149.141,241.78L149.863,241.61L150.586,241.066L151.309,239.913L152.031,238.776L152.754,236.89L153.477,237.059L154.199,234.948L154.922,233.969L155.645,232.375L156.367,231.996L157.09,230.228L157.813,228.097L158.535,229.095L159.258,226.934L159.98,225.684L160.703,225.324L161.426,223.57L162.148,221.31L162.871,220.549L163.594,219.954L164.316,217.652L165.039,216.219L165.762,215.574L166.484,213.89L167.207,212.271L167.93,211.212L168.652,209.214L169.375,207.995L170.098,207.128L170.82,204.966L171.543,203.787L172.266,201.671L172.988,199.832L173.711,198.605L174.434,196.788L175.156,195.41L175.879,193.872L176.602,191.842L177.324,191.013L178.047,188.961L178.77,187.897L179.492,185.394L180.215,183.803L180.938,181.68L181.66,180.903L182.383,178.396L183.105,177.779L183.828,174.104L184.551,173.124L185.273,171.525L185.996,172.549L186.719,173.923L187.441,174.937L188.164,175.854L188.887,177.607L189.609,179.448L190.332,181.964L191.055,182.857L191.777,184.205L192.5,186.503L193.223,188.723L193.945,191.041L194.668,192.413L195.391,192.919L196.113,194.725L196.836,196.649L197.559,197.146L198.281,201.064L199.004,202.783L199.727,205.348L200.449,206.482L201.172,208.184L201.895,209.858L202.617,211.225L203.34,213.199L204.063,216.799L204.785,217.47L205.508,218.497L206.23,222.251L206.953,223.726L207.676,223.918L208.398,222.004L209.121,220.82L209.844,219.346L210.566,217.942L211.289,216.572L212.012,215.644L212.734,215.123L213.457,213.852L214.18,211.895L214.902,210.878L215.625,210.004L216.348,208.408L217.07,207.489L217.793,205.954L218.516,205.261L219.238,203.792L219.961,202.754L220.684,200.918L221.406,199.647L222.129,198.7L222.852,197.713L223.574,196.507L224.297,195.066L225.02,193.807L225.742,192.614L226.465,191.38L227.188,190.476L227.91,188.911L228.633,187.684L229.355,186.962L230.078,186.322L230.801,185.262L231.523,184.214L232.246,182.326L232.969,182L233.691,180.33L234.414,179.681L235.137,179.008L235.859,178.044L236.582,176.411L237.305,175.736L238.027,174.073L238.75,173.255L239.473,172.13L240.195,171.186L240.918,170.228L241.641,169.225L242.363,168.304L243.086,167.033L243.809,166.861L244.531,165.338L245.254,164.108L245.977,163.565L246.699,163.232L247.422,161.838L248.145,161.184L248.867,159.557L249.59,159.055L250.313,157.919L251.035,157.712L251.758,156.529L252.48,155.635L253.203,155.218L253.926,154.315L254.648,153.239L255.371,152.112L256.094,151.988L256.816,150.757L257.539,149.849L258.262,149.464L258.984,149.137L259.707,147.705L260.43,147.035L261.152,145.772L261.875,145.788L262.598,145.322L263.32,144.503L264.043,143.628L264.766,142.979L265.488,142.159L266.211,141.043L266.934,141.14L267.656,140.611L268.379,139.116L269.102,139.164L269.824,138.518L270.547,138.314L271.27,137.245L271.992,136.444L272.715,135.946L273.438,135.627L274.16,134.401L274.883,134.696L275.605,134.021L276.328,133.323L277.051,132.634L277.773,132.616L278.496,132.129L279.219,131.724L279.941,130.664L280.664,130.355L281.387,129.865L282.109,129.126L282.832,129.084L283.555,128.349L284.277,128.537L285,127.578L285.723,127.299L286.445,126.429L287.168,126.295L287.891,125.923L288.613,125.539L289.336,125.044L290.059,124.724L290.781,124.195L291.504,123.632L292.227,123.323L292.949,122.581L293.672,122.734L294.395,122.419L295.117,122.074L295.84,121.57L296.563,121.493L297.285,121.023L298.008,120.652L298.73,120.051L299.453,119.937L300.176,119.468L300.898,118.897L301.621,118.744L302.344,118.084L303.066,117.673L303.789,117.749L304.512,117.623L305.234,116.979L305.957,116.907L306.68,116.492L307.402,116.65L308.125,115.835L308.848,115.304L309.57,114.901L310.293,115.067L311.016,114.595L311.738,114.472L312.461,114.074L313.184,113.752L313.906,113.967L314.629,113.106L315.352,113.519L316.074,112.538L316.797,112.271L317.52,112.367L318.242,112.219L318.965,111.403L319.688,111.829L320.41,110.93L321.133,110.898L321.855,110.305L322.578,110.197L323.301,109.939L324.023,110.113L324.746,109.562L325.469,109.622L326.191,108.792L326.914,108.577L327.637,108.434L328.359,108.215L329.082,108.045L329.805,107.466L330.527,107.499L331.25,106.971L331.973,106.969L332.695,106.752L333.418,106.5L334.141,106.059L334.863,105.955L335.586,105.776L336.309,105.51L337.031,105.13L337.754,105.159L338.477,104.722L339.199,104.281L339.922,104.36L340.645,104.054L341.367,104.034L342.09,103.494L342.813,102.617L343.535,102.978L344.258,102.829L344.98,102.359L345.703,102.289L346.426,101.904L347.148,102.053L347.871,101.596L348.594,101.114L349.316,100.99L350.039,100.465L350.762,100.398L351.484,100.53L352.207,99.829L352.93,99.774L353.652,99.484L354.375,99.398L355.098,98.686L355.82,98.774L356.543,98.421L357.266,98.428L357.988,98.026L358.711,97.409L359.434,97.219L360.156,97.227L360.879,97.078L361.602,96.779L362.324,96.453L363.047,96.631L363.77,96.173L364.492,95.728L365.215,95.739L365.938,95.247L366.66,95.463L367.383,94.765L368.105,94.702L368.828,94.697L369.551,94.056L370.273,94.057L370.996,93.61L371.719,93.193L372.441,93.14L373.164,92.989L373.887,92.83L374.609,92.768L375.332,92.277L376.055,92.027L376.777,91.949L377.5,91.661L378.223,91.241L378.945,91.436L379.668,90.996L380.391,90.528L381.113,90.134L381.836,90.215L382.559,89.928L383.281,90.049L384.004,89.799L384.727,89.409L385.449,88.931L386.172,88.966L386.895,88.662L387.617,88.341L388.34,87.945L389.063,87.943L389.785,87.737L390.508,87.557L391.23,87.011L391.953,86.944L392.676,86.659L393.398,86.526L394.121,86.22L394.844,85.613L395.566,85.729L396.289,85.386L397.012,85.625L397.734,85.2L398.457,84.89L399.18,84.54L399.902,84.259L400.625,84.095L401.348,83.722L402.07,83.881L402.793,83.241L403.516,83.078L404.238,82.919L404.961,82.788L405.684,82.358L406.406,82.257L407.129,82.298L407.852,81.682L408.574,81.633L409.297,81.21L410.02,80.93L410.742,81.092L411.465,80.829L412.188,80.668L412.91,80.066L413.633,80.1L414.355,79.65L415.078,79.877L415.801,78.999L416.523,79.179L417.246,78.902L417.969,78.716L418.691,78.51L419.414,78.12L420.137,77.957L420.859,77.933L421.582,77.405L422.305,77.037L423.027,77.31L423.75,76.846L424.473,76.506L425.195,76.315L425.918,76.154L426.641,76.012L427.363,75.676L428.086,75.492L428.809,75.274L429.531,75.273L430.254,74.686L430.977,74.794L431.699,74.5L432.422,74.122L433.145,73.852L433.867,73.533L434.59,73.589L435.313,73.403L436.035,73.04L436.758,72.735L437.48,72.615L438.203,72.384L438.926,72.27L439.648,72.08L440.371,71.962L441.094,71.579L441.816,71.371L442.539,71.184L443.262,70.794L443.984,70.606L444.707,70.299L445.43,70.31L446.152,70.104L446.875,69.742L447.598,69.609L448.32,69.451L449.043,69.077L449.766,68.994L450.488,68.925L451.211,68.518L451.934,68.509L452.656,68.058L453.379,68.295L454.102,67.799L454.824,67.808L455.547,67.755L456.27,67.431L456.992,66.827L457.715,66.86L458.438,66.699L459.16,66.701L459.883,66.048L460.605,66.211L461.328,66.001L462.051,65.627L462.773,65.653L463.496,65.195L464.219,64.867L464.941,65.098L465.664,64.489L466.387,64.469L467.109,64.325L467.832,63.479L468.555,64.027L469.277,63.425"/><path fill="none" stroke="rgb(149, 251, 81)" stroke-width="1.5" d="M100,248.407L100.723,245.042L101.445,241.189L102.168,236.985L102.891,230.592L103.613,225.786L104.336,219.573L105.059,216.267L105.781,210.411L106.504,205.7L107.227,201.358L107.949,196.719L108.672,191.549L109.395,203.37L110.117,229.068L110.84,234.178L111.563,235.878L112.285,237.934L113.008,239.379L113.73,240.314L114.453,242.241L115.176,243.413L115.898,244.354L116.621,245.171L117.344,246.712L118.066,248.434L118.789,250.35L119.512,249.106L120.234,249.531L120.957,249.969L121.68,250.99L122.402,251.568L123.125,251.132L123.848,251.582L124.57,252.059L125.293,251.68L126.016,251.237L126.738,251.007L127.461,250.649L128.184,249.654L128.906,249.798L129.629,248.603L130.352,247.358L131.074,246.514L131.797,245.398L132.52,245.05L133.242,243.236L133.965,242.32L134.688,241.057L135.41,239.549L136.133,237.902L136.855,238.059L137.578,235.919L138.301,234.212L139.023,234.171L139.746,232.093L140.469,230.579L141.191,229.189L141.914,227.737L142.637,226.418L143.359,224.1L144.082,223.499L144.805,221.999L145.527,219.774L146.25,219.48L146.973,217.266L147.695,215.92L148.418,214.059L149.141,213.002L149.863,210.553L150.586,207.633L151.309,207.478L152.031,205.274L152.754,204.427L153.477,202.118L154.199,200.537L154.922,198.191L155.645,196.954L156.367,195.916L157.09,195.616L157.813,198.251L158.535,199.232L159.258,201.658L159.98,205.488L160.703,205.911L161.426,207.338L162.148,210.094L162.871,211.886L163.594,212.727L164.316,214.738L165.039,217.092L165.762,220.893L166.484,221.719L167.207,224.311L167.93,226.245L168.652,228.778L169.375,229.247L170.098,232.813L170.82,234.397L171.543,238.474L172.266,238.322L172.988,242.087L173.711,243.859L174.434,246.464L175.156,250.031L175.879,250.279L176.602,248.687L177.324,247.142L178.047,245.718L178.77,244.205L179.492,242.514L180.215,241.457L180.938,240.05L181.66,237.859L182.383,236.457L183.105,234.998L183.828,234.219L184.551,232.378L185.273,230.853L185.996,229.284L186.719,227.989L187.441,226.412L188.164,224.058L188.887,222.827L189.609,221.694L190.332,220.557L191.055,217.636L191.777,216.862L192.5,215.203L193.223,213.299L193.945,212.685L194.668,210.765L195.391,208.412L196.113,207.48L196.836,205.353L197.559,204.862L198.281,202.917L199.004,200.877L199.727,199.804L200.449,198.789L201.172,196.526L201.895,195.514L202.617,193.607L203.34,192.693L204.063,191.002L204.785,189.441L205.508,187.086L206.23,186.456L206.953,184.373L207.676,183.266L208.398,181.842L209.121,180.531L209.844,179.149L210.566,177.585L211.289,176.038L212.012,173.858L212.734,172.905L213.457,171.462L214.18,169.878L214.902,169.009L215.625,167.41L216.348,165.926L217.07,164.366L217.793,162.423L218.516,161.512L219.238,160.417L219.961,158.492L220.684,157.909L221.406,156.283L222.129,154.955L222.852,153.439L223.574,152.11L224.297,151.361L225.02,150.16L225.742,148.33L226.465,146.576L227.188,145.558L227.91,144.355L228.633,143.449L229.355,141.635L230.078,140.657L230.801,139.49L231.523,138.399L232.246,137.584L232.969,135.897L233.691,135.13L234.414,133.686L235.137,132.598L235.859,131.768L236.582,130.181L237.305,128.842L238.027,127.958L238.75,126.942L239.473,125.722L240.195,124.72L240.918,123.972L241.641,123.051L242.363,122.125L243.086,120.555L243.809,120.043L244.531,118.93L245.254,118.167L245.977,116.885L246.699,116.048L247.422,115.126L248.145,114.33L248.867,113.702L249.59,112.158L250.313,111.088L251.035,110.544L251.758,109.655L252.48,108.973L253.203,107.677L253.926,107.057L254.648,106.475L255.371,105.572L256.094,104.915L256.816,103.942L257.539,103.889L258.262,102.491L258.984,101.705L259.707,101.367L260.43,100.298L261.152,99.685L261.875,99.313L262.598,98.551L263.32,97.8L264.043,97.357L264.766,96.398L265.488,95.795L266.211,95.32L266.934,94.691L267.656,93.943L268.379,93.478L269.102,92.372L269.824,92.063L270.547,92.142L271.27,91.661L271.992,90.369L272.715,89.862L273.438,89.569L274.16,89.108L274.883,88.474L275.605,87.826L276.328,87.408L277.051,87.471L277.773,86.26L278.496,86.135L279.219,86.124L279.941,84.976L280.664,84.715L281.387,84.6L282.109,83.909L282.832,83.454L283.555,82.77L284.277,82.772L285,82.015L285.723,81.692L286.445,81.5L287.168,81.283L287.891,80.471L288.613,80.574L289.336,80.211L290.059,79.786L290.781,79.584L291.504,78.735L292.227,78.887L292.949,77.975L293.672,78.67L294.395,77.887L295.117,77.33L295.84,77.118L296.563,76.962L297.285,76.48L298.008,76.273L298.73,76.07L299.453,75.703L300.176,75.631L300.898,75.49L301.621,75.03L302.344,74.607L303.066,74.357L303.789,74.326L304.512,73.743L305.234,74.095L305.957,73.589L306.68,73.973L307.402,73.66L308.125,73.206L308.848,72.718L309.57,72.559L310.293,72.384L311.016,72.223L311.738,71.938L312.461,71.824L313.184,72.189L313.906,71.624L314.629,71.389L315.352,71.081L316.074,70.766L316.797,70.46L317.52,70.814L318.242,70.499L318.965,70.538L319.688,70.601L320.41,70.053L321.133,69.871L321.855,69.866L322.578,69.575L323.301,69.143L324.023,69.397L324.746,69.327L325.469,69.269L326.191,68.865L326.914,68.853L327.637,68.662L328.359,68.79L329.082,68.405L329.805,68.486L330.527,68.297L331.25,68.145L331.973,67.8L332.695,68.084L333.418,67.786L334.141,67.651L334.863,67.603L335.586,67.445L336.309,67.594L337.031,67.343L337.754,67.115L338.477,67.309L339.199,66.828L339.922,66.639L340.645,66.741L341.367,66.575L342.09,66.505L342.813,66.691L343.535,66.296L344.258,66.487L344.98,66.351L345.703,65.922L346.426,66.111L347.148,66.17L347.871,65.804L348.594,65.456L349.316,65.7L350.039,65.491L350.762,65.548L351.484,65.362L352.207,65.336L352.93,65.03L353.652,65.068L354.375,65.203L355.098,65.024L355.82,65.226L356.543,64.856L357.266,64.867L357.988,64.986L358.711,64.694L359.434,64.648L360.156,64.719L360.879,64.195L361.602,64.456L362.324,63.986L363.047,63.965L363.77,64.021L364.492,63.936L365.215,64.433L365.938,63.526L366.66,63.456L367.383,63.642L368.105,63.469L368.828,63.218L369.551,63.34L370.273,63.042L370.996,63.35L371.719,63.344L372.441,63.293L373.164,63.273L373.887,63.398L374.609,63.031L375.332,62.721L376.055,62.463L376.777,62.387L377.5,62.115L378.223,62.149L378.945,62.016L379.668,62.053L380.391,61.862L381.113,61.738L381.836,61.769L382.559,61.532L383.281,61.752L384.004,61.665L384.727,61.296L385.449,61.173L386.172,61.136L386.895,61.257L387.617,60.851L388.34,60.678L389.063,61.098L389.785,60.603L390.508,60.938L391.23,60.55L391.953,60.733L392.676,60.484L393.398,60.354L394.121,60.181L394.844,60.12L395.566,59.827L396.289,60.064L397.012,59.968L397.734,59.802L398.457,59.28L399.18,59.512L399.902,59.367L400.625,59.307L401.348,58.922L402.07,58.952L402.793,58.829L403.516,58.706L404.238,58.575L404.961,58.61L405.684,58.424L406.406,58.65L407.129,58.382L407.852,58.332L408.574,58.077L409.297,57.876L410.02,57.947L410.742,57.779L411.465,57.621L412.188,57.607L412.91,57.464L413.633,57.445L414.355,56.878L415.078,56.881L415.801,56.639L416.523,56.885L417.246,56.77L417.969,56.5L418.691,56.367L419.414,56.187L420.137,56.355L420.859,56.012L421.582,56.275L422.305,56.044L423.027,55.881L423.75,55.409L424.473,55.562L425.195,55.495L425.918,55.458L426.641,55.317L427.363,55.048L428.086,55.284L428.809,54.979L429.531,54.851L430.254,54.868L430.977,54.573L431.699,54.455L432.422,54.404L433.145,54.168L433.867,54.209L434.59,54.117L435.313,54.071L436.035,53.763L436.758,53.514L437.48,53.257L438.203,53.637L438.926,53.312L439.648,53.023L440.371,52.814L441.094,52.995L441.816,52.75L442.539,52.798L443.262,52.645L443.984,52.395L444.707,52.275L445.43,52.282L446.152,52.145L446.875,51.668L447.598,52.013L448.32,51.421L449.043,51.705L449.766,51.699L450.488,51.642L451.211,51.131L451.934,50.894L452.656,50.962L453.379,50.769L454.102,50.857L454.824,50.421L455.547,50.54L456.27,50.526L456.992,50.157L457.715,50.485L458.438,50.366L459.16,49.74L459.883,49.661L460.605,49.479L461.328,49.321L462.051,49.327L462.773,49.185L463.496,49.062L464.219,48.936L464.941,48.778L465.664,48.661L466.387,48.56L467.109,48.611L467.832,48.438L468.555,48.334L469.277,48.187"/><path fill="none" stroke="rgb(236, 209, 46)" stroke-width="1.5" d="M100,240.517L100.723,238.394L101.445,234.764L102.168,229.235L102.891,223.676L103.613,218.138L104.336,212.319L105.059,205.203L105.781,198.85L106.504,192.966L107.227,198.257L107.949,222.406L108.672,226.101L109.395,226.297L110.117,227.742L110.84,229.841L111.563,230.328L112.285,231.687L113.008,232.704L113.73,232.624L114.453,234.366L115.176,234.434L115.898,235.676L116.621,236.98L117.344,236.702L118.066,237.354L118.789,237.058L119.512,238.12L120.234,238.906L120.957,238.452L121.68,238.053L122.402,237.367L123.125,237.458L123.848,237.044L124.57,236.094L125.293,236.404L126.016,234.828L126.738,233.934L127.461,234.781L128.184,232.67L128.906,231.46L129.629,230.28L130.352,229.901L131.074,228.482L131.797,226.323L132.52,224.834L133.242,223.674L133.965,221.913L134.688,219.906L135.41,218.117L136.133,217.053L136.855,214.827L137.578,212.632L138.301,211.142L139.023,209.636L139.746,215.001L140.469,216.511L141.191,217.647L141.914,222.115L142.637,224.025L143.359,228.356L144.082,230.906L144.805,235.073L145.527,238.666L146.25,243.211L146.973,243.486L147.695,247.962L148.418,249.379L149.141,254.113L149.863,257.078L150.586,261.064L151.309,263.871L152.031,269.367L152.754,271.328L153.477,275.297L154.199,273.674L154.922,272.793L155.645,271.62L156.367,270.096L157.09,269.031L157.813,267.283L158.535,265.482L159.258,264.544L159.98,263.881L160.703,261.015L161.426,260.515L162.148,258.591L162.871,257.465L163.594,256.759L164.316,254.642L165.039,253.345L165.762,251.287L166.484,249.756L167.207,248.619L167.93,248.042L168.652,246.091L169.375,244.227L170.098,243.273L170.82,241.083L171.543,239.292L172.266,238.233L172.988,236.764L173.711,235.768L174.434,233.633L175.156,231.585L175.879,230.21L176.602,228.652L177.324,226.502L178.047,225.186L178.77,223.927L179.492,222.319L180.215,220.946L180.938,218.947L181.66,217.446L182.383,216.442L183.105,214.439L183.828,213.099L184.551,211.86L185.273,208.73L185.996,208.984L186.719,206.933L187.441,204.607L188.164,203.868L188.887,202.034L189.609,199.929L190.332,198.124L191.055,196.71L191.777,195.762L192.5,193.353L193.223,192.065L193.945,190.729L194.668,189.272L195.391,187.936L196.113,185.565L196.836,184.213L197.559,182.434L198.281,181.104L199.004,179.567L199.727,178.276L200.449,176.388L201.172,174.274L201.895,173.123L202.617,171.21L203.34,169.843L204.063,168.778L204.785,167.144L205.508,165.604L206.23,163.941L206.953,162.922L207.676,160.978L208.398,159.21L209.121,158.534L209.844,156.39L210.566,155.462L211.289,154.036L212.012,152.49L212.734,150.874L213.457,149.609L214.18,147.743L214.902,146.684L215.625,145.165L216.348,144.379L217.07,142.159L217.793,140.943L218.516,139.707L219.238,138.77L219.961,137.04L220.684,136.388L221.406,134.137L222.129,133.643L222.852,132.26L223.574,130.885L224.297,129.96L225.02,128.563L225.742,126.588L226.465,125.569L227.188,124.773L227.91,123.82L228.633,122.972L229.355,121.398L230.078,120.021L230.801,118.702L231.523,117.917L232.246,116.857L232.969,115.228L233.691,114.401L234.414,113.614L235.137,111.992L235.859,110.693L236.582,110.437L237.305,108.907L238.027,108.271L238.75,106.801L239.473,106.229L240.195,105.257L240.918,104.187L241.641,103.188L242.363,102.055L243.086,100.966L243.809,100.331L244.531,99.568L245.254,98.993L245.977,97.542L246.699,96.561L247.422,95.589L248.145,94.842L248.867,94.247L249.59,93.423L250.313,92.294L251.035,91.46L251.758,90.573L252.48,89.96L253.203,89.397L253.926,88.531L254.648,87.66L255.371,87.016L256.094,86.1L256.816,85.452L257.539,84.501L258.262,84.113L258.984,83.433L259.707,82.72L260.43,81.852L261.152,81.374L261.875,80.673L262.598,80.055L263.32,79.385L264.043,78.552L264.766,78.322L265.488,77.517L266.211,76.83L266.934,76.163L267.656,75.681L268.379,75.034L269.102,74.114L269.824,73.843L270.547,73.068L271.27,72.734L271.992,71.66L272.715,71.51L273.438,71.133L274.16,70.279L274.883,69.892L275.605,69.382L276.328,68.875L277.051,68.121L277.773,67.822L278.496,67.348L279.219,67.128L279.941,66.186L280.664,66.071L281.387,65.395L282.109,65.155L282.832,64.53L283.555,64.22L284.277,63.574L285,63.231L285.723,62.903L286.445,62.427L287.168,62.074L287.891,61.66L288.613,61.269L289.336,61.045L290.059,60.358L290.781,59.968L291.504,59.649L292.227,59.413L292.949,59.077L293.672,58.545L294.395,58.076L295.117,58.205L295.84,57.509L296.563,57.334L297.285,57.06L298.008,56.843L298.73,56.274L299.453,55.974L300.176,55.341L300.898,55.176L301.621,55.004L302.344,54.739L303.066,54.557L303.789,53.964L304.512,54.098L305.234,53.469L305.957,53.18L306.68,52.711L307.402,52.747L308.125,52.526L308.848,51.98L309.57,52L310.293,51.763L311.016,51.549L311.738,51.032L312.461,51.146L313.184,50.661L313.906,50.477L314.629,50.133L315.352,49.695L316.074,49.573L316.797,49.424L317.52,49.192L318.242,48.86L318.965,48.485L319.688,48.741L320.41,48.45L321.133,48.031L321.855,47.973L322.578,48.033L323.301,47.725L324.023,47.359L324.746,47.31L325.469,47.122L326.191,46.773L326.914,46.912L327.637,46.508L328.359,46.344L329.082,46.472L329.805,46.005L330.527,45.671L331.25,45.653L331.973,45.299L332.695,45.522L333.418,44.972L334.141,45.133L334.863,45.151L335.586,44.638L336.309,44.706L337.031,44.641L337.754,44.233L338.477,44.254L339.199,44.007L339.922,43.571L340.645,43.863L341.367,43.777L342.09,43.556L342.813,43.463L343.535,43.08L344.258,42.952L344.98,42.997L345.703,42.984L346.426,42.717L347.148,42.752L347.871,42.551L348.594,42.328L349.316,42.251L350.039,42.314L350.762,42.136L351.484,42.034L352.207,41.813L352.93,41.394L353.652,41.619L354.375,41.672L355.098,41.21L355.82,41.167L356.543,41.19L357.266,41.14L357.988,41.102L358.711,41.135L359.434,40.974L360.156,40.75L360.879,40.846L361.602,40.356L362.324,40.358L363.047,40.406L363.77,40.521L364.492,40.188L365.215,40.171L365.938,40.074L366.66,40.004L367.383,39.919L368.105,39.885L368.828,39.856L369.551,39.799L370.273,39.688L370.996,39.389L371.719,39.429L372.441,39.423L373.164,39.158L373.887,39.206L374.609,39.184L375.332,39.103L376.055,39.259L376.777,39.016L377.5,38.883L378.223,38.846L378.945,38.965L379.668,38.757L380.391,38.752L381.113,38.594L381.836,38.475L382.559,38.445L383.281,38.602L384.004,38.364L384.727,38.415L385.449,38.265L386.172,38.094L386.895,38.03L387.617,38.137L388.34,38.156L389.063,37.931L389.785,38.162L390.508,38.104L391.23,37.82L391.953,37.786L392.676,37.751L393.398,37.764L394.121,37.791L394.844,37.453L395.566,37.53L396.289,37.475L397.012,37.492L397.734,37.544L398.457,37.301L399.18,37.121L399.902,37.183L400.625,37.359L401.348,37.309L402.07,37.375L402.793,37.263L403.516,37.014L404.238,36.825L404.961,36.946L405.684,36.974L406.406,36.834L407.129,36.864L407.852,36.763L408.574,36.83L409.297,36.781L410.02,36.798L410.742,36.846L411.465,36.532L412.188,36.364L412.91,36.508L413.633,36.407L414.355,36.537L415.078,36.235L415.801,36.236L416.523,36.348L417.246,36.41L417.969,36.202L418.691,36.155L419.414,36.037L420.137,36.065L420.859,36.032L421.582,35.933L422.305,35.911L423.027,35.732L423.75,35.892L424.473,35.803L425.195,35.702L425.918,35.594L426.641,35.783L427.363,35.629L428.086,35.584L428.809,35.567L429.531,35.523L430.254,35.396L430.977,35.445L431.699,35.089L432.422,35.269L433.145,35.368L433.867,35.236L434.59,35.226L435.313,35.178L436.035,35.203L436.758,35.123L437.48,34.964L438.203,34.837L438.926,34.855L439.648,35.008L440.371,34.91L441.094,34.579L441.816,34.84L442.539,34.713L443.262,34.455L443.984,34.482L444.707,34.568L445.43,34.594L446.152,34.509L446.875,34.437L447.598,34.331L448.32,34.195L449.043,34.106L449.766,34.166L450.488,34.075L451.211,34.141L451.934,33.866L452.656,33.868L453.379,33.786L454.102,33.876L454.824,33.847L455.547,33.823L456.27,33.884L456.992,33.698L457.715,33.518L458.438,33.66L459.16,33.694L459.883,33.407L460.605,33.511L461.328,33.465L462.051,33.214L462.773,33.405L463.496,33.252L464.219,33.188L464.941,33.052L465.664,32.987L466.387,33.094L467.109,32.996L467.832,32.891L468.555,32.798L469.277,32.828"/><path fill="none" stroke="rgb(255, 130, 29)" stroke-width="1.5" d="M100,237.11L100.723,235.375L101.445,233.14L102.168,228.265L102.891,221.749L103.613,215.002L104.336,208.348L105.059,200.065L105.781,194.044L106.504,210.176L107.227,223.333L107.949,222.955L108.672,222.283L109.395,223.049L110.117,223.12L110.84,223.583L111.563,223.702L112.285,224.63L113.008,224.846L113.73,225.481L114.453,225.984L115.176,226.692L115.898,227.049L116.621,228.099L117.344,227.499L118.066,226.832L118.789,227.115L119.512,227.779L120.234,227.072L120.957,226.175L121.68,227.273L122.402,225.633L123.125,225.74L123.848,223.443L124.57,223.133L125.293,223.12L126.016,221.72L126.738,219.907L127.461,218.908L128.184,217.959L128.906,217.014L129.629,215.191L130.352,213.541L131.074,212.901L131.797,216.701L132.52,222.39L133.242,227.209L133.965,231.176L134.688,235.366L135.41,241.549L136.133,243.339L136.855,248.045L137.578,252.848L138.301,255.755L139.023,260.727L139.746,266.46L140.469,271.495L141.191,273.591L141.914,278.98L142.637,283.316L143.359,285.719L144.082,284.255L144.805,283.102L145.527,281.056L146.25,280.537L146.973,279.057L147.695,278.024L148.418,276.712L149.141,275.283L149.863,274.532L150.586,272.151L151.309,271.538L152.031,269.365L152.754,268.228L153.477,267.098L154.199,266.587L154.922,264.252L155.645,262.775L156.367,261.502L157.09,261.122L157.813,259.474L158.535,257.61L159.258,257.371L159.98,254.945L160.703,253.15L161.426,252.153L162.148,250.29L162.871,249.682L163.594,247.039L164.316,246.688L165.039,245.505L165.762,243.119L166.484,242.272L167.207,239.857L167.93,238.833L168.652,237.342L169.375,236.094L170.098,235.091L170.82,233.074L171.543,230.94L172.266,231.165L172.988,228.153L173.711,227.883L174.434,225.814L175.156,223.931L175.879,222.47L176.602,220.307L177.324,219.666L178.047,218.43L178.77,216.159L179.492,215.191L180.215,212.523L180.938,211.629L181.66,210.136L182.383,208.896L183.105,207.277L183.828,205.695L184.551,204.361L185.273,202.483L185.996,201.149L186.719,199.076L187.441,197.335L188.164,196.933L188.887,195.6L189.609,193.397L190.332,191.59L191.055,189.763L191.777,188.521L192.5,187.05L193.223,185.695L193.945,184.45L194.668,182.663L195.391,181.543L196.113,179.822L196.836,178.187L197.559,176.511L198.281,175.181L199.004,174.27L199.727,172.453L200.449,171.201L201.172,169.47L201.895,168.412L202.617,166.775L203.34,165.692L204.063,163.794L204.785,162.114L205.508,161.16L206.23,159.683L206.953,158.96L207.676,157.133L208.398,155.833L209.121,154.281L209.844,152.949L210.566,151.13L211.289,150.317L212.012,149.442L212.734,147.52L213.457,146.186L214.18,144.707L214.902,143.484L215.625,142.145L216.348,140.964L217.07,139.378L217.793,138.385L218.516,137.483L219.238,136.322L219.961,134.332L220.684,133.735L221.406,132.305L222.129,131.448L222.852,130.088L223.574,129.152L224.297,127.868L225.02,126.365L225.742,125.612L226.465,124.382L227.188,123.544L227.91,122.116L228.633,121.321L229.355,119.999L230.078,119.453L230.801,117.542L231.523,117.074L232.246,115.705L232.969,114.803L233.691,113.926L234.414,112.591L235.137,111.602L235.859,110.637L236.582,109.493L237.305,108.738L238.027,107.577L238.75,106.669L239.473,106.204L240.195,104.561L240.918,103.92L241.641,102.845L242.363,102.002L243.086,100.805L243.809,100.262L244.531,99.297L245.254,98.468L245.977,97.593L246.699,96.894L247.422,95.731L248.145,95.336L248.867,94.219L249.59,93.265L250.313,92.658L251.035,92.005L251.758,90.8L252.48,90.235L253.203,89.749L253.926,88.908L254.648,88.283L255.371,87.504L256.094,86.506L256.816,85.389L257.539,85.191L258.262,84.433L258.984,83.835L259.707,83.43L260.43,82.359L261.152,81.478L261.875,80.924L262.598,79.987L263.32,80.018L264.043,79.226L264.766,77.91L265.488,77.389L266.211,76.958L266.934,76.62L267.656,75.718L268.379,75.631L269.102,74.74L269.824,73.876L270.547,73.412L271.27,73.071L271.992,72.658L272.715,71.909L273.438,71.287L274.16,70.499L274.883,70.388L275.605,69.725L276.328,69.168L277.051,68.532L277.773,67.693L278.496,67.526L279.219,67.009L279.941,66.413L280.664,65.996L281.387,65.27L282.109,64.737L282.832,64.456L283.555,64.138L284.277,63.721L285,63.295L285.723,62.382L286.445,62.162L287.168,61.684L287.891,61.028L288.613,60.917L289.336,60.444L290.059,60.184L290.781,59.535L291.504,58.915L292.227,58.576L292.949,58.079L293.672,58.043L294.395,57.098L295.117,57.096L295.84,56.377L296.563,55.908L297.285,55.618L298.008,55.346L298.73,55.024L299.453,54.589L300.176,54.275L300.898,53.886L301.621,53.809L302.344,53.046L303.066,52.75L303.789,52.541L304.512,52.314L305.234,51.705L305.957,51.503L306.68,51.337L307.402,50.797L308.125,50.309L308.848,50.298L309.57,49.803L310.293,49.613L311.016,49.22L311.738,49.07L312.461,48.55L313.184,48.179L313.906,47.904L314.629,47.603L315.352,47.465L316.074,47.174L316.797,46.786L317.52,46.408L318.242,46.011L318.965,46.167L319.688,45.647L320.41,45.16L321.133,45.001L321.855,44.796L322.578,44.238L323.301,44.479L324.023,44.001L324.746,43.677L325.469,43.464L326.191,43.122L326.914,42.996L327.637,42.762L328.359,42.532L329.082,42.266L329.805,42.03L330.527,41.699L331.25,41.621L331.973,41.452L332.695,41.096L333.418,40.758L334.141,40.596L334.863,40.384L335.586,39.869L336.309,39.99L337.031,39.681L337.754,39.211L338.477,39.374L339.199,38.989L339.922,38.79L340.645,38.574L341.367,38.356L342.09,38.12L342.813,37.965L343.535,37.715L344.258,37.648L344.98,37.33L345.703,37.189L346.426,36.791L347.148,36.717L347.871,36.397L348.594,36.705L349.316,36.501L350.039,36.132L350.762,36.094L351.484,35.762L352.207,35.804L352.93,35.518L353.652,35.034L354.375,34.819L355.098,34.765L355.82,34.755L356.543,34.572L357.266,34.306L357.988,34.203L358.711,33.863L359.434,33.921L360.156,33.837L360.879,33.416L361.602,33.244L362.324,33.286L363.047,32.959L363.77,32.884L364.492,32.586L365.215,32.661L365.938,32.418L366.66,32.202L367.383,32.342L368.105,32.014L368.828,31.686L369.551,31.741L370.273,31.711L370.996,31.445L371.719,31.226L372.441,31.026L373.164,30.842L373.887,30.78L374.609,30.692L375.332,30.689L376.055,30.378L376.777,30.398L377.5,30.145L378.223,30.005L378.945,29.923L379.668,29.772L380.391,29.867L381.113,29.473L381.836,29.397L382.559,29.403L383.281,29.283L384.004,29.225L384.727,29.095L385.449,28.952L386.172,28.712L386.895,28.691L387.617,28.517L388.34,28.375L389.063,28.345L389.785,28.083L390.508,28.244L391.23,27.858L391.953,27.74L392.676,27.79L393.398,27.677L394.121,27.472L394.844,27.376L395.566,27.125L396.289,27.17L397.012,27.298L397.734,27.229L398.457,26.868L399.18,26.836L399.902,26.729L400.625,26.67L401.348,26.474L402.07,26.501L402.793,26.157L403.516,26.292L404.238,26.116L404.961,26.004L405.684,25.89L406.406,25.915L407.129,25.665L407.852,25.582L408.574,25.388L409.297,25.559L410.02,25.531L410.742,25.501L411.465,25.315L412.188,25.262L412.91,24.985L413.633,24.888L414.355,24.873L415.078,24.786L415.801,24.829L416.523,24.62L417.246,24.355L417.969,24.649L418.691,24.207L419.414,24.289L420.137,24.183L420.859,24.086L421.582,23.982L422.305,23.912L423.027,23.876L423.75,23.775L424.473,23.717L425.195,23.719L425.918,23.495L426.641,23.49L427.363,23.346L428.086,23.342L428.809,23.21L429.531,23.229L430.254,23.116L430.977,23.265L431.699,23.077L432.422,23.032L433.145,22.842L433.867,22.965L434.59,22.579L435.313,22.74L436.035,22.763L436.758,22.52L437.48,22.616L438.203,22.409L438.926,22.372L439.648,22.305L440.371,22.238L441.094,22.123L441.816,22.171L442.539,22.149L443.262,22.085L443.984,22.018L444.707,21.819L445.43,21.847L446.152,21.708L446.875,21.75L447.598,21.817L448.32,21.883L449.043,21.739L449.766,21.471L450.488,21.589L451.211,21.567L451.934,21.357L452.656,21.369L453.379,21.305L454.102,21.327L454.824,21.23L455.547,21.127L456.27,21.025L456.992,21.1L457.715,21L458.438,20.74L459.16,20.829L459.883,20.761L460.605,20.722L461.328,20.646L462.051,20.711L462.773,20.643L463.496,20.568L464.219,20.59L464.941,20.551L465.664,20.503L466.387,20.376L467.109,20.275L467.832,20.179L468.555,20.319L469.277,20"/><path fill="none" stroke="rgb(203, 47, 13)" stroke-width="1.5" d="M100,236.896L100.723,234.815L101.445,232.138L102.168,228.286L102.891,221.525L103.613,215.466L104.336,207.555L105.059,198.903L105.781,198.422L106.504,219.809L107.227,221.181L107.949,220.979L108.672,220.269L109.395,220.36L110.117,222.033L110.84,221.745L111.563,221.098L112.285,222.291L113.008,223.004L113.73,223.093L114.453,223.888L115.176,223.88L115.898,224.484L116.621,223.092L117.344,224.431L118.066,222.827L118.789,222.913L119.512,222.138L120.234,222.98L120.957,222.99L121.68,221.472L122.402,220.483L123.125,220.356L123.848,219.084L124.57,218.59L125.293,216.867L126.016,216.326L126.738,215.184L127.461,213.862L128.184,212.152L128.906,212.321L129.629,217.681L130.352,221.618L131.074,227.233L131.797,231.991L132.52,236.822L133.242,242.762L133.965,246.738L134.688,253.238L135.41,257.111L136.133,262.155L136.855,268.053L137.578,273.525L138.301,278.565L139.023,284.598L139.746,289.61L140.469,287.95L141.191,286.442L141.914,286.501L142.637,283.036L143.359,284.067L144.082,282.523L144.805,280.366L145.527,278.933L146.25,278.572L146.973,277.283L147.695,275.405L148.418,274.302L149.141,273.767L149.863,272.041L150.586,270.085L151.309,269.821L152.031,268.024L152.754,266.822L153.477,265.333L154.199,263.869L154.922,262.348L155.645,261.268L156.367,259.061L157.09,258.055L157.813,257.151L158.535,255.279L159.258,254.597L159.98,252.991L160.703,251.73L161.426,251.049L162.148,248.7L162.871,246.493L163.594,245.394L164.316,244.919L165.039,243.357L165.762,241.809L166.484,240.501L167.207,238.907L167.93,237.764L168.652,236.808L169.375,234.504L170.098,233.354L170.82,232.02L171.543,230.156L172.266,229.386L172.988,227.964L173.711,227.072L174.434,224.246L175.156,223.479L175.879,222.387L176.602,220.304L177.324,219.891L178.047,218.637L178.77,216.29L179.492,215.475L180.215,213.701L180.938,212.361L181.66,211.135L182.383,209.624L183.105,207.992L183.828,207.297L184.551,204.989L185.273,203.445L185.996,201.431L186.719,201.151L187.441,199.4L188.164,198.468L188.887,197.197L189.609,195.593L190.332,193.981L191.055,192.475L191.777,191.928L192.5,190.067L193.223,188.691L193.945,186.965L194.668,185.889L195.391,184.853L196.113,183.38L196.836,181.661L197.559,180.371L198.281,179.652L199.004,177.887L199.727,176.838L200.449,175.066L201.172,174.032L201.895,172.838L202.617,171.509L203.34,170.665L204.063,169.074L204.785,168.153L205.508,166.724L206.23,165.694L206.953,164.201L207.676,163.263L208.398,161.809L209.121,160.876L209.844,159.603L210.566,158.461L211.289,156.8L212.012,155.609L212.734,154.667L213.457,153.871L214.18,152.804L214.902,151.066L215.625,150.369L216.348,148.36L217.07,148.289L217.793,146.891L218.516,145.719L219.238,144.618L219.961,144.358L220.684,142.637L221.406,142.125L222.129,141.083L222.852,139.831L223.574,139.018L224.297,137.727L225.02,136.884L225.742,135.676L226.465,135.013L227.188,133.757L227.91,133.028L228.633,132.069L229.355,131.286L230.078,129.991L230.801,129.538L231.523,128.462L232.246,127.861L232.969,126.279L233.691,125.654L234.414,124.686L235.137,123.963L235.859,123.221L236.582,122.209L237.305,121.454L238.027,120.386L238.75,119.99L239.473,118.74L240.195,117.982L240.918,117.642L241.641,116.556L242.363,115.962L243.086,115.377L243.809,114.086L244.531,113.492L245.254,112.707L245.977,111.937L246.699,111.566L247.422,110.974L248.145,109.882L248.867,109.281L249.59,108.283L250.313,107.466L251.035,106.727L251.758,106.31L252.48,105.676L253.203,105.182L253.926,104.064L254.648,103.867L255.371,103.384L256.094,102.328L256.816,101.86L257.539,101.235L258.262,100.455L258.984,100.24L259.707,99.061L260.43,98.565L261.152,98.024L261.875,97.227L262.598,96.805L263.32,95.934L264.043,95.688L264.766,94.854L265.488,94.605L266.211,94.035L266.934,93.759L267.656,92.729L268.379,92.601L269.102,91.58L269.824,91.209L270.547,90.352L271.27,89.893L271.992,89.386L272.715,89.254L273.438,88.577L274.16,87.99L274.883,87.865L275.605,87.111L276.328,86.489L277.051,86.073L277.773,85.793L278.496,85.107L279.219,84.615L279.941,83.804L280.664,83.62L281.387,83.402L282.109,82.565L282.832,82.524L283.555,81.904L284.277,81.513L285,80.805L285.723,80.31L286.445,80.097L287.168,79.678L287.891,79.236L288.613,78.785L289.336,78.353L290.059,77.618L290.781,77.279L291.504,76.358L292.227,76.297L292.949,76.181L293.672,75.638L294.395,75.437L295.117,74.835L295.84,74.247L296.563,73.99L297.285,73.049L298.008,72.979L298.73,72.628L299.453,72.319L300.176,71.905L300.898,71.402L301.621,71.344L302.344,70.582L303.066,70.317L303.789,70.02L304.512,69.576L305.234,69.075L305.957,68.7L306.68,67.875L307.402,67.955L308.125,67.642L308.848,67.588L309.57,66.981L310.293,66.734L311.016,66.424L311.738,65.931L312.461,65.312L313.184,65.061L313.906,65.116L314.629,64.349L315.352,64.273L316.074,63.914L316.797,63.321L317.52,62.814L318.242,62.788L318.965,62.222L319.688,62.09L320.41,62.066L321.133,61.479L321.855,61.218L322.578,60.838L323.301,60.791L324.023,60.396L324.746,60.121L325.469,59.574L326.191,59.161L326.914,59.048L327.637,58.604L328.359,58.367L329.082,58.122L329.805,57.583L330.527,57.261L331.25,56.979L331.973,56.939L332.695,56.591L333.418,55.942L334.141,55.803L334.863,55.469L335.586,55.036L336.309,54.865L337.031,54.4L337.754,54.351L338.477,54.259L339.199,53.698L339.922,53.504L340.645,53.087L341.367,53.221L342.09,52.707L342.813,52.351L343.535,52.109L344.258,51.987L344.98,51.649L345.703,51.164L346.426,50.887L347.148,50.856L347.871,50.632L348.594,50.033L349.316,49.938L350.039,49.603L350.762,49.689L351.484,49.232L352.207,49.02L352.93,48.748L353.652,48.657L354.375,48.093L355.098,48.132L355.82,47.727L356.543,47.371L357.266,46.701L357.988,47.004L358.711,46.886L359.434,46.436L360.156,46.294L360.879,45.92L361.602,45.87L362.324,45.117L363.047,44.934L363.77,45.153L364.492,44.815L365.215,44.404L365.938,44.799L366.66,44.119L367.383,44.142L368.105,43.375L368.828,43.473L369.551,43.076L370.273,42.956L370.996,42.57L371.719,42.493L372.441,42.3L373.164,41.927L373.887,41.766L374.609,41.739L375.332,41.363L376.055,41.434L376.777,40.991L377.5,40.674L378.223,40.808L378.945,40.631L379.668,40.321L380.391,39.91L381.113,39.864L381.836,39.673L382.559,39.533L383.281,39.441L384.004,39.177L384.727,38.834L385.449,38.5L386.172,38.572L386.895,38.38L387.617,37.855L388.34,37.829L389.063,37.777L389.785,37.569L390.508,37.438L391.23,37.03L391.953,36.787L392.676,36.748L393.398,36.409L394.121,36.361L394.844,36.402L395.566,36.134L396.289,35.598L397.012,35.766L397.734,35.339L398.457,35.345L399.18,35.128L399.902,34.968L400.625,34.691L401.348,34.826L402.07,34.383L402.793,34.172L403.516,34.15L404.238,34.011L404.961,33.608L405.684,33.507L406.406,33.243L407.129,33.207L407.852,33.005L408.574,32.906L409.297,32.703L410.02,32.976L410.742,32.476L411.465,32.561L412.188,32.106L412.91,31.943L413.633,31.578L414.355,31.65L415.078,31.432L415.801,31.562L416.523,31.263L417.246,30.92L417.969,31.016L418.691,30.739L419.414,30.696L420.137,30.474L420.859,30.155L421.582,30.427L422.305,29.857L423.027,29.723L423.75,29.74L424.473,29.89L425.195,29.486L425.918,29.267L426.641,29.394L427.363,28.911L428.086,28.776L428.809,28.93L429.531,28.823L430.254,28.551L430.977,28.234L431.699,28.564L432.422,28.291L433.145,27.897L433.867,27.961L434.59,27.906L435.313,27.514L436.035,27.528L436.758,27.235L437.48,27.376L438.203,27.088L438.926,27.077L439.648,26.708L440.371,26.629L441.094,26.527L441.816,26.413L442.539,26.263L443.262,26.243L443.984,26.104L444.707,26.194L445.43,25.988L446.152,26.003L446.875,25.756L447.598,25.458L448.32,25.539L449.043,25.184L449.766,25.185L450.488,25.247L451.211,24.844L451.934,24.87L452.656,24.584L453.379,24.473L454.102,24.472L454.824,24.545L455.547,24.18L456.27,23.988L456.992,24.154L457.715,24.074L458.438,23.9L459.16,23.757L459.883,23.756L460.605,23.784L461.328,23.488L462.051,23.284L462.773,23.343L463.496,23.275L464.219,22.984L464.941,23.142L465.664,23.004L466.387,22.83L467.109,22.97L467.832,22.637L468.555,22.633L469.277,22.452"/><g transform="translate(0,190) scale(1.7) rotate(-90)"><text>Drift</text></g><g transform="translate(315,395) scale(1.8)"><text></text></g><g transform="translate(0,350)" fill="none" font-size="10" font-family="sans-serif" text-anchor="middle"><path class="domain" stroke="currentColor" d="M100,6V0H470V6"/><g class="tick" opacity="1" transform="translate(136.66666666666666,0)"><line stroke="currentColor" y2="6"/><text fill="currentColor" y="9" dy="0.71em" font-size="20px"> </text></g><g class="tick" opacity="1" transform="translate(173.7037037037037,0)"><line stroke="currentColor" y2="6"/><text fill="currentColor" y="9" dy="0.71em" font-size="20px">200</text></g><g class="tick" opacity="1" transform="translate(210.74074074074076,0)"><line stroke="currentColor" y2="6"/><text fill="currentColor" y="9" dy="0.71em" font-size="20px"> </text></g><g class="tick" opacity="1" transform="translate(247.77777777777777,0)"><line stroke="currentColor" y2="6"/><text fill="currentColor" y="9" dy="0.71em" font-size="20px">400</text></g><g class="tick" opacity="1" transform="translate(284.81481481481484,0)"><line stroke="currentColor" y2="6"/><text fill="currentColor" y="9" dy="0.71em" font-size="20px"> </text></g><g class="tick" opacity="1" transform="translate(321.85185185185185,0)"><line stroke="currentColor" y2="6"/><text fill="currentColor" y="9" dy="0.71em" font-size="20px">600</text></g><g class="tick" opacity="1" transform="translate(358.8888888888889,0)"><line stroke="currentColor" y2="6"/><text fill="currentColor" y="9" dy="0.71em" font-size="20px"> </text></g><g class="tick" opacity="1" transform="translate(395.9259259259259,0)"><line stroke="currentColor" y2="6"/><text fill="currentColor" y="9" dy="0.71em" font-size="20px">800</text></g><g class="tick" opacity="1" transform="translate(432.96296296296293,0)"><line stroke="currentColor" y2="6"/><text fill="currentColor" y="9" dy="0.71em" font-size="20px"> </text></g><g class="tick" opacity="1" transform="translate(470,0)"><line stroke="currentColor" y2="6"/><text fill="currentColor" y="9" dy="0.71em" font-size="20px">1000</text></g></g><g transform="translate(100,0)" fill="none" font-size="10" font-family="sans-serif" text-anchor="end"><path class="domain" stroke="currentColor" d="M-6,350H0V20H-6"/><g class="tick" opacity="1" transform="translate(0,325.42107837834544)"><line stroke="currentColor" x2="-6"/><text fill="currentColor" x="-9" dy="0.32em" font-size="20px">0.12</text></g><g class="tick" opacity="1" transform="translate(0,292.9799626291877)"><line stroke="currentColor" x2="-6"/><text fill="currentColor" x="-9" dy="0.32em" font-size="20px">0.11</text></g><g class="tick" opacity="1" transform="translate(0,260.53884688003)"><line stroke="currentColor" x2="-6"/><text fill="currentColor" x="-9" dy="0.32em" font-size="20px">0.10</text></g><g class="tick" opacity="1" transform="translate(0,228.0977311308722)"><line stroke="currentColor" x2="-6"/><text fill="currentColor" x="-9" dy="0.32em" font-size="20px">0.09</text></g><g class="tick" opacity="1" transform="translate(0,195.6566153817145)"><line stroke="currentColor" x2="-6"/><text fill="currentColor" x="-9" dy="0.32em" font-size="20px">0.08</text></g><g class="tick" opacity="1" transform="translate(0,163.21549963255677)"><line stroke="currentColor" x2="-6"/><text fill="currentColor" x="-9" dy="0.32em" font-size="20px">0.07</text></g><g class="tick" opacity="1" transform="translate(0,130.774383883399)"><line stroke="currentColor" x2="-6"/><text fill="currentColor" x="-9" dy="0.32em" font-size="20px">0.06</text></g><g class="tick" opacity="1" transform="translate(0,98.33326813424125)"><line stroke="currentColor" x2="-6"/><text fill="currentColor" x="-9" dy="0.32em" font-size="20px">0.05</text></g><g class="tick" opacity="1" transform="translate(0,65.89215238508353)"><line stroke="currentColor" x2="-6"/><text fill="currentColor" x="-9" dy="0.32em" font-size="20px">0.04</text></g><g class="tick" opacity="1" transform="translate(0,33.45103663592575)"><line stroke="currentColor" x2="-6"/><text fill="currentColor" x="-9" dy="0.32em" font-size="20px">0.03</text></g></g><circle cx="115" cy="-25" r="8" style="fill: rgb(35, 23, 27);"/><circle cx="115" cy="0" r="8" style="fill: rgb(69, 105, 238);"/><circle cx="115" cy="25" r="8" style="fill: rgb(38, 188, 225);"/><circle cx="115" cy="50" r="8" style="fill: rgb(63, 243, 147);"/><circle cx="115" cy="75" r="8" style="fill: rgb(149, 251, 81);"/><circle cx="115" cy="100" r="8" style="fill: rgb(236, 209, 46);"/><circle cx="115" cy="125" r="8" style="fill: rgb(255, 130, 29);"/><circle cx="115" cy="150" r="8" style="fill: rgb(203, 47, 13);"/><text x="130" y="-25" text-anchor="left" font-size="22" alignment-baseline="middle" style="fill: rgb(35, 23, 27);"> = 0</text><text x="130" y="0" text-anchor="left" font-size="22" alignment-baseline="middle" style="fill: rgb(69, 105, 238);"> = 0.22</text><text x="130" y="25" text-anchor="left" font-size="22" alignment-baseline="middle" style="fill: rgb(38, 188, 225);"> = 0.45</text><text x="130" y="50" text-anchor="left" font-size="22" alignment-baseline="middle" style="fill: rgb(63, 243, 147);"> = 0.67</text><text x="130" y="75" text-anchor="left" font-size="22" alignment-baseline="middle" style="fill: rgb(149, 251, 81);"> = 0.9</text><text x="130" y="100" text-anchor="left" font-size="22" alignment-baseline="middle" style="fill: rgb(236, 209, 46);"> = 1.12</text><text x="130" y="125" text-anchor="left" font-size="22" alignment-baseline="middle" style="fill: rgb(255, 130, 29);"> = 1.35</text><text x="130" y="150" text-anchor="left" font-size="22" alignment-baseline="middle" style="fill: rgb(203, 47, 13);"> = 1.57</text></svg>