<svg xmlns="http://www.w3.org/2000/svg" class="bg-white" width="500" height="400" viewBox="-34.29999999999997 -29.999999999999964 550 440.00000000000006"><path fill="none" stroke="rgb(35, 23, 27)" stroke-width="1.5" d="M100,20.74L100.723,20.71L101.445,20.729L102.168,20.689L102.891,20.64L103.613,20.559L104.336,20.506L105.059,20.453L105.781,20.395L106.504,20.343L107.227,20.387L107.949,20.337L108.672,20.283L109.395,20.13L110.117,20.073L110.84,20.058L111.563,20L112.285,58.053L113.008,148.304L113.73,238.562L114.453,328.825L115.176,347.04L115.898,347.034L116.621,347.016L117.344,347.016L118.066,347.012L118.789,347.131L119.512,347.125L120.234,347.128L120.957,347.126L121.68,347.099L122.402,347.121L123.125,347.053L123.848,347.098L124.57,347.095L125.293,347.081L126.016,347.033L126.738,347.073L127.461,347.073L128.184,347.071L128.906,347.128L129.629,347.125L130.352,347.004L131.074,347.045L131.797,347.119L132.52,347.12L133.242,347.035L133.965,347.032L134.688,347.125L135.41,347.128L136.133,347.036L136.855,347.073L137.578,347.114L138.301,347.066L139.023,347.069L139.746,347.069L140.469,347.066L141.191,347.063L141.914,347.055L142.637,347.057L143.359,347.051L144.082,347.139L144.805,347.14L145.527,347.028L146.25,346.991L146.973,347.139L147.695,347.14L148.418,347.067L149.141,347.057L149.863,347.011L150.586,347.052L151.309,347.107L152.031,347.052L152.754,347.022L153.477,347.048L154.199,347.092L154.922,347.066L155.645,347.085L156.367,347.06L157.09,346.995L157.813,346.993L158.535,346.948L159.258,347.05L159.98,347.049L160.703,346.927L161.426,346.864L162.148,346.919L162.871,346.977L163.594,346.936L164.316,347.019L165.039,347.037L165.762,347.037L166.484,346.917L167.207,346.908L167.93,346.927L168.652,346.919L169.375,346.999L170.098,346.999L170.82,346.875L171.543,347.014L172.266,347.015L172.988,346.991L173.711,346.87L174.434,346.84L175.156,346.835L175.879,346.965L176.602,346.905L177.324,346.853L178.047,346.9L178.77,346.977L179.492,346.789L180.215,346.967L180.938,346.788L181.66,346.795L182.383,346.812L183.105,346.872L183.828,346.916L184.551,346.771L185.273,346.843L185.996,346.866L186.719,346.946L187.441,346.903L188.164,346.765L188.887,346.805L189.609,346.931L190.332,346.829L191.055,346.87L191.777,346.914L192.5,346.829L193.223,346.829L193.945,346.825L194.668,346.759L195.391,346.895L196.113,346.841L196.836,346.908L197.559,346.909L198.281,346.786L199.004,346.768L199.727,346.758L200.449,346.778L201.172,346.822L201.895,346.759L202.617,346.761L203.34,346.765L204.063,346.678L204.785,346.833L205.508,346.832L206.23,346.667L206.953,346.73L207.676,346.724L208.398,346.735L209.121,346.736L209.844,346.813L210.566,346.813L211.289,346.811L212.012,346.806L212.734,346.629L213.457,346.75L214.18,346.628L214.902,346.834L215.625,346.691L216.348,346.823L217.07,346.692L217.793,346.72L218.516,346.713L219.238,346.774L219.961,346.734L220.684,346.668L221.406,346.665L222.129,346.729L222.852,346.669L223.574,346.713L224.297,346.664L225.02,346.62L225.742,346.753L226.465,346.622L227.188,346.69L227.91,346.709L228.633,346.694L229.355,346.612L230.078,346.732L230.801,346.59L231.523,346.712L232.246,346.681L232.969,346.661L233.691,346.674L234.414,346.753L235.137,346.696L235.859,346.597L236.582,346.599L237.305,346.666L238.027,346.688L238.75,346.69L239.473,346.684L240.195,346.518L240.918,346.656L241.641,346.519L242.363,346.781L243.086,346.657L243.809,346.752L244.531,346.654L245.254,346.655L245.977,346.673L246.699,346.668L247.422,346.628L248.145,346.632L248.867,346.692L249.59,346.587L250.313,346.695L251.035,346.712L251.758,346.503L252.48,346.501L253.203,346.597L253.926,346.712L254.648,346.797L255.371,346.702L256.094,346.66L256.816,346.671L257.539,346.676L258.262,346.599L258.984,346.676L259.707,346.731L260.43,346.636L261.152,346.588L261.875,346.596L262.598,346.607L263.32,346.581L264.043,346.624L264.766,346.626L265.488,346.631L266.211,346.73L266.934,346.709L267.656,346.674L268.379,346.671L269.102,346.627L269.824,346.671L270.547,346.68L271.27,346.636L271.992,346.715L272.715,346.76L273.438,346.65L274.16,346.758L274.883,346.578L275.605,346.763L276.328,346.574L277.051,346.576L277.773,346.622L278.496,346.724L279.219,346.681L279.941,346.682L280.664,346.61L281.387,346.688L282.109,346.691L282.832,346.694L283.555,346.693L284.277,346.67L285,346.797L285.723,346.614L286.445,346.689L287.168,346.7L287.891,346.739L288.613,346.639L289.336,346.64L290.059,346.649L290.781,346.657L291.504,346.704L292.227,346.646L292.949,346.771L293.672,346.741L294.395,346.689L295.117,346.706L295.84,346.753L296.563,346.792L297.285,346.795L298.008,346.711L298.73,346.705L299.453,346.655L300.176,346.799L300.898,346.707L301.621,346.712L302.344,346.676L303.066,346.732L303.789,346.785L304.512,346.745L305.234,346.823L305.957,346.855L306.68,346.863L307.402,346.825L308.125,346.786L308.848,346.832L309.57,346.759L310.293,346.887L311.016,346.87L311.738,346.896L312.461,346.794L313.184,346.801L313.906,346.815L314.629,346.768L315.352,346.846L316.074,346.911L316.797,346.789L317.52,346.819L318.242,346.898L318.965,346.824L319.688,346.791L320.41,346.8L321.133,346.874L321.855,346.862L322.578,346.887L323.301,346.843L324.023,346.867L324.746,346.88L325.469,346.859L326.191,346.858L326.914,346.896L327.637,346.877L328.359,346.939L329.082,346.887L329.805,346.914L330.527,346.923L331.25,346.909L331.973,347.031L332.695,346.929L333.418,346.934L334.141,346.966L334.863,347.121L335.586,346.951L336.309,346.965L337.031,347.082L337.754,346.986L338.477,346.991L339.199,347.036L339.922,346.982L340.645,347.053L341.367,347.116L342.09,347.137L342.813,347.011L343.535,347.173L344.258,347.075L344.98,347.086L345.703,347.1L346.426,347.216L347.148,347.208L347.871,347.216L348.594,347.137L349.316,347.146L350.039,347.167L350.762,347.168L351.484,347.257L352.207,347.144L352.93,347.231L353.652,347.182L354.375,347.179L355.098,347.182L355.82,347.294L356.543,347.219L357.266,347.301L357.988,347.256L358.711,347.267L359.434,347.426L360.156,347.281L360.879,347.29L361.602,347.385L362.324,347.308L363.047,347.491L363.77,347.443L364.492,347.512L365.215,347.373L365.938,347.548L366.66,347.366L367.383,347.506L368.105,347.424L368.828,347.537L369.551,347.553L370.273,347.505L370.996,347.465L371.719,347.649L372.441,347.629L373.164,347.571L373.887,347.561L374.609,347.7L375.332,347.683L376.055,347.69L376.777,347.612L377.5,347.643L378.223,347.635L378.945,347.705L379.668,347.808L380.391,347.678L381.113,347.84L381.836,347.783L382.559,347.875L383.281,347.746L384.004,347.916L384.727,347.894L385.449,347.786L386.172,347.803L386.895,347.884L387.617,347.841L388.34,347.853L389.063,347.983L389.785,347.876L390.508,348.029L391.23,347.916L391.953,347.929L392.676,347.943L393.398,347.953L394.121,347.978L394.844,348.184L395.566,348.041L396.289,348.026L397.012,348.119L397.734,348.096L398.457,348.117L399.18,348.132L399.902,348.128L400.625,348.159L401.348,348.195L402.07,348.212L402.793,348.224L403.516,348.227L404.238,348.197L404.961,348.257L405.684,348.274L406.406,348.296L407.129,348.369L407.852,348.18L408.574,348.378L409.297,348.464L410.02,348.416L410.742,348.465L411.465,348.414L412.188,348.483L412.91,348.527L413.633,348.493L414.355,348.547L415.078,348.535L415.801,348.473L416.523,348.651L417.246,348.602L417.969,348.627L418.691,348.648L419.414,348.606L420.137,348.605L420.859,348.628L421.582,348.644L422.305,348.761L423.027,348.826L423.75,348.807L424.473,348.786L425.195,348.813L425.918,348.881L426.641,348.87L427.363,348.793L428.086,348.855L428.809,348.943L429.531,348.902L430.254,349.014L430.977,349.031L431.699,348.989L432.422,349.054L433.145,349.057L433.867,348.88L434.59,349.068L435.313,348.952L436.035,349.184L436.758,349.13L437.48,349.172L438.203,348.996L438.926,349.113L439.648,349.219L440.371,349.103L441.094,349.213L441.816,349.332L442.539,349.168L443.262,349.278L443.984,349.292L444.707,349.365L445.43,349.39L446.152,349.241L446.875,349.276L447.598,349.339L448.32,349.463L449.043,349.381L449.766,349.342L450.488,349.361L451.211,349.661L451.934,349.652L452.656,349.405L453.379,349.478L454.102,349.493L454.824,349.672L455.547,349.432L456.27,349.821L456.992,349.576L457.715,349.728L458.438,349.807L459.16,349.746L459.883,349.803L460.605,349.725L461.328,349.768L462.051,349.8L462.773,349.842L463.496,349.856L464.219,349.672L464.941,349.658L465.664,349.859L466.387,349.881L467.109,349.8L467.832,350L468.555,349.982L469.277,349.734"/><path fill="none" stroke="rgb(69, 105, 238)" stroke-width="1.5" d="M100,35.956L100.723,36.015L101.445,35.851L102.168,35.856L102.891,35.816L103.613,35.81L104.336,35.746L105.059,35.703L105.781,35.655L106.504,35.549L107.227,35.539L107.949,35.432L108.672,35.407L109.395,35.352L110.117,35.34L110.84,64.232L111.563,154.567L112.285,244.742L113.008,331.824L113.73,331.763L114.453,331.859L115.176,331.824L115.898,331.822L116.621,331.803L117.344,331.975L118.066,331.81L118.789,331.92L119.512,331.811L120.234,331.856L120.957,331.797L121.68,331.793L122.402,331.813L123.125,331.759L123.848,331.892L124.57,331.835L125.293,331.836L126.016,331.784L126.738,331.774L127.461,331.861L128.184,331.807L128.906,331.804L129.629,331.801L130.352,331.737L131.074,331.778L131.797,331.846L132.52,331.746L133.242,331.857L133.965,331.847L134.688,331.878L135.41,331.847L136.133,331.97L136.855,331.884L137.578,331.855L138.301,331.967L139.023,331.716L139.746,331.844L140.469,331.836L141.191,331.866L141.914,331.841L142.637,331.76L143.359,331.829L144.082,331.727L144.805,331.805L145.527,331.843L146.25,331.689L146.973,331.879L147.695,331.696L148.418,331.877L149.141,331.716L149.863,331.724L150.586,331.712L151.309,331.663L152.031,331.827L152.754,331.792L153.477,331.696L154.199,331.887L154.922,331.691L155.645,331.754L156.367,331.771L157.09,331.882L157.813,331.744L158.535,331.695L159.258,331.8L159.98,331.729L160.703,331.846L161.426,331.645L162.148,331.697L162.871,331.71L163.594,331.79L164.316,331.789L165.039,331.666L165.762,331.703L166.484,331.656L167.207,331.708L167.93,331.622L168.652,331.636L169.375,331.728L170.098,331.812L170.82,331.809L171.543,331.711L172.266,331.708L172.988,331.6L173.711,331.795L174.434,331.698L175.156,331.624L175.879,331.678L176.602,331.742L177.324,331.575L178.047,331.694L178.77,331.735L179.492,331.677L180.215,331.688L180.938,331.579L181.66,331.576L182.383,331.679L183.105,331.583L183.828,331.65L184.551,331.557L185.273,331.689L185.996,331.682L186.719,331.627L187.441,331.432L188.164,331.644L188.887,331.565L189.609,331.636L190.332,331.553L191.055,331.669L191.777,331.621L192.5,331.611L193.223,331.749L193.945,331.586L194.668,331.595L195.391,331.558L196.113,331.583L196.836,331.538L197.559,331.532L198.281,331.567L199.004,331.641L199.727,331.549L200.449,331.504L201.172,331.433L201.895,331.624L202.617,331.621L203.34,331.538L204.063,331.61L204.785,331.542L205.508,331.51L206.23,331.542L206.953,331.35L207.676,331.486L208.398,331.578L209.121,331.54L209.844,331.49L210.566,331.506L211.289,331.501L212.012,331.566L212.734,331.484L213.457,331.484L214.18,331.495L214.902,331.482L215.625,331.557L216.348,331.395L217.07,331.473L217.793,331.447L218.516,331.484L219.238,331.531L219.961,331.519L220.684,331.424L221.406,331.446L222.129,331.417L222.852,331.437L223.574,331.387L224.297,331.516L225.02,331.381L225.742,331.559L226.465,331.468L227.188,331.404L227.91,331.508L228.633,331.439L229.355,331.428L230.078,331.451L230.801,331.435L231.523,331.53L232.246,331.435L232.969,331.391L233.691,331.553L234.414,331.554L235.137,331.478L235.859,331.546L236.582,331.411L237.305,331.448L238.027,331.446L238.75,331.433L239.473,331.464L240.195,331.541L240.918,331.41L241.641,331.441L242.363,331.41L243.086,331.529L243.809,331.494L244.531,331.419L245.254,331.396L245.977,331.457L246.699,331.441L247.422,331.431L248.145,331.529L248.867,331.503L249.59,331.533L250.313,331.469L251.035,331.44L251.758,331.443L252.48,331.526L253.203,331.531L253.926,331.383L254.648,331.367L255.371,331.369L256.094,331.477L256.816,331.443L257.539,331.488L258.262,331.459L258.984,331.412L259.707,331.425L260.43,331.379L261.152,331.437L261.875,331.511L262.598,331.477L263.32,331.439L264.043,331.469L264.766,331.398L265.488,331.422L266.211,331.5L266.934,331.505L267.656,331.431L268.379,331.359L269.102,331.463L269.824,331.299L270.547,331.404L271.27,331.428L271.992,331.471L272.715,331.395L273.438,331.441L274.16,331.443L274.883,331.447L275.605,331.45L276.328,331.466L277.051,331.475L277.773,331.464L278.496,331.294L279.219,331.51L279.941,331.506L280.664,331.446L281.387,331.527L282.109,331.376L282.832,331.424L283.555,331.507L284.277,331.458L285,331.374L285.723,331.535L286.445,331.455L287.168,331.51L287.891,331.506L288.613,331.352L289.336,331.549L290.059,331.467L290.781,331.363L291.504,331.432L292.227,331.548L292.949,331.385L293.672,331.496L294.395,331.503L295.117,331.518L295.84,331.526L296.563,331.572L297.285,331.427L298.008,331.549L298.73,331.553L299.453,331.533L300.176,331.527L300.898,331.607L301.621,331.563L302.344,331.671L303.066,331.655L303.789,331.557L304.512,331.549L305.234,331.584L305.957,331.543L306.68,331.52L307.402,331.492L308.125,331.641L308.848,331.53L309.57,331.566L310.293,331.529L311.016,331.644L311.738,331.502L312.461,331.671L313.184,331.678L313.906,331.634L314.629,331.517L315.352,331.665L316.074,331.698L316.797,331.637L317.52,331.723L318.242,331.682L318.965,331.56L319.688,331.557L320.41,331.657L321.133,331.617L321.855,331.621L322.578,331.693L323.301,331.652L324.023,331.711L324.746,331.687L325.469,331.67L326.191,331.773L326.914,331.691L327.637,331.653L328.359,331.713L329.082,331.685L329.805,331.681L330.527,331.722L331.25,331.596L331.973,331.793L332.695,331.776L333.418,331.702L334.141,331.865L334.863,331.779L335.586,331.705L336.309,331.777L337.031,331.854L337.754,331.906L338.477,331.757L339.199,331.756L339.922,331.857L340.645,331.862L341.367,331.876L342.09,331.793L342.813,331.976L343.535,331.807L344.258,331.83L344.98,331.97L345.703,331.848L346.426,331.916L347.148,331.955L347.871,331.972L348.594,331.934L349.316,332.021L350.039,332L350.762,331.974L351.484,332.026L352.207,332.07L352.93,331.994L353.652,331.965L354.375,332.103L355.098,331.984L355.82,332.094L356.543,332.106L357.266,332.116L357.988,332.119L358.711,332.139L359.434,332.065L360.156,332.152L360.879,332.166L361.602,332.127L362.324,332.139L363.047,332.207L363.77,332.183L364.492,332.293L365.215,332.18L365.938,332.252L366.66,332.202L367.383,332.223L368.105,332.32L368.828,332.324L369.551,332.221L370.273,332.392L370.996,332.414L371.719,332.336L372.441,332.404L373.164,332.426L373.887,332.344L374.609,332.36L375.332,332.502L376.055,332.367L376.777,332.384L377.5,332.5L378.223,332.47L378.945,332.574L379.668,332.576L380.391,332.541L381.113,332.445L381.836,332.535L382.559,332.537L383.281,332.484L384.004,332.625L384.727,332.634L385.449,332.621L386.172,332.546L386.895,332.574L387.617,332.577L388.34,332.74L389.063,332.614L389.785,332.748L390.508,332.727L391.23,332.793L391.953,332.807L392.676,332.938L393.398,332.844L394.121,332.876L394.844,332.858L395.566,332.916L396.289,332.898L397.012,332.935L397.734,332.889L398.457,332.876L399.18,332.962L399.902,333.015L400.625,333.041L401.348,332.891L402.07,333.044L402.793,333.107L403.516,333.001L404.238,333.089L404.961,333.172L405.684,333.142L406.406,333.343L407.129,333.207L407.852,333.19L408.574,333.142L409.297,333.164L410.02,333.14L410.742,333.244L411.465,333.265L412.188,333.251L412.91,333.235L413.633,333.383L414.355,333.301L415.078,333.261L415.801,333.299L416.523,333.456L417.246,333.333L417.969,333.456L418.691,333.423L419.414,333.623L420.137,333.496L420.859,333.518L421.582,333.773L422.305,333.621L423.027,333.805L423.75,333.67L424.473,333.535L425.195,333.568L425.918,333.797L426.641,333.57L427.363,333.501L428.086,333.55L428.809,333.789L429.531,333.823L430.254,333.748L430.977,333.692L431.699,333.842L432.422,333.795L433.145,333.807L433.867,334.124L434.59,333.841L435.313,333.699L436.035,333.91L436.758,333.868L437.48,333.942L438.203,333.954L438.926,333.945L439.648,333.88L440.371,334.036L441.094,333.986L441.816,333.923L442.539,334.05L443.262,334.057L443.984,334.101L444.707,333.984L445.43,334.122L446.152,334.15L446.875,334.178L447.598,334.112L448.32,334.335L449.043,334.192L449.766,334.131L450.488,334.159L451.211,334.154L451.934,334.266L452.656,334.241L453.379,334.359L454.102,334.536L454.824,334.261L455.547,334.307L456.27,334.37L456.992,334.321L457.715,334.344L458.438,334.407L459.16,334.325L459.883,334.521L460.605,334.413L461.328,334.539L462.051,334.58L462.773,334.569L463.496,334.47L464.219,334.609L464.941,334.516L465.664,334.496L466.387,334.509L467.109,334.7L467.832,334.657L468.555,334.8L469.277,334.594"/><path fill="none" stroke="rgb(38, 188, 225)" stroke-width="1.5" d="M100,96.915L100.723,96.978L101.445,96.799L102.168,96.736L102.891,96.743L103.613,96.64L104.336,96.745L105.059,96.622L105.781,96.642L106.504,96.57L107.227,123.61L107.949,213.873L108.672,270.953L109.395,271.027L110.117,271.08L110.84,271.069L111.563,271.057L112.285,270.976L113.008,270.954L113.73,271.026L114.453,271.107L115.176,270.939L115.898,271.045L116.621,270.934L117.344,271.019L118.066,270.88L118.789,271.01L119.512,271.041L120.234,270.9L120.957,270.907L121.68,271.013L122.402,270.997L123.125,270.991L123.848,271.123L124.57,270.965L125.293,270.92L126.016,270.897L126.738,270.911L127.461,270.945L128.184,270.939L128.906,270.974L129.629,270.954L130.352,270.863L131.074,271.056L131.797,270.939L132.52,270.947L133.242,270.903L133.965,270.914L134.688,271.009L135.41,271.018L136.133,270.984L136.855,270.94L137.578,270.983L138.301,270.849L139.023,270.838L139.746,270.981L140.469,270.897L141.191,270.922L141.914,270.927L142.637,270.903L143.359,270.837L144.082,270.991L144.805,270.908L145.527,270.863L146.25,270.981L146.973,270.895L147.695,270.915L148.418,270.938L149.141,270.844L149.863,270.936L150.586,270.909L151.309,271.053L152.031,270.791L152.754,270.897L153.477,270.967L154.199,270.925L154.922,270.853L155.645,270.918L156.367,270.945L157.09,270.856L157.813,270.818L158.535,270.828L159.258,270.824L159.98,270.969L160.703,270.943L161.426,270.856L162.148,270.801L162.871,270.959L163.594,270.959L164.316,270.864L165.039,270.786L165.762,270.827L166.484,270.845L167.207,270.802L167.93,270.88L168.652,270.883L169.375,270.817L170.098,270.826L170.82,270.848L171.543,270.87L172.266,270.828L172.988,270.864L173.711,270.84L174.434,270.845L175.156,270.715L175.879,270.845L176.602,270.777L177.324,270.77L178.047,270.755L178.77,270.796L179.492,270.741L180.215,270.789L180.938,270.826L181.66,270.831L182.383,270.838L183.105,270.757L183.828,270.811L184.551,270.795L185.273,270.803L185.996,270.676L186.719,270.727L187.441,270.821L188.164,270.781L188.887,270.729L189.609,270.706L190.332,270.76L191.055,270.856L191.777,270.707L192.5,270.824L193.223,270.727L193.945,270.717L194.668,270.747L195.391,270.717L196.113,270.809L196.836,270.812L197.559,270.66L198.281,270.774L199.004,270.732L199.727,270.734L200.449,270.775L201.172,270.727L201.895,270.688L202.617,270.656L203.34,270.645L204.063,270.635L204.785,270.68L205.508,270.682L206.23,270.684L206.953,270.619L207.676,270.613L208.398,270.707L209.121,270.707L209.844,270.731L210.566,270.591L211.289,270.673L212.012,270.651L212.734,270.744L213.457,270.638L214.18,270.697L214.902,270.643L215.625,270.711L216.348,270.707L217.07,270.6L217.793,270.71L218.516,270.647L219.238,270.686L219.961,270.567L220.684,270.621L221.406,270.613L222.129,270.636L222.852,270.687L223.574,270.616L224.297,270.602L225.02,270.639L225.742,270.556L226.465,270.554L227.188,270.87L227.91,270.647L228.633,270.694L229.355,270.666L230.078,270.563L230.801,270.626L231.523,270.544L232.246,270.693L232.969,270.464L233.691,270.649L234.414,270.632L235.137,270.728L235.859,270.543L236.582,270.673L237.305,270.529L238.027,270.638L238.75,270.679L239.473,270.576L240.195,270.639L240.918,270.71L241.641,270.429L242.363,270.6L243.086,270.637L243.809,270.742L244.531,270.588L245.254,270.669L245.977,270.637L246.699,270.648L247.422,270.722L248.145,270.752L248.867,270.631L249.59,270.701L250.313,270.629L251.035,270.606L251.758,270.591L252.48,270.604L253.203,270.596L253.926,270.538L254.648,270.735L255.371,270.58L256.094,270.592L256.816,270.715L257.539,270.437L258.262,270.59L258.984,270.49L259.707,270.654L260.43,270.664L261.152,270.633L261.875,270.625L262.598,270.643L263.32,270.454L264.043,270.563L264.766,270.639L265.488,270.46L266.211,270.621L266.934,270.722L267.656,270.585L268.379,270.577L269.102,270.632L269.824,270.724L270.547,270.582L271.27,270.618L271.992,270.487L272.715,270.701L273.438,270.527L274.16,270.69L274.883,270.643L275.605,270.602L276.328,270.506L277.051,270.514L277.773,270.679L278.496,270.73L279.219,270.628L279.941,270.632L280.664,270.632L281.387,270.666L282.109,270.615L282.832,270.658L283.555,270.648L284.277,270.658L285,270.64L285.723,270.607L286.445,270.712L287.168,270.503L287.891,270.551L288.613,270.707L289.336,270.648L290.059,270.72L290.781,270.645L291.504,270.647L292.227,270.645L292.949,270.793L293.672,270.58L294.395,270.664L295.117,270.641L295.84,270.575L296.563,270.736L297.285,270.678L298.008,270.707L298.73,270.71L299.453,270.808L300.176,270.698L300.898,270.814L301.621,270.699L302.344,270.701L303.066,270.781L303.789,270.695L304.512,270.866L305.234,270.72L305.957,270.645L306.68,270.782L307.402,270.783L308.125,270.695L308.848,270.781L309.57,270.695L310.293,270.762L311.016,270.851L311.738,270.856L312.461,270.836L313.184,270.872L313.906,270.797L314.629,270.884L315.352,270.777L316.074,270.771L316.797,270.895L317.52,270.752L318.242,270.796L318.965,270.917L319.688,270.957L320.41,270.852L321.133,270.9L321.855,270.827L322.578,270.829L323.301,270.802L324.023,270.827L324.746,270.825L325.469,270.864L326.191,270.837L326.914,270.848L327.637,270.927L328.359,270.866L329.082,270.969L329.805,271.004L330.527,271.052L331.25,271.001L331.973,271.007L332.695,271.011L333.418,271.051L334.141,271.093L334.863,271.035L335.586,271.002L336.309,271.011L337.031,271.084L337.754,270.882L338.477,271.092L339.199,271.064L339.922,271.15L340.645,271.084L341.367,271.048L342.09,271.078L342.813,271.067L343.535,271.151L344.258,271.18L344.98,271.136L345.703,271.122L346.426,271.211L347.148,271.127L347.871,271.26L348.594,271.346L349.316,271.254L350.039,271.287L350.762,271.184L351.484,271.079L352.207,271.423L352.93,271.206L353.652,271.283L354.375,271.36L355.098,271.339L355.82,271.268L356.543,271.499L357.266,271.358L357.988,271.394L358.711,271.534L359.434,271.42L360.156,271.377L360.879,271.352L361.602,271.479L362.324,271.526L363.047,271.361L363.77,271.513L364.492,271.534L365.215,271.49L365.938,271.523L366.66,271.493L367.383,271.659L368.105,271.564L368.828,271.527L369.551,271.708L370.273,271.722L370.996,271.734L371.719,271.603L372.441,271.603L373.164,271.685L373.887,271.55L374.609,271.635L375.332,271.69L376.055,271.622L376.777,271.725L377.5,271.677L378.223,271.767L378.945,271.749L379.668,271.696L380.391,271.865L381.113,271.78L381.836,271.804L382.559,271.823L383.281,271.795L384.004,271.89L384.727,271.808L385.449,272.018L386.172,271.855L386.895,271.873L387.617,271.886L388.34,271.88L389.063,271.997L389.785,272.069L390.508,271.986L391.23,271.963L391.953,272.037L392.676,272.11L393.398,272.049L394.121,272.022L394.844,272.147L395.566,272.141L396.289,272.113L397.012,272.182L397.734,272.215L398.457,272.095L399.18,272.28L399.902,272.263L400.625,272.295L401.348,272.235L402.07,272.27L402.793,272.132L403.516,272.264L404.238,272.352L404.961,272.33L405.684,272.441L406.406,272.255L407.129,272.391L407.852,272.388L408.574,272.44L409.297,272.446L410.02,272.444L410.742,272.434L411.465,272.582L412.188,272.462L412.91,272.672L413.633,272.496L414.355,272.622L415.078,272.678L415.801,272.561L416.523,272.684L417.246,272.589L417.969,272.728L418.691,272.69L419.414,272.639L420.137,272.651L420.859,272.782L421.582,272.688L422.305,272.741L423.027,272.856L423.75,272.782L424.473,272.803L425.195,272.853L425.918,272.629L426.641,272.659L427.363,272.914L428.086,272.938L428.809,272.914L429.531,272.978L430.254,272.872L430.977,272.912L431.699,273.125L432.422,272.994L433.145,273.012L433.867,272.841L434.59,273.042L435.313,273.141L436.035,273.19L436.758,272.989L437.48,273.168L438.203,273.071L438.926,273.173L439.648,273.34L440.371,273.199L441.094,273.154L441.816,273.008L442.539,273.033L443.262,273.169L443.984,273.371L444.707,273.126L445.43,273.408L446.152,273.092L446.875,273.172L447.598,273.383L448.32,273.28L449.043,273.23L449.766,273.247L450.488,273.223L451.211,273.478L451.934,273.358L452.656,273.272L453.379,273.236L454.102,273.277L454.824,273.438L455.547,273.338L456.27,273.415L456.992,273.44L457.715,273.269L458.438,273.588L459.16,273.483L459.883,273.227L460.605,273.61L461.328,273.611L462.051,273.364L462.773,273.636L463.496,273.608L464.219,273.425L464.941,273.548L465.664,273.405L466.387,273.433L467.109,273.583L467.832,273.524L468.555,273.81L469.277,273.702"/><path fill="none" stroke="rgb(63, 243, 147)" stroke-width="1.5" d="M100,144.604L100.723,144.612L101.445,144.51L102.168,144.458L102.891,198.266L103.613,223.311L104.336,223.349L105.059,223.221L105.781,223.219L106.504,223.382L107.227,223.222L107.949,223.359L108.672,223.203L109.395,223.385L110.117,223.387L110.84,223.262L111.563,223.291L112.285,223.333L113.008,223.214L113.73,223.417L114.453,223.25L115.176,223.324L115.898,223.362L116.621,223.359L117.344,223.332L118.066,223.459L118.789,223.165L119.512,223.244L120.234,223.277L120.957,223.243L121.68,223.266L122.402,223.2L123.125,223.237L123.848,223.27L124.57,223.329L125.293,223.228L126.016,223.264L126.738,223.148L127.461,223.227L128.184,223.349L128.906,223.229L129.629,223.151L130.352,223.151L131.074,223.237L131.797,223.327L132.52,223.199L133.242,223.3L133.965,223.198L134.688,223.357L135.41,223.258L136.133,223.255L136.855,223.31L137.578,223.178L138.301,223.137L139.023,223.231L139.746,223.135L140.469,223.133L141.191,223.192L141.914,223.313L142.637,223.165L143.359,223.156L144.082,223.223L144.805,223.222L145.527,223.2L146.25,223.302L146.973,223.252L147.695,223.136L148.418,223.22L149.141,223.252L149.863,223.16L150.586,223.249L151.309,223.232L152.031,223.154L152.754,223.113L153.477,223.147L154.199,223.147L154.922,223.134L155.645,223.209L156.367,223.09L157.09,223.223L157.813,223.101L158.535,223.398L159.258,223.187L159.98,223.201L160.703,223.082L161.426,223.435L162.148,223.077L162.871,223.166L163.594,223.224L164.316,223.19L165.039,223.171L165.762,223.232L166.484,223.356L167.207,223.142L167.93,223.157L168.652,223.254L169.375,223.206L170.098,223.146L170.82,223.247L171.543,223.116L172.266,223.214L172.988,223.161L173.711,223.242L174.434,223.24L175.156,223.356L175.879,223.116L176.602,223.243L177.324,223.127L178.047,223.226L178.77,223.143L179.492,223.24L180.215,223.109L180.938,223.239L181.66,223.114L182.383,223.1L183.105,223.175L183.828,223.223L184.551,223.153L185.273,223.074L185.996,223.123L186.719,223.093L187.441,223.172L188.164,223.147L188.887,223.217L189.609,223.212L190.332,223.209L191.055,223.062L191.777,223.235L192.5,223.217L193.223,223.234L193.945,223.185L194.668,223.091L195.391,223.036L196.113,223.144L196.836,223.151L197.559,223.208L198.281,223.211L199.004,223.165L199.727,223.069L200.449,223.204L201.172,222.972L201.895,223.154L202.617,223.078L203.34,223.106L204.063,223.086L204.785,223.072L205.508,223.169L206.23,223.042L206.953,223.047L207.676,223.186L208.398,223.082L209.121,223.066L209.844,223.058L210.566,222.973L211.289,223.114L212.012,223.149L212.734,223.043L213.457,223.135L214.18,223.068L214.902,223.079L215.625,223.012L216.348,223.148L217.07,223.033L217.793,223.117L218.516,223.052L219.238,223.121L219.961,223.034L220.684,223.142L221.406,223.08L222.129,223.16L222.852,223.052L223.574,222.98L224.297,222.991L225.02,223.044L225.742,223.014L226.465,223.135L227.188,222.98L227.91,223.145L228.633,222.963L229.355,223.21L230.078,223.06L230.801,223.093L231.523,223.018L232.246,223.075L232.969,223.073L233.691,223.052L234.414,223.01L235.137,223.123L235.859,223.098L236.582,223.116L237.305,222.965L238.027,223.061L238.75,223.059L239.473,222.969L240.195,223.081L240.918,223.115L241.641,223.144L242.363,223.173L243.086,223.048L243.809,223.015L244.531,223.061L245.254,223.004L245.977,223.007L246.699,223.029L247.422,223.093L248.145,223.057L248.867,223.008L249.59,223.037L250.313,223.063L251.035,222.976L251.758,223.009L252.48,222.97L253.203,223.181L253.926,223.052L254.648,223.075L255.371,223.088L256.094,223.091L256.816,223.033L257.539,223.069L258.262,222.991L258.984,223.011L259.707,223.101L260.43,222.997L261.152,223.039L261.875,223.237L262.598,223.071L263.32,223.044L264.043,223.11L264.766,223.094L265.488,223.024L266.211,223.064L266.934,223.041L267.656,223.054L268.379,222.949L269.102,223.026L269.824,223.074L270.547,223.137L271.27,223.007L271.992,223.084L272.715,223.107L273.438,223.036L274.16,223.041L274.883,223.185L275.605,223.073L276.328,223.065L277.051,223.052L277.773,223.169L278.496,223.091L279.219,223.097L279.941,223.116L280.664,223.116L281.387,223.145L282.109,223.054L282.832,223.253L283.555,223.088L284.277,223.162L285,223.163L285.723,223.205L286.445,223.189L287.168,223.241L287.891,223.142L288.613,223.137L289.336,223.128L290.059,223.205L290.781,223.234L291.504,223.175L292.227,223.159L292.949,223.218L293.672,223.142L294.395,223.182L295.117,223.155L295.84,223.208L296.563,223.1L297.285,223.236L298.008,223.245L298.73,223.273L299.453,223.219L300.176,223.135L300.898,223.262L301.621,223.268L302.344,223.143L303.066,223.187L303.789,223.158L304.512,223.29L305.234,223.305L305.957,223.399L306.68,223.178L307.402,223.335L308.125,223.298L308.848,223.25L309.57,223.242L310.293,223.148L311.016,223.238L311.738,223.327L312.461,223.403L313.184,223.388L313.906,223.265L314.629,223.368L315.352,223.354L316.074,223.416L316.797,223.393L317.52,223.341L318.242,223.397L318.965,223.378L319.688,223.414L320.41,223.498L321.133,223.492L321.855,223.359L322.578,223.444L323.301,223.493L324.023,223.442L324.746,223.412L325.469,223.47L326.191,223.563L326.914,223.465L327.637,223.502L328.359,223.533L329.082,223.548L329.805,223.552L330.527,223.426L331.25,223.578L331.973,223.589L332.695,223.471L333.418,223.61L334.141,223.632L334.863,223.604L335.586,223.67L336.309,223.533L337.031,223.691L337.754,223.741L338.477,223.703L339.199,223.652L339.922,223.664L340.645,223.731L341.367,223.678L342.09,223.761L342.813,223.619L343.535,223.665L344.258,223.584L344.98,223.759L345.703,223.871L346.426,223.837L347.148,223.83L347.871,223.742L348.594,223.847L349.316,223.598L350.039,223.686L350.762,223.922L351.484,224.003L352.207,223.908L352.93,223.892L353.652,223.925L354.375,224.008L355.098,223.926L355.82,223.964L356.543,223.811L357.266,223.984L357.988,223.914L358.711,223.836L359.434,224.055L360.156,224.12L360.879,224.037L361.602,224.044L362.324,224.11L363.047,223.991L363.77,223.929L364.492,223.993L365.215,224.093L365.938,224.195L366.66,224.111L367.383,224.128L368.105,224.288L368.828,224.268L369.551,224.269L370.273,224.181L370.996,224.365L371.719,223.988L372.441,224.226L373.164,224.249L373.887,224.29L374.609,224.218L375.332,224.251L376.055,224.291L376.777,224.233L377.5,224.103L378.223,224.542L378.945,224.127L379.668,224.387L380.391,224.375L381.113,224.421L381.836,224.466L382.559,224.522L383.281,224.446L384.004,224.51L384.727,224.594L385.449,224.454L386.172,224.564L386.895,224.519L387.617,224.664L388.34,224.598L389.063,224.651L389.785,224.59L390.508,224.598L391.23,224.652L391.953,224.621L392.676,224.77L393.398,224.717L394.121,224.734L394.844,224.752L395.566,224.785L396.289,224.821L397.012,224.74L397.734,224.811L398.457,224.723L399.18,224.806L399.902,224.913L400.625,224.876L401.348,225.137L402.07,224.901L402.793,224.805L403.516,224.635L404.238,224.762L404.961,224.984L405.684,224.935L406.406,224.972L407.129,224.955L407.852,224.72L408.574,225.009L409.297,225.058L410.02,225.112L410.742,225.062L411.465,225.138L412.188,224.992L412.91,225.057L413.633,225.021L414.355,225.105L415.078,225.051L415.801,225.138L416.523,225.176L417.246,225.165L417.969,225.204L418.691,225.244L419.414,225.246L420.137,225.348L420.859,225.256L421.582,225.3L422.305,225.112L423.027,225.268L423.75,225.183L424.473,225.3L425.195,225.203L425.918,225.077L426.641,225.267L427.363,225.203L428.086,225.5L428.809,225.44L429.531,225.382L430.254,225.427L430.977,225.405L431.699,225.437L432.422,225.416L433.145,225.441L433.867,225.4L434.59,225.468L435.313,225.43L436.035,225.481L436.758,225.495L437.48,225.507L438.203,225.638L438.926,225.52L439.648,225.626L440.371,225.321L441.094,225.528L441.816,225.552L442.539,225.671L443.262,225.573L443.984,225.375L444.707,225.837L445.43,225.582L446.152,225.454L446.875,225.569L447.598,225.389L448.32,225.767L449.043,225.3L449.766,225.773L450.488,225.589L451.211,225.654L451.934,225.635L452.656,225.826L453.379,225.36L454.102,225.404L454.824,225.433L455.547,225.358L456.27,225.657L456.992,225.571L457.715,225.745L458.438,225.825L459.16,225.627L459.883,225.674L460.605,225.593L461.328,225.706L462.051,225.908L462.773,225.819L463.496,225.653L464.219,225.597L464.941,225.443L465.664,225.642L466.387,225.694L467.109,225.709L467.832,225.854L468.555,225.634L469.277,225.594"/><path fill="none" stroke="rgb(149, 251, 81)" stroke-width="1.5" d="M100,182.878L100.723,185.079L101.445,185.048L102.168,185.149L102.891,185.105L103.613,185.005L104.336,185.035L105.059,185.108L105.781,185.053L106.504,185.146L107.227,185.098L107.949,185.125L108.672,185.132L109.395,185.139L110.117,185.086L110.84,185.156L111.563,185.175L112.285,185.022L113.008,185.128L113.73,185.156L114.453,185.226L115.176,185.126L115.898,185.088L116.621,185.123L117.344,185.133L118.066,185.131L118.789,185.055L119.512,185.089L120.234,185.166L120.957,185.215L121.68,185.221L122.402,185.017L123.125,185.138L123.848,185.05L124.57,185.044L125.293,185.176L126.016,185.086L126.738,185.007L127.461,185.113L128.184,185.233L128.906,185.166L129.629,185.031L130.352,185.018L131.074,185.07L131.797,185.141L132.52,185.096L133.242,185.115L133.965,185.21L134.688,185.145L135.41,185.165L136.133,185.185L136.855,185.155L137.578,184.963L138.301,185L139.023,185.205L139.746,185.277L140.469,185.16L141.191,185.048L141.914,185.118L142.637,185.088L143.359,185.173L144.082,185.062L144.805,185.194L145.527,185.065L146.25,185.19L146.973,185.281L147.695,185.075L148.418,185.114L149.141,185.101L149.863,185.227L150.586,185.1L151.309,185.131L152.031,185.193L152.754,185.141L153.477,185.096L154.199,185.135L154.922,185.148L155.645,185.133L156.367,185.141L157.09,185.073L157.813,185.108L158.535,185.049L159.258,185.079L159.98,185.023L160.703,185.065L161.426,185.041L162.148,185.065L162.871,185.096L163.594,185.29L164.316,185.134L165.039,185.058L165.762,185.076L166.484,185.114L167.207,185.064L167.93,185.135L168.652,185.047L169.375,184.98L170.098,185.058L170.82,185.076L171.543,185.182L172.266,185.088L172.988,185.127L173.711,185.034L174.434,185.203L175.156,185.109L175.879,185.142L176.602,184.939L177.324,185.171L178.047,185.14L178.77,185.168L179.492,185.087L180.215,185.129L180.938,184.948L181.66,185.081L182.383,185.111L183.105,185.105L183.828,185L184.551,185.036L185.273,185.089L185.996,184.986L186.719,185.047L187.441,185.122L188.164,185.097L188.887,185.041L189.609,185.086L190.332,185.155L191.055,184.989L191.777,185.108L192.5,184.969L193.223,185.025L193.945,184.995L194.668,185.082L195.391,185.056L196.113,185.084L196.836,185.106L197.559,185.13L198.281,185.136L199.004,184.98L199.727,185.139L200.449,185L201.172,185.008L201.895,185.043L202.617,185.051L203.34,185.034L204.063,185.046L204.785,185.088L205.508,185.133L206.23,185.094L206.953,185.05L207.676,184.985L208.398,184.982L209.121,185.048L209.844,185.011L210.566,185.084L211.289,185.228L212.012,185.174L212.734,185.15L213.457,184.995L214.18,185.066L214.902,185.11L215.625,185.063L216.348,185.069L217.07,185.144L217.793,184.956L218.516,185.112L219.238,185.069L219.961,185.019L220.684,185.021L221.406,185.047L222.129,185.052L222.852,185.122L223.574,185.093L224.297,185.018L225.02,185L225.742,185.098L226.465,185.063L227.188,185.077L227.91,185.101L228.633,185.038L229.355,185.05L230.078,185.094L230.801,185.161L231.523,185.046L232.246,185.061L232.969,185.203L233.691,185.026L234.414,184.999L235.137,184.963L235.859,184.97L236.582,184.965L237.305,185.092L238.027,185.055L238.75,185.002L239.473,184.985L240.195,185.056L240.918,184.978L241.641,184.981L242.363,184.997L243.086,184.959L243.809,185.215L244.531,185.114L245.254,185.033L245.977,185.183L246.699,185.038L247.422,185.082L248.145,184.893L248.867,185.001L249.59,184.946L250.313,184.995L251.035,185.009L251.758,185.159L252.48,184.993L253.203,185.021L253.926,184.999L254.648,185.05L255.371,185.008L256.094,185.024L256.816,184.902L257.539,185.015L258.262,185.103L258.984,185.114L259.707,185.095L260.43,185.091L261.152,185.153L261.875,184.997L262.598,184.979L263.32,185.121L264.043,185.008L264.766,185.037L265.488,185.037L266.211,185.009L266.934,185.018L267.656,185.215L268.379,185.12L269.102,185.011L269.824,184.995L270.547,185.144L271.27,185.178L271.992,185.128L272.715,184.895L273.438,185.072L274.16,185.057L274.883,185.085L275.605,185.071L276.328,185.097L277.051,185.085L277.773,185.084L278.496,185.134L279.219,185.048L279.941,185.06L280.664,185.122L281.387,185.092L282.109,185.005L282.832,185.057L283.555,185.084L284.277,185.096L285,185.082L285.723,185.092L286.445,185.083L287.168,185.18L287.891,185.121L288.613,185.121L289.336,185.149L290.059,185.101L290.781,185.184L291.504,185.138L292.227,185.171L292.949,185.266L293.672,185.161L294.395,185.37L295.117,185.24L295.84,185.257L296.563,185.165L297.285,185.165L298.008,185.119L298.73,185.338L299.453,185.188L300.176,185.275L300.898,185.184L301.621,185.246L302.344,185.283L303.066,185.228L303.789,185.231L304.512,185.202L305.234,185.293L305.957,185.186L306.68,185.224L307.402,185.344L308.125,185.318L308.848,185.405L309.57,185.283L310.293,185.459L311.016,185.423L311.738,185.285L312.461,185.368L313.184,185.352L313.906,185.271L314.629,185.383L315.352,185.411L316.074,185.498L316.797,185.419L317.52,185.467L318.242,185.456L318.965,185.533L319.688,185.436L320.41,185.408L321.133,185.584L321.855,185.511L322.578,185.437L323.301,185.577L324.023,185.452L324.746,185.652L325.469,185.603L326.191,185.583L326.914,185.447L327.637,185.519L328.359,185.566L329.082,185.728L329.805,185.59L330.527,185.515L331.25,185.622L331.973,185.658L332.695,185.713L333.418,185.609L334.141,185.622L334.863,185.664L335.586,185.641L336.309,185.616L337.031,185.753L337.754,185.745L338.477,185.73L339.199,185.733L339.922,185.814L340.645,185.729L341.367,185.796L342.09,185.786L342.813,185.768L343.535,185.974L344.258,185.902L344.98,185.883L345.703,185.855L346.426,186.087L347.148,185.856L347.871,185.995L348.594,185.789L349.316,185.898L350.039,186.007L350.762,185.967L351.484,185.936L352.207,185.961L352.93,185.988L353.652,185.912L354.375,186.094L355.098,186.055L355.82,186.035L356.543,186.054L357.266,186.248L357.988,186.133L358.711,186.107L359.434,186.019L360.156,186.002L360.879,186.215L361.602,186.087L362.324,186.18L363.047,186.254L363.77,186.093L364.492,186.238L365.215,186.243L365.938,186.286L366.66,186.212L367.383,186.394L368.105,186.344L368.828,186.269L369.551,186.238L370.273,186.384L370.996,186.349L371.719,186.439L372.441,186.317L373.164,186.595L373.887,186.346L374.609,186.33L375.332,186.496L376.055,186.434L376.777,186.454L377.5,186.413L378.223,186.45L378.945,186.444L379.668,186.44L380.391,186.539L381.113,186.568L381.836,186.512L382.559,186.678L383.281,186.708L384.004,186.651L384.727,186.622L385.449,186.637L386.172,186.51L386.895,186.672L387.617,186.726L388.34,186.728L389.063,186.723L389.785,186.873L390.508,186.662L391.23,186.811L391.953,186.711L392.676,186.633L393.398,186.876L394.121,186.85L394.844,186.844L395.566,186.888L396.289,186.913L397.012,186.686L397.734,186.783L398.457,186.704L399.18,186.85L399.902,186.915L400.625,186.986L401.348,187.103L402.07,187.041L402.793,186.907L403.516,187.114L404.238,187.057L404.961,187.004L405.684,186.95L406.406,187.046L407.129,187.072L407.852,187.123L408.574,186.982L409.297,187.136L410.02,187.039L410.742,187.039L411.465,187.066L412.188,187.016L412.91,187.141L413.633,187.385L414.355,187.006L415.078,187.219L415.801,187.097L416.523,187.107L417.246,187.242L417.969,187.264L418.691,187.131L419.414,187.201L420.137,187.037L420.859,187.214L421.582,187.474L422.305,187.209L423.027,187.339L423.75,187.233L424.473,187.42L425.195,187.485L425.918,187.373L426.641,187.273L427.363,187.155L428.086,187.284L428.809,187.508L429.531,187.245L430.254,187.486L430.977,187.617L431.699,187.534L432.422,187.311L433.145,187.401L433.867,187.538L434.59,187.125L435.313,187.438L436.035,187.325L436.758,187.376L437.48,187.6L438.203,187.304L438.926,187.395L439.648,187.475L440.371,187.52L441.094,187.592L441.816,187.595L442.539,187.282L443.262,187.314L443.984,187.249L444.707,187.428L445.43,187.441L446.152,187.378L446.875,187.629L447.598,187.663L448.32,187.52L449.043,187.481L449.766,187.477L450.488,187.404L451.211,187.409L451.934,187.327L452.656,187.496L453.379,187.612L454.102,187.44L454.824,187.38L455.547,187.485L456.27,187.53L456.992,187.484L457.715,187.613L458.438,187.601L459.16,187.38L459.883,187.666L460.605,187.545L461.328,187.533L462.051,187.505L462.773,187.151L463.496,187.399L464.219,187.463L464.941,187.481L465.664,187.484L466.387,187.21L467.109,187.561L467.832,187.355L468.555,187.339L469.277,187.415"/><path fill="none" stroke="rgb(236, 209, 46)" stroke-width="1.5" d="M100,183.519L100.723,184.277L101.445,184.294L102.168,184.271L102.891,184.399L103.613,184.413L104.336,184.271L105.059,184.337L105.781,184.338L106.504,184.335L107.227,184.421L107.949,184.318L108.672,184.443L109.395,184.286L110.117,184.454L110.84,184.261L111.563,184.374L112.285,184.25L113.008,184.348L113.73,184.235L114.453,184.415L115.176,184.459L115.898,184.39L116.621,184.386L117.344,184.371L118.066,184.3L118.789,184.347L119.512,184.388L120.234,184.286L120.957,184.416L121.68,184.369L122.402,184.38L123.125,184.39L123.848,184.368L124.57,184.453L125.293,184.378L126.016,184.242L126.738,184.311L127.461,184.372L128.184,184.328L128.906,184.353L129.629,184.28L130.352,184.387L131.074,184.417L131.797,184.507L132.52,184.465L133.242,184.461L133.965,184.398L134.688,184.393L135.41,184.424L136.133,184.334L136.855,184.466L137.578,184.359L138.301,184.542L139.023,184.359L139.746,184.387L140.469,184.388L141.191,184.498L141.914,184.419L142.637,184.551L143.359,184.307L144.082,184.269L144.805,184.362L145.527,184.396L146.25,184.45L146.973,184.419L147.695,184.339L148.418,184.374L149.141,184.352L149.863,184.359L150.586,184.45L151.309,184.38L152.031,184.461L152.754,184.531L153.477,184.402L154.199,184.572L154.922,184.403L155.645,184.414L156.367,184.461L157.09,184.392L157.813,184.45L158.535,184.414L159.258,184.395L159.98,184.591L160.703,184.43L161.426,184.331L162.148,184.465L162.871,184.477L163.594,184.425L164.316,184.469L165.039,184.498L165.762,184.541L166.484,184.472L167.207,184.466L167.93,184.397L168.652,184.445L169.375,184.496L170.098,184.39L170.82,184.514L171.543,184.514L172.266,184.556L172.988,184.515L173.711,184.527L174.434,184.531L175.156,184.601L175.879,184.513L176.602,184.557L177.324,184.452L178.047,184.531L178.77,184.577L179.492,184.469L180.215,184.462L180.938,184.427L181.66,184.601L182.383,184.535L183.105,184.567L183.828,184.472L184.551,184.43L185.273,184.552L185.996,184.49L186.719,184.483L187.441,184.576L188.164,184.424L188.887,184.514L189.609,184.493L190.332,184.371L191.055,184.395L191.777,184.575L192.5,184.45L193.223,184.606L193.945,184.678L194.668,184.572L195.391,184.488L196.113,184.509L196.836,184.529L197.559,184.528L198.281,184.505L199.004,184.355L199.727,184.627L200.449,184.494L201.172,184.54L201.895,184.588L202.617,184.638L203.34,184.516L204.063,184.464L204.785,184.46L205.508,184.484L206.23,184.605L206.953,184.529L207.676,184.552L208.398,184.48L209.121,184.517L209.844,184.547L210.566,184.482L211.289,184.527L212.012,184.385L212.734,184.525L213.457,184.639L214.18,184.552L214.902,184.464L215.625,184.585L216.348,184.488L217.07,184.514L217.793,184.374L218.516,184.614L219.238,184.593L219.961,184.497L220.684,184.529L221.406,184.538L222.129,184.433L222.852,184.538L223.574,184.549L224.297,184.592L225.02,184.661L225.742,184.398L226.465,184.57L227.188,184.541L227.91,184.567L228.633,184.565L229.355,184.578L230.078,184.604L230.801,184.627L231.523,184.548L232.246,184.548L232.969,184.601L233.691,184.52L234.414,184.557L235.137,184.62L235.859,184.49L236.582,184.528L237.305,184.55L238.027,184.413L238.75,184.438L239.473,184.517L240.195,184.611L240.918,184.604L241.641,184.461L242.363,184.551L243.086,184.672L243.809,184.483L244.531,184.667L245.254,184.46L245.977,184.624L246.699,184.559L247.422,184.683L248.145,184.713L248.867,184.576L249.59,184.687L250.313,184.515L251.035,184.67L251.758,184.694L252.48,184.58L253.203,184.583L253.926,184.628L254.648,184.613L255.371,184.462L256.094,184.593L256.816,184.652L257.539,184.625L258.262,184.513L258.984,184.702L259.707,184.698L260.43,184.593L261.152,184.666L261.875,184.718L262.598,184.732L263.32,184.588L264.043,184.495L264.766,184.569L265.488,184.609L266.211,184.752L266.934,184.472L267.656,184.69L268.379,184.509L269.102,184.708L269.824,184.616L270.547,184.584L271.27,184.684L271.992,184.726L272.715,184.595L273.438,184.541L274.16,184.707L274.883,184.774L275.605,184.603L276.328,184.583L277.051,184.704L277.773,184.702L278.496,184.794L279.219,184.613L279.941,184.77L280.664,184.629L281.387,184.708L282.109,184.678L282.832,184.656L283.555,184.681L284.277,184.743L285,184.633L285.723,184.91L286.445,184.692L287.168,184.732L287.891,184.852L288.613,184.547L289.336,184.696L290.059,184.762L290.781,184.852L291.504,184.79L292.227,184.78L292.949,184.704L293.672,184.821L294.395,184.666L295.117,184.688L295.84,184.713L296.563,184.779L297.285,184.716L298.008,184.719L298.73,184.701L299.453,184.762L300.176,184.868L300.898,184.767L301.621,184.767L302.344,184.835L303.066,184.757L303.789,184.915L304.512,185.011L305.234,184.977L305.957,184.862L306.68,184.768L307.402,184.925L308.125,184.971L308.848,185.024L309.57,185.119L310.293,184.971L311.016,184.786L311.738,184.946L312.461,184.87L313.184,185.013L313.906,184.946L314.629,184.909L315.352,185.028L316.074,184.969L316.797,185.007L317.52,185.083L318.242,185.024L318.965,185.099L319.688,184.92L320.41,185.142L321.133,185.08L321.855,185.097L322.578,185.131L323.301,185.236L324.023,185.06L324.746,185.136L325.469,185.145L326.191,185.074L326.914,185.056L327.637,185.21L328.359,185.206L329.082,185.111L329.805,185.203L330.527,185.26L331.25,185.253L331.973,185.272L332.695,185.412L333.418,185.258L334.141,185.321L334.863,185.253L335.586,185.139L336.309,185.294L337.031,185.34L337.754,185.367L338.477,185.404L339.199,185.194L339.922,185.438L340.645,185.353L341.367,185.399L342.09,185.429L342.813,185.554L343.535,185.637L344.258,185.361L344.98,185.454L345.703,185.49L346.426,185.378L347.148,185.495L347.871,185.441L348.594,185.676L349.316,185.375L350.039,185.525L350.762,185.513L351.484,185.702L352.207,185.546L352.93,185.645L353.652,185.606L354.375,185.711L355.098,185.646L355.82,185.634L356.543,185.625L357.266,185.682L357.988,185.547L358.711,185.568L359.434,185.887L360.156,185.897L360.879,185.739L361.602,185.714L362.324,185.86L363.047,185.796L363.77,185.891L364.492,185.714L365.215,185.817L365.938,185.823L366.66,185.861L367.383,186.05L368.105,186.045L368.828,185.999L369.551,186.025L370.273,186.026L370.996,186.042L371.719,186.087L372.441,185.779L373.164,186.016L373.887,186.255L374.609,186.026L375.332,186.064L376.055,185.995L376.777,186.042L377.5,185.981L378.223,186.121L378.945,186.207L379.668,186.015L380.391,186.264L381.113,186.105L381.836,186.265L382.559,186.102L383.281,185.974L384.004,186.171L384.727,186.229L385.449,186.353L386.172,186.291L386.895,186.349L387.617,186.352L388.34,186.44L389.063,186.387L389.785,186.301L390.508,186.273L391.23,186.223L391.953,186.357L392.676,186.529L393.398,186.534L394.121,186.434L394.844,186.342L395.566,186.408L396.289,186.581L397.012,186.605L397.734,186.507L398.457,186.399L399.18,186.655L399.902,186.668L400.625,186.672L401.348,186.469L402.07,186.593L402.793,186.601L403.516,186.584L404.238,186.509L404.961,186.516L405.684,186.533L406.406,186.343L407.129,186.718L407.852,186.56L408.574,186.619L409.297,186.6L410.02,186.607L410.742,186.787L411.465,186.611L412.188,186.74L412.91,186.491L413.633,186.811L414.355,186.576L415.078,186.685L415.801,186.658L416.523,186.596L417.246,186.801L417.969,186.82L418.691,186.655L419.414,186.751L420.137,186.718L420.859,186.853L421.582,186.867L422.305,186.815L423.027,186.754L423.75,186.841L424.473,186.909L425.195,186.724L425.918,186.8L426.641,186.89L427.363,186.819L428.086,186.895L428.809,186.787L429.531,186.699L430.254,186.896L430.977,186.649L431.699,186.85L432.422,186.655L433.145,186.831L433.867,186.967L434.59,187.067L435.313,186.915L436.035,186.653L436.758,186.739L437.48,187.116L438.203,186.731L438.926,186.962L439.648,186.975L440.371,186.71L441.094,186.872L441.816,186.703L442.539,186.854L443.262,186.719L443.984,186.914L444.707,186.83L445.43,187.012L446.152,186.9L446.875,186.848L447.598,186.625L448.32,186.853L449.043,186.742L449.766,186.859L450.488,186.944L451.211,186.697L451.934,186.898L452.656,187.028L453.379,186.822L454.102,186.922L454.824,186.861L455.547,186.804L456.27,186.801L456.992,187.03L457.715,186.929L458.438,186.908L459.16,186.852L459.883,186.782L460.605,186.563L461.328,186.801L462.051,186.652L462.773,186.559L463.496,186.51L464.219,186.656L464.941,186.719L465.664,186.649L466.387,186.802L467.109,186.714L467.832,186.764L468.555,186.465L469.277,186.788"/><path fill="none" stroke="rgb(255, 130, 29)" stroke-width="1.5" d="M100,183.736L100.723,184.22L101.445,184.3L102.168,184.141L102.891,184.257L103.613,184.18L104.336,184.23L105.059,184.262L105.781,184.152L106.504,184.154L107.227,184.09L107.949,184.177L108.672,184.282L109.395,184.18L110.117,184.182L110.84,184.284L111.563,184.195L112.285,184.227L113.008,184.255L113.73,184.208L114.453,184.266L115.176,184.25L115.898,184.33L116.621,184.19L117.344,184.233L118.066,184.302L118.789,184.411L119.512,184.272L120.234,184.291L120.957,184.279L121.68,184.329L122.402,184.242L123.125,184.173L123.848,184.325L124.57,184.183L125.293,184.259L126.016,184.275L126.738,184.269L127.461,184.201L128.184,184.276L128.906,184.296L129.629,184.463L130.352,184.229L131.074,184.34L131.797,184.361L132.52,184.22L133.242,184.25L133.965,184.245L134.688,184.311L135.41,184.345L136.133,184.393L136.855,184.344L137.578,184.266L138.301,184.35L139.023,184.288L139.746,184.221L140.469,184.34L141.191,184.244L141.914,184.333L142.637,184.422L143.359,184.354L144.082,184.334L144.805,184.293L145.527,184.335L146.25,184.317L146.973,184.516L147.695,184.54L148.418,184.412L149.141,184.449L149.863,184.43L150.586,184.399L151.309,184.466L152.031,184.403L152.754,184.383L153.477,184.377L154.199,184.526L154.922,184.494L155.645,184.497L156.367,184.515L157.09,184.456L157.813,184.482L158.535,184.304L159.258,184.407L159.98,184.481L160.703,184.488L161.426,184.545L162.148,184.539L162.871,184.556L163.594,184.525L164.316,184.486L165.039,184.518L165.762,184.497L166.484,184.469L167.207,184.515L167.93,184.553L168.652,184.51L169.375,184.637L170.098,184.568L170.82,184.629L171.543,184.563L172.266,184.653L172.988,184.528L173.711,184.584L174.434,184.574L175.156,184.503L175.879,184.598L176.602,184.519L177.324,184.614L178.047,184.485L178.77,184.607L179.492,184.578L180.215,184.666L180.938,184.704L181.66,184.729L182.383,184.644L183.105,184.699L183.828,184.649L184.551,184.568L185.273,184.733L185.996,184.738L186.719,184.846L187.441,184.735L188.164,184.583L188.887,184.708L189.609,184.725L190.332,184.788L191.055,184.802L191.777,184.729L192.5,184.753L193.223,184.733L193.945,184.605L194.668,184.821L195.391,184.726L196.113,184.759L196.836,184.769L197.559,184.613L198.281,184.749L199.004,184.664L199.727,184.678L200.449,184.712L201.172,184.729L201.895,184.862L202.617,184.829L203.34,184.796L204.063,184.756L204.785,184.9L205.508,184.791L206.23,184.802L206.953,184.688L207.676,184.869L208.398,184.776L209.121,184.865L209.844,184.752L210.566,184.736L211.289,184.814L212.012,184.888L212.734,184.964L213.457,184.814L214.18,184.921L214.902,184.794L215.625,184.85L216.348,184.769L217.07,184.846L217.793,184.807L218.516,184.884L219.238,184.865L219.961,184.957L220.684,184.769L221.406,184.823L222.129,184.921L222.852,185.005L223.574,184.866L224.297,185.001L225.02,184.925L225.742,184.823L226.465,184.867L227.188,184.845L227.91,184.917L228.633,184.837L229.355,184.912L230.078,184.922L230.801,184.917L231.523,185.023L232.246,184.705L232.969,184.838L233.691,184.863L234.414,184.914L235.137,184.995L235.859,185.03L236.582,184.873L237.305,185.012L238.027,184.874L238.75,184.946L239.473,184.976L240.195,185.031L240.918,184.958L241.641,185.008L242.363,185.049L243.086,185.004L243.809,184.996L244.531,185.051L245.254,184.881L245.977,185.052L246.699,185.139L247.422,184.943L248.145,185.014L248.867,184.983L249.59,185.074L250.313,185.104L251.035,185.073L251.758,185.051L252.48,184.881L253.203,184.934L253.926,185.084L254.648,185.073L255.371,184.963L256.094,185.092L256.816,184.977L257.539,184.964L258.262,185.122L258.984,185.044L259.707,185.038L260.43,185.006L261.152,185.007L261.875,185.048L262.598,185.039L263.32,185.113L264.043,185.13L264.766,185.153L265.488,185.069L266.211,184.936L266.934,184.951L267.656,185.101L268.379,185.148L269.102,185.131L269.824,185.208L270.547,184.967L271.27,185.073L271.992,185.062L272.715,185.157L273.438,185.146L274.16,185.214L274.883,184.895L275.605,185.18L276.328,185.257L277.051,185.06L277.773,185.223L278.496,185.193L279.219,185.124L279.941,185.014L280.664,185.098L281.387,185.243L282.109,185.112L282.832,185.168L283.555,185.164L284.277,185.126L285,185.337L285.723,185.341L286.445,185.27L287.168,185.159L287.891,185.163L288.613,185.023L289.336,185.244L290.059,185.153L290.781,185.232L291.504,185.076L292.227,185.261L292.949,185.394L293.672,185.293L294.395,185.299L295.117,185.301L295.84,185.232L296.563,185.232L297.285,185.15L298.008,185.233L298.73,185.323L299.453,185.26L300.176,185.336L300.898,185.393L301.621,185.296L302.344,185.102L303.066,185.29L303.789,185.361L304.512,185.493L305.234,185.495L305.957,185.307L306.68,185.306L307.402,185.308L308.125,185.357L308.848,185.3L309.57,185.363L310.293,185.516L311.016,185.54L311.738,185.58L312.461,185.53L313.184,185.488L313.906,185.414L314.629,185.468L315.352,185.534L316.074,185.369L316.797,185.439L317.52,185.63L318.242,185.535L318.965,185.538L319.688,185.732L320.41,185.552L321.133,185.561L321.855,185.564L322.578,185.658L323.301,185.591L324.023,185.59L324.746,185.637L325.469,185.65L326.191,185.719L326.914,185.666L327.637,185.543L328.359,185.801L329.082,185.787L329.805,185.761L330.527,185.726L331.25,185.56L331.973,185.696L332.695,185.635L333.418,185.644L334.141,185.906L334.863,185.804L335.586,185.755L336.309,185.87L337.031,185.97L337.754,185.995L338.477,186.087L339.199,185.888L339.922,185.956L340.645,185.878L341.367,186.01L342.09,185.81L342.813,185.843L343.535,186.044L344.258,185.913L344.98,186.078L345.703,186.036L346.426,186.015L347.148,185.976L347.871,185.983L348.594,186.012L349.316,186.099L350.039,186.151L350.762,186.033L351.484,186.091L352.207,185.885L352.93,186.045L353.652,186.258L354.375,186.239L355.098,186.083L355.82,186.151L356.543,185.937L357.266,186.218L357.988,186.301L358.711,186.185L359.434,186.237L360.156,186.103L360.879,186.123L361.602,186.328L362.324,186.306L363.047,186.383L363.77,186.436L364.492,186.232L365.215,186.393L365.938,186.299L366.66,186.343L367.383,186.468L368.105,186.361L368.828,186.322L369.551,186.172L370.273,186.438L370.996,186.439L371.719,186.585L372.441,186.675L373.164,186.439L373.887,186.467L374.609,186.49L375.332,186.552L376.055,186.609L376.777,186.683L377.5,186.521L378.223,186.614L378.945,186.524L379.668,186.663L380.391,186.519L381.113,186.646L381.836,186.673L382.559,186.696L383.281,186.526L384.004,186.536L384.727,186.786L385.449,186.855L386.172,186.38L386.895,186.689L387.617,186.828L388.34,186.603L389.063,187.018L389.785,186.925L390.508,186.559L391.23,186.864L391.953,186.891L392.676,186.797L393.398,187.068L394.121,186.846L394.844,186.876L395.566,186.896L396.289,186.914L397.012,186.95L397.734,186.91L398.457,186.94L399.18,186.959L399.902,186.832L400.625,186.783L401.348,186.816L402.07,187.087L402.793,187.082L403.516,186.965L404.238,187.04L404.961,186.973L405.684,186.984L406.406,187.033L407.129,187.182L407.852,186.775L408.574,186.906L409.297,187.037L410.02,186.905L410.742,186.905L411.465,187.034L412.188,187.204L412.91,187.011L413.633,186.926L414.355,186.968L415.078,187.056L415.801,187.134L416.523,187.131L417.246,187.31L417.969,187.2L418.691,187.278L419.414,187.261L420.137,186.993L420.859,187.099L421.582,187.001L422.305,187.277L423.027,187.118L423.75,187.118L424.473,186.998L425.195,186.917L425.918,186.997L426.641,187.289L427.363,187.138L428.086,187.16L428.809,187.15L429.531,187.098L430.254,187.355L430.977,187.09L431.699,187.143L432.422,187.182L433.145,187.045L433.867,187.203L434.59,187.046L435.313,186.816L436.035,187.244L436.758,186.967L437.48,187.182L438.203,187.128L438.926,187.457L439.648,187.271L440.371,187.137L441.094,187.204L441.816,187.228L442.539,187.023L443.262,187.268L443.984,186.74L444.707,186.941L445.43,187.006L446.152,186.944L446.875,186.947L447.598,186.961L448.32,187.125L449.043,187.151L449.766,187.11L450.488,186.96L451.211,187.149L451.934,187.152L452.656,187.197L453.379,187.063L454.102,186.701L454.824,186.711L455.547,186.89L456.27,187.017L456.992,186.964L457.715,186.954L458.438,187.051L459.16,186.798L459.883,186.59L460.605,186.717L461.328,186.708L462.051,187.003L462.773,186.89L463.496,186.833L464.219,186.705L464.941,186.74L465.664,186.805L466.387,186.719L467.109,186.931L467.832,186.779L468.555,186.722L469.277,186.606"/><path fill="none" stroke="rgb(203, 47, 13)" stroke-width="1.5" d="M100,183.745L100.723,184.154L101.445,184.267L102.168,184.24L102.891,184.161L103.613,184.194L104.336,184.185L105.059,184.197L105.781,184.226L106.504,184.141L107.227,184.156L107.949,184.213L108.672,184.262L109.395,184.275L110.117,184.178L110.84,184.296L111.563,184.365L112.285,184.308L113.008,184.317L113.73,184.151L114.453,184.284L115.176,184.25L115.898,184.18L116.621,184.353L117.344,184.143L118.066,184.211L118.789,184.191L119.512,184.187L120.234,184.233L120.957,184.323L121.68,184.254L122.402,184.295L123.125,184.235L123.848,184.281L124.57,184.267L125.293,184.429L126.016,184.334L126.738,184.247L127.461,184.33L128.184,184.193L128.906,184.296L129.629,184.382L130.352,184.157L131.074,184.232L131.797,184.316L132.52,184.226L133.242,184.381L133.965,184.363L134.688,184.251L135.41,184.375L136.133,184.261L136.855,184.294L137.578,184.306L138.301,184.283L139.023,184.287L139.746,184.371L140.469,184.368L141.191,184.404L141.914,184.469L142.637,184.414L143.359,184.339L144.082,184.432L144.805,184.321L145.527,184.347L146.25,184.383L146.973,184.495L147.695,184.396L148.418,184.339L149.141,184.397L149.863,184.377L150.586,184.492L151.309,184.391L152.031,184.365L152.754,184.433L153.477,184.423L154.199,184.563L154.922,184.425L155.645,184.372L156.367,184.356L157.09,184.532L157.813,184.378L158.535,184.462L159.258,184.53L159.98,184.498L160.703,184.522L161.426,184.497L162.148,184.464L162.871,184.546L163.594,184.385L164.316,184.562L165.039,184.584L165.762,184.566L166.484,184.429L167.207,184.465L167.93,184.643L168.652,184.601L169.375,184.688L170.098,184.597L170.82,184.642L171.543,184.614L172.266,184.685L172.988,184.554L173.711,184.558L174.434,184.694L175.156,184.715L175.879,184.634L176.602,184.799L177.324,184.661L178.047,184.686L178.77,184.811L179.492,184.78L180.215,184.805L180.938,184.826L181.66,184.631L182.383,184.739L183.105,184.744L183.828,184.792L184.551,184.775L185.273,184.755L185.996,184.785L186.719,184.767L187.441,184.72L188.164,184.869L188.887,184.88L189.609,184.882L190.332,184.878L191.055,184.862L191.777,184.886L192.5,184.878L193.223,184.712L193.945,184.985L194.668,184.926L195.391,184.884L196.113,184.903L196.836,185.039L197.559,184.741L198.281,184.959L199.004,184.945L199.727,184.951L200.449,184.892L201.172,184.746L201.895,185.065L202.617,185.227L203.34,185.011L204.063,185.085L204.785,185.039L205.508,185.043L206.23,185.069L206.953,184.995L207.676,185.069L208.398,185.094L209.121,185.227L209.844,185.038L210.566,185.091L211.289,185.028L212.012,184.996L212.734,185.2L213.457,185.157L214.18,185.176L214.902,185.208L215.625,185.295L216.348,185.173L217.07,185.282L217.793,185.31L218.516,185.318L219.238,185.074L219.961,185.26L220.684,185.22L221.406,185.333L222.129,185.25L222.852,185.228L223.574,185.364L224.297,185.359L225.02,185.39L225.742,185.285L226.465,185.395L227.188,185.385L227.91,185.354L228.633,185.364L229.355,185.392L230.078,185.33L230.801,185.223L231.523,185.479L232.246,185.47L232.969,185.476L233.691,185.319L234.414,185.616L235.137,185.428L235.859,185.533L236.582,185.476L237.305,185.493L238.027,185.453L238.75,185.614L239.473,185.575L240.195,185.487L240.918,185.465L241.641,185.425L242.363,185.752L243.086,185.537L243.809,185.48L244.531,185.618L245.254,185.704L245.977,185.638L246.699,185.588L247.422,185.636L248.145,185.567L248.867,185.763L249.59,185.603L250.313,185.59L251.035,185.665L251.758,185.775L252.48,185.994L253.203,185.845L253.926,185.685L254.648,185.772L255.371,185.811L256.094,185.881L256.816,185.729L257.539,185.935L258.262,185.699L258.984,186.002L259.707,185.958L260.43,185.971L261.152,186.014L261.875,185.933L262.598,186.037L263.32,185.965L264.043,186.034L264.766,186.051L265.488,186.019L266.211,186.096L266.934,185.887L267.656,185.911L268.379,186.075L269.102,186.142L269.824,186.128L270.547,186.076L271.27,186.033L271.992,186.377L272.715,186.174L273.438,185.951L274.16,186.034L274.883,186.17L275.605,186.306L276.328,186.256L277.051,186.125L277.773,186.246L278.496,186.185L279.219,186.281L279.941,186.406L280.664,186.393L281.387,186.37L282.109,186.283L282.832,186.216L283.555,186.435L284.277,186.435L285,186.271L285.723,186.29L286.445,186.367L287.168,186.57L287.891,186.479L288.613,186.551L289.336,186.635L290.059,186.658L290.781,186.494L291.504,186.449L292.227,186.758L292.949,186.509L293.672,186.544L294.395,186.496L295.117,186.676L295.84,186.758L296.563,186.497L297.285,186.593L298.008,186.68L298.73,186.673L299.453,186.806L300.176,186.744L300.898,186.911L301.621,186.79L302.344,186.882L303.066,186.7L303.789,186.735L304.512,186.916L305.234,186.914L305.957,186.915L306.68,186.94L307.402,187.076L308.125,187.036L308.848,186.889L309.57,186.998L310.293,186.9L311.016,187.023L311.738,187.188L312.461,187.157L313.184,186.935L313.906,187.249L314.629,187.328L315.352,187.268L316.074,187.348L316.797,187.123L317.52,187.19L318.242,187.094L318.965,187.266L319.688,187.264L320.41,187.206L321.133,187.334L321.855,187.357L322.578,187.312L323.301,187.324L324.023,187.394L324.746,187.357L325.469,187.474L326.191,187.534L326.914,187.362L327.637,187.584L328.359,187.671L329.082,187.526L329.805,187.573L330.527,187.571L331.25,187.556L331.973,187.632L332.695,187.617L333.418,187.741L334.141,187.822L334.863,187.713L335.586,187.876L336.309,187.728L337.031,187.926L337.754,187.683L338.477,187.852L339.199,187.979L339.922,187.601L340.645,187.805L341.367,187.773L342.09,187.927L342.813,188.036L343.535,188.127L344.258,188.097L344.98,188.035L345.703,187.983L346.426,188.402L347.148,188.117L347.871,188.044L348.594,188.223L349.316,188.28L350.039,188.177L350.762,188.249L351.484,188.406L352.207,188.025L352.93,188.317L353.652,188.344L354.375,188.439L355.098,188.129L355.82,188.416L356.543,188.231L357.266,188.258L357.988,188.373L358.711,188.48L359.434,188.65L360.156,188.34L360.879,188.745L361.602,188.702L362.324,188.686L363.047,188.477L363.77,188.706L364.492,188.824L365.215,188.615L365.938,188.591L366.66,188.645L367.383,188.556L368.105,188.869L368.828,188.535L369.551,188.631L370.273,188.962L370.996,188.683L371.719,189.051L372.441,188.715L373.164,188.889L373.887,188.767L374.609,189.188L375.332,188.934L376.055,188.893L376.777,188.99L377.5,188.771L378.223,188.895L378.945,188.99L379.668,189.116L380.391,189.121L381.113,189.146L381.836,189.028L382.559,188.983L383.281,189.252L384.004,189.411L384.727,189.064L385.449,189.493L386.172,189.209L386.895,189.083L387.617,189.603L388.34,189.564L389.063,189.118L389.785,189.622L390.508,189.252L391.23,189.057L391.953,189.194L392.676,189.338L393.398,189.479L394.121,189.232L394.844,189.316L395.566,189.73L396.289,189.575L397.012,189.571L397.734,189.813L398.457,189.398L399.18,189.747L399.902,189.641L400.625,189.698L401.348,189.411L402.07,189.213L402.793,189.656L403.516,189.715L404.238,189.712L404.961,189.599L405.684,189.544L406.406,189.841L407.129,189.601L407.852,189.526L408.574,189.642L409.297,189.514L410.02,189.613L410.742,189.384L411.465,189.586L412.188,189.377L412.91,189.884L413.633,189.73L414.355,189.643L415.078,189.73L415.801,189.592L416.523,189.634L417.246,189.456L417.969,189.919L418.691,190.084L419.414,189.865L420.137,189.389L420.859,189.679L421.582,189.702L422.305,189.512L423.027,189.816L423.75,190.014L424.473,190.067L425.195,189.641L425.918,189.609L426.641,189.42L427.363,189.575L428.086,189.452L428.809,189.636L429.531,190.002L430.254,189.669L430.977,189.97L431.699,190.002L432.422,189.83L433.145,189.96L433.867,189.544L434.59,189.494L435.313,189.682L436.035,189.995L436.758,189.596L437.48,189.973L438.203,189.856L438.926,189.508L439.648,189.834L440.371,189.804L441.094,189.727L441.816,189.741L442.539,189.522L443.262,189.908L443.984,189.767L444.707,189.923L445.43,189.715L446.152,189.451L446.875,189.792L447.598,189.327L448.32,189.728L449.043,189.56L449.766,189.692L450.488,189.51L451.211,189.479L451.934,189.618L452.656,189.634L453.379,189.929L454.102,189.473L454.824,189.602L455.547,189.388L456.27,189.238L456.992,188.99L457.715,189.167L458.438,189.373L459.16,189.046L459.883,189.489L460.605,189.083L461.328,189.316L462.051,189.085L462.773,189.146L463.496,188.669L464.219,189.011L464.941,189.029L465.664,189.396L466.387,189.068L467.109,189.369L467.832,188.879L468.555,188.84L469.277,189.01"/><g transform="translate(0,190) scale(1.7) rotate(-90)"><text>Drift</text></g><g transform="translate(315,395) scale(1.8)"><text></text></g><g transform="translate(0,350)" fill="none" font-size="10" font-family="sans-serif" text-anchor="middle"><path class="domain" stroke="currentColor" d="M100,6V0H470V6"/><g class="tick" opacity="1" transform="translate(136.66666666666666,0)"><line stroke="currentColor" y2="6"/><text fill="currentColor" y="9" dy="0.71em" font-size="20px"> </text></g><g class="tick" opacity="1" transform="translate(173.7037037037037,0)"><line stroke="currentColor" y2="6"/><text fill="currentColor" y="9" dy="0.71em" font-size="20px">200</text></g><g class="tick" opacity="1" transform="translate(210.74074074074076,0)"><line stroke="currentColor" y2="6"/><text fill="currentColor" y="9" dy="0.71em" font-size="20px"> </text></g><g class="tick" opacity="1" transform="translate(247.77777777777777,0)"><line stroke="currentColor" y2="6"/><text fill="currentColor" y="9" dy="0.71em" font-size="20px">400</text></g><g class="tick" opacity="1" transform="translate(284.81481481481484,0)"><line stroke="currentColor" y2="6"/><text fill="currentColor" y="9" dy="0.71em" font-size="20px"> </text></g><g class="tick" opacity="1" transform="translate(321.85185185185185,0)"><line stroke="currentColor" y2="6"/><text fill="currentColor" y="9" dy="0.71em" font-size="20px">600</text></g><g class="tick" opacity="1" transform="translate(358.8888888888889,0)"><line stroke="currentColor" y2="6"/><text fill="currentColor" y="9" dy="0.71em" font-size="20px"> </text></g><g class="tick" opacity="1" transform="translate(395.9259259259259,0)"><line stroke="currentColor" y2="6"/><text fill="currentColor" y="9" dy="0.71em" font-size="20px">800</text></g><g class="tick" opacity="1" transform="translate(432.96296296296293,0)"><line stroke="currentColor" y2="6"/><text fill="currentColor" y="9" dy="0.71em" font-size="20px"> </text></g><g class="tick" opacity="1" transform="translate(470,0)"><line stroke="currentColor" y2="6"/><text fill="currentColor" y="9" dy="0.71em" font-size="20px">1000</text></g></g><g transform="translate(100,0)" fill="none" font-size="10" font-family="sans-serif" text-anchor="end"><path class="domain" stroke="currentColor" d="M-6,350H0V20H-6"/><g class="tick" opacity="1" transform="translate(0,312.77150049394123)"><line stroke="currentColor" x2="-6"/><text fill="currentColor" x="-9" dy="0.32em" font-size="20px">0.030</text></g><g class="tick" opacity="1" transform="translate(0,263.6488160496166)"><line stroke="currentColor" x2="-6"/><text fill="currentColor" x="-9" dy="0.32em" font-size="20px">0.025</text></g><g class="tick" opacity="1" transform="translate(0,214.52613160529182)"><line stroke="currentColor" x2="-6"/><text fill="currentColor" x="-9" dy="0.32em" font-size="20px">0.020</text></g><g class="tick" opacity="1" transform="translate(0,165.4034471609671)"><line stroke="currentColor" x2="-6"/><text fill="currentColor" x="-9" dy="0.32em" font-size="20px">0.015</text></g><g class="tick" opacity="1" transform="translate(0,116.28076271664241)"><line stroke="currentColor" x2="-6"/><text fill="currentColor" x="-9" dy="0.32em" font-size="20px">0.010</text></g><g class="tick" opacity="1" transform="translate(0,67.15807827231768)"><line stroke="currentColor" x2="-6"/><text fill="currentColor" x="-9" dy="0.32em" font-size="20px">0.005</text></g></g><circle cx="155" cy="50" r="8" style="fill: rgb(35, 23, 27);"/><circle cx="155" cy="75" r="8" style="fill: rgb(69, 105, 238);"/><circle cx="155" cy="100" r="8" style="fill: rgb(38, 188, 225);"/><circle cx="155" cy="125" r="8" style="fill: rgb(63, 243, 147);"/><circle cx="275" cy="50" r="8" style="fill: rgb(149, 251, 81);"/><circle cx="275" cy="75" r="8" style="fill: rgb(236, 209, 46);"/><circle cx="275" cy="100" r="8" style="fill: rgb(255, 130, 29);"/><circle cx="275" cy="125" r="8" style="fill: rgb(203, 47, 13);"/><text x="170" y="50" text-anchor="left" font-size="22" alignment-baseline="middle" style="fill: rgb(35, 23, 27);"> = 0</text><text x="170" y="75" text-anchor="left" font-size="22" alignment-baseline="middle" style="fill: rgb(69, 105, 238);"> = 0.22</text><text x="170" y="100" text-anchor="left" font-size="22" alignment-baseline="middle" style="fill: rgb(38, 188, 225);"> = 0.45</text><text x="170" y="125" text-anchor="left" font-size="22" alignment-baseline="middle" style="fill: rgb(63, 243, 147);"> = 0.67</text><text x="295" y="50" text-anchor="left" font-size="22" alignment-baseline="middle" style="fill: rgb(149, 251, 81);"> = 0.9</text><text x="295" y="75" text-anchor="left" font-size="22" alignment-baseline="middle" style="fill: rgb(236, 209, 46);"> = 1.12</text><text x="295" y="100" text-anchor="left" font-size="22" alignment-baseline="middle" style="fill: rgb(255, 130, 29);"> = 1.35</text><text x="295" y="125" text-anchor="left" font-size="22" alignment-baseline="middle" style="fill: rgb(203, 47, 13);"> = 1.57</text></svg>