<svg xmlns="http://www.w3.org/2000/svg" class="bg-white" width="500" height="400" viewBox="-26.61999999999999 -28.490000000000023 550 440.00000000000006"><path fill="none" stroke="rgb(35, 23, 27)" stroke-width="1.5" d="M100,81.211L100.723,79.925L101.445,78.994L102.168,78.22L102.891,77.576L103.613,76.998L104.336,76.451L105.059,76.045L105.781,75.567L106.504,75.212L107.227,74.862L107.949,74.577L108.672,74.344L109.395,74.129L110.117,73.92L110.84,73.667L111.563,73.51L112.285,73.268L113.008,73.057L113.73,72.783L114.453,72.555L115.176,72.376L115.898,72.181L116.621,71.931L117.344,71.685L118.066,71.477L118.789,71.254L119.512,70.923L120.234,70.666L120.957,70.242L121.68,69.756L122.402,69.34L123.125,68.999L123.848,70.754L124.57,72.251L125.293,73.791L126.016,75.172L126.738,76.464L127.461,77.809L128.184,78.98L128.906,80.164L129.629,81.345L130.352,82.45L131.074,83.584L131.797,84.682L132.52,85.746L133.242,86.924L133.965,87.838L134.688,88.887L135.41,90.035L136.133,91.026L136.855,91.991L137.578,93.092L138.301,94.088L139.023,95.038L139.746,95.98L140.469,96.962L141.191,97.978L141.914,98.956L142.637,99.863L143.359,100.835L144.082,101.853L144.805,102.782L145.527,103.76L146.25,104.797L146.973,105.751L147.695,106.663L148.418,107.581L149.141,108.541L149.863,109.694L150.586,110.673L151.309,111.548L152.031,112.494L152.754,113.627L153.477,114.609L154.199,115.459L154.922,116.562L155.645,117.532L156.367,118.564L157.09,119.655L157.813,120.558L158.535,121.719L159.258,122.701L159.98,123.816L160.703,125.001L161.426,126.031L162.148,127.015L162.871,128.202L163.594,129.281L164.316,130.215L165.039,131.4L165.762,132.715L166.484,133.667L167.207,134.888L167.93,136.012L168.652,137.206L169.375,138.257L170.098,139.628L170.82,140.639L171.543,141.952L172.266,143.191L172.988,144.106L173.711,145.349L174.434,146.732L175.156,147.992L175.879,149.127L176.602,150.364L177.324,151.632L178.047,153.005L178.77,154.223L179.492,155.553L180.215,156.817L180.938,158.127L181.66,159.675L182.383,161.029L183.105,162.396L183.828,163.738L184.551,164.951L185.273,166.449L185.996,167.755L186.719,169.25L187.441,170.61L188.164,172.094L188.887,173.637L189.609,175.126L190.332,176.582L191.055,177.972L191.777,179.406L192.5,181.088L193.223,182.502L193.945,184.134L194.668,185.713L195.391,187.099L196.113,188.587L196.836,190.354L197.559,191.88L198.281,193.315L199.004,195.16L199.727,196.545L200.449,198.149L201.172,199.71L201.895,201.324L202.617,203.039L203.34,204.866L204.063,206.38L204.785,208.019L205.508,209.764L206.23,211.302L206.953,213.109L207.676,214.763L208.398,216.352L209.121,217.924L209.844,219.542L210.566,221.464L211.289,223.015L212.012,224.682L212.734,226.606L213.457,228.363L214.18,229.991L214.902,231.577L215.625,233.433L216.348,235.27L217.07,236.706L217.793,238.32L218.516,240.051L219.238,241.897L219.961,243.426L220.684,245.042L221.406,246.734L222.129,248.611L222.852,250.43L223.574,252.198L224.297,253.525L225.02,255.31L225.742,257.229L226.465,258.851L227.188,260.429L227.91,262.092L228.633,264.031L229.355,265.281L230.078,266.865L230.801,268.715L231.523,270.303L232.246,271.963L232.969,273.516L233.691,275.193L234.414,276.826L235.137,278.351L235.859,280.019L236.582,281.446L237.305,283.177L238.027,284.547L238.75,286.208L239.473,287.645L240.195,289.345L240.918,290.541L241.641,292.051L242.363,294.035L243.086,295.131L243.809,296.615L244.531,297.919L245.254,299.811L245.977,300.76L246.699,302.213L247.422,303.579L248.145,304.756L248.867,306.322L249.59,307.543L250.313,308.835L251.035,310.102L251.758,311.158L252.48,312.631L253.203,313.983L253.926,315.065L254.648,316.765L255.371,317.403L256.094,318.569L256.816,319.735L257.539,320.88L258.262,321.92L258.984,322.653L259.707,323.693L260.43,325.151L261.152,326.163L261.875,327.129L262.598,327.821L263.32,328.973L264.043,330.16L264.766,330.507L265.488,331.742L266.211,332.753L266.934,333.722L267.656,334.271L268.379,335.069L269.102,335.842L269.824,336.969L270.547,337.132L271.27,338.018L271.992,338.682L272.715,339.711L273.438,340.028L274.16,340.526L274.883,341.308L275.605,341.999L276.328,342.464L277.051,342.992L277.773,343.792L278.496,344.325L279.219,344.423L279.941,345.057L280.664,345.645L281.387,345.788L282.109,345.965L282.832,346.503L283.555,346.794L284.277,347.114L285,347.323L285.723,347.771L286.445,348.215L287.168,348.176L287.891,348.716L288.613,348.68L289.336,349.087L290.059,349.217L290.781,349.505L291.504,349.195L292.227,348.896L292.949,349.079L293.672,349.062L294.395,349.046L295.117,349.869L295.84,349.857L296.563,350L297.285,349.333L298.008,349.583L298.73,348.778L299.453,349.428L300.176,349.408L300.898,348.526L301.621,348.293L302.344,348.803L303.066,348.307L303.789,348.043L304.512,347.981L305.234,347.206L305.957,347.298L306.68,346.54L307.402,346.991L308.125,345.857L308.848,345.494L309.57,345.255L310.293,345.533L311.016,344.542L311.738,344.138L312.461,343.632L313.184,343.484L313.906,343.244L314.629,342.73L315.352,341.77L316.074,341.444L316.797,341.17L317.52,340.642L318.242,339.589L318.965,338.95L319.688,339.448L320.41,338.075L321.133,337.799L321.855,337.061L322.578,336.022L323.301,335.42L324.023,334.918L324.746,334.43L325.469,334.241L326.191,333.011L326.914,332.39L327.637,332.209L328.359,331.468L329.082,330.731L329.805,329.245L330.527,328.467L331.25,327.418L331.973,326.634L332.695,326.034L333.418,325.348L334.141,324.565L334.863,323.701L335.586,322.571L336.309,321.937L337.031,320.817L337.754,320.232L338.477,319.377L339.199,318.438L339.922,317.836L340.645,316.454L341.367,315.759L342.09,314.694L342.813,313.66L343.535,312.886L344.258,311.732L344.98,311.112L345.703,310.189L346.426,308.962L347.148,308.354L347.871,307.058L348.594,306.099L349.316,305.216L350.039,304.325L350.762,303.163L351.484,302.411L352.207,301.306L352.93,300.101L353.652,299.281L354.375,298.163L355.098,297.206L355.82,296.182L356.543,295.024L357.266,293.888L357.988,292.869L358.711,292.181L359.434,291.084L360.156,289.856L360.879,288.965L361.602,287.655L362.324,286.824L363.047,285.262L363.77,284.202L364.492,283.459L365.215,282.39L365.938,281.445L366.66,280.195L367.383,279.396L368.105,278.163L368.828,277.075L369.551,276.216L370.273,274.501L370.996,274.056L371.719,272.841L372.441,271.667L373.164,270.357L373.887,269.749L374.609,268.592L375.332,267.219L376.055,266.329L376.777,265.158L377.5,264.04L378.223,263.257L378.945,261.925L379.668,260.707L380.391,259.469L381.113,258.526L381.836,257.111L382.559,255.882L383.281,254.786L384.004,254.302L384.727,252.959L385.449,252.091L386.172,250.644L386.895,250.107L387.617,248.838L388.34,247.278L389.063,246.523L389.785,245.618L390.508,244.439L391.23,243.533L391.953,242.153L392.676,241.11L393.398,239.811L394.121,238.713L394.844,237.499L395.566,236.775L396.289,235.639L397.012,234.672L397.734,233.744L398.457,232.263L399.18,231.526L399.902,230.124L400.625,229.396L401.348,228.082L402.07,226.956L402.793,226.041L403.516,224.967L404.238,224.015L404.961,222.758L405.684,222.227L406.406,221.156L407.129,219.649L407.852,219.025L408.574,217.616L409.297,216.662L410.02,215.775L410.742,214.301L411.465,213.758L412.188,212.735L412.91,211.692L413.633,210.382L414.355,209.315L415.078,208.243L415.801,207.298L416.523,206.318L417.246,205.195L417.969,204.224L418.691,203.01L419.414,202.061L420.137,201.119L420.859,199.888L421.582,199.104L422.305,197.984L423.027,196.994L423.75,196.098L424.473,194.991L425.195,194.022L425.918,193.16L426.641,192.176L427.363,190.988L428.086,189.952L428.809,189.242L429.531,188.249L430.254,187.337L430.977,186.025L431.699,185.397L432.422,184.035L433.145,183.493L433.867,182.341L434.59,181.175L435.313,181.031L436.035,179.497L436.758,178.802L437.48,177.687L438.203,176.702L438.926,175.708L439.648,174.636L440.371,173.846L441.094,172.78L441.816,172.128L442.539,170.979L443.262,170.605L443.984,169.17L444.707,168.253L445.43,167.75L446.152,166.696L446.875,165.888L447.598,164.905L448.32,164.172L449.043,162.892L449.766,162.679L450.488,161.918L451.211,161.021L451.934,159.874L452.656,158.962L453.379,157.738L454.102,157.151L454.824,156.393L455.547,155.925L456.27,154.585L456.992,153.829L457.715,153.283L458.438,153.565L459.16,153.43L459.883,154.3L460.605,154.461L461.328,154.806L462.051,155.059L462.773,155.441L463.496,155.973L464.219,156.254L464.941,156.47L465.664,156.044L466.387,157.05L467.109,157.18L467.832,157.697L468.555,157.592L469.277,158.445"/><path fill="none" stroke="rgb(69, 105, 238)" stroke-width="1.5" d="M100,81.238L100.723,79.895L101.445,78.96L102.168,78.085L102.891,77.361L103.613,76.842L104.336,76.328L105.059,75.827L105.781,75.392L106.504,74.843L107.227,74.483L107.949,74.092L108.672,73.92L109.395,73.513L110.117,73.257L110.84,72.968L111.563,72.749L112.285,72.497L113.008,72.314L113.73,72.117L114.453,71.872L115.176,71.605L115.898,71.269L116.621,71.102L117.344,70.74L118.066,70.55L118.789,70.248L119.512,69.875L120.234,69.476L120.957,68.965L121.68,68.557L122.402,68.014L123.125,67.586L123.848,69.322L124.57,70.923L125.293,72.279L126.016,73.596L126.738,75.008L127.461,76.183L128.184,77.298L128.906,78.483L129.629,79.602L130.352,80.86L131.074,81.859L131.797,82.863L132.52,84.053L133.242,85.015L133.965,85.935L134.688,86.953L135.41,87.884L136.133,88.858L136.855,89.816L137.578,90.827L138.301,91.763L139.023,92.742L139.746,93.682L140.469,94.627L141.191,95.541L141.914,96.425L142.637,97.272L143.359,98.226L144.082,99.222L144.805,100.092L145.527,100.981L146.25,101.824L146.973,102.715L147.695,103.761L148.418,104.596L149.141,105.501L149.863,106.471L150.586,107.336L151.309,108.262L152.031,109.165L152.754,110.121L153.477,110.949L154.199,111.937L154.922,112.84L155.645,113.713L156.367,114.698L157.09,115.633L157.813,116.658L158.535,117.555L159.258,118.449L159.98,119.389L160.703,120.439L161.426,121.364L162.148,122.238L162.871,123.321L163.594,124.221L164.316,125.183L165.039,126.189L165.762,127.162L166.484,128.225L167.207,129.02L167.93,130.253L168.652,131.182L169.375,132.107L170.098,133.259L170.82,134.183L171.543,135.231L172.266,136.359L172.988,137.312L173.711,138.33L174.434,139.327L175.156,140.489L175.879,141.387L176.602,142.631L177.324,143.527L178.047,144.687L178.77,145.764L179.492,146.857L180.215,147.891L180.938,149.05L181.66,150.072L182.383,151.316L183.105,152.441L183.828,153.445L184.551,154.551L185.273,155.806L185.996,156.821L186.719,158.004L187.441,159.173L188.164,160.195L188.887,161.246L189.609,162.547L190.332,163.749L191.055,164.948L191.777,165.97L192.5,167.07L193.223,168.555L193.945,169.589L194.668,170.664L195.391,172.026L196.113,173.093L196.836,174.359L197.559,175.608L198.281,176.888L199.004,177.956L199.727,179.252L200.449,180.306L201.172,181.65L201.895,182.947L202.617,184.01L203.34,185.143L204.063,186.507L204.785,187.783L205.508,188.87L206.23,190.189L206.953,191.332L207.676,192.615L208.398,193.772L209.121,194.815L209.844,196.198L210.566,197.567L211.289,198.701L212.012,199.86L212.734,201.382L213.457,202.422L214.18,203.841L214.902,204.985L215.625,205.978L216.348,207.318L217.07,208.556L217.793,209.738L218.516,211.092L219.238,212.249L219.961,213.456L220.684,214.762L221.406,215.678L222.129,216.948L222.852,218.153L223.574,219.53L224.297,220.674L225.02,221.393L225.742,222.964L226.465,223.836L227.188,224.942L227.91,226.35L228.633,227.48L229.355,228.618L230.078,229.614L230.801,230.629L231.523,232.175L232.246,233.008L232.969,234.092L233.691,235.286L234.414,236.133L235.137,237.223L235.859,238.419L236.582,239.498L237.305,240.67L238.027,241.665L238.75,242.636L239.473,243.539L240.195,244.439L240.918,245.611L241.641,246.233L242.363,247.3L243.086,248.521L243.809,249.688L244.531,250.073L245.254,251.4L245.977,252.496L246.699,253L247.422,253.888L248.145,254.765L248.867,255.72L249.59,256.361L250.313,257.145L251.035,258.008L251.758,258.762L252.48,259.857L253.203,260.766L253.926,261.444L254.648,262.235L255.371,262.554L256.094,263.632L256.816,264.375L257.539,265.181L258.262,265.87L258.984,266.206L259.707,267.309L260.43,267.665L261.152,268.367L261.875,268.828L262.598,269.147L263.32,270.175L264.043,270.653L264.766,271.396L265.488,272.047L266.211,272.373L266.934,272.896L267.656,273.113L268.379,273.937L269.102,274.181L269.824,274.69L270.547,275.108L271.27,275.496L271.992,276.141L272.715,276.436L273.438,276.845L274.16,276.988L274.883,277.5L275.605,277.706L276.328,277.987L277.051,278.137L277.773,278.365L278.496,278.685L279.219,279.219L279.941,279.436L280.664,279.115L281.387,279.51L282.109,279.954L282.832,279.73L283.555,280.172L284.277,280.221L285,280.294L285.723,280.424L286.445,280.622L287.168,280.82L287.891,280.747L288.613,280.44L289.336,280.468L290.059,280.536L290.781,280.527L291.504,280.884L292.227,280.85L292.949,280.867L293.672,280.882L294.395,280.393L295.117,280.632L295.84,280.568L296.563,280.073L297.285,279.869L298.008,280.01L298.73,279.422L299.453,279.625L300.176,279.38L300.898,279.011L301.621,278.663L302.344,278.528L303.066,278.302L303.789,278.098L304.512,278.242L305.234,277.367L305.957,277.585L306.68,277.108L307.402,276.392L308.125,276.281L308.848,276.033L309.57,275.699L310.293,275.352L311.016,274.855L311.738,274.549L312.461,274.173L313.184,273.876L313.906,273.196L314.629,272.901L315.352,272.72L316.074,271.712L316.797,271.572L317.52,271.202L318.242,270.688L318.965,269.919L319.688,269.599L320.41,269.232L321.133,268.296L321.855,268.01L322.578,267.481L323.301,266.553L324.023,266.188L324.746,265.569L325.469,264.777L326.191,264.732L326.914,263.51L327.637,263.04L328.359,262.51L329.082,262.283L329.805,261.135L330.527,260.963L331.25,260.018L331.973,259.546L332.695,258.796L333.418,258.045L334.141,257.196L334.863,256.708L335.586,256.295L336.309,255.517L337.031,254.766L337.754,254.07L338.477,253.42L339.199,252.87L339.922,251.986L340.645,250.88L341.367,250.254L342.09,249.711L342.813,249.183L343.535,248.187L344.258,247.271L344.98,246.891L345.703,245.609L346.426,245.177L347.148,244.374L347.871,243.233L348.594,242.53L349.316,241.91L350.039,241.298L350.762,240.471L351.484,239.743L352.207,238.645L352.93,237.992L353.652,237.186L354.375,236.399L355.098,235.693L355.82,234.753L356.543,233.841L357.266,233.176L357.988,232.114L358.711,231.131L359.434,230.588L360.156,229.684L360.879,229.038L361.602,228.11L362.324,227.246L363.047,226.552L363.77,225.593L364.492,224.532L365.215,223.881L365.938,222.892L366.66,221.949L367.383,221.33L368.105,220.321L368.828,219.369L369.551,218.685L370.273,217.663L370.996,216.912L371.719,216.009L372.441,214.971L373.164,214.522L373.887,213.171L374.609,212.576L375.332,211.713L376.055,211.02L376.777,209.915L377.5,209.309L378.223,208.519L378.945,207.503L379.668,206.676L380.391,205.857L381.113,204.494L381.836,203.987L382.559,203.217L383.281,202.311L384.004,201.492L384.727,200.142L385.449,199.712L386.172,198.711L386.895,197.858L387.617,197.117L388.34,196.026L389.063,195.217L389.785,194.061L390.508,193.209L391.23,192.694L391.953,192.062L392.676,190.847L393.398,190.001L394.121,189.424L394.844,188.294L395.566,187.482L396.289,186.308L397.012,185.486L397.734,185.017L398.457,183.967L399.18,183.406L399.902,182.621L400.625,181.63L401.348,180.55L402.07,179.835L402.793,179.087L403.516,178.266L404.238,177.375L404.961,176.585L405.684,175.42L406.406,175.05L407.129,173.812L407.852,173.406L408.574,172.597L409.297,171.414L410.02,170.585L410.742,169.879L411.465,168.888L412.188,168.191L412.91,167.025L413.633,166.656L414.355,165.822L415.078,164.914L415.801,163.988L416.523,163.551L417.246,162.497L417.969,161.796L418.691,161.085L419.414,160.153L420.137,159.387L420.859,158.535L421.582,157.759L422.305,157.145L423.027,155.805L423.75,155.517L424.473,154.424L425.195,153.848L425.918,153.105L426.641,152.407L427.363,151.388L428.086,150.635L428.809,149.98L429.531,149.247L430.254,148.39L430.977,147.781L431.699,146.742L432.422,146.256L433.145,145.491L433.867,144.556L434.59,143.821L435.313,143.144L436.035,142.367L436.758,141.572L437.48,140.937L438.203,140.134L438.926,139.566L439.648,138.997L440.371,138.176L441.094,137.378L441.816,136.652L442.539,135.983L443.262,135.438L443.984,134.467L444.707,133.654L445.43,133.058L446.152,132.428L446.875,131.545L447.598,131.089L448.32,130.276L449.043,129.726L449.766,129.038L450.488,128.23L451.211,127.592L451.934,126.822L452.656,126.38L453.379,125.683L454.102,124.994L454.824,124.243L455.547,124.574L456.27,124.823L456.992,125.325L457.715,125.821L458.438,126.389L459.16,126.466L459.883,126.966L460.605,127.821L461.328,128.453L462.051,128.362L462.773,128.974L463.496,129.719L464.219,130.239L464.941,130.626L465.664,131.466L466.387,131.927L467.109,131.948L467.832,131.635L468.555,131.206L469.277,130.575"/><path fill="none" stroke="rgb(38, 188, 225)" stroke-width="1.5" d="M100,81.007L100.723,79.726L101.445,78.688L102.168,77.791L102.891,76.96L103.613,76.251L104.336,75.681L105.059,75.038L105.781,74.431L106.504,73.921L107.227,73.398L107.949,72.889L108.672,72.496L109.395,72.017L110.117,71.585L110.84,71.253L111.563,70.819L112.285,70.433L113.008,70.169L113.73,69.842L114.453,69.431L115.176,69.076L115.898,68.666L116.621,68.337L117.344,67.939L118.066,67.474L118.789,67.028L119.512,66.608L120.234,66.081L120.957,65.522L121.68,64.937L122.402,64.257L123.125,64.028L123.848,65.578L124.57,66.948L125.293,68.222L126.016,69.509L126.738,70.649L127.461,71.74L128.184,72.773L128.906,73.825L129.629,74.934L130.352,75.78L131.074,76.79L131.797,77.734L132.52,78.587L133.242,79.551L133.965,80.363L134.688,81.289L135.41,82.158L136.133,83.031L136.855,83.924L137.578,84.69L138.301,85.48L139.023,86.285L139.746,87.043L140.469,87.986L141.191,88.725L141.914,89.438L142.637,90.205L143.359,91.074L144.082,91.825L144.805,92.628L145.527,93.502L146.25,94.202L146.973,94.965L147.695,95.76L148.418,96.61L149.141,97.301L149.863,97.977L150.586,98.826L151.309,99.674L152.031,100.341L152.754,101.088L153.477,101.892L154.199,102.463L154.922,103.386L155.645,104.067L156.367,104.916L157.09,105.787L157.813,106.434L158.535,107.26L159.258,107.967L159.98,108.812L160.703,109.595L161.426,110.356L162.148,111.124L162.871,112.002L163.594,112.671L164.316,113.534L165.039,114.209L165.762,115.114L166.484,116.023L167.207,116.747L167.93,117.458L168.652,118.164L169.375,119.011L170.098,119.688L170.82,120.657L171.543,121.427L172.266,122.315L172.988,123.107L173.711,123.797L174.434,124.644L175.156,125.558L175.879,126.372L176.602,127.158L177.324,128.071L178.047,128.777L178.77,129.636L179.492,130.568L180.215,131.401L180.938,132.298L181.66,133.009L182.383,133.816L183.105,134.71L183.828,135.369L184.551,136.307L185.273,137.359L185.996,138.239L186.719,138.971L187.441,139.777L188.164,140.52L188.887,141.508L189.609,142.424L190.332,143.175L191.055,144.054L191.777,144.722L192.5,145.773L193.223,146.62L193.945,147.73L194.668,148.414L195.391,149.293L196.113,150.251L196.836,150.907L197.559,151.926L198.281,152.677L199.004,153.595L199.727,154.462L200.449,155.43L201.172,156.177L201.895,157.26L202.617,157.895L203.34,159.087L204.063,159.745L204.785,160.584L205.508,161.552L206.23,162.406L206.953,163.108L207.676,164.126L208.398,165.052L209.121,165.879L209.844,166.73L210.566,167.639L211.289,168.658L212.012,169.263L212.734,170.194L213.457,171.169L214.18,171.758L214.902,172.702L215.625,173.784L216.348,174.658L217.07,175.439L217.793,176.084L218.516,177.211L219.238,177.807L219.961,178.695L220.684,179.533L221.406,180.251L222.129,180.959L222.852,181.837L223.574,182.661L224.297,183.34L225.02,184.253L225.742,185.007L226.465,185.724L227.188,186.534L227.91,187.441L228.633,187.974L229.355,188.855L230.078,189.772L230.801,190.56L231.523,190.913L232.246,191.77L232.969,192.498L233.691,192.965L234.414,193.924L235.137,194.596L235.859,195.22L236.582,196.071L237.305,196.734L238.027,197.157L238.75,198.101L239.473,198.526L240.195,199.128L240.918,199.828L241.641,200.524L242.363,201.065L243.086,201.551L243.809,202.284L244.531,202.826L245.254,203.621L245.977,204.061L246.699,204.609L247.422,205.086L248.145,205.638L248.867,206.028L249.59,206.67L250.313,207.136L251.035,207.603L251.758,208.004L252.48,208.548L253.203,209.104L253.926,209.512L254.648,210.17L255.371,210.19L256.094,210.699L256.816,211.247L257.539,211.649L258.262,211.995L258.984,212.124L259.707,212.756L260.43,213.076L261.152,213.473L261.875,213.716L262.598,214.181L263.32,214.431L264.043,214.66L264.766,214.826L265.488,215.285L266.211,215.332L266.934,215.997L267.656,215.929L268.379,216.103L269.102,216.452L269.824,216.608L270.547,216.942L271.27,216.953L271.992,217.361L272.715,217.145L273.438,217.632L274.16,217.904L274.883,217.678L275.605,218.035L276.328,218.009L277.051,218.268L277.773,218.147L278.496,218.079L279.219,218.404L279.941,218.432L280.664,218.37L281.387,218.488L282.109,218.646L282.832,218.477L283.555,218.546L284.277,218.48L285,218.389L285.723,218.527L286.445,218.447L287.168,218.166L287.891,218.12L288.613,218.068L289.336,218.113L290.059,217.857L290.781,217.773L291.504,217.739L292.227,217.737L292.949,217.38L293.672,217.217L294.395,217.18L295.117,216.833L295.84,216.804L296.563,216.289L297.285,216.139L298.008,216.127L298.73,215.974L299.453,215.571L300.176,215.381L300.898,214.919L301.621,214.986L302.344,214.729L303.066,214.206L303.789,214L304.512,213.745L305.234,213.477L305.957,213.243L306.68,212.787L307.402,212.485L308.125,212.092L308.848,211.763L309.57,211.709L310.293,211.131L311.016,210.87L311.738,210.225L312.461,209.984L313.184,209.5L313.906,209.191L314.629,208.927L315.352,208.346L316.074,208.095L316.797,207.515L317.52,207.361L318.242,206.855L318.965,206.344L319.688,205.6L320.41,205.301L321.133,204.657L321.855,204.215L322.578,203.843L323.301,203.427L324.023,202.964L324.746,202.436L325.469,201.84L326.191,201.67L326.914,201.122L327.637,200.328L328.359,200.164L329.082,199.439L329.805,198.735L330.527,198.416L331.25,197.941L331.973,197.273L332.695,196.846L333.418,196.159L334.141,195.338L334.863,195.251L335.586,194.447L336.309,193.793L337.031,193.253L337.754,192.869L338.477,192.149L339.199,191.559L339.922,190.89L340.645,190.469L341.367,189.583L342.09,189.373L342.813,188.587L343.535,188.111L344.258,187.356L344.98,186.72L345.703,186.332L346.426,185.507L347.148,184.906L347.871,184.371L348.594,183.573L349.316,182.904L350.039,182.7L350.762,181.485L351.484,181.264L352.207,180.583L352.93,180.092L353.652,179.249L354.375,178.689L355.098,177.936L355.82,177.464L356.543,176.623L357.266,175.767L357.988,175.286L358.711,174.725L359.434,173.854L360.156,173.375L360.879,172.773L361.602,172.326L362.324,171.378L363.047,170.672L363.77,170.128L364.492,169.455L365.215,168.746L365.938,168.247L366.66,167.481L367.383,166.982L368.105,166.267L368.828,165.642L369.551,164.739L370.273,164.07L370.996,163.735L371.719,162.593L372.441,162.074L373.164,161.536L373.887,160.958L374.609,159.914L375.332,159.491L376.055,158.769L376.777,158.299L377.5,157.469L378.223,156.867L378.945,156.336L379.668,155.459L380.391,154.78L381.113,153.925L381.836,153.772L382.559,152.815L383.281,152.304L384.004,151.486L384.727,150.829L385.449,150.272L386.172,149.488L386.895,149.004L387.617,148.347L388.34,147.502L389.063,147.014L389.785,146.402L390.508,145.606L391.23,144.811L391.953,144.299L392.676,143.762L393.398,142.867L394.121,142.363L394.844,141.511L395.566,140.905L396.289,140.299L397.012,139.579L397.734,138.932L398.457,138.465L399.18,137.72L399.902,137.078L400.625,136.537L401.348,135.679L402.07,135.044L402.793,134.607L403.516,133.954L404.238,133.304L404.961,132.497L405.684,131.936L406.406,131.386L407.129,130.781L407.852,130.026L408.574,129.395L409.297,129.045L410.02,128.116L410.742,127.59L411.465,127.019L412.188,126.242L412.91,125.607L413.633,125.04L414.355,124.652L415.078,123.942L415.801,123.357L416.523,122.896L417.246,122.287L417.969,121.728L418.691,120.985L419.414,120.176L420.137,119.761L420.859,119.219L421.582,118.457L422.305,117.785L423.027,117.398L423.75,116.659L424.473,116.21L425.195,115.729L425.918,115.21L426.641,114.472L427.363,113.804L428.086,113.221L428.809,112.735L429.531,112.215L430.254,111.381L430.977,110.874L431.699,110.57L432.422,109.907L433.145,109.298L433.867,108.947L434.59,108.242L435.313,107.646L436.035,107.223L436.758,106.359L437.48,105.837L438.203,105.409L438.926,105.081L439.648,104.197L440.371,104.055L441.094,103.338L441.816,102.745L442.539,102.149L443.262,101.725L443.984,101.154L444.707,100.677L445.43,100.057L446.152,99.556L446.875,99.503L447.598,100.039L448.32,100.827L449.043,101.26L449.766,101.804L450.488,102.786L451.211,103.298L451.934,103.952L452.656,104.668L453.379,105.185L454.102,105.282L454.824,106.364L455.547,107.223L456.27,107.72L456.992,108.014L457.715,109.153L458.438,109.586L459.16,109.119L459.883,108.992L460.605,108.596L461.328,108.252L462.051,108.116L462.773,108.015L463.496,107.167L464.219,107.028L464.941,106.82L465.664,106.415L466.387,106.206L467.109,105.973L467.832,105.344L468.555,105.078L469.277,105.173"/><path fill="none" stroke="rgb(63, 243, 147)" stroke-width="1.5" d="M100,80.583L100.723,79.378L101.445,78.271L102.168,77.245L102.891,76.334L103.613,75.38L104.336,74.696L105.059,73.805L105.781,73.1L106.504,72.354L107.227,71.62L107.949,71.071L108.672,70.524L109.395,69.988L110.117,69.288L110.84,68.673L111.563,68.137L112.285,67.563L113.008,66.956L113.73,66.498L114.453,65.938L115.176,65.311L115.898,64.817L116.621,64.071L117.344,63.567L118.066,62.999L118.789,62.241L119.512,61.656L120.234,60.862L120.957,60.084L121.68,59.196L122.402,58.342L123.125,58.538L123.848,59.776L124.57,60.852L125.293,61.92L126.016,62.927L126.738,63.902L127.461,64.814L128.184,65.68L128.906,66.489L129.629,67.346L130.352,68.145L131.074,68.949L131.797,69.648L132.52,70.459L133.242,71.141L133.965,71.855L134.688,72.651L135.41,73.311L136.133,73.969L136.855,74.643L137.578,75.239L138.301,75.926L139.023,76.609L139.746,77.284L140.469,77.815L141.191,78.562L141.914,79.192L142.637,79.744L143.359,80.409L144.082,81.056L144.805,81.638L145.527,82.273L146.25,82.824L146.973,83.504L147.695,84.088L148.418,84.678L149.141,85.283L149.863,85.889L150.586,86.451L151.309,86.974L152.031,87.684L152.754,88.29L153.477,88.834L154.199,89.388L154.922,90.033L155.645,90.636L156.367,91.237L157.09,91.805L157.813,92.387L158.535,93.026L159.258,93.662L159.98,94.184L160.703,94.863L161.426,95.366L162.148,96.015L162.871,96.584L163.594,97.219L164.316,97.792L165.039,98.46L165.762,98.984L166.484,99.623L167.207,100.18L167.93,100.727L168.652,101.453L169.375,102.067L170.098,102.563L170.82,103.247L171.543,103.849L172.266,104.422L172.988,105.004L173.711,105.647L174.434,106.403L175.156,107.02L175.879,107.627L176.602,108.2L177.324,108.806L178.047,109.491L178.77,110.075L179.492,110.633L180.215,111.404L180.938,111.915L181.66,112.6L182.383,113.151L183.105,113.9L183.828,114.406L184.551,115.096L185.273,115.751L185.996,116.381L186.719,117.022L187.441,117.649L188.164,118.332L188.887,119.016L189.609,119.556L190.332,120.256L191.055,120.86L191.777,121.616L192.5,122.094L193.223,122.825L193.945,123.52L194.668,123.929L195.391,124.714L196.113,125.421L196.836,126.001L197.559,126.671L198.281,127.334L199.004,127.907L199.727,128.638L200.449,129.161L201.172,129.919L201.895,130.318L202.617,131.212L203.34,131.804L204.063,132.436L204.785,133.005L205.508,133.574L206.23,134.193L206.953,134.957L207.676,135.612L208.398,136.158L209.121,136.954L209.844,137.424L210.566,138.229L211.289,138.631L212.012,139.215L212.734,139.932L213.457,140.615L214.18,141.063L214.902,141.62L215.625,142.391L216.348,142.743L217.07,143.336L217.793,144.001L218.516,144.546L219.238,145.113L219.961,145.662L220.684,146.376L221.406,146.757L222.129,147.382L222.852,147.83L223.574,148.45L224.297,148.821L225.02,149.396L225.742,150.054L226.465,150.327L227.188,151.123L227.91,151.477L228.633,151.953L229.355,152.567L230.078,152.921L230.801,153.312L231.523,153.742L232.246,154.294L232.969,154.689L233.691,155.114L234.414,155.522L235.137,155.929L235.859,156.411L236.582,156.822L237.305,157.183L238.027,157.659L238.75,157.962L239.473,158.239L240.195,158.59L240.918,159.186L241.641,159.279L242.363,159.716L243.086,160.129L243.809,160.183L244.531,160.703L245.254,160.981L245.977,161.308L246.699,161.614L247.422,161.996L248.145,162.088L248.867,162.255L249.59,162.584L250.313,162.785L251.035,163.048L251.758,163.266L252.48,163.59L253.203,163.829L253.926,163.987L254.648,164.25L255.371,164.39L256.094,164.507L256.816,164.778L257.539,164.872L258.262,165.083L258.984,165.21L259.707,165.517L260.43,165.628L261.152,165.566L261.875,165.783L262.598,165.701L263.32,165.963L264.043,166.058L264.766,165.92L265.488,166.176L266.211,166.023L266.934,166.129L267.656,166.174L268.379,166.272L269.102,166.382L269.824,166.328L270.547,166.311L271.27,166.33L271.992,166.248L272.715,166.252L273.438,166.244L274.16,166.051L274.883,166.128L275.605,166.107L276.328,166.017L277.051,166.155L277.773,165.859L278.496,166.006L279.219,165.746L279.941,165.673L280.664,165.46L281.387,165.2L282.109,165.258L282.832,165.17L283.555,164.963L284.277,164.81L285,164.779L285.723,164.585L286.445,164.323L287.168,164.152L287.891,163.783L288.613,163.83L289.336,163.665L290.059,163.588L290.781,163.226L291.504,163.124L292.227,162.568L292.949,162.663L293.672,162.361L294.395,162.222L295.117,161.8L295.84,161.615L296.563,161.198L297.285,161.035L298.008,160.75L298.73,160.47L299.453,160.33L300.176,159.996L300.898,159.825L301.621,159.369L302.344,158.953L303.066,158.621L303.789,158.444L304.512,157.89L305.234,157.905L305.957,157.534L306.68,157.036L307.402,156.637L308.125,156.589L308.848,156.084L309.57,155.5L310.293,155.491L311.016,155.095L311.738,154.403L312.461,154.279L313.184,153.896L313.906,153.601L314.629,153.142L315.352,152.733L316.074,152.427L316.797,151.852L317.52,151.344L318.242,151.269L318.965,150.809L319.688,150.087L320.41,149.959L321.133,149.555L321.855,149.171L322.578,148.588L323.301,148.058L324.023,147.587L324.746,147.392L325.469,146.921L326.191,146.368L326.914,146.087L327.637,145.567L328.359,144.985L329.082,144.546L329.805,144.226L330.527,143.616L331.25,143.406L331.973,142.697L332.695,142.493L333.418,141.924L334.141,141.533L334.863,140.975L335.586,140.451L336.309,139.85L337.031,139.407L337.754,138.973L338.477,138.741L339.199,138.158L339.922,137.609L340.645,136.972L341.367,136.684L342.09,136.256L342.813,135.686L343.535,135.285L344.258,134.759L344.98,134.319L345.703,133.714L346.426,133.268L347.148,132.854L347.871,132.263L348.594,131.881L349.316,131.263L350.039,130.916L350.762,130.412L351.484,129.92L352.207,129.326L352.93,128.95L353.652,128.278L354.375,127.908L355.098,127.402L355.82,126.725L356.543,126.217L357.266,125.894L357.988,125.342L358.711,124.852L359.434,124.367L360.156,123.849L360.879,123.27L361.602,122.71L362.324,122.487L363.047,121.764L363.77,121.106L364.492,120.821L365.215,120.264L365.938,119.866L366.66,119.277L367.383,118.634L368.105,118.256L368.828,117.685L369.551,117.233L370.273,116.742L370.996,116.254L371.719,115.742L372.441,115.293L373.164,114.598L373.887,114.305L374.609,113.8L375.332,113.267L376.055,112.689L376.777,112.194L377.5,111.705L378.223,111.377L378.945,110.735L379.668,110.223L380.391,109.706L381.113,109.381L381.836,108.774L382.559,108.295L383.281,107.788L384.004,107.28L384.727,106.86L385.449,106.168L386.172,105.98L386.895,105.239L387.617,104.926L388.34,104.407L389.063,103.93L389.785,103.365L390.508,102.863L391.23,102.455L391.953,101.917L392.676,101.579L393.398,100.961L394.121,100.477L394.844,99.869L395.566,99.678L396.289,99.132L397.012,98.698L397.734,98.227L398.457,97.719L399.18,97.187L399.902,96.783L400.625,96.313L401.348,95.718L402.07,95.266L402.793,94.976L403.516,94.475L404.238,94.107L404.961,93.484L405.684,93.019L406.406,92.679L407.129,92.245L407.852,91.647L408.574,91.229L409.297,90.929L410.02,90.302L410.742,90.01L411.465,89.5L412.188,89.044L412.91,88.822L413.633,88.446L414.355,87.72L415.078,87.261L415.801,86.772L416.523,86.439L417.246,86.169L417.969,85.503L418.691,85.033L419.414,84.825L420.137,84.35L420.859,83.917L421.582,83.394L422.305,83.163L423.027,82.704L423.75,82.093L424.473,81.943L425.195,81.394L425.918,80.957L426.641,80.574L427.363,80.062L428.086,79.671L428.809,79.287L429.531,78.894L430.254,78.472L430.977,78.18L431.699,78.602L432.422,79.138L433.145,79.873L433.867,80.613L434.59,81.302L435.313,82.19L436.035,82.712L436.758,83.183L437.48,84.343L438.203,85.019L438.926,85.505L439.648,86.585L440.371,87.453L441.094,87.739L441.816,88.852L442.539,89.846L443.262,90.081L443.984,90.065L444.707,89.637L445.43,89.619L446.152,89.375L446.875,89.116L447.598,88.937L448.32,88.61L449.043,88.669L449.766,88.403L450.488,88.111L451.211,88.031L451.934,87.672L452.656,87.674L453.379,87.137L454.102,86.985L454.824,86.976L455.547,86.646L456.27,86.519L456.992,86.337L457.715,85.896L458.438,85.685L459.16,85.708L459.883,85.412L460.605,85.206L461.328,84.946L462.051,84.724L462.773,84.583L463.496,84.406L464.219,83.988L464.941,83.905L465.664,83.559L466.387,83.347L467.109,83.244L467.832,82.852L468.555,82.714L469.277,82.602"/><path fill="none" stroke="rgb(149, 251, 81)" stroke-width="1.5" d="M100,79.617L100.723,78.402L101.445,77.295L102.168,76.283L102.891,75.115L103.613,74.335L104.336,73.146L105.059,72.29L105.781,71.37L106.504,70.541L107.227,69.76L107.949,68.823L108.672,68.087L109.395,67.304L110.117,66.564L110.84,65.721L111.563,64.875L112.285,64.116L113.008,63.284L113.73,62.489L114.453,61.795L115.176,60.887L115.898,60.01L116.621,59.236L117.344,58.256L118.066,57.444L118.789,56.403L119.512,55.381L120.234,54.241L120.957,53.118L121.68,51.861L122.402,51.561L123.125,52.505L123.848,53.497L124.57,54.261L125.293,55.064L126.016,55.755L126.738,56.427L127.461,57.198L128.184,57.928L128.906,58.454L129.629,59.07L130.352,59.697L131.074,60.178L131.797,60.732L132.52,61.23L133.242,61.746L133.965,62.273L134.688,62.804L135.41,63.239L136.133,63.719L136.855,64.135L137.578,64.557L138.301,64.953L139.023,65.487L139.746,65.916L140.469,66.313L141.191,66.735L141.914,67.076L142.637,67.513L143.359,67.956L144.082,68.4L144.805,68.746L145.527,69.188L146.25,69.592L146.973,69.896L147.695,70.407L148.418,70.775L149.141,71.2L149.863,71.565L150.586,71.902L151.309,72.375L152.031,72.723L152.754,72.992L153.477,73.522L154.199,73.868L154.922,74.212L155.645,74.714L156.367,75.023L157.09,75.434L157.813,75.878L158.535,76.286L159.258,76.698L159.98,76.991L160.703,77.343L161.426,77.891L162.148,78.292L162.871,78.653L163.594,79.124L164.316,79.509L165.039,79.854L165.762,80.262L166.484,80.747L167.207,81.211L167.93,81.565L168.652,81.975L169.375,82.45L170.098,82.838L170.82,83.333L171.543,83.618L172.266,84.15L172.988,84.553L173.711,85.012L174.434,85.448L175.156,85.863L175.879,86.335L176.602,86.682L177.324,87.148L178.047,87.62L178.77,88.185L179.492,88.551L180.215,89.081L180.938,89.433L181.66,89.816L182.383,90.397L183.105,90.694L183.828,91.187L184.551,91.782L185.273,92.18L185.996,92.608L186.719,93.05L187.441,93.564L188.164,94.007L188.887,94.47L189.609,94.966L190.332,95.398L191.055,95.795L191.777,96.326L192.5,96.751L193.223,97.159L193.945,97.725L194.668,98.135L195.391,98.573L196.113,99.171L196.836,99.646L197.559,99.945L198.281,100.461L199.004,100.911L199.727,101.286L200.449,101.761L201.172,102.325L201.895,102.608L202.617,103.18L203.34,103.721L204.063,104.051L204.785,104.498L205.508,105.121L206.23,105.417L206.953,105.902L207.676,106.427L208.398,106.753L209.121,107.221L209.844,107.656L210.566,108.257L211.289,108.619L212.012,108.988L212.734,109.328L213.457,109.833L214.18,110.211L214.902,110.517L215.625,111.001L216.348,111.291L217.07,111.652L217.793,112.111L218.516,112.315L219.238,112.708L219.961,113.168L220.684,113.297L221.406,113.675L222.129,113.989L222.852,114.294L223.574,114.595L224.297,114.891L225.02,115.403L225.742,115.405L226.465,115.972L227.188,116.048L227.91,116.329L228.633,116.577L229.355,116.785L230.078,117.036L230.801,117.317L231.523,117.416L232.246,117.567L232.969,117.866L233.691,118.12L234.414,118.25L235.137,118.611L235.859,118.681L236.582,118.764L237.305,118.941L238.027,119.188L238.75,119.25L239.473,119.445L240.195,119.509L240.918,119.569L241.641,119.78L242.363,119.775L243.086,119.95L243.809,120.124L244.531,120.301L245.254,120.248L245.977,120.252L246.699,120.4L247.422,120.521L248.145,120.494L248.867,120.655L249.59,120.628L250.313,120.674L251.035,120.751L251.758,120.701L252.48,120.685L253.203,120.72L253.926,120.859L254.648,120.786L255.371,120.65L256.094,120.765L256.816,120.79L257.539,120.581L258.262,120.476L258.984,120.638L259.707,120.622L260.43,120.426L261.152,120.359L261.875,120.305L262.598,120.337L263.32,120.127L264.043,120.018L264.766,119.965L265.488,119.913L266.211,119.772L266.934,119.633L267.656,119.568L268.379,119.43L269.102,119.305L269.824,119.142L270.547,119.022L271.27,118.917L271.992,118.714L272.715,118.633L273.438,118.518L274.16,118.314L274.883,118.114L275.605,117.947L276.328,117.698L277.051,117.792L277.773,117.507L278.496,117.251L279.219,116.946L279.941,116.957L280.664,116.605L281.387,116.398L282.109,116.283L282.832,116.048L283.555,115.929L284.277,115.645L285,115.3L285.723,115.147L286.445,114.93L287.168,114.781L287.891,114.36L288.613,114.085L289.336,113.93L290.059,113.804L290.781,113.47L291.504,113.048L292.227,112.911L292.949,112.648L293.672,112.268L294.395,112.081L295.117,111.675L295.84,111.394L296.563,111.243L297.285,110.916L298.008,110.472L298.73,110.317L299.453,109.945L300.176,109.721L300.898,109.465L301.621,109.042L302.344,108.749L303.066,108.504L303.789,108.23L304.512,107.838L305.234,107.594L305.957,107.137L306.68,106.815L307.402,106.55L308.125,106.203L308.848,105.775L309.57,105.536L310.293,105.243L311.016,105.047L311.738,104.638L312.461,104.338L313.184,103.949L313.906,103.558L314.629,103.311L315.352,102.867L316.074,102.519L316.797,102.134L317.52,101.955L318.242,101.556L318.965,101.177L319.688,100.774L320.41,100.32L321.133,100.074L321.855,99.818L322.578,99.425L323.301,99.189L324.023,98.839L324.746,98.386L325.469,98.013L326.191,97.627L326.914,97.163L327.637,96.954L328.359,96.429L329.082,96.13L329.805,95.77L330.527,95.32L331.25,94.913L331.973,94.636L332.695,94.205L333.418,93.953L334.141,93.53L334.863,93.13L335.586,92.812L336.309,92.523L337.031,92.02L337.754,91.716L338.477,91.341L339.199,91.03L339.922,90.552L340.645,90.177L341.367,90.01L342.09,89.391L342.813,89.138L343.535,88.702L344.258,88.37L344.98,88.017L345.703,87.565L346.426,87.262L347.148,86.894L347.871,86.442L348.594,86.098L349.316,85.771L350.039,85.385L350.762,85.124L351.484,84.716L352.207,84.378L352.93,83.974L353.652,83.592L354.375,83.161L355.098,82.868L355.82,82.535L356.543,82.087L357.266,81.8L357.988,81.452L358.711,81.032L359.434,80.797L360.156,80.232L360.879,80.014L361.602,79.441L362.324,79.215L363.047,78.873L363.77,78.586L364.492,78.073L365.215,77.753L365.938,77.288L366.66,77.073L367.383,76.676L368.105,76.377L368.828,76.013L369.551,75.68L370.273,75.232L370.996,75.044L371.719,74.599L372.441,74.362L373.164,73.821L373.887,73.466L374.609,73.231L375.332,72.81L376.055,72.489L376.777,72.202L377.5,71.76L378.223,71.435L378.945,71.167L379.668,70.825L380.391,70.433L381.113,70.133L381.836,69.788L382.559,69.365L383.281,69.096L384.004,68.842L384.727,68.551L385.449,68.218L386.172,67.693L386.895,67.525L387.617,67.195L388.34,66.776L389.063,66.508L389.785,66.201L390.508,65.872L391.23,65.599L391.953,65.277L392.676,64.915L393.398,64.716L394.121,64.263L394.844,63.933L395.566,63.585L396.289,63.368L397.012,63.027L397.734,62.635L398.457,62.396L399.18,62.202L399.902,61.77L400.625,61.592L401.348,61.222L402.07,60.834L402.793,60.534L403.516,60.363L404.238,60.037L404.961,59.579L405.684,59.374L406.406,59.076L407.129,58.847L407.852,59.554L408.574,60.457L409.297,61.315L410.02,62.027L410.742,63.038L411.465,63.926L412.188,64.678L412.91,65.353L413.633,66.166L414.355,67.141L415.078,67.852L415.801,68.944L416.523,70.078L417.246,70.483L417.969,71.475L418.691,72.257L419.414,72.549L420.137,72.561L420.859,72.308L421.582,72.264L422.305,72.253L423.027,72.225L423.75,71.982L424.473,71.855L425.195,71.753L425.918,71.687L426.641,71.505L427.363,71.492L428.086,71.334L428.809,71.182L429.531,71.05L430.254,70.903L430.977,70.864L431.699,70.816L432.422,70.619L433.145,70.505L433.867,70.308L434.59,70.276L435.313,70.065L436.035,69.943L436.758,69.89L437.48,69.721L438.203,69.691L438.926,69.5L439.648,69.423L440.371,69.183L441.094,69.034L441.816,68.907L442.539,69.022L443.262,68.844L443.984,68.622L444.707,68.522L445.43,68.297L446.152,68.218L446.875,67.998L447.598,68.001L448.32,67.863L449.043,67.689L449.766,67.613L450.488,67.521L451.211,67.43L451.934,67.105L452.656,67.029L453.379,66.9L454.102,66.735L454.824,66.549L455.547,66.504L456.27,66.36L456.992,66.287L457.715,66.099L458.438,66.06L459.16,65.753L459.883,65.647L460.605,65.542L461.328,65.316L462.051,65.39L462.773,65.059L463.496,65.042L464.219,64.847L464.941,64.764L465.664,64.543L466.387,64.549L467.109,64.286L467.832,64.2L468.555,64.044L469.277,63.898"/><path fill="none" stroke="rgb(236, 209, 46)" stroke-width="1.5" d="M100,76.979L100.723,75.912L101.445,74.821L102.168,73.813L102.891,72.808L103.613,71.702L104.336,70.737L105.059,69.748L105.781,68.733L106.504,67.768L107.227,66.846L107.949,65.919L108.672,64.974L109.395,64.036L110.117,63.161L110.84,62.211L111.563,61.182L112.285,60.205L113.008,59.231L113.73,58.319L114.453,57.354L115.176,56.166L115.898,55.145L116.621,54.046L117.344,52.888L118.066,51.694L118.789,50.342L119.512,49.028L120.234,47.666L120.957,47.372L121.68,48.127L122.402,48.818L123.125,49.367L123.848,49.906L124.57,50.395L125.293,50.842L126.016,51.319L126.738,51.713L127.461,52.109L128.184,52.452L128.906,52.77L129.629,53.207L130.352,53.485L131.074,53.67L131.797,54.053L132.52,54.176L133.242,54.511L133.965,54.693L134.688,54.955L135.41,55.059L136.133,55.412L136.855,55.535L137.578,55.718L138.301,55.93L139.023,56.076L139.746,56.173L140.469,56.362L141.191,56.562L141.914,56.678L142.637,56.802L143.359,56.95L144.082,57.214L144.805,57.26L145.527,57.465L146.25,57.443L146.973,57.757L147.695,57.774L148.418,58.01L149.141,58.127L149.863,58.22L150.586,58.401L151.309,58.47L152.031,58.533L152.754,58.796L153.477,58.837L154.199,59.049L154.922,59.115L155.645,59.275L156.367,59.429L157.09,59.495L157.813,59.735L158.535,59.8L159.258,59.959L159.98,60.055L160.703,60.199L161.426,60.314L162.148,60.505L162.871,60.691L163.594,60.802L164.316,60.879L165.039,61.08L165.762,61.175L166.484,61.408L167.207,61.633L167.93,61.698L168.652,61.783L169.375,61.958L170.098,62.055L170.82,62.306L171.543,62.5L172.266,62.597L172.988,62.811L173.711,62.973L174.434,63.031L175.156,63.408L175.879,63.467L176.602,63.679L177.324,63.91L178.047,64.053L178.77,64.305L179.492,64.459L180.215,64.652L180.938,64.878L181.66,65.059L182.383,65.261L183.105,65.375L183.828,65.665L184.551,65.849L185.273,66.109L185.996,66.355L186.719,66.441L187.441,66.718L188.164,66.822L188.887,67.144L189.609,67.32L190.332,67.509L191.055,67.767L191.777,67.998L192.5,68.266L193.223,68.359L193.945,68.681L194.668,68.904L195.391,69.136L196.113,69.347L196.836,69.643L197.559,69.857L198.281,70.035L199.004,70.179L199.727,70.596L200.449,70.851L201.172,71.044L201.895,71.233L202.617,71.48L203.34,71.743L204.063,71.845L204.785,72.163L205.508,72.379L206.23,72.726L206.953,72.859L207.676,73.074L208.398,73.239L209.121,73.534L209.844,73.792L210.566,73.99L211.289,74.285L212.012,74.434L212.734,74.663L213.457,74.834L214.18,74.987L214.902,75.179L215.625,75.312L216.348,75.494L217.07,75.724L217.793,75.685L218.516,75.808L219.238,75.922L219.961,75.995L220.684,76.191L221.406,76.338L222.129,76.419L222.852,76.403L223.574,76.572L224.297,76.758L225.02,76.715L225.742,76.788L226.465,76.864L227.188,76.957L227.91,76.9L228.633,76.956L229.355,77.094L230.078,77.039L230.801,77.058L231.523,77.086L232.246,77.073L232.969,77.164L233.691,77.018L234.414,77.026L235.137,76.993L235.859,77.076L236.582,77.016L237.305,76.879L238.027,76.989L238.75,76.848L239.473,76.806L240.195,76.866L240.918,76.789L241.641,76.632L242.363,76.719L243.086,76.61L243.809,76.53L244.531,76.414L245.254,76.343L245.977,76.204L246.699,76.156L247.422,76.165L248.145,76.096L248.867,75.988L249.59,75.906L250.313,75.675L251.035,75.619L251.758,75.392L252.48,75.462L253.203,75.17L253.926,75.158L254.648,75.122L255.371,74.834L256.094,74.794L256.816,74.569L257.539,74.468L258.262,74.343L258.984,74.155L259.707,74.116L260.43,73.919L261.152,73.793L261.875,73.567L262.598,73.461L263.32,73.361L264.043,73.142L264.766,72.947L265.488,72.84L266.211,72.671L266.934,72.472L267.656,72.256L268.379,72.044L269.102,71.923L269.824,71.779L270.547,71.596L271.27,71.419L271.992,71.267L272.715,71.048L273.438,70.783L274.16,70.637L274.883,70.435L275.605,70.149L276.328,70.029L277.051,69.775L277.773,69.686L278.496,69.376L279.219,69.254L279.941,68.968L280.664,68.862L281.387,68.469L282.109,68.436L282.832,68.241L283.555,67.96L284.277,67.652L285,67.572L285.723,67.27L286.445,67.121L287.168,66.78L287.891,66.574L288.613,66.367L289.336,66.147L290.059,65.923L290.781,65.749L291.504,65.506L292.227,65.246L292.949,65.141L293.672,64.772L294.395,64.555L295.117,64.432L295.84,64.184L296.563,63.847L297.285,63.646L298.008,63.463L298.73,63.122L299.453,62.878L300.176,62.722L300.898,62.475L301.621,62.093L302.344,61.881L303.066,61.661L303.789,61.528L304.512,61.256L305.234,61.029L305.957,60.659L306.68,60.404L307.402,60.191L308.125,59.949L308.848,59.86L309.57,59.614L310.293,59.29L311.016,58.975L311.738,58.806L312.461,58.533L313.184,58.275L313.906,58.06L314.629,57.774L315.352,57.515L316.074,57.242L316.797,57.105L317.52,56.814L318.242,56.493L318.965,56.205L319.688,56.012L320.41,55.758L321.133,55.636L321.855,55.338L322.578,55.159L323.301,54.752L324.023,54.572L324.746,54.365L325.469,54.114L326.191,53.823L326.914,53.534L327.637,53.376L328.359,53.045L329.082,52.81L329.805,52.605L330.527,52.322L331.25,52.124L331.973,51.865L332.695,51.682L333.418,51.456L334.141,51.159L334.863,50.934L335.586,50.641L336.309,50.432L337.031,50.281L337.754,50.02L338.477,49.744L339.199,49.453L339.922,49.212L340.645,48.963L341.367,48.859L342.09,48.592L342.813,48.225L343.535,48.068L344.258,47.827L344.98,47.697L345.703,47.472L346.426,47.288L347.148,46.951L347.871,46.785L348.594,46.618L349.316,46.35L350.039,46.055L350.762,45.902L351.484,45.661L352.207,45.395L352.93,45.258L353.652,44.934L354.375,44.706L355.098,44.528L355.82,44.328L356.543,44.096L357.266,43.878L357.988,43.628L358.711,43.476L359.434,43.326L360.156,43.003L360.879,42.875L361.602,42.629L362.324,42.393L363.047,42.182L363.77,41.935L364.492,41.777L365.215,41.568L365.938,41.445L366.66,41.148L367.383,41.051L368.105,40.949L368.828,41.7L369.551,42.778L370.273,43.769L370.996,44.556L371.719,45.847L372.441,46.42L373.164,47.075L373.887,48.377L374.609,49.105L375.332,50.068L376.055,51.055L376.777,52.074L377.5,53.255L378.223,53.774L378.945,54.672L379.668,55.436L380.391,56.143L381.113,56.091L381.836,56.02L382.559,56.032L383.281,56.018L384.004,56.013L384.727,55.923L385.449,55.865L386.172,55.889L386.895,55.861L387.617,55.808L388.34,55.755L389.063,55.765L389.785,55.719L390.508,55.659L391.23,55.715L391.953,55.788L392.676,55.622L393.398,55.556L394.121,55.544L394.844,55.51L395.566,55.547L396.289,55.369L397.012,55.285L397.734,55.311L398.457,55.269L399.18,55.181L399.902,55.152L400.625,55.193L401.348,55.089L402.07,54.999L402.793,54.88L403.516,54.961L404.238,54.877L404.961,54.816L405.684,54.776L406.406,54.72L407.129,54.624L407.852,54.59L408.574,54.671L409.297,54.506L410.02,54.44L410.742,54.455L411.465,54.364L412.188,54.259L412.91,54.222L413.633,54.116L414.355,54.122L415.078,54.094L415.801,53.944L416.523,53.93L417.246,53.894L417.969,53.732L418.691,53.751L419.414,53.713L420.137,53.599L420.859,53.59L421.582,53.428L422.305,53.479L423.027,53.334L423.75,53.326L424.473,53.212L425.195,53.158L425.918,53.033L426.641,53.08L427.363,52.977L428.086,52.93L428.809,52.774L429.531,52.767L430.254,52.743L430.977,52.594L431.699,52.52L432.422,52.413L433.145,52.381L433.867,52.409L434.59,52.243L435.313,52.182L436.035,52.083L436.758,51.979L437.48,51.951L438.203,51.865L438.926,51.766L439.648,51.775L440.371,51.75L441.094,51.513L441.816,51.573L442.539,51.399L443.262,51.345L443.984,51.235L444.707,51.196L445.43,51.12L446.152,51.046L446.875,50.858L447.598,50.909L448.32,50.759L449.043,50.758L449.766,50.679L450.488,50.586L451.211,50.516L451.934,50.416L452.656,50.36L453.379,50.236L454.102,50.112L454.824,50.061L455.547,50.009L456.27,49.842L456.992,49.854L457.715,49.745L458.438,49.635L459.16,49.625L459.883,49.555L460.605,49.46L461.328,49.353L462.051,49.254L462.773,49.137L463.496,49.23L464.219,48.976L464.941,48.936L465.664,48.914L466.387,48.74L467.109,48.736L467.832,48.642L468.555,48.567L469.277,48.496"/><path fill="none" stroke="rgb(255, 130, 29)" stroke-width="1.5" d="M100,73.364L100.723,72.464L101.445,71.424L102.168,70.348L102.891,69.388L103.613,68.376L104.336,67.333L105.059,66.384L105.781,65.328L106.504,64.385L107.227,63.394L107.949,62.38L108.672,61.406L109.395,60.444L110.117,59.445L110.84,58.456L111.563,57.401L112.285,56.318L113.008,55.308L113.73,54.139L114.453,53.058L115.176,51.828L115.898,50.605L116.621,49.269L117.344,47.787L118.066,46.222L118.789,45.299L119.512,46.742L120.234,47.152L120.957,47.691L121.68,48.076L122.402,48.429L123.125,48.715L123.848,49.091L124.57,49.276L125.293,49.524L126.016,49.765L126.738,49.879L127.461,49.999L128.184,50.167L128.906,50.336L129.629,50.449L130.352,50.565L131.074,50.626L131.797,50.748L132.52,50.719L133.242,50.805L133.965,50.812L134.688,50.859L135.41,50.806L136.133,50.906L136.855,50.889L137.578,50.894L138.301,50.925L139.023,50.874L139.746,50.815L140.469,50.803L141.191,50.874L141.914,50.708L142.637,50.774L143.359,50.637L144.082,50.614L144.805,50.502L145.527,50.432L146.25,50.33L146.973,50.342L147.695,50.183L148.418,50.129L149.141,50.056L149.863,49.945L150.586,49.955L151.309,49.785L152.031,49.696L152.754,49.57L153.477,49.489L154.199,49.28L154.922,49.317L155.645,49.168L156.367,49.116L157.09,48.921L157.813,48.842L158.535,48.809L159.258,48.664L159.98,48.427L160.703,48.379L161.426,48.279L162.148,48.142L162.871,47.927L163.594,47.873L164.316,47.665L165.039,47.635L165.762,47.528L166.484,47.403L167.207,47.278L167.93,47.134L168.652,46.907L169.375,46.835L170.098,46.69L170.82,46.651L171.543,46.487L172.266,46.294L172.988,46.244L173.711,46.08L174.434,45.977L175.156,45.871L175.879,45.641L176.602,45.548L177.324,45.427L178.047,45.297L178.77,45.1L179.492,45.063L180.215,44.961L180.938,44.762L181.66,44.676L182.383,44.575L183.105,44.472L183.828,44.299L184.551,44.161L185.273,44.047L185.996,43.936L186.719,43.841L187.441,43.737L188.164,43.537L188.887,43.405L189.609,43.356L190.332,43.202L191.055,43.145L191.777,43.03L192.5,42.889L193.223,42.783L193.945,42.654L194.668,42.598L195.391,42.401L196.113,42.316L196.836,42.252L197.559,42.163L198.281,41.998L199.004,41.929L199.727,41.856L200.449,41.659L201.172,41.656L201.895,41.518L202.617,41.451L203.34,41.366L204.063,41.269L204.785,41.094L205.508,40.994L206.23,41.061L206.953,40.847L207.676,40.762L208.398,40.723L209.121,40.597L209.844,40.483L210.566,40.446L211.289,40.376L212.012,40.192L212.734,40.077L213.457,40.016L214.18,39.926L214.902,39.656L215.625,39.634L216.348,39.436L217.07,39.166L217.793,38.942L218.516,38.888L219.238,38.664L219.961,38.407L220.684,38.215L221.406,37.994L222.129,37.779L222.852,37.568L223.574,37.302L224.297,37.062L225.02,36.865L225.742,36.688L226.465,36.348L227.188,36.183L227.91,36.011L228.633,35.629L229.355,35.446L230.078,35.17L230.801,34.985L231.523,34.705L232.246,34.522L232.969,34.279L233.691,34.044L234.414,33.755L235.137,33.575L235.859,33.253L236.582,33.011L237.305,32.741L238.027,32.606L238.75,32.366L239.473,32.098L240.195,31.777L240.918,31.576L241.641,31.341L242.363,31.045L243.086,30.887L243.809,30.603L244.531,30.342L245.254,30.18L245.977,29.926L246.699,29.69L247.422,29.456L248.145,29.218L248.867,29.015L249.59,28.81L250.313,28.556L251.035,28.354L251.758,28.087L252.48,27.968L253.203,27.682L253.926,27.471L254.648,27.313L255.371,27.058L256.094,26.901L256.816,26.77L257.539,26.497L258.262,26.262L258.984,26.025L259.707,25.812L260.43,25.745L261.152,25.577L261.875,25.305L262.598,25.083L263.32,24.861L264.043,24.679L264.766,24.572L265.488,24.391L266.211,24.127L266.934,23.998L267.656,23.817L268.379,23.592L269.102,23.469L269.824,23.307L270.547,23.112L271.27,23.001L271.992,22.794L272.715,22.635L273.438,22.425L274.16,22.268L274.883,22.166L275.605,21.936L276.328,21.797L277.051,21.679L277.773,21.454L278.496,21.381L279.219,21.238L279.941,21.161L280.664,20.913L281.387,20.766L282.109,20.581L282.832,20.547L283.555,20.367L284.277,20.259L285,20.109L285.723,20L286.445,20.925L287.168,21.544L287.891,22.485L288.613,23.383L289.336,24.471L290.059,25.207L290.781,26.027L291.504,26.934L292.227,28.014L292.949,28.987L293.672,29.754L294.395,30.598L295.117,31.344L295.84,32.254L296.563,33.274L297.285,33.797L298.008,35.172L298.73,35.869L299.453,36.291L300.176,36.359L300.898,36.346L301.621,36.379L302.344,36.5L303.066,36.456L303.789,36.493L304.512,36.568L305.234,36.523L305.957,36.57L306.68,36.596L307.402,36.695L308.125,36.76L308.848,36.706L309.57,36.751L310.293,36.791L311.016,36.81L311.738,36.835L312.461,36.887L313.184,36.868L313.906,36.89L314.629,36.987L315.352,36.996L316.074,37.019L316.797,37.05L317.52,37.027L318.242,37.064L318.965,37.099L319.688,37.138L320.41,37.139L321.133,37.213L321.855,37.179L322.578,37.264L323.301,37.273L324.023,37.235L324.746,37.309L325.469,37.383L326.191,37.329L326.914,37.364L327.637,37.404L328.359,37.433L329.082,37.4L329.805,37.47L330.527,37.508L331.25,37.537L331.973,37.496L332.695,37.554L333.418,37.562L334.141,37.579L334.863,37.555L335.586,37.7L336.309,37.61L337.031,37.636L337.754,37.701L338.477,37.691L339.199,37.748L339.922,37.746L340.645,37.801L341.367,37.817L342.09,37.757L342.813,37.846L343.535,37.81L344.258,37.805L344.98,37.866L345.703,37.886L346.426,37.82L347.148,37.842L347.871,37.908L348.594,37.966L349.316,37.97L350.039,37.917L350.762,38.017L351.484,37.969L352.207,38.09L352.93,37.964L353.652,37.992L354.375,38.032L355.098,38.054L355.82,38.037L356.543,38.084L357.266,38.169L357.988,38.085L358.711,38.095L359.434,38.092L360.156,38.135L360.879,38.184L361.602,38.163L362.324,38.181L363.047,38.121L363.77,38.106L364.492,38.189L365.215,38.112L365.938,38.2L366.66,38.206L367.383,38.191L368.105,38.209L368.828,38.178L369.551,38.256L370.273,38.175L370.996,38.187L371.719,38.195L372.441,38.266L373.164,38.274L373.887,38.156L374.609,38.175L375.332,38.25L376.055,38.153L376.777,38.27L377.5,38.244L378.223,38.216L378.945,38.184L379.668,38.195L380.391,38.227L381.113,38.208L381.836,38.183L382.559,38.221L383.281,38.21L384.004,38.19L384.727,38.219L385.449,38.139L386.172,38.181L386.895,38.149L387.617,38.105L388.34,38.098L389.063,38.1L389.785,38.121L390.508,38.117L391.23,38.129L391.953,38.096L392.676,38.014L393.398,38.101L394.121,38.013L394.844,38.036L395.566,38.117L396.289,38.003L397.012,38.057L397.734,37.986L398.457,38.013L399.18,38.004L399.902,37.95L400.625,37.925L401.348,37.955L402.07,37.943L402.793,37.935L403.516,37.807L404.238,37.836L404.961,37.846L405.684,37.713L406.406,37.766L407.129,37.784L407.852,37.74L408.574,37.764L409.297,37.642L410.02,37.743L410.742,37.612L411.465,37.668L412.188,37.579L412.91,37.585L413.633,37.525L414.355,37.526L415.078,37.541L415.801,37.499L416.523,37.557L417.246,37.473L417.969,37.401L418.691,37.366L419.414,37.372L420.137,37.421L420.859,37.398L421.582,37.298L422.305,37.347L423.027,37.238L423.75,37.215L424.473,37.222L425.195,37.207L425.918,37.136L426.641,37.147L427.363,37.081L428.086,36.99L428.809,36.98L429.531,37.01L430.254,36.949L430.977,36.932L431.699,36.838L432.422,36.899L433.145,36.835L433.867,36.866L434.59,36.853L435.313,36.814L436.035,36.747L436.758,36.676L437.48,36.664L438.203,36.641L438.926,36.625L439.648,36.55L440.371,36.552L441.094,36.4L441.816,36.454L442.539,36.379L443.262,36.371L443.984,36.312L444.707,36.33L445.43,36.277L446.152,36.231L446.875,36.198L447.598,36.158L448.32,36.12L449.043,36.079L449.766,36.081L450.488,36.1L451.211,36.026L451.934,35.906L452.656,35.9L453.379,35.855L454.102,35.877L454.824,35.799L455.547,35.825L456.27,35.788L456.992,35.658L457.715,35.707L458.438,35.704L459.16,35.643L459.883,35.579L460.605,35.497L461.328,35.556L462.051,35.492L462.773,35.477L463.496,35.41L464.219,35.349L464.941,35.319L465.664,35.309L466.387,35.255L467.109,35.215L467.832,35.216L468.555,35.123L469.277,35.104"/><path fill="none" stroke="rgb(203, 47, 13)" stroke-width="1.5" d="M100,71.741L100.723,70.908L101.445,69.969L102.168,68.989L102.891,68.007L103.613,66.903L104.336,65.946L105.059,65.019L105.781,63.944L106.504,62.969L107.227,62.019L107.949,60.921L108.672,59.961L109.395,58.982L110.117,58.135L110.84,56.933L111.563,55.911L112.285,54.872L113.008,53.7L113.73,52.614L114.453,51.397L115.176,50.085L115.898,48.76L116.621,47.114L117.344,45.522L118.066,45.747L118.789,46.753L119.512,47.097L120.234,47.501L120.957,47.814L121.68,48.176L122.402,48.338L123.125,48.654L123.848,48.856L124.57,49.016L125.293,49.113L126.016,49.249L126.738,49.413L127.461,49.507L128.184,49.514L128.906,49.606L129.629,49.649L130.352,49.751L131.074,49.74L131.797,49.71L132.52,49.73L133.242,49.645L133.965,49.633L134.688,49.575L135.41,49.585L136.133,49.46L136.855,49.448L137.578,49.317L138.301,49.356L139.023,49.133L139.746,49.128L140.469,49.028L141.191,48.832L141.914,48.822L142.637,48.766L143.359,48.548L144.082,48.401L144.805,48.388L145.527,48.14L146.25,48.064L146.973,47.9L147.695,47.747L148.418,47.541L149.141,47.343L149.863,47.159L150.586,47.101L151.309,46.804L152.031,46.617L152.754,46.48L153.477,46.31L154.199,45.969L154.922,46.015L155.645,45.733L156.367,45.461L157.09,45.385L157.813,45.182L158.535,44.885L159.258,44.675L159.98,44.488L160.703,44.253L161.426,43.935L162.148,43.765L162.871,43.517L163.594,43.365L164.316,43.123L165.039,42.739L165.762,42.562L166.484,42.394L167.207,42.17L167.93,41.867L168.652,41.654L169.375,41.432L170.098,41.225L170.82,40.908L171.543,40.648L172.266,40.411L172.988,40.107L173.711,39.925L174.434,39.69L175.156,39.323L175.879,39.086L176.602,38.878L177.324,38.537L178.047,38.346L178.77,38.131L179.492,37.888L180.215,37.643L180.938,37.333L181.66,37.021L182.383,36.633L183.105,36.473L183.828,36.242L184.551,35.92L185.273,35.763L185.996,35.441L186.719,35.24L187.441,35.029L188.164,34.744L188.887,34.476L189.609,34.141L190.332,33.994L191.055,33.748L191.777,33.448L192.5,33.173L193.223,32.822L193.945,32.641L194.668,32.31L195.391,32.146L196.113,31.871L196.836,31.563L197.559,31.347L198.281,31.073L199.004,30.874L199.727,30.706L200.449,30.418L201.172,30.152L201.895,29.898L202.617,29.704L203.34,29.408L204.063,29.256L204.785,28.876L205.508,28.748L206.23,28.534L206.953,28.24L207.676,27.957L208.398,27.801L209.121,27.558L209.844,27.35L210.566,27.11L211.289,26.928L212.012,26.744L212.734,26.397L213.457,26.113L214.18,25.922L214.902,25.72L215.625,25.455L216.348,25.265L217.07,24.944L217.793,24.693L218.516,24.465L219.238,24.123L219.961,23.944L220.684,23.661L221.406,23.368L222.129,23.082L222.852,22.905L223.574,22.579L224.297,22.338L225.02,22.062L225.742,21.881L226.465,21.513L227.188,21.268L227.91,21.021L228.633,20.748L229.355,22.279L230.078,24.842L230.801,28.52L231.523,30.896L232.246,34.083L232.969,37.018L233.691,37.882L234.414,38.168L235.137,38.423L235.859,38.654L236.582,38.967L237.305,39.172L238.027,39.396L238.75,39.677L239.473,39.894L240.195,40.144L240.918,40.321L241.641,40.517L242.363,40.738L243.086,40.977L243.809,41.102L244.531,41.307L245.254,41.522L245.977,41.688L246.699,41.877L247.422,42.019L248.145,42.187L248.867,42.284L249.59,42.432L250.313,42.552L251.035,42.654L251.758,42.784L252.48,42.912L253.203,43.024L253.926,43.222L254.648,43.31L255.371,43.364L256.094,43.443L256.816,43.466L257.539,43.696L258.262,43.796L258.984,43.86L259.707,43.946L260.43,43.955L261.152,44.061L261.875,44.153L262.598,44.217L263.32,44.283L264.043,44.352L264.766,44.341L265.488,44.396L266.211,44.452L266.934,44.498L267.656,44.52L268.379,44.582L269.102,44.623L269.824,44.669L270.547,44.646L271.27,44.712L271.992,44.763L272.715,44.78L273.438,44.711L274.16,44.795L274.883,44.73L275.605,44.786L276.328,44.724L277.051,44.736L277.773,44.733L278.496,44.838L279.219,44.722L279.941,44.706L280.664,44.698L281.387,44.743L282.109,44.696L282.832,44.743L283.555,44.706L284.277,44.586L285,44.539L285.723,44.631L286.445,44.607L287.168,44.519L287.891,44.5L288.613,44.484L289.336,44.458L290.059,44.397L290.781,44.336L291.504,44.299L292.227,44.312L292.949,44.274L293.672,44.174L294.395,44.082L295.117,44.075L295.84,44.033L296.563,43.99L297.285,43.895L298.008,43.946L298.73,43.777L299.453,43.814L300.176,43.621L300.898,43.586L301.621,43.609L302.344,43.481L303.066,43.522L303.789,43.417L304.512,43.295L305.234,43.279L305.957,43.264L306.68,43.158L307.402,43.037L308.125,43.004L308.848,42.96L309.57,42.887L310.293,42.761L311.016,42.75L311.738,42.624L312.461,42.554L313.184,42.547L313.906,42.504L314.629,42.373L315.352,42.246L316.074,42.294L316.797,42.136L317.52,42.059L318.242,41.96L318.965,41.962L319.688,41.817L320.41,41.766L321.133,41.655L321.855,41.503L322.578,41.563L323.301,41.422L324.023,41.347L324.746,41.25L325.469,41.23L326.191,41.106L326.914,41.008L327.637,40.868L328.359,40.871L329.082,40.722L329.805,40.677L330.527,40.604L331.25,40.473L331.973,40.353L332.695,40.371L333.418,40.23L334.141,40.14L334.863,40.128L335.586,39.993L336.309,39.835L337.031,39.825L337.754,39.735L338.477,39.595L339.199,39.514L339.922,39.476L340.645,39.411L341.367,39.245L342.09,39.141L342.813,39.065L343.535,39.01L344.258,38.976L344.98,38.812L345.703,38.824L346.426,38.72L347.148,38.6L347.871,38.505L348.594,38.418L349.316,38.288L350.039,38.236L350.762,38.146L351.484,38.149L352.207,38.025L352.93,37.956L353.652,37.917L354.375,37.737L355.098,37.689L355.82,37.551L356.543,37.538L357.266,37.412L357.988,37.351L358.711,37.235L359.434,37.121L360.156,37.081L360.879,36.891L361.602,36.872L362.324,36.858L363.047,36.753L363.77,36.68L364.492,36.503L365.215,36.472L365.938,36.366L366.66,36.35L367.383,36.228L368.105,36.123L368.828,36.046L369.551,35.945L370.273,35.955L370.996,35.795L371.719,35.689L372.441,35.659L373.164,35.566L373.887,35.495L374.609,35.431L375.332,35.297L376.055,35.226L376.777,35.182L377.5,35.143L378.223,35.061L378.945,34.939L379.668,34.87L380.391,34.808L381.113,34.753L381.836,34.6L382.559,34.529L383.281,34.535L384.004,34.424L384.727,34.297L385.449,34.347L386.172,34.227L386.895,34.134L387.617,34.054L388.34,33.938L389.063,33.912L389.785,33.84L390.508,33.794L391.23,33.749L391.953,33.573L392.676,33.505L393.398,33.407L394.121,33.373L394.844,33.317L395.566,33.286L396.289,33.215L397.012,33.117L397.734,33.045L398.457,33.011L399.18,32.929L399.902,32.829L400.625,32.728L401.348,32.731L402.07,32.693L402.793,32.57L403.516,32.545L404.238,32.508L404.961,32.385L405.684,32.293L406.406,32.195L407.129,32.258L407.852,32.161L408.574,32.062L409.297,32.006L410.02,32.009L410.742,31.881L411.465,31.809L412.188,31.784L412.91,31.726L413.633,31.693L414.355,31.53L415.078,31.511L415.801,31.42L416.523,31.36L417.246,31.368L417.969,31.311L418.691,31.191L419.414,31.144L420.137,31.055L420.859,31.005L421.582,30.932L422.305,30.893L423.027,30.848L423.75,30.823L424.473,30.699L425.195,30.682L425.918,30.623L426.641,30.578L427.363,30.499L428.086,30.508L428.809,30.325L429.531,30.39L430.254,30.276L430.977,30.284L431.699,30.175L432.422,30.136L433.145,30.154L433.867,29.951L434.59,29.957L435.313,29.922L436.035,29.886L436.758,29.872L437.48,29.76L438.203,29.709L438.926,29.597L439.648,29.627L440.371,29.549L441.094,29.51L441.816,29.363L442.539,29.35L443.262,29.375L443.984,29.329L444.707,29.238L445.43,29.243L446.152,29.133L446.875,29.058L447.598,29.058L448.32,29.109L449.043,28.962L449.766,28.839L450.488,28.866L451.211,28.849L451.934,28.703L452.656,28.729L453.379,28.733L454.102,28.678L454.824,28.651L455.547,28.614L456.27,28.531L456.992,28.475L457.715,28.47L458.438,28.406L459.16,28.435L459.883,28.271L460.605,28.299L461.328,28.236L462.051,28.182L462.773,28.142L463.496,28.079L464.219,28.057L464.941,28.045L465.664,28.032L466.387,27.995L467.109,27.881L467.832,27.911L468.555,27.799L469.277,27.829"/><g transform="translate(0,190) scale(1.7) rotate(-90)"><text>Drift</text></g><g transform="translate(315,395) scale(1.8)"><text></text></g><g transform="translate(0,350)" fill="none" font-size="10" font-family="sans-serif" text-anchor="middle"><path class="domain" stroke="currentColor" d="M100,6V0H470V6"/><g class="tick" opacity="1" transform="translate(136.66666666666666,0)"><line stroke="currentColor" y2="6"/><text fill="currentColor" y="9" dy="0.71em" font-size="20px"> </text></g><g class="tick" opacity="1" transform="translate(173.7037037037037,0)"><line stroke="currentColor" y2="6"/><text fill="currentColor" y="9" dy="0.71em" font-size="20px">200</text></g><g class="tick" opacity="1" transform="translate(210.74074074074076,0)"><line stroke="currentColor" y2="6"/><text fill="currentColor" y="9" dy="0.71em" font-size="20px"> </text></g><g class="tick" opacity="1" transform="translate(247.77777777777777,0)"><line stroke="currentColor" y2="6"/><text fill="currentColor" y="9" dy="0.71em" font-size="20px">400</text></g><g class="tick" opacity="1" transform="translate(284.81481481481484,0)"><line stroke="currentColor" y2="6"/><text fill="currentColor" y="9" dy="0.71em" font-size="20px"> </text></g><g class="tick" opacity="1" transform="translate(321.85185185185185,0)"><line stroke="currentColor" y2="6"/><text fill="currentColor" y="9" dy="0.71em" font-size="20px">600</text></g><g class="tick" opacity="1" transform="translate(358.8888888888889,0)"><line stroke="currentColor" y2="6"/><text fill="currentColor" y="9" dy="0.71em" font-size="20px"> </text></g><g class="tick" opacity="1" transform="translate(395.9259259259259,0)"><line stroke="currentColor" y2="6"/><text fill="currentColor" y="9" dy="0.71em" font-size="20px">800</text></g><g class="tick" opacity="1" transform="translate(432.96296296296293,0)"><line stroke="currentColor" y2="6"/><text fill="currentColor" y="9" dy="0.71em" font-size="20px"> </text></g><g class="tick" opacity="1" transform="translate(470,0)"><line stroke="currentColor" y2="6"/><text fill="currentColor" y="9" dy="0.71em" font-size="20px">1000</text></g></g><g transform="translate(100,0)" fill="none" font-size="10" font-family="sans-serif" text-anchor="end"><path class="domain" stroke="currentColor" d="M-6,350H0V20H-6"/><g class="tick" opacity="1" transform="translate(0,345.07394131768217)"><line stroke="currentColor" x2="-6"/><text fill="currentColor" x="-9" dy="0.32em" font-size="20px">0.60</text></g><g class="tick" opacity="1" transform="translate(0,317.3074733626517)"><line stroke="currentColor" x2="-6"/><text fill="currentColor" x="-9" dy="0.32em" font-size="20px">0.55</text></g><g class="tick" opacity="1" transform="translate(0,289.5410054076212)"><line stroke="currentColor" x2="-6"/><text fill="currentColor" x="-9" dy="0.32em" font-size="20px">0.50</text></g><g class="tick" opacity="1" transform="translate(0,261.77453745259066)"><line stroke="currentColor" x2="-6"/><text fill="currentColor" x="-9" dy="0.32em" font-size="20px">0.45</text></g><g class="tick" opacity="1" transform="translate(0,234.00806949756014)"><line stroke="currentColor" x2="-6"/><text fill="currentColor" x="-9" dy="0.32em" font-size="20px">0.40</text></g><g class="tick" opacity="1" transform="translate(0,206.24160154252957)"><line stroke="currentColor" x2="-6"/><text fill="currentColor" x="-9" dy="0.32em" font-size="20px">0.35</text></g><g class="tick" opacity="1" transform="translate(0,178.47513358749907)"><line stroke="currentColor" x2="-6"/><text fill="currentColor" x="-9" dy="0.32em" font-size="20px">0.30</text></g><g class="tick" opacity="1" transform="translate(0,150.70866563246855)"><line stroke="currentColor" x2="-6"/><text fill="currentColor" x="-9" dy="0.32em" font-size="20px">0.25</text></g><g class="tick" opacity="1" transform="translate(0,122.94219767743805)"><line stroke="currentColor" x2="-6"/><text fill="currentColor" x="-9" dy="0.32em" font-size="20px">0.20</text></g><g class="tick" opacity="1" transform="translate(0,95.17572972240754)"><line stroke="currentColor" x2="-6"/><text fill="currentColor" x="-9" dy="0.32em" font-size="20px">0.15</text></g><g class="tick" opacity="1" transform="translate(0,67.40926176737699)"><line stroke="currentColor" x2="-6"/><text fill="currentColor" x="-9" dy="0.32em" font-size="20px">0.10</text></g><g class="tick" opacity="1" transform="translate(0,39.64279381234648)"><line stroke="currentColor" x2="-6"/><text fill="currentColor" x="-9" dy="0.32em" font-size="20px">0.05</text></g></g><circle cx="120" cy="255" r="8" style="fill: rgb(35, 23, 27);"/><circle cx="120" cy="280" r="8" style="fill: rgb(69, 105, 238);"/><circle cx="120" cy="305" r="8" style="fill: rgb(38, 188, 225);"/><circle cx="120" cy="330" r="8" style="fill: rgb(63, 243, 147);"/><circle cx="420" cy="255" r="8" style="fill: rgb(149, 251, 81);"/><circle cx="420" cy="280" r="8" style="fill: rgb(236, 209, 46);"/><circle cx="420" cy="305" r="8" style="fill: rgb(255, 130, 29);"/><circle cx="420" cy="330" r="8" style="fill: rgb(203, 47, 13);"/><text x="135" y="255" text-anchor="left" font-size="22" alignment-baseline="middle" style="fill: rgb(35, 23, 27);"> = 0</text><text x="135" y="280" text-anchor="left" font-size="22" alignment-baseline="middle" style="fill: rgb(69, 105, 238);"> = 0.22</text><text x="135" y="305" text-anchor="left" font-size="22" alignment-baseline="middle" style="fill: rgb(38, 188, 225);"> = 0.45</text><text x="135" y="330" text-anchor="left" font-size="22" alignment-baseline="middle" style="fill: rgb(63, 243, 147);"> = 0.67</text><text x="440" y="255" text-anchor="left" font-size="22" alignment-baseline="middle" style="fill: rgb(149, 251, 81);"> = 0.9</text><text x="440" y="280" text-anchor="left" font-size="22" alignment-baseline="middle" style="fill: rgb(236, 209, 46);"> = 1.12</text><text x="440" y="305" text-anchor="left" font-size="22" alignment-baseline="middle" style="fill: rgb(255, 130, 29);"> = 1.35</text><text x="440" y="330" text-anchor="left" font-size="22" alignment-baseline="middle" style="fill: rgb(203, 47, 13);"> = 1.57</text></svg>