<svg xmlns="http://www.w3.org/2000/svg" class="bg-white" width="500" height="400" viewBox="-40.26000000000002 -68.53000000000003 605.0000000000001 484.00000000000006"><path fill="none" stroke="rgb(35, 23, 27)" stroke-width="1.5" d="M100,104.518L100.723,101.911L101.445,95.219L102.168,93.113L102.891,90.956L103.613,92.281L104.336,90.058L105.059,87.579L105.781,86.885L106.504,84.44L107.227,80.08L107.949,77.55L108.672,74.833L109.395,75.26L110.117,72.524L110.84,65.596L111.563,62.757L112.285,59.957L113.008,58.704L113.73,55.58L114.453,52.487L115.176,50.218L115.898,47.058L116.621,43.857L117.344,36.065L118.066,32.677L118.789,30.972L119.512,27.521L120.234,23.832L120.957,20L121.68,149.036L122.402,148.663L123.125,149.796L123.848,149.634L124.57,148.28L125.293,150.374L126.016,150.351L126.738,149.194L127.461,146.89L128.184,149.675L128.906,147.569L129.629,147.302L130.352,147.255L131.074,146.683L131.797,146.763L132.52,146.549L133.242,146.147L133.965,145.726L134.688,145.887L135.41,145.532L136.133,145.33L136.855,144.786L137.578,145.016L138.301,144.846L139.023,146.185L139.746,145.998L140.469,144.282L141.191,145.555L141.914,146.598L142.637,145.102L143.359,145.537L144.082,144.896L144.805,145.828L145.527,144.836L146.25,145.392L146.973,144.45L147.695,143.4L148.418,144.054L149.141,143.995L149.863,143.763L150.586,142.573L151.309,142.634L152.031,142.351L152.754,141.884L153.477,143.582L154.199,141.348L154.922,139.535L155.645,143.022L156.367,142.848L157.09,139.418L157.813,142.521L158.535,138.534L159.258,138.358L159.98,138.344L160.703,140.679L161.426,138.168L162.148,137.266L162.871,137.015L163.594,136.776L164.316,139.448L165.039,138.22L165.762,139.534L166.484,139.476L167.207,136.403L167.93,138.239L168.652,135.912L169.375,138.09L170.098,137.399L170.82,134.802L171.543,137.588L172.266,137.307L172.988,135.733L173.711,136.461L174.434,133.925L175.156,133.686L175.879,134.52L176.602,133.326L177.324,133.459L178.047,133.146L178.77,135.709L179.492,135.096L180.215,134.887L180.938,134.706L181.66,130.584L182.383,130.405L183.105,130.121L183.828,132.801L184.551,132.572L185.273,129.731L185.996,133.669L186.719,133.391L187.441,131.905L188.164,131.66L188.887,133.49L189.609,133.159L190.332,131.04L191.055,130.831L191.777,130.73L192.5,128.763L193.223,131.876L193.945,130.438L194.668,130.935L195.391,129.814L196.113,131.209L196.836,128.453L197.559,130.786L198.281,128.483L199.004,129.443L199.727,129.298L200.449,129.233L201.172,129.069L201.895,127.466L202.617,127.307L203.34,129.586L204.063,125.791L204.785,126.613L205.508,128.626L206.23,126.73L206.953,127.046L207.676,127.734L208.398,127.535L209.121,127.686L209.844,127.581L210.566,127.515L211.289,126.447L212.012,124.702L212.734,126.767L213.457,126.938L214.18,127.024L214.902,125.627L215.625,127.007L216.348,126.385L217.07,126.434L217.793,127.903L218.516,125.24L219.238,126.522L219.961,126.716L220.684,126.432L221.406,127.632L222.129,125.994L222.852,127.671L223.574,127.753L224.297,127.073L225.02,129.395L225.742,129.301L226.465,129.476L227.188,126.713L227.91,126.601L228.633,126.44L229.355,126.489L230.078,127.849L230.801,127.269L231.523,127.365L232.246,127.387L232.969,126.338L233.691,126.361L234.414,126.373L235.137,125.912L235.859,125.937L236.582,126.107L237.305,128.163L238.027,128.288L238.75,127.66L239.473,128.46L240.195,128.61L240.918,128.18L241.641,128.529L242.363,127.685L243.086,128.744L243.809,128.612L244.531,128.993L245.254,129.985L245.977,132.689L246.699,129.74L247.422,133.148L248.145,130.547L248.867,130.023L249.59,130.236L250.313,131.073L251.035,130.976L251.758,135.193L252.48,132.175L253.203,129.311L253.926,131.48L254.648,132.369L255.371,133.032L256.094,133.376L256.816,134.479L257.539,134.377L258.262,132.083L258.984,135.583L259.707,135.657L260.43,134.967L261.152,135.147L261.875,138.074L262.598,138.353L263.32,136.521L264.043,136.78L264.766,135.828L265.488,137.859L266.211,139.064L266.934,139.486L267.656,140.031L268.379,141.359L269.102,138.334L269.824,138.878L270.547,141.428L271.27,141.984L271.992,143.063L272.715,143.8L273.438,143.548L274.16,146.029L274.883,147.997L275.605,145.183L276.328,146.38L277.051,146.764L277.773,147.438L278.496,147.8L279.219,148.138L279.941,150.088L280.664,149.547L281.387,150.37L282.109,150.949L282.832,152.437L283.555,151.957L284.277,153.985L285,151.296L285.723,156.808L286.445,155.291L287.168,158.464L287.891,159.412L288.613,156.375L289.336,160.657L290.059,158.308L290.781,161.077L291.504,162.643L292.227,160.764L292.949,163.38L293.672,164.163L294.395,166.663L295.117,166.361L295.84,165.183L296.563,165.248L297.285,166.045L298.008,169.273L298.73,167.994L299.453,168.442L300.176,173.721L300.898,171.825L301.621,171.482L302.344,176.106L303.066,174.359L303.789,176.549L304.512,177.737L305.234,176.97L305.957,178.436L306.68,177.279L307.402,178.89L308.125,182.327L308.848,178.939L309.57,185.62L310.293,183.901L311.016,184.232L311.738,185.322L312.461,187.242L313.184,186.193L313.906,187.931L314.629,190.804L315.352,192.011L316.074,191.552L316.797,192.567L317.52,194.296L318.242,194.627L318.965,193.783L319.688,197.91L320.41,198.347L321.133,198.76L321.855,198.133L322.578,199.146L323.301,200.508L324.023,198.8L324.746,204.198L325.469,200.869L326.191,205.849L326.914,205.98L327.637,206.367L328.359,207.706L329.082,210.658L329.805,209.804L330.527,212.332L331.25,212.341L331.973,214.971L332.695,215.945L333.418,214.126L334.141,216.116L334.863,218.224L335.586,218.001L336.309,222.725L337.031,221.728L337.754,221.349L338.477,222.369L339.199,228.362L339.922,224.97L340.645,226.696L341.367,227.887L342.09,228.055L342.813,229.846L343.535,233.427L344.258,231.789L344.98,235.414L345.703,233.071L346.426,234.007L347.148,234.55L347.871,236.824L348.594,240.976L349.316,240.215L350.039,239.617L350.762,244.281L351.484,240.528L352.207,241.463L352.93,245.306L353.652,249.81L354.375,251.013L355.098,245.489L355.82,249.794L356.543,247.469L357.266,254.054L357.988,254.622L358.711,253.746L359.434,258.23L360.156,253.786L360.879,260.176L361.602,259.587L362.324,262.025L363.047,257.078L363.77,257.39L364.492,260.284L365.215,263.355L365.938,264.75L366.66,265.683L367.383,264.451L368.105,268.875L368.828,264.268L369.551,267.303L370.273,268.178L370.996,269.027L371.719,270.424L372.441,271.867L373.164,269.596L373.887,276.591L374.609,277.36L375.332,273.184L376.055,272.391L376.777,277.133L377.5,277.847L378.223,281.02L378.945,275.389L379.668,280.32L380.391,278.174L381.113,280.654L381.836,282.39L382.559,283.486L383.281,280.641L384.004,283.148L384.727,285.613L385.449,284.648L386.172,286.765L386.895,287.031L387.617,285.741L388.34,289.004L389.063,287.816L389.785,289.791L390.508,290.682L391.23,291.366L391.953,288.099L392.676,287.197L393.398,287.763L394.121,293.065L394.844,295.797L395.566,295.713L396.289,296.138L397.012,296.248L397.734,296.468L398.457,293.952L399.18,295.169L399.902,298.945L400.625,298.215L401.348,300.168L402.07,294.409L402.793,297.136L403.516,298.493L404.238,299.038L404.961,299.566L405.684,297.645L406.406,298.021L407.129,299.27L407.852,302.797L408.574,298.847L409.297,303.391L410.02,299.011L410.742,301.669L411.465,298.366L412.188,298.462L412.91,300.567L413.633,303.606L414.355,302.744L415.078,305.492L415.801,305.819L416.523,304.16L417.246,305.313L417.969,303.793L418.691,303.55L419.414,302.122L420.137,301.604L420.859,306.542L421.582,301.433L422.305,307.293L423.027,304.428L423.75,304.841L424.473,306.964L425.195,302.764L425.918,304.44L426.641,306.722L427.363,303.799L428.086,303.77L428.809,301.975L429.531,303.604L430.254,303.464L430.977,303.917L431.699,300.804L432.422,300.233L433.145,302.025L433.867,301.085L434.59,306.059L435.313,301.566L436.035,300.212L436.758,305.238L437.48,298.171L438.203,304.712L438.926,302.646L439.648,300.629L440.371,298.212L441.094,301.477L441.816,297.621L442.539,293.792L443.262,300.315L443.984,299.876L444.707,301.716L445.43,299.823L446.152,294.325L446.875,298.158L447.598,297.786L448.32,297.494L449.043,294.262L449.766,292.847L450.488,293.15L451.211,292.262L451.934,291.798L452.656,293.146L453.379,292.638L454.102,293.778L454.824,293.075L455.547,289.369L456.27,287.945L456.992,292.784L457.715,289.372L458.438,282.954L459.16,290.306L459.883,288.85L460.605,287.345L461.328,286.977L462.051,289.748L462.773,286.316L463.496,288.04L464.219,284.169L464.941,277.592L465.664,280.558L466.387,283.527L467.109,284.977L467.832,280.74L468.555,284.412L469.277,276.645"/><path fill="none" stroke="rgb(69, 105, 238)" stroke-width="1.5" d="M100,166.903L100.723,163.17L101.445,161.421L102.168,157.725L102.891,155.492L103.613,156.047L104.336,151.438L105.059,151.552L105.781,148.376L106.504,145.548L107.227,141.718L107.949,139.124L108.672,140.085L109.395,137.445L110.117,133.082L110.84,130.294L111.563,127.451L112.285,125.169L113.008,122.394L113.73,117.66L114.453,114.551L115.176,112.034L115.898,108.411L116.621,105.859L117.344,101.628L118.066,100.139L118.789,86.962L119.512,87.077L120.234,87.268L120.957,87.654L121.68,86.962L122.402,85.512L123.125,89.56L123.848,85.763L124.57,87.586L125.293,85.465L126.016,85.008L126.738,82.989L127.461,88.679L128.184,88.636L128.906,83.034L129.629,85.096L130.352,83.943L131.074,85.526L131.797,86.368L132.52,85.158L133.242,85.224L133.965,83.079L134.688,81.313L135.41,86.081L136.133,82.496L136.855,85.024L137.578,84.643L138.301,82.789L139.023,83.241L139.746,84.587L140.469,83.889L141.191,84.005L141.914,81.91L142.637,82.715L143.359,80.177L144.082,82.567L144.805,82.621L145.527,78.424L146.25,79.964L146.973,82.418L147.695,79.867L148.418,81.297L149.141,79.685L149.863,77.419L150.586,78.79L151.309,77.687L152.031,79.285L152.754,80.695L153.477,79.492L154.199,76.767L154.922,77.57L155.645,80.086L156.367,77.215L157.09,75.959L157.813,77.67L158.535,77.807L159.258,78.783L159.98,78.399L160.703,78.47L161.426,75.212L162.148,77.58L162.871,75.637L163.594,74.591L164.316,74.902L165.039,77.374L165.762,74.791L166.484,76.945L167.207,74.911L167.93,74.561L168.652,76.407L169.375,76.241L170.098,75.941L170.82,72.868L171.543,74.802L172.266,73.646L172.988,73.04L173.711,74.546L174.434,72.634L175.156,72.043L175.879,72.287L176.602,71.254L177.324,72.154L178.047,71.226L178.77,70.497L179.492,71.024L180.215,70.566L180.938,72.318L181.66,71.699L182.383,69.379L183.105,69.772L183.828,71.658L184.551,70.129L185.273,71.946L185.996,70.661L186.719,71.757L187.441,71.409L188.164,71.244L188.887,68.996L189.609,68.2L190.332,68.705L191.055,71.005L191.777,71.544L192.5,70.036L193.223,69.841L193.945,69.347L194.668,68.181L195.391,70.08L196.113,67.178L196.836,68.448L197.559,70.134L198.281,67.735L199.004,66.141L199.727,67.385L200.449,66.964L201.172,66.756L201.895,66.897L202.617,66.418L203.34,65.524L204.063,67.932L204.785,67.459L205.508,66.733L206.23,66.085L206.953,64.359L207.676,67.242L208.398,69.397L209.121,66.847L209.844,65.862L210.566,66.383L211.289,66.606L212.012,64.368L212.734,65.414L213.457,66.318L214.18,64.83L214.902,65.5L215.625,66.292L216.348,65.5L217.07,66.007L217.793,66.75L218.516,65.84L219.238,66.241L219.961,65.714L220.684,66.01L221.406,68.258L222.129,66.851L222.852,65.398L223.574,66.021L224.297,64.965L225.02,67.496L225.742,65.309L226.465,64.715L227.188,66.018L227.91,65.568L228.633,65.518L229.355,64.181L230.078,63.648L230.801,64.486L231.523,64.766L232.246,65.458L232.969,65.676L233.691,68.098L234.414,67.07L235.137,64.914L235.859,65.907L236.582,67.199L237.305,67.559L238.027,67.505L238.75,65.331L239.473,68.558L240.195,67.453L240.918,68.208L241.641,68.137L242.363,66.901L243.086,69.029L243.809,69.464L244.531,69.746L245.254,68.415L245.977,69.474L246.699,68.501L247.422,69L248.145,70.9L248.867,69.897L249.59,68.487L250.313,70.656L251.035,69.142L251.758,72.396L252.48,70.809L253.203,72.874L253.926,73.181L254.648,72.673L255.371,72.383L256.094,71.768L256.816,72.567L257.539,73.632L258.262,73.713L258.984,73.172L259.707,73.685L260.43,75.762L261.152,74.782L261.875,75.167L262.598,76.86L263.32,78.664L264.043,79.163L264.766,77.36L265.488,80.369L266.211,77.595L266.934,76.76L267.656,77.224L268.379,78.667L269.102,81.358L269.824,82.157L270.547,82.406L271.27,82.64L271.992,80.168L272.715,82.541L273.438,84.408L274.16,85.35L274.883,83.789L275.605,85.369L276.328,87.441L277.051,87.058L277.773,87.368L278.496,87.657L279.219,89.46L279.941,89.401L280.664,90.802L281.387,91.076L282.109,91.694L282.832,92.015L283.555,94.024L284.277,92.221L285,93.901L285.723,97.24L286.445,92.568L287.168,93.047L287.891,94.937L288.613,98.548L289.336,98.138L290.059,99.238L290.781,99.315L291.504,99.819L292.227,101.38L292.949,101.609L293.672,99.676L294.395,100.56L295.117,104.317L295.84,107.832L296.563,108.043L297.285,106.063L298.008,108.537L298.73,109.621L299.453,106.705L300.176,111.221L300.898,110.55L301.621,112.503L302.344,112.85L303.066,115.948L303.789,115.723L304.512,114.355L305.234,115.692L305.957,118.34L306.68,115.441L307.402,119.753L308.125,119.062L308.848,121.039L309.57,123.334L310.293,121.726L311.016,123.681L311.738,123.718L312.461,122.556L313.184,128.127L313.906,127.391L314.629,128.884L315.352,128.721L316.074,128.611L316.797,127.552L317.52,128.919L318.242,132.683L318.965,133.674L319.688,132.928L320.41,136.656L321.133,133.989L321.855,135.266L322.578,137.145L323.301,136.485L324.023,140.337L324.746,139.986L325.469,142.731L326.191,141.735L326.914,145.728L327.637,144.668L328.359,146.391L329.082,144.328L329.805,148.334L330.527,149.146L331.25,149.872L331.973,147.828L332.695,149.547L333.418,154.385L334.141,150.947L334.863,152.348L335.586,157.313L336.309,157.156L337.031,154.528L337.754,156.138L338.477,160.214L339.199,159.614L339.922,159.247L340.645,161.714L341.367,162.33L342.09,163.38L342.813,167.355L343.535,166.832L344.258,169.414L344.98,167.059L345.703,168.833L346.426,167.428L347.148,171.938L347.871,171.097L348.594,173.58L349.316,172.736L350.039,173.411L350.762,172.518L351.484,177.153L352.207,176.115L352.93,175.426L353.652,180.366L354.375,177.047L355.098,178.235L355.82,179.911L356.543,185.029L357.266,180.763L357.988,181.417L358.711,183.86L359.434,186.229L360.156,185.53L360.879,189.528L361.602,186.457L362.324,188.311L363.047,187.032L363.77,189.539L364.492,193.45L365.215,189.81L365.938,192.244L366.66,193.301L367.383,196.149L368.105,193.782L368.828,193.493L369.551,198.342L370.273,197.785L370.996,196.529L371.719,198.717L372.441,197.785L373.164,199.24L373.887,199.746L374.609,201.201L375.332,203.66L376.055,204.532L376.777,200.275L377.5,203.343L378.223,204.24L378.945,202.588L379.668,208.194L380.391,202.788L381.113,209.935L381.836,209.37L382.559,205.221L383.281,210.424L384.004,207.246L384.727,211.396L385.449,209.521L386.172,210.705L386.895,212.584L387.617,209.766L388.34,209.051L389.063,208.873L389.785,209.12L390.508,212.62L391.23,212.99L391.953,213.802L392.676,213.692L393.398,213.274L394.121,216.877L394.844,214.868L395.566,217.079L396.289,212.61L397.012,216.336L397.734,216.031L398.457,213.06L399.18,215.644L399.902,216.039L400.625,218.133L401.348,217.174L402.07,219.565L402.793,218.591L403.516,218.037L404.238,219.198L404.961,219.794L405.684,216.035L406.406,219.73L407.129,220.635L407.852,218.596L408.574,219.665L409.297,219.706L410.02,216.796L410.742,219.358L411.465,220.291L412.188,220.252L412.91,220.502L413.633,219.064L414.355,217.82L415.078,221.29L415.801,216.068L416.523,217.613L417.246,217.335L417.969,220.816L418.691,220.006L419.414,219.3L420.137,221.079L420.859,218.999L421.582,220.94L422.305,215.952L423.027,220.406L423.75,217.781L424.473,219.099L425.195,217.093L425.918,215.177L426.641,215.149L427.363,219.761L428.086,216.869L428.809,214.045L429.531,222.731L430.254,217.245L430.977,213.834L431.699,216.38L432.422,217.445L433.145,215.035L433.867,217.011L434.59,218.504L435.313,214.002L436.035,213.812L436.758,215.279L437.48,213.905L438.203,210.806L438.926,213.219L439.648,208.704L440.371,215.002L441.094,211.611L441.816,211.857L442.539,210.764L443.262,212.371L443.984,206.411L444.707,211.823L445.43,207.997L446.152,211.857L446.875,206.458L447.598,208.218L448.32,205.298L449.043,202.45L449.766,206.896L450.488,207.294L451.211,203.303L451.934,204.962L452.656,202.79L453.379,206.368L454.102,203.608L454.824,204.526L455.547,200.057L456.27,203.254L456.992,202.763L457.715,197.302L458.438,201.728L459.16,199.953L459.883,195.699L460.605,194.888L461.328,197.376L462.051,198.823L462.773,194.865L463.496,195.454L464.219,194.515L464.941,194.106L465.664,193.936L466.387,195.029L467.109,191.48L467.832,192.641L468.555,188.007L469.277,189.658"/><path fill="none" stroke="rgb(38, 188, 225)" stroke-width="1.5" d="M100,79.249L100.723,76.101L101.445,75.443L102.168,78.28L102.891,70.769L103.613,71.206L104.336,69.085L105.059,66.245L105.781,64.455L106.504,60.054L107.227,57.806L107.949,57.029L108.672,53.674L109.395,53.106L110.117,47.526L110.84,46.457L111.563,40.701L112.285,164.915L113.008,166.169L113.73,167.398L114.453,167.784L115.176,168.061L115.898,169.354L116.621,171.255L117.344,170.007L118.066,169.013L118.789,171.888L119.512,172.715L120.234,169.88L120.957,172.818L121.68,174.337L122.402,171.711L123.125,171.357L123.848,176.502L124.57,170.188L125.293,172.22L126.016,171.716L126.738,172.177L127.461,170.902L128.184,170.27L128.906,171.849L129.629,172.05L130.352,170.202L131.074,168.946L131.797,171.296L132.52,167.115L133.242,169.319L133.965,169.193L134.688,167.383L135.41,170.067L136.133,167.101L136.855,166.248L137.578,169.606L138.301,169.707L139.023,167.744L139.746,167.665L140.469,165.559L141.191,170.924L141.914,165.569L142.637,169.323L143.359,167.288L144.082,166.997L144.805,167.329L145.527,168.088L146.25,166.305L146.973,166.737L147.695,166.684L148.418,167.693L149.141,169.334L149.863,167.899L150.586,164.994L151.309,168.63L152.031,165.431L152.754,165.093L153.477,164.03L154.199,167.978L154.922,163.755L155.645,164.042L156.367,164.295L157.09,161.727L157.813,163.177L158.535,164.436L159.258,166.384L159.98,163.165L160.703,164.973L161.426,160.436L162.148,167.823L162.871,163.494L163.594,161.771L164.316,162.17L165.039,163.097L165.762,160.989L166.484,161.586L167.207,162.041L167.93,163.271L168.652,164.731L169.375,163.126L170.098,163.256L170.82,163.958L171.543,162.505L172.266,162.747L172.988,162.551L173.711,160.138L174.434,162.283L175.156,162.852L175.879,161.012L176.602,159.277L177.324,161.314L178.047,158.693L178.77,157.531L179.492,162.217L180.215,162.741L180.938,161.223L181.66,158.393L182.383,160.197L183.105,162.019L183.828,161.108L184.551,161.794L185.273,157.159L185.996,160.545L186.719,160.416L187.441,158.533L188.164,156.625L188.887,157.021L189.609,156.419L190.332,158.446L191.055,159.419L191.777,157.512L192.5,161.451L193.223,157.328L193.945,157.181L194.668,158.838L195.391,158.422L196.113,157.473L196.836,155.435L197.559,155.901L198.281,155.186L199.004,154.97L199.727,154.561L200.449,158.142L201.172,156.026L201.895,158.02L202.617,153.623L203.34,155.791L204.063,158.131L204.785,155.623L205.508,156.566L206.23,155.75L206.953,157.285L207.676,154.062L208.398,154.948L209.121,155.471L209.844,153.889L210.566,154.715L211.289,157.062L212.012,157.063L212.734,155.182L213.457,159.159L214.18,151.784L214.902,154.243L215.625,154.824L216.348,151.544L217.07,155.902L217.793,153.823L218.516,155.291L219.238,159.145L219.961,155.502L220.684,156.358L221.406,157.182L222.129,159.23L222.852,153.703L223.574,153.895L224.297,157.375L225.02,154.128L225.742,155.421L226.465,156.669L227.188,156.023L227.91,156.179L228.633,160.288L229.355,155.747L230.078,156.757L230.801,156.707L231.523,156.066L232.246,159.983L232.969,160.039L233.691,160.28L234.414,160.526L235.137,160.677L235.859,160.834L236.582,158.626L237.305,161.845L238.027,158.905L238.75,158.087L239.473,161.435L240.195,160.81L240.918,155.046L241.641,158.748L242.363,160.356L243.086,160.512L243.809,161.811L244.531,159.129L245.254,162.031L245.977,160.948L246.699,161.797L247.422,162.069L248.145,164.063L248.867,161.462L249.59,163.308L250.313,163.354L251.035,161.401L251.758,167.233L252.48,164.174L253.203,164.448L253.926,165.206L254.648,164.696L255.371,166.267L256.094,167.651L256.816,166.457L257.539,166.327L258.262,167.632L258.984,166.968L259.707,167.875L260.43,170.672L261.152,168.753L261.875,167.597L262.598,169.942L263.32,169.816L264.043,168.837L264.766,170.717L265.488,170.984L266.211,169.842L266.934,172.848L267.656,173.333L268.379,173.949L269.102,172.339L269.824,173.484L270.547,176.712L271.27,176.07L271.992,176.695L272.715,180.128L273.438,179.007L274.16,177.641L274.883,178.565L275.605,178.93L276.328,178.716L277.051,180.085L277.773,182.655L278.496,179.223L279.219,181.985L279.941,182.102L280.664,183.329L281.387,183.97L282.109,183.834L282.832,183.158L283.555,183.656L284.277,186.876L285,187.061L285.723,187.246L286.445,186.815L287.168,190.403L287.891,188.859L288.613,188.428L289.336,188.945L290.059,192.456L290.781,195.4L291.504,191.61L292.227,193.193L292.949,194.595L293.672,195.794L294.395,195.516L295.117,195.062L295.84,195.756L296.563,199.635L297.285,199.123L298.008,198.545L298.73,200.375L299.453,200.794L300.176,201.204L300.898,206.071L301.621,203.69L302.344,204.038L303.066,203.358L303.789,208.962L304.512,206.234L305.234,205.659L305.957,206.891L306.68,209.266L307.402,208.616L308.125,209.246L308.848,209.339L309.57,211.254L310.293,211.51L311.016,213.36L311.738,208.527L312.461,214.409L313.184,217.084L313.906,214.729L314.629,218.712L315.352,219.212L316.074,219.035L316.797,217.469L317.52,216.897L318.242,220.276L318.965,222.757L319.688,219.119L320.41,221.218L321.133,221.992L321.855,222.702L322.578,224.845L323.301,226.311L324.023,225.925L324.746,225.467L325.469,228.367L326.191,231.597L326.914,226.374L327.637,230.34L328.359,230.778L329.082,232.411L329.805,230.748L330.527,235.039L331.25,228.738L331.973,236.947L332.695,231.3L333.418,237.723L334.141,236.498L334.863,234.608L335.586,236.707L336.309,239.733L337.031,235.246L337.754,236.539L338.477,237.479L339.199,239.377L339.922,243.012L340.645,243.43L341.367,243.944L342.09,245.808L342.813,243.159L343.535,244.179L344.258,239.102L344.98,248.778L345.703,249.852L346.426,246.293L347.148,246.962L347.871,250.253L348.594,248.8L349.316,245.686L350.039,252.66L350.762,252.621L351.484,251.582L352.207,252.233L352.93,253.068L353.652,251.944L354.375,255.101L355.098,250.621L355.82,255.07L356.543,253.463L357.266,247.656L357.988,252.164L358.711,256.741L359.434,257.499L360.156,253.982L360.879,255.707L361.602,257.124L362.324,256.955L363.047,258.602L363.77,260.474L364.492,255.415L365.215,261.124L365.938,258.391L366.66,259.233L367.383,261.003L368.105,262.14L368.828,258.127L369.551,259.419L370.273,260.849L370.996,258.4L371.719,258.668L372.441,261.955L373.164,258.687L373.887,260.259L374.609,259.836L375.332,263.201L376.055,257.686L376.777,255.381L377.5,265.237L378.223,259.733L378.945,260.713L379.668,262.369L380.391,262.238L381.113,261.287L381.836,261.41L382.559,267.821L383.281,261.591L384.004,259.018L384.727,263.679L385.449,263.372L386.172,261.76L386.895,265.136L387.617,261.764L388.34,263.454L389.063,262.561L389.785,263.393L390.508,261.54L391.23,262.45L391.953,264.161L392.676,258.509L393.398,261.249L394.121,262.125L394.844,263.394L395.566,261.443L396.289,263.984L397.012,262.891L397.734,262.797L398.457,261.927L399.18,257.176L399.902,262.216L400.625,259.484L401.348,260.425L402.07,258.839L402.793,260.968L403.516,262.111L404.238,259.957L404.961,256.355L405.684,259.401L406.406,255.873L407.129,257.071L407.852,259.579L408.574,256.688L409.297,256.38L410.02,257.72L410.742,258.659L411.465,254.659L412.188,256.629L412.91,258.909L413.633,260.211L414.355,254.183L415.078,253.414L415.801,253.33L416.523,252.455L417.246,250.479L417.969,252.048L418.691,249.126L419.414,252.228L420.137,249.673L420.859,249.979L421.582,255.094L422.305,248.211L423.027,252.373L423.75,247.967L424.473,249.91L425.195,248.863L425.918,248.511L426.641,244.644L427.363,241.69L428.086,246.175L428.809,245.274L429.531,244.827L430.254,243.35L430.977,244.653L431.699,245.155L432.422,244.61L433.145,244.938L433.867,241.451L434.59,243.314L435.313,242.379L436.035,241.082L436.758,238.618L437.48,241.659L438.203,240.093L438.926,236.523L439.648,237.183L440.371,236.62L441.094,234.908L441.816,238.135L442.539,233.483L443.262,234.432L443.984,236.366L444.707,230.395L445.43,233.153L446.152,232.944L446.875,235.343L447.598,231.235L448.32,229.895L449.043,228.154L449.766,228.445L450.488,229.133L451.211,228.263L451.934,227.349L452.656,226.336L453.379,227.287L454.102,224.403L454.824,225.702L455.547,223.711L456.27,221.63L456.992,224.614L457.715,222.067L458.438,221.734L459.16,221.259L459.883,218.838L460.605,220.748L461.328,216.37L462.051,217.628L462.773,216.919L463.496,218.74L464.219,216.152L464.941,214.531L465.664,214.075L466.387,211.575L467.109,213.91L467.832,212.628L468.555,211.831L469.277,210.376"/><path fill="none" stroke="rgb(63, 243, 147)" stroke-width="1.5" d="M100,140.621L100.723,141.616L101.445,138.753L102.168,140.004L102.891,135.109L103.613,133.102L104.336,129.196L105.059,91.301L105.781,90.921L106.504,95.715L107.227,94.494L107.949,98.128L108.672,98.971L109.395,99.731L110.117,101.806L110.84,100.029L111.563,103.967L112.285,103.713L113.008,108.7L113.73,103.614L114.453,106.835L115.176,108.319L115.898,110.588L116.621,109.372L117.344,108.96L118.066,109.276L118.789,111.449L119.512,109.304L120.234,112.809L120.957,109.103L121.68,111.125L122.402,114.314L123.125,112.056L123.848,112.107L124.57,111.45L125.293,111.058L126.016,112.564L126.738,111.622L127.461,112.224L128.184,111.711L128.906,112.773L129.629,110.698L130.352,113.546L131.074,108.607L131.797,109.171L132.52,110.594L133.242,113.571L133.965,109.65L134.688,109.378L135.41,110.557L136.133,109.639L136.855,109.659L137.578,110.779L138.301,110.097L139.023,109.529L139.746,107.97L140.469,109.409L141.191,108.556L141.914,109.155L142.637,107.828L143.359,106.703L144.082,110.326L144.805,107.641L145.527,110.061L146.25,109.573L146.973,106.597L147.695,106.919L148.418,109.068L149.141,105.909L149.863,106.422L150.586,107.361L151.309,106.386L152.031,107.781L152.754,109.369L153.477,108.061L154.199,106.62L154.922,108.734L155.645,107.052L156.367,107.988L157.09,108.238L157.813,106.884L158.535,105.302L159.258,107.777L159.98,106.454L160.703,103.701L161.426,108.089L162.148,107.445L162.871,106.874L163.594,106.74L164.316,108.741L165.039,105.31L165.762,106.055L166.484,108.312L167.207,105.862L167.93,105.752L168.652,107.001L169.375,104.631L170.098,105.023L170.82,107.275L171.543,104.193L172.266,103.594L172.988,105.623L173.711,102.302L174.434,104.888L175.156,105.301L175.879,104.686L176.602,102.993L177.324,105.05L178.047,106.933L178.77,107.254L179.492,102.309L180.215,104.057L180.938,104.649L181.66,103.489L182.383,102.446L183.105,102.659L183.828,103.625L184.551,104.623L185.273,103.877L185.996,101.322L186.719,101.655L187.441,103.533L188.164,103.339L188.887,102.332L189.609,103.385L190.332,102.51L191.055,103.315L191.777,102.373L192.5,103.172L193.223,100.104L193.945,102.695L194.668,99.07L195.391,101.368L196.113,105.231L196.836,105.124L197.559,101.922L198.281,103.512L199.004,102.043L199.727,104.92L200.449,104.86L201.172,105.756L201.895,102.099L202.617,102.161L203.34,103.575L204.063,103.525L204.785,98.616L205.508,101.85L206.23,102.52L206.953,102.115L207.676,100.128L208.398,101.745L209.121,102.612L209.844,103.348L210.566,101.124L211.289,100.532L212.012,100.602L212.734,103.585L213.457,101.986L214.18,100.307L214.902,104.494L215.625,100.945L216.348,101.829L217.07,102.426L217.793,103.445L218.516,102.365L219.238,102.844L219.961,100.163L220.684,103.812L221.406,102.892L222.129,103.419L222.852,104.336L223.574,101.683L224.297,104.2L225.02,104.391L225.742,103.782L226.465,104.924L227.188,103.571L227.91,105.59L228.633,101.91L229.355,104.347L230.078,105.322L230.801,103.092L231.523,103.332L232.246,109.421L232.969,105.283L233.691,106.944L234.414,105.064L235.137,107.519L235.859,108.388L236.582,105.858L237.305,109.084L238.027,106.862L238.75,108.48L239.473,104.973L240.195,107.025L240.918,107.276L241.641,108.698L242.363,110.648L243.086,108.043L243.809,110.32L244.531,108.228L245.254,112.86L245.977,111.471L246.699,108.468L247.422,112.523L248.145,109.095L248.867,111.985L249.59,112.131L250.313,114.073L251.035,112.674L251.758,112.756L252.48,112.993L253.203,113.768L253.926,115.251L254.648,116.41L255.371,115.954L256.094,114.937L256.816,112.901L257.539,116.912L258.262,118.381L258.984,117.639L259.707,117.68L260.43,118.614L261.152,120.815L261.875,118.368L262.598,119.732L263.32,120.372L264.043,119.1L264.766,120.763L265.488,123.026L266.211,123.788L266.934,118.774L267.656,123.711L268.379,125.105L269.102,122.864L269.824,124.044L270.547,126.621L271.27,126.167L271.992,123.35L272.715,124.407L273.438,128.917L274.16,127.433L274.883,130.019L275.605,129.988L276.328,128.944L277.051,130.511L277.773,128.293L278.496,129.255L279.219,131.853L279.941,130.294L280.664,133.705L281.387,130.392L282.109,133.924L282.832,133.737L283.555,135.813L284.277,136.451L285,137.606L285.723,135.36L286.445,135.958L287.168,141.371L287.891,137.161L288.613,138.695L289.336,141.923L290.059,138.237L290.781,137.185L291.504,139.182L292.227,140.251L292.949,140.138L293.672,140.943L294.395,147.691L295.117,144.21L295.84,144.746L296.563,145.553L297.285,143.892L298.008,144.555L298.73,148.107L299.453,146.377L300.176,145.627L300.898,149.464L301.621,150.544L302.344,153.007L303.066,150.644L303.789,151.378L304.512,149.638L305.234,149.799L305.957,151.972L306.68,153.499L307.402,152.746L308.125,151.944L308.848,154.212L309.57,155.744L310.293,155.593L311.016,157.68L311.738,156.633L312.461,157.163L313.184,159.579L313.906,156.809L314.629,158.809L315.352,157.767L316.074,158.446L316.797,158.428L317.52,159.317L318.242,161.291L318.965,163.74L319.688,161.951L320.41,162.843L321.133,163.718L321.855,163.042L322.578,163.606L323.301,167.497L324.023,163.558L324.746,167.652L325.469,164.525L326.191,162.323L326.914,170.347L327.637,166.08L328.359,168.8L329.082,165.387L329.805,168.349L330.527,166.973L331.25,166.822L331.973,173.607L332.695,166.962L333.418,169.921L334.141,171.352L334.863,167.258L335.586,168.329L336.309,171.477L337.031,171.085L337.754,169.287L338.477,171.672L339.199,170.195L339.922,175.195L340.645,171.249L341.367,172.831L342.09,171.23L342.813,173.597L343.535,173.23L344.258,170.796L344.98,174.959L345.703,173.362L346.426,172.416L347.148,174.748L347.871,171.188L348.594,177.318L349.316,172.601L350.039,173.699L350.762,172.565L351.484,176.452L352.207,174.828L352.93,175.282L353.652,175.007L354.375,170.703L355.098,171.975L355.82,173.441L356.543,170.926L357.266,173.481L357.988,174.33L358.711,174.918L359.434,170.575L360.156,172.435L360.879,175.647L361.602,171.061L362.324,170.197L363.047,174.212L363.77,176.467L364.492,173.114L365.215,170.246L365.938,170.715L366.66,171.48L367.383,168.304L368.105,169.536L368.828,171.332L369.551,170.102L370.273,169.96L370.996,170.655L371.719,171.448L372.441,168.686L373.164,168.823L373.887,165.458L374.609,167.608L375.332,169.856L376.055,166.378L376.777,164.982L377.5,165.474L378.223,167.916L378.945,163.627L379.668,162.891L380.391,166.32L381.113,165.193L381.836,166.609L382.559,162.068L383.281,159.823L384.004,165.254L384.727,159.162L385.449,162.648L386.172,158.969L386.895,162.533L387.617,160.261L388.34,161.572L389.063,162.127L389.785,159.53L390.508,157.64L391.23,154.608L391.953,158.01L392.676,153.457L393.398,154.797L394.121,151.774L394.844,156.841L395.566,151.821L396.289,152.974L397.012,151.426L397.734,150.23L398.457,150.95L399.18,151.666L399.902,146.2L400.625,148.935L401.348,149.971L402.07,147.521L402.793,147.092L403.516,145.775L404.238,146.144L404.961,144.047L405.684,143.141L406.406,142.097L407.129,141.132L407.852,141.697L408.574,142.541L409.297,141.048L410.02,141.134L410.742,136.878L411.465,134.303L412.188,141.687L412.91,136.833L413.633,132.232L414.355,134.73L415.078,135.66L415.801,131.278L416.523,135.89L417.246,131.438L417.969,133.157L418.691,133.573L419.414,129.848L420.137,133.143L420.859,126.314L421.582,129.764L422.305,126.477L423.027,125.102L423.75,127.767L424.473,126.736L425.195,125.687L425.918,122.709L426.641,122.477L427.363,121.113L428.086,120.123L428.809,120.621L429.531,115.945L430.254,120.507L430.977,116.258L431.699,121.246L432.422,115.563L433.145,114.702L433.867,117.32L434.59,110.469L435.313,110.603L436.035,112.424L436.758,110.256L437.48,114.694L438.203,113.661L438.926,110.311L439.648,108.553L440.371,103.532L441.094,105.744L441.816,104.581L442.539,104.372L443.262,105.034L443.984,99.915L444.707,100.829L445.43,103.272L446.152,101.271L446.875,101.238L447.598,99.808L448.32,102.821L449.043,95.842L449.766,96.613L450.488,99.785L451.211,96.281L451.934,98.814L452.656,97.413L453.379,95.199L454.102,92.043L454.824,93.116L455.547,94.541L456.27,95.933L456.992,93.848L457.715,93.056L458.438,90.268L459.16,91.143L459.883,90.522L460.605,88.72L461.328,86.109L462.051,85.455L462.773,86.693L463.496,86.145L464.219,88.516L464.941,87.556L465.664,83.198L466.387,82.228L467.109,84.409L467.832,83.401L468.555,81.596L469.277,74.966"/><path fill="none" stroke="rgb(149, 251, 81)" stroke-width="1.5" d="M100,64.857L100.723,156.304L101.445,160.402L102.168,161.103L102.891,161.098L103.613,164.421L104.336,169.152L105.059,166.614L105.781,172.436L106.504,170.251L107.227,174.972L107.949,173.05L108.672,177.505L109.395,179.174L110.117,177.218L110.84,181.772L111.563,181.306L112.285,181.916L113.008,182.726L113.73,184.901L114.453,186.431L115.176,187.22L115.898,190.829L116.621,184.982L117.344,185.229L118.066,190.269L118.789,189.22L119.512,188.684L120.234,192.902L120.957,194.91L121.68,189.224L122.402,189.709L123.125,188.339L123.848,188.285L124.57,188.9L125.293,189.21L126.016,189.225L126.738,189.639L127.461,189.513L128.184,189.579L128.906,191.502L129.629,188.5L130.352,192.761L131.074,191.377L131.797,189.592L132.52,187.316L133.242,191.229L133.965,189.937L134.688,189.549L135.41,192.74L136.133,194.816L136.855,191.069L137.578,188.198L138.301,192.048L139.023,191.327L139.746,190.722L140.469,189.034L141.191,189.625L141.914,187.73L142.637,188.167L143.359,187.217L144.082,187.325L144.805,188.895L145.527,190.746L146.25,189.66L146.973,190.568L147.695,192.435L148.418,190.381L149.141,186.874L149.863,188.367L150.586,188.819L151.309,192.007L152.031,191.175L152.754,188.475L153.477,189.838L154.199,192.71L154.922,190.561L155.645,191.873L156.367,191.503L157.09,188.737L157.813,190.477L158.535,189.926L159.258,188.711L159.98,187.64L160.703,190.119L161.426,190.152L162.148,190.429L162.871,186.875L163.594,187.733L164.316,191.116L165.039,193.115L165.762,192.231L166.484,189.877L167.207,191.044L167.93,191.021L168.652,190.652L169.375,189.812L170.098,190.123L170.82,190.777L171.543,188.971L172.266,191.804L172.988,192.899L173.711,192.565L174.434,192.587L175.156,188.872L175.879,188.754L176.602,190.343L177.324,187.605L178.047,189.084L178.77,188.413L179.492,188.721L180.215,192.196L180.938,187.742L181.66,190.869L182.383,193.958L183.105,190.793L183.828,190.803L184.551,188.727L185.273,190.376L185.996,190.926L186.719,192.059L187.441,191.009L188.164,191.587L188.887,190.313L189.609,192.889L190.332,192.718L191.055,191.414L191.777,190.546L192.5,190.932L193.223,189.284L193.945,191.125L194.668,191.234L195.391,189.036L196.113,193.303L196.836,192.345L197.559,193.709L198.281,189.995L199.004,193.237L199.727,191.767L200.449,190.408L201.172,193.913L201.895,193.82L202.617,191.835L203.34,192.124L204.063,193.193L204.785,193.108L205.508,190.952L206.23,191.345L206.953,192.166L207.676,191.811L208.398,194.286L209.121,192.221L209.844,191.158L210.566,192.132L211.289,194.784L212.012,193.585L212.734,191.922L213.457,191.925L214.18,194.935L214.902,195.056L215.625,191.706L216.348,194.965L217.07,196.471L217.793,194.71L218.516,193.946L219.238,193.385L219.961,196.896L220.684,194.81L221.406,193.957L222.129,194.785L222.852,195.249L223.574,195.579L224.297,198.595L225.02,195.382L225.742,194.705L226.465,196.447L227.188,196.662L227.91,196.1L228.633,196.482L229.355,194.739L230.078,197.607L230.801,196.578L231.523,200.603L232.246,195.748L232.969,197.365L233.691,197.376L234.414,195.211L235.137,198.27L235.859,198.75L236.582,201.166L237.305,199.831L238.027,200.595L238.75,200.84L239.473,203L240.195,201.764L240.918,199.882L241.641,204.231L242.363,202.688L243.086,202.8L243.809,203.427L244.531,203.936L245.254,205.755L245.977,202.863L246.699,204.051L247.422,202.537L248.145,205.16L248.867,205.008L249.59,205.915L250.313,204.101L251.035,207.26L251.758,206.227L252.48,205.554L253.203,207.34L253.926,206.65L254.648,206.698L255.371,208.919L256.094,208.227L256.816,209.473L257.539,212.682L258.262,209.154L258.984,210.143L259.707,212.692L260.43,213.812L261.152,213.534L261.875,214.971L262.598,215.526L263.32,213.641L264.043,214.392L264.766,212.873L265.488,213.924L266.211,214.891L266.934,215.891L267.656,214.749L268.379,215.498L269.102,215.793L269.824,218.645L270.547,216.722L271.27,221.534L271.992,223.868L272.715,218.184L273.438,219.554L274.16,217.873L274.883,222.766L275.605,220.613L276.328,224.055L277.051,222.051L277.773,224.787L278.496,222.999L279.219,226.129L279.941,226.167L280.664,224.915L281.387,227.739L282.109,225.469L282.832,225.256L283.555,228.27L284.277,224.658L285,230.156L285.723,229.361L286.445,229.107L287.168,229.084L287.891,229.398L288.613,228.793L289.336,231.709L290.059,232.948L290.781,229.932L291.504,234.169L292.227,230.065L292.949,231.357L293.672,232.779L294.395,232.484L295.117,237.894L295.84,237.211L296.563,233.851L297.285,233.772L298.008,234.024L298.73,234.529L299.453,240.521L300.176,238.51L300.898,237.272L301.621,237.909L302.344,237.212L303.066,236.206L303.789,241.767L304.512,238.26L305.234,240.85L305.957,243.29L306.68,242.185L307.402,240.4L308.125,241.33L308.848,241.468L309.57,238.133L310.293,239.872L311.016,240.254L311.738,242.194L312.461,243.629L313.184,241.314L313.906,243.979L314.629,245.594L315.352,243.065L316.074,243.229L316.797,242.312L317.52,244.418L318.242,248.583L318.965,247.437L319.688,243.832L320.41,248.793L321.133,241.858L321.855,246.018L322.578,247.438L323.301,249.709L324.023,248.575L324.746,245.794L325.469,244.561L326.191,246.144L326.914,243.77L327.637,245.803L328.359,248.801L329.082,245.498L329.805,245.76L330.527,248.373L331.25,249.263L331.973,244.805L332.695,248.094L333.418,246.188L334.141,249.586L334.863,248.067L335.586,247.851L336.309,246.165L337.031,243.072L337.754,245.644L338.477,245.927L339.199,243.395L339.922,244.424L340.645,248.221L341.367,243.154L342.09,245.661L342.813,245.052L343.535,247.11L344.258,241.968L344.98,242.245L345.703,246.963L346.426,242.945L347.148,245.322L347.871,245.683L348.594,240.853L349.316,244.172L350.039,244.756L350.762,239.776L351.484,239.573L352.207,240.566L352.93,239.689L353.652,239.887L354.375,240.279L355.098,236.662L355.82,238.77L356.543,240.003L357.266,234.77L357.988,235.241L358.711,236.976L359.434,238.07L360.156,237.409L360.879,234.541L361.602,233.994L362.324,232.759L363.047,232.125L363.77,233.07L364.492,232.729L365.215,231.463L365.938,232.807L366.66,232.246L367.383,227.46L368.105,229.115L368.828,226.211L369.551,225.74L370.273,224.457L370.996,225.159L371.719,221.536L372.441,223.026L373.164,221.2L373.887,220.108L374.609,223.355L375.332,220.024L376.055,219.327L376.777,217.396L377.5,219.518L378.223,217.035L378.945,218.305L379.668,215.941L380.391,214.673L381.113,215L381.836,213.966L382.559,211.873L383.281,213.136L384.004,212.105L384.727,210.553L385.449,211.278L386.172,209.578L386.895,207.038L387.617,203.432L388.34,207.04L389.063,201.057L389.785,204.322L390.508,203.772L391.23,199.605L391.953,201.448L392.676,197.644L393.398,195.803L394.121,197.084L394.844,196.047L395.566,194.63L396.289,196.708L397.012,194.277L397.734,190.72L398.457,190.991L399.18,189.311L399.902,188.539L400.625,190.201L401.348,186.866L402.07,183.204L402.793,183.329L403.516,183.302L404.238,184.129L404.961,185.881L405.684,178.891L406.406,181.774L407.129,180.278L407.852,178.921L408.574,175.979L409.297,175.998L410.02,174.379L410.742,171.872L411.465,173.439L412.188,169.409L412.91,169.827L413.633,168.441L414.355,167.437L415.078,169.916L415.801,169.874L416.523,169.084L417.246,163.987L417.969,166.475L418.691,161.503L419.414,164.613L420.137,159.315L420.859,160.958L421.582,160.404L422.305,159.904L423.027,156.362L423.75,154.203L424.473,154.992L425.195,153.381L425.918,154.605L426.641,154.299L427.363,151.883L428.086,149.698L428.809,151.586L429.531,148.326L430.254,148.651L430.977,144.27L431.699,143.689L432.422,144.014L433.145,141.729L433.867,142.453L434.59,144.823L435.313,145.608L436.035,142.737L436.758,140.959L437.48,143.241L438.203,138.115L438.926,138.37L439.648,136.588L440.371,136.902L441.094,132.801L441.816,135.409L442.539,132.217L443.262,133.603L443.984,132.251L444.707,129.519L445.43,131.179L446.152,128.466L446.875,128.378L447.598,127.197L448.32,123.015L449.043,124.852L449.766,126.062L450.488,123.868L451.211,121.995L451.934,123.404L452.656,122.768L453.379,122.331L454.102,122.014L454.824,118.747L455.547,119.606L456.27,117.688L456.992,118.399L457.715,117.9L458.438,117.556L459.16,116.437L459.883,115.825L460.605,116.797L461.328,113.027L462.051,113.478L462.773,109.893L463.496,110.48L464.219,114.048L464.941,108.832L465.664,109.643L466.387,111.345L467.109,110.065L467.832,109.675L468.555,108.642L469.277,104.649"/><path fill="none" stroke="rgb(236, 209, 46)" stroke-width="1.5" d="M100,89.905L100.723,135.391L101.445,137.821L102.168,140.867L102.891,143.673L103.613,144.241L104.336,144.698L105.059,147.785L105.781,148.298L106.504,149.536L107.227,150.158L107.949,153.394L108.672,152.884L109.395,153.891L110.117,159.056L110.84,159.74L111.563,161.679L112.285,161.149L113.008,163.898L113.73,162.727L114.453,165.99L115.176,164.096L115.898,165.579L116.621,168.286L117.344,167.002L118.066,167.555L118.789,165.655L119.512,171.599L120.234,168.012L120.957,172.733L121.68,168.849L122.402,171.684L123.125,171.616L123.848,172.29L124.57,170.05L125.293,171.581L126.016,168.144L126.738,170.381L127.461,173.958L128.184,173.216L128.906,172.759L129.629,172.769L130.352,171.49L131.074,173.495L131.797,170.645L132.52,172.188L133.242,172.69L133.965,173.098L134.688,173.626L135.41,174.599L136.133,174.703L136.855,173.458L137.578,172.078L138.301,174.062L139.023,175.357L139.746,172.018L140.469,176.33L141.191,172.646L141.914,172.062L142.637,173.555L143.359,173.685L144.082,173.353L144.805,173.973L145.527,174.553L146.25,173.294L146.973,173.237L147.695,173.95L148.418,172.806L149.141,173.168L149.863,172.216L150.586,170.851L151.309,174.607L152.031,177.117L152.754,176.052L153.477,175.32L154.199,175.185L154.922,175.78L155.645,176.213L156.367,177.16L157.09,178.976L157.813,178.334L158.535,176.743L159.258,177.625L159.98,177.301L160.703,177.736L161.426,178.622L162.148,178.53L162.871,176.751L163.594,178.982L164.316,177.575L165.039,176.54L165.762,177.446L166.484,179.58L167.207,179.434L167.93,175.252L168.652,177.99L169.375,178.182L170.098,179.482L170.82,180.569L171.543,178.321L172.266,182.375L172.988,180.826L173.711,182.479L174.434,179.406L175.156,176.303L175.879,179.32L176.602,179.1L177.324,182.152L178.047,177.814L178.77,178.969L179.492,182.169L180.215,178.866L180.938,180.189L181.66,181.143L182.383,181.414L183.105,182.3L183.828,182.909L184.551,183.733L185.273,183.888L185.996,180.984L186.719,181.599L187.441,183.584L188.164,182.808L188.887,181.612L189.609,183.551L190.332,180.517L191.055,182.745L191.777,182.32L192.5,181.269L193.223,182.362L193.945,185.789L194.668,183.896L195.391,186.42L196.113,181.541L196.836,185.141L197.559,185.2L198.281,185.813L199.004,185.155L199.727,185.375L200.449,188.986L201.172,186.521L201.895,186.882L202.617,186.769L203.34,185.495L204.063,185.944L204.785,185.598L205.508,188.501L206.23,188.174L206.953,188.415L207.676,187.248L208.398,192.173L209.121,186.678L209.844,190.608L210.566,188.681L211.289,188.937L212.012,190.697L212.734,190.659L213.457,191.189L214.18,192.204L214.902,189.126L215.625,189.399L216.348,191.06L217.07,189.978L217.793,188.353L218.516,195.021L219.238,191.906L219.961,191.057L220.684,188.566L221.406,191.925L222.129,193.25L222.852,197.195L223.574,194.092L224.297,195.555L225.02,193.796L225.742,194.402L226.465,196.106L227.188,194.305L227.91,191.295L228.633,197.034L229.355,195.601L230.078,193.205L230.801,197.399L231.523,195.625L232.246,195.753L232.969,196.511L233.691,199.216L234.414,198.572L235.137,199.506L235.859,199.133L236.582,201.005L237.305,198.31L238.027,196.266L238.75,202.866L239.473,201.601L240.195,201.142L240.918,197.557L241.641,202.648L242.363,198.507L243.086,200.46L243.809,203.137L244.531,204.484L245.254,201.932L245.977,201.509L246.699,203.811L247.422,205.856L248.145,206.818L248.867,205.807L249.59,206.238L250.313,204.615L251.035,206.902L251.758,207.445L252.48,209.321L253.203,205.78L253.926,209.086L254.648,209.886L255.371,209.56L256.094,208.824L256.816,211.082L257.539,211.645L258.262,207.951L258.984,211.007L259.707,210.204L260.43,211.516L261.152,215.233L261.875,209.989L262.598,212.519L263.32,215.423L264.043,213.555L264.766,216.893L265.488,215.057L266.211,214.146L266.934,216.967L267.656,216.518L268.379,215.504L269.102,220.335L269.824,218.398L270.547,219.652L271.27,219.474L271.992,223.689L272.715,218.714L273.438,220.95L274.16,221.067L274.883,219.159L275.605,221.939L276.328,219.991L277.051,222.311L277.773,222.707L278.496,222.233L279.219,224.642L279.941,223.783L280.664,224.837L281.387,223.83L282.109,227.89L282.832,224.637L283.555,225.283L284.277,226.904L285,226.821L285.723,229.003L286.445,226.386L287.168,228.324L287.891,226.799L288.613,226.291L289.336,227.494L290.059,226.728L290.781,229.598L291.504,229.092L292.227,233.206L292.949,229.624L293.672,225.891L294.395,233.571L295.117,229.388L295.84,231.324L296.563,232.215L297.285,233.45L298.008,232.877L298.73,230.704L299.453,233.012L300.176,233.139L300.898,234.659L301.621,238.36L302.344,232.012L303.066,237.197L303.789,231.546L304.512,237.546L305.234,235.416L305.957,233.268L306.68,234.7L307.402,234.389L308.125,235.085L308.848,236.007L309.57,233.575L310.293,236.318L311.016,239.16L311.738,238.681L312.461,236.682L313.184,231.1L313.906,231.047L314.629,236.579L315.352,236.589L316.074,234.444L316.797,236.516L317.52,236.484L318.242,238.857L318.965,237.557L319.688,233.053L320.41,235.425L321.133,236.51L321.855,234.092L322.578,235.981L323.301,236.921L324.023,236.175L324.746,236.852L325.469,235.537L326.191,234.253L326.914,234.712L327.637,230.05L328.359,235.253L329.082,236.271L329.805,235.006L330.527,230.69L331.25,230.743L331.973,236.261L332.695,233.692L333.418,232.112L334.141,232.05L334.863,231.528L335.586,231.012L336.309,230.166L337.031,228.128L337.754,230.002L338.477,227.949L339.199,228.261L339.922,227.214L340.645,229.932L341.367,227.825L342.09,220.379L342.813,225.612L343.535,225.062L344.258,229.296L344.98,225.196L345.703,217.937L346.426,218.678L347.148,222.513L347.871,220.22L348.594,221.462L349.316,222.595L350.039,219.124L350.762,220.048L351.484,221.844L352.207,218.327L352.93,221.242L353.652,216.219L354.375,216.326L355.098,215.597L355.82,213.783L356.543,214.598L357.266,215.434L357.988,211.523L358.711,212.861L359.434,211.928L360.156,209.379L360.879,206.688L361.602,207.987L362.324,207.755L363.047,203.768L363.77,204.374L364.492,207.758L365.215,204.246L365.938,201.665L366.66,199.864L367.383,195.021L368.105,198.669L368.828,197.086L369.551,193.748L370.273,193.709L370.996,195.64L371.719,197.444L372.441,194.03L373.164,189.734L373.887,189.142L374.609,190.73L375.332,187.363L376.055,183.836L376.777,185.029L377.5,187.313L378.223,187.612L378.945,177.115L379.668,181.325L380.391,183.767L381.113,178.188L381.836,177.585L382.559,176.905L383.281,173.201L384.004,173.541L384.727,176.71L385.449,170.035L386.172,168.786L386.895,171.41L387.617,168.215L388.34,167.226L389.063,168.007L389.785,166.061L390.508,165.551L391.23,165.344L391.953,161.654L392.676,156.983L393.398,161.3L394.121,158.912L394.844,157.873L395.566,156.676L396.289,156.604L397.012,156.692L397.734,154.767L398.457,152.158L399.18,151.787L399.902,148.586L400.625,146.477L401.348,148.195L402.07,146.669L402.793,146.894L403.516,142.598L404.238,141.28L404.961,141.118L405.684,140.388L406.406,142.643L407.129,136.584L407.852,138.294L408.574,134.517L409.297,132.016L410.02,131.883L410.742,131.064L411.465,128.824L412.188,129.412L412.91,129.708L413.633,124.826L414.355,125.533L415.078,124.7L415.801,123.36L416.523,122.07L417.246,118.081L417.969,119.373L418.691,117.82L419.414,119.675L420.137,117.944L420.859,119.011L421.582,115.325L422.305,115.416L423.027,113.201L423.75,111.618L424.473,110.032L425.195,109.647L425.918,106.682L426.641,109.004L427.363,107.434L428.086,106.407L428.809,109.25L429.531,103.499L430.254,102.796L430.977,104.507L431.699,99.974L432.422,99.674L433.145,96.161L433.867,98.918L434.59,97.893L435.313,93.277L436.035,97.115L436.758,93.592L437.48,92.675L438.203,93.408L438.926,93.373L439.648,89.973L440.371,87.704L441.094,90.01L441.816,87.573L442.539,88.997L443.262,87.097L443.984,86.874L444.707,84.153L445.43,83.588L446.152,82.723L446.875,83.705L447.598,79.536L448.32,79.185L449.043,82.889L449.766,81.383L450.488,79.557L451.211,76.475L451.934,78.364L452.656,76.662L453.379,75.548L454.102,72.898L454.824,74.655L455.547,73.143L456.27,70.7L456.992,71.827L457.715,69.661L458.438,71.144L459.16,69.057L459.883,71.048L460.605,68.161L461.328,67.731L462.051,66.839L462.773,66.102L463.496,67.734L464.219,65.424L464.941,64.05L465.664,65.287L466.387,65.543L467.109,65.216L467.832,63.682L468.555,60.807L469.277,61.92"/><path fill="none" stroke="rgb(255, 130, 29)" stroke-width="1.5" d="M100,96.879L100.723,128.369L101.445,130.456L102.168,133.962L102.891,135.623L103.613,136.037L104.336,137.77L105.059,145.098L105.781,143.046L106.504,145.034L107.227,142.376L107.949,147.706L108.672,148.123L109.395,150.588L110.117,148.546L110.84,152.876L111.563,152.875L112.285,155.088L113.008,152.346L113.73,158.648L114.453,157.039L115.176,159.166L115.898,161.773L116.621,160.195L117.344,164.328L118.066,164.273L118.789,161.845L119.512,165.983L120.234,164.334L120.957,166.166L121.68,164.101L122.402,165.837L123.125,168.507L123.848,167.766L124.57,166.928L125.293,166.46L126.016,167.158L126.738,168.06L127.461,169.863L128.184,168.536L128.906,167.286L129.629,168.189L130.352,168.848L131.074,167.119L131.797,167.247L132.52,171.557L133.242,173.096L133.965,168.895L134.688,168.327L135.41,170.412L136.133,172.338L136.855,169.661L137.578,168.309L138.301,172.741L139.023,172.191L139.746,170.823L140.469,172.944L141.191,172.892L141.914,171.123L142.637,172.789L143.359,173.591L144.082,171.919L144.805,171.28L145.527,172.689L146.25,171.925L146.973,175.108L147.695,175.566L148.418,173.89L149.141,176.673L149.863,176.831L150.586,174.543L151.309,174.128L152.031,174.804L152.754,177.02L153.477,175.766L154.199,175.76L154.922,177.106L155.645,176.31L156.367,177.274L157.09,179.588L157.813,179.767L158.535,178.84L159.258,179.114L159.98,178.394L160.703,180.983L161.426,182.799L162.148,181.478L162.871,181.999L163.594,183.645L164.316,180.637L165.039,181.476L165.762,183.523L166.484,184.793L167.207,184.445L167.93,182.341L168.652,186.317L169.375,182.641L170.098,182.771L170.82,183.488L171.543,185.746L172.266,184.091L172.988,185.583L173.711,185.034L174.434,187.503L175.156,185.826L175.879,185.416L176.602,187.166L177.324,190.293L178.047,191.511L178.77,189.197L179.492,191.661L180.215,191.687L180.938,193.842L181.66,194.945L182.383,190.642L183.105,192.329L183.828,195.221L184.551,192.269L185.273,191.411L185.996,193.917L186.719,192.229L187.441,193.359L188.164,195.269L188.887,196.49L189.609,196.681L190.332,195.042L191.055,199.246L191.777,203.122L192.5,193.959L193.223,198.726L193.945,197.454L194.668,199.502L195.391,199.349L196.113,199.099L196.836,200.737L197.559,200.85L198.281,200.871L199.004,202.007L199.727,201.247L200.449,201.893L201.172,207.296L201.895,203.296L202.617,201.069L203.34,207.067L204.063,206.395L204.785,207.674L205.508,207.63L206.23,208.35L206.953,206.59L207.676,208.296L208.398,207.821L209.121,204.635L209.844,210.104L210.566,211.899L211.289,208.104L212.012,213.035L212.734,209.132L213.457,210.106L214.18,213.614L214.902,213.551L215.625,211.941L216.348,216.31L217.07,219.062L217.793,217.311L218.516,217.04L219.238,216.941L219.961,217.22L220.684,216.563L221.406,220.623L222.129,218.059L222.852,215.426L223.574,220.257L224.297,217.223L225.02,218.904L225.742,220.951L226.465,221.695L227.188,218.799L227.91,224.629L228.633,222.297L229.355,221.146L230.078,223.94L230.801,222.035L231.523,220.58L232.246,225.619L232.969,224.53L233.691,226.771L234.414,228.479L235.137,228.166L235.859,227.944L236.582,228.071L237.305,228.404L238.027,226.698L238.75,229.645L239.473,232.16L240.195,229.78L240.918,233.334L241.641,231.679L242.363,232.246L243.086,233.888L243.809,231.28L244.531,232.381L245.254,233.058L245.977,237.5L246.699,234.792L247.422,237.534L248.145,236.364L248.867,237.386L249.59,236.404L250.313,236.317L251.035,237.403L251.758,238.626L252.48,240.101L253.203,239.158L253.926,242.634L254.648,240.403L255.371,239.126L256.094,239.462L256.816,239.456L257.539,239.705L258.262,242.739L258.984,241.951L259.707,242.86L260.43,240.241L261.152,242.421L261.875,245.926L262.598,244.354L263.32,242.388L264.043,247.174L264.766,246.931L265.488,249.998L266.211,245.582L266.934,245.299L267.656,252.124L268.379,247.411L269.102,247.609L269.824,246.147L270.547,252.55L271.27,247.226L271.992,251.643L272.715,248.834L273.438,247.227L274.16,250.634L274.883,252.936L275.605,251.664L276.328,252.318L277.051,248.132L277.773,253.119L278.496,254.865L279.219,252.398L279.941,253.555L280.664,257.326L281.387,254.114L282.109,254.758L282.832,256.405L283.555,255.167L284.277,255.341L285,250.798L285.723,259.661L286.445,259.95L287.168,254.53L287.891,254.477L288.613,258.143L289.336,259.058L290.059,260.247L290.781,256.911L291.504,252.628L292.227,256.666L292.949,260.169L293.672,259.54L294.395,256.028L295.117,259.352L295.84,257.852L296.563,259.961L297.285,261.074L298.008,258.414L298.73,260.288L299.453,258.773L300.176,257.212L300.898,255.303L301.621,258.468L302.344,259.137L303.066,260.708L303.789,262.495L304.512,257.282L305.234,260.504L305.957,260.26L306.68,262.069L307.402,259.789L308.125,262.88L308.848,263.162L309.57,259.271L310.293,258.049L311.016,257.574L311.738,253.831L312.461,255.103L313.184,257.68L313.906,254.89L314.629,256.387L315.352,257.349L316.074,253.951L316.797,258.914L317.52,255.274L318.242,257.549L318.965,258.991L319.688,252.24L320.41,255.971L321.133,258.114L321.855,252.19L322.578,253.324L323.301,252.425L324.023,253.775L324.746,251.813L325.469,255.874L326.191,254.829L326.914,257.758L327.637,249.499L328.359,248.843L329.082,252.965L329.805,250.178L330.527,253.7L331.25,248.739L331.973,244.241L332.695,245.371L333.418,245.007L334.141,243.285L334.863,241.61L335.586,245.096L336.309,241.135L337.031,239.777L337.754,241.193L338.477,242.096L339.199,239.056L339.922,241.867L340.645,237.571L341.367,237.695L342.09,239.16L342.813,234.979L343.535,241.651L344.258,240.828L344.98,232.984L345.703,234.545L346.426,235.562L347.148,228.572L347.871,232.554L348.594,232.336L349.316,231.435L350.039,227.407L350.762,229.543L351.484,225.098L352.207,224.569L352.93,221.054L353.652,226.13L354.375,220.286L355.098,224.066L355.82,218.552L356.543,219.616L357.266,213.606L357.988,211.864L358.711,217.899L359.434,211.894L360.156,213.295L360.879,211.233L361.602,208.228L362.324,208.951L363.047,213.095L363.77,210.623L364.492,205.964L365.215,201.302L365.938,204.5L366.66,204.859L367.383,199.285L368.105,198.85L368.828,197.737L369.551,200.432L370.273,196.707L370.996,194.089L371.719,196.126L372.441,189.812L373.164,190.273L373.887,187.275L374.609,188.865L375.332,190.366L376.055,185.377L376.777,184.347L377.5,182.353L378.223,179.497L378.945,181.512L379.668,180.119L380.391,177.083L381.113,175.86L381.836,175.661L382.559,170.747L383.281,172.977L384.004,170.189L384.727,167.975L385.449,167.467L386.172,168.216L386.895,164.769L387.617,164.231L388.34,159.863L389.063,162.398L389.785,157.819L390.508,158.422L391.23,157.884L391.953,159.107L392.676,155.88L393.398,154.49L394.121,149.447L394.844,149.629L395.566,147.006L396.289,145.652L397.012,143.628L397.734,147.9L398.457,145.489L399.18,140.639L399.902,142.523L400.625,140.15L401.348,138.37L402.07,141.283L402.793,133.529L403.516,135.966L404.238,130.723L404.961,130.777L405.684,129.165L406.406,131.385L407.129,127.947L407.852,127.74L408.574,122.3L409.297,123.847L410.02,123.626L410.742,120.374L411.465,124.539L412.188,117.623L412.91,121.999L413.633,115.479L414.355,117.265L415.078,111.38L415.801,115.574L416.523,111.352L417.246,111.114L417.969,110.127L418.691,112.022L419.414,105.783L420.137,106.952L420.859,105.167L421.582,106.105L422.305,105.446L423.027,101.572L423.75,100.166L424.473,99.937L425.195,96.932L425.918,97.395L426.641,95.455L427.363,97.735L428.086,92.151L428.809,94.324L429.531,90.045L430.254,90.57L430.977,90.164L431.699,87.418L432.422,90.197L433.145,86.888L433.867,86.642L434.59,83.473L435.313,83.032L436.035,81.916L436.758,82.156L437.48,83.601L438.203,79.389L438.926,79.96L439.648,75.173L440.371,79.527L441.094,78.492L441.816,75.15L442.539,77.282L443.262,72.735L443.984,74.176L444.707,73.227L445.43,72.503L446.152,73.059L446.875,68.816L447.598,68.087L448.32,65.918L449.043,69.536L449.766,68.692L450.488,66.626L451.211,65.577L451.934,63.708L452.656,63.79L453.379,64.384L454.102,61.785L454.824,63.393L455.547,56.904L456.27,60.479L456.992,59.717L457.715,60.27L458.438,57.13L459.16,57.151L459.883,56.366L460.605,55.221L461.328,53.236L462.051,52.217L462.773,54.027L463.496,52.21L464.219,50.901L464.941,51.084L465.664,49.27L466.387,49.486L467.109,48.696L467.832,49.978L468.555,49.512L469.277,47.256"/><path fill="none" stroke="rgb(203, 47, 13)" stroke-width="1.5" d="M100,98.14L100.723,126.173L101.445,130.637L102.168,131.616L102.891,133.223L103.613,135.089L104.336,138.077L105.059,140.561L105.781,139.276L106.504,141.272L107.227,144.364L107.949,147.636L108.672,146.068L109.395,151.695L110.117,150.982L110.84,149.314L111.563,150.435L112.285,152.945L113.008,157.776L113.73,155.977L114.453,157.9L115.176,156.012L115.898,159.062L116.621,162.625L117.344,161.19L118.066,161.029L118.789,163.58L119.512,165.352L120.234,164.308L120.957,163.441L121.68,161.887L122.402,165.31L123.125,163.709L123.848,164.357L124.57,163.368L125.293,168.609L126.016,162.963L126.738,167.1L127.461,165.276L128.184,166.886L128.906,167.769L129.629,165.051L130.352,165.774L131.074,165.281L131.797,166.38L132.52,163.969L133.242,167.373L133.965,169.233L134.688,168.536L135.41,170.572L136.133,168.768L136.855,165.347L137.578,170.467L138.301,170.242L139.023,170.386L139.746,166.489L140.469,171.849L141.191,173.561L141.914,168.479L142.637,170.118L143.359,171.983L144.082,172.398L144.805,173.601L145.527,172.648L146.25,172.504L146.973,173.704L147.695,176.952L148.418,177.266L149.141,177.374L149.863,176.137L150.586,176.425L151.309,180.806L152.031,179.11L152.754,177.974L153.477,179.485L154.199,178.743L154.922,178.334L155.645,177.094L156.367,177.048L157.09,179.774L157.813,181.042L158.535,181.297L159.258,179.045L159.98,181.795L160.703,182.347L161.426,181.729L162.148,181.445L162.871,185.879L163.594,182.549L164.316,181.159L165.039,183.52L165.762,187.09L166.484,187.844L167.207,188.56L167.93,188.569L168.652,188.269L169.375,189.63L170.098,187.251L170.82,190.355L171.543,190.877L172.266,192.557L172.988,193.208L173.711,190.952L174.434,194.67L175.156,194.725L175.879,193.038L176.602,195.73L177.324,196.701L178.047,197.392L178.77,199.164L179.492,198.412L180.215,198.673L180.938,200.744L181.66,198.731L182.383,201.486L183.105,200.664L183.828,201.659L184.551,204.991L185.273,204.738L185.996,204.665L186.719,204.176L187.441,204.825L188.164,204.54L188.887,205.025L189.609,206.818L190.332,207.994L191.055,209.373L191.777,210.192L192.5,213.237L193.223,206.409L193.945,210.688L194.668,210.018L195.391,215.051L196.113,213.133L196.836,214.069L197.559,214.317L198.281,216.955L199.004,216.477L199.727,219.765L200.449,218.276L201.172,220.52L201.895,221.655L202.617,222.424L203.34,222.526L204.063,224.441L204.785,225.399L205.508,221.6L206.23,229.621L206.953,228.944L207.676,227.694L208.398,226.525L209.121,228.679L209.844,229.058L210.566,231.579L211.289,231.759L212.012,232.672L212.734,236.361L213.457,232.295L214.18,234.082L214.902,235.296L215.625,236.791L216.348,235.973L217.07,238.765L217.793,237.826L218.516,241.226L219.238,240.078L219.961,242.498L220.684,241.8L221.406,243.094L222.129,249.016L222.852,247.147L223.574,244.941L224.297,250.379L225.02,246.469L225.742,245.994L226.465,249.984L227.188,252.251L227.91,254.036L228.633,253.365L229.355,253.99L230.078,257.236L230.801,260.609L231.523,260.224L232.246,257.174L232.969,262.278L233.691,265.564L234.414,263.14L235.137,262.032L235.859,263.09L236.582,265.245L237.305,270.105L238.027,270.162L238.75,267.357L239.473,273.319L240.195,270.275L240.918,272.672L241.641,273.06L242.363,273.45L243.086,273.408L243.809,270.953L244.531,276.888L245.254,275.389L245.977,277.401L246.699,280.684L247.422,277.678L248.145,281.705L248.867,282.44L249.59,281.219L250.313,283.521L251.035,287.13L251.758,292.095L252.48,288.279L253.203,289.243L253.926,291.194L254.648,290.941L255.371,293.606L256.094,295.349L256.816,292.942L257.539,299.073L258.262,297.352L258.984,297.089L259.707,294.029L260.43,299.339L261.152,304.836L261.875,298.257L262.598,307.089L263.32,302.441L264.043,299.492L264.766,305.483L265.488,305.344L266.211,306.411L266.934,308.483L267.656,310.505L268.379,307.953L269.102,309.166L269.824,315.959L270.547,310.96L271.27,314.11L271.992,314.432L272.715,315.417L273.438,316.668L274.16,319.318L274.883,316.798L275.605,320.262L276.328,316.222L277.051,321.257L277.773,326.83L278.496,322.543L279.219,320.2L279.941,325.75L280.664,320.966L281.387,325.84L282.109,328.915L282.832,330.511L283.555,324.284L284.277,330.223L285,328.842L285.723,322.776L286.445,329.719L287.168,331.122L287.891,329.756L288.613,331.9L289.336,331.849L290.059,328.759L290.781,337.768L291.504,338.607L292.227,334.909L292.949,332.483L293.672,335.094L294.395,333.18L295.117,341.678L295.84,338.328L296.563,337.876L297.285,339.399L298.008,339.134L298.73,339.615L299.453,341.204L300.176,341.71L300.898,342.218L301.621,344.847L302.344,341.585L303.066,343.385L303.789,344.834L304.512,343.743L305.234,343.247L305.957,343.341L306.68,346.498L307.402,343.14L308.125,345.724L308.848,345.073L309.57,346.408L310.293,350L311.016,343.179L311.738,342.095L312.461,349.327L313.184,347.026L313.906,347.404L314.629,347.032L315.352,344.825L316.074,344.707L316.797,348.717L317.52,341.221L318.242,341.671L318.965,340.978L319.688,348.877L320.41,342.464L321.133,339.385L321.855,341.155L322.578,347.996L323.301,343.001L324.023,342.986L324.746,344.531L325.469,345.864L326.191,346.967L326.914,339.99L327.637,337.862L328.359,338.872L329.082,341.432L329.805,344.999L330.527,340.732L331.25,344.705L331.973,338.299L332.695,336.464L333.418,338.903L334.141,338.638L334.863,331.219L335.586,331.232L336.309,334.046L337.031,330.263L337.754,330.135L338.477,334.336L339.199,334.714L339.922,329.614L340.645,325.632L341.367,333.368L342.09,326.862L342.813,324.33L343.535,327.538L344.258,326.297L344.98,318.981L345.703,322.345L346.426,321.965L347.148,319.436L347.871,316.023L348.594,319.388L349.316,321.831L350.039,311.571L350.762,314.723L351.484,315.24L352.207,314.835L352.93,306.049L353.652,309.895L354.375,308.071L355.098,303.923L355.82,306.006L356.543,307.025L357.266,301.354L357.988,303.377L358.711,304.841L359.434,298.559L360.156,299.428L360.879,295.493L361.602,292.839L362.324,294.13L363.047,291.177L363.77,291.821L364.492,293.261L365.215,292.654L365.938,290.347L366.66,285.496L367.383,288.787L368.105,281.328L368.828,284.827L369.551,274.013L370.273,273.622L370.996,274.391L371.719,271.97L372.441,274.862L373.164,273.001L373.887,267.207L374.609,266.094L375.332,264.217L376.055,261.298L376.777,263.353L377.5,260.315L378.223,258.945L378.945,254.225L379.668,255.078L380.391,250.782L381.113,250.269L381.836,248.605L382.559,250.087L383.281,244.383L384.004,242.182L384.727,243.961L385.449,240.461L386.172,237.546L386.895,240.829L387.617,235.612L388.34,235.858L389.063,229.535L389.785,232.472L390.508,233.586L391.23,225.58L391.953,226.727L392.676,222.385L393.398,221.882L394.121,224.522L394.844,221.314L395.566,219.329L396.289,213.11L397.012,212.328L397.734,211.759L398.457,210.609L399.18,209.586L399.902,204.261L400.625,204.753L401.348,205.752L402.07,203.432L402.793,201.467L403.516,197.988L404.238,191.239L404.961,195.626L405.684,195.361L406.406,192.796L407.129,190.02L407.852,188.814L408.574,188.2L409.297,185.752L410.02,185.245L410.742,185.089L411.465,179.934L412.188,178.756L412.91,181.308L413.633,173.084L414.355,178.261L415.078,173.89L415.801,171.37L416.523,175.027L417.246,171.02L417.969,166.935L418.691,165.059L419.414,162.084L420.137,162.156L420.859,160.038L421.582,159.64L422.305,157.377L423.027,160.274L423.75,157.137L424.473,157.92L425.195,150.354L425.918,150.453L426.641,149.914L427.363,141.448L428.086,149.74L428.809,146.417L429.531,143.247L430.254,140.327L430.977,138.085L431.699,137.79L432.422,141.137L433.145,135.003L433.867,139.058L434.59,130.973L435.313,133.822L436.035,131.601L436.758,129.69L437.48,127.421L438.203,130.733L438.926,126.982L439.648,125.022L440.371,126.721L441.094,123.614L441.816,123.078L442.539,125.853L443.262,118.569L443.984,116.424L444.707,120.247L445.43,118.944L446.152,119.649L446.875,111.056L447.598,109.679L448.32,108.232L449.043,110.138L449.766,107.239L450.488,107.256L451.211,105.889L451.934,104.79L452.656,100.604L453.379,105.497L454.102,102.879L454.824,103.063L455.547,98.456L456.27,98.112L456.992,101.844L457.715,98.338L458.438,94.227L459.16,95.248L459.883,94.721L460.605,94.441L461.328,94.472L462.051,91.518L462.773,94.205L463.496,87.148L464.219,89.318L464.941,88.182L465.664,86.639L466.387,84.074L467.109,81.923L467.832,84.356L468.555,80.707L469.277,81.482"/><g transform="translate(0,190) scale(1.7) rotate(-90)"><text>Drift</text></g><g transform="translate(315,395) scale(1.8)"><text></text></g><g transform="translate(0,350)" fill="none" font-size="10" font-family="sans-serif" text-anchor="middle"><path class="domain" stroke="currentColor" d="M100,6V0H470V6"/><g class="tick" opacity="1" transform="translate(136.66666666666666,0)"><line stroke="currentColor" y2="6"/><text fill="currentColor" y="9" dy="0.71em" font-size="20px"> </text></g><g class="tick" opacity="1" transform="translate(173.7037037037037,0)"><line stroke="currentColor" y2="6"/><text fill="currentColor" y="9" dy="0.71em" font-size="20px">200</text></g><g class="tick" opacity="1" transform="translate(210.74074074074076,0)"><line stroke="currentColor" y2="6"/><text fill="currentColor" y="9" dy="0.71em" font-size="20px"> </text></g><g class="tick" opacity="1" transform="translate(247.77777777777777,0)"><line stroke="currentColor" y2="6"/><text fill="currentColor" y="9" dy="0.71em" font-size="20px">400</text></g><g class="tick" opacity="1" transform="translate(284.81481481481484,0)"><line stroke="currentColor" y2="6"/><text fill="currentColor" y="9" dy="0.71em" font-size="20px"> </text></g><g class="tick" opacity="1" transform="translate(321.85185185185185,0)"><line stroke="currentColor" y2="6"/><text fill="currentColor" y="9" dy="0.71em" font-size="20px">600</text></g><g class="tick" opacity="1" transform="translate(358.8888888888889,0)"><line stroke="currentColor" y2="6"/><text fill="currentColor" y="9" dy="0.71em" font-size="20px"> </text></g><g class="tick" opacity="1" transform="translate(395.9259259259259,0)"><line stroke="currentColor" y2="6"/><text fill="currentColor" y="9" dy="0.71em" font-size="20px">800</text></g><g class="tick" opacity="1" transform="translate(432.96296296296293,0)"><line stroke="currentColor" y2="6"/><text fill="currentColor" y="9" dy="0.71em" font-size="20px"> </text></g><g class="tick" opacity="1" transform="translate(470,0)"><line stroke="currentColor" y2="6"/><text fill="currentColor" y="9" dy="0.71em" font-size="20px">1000</text></g></g><g transform="translate(100,0)" fill="none" font-size="10" font-family="sans-serif" text-anchor="end"><path class="domain" stroke="currentColor" d="M-6,350H0V20H-6"/><g class="tick" opacity="1" transform="translate(0,321.07188164422575)"><line stroke="currentColor" x2="-6"/><text fill="currentColor" x="-9" dy="0.32em" font-size="20px">0.0220</text></g><g class="tick" opacity="1" transform="translate(0,287.30779012622963)"><line stroke="currentColor" x2="-6"/><text fill="currentColor" x="-9" dy="0.32em" font-size="20px">0.0215</text></g><g class="tick" opacity="1" transform="translate(0,253.54369860823368)"><line stroke="currentColor" x2="-6"/><text fill="currentColor" x="-9" dy="0.32em" font-size="20px">0.0210</text></g><g class="tick" opacity="1" transform="translate(0,219.7796070902376)"><line stroke="currentColor" x2="-6"/><text fill="currentColor" x="-9" dy="0.32em" font-size="20px">0.0205</text></g><g class="tick" opacity="1" transform="translate(0,186.01551557224144)"><line stroke="currentColor" x2="-6"/><text fill="currentColor" x="-9" dy="0.32em" font-size="20px">0.0200</text></g><g class="tick" opacity="1" transform="translate(0,152.2514240542453)"><line stroke="currentColor" x2="-6"/><text fill="currentColor" x="-9" dy="0.32em" font-size="20px">0.0195</text></g><g class="tick" opacity="1" transform="translate(0,118.48733253624917)"><line stroke="currentColor" x2="-6"/><text fill="currentColor" x="-9" dy="0.32em" font-size="20px">0.0190</text></g><g class="tick" opacity="1" transform="translate(0,84.72324101825299)"><line stroke="currentColor" x2="-6"/><text fill="currentColor" x="-9" dy="0.32em" font-size="20px">0.0185</text></g><g class="tick" opacity="1" transform="translate(0,50.95914950025687)"><line stroke="currentColor" x2="-6"/><text fill="currentColor" x="-9" dy="0.32em" font-size="20px">0.0180</text></g></g><circle cx="235" cy="-25" r="8" style="fill: rgb(35, 23, 27);"/><circle cx="235" cy="0" r="8" style="fill: rgb(69, 105, 238);"/><circle cx="235" cy="25" r="8" style="fill: rgb(38, 188, 225);"/><circle cx="235" cy="50" r="8" style="fill: rgb(63, 243, 147);"/><circle cx="355" cy="-25" r="8" style="fill: rgb(149, 251, 81);"/><circle cx="355" cy="0" r="8" style="fill: rgb(236, 209, 46);"/><circle cx="355" cy="25" r="8" style="fill: rgb(255, 130, 29);"/><circle cx="355" cy="50" r="8" style="fill: rgb(203, 47, 13);"/><text x="250" y="-25" text-anchor="left" font-size="22" alignment-baseline="middle" style="fill: rgb(35, 23, 27);"> = 0</text><text x="250" y="0" text-anchor="left" font-size="22" alignment-baseline="middle" style="fill: rgb(69, 105, 238);"> = 0.22</text><text x="250" y="25" text-anchor="left" font-size="22" alignment-baseline="middle" style="fill: rgb(38, 188, 225);"> = 0.45</text><text x="250" y="50" text-anchor="left" font-size="22" alignment-baseline="middle" style="fill: rgb(63, 243, 147);"> = 0.67</text><text x="375" y="-25" text-anchor="left" font-size="22" alignment-baseline="middle" style="fill: rgb(149, 251, 81);"> = 0.9</text><text x="375" y="0" text-anchor="left" font-size="22" alignment-baseline="middle" style="fill: rgb(236, 209, 46);"> = 1.12</text><text x="375" y="25" text-anchor="left" font-size="22" alignment-baseline="middle" style="fill: rgb(255, 130, 29);"> = 1.35</text><text x="375" y="50" text-anchor="left" font-size="22" alignment-baseline="middle" style="fill: rgb(203, 47, 13);"> = 1.57</text></svg>