<svg xmlns="http://www.w3.org/2000/svg" class="bg-white" width="500" height="400" viewBox="-40.36999999999998 -54.01000000000002 605.0000000000001 484.00000000000006"><path fill="none" stroke="rgb(35, 23, 27)" stroke-width="1.5" d="M100,303.524L100.723,300.964L101.445,299.981L102.168,299.585L102.891,299.366L103.613,299.429L104.336,299.33L105.059,299.405L105.781,299.036L106.504,299.052L107.227,298.981L107.949,299.106L108.672,299.052L109.395,298.515L110.117,298.286L110.84,297.873L111.563,297.753L112.285,297.153L113.008,296.043L113.73,295.392L114.453,294.53L115.176,293.491L115.898,292.48L116.621,291.27L117.344,290.125L118.066,288.811L118.789,287.54L119.512,285.812L120.234,284.405L120.957,282.103L121.68,280.276L122.402,277.834L123.125,275.2L123.848,272.409L124.57,269.504L125.293,274.766L126.016,276.604L126.738,278.307L127.461,279.561L128.184,282.205L128.906,283.94L129.629,285.182L130.352,286.623L131.074,288.421L131.797,290.123L132.52,291.982L133.242,293.829L133.965,295.024L134.688,296.667L135.41,298.515L136.133,300.188L136.855,301.969L137.578,303.194L138.301,304.11L139.023,305.488L139.746,307.31L140.469,308.814L141.191,310.223L141.914,311.22L142.637,312.445L143.359,314.439L144.082,315.594L144.805,316.397L145.527,318.436L146.25,319.528L146.973,320.827L147.695,321.409L148.418,322.451L149.141,324.287L149.863,325.961L150.586,326.595L151.309,327.568L152.031,328.237L152.754,329.681L153.477,330.037L154.199,332.007L154.922,332.119L155.645,333.331L156.367,334.232L157.09,335.104L157.813,335.386L158.535,336.791L159.258,336.849L159.98,338.009L160.703,339.473L161.426,339.709L162.148,340.334L162.871,341.096L163.594,341.013L164.316,341.9L165.039,342.6L165.762,343.832L166.484,344.187L167.207,344.763L167.93,344.999L168.652,345.513L169.375,345.64L170.098,346.085L170.82,346.321L171.543,346.666L172.266,347.428L172.988,347.644L173.711,348.192L174.434,347.889L175.156,348.158L175.879,348.413L176.602,348.414L177.324,348.552L178.047,348.875L178.77,349.654L179.492,349.774L180.215,349.213L180.938,349.241L181.66,349.976L182.383,349.378L183.105,349.657L183.828,350L184.551,349.905L185.273,349.784L185.996,349.665L186.719,349.372L187.441,348.974L188.164,348.677L188.887,348.604L189.609,348.426L190.332,348.46L191.055,348.282L191.777,348.302L192.5,347.754L193.223,347.419L193.945,347.045L194.668,346.617L195.391,346.238L196.113,345.867L196.836,345.564L197.559,344.939L198.281,344.351L199.004,343.562L199.727,343.879L200.449,343.432L201.172,342.6L201.895,342.086L202.617,341.8L203.34,340.586L204.063,340.705L204.785,340.088L205.508,339.545L206.23,338.91L206.953,338.293L207.676,336.92L208.398,337.003L209.121,336.116L209.844,335.369L210.566,334.845L211.289,334.249L212.012,332.52L212.734,332.477L213.457,330.975L214.18,331.213L214.902,330.103L215.625,329.354L216.348,328.511L217.07,327.396L217.793,326.537L218.516,325.628L219.238,324.666L219.961,323.68L220.684,322.577L221.406,320.887L222.129,320.687L222.852,319.699L223.574,318.58L224.297,317.445L225.02,316.438L225.742,314.918L226.465,314.328L227.188,313.237L227.91,312.141L228.633,311.061L229.355,309.89L230.078,308.728L230.801,307.643L231.523,306.246L232.246,305.052L232.969,304.517L233.691,302.626L234.414,301.681L235.137,300.629L235.859,299.468L236.582,298.462L237.305,296.336L238.027,295.155L238.75,294.416L239.473,293.073L240.195,292.365L240.918,291.081L241.641,289.85L242.363,288.13L243.086,287.043L243.809,285.723L244.531,284.932L245.254,283.02L245.977,282.222L246.699,280.602L247.422,279.239L248.145,277.953L248.867,277.122L249.59,276.445L250.313,274.698L251.035,273.368L251.758,271.727L252.48,271.225L253.203,269.732L253.926,268.668L254.648,266.355L255.371,265.433L256.094,264.27L256.816,262.91L257.539,261.622L258.262,260.9L258.984,258.61L259.707,257.367L260.43,256.561L261.152,254.78L261.875,253.779L262.598,252.572L263.32,250.973L264.043,249.966L264.766,248.609L265.488,246.354L266.211,245.415L266.934,244.716L267.656,242.418L268.379,242.119L269.102,239.94L269.824,239.189L270.547,237.92L271.27,236.019L271.992,235.272L272.715,233.808L273.438,232.483L274.16,230.811L274.883,230.261L275.605,229.018L276.328,227.505L277.051,226.107L277.773,224.956L278.496,223.694L279.219,221.949L279.941,220.365L280.664,219.557L281.387,218.194L282.109,216.279L282.832,216.43L283.555,214.617L284.277,213.491L285,213.255L285.723,214.85L286.445,216.486L287.168,217.758L287.891,219.447L288.613,221.292L289.336,222.259L290.059,223.937L290.781,226.499L291.504,227.798L292.227,228.715L292.949,231.344L293.672,232.479L294.395,234.187L295.117,235.521L295.84,237.193L296.563,239.352L297.285,241.051L298.008,239.483L298.73,239.523L299.453,238.297L300.176,237.572L300.898,236.57L301.621,236.065L302.344,235.035L303.066,234.252L303.789,233.565L304.512,233.16L305.234,231.596L305.957,231.058L306.68,230.507L307.402,229.622L308.125,228.729L308.848,228.721L309.57,227.097L310.293,226.51L311.016,225.267L311.738,225.483L312.461,224.131L313.184,223.306L313.906,222.587L314.629,221.326L315.352,221.254L316.074,219.757L316.797,219.533L317.52,218.411L318.242,217.53L318.965,217.224L319.688,215.887L320.41,215.338L321.133,214.534L321.855,214.502L322.578,213.073L323.301,212.028L324.023,212.113L324.746,210.447L325.469,209.697L326.191,209.248L326.914,208.755L327.637,207.38L328.359,206.614L329.082,206.471L329.805,205.426L330.527,203.968L331.25,204.161L331.973,202.636L332.695,202.326L333.418,201.278L334.141,200.822L334.863,199.514L335.586,199.224L336.309,198.854L337.031,197.403L337.754,196.493L338.477,196.105L339.199,195.364L339.922,194.542L340.645,194.075L341.367,193.127L342.09,192.102L342.813,191.485L343.535,190.723L344.258,189.923L344.98,189.186L345.703,188.586L346.426,187.797L347.148,186.654L347.871,185.83L348.594,185.265L349.316,184.437L350.039,183.938L350.762,183.267L351.484,181.864L352.207,181.804L352.93,181.187L353.652,180.422L354.375,179.565L355.098,178.256L355.82,177.848L356.543,177.775L357.266,176.721L357.988,175.992L358.711,174.873L359.434,174.149L360.156,173.796L360.879,173.07L361.602,172.143L362.324,171.694L363.047,170.898L363.77,170.536L364.492,169.669L365.215,168.866L365.938,168.059L366.66,167.135L367.383,166.536L368.105,166.012L368.828,165.141L369.551,164.65L370.273,163.852L370.996,162.974L371.719,162.775L372.441,162.122L373.164,160.744L373.887,160.705L374.609,159.399L375.332,159.323L376.055,158.406L376.777,157.746L377.5,156.974L378.223,156.608L378.945,155.466L379.668,155.368L380.391,153.72L381.113,153.606L381.836,152.964L382.559,152.424L383.281,151.437L384.004,151.389L384.727,150.071L385.449,149.064L386.172,149.073L386.895,148.345L387.617,147.754L388.34,147.167L389.063,146.3L389.785,146.112L390.508,145.425L391.23,144.739L391.953,143.198L392.676,143.291L393.398,141.955L394.121,142.273L394.844,141.583L395.566,140.974L396.289,139.478L397.012,139.574L397.734,139.525L398.457,138.275L399.18,137.338L399.902,136.831L400.625,136.591L401.348,135.94L402.07,135.167L402.793,134.869L403.516,133.596L404.238,133.613L404.961,132.526L405.684,132.4L406.406,130.981L407.129,131.126L407.852,130.601L408.574,129.726L409.297,129.064L410.02,128.882L410.742,128.002L411.465,127.76L412.188,126.576L412.91,125.974L413.633,126.021L414.355,125.174L415.078,124.239L415.801,123.877L416.523,123.397L417.246,122.554L417.969,122.301L418.691,121.553L419.414,121.13L420.137,120.739L420.859,120.2L421.582,119.17L422.305,119.29L423.027,118.54L423.75,118.544L424.473,117.601L425.195,116.674L425.918,116.749L426.641,115.994L427.363,115.109L428.086,114.586L428.809,114.516L429.531,113.329L430.254,113.454L430.977,112.856L431.699,111.937L432.422,111.912L433.145,110.725L433.867,110.21L434.59,110.495L435.313,109.96L436.035,109.294L436.758,108.504L437.48,107.971L438.203,107.486L438.926,107.218L439.648,106.981L440.371,106.212L441.094,105.948L441.816,105.276L442.539,104.813L443.262,104.606L443.984,103.98L444.707,103.212L445.43,102.853L446.152,102.434L446.875,101.446L447.598,101.182L448.32,101.036L449.043,100.408L449.766,99.908L450.488,99.165L451.211,99.485L451.934,98.894L452.656,97.69L453.379,97.738L454.102,96.77L454.824,96.31L455.547,96.468L456.27,95.976L456.992,95.458L457.715,94.986L458.438,94.531L459.16,94.192L459.883,93.876L460.605,93.348L461.328,92.551L462.051,92.278L462.773,91.642L463.496,91.613L464.219,91.023L464.941,90.755L465.664,90.15L466.387,89.912L467.109,89.403L467.832,88.757L468.555,88.642L469.277,88.262"/><path fill="none" stroke="rgb(69, 105, 238)" stroke-width="1.5" d="M100,299.944L100.723,296.648L101.445,295.812L102.168,295.147L102.891,294.194L103.613,293.821L104.336,293.715L105.059,293.449L105.781,292.732L106.504,292.829L107.227,292.737L107.949,292.416L108.672,291.981L109.395,291.643L110.117,291.003L110.84,289.899L111.563,288.982L112.285,288.151L113.008,287.858L113.73,286.828L114.453,284.96L115.176,283.743L115.898,282.621L116.621,281.6L117.344,279.425L118.066,277.98L118.789,276.786L119.512,274.013L120.234,272.336L120.957,270.628L121.68,267.656L122.402,265.921L123.125,263.35L123.848,262.522L124.57,269.261L125.293,270.428L126.016,271.974L126.738,274.178L127.461,275.837L128.184,277.434L128.906,278.827L129.629,279.742L130.352,281.614L131.074,282.957L131.797,284.075L132.52,285.747L133.242,286.281L133.965,288.552L134.688,288.916L135.41,290.884L136.133,292.068L136.855,293.394L137.578,294.277L138.301,295.622L139.023,296.126L139.746,297.55L140.469,298.665L141.191,299.964L141.914,301.082L142.637,301.394L143.359,302.898L144.082,303.532L144.805,304.815L145.527,305.259L146.25,306.459L146.973,307.73L147.695,308.163L148.418,309.014L149.141,309.452L149.863,310.383L150.586,311.14L151.309,311.1L152.031,312.617L152.754,313.209L153.477,313.407L154.199,314.455L154.922,314.775L155.645,315.399L156.367,316.067L157.09,316.546L157.813,316.979L158.535,317.145L159.258,317.238L159.98,318.431L160.703,319.096L161.426,319.378L162.148,318.938L162.871,319.318L163.594,319.911L164.316,319.732L165.039,320.07L165.762,320.356L166.484,319.931L167.207,320.525L167.93,320.783L168.652,320.857L169.375,321.243L170.098,321.451L170.82,321.179L171.543,321.859L172.266,321.036L172.988,320.76L173.711,321.72L174.434,321.618L175.156,320.768L175.879,320.834L176.602,320.784L177.324,320.189L178.047,319.501L178.77,320.05L179.492,319.544L180.215,319.503L180.938,319.325L181.66,318.618L182.383,318.446L183.105,318.308L183.828,317.954L184.551,317.556L185.273,316.74L185.996,316.503L186.719,317.051L187.441,315.592L188.164,315.629L188.887,314.706L189.609,313.759L190.332,313.842L191.055,313.767L191.777,312.936L192.5,311.984L193.223,311.467L193.945,311.162L194.668,311.091L195.391,309.774L196.113,309.091L196.836,308.864L197.559,308.501L198.281,307.028L199.004,307.011L199.727,305.417L200.449,305.006L201.172,303.63L201.895,303.026L202.617,302.961L203.34,301.637L204.063,301.458L204.785,300.021L205.508,298.76L206.23,298.286L206.953,298.031L207.676,296.535L208.398,295.9L209.121,293.605L209.844,293.529L210.566,292.51L211.289,291.424L212.012,290.215L212.734,289.724L213.457,288.316L214.18,287.607L214.902,286.157L215.625,285.075L216.348,284.156L217.07,282.823L217.793,281.036L218.516,281.069L219.238,280.037L219.961,278.422L220.684,277.232L221.406,276.791L222.129,274.829L222.852,273.866L223.574,272.552L224.297,272.596L225.02,270.326L225.742,269.737L226.465,267.227L227.188,267.447L227.91,265.247L228.633,264.087L229.355,262.737L230.078,261.889L230.801,260.422L231.523,259.472L232.246,258.37L232.969,256.737L233.691,255.76L234.414,254.268L235.137,252.763L235.859,252.239L236.582,250.7L237.305,248.48L238.027,247.699L238.75,246.438L239.473,245.097L240.195,243.779L240.918,242.614L241.641,241.606L242.363,240.373L243.086,238.494L243.809,237.249L244.531,235.845L245.254,235.042L245.977,233.474L246.699,232.362L247.422,231L248.145,229.071L248.867,227.939L249.59,226.553L250.313,225.135L251.035,224.442L251.758,222.594L252.48,221.99L253.203,220.201L253.926,218.582L254.648,217.627L255.371,215.74L256.094,215.423L256.816,213.253L257.539,212.89L258.262,210.497L258.984,209.256L259.707,208.705L260.43,206.891L261.152,205.69L261.875,203.828L262.598,202.426L263.32,201.648L264.043,200.605L264.766,198.811L265.488,197.708L266.211,196.073L266.934,195.171L267.656,193.496L268.379,192.149L269.102,191.147L269.824,189.731L270.547,188.107L271.27,186.79L271.992,185.731L272.715,184.231L273.438,183.532L274.16,181.797L274.883,180.569L275.605,179.138L276.328,178.224L277.051,177.036L277.773,175.704L278.496,174.245L279.219,173.861L279.941,172.04L280.664,170.599L281.387,169.072L282.109,170.058L282.832,171.813L283.555,173.457L284.277,175.217L285,176.508L285.723,178.887L286.445,179.759L287.168,181.096L287.891,182.873L288.613,184.549L289.336,186.269L290.059,187.983L290.781,189.76L291.504,190.682L292.227,192.343L292.949,194.552L293.672,195.988L294.395,197.44L295.117,196.728L295.84,195.539L296.563,195.188L297.285,194.32L298.008,194.068L298.73,192.998L299.453,192.47L300.176,191.004L300.898,191.021L301.621,190.485L302.344,189.466L303.066,188.164L303.789,188.021L304.512,187.081L305.234,186.581L305.957,185.62L306.68,185.16L307.402,184.982L308.125,183.662L308.848,183.023L309.57,182.246L310.293,181.522L311.016,180.945L311.738,180.347L312.461,179.557L313.184,178.584L313.906,177.916L314.629,177.194L315.352,176.895L316.074,176.01L316.797,175.251L317.52,174.35L318.242,173.708L318.965,173.425L319.688,173.038L320.41,171.83L321.133,170.99L321.855,170.446L322.578,169.442L323.301,169.506L324.023,168.382L324.746,167.61L325.469,166.962L326.191,166.323L326.914,165.422L327.637,164.912L328.359,164.237L329.082,163.499L329.805,162.871L330.527,162.072L331.25,161.987L331.973,161.018L332.695,160.259L333.418,159.408L334.141,158.93L334.863,158.144L335.586,157.792L336.309,156.922L337.031,156.821L337.754,155.594L338.477,155.19L339.199,154.492L339.922,153.862L340.645,153.054L341.367,152.891L342.09,152.282L342.813,151.224L343.535,150.758L344.258,149.989L344.98,149.417L345.703,148.791L346.426,148.797L347.148,147.615L347.871,147.038L348.594,146.347L349.316,145.742L350.039,144.997L350.762,144.546L351.484,144.368L352.207,143.072L352.93,142.701L353.652,142.148L354.375,141.393L355.098,141.186L355.82,140.516L356.543,139.928L357.266,139.192L357.988,138.828L358.711,138.272L359.434,137.618L360.156,137.055L360.879,136.309L361.602,135.561L362.324,135.526L363.047,134.464L363.77,134.076L364.492,133.686L365.215,132.793L365.938,132.477L366.66,131.875L367.383,131.154L368.105,131.059L368.828,129.904L369.551,129.579L370.273,129.166L370.996,128.475L371.719,127.653L372.441,127.874L373.164,127.287L373.887,126.632L374.609,126.05L375.332,125.321L376.055,124.939L376.777,124.429L377.5,123.755L378.223,123.181L378.945,122.867L379.668,121.815L380.391,121.797L381.113,121.045L381.836,120.274L382.559,120.391L383.281,119.788L384.004,119.118L384.727,118.84L385.449,118.106L386.172,117.899L386.895,117.491L387.617,116.984L388.34,116.367L389.063,115.924L389.785,115.275L390.508,114.896L391.23,114.014L391.953,113.839L392.676,113.474L393.398,112.995L394.121,112.326L394.844,111.611L395.566,111.684L396.289,110.869L397.012,110.628L397.734,110.27L398.457,109.797L399.18,109.26L399.902,108.827L400.625,107.655L401.348,107.84L402.07,107.207L402.793,107.031L403.516,106.436L404.238,105.793L404.961,105.521L405.684,104.926L406.406,104.283L407.129,104.18L407.852,103.67L408.574,103.56L409.297,102.765L410.02,102.349L410.742,102.049L411.465,101.544L412.188,100.984L412.91,100.886L413.633,100.131L414.355,99.798L415.078,99.69L415.801,98.776L416.523,98.805L417.246,98.334L417.969,98L418.691,97.309L419.414,96.87L420.137,96.455L420.859,95.924L421.582,95.802L422.305,95.279L423.027,95.107L423.75,94.555L424.473,94.178L425.195,93.048L425.918,93.063L426.641,93.058L427.363,92.644L428.086,91.917L428.809,91.765L429.531,91.124L430.254,90.88L430.977,90.807L431.699,90.116L432.422,89.829L433.145,89.51L433.867,89.17L434.59,88.78L435.313,88.07L436.035,88.034L436.758,87.514L437.48,87.11L438.203,86.796L438.926,86.391L439.648,86.207L440.371,85.474L441.094,85.386L441.816,85.085L442.539,84.772L443.262,84.223L443.984,83.888L444.707,83.491L445.43,83.362L446.152,83.019L446.875,82.617L447.598,81.895L448.32,81.861L449.043,81.494L449.766,81.014L450.488,80.848L451.211,80.456L451.934,80.121L452.656,79.775L453.379,79.57L454.102,78.688L454.824,78.933L455.547,78.012L456.27,77.892L456.992,77.739L457.715,77.327L458.438,77.075L459.16,76.951L459.883,75.922L460.605,75.794L461.328,75.475L462.051,75.649L462.773,75.158L463.496,74.963L464.219,74.411L464.941,74.377L465.664,73.704L466.387,73.417L467.109,73.208L467.832,72.709L468.555,72.642L469.277,72.182"/><path fill="none" stroke="rgb(38, 188, 225)" stroke-width="1.5" d="M100,288.164L100.723,286.232L101.445,284.32L102.168,281.967L102.891,281.308L103.613,280.649L104.336,279.272L105.059,278.006L105.781,276.587L106.504,275.714L107.227,274.482L107.949,273.311L108.672,272.111L109.395,270.894L110.117,269.292L110.84,268.551L111.563,265.93L112.285,265.086L113.008,263.905L113.73,262.099L114.453,259.782L115.176,257.878L115.898,255.809L116.621,253.412L117.344,251.538L118.066,249.022L118.789,246.424L119.512,243.942L120.234,241.498L120.957,238.897L121.68,247.676L122.402,253.769L123.125,255.227L123.848,256.82L124.57,257.984L125.293,259.08L126.016,260.573L126.738,261.719L127.461,262.482L128.184,263.782L128.906,264.493L129.629,265.611L130.352,266.18L131.074,267.018L131.797,267.603L132.52,267.971L133.242,268.745L133.965,269.286L134.688,269.703L135.41,269.642L136.133,270.35L136.855,270.978L137.578,271.253L138.301,271.609L139.023,271.871L139.746,271.834L140.469,272.419L141.191,272.518L141.914,273.183L142.637,273.011L143.359,273.115L144.082,273.21L144.805,273.413L145.527,273.373L146.25,272.925L146.973,273.014L147.695,273.029L148.418,273.299L149.141,273.319L149.863,272.639L150.586,272.674L151.309,272.475L152.031,272.348L152.754,271.942L153.477,271.775L154.199,272.132L154.922,271.381L155.645,271.186L156.367,270.711L157.09,270.555L157.813,270.132L158.535,270.127L159.258,269.166L159.98,269.396L160.703,268.096L161.426,267.583L162.148,267.656L162.871,266.947L163.594,266.553L164.316,265.756L165.039,264.848L165.762,264.217L166.484,263.995L167.207,263.601L167.93,262.388L168.652,262.22L169.375,261.068L170.098,260.922L170.82,259.949L171.543,259.443L172.266,258.581L172.988,257.545L173.711,256.638L174.434,255.414L175.156,255.047L175.879,254.603L176.602,252.975L177.324,252.832L178.047,251.645L178.77,250.975L179.492,249.625L180.215,248.937L180.938,247.58L181.66,246.958L182.383,246.039L183.105,245.039L183.828,244.04L184.551,242.783L185.273,241.933L185.996,241.043L186.719,240.457L187.441,238.573L188.164,237.737L188.887,237.133L189.609,235.736L190.332,234.305L191.055,233.676L191.777,232.473L192.5,230.599L193.223,230.143L193.945,229.046L194.668,227.928L195.391,226.978L196.113,225.198L196.836,224.539L197.559,222.794L198.281,221.804L199.004,221.021L199.727,220.025L200.449,218.493L201.172,217.057L201.895,216.117L202.617,214.77L203.34,214.044L204.063,212.486L204.785,211.573L205.508,210.267L206.23,208.816L206.953,207.768L207.676,206.193L208.398,204.93L209.121,203.714L209.844,202.495L210.566,201.408L211.289,200.285L212.012,199.039L212.734,197.454L213.457,196.623L214.18,195.184L214.902,194.019L215.625,193.054L216.348,191.279L217.07,190.069L217.793,188.949L218.516,187.739L219.238,186.533L219.961,185.451L220.684,183.986L221.406,182.82L222.129,181.704L222.852,180.647L223.574,178.949L224.297,178.129L225.02,176.556L225.742,175.171L226.465,173.915L227.188,172.926L227.91,171.452L228.633,170.276L229.355,169.025L230.078,167.981L230.801,166.596L231.523,165.812L232.246,164.105L232.969,162.882L233.691,162.204L234.414,160.831L235.137,159.357L235.859,158.505L236.582,157.306L237.305,155.913L238.027,154.917L238.75,153.47L239.473,152.198L240.195,151.009L240.918,149.689L241.641,148.578L242.363,147.644L243.086,146.707L243.809,145.366L244.531,143.869L245.254,142.986L245.977,141.67L246.699,140.579L247.422,139.108L248.145,138.236L248.867,137.167L249.59,136.22L250.313,134.999L251.035,133.792L251.758,132.645L252.48,131.611L253.203,130.669L253.926,129.692L254.648,128.156L255.371,127.371L256.094,126.112L256.816,124.896L257.539,124.27L258.262,122.904L258.984,121.775L259.707,120.952L260.43,119.695L261.152,118.649L261.875,117.539L262.598,116.807L263.32,115.595L264.043,114.895L264.766,113.706L265.488,112.811L266.211,111.509L266.934,110.594L267.656,109.588L268.379,108.688L269.102,107.66L269.824,106.771L270.547,105.91L271.27,104.658L271.992,104.765L272.715,106.704L273.438,108.207L274.16,109.401L274.883,111.854L275.605,113.455L276.328,114.905L277.051,117.05L277.773,118.568L278.496,120.063L279.219,122.882L279.941,124.142L280.664,125.619L281.387,127.025L282.109,128.961L282.832,132.186L283.555,133.523L284.277,135.481L285,136.787L285.723,137.208L286.445,136.207L287.168,135.955L287.891,135.164L288.613,135.193L289.336,134.591L290.059,134.418L290.781,133.952L291.504,133.197L292.227,133.457L292.949,132.784L293.672,132.131L294.395,131.951L295.117,131.386L295.84,130.814L296.563,130.806L297.285,130.459L298.008,129.817L298.73,129.555L299.453,129.179L300.176,128.375L300.898,128.384L301.621,128.174L302.344,127.403L303.066,127.448L303.789,126.52L304.512,126.353L305.234,125.874L305.957,125.584L306.68,125.255L307.402,125.013L308.125,124.368L308.848,123.897L309.57,123.679L310.293,123.297L311.016,122.76L311.738,122.416L312.461,122.369L313.184,121.948L313.906,121.076L314.629,120.926L315.352,120.773L316.074,119.935L316.797,119.794L317.52,119.608L318.242,119.224L318.965,118.816L319.688,118.329L320.41,118.026L321.133,117.803L321.855,117.572L322.578,116.866L323.301,116.551L324.023,116.307L324.746,115.836L325.469,115.316L326.191,114.901L326.914,114.847L327.637,114.578L328.359,114.191L329.082,113.593L329.805,113.121L330.527,112.937L331.25,112.841L331.973,112.524L332.695,111.954L333.418,111.831L334.141,111.43L334.863,110.879L335.586,110.236L336.309,110.149L337.031,110.029L337.754,109.45L338.477,109.327L339.199,108.911L339.922,108.619L340.645,108.178L341.367,107.9L342.09,107.641L342.813,107.403L343.535,106.882L344.258,106.642L344.98,106.238L345.703,105.912L346.426,105.688L347.148,105.451L347.871,104.683L348.594,104.613L349.316,104.125L350.039,103.793L350.762,103.762L351.484,103.376L352.207,103.013L352.93,102.628L353.652,102.211L354.375,101.908L355.098,101.783L355.82,101.11L356.543,101.078L357.266,100.782L357.988,100.28L358.711,100.038L359.434,99.623L360.156,99.42L360.879,99.114L361.602,98.643L362.324,98.434L363.047,97.993L363.77,97.822L364.492,97.529L365.215,97.082L365.938,96.866L366.66,96.621L367.383,96.062L368.105,96.024L368.828,95.486L369.551,95.583L370.273,94.955L370.996,94.769L371.719,94.701L372.441,94.159L373.164,93.437L373.887,93.506L374.609,93.205L375.332,92.82L376.055,92.852L376.777,92.121L377.5,91.753L378.223,91.733L378.945,91.337L379.668,91.106L380.391,90.828L381.113,90.539L381.836,89.965L382.559,89.941L383.281,89.602L384.004,89.233L384.727,88.93L385.449,88.947L386.172,88.352L386.895,88.304L387.617,87.865L388.34,87.709L389.063,87.39L389.785,87.053L390.508,86.57L391.23,86.193L391.953,86.039L392.676,85.818L393.398,85.64L394.121,85.432L394.844,84.801L395.566,84.852L396.289,84.414L397.012,84.244L397.734,83.858L398.457,83.616L399.18,82.921L399.902,82.958L400.625,82.67L401.348,82.592L402.07,82.068L402.793,81.83L403.516,81.787L404.238,81.376L404.961,81.048L405.684,80.873L406.406,80.761L407.129,80.155L407.852,80.005L408.574,79.791L409.297,79.356L410.02,79.209L410.742,78.58L411.465,79.053L412.188,78.456L412.91,78.106L413.633,77.848L414.355,77.545L415.078,77.297L415.801,77.088L416.523,76.772L417.246,76.367L417.969,76.307L418.691,76.275L419.414,76.004L420.137,75.751L420.859,75.248L421.582,75.276L422.305,75.016L423.027,74.477L423.75,74.449L424.473,74.111L425.195,73.977L425.918,73.758L426.641,73.311L427.363,73.333L428.086,72.781L428.809,72.475L429.531,72.349L430.254,72.125L430.977,71.825L431.699,71.514L432.422,71.522L433.145,71.092L433.867,70.72L434.59,70.617L435.313,70.242L436.035,69.943L436.758,70.182L437.48,69.82L438.203,69.245L438.926,69.181L439.648,68.835L440.371,68.679L441.094,68.588L441.816,68.129L442.539,68.321L443.262,68.096L443.984,67.897L444.707,67.134L445.43,67.069L446.152,66.786L446.875,66.459L447.598,66.434L448.32,65.974L449.043,66.085L449.766,65.608L450.488,65.574L451.211,65.408L451.934,65.181L452.656,64.777L453.379,64.521L454.102,64.465L454.824,64.09L455.547,63.832L456.27,63.508L456.992,63.462L457.715,63.41L458.438,63.095L459.16,62.766L459.883,62.485L460.605,62.184L461.328,62.161L462.051,61.753L462.773,61.95L463.496,61.513L464.219,61.392L464.941,61.171L465.664,60.828L466.387,61.052L467.109,60.464L467.832,60.477L468.555,59.988L469.277,60.066"/><path fill="none" stroke="rgb(63, 243, 147)" stroke-width="1.5" d="M100,274.813L100.723,272.026L101.445,269.927L102.168,267.507L102.891,265.616L103.613,263.202L104.336,261.267L105.059,258.724L105.781,256.695L106.504,253.656L107.227,251.905L107.949,250.174L108.672,247.621L109.395,244.835L110.117,242.446L110.84,240.203L111.563,237.361L112.285,234.791L113.008,231.873L113.73,229.857L114.453,226.172L115.176,223.681L115.898,220.749L116.621,217.777L117.344,217.658L118.066,228.154L118.789,235.555L119.512,236.858L120.234,236.88L120.957,238.494L121.68,239.412L122.402,239.991L123.125,240.946L123.848,241.2L124.57,241.814L125.293,242.438L126.016,242.399L126.738,242.95L127.461,242.783L128.184,243.512L128.906,243.718L129.629,244.079L130.352,243.31L131.074,243.284L131.797,243.334L132.52,243.471L133.242,243.199L133.965,243.015L134.688,242.258L135.41,242.282L136.133,240.768L136.855,241.343L137.578,240.579L138.301,240.211L139.023,239.958L139.746,238.766L140.469,237.757L141.191,237.749L141.914,236.942L142.637,236.251L143.359,235.338L144.082,234.393L144.805,234.175L145.527,232.802L146.25,232.191L146.973,230.865L147.695,230.312L148.418,229.139L149.141,228.482L149.863,227.863L150.586,226.413L151.309,225.411L152.031,224.806L152.754,223.539L153.477,222.59L154.199,220.999L154.922,219.954L155.645,218.781L156.367,217.878L157.09,216.553L157.813,215.504L158.535,214.147L159.258,213.028L159.98,212.176L160.703,210.992L161.426,209.067L162.148,207.916L162.871,206.443L163.594,205.269L164.316,203.822L165.039,202.788L165.762,201.638L166.484,199.893L167.207,198.55L167.93,197.694L168.652,195.601L169.375,195.001L170.098,193.061L170.82,191.753L171.543,190.371L172.266,188.555L172.988,187.508L173.711,186.24L174.434,184.443L175.156,183.497L175.879,181.637L176.602,180.284L177.324,179.139L178.047,177.58L178.77,175.796L179.492,174.312L180.215,173.018L180.938,170.66L181.66,169.97L182.383,168.588L183.105,167.079L183.828,165.86L184.551,163.899L185.273,163.158L185.996,160.894L186.719,159.725L187.441,157.982L188.164,156.833L188.887,155.516L189.609,154.251L190.332,152.629L191.055,151.224L191.777,149.642L192.5,148.39L193.223,146.224L193.945,145.778L194.668,143.904L195.391,142.591L196.113,140.673L196.836,139.599L197.559,138.72L198.281,136.729L199.004,135.419L199.727,133.836L200.449,132.589L201.172,131.379L201.895,129.88L202.617,128.346L203.34,127.142L204.063,125.451L204.785,124.43L205.508,123.419L206.23,121.78L206.953,120.812L207.676,118.892L208.398,117.805L209.121,116.657L209.844,115.261L210.566,114.301L211.289,112.713L212.012,111.393L212.734,110.245L213.457,109.004L214.18,107.503L214.902,106.468L215.625,105.586L216.348,104.104L217.07,102.749L217.793,101.641L218.516,100.902L219.238,99.279L219.961,98.073L220.684,97.234L221.406,96.003L222.129,95.133L222.852,93.671L223.574,92.27L224.297,91.44L225.02,90.713L225.742,89.425L226.465,88.199L227.188,86.873L227.91,86.224L228.633,85.04L229.355,84.32L230.078,83.422L230.801,82.152L231.523,80.939L232.246,79.889L232.969,79.017L233.691,78.097L234.414,77.013L235.137,76.294L235.859,75.114L236.582,74.275L237.305,73.554L238.027,72.356L238.75,71.775L239.473,70.729L240.195,69.813L240.918,68.908L241.641,68.351L242.363,67.341L243.086,66.694L243.809,65.855L244.531,64.595L245.254,63.961L245.977,63.082L246.699,62.327L247.422,61.485L248.145,61.078L248.867,60.068L249.59,59.027L250.313,58.53L251.035,57.924L251.758,56.809L252.48,57.765L253.203,59.273L253.926,61.386L254.648,62.284L255.371,64.186L256.094,65.857L256.816,68.243L257.539,69.546L258.262,70.93L258.984,73.601L259.707,74.819L260.43,75.936L261.152,78.374L261.875,80.516L262.598,82.829L263.32,84.179L264.043,85.118L264.766,87.804L265.488,90.067L266.211,91.686L266.934,92.836L267.656,92.176L268.379,92.326L269.102,91.845L269.824,91.646L270.547,91.734L271.27,91.217L271.992,91.4L272.715,91.22L273.438,90.936L274.16,90.62L274.883,90.63L275.605,90.026L276.328,90.222L277.051,89.834L277.773,89.548L278.496,89.573L279.219,89.26L279.941,89.3L280.664,89.167L281.387,88.705L282.109,88.495L282.832,88.331L283.555,88.08L284.277,88.114L285,88.184L285.723,87.947L286.445,87.742L287.168,87.565L287.891,87.318L288.613,86.988L289.336,86.897L290.059,86.66L290.781,86.564L291.504,86.53L292.227,86.494L292.949,86.243L293.672,86.095L294.395,85.809L295.117,85.807L295.84,85.714L296.563,85.355L297.285,85.294L298.008,85.005L298.73,85.089L299.453,84.748L300.176,84.63L300.898,84.47L301.621,84.345L302.344,84.248L303.066,84.122L303.789,83.87L304.512,83.833L305.234,83.578L305.957,83.711L306.68,83.264L307.402,83.177L308.125,83L308.848,82.886L309.57,82.992L310.293,82.657L311.016,82.524L311.738,82.28L312.461,82.176L313.184,82.127L313.906,81.874L314.629,81.828L315.352,81.775L316.074,81.523L316.797,81.319L317.52,81.298L318.242,80.911L318.965,80.866L319.688,80.935L320.41,80.696L321.133,80.402L321.855,80.412L322.578,79.985L323.301,80.006L324.023,79.933L324.746,79.771L325.469,79.638L326.191,79.216L326.914,79.283L327.637,79.239L328.359,79.075L329.082,78.851L329.805,78.639L330.527,78.612L331.25,78.423L331.973,78.33L332.695,78.194L333.418,78.177L334.141,78.003L334.863,77.651L335.586,77.552L336.309,77.611L337.031,77.148L337.754,77.158L338.477,76.949L339.199,76.815L339.922,76.839L340.645,76.802L341.367,76.367L342.09,76.449L342.813,76.062L343.535,75.746L344.258,75.976L344.98,75.701L345.703,75.511L346.426,75.198L347.148,75.209L347.871,74.973L348.594,74.901L349.316,74.845L350.039,74.68L350.762,74.594L351.484,74.273L352.207,73.984L352.93,74.162L353.652,73.937L354.375,73.651L355.098,73.606L355.82,73.534L356.543,73.375L357.266,73.305L357.988,72.824L358.711,72.82L359.434,72.635L360.156,72.496L360.879,72.423L361.602,72.318L362.324,72.344L363.047,72.041L363.77,71.845L364.492,71.774L365.215,71.511L365.938,71.374L366.66,71.397L367.383,70.828L368.105,70.846L368.828,70.738L369.551,70.787L370.273,70.437L370.996,70.406L371.719,70.313L372.441,70.162L373.164,69.757L373.887,69.649L374.609,69.514L375.332,69.459L376.055,69.212L376.777,69.054L377.5,68.916L378.223,68.677L378.945,68.627L379.668,68.667L380.391,68.471L381.113,68.217L381.836,68.105L382.559,68.077L383.281,67.73L384.004,67.536L384.727,67.463L385.449,67.174L386.172,67.342L386.895,66.925L387.617,66.989L388.34,66.48L389.063,66.634L389.785,66.369L390.508,66.288L391.23,66.137L391.953,65.83L392.676,65.871L393.398,65.575L394.121,65.435L394.844,65.382L395.566,65.298L396.289,64.746L397.012,64.914L397.734,64.733L398.457,64.476L399.18,64.487L399.902,64.382L400.625,64.201L401.348,64.01L402.07,63.811L402.793,63.734L403.516,63.548L404.238,63.366L404.961,63.205L405.684,62.997L406.406,62.787L407.129,62.734L407.852,62.55L408.574,62.407L409.297,62.432L410.02,62.154L410.742,62.055L411.465,61.927L412.188,61.683L412.91,61.492L413.633,61.445L414.355,61.28L415.078,61.131L415.801,61.042L416.523,60.865L417.246,60.668L417.969,60.438L418.691,60.429L419.414,60.262L420.137,60.02L420.859,59.614L421.582,59.731L422.305,59.594L423.027,59.489L423.75,59.335L424.473,59.24L425.195,58.995L425.918,58.757L426.641,58.856L427.363,58.558L428.086,58.425L428.809,58.52L429.531,58.091L430.254,57.761L430.977,57.832L431.699,57.734L432.422,57.703L433.145,57.421L433.867,57.487L434.59,57.24L435.313,57.074L436.035,56.844L436.758,56.914L437.48,56.576L438.203,56.361L438.926,56.312L439.648,56.351L440.371,55.882L441.094,56.031L441.816,55.535L442.539,55.478L443.262,55.46L443.984,55.515L444.707,55.392L445.43,55.05L446.152,54.815L446.875,54.745L447.598,54.82L448.32,54.585L449.043,54.328L449.766,54.222L450.488,54.025L451.211,53.907L451.934,53.975L452.656,53.515L453.379,53.64L454.102,53.379L454.824,53.269L455.547,53.245L456.27,52.972L456.992,52.85L457.715,52.693L458.438,52.681L459.16,52.382L459.883,52.243L460.605,51.916L461.328,52.034L462.051,51.563L462.773,51.74L463.496,51.393L464.219,51.235L464.941,51.401L465.664,51.429L466.387,51.208L467.109,50.846L467.832,50.826L468.555,50.876L469.277,50.49"/><path fill="none" stroke="rgb(149, 251, 81)" stroke-width="1.5" d="M100,263.903L100.723,262.024L101.445,259.335L102.168,257.127L102.891,254.164L103.613,251.211L104.336,248.032L105.059,244.498L105.781,241.637L106.504,238.467L107.227,235.25L107.949,231.993L108.672,228.245L109.395,224.412L110.117,221.08L110.84,217.464L111.563,214.145L112.285,209.961L113.008,206.447L113.73,204.467L114.453,214.634L115.176,220.65L115.898,222.038L116.621,221.93L117.344,221.795L118.066,222.236L118.789,221.968L119.512,221.342L120.234,221.793L120.957,222.115L121.68,221.608L122.402,221.308L123.125,221.389L123.848,220.855L124.57,220.373L125.293,219.879L126.016,219.514L126.738,218.751L127.461,218.629L128.184,218.295L128.906,217.095L129.629,216.524L130.352,215.241L131.074,214.932L131.797,213.536L132.52,213.613L133.242,212.127L133.965,210.756L134.688,210.768L135.41,208.911L136.133,208.372L136.855,206.95L137.578,205.998L138.301,204.88L139.023,203.741L139.746,202.062L140.469,200.983L141.191,199.581L141.914,197.902L142.637,197.292L143.359,195.409L144.082,193.864L144.805,192.496L145.527,191.189L146.25,189.767L146.973,188.365L147.695,187.001L148.418,184.962L149.141,183.468L149.863,182.304L150.586,180.656L151.309,178.791L152.031,177.671L152.754,175.819L153.477,174.102L154.199,172.329L154.922,171.086L155.645,168.792L156.367,167.139L157.09,166.021L157.813,164.226L158.535,162.652L159.258,160.868L159.98,158.816L160.703,157.246L161.426,155.668L162.148,153.925L162.871,152.581L163.594,150.486L164.316,148.843L165.039,146.792L165.762,145.179L166.484,143.422L167.207,141.825L167.93,140.191L168.652,138.435L169.375,136.939L170.098,134.987L170.82,133.103L171.543,131.125L172.266,129.785L172.988,128.237L173.711,126.461L174.434,124.551L175.156,122.961L175.879,121.645L176.602,119.472L177.324,118.063L178.047,116.648L178.77,114.889L179.492,113.258L180.215,111.567L180.938,110.19L181.66,108.226L182.383,106.838L183.105,104.897L183.828,103.352L184.551,101.763L185.273,100.046L185.996,98.781L186.719,97.049L187.441,95.593L188.164,94.071L188.887,92.529L189.609,91.005L190.332,89.135L191.055,87.832L191.777,86.291L192.5,84.618L193.223,83.328L193.945,82.176L194.668,80.508L195.391,78.97L196.113,77.756L196.836,76.073L197.559,74.821L198.281,73.651L199.004,71.878L199.727,70.892L200.449,69.226L201.172,68.125L201.895,66.908L202.617,65.263L203.34,64.229L204.063,62.72L204.785,61.386L205.508,60.156L206.23,58.872L206.953,57.922L207.676,56.449L208.398,55.418L209.121,54.333L209.844,52.754L210.566,51.811L211.289,50.687L212.012,49.972L212.734,48.538L213.457,47.556L214.18,46.018L214.902,44.907L215.625,43.93L216.348,42.933L217.07,41.659L217.793,40.921L218.516,42.114L219.238,43.34L219.961,44.209L220.684,45.932L221.406,47.257L222.129,48.303L222.852,49.573L223.574,51.147L224.297,52.333L225.02,53.761L225.742,55.317L226.465,56.413L227.188,57.267L227.91,59.281L228.633,61.057L229.355,62.607L230.078,63.623L230.801,65.485L231.523,66.953L232.246,68.292L232.969,69.826L233.691,70.729L234.414,70.303L235.137,69.689L235.859,69.208L236.582,68.949L237.305,68.415L238.027,68.142L238.75,67.795L239.473,67.57L240.195,67.168L240.918,66.696L241.641,66.276L242.363,65.807L243.086,65.603L243.809,65.339L244.531,64.862L245.254,64.728L245.977,64.082L246.699,63.998L247.422,63.438L248.145,63.112L248.867,63.053L249.59,62.762L250.313,62.576L251.035,62.16L251.758,61.805L252.48,61.54L253.203,61.426L253.926,60.926L254.648,60.859L255.371,60.666L256.094,60.495L256.816,60.075L257.539,60.043L258.262,59.834L258.984,59.626L259.707,59.225L260.43,59.09L261.152,58.882L261.875,58.795L262.598,58.528L263.32,58.199L264.043,57.886L264.766,58.03L265.488,57.853L266.211,57.431L266.934,57.468L267.656,57.324L268.379,56.946L269.102,56.951L269.824,56.823L270.547,56.688L271.27,56.656L271.992,56.37L272.715,56.305L273.438,56.098L274.16,55.915L274.883,55.844L275.605,55.818L276.328,55.702L277.051,55.461L277.773,55.543L278.496,55.449L279.219,55.319L279.941,54.972L280.664,55.025L281.387,54.919L282.109,54.889L282.832,54.723L283.555,54.521L284.277,54.539L285,54.48L285.723,54.511L286.445,54.382L287.168,54.312L287.891,54.255L288.613,54.187L289.336,54.073L290.059,54.009L290.781,53.857L291.504,54.033L292.227,53.759L292.949,53.726L293.672,53.545L294.395,53.556L295.117,53.534L295.84,53.483L296.563,53.503L297.285,53.444L298.008,53.3L298.73,53.08L299.453,53.37L300.176,53.196L300.898,53.24L301.621,53.228L302.344,53.322L303.066,53.086L303.789,53.098L304.512,52.955L305.234,52.968L305.957,52.937L306.68,53.037L307.402,52.849L308.125,52.895L308.848,52.757L309.57,52.76L310.293,52.553L311.016,52.938L311.738,52.737L312.461,52.603L313.184,52.659L313.906,52.485L314.629,52.679L315.352,52.58L316.074,52.511L316.797,52.548L317.52,52.44L318.242,52.456L318.965,52.449L319.688,52.291L320.41,52.434L321.133,52.385L321.855,52.351L322.578,52.232L323.301,52.376L324.023,52.058L324.746,52.186L325.469,52.137L326.191,52.121L326.914,52.164L327.637,51.986L328.359,51.998L329.082,52.12L329.805,52.042L330.527,51.964L331.25,52.062L331.973,51.804L332.695,51.955L333.418,51.889L334.141,51.873L334.863,51.753L335.586,51.623L336.309,51.842L337.031,51.656L337.754,51.83L338.477,51.552L339.199,51.58L339.922,51.649L340.645,51.431L341.367,51.466L342.09,51.475L342.813,51.473L343.535,51.393L344.258,51.331L344.98,51.364L345.703,51.355L346.426,51.152L347.148,51.136L347.871,51.14L348.594,51.219L349.316,51.129L350.039,51.137L350.762,50.98L351.484,50.863L352.207,50.829L352.93,50.8L353.652,50.808L354.375,50.901L355.098,50.847L355.82,50.751L356.543,50.576L357.266,50.521L357.988,50.662L358.711,50.404L359.434,50.461L360.156,50.458L360.879,50.373L361.602,50.402L362.324,50.205L363.047,50.287L363.77,50.262L364.492,50.119L365.215,50.27L365.938,50.034L366.66,49.972L367.383,49.728L368.105,49.929L368.828,49.931L369.551,49.713L370.273,49.687L370.996,49.581L371.719,49.617L372.441,49.57L373.164,49.563L373.887,49.501L374.609,49.346L375.332,49.358L376.055,49.32L376.777,49.161L377.5,49.057L378.223,48.928L378.945,48.899L379.668,48.936L380.391,48.856L381.113,48.823L381.836,48.912L382.559,48.69L383.281,48.618L384.004,48.737L384.727,48.529L385.449,48.507L386.172,48.364L386.895,48.402L387.617,48.282L388.34,48.177L389.063,48.093L389.785,48.057L390.508,47.974L391.23,47.929L391.953,47.915L392.676,47.69L393.398,47.657L394.121,47.638L394.844,47.682L395.566,47.392L396.289,47.434L397.012,47.481L397.734,47.369L398.457,47.156L399.18,47.19L399.902,47.087L400.625,47.132L401.348,47.096L402.07,46.925L402.793,46.87L403.516,46.802L404.238,46.584L404.961,46.636L405.684,46.535L406.406,46.33L407.129,46.286L407.852,46.215L408.574,46.362L409.297,46.171L410.02,46.165L410.742,45.932L411.465,45.916L412.188,45.804L412.91,45.659L413.633,45.699L414.355,45.577L415.078,45.669L415.801,45.453L416.523,45.588L417.246,45.332L417.969,45.325L418.691,45.074L419.414,44.991L420.137,45.084L420.859,44.976L421.582,44.963L422.305,44.937L423.027,44.654L423.75,44.57L424.473,44.567L425.195,44.392L425.918,44.424L426.641,44.209L427.363,44.084L428.086,44.271L428.809,44.085L429.531,44.061L430.254,43.915L430.977,43.779L431.699,43.799L432.422,43.714L433.145,43.561L433.867,43.359L434.59,43.374L435.313,43.399L436.035,43.258L436.758,43.303L437.48,43.073L438.203,43.085L438.926,43.158L439.648,42.986L440.371,42.686L441.094,42.719L441.816,42.628L442.539,42.641L443.262,42.422L443.984,42.304L444.707,42.364L445.43,42.35L446.152,42.17L446.875,42.072L447.598,41.954L448.32,41.983L449.043,41.835L449.766,41.8L450.488,41.772L451.211,41.531L451.934,41.557L452.656,41.422L453.379,41.321L454.102,41.246L454.824,41.233L455.547,41.121L456.27,41.064L456.992,40.996L457.715,41.106L458.438,40.849L459.16,40.667L459.883,40.707L460.605,40.629L461.328,40.379L462.051,40.47L462.773,40.409L463.496,40.313L464.219,40.281L464.941,40.269L465.664,40.129L466.387,39.915L467.109,39.797L467.832,39.858L468.555,39.756L469.277,39.653"/><path fill="none" stroke="rgb(236, 209, 46)" stroke-width="1.5" d="M100,257.53L100.723,256.061L101.445,252.927L102.168,249.979L102.891,247.086L103.613,244.044L104.336,240.147L105.059,236.7L105.781,232.95L106.504,228.661L107.227,224.404L107.949,220.181L108.672,215.999L109.395,211.712L110.117,206.216L110.84,202.633L111.563,207.093L112.285,215.008L113.008,214.271L113.73,213.741L114.453,213.665L115.176,212.511L115.898,211.87L116.621,211.673L117.344,211.034L118.066,209.887L118.789,209.153L119.512,207.985L120.234,206.788L120.957,206.385L121.68,205.135L122.402,203.855L123.125,203.279L123.848,201.896L124.57,201.396L125.293,199.692L126.016,198.577L126.738,197.37L127.461,195.853L128.184,194.966L128.906,193.476L129.629,192.309L130.352,190.619L131.074,189.474L131.797,187.772L132.52,186.086L133.242,184.473L133.965,183.129L134.688,182.208L135.41,180.032L136.133,178.193L136.855,176.873L137.578,175.413L138.301,173.277L139.023,171.756L139.746,170.646L140.469,168.427L141.191,166.867L141.914,164.697L142.637,163.122L143.359,161.562L144.082,159.382L144.805,157.543L145.527,155.982L146.25,153.842L146.973,152.117L147.695,150.919L148.418,148.699L149.141,146.972L149.863,145.021L150.586,143.068L151.309,141.543L152.031,139.476L152.754,137.576L153.477,135.901L154.199,133.832L154.922,131.777L155.645,130.253L156.367,127.869L157.09,125.818L157.813,124.182L158.535,122.624L159.258,120.532L159.98,118.247L160.703,117.086L161.426,115.174L162.148,112.892L162.871,110.898L163.594,109.263L164.316,107.712L165.039,105.92L165.762,103.845L166.484,102.208L167.207,100.37L167.93,98.542L168.652,96.624L169.375,94.963L170.098,93.002L170.82,91.31L171.543,89.276L172.266,87.359L172.988,86.07L173.711,84.617L174.434,82.59L175.156,80.673L175.879,79.634L176.602,77.654L177.324,76.168L178.047,74.44L178.77,72.597L179.492,70.722L180.215,69.272L180.938,67.976L181.66,66.331L182.383,64.867L183.105,62.966L183.828,61.943L184.551,64.04L185.273,65.745L185.996,67.214L186.719,69.71L187.441,70.576L188.164,73.983L188.887,74.692L189.609,77.319L190.332,78.868L191.055,80.779L191.777,82.663L192.5,83.772L193.223,86.595L193.945,88.236L194.668,90.064L195.391,88.971L196.113,88.381L196.836,87.687L197.559,87.004L198.281,86.068L199.004,85.481L199.727,84.776L200.449,83.842L201.172,82.914L201.895,82.542L202.617,81.709L203.34,81.172L204.063,80.394L204.785,79.762L205.508,79.008L206.23,78.518L206.953,77.76L207.676,76.877L208.398,76.26L209.121,75.529L209.844,74.975L210.566,74.43L211.289,73.788L212.012,73.127L212.734,72.722L213.457,71.962L214.18,71.508L214.902,71.036L215.625,70.261L216.348,69.517L217.07,69.217L217.793,68.805L218.516,68.057L219.238,67.483L219.961,66.81L220.684,66.391L221.406,65.979L222.129,65.327L222.852,64.847L223.574,64.309L224.297,63.903L225.02,63.334L225.742,63.049L226.465,62.195L227.188,61.87L227.91,61.467L228.633,60.963L229.355,60.503L230.078,60.138L230.801,59.764L231.523,59.067L232.246,58.611L232.969,58.102L233.691,57.836L234.414,57.573L235.137,56.995L235.859,56.518L236.582,56.364L237.305,55.966L238.027,55.484L238.75,54.981L239.473,54.595L240.195,54.351L240.918,53.983L241.641,53.675L242.363,53.236L243.086,52.706L243.809,52.532L244.531,52.32L245.254,51.754L245.977,51.393L246.699,51.099L247.422,50.918L248.145,50.461L248.867,50.1L249.59,49.681L250.313,49.514L251.035,49.196L251.758,48.961L252.48,48.775L253.203,48.36L253.926,47.943L254.648,47.781L255.371,47.453L256.094,47.119L256.816,46.905L257.539,46.499L258.262,46.376L258.984,46.327L259.707,45.945L260.43,45.599L261.152,45.397L261.875,45.21L262.598,44.936L263.32,44.658L264.043,44.366L264.766,44.194L265.488,44.028L266.211,43.725L266.934,43.602L267.656,43.288L268.379,43.139L269.102,42.87L269.824,42.705L270.547,42.586L271.27,42.33L271.992,42.199L272.715,41.875L273.438,41.806L274.16,41.555L274.883,41.307L275.605,41.339L276.328,41.067L277.051,40.83L277.773,40.601L278.496,40.474L279.219,40.234L279.941,40.237L280.664,39.921L281.387,39.918L282.109,39.64L282.832,39.587L283.555,39.294L284.277,39.276L285,38.961L285.723,38.906L286.445,38.848L287.168,38.535L287.891,38.43L288.613,38.31L289.336,38.231L290.059,38.117L290.781,38.045L291.504,37.796L292.227,37.667L292.949,37.682L293.672,37.595L294.395,37.385L295.117,37.204L295.84,37.315L296.563,37.027L297.285,36.98L298.008,37.002L298.73,36.782L299.453,36.645L300.176,36.6L300.898,36.338L301.621,36.427L302.344,36.328L303.066,36.207L303.789,36.096L304.512,36.079L305.234,35.94L305.957,35.902L306.68,35.644L307.402,35.682L308.125,35.654L308.848,35.548L309.57,35.415L310.293,35.391L311.016,35.322L311.738,35.287L312.461,35.092L313.184,34.914L313.906,35.074L314.629,34.844L315.352,34.924L316.074,34.848L316.797,34.854L317.52,34.895L318.242,34.729L318.965,34.684L319.688,34.552L320.41,34.484L321.133,34.462L321.855,34.344L322.578,34.359L323.301,34.367L324.023,34.372L324.746,34.199L325.469,34.198L326.191,34.17L326.914,34.081L327.637,34.02L328.359,33.991L329.082,33.994L329.805,33.975L330.527,34.003L331.25,33.878L331.973,33.809L332.695,33.83L333.418,33.713L334.141,33.727L334.863,33.642L335.586,33.658L336.309,33.599L337.031,33.65L337.754,33.52L338.477,33.543L339.199,33.585L339.922,33.443L340.645,33.458L341.367,33.403L342.09,33.489L342.813,33.34L343.535,33.419L344.258,33.331L344.98,33.323L345.703,33.364L346.426,33.24L347.148,33.24L347.871,33.252L348.594,33.199L349.316,33.189L350.039,33.205L350.762,33.102L351.484,33.163L352.207,33.119L352.93,33.171L353.652,33.066L354.375,32.925L355.098,32.923L355.82,32.95L356.543,33.035L357.266,33.018L357.988,32.95L358.711,32.927L359.434,32.891L360.156,32.999L360.879,32.859L361.602,32.859L362.324,32.87L363.047,32.933L363.77,32.845L364.492,32.817L365.215,32.764L365.938,32.837L366.66,32.755L367.383,32.696L368.105,32.729L368.828,32.708L369.551,32.582L370.273,32.766L370.996,32.63L371.719,32.792L372.441,32.667L373.164,32.634L373.887,32.628L374.609,32.616L375.332,32.556L376.055,32.585L376.777,32.622L377.5,32.543L378.223,32.566L378.945,32.538L379.668,32.576L380.391,32.552L381.113,32.538L381.836,32.512L382.559,32.561L383.281,32.423L384.004,32.422L384.727,32.421L385.449,32.455L386.172,32.304L386.895,32.307L387.617,32.299L388.34,32.486L389.063,32.357L389.785,32.303L390.508,32.304L391.23,32.186L391.953,32.257L392.676,32.205L393.398,32.245L394.121,32.247L394.844,32.292L395.566,32.296L396.289,32.132L397.012,32.103L397.734,32.265L398.457,32.235L399.18,32.165L399.902,32.076L400.625,32.197L401.348,32.151L402.07,32L402.793,32.059L403.516,31.922L404.238,32.116L404.961,31.904L405.684,31.928L406.406,31.926L407.129,31.873L407.852,31.813L408.574,31.879L409.297,31.853L410.02,31.802L410.742,31.831L411.465,31.914L412.188,31.632L412.91,31.67L413.633,31.723L414.355,31.688L415.078,31.585L415.801,31.698L416.523,31.644L417.246,31.606L417.969,31.593L418.691,31.484L419.414,31.435L420.137,31.525L420.859,31.408L421.582,31.408L422.305,31.45L423.027,31.404L423.75,31.278L424.473,31.236L425.195,31.303L425.918,31.185L426.641,31.164L427.363,31.335L428.086,31.046L428.809,31.071L429.531,31.207L430.254,31.032L430.977,31.054L431.699,31.063L432.422,31.018L433.145,30.903L433.867,30.904L434.59,30.921L435.313,30.846L436.035,30.796L436.758,30.851L437.48,30.748L438.203,30.772L438.926,30.624L439.648,30.568L440.371,30.747L441.094,30.584L441.816,30.526L442.539,30.514L443.262,30.363L443.984,30.429L444.707,30.462L445.43,30.352L446.152,30.34L446.875,30.323L447.598,30.126L448.32,30.148L449.043,30.172L449.766,30.162L450.488,30.049L451.211,29.98L451.934,30.052L452.656,29.97L453.379,29.879L454.102,30.035L454.824,29.825L455.547,29.814L456.27,29.918L456.992,29.73L457.715,29.753L458.438,29.649L459.16,29.604L459.883,29.602L460.605,29.618L461.328,29.4L462.051,29.465L462.773,29.433L463.496,29.342L464.219,29.367L464.941,29.33L465.664,29.251L466.387,29.284L467.109,29.279L467.832,29.22L468.555,29.184L469.277,29.117"/><path fill="none" stroke="rgb(255, 130, 29)" stroke-width="1.5" d="M100,254.446L100.723,252.787L101.445,250.014L102.168,247.049L102.891,242.984L103.613,240.349L104.336,236.894L105.059,233.006L105.781,228.745L106.504,224.727L107.227,219.529L107.949,214.754L108.672,210.089L109.395,204.632L110.117,208.25L110.84,214.361L111.563,213.458L112.285,211.958L113.008,210.666L113.73,209.136L114.453,208.423L115.176,207.236L115.898,205.656L116.621,204.726L117.344,202.85L118.066,201.6L118.789,200.008L119.512,198.876L120.234,197.268L120.957,195.874L121.68,194.068L122.402,192.619L123.125,190.985L123.848,189.658L124.57,187.726L125.293,186.624L126.016,184.558L126.738,183.026L127.461,180.918L128.184,179.021L128.906,177.764L129.629,175.988L130.352,174.024L131.074,172.379L131.797,170.691L132.52,168.444L133.242,166.585L133.965,165.09L134.688,163.033L135.41,160.964L136.133,159.758L136.855,157.407L137.578,155.367L138.301,153.469L139.023,151.35L139.746,149.335L140.469,147.575L141.191,145.853L141.914,143.547L142.637,141.531L143.359,139.594L144.082,137.319L144.805,135.243L145.527,133.686L146.25,131.101L146.973,129.493L147.695,126.955L148.418,125.127L149.141,123.026L149.863,121.239L150.586,119.065L151.309,116.949L152.031,115.216L152.754,112.915L153.477,111.317L154.199,109.161L154.922,107.283L155.645,104.864L156.367,103.352L157.09,100.936L157.813,99.482L158.535,96.954L159.258,95.304L159.98,93.155L160.703,91.442L161.426,89.419L162.148,88.099L162.871,85.576L163.594,83.478L164.316,81.409L165.039,79.872L165.762,79.307L166.484,81.424L167.207,85.046L167.93,87.994L168.652,91.971L169.375,94.728L170.098,97.703L170.82,100.765L171.543,103.732L172.266,107.548L172.988,109.807L173.711,108.625L174.434,108.205L175.156,107.12L175.879,106.257L176.602,105.55L177.324,104.758L178.047,103.624L178.77,102.953L179.492,102.279L180.215,101.053L180.938,100.473L181.66,99.706L182.383,98.934L183.105,98.036L183.828,97.35L184.551,96.518L185.273,95.952L185.996,95.159L186.719,94.342L187.441,93.503L188.164,92.978L188.887,92.243L189.609,91.416L190.332,90.834L191.055,89.833L191.777,89.399L192.5,88.847L193.223,87.959L193.945,87.188L194.668,86.517L195.391,85.97L196.113,85.101L196.836,84.493L197.559,83.948L198.281,83.592L199.004,82.693L199.727,82.069L200.449,81.514L201.172,80.86L201.895,80.23L202.617,79.602L203.34,79.298L204.063,78.569L204.785,78.013L205.508,77.181L206.23,76.732L206.953,76.351L207.676,75.751L208.398,74.936L209.121,74.492L209.844,74.056L210.566,73.495L211.289,73.145L212.012,72.628L212.734,72.317L213.457,71.421L214.18,70.92L214.902,70.483L215.625,69.739L216.348,69.428L217.07,68.9L217.793,68.474L218.516,67.908L219.238,67.586L219.961,67.11L220.684,66.52L221.406,66.094L222.129,65.798L222.852,65.257L223.574,65.104L224.297,64.58L225.02,63.942L225.742,63.434L226.465,63.034L227.188,62.665L227.91,62.366L228.633,61.776L229.355,61.267L230.078,60.945L230.801,60.49L231.523,60.088L232.246,59.737L232.969,59.387L233.691,58.84L234.414,58.631L235.137,58.34L235.859,57.794L236.582,57.396L237.305,57.056L238.027,56.663L238.75,56.254L239.473,55.997L240.195,55.647L240.918,55.357L241.641,54.959L242.363,54.497L243.086,54.294L243.809,53.928L244.531,53.595L245.254,53.271L245.977,52.952L246.699,52.677L247.422,52.252L248.145,51.867L248.867,51.586L249.59,51.29L250.313,50.919L251.035,50.896L251.758,50.355L252.48,50.231L253.203,49.732L253.926,49.402L254.648,49.349L255.371,48.86L256.094,48.459L256.816,48.276L257.539,47.874L258.262,47.649L258.984,47.343L259.707,47.056L260.43,47.02L261.152,46.52L261.875,46.407L262.598,46.17L263.32,45.85L264.043,45.558L264.766,45.328L265.488,45.029L266.211,44.717L266.934,44.502L267.656,44.355L268.379,44.066L269.102,43.788L269.824,43.689L270.547,43.351L271.27,43.007L271.992,42.795L272.715,42.655L273.438,42.474L274.16,42.183L274.883,41.939L275.605,41.742L276.328,41.538L277.051,41.183L277.773,41.02L278.496,40.811L279.219,40.544L279.941,40.33L280.664,40.188L281.387,39.984L282.109,39.778L282.832,39.397L283.555,39.263L284.277,39.021L285,39.021L285.723,38.799L286.445,38.503L287.168,38.338L287.891,38.199L288.613,37.982L289.336,37.861L290.059,37.591L290.781,37.37L291.504,37.155L292.227,37.056L292.949,36.927L293.672,36.761L294.395,36.452L295.117,36.341L295.84,36.082L296.563,36.173L297.285,35.886L298.008,35.667L298.73,35.498L299.453,35.371L300.176,35.288L300.898,35.039L301.621,34.949L302.344,34.736L303.066,34.511L303.789,34.392L304.512,34.315L305.234,34.062L305.957,34.012L306.68,33.819L307.402,33.7L308.125,33.525L308.848,33.333L309.57,33.209L310.293,33.067L311.016,32.967L311.738,32.807L312.461,32.699L313.184,32.642L313.906,32.375L314.629,32.288L315.352,32.138L316.074,31.972L316.797,31.874L317.52,31.733L318.242,31.622L318.965,31.458L319.688,31.324L320.41,31.304L321.133,31.105L321.855,30.911L322.578,30.845L323.301,30.812L324.023,30.654L324.746,30.577L325.469,30.491L326.191,30.285L326.914,30.156L327.637,30.088L328.359,29.934L329.082,29.948L329.805,29.835L330.527,29.729L331.25,29.635L331.973,29.5L332.695,29.395L333.418,29.2L334.141,29.111L334.863,28.945L335.586,28.946L336.309,28.928L337.031,28.716L337.754,28.551L338.477,28.471L339.199,28.32L339.922,28.235L340.645,28.171L341.367,28.166L342.09,28.006L342.813,27.997L343.535,27.786L344.258,27.662L344.98,27.722L345.703,27.519L346.426,27.51L347.148,27.416L347.871,27.231L348.594,27.218L349.316,27.219L350.039,27.032L350.762,27.034L351.484,26.834L352.207,26.779L352.93,26.752L353.652,26.649L354.375,26.637L355.098,26.546L355.82,26.455L356.543,26.357L357.266,26.266L357.988,26.258L358.711,26.236L359.434,26.104L360.156,26.016L360.879,25.93L361.602,25.877L362.324,25.703L363.047,25.801L363.77,25.618L364.492,25.565L365.215,25.566L365.938,25.415L366.66,25.401L367.383,25.306L368.105,25.28L368.828,25.217L369.551,25.137L370.273,25.015L370.996,24.987L371.719,24.95L372.441,24.776L373.164,24.891L373.887,24.724L374.609,24.763L375.332,24.648L376.055,24.505L376.777,24.537L377.5,24.402L378.223,24.421L378.945,24.33L379.668,24.224L380.391,24.298L381.113,24.191L381.836,24.073L382.559,24.015L383.281,23.971L384.004,23.957L384.727,23.836L385.449,23.773L386.172,23.663L386.895,23.716L387.617,23.675L388.34,23.619L389.063,23.582L389.785,23.524L390.508,23.51L391.23,23.44L391.953,23.422L392.676,23.296L393.398,23.252L394.121,23.247L394.844,23.116L395.566,23.128L396.289,23.12L397.012,23.112L397.734,23.019L398.457,23.012L399.18,22.901L399.902,22.921L400.625,22.857L401.348,22.796L402.07,22.702L402.793,22.721L403.516,22.664L404.238,22.596L404.961,22.574L405.684,22.491L406.406,22.512L407.129,22.438L407.852,22.364L408.574,22.365L409.297,22.361L410.02,22.218L410.742,22.328L411.465,22.156L412.188,22.14L412.91,22.108L413.633,22.104L414.355,22.093L415.078,21.99L415.801,22.072L416.523,21.923L417.246,21.888L417.969,21.905L418.691,21.812L419.414,21.731L420.137,21.813L420.859,21.729L421.582,21.769L422.305,21.704L423.027,21.694L423.75,21.577L424.473,21.597L425.195,21.524L425.918,21.457L426.641,21.448L427.363,21.443L428.086,21.434L428.809,21.368L429.531,21.436L430.254,21.317L430.977,21.223L431.699,21.256L432.422,21.268L433.145,21.208L433.867,21.109L434.59,21.097L435.313,21.03L436.035,21.001L436.758,21.099L437.48,21.033L438.203,21.045L438.926,20.965L439.648,20.936L440.371,20.897L441.094,20.837L441.816,20.777L442.539,20.847L443.262,20.716L443.984,20.801L444.707,20.732L445.43,20.769L446.152,20.666L446.875,20.685L447.598,20.643L448.32,20.66L449.043,20.614L449.766,20.609L450.488,20.593L451.211,20.533L451.934,20.464L452.656,20.393L453.379,20.523L454.102,20.492L454.824,20.364L455.547,20.351L456.27,20.356L456.992,20.326L457.715,20.291L458.438,20.259L459.16,20.321L459.883,20.222L460.605,20.196L461.328,20.261L462.051,20.159L462.773,20.114L463.496,20.171L464.219,20.16L464.941,20.083L465.664,20.132L466.387,20.099L467.109,20.061L467.832,20.029L468.555,20L469.277,20.047"/><path fill="none" stroke="rgb(203, 47, 13)" stroke-width="1.5" d="M100,254.231L100.723,251.299L101.445,248.892L102.168,245.855L102.891,242.597L103.613,238.891L104.336,235.504L105.059,231.876L105.781,227.762L106.504,222.402L107.227,218.102L107.949,213.187L108.672,208.12L109.395,205.659L110.117,214.35L110.84,214.275L111.563,212.524L112.285,211.184L113.008,209.54L113.73,207.896L114.453,206.49L115.176,205.182L115.898,203.216L116.621,201.472L117.344,200.32L118.066,198.657L118.789,197.228L119.512,195.185L120.234,193.544L120.957,192.081L121.68,190.23L122.402,188.224L123.125,187.003L123.848,185.216L124.57,183.174L125.293,181.65L126.016,178.935L126.738,177.693L127.461,176.047L128.184,174.342L128.906,172.36L129.629,170.662L130.352,168.612L131.074,166.073L131.797,164.797L132.52,162.285L133.242,160.65L133.965,158.631L134.688,156.738L135.41,154.705L136.133,152.904L136.855,150.765L137.578,148.333L138.301,146.516L139.023,144.574L139.746,142.011L140.469,140.509L141.191,137.954L141.914,136.228L142.637,134.31L143.359,131.881L144.082,129.964L144.805,128.006L145.527,125.605L146.25,123.22L146.973,121.742L147.695,119.293L148.418,117.023L149.141,115.257L149.863,112.813L150.586,111.309L151.309,109.126L152.031,107.213L152.754,104.321L153.477,102.678L154.199,100.16L154.922,98.805L155.645,96.757L156.367,94.37L157.09,92.689L157.813,90.883L158.535,88.348L159.258,86.331L159.98,84.503L160.703,85.651L161.426,89.175L162.148,92.685L162.871,96.514L163.594,98.879L164.316,103.085L165.039,107.84L165.762,110.948L166.484,115.061L167.207,115.535L167.93,114.31L168.652,113.687L169.375,112.826L170.098,112.223L170.82,111.207L171.543,110.438L172.266,109.508L172.988,108.827L173.711,107.904L174.434,107.17L175.156,106.522L175.879,105.735L176.602,105.099L177.324,104.076L178.047,103.406L178.77,102.507L179.492,101.879L180.215,101.033L180.938,100.443L181.66,99.7L182.383,99.216L183.105,98.364L183.828,97.7L184.551,97.385L185.273,96.304L185.996,95.984L186.719,94.996L187.441,94.412L188.164,93.819L188.887,93.243L189.609,92.844L190.332,91.949L191.055,91.272L191.777,90.665L192.5,90.382L193.223,89.685L193.945,88.905L194.668,88.467L195.391,88.162L196.113,87.412L196.836,87.146L197.559,86.466L198.281,86.052L199.004,85.368L199.727,84.824L200.449,84.224L201.172,83.651L201.895,83.415L202.617,82.812L203.34,82.318L204.063,81.649L204.785,81.349L205.508,80.994L206.23,80.529L206.953,80.111L207.676,79.781L208.398,79.083L209.121,78.657L209.844,78.216L210.566,77.933L211.289,77.383L212.012,76.783L212.734,76.524L213.457,76.055L214.18,75.607L214.902,75.389L215.625,75.061L216.348,74.575L217.07,74.304L217.793,73.804L218.516,73.495L219.238,72.799L219.961,72.661L220.684,72.207L221.406,72.033L222.129,71.727L222.852,71.095L223.574,70.946L224.297,70.493L225.02,70.252L225.742,69.814L226.465,69.661L227.188,69.16L227.91,68.75L228.633,68.419L229.355,68.115L230.078,67.928L230.801,67.793L231.523,67.157L232.246,66.944L232.969,66.647L233.691,66.266L234.414,65.961L235.137,65.598L235.859,65.4L236.582,65.002L237.305,64.797L238.027,64.529L238.75,64.15L239.473,63.841L240.195,63.71L240.918,63.399L241.641,63.048L242.363,62.735L243.086,62.521L243.809,62.375L244.531,62.02L245.254,61.705L245.977,61.598L246.699,61.309L247.422,61.147L248.145,60.546L248.867,60.418L249.59,60.142L250.313,59.933L251.035,59.548L251.758,59.346L252.48,59.097L253.203,58.751L253.926,58.72L254.648,58.447L255.371,58.192L256.094,57.663L256.816,57.526L257.539,57.494L258.262,57.054L258.984,56.867L259.707,56.584L260.43,56.407L261.152,56.138L261.875,56.009L262.598,55.595L263.32,55.564L264.043,55.298L264.766,55.108L265.488,54.847L266.211,54.583L266.934,54.376L267.656,54.221L268.379,53.951L269.102,53.568L269.824,53.544L270.547,53.366L271.27,53L271.992,52.854L272.715,52.655L273.438,52.297L274.16,52.246L274.883,52.006L275.605,51.655L276.328,51.377L277.051,51.248L277.773,51.151L278.496,50.85L279.219,50.658L279.941,50.474L280.664,50.222L281.387,50.086L282.109,49.914L282.832,49.78L283.555,49.522L284.277,49.329L285,49.053L285.723,48.889L286.445,48.725L287.168,48.558L287.891,48.25L288.613,48.038L289.336,47.978L290.059,47.709L290.781,47.579L291.504,47.343L292.227,47.178L292.949,47.073L293.672,46.827L294.395,46.68L295.117,46.384L295.84,46.313L296.563,45.959L297.285,45.964L298.008,45.813L298.73,45.598L299.453,45.39L300.176,45.264L300.898,44.845L301.621,44.944L302.344,44.648L303.066,44.539L303.789,44.325L304.512,43.96L305.234,43.804L305.957,43.555L306.68,43.589L307.402,43.328L308.125,43.199L308.848,43.178L309.57,42.888L310.293,42.8L311.016,42.613L311.738,42.387L312.461,42.226L313.184,42.055L313.906,42.063L314.629,41.777L315.352,41.629L316.074,41.459L316.797,41.289L317.52,41.058L318.242,41.062L318.965,40.799L319.688,40.57L320.41,40.347L321.133,40.345L321.855,40.073L322.578,40.028L323.301,40.014L324.023,39.646L324.746,39.494L325.469,39.256L326.191,39.205L326.914,38.971L327.637,38.847L328.359,38.79L329.082,38.714L329.805,38.267L330.527,38.268L331.25,38.157L331.973,37.878L332.695,37.891L333.418,37.718L334.141,37.555L334.863,37.358L335.586,37.273L336.309,37.097L337.031,37.065L337.754,36.894L338.477,36.751L339.199,36.412L339.922,36.387L340.645,36.281L341.367,36.129L342.09,35.803L342.813,35.906L343.535,35.764L344.258,35.626L344.98,35.388L345.703,35.271L346.426,35.225L347.148,35.119L347.871,34.928L348.594,34.844L349.316,34.694L350.039,34.322L350.762,34.311L351.484,34.25L352.207,34.069L352.93,34.019L353.652,34.028L354.375,33.677L355.098,33.626L355.82,33.485L356.543,33.427L357.266,33.292L357.988,33.14L358.711,32.966L359.434,32.909L360.156,32.682L360.879,32.619L361.602,32.46L362.324,32.317L363.047,32.213L363.77,32.176L364.492,32.039L365.215,31.911L365.938,31.868L366.66,31.725L367.383,31.518L368.105,31.309L368.828,31.316L369.551,31.332L370.273,31.071L370.996,31.085L371.719,30.676L372.441,30.795L373.164,30.675L373.887,30.458L374.609,30.184L375.332,30.256L376.055,30.319L376.777,30.03L377.5,29.934L378.223,29.711L378.945,29.745L379.668,29.652L380.391,29.433L381.113,29.45L381.836,29.405L382.559,29.221L383.281,29.173L384.004,28.966L384.727,29.105L385.449,28.828L386.172,28.821L386.895,28.586L387.617,28.686L388.34,28.429L389.063,28.309L389.785,28.096L390.508,28.21L391.23,28.05L391.953,28.135L392.676,27.709L393.398,27.696L394.121,27.651L394.844,27.606L395.566,27.422L396.289,27.43L397.012,27.343L397.734,27.228L398.457,27.12L399.18,26.978L399.902,26.963L400.625,26.831L401.348,26.612L402.07,26.594L402.793,26.54L403.516,26.485L404.238,26.364L404.961,26.3L405.684,26.072L406.406,26.112L407.129,26.111L407.852,25.849L408.574,25.873L409.297,25.896L410.02,25.727L410.742,25.554L411.465,25.409L412.188,25.292L412.91,25.254L413.633,25.348L414.355,25.08L415.078,25.14L415.801,25.054L416.523,24.952L417.246,24.845L417.969,24.775L418.691,24.732L419.414,24.69L420.137,24.526L420.859,24.492L421.582,24.282L422.305,24.382L423.027,24.093L423.75,24.172L424.473,24.055L425.195,23.932L425.918,23.954L426.641,23.899L427.363,23.784L428.086,23.792L428.809,23.677L429.531,23.557L430.254,23.409L430.977,23.45L431.699,23.34L432.422,23.256L433.145,23.275L433.867,23.066L434.59,23.094L435.313,22.916L436.035,22.853L436.758,22.958L437.48,22.708L438.203,22.752L438.926,22.713L439.648,22.643L440.371,22.53L441.094,22.408L441.816,22.456L442.539,22.383L443.262,22.326L443.984,22.34L444.707,22.2L445.43,22.063L446.152,22.101L446.875,21.879L447.598,21.91L448.32,21.875L449.043,21.834L449.766,21.82L450.488,21.707L451.211,21.57L451.934,21.459L452.656,21.528L453.379,21.454L454.102,21.32L454.824,21.377L455.547,21.24L456.27,21.138L456.992,21.091L457.715,21.07L458.438,20.991L459.16,21.091L459.883,20.958L460.605,20.966L461.328,20.916L462.051,20.757L462.773,20.658L463.496,20.645L464.219,20.58L464.941,20.622L465.664,20.516L466.387,20.389L467.109,20.461L467.832,20.261L468.555,20.343L469.277,20.22"/><g transform="translate(0,190) scale(1.7) rotate(-90)"><text>Drift</text></g><g transform="translate(315,395) scale(1.8)"><text></text></g><g transform="translate(0,350)" fill="none" font-size="10" font-family="sans-serif" text-anchor="middle"><path class="domain" stroke="currentColor" d="M100,6V0H470V6"/><g class="tick" opacity="1" transform="translate(136.66666666666666,0)"><line stroke="currentColor" y2="6"/><text fill="currentColor" y="9" dy="0.71em" font-size="20px"> </text></g><g class="tick" opacity="1" transform="translate(173.7037037037037,0)"><line stroke="currentColor" y2="6"/><text fill="currentColor" y="9" dy="0.71em" font-size="20px">200</text></g><g class="tick" opacity="1" transform="translate(210.74074074074076,0)"><line stroke="currentColor" y2="6"/><text fill="currentColor" y="9" dy="0.71em" font-size="20px"> </text></g><g class="tick" opacity="1" transform="translate(247.77777777777777,0)"><line stroke="currentColor" y2="6"/><text fill="currentColor" y="9" dy="0.71em" font-size="20px">400</text></g><g class="tick" opacity="1" transform="translate(284.81481481481484,0)"><line stroke="currentColor" y2="6"/><text fill="currentColor" y="9" dy="0.71em" font-size="20px"> </text></g><g class="tick" opacity="1" transform="translate(321.85185185185185,0)"><line stroke="currentColor" y2="6"/><text fill="currentColor" y="9" dy="0.71em" font-size="20px">600</text></g><g class="tick" opacity="1" transform="translate(358.8888888888889,0)"><line stroke="currentColor" y2="6"/><text fill="currentColor" y="9" dy="0.71em" font-size="20px"> </text></g><g class="tick" opacity="1" transform="translate(395.9259259259259,0)"><line stroke="currentColor" y2="6"/><text fill="currentColor" y="9" dy="0.71em" font-size="20px">800</text></g><g class="tick" opacity="1" transform="translate(432.96296296296293,0)"><line stroke="currentColor" y2="6"/><text fill="currentColor" y="9" dy="0.71em" font-size="20px"> </text></g><g class="tick" opacity="1" transform="translate(470,0)"><line stroke="currentColor" y2="6"/><text fill="currentColor" y="9" dy="0.71em" font-size="20px">1000</text></g></g><g transform="translate(100,0)" fill="none" font-size="10" font-family="sans-serif" text-anchor="end"><path class="domain" stroke="currentColor" d="M-6,350H0V20H-6"/><g class="tick" opacity="1" transform="translate(0,335.8064652847414)"><line stroke="currentColor" x2="-6"/><text fill="currentColor" x="-9" dy="0.32em" font-size="20px">0.24</text></g><g class="tick" opacity="1" transform="translate(0,306.1303803222178)"><line stroke="currentColor" x2="-6"/><text fill="currentColor" x="-9" dy="0.32em" font-size="20px">0.22</text></g><g class="tick" opacity="1" transform="translate(0,276.45429535969413)"><line stroke="currentColor" x2="-6"/><text fill="currentColor" x="-9" dy="0.32em" font-size="20px">0.20</text></g><g class="tick" opacity="1" transform="translate(0,246.77821039717045)"><line stroke="currentColor" x2="-6"/><text fill="currentColor" x="-9" dy="0.32em" font-size="20px">0.18</text></g><g class="tick" opacity="1" transform="translate(0,217.1021254346468)"><line stroke="currentColor" x2="-6"/><text fill="currentColor" x="-9" dy="0.32em" font-size="20px">0.16</text></g><g class="tick" opacity="1" transform="translate(0,187.42604047212316)"><line stroke="currentColor" x2="-6"/><text fill="currentColor" x="-9" dy="0.32em" font-size="20px">0.14</text></g><g class="tick" opacity="1" transform="translate(0,157.7499555095995)"><line stroke="currentColor" x2="-6"/><text fill="currentColor" x="-9" dy="0.32em" font-size="20px">0.12</text></g><g class="tick" opacity="1" transform="translate(0,128.07387054707584)"><line stroke="currentColor" x2="-6"/><text fill="currentColor" x="-9" dy="0.32em" font-size="20px">0.10</text></g><g class="tick" opacity="1" transform="translate(0,98.3977855845522)"><line stroke="currentColor" x2="-6"/><text fill="currentColor" x="-9" dy="0.32em" font-size="20px">0.08</text></g><g class="tick" opacity="1" transform="translate(0,68.7217006220285)"><line stroke="currentColor" x2="-6"/><text fill="currentColor" x="-9" dy="0.32em" font-size="20px">0.06</text></g><g class="tick" opacity="1" transform="translate(0,39.045615659504875)"><line stroke="currentColor" x2="-6"/><text fill="currentColor" x="-9" dy="0.32em" font-size="20px">0.04</text></g></g><circle cx="300" cy="255" r="8" style="fill: rgb(35, 23, 27);"/><circle cx="300" cy="280" r="8" style="fill: rgb(69, 105, 238);"/><circle cx="300" cy="305" r="8" style="fill: rgb(38, 188, 225);"/><circle cx="300" cy="330" r="8" style="fill: rgb(63, 243, 147);"/><circle cx="420" cy="255" r="8" style="fill: rgb(149, 251, 81);"/><circle cx="420" cy="280" r="8" style="fill: rgb(236, 209, 46);"/><circle cx="420" cy="305" r="8" style="fill: rgb(255, 130, 29);"/><circle cx="420" cy="330" r="8" style="fill: rgb(203, 47, 13);"/><text x="315" y="255" text-anchor="left" font-size="22" alignment-baseline="middle" style="fill: rgb(35, 23, 27);"> = 0</text><text x="315" y="280" text-anchor="left" font-size="22" alignment-baseline="middle" style="fill: rgb(69, 105, 238);"> = 0.22</text><text x="315" y="305" text-anchor="left" font-size="22" alignment-baseline="middle" style="fill: rgb(38, 188, 225);"> = 0.45</text><text x="315" y="330" text-anchor="left" font-size="22" alignment-baseline="middle" style="fill: rgb(63, 243, 147);"> = 0.67</text><text x="440" y="255" text-anchor="left" font-size="22" alignment-baseline="middle" style="fill: rgb(149, 251, 81);"> = 0.9</text><text x="440" y="280" text-anchor="left" font-size="22" alignment-baseline="middle" style="fill: rgb(236, 209, 46);"> = 1.12</text><text x="440" y="305" text-anchor="left" font-size="22" alignment-baseline="middle" style="fill: rgb(255, 130, 29);"> = 1.35</text><text x="440" y="330" text-anchor="left" font-size="22" alignment-baseline="middle" style="fill: rgb(203, 47, 13);"> = 1.57</text></svg>