<svg xmlns="http://www.w3.org/2000/svg" class="bg-white" width="500" height="400" viewBox="-41.62399999999998 -70.54300000000029 605.0000000000001 484.00000000000006"><path fill="none" stroke="rgb(35, 23, 27)" stroke-width="1.5" d="M100,323.89L100.723,317.059L101.445,314.532L102.168,314.58L102.891,311.657L103.613,308.349L104.336,305.141L105.059,301.536L105.781,297.867L106.504,294.118L107.227,288.711L107.949,284.808L108.672,280.644L109.395,277.391L110.117,273.045L110.84,268.782L111.563,264.682L112.285,260.23L113.008,253.997L113.73,249.16L114.453,244.378L115.176,240.558L115.898,235.446L116.621,230.306L117.344,224.61L118.066,219.064L118.789,213.424L119.512,209.122L120.234,203.14L120.957,195.644L121.68,189.492L122.402,203.887L123.125,203.769L123.848,203.102L124.57,202.616L125.293,203.197L126.016,203.7L126.738,203.079L127.461,203.191L128.184,203.365L128.906,203.349L129.629,201.538L130.352,203.01L131.074,202.792L131.797,200.879L132.52,201.421L133.242,200.804L133.965,201.037L134.688,203.006L135.41,200.82L136.133,200.739L136.855,200.733L137.578,202.386L138.301,202.357L139.023,202.328L139.746,200.876L140.469,200.679L141.191,201.281L141.914,201.874L142.637,201.958L143.359,200.833L144.082,200.865L144.805,200.909L145.527,200.921L146.25,200.828L146.973,200.424L147.695,200.922L148.418,200.279L149.141,200.339L149.863,200.214L150.586,200.105L151.309,200.379L152.031,200.63L152.754,200.219L153.477,200.211L154.199,198.464L154.922,200.124L155.645,200.055L156.367,199.943L157.09,199.845L157.813,199.959L158.535,199.656L159.258,199.74L159.98,199.482L160.703,199.642L161.426,199.645L162.148,198.724L162.871,198.64L163.594,198.852L164.316,198.124L165.039,197.939L165.762,199.385L166.484,199.668L167.207,198.284L167.93,198.33L168.652,200.165L169.375,199.493L170.098,198.302L170.82,198.103L171.543,199.662L172.266,199.622L172.988,200.608L173.711,198.577L174.434,199.317L175.156,200.63L175.879,200.711L176.602,199.016L177.324,199.668L178.047,199.815L178.77,199.943L179.492,200.652L180.215,200.788L180.938,199.876L181.66,199.917L182.383,201.102L183.105,199.745L183.828,200.285L184.551,200.51L185.273,202.001L185.996,202.257L186.719,202.311L187.441,202.546L188.164,201.273L188.887,201.665L189.609,201.828L190.332,202.098L191.055,202.333L191.777,202.78L192.5,203.889L193.223,202.796L193.945,203.193L194.668,203.937L195.391,205.005L196.113,204.288L196.836,205.177L197.559,205.564L198.281,206.021L199.004,207.551L199.727,206.759L200.449,208.927L201.172,207.594L201.895,207.857L202.617,209.587L203.34,209.078L204.063,210.86L204.785,211.346L205.508,211.738L206.23,212.971L206.953,212.612L207.676,214.327L208.398,213.441L209.121,214.543L209.844,216.663L210.566,215.805L211.289,216.272L212.012,217.17L212.734,217.664L213.457,218.229L214.18,218.667L214.902,220.852L215.625,221.499L216.348,222.139L217.07,220.282L217.793,222.161L218.516,222.875L219.238,225.472L219.961,224.641L220.684,225.755L221.406,226.846L222.129,226.939L222.852,228.439L223.574,228.952L224.297,229.842L225.02,232.294L225.742,229.736L226.465,231.7L227.188,234.334L227.91,233.477L228.633,235.503L229.355,236.44L230.078,235.217L230.801,238.304L231.523,239.165L232.246,238.738L232.969,239.952L233.691,243.237L234.414,242.931L235.137,242.729L235.859,245.52L236.582,244.682L237.305,245.22L238.027,246.445L238.75,249.329L239.473,249.517L240.195,251.861L240.918,251.541L241.641,252.559L242.363,252.365L243.086,255.849L243.809,255.777L244.531,255.746L245.254,259.093L245.977,259.884L246.699,260.91L247.422,259.076L248.145,261.888L248.867,262.893L249.59,264.238L250.313,266.068L251.035,267.169L251.758,266.455L252.48,269.221L253.203,270.21L253.926,268.862L254.648,271.456L255.371,270.965L256.094,271.649L256.816,273.77L257.539,273.489L258.262,274.718L258.984,277.104L259.707,278.098L260.43,278.158L261.152,280.107L261.875,281.59L262.598,281.156L263.32,283L264.043,284.27L264.766,283.026L265.488,285.098L266.211,285.158L266.934,285.79L267.656,288.083L268.379,287.957L269.102,289.253L269.824,290.165L270.547,290.182L271.27,292.307L271.992,293.461L272.715,295.082L273.438,294.964L274.16,294.62L274.883,295.368L275.605,296.064L276.328,297.26L277.051,299.691L277.773,298.706L278.496,299.384L279.219,300.236L279.941,300.415L280.664,301.702L281.387,302.567L282.109,304.119L282.832,304.323L283.555,305.178L284.277,304.348L285,306.75L285.723,307.544L286.445,307.278L287.168,306.843L287.891,309.54L288.613,310.082L289.336,310.513L290.059,311.162L290.781,310.661L291.504,309.951L292.227,312.75L292.949,312.098L293.672,312.47L294.395,314.501L295.117,313.284L295.84,313.699L296.563,314.124L297.285,316.109L298.008,314.828L298.73,316.787L299.453,316.363L300.176,316.665L300.898,315.743L301.621,317.027L302.344,316.106L303.066,316.526L303.789,316.752L304.512,316.77L305.234,317.802L305.957,318.219L306.68,317.246L307.402,318.485L308.125,318.046L308.848,319.243L309.57,318.115L310.293,319.27L311.016,318.305L311.738,317.628L312.461,319.865L313.184,317.781L313.906,319.917L314.629,318.393L315.352,318.951L316.074,318.035L316.797,317.757L317.52,317.884L318.242,317.433L318.965,317.317L319.688,317.1L320.41,317.044L321.133,316.933L321.855,318.116L322.578,317.196L323.301,317.124L324.023,317.237L324.746,315.997L325.469,316.994L326.191,316.665L326.914,316.393L327.637,316.192L328.359,315.926L329.082,313.918L329.805,314.446L330.527,314.24L331.25,314.129L331.973,313.512L332.695,313.888L333.418,313.803L334.141,312.235L334.863,312.169L335.586,311.435L336.309,310.968L337.031,309.753L337.754,309.33L338.477,310.674L339.199,309.229L339.922,310.961L340.645,308.56L341.367,307.596L342.09,307.36L342.813,307.691L343.535,305.511L344.258,305.884L344.98,304.8L345.703,304.423L346.426,304.608L347.148,305.682L347.871,302.748L348.594,301.982L349.316,301.24L350.039,300.729L350.762,299.802L351.484,300.413L352.207,298.007L352.93,298.449L353.652,298.613L354.375,295.968L355.098,296.161L355.82,295.544L356.543,294.684L357.266,294.173L357.988,292.367L358.711,291.652L359.434,291.627L360.156,289.487L360.879,291.509L361.602,289.616L362.324,288.556L363.047,288.063L363.77,286.06L364.492,285.331L365.215,286.396L365.938,283.298L366.66,284.044L367.383,283.566L368.105,282.506L368.828,282.094L369.551,282.163L370.273,280.476L370.996,279.659L371.719,278.668L372.441,278.454L373.164,275.567L373.887,277.164L374.609,273.064L375.332,275.434L376.055,273.66L376.777,270.587L377.5,271.873L378.223,272.152L378.945,271.236L379.668,269.805L380.391,268.37L381.113,268.373L381.836,266.589L382.559,266.361L383.281,264.795L384.004,265.018L384.727,263.027L385.449,262.196L386.172,262.049L386.895,261.393L387.617,259.312L388.34,259.598L389.063,258.342L389.785,256.997L390.508,256.498L391.23,255.67L391.953,254.571L392.676,253.025L393.398,252.112L394.121,252.265L394.844,251.313L395.566,248.27L396.289,249.469L397.012,248.613L397.734,247.062L398.457,245.433L399.18,244.577L399.902,244.925L400.625,242.713L401.348,240.394L402.07,240.888L402.793,239.93L403.516,240.198L404.238,239.528L404.961,238.043L405.684,235.186L406.406,235.091L407.129,235.067L407.852,234.918L408.574,233.167L409.297,231.145L410.02,231.383L410.742,230.452L411.465,229.599L412.188,227.461L412.91,225.786L413.633,226.81L414.355,223.8L415.078,224.248L415.801,224.56L416.523,224.221L417.246,222.152L417.969,220.866L418.691,220.666L419.414,220.113L420.137,217.746L420.859,216.306L421.582,215.409L422.305,215.635L423.027,215.712L423.75,212.614L424.473,211.654L425.195,211.059L425.918,210.051L426.641,210.565L427.363,208.266L428.086,209.421L428.809,206.407L429.531,205.811L430.254,206.524L430.977,203.834L431.699,203.01L432.422,202.18L433.145,203.074L433.867,200.264L434.59,200.283L435.313,200.076L436.035,198.37L436.758,196.543L437.48,197.654L438.203,194.975L438.926,193.822L439.648,193.375L440.371,191.625L441.094,191.031L441.816,190.721L442.539,189.743L443.262,190.17L443.984,188.579L444.707,187.629L445.43,187.769L446.152,186.167L446.875,184.44L447.598,183.091L448.32,184.149L449.043,182.368L449.766,180.029L450.488,179.92L451.211,178.98L451.934,178.634L452.656,178.066L453.379,176.462L454.102,177.176L454.824,174.713L455.547,175.047L456.27,173.082L456.992,171.586L457.715,172.509L458.438,171.062L459.16,171.065L459.883,168.711L460.605,168.565L461.328,168.36L462.051,167.543L462.773,166.723L463.496,165.916L464.219,164.956L464.941,164.894L465.664,162.147L466.387,162.671L467.109,162.494L467.832,161.431L468.555,158.771L469.277,159.536"/><path fill="none" stroke="rgb(69, 105, 238)" stroke-width="1.5" d="M100,305.923L100.723,300.219L101.445,295.438L102.168,293.488L102.891,291.017L103.613,287.243L104.336,285.661L105.059,281.455L105.781,277.41L106.504,275.03L107.227,271.147L107.949,264.631L108.672,262.951L109.395,257.41L110.117,253.081L110.84,249.452L111.563,243.519L112.285,240.352L113.008,235.822L113.73,230.319L114.453,226.535L115.176,221.731L115.898,214.549L116.621,211.584L117.344,205.708L118.066,199.867L118.789,194.77L119.512,217.735L120.234,222.772L120.957,223.058L121.68,222.794L122.402,223.316L123.125,221.924L123.848,224.004L124.57,224.309L125.293,222.325L126.016,223.822L126.738,222.508L127.461,223.557L128.184,223.236L128.906,222.44L129.629,221.283L130.352,222.179L131.074,224.087L131.797,222.689L132.52,222.695L133.242,221.55L133.965,222.575L134.688,221.504L135.41,221.853L136.133,222.572L136.855,223.133L137.578,221.497L138.301,221.238L139.023,222.137L139.746,221.478L140.469,221.706L141.191,221.962L141.914,221.778L142.637,220.434L143.359,221.346L144.082,221.051L144.805,221.272L145.527,221.484L146.25,220.718L146.973,220.963L147.695,220.004L148.418,220.569L149.141,221.059L149.863,220.364L150.586,222.315L151.309,220.06L152.031,220.316L152.754,219.764L153.477,220.443L154.199,220.451L154.922,219.706L155.645,220.131L156.367,219.458L157.09,219.581L157.813,221.812L158.535,220.062L159.258,220.13L159.98,220.124L160.703,220.037L161.426,221.418L162.148,220.01L162.871,219.895L163.594,219.115L164.316,219.258L165.039,219.895L165.762,219.321L166.484,219.436L167.207,219.508L167.93,219.972L168.652,220.775L169.375,220.123L170.098,219.275L170.82,220.122L171.543,220.021L172.266,220.165L172.988,220.116L173.711,219.453L174.434,221.652L175.156,220.54L175.879,220.561L176.602,220.737L177.324,220.867L178.047,221.266L178.77,220.936L179.492,221.157L180.215,220.956L180.938,220.71L181.66,221.842L182.383,220.795L183.105,222.631L183.828,221.568L184.551,221.749L185.273,220.982L185.996,222.284L186.719,222.456L187.441,223.027L188.164,224.115L188.887,223.032L189.609,223.114L190.332,222.788L191.055,224.524L191.777,224.505L192.5,224.028L193.223,224.995L193.945,224.707L194.668,224.27L195.391,225.05L196.113,226.356L196.836,226.671L197.559,225.429L198.281,225.543L199.004,227.317L199.727,226.282L200.449,228.76L201.172,227.814L201.895,228.352L202.617,227.804L203.34,230.267L204.063,228.899L204.785,230.766L205.508,230.267L206.23,231.296L206.953,231.593L207.676,231.452L208.398,232.31L209.121,233.604L209.844,233.177L210.566,233.925L211.289,234.284L212.012,235.534L212.734,235.221L213.457,236.852L214.18,235.175L214.902,237.404L215.625,237.039L216.348,237.96L217.07,238.837L217.793,238.905L218.516,239.656L219.238,240.684L219.961,241.245L220.684,241.168L221.406,242.93L222.129,242.642L222.852,244.192L223.574,243.151L224.297,245.668L225.02,245.201L225.742,246.922L226.465,247.495L227.188,248.062L227.91,248.597L228.633,249.133L229.355,249.948L230.078,250.74L230.801,251.166L231.523,253.127L232.246,253.988L232.969,254.507L233.691,253.849L234.414,255.29L235.137,255.58L235.859,255.716L236.582,257.767L237.305,257.668L238.027,259.076L238.75,259.726L239.473,260.782L240.195,261.012L240.918,262.196L241.641,261.501L242.363,263.542L243.086,264.063L243.809,263.64L244.531,266.03L245.254,265.204L245.977,267.254L246.699,267.962L247.422,267.383L248.145,270.582L248.867,268.816L249.59,270.866L250.313,271.661L251.035,273.615L251.758,272.804L252.48,274.303L253.203,275.174L253.926,275.103L254.648,276.234L255.371,276.676L256.094,277.945L256.816,277.998L257.539,278.842L258.262,279.891L258.984,280.783L259.707,282.161L260.43,280.201L261.152,281.98L261.875,283.128L262.598,284.295L263.32,284.913L264.043,285.675L264.766,284.224L265.488,286.953L266.211,286.676L266.934,288.525L267.656,289.606L268.379,288.845L269.102,289.328L269.824,290.9L270.547,290.066L271.27,290.469L271.992,289.929L272.715,292.66L273.438,292.799L274.16,292.494L274.883,294.162L275.605,294.118L276.328,294.336L277.051,295.825L277.773,295.715L278.496,295.484L279.219,296.21L279.941,296.416L280.664,296.251L281.387,298.135L282.109,297.823L282.832,299.623L283.555,300.081L284.277,299.63L285,297.932L285.723,300.102L286.445,300.708L287.168,300.226L287.891,300.037L288.613,300.414L289.336,300.138L290.059,301.028L290.781,302.165L291.504,302.451L292.227,302.27L292.949,301.052L293.672,300.626L294.395,302.976L295.117,302.588L295.84,302.183L296.563,302.462L297.285,303.743L298.008,302.18L298.73,304.284L299.453,302.981L300.176,304.038L300.898,304.235L301.621,303.777L302.344,303.301L303.066,301.519L303.789,301.447L304.512,302.156L305.234,303.303L305.957,302.057L306.68,304.599L307.402,303.061L308.125,304.446L308.848,301.395L309.57,303.833L310.293,301.989L311.016,303.355L311.738,301.261L312.461,301.014L313.184,303.205L313.906,301.804L314.629,301.713L315.352,302.057L316.074,300.652L316.797,301.158L317.52,300.64L318.242,301.652L318.965,298.256L319.688,299.236L320.41,298.754L321.133,299.043L321.855,299.932L322.578,298.958L323.301,298.453L324.023,298.139L324.746,296.65L325.469,297.327L326.191,296.137L326.914,294.276L327.637,294.208L328.359,294.86L329.082,293.909L329.805,293.961L330.527,293.554L331.25,292.517L331.973,292.2L332.695,292.208L333.418,291.816L334.141,291.843L334.863,290.793L335.586,289.498L336.309,289.356L337.031,288.279L337.754,287.678L338.477,289.299L339.199,285.799L339.922,287.035L340.645,286.016L341.367,284.599L342.09,284.695L342.813,283.373L343.535,283.403L344.258,282.794L344.98,282.107L345.703,281.209L346.426,280.916L347.148,279.427L347.871,279.304L348.594,277.768L349.316,277.972L350.039,277.16L350.762,278.028L351.484,275.402L352.207,276.178L352.93,271.822L353.652,273.182L354.375,272.309L355.098,273.549L355.82,270.794L356.543,271.993L357.266,269.562L357.988,269.305L358.711,267.56L359.434,266.626L360.156,264.35L360.879,265.684L361.602,264.351L362.324,262.901L363.047,262.637L363.77,261.659L364.492,261.675L365.215,260.212L365.938,259.536L366.66,258.155L367.383,257.693L368.105,256.8L368.828,256.207L369.551,255.827L370.273,256.497L370.996,253.887L371.719,252.961L372.441,250.514L373.164,251.232L373.887,250.339L374.609,249.036L375.332,249.016L376.055,247.71L376.777,246.198L377.5,246.379L378.223,244.214L378.945,243.879L379.668,241.589L380.391,241.371L381.113,241.049L381.836,240.49L382.559,239.68L383.281,238.585L384.004,237.766L384.727,236.309L385.449,235.897L386.172,235.961L386.895,234.16L387.617,233.238L388.34,231.416L389.063,230.519L389.785,230.298L390.508,229.832L391.23,228.643L391.953,226.952L392.676,225.326L393.398,224.345L394.121,224.349L394.844,224.761L395.566,222.392L396.289,220.73L397.012,221.383L397.734,219.712L398.457,218.166L399.18,217.295L399.902,217.689L400.625,216.438L401.348,214.305L402.07,214.814L402.793,212.912L403.516,212.372L404.238,212.208L404.961,211.122L405.684,209.696L406.406,208.887L407.129,208.473L407.852,207.77L408.574,206.244L409.297,204.81L410.02,204.684L410.742,203.476L411.465,202.307L412.188,202.175L412.91,199.985L413.633,197.894L414.355,199.155L415.078,197.815L415.801,197.727L416.523,196.493L417.246,195.753L417.969,194.357L418.691,193.276L419.414,191.805L420.137,191.676L420.859,189.908L421.582,189.454L422.305,188.556L423.027,188.72L423.75,187.923L424.473,185.869L425.195,186.082L425.918,184.419L426.641,183.606L427.363,183.346L428.086,181.355L428.809,180.165L429.531,180.682L430.254,178.51L430.977,179.03L431.699,176.986L432.422,177.56L433.145,174.359L433.867,174.331L434.59,174.467L435.313,172.439L436.035,172.85L436.758,171.812L437.48,171.305L438.203,169.404L438.926,168.164L439.648,167.99L440.371,167.043L441.094,166.533L441.816,165.819L442.539,165.38L443.262,163.526L443.984,163.043L444.707,163.727L445.43,162.103L446.152,162.147L446.875,158.706L447.598,159.698L448.32,158.312L449.043,157.29L449.766,156.532L450.488,156.032L451.211,154.821L451.934,154.105L452.656,154.314L453.379,151.78L454.102,152.034L454.824,151.254L455.547,149.985L456.27,149.726L456.992,150.021L457.715,148.393L458.438,148.457L459.16,146.489L459.883,145.681L460.605,145.997L461.328,145.419L462.051,144.954L462.773,142.747L463.496,143.45L464.219,140.802L464.941,141.312L465.664,139.18L466.387,140.194L467.109,139.002L467.832,138.639L468.555,138.283L469.277,137.005"/><path fill="none" stroke="rgb(38, 188, 225)" stroke-width="1.5" d="M100,274.401L100.723,267.649L101.445,265.909L102.168,263.176L102.891,260.425L103.613,255.933L104.336,252.287L105.059,250.318L105.781,247.207L106.504,243.529L107.227,239.509L107.949,235.238L108.672,231.454L109.395,227.696L110.117,224.351L110.84,219.076L111.563,213.544L112.285,210.678L113.008,205.022L113.73,244.366L114.453,244.413L115.176,247.803L115.898,248.273L116.621,248.613L117.344,250.081L118.066,253.044L118.789,253.56L119.512,255.021L120.234,254.286L120.957,255.067L121.68,255.404L122.402,255.993L123.125,255.382L123.848,254.607L124.57,255.366L125.293,255.639L126.016,255.125L126.738,255.831L127.461,255.288L128.184,254.324L128.906,254.986L129.629,253.839L130.352,254.564L131.074,253.967L131.797,254.833L132.52,254.375L133.242,256.033L133.965,255.139L134.688,253.904L135.41,254.65L136.133,255.255L136.855,253.758L137.578,255.513L138.301,252.843L139.023,253.336L139.746,254.695L140.469,255.211L141.191,254.665L141.914,254.766L142.637,254.651L143.359,253.975L144.082,254.453L144.805,255.099L145.527,254.553L146.25,252.338L146.973,253.038L147.695,253.072L148.418,253.081L149.141,253.62L149.863,253.416L150.586,253.218L151.309,253.162L152.031,253.433L152.754,253.135L153.477,253.2L154.199,254.344L154.922,253.887L155.645,254.144L156.367,253.303L157.09,252.792L157.813,253.648L158.535,252.834L159.258,253.925L159.98,253.873L160.703,253.523L161.426,252.809L162.148,252.962L162.871,252.648L163.594,252.301L164.316,252.709L165.039,252.42L165.762,252.535L166.484,251.778L167.207,252.486L167.93,251.6L168.652,252.444L169.375,251.772L170.098,253.074L170.82,253.806L171.543,252.528L172.266,253.056L172.988,252.9L173.711,251.695L174.434,253.099L175.156,251.412L175.879,252.211L176.602,253.079L177.324,252.63L178.047,252.423L178.77,251.543L179.492,252.928L180.215,253.49L180.938,252.939L181.66,252.832L182.383,253.645L183.105,252.529L183.828,252.647L184.551,254.33L185.273,254.41L185.996,253.31L186.719,254.303L187.441,253.618L188.164,253.636L188.887,254.227L189.609,254.893L190.332,255.507L191.055,252.781L191.777,254.399L192.5,254.913L193.223,254.13L193.945,255.685L194.668,256.665L195.391,255.161L196.113,255.383L196.836,255.028L197.559,254.582L198.281,256.105L199.004,255.829L199.727,257.392L200.449,255.76L201.172,256.07L201.895,255.256L202.617,258.364L203.34,258.549L204.063,257.094L204.785,258.703L205.508,258.96L206.23,258.909L206.953,259.538L207.676,259.066L208.398,258.703L209.121,260.148L209.844,260.382L210.566,260.116L211.289,259.61L212.012,257.719L212.734,261.377L213.457,259.368L214.18,261.224L214.902,261.814L215.625,261.164L216.348,262.404L217.07,262.636L217.793,261.561L218.516,261.697L219.238,262.161L219.961,261.547L220.684,263.281L221.406,261.963L222.129,262.84L222.852,264.646L223.574,264.1L224.297,264.472L225.02,263.78L225.742,264.282L226.465,264.705L227.188,263.964L227.91,263.922L228.633,265.207L229.355,267.091L230.078,266.066L230.801,266.15L231.523,266.583L232.246,267.342L232.969,267.608L233.691,267.768L234.414,268.5L235.137,265.215L235.859,267.815L236.582,268.157L237.305,268.82L238.027,269.004L238.75,267.658L239.473,268.672L240.195,266.954L240.918,270.021L241.641,269.002L242.363,269.408L243.086,269.604L243.809,270.498L244.531,269.58L245.254,270.172L245.977,267.765L246.699,270.11L247.422,269.228L248.145,267.941L248.867,269.418L249.59,270.976L250.313,270.343L251.035,270.519L251.758,270.729L252.48,271.18L253.203,270.339L253.926,270.614L254.648,270.878L255.371,269.508L256.094,269.209L256.816,268.372L257.539,270.819L258.262,269.227L258.984,270.331L259.707,269.795L260.43,269.376L261.152,268.585L261.875,270.593L262.598,268.411L263.32,269.464L264.043,270.46L264.766,269.121L265.488,269.542L266.211,270.717L266.934,268.531L267.656,269.757L268.379,268.911L269.102,270.145L269.824,268.513L270.547,268.802L271.27,268.39L271.992,267.402L272.715,267.771L273.438,266.991L274.16,268.324L274.883,266.918L275.605,266.55L276.328,266.275L277.051,266.493L277.773,268.46L278.496,266.041L279.219,265.366L279.941,264.817L280.664,264.838L281.387,265.687L282.109,263.947L282.832,265.309L283.555,264.126L284.277,263.971L285,263.081L285.723,263.793L286.445,263.602L287.168,263.148L287.891,261.469L288.613,261.012L289.336,262.296L290.059,260.231L290.781,260.827L291.504,260.708L292.227,261.038L292.949,259.577L293.672,259.729L294.395,259.352L295.117,257.843L295.84,258.362L296.563,257.474L297.285,255.777L298.008,256.19L298.73,256.354L299.453,254.98L300.176,254.912L300.898,255.318L301.621,254.968L302.344,252.866L303.066,253.365L303.789,253.001L304.512,252.018L305.234,250.963L305.957,249.769L306.68,249.392L307.402,251.879L308.125,248.447L308.848,247.865L309.57,249.701L310.293,246.297L311.016,246.311L311.738,247.386L312.461,246.34L313.184,245.195L313.906,245.509L314.629,243.656L315.352,242.961L316.074,242.375L316.797,242.426L317.52,241.786L318.242,240.475L318.965,240.461L319.688,239.658L320.41,238.689L321.133,238.827L321.855,238.739L322.578,238.008L323.301,238.75L324.023,236.373L324.746,234.406L325.469,234.71L326.191,234.879L326.914,233.914L327.637,234.684L328.359,231.491L329.082,231.553L329.805,230.973L330.527,230.909L331.25,228.827L331.973,228.367L332.695,227.889L333.418,228.075L334.141,226.671L334.863,226.565L335.586,226.205L336.309,223.558L337.031,222.949L337.754,222.356L338.477,223.119L339.199,221.269L339.922,220.997L340.645,219.637L341.367,220.052L342.09,218.593L342.813,218.501L343.535,217.873L344.258,216.374L344.98,215.84L345.703,215.667L346.426,215.585L347.148,213.701L347.871,212.166L348.594,212.128L349.316,212.041L350.039,210.806L350.762,209.85L351.484,209.872L352.207,209.577L352.93,207.937L353.652,208.47L354.375,206.152L355.098,206.105L355.82,206.026L356.543,203.526L357.266,204.214L357.988,202.37L358.711,200.751L359.434,202.31L360.156,201.332L360.879,200.471L361.602,199.009L362.324,197.196L363.047,197.722L363.77,195.758L364.492,196.781L365.215,195.832L365.938,194.253L366.66,194.433L367.383,191.887L368.105,192.065L368.828,191.667L369.551,190.049L370.273,189.113L370.996,189.512L371.719,189.196L372.441,187.287L373.164,187.86L373.887,185.256L374.609,186.847L375.332,185.586L376.055,184.326L376.777,183.359L377.5,182.943L378.223,182.246L378.945,181.483L379.668,180.633L380.391,180.578L381.113,179.808L381.836,178.401L382.559,178.324L383.281,177.036L384.004,176.367L384.727,174.587L385.449,174.344L386.172,175.348L386.895,172.924L387.617,173.256L388.34,171.832L389.063,171.272L389.785,171.781L390.508,170.32L391.23,168.007L391.953,167.968L392.676,168.443L393.398,167.298L394.121,166.41L394.844,165.446L395.566,165.375L396.289,164.351L397.012,163.107L397.734,162.309L398.457,161.938L399.18,161.916L399.902,160.602L400.625,159.422L401.348,158.608L402.07,158.895L402.793,158.579L403.516,156.073L404.238,156.723L404.961,154.731L405.684,154L406.406,154.66L407.129,154.12L407.852,152.295L408.574,153.172L409.297,152.088L410.02,150.874L410.742,149.726L411.465,149.55L412.188,150.501L412.91,148.577L413.633,148.636L414.355,146.632L415.078,146.937L415.801,146.252L416.523,145.453L417.246,145.024L417.969,144.419L418.691,143.393L419.414,143.099L420.137,141.793L420.859,141.695L421.582,141.526L422.305,139.78L423.027,140.487L423.75,137.798L424.473,137.707L425.195,138.619L425.918,137.992L426.641,137.103L427.363,135.203L428.086,135.44L428.809,135.239L429.531,134.649L430.254,134.206L430.977,133.29L431.699,132.184L432.422,132.006L433.145,132.228L433.867,130.605L434.59,129.637L435.313,128.878L436.035,129.137L436.758,128.155L437.48,127.924L438.203,127.688L438.926,126.576L439.648,126.405L440.371,125.904L441.094,124.697L441.816,124.462L442.539,123.747L443.262,123.202L443.984,122.981L444.707,121.703L445.43,121.872L446.152,120.692L446.875,121.505L447.598,118.21L448.32,118.91L449.043,118.826L449.766,118.076L450.488,118.215L451.211,117.811L451.934,117.863L452.656,117.333L453.379,115.649L454.102,115.925L454.824,114.736L455.547,114.017L456.27,113.14L456.992,113.387L457.715,112.299L458.438,111.917L459.16,112.035L459.883,111.411L460.605,109.922L461.328,110.57L462.051,109.965L462.773,108.724L463.496,108.727L464.219,108.33L464.941,107.697L465.664,107.599L466.387,105.502L467.109,105.76L467.832,105.56L468.555,104.125L469.277,104.345"/><path fill="none" stroke="rgb(63, 243, 147)" stroke-width="1.5" d="M100,233.065L100.723,224.77L101.445,221.333L102.168,219.457L102.891,216.662L103.613,215.353L104.336,210.266L105.059,205.517L105.781,203.898L106.504,200.292L107.227,232.761L107.949,270.401L108.672,274.075L109.395,275.209L110.117,278.065L110.84,280.882L111.563,282.852L112.285,284.145L113.008,284.232L113.73,287.504L114.453,290.033L115.176,290.581L115.898,292.816L116.621,294.182L117.344,294.621L118.066,296.338L118.789,296.507L119.512,298.334L120.234,299.588L120.957,299.337L121.68,298.977L122.402,299.715L123.125,300.806L123.848,299.234L124.57,299.972L125.293,301.312L126.016,300.234L126.738,301.176L127.461,300.088L128.184,299.823L128.906,300.152L129.629,299.714L130.352,299.705L131.074,299.862L131.797,299.575L132.52,300.659L133.242,300.157L133.965,300.828L134.688,300.473L135.41,301L136.133,300.129L136.855,299.093L137.578,299.353L138.301,299.261L139.023,299.427L139.746,299.163L140.469,300.49L141.191,299.045L141.914,299.804L142.637,299.182L143.359,301.845L144.082,298.915L144.805,299.557L145.527,300.067L146.25,299.659L146.973,299.723L147.695,299.934L148.418,301.112L149.141,298.523L149.863,300.202L150.586,299.987L151.309,299.937L152.031,298.767L152.754,300.157L153.477,300.348L154.199,298.648L154.922,298.629L155.645,298.453L156.367,300.075L157.09,297.345L157.813,299.827L158.535,298.076L159.258,298.049L159.98,299.293L160.703,300.817L161.426,297.318L162.148,299.548L162.871,297.418L163.594,297.894L164.316,298.731L165.039,296.949L165.762,299.15L166.484,299.627L167.207,298.559L167.93,298.561L168.652,299.131L169.375,298.47L170.098,297.856L170.82,298.586L171.543,298.342L172.266,298.844L172.988,296.575L173.711,298.744L174.434,296.356L175.156,297.136L175.879,297.228L176.602,298.605L177.324,298.099L178.047,298.078L178.77,297.305L179.492,297.325L180.215,298.117L180.938,298.182L181.66,296.131L182.383,298.089L183.105,299.479L183.828,298.233L184.551,297.843L185.273,297.273L185.996,295.95L186.719,297.618L187.441,298.275L188.164,296.713L188.887,298.114L189.609,297.067L190.332,296.017L191.055,296.803L191.777,298.133L192.5,296.841L193.223,296.932L193.945,298.321L194.668,295.731L195.391,297.469L196.113,296.187L196.836,297.914L197.559,297.802L198.281,298.071L199.004,297.046L199.727,297.093L200.449,295.401L201.172,296.233L201.895,295.729L202.617,295.689L203.34,296.279L204.063,296.318L204.785,295.133L205.508,295.77L206.23,295.937L206.953,294.696L207.676,295.391L208.398,293.172L209.121,294.687L209.844,295.595L210.566,293.913L211.289,294.556L212.012,293.794L212.734,293.521L213.457,294.01L214.18,295.633L214.902,295.648L215.625,294.007L216.348,292.868L217.07,293.329L217.793,293.527L218.516,293.506L219.238,290.316L219.961,293.022L220.684,293.055L221.406,292.219L222.129,291.808L222.852,291.838L223.574,291.736L224.297,290.948L225.02,290.301L225.742,289.144L226.465,291.268L227.188,290.095L227.91,289.513L228.633,289.186L229.355,289.988L230.078,287.438L230.801,287.13L231.523,287.484L232.246,286.342L232.969,286.925L233.691,286.294L234.414,285.922L235.137,286.563L235.859,284.586L236.582,283.028L237.305,282.592L238.027,284.603L238.75,283.47L239.473,281.993L240.195,282.331L240.918,281.113L241.641,280.494L242.363,281.528L243.086,280.11L243.809,278.575L244.531,278.556L245.254,278.591L245.977,277.683L246.699,277.828L247.422,276.919L248.145,276.202L248.867,274.215L249.59,274.747L250.313,273.789L251.035,272.528L251.758,273.955L252.48,272.927L253.203,270.665L253.926,270.279L254.648,268.029L255.371,268.935L256.094,268.509L256.816,267.491L257.539,265.85L258.262,265.848L258.984,266.475L259.707,264.413L260.43,264.37L261.152,263.65L261.875,261.898L262.598,261.732L263.32,260.074L264.043,260.431L264.766,258.029L265.488,258.276L266.211,258.099L266.934,256.068L267.656,255.968L268.379,254.063L269.102,255.656L269.824,252.978L270.547,251.699L271.27,251.784L271.992,251.25L272.715,251.581L273.438,249.396L274.16,247.472L274.883,246.872L275.605,245.999L276.328,244.879L277.051,244.189L277.773,242.399L278.496,241.452L279.219,241.871L279.941,240.68L280.664,239.725L281.387,240.074L282.109,238.383L282.832,237.457L283.555,236.416L284.277,234.68L285,233.86L285.723,233.329L286.445,232.165L287.168,232.768L287.891,229.364L288.613,228.555L289.336,227.042L290.059,227.663L290.781,226.09L291.504,225.619L292.227,224.207L292.949,223.44L293.672,222.834L294.395,221.836L295.117,220.77L295.84,219.708L296.563,218.225L297.285,216.637L298.008,216.372L298.73,215.664L299.453,214.605L300.176,213.682L300.898,212.311L301.621,211.586L302.344,210.949L303.066,209.629L303.789,209.192L304.512,208.673L305.234,206.379L305.957,206.022L306.68,205.64L307.402,204.782L308.125,204.983L308.848,201.45L309.57,202.231L310.293,201.123L311.016,200.348L311.738,198.709L312.461,198.971L313.184,197.89L313.906,196.867L314.629,196.468L315.352,194.603L316.074,193.761L316.797,193.035L317.52,192.055L318.242,190.948L318.965,190.063L319.688,190.239L320.41,188.247L321.133,187.576L321.855,186.251L322.578,185.397L323.301,185.435L324.023,185.026L324.746,182.938L325.469,183.283L326.191,182.765L326.914,180.863L327.637,181.069L328.359,179.782L329.082,178.708L329.805,177.806L330.527,177.41L331.25,177.202L331.973,176.574L332.695,174.7L333.418,175.162L334.141,172.926L334.863,173.714L335.586,172.173L336.309,171.722L337.031,171.328L337.754,169.792L338.477,168.673L339.199,168.342L339.922,167.39L340.645,166.33L341.367,166.228L342.09,165.129L342.813,165.912L343.535,164.138L344.258,164.944L344.98,163.945L345.703,161.812L346.426,161.707L347.148,161.799L347.871,161.134L348.594,159.366L349.316,159.7L350.039,159.137L350.762,157.618L351.484,157.377L352.207,157.259L352.93,155.84L353.652,155.057L354.375,154.299L355.098,154.431L355.82,154.221L356.543,152.463L357.266,152.507L357.988,151.103L358.711,151.432L359.434,150.563L360.156,149.621L360.879,149.179L361.602,148.207L362.324,148.818L363.047,147.65L363.77,147.053L364.492,147.272L365.215,147.116L365.938,145.389L366.66,146.667L367.383,144.491L368.105,145.586L368.828,143.96L369.551,144.609L370.273,141.706L370.996,141.516L371.719,141.743L372.441,141.624L373.164,140.516L373.887,141.23L374.609,140.165L375.332,139.466L376.055,138.855L376.777,138.451L377.5,138.069L378.223,137.72L378.945,136.987L379.668,136.581L380.391,137.202L381.113,136.436L381.836,134.778L382.559,134.831L383.281,135.121L384.004,133.912L384.727,133.776L385.449,133.585L386.172,132.9L386.895,131.689L387.617,132.64L388.34,131.357L389.063,131.624L389.785,130.883L390.508,131.051L391.23,130.574L391.953,128.82L392.676,129.224L393.398,128.408L394.121,127.787L394.844,127.997L395.566,126.887L396.289,127.046L397.012,126.969L397.734,126.885L398.457,126.78L399.18,124.967L399.902,125.751L400.625,124.615L401.348,124.237L402.07,123.739L402.793,123.316L403.516,123.248L404.238,123.839L404.961,122.274L405.684,121.706L406.406,120.669L407.129,120.378L407.852,120.697L408.574,119.964L409.297,118.987L410.02,120.029L410.742,119.315L411.465,119.826L412.188,117.704L412.91,117.806L413.633,118.177L414.355,117.863L415.078,117.091L415.801,116.178L416.523,115.407L417.246,115.619L417.969,115.375L418.691,114.83L419.414,114.561L420.137,113.364L420.859,113.848L421.582,114.585L422.305,113.178L423.027,112.47L423.75,112.228L424.473,111.923L425.195,112.091L425.918,111.005L426.641,111.348L427.363,111.332L428.086,109.789L428.809,109.794L429.531,109.397L430.254,110.081L430.977,108.91L431.699,108.545L432.422,108.336L433.145,107.408L433.867,107.197L434.59,107.397L435.313,107.771L436.035,106.85L436.758,106.762L437.48,105.675L438.203,105.181L438.926,104.02L439.648,104.607L440.371,104.388L441.094,103.964L441.816,104.713L442.539,103.261L443.262,102.926L443.984,103.329L444.707,102.503L445.43,102.408L446.152,101.938L446.875,101.194L447.598,101.613L448.32,100.619L449.043,99.806L449.766,100.074L450.488,101.071L451.211,99.652L451.934,98.929L452.656,99.018L453.379,98.394L454.102,98.007L454.824,97.193L455.547,97.349L456.27,97.939L456.992,96.801L457.715,96.311L458.438,95.978L459.16,95.793L459.883,95.527L460.605,95.035L461.328,95.268L462.051,94.688L462.773,94.266L463.496,93.937L464.219,93.795L464.941,93.581L465.664,93.444L466.387,92.694L467.109,92.25L467.832,91.587L468.555,91.464L469.277,90.737"/><path fill="none" stroke="rgb(149, 251, 81)" stroke-width="1.5" d="M100,216.045L100.723,210.432L101.445,202.345L102.168,201.641L102.891,199.574L103.613,233.896L104.336,273.051L105.059,277.179L105.781,280.005L106.504,282.635L107.227,286.221L107.949,287.783L108.672,289.363L109.395,292.116L110.117,293.506L110.84,296.868L111.563,299.814L112.285,300.542L113.008,302.922L113.73,304.925L114.453,306.431L115.176,308.2L115.898,309.608L116.621,309.967L117.344,313.144L118.066,312.775L118.789,315.829L119.512,315.751L120.234,316.615L120.957,316.261L121.68,315.965L122.402,318.766L123.125,319.185L123.848,318.777L124.57,316.603L125.293,317.799L126.016,319.412L126.738,318.468L127.461,319.26L128.184,317.957L128.906,318.896L129.629,319.259L130.352,318.128L131.074,319.236L131.797,318.637L132.52,318.09L133.242,317.651L133.965,318.613L134.688,319.31L135.41,319.303L136.133,318.908L136.855,318.706L137.578,318.808L138.301,319.252L139.023,317.095L139.746,319.961L140.469,318.583L141.191,318.812L141.914,320.683L142.637,318.793L143.359,318.728L144.082,319.56L144.805,318.472L145.527,318.449L146.25,320.653L146.973,319.003L147.695,318.306L148.418,319.772L149.141,319.456L149.863,319.945L150.586,320.528L151.309,319.219L152.031,319.707L152.754,319.667L153.477,319.341L154.199,320.927L154.922,319.527L155.645,320.072L156.367,318.292L157.09,319.715L157.813,317.455L158.535,318.121L159.258,319.292L159.98,319.443L160.703,319.377L161.426,318.053L162.148,318.646L162.871,318.759L163.594,317.417L164.316,318.795L165.039,317.856L165.762,318.399L166.484,317.002L167.207,317.432L167.93,317.213L168.652,319.263L169.375,318.26L170.098,317.823L170.82,317.007L171.543,317.807L172.266,317.895L172.988,317.53L173.711,315.883L174.434,316.637L175.156,316.61L175.879,317.797L176.602,317.211L177.324,316.363L178.047,316.597L178.77,315.399L179.492,317.47L180.215,316.227L180.938,316.072L181.66,317.366L182.383,318.246L183.105,316.597L183.828,314.754L184.551,316.408L185.273,315.06L185.996,315.531L186.719,315.62L187.441,315.07L188.164,314.798L188.887,314.446L189.609,314.147L190.332,313.933L191.055,314.002L191.777,313.836L192.5,314.614L193.223,312.013L193.945,311.657L194.668,313.963L195.391,312.446L196.113,312.9L196.836,311.442L197.559,312.228L198.281,312.933L199.004,311.659L199.727,310.925L200.449,310.061L201.172,311.712L201.895,311.11L202.617,309.115L203.34,309.615L204.063,309.672L204.785,308.031L205.508,309.624L206.23,308.252L206.953,307.944L207.676,307.236L208.398,304.725L209.121,305.805L209.844,306.113L210.566,305.427L211.289,305.072L212.012,302.865L212.734,304.469L213.457,304.646L214.18,303.386L214.902,302.068L215.625,300.953L216.348,300.693L217.07,302.106L217.793,301.172L218.516,297.729L219.238,297.473L219.961,298.872L220.684,295.746L221.406,297.022L222.129,296.692L222.852,295.725L223.574,295.172L224.297,292.827L225.02,293.876L225.742,294.119L226.465,292.149L227.188,290.338L227.91,290.504L228.633,288.027L229.355,288.651L230.078,289.243L230.801,286.824L231.523,285.896L232.246,283.271L232.969,284.313L233.691,284.687L234.414,282.343L235.137,282.012L235.859,279.642L236.582,279.019L237.305,278.503L238.027,277.885L238.75,278.569L239.473,275.917L240.195,274.713L240.918,272.845L241.641,273.436L242.363,271.911L243.086,271.771L243.809,268.621L244.531,268.746L245.254,267.433L245.977,266.485L246.699,264.454L247.422,265.631L248.145,261.129L248.867,261.661L249.59,262.511L250.313,259.716L251.035,258.011L251.758,257.325L252.48,257.106L253.203,254.681L253.926,254.593L254.648,252.947L255.371,252.35L256.094,249.995L256.816,248.085L257.539,248.938L258.262,246.536L258.984,244.264L259.707,244.299L260.43,242.833L261.152,241.571L261.875,241.082L262.598,238.39L263.32,237.913L264.043,236.447L264.766,234.838L265.488,232.485L266.211,232.393L266.934,231.281L267.656,229.036L268.379,228.578L269.102,227.164L269.824,225.768L270.547,225.904L271.27,224.236L271.992,219.215L272.715,219.738L273.438,218.281L274.16,218.003L274.883,217.236L275.605,215.965L276.328,215.349L277.051,211.92L277.773,210.878L278.496,208.784L279.219,209.81L279.941,207.733L280.664,204.774L281.387,204.431L282.109,204.375L282.832,201.561L283.555,201.269L284.277,199.485L285,198.796L285.723,196.362L286.445,195.695L287.168,196.172L287.891,192.235L288.613,190.494L289.336,190.033L290.059,190.325L290.781,188.04L291.504,188.443L292.227,184.227L292.949,184.402L293.672,183.172L294.395,181.915L295.117,180.243L295.84,178.673L296.563,177.751L297.285,177.104L298.008,175.517L298.73,174.273L299.453,173.985L300.176,172.042L300.898,172.56L301.621,169.389L302.344,168.601L303.066,167.172L303.789,165.478L304.512,164.434L305.234,163.227L305.957,162.1L306.68,162.079L307.402,159.242L308.125,159.445L308.848,157.803L309.57,156.748L310.293,155.554L311.016,155.137L311.738,153.493L312.461,153.179L313.184,151.095L313.906,150.792L314.629,149.975L315.352,148.703L316.074,147.896L316.797,145.396L317.52,145.004L318.242,144.3L318.965,143.352L319.688,142.047L320.41,141.776L321.133,139.608L321.855,139.979L322.578,138.901L323.301,137.973L324.023,138.017L324.746,136.472L325.469,135.536L326.191,134.557L326.914,133.733L327.637,133.589L328.359,131.078L329.082,130.303L329.805,130.22L330.527,130.23L331.25,129.075L331.973,128.135L332.695,126.635L333.418,126.49L334.141,124.229L334.863,123.864L335.586,123.63L336.309,123.373L337.031,121.646L337.754,121.463L338.477,121.201L339.199,120.899L339.922,119.329L340.645,118.668L341.367,117.304L342.09,116.817L342.813,116.513L343.535,115.818L344.258,116.337L344.98,115.056L345.703,114.806L346.426,113.504L347.148,112.011L347.871,111.944L348.594,112.259L349.316,111.938L350.039,110.134L350.762,110.361L351.484,109.759L352.207,109.49L352.93,107.479L353.652,108.106L354.375,107.45L355.098,107.001L355.82,105.672L356.543,105.587L357.266,104.339L357.988,103.739L358.711,104.191L359.434,102.849L360.156,102.517L360.879,103.178L361.602,101.977L362.324,101.617L363.047,101.154L363.77,100.221L364.492,100.557L365.215,98.955L365.938,100.488L366.66,98.566L367.383,99.512L368.105,97.941L368.828,96.706L369.551,97.05L370.273,97.095L370.996,97.057L371.719,96.181L372.441,96.618L373.164,95.501L373.887,94.548L374.609,93.906L375.332,94.698L376.055,93.678L376.777,93.423L377.5,92.955L378.223,92.691L378.945,92.749L379.668,91.352L380.391,91.054L381.113,91.521L381.836,91.03L382.559,89.995L383.281,89.477L384.004,89.914L384.727,90.18L385.449,88.888L386.172,89.217L386.895,88.98L387.617,87.247L388.34,88.127L389.063,88.428L389.785,87.229L390.508,87.646L391.23,86.919L391.953,86.68L392.676,86.694L393.398,86.657L394.121,85.825L394.844,85.433L395.566,85.705L396.289,85.936L397.012,84.828L397.734,84.357L398.457,84.396L399.18,84.669L399.902,83.887L400.625,84.356L401.348,83.831L402.07,83.042L402.793,82.595L403.516,83.15L404.238,82.515L404.961,82.358L405.684,82.828L406.406,81.353L407.129,82.023L407.852,81.331L408.574,81.467L409.297,80.209L410.02,81.143L410.742,80.429L411.465,80.697L412.188,80.95L412.91,79.985L413.633,79.468L414.355,79.655L415.078,79.734L415.801,79.219L416.523,78.896L417.246,77.998L417.969,78.604L418.691,78.48L419.414,77.904L420.137,77.688L420.859,77.31L421.582,77.749L422.305,77.667L423.027,77.272L423.75,76.906L424.473,77.24L425.195,76.788L425.918,76.861L426.641,76.797L427.363,76.058L428.086,75.401L428.809,75.692L429.531,74.893L430.254,74.872L430.977,75.135L431.699,74.577L432.422,74.608L433.145,74.906L433.867,74.779L434.59,74.2L435.313,73.983L436.035,74.113L436.758,73.12L437.48,73.169L438.203,72.726L438.926,73.085L439.648,72.666L440.371,72.671L441.094,72.748L441.816,71.784L442.539,71.806L443.262,72.04L443.984,71.547L444.707,71.535L445.43,71.913L446.152,71.003L446.875,71.575L447.598,70.753L448.32,70.902L449.043,70.283L449.766,70.213L450.488,69.879L451.211,70.609L451.934,70.199L452.656,70.051L453.379,69.213L454.102,69.444L454.824,69.454L455.547,69.084L456.27,67.916L456.992,68.889L457.715,68.932L458.438,68.366L459.16,68.532L459.883,68.022L460.605,67.824L461.328,67.059L462.051,66.7L462.773,67.86L463.496,66.56L464.219,66.683L464.941,66.948L465.664,66.347L466.387,67.045L467.109,65.866L467.832,66.159L468.555,65.646L469.277,65.247"/><path fill="none" stroke="rgb(236, 209, 46)" stroke-width="1.5" d="M100,219.19L100.723,212.47L101.445,201.051L102.168,221.687L102.891,265.034L103.613,268.453L104.336,272.709L105.059,275.013L105.781,279.135L106.504,281.852L107.227,284.859L107.949,288.083L108.672,287.362L109.395,292.813L110.117,293.993L110.84,295.742L111.563,299.265L112.285,301.8L113.008,303.64L113.73,304.506L114.453,305.902L115.176,308.574L115.898,311.521L116.621,311.582L117.344,314.031L118.066,312.746L118.789,315.812L119.512,316.656L120.234,316.982L120.957,318.825L121.68,317.643L122.402,318.586L123.125,320.239L123.848,320.04L124.57,319.818L125.293,318.166L126.016,320.768L126.738,321.836L127.461,321.622L128.184,322.018L128.906,319.998L129.629,320.825L130.352,322.178L131.074,321.768L131.797,321.451L132.52,320.807L133.242,321.466L133.965,321.004L134.688,321.731L135.41,321.674L136.133,319.835L136.855,322.405L137.578,320.435L138.301,320.239L139.023,322.826L139.746,323.117L140.469,322.273L141.191,323L141.914,323.386L142.637,322.035L143.359,322.539L144.082,322.488L144.805,323.044L145.527,322.988L146.25,323.173L146.973,322.471L147.695,323.54L148.418,326.03L149.141,323.191L149.863,324.447L150.586,323.417L151.309,325.43L152.031,323.96L152.754,323.066L153.477,324.445L154.199,323.423L154.922,323.853L155.645,325.99L156.367,323.458L157.09,324.654L157.813,324.242L158.535,325.484L159.258,325.822L159.98,324.611L160.703,323.426L161.426,326.736L162.148,324.343L162.871,324.876L163.594,325.257L164.316,325.445L165.039,324.769L165.762,327.124L166.484,325.358L167.207,324.516L167.93,325.718L168.652,326.1L169.375,324.944L170.098,325.683L170.82,325.158L171.543,324.935L172.266,325.091L172.988,325.061L173.711,325.966L174.434,326.732L175.156,322.719L175.879,326.016L176.602,325.564L177.324,325.326L178.047,324.326L178.77,324.465L179.492,324.121L180.215,324.425L180.938,322.891L181.66,324.329L182.383,324.04L183.105,324.004L183.828,321.434L184.551,323.361L185.273,323.191L185.996,323.907L186.719,321.798L187.441,321.565L188.164,323.352L188.887,321.943L189.609,323.535L190.332,321.656L191.055,322.371L191.777,320.613L192.5,320.696L193.223,321.465L193.945,320.907L194.668,320.006L195.391,320.416L196.113,320.07L196.836,318.539L197.559,318.157L198.281,318.93L199.004,319.311L199.727,317.042L200.449,316.441L201.172,317.144L201.895,315.363L202.617,313.768L203.34,314.52L204.063,313.382L204.785,315.69L205.508,311.847L206.23,311.731L206.953,312.387L207.676,310.175L208.398,311.086L209.121,309.817L209.844,309.788L210.566,309.574L211.289,307.785L212.012,306.503L212.734,306.323L213.457,306.805L214.18,304.382L214.902,303.061L215.625,303.125L216.348,303.36L217.07,301.637L217.793,300.413L218.516,299.521L219.238,299.289L219.961,297.379L220.684,297.412L221.406,295.577L222.129,294.332L222.852,294.77L223.574,293.671L224.297,292.845L225.02,293.032L225.742,288.72L226.465,289.419L227.188,287.681L227.91,287.999L228.633,284.191L229.355,283.984L230.078,284.501L230.801,282.187L231.523,281.514L232.246,280.421L232.969,278.564L233.691,279.765L234.414,275.953L235.137,274.509L235.859,272.668L236.582,271.178L237.305,270.697L238.027,272.202L238.75,267.391L239.473,267.455L240.195,265.587L240.918,264.948L241.641,262.796L242.363,261.028L243.086,260.418L243.809,259.317L244.531,260.064L245.254,258.536L245.977,254.969L246.699,253.916L247.422,250.241L248.145,251.141L248.867,248.017L249.59,247.218L250.313,246.345L251.035,244.65L251.758,244.532L252.48,240.58L253.203,240.523L253.926,238.84L254.648,236.486L255.371,235.902L256.094,234.967L256.816,233.189L257.539,231.194L258.262,229.449L258.984,228.864L259.707,228.48L260.43,225.428L261.152,223.558L261.875,221.994L262.598,220.638L263.32,220.094L264.043,217.822L264.766,216.156L265.488,215.415L266.211,213.549L266.934,208.739L267.656,209.581L268.379,207.27L269.102,206.031L269.824,205.212L270.547,203.489L271.27,200.389L271.992,199.451L272.715,198.767L273.438,197.534L274.16,195.601L274.883,194.089L275.605,190.758L276.328,190.194L277.051,189.754L277.773,186.971L278.496,186.503L279.219,186.084L279.941,182.593L280.664,180.98L281.387,180.128L282.109,180.034L282.832,176.806L283.555,175.7L284.277,174.527L285,172.953L285.723,171.672L286.445,170.071L287.168,168.286L287.891,167.14L288.613,166.99L289.336,165.874L290.059,163.052L290.781,161.175L291.504,159.553L292.227,159.417L292.949,157.465L293.672,155.756L294.395,154.731L295.117,153.373L295.84,152.72L296.563,150.001L297.285,148.847L298.008,148.392L298.73,145.964L299.453,146.671L300.176,144.146L300.898,142.395L301.621,142.38L302.344,140.165L303.066,139.691L303.789,136.705L304.512,136.852L305.234,135.463L305.957,134.187L306.68,132.865L307.402,132.031L308.125,131.342L308.848,130.475L309.57,129.1L310.293,126.96L311.016,127.701L311.738,125.713L312.461,125.408L313.184,122.487L313.906,121.392L314.629,121.265L315.352,120.295L316.074,120.048L316.797,118.247L317.52,116.612L318.242,115.235L318.965,114.692L319.688,114.114L320.41,113.107L321.133,111.758L321.855,111.13L322.578,110.488L323.301,109.083L324.023,107.299L324.746,107.378L325.469,106.419L326.191,105.043L326.914,104.761L327.637,104.772L328.359,102.42L329.082,102.59L329.805,101.363L330.527,99.936L331.25,100.527L331.973,98.66L332.695,97.941L333.418,96.246L334.141,97.246L334.863,95.273L335.586,94.7L336.309,93.877L337.031,92.725L337.754,92.245L338.477,91.713L339.199,90.878L339.922,90.536L340.645,89.793L341.367,88.589L342.09,87.896L342.813,87.381L343.535,86.408L344.258,85.723L344.98,85.685L345.703,84.986L346.426,83.238L347.148,83.466L347.871,82.871L348.594,81.584L349.316,81.935L350.039,81.434L350.762,80.842L351.484,80.23L352.207,79.955L352.93,78.489L353.652,78.056L354.375,77.987L355.098,77.213L355.82,76.437L356.543,76.146L357.266,75.219L357.988,74.828L358.711,74.024L359.434,73.731L360.156,73.809L360.879,72.401L361.602,72.357L362.324,71.085L363.047,70.876L363.77,70.972L364.492,69.914L365.215,70.757L365.938,68.825L366.66,69.677L367.383,67.855L368.105,67.736L368.828,67.738L369.551,67.202L370.273,66.535L370.996,66.768L371.719,65.902L372.441,65.332L373.164,65.562L373.887,65.018L374.609,64.244L375.332,64.035L376.055,63.527L376.777,62.611L377.5,61.998L378.223,61.988L378.945,62.006L379.668,61.35L380.391,61.073L381.113,61.065L381.836,60.772L382.559,59.89L383.281,60.336L384.004,59.943L384.727,59.425L385.449,58.718L386.172,58.587L386.895,59.025L387.617,57.324L388.34,57.44L389.063,57.164L389.785,56.483L390.508,56.003L391.23,56.046L391.953,55.775L392.676,55.811L393.398,55.736L394.121,54.674L394.844,54.919L395.566,54.255L396.289,54.229L397.012,53.931L397.734,53.96L398.457,53.667L399.18,52.838L399.902,52.662L400.625,52.404L401.348,52.26L402.07,51.427L402.793,51.53L403.516,51.378L404.238,51.366L404.961,51.259L405.684,50.449L406.406,51.246L407.129,49.883L407.852,49.696L408.574,49.652L409.297,49.88L410.02,49.577L410.742,49.339L411.465,48.789L412.188,48.305L412.91,48.719L413.633,48.463L414.355,48.371L415.078,47.538L415.801,47.4L416.523,47.409L417.246,47.077L417.969,47.674L418.691,46.573L419.414,46.379L420.137,46.526L420.859,45.959L421.582,45.805L422.305,45.573L423.027,45.544L423.75,45.56L424.473,45.344L425.195,44.615L425.918,45.215L426.641,45.046L427.363,44.128L428.086,44.572L428.809,44.283L429.531,43.797L430.254,43.3L430.977,43.802L431.699,43.863L432.422,43.415L433.145,43.323L433.867,43.18L434.59,42.652L435.313,43.153L436.035,42.362L436.758,42.05L437.48,41.867L438.203,42.26L438.926,42.094L439.648,41.597L440.371,41.336L441.094,41.141L441.816,41.265L442.539,41.122L443.262,41.037L443.984,40.303L444.707,40.772L445.43,40.606L446.152,40.04L446.875,40.161L447.598,39.915L448.32,39.972L449.043,40.081L449.766,39.598L450.488,39.596L451.211,39.458L451.934,39.283L452.656,39.685L453.379,39.071L454.102,38.654L454.824,38.715L455.547,38.592L456.27,38.729L456.992,38.57L457.715,38.6L458.438,38.231L459.16,38.278L459.883,38.199L460.605,37.979L461.328,37.55L462.051,37.603L462.773,37.435L463.496,37.35L464.219,37.391L464.941,37.008L465.664,36.985L466.387,37.381L467.109,36.828L467.832,37.106L468.555,36.633L469.277,36.307"/><path fill="none" stroke="rgb(255, 130, 29)" stroke-width="1.5" d="M100,219.863L100.723,215.509L101.445,201.531L102.168,246.988L102.891,256.19L103.613,264.649L104.336,268.855L105.059,272.97L105.781,273.975L106.504,279.59L107.227,283.143L107.949,283.116L108.672,286.466L109.395,289.942L110.117,292.675L110.84,294.899L111.563,297.605L112.285,297.729L113.008,299.794L113.73,303.375L114.453,303.934L115.176,306.548L115.898,309.047L116.621,310.342L117.344,311.994L118.066,312.242L118.789,313.851L119.512,315.457L120.234,315.528L120.957,316.913L121.68,318.621L122.402,319.43L123.125,319.875L123.848,320.156L124.57,320.159L125.293,318.758L126.016,319.609L126.738,320.364L127.461,320.234L128.184,321.316L128.906,320.547L129.629,320.214L130.352,321.026L131.074,321.34L131.797,320.986L132.52,321.056L133.242,321.526L133.965,322.772L134.688,321.64L135.41,321.842L136.133,322.358L136.855,322.851L137.578,322.943L138.301,323.702L139.023,322.369L139.746,323.783L140.469,325.951L141.191,324.661L141.914,323.495L142.637,324.586L143.359,325.35L144.082,324.889L144.805,325.836L145.527,325.046L146.25,326.227L146.973,325.797L147.695,325.775L148.418,325.862L149.141,327.931L149.863,327.076L150.586,327.786L151.309,326.645L152.031,327.241L152.754,327.266L153.477,329.25L154.199,329.411L154.922,328.085L155.645,329.336L156.367,326.781L157.09,329.635L157.813,329.611L158.535,330.786L159.258,330.557L159.98,331.402L160.703,331.26L161.426,331.747L162.148,330.645L162.871,330.873L163.594,332.185L164.316,331.66L165.039,331.534L165.762,333.501L166.484,332.486L167.207,333.432L167.93,333.587L168.652,330.64L169.375,334.743L170.098,333.614L170.82,332.719L171.543,332.602L172.266,333.743L172.988,333.583L173.711,333.812L174.434,334.043L175.156,334.138L175.879,334.509L176.602,332.765L177.324,334.94L178.047,335.76L178.77,335.63L179.492,335.865L180.215,335.163L180.938,335.465L181.66,334.916L182.383,334.014L183.105,332.325L183.828,332.421L184.551,332.356L185.273,335.781L185.996,333.114L186.719,333.337L187.441,335.02L188.164,334.4L188.887,333.75L189.609,334.347L190.332,334.944L191.055,334.995L191.777,334.141L192.5,334.349L193.223,334.195L193.945,334.368L194.668,333.093L195.391,333.557L196.113,332.617L196.836,332.735L197.559,331.503L198.281,332.18L199.004,331.013L199.727,332.876L200.449,329.968L201.172,327.997L201.895,330.218L202.617,329.68L203.34,328.396L204.063,328.026L204.785,327.719L205.508,327.925L206.23,326.642L206.953,325.076L207.676,326.318L208.398,323.254L209.121,323.844L209.844,321.17L210.566,321.589L211.289,321.74L212.012,322.178L212.734,320.157L213.457,318.679L214.18,318.466L214.902,318.585L215.625,314.922L216.348,316.074L217.07,314.921L217.793,313.641L218.516,312.98L219.238,311.176L219.961,311.039L220.684,310.045L221.406,309.101L222.129,308.283L222.852,304.939L223.574,305.652L224.297,304.324L225.02,303.357L225.742,300.883L226.465,301.633L227.188,300.284L227.91,299.586L228.633,299.249L229.355,296.358L230.078,295.831L230.801,293.957L231.523,291.781L232.246,290.184L232.969,290.09L233.691,289.514L234.414,285.907L235.137,285.5L235.859,284.828L236.582,282.842L237.305,280.543L238.027,278.274L238.75,279.431L239.473,276.488L240.195,273.469L240.918,273.591L241.641,271.289L242.363,268.588L243.086,268.769L243.809,267.133L244.531,264.75L245.254,263.814L245.977,262.077L246.699,260.93L247.422,258.78L248.145,257.809L248.867,255.206L249.59,253.958L250.313,252.192L251.035,250.964L251.758,249.7L252.48,248.027L253.203,245.788L253.926,243.95L254.648,243.319L255.371,239.995L256.094,239.333L256.816,236.842L257.539,235.519L258.262,232.447L258.984,231.401L259.707,229.816L260.43,227.703L261.152,225.044L261.875,224.834L262.598,222.756L263.32,222.063L264.043,219.063L264.766,218.81L265.488,216.901L266.211,215.104L266.934,213.704L267.656,211.558L268.379,209.125L269.102,205.937L269.824,204.728L270.547,204.219L271.27,201.236L271.992,200.586L272.715,198.939L273.438,196.817L274.16,196.084L274.883,194.27L275.605,192.395L276.328,191.139L277.051,188.191L277.773,186.618L278.496,184.946L279.219,184.378L279.941,182.263L280.664,180.568L281.387,178.111L282.109,176.774L282.832,175.503L283.555,174.22L284.277,171.986L285,171.078L285.723,168.465L286.445,167.898L287.168,166.012L287.891,164.045L288.613,163.164L289.336,161.33L290.059,158.22L290.781,158.334L291.504,157.244L292.227,155.749L292.949,154.381L293.672,153.247L294.395,151.36L295.117,150.315L295.84,147.445L296.563,146.593L297.285,145.065L298.008,143.123L298.73,142.959L299.453,140.026L300.176,139.009L300.898,137.646L301.621,136.149L302.344,135.274L303.066,133.848L303.789,132.592L304.512,131.14L305.234,130.62L305.957,130.331L306.68,128.047L307.402,126.484L308.125,125.824L308.848,124.519L309.57,122.672L310.293,121.444L311.016,121.117L311.738,119.816L312.461,117.596L313.184,117.043L313.906,115.644L314.629,114.713L315.352,113.473L316.074,111.869L316.797,111.941L317.52,109.698L318.242,108.763L318.965,108.821L319.688,106.324L320.41,105.462L321.133,106.256L321.855,104.856L322.578,103.235L323.301,102.097L324.023,101.283L324.746,100.284L325.469,99.964L326.191,99.097L326.914,97.778L327.637,97.065L328.359,95.921L329.082,95.161L329.805,93.912L330.527,92.643L331.25,92.201L331.973,90.538L332.695,90.465L333.418,90.313L334.141,88.453L334.863,88.366L335.586,86.979L336.309,85.808L337.031,84.732L337.754,84.991L338.477,83.023L339.199,82.752L339.922,83.058L340.645,80.732L341.367,81.699L342.09,80.41L342.813,78.9L343.535,77.746L344.258,78.325L344.98,77.41L345.703,76.719L346.426,75.362L347.148,75.285L347.871,74.959L348.594,73.628L349.316,73.74L350.039,72.455L350.762,71.504L351.484,71.083L352.207,70.137L352.93,70.195L353.652,69.234L354.375,68.411L355.098,67.823L355.82,67.516L356.543,66.998L357.266,66.228L357.988,65.806L358.711,65.639L359.434,64.501L360.156,63.901L360.879,63.27L361.602,62.79L362.324,62.487L363.047,61.475L363.77,61.573L364.492,61.256L365.215,59.434L365.938,60.269L366.66,59.053L367.383,58.66L368.105,58.263L368.828,57.583L369.551,57.818L370.273,57.121L370.996,55.678L371.719,55.952L372.441,55.494L373.164,54.115L373.887,53.882L374.609,54.442L375.332,53.436L376.055,52.831L376.777,51.994L377.5,52.445L378.223,51.499L378.945,51.719L379.668,50.688L380.391,49.979L381.113,49.886L381.836,49.773L382.559,49.059L383.281,48.894L384.004,48.331L384.727,48.338L385.449,48.188L386.172,47.167L386.895,47.266L387.617,46.413L388.34,45.699L389.063,45.647L389.785,45.499L390.508,45.208L391.23,44.908L391.953,44.307L392.676,44.415L393.398,43.642L394.121,43.566L394.844,42.792L395.566,43.072L396.289,42.463L397.012,41.862L397.734,42.065L398.457,41.147L399.18,40.898L399.902,40.789L400.625,40.308L401.348,40.039L402.07,39.374L402.793,39.019L403.516,38.704L404.238,39.058L404.961,38.742L405.684,38.734L406.406,37.875L407.129,37.422L407.852,36.832L408.574,37.031L409.297,36.717L410.02,36.115L410.742,35.972L411.465,35.236L412.188,35.509L412.91,35.57L413.633,34.845L414.355,35.414L415.078,35.059L415.801,34.613L416.523,33.896L417.246,33.397L417.969,33.946L418.691,33.837L419.414,33.345L420.137,32.801L420.859,32.71L421.582,32.009L422.305,32.441L423.027,31.781L423.75,31.483L424.473,31.542L425.195,31.348L425.918,31.034L426.641,30.603L427.363,30.458L428.086,30.12L428.809,30.13L429.531,29.78L430.254,29.715L430.977,29.241L431.699,29.138L432.422,29.384L433.145,28.462L433.867,28.464L434.59,28.207L435.313,27.748L436.035,28.316L436.758,27.919L437.48,27.261L438.203,27.599L438.926,27.534L439.648,27.126L440.371,26.794L441.094,26.525L441.816,26.729L442.539,25.898L443.262,25.776L443.984,26.168L444.707,25.291L445.43,24.961L446.152,25.422L446.875,25.382L447.598,24.903L448.32,24.967L449.043,24.192L449.766,24.355L450.488,23.898L451.211,24.073L451.934,23.529L452.656,23.744L453.379,23.43L454.102,23.618L454.824,23.324L455.547,22.755L456.27,22.563L456.992,22.405L457.715,22.417L458.438,22.488L459.16,22.087L459.883,21.739L460.605,21.836L461.328,21.935L462.051,21.721L462.773,21.541L463.496,21.771L464.219,21.379L464.941,21.207L465.664,21.106L466.387,20.299L467.109,20.862L467.832,20.751L468.555,20.243L469.277,20"/><path fill="none" stroke="rgb(203, 47, 13)" stroke-width="1.5" d="M100,219.952L100.723,216.756L101.445,205.466L102.168,245.817L102.891,254.995L103.613,262.698L104.336,268.313L105.059,270.807L105.781,275.594L106.504,278.46L107.227,281.329L107.949,285.417L108.672,287.869L109.395,288.211L110.117,291.741L110.84,293.336L111.563,296.903L112.285,297.681L113.008,300.467L113.73,302.697L114.453,304.438L115.176,304.731L115.898,307.763L116.621,309.387L117.344,310.12L118.066,311.569L118.789,313.445L119.512,315.34L120.234,316.405L120.957,316.686L121.68,317.608L122.402,318.545L123.125,319.476L123.848,320.254L124.57,317.871L125.293,320.492L126.016,321.728L126.738,320.622L127.461,319.832L128.184,320.035L128.906,319.307L129.629,321.694L130.352,321.455L131.074,322.769L131.797,322.119L132.52,322L133.242,322.494L133.965,324.064L134.688,322.42L135.41,322.315L136.133,321.872L136.855,322.511L137.578,324.568L138.301,323.166L139.023,325.323L139.746,325.054L140.469,324.723L141.191,323.899L141.914,326.298L142.637,325.435L143.359,326.298L144.082,326.023L144.805,326.984L145.527,327.725L146.25,326.405L146.973,329.691L147.695,330.241L148.418,330.025L149.141,329.244L149.863,327.193L150.586,329.092L151.309,329.329L152.031,329.057L152.754,328.967L153.477,330.751L154.199,330.728L154.922,333.645L155.645,331.937L156.367,330.86L157.09,332.897L157.813,331.446L158.535,334.782L159.258,332.895L159.98,333.2L160.703,333.767L161.426,335.47L162.148,333.723L162.871,335.404L163.594,336.602L164.316,334.592L165.039,336.379L165.762,336.691L166.484,337.797L167.207,339.783L167.93,338.539L168.652,337.909L169.375,338.285L170.098,339.566L170.82,338.377L171.543,340.086L172.266,339.718L172.988,341.382L173.711,340.921L174.434,341.981L175.156,341.597L175.879,341.948L176.602,341.919L177.324,342.41L178.047,343.71L178.77,344.007L179.492,342.925L180.215,342.927L180.938,345.025L181.66,344.21L182.383,344.603L183.105,343.619L183.828,344.242L184.551,343.628L185.273,345.482L185.996,346.062L186.719,344.608L187.441,345.92L188.164,345.668L188.887,346.078L189.609,346.834L190.332,347.215L191.055,345.756L191.777,344.9L192.5,348.706L193.223,348.586L193.945,345.571L194.668,346.702L195.391,345.011L196.113,350L196.836,347.736L197.559,347.182L198.281,346.42L199.004,347.218L199.727,345.41L200.449,345.539L201.172,344.429L201.895,347.049L202.617,344.014L203.34,345.287L204.063,346.223L204.785,348.082L205.508,346.09L206.23,345.024L206.953,343.468L207.676,343.549L208.398,343.435L209.121,343.653L209.844,342.29L210.566,342.273L211.289,340.203L212.012,340.632L212.734,341.686L213.457,338.413L214.18,339.731L214.902,339.569L215.625,339.769L216.348,336.993L217.07,336.062L217.793,336.109L218.516,336.02L219.238,336.994L219.961,334.021L220.684,334.337L221.406,333.372L222.129,331.162L222.852,329.98L223.574,331.103L224.297,329.687L225.02,327.296L225.742,326.304L226.465,327.917L227.188,325.035L227.91,324.87L228.633,322.301L229.355,321.947L230.078,320.951L230.801,319.978L231.523,318.722L232.246,318.996L232.969,316.399L233.691,317.505L234.414,316.337L235.137,312.654L235.859,312.97L236.582,310.723L237.305,309.201L238.027,307.985L238.75,307.946L239.473,306.221L240.195,304.609L240.918,304.039L241.641,302.16L242.363,300.127L243.086,298.279L243.809,297.957L244.531,297.003L245.254,294.68L245.977,293.761L246.699,291.579L247.422,291.244L248.145,290.298L248.867,288.298L249.59,286.487L250.313,284.639L251.035,283.648L251.758,282.045L252.48,281.497L253.203,279.873L253.926,277.942L254.648,277.468L255.371,275.04L256.094,274.289L256.816,270.365L257.539,270.191L258.262,270.153L258.984,265.977L259.707,265.602L260.43,261.853L261.152,262.861L261.875,259.631L262.598,257.089L263.32,257.305L264.043,254.741L264.766,253.093L265.488,252.527L266.211,250.516L266.934,250.429L267.656,248.133L268.379,245.658L269.102,244.675L269.824,243.404L270.547,240.925L271.27,239.72L271.992,237.226L272.715,235.007L273.438,235.916L274.16,232.813L274.883,231.382L275.605,229.879L276.328,229.476L277.051,225.427L277.773,224.988L278.496,223.048L279.219,219.969L279.941,221.095L280.664,216.261L281.387,217.569L282.109,213.432L282.832,214.502L283.555,211.955L284.277,212.284L285,209.314L285.723,205.991L286.445,206.95L287.168,205.121L287.891,203.062L288.613,201.364L289.336,199.755L290.059,197.737L290.781,196.829L291.504,194.906L292.227,194.509L292.949,192.491L293.672,191.153L294.395,188.46L295.117,187.634L295.84,186.097L296.563,184.744L297.285,182.397L298.008,181.975L298.73,180.825L299.453,180.092L300.176,177.796L300.898,176.01L301.621,175.788L302.344,173.183L303.066,171.476L303.789,171.54L304.512,168.954L305.234,167.382L305.957,165.693L306.68,165.679L307.402,165.476L308.125,163.47L308.848,162.651L309.57,160.627L310.293,159.336L311.016,158.472L311.738,156.131L312.461,155.546L313.184,154.184L313.906,153.837L314.629,151.692L315.352,150.663L316.074,149.52L316.797,148.368L317.52,147.756L318.242,145.326L318.965,144.729L319.688,143.924L320.41,142.098L321.133,143.158L321.855,139.808L322.578,138.685L323.301,137.998L324.023,137.004L324.746,135.576L325.469,135.41L326.191,134.2L326.914,132.397L327.637,132.725L328.359,131.292L329.082,129.887L329.805,129.898L330.527,127.17L331.25,126.567L331.973,125.903L332.695,125.45L333.418,123.138L334.141,123.573L334.863,121.362L335.586,120.444L336.309,120.591L337.031,119.21L337.754,118.27L338.477,117.806L339.199,115.804L339.922,117.31L340.645,114.777L341.367,113.868L342.09,113.465L342.813,113.658L343.535,110.597L344.258,109.967L344.98,108.584L345.703,108.227L346.426,109.189L347.148,107.327L347.871,105.604L348.594,106.868L349.316,103.709L350.039,102.888L350.762,102.719L351.484,101.989L352.207,101.115L352.93,101.29L353.652,99.446L354.375,99.543L355.098,99.607L355.82,97.586L356.543,96.748L357.266,96.271L357.988,96.229L358.711,95.422L359.434,93.301L360.156,93.132L360.879,93.43L361.602,91.629L362.324,90.836L363.047,89.852L363.77,90.098L364.492,89.592L365.215,88.434L365.938,87.608L366.66,87.524L367.383,85.74L368.105,86.752L368.828,85.727L369.551,83.857L370.273,83.305L370.996,83.012L371.719,83.053L372.441,82.982L373.164,81.198L373.887,81.225L374.609,80.555L375.332,80.406L376.055,78.663L376.777,78.053L377.5,77.563L378.223,78.106L378.945,75.597L379.668,75.712L380.391,75.793L381.113,74.934L381.836,75.351L382.559,74.16L383.281,73.146L384.004,72.812L384.727,72.9L385.449,72.297L386.172,70.571L386.895,70.234L387.617,69.382L388.34,68.898L389.063,69.056L389.785,68.619L390.508,67.39L391.23,67.366L391.953,67.429L392.676,65.905L393.398,65.511L394.121,64.375L394.844,64.404L395.566,63.521L396.289,63.533L397.012,63.1L397.734,62.412L398.457,61.945L399.18,63.046L399.902,61.222L400.625,61.304L401.348,60.871L402.07,60.442L402.793,59.387L403.516,59.236L404.238,59.273L404.961,58.629L405.684,57.3L406.406,56.82L407.129,57.167L407.852,56.57L408.574,56.166L409.297,55.545L410.02,55.058L410.742,53.983L411.465,53.931L412.188,53.549L412.91,54.033L413.633,52.57L414.355,52.899L415.078,52.277L415.801,51.748L416.523,51.711L417.246,50.962L417.969,51.069L418.691,50.123L419.414,50.65L420.137,49.612L420.859,49.34L421.582,49.558L422.305,48.123L423.027,49.065L423.75,48.188L424.473,47.188L425.195,46.34L425.918,46.309L426.641,45.863L427.363,45.229L428.086,45.649L428.809,45.742L429.531,44.7L430.254,44.308L430.977,43.791L431.699,43.612L432.422,43.305L433.145,42.767L433.867,43.196L434.59,42.227L435.313,42.555L436.035,41.811L436.758,41.513L437.48,41.515L438.203,40.859L438.926,40.679L439.648,40.092L440.371,40.573L441.094,38.709L441.816,39.971L442.539,38.8L443.262,38.492L443.984,37.33L444.707,37.34L445.43,37.87L446.152,37.148L446.875,37.117L447.598,37.085L448.32,36.814L449.043,36.92L449.766,35.488L450.488,36.128L451.211,34.555L451.934,35.152L452.656,34.612L453.379,35.041L454.102,33.75L454.824,33.269L455.547,33.731L456.27,33.082L456.992,32.919L457.715,32.369L458.438,33.082L459.16,32.684L459.883,32.014L460.605,32.11L461.328,31.496L462.051,31.505L462.773,31.626L463.496,30.921L464.219,31.266L464.941,30.307L465.664,30.401L466.387,30.174L467.109,29.714L467.832,29.748L468.555,28.912L469.277,29.265"/><g transform="translate(0,190) scale(1.7) rotate(-90)"><text>Drift</text></g><g transform="translate(315,395) scale(1.8)"><text></text></g><g transform="translate(0,350)" fill="none" font-size="10" font-family="sans-serif" text-anchor="middle"><path class="domain" stroke="currentColor" d="M100,6V0H470V6"/><g class="tick" opacity="1" transform="translate(136.66666666666666,0)"><line stroke="currentColor" y2="6"/><text fill="currentColor" y="9" dy="0.71em" font-size="20px"> </text></g><g class="tick" opacity="1" transform="translate(173.7037037037037,0)"><line stroke="currentColor" y2="6"/><text fill="currentColor" y="9" dy="0.71em" font-size="20px">200</text></g><g class="tick" opacity="1" transform="translate(210.74074074074076,0)"><line stroke="currentColor" y2="6"/><text fill="currentColor" y="9" dy="0.71em" font-size="20px"> </text></g><g class="tick" opacity="1" transform="translate(247.77777777777777,0)"><line stroke="currentColor" y2="6"/><text fill="currentColor" y="9" dy="0.71em" font-size="20px">400</text></g><g class="tick" opacity="1" transform="translate(284.81481481481484,0)"><line stroke="currentColor" y2="6"/><text fill="currentColor" y="9" dy="0.71em" font-size="20px"> </text></g><g class="tick" opacity="1" transform="translate(321.85185185185185,0)"><line stroke="currentColor" y2="6"/><text fill="currentColor" y="9" dy="0.71em" font-size="20px">600</text></g><g class="tick" opacity="1" transform="translate(358.8888888888889,0)"><line stroke="currentColor" y2="6"/><text fill="currentColor" y="9" dy="0.71em" font-size="20px"> </text></g><g class="tick" opacity="1" transform="translate(395.9259259259259,0)"><line stroke="currentColor" y2="6"/><text fill="currentColor" y="9" dy="0.71em" font-size="20px">800</text></g><g class="tick" opacity="1" transform="translate(432.96296296296293,0)"><line stroke="currentColor" y2="6"/><text fill="currentColor" y="9" dy="0.71em" font-size="20px"> </text></g><g class="tick" opacity="1" transform="translate(470,0)"><line stroke="currentColor" y2="6"/><text fill="currentColor" y="9" dy="0.71em" font-size="20px">1000</text></g></g><g transform="translate(100,0)" fill="none" font-size="10" font-family="sans-serif" text-anchor="end"><path class="domain" stroke="currentColor" d="M-6,350H0V20H-6"/><g class="tick" opacity="1" transform="translate(0,328.52045301987175)"><line stroke="currentColor" x2="-6"/><text fill="currentColor" x="-9" dy="0.32em" font-size="20px">0.048</text></g><g class="tick" opacity="1" transform="translate(0,305.9980611882644)"><line stroke="currentColor" x2="-6"/><text fill="currentColor" x="-9" dy="0.32em" font-size="20px">0.046</text></g><g class="tick" opacity="1" transform="translate(0,283.47566935665697)"><line stroke="currentColor" x2="-6"/><text fill="currentColor" x="-9" dy="0.32em" font-size="20px">0.044</text></g><g class="tick" opacity="1" transform="translate(0,260.95327752504966)"><line stroke="currentColor" x2="-6"/><text fill="currentColor" x="-9" dy="0.32em" font-size="20px">0.042</text></g><g class="tick" opacity="1" transform="translate(0,238.4308856934423)"><line stroke="currentColor" x2="-6"/><text fill="currentColor" x="-9" dy="0.32em" font-size="20px">0.040</text></g><g class="tick" opacity="1" transform="translate(0,215.90849386183487)"><line stroke="currentColor" x2="-6"/><text fill="currentColor" x="-9" dy="0.32em" font-size="20px">0.038</text></g><g class="tick" opacity="1" transform="translate(0,193.38610203022748)"><line stroke="currentColor" x2="-6"/><text fill="currentColor" x="-9" dy="0.32em" font-size="20px">0.036</text></g><g class="tick" opacity="1" transform="translate(0,170.86371019862017)"><line stroke="currentColor" x2="-6"/><text fill="currentColor" x="-9" dy="0.32em" font-size="20px">0.034</text></g><g class="tick" opacity="1" transform="translate(0,148.34131836701272)"><line stroke="currentColor" x2="-6"/><text fill="currentColor" x="-9" dy="0.32em" font-size="20px">0.032</text></g><g class="tick" opacity="1" transform="translate(0,125.81892653540535)"><line stroke="currentColor" x2="-6"/><text fill="currentColor" x="-9" dy="0.32em" font-size="20px">0.030</text></g><g class="tick" opacity="1" transform="translate(0,103.29653470379796)"><line stroke="currentColor" x2="-6"/><text fill="currentColor" x="-9" dy="0.32em" font-size="20px">0.028</text></g><g class="tick" opacity="1" transform="translate(0,80.77414287219058)"><line stroke="currentColor" x2="-6"/><text fill="currentColor" x="-9" dy="0.32em" font-size="20px">0.026</text></g><g class="tick" opacity="1" transform="translate(0,58.251751040583244)"><line stroke="currentColor" x2="-6"/><text fill="currentColor" x="-9" dy="0.32em" font-size="20px">0.024</text></g><g class="tick" opacity="1" transform="translate(0,35.72935920897582)"><line stroke="currentColor" x2="-6"/><text fill="currentColor" x="-9" dy="0.32em" font-size="20px">0.022</text></g></g><circle cx="135" cy="-25" r="8" style="fill: rgb(35, 23, 27);"/><circle cx="135" cy="0" r="8" style="fill: rgb(69, 105, 238);"/><circle cx="135" cy="25" r="8" style="fill: rgb(38, 188, 225);"/><circle cx="135" cy="50" r="8" style="fill: rgb(63, 243, 147);"/><circle cx="255" cy="-25" r="8" style="fill: rgb(149, 251, 81);"/><circle cx="255" cy="0" r="8" style="fill: rgb(236, 209, 46);"/><circle cx="255" cy="25" r="8" style="fill: rgb(255, 130, 29);"/><circle cx="255" cy="50" r="8" style="fill: rgb(203, 47, 13);"/><text x="150" y="-25" text-anchor="left" font-size="22" alignment-baseline="middle" style="fill: rgb(35, 23, 27);"> = 0</text><text x="150" y="0" text-anchor="left" font-size="22" alignment-baseline="middle" style="fill: rgb(69, 105, 238);"> = 0.22</text><text x="150" y="25" text-anchor="left" font-size="22" alignment-baseline="middle" style="fill: rgb(38, 188, 225);"> = 0.45</text><text x="150" y="50" text-anchor="left" font-size="22" alignment-baseline="middle" style="fill: rgb(63, 243, 147);"> = 0.67</text><text x="275" y="-25" text-anchor="left" font-size="22" alignment-baseline="middle" style="fill: rgb(149, 251, 81);"> = 0.9</text><text x="275" y="0" text-anchor="left" font-size="22" alignment-baseline="middle" style="fill: rgb(236, 209, 46);"> = 1.12</text><text x="275" y="25" text-anchor="left" font-size="22" alignment-baseline="middle" style="fill: rgb(255, 130, 29);"> = 1.35</text><text x="275" y="50" text-anchor="left" font-size="22" alignment-baseline="middle" style="fill: rgb(203, 47, 13);"> = 1.57</text></svg>