<svg xmlns="http://www.w3.org/2000/svg" class="bg-white" width="500" height="400" viewBox="-41.62399999999998 -70.54300000000029 605.0000000000001 484.00000000000006"><path fill="none" stroke="rgb(35, 23, 27)" stroke-width="1.5" d="M100,229.745L100.723,225.987L101.445,224.12L102.168,221.68L102.891,219.097L103.613,217.694L104.336,215.05L105.059,212.149L105.781,208.228L106.504,205.298L107.227,201.962L107.949,198.903L108.672,195.637L109.395,192.74L110.117,189.398L110.84,186.106L111.563,181.283L112.285,177.889L113.008,177.192L113.73,173.542L114.453,168.891L115.176,165.082L115.898,161.208L116.621,157.386L117.344,151.177L118.066,146.989L118.789,142.913L119.512,139.953L120.234,134.508L120.957,130.046L121.68,86.846L122.402,86.915L123.125,86.727L123.848,85.694L124.57,86L125.293,87.733L126.016,85.279L126.738,85.131L127.461,85.953L128.184,87.023L128.906,86.893L129.629,84.889L130.352,84.777L131.074,84.867L131.797,84.244L132.52,84.083L133.242,85.184L133.965,84.212L134.688,83.026L135.41,82.843L136.133,84.409L136.855,83.066L137.578,82.043L138.301,81.854L139.023,85.513L139.746,82.39L140.469,82.987L141.191,82.758L141.914,84.421L142.637,82.819L143.359,82.143L144.082,81.985L144.805,81.801L145.527,80.489L146.25,81.68L146.973,80.97L147.695,79.213L148.418,80.485L149.141,79.52L149.863,79.403L150.586,78.382L151.309,78.448L152.031,77.902L152.754,79.999L153.477,78.357L154.199,79.557L154.922,76.115L155.645,76.023L156.367,78.855L157.09,78.628L157.813,78.418L158.535,77.537L159.258,75.062L159.98,74.676L160.703,76.801L161.426,76.7L162.148,74.498L162.871,75.976L163.594,75.82L164.316,75.701L165.039,75.558L165.762,73.76L166.484,75.265L167.207,73.853L167.93,73.095L168.652,72.784L169.375,75.18L170.098,71.757L170.82,71.693L171.543,71.286L172.266,71.773L172.988,71.653L173.711,72.381L174.434,72.165L175.156,73.489L175.879,73.184L176.602,70.009L177.324,71.976L178.047,69.224L178.77,71.681L179.492,71.792L180.215,71.534L180.938,71.275L181.66,69.837L182.383,67.364L183.105,69.181L183.828,69.174L184.551,67.926L185.273,69.837L185.996,70.166L186.719,70.028L187.441,69.036L188.164,69.722L188.887,69.023L189.609,65.86L190.332,69.82L191.055,67.704L191.777,67.698L192.5,67.333L193.223,66.631L193.945,66.569L194.668,67.402L195.391,67.073L196.113,69.044L196.836,67.722L197.559,67.551L198.281,67.021L199.004,66.811L199.727,66.677L200.449,67.969L201.172,67.958L201.895,66.827L202.617,65.806L203.34,66.736L204.063,67.826L204.785,65.674L205.508,65.996L206.23,67.449L206.953,67.508L207.676,66.146L208.398,65.283L209.121,65.925L209.844,66.162L210.566,65.989L211.289,65.402L212.012,65.512L212.734,67.421L213.457,65.263L214.18,65.716L214.902,66.109L215.625,67.411L216.348,66.405L217.07,66.496L217.793,67.344L218.516,67.635L219.238,67.292L219.961,67.283L220.684,67.877L221.406,67.732L222.129,67.206L222.852,68.055L223.574,67.285L224.297,67.404L225.02,70.289L225.742,68.773L226.465,67.864L227.188,68.025L227.91,69.254L228.633,69.123L229.355,69.374L230.078,71.956L230.801,70.699L231.523,69.45L232.246,71.309L232.969,70.822L233.691,71.425L234.414,71.041L235.137,70.981L235.859,71.344L236.582,71.166L237.305,75.432L238.027,72.836L238.75,75.721L239.473,75.712L240.195,73.187L240.918,75.002L241.641,75.385L242.363,77.227L243.086,77.477L243.809,77.76L244.531,78.312L245.254,77.49L245.977,79.971L246.699,80.452L247.422,80.249L248.145,78.618L248.867,79.048L249.59,79.502L250.313,82.787L251.035,83.873L251.758,82.147L252.48,82.641L253.203,85.333L253.926,83.048L254.648,86.573L255.371,85.301L256.094,86.903L256.816,89.608L257.539,90.416L258.262,90.241L258.984,87.866L259.707,90.236L260.43,90.013L261.152,91.871L261.875,91.781L262.598,92.942L263.32,92.469L264.043,93.652L264.766,94.543L265.488,98.71L266.211,97.097L266.934,96.737L267.656,97.974L268.379,98.585L269.102,100.132L269.824,101.066L270.547,101.5L271.27,102.972L271.992,103.106L272.715,104.415L273.438,105.357L274.16,106.212L274.883,106.888L275.605,108.111L276.328,109.197L277.051,109.784L277.773,110.939L278.496,111.641L279.219,113.47L279.941,115.245L280.664,114.914L281.387,115.494L282.109,120.743L282.832,119.613L283.555,118.489L284.277,119.19L285,124.732L285.723,122.888L286.445,123.947L287.168,126.088L287.891,128.408L288.613,128.345L289.336,129.551L290.059,130.728L290.781,129.805L291.504,132.162L292.227,133.336L292.949,135.416L293.672,136.554L294.395,138.687L295.117,136.547L295.84,140.318L296.563,140.457L297.285,142.484L298.008,144.286L298.73,143.382L299.453,145.531L300.176,143.206L300.898,147.898L301.621,149.318L302.344,149.019L303.066,148.845L303.789,151.607L304.512,152.775L305.234,154.575L305.957,155.123L306.68,157.609L307.402,157.984L308.125,159.895L308.848,159.937L309.57,160.856L310.293,159.735L311.016,163.338L311.738,162.205L312.461,163.661L313.184,164.902L313.906,169.191L314.629,169.052L315.352,167.923L316.074,167.758L316.797,170.602L317.52,173.651L318.242,173.863L318.965,173.754L319.688,176.772L320.41,176.42L321.133,177.054L321.855,178.34L322.578,180.45L323.301,182.351L324.023,181.615L324.746,182.597L325.469,184.023L326.191,186.399L326.914,187.306L327.637,185.826L328.359,186.863L329.082,189.29L329.805,190.455L330.527,190.103L331.25,192.244L331.973,193.486L332.695,194.689L333.418,197.364L334.141,197.551L334.863,195.685L335.586,199.772L336.309,199.743L337.031,199.761L337.754,201.425L338.477,205.821L339.199,204.729L339.922,201.578L340.645,204.111L341.367,205.592L342.09,207.61L342.813,211.45L343.535,212.37L344.258,213.087L344.98,213.92L345.703,208.959L346.426,209.153L347.148,210.33L347.871,214.419L348.594,213.804L349.316,218.944L350.039,213.445L350.762,214.313L351.484,217.878L352.207,215.527L352.93,215.85L353.652,220.372L354.375,223.091L355.098,218.3L355.82,222.164L356.543,221.315L357.266,220.317L357.988,226.697L358.711,221.629L359.434,222.894L360.156,224.346L360.879,226.321L361.602,226.509L362.324,229.799L363.047,227.285L363.77,227.196L364.492,225.513L365.215,227.735L365.938,228.628L366.66,229.292L367.383,229.829L368.105,233.411L368.828,229.287L369.551,230.052L370.273,231.24L370.996,231.545L371.719,228.79L372.441,232.359L373.164,233.252L373.887,236.599L374.609,232.902L375.332,230.732L376.055,231.072L376.777,232.162L377.5,231.28L378.223,232.604L378.945,231.536L379.668,234.286L380.391,234.498L381.113,234.751L381.836,231.924L382.559,233.48L383.281,231.207L384.004,232.596L384.727,236.315L385.449,235.168L386.172,234.838L386.895,235.644L387.617,231.88L388.34,236.302L389.063,233.956L389.785,233.984L390.508,235.59L391.23,232.618L391.953,234.077L392.676,230.88L393.398,235.424L394.121,235.338L394.844,232.042L395.566,231.779L396.289,235.045L397.012,234.623L397.734,234.421L398.457,232.28L399.18,231.8L399.902,233.518L400.625,231.448L401.348,235.933L402.07,235.527L402.793,233.021L403.516,230.086L404.238,232.142L404.961,228.995L405.684,227.452L406.406,228.108L407.129,230.129L407.852,230.756L408.574,228.487L409.297,225.574L410.02,222.724L410.742,226.358L411.465,228.629L412.188,228.47L412.91,227.635L413.633,223.055L414.355,219.844L415.078,221.961L415.801,224.235L416.523,223.013L417.246,220.537L417.969,222.958L418.691,222.792L419.414,221.961L420.137,219.067L420.859,218.714L421.582,218.988L422.305,217.824L423.027,215.575L423.75,216.358L424.473,219.969L425.195,214.792L425.918,214.501L426.641,214.866L427.363,213.758L428.086,215.388L428.809,212.225L429.531,213.084L430.254,214.106L430.977,211.172L431.699,208.828L432.422,209.695L433.145,207.908L433.867,210.169L434.59,210.105L435.313,206.896L436.035,205.394L436.758,205.38L437.48,204.669L438.203,204.041L438.926,203.354L439.648,199.329L440.371,201.185L441.094,199.369L441.816,200.442L442.539,198.759L443.262,197.405L443.984,198.942L444.707,199.842L445.43,196.635L446.152,195.847L446.875,196.304L447.598,196.224L448.32,196.037L449.043,193.486L449.766,191.813L450.488,193.611L451.211,191.154L451.934,190.986L452.656,188.753L453.379,189.033L454.102,186.449L454.824,186.169L455.547,185.298L456.27,184.02L456.992,182.564L457.715,183.794L458.438,178.258L459.16,183.583L459.883,181.358L460.605,179.773L461.328,177.9L462.051,178.1L462.773,177.231L463.496,175.645L464.219,177.598L464.941,173.498L465.664,172.926L466.387,172.929L467.109,172.457L467.832,173.965L468.555,173.004L469.277,165.328"/><path fill="none" stroke="rgb(69, 105, 238)" stroke-width="1.5" d="M100,202.562L100.723,197.308L101.445,197.929L102.168,192.301L102.891,192.222L103.613,189.561L104.336,184.971L105.059,181.6L105.781,180.991L106.504,175.893L107.227,173.71L107.949,170.259L108.672,167.361L109.395,163.591L110.117,160.849L110.84,160.294L111.563,153.764L112.285,150.556L113.008,149.003L113.73,143.737L114.453,141.154L115.176,136.413L115.898,132.579L116.621,128.244L117.344,123.992L118.066,119.063L118.789,114.67L119.512,116.505L120.234,116.757L120.957,116.655L121.68,116.736L122.402,116.512L123.125,113.705L123.848,114.532L124.57,115.285L125.293,113.804L126.016,113.776L126.738,117.047L127.461,115.686L128.184,113.132L128.906,116.352L129.629,115.038L130.352,114.985L131.074,114.126L131.797,114.677L132.52,115.302L133.242,113.145L133.965,111.414L134.688,113.274L135.41,113.242L136.133,112.404L136.855,113.205L137.578,112.749L138.301,110.912L139.023,111.552L139.746,113.341L140.469,113.305L141.191,111.764L141.914,110.678L142.637,111.005L143.359,111.6L144.082,108.282L144.805,108.072L145.527,110.092L146.25,110.267L146.973,108.032L147.695,107.872L148.418,109.773L149.141,109.518L149.863,109.879L150.586,106.589L151.309,107.885L152.031,108.855L152.754,107.796L153.477,107.44L154.199,108.158L154.922,105.299L155.645,106.959L156.367,107.447L157.09,107.01L157.813,108.697L158.535,106.896L159.258,108.356L159.98,104.863L160.703,105.259L161.426,105.377L162.148,104.95L162.871,103.792L163.594,104.888L164.316,103.184L165.039,104.931L165.762,103.755L166.484,101.448L167.207,104.251L167.93,102.488L168.652,103.596L169.375,103.57L170.098,102.217L170.82,101.63L171.543,102.695L172.266,101.418L172.988,101.518L173.711,102.107L174.434,101.334L175.156,99.297L175.879,101.617L176.602,99.595L177.324,102.986L178.047,98.844L178.77,98.548L179.492,99.975L180.215,100.326L180.938,98.978L181.66,100.485L182.383,99.345L183.105,100.678L183.828,98.713L184.551,99.286L185.273,98.257L185.996,97.813L186.719,97.865L187.441,97.475L188.164,97.473L188.887,97.748L189.609,97.718L190.332,96.603L191.055,98.154L191.777,96.233L192.5,96.944L193.223,97.005L193.945,96.691L194.668,95.754L195.391,97.918L196.113,95.8L196.836,95.65L197.559,96.729L198.281,96.192L199.004,97.746L199.727,98.23L200.449,96.055L201.172,97.478L201.895,96.436L202.617,97.041L203.34,96.047L204.063,97.484L204.785,95.338L205.508,95.987L206.23,95.826L206.953,96.565L207.676,95.997L208.398,97.411L209.121,95.806L209.844,96.151L210.566,95.956L211.289,97.788L212.012,98.886L212.734,97.505L213.457,97.388L214.18,97.381L214.902,97.881L215.625,98.189L216.348,99.438L217.07,96.727L217.793,96.939L218.516,97.786L219.238,98.239L219.961,96.694L220.684,97.456L221.406,98.914L222.129,98.789L222.852,97.264L223.574,99.557L224.297,98.866L225.02,101.08L225.742,99.13L226.465,99.422L227.188,101.515L227.91,99.577L228.633,100.967L229.355,99.834L230.078,101.484L230.801,101.798L231.523,101.646L232.246,101.568L232.969,101.923L233.691,103.157L234.414,102.122L235.137,102.473L235.859,102.857L236.582,103.93L237.305,104.064L238.027,104.101L238.75,103.927L239.473,104.471L240.195,105.885L240.918,104.932L241.641,105.727L242.363,106.419L243.086,107.646L243.809,109.739L244.531,109.821L245.254,110.319L245.977,109.019L246.699,111.106L247.422,110.69L248.145,110.576L248.867,112.983L249.59,113.939L250.313,113.317L251.035,112.773L251.758,113.8L252.48,115.699L253.203,115.503L253.926,115.517L254.648,116.409L255.371,116.399L256.094,117.537L256.816,118.582L257.539,117.879L258.262,119.663L258.984,119.567L259.707,121.354L260.43,121.725L261.152,121.761L261.875,124.539L262.598,122.632L263.32,126.006L264.043,125.741L264.766,126.734L265.488,127.127L266.211,126.735L266.934,127.045L267.656,128.335L268.379,129.58L269.102,130.305L269.824,131.511L270.547,132.731L271.27,132.397L271.992,133.151L272.715,133.995L273.438,135.99L274.16,136.173L274.883,138.74L275.605,138.81L276.328,140.415L277.051,138.968L277.773,139.307L278.496,141.127L279.219,142.885L279.941,143.812L280.664,146.673L281.387,144.985L282.109,147.182L282.832,145.702L283.555,146.658L284.277,148.758L285,150.729L285.723,151.933L286.445,154.368L287.168,155.342L287.891,153.531L288.613,155.294L289.336,156.415L290.059,156.077L290.781,158.399L291.504,159.929L292.227,159.791L292.949,161.075L293.672,163.112L294.395,164.799L295.117,165.555L295.84,163.255L296.563,164.611L297.285,167.92L298.008,166.557L298.73,167.93L299.453,169.704L300.176,170.471L300.898,170.548L301.621,174.735L302.344,173.075L303.066,176.576L303.789,176.573L304.512,177.662L305.234,176.366L305.957,180.183L306.68,178.913L307.402,181.292L308.125,180.806L308.848,183.956L309.57,182.576L310.293,185.198L311.016,184.341L311.738,187.653L312.461,188.823L313.184,190.622L313.906,189.017L314.629,189.042L315.352,189.502L316.074,193.927L316.797,192.722L317.52,192.205L318.242,195.219L318.965,198.596L319.688,196.291L320.41,198.491L321.133,200.017L321.855,198.665L322.578,199.311L323.301,202.329L324.023,200.96L324.746,202.306L325.469,207.004L326.191,202.872L326.914,204.918L327.637,208.237L328.359,210.274L329.082,209.023L329.805,212.051L330.527,209.706L331.25,209.875L331.973,210.161L332.695,210.949L333.418,213.186L334.141,210.721L334.863,215.264L335.586,214.656L336.309,215.308L337.031,216.221L337.754,215.934L338.477,220.186L339.199,220.354L339.922,222.132L340.645,219.578L341.367,222.79L342.09,222.8L342.813,223.222L343.535,220.055L344.258,222.743L344.98,225.619L345.703,227.595L346.426,223.391L347.148,224.666L347.871,226.061L348.594,225.114L349.316,227.026L350.039,226.468L350.762,229.792L351.484,227.599L352.207,228.408L352.93,228.33L353.652,228.883L354.375,232.193L355.098,231.275L355.82,231.693L356.543,233.079L357.266,231.204L357.988,233.909L358.711,233.277L359.434,235.106L360.156,234.346L360.879,232.509L361.602,233.158L362.324,235.517L363.047,238.577L363.77,236.452L364.492,234.404L365.215,235.801L365.938,234.066L366.66,235.753L367.383,238.709L368.105,236.6L368.828,235.09L369.551,238.566L370.273,236.567L370.996,239.038L371.719,236.12L372.441,234.677L373.164,241.221L373.887,236.705L374.609,235.895L375.332,237.66L376.055,236.907L376.777,237.531L377.5,237.212L378.223,238.312L378.945,235.698L379.668,237.019L380.391,239.815L381.113,238.236L381.836,235.6L382.559,236.765L383.281,235.737L384.004,237.981L384.727,240.037L385.449,236.593L386.172,236.131L386.895,234.86L387.617,237.376L388.34,235.485L389.063,235.393L389.785,238.366L390.508,234.932L391.23,233.661L391.953,234.325L392.676,236.031L393.398,237.744L394.121,234.728L394.844,234.767L395.566,231.392L396.289,233.067L397.012,230.657L397.734,231.136L398.457,233.635L399.18,230.333L399.902,231.164L400.625,231.595L401.348,231.384L402.07,233.686L402.793,227.423L403.516,229.326L404.238,229.119L404.961,227.811L405.684,227.927L406.406,226.785L407.129,228.942L407.852,226.473L408.574,226.101L409.297,223.479L410.02,224.932L410.742,224.48L411.465,225.942L412.188,223.394L412.91,221.451L413.633,222.672L414.355,222.975L415.078,221.335L415.801,224.299L416.523,220.464L417.246,219.853L417.969,217.259L418.691,216.845L419.414,218.712L420.137,217.296L420.859,217.857L421.582,216.97L422.305,218.924L423.027,212.411L423.75,214.584L424.473,213.068L425.195,212.725L425.918,207.884L426.641,208.317L427.363,214.213L428.086,210.213L428.809,208.898L429.531,204.619L430.254,209.346L430.977,207.834L431.699,207.266L432.422,207.621L433.145,207.887L433.867,202.222L434.59,202.644L435.313,200.414L436.035,202.286L436.758,201.191L437.48,200.544L438.203,201.076L438.926,199.102L439.648,194.056L440.371,195.048L441.094,194.855L441.816,193.589L442.539,195.718L443.262,193.759L443.984,194.939L444.707,191.123L445.43,192.263L446.152,186.903L446.875,191.285L447.598,186.072L448.32,188.391L449.043,187.649L449.766,186.71L450.488,184.912L451.211,184.283L451.934,186.211L452.656,183.169L453.379,183.603L454.102,182.743L454.824,180.073L455.547,181.069L456.27,180.437L456.992,178.605L457.715,178.342L458.438,176.621L459.16,174.526L459.883,174.513L460.605,174.319L461.328,173.004L462.051,171.543L462.773,172.002L463.496,169.616L464.219,168.692L464.941,168.63L465.664,167.826L466.387,164.61L467.109,165.407L467.832,165.967L468.555,161.649L469.277,164.632"/><path fill="none" stroke="rgb(38, 188, 225)" stroke-width="1.5" d="M100,136.412L100.723,135.256L101.445,130.502L102.168,128.706L102.891,125.626L103.613,124.431L104.336,123.75L105.059,120.225L105.781,116.76L106.504,115.26L107.227,110.737L107.949,107.812L108.672,104.199L109.395,102.847L110.117,98.03L110.84,94.914L111.563,94.195L112.285,170.831L113.008,171.963L113.73,174.578L114.453,175.036L115.176,174.787L115.898,176.498L116.621,179.123L117.344,176.478L118.066,178.766L118.789,177.809L119.512,179.551L120.234,180.036L120.957,178.856L121.68,182.124L122.402,178.661L123.125,179.324L123.848,179.524L124.57,179.499L125.293,178.804L126.016,177.331L126.738,179.663L127.461,178.607L128.184,177.685L128.906,178.676L129.629,177.787L130.352,178.298L131.074,177.174L131.797,177.84L132.52,177.931L133.242,178.154L133.965,177.858L134.688,176.612L135.41,179.91L136.133,176.434L136.855,176.343L137.578,177.386L138.301,177.388L139.023,176.314L139.746,175.56L140.469,175.568L141.191,175.242L141.914,176.733L142.637,175.025L143.359,176.21L144.082,176.947L144.805,174.591L145.527,174.158L146.25,175.838L146.973,175.278L147.695,175.712L148.418,173.548L149.141,173.551L149.863,176.532L150.586,174.547L151.309,174.698L152.031,173.588L152.754,174.785L153.477,171.882L154.199,172.33L154.922,171.135L155.645,171.533L156.367,172.606L157.09,172.782L157.813,172.419L158.535,170.178L159.258,173.202L159.98,174.398L160.703,171.272L161.426,172.571L162.148,170.707L162.871,171.577L163.594,172.316L164.316,170.453L165.039,170.867L165.762,170.422L166.484,168.485L167.207,170.722L167.93,168.838L168.652,169.938L169.375,168.306L170.098,169.464L170.82,170.274L171.543,168.976L172.266,169.077L172.988,169.578L173.711,168.569L174.434,169.427L175.156,168.464L175.879,170.435L176.602,168.737L177.324,167.183L178.047,167.865L178.77,168.423L179.492,169.623L180.215,165.641L180.938,167.747L181.66,167.263L182.383,165.796L183.105,168.494L183.828,167.223L184.551,166.834L185.273,164.363L185.996,166.086L186.719,166.045L187.441,165.802L188.164,165.663L188.887,166.696L189.609,164.532L190.332,165.818L191.055,167.135L191.777,166.035L192.5,164.102L193.223,165.182L193.945,165.566L194.668,164.966L195.391,166.021L196.113,164.733L196.836,165.441L197.559,166.023L198.281,165.806L199.004,165.271L199.727,165.977L200.449,166.531L201.172,165.968L201.895,166.85L202.617,167.054L203.34,166.226L204.063,165.859L204.785,165.518L205.508,165.787L206.23,166.379L206.953,167.73L207.676,167.05L208.398,165.686L209.121,166.761L209.844,166.032L210.566,168.794L211.289,167.439L212.012,166.117L212.734,169.124L213.457,168.784L214.18,167.656L214.902,166.878L215.625,168.524L216.348,167.876L217.07,168.804L217.793,167.196L218.516,167.505L219.238,168.192L219.961,168.228L220.684,168.33L221.406,169.66L222.129,168.307L222.852,168.441L223.574,168.913L224.297,168.774L225.02,170.926L225.742,171.081L226.465,170.895L227.188,170.024L227.91,171.961L228.633,171.014L229.355,172.095L230.078,169.906L230.801,171.884L231.523,173.318L232.246,173.796L232.969,172.069L233.691,174.229L234.414,172.834L235.137,173.785L235.859,174.43L236.582,176.066L237.305,174.302L238.027,175.525L238.75,178.155L239.473,176.014L240.195,176.4L240.918,178.387L241.641,178.825L242.363,178.003L243.086,179.913L243.809,181.259L244.531,179.284L245.254,179.417L245.977,181.847L246.699,181.423L247.422,180.769L248.145,181.689L248.867,182.792L249.59,182.929L250.313,182.508L251.035,183.061L251.758,184.498L252.48,184.242L253.203,186.62L253.926,187.714L254.648,187.011L255.371,186.331L256.094,187.381L256.816,188.452L257.539,190.553L258.262,190.293L258.984,189.851L259.707,190.664L260.43,192.944L261.152,192.548L261.875,192.369L262.598,195.9L263.32,195.604L264.043,194.377L264.766,196.301L265.488,194.785L266.211,197.151L266.934,199.334L267.656,197.944L268.379,200.079L269.102,198.671L269.824,200.451L270.547,201.169L271.27,200.929L271.992,202.539L272.715,201.852L273.438,203.574L274.16,201.128L274.883,204.122L275.605,205.459L276.328,207.999L277.051,205.672L277.773,209.854L278.496,208.298L279.219,207.74L279.941,209.754L280.664,208.9L281.387,209.506L282.109,210.18L282.832,211.487L283.555,213.132L284.277,212.334L285,212.926L285.723,213.276L286.445,214.159L287.168,215.183L287.891,216.455L288.613,217.922L289.336,217.1L290.059,219.289L290.781,218.674L291.504,219.222L292.227,219.926L292.949,221.86L293.672,221.237L294.395,223.173L295.117,222.321L295.84,226.708L296.563,224.352L297.285,226.885L298.008,225.262L298.73,227.924L299.453,226.834L300.176,231.054L300.898,227.844L301.621,230.467L302.344,227.993L303.066,228.561L303.789,230.913L304.512,231.534L305.234,232.299L305.957,231.161L306.68,233.531L307.402,233.843L308.125,234.28L308.848,232.786L309.57,235.886L310.293,238.725L311.016,236.607L311.738,235.288L312.461,237.779L313.184,236.26L313.906,238.567L314.629,237.426L315.352,237.94L316.074,239.026L316.797,240.864L317.52,241.009L318.242,244.511L318.965,241.808L319.688,242.489L320.41,242.51L321.133,242.864L321.855,243.36L322.578,241.317L323.301,242.587L324.023,245.349L324.746,245.979L325.469,245.778L326.191,246.543L326.914,245.254L327.637,247.956L328.359,246.57L329.082,246.753L329.805,247.954L330.527,248.024L331.25,247.832L331.973,246.353L332.695,248.562L333.418,249.142L334.141,247.142L334.863,248.229L335.586,249.46L336.309,249.037L337.031,249.593L337.754,250.722L338.477,249.775L339.199,250.55L339.922,251.036L340.645,249.393L341.367,252.382L342.09,252.53L342.813,251.083L343.535,253.69L344.258,246.398L344.98,251.122L345.703,250.564L346.426,246.612L347.148,250.771L347.871,252.346L348.594,249.531L349.316,250.534L350.039,249.79L350.762,249.882L351.484,248.929L352.207,250.547L352.93,251.498L353.652,251.687L354.375,249.641L355.098,250.3L355.82,250.063L356.543,245.623L357.266,250.436L357.988,245.329L358.711,250.153L359.434,251.775L360.156,249.015L360.879,248.799L361.602,249.071L362.324,248.91L363.047,250.316L363.77,246.128L364.492,243.499L365.215,248.528L365.938,242.54L366.66,244.732L367.383,246.426L368.105,245.783L368.828,246.347L369.551,246.103L370.273,246.294L370.996,247.057L371.719,244.466L372.441,243.174L373.164,243.524L373.887,244.54L374.609,242.134L375.332,242.695L376.055,242.036L376.777,241.358L377.5,242.341L378.223,241.599L378.945,240.377L379.668,240.414L380.391,238.493L381.113,238.386L381.836,238.213L382.559,239.507L383.281,236.221L384.004,236.738L384.727,237.396L385.449,235.278L386.172,235.513L386.895,234.677L387.617,236.296L388.34,234.249L389.063,235.123L389.785,235.445L390.508,231.907L391.23,234.365L391.953,230.322L392.676,231.871L393.398,232.854L394.121,232.25L394.844,229.687L395.566,227.938L396.289,226.744L397.012,227.98L397.734,228.239L398.457,225.738L399.18,223.837L399.902,225.037L400.625,226.487L401.348,224.749L402.07,223.283L402.793,220.867L403.516,222.847L404.238,222.713L404.961,221.776L405.684,221.406L406.406,220.306L407.129,219.006L407.852,218.74L408.574,217.894L409.297,217.76L410.02,216.619L410.742,217.204L411.465,215.696L412.188,215.063L412.91,211.858L413.633,213.76L414.355,213.152L415.078,208.406L415.801,211.905L416.523,210.573L417.246,208.231L417.969,208.802L418.691,208.812L419.414,206.467L420.137,209.428L420.859,204.145L421.582,204.189L422.305,205.444L423.027,205.941L423.75,204.437L424.473,204.663L425.195,201.927L425.918,201.884L426.641,201.221L427.363,198.221L428.086,196.669L428.809,199.149L429.531,200.015L430.254,199.148L430.977,198.345L431.699,194.336L432.422,195.563L433.145,192.428L433.867,193.855L434.59,193.474L435.313,190.357L436.035,191.902L436.758,189.321L437.48,191.213L438.203,186.14L438.926,185.407L439.648,186.917L440.371,189.176L441.094,187.836L441.816,185.244L442.539,186.269L443.262,187.429L443.984,185.027L444.707,181.969L445.43,181.337L446.152,179.065L446.875,179.644L447.598,179.556L448.32,178.132L449.043,179.275L449.766,177.588L450.488,176.1L451.211,176.706L451.934,174.388L452.656,174.82L453.379,172.984L454.102,173.831L454.824,172.289L455.547,169.475L456.27,171.177L456.992,171.641L457.715,169.755L458.438,169.372L459.16,168.524L459.883,169.12L460.605,166.552L461.328,164.441L462.051,162.825L462.773,164.257L463.496,161.44L464.219,162.868L464.941,160.48L465.664,159.829L466.387,162.136L467.109,160.059L467.832,159.402L468.555,159.95L469.277,158.157"/><path fill="none" stroke="rgb(63, 243, 147)" stroke-width="1.5" d="M100,90.149L100.723,84.025L101.445,84.074L102.168,82.969L102.891,79.897L103.613,77.148L104.336,73.574L105.059,207.634L105.781,207.333L106.504,206.878L107.227,211.066L107.949,212.735L108.672,213.408L109.395,216.846L110.117,217.348L110.84,219.551L111.563,218.897L112.285,222.678L113.008,221.373L113.73,221.747L114.453,223.206L115.176,227.052L115.898,225.75L116.621,227.904L117.344,227.358L118.066,228.316L118.789,228.075L119.512,230.493L120.234,230.966L120.957,229.345L121.68,231.329L122.402,232.109L123.125,231.285L123.848,231.929L124.57,228.86L125.293,232.156L126.016,229.216L126.738,229.289L127.461,229.492L128.184,229.469L128.906,228.836L129.629,231.35L130.352,227.679L131.074,228.743L131.797,229.92L132.52,229.819L133.242,229.617L133.965,227.871L134.688,228.722L135.41,229.067L136.133,227.746L136.855,227.921L137.578,228.461L138.301,228.511L139.023,229.049L139.746,231.219L140.469,227.981L141.191,229.984L141.914,231.006L142.637,229.231L143.359,226.106L144.082,229.63L144.805,227.936L145.527,226.516L146.25,227.371L146.973,226.226L147.695,227.835L148.418,228.638L149.141,226.162L149.863,227.78L150.586,227.415L151.309,227.321L152.031,227.098L152.754,229.669L153.477,226.994L154.199,229.585L154.922,227.175L155.645,225.754L156.367,226.757L157.09,227.302L157.813,223.678L158.535,228.054L159.258,228.076L159.98,226.14L160.703,227.818L161.426,226.046L162.148,226.853L162.871,226.113L163.594,226.747L164.316,225.357L165.039,225.759L165.762,226.297L166.484,225.049L167.207,225.881L167.93,225.093L168.652,226.066L169.375,225.043L170.098,224.182L170.82,226.127L171.543,225.027L172.266,223.378L172.988,226.221L173.711,224.78L174.434,221.975L175.156,223.085L175.879,221.988L176.602,224.452L177.324,224.917L178.047,224.807L178.77,223.538L179.492,225.296L180.215,224.376L180.938,223.339L181.66,221.248L182.383,223.537L183.105,224.275L183.828,223.796L184.551,222.209L185.273,223.609L185.996,223.192L186.719,223.024L187.441,223.623L188.164,221.523L188.887,224.372L189.609,222.719L190.332,224.187L191.055,223.68L191.777,221.141L192.5,222.23L193.223,224.161L193.945,221.764L194.668,224.278L195.391,225.16L196.113,224.571L196.836,222.355L197.559,225.388L198.281,221.917L199.004,223.937L199.727,224.089L200.449,222.937L201.172,226.106L201.895,223.04L202.617,225.963L203.34,226.144L204.063,223.2L204.785,226.21L205.508,224.592L206.23,225.848L206.953,224.002L207.676,225.96L208.398,224.281L209.121,227.089L209.844,225.419L210.566,227.537L211.289,226.479L212.012,226.143L212.734,227.184L213.457,227.328L214.18,225.255L214.902,225.668L215.625,228.439L216.348,226.51L217.07,228.604L217.793,228.319L218.516,229.908L219.238,227.57L219.961,229.078L220.684,227.886L221.406,230.825L222.129,230.972L222.852,230.387L223.574,229.089L224.297,229.199L225.02,228.052L225.742,230.473L226.465,229.635L227.188,230.478L227.91,232.056L228.633,231.368L229.355,232.656L230.078,231.884L230.801,232.304L231.523,231.849L232.246,232.43L232.969,233.683L233.691,235.765L234.414,235.737L235.137,234.751L235.859,235.581L236.582,233.302L237.305,235.295L238.027,238.139L238.75,235.268L239.473,237.473L240.195,237.741L240.918,236.258L241.641,237.819L242.363,237.743L243.086,239.586L243.809,240.448L244.531,239.681L245.254,239.011L245.977,241.013L246.699,242.781L247.422,239.113L248.145,242.253L248.867,240.966L249.59,242.303L250.313,243.454L251.035,242.4L251.758,243.524L252.48,242.073L253.203,243.92L253.926,244.198L254.648,245.211L255.371,245.334L256.094,244.364L256.816,247.276L257.539,246.745L258.262,247.562L258.984,246.167L259.707,248.332L260.43,249.455L261.152,249.327L261.875,250.205L262.598,251.62L263.32,249.147L264.043,249.933L264.766,251.646L265.488,253.608L266.211,252.935L266.934,253.075L267.656,253.385L268.379,252.302L269.102,256.315L269.824,253.689L270.547,255.197L271.27,254.914L271.992,256.375L272.715,258.844L273.438,257.25L274.16,256.062L274.883,258.669L275.605,258.727L276.328,259.571L277.051,259.577L277.773,258.44L278.496,260.406L279.219,260.422L279.941,260.458L280.664,259.466L281.387,260.35L282.109,260.46L282.832,260.964L283.555,262.299L284.277,265.616L285,260.669L285.723,265.228L286.445,262.484L287.168,265.928L287.891,266.297L288.613,263.367L289.336,266.058L290.059,264.637L290.781,264.401L291.504,264.769L292.227,267.444L292.949,268.71L293.672,268.102L294.395,268.225L295.117,267.966L295.84,266.907L296.563,268.84L297.285,270.168L298.008,269.661L298.73,267.008L299.453,267.151L300.176,268.104L300.898,270.102L301.621,266.182L302.344,268.131L303.066,271.461L303.789,271.757L304.512,270.406L305.234,271.502L305.957,268.84L306.68,267.518L307.402,270.752L308.125,271.118L308.848,267.926L309.57,270.394L310.293,272.386L311.016,267.989L311.738,271.442L312.461,268.432L313.184,271.885L313.906,267.778L314.629,272.594L315.352,270.492L316.074,272.386L316.797,269.659L317.52,268.436L318.242,267.557L318.965,269.38L319.688,269.009L320.41,269.575L321.133,269.736L321.855,269.444L322.578,266.549L323.301,266.697L324.023,267.009L324.746,266.092L325.469,265.856L326.191,265.357L326.914,263.112L327.637,267.318L328.359,268.287L329.082,260.903L329.805,265.408L330.527,264.107L331.25,263.247L331.973,264.092L332.695,263.036L333.418,262.404L334.141,263.006L334.863,263.191L335.586,257.563L336.309,262.573L337.031,259.211L337.754,259.705L338.477,260.426L339.199,258.541L339.922,257.827L340.645,257.412L341.367,257.55L342.09,258.306L342.813,256.113L343.535,255.538L344.258,255.008L344.98,255.791L345.703,253.904L346.426,254.466L347.148,254.777L347.871,253.406L348.594,248.539L349.316,252.075L350.039,252.256L350.762,249.169L351.484,251.039L352.207,245.084L352.93,252.192L353.652,246.774L354.375,247.322L355.098,246.079L355.82,245.068L356.543,243.091L357.266,242.17L357.988,243.181L358.711,242.907L359.434,242.722L360.156,241.606L360.879,238.344L361.602,240.502L362.324,239.564L363.047,236.488L363.77,237.306L364.492,237.091L365.215,236.694L365.938,236.07L366.66,234.584L367.383,234.414L368.105,233.822L368.828,232.556L369.551,230.173L370.273,229.318L370.996,231.375L371.719,228.453L372.441,228.489L373.164,227.514L373.887,227.196L374.609,225.573L375.332,226.599L376.055,224.722L376.777,223.296L377.5,223.079L378.223,222.193L378.945,222.636L379.668,221.182L380.391,219.78L381.113,220.241L381.836,218.188L382.559,216.104L383.281,216.172L384.004,216.138L384.727,217.551L385.449,213.602L386.172,213.127L386.895,213.276L387.617,210.91L388.34,211.696L389.063,210.466L389.785,209.172L390.508,206.781L391.23,205.954L391.953,209.155L392.676,204.971L393.398,203.666L394.121,203.755L394.844,205.658L395.566,202.285L396.289,201.71L397.012,199.463L397.734,201.484L398.457,198.119L399.18,199.636L399.902,197.034L400.625,195.518L401.348,196.103L402.07,194.74L402.793,194.197L403.516,193.797L404.238,191.916L404.961,194.06L405.684,190.953L406.406,189.161L407.129,188.377L407.852,189.881L408.574,188.307L409.297,185.935L410.02,187.478L410.742,187.578L411.465,185.724L412.188,185.475L412.91,184.104L413.633,181.997L414.355,183.275L415.078,181.535L415.801,180.541L416.523,181.497L417.246,180.36L417.969,177.841L418.691,178.815L419.414,177.485L420.137,177.043L420.859,174.811L421.582,178.023L422.305,175.617L423.027,174.799L423.75,172.289L424.473,172.25L425.195,169.611L425.918,170.747L426.641,169.165L427.363,172.26L428.086,167.779L428.809,168.305L429.531,166.395L430.254,168.704L430.977,167.137L431.699,166.171L432.422,167.938L433.145,164.6L433.867,166.501L434.59,165.076L435.313,162.016L436.035,163.631L436.758,161.73L437.48,161.415L438.203,160.582L438.926,160.345L439.648,160.103L440.371,159.982L441.094,160.472L441.816,159.452L442.539,155.749L443.262,157.714L443.984,155.534L444.707,154.479L445.43,154.424L446.152,153.507L446.875,154.556L447.598,154.743L448.32,152.204L449.043,153.673L449.766,150.701L450.488,152.413L451.211,150.468L451.934,150.429L452.656,148.496L453.379,147.19L454.102,147.662L454.824,148.342L455.547,148.827L456.27,144.547L456.992,145.7L457.715,144.233L458.438,144.535L459.16,145.285L459.883,146.45L460.605,144.541L461.328,142.449L462.051,144.144L462.773,143.122L463.496,141.184L464.219,143.28L464.941,141.292L465.664,141.51L466.387,140.045L467.109,139.937L467.832,138.125L468.555,136.965L469.277,138.276"/><path fill="none" stroke="rgb(149, 251, 81)" stroke-width="1.5" d="M100,94.068L100.723,90.298L101.445,189.781L102.168,195.125L102.891,194.89L103.613,194.849L104.336,196.989L105.059,202.125L105.781,202.195L106.504,202.711L107.227,206.52L107.949,207.889L108.672,211.927L109.395,210.023L110.117,214.403L110.84,213.991L111.563,216.081L112.285,217.209L113.008,218.975L113.73,219.597L114.453,220.177L115.176,223.817L115.898,222.093L116.621,220.882L117.344,223.682L118.066,225.451L118.789,223.285L119.512,227.875L120.234,225.574L120.957,227.778L121.68,228.438L122.402,228.517L123.125,227.218L123.848,227.108L124.57,229.129L125.293,226.499L126.016,227.324L126.738,228.636L127.461,230.437L128.184,229.743L128.906,226.222L129.629,228.586L130.352,228.548L131.074,228.396L131.797,228.914L132.52,231.371L133.242,231.083L133.965,229.702L134.688,228.47L135.41,227.434L136.133,226.716L136.855,228.617L137.578,230.971L138.301,227.301L139.023,228.623L139.746,231.613L140.469,227.306L141.191,228.674L141.914,228.605L142.637,229.162L143.359,229.897L144.082,229.078L144.805,228.072L145.527,227.479L146.25,229.496L146.973,228.784L147.695,229.027L148.418,229.309L149.141,227.782L149.863,229.417L150.586,229.727L151.309,227.8L152.031,228.942L152.754,229.048L153.477,229.114L154.199,229.007L154.922,228.94L155.645,229.158L156.367,230.241L157.09,229.005L157.813,227.615L158.535,232.423L159.258,229.726L159.98,230.092L160.703,227.702L161.426,228.704L162.148,228.997L162.871,230.211L163.594,229.465L164.316,232.277L165.039,230.205L165.762,230.093L166.484,228.952L167.207,228.309L167.93,229.701L168.652,231.114L169.375,227.905L170.098,228.037L170.82,230.341L171.543,231.369L172.266,228.97L172.988,230.707L173.711,230.746L174.434,229.589L175.156,229.41L175.879,230.774L176.602,229.607L177.324,230.933L178.047,230.87L178.77,232.208L179.492,231.005L180.215,230.49L180.938,231.048L181.66,230.425L182.383,228.82L183.105,230.744L183.828,231.525L184.551,228.815L185.273,231.317L185.996,231.106L186.719,230.319L187.441,231.507L188.164,231.643L188.887,229.994L189.609,231.557L190.332,231.369L191.055,231.664L191.777,232.979L192.5,230.777L193.223,234.195L193.945,229.297L194.668,232.314L195.391,232.149L196.113,231.32L196.836,233.463L197.559,232.138L198.281,232.788L199.004,233.13L199.727,233.487L200.449,233.37L201.172,232.602L201.895,232.287L202.617,234.337L203.34,232.348L204.063,230.909L204.785,233.268L205.508,232.663L206.23,235.833L206.953,233.461L207.676,232.908L208.398,234.629L209.121,236.557L209.844,236.884L210.566,236.491L211.289,234.592L212.012,237.465L212.734,236.246L213.457,236.3L214.18,235.336L214.902,235.468L215.625,238.013L216.348,238.224L217.07,236.663L217.793,238.841L218.516,238.778L219.238,237.321L219.961,237.506L220.684,237.961L221.406,241.428L222.129,239.01L222.852,240.903L223.574,242.037L224.297,241.809L225.02,239.711L225.742,241.025L226.465,241.258L227.188,243.044L227.91,240.072L228.633,243.991L229.355,242.687L230.078,242.78L230.801,242.803L231.523,243.426L232.246,244.542L232.969,245.57L233.691,241.785L234.414,245.167L235.137,242.422L235.859,242.698L236.582,244.12L237.305,247.676L238.027,247.232L238.75,247.683L239.473,245.893L240.195,244.388L240.918,248.395L241.641,249.166L242.363,248.811L243.086,245.848L243.809,251.485L244.531,246.949L245.254,250.609L245.977,252.11L246.699,251.411L247.422,251.794L248.145,250.124L248.867,251.607L249.59,253.872L250.313,252.501L251.035,251.899L251.758,252.604L252.48,251.218L253.203,253.374L253.926,253.001L254.648,251.723L255.371,252.744L256.094,254.386L256.816,256.92L257.539,255.627L258.262,256.451L258.984,256.057L259.707,255.641L260.43,257.246L261.152,258.527L261.875,254.682L262.598,256.547L263.32,258.674L264.043,256.823L264.766,259.833L265.488,257.489L266.211,256.431L266.934,256.29L267.656,257.158L268.379,258.541L269.102,259.875L269.824,258.305L270.547,257.752L271.27,261.316L271.992,260.913L272.715,259.598L273.438,260.156L274.16,259.808L274.883,259.863L275.605,260.381L276.328,261.285L277.051,261.658L277.773,260.954L278.496,259.417L279.219,260.543L279.941,262.017L280.664,261.961L281.387,260.687L282.109,264.648L282.832,261.877L283.555,263.52L284.277,265.217L285,261.857L285.723,263.139L286.445,260.9L287.168,261.1L287.891,261.348L288.613,260.368L289.336,263.315L290.059,261.113L290.781,259.589L291.504,261.797L292.227,262.079L292.949,259.657L293.672,261.302L294.395,260.055L295.117,258.877L295.84,258.391L296.563,260.394L297.285,261.011L298.008,259.601L298.73,259.242L299.453,259.232L300.176,259.021L300.898,257.193L301.621,258.208L302.344,258.007L303.066,257.574L303.789,259.983L304.512,255.253L305.234,255.65L305.957,257.685L306.68,255.649L307.402,257.194L308.125,257.66L308.848,256.264L309.57,256.762L310.293,256.211L311.016,255.787L311.738,251.409L312.461,252.448L313.184,252.286L313.906,249.663L314.629,251.469L315.352,251.755L316.074,249.342L316.797,249.201L317.52,248.105L318.242,246.56L318.965,247.961L319.688,247.295L320.41,244.941L321.133,243.631L321.855,247.958L322.578,242.106L323.301,242.952L324.023,241.198L324.746,240.854L325.469,240.311L326.191,239.073L326.914,239.089L327.637,240.899L328.359,235.883L329.082,235.785L329.805,234.45L330.527,235.543L331.25,233.717L331.973,232.809L332.695,231.715L333.418,228.747L334.141,227.05L334.863,234.201L335.586,228.406L336.309,227.394L337.031,227.62L337.754,224.48L338.477,225.814L339.199,225.561L339.922,222.404L340.645,222.079L341.367,222.855L342.09,219.547L342.813,220.764L343.535,220.919L344.258,219.32L344.98,215.615L345.703,214.771L346.426,213.829L347.148,213.161L347.871,214.03L348.594,211.318L349.316,211.615L350.039,210.877L350.762,207.926L351.484,207.366L352.207,207.841L352.93,203.583L353.652,202.062L354.375,202.52L355.098,200.161L355.82,200.784L356.543,201.827L357.266,200.229L357.988,201.634L358.711,195.053L359.434,197.456L360.156,196.486L360.879,193.067L361.602,189.531L362.324,192.44L363.047,190.929L363.77,188.037L364.492,185.061L365.215,190.013L365.938,185.334L366.66,183.004L367.383,182.43L368.105,182.701L368.828,180.504L369.551,182.438L370.273,180.025L370.996,179.758L371.719,175.302L372.441,174.836L373.164,172.131L373.887,172.961L374.609,174.546L375.332,170.438L376.055,168.054L376.777,172.336L377.5,170.917L378.223,167.719L378.945,165.934L379.668,166.257L380.391,166.694L381.113,164.322L381.836,161.464L382.559,162.861L383.281,158.895L384.004,157.691L384.727,159.361L385.449,156.877L386.172,155.337L386.895,156.52L387.617,152.651L388.34,150.094L389.063,153.986L389.785,153.283L390.508,148.948L391.23,150.372L391.953,147.708L392.676,145.525L393.398,145.412L394.121,143.496L394.844,145.864L395.566,141.867L396.289,142.084L397.012,143.095L397.734,142.288L398.457,138.258L399.18,137.115L399.902,137.008L400.625,138.795L401.348,136.576L402.07,136.674L402.793,134.069L403.516,132.837L404.238,134.453L404.961,131.904L405.684,131.463L406.406,129.057L407.129,130.358L407.852,129.105L408.574,127.361L409.297,127.605L410.02,126.892L410.742,126.167L411.465,123.828L412.188,124.42L412.91,122.191L413.633,123.207L414.355,122.311L415.078,119.29L415.801,120.841L416.523,117.979L417.246,117.321L417.969,117.075L418.691,115.704L419.414,115.148L420.137,114.244L420.859,116.15L421.582,114.801L422.305,114.156L423.027,113.135L423.75,113.208L424.473,110.914L425.195,109.991L425.918,108.345L426.641,112.112L427.363,109.995L428.086,107.652L428.809,108.502L429.531,107.031L430.254,104.472L430.977,104.747L431.699,106.513L432.422,105.296L433.145,102.884L433.867,102.844L434.59,103.539L435.313,101.521L436.035,101.85L436.758,100.542L437.48,101.57L438.203,100.34L438.926,98.516L439.648,100.396L440.371,97.402L441.094,97.656L441.816,98.329L442.539,97.82L443.262,97.266L443.984,96.166L444.707,97.2L445.43,95.25L446.152,95.295L446.875,93.559L447.598,94.797L448.32,92.949L449.043,92.131L449.766,93.105L450.488,92.854L451.211,92.303L451.934,90.36L452.656,90.892L453.379,90.402L454.102,91.261L454.824,87.782L455.547,89.417L456.27,89.076L456.992,87.437L457.715,88.595L458.438,88.113L459.16,87.259L459.883,88.118L460.605,87.202L461.328,87.032L462.051,84.93L462.773,84.86L463.496,84.896L464.219,84.725L464.941,84.654L465.664,83.866L466.387,83.672L467.109,82.669L467.832,82.242L468.555,82.593L469.277,82.197"/><path fill="none" stroke="rgb(236, 209, 46)" stroke-width="1.5" d="M100,116.974L100.723,163.508L101.445,168.814L102.168,170.31L102.891,173.018L103.613,176.786L104.336,178.913L105.059,180.981L105.781,181.971L106.504,184.401L107.227,184.604L107.949,188.134L108.672,188.348L109.395,191.402L110.117,194.044L110.84,192.926L111.563,193.163L112.285,198.651L113.008,197.536L113.73,200.309L114.453,200.797L115.176,201.635L115.898,204.701L116.621,205.321L117.344,206.3L118.066,207.728L118.789,207.701L119.512,205.48L120.234,207.637L120.957,210.872L121.68,207.641L122.402,210.901L123.125,209.801L123.848,209.099L124.57,208.557L125.293,211.945L126.016,212.586L126.738,209.617L127.461,209.143L128.184,209.448L128.906,211.343L129.629,208.051L130.352,213.565L131.074,208.501L131.797,214.531L132.52,210.236L133.242,210.215L133.965,212.617L134.688,211.944L135.41,211.274L136.133,215.429L136.855,211.597L137.578,212.792L138.301,213.786L139.023,214.635L139.746,213.973L140.469,211.263L141.191,213.469L141.914,212.218L142.637,213.568L143.359,212.245L144.082,212.902L144.805,214.928L145.527,213.283L146.25,213.22L146.973,216.358L147.695,215.448L148.418,217.066L149.141,215.964L149.863,215.877L150.586,217.826L151.309,216.347L152.031,214.015L152.754,218.019L153.477,216.012L154.199,215.661L154.922,216.99L155.645,217.026L156.367,217.359L157.09,216.753L157.813,218.221L158.535,219.661L159.258,216.553L159.98,218.264L160.703,216.934L161.426,217.881L162.148,218.033L162.871,216.255L163.594,217.548L164.316,220.171L165.039,218.872L165.762,218.987L166.484,217.896L167.207,220.54L167.93,220.849L168.652,222.998L169.375,219.83L170.098,219.276L170.82,222.481L171.543,221.477L172.266,221.055L172.988,222.136L173.711,221.712L174.434,222.242L175.156,221.004L175.879,222.812L176.602,222.935L177.324,223.149L178.047,220.905L178.77,223.414L179.492,224.905L180.215,225.198L180.938,222.906L181.66,223.918L182.383,224.564L183.105,225.461L183.828,223.846L184.551,223.085L185.273,225.59L185.996,225.467L186.719,226.806L187.441,224.975L188.164,228.235L188.887,227.421L189.609,227.805L190.332,226.363L191.055,228.716L191.777,225.885L192.5,227.824L193.223,230.219L193.945,229.458L194.668,231.485L195.391,230.027L196.113,232.668L196.836,230.817L197.559,228.246L198.281,228.806L199.004,229.818L199.727,230.16L200.449,231.151L201.172,230.169L201.895,230.505L202.617,232.937L203.34,232.101L204.063,235.406L204.785,235.54L205.508,233.27L206.23,233.03L206.953,235.162L207.676,233.344L208.398,234.996L209.121,236.824L209.844,237.202L210.566,233.652L211.289,236.983L212.012,234.852L212.734,234.569L213.457,238.318L214.18,235.211L214.902,238.126L215.625,237.684L216.348,238.717L217.07,239.113L217.793,240.526L218.516,238.913L219.238,238.76L219.961,240.409L220.684,240.676L221.406,240.039L222.129,240.427L222.852,240.361L223.574,243.19L224.297,244.766L225.02,243.361L225.742,243.566L226.465,243.347L227.188,245.969L227.91,244.358L228.633,241.941L229.355,242.698L230.078,245.639L230.801,243.6L231.523,243.871L232.246,246.529L232.969,245.782L233.691,244.513L234.414,246.415L235.137,247.32L235.859,246.331L236.582,248.225L237.305,248.533L238.027,249.233L238.75,248.638L239.473,246.33L240.195,248.45L240.918,249.619L241.641,248.181L242.363,250.358L243.086,250.861L243.809,250.408L244.531,248.089L245.254,254.339L245.977,251.454L246.699,253.382L247.422,252.084L248.145,251.129L248.867,251.884L249.59,253.308L250.313,251.355L251.035,253.872L251.758,250.107L252.48,254.666L253.203,254.344L253.926,252.242L254.648,253.445L255.371,253.742L256.094,252.597L256.816,251.964L257.539,255.396L258.262,251.846L258.984,254.754L259.707,254.074L260.43,253.804L261.152,256.397L261.875,256.018L262.598,258.039L263.32,255.355L264.043,256.321L264.766,256.097L265.488,253.701L266.211,256.122L266.934,254.453L267.656,254.409L268.379,256.059L269.102,257.444L269.824,254.142L270.547,254.689L271.27,255.899L271.992,255.926L272.715,254.663L273.438,253.864L274.16,257.952L274.883,251.913L275.605,252.069L276.328,256.095L277.051,255.866L277.773,253.614L278.496,254.918L279.219,255.858L279.941,254.491L280.664,252.17L281.387,253.774L282.109,254.874L282.832,254.506L283.555,251.917L284.277,250.722L285,250.344L285.723,249.275L286.445,250.718L287.168,250.383L287.891,247.974L288.613,249.86L289.336,250.318L290.059,248.672L290.781,250.424L291.504,247.851L292.227,250.131L292.949,246.88L293.672,247.868L294.395,247.471L295.117,247.994L295.84,243.652L296.563,242.805L297.285,245.705L298.008,245.662L298.73,244.609L299.453,242.423L300.176,246.538L300.898,242.754L301.621,239.622L302.344,241.781L303.066,238.459L303.789,240.27L304.512,239.328L305.234,237.922L305.957,240.916L306.68,233.717L307.402,236.325L308.125,231.014L308.848,236.832L309.57,230.032L310.293,234.254L311.016,234.077L311.738,228.15L312.461,230.88L313.184,228.578L313.906,228.998L314.629,225.714L315.352,227.026L316.074,224.915L316.797,224.01L317.52,224.231L318.242,223.14L318.965,222.804L319.688,221.226L320.41,222.813L321.133,219.302L321.855,219.597L322.578,217.057L323.301,216.664L324.023,212.349L324.746,214.559L325.469,213.032L326.191,213.301L326.914,211.594L327.637,205.99L328.359,211.104L329.082,206.067L329.805,207.73L330.527,201.012L331.25,204.575L331.973,203.418L332.695,200.138L333.418,200.465L334.141,199.329L334.863,197.079L335.586,197.084L336.309,195.419L337.031,194.588L337.754,192.22L338.477,192.235L339.199,188.307L339.922,189.295L340.645,189.313L341.367,189.189L342.09,186.058L342.813,185.099L343.535,180.346L344.258,180.618L344.98,181.089L345.703,177.232L346.426,179.059L347.148,175.307L347.871,174.272L348.594,173.61L349.316,171.58L350.039,169.824L350.762,170.314L351.484,168.195L352.207,169.92L352.93,166.687L353.652,165.147L354.375,162.671L355.098,163.349L355.82,160.109L356.543,158.559L357.266,156.498L357.988,158.067L358.711,156.838L359.434,152.573L360.156,153.955L360.879,152.893L361.602,150.957L362.324,149.073L363.047,147.275L363.77,147.154L364.492,146.728L365.215,145.695L365.938,144.192L366.66,141.307L367.383,141.67L368.105,139.282L368.828,139.7L369.551,137.253L370.273,138.377L370.996,136.527L371.719,133.157L372.441,130.766L373.164,131.599L373.887,129.3L374.609,129.156L375.332,127.648L376.055,128.161L376.777,124.884L377.5,121.367L378.223,121.394L378.945,123.129L379.668,121.159L380.391,119.872L381.113,120.02L381.836,118.231L382.559,115.177L383.281,114.275L384.004,115.301L384.727,114.329L385.449,110.808L386.172,109.547L386.895,109.306L387.617,107.791L388.34,106.708L389.063,106.558L389.785,105.36L390.508,102.826L391.23,101.341L391.953,100.728L392.676,101.237L393.398,100.932L394.121,99.489L394.844,99.797L395.566,95.775L396.289,96.966L397.012,95.12L397.734,95.876L398.457,91.181L399.18,93.204L399.902,91.333L400.625,88.083L401.348,86.497L402.07,88.741L402.793,89.536L403.516,84.302L404.238,85.366L404.961,86.701L405.684,85.072L406.406,82.228L407.129,82.205L407.852,81.975L408.574,81.676L409.297,80.256L410.02,78.332L410.742,80.066L411.465,78.519L412.188,77.389L412.91,74.265L413.633,73.706L414.355,75.538L415.078,73.617L415.801,71.47L416.523,71.465L417.246,71.017L417.969,69.609L418.691,69.07L419.414,66.512L420.137,68.969L420.859,67.661L421.582,63.978L422.305,67.364L423.027,66.27L423.75,65.036L424.473,65.973L425.195,64.444L425.918,62.305L426.641,61.597L427.363,62.997L428.086,58.836L428.809,60.179L429.531,58.275L430.254,61.287L430.977,59.603L431.699,57.14L432.422,57.88L433.145,57.656L433.867,57.231L434.59,55.977L435.313,54.328L436.035,55.112L436.758,52.976L437.48,52.39L438.203,54.185L438.926,50.101L439.648,53.034L440.371,52.387L441.094,49.736L441.816,49.551L442.539,50.166L443.262,49.392L443.984,49.384L444.707,47.611L445.43,47.583L446.152,46.362L446.875,46.865L447.598,45.716L448.32,45.205L449.043,45.564L449.766,46.685L450.488,45.354L451.211,44.328L451.934,43.051L452.656,43.064L453.379,42.45L454.102,41.87L454.824,42.364L455.547,43.028L456.27,41.757L456.992,39.864L457.715,40.358L458.438,38.711L459.16,38.231L459.883,38.822L460.605,38.328L461.328,38.702L462.051,37.351L462.773,38.536L463.496,36.57L464.219,37.021L464.941,38.477L465.664,36.109L466.387,35.702L467.109,35.005L467.832,34.972L468.555,34.384L469.277,33.416"/><path fill="none" stroke="rgb(255, 130, 29)" stroke-width="1.5" d="M100,122.326L100.723,157.546L101.445,163.895L102.168,165.825L102.891,170.817L103.613,172.394L104.336,173.74L105.059,175.993L105.781,178.854L106.504,179.002L107.227,179.886L107.949,183.321L108.672,185.786L109.395,186.023L110.117,188.74L110.84,190.128L111.563,189.741L112.285,192.959L113.008,195.285L113.73,194.065L114.453,196.573L115.176,197.027L115.898,199.642L116.621,202.616L117.344,203.241L118.066,205.179L118.789,203.414L119.512,204.57L120.234,204.964L120.957,205.695L121.68,205.619L122.402,207.399L123.125,205.922L123.848,205.832L124.57,208.69L125.293,206.542L126.016,208.79L126.738,207.202L127.461,210.269L128.184,207.963L128.906,208.355L129.629,209.255L130.352,208.675L131.074,208.702L131.797,211.313L132.52,207.19L133.242,210.903L133.965,209.33L134.688,211.375L135.41,210.073L136.133,213.835L136.855,210.301L137.578,211.119L138.301,210.489L139.023,214.1L139.746,211.494L140.469,213.326L141.191,212.222L141.914,215.43L142.637,213.54L143.359,215.994L144.082,213.611L144.805,214.984L145.527,213.38L146.25,216.024L146.973,215.722L147.695,217.345L148.418,217.719L149.141,217.145L149.863,217.536L150.586,217.789L151.309,220.998L152.031,219.203L152.754,218.708L153.477,221.677L154.199,219.866L154.922,218.793L155.645,222.642L156.367,221.525L157.09,223.422L157.813,221.064L158.535,224.901L159.258,222.662L159.98,223.038L160.703,223.281L161.426,222.891L162.148,223.859L162.871,225.125L163.594,224.23L164.316,228.688L165.039,227.048L165.762,228.97L166.484,229.185L167.207,227.516L167.93,228.069L168.652,228.011L169.375,231.477L170.098,231.314L170.82,232.568L171.543,231.778L172.266,232.099L172.988,232.748L173.711,233.714L174.434,234.5L175.156,232.735L175.879,233.93L176.602,235.55L177.324,236.448L178.047,236.134L178.77,237.012L179.492,237.579L180.215,238.065L180.938,238.314L181.66,238.361L182.383,237.805L183.105,240.284L183.828,240.616L184.551,241.14L185.273,241.543L185.996,243.356L186.719,240.419L187.441,240.172L188.164,244.818L188.887,243.177L189.609,243.563L190.332,245.603L191.055,244.91L191.777,244.354L192.5,247.207L193.223,247.806L193.945,248.448L194.668,249.306L195.391,247.989L196.113,248.656L196.836,249.388L197.559,251.065L198.281,251.718L199.004,254.552L199.727,253.384L200.449,255.455L201.172,255.427L201.895,253.969L202.617,254.466L203.34,256.305L204.063,256.794L204.785,259.718L205.508,258.164L206.23,256.916L206.953,260.203L207.676,260.033L208.398,260.844L209.121,260.017L209.844,261.707L210.566,260.908L211.289,262.386L212.012,264.833L212.734,262.257L213.457,263.462L214.18,263.853L214.902,262.632L215.625,263.733L216.348,265.492L217.07,264.506L217.793,264.68L218.516,266.627L219.238,267.946L219.961,267.012L220.684,267.915L221.406,271.376L222.129,271.017L222.852,271.848L223.574,270.795L224.297,270.598L225.02,272.993L225.742,272.432L226.465,273.524L227.188,273.206L227.91,272.672L228.633,277.335L229.355,276.685L230.078,272.78L230.801,274.228L231.523,277.51L232.246,276.541L232.969,275.712L233.691,276.575L234.414,276.75L235.137,278.077L235.859,278.661L236.582,276.686L237.305,279.475L238.027,278.779L238.75,279.759L239.473,281.216L240.195,277.603L240.918,281.758L241.641,277.968L242.363,282.148L243.086,281.903L243.809,279.314L244.531,284.503L245.254,280.695L245.977,280.956L246.699,282.463L247.422,283.946L248.145,282.454L248.867,282.326L249.59,283.449L250.313,280.789L251.035,281.129L251.758,284.18L252.48,282.518L253.203,285.615L253.926,282.5L254.648,284.512L255.371,280.916L256.094,284.942L256.816,282.911L257.539,283.89L258.262,284.603L258.984,284.569L259.707,286.526L260.43,284.058L261.152,286.08L261.875,286.769L262.598,286.707L263.32,286.336L264.043,286.302L264.766,285.357L265.488,285.055L266.211,282.71L266.934,284.356L267.656,286.629L268.379,287.694L269.102,281.358L269.824,284.979L270.547,281.914L271.27,284.191L271.992,281.268L272.715,282.213L273.438,282.854L274.16,282.183L274.883,283.646L275.605,284.271L276.328,278.802L277.051,283.002L277.773,281.942L278.496,278.281L279.219,277.357L279.941,283.805L280.664,276.584L281.387,277.541L282.109,277.575L282.832,277.3L283.555,276.466L284.277,274.184L285,273.563L285.723,277.985L286.445,273.986L287.168,274.216L287.891,274.341L288.613,272.467L289.336,274.383L290.059,268.179L290.781,271.397L291.504,272.889L292.227,267.643L292.949,269.036L293.672,268.575L294.395,267.959L295.117,265.663L295.84,267.759L296.563,266.405L297.285,266.193L298.008,264.61L298.73,261.577L299.453,262.735L300.176,259.697L300.898,259.524L301.621,257.397L302.344,258.992L303.066,254.764L303.789,256.008L304.512,251.592L305.234,253.422L305.957,249.308L306.68,250.353L307.402,250.693L308.125,249.331L308.848,249.379L309.57,247.158L310.293,245.463L311.016,246.764L311.738,242.689L312.461,243.663L313.184,238.817L313.906,239.249L314.629,238.91L315.352,238.909L316.074,235.837L316.797,234.891L317.52,233.584L318.242,230.236L318.965,229.726L319.688,228.289L320.41,225.587L321.133,227.61L321.855,227.767L322.578,224.41L323.301,219.801L324.023,221.551L324.746,218.045L325.469,217.684L326.191,215.472L326.914,216.028L327.637,215.616L328.359,213.258L329.082,209.101L329.805,213.124L330.527,209.079L331.25,205.69L331.973,204.395L332.695,206.263L333.418,202.673L334.141,204.065L334.863,199.626L335.586,197.137L336.309,197.945L337.031,193.738L337.754,193.673L338.477,193.585L339.199,189.018L339.922,191.384L340.645,187.35L341.367,185.988L342.09,187.448L342.813,183.874L343.535,179.671L344.258,181.196L344.98,176.885L345.703,178.233L346.426,176.185L347.148,174.107L347.871,171.634L348.594,168.458L349.316,169.047L350.039,168.341L350.762,165.719L351.484,164.56L352.207,162.467L352.93,161.929L353.652,159.587L354.375,159.892L355.098,160.602L355.82,155.214L356.543,154.238L357.266,154.264L357.988,152.922L358.711,150.134L359.434,150.667L360.156,149.661L360.879,147.51L361.602,144.079L362.324,143.347L363.047,141.615L363.77,139.939L364.492,141.889L365.215,139.266L365.938,137.21L366.66,133.552L367.383,130.62L368.105,131.93L368.828,131.876L369.551,129.239L370.273,126.78L370.996,127.363L371.719,124.117L372.441,123.644L373.164,123.423L373.887,121.74L374.609,120.932L375.332,118.061L376.055,118.342L376.777,115.827L377.5,112.905L378.223,113.538L378.945,113.899L379.668,111.417L380.391,109.82L381.113,107.53L381.836,107.992L382.559,105.531L383.281,105.058L384.004,101.323L384.727,105.002L385.449,102.858L386.172,99.575L386.895,100.212L387.617,97.918L388.34,95.514L389.063,97.955L389.785,94.667L390.508,95.15L391.23,93.007L391.953,92.535L392.676,91.956L393.398,90.439L394.121,88.34L394.844,87.32L395.566,86.851L396.289,84.507L397.012,84.638L397.734,81.658L398.457,81.571L399.18,82.013L399.902,81.353L400.625,78.318L401.348,76.365L402.07,75.602L402.793,76.822L403.516,75.886L404.238,74.978L404.961,72.291L405.684,72.654L406.406,71.296L407.129,68.946L407.852,68.853L408.574,69.575L409.297,68.269L410.02,66.496L410.742,66.775L411.465,65.613L412.188,66.968L412.91,64.452L413.633,63.572L414.355,61.552L415.078,62.377L415.801,61.086L416.523,59.619L417.246,59.717L417.969,57.979L418.691,58.226L419.414,56.325L420.137,56.626L420.859,55.883L421.582,53.829L422.305,53.272L423.027,54.752L423.75,52.53L424.473,51.81L425.195,52.111L425.918,50.968L426.641,49.478L427.363,48.859L428.086,48.427L428.809,49.506L429.531,47.952L430.254,47.28L430.977,46.357L431.699,43.69L432.422,45.293L433.145,46.293L433.867,42.691L434.59,42.286L435.313,41.598L436.035,42.447L436.758,41.645L437.48,40.214L438.203,40.761L438.926,39.374L439.648,39.359L440.371,39.9L441.094,37.409L441.816,36.905L442.539,38.237L443.262,37.352L443.984,34.663L444.707,35.941L445.43,34.907L446.152,34.947L446.875,34.109L447.598,33.414L448.32,32.056L449.043,32.63L449.766,32.038L450.488,31.639L451.211,30.153L451.934,31.029L452.656,30.379L453.379,29.903L454.102,28.871L454.824,28.616L455.547,27.925L456.27,27.986L456.992,26.891L457.715,26.439L458.438,26.868L459.16,25.403L459.883,25.896L460.605,25.281L461.328,24.518L462.051,23.687L462.773,23.85L463.496,22.792L464.219,23.33L464.941,21.914L465.664,22.433L466.387,21.484L467.109,22.213L467.832,21.527L468.555,21.497L469.277,20"/><path fill="none" stroke="rgb(203, 47, 13)" stroke-width="1.5" d="M100,122.686L100.723,153.391L101.445,162.15L102.168,162.81L102.891,165.983L103.613,167.557L104.336,169.795L105.059,174.681L105.781,176.106L106.504,175.606L107.227,179.381L107.949,181.21L108.672,183.545L109.395,186.71L110.117,187.549L110.84,187.718L111.563,188.855L112.285,194.399L113.008,193.71L113.73,192.173L114.453,198.744L115.176,194.969L115.898,197.891L116.621,197.182L117.344,202.676L118.066,200.329L118.789,202.262L119.512,202.306L120.234,205.286L120.957,203.88L121.68,205.488L122.402,204.689L123.125,206.173L123.848,205.782L124.57,205.008L125.293,204.934L126.016,208.951L126.738,204.735L127.461,208.341L128.184,206.111L128.906,208.065L129.629,209.354L130.352,207.039L131.074,211.182L131.797,209.861L132.52,211.029L133.242,209.092L133.965,209.774L134.688,210.135L135.41,212.265L136.133,210.431L136.855,210.254L137.578,212.85L138.301,212.723L139.023,213.595L139.746,213.745L140.469,216.196L141.191,215.292L141.914,213.048L142.637,212.451L143.359,215.959L144.082,214.707L144.805,216.523L145.527,217.078L146.25,216.4L146.973,218.45L147.695,216.645L148.418,217.065L149.141,219.641L149.863,220.515L150.586,217.175L151.309,218.414L152.031,222.262L152.754,222.365L153.477,221.719L154.199,220.678L154.922,223.546L155.645,225.813L156.367,222.146L157.09,224.142L157.813,224.86L158.535,227.324L159.258,226.304L159.98,226.841L160.703,227.609L161.426,228.283L162.148,229.072L162.871,229.619L163.594,231.566L164.316,232.487L165.039,230.103L165.762,230.091L166.484,231.356L167.207,233.289L167.93,234.128L168.652,234.848L169.375,236.018L170.098,235.96L170.82,236.931L171.543,237.464L172.266,239.602L172.988,238.903L173.711,237.949L174.434,240.297L175.156,240.533L175.879,243.581L176.602,240.728L177.324,243.125L178.047,244.509L178.77,244.441L179.492,244.945L180.215,246.615L180.938,246.818L181.66,250.165L182.383,247.528L183.105,248.581L183.828,249.232L184.551,251.469L185.273,250.815L185.996,251.096L186.719,251.371L187.441,255.014L188.164,254.866L188.887,256.615L189.609,257.579L190.332,257.804L191.055,260.081L191.777,259.475L192.5,261.867L193.223,261.809L193.945,263.117L194.668,266.212L195.391,264.257L196.113,266.156L196.836,267.732L197.559,266.855L198.281,271.481L199.004,269.049L199.727,270.121L200.449,273.107L201.172,271.141L201.895,270.882L202.617,274.029L203.34,276.183L204.063,277.197L204.785,276.113L205.508,277.647L206.23,275.918L206.953,279.756L207.676,280.68L208.398,281.837L209.121,283.162L209.844,282.219L210.566,283.521L211.289,286.122L212.012,285.964L212.734,287.585L213.457,289.767L214.18,289.102L214.902,290.589L215.625,291.261L216.348,295.538L217.07,296.041L217.793,295.636L218.516,295.877L219.238,294.362L219.961,296.211L220.684,298.617L221.406,304.089L222.129,298.298L222.852,301.484L223.574,306.853L224.297,303.502L225.02,301.885L225.742,304.325L226.465,303.677L227.188,307.361L227.91,309.378L228.633,310.392L229.355,309.288L230.078,309.355L230.801,313.387L231.523,311.402L232.246,313.597L232.969,315.955L233.691,317.707L234.414,314.449L235.137,317.082L235.859,315.232L236.582,318.32L237.305,320.007L238.027,323.47L238.75,321.71L239.473,321.053L240.195,323.729L240.918,325.828L241.641,323.086L242.363,323.609L243.086,324.598L243.809,329.144L244.531,326.575L245.254,328.846L245.977,329.198L246.699,335.318L247.422,331.384L248.145,335.486L248.867,330.327L249.59,334.395L250.313,333.998L251.035,339.539L251.758,335.583L252.48,334.509L253.203,334.782L253.926,340.473L254.648,338.355L255.371,338.818L256.094,340.751L256.816,343.164L257.539,340.138L258.262,342.362L258.984,341.323L259.707,343.917L260.43,345.963L261.152,343.528L261.875,342.898L262.598,341.383L263.32,343.604L264.043,346.367L264.766,344.993L265.488,348.89L266.211,346.097L266.934,345.16L267.656,344.307L268.379,350L269.102,346.156L269.824,348.184L270.547,345.721L271.27,348.615L271.992,344.28L272.715,344.562L273.438,346.39L274.16,347.896L274.883,349.252L275.605,348.691L276.328,347.353L277.051,349.04L277.773,348.893L278.496,346.738L279.219,346.236L279.941,347.373L280.664,348.175L281.387,347.594L282.109,349.114L282.832,345.98L283.555,349.532L284.277,345.967L285,345.712L285.723,344.268L286.445,345.085L287.168,345.626L287.891,343.35L288.613,340.265L289.336,343.924L290.059,344.787L290.781,341.55L291.504,339.795L292.227,341.635L292.949,339.91L293.672,341.381L294.395,339.762L295.117,337.759L295.84,337.549L296.563,338.366L297.285,336.478L298.008,339.368L298.73,337.879L299.453,337.177L300.176,333.561L300.898,332.265L301.621,334.197L302.344,330.858L303.066,328.24L303.789,331.264L304.512,327.815L305.234,326.766L305.957,322.639L306.68,325.065L307.402,321.699L308.125,322.459L308.848,320.916L309.57,322.298L310.293,317.703L311.016,320.768L311.738,318.85L312.461,317.341L313.184,313.821L313.906,315.092L314.629,310.917L315.352,308.776L316.074,309.653L316.797,312.842L317.52,311.216L318.242,306.81L318.965,304.848L319.688,301.298L320.41,302.962L321.133,297.237L321.855,296.544L322.578,296.733L323.301,294.087L324.023,297.725L324.746,295.327L325.469,295.488L326.191,291.992L326.914,285.025L327.637,287.323L328.359,283.157L329.082,282.363L329.805,280.541L330.527,280.477L331.25,279.567L331.973,275.064L332.695,273.041L333.418,272.303L334.141,270.561L334.863,273.831L335.586,272.367L336.309,266.802L337.031,262.614L337.754,266.707L338.477,264.443L339.199,261.219L339.922,260.253L340.645,256.459L341.367,254.7L342.09,256.726L342.813,248.773L343.535,246.912L344.258,250.258L344.98,247.127L345.703,245.843L346.426,240.249L347.148,238.688L347.871,238.998L348.594,234.525L349.316,235.994L350.039,238.229L350.762,230.451L351.484,229.81L352.207,228.997L352.93,225.506L353.652,229.332L354.375,224.111L355.098,223.472L355.82,222.052L356.543,215.439L357.266,216.605L357.988,213.094L358.711,212.291L359.434,209.877L360.156,211.281L360.879,206.447L361.602,205.029L362.324,204.232L363.047,205.569L363.77,201.58L364.492,200.673L365.215,196.502L365.938,198.874L366.66,195.16L367.383,193.042L368.105,190.884L368.828,188.404L369.551,188.072L370.273,186.187L370.996,183.567L371.719,181.056L372.441,180.312L373.164,176.501L373.887,178.025L374.609,177.645L375.332,171.714L376.055,173.235L376.777,172.877L377.5,169.554L378.223,171.547L378.945,169.503L379.668,166.075L380.391,163.228L381.113,164.511L381.836,162.193L382.559,160.247L383.281,157.063L384.004,155.634L384.727,159.311L385.449,155.786L386.172,153.65L386.895,152.813L387.617,152.244L388.34,147.639L389.063,146.689L389.785,146.73L390.508,142.147L391.23,143.929L391.953,141.248L392.676,140.123L393.398,140.167L394.121,140.823L394.844,135.999L395.566,134.552L396.289,132.785L397.012,132.606L397.734,130.817L398.457,131.425L399.18,126.917L399.902,127.289L400.625,124.916L401.348,120.073L402.07,125.62L402.793,124.812L403.516,120.006L404.238,117.755L404.961,119.172L405.684,117.747L406.406,115.855L407.129,114.059L407.852,112.634L408.574,112.489L409.297,111.344L410.02,111.143L410.742,111.163L411.465,108.023L412.188,107.319L412.91,108.447L413.633,104.588L414.355,103.96L415.078,102.416L415.801,100.269L416.523,99.73L417.246,97.692L417.969,97.621L418.691,97.711L419.414,94.933L420.137,92.733L420.859,95.495L421.582,95.74L422.305,91.77L423.027,94.09L423.75,88.463L424.473,91.87L425.195,87.59L425.918,89.311L426.641,88.424L427.363,85.212L428.086,86.002L428.809,83.916L429.531,84.069L430.254,81.463L430.977,83.015L431.699,79.26L432.422,79.833L433.145,79.601L433.867,79.248L434.59,77.696L435.313,76.26L436.035,77.167L436.758,74.357L437.48,73.416L438.203,74.328L438.926,71.021L439.648,69.236L440.371,70.858L441.094,70.683L441.816,69.992L442.539,69.095L443.262,68.327L443.984,68.862L444.707,66.635L445.43,63.069L446.152,64.6L446.875,65.07L447.598,64.133L448.32,63.052L449.043,61.892L449.766,62.001L450.488,60.625L451.211,61.188L451.934,59.301L452.656,58.901L453.379,57.187L454.102,57.075L454.824,58.431L455.547,56.761L456.27,54.066L456.992,56.647L457.715,53.7L458.438,52.23L459.16,53.53L459.883,51.166L460.605,50.323L461.328,50.064L462.051,49.967L462.773,50.664L463.496,47.729L464.219,47.541L464.941,46.806L465.664,47.733L466.387,46.313L467.109,46.418L467.832,45.37L468.555,45.299L469.277,44.309"/><g transform="translate(0,190) scale(1.7) rotate(-90)"><text>Drift</text></g><g transform="translate(315,395) scale(1.8)"><text></text></g><g transform="translate(0,350)" fill="none" font-size="10" font-family="sans-serif" text-anchor="middle"><path class="domain" stroke="currentColor" d="M100,6V0H470V6"/><g class="tick" opacity="1" transform="translate(136.66666666666666,0)"><line stroke="currentColor" y2="6"/><text fill="currentColor" y="9" dy="0.71em" font-size="20px"> </text></g><g class="tick" opacity="1" transform="translate(173.7037037037037,0)"><line stroke="currentColor" y2="6"/><text fill="currentColor" y="9" dy="0.71em" font-size="20px">200</text></g><g class="tick" opacity="1" transform="translate(210.74074074074076,0)"><line stroke="currentColor" y2="6"/><text fill="currentColor" y="9" dy="0.71em" font-size="20px"> </text></g><g class="tick" opacity="1" transform="translate(247.77777777777777,0)"><line stroke="currentColor" y2="6"/><text fill="currentColor" y="9" dy="0.71em" font-size="20px">400</text></g><g class="tick" opacity="1" transform="translate(284.81481481481484,0)"><line stroke="currentColor" y2="6"/><text fill="currentColor" y="9" dy="0.71em" font-size="20px"> </text></g><g class="tick" opacity="1" transform="translate(321.85185185185185,0)"><line stroke="currentColor" y2="6"/><text fill="currentColor" y="9" dy="0.71em" font-size="20px">600</text></g><g class="tick" opacity="1" transform="translate(358.8888888888889,0)"><line stroke="currentColor" y2="6"/><text fill="currentColor" y="9" dy="0.71em" font-size="20px"> </text></g><g class="tick" opacity="1" transform="translate(395.9259259259259,0)"><line stroke="currentColor" y2="6"/><text fill="currentColor" y="9" dy="0.71em" font-size="20px">800</text></g><g class="tick" opacity="1" transform="translate(432.96296296296293,0)"><line stroke="currentColor" y2="6"/><text fill="currentColor" y="9" dy="0.71em" font-size="20px"> </text></g><g class="tick" opacity="1" transform="translate(470,0)"><line stroke="currentColor" y2="6"/><text fill="currentColor" y="9" dy="0.71em" font-size="20px">1000</text></g></g><g transform="translate(100,0)" fill="none" font-size="10" font-family="sans-serif" text-anchor="end"><path class="domain" stroke="currentColor" d="M-6,350H0V20H-6"/><g class="tick" opacity="1" transform="translate(0,343.46989529234264)"><line stroke="currentColor" x2="-6"/><text fill="currentColor" x="-9" dy="0.32em" font-size="20px">0.027</text></g><g class="tick" opacity="1" transform="translate(0,305.8893377267437)"><line stroke="currentColor" x2="-6"/><text fill="currentColor" x="-9" dy="0.32em" font-size="20px">0.026</text></g><g class="tick" opacity="1" transform="translate(0,268.30878016114485)"><line stroke="currentColor" x2="-6"/><text fill="currentColor" x="-9" dy="0.32em" font-size="20px">0.025</text></g><g class="tick" opacity="1" transform="translate(0,230.72822259554596)"><line stroke="currentColor" x2="-6"/><text fill="currentColor" x="-9" dy="0.32em" font-size="20px">0.024</text></g><g class="tick" opacity="1" transform="translate(0,193.14766502994706)"><line stroke="currentColor" x2="-6"/><text fill="currentColor" x="-9" dy="0.32em" font-size="20px">0.023</text></g><g class="tick" opacity="1" transform="translate(0,155.56710746434817)"><line stroke="currentColor" x2="-6"/><text fill="currentColor" x="-9" dy="0.32em" font-size="20px">0.022</text></g><g class="tick" opacity="1" transform="translate(0,117.98654989874936)"><line stroke="currentColor" x2="-6"/><text fill="currentColor" x="-9" dy="0.32em" font-size="20px">0.021</text></g><g class="tick" opacity="1" transform="translate(0,80.40599233315044)"><line stroke="currentColor" x2="-6"/><text fill="currentColor" x="-9" dy="0.32em" font-size="20px">0.020</text></g><g class="tick" opacity="1" transform="translate(0,42.82543476755153)"><line stroke="currentColor" x2="-6"/><text fill="currentColor" x="-9" dy="0.32em" font-size="20px">0.019</text></g></g><circle cx="135" cy="-25" r="8" style="fill: rgb(35, 23, 27);"/><circle cx="135" cy="0" r="8" style="fill: rgb(69, 105, 238);"/><circle cx="135" cy="25" r="8" style="fill: rgb(38, 188, 225);"/><circle cx="135" cy="50" r="8" style="fill: rgb(63, 243, 147);"/><circle cx="255" cy="-25" r="8" style="fill: rgb(149, 251, 81);"/><circle cx="255" cy="0" r="8" style="fill: rgb(236, 209, 46);"/><circle cx="255" cy="25" r="8" style="fill: rgb(255, 130, 29);"/><circle cx="255" cy="50" r="8" style="fill: rgb(203, 47, 13);"/><text x="150" y="-25" text-anchor="left" font-size="22" alignment-baseline="middle" style="fill: rgb(35, 23, 27);"> = 0</text><text x="150" y="0" text-anchor="left" font-size="22" alignment-baseline="middle" style="fill: rgb(69, 105, 238);"> = 0.22</text><text x="150" y="25" text-anchor="left" font-size="22" alignment-baseline="middle" style="fill: rgb(38, 188, 225);"> = 0.45</text><text x="150" y="50" text-anchor="left" font-size="22" alignment-baseline="middle" style="fill: rgb(63, 243, 147);"> = 0.67</text><text x="275" y="-25" text-anchor="left" font-size="22" alignment-baseline="middle" style="fill: rgb(149, 251, 81);"> = 0.9</text><text x="275" y="0" text-anchor="left" font-size="22" alignment-baseline="middle" style="fill: rgb(236, 209, 46);"> = 1.12</text><text x="275" y="25" text-anchor="left" font-size="22" alignment-baseline="middle" style="fill: rgb(255, 130, 29);"> = 1.35</text><text x="275" y="50" text-anchor="left" font-size="22" alignment-baseline="middle" style="fill: rgb(203, 47, 13);"> = 1.57</text></svg>