<svg xmlns="http://www.w3.org/2000/svg" class="bg-white" width="500" height="400" viewBox="-35.04000000000004 -45.31999999999999 605.0000000000001 484.00000000000006"><path fill="none" stroke="rgb(35, 23, 27)" stroke-width="1.5" d="M100,65.501L100.723,64.302L101.445,63.358L102.168,62.546L102.891,61.829L103.613,61.158L104.336,60.509L105.059,59.989L105.781,59.419L106.504,58.937L107.227,58.457L107.949,58.022L108.672,57.646L109.395,57.274L110.117,56.913L110.84,56.51L111.563,56.175L112.285,55.775L113.008,55.333L113.73,55.001L114.453,54.605L115.176,54.247L115.898,53.876L116.621,53.45L117.344,53.029L118.066,52.635L118.789,52.158L119.512,51.686L120.234,51.213L120.957,50.602L121.68,49.961L122.402,49.202L123.125,49.801L123.848,51.149L124.57,52.284L125.293,53.435L126.016,54.551L126.738,55.556L127.461,56.504L128.184,57.489L128.906,58.46L129.629,59.283L130.352,60.093L131.074,60.989L131.797,61.793L132.52,62.545L133.242,63.402L133.965,64.063L134.688,64.824L135.41,65.637L136.133,66.349L136.855,67.023L137.578,67.82L138.301,68.51L139.023,69.177L139.746,69.796L140.469,70.516L141.191,71.152L141.914,71.918L142.637,72.473L143.359,73.131L144.082,73.783L144.805,74.405L145.527,75.085L146.25,75.721L146.973,76.387L147.695,77.004L148.418,77.579L149.141,78.28L149.863,78.947L150.586,79.601L151.309,80.147L152.031,80.735L152.754,81.436L153.477,81.966L154.199,82.715L154.922,83.308L155.645,83.905L156.367,84.549L157.09,85.206L157.813,85.843L158.535,86.48L159.258,87.045L159.98,87.759L160.703,88.477L161.426,89.084L162.148,89.668L162.871,90.308L163.594,91.01L164.316,91.558L165.039,92.274L165.762,93.006L166.484,93.648L167.207,94.353L167.93,95.002L168.652,95.691L169.375,96.299L170.098,96.967L170.82,97.658L171.543,98.296L172.266,99.126L172.988,99.77L173.711,100.446L174.434,101.14L175.156,101.777L175.879,102.512L176.602,103.177L177.324,103.869L178.047,104.591L178.77,105.315L179.492,106.142L180.215,106.781L180.938,107.508L181.66,108.382L182.383,109.135L183.105,109.821L183.828,110.652L184.551,111.295L185.273,112.085L185.996,112.919L186.719,113.633L187.441,114.42L188.164,115.26L188.887,116.114L189.609,116.95L190.332,117.768L191.055,118.612L191.777,119.376L192.5,120.286L193.223,121.094L193.945,121.938L194.668,122.776L195.391,123.703L196.113,124.613L196.836,125.396L197.559,126.337L198.281,127.18L199.004,128.259L199.727,129.051L200.449,130.024L201.172,130.939L201.895,131.884L202.617,132.827L203.34,133.904L204.063,134.816L204.785,135.834L205.508,136.863L206.23,137.973L206.953,138.865L207.676,139.779L208.398,140.782L209.121,141.794L209.844,142.939L210.566,143.908L211.289,145.07L212.012,146.059L212.734,147.106L213.457,148.547L214.18,149.437L214.902,150.652L215.625,151.797L216.348,153.014L217.07,153.991L217.793,155.278L218.516,156.406L219.238,157.531L219.961,158.797L220.684,160.012L221.406,161.214L222.129,162.519L222.852,163.998L223.574,165.058L224.297,166.461L225.02,167.585L225.742,169.063L226.465,170.332L227.188,171.662L227.91,172.837L228.633,174.254L229.355,175.592L230.078,176.95L230.801,178.484L231.523,179.728L232.246,181.169L232.969,182.541L233.691,184.111L234.414,185.408L235.137,186.814L235.859,188.467L236.582,189.898L237.305,191.269L238.027,192.78L238.75,194.274L239.473,195.905L240.195,197.446L240.918,199.051L241.641,200.347L242.363,201.784L243.086,203.602L243.809,205.338L244.531,206.45L245.254,208.382L245.977,209.828L246.699,211.256L247.422,212.937L248.145,214.753L248.867,216.255L249.59,217.88L250.313,219.482L251.035,221.115L251.758,222.565L252.48,224.51L253.203,226.102L253.926,227.669L254.648,229.473L255.371,231.082L256.094,232.424L256.816,234.386L257.539,235.703L258.262,237.486L258.984,239.241L259.707,240.449L260.43,242.499L261.152,244.136L261.875,245.756L262.598,247.391L263.32,249.144L264.043,250.799L264.766,252.375L265.488,253.669L266.211,255.634L266.934,257.402L267.656,258.927L268.379,260.596L269.102,262.257L269.824,263.716L270.547,265.32L271.27,266.923L271.992,268.545L272.715,270.197L273.438,271.89L274.16,273.414L274.883,274.97L275.605,276.564L276.328,278.109L277.051,279.591L277.773,280.925L278.496,282.606L279.219,284.052L279.941,285.653L280.664,287.39L281.387,288.794L282.109,290.202L282.832,291.527L283.555,293.049L284.277,294.454L285,296.221L285.723,297.494L286.445,298.791L287.168,299.992L287.891,301.785L288.613,303.141L289.336,304.114L290.059,305.393L290.781,306.885L291.504,308.341L292.227,309.415L292.949,310.594L293.672,311.991L294.395,313.147L295.117,314.312L295.84,315.712L296.563,316.044L297.285,317.672L298.008,319.277L298.73,319.487L299.453,321.302L300.176,322.54L300.898,323.441L301.621,324.545L302.344,325.344L303.066,326.377L303.789,327.112L304.512,328.228L305.234,328.813L305.957,330.378L306.68,331.14L307.402,331.542L308.125,332.52L308.848,333.758L309.57,334.59L310.293,335.4L311.016,336.012L311.738,336.752L312.461,337.649L313.184,338.35L313.906,338.989L314.629,339.792L315.352,340.205L316.074,340.623L316.797,341.559L317.52,342.131L318.242,342.996L318.965,343.385L319.688,343.476L320.41,344.702L321.133,344.316L321.855,345.529L322.578,345.468L323.301,345.693L324.023,346.105L324.746,346.501L325.469,346.729L326.191,347.845L326.914,348.003L327.637,347.967L328.359,348.718L329.082,348.57L329.805,348.488L330.527,348.937L331.25,348.829L331.973,349.514L332.695,349.202L333.418,349.523L334.141,349.843L334.863,349.779L335.586,349.825L336.309,349.825L337.031,349.584L337.754,350L338.477,349.998L339.199,349.573L339.922,349.445L340.645,349.627L341.367,349.133L342.09,349.274L342.813,349.566L343.535,349.067L344.258,348.775L344.98,348.524L345.703,348.176L346.426,347.985L347.148,347.697L347.871,347.787L348.594,347.385L349.316,347.325L350.039,346.705L350.762,346.177L351.484,346.136L352.207,345.764L352.93,345.454L353.652,345.128L354.375,344.66L355.098,344.053L355.82,343.822L356.543,343.148L357.266,342.791L357.988,342.102L358.711,341.759L359.434,340.61L360.156,340.697L360.879,340.137L361.602,339.479L362.324,338.853L363.047,338.295L363.77,337.604L364.492,337.228L365.215,336.193L365.938,335.712L366.66,334.472L367.383,334.312L368.105,333.687L368.828,333.096L369.551,332.148L370.273,331.689L370.996,330.811L371.719,330.166L372.441,329.453L373.164,328.759L373.887,327.158L374.609,326.606L375.332,325.598L376.055,325.413L376.777,324.209L377.5,323.824L378.223,323.083L378.945,321.984L379.668,321.519L380.391,320.162L381.113,319.105L381.836,318.718L382.559,317.606L383.281,316.887L384.004,315.871L384.727,315.168L385.449,314.337L386.172,313.384L386.895,312.378L387.617,311.462L388.34,310.563L389.063,309.018L389.785,308.501L390.508,307.819L391.23,306.458L391.953,305.751L392.676,304.334L393.398,303.733L394.121,302.58L394.844,301.582L395.566,299.993L396.289,299.654L397.012,298.38L397.734,297.105L398.457,296.315L399.18,295.531L399.902,294.518L400.625,293.241L401.348,292.725L402.07,291.201L402.793,289.715L403.516,289.119L404.238,288.064L404.961,287.357L405.684,285.721L406.406,285.215L407.129,283.539L407.852,282.975L408.574,281.87L409.297,280.622L410.02,279.616L410.742,278.315L411.465,277.368L412.188,276.336L412.91,274.986L413.633,274.61L414.355,273.176L415.078,271.883L415.801,270.581L416.523,269.573L417.246,268.704L417.969,267.344L418.691,266.607L419.414,265.02L420.137,264.55L420.859,262.907L421.582,261.817L422.305,260.851L423.027,259.619L423.75,258.357L424.473,258.121L425.195,256.735L425.918,255.418L426.641,254.778L427.363,252.978L428.086,251.998L428.809,251.475L429.531,249.605L430.254,248.899L430.977,247.521L431.699,247.112L432.422,245.781L433.145,244.459L433.867,243.293L434.59,242.175L435.313,241.087L436.035,240.076L436.758,239.421L437.48,238.039L438.203,237.107L438.926,235.742L439.648,234.539L440.371,233.462L441.094,232.44L441.816,231.654L442.539,230.139L443.262,229.94L443.984,228.19L444.707,227.332L445.43,226.548L446.152,225.037L446.875,224.112L447.598,223.097L448.32,221.934L449.043,221.433L449.766,220.043L450.488,218.968L451.211,217.772L451.934,216.429L452.656,215.57L453.379,214.502L454.102,213.586L454.824,212.497L455.547,211.479L456.27,210.321L456.992,209.548L457.715,208.91L458.438,207.352L459.16,206.256L459.883,205.234L460.605,204.499L461.328,203.221L462.051,201.951L462.773,201.738L463.496,200.147L464.219,199.459L464.941,198.789L465.664,197.1L466.387,196.356L467.109,195.677L467.832,194.441L468.555,193.819L469.277,192.181"/><path fill="none" stroke="rgb(69, 105, 238)" stroke-width="1.5" d="M100,65.405L100.723,64.172L101.445,63.228L102.168,62.273L102.891,61.592L103.613,60.958L104.336,60.389L105.059,59.701L105.781,59.221L106.504,58.631L107.227,58.205L107.949,57.777L108.672,57.282L109.395,56.909L110.117,56.386L110.84,55.997L111.563,55.728L112.285,55.282L113.008,54.942L113.73,54.578L114.453,54.21L115.176,53.66L115.898,53.369L116.621,52.933L117.344,52.459L118.066,52.05L118.789,51.584L119.512,50.965L120.234,50.46L120.957,49.866L121.68,49.253L122.402,48.498L123.125,49.208L123.848,50.536L124.57,51.729L125.293,52.814L126.016,53.895L126.738,54.949L127.461,55.877L128.184,56.776L128.906,57.652L129.629,58.605L130.352,59.462L131.074,60.162L131.797,61.005L132.52,61.813L133.242,62.545L133.965,63.235L134.688,63.95L135.41,64.706L136.133,65.436L136.855,66.154L137.578,66.852L138.301,67.528L139.023,68.248L139.746,68.828L140.469,69.569L141.191,70.17L141.914,70.802L142.637,71.434L143.359,72.113L144.082,72.767L144.805,73.343L145.527,74.004L146.25,74.584L146.973,75.23L147.695,75.878L148.418,76.463L149.141,77.05L149.863,77.72L150.586,78.301L151.309,78.908L152.031,79.486L152.754,80.133L153.477,80.775L154.199,81.359L154.922,81.945L155.645,82.526L156.367,83.217L157.09,83.811L157.813,84.316L158.535,84.97L159.258,85.618L159.98,86.227L160.703,86.937L161.426,87.472L162.148,88.094L162.871,88.694L163.594,89.374L164.316,90.021L165.039,90.605L165.762,91.168L166.484,91.912L167.207,92.476L167.93,93.204L168.652,93.801L169.375,94.43L170.098,95.092L170.82,95.705L171.543,96.361L172.266,97.039L172.988,97.705L173.711,98.35L174.434,99.014L175.156,99.584L175.879,100.362L176.602,101.027L177.324,101.767L178.047,102.381L178.77,103.152L179.492,103.731L180.215,104.541L180.938,105.216L181.66,105.826L182.383,106.646L183.105,107.277L183.828,108.044L184.551,108.688L185.273,109.5L185.996,110.186L186.719,110.915L187.441,111.638L188.164,112.385L188.887,113.098L189.609,113.841L190.332,114.609L191.055,115.505L191.777,116.143L192.5,116.938L193.223,117.742L193.945,118.553L194.668,119.263L195.391,120.041L196.113,120.954L196.836,121.743L197.559,122.478L198.281,123.234L199.004,124.072L199.727,125.065L200.449,125.84L201.172,126.74L201.895,127.579L202.617,128.384L203.34,129.203L204.063,130.05L204.785,130.868L205.508,131.817L206.23,132.781L206.953,133.648L207.676,134.574L208.398,135.318L209.121,136.333L209.844,137.117L210.566,138.135L211.289,138.929L212.012,139.94L212.734,141.008L213.457,141.82L214.18,142.614L214.902,143.772L215.625,144.648L216.348,145.699L217.07,146.62L217.793,147.478L218.516,148.614L219.238,149.647L219.961,150.653L220.684,151.62L221.406,152.509L222.129,153.549L222.852,154.561L223.574,155.704L224.297,156.782L225.02,157.627L225.742,158.691L226.465,159.755L227.188,160.8L227.91,161.898L228.633,162.981L229.355,163.937L230.078,164.98L230.801,166.225L231.523,167.204L232.246,168.354L232.969,169.357L233.691,170.539L234.414,171.757L235.137,172.695L235.859,173.821L236.582,174.89L237.305,176.042L238.027,177.235L238.75,178.259L239.473,179.495L240.195,180.585L240.918,181.539L241.641,182.698L242.363,183.885L243.086,185.326L243.809,186.157L244.531,187.521L245.254,188.522L245.977,189.595L246.699,191.043L247.422,192.118L248.145,193.139L248.867,194.339L249.59,195.266L250.313,196.699L251.035,198.007L251.758,198.976L252.48,200.191L253.203,201.304L253.926,202.313L254.648,203.558L255.371,204.972L256.094,206.091L256.816,207.219L257.539,208.047L258.262,209.328L258.984,210.566L259.707,211.811L260.43,212.694L261.152,214.102L261.875,215.219L262.598,216.428L263.32,217.397L264.043,218.511L264.766,219.473L265.488,220.842L266.211,222.131L266.934,223.232L267.656,223.983L268.379,225.468L269.102,226.194L269.824,227.436L270.547,228.398L271.27,229.609L271.992,231.073L272.715,231.976L273.438,233.04L274.16,234.048L274.883,234.881L275.605,236.015L276.328,237.159L277.051,238.197L277.773,239.297L278.496,240.237L279.219,241.398L279.941,242.49L280.664,243.183L281.387,244.181L282.109,245.254L282.832,246.248L283.555,247.307L284.277,248.139L285,249.039L285.723,249.8L286.445,250.903L287.168,251.953L287.891,252.919L288.613,253.599L289.336,254.638L290.059,255.368L290.781,256.235L291.504,256.973L292.227,257.792L292.949,258.59L293.672,259.512L294.395,260.279L295.117,261.268L295.84,261.735L296.563,262.758L297.285,263.209L298.008,264.075L298.73,264.601L299.453,265.41L300.176,266.081L300.898,266.814L301.621,267.508L302.344,268.093L303.066,268.897L303.789,269.368L304.512,269.91L305.234,270.571L305.957,271.367L306.68,271.628L307.402,272.141L308.125,272.787L308.848,273.136L309.57,273.875L310.293,274.303L311.016,274.78L311.738,275.491L312.461,275.964L313.184,276.174L313.906,276.557L314.629,277.032L315.352,277.403L316.074,278.015L316.797,278.189L317.52,278.593L318.242,279.028L318.965,279.364L319.688,279.411L320.41,279.902L321.133,280.016L321.855,279.899L322.578,280.724L323.301,280.716L324.023,281.174L324.746,280.993L325.469,281.324L326.191,281.403L326.914,281.231L327.637,281.913L328.359,281.911L329.082,281.889L329.805,282.039L330.527,282.437L331.25,282.116L331.973,282.4L332.695,282.175L333.418,282.41L334.141,282.318L334.863,282.307L335.586,282.227L336.309,282.226L337.031,282.227L337.754,282.088L338.477,281.691L339.199,281.913L339.922,281.958L340.645,282.085L341.367,281.566L342.09,281.235L342.813,281.216L343.535,280.89L344.258,280.869L344.98,280.704L345.703,280.644L346.426,280.073L347.148,280.124L347.871,279.666L348.594,279.57L349.316,278.775L350.039,278.496L350.762,278.801L351.484,278.211L352.207,277.949L352.93,277.574L353.652,277.388L354.375,276.444L355.098,276.277L355.82,276.061L356.543,275.508L357.266,275.11L357.988,274.916L358.711,274.492L359.434,274.118L360.156,273.747L360.879,273.358L361.602,272.532L362.324,271.808L363.047,271.336L363.77,271.312L364.492,270.604L365.215,269.769L365.938,269.366L366.66,269.037L367.383,268.419L368.105,267.849L368.828,267.243L369.551,266.732L370.273,265.876L370.996,265.401L371.719,264.977L372.441,264.25L373.164,263.724L373.887,263.28L374.609,262.415L375.332,261.465L376.055,260.812L376.777,260.257L377.5,259.576L378.223,258.942L378.945,258.605L379.668,257.773L380.391,257.078L381.113,256.021L381.836,255.724L382.559,254.573L383.281,254.13L384.004,253.424L384.727,252.769L385.449,251.668L386.172,251.007L386.895,250.478L387.617,249.697L388.34,248.908L389.063,247.984L389.785,247.142L390.508,246.427L391.23,245.585L391.953,244.794L392.676,244.198L393.398,243.551L394.121,242.785L394.844,242.244L395.566,240.995L396.289,239.998L397.012,239.212L397.734,238.489L398.457,237.619L399.18,237.054L399.902,236.111L400.625,235.246L401.348,234.53L402.07,233.694L402.793,232.455L403.516,232.04L404.238,231.253L404.961,230.288L405.684,229.47L406.406,228.604L407.129,227.907L407.852,226.851L408.574,225.96L409.297,224.879L410.02,224.233L410.742,223.764L411.465,222.762L412.188,221.865L412.91,221.079L413.633,220.022L414.355,219.461L415.078,218.476L415.801,217.949L416.523,216.5L417.246,215.783L417.969,214.797L418.691,214.161L419.414,213.106L420.137,212.404L420.859,211.486L421.582,210.525L422.305,209.702L423.027,208.85L423.75,208.287L424.473,207.3L425.195,206.215L425.918,205.311L426.641,204.62L427.363,203.401L428.086,202.915L428.809,201.662L429.531,200.959L430.254,200.282L430.977,199.313L431.699,198.494L432.422,197.577L433.145,196.67L433.867,195.963L434.59,195.194L435.313,194.415L436.035,193.129L436.758,192.069L437.48,191.849L438.203,190.654L438.926,189.956L439.648,188.89L440.371,188.115L441.094,187.225L441.816,186.665L442.539,185.868L443.262,184.834L443.984,184.121L444.707,183.144L445.43,182.06L446.152,181.509L446.875,180.444L447.598,179.522L448.32,178.848L449.043,177.954L449.766,177.278L450.488,176.084L451.211,175.493L451.934,174.606L452.656,173.583L453.379,173.019L454.102,172.051L454.824,171.357L455.547,170.527L456.27,169.864L456.992,168.846L457.715,168.215L458.438,167.123L459.16,166.71L459.883,165.655L460.605,164.775L461.328,164.097L462.051,163.447L462.773,162.294L463.496,161.467L464.219,160.516L464.941,160.248L465.664,159.139L466.387,158.568L467.109,157.669L467.832,156.835L468.555,156.339L469.277,155.355"/><path fill="none" stroke="rgb(38, 188, 225)" stroke-width="1.5" d="M100,65.332L100.723,64.142L101.445,63.137L102.168,62.247L102.891,61.423L103.613,60.712L104.336,60.067L105.059,59.409L105.781,58.73L106.504,58.2L107.227,57.651L107.949,57.113L108.672,56.655L109.395,56.084L110.117,55.586L110.84,55.176L111.563,54.726L112.285,54.231L113.008,53.781L113.73,53.431L114.453,52.909L115.176,52.509L115.898,51.981L116.621,51.553L117.344,51.054L118.066,50.504L118.789,49.959L119.512,49.382L120.234,48.825L120.957,48.142L121.68,47.457L122.402,46.613L123.125,47.292L123.848,48.578L124.57,49.682L125.293,50.744L126.016,51.763L126.738,52.665L127.461,53.589L128.184,54.439L128.906,55.305L129.629,56.177L130.352,56.901L131.074,57.719L131.797,58.5L132.52,59.117L133.242,59.844L133.965,60.504L134.688,61.269L135.41,61.888L136.133,62.531L136.855,63.235L137.578,63.842L138.301,64.481L139.023,65.097L139.746,65.709L140.469,66.34L141.191,66.931L141.914,67.566L142.637,68.138L143.359,68.687L144.082,69.24L144.805,69.851L145.527,70.472L146.25,71.057L146.973,71.568L147.695,72.187L148.418,72.728L149.141,73.242L149.863,73.878L150.586,74.347L151.309,74.963L152.031,75.572L152.754,76.054L153.477,76.642L154.199,77.123L154.922,77.676L155.645,78.269L156.367,78.887L157.09,79.513L157.813,80.004L158.535,80.617L159.258,81.08L159.98,81.667L160.703,82.134L161.426,82.741L162.148,83.336L162.871,83.981L163.594,84.456L164.316,85.189L165.039,85.619L165.762,86.092L166.484,86.75L167.207,87.263L167.93,88.044L168.652,88.485L169.375,89.06L170.098,89.555L170.82,90.219L171.543,90.792L172.266,91.356L172.988,91.947L173.711,92.525L174.434,93.065L175.156,93.765L175.879,94.35L176.602,95.065L177.324,95.518L178.047,96.075L178.77,96.714L179.492,97.449L180.215,98.012L180.938,98.631L181.66,99.264L182.383,99.861L183.105,100.351L183.828,101.088L184.551,101.771L185.273,102.272L185.996,102.916L186.719,103.637L187.441,104.251L188.164,104.959L188.887,105.58L189.609,106.309L190.332,106.821L191.055,107.467L191.777,108.207L192.5,108.76L193.223,109.566L193.945,110.375L194.668,110.888L195.391,111.523L196.113,112.209L196.836,113.064L197.559,113.614L198.281,114.278L199.004,115.031L199.727,115.716L200.449,116.354L201.172,117.172L201.895,117.907L202.617,118.551L203.34,119.274L204.063,120.026L204.785,120.656L205.508,121.354L206.23,122.264L206.953,122.939L207.676,123.777L208.398,124.311L209.121,125.184L209.844,125.995L210.566,126.592L211.289,127.577L212.012,128.304L212.734,128.937L213.457,129.69L214.18,130.495L214.902,131.305L215.625,132.04L216.348,132.768L217.07,133.655L217.793,134.374L218.516,135.24L219.238,135.913L219.961,136.665L220.684,137.472L221.406,138.38L222.129,139.246L222.852,140.001L223.574,140.886L224.297,141.56L225.02,142.256L225.742,143.133L226.465,144.084L227.188,144.757L227.91,145.546L228.633,146.47L229.355,147.303L230.078,148.163L230.801,148.989L231.523,149.734L232.246,150.567L232.969,151.366L233.691,152.224L234.414,153.013L235.137,154.097L235.859,154.812L236.582,155.78L237.305,156.496L238.027,157.467L238.75,158.112L239.473,159.002L240.195,159.831L240.918,160.601L241.641,161.656L242.363,162.39L243.086,163.352L243.809,164.156L244.531,164.828L245.254,165.762L245.977,166.465L246.699,167.427L247.422,168.223L248.145,169.219L248.867,169.918L249.59,170.815L250.313,171.684L251.035,172.456L251.758,173.275L252.48,174.328L253.203,174.989L253.926,175.77L254.648,176.584L255.371,177.627L256.094,178.457L256.816,179.146L257.539,179.924L258.262,180.896L258.984,181.462L259.707,182.198L260.43,183.17L261.152,183.878L261.875,184.832L262.598,185.573L263.32,186.395L264.043,187.24L264.766,187.784L265.488,188.627L266.211,189.524L266.934,190.043L267.656,190.934L268.379,191.7L269.102,192.311L269.824,193.074L270.547,193.847L271.27,194.743L271.992,195.183L272.715,195.984L273.438,196.682L274.16,197.567L274.883,197.987L275.605,198.718L276.328,199.555L277.051,200.137L277.773,201.04L278.496,201.485L279.219,202.318L279.941,202.791L280.664,203.681L281.387,204.34L282.109,204.776L282.832,205.16L283.555,205.955L284.277,206.657L285,207.087L285.723,207.615L286.445,208.454L287.168,208.815L287.891,209.278L288.613,209.933L289.336,210.631L290.059,211.068L290.781,211.62L291.504,212.269L292.227,212.78L292.949,213.315L293.672,213.645L294.395,213.971L295.117,214.67L295.84,215.075L296.563,215.403L297.285,215.875L298.008,216.289L298.73,216.84L299.453,217.182L300.176,217.455L300.898,217.894L301.621,218.447L302.344,218.724L303.066,219.222L303.789,219.237L304.512,219.618L305.234,220.275L305.957,220.225L306.68,220.774L307.402,221L308.125,221.313L308.848,221.573L309.57,221.743L310.293,221.969L311.016,222.322L311.738,222.465L312.461,222.701L313.184,223.057L313.906,223.182L314.629,223.409L315.352,223.532L316.074,223.853L316.797,223.764L317.52,224.043L318.242,224.09L318.965,224.177L319.688,224.339L320.41,224.597L321.133,224.473L321.855,224.704L322.578,224.539L323.301,224.661L324.023,224.762L324.746,224.809L325.469,224.672L326.191,224.888L326.914,224.554L327.637,224.926L328.359,224.865L329.082,224.766L329.805,224.674L330.527,224.628L331.25,224.532L331.973,224.53L332.695,224.432L333.418,224.293L334.141,224.202L334.863,224.158L335.586,224.007L336.309,223.65L337.031,223.59L337.754,223.771L338.477,223.379L339.199,223.287L339.922,222.92L340.645,222.791L341.367,222.531L342.09,222.482L342.813,222.193L343.535,221.939L344.258,221.775L344.98,221.509L345.703,221.167L346.426,221.062L347.148,220.65L347.871,220.314L348.594,220.06L349.316,219.741L350.039,219.445L350.762,218.878L351.484,218.716L352.207,218.423L352.93,218.058L353.652,217.527L354.375,217.154L355.098,216.989L355.82,216.325L356.543,216.281L357.266,215.722L357.988,215.498L358.711,215.087L359.434,214.768L360.156,213.905L360.879,213.734L361.602,213.443L362.324,212.904L363.047,212.525L363.77,211.935L364.492,211.6L365.215,211.157L365.938,210.483L366.66,210.04L367.383,209.845L368.105,209.129L368.828,208.765L369.551,208.097L370.273,207.612L370.996,207.11L371.719,206.471L372.441,205.947L373.164,205.179L373.887,204.868L374.609,204.446L375.332,203.648L376.055,203.216L376.777,202.569L377.5,202.188L378.223,201.644L378.945,201.16L379.668,200.555L380.391,200.115L381.113,199.352L381.836,198.516L382.559,198.074L383.281,197.636L384.004,197.108L384.727,196.389L385.449,195.7L386.172,195.34L386.895,194.417L387.617,193.792L388.34,193.208L389.063,192.542L389.785,192.101L390.508,191.425L391.23,190.977L391.953,190.265L392.676,189.458L393.398,188.762L394.121,188.437L394.844,187.722L395.566,187.159L396.289,186.084L397.012,185.552L397.734,184.943L398.457,184.242L399.18,183.629L399.902,183.212L400.625,182.604L401.348,181.739L402.07,180.985L402.793,180.406L403.516,179.962L404.238,178.868L404.961,178.229L405.684,177.876L406.406,177.001L407.129,176.486L407.852,175.645L408.574,174.957L409.297,174.195L410.02,173.789L410.742,172.942L411.465,172.232L412.188,171.522L412.91,170.856L413.633,170.367L414.355,169.775L415.078,168.883L415.801,168.087L416.523,167.664L417.246,166.8L417.969,166.198L418.691,165.411L419.414,164.605L420.137,164.145L420.859,163.518L421.582,162.802L422.305,162.053L423.027,161.32L423.75,160.601L424.473,160.267L425.195,159.239L425.918,158.926L426.641,157.924L427.363,157.575L428.086,156.768L428.809,156.003L429.531,155.467L430.254,154.64L430.977,154.003L431.699,153.281L432.422,152.539L433.145,152.008L433.867,151.304L434.59,150.512L435.313,150.026L436.035,149.15L436.758,148.528L437.48,148.018L438.203,147.173L438.926,146.707L439.648,145.873L440.371,145.19L441.094,144.737L441.816,143.925L442.539,143.218L443.262,142.847L443.984,141.84L444.707,141.262L445.43,140.699L446.152,139.955L446.875,139.233L447.598,138.63L448.32,137.891L449.043,137.304L449.766,136.793L450.488,136.014L451.211,135.355L451.934,134.682L452.656,134.225L453.379,133.496L454.102,133.041L454.824,132.076L455.547,131.571L456.27,130.972L456.992,130.35L457.715,129.692L458.438,129.116L459.16,128.313L459.883,127.671L460.605,127.243L461.328,126.656L462.051,126.044L462.773,125.347L463.496,124.675L464.219,124.247L464.941,123.459L465.664,122.938L466.387,122.234L467.109,121.717L467.832,121.115L468.555,120.442L469.277,119.991"/><path fill="none" stroke="rgb(63, 243, 147)" stroke-width="1.5" d="M100,65.171L100.723,64.034L101.445,62.951L102.168,61.975L102.891,61.112L103.613,60.161L104.336,59.518L105.059,58.705L105.781,58.055L106.504,57.391L107.227,56.638L107.949,56.103L108.672,55.477L109.395,54.984L110.117,54.32L110.84,53.77L111.563,53.213L112.285,52.626L113.008,52.094L113.73,51.584L114.453,51.036L115.176,50.399L115.898,49.877L116.621,49.299L117.344,48.687L118.066,48.143L118.789,47.424L119.512,46.756L120.234,46.107L120.957,45.289L121.68,44.449L122.402,43.548L123.125,44.422L123.848,45.515L124.57,46.526L125.293,47.469L126.016,48.31L126.738,49.207L127.461,50.093L128.184,50.818L128.906,51.534L129.629,52.294L130.352,53.012L131.074,53.71L131.797,54.272L132.52,54.968L133.242,55.563L133.965,56.218L134.688,56.822L135.41,57.387L136.133,57.921L136.855,58.595L137.578,59.03L138.301,59.62L139.023,60.177L139.746,60.728L140.469,61.192L141.191,61.813L141.914,62.278L142.637,62.784L143.359,63.311L144.082,63.879L144.805,64.365L145.527,64.857L146.25,65.296L146.973,65.89L147.695,66.356L148.418,66.952L149.141,67.374L149.863,67.784L150.586,68.301L151.309,68.761L152.031,69.334L152.754,69.802L153.477,70.18L154.199,70.711L154.922,71.091L155.645,71.694L156.367,72.106L157.09,72.598L157.813,73.161L158.535,73.673L159.258,74.139L159.98,74.578L160.703,75.027L161.426,75.577L162.148,75.998L162.871,76.472L163.594,77.002L164.316,77.553L165.039,77.999L165.762,78.417L166.484,78.927L167.207,79.485L167.93,79.962L168.652,80.436L169.375,80.978L170.098,81.392L170.82,81.893L171.543,82.411L172.266,82.833L172.988,83.472L173.711,83.932L174.434,84.473L175.156,84.863L175.879,85.462L176.602,85.994L177.324,86.497L178.047,87.011L178.77,87.496L179.492,88.094L180.215,88.639L180.938,89.1L181.66,89.63L182.383,90.044L183.105,90.658L183.828,91.237L184.551,91.713L185.273,92.233L185.996,92.767L186.719,93.264L187.441,93.849L188.164,94.454L188.887,94.975L189.609,95.51L190.332,96.042L191.055,96.532L191.777,97.202L192.5,97.759L193.223,98.343L193.945,98.865L194.668,99.347L195.391,99.986L196.113,100.568L196.836,101.092L197.559,101.794L198.281,102.323L199.004,102.904L199.727,103.446L200.449,104.008L201.172,104.602L201.895,105.154L202.617,105.794L203.34,106.428L204.063,106.941L204.785,107.6L205.508,108.222L206.23,108.776L206.953,109.506L207.676,109.939L208.398,110.664L209.121,111.347L209.844,111.824L210.566,112.523L211.289,113.123L212.012,113.652L212.734,114.472L213.457,114.934L214.18,115.591L214.902,116.06L215.625,116.812L216.348,117.455L217.07,117.943L217.793,118.78L218.516,119.399L219.238,119.978L219.961,120.691L220.684,121.355L221.406,121.934L222.129,122.739L222.852,123.3L223.574,123.944L224.297,124.499L225.02,125.147L225.742,125.826L226.465,126.588L227.188,127.157L227.91,127.841L228.633,128.634L229.355,129.234L230.078,129.811L230.801,130.389L231.523,131.097L232.246,131.716L232.969,132.282L233.691,133.008L234.414,133.596L235.137,134.294L235.859,134.9L236.582,135.609L237.305,136.221L238.027,136.937L238.75,137.489L239.473,138.205L240.195,138.846L240.918,139.325L241.641,140.096L242.363,140.71L243.086,141.285L243.809,141.888L244.531,142.537L245.254,143.195L245.977,143.708L246.699,144.376L247.422,145.024L248.145,145.51L248.867,146.29L249.59,146.898L250.313,147.493L251.035,147.975L251.758,148.74L252.48,149.088L253.203,149.794L253.926,150.367L254.648,151.034L255.371,151.616L256.094,152.242L256.816,152.657L257.539,153.302L258.262,153.792L258.984,154.374L259.707,154.932L260.43,155.442L261.152,155.9L261.875,156.543L262.598,156.956L263.32,157.725L264.043,158.145L264.766,158.493L265.488,159.007L266.211,159.602L266.934,160.063L267.656,160.513L268.379,161.058L269.102,161.341L269.824,162.057L270.547,162.553L271.27,162.994L271.992,163.277L272.715,163.727L273.438,164.229L274.16,164.823L274.883,165.194L275.605,165.511L276.328,165.991L277.051,166.268L277.773,166.755L278.496,167.158L279.219,167.644L279.941,167.998L280.664,168.277L281.387,168.472L282.109,169.106L282.832,169.405L283.555,169.627L284.277,170.071L285,170.3L285.723,170.721L286.445,170.97L287.168,171.22L287.891,171.758L288.613,171.868L289.336,172.205L290.059,172.477L290.781,172.541L291.504,173.104L292.227,173.194L292.949,173.539L293.672,173.569L294.395,173.919L295.117,173.89L295.84,174.295L296.563,174.298L297.285,174.734L298.008,174.86L298.73,174.975L299.453,175.222L300.176,175.329L300.898,175.705L301.621,175.532L302.344,175.752L303.066,175.92L303.789,176.092L304.512,176.169L305.234,176.129L305.957,176.153L306.68,176.347L307.402,176.267L308.125,176.643L308.848,176.629L309.57,176.617L310.293,176.704L311.016,176.678L311.738,176.729L312.461,176.847L313.184,176.712L313.906,176.812L314.629,176.549L315.352,176.667L316.074,176.762L316.797,176.814L317.52,176.597L318.242,176.736L318.965,176.572L319.688,176.358L320.41,176.382L321.133,176.251L321.855,176.167L322.578,176.198L323.301,176.072L324.023,175.742L324.746,175.609L325.469,175.893L326.191,175.514L326.914,175.477L327.637,175.338L328.359,175.074L329.082,174.897L329.805,174.78L330.527,174.597L331.25,174.365L331.973,174.2L332.695,173.97L333.418,173.732L334.141,173.456L334.863,173.385L335.586,172.905L336.309,172.962L337.031,172.49L337.754,172.369L338.477,172.17L339.199,171.709L339.922,171.589L340.645,171.341L341.367,171.041L342.09,170.746L342.813,170.533L343.535,170.227L344.258,169.993L344.98,169.394L345.703,169.172L346.426,169.026L347.148,168.694L347.871,168.327L348.594,167.963L349.316,167.594L350.039,167.372L350.762,166.95L351.484,166.667L352.207,166.098L352.93,165.704L353.652,165.605L354.375,165.136L355.098,164.793L355.82,164.567L356.543,164.049L357.266,163.645L357.988,163.201L358.711,162.9L359.434,162.318L360.156,162.182L360.879,161.667L361.602,161.279L362.324,160.817L363.047,160.371L363.77,159.976L364.492,159.315L365.215,158.974L365.938,158.442L366.66,157.986L367.383,157.838L368.105,157.267L368.828,156.826L369.551,156.221L370.273,156.008L370.996,155.454L371.719,154.997L372.441,154.363L373.164,154.043L373.887,153.636L374.609,153.051L375.332,152.49L376.055,152.029L376.777,151.599L377.5,151.096L378.223,150.776L378.945,150.208L379.668,149.924L380.391,149.348L381.113,148.884L381.836,148.21L382.559,147.683L383.281,147.315L384.004,146.803L384.727,146.28L385.449,145.849L386.172,145.155L386.895,144.62L387.617,144.186L388.34,143.706L389.063,143.161L389.785,142.723L390.508,142.241L391.23,141.539L391.953,141.251L392.676,140.574L393.398,140.028L394.121,139.534L394.844,139.261L395.566,138.439L396.289,138.07L397.012,137.538L397.734,136.922L398.457,136.569L399.18,135.985L399.902,135.489L400.625,134.892L401.348,134.415L402.07,133.856L402.793,133.506L403.516,132.872L404.238,132.292L404.961,131.81L405.684,131.211L406.406,130.699L407.129,130.161L407.852,129.755L408.574,128.994L409.297,128.666L410.02,128.21L410.742,127.562L411.465,127.084L412.188,126.532L412.91,126.072L413.633,125.433L414.355,124.976L415.078,124.499L415.801,123.846L416.523,123.435L417.246,123.006L417.969,122.44L418.691,121.921L419.414,121.44L420.137,120.659L420.859,120.178L421.582,119.658L422.305,119.241L423.027,118.745L423.75,118.229L424.473,117.555L425.195,117.092L425.918,116.514L426.641,116.139L427.363,115.573L428.086,115.132L428.809,114.53L429.531,114.014L430.254,113.542L430.977,112.96L431.699,112.502L432.422,112.278L433.145,111.536L433.867,111.006L434.59,110.474L435.313,109.871L436.035,109.626L436.758,109.03L437.48,108.432L438.203,107.988L438.926,107.635L439.648,106.822L440.371,106.604L441.094,105.946L441.816,105.404L442.539,105.086L443.262,104.514L443.984,103.978L444.707,103.714L445.43,103.216L446.152,102.506L446.875,102.22L447.598,101.557L448.32,101L449.043,100.666L449.766,100.064L450.488,99.674L451.211,99.155L451.934,98.747L452.656,98.197L453.379,97.662L454.102,97.489L454.824,97.069L455.547,96.315L456.27,95.687L456.992,95.398L457.715,95.018L458.438,94.329L459.16,94.164L459.883,93.721L460.605,93.309L461.328,92.703L462.051,92.255L462.773,91.922L463.496,91.379L464.219,90.969L464.941,90.522L465.664,90.032L466.387,89.605L467.109,89.091L467.832,88.554L468.555,88.059L469.277,87.883"/><path fill="none" stroke="rgb(149, 251, 81)" stroke-width="1.5" d="M100,64.493L100.723,63.387L101.445,62.377L102.168,61.329L102.891,60.376L103.613,59.486L104.336,58.597L105.059,57.797L105.781,57.03L106.504,56.204L107.227,55.468L107.949,54.809L108.672,54.013L109.395,53.323L110.117,52.556L110.84,51.918L111.563,51.282L112.285,50.591L113.008,49.898L113.73,49.213L114.453,48.533L115.176,47.883L115.898,47.135L116.621,46.382L117.344,45.627L118.066,44.914L118.789,44.052L119.512,43.239L120.234,42.222L120.957,41.244L121.68,40.264L122.402,40.117L123.125,40.984L123.848,41.918L124.57,42.77L125.293,43.58L126.016,44.317L126.738,45.042L127.461,45.764L128.184,46.46L128.906,47.042L129.629,47.607L130.352,48.172L131.074,48.763L131.797,49.239L132.52,49.811L133.242,50.305L133.965,50.778L134.688,51.338L135.41,51.758L136.133,52.21L136.855,52.705L137.578,53.067L138.301,53.522L139.023,53.976L139.746,54.383L140.469,54.812L141.191,55.256L141.914,55.587L142.637,56.058L143.359,56.424L144.082,56.801L144.805,57.234L145.527,57.589L146.25,57.961L146.973,58.264L147.695,58.735L148.418,59.109L149.141,59.561L149.863,59.938L150.586,60.242L151.309,60.653L152.031,60.956L152.754,61.348L153.477,61.852L154.199,62.148L154.922,62.479L155.645,62.897L156.367,63.254L157.09,63.688L157.813,63.962L158.535,64.403L159.258,64.74L159.98,65.074L160.703,65.461L161.426,65.895L162.148,66.281L162.871,66.649L163.594,67.147L164.316,67.458L165.039,67.83L165.762,68.205L166.484,68.572L167.207,68.975L167.93,69.328L168.652,69.758L169.375,70.25L170.098,70.64L170.82,70.997L171.543,71.358L172.266,71.791L172.988,72.138L173.711,72.616L174.434,73.012L175.156,73.375L175.879,73.881L176.602,74.157L177.324,74.653L178.047,75.189L178.77,75.567L179.492,75.928L180.215,76.378L180.938,76.833L181.66,77.166L182.383,77.66L183.105,77.936L183.828,78.394L184.551,79.058L185.273,79.463L185.996,79.891L186.719,80.287L187.441,80.759L188.164,81.244L188.887,81.608L189.609,82.086L190.332,82.525L191.055,82.97L191.777,83.539L192.5,83.939L193.223,84.362L193.945,84.892L194.668,85.393L195.391,85.731L196.113,86.392L196.836,86.764L197.559,87.256L198.281,87.74L199.004,88.125L199.727,88.62L200.449,89.18L201.172,89.63L201.895,90.006L202.617,90.672L203.34,91.135L204.063,91.456L204.785,92.019L205.508,92.676L206.23,93.056L206.953,93.598L207.676,94.02L208.398,94.556L209.121,95.05L209.844,95.639L210.566,96.131L211.289,96.644L212.012,97.169L212.734,97.684L213.457,98.256L214.18,98.762L214.902,99.219L215.625,99.735L216.348,100.194L217.07,100.651L217.793,101.255L218.516,101.848L219.238,102.352L219.961,102.881L220.684,103.336L221.406,103.944L222.129,104.356L222.852,104.907L223.574,105.478L224.297,106.003L225.02,106.459L225.742,107.101L226.465,107.54L227.188,108.062L227.91,108.576L228.633,109.025L229.355,109.541L230.078,110.137L230.801,110.713L231.523,111.096L232.246,111.525L232.969,111.987L233.691,112.582L234.414,113.016L235.137,113.599L235.859,113.924L236.582,114.573L237.305,114.904L238.027,115.541L238.75,115.851L239.473,116.316L240.195,116.825L240.918,117.247L241.641,117.661L242.363,118.136L243.086,118.641L243.809,118.959L244.531,119.366L245.254,119.843L245.977,120.261L246.699,120.632L247.422,121.065L248.145,121.52L248.867,121.944L249.59,122.266L250.313,122.61L251.035,123.127L251.758,123.468L252.48,123.932L253.203,124.219L253.926,124.483L254.648,124.916L255.371,125.267L256.094,125.591L256.816,125.805L257.539,126.376L258.262,126.593L258.984,126.946L259.707,127.208L260.43,127.648L261.152,127.819L261.875,128.175L262.598,128.566L263.32,128.734L264.043,129.013L264.766,129.286L265.488,129.556L266.211,129.842L266.934,130.087L267.656,130.412L268.379,130.648L269.102,130.834L269.824,131.174L270.547,131.352L271.27,131.459L271.992,131.715L272.715,132.002L273.438,132.156L274.16,132.363L274.883,132.277L275.605,132.63L276.328,132.837L277.051,132.973L277.773,133.086L278.496,133.368L279.219,133.602L279.941,133.601L280.664,133.881L281.387,133.786L282.109,133.915L282.832,134.14L283.555,134.174L284.277,134.283L285,134.409L285.723,134.247L286.445,134.484L287.168,134.471L287.891,134.682L288.613,134.783L289.336,134.663L290.059,134.831L290.781,134.878L291.504,134.825L292.227,134.839L292.949,134.972L293.672,134.929L294.395,134.933L295.117,134.884L295.84,134.87L296.563,134.928L297.285,134.87L298.008,134.679L298.73,134.861L299.453,134.689L300.176,134.914L300.898,134.638L301.621,134.533L302.344,134.485L303.066,134.488L303.789,134.449L304.512,134.224L305.234,134.163L305.957,134.107L306.68,133.893L307.402,133.873L308.125,133.821L308.848,133.459L309.57,133.483L310.293,133.383L311.016,133.246L311.738,133.12L312.461,132.967L313.184,132.688L313.906,132.573L314.629,132.561L315.352,132.31L316.074,132.107L316.797,131.917L317.52,131.808L318.242,131.426L318.965,131.446L319.688,131.233L320.41,131.051L321.133,130.684L321.855,130.788L322.578,130.412L323.301,130.031L324.023,129.928L324.746,129.594L325.469,129.451L326.191,129.165L326.914,129.154L327.637,128.71L328.359,128.57L329.082,128.226L329.805,127.973L330.527,127.675L331.25,127.21L331.973,127.125L332.695,126.815L333.418,126.523L334.141,126.322L334.863,126.019L335.586,125.841L336.309,125.373L337.031,125.08L337.754,124.879L338.477,124.43L339.199,124.274L339.922,123.828L340.645,123.65L341.367,123.266L342.09,122.931L342.813,122.561L343.535,122.365L344.258,121.925L344.98,121.57L345.703,121.248L346.426,120.88L347.148,120.703L347.871,120.391L348.594,119.972L349.316,119.658L350.039,119.291L350.762,119.039L351.484,118.569L352.207,118.283L352.93,117.846L353.652,117.606L354.375,117.135L355.098,116.826L355.82,116.407L356.543,115.968L357.266,115.604L357.988,115.262L358.711,114.906L359.434,114.573L360.156,114.113L360.879,113.854L361.602,113.467L362.324,113.065L363.047,112.745L363.77,112.317L364.492,111.872L365.215,111.558L365.938,111.076L366.66,110.747L367.383,110.367L368.105,109.972L368.828,109.64L369.551,109.17L370.273,108.722L370.996,108.323L371.719,108.092L372.441,107.665L373.164,107.257L373.887,106.874L374.609,106.534L375.332,106.168L376.055,105.697L376.777,105.25L377.5,104.813L378.223,104.539L378.945,104.317L379.668,103.695L380.391,103.287L381.113,102.945L381.836,102.622L382.559,102.11L383.281,101.661L384.004,101.364L384.727,100.945L385.449,100.691L386.172,100.089L386.895,99.728L387.617,99.344L388.34,98.869L389.063,98.446L389.785,98.128L390.508,97.677L391.23,97.385L391.953,97.032L392.676,96.51L393.398,96.094L394.121,95.706L394.844,95.305L395.566,94.997L396.289,94.428L397.012,94.085L397.734,93.796L398.457,93.419L399.18,93.052L399.902,92.545L400.625,92.282L401.348,91.792L402.07,91.413L402.793,91.023L403.516,90.555L404.238,90.325L404.961,89.863L405.684,89.27L406.406,89.001L407.129,88.563L407.852,88.321L408.574,87.912L409.297,87.515L410.02,87.104L410.742,86.703L411.465,86.418L412.188,85.989L412.91,85.369L413.633,85.069L414.355,84.789L415.078,84.419L415.801,83.879L416.523,83.546L417.246,83.335L417.969,82.918L418.691,82.521L419.414,82.137L420.137,81.846L420.859,81.384L421.582,81.019L422.305,80.756L423.027,80.133L423.75,79.987L424.473,79.573L425.195,79.152L425.918,78.783L426.641,78.38L427.363,78.128L428.086,77.661L428.809,77.264L429.531,76.959L430.254,76.696L430.977,76.318L431.699,75.998L432.422,75.641L433.145,75.209L433.867,74.81L434.59,74.581L435.313,74.122L436.035,73.831L436.758,73.558L437.48,73.159L438.203,72.618L438.926,72.492L439.648,72.111L440.371,71.613L441.094,71.288L441.816,71.062L442.539,70.771L443.262,70.389L443.984,69.944L444.707,69.688L445.43,69.417L446.152,69.026L446.875,68.608L447.598,68.273L448.32,67.995L449.043,67.662L449.766,67.389L450.488,67.899L451.211,68.312L451.934,69.388L452.656,69.853L453.379,70.812L454.102,71.383L454.824,72.302L455.547,72.874L456.27,73.734L456.992,74.405L457.715,75.223L458.438,75.803L459.16,76.447L459.883,77.361L460.605,78.008L461.328,78.892L462.051,79.305L462.773,79.081L463.496,79.062L464.219,78.899L464.941,78.618L465.664,78.575L466.387,78.58L467.109,78.304L467.832,78.073L468.555,78.004L469.277,77.881"/><path fill="none" stroke="rgb(236, 209, 46)" stroke-width="1.5" d="M100,62.984L100.723,62.067L101.445,61.003L102.168,60.072L102.891,59.09L103.613,58.18L104.336,57.256L105.059,56.432L105.781,55.575L106.504,54.722L107.227,53.916L107.949,53.165L108.672,52.316L109.395,51.557L110.117,50.771L110.84,50.015L111.563,49.231L112.285,48.451L113.008,47.576L113.73,46.817L114.453,46.035L115.176,45.117L115.898,44.281L116.621,43.429L117.344,42.491L118.066,41.558L118.789,40.534L119.512,39.431L120.234,38.402L120.957,37.026L121.68,37.295L122.402,38.067L123.125,38.837L123.848,39.517L124.57,40.15L125.293,40.69L126.016,41.25L126.738,41.773L127.461,42.331L128.184,42.715L128.906,43.217L129.629,43.66L130.352,44.024L131.074,44.333L131.797,44.705L132.52,45.016L133.242,45.356L133.965,45.678L134.688,45.981L135.41,46.335L136.133,46.605L136.855,46.859L137.578,47.164L138.301,47.47L139.023,47.669L139.746,47.819L140.469,48.155L141.191,48.452L141.914,48.68L142.637,48.875L143.359,49.01L144.082,49.319L144.805,49.588L145.527,49.714L146.25,49.849L146.973,50.231L147.695,50.408L148.418,50.642L149.141,50.798L149.863,51.044L150.586,51.192L151.309,51.441L152.031,51.598L152.754,51.833L153.477,52.079L154.199,52.246L154.922,52.442L155.645,52.597L156.367,52.872L157.09,52.999L157.813,53.308L158.535,53.52L159.258,53.707L159.98,53.912L160.703,54.182L161.426,54.313L162.148,54.607L162.871,54.794L163.594,55.027L164.316,55.255L165.039,55.537L165.762,55.708L166.484,56.001L167.207,56.162L167.93,56.42L168.652,56.587L169.375,56.819L170.098,57.113L170.82,57.422L171.543,57.664L172.266,57.835L172.988,58.189L173.711,58.407L174.434,58.605L175.156,58.897L175.879,59.142L176.602,59.411L177.324,59.789L178.047,60.041L178.77,60.327L179.492,60.639L180.215,60.877L180.938,61.27L181.66,61.558L182.383,61.798L183.105,62.015L183.828,62.39L184.551,62.686L185.273,63.022L185.996,63.326L186.719,63.619L187.441,64.033L188.164,64.242L188.887,64.648L189.609,64.943L190.332,65.283L191.055,65.658L191.777,65.993L192.5,66.298L193.223,66.626L193.945,66.969L194.668,67.318L195.391,67.687L196.113,68.036L196.836,68.464L197.559,68.819L198.281,69.172L199.004,69.414L199.727,69.876L200.449,70.313L201.172,70.627L201.895,70.994L202.617,71.332L203.34,71.722L204.063,71.911L204.785,72.366L205.508,72.815L206.23,73.149L206.953,73.578L207.676,73.99L208.398,74.307L209.121,74.695L209.844,75.143L210.566,75.488L211.289,75.849L212.012,76.214L212.734,76.605L213.457,77.023L214.18,77.407L214.902,77.884L215.625,78.181L216.348,78.609L217.07,79.152L217.793,79.396L218.516,79.699L219.238,80.26L219.961,80.456L220.684,80.866L221.406,81.287L222.129,81.718L222.852,82.055L223.574,82.441L224.297,82.855L225.02,83.175L225.742,83.586L226.465,83.95L227.188,84.36L227.91,84.622L228.633,84.914L229.355,85.395L230.078,85.727L230.801,85.925L231.523,86.309L232.246,86.608L232.969,86.952L233.691,87.175L234.414,87.483L235.137,87.715L235.859,88.165L236.582,88.277L237.305,88.571L238.027,88.783L238.75,89.113L239.473,89.336L240.195,89.583L240.918,89.832L241.641,89.916L242.363,90.22L243.086,90.426L243.809,90.631L244.531,90.818L245.254,91.035L245.977,91.19L246.699,91.452L247.422,91.669L248.145,91.778L248.867,91.955L249.59,91.996L250.313,92.222L251.035,92.418L251.758,92.441L252.48,92.733L253.203,92.8L253.926,92.914L254.648,93.012L255.371,92.993L256.094,93.245L256.816,93.241L257.539,93.423L258.262,93.482L258.984,93.453L259.707,93.574L260.43,93.702L261.152,93.716L261.875,93.75L262.598,93.765L263.32,93.943L264.043,93.9L264.766,93.866L265.488,94.12L266.211,94.055L266.934,94.009L267.656,93.963L268.379,94.063L269.102,94.051L269.824,94.009L270.547,94.02L271.27,93.929L271.992,94.028L272.715,94.001L273.438,93.871L274.16,93.879L274.883,93.894L275.605,93.79L276.328,93.664L277.051,93.673L277.773,93.643L278.496,93.523L279.219,93.569L279.941,93.487L280.664,93.318L281.387,93.198L282.109,93.212L282.832,93.09L283.555,93.107L284.277,92.975L285,92.799L285.723,92.74L286.445,92.697L287.168,92.452L287.891,92.445L288.613,92.249L289.336,92.207L290.059,92.138L290.781,91.938L291.504,91.821L292.227,91.503L292.949,91.541L293.672,91.306L294.395,91.148L295.117,91.108L295.84,90.936L296.563,90.771L297.285,90.589L298.008,90.374L298.73,90.219L299.453,90.057L300.176,89.83L300.898,89.748L301.621,89.42L302.344,89.288L303.066,89.11L303.789,88.872L304.512,88.743L305.234,88.646L305.957,88.386L306.68,88.172L307.402,87.9L308.125,87.8L308.848,87.536L309.57,87.315L310.293,86.993L311.016,86.835L311.738,86.605L312.461,86.442L313.184,86.195L313.906,85.976L314.629,85.776L315.352,85.517L316.074,85.264L316.797,85.157L317.52,84.868L318.242,84.528L318.965,84.35L319.688,84.16L320.41,83.82L321.133,83.697L321.855,83.376L322.578,83.109L323.301,82.894L324.023,82.548L324.746,82.313L325.469,82.154L326.191,81.897L326.914,81.513L327.637,81.308L328.359,81.028L329.082,80.828L329.805,80.448L330.527,80.216L331.25,80.025L331.973,79.579L332.695,79.459L333.418,79.229L334.141,78.844L334.863,78.65L335.586,78.426L336.309,78.02L337.031,77.9L337.754,77.624L338.477,77.22L339.199,77.075L339.922,76.723L340.645,76.494L341.367,76.131L342.09,75.839L342.813,75.548L343.535,75.231L344.258,75.039L344.98,74.664L345.703,74.568L346.426,74.179L347.148,73.932L347.871,73.684L348.594,73.286L349.316,73.066L350.039,72.833L350.762,72.414L351.484,72.14L352.207,71.848L352.93,71.64L353.652,71.394L354.375,71.064L355.098,70.667L355.82,70.498L356.543,70.192L357.266,69.929L357.988,69.593L358.711,69.332L359.434,69.015L360.156,68.71L360.879,68.418L361.602,68.242L362.324,67.924L363.047,67.705L363.77,67.28L364.492,67.108L365.215,66.688L365.938,66.477L366.66,66.042L367.383,65.866L368.105,65.564L368.828,65.4L369.551,65.095L370.273,64.734L370.996,64.555L371.719,64.121L372.441,63.976L373.164,63.629L373.887,63.422L374.609,63.03L375.332,62.687L376.055,62.456L376.777,62.159L377.5,61.934L378.223,61.708L378.945,61.434L379.668,61.064L380.391,60.803L381.113,60.554L381.836,60.322L382.559,59.978L383.281,59.721L384.004,59.432L384.727,59.292L385.449,59.044L386.172,58.723L386.895,58.518L387.617,58.131L388.34,57.985L389.063,57.633L389.785,57.392L390.508,57.228L391.23,56.824L391.953,56.573L392.676,56.358L393.398,56.153L394.121,55.752L394.844,55.43L395.566,55.3L396.289,55.052L397.012,54.842L397.734,54.487L398.457,54.218L399.18,53.989L399.902,53.757L400.625,53.538L401.348,53.324L402.07,52.993L402.793,52.809L403.516,52.532L404.238,52.217L404.961,51.995L405.684,51.781L406.406,51.502L407.129,51.284L407.852,51.071L408.574,50.874L409.297,50.541L410.02,50.326L410.742,50.11L411.465,50.304L412.188,51.125L412.91,51.697L413.633,52.724L414.355,53.367L415.078,54.415L415.801,55.127L416.523,56.056L417.246,56.701L417.969,57.468L418.691,58.519L419.414,59.334L420.137,60.166L420.859,60.923L421.582,61.675L422.305,62.824L423.027,63.41L423.75,63.468L424.473,63.447L425.195,63.342L425.918,63.379L426.641,63.219L427.363,63.233L428.086,63.1L428.809,62.958L429.531,63.085L430.254,62.915L430.977,62.789L431.699,62.72L432.422,62.604L433.145,62.55L433.867,62.473L434.59,62.428L435.313,62.251L436.035,62.241L436.758,62.177L437.48,62.182L438.203,61.989L438.926,61.889L439.648,61.807L440.371,61.814L441.094,61.653L441.816,61.522L442.539,61.425L443.262,61.399L443.984,61.286L444.707,61.251L445.43,61.19L446.152,61.023L446.875,61.018L447.598,60.838L448.32,60.766L449.043,60.689L449.766,60.609L450.488,60.528L451.211,60.451L451.934,60.323L452.656,60.207L453.379,60.251L454.102,60.011L454.824,59.84L455.547,59.87L456.27,59.778L456.992,59.61L457.715,59.539L458.438,59.514L459.16,59.342L459.883,59.233L460.605,59.232L461.328,58.998L462.051,58.996L462.773,58.805L463.496,58.739L464.219,58.565L464.941,58.563L465.664,58.347L466.387,58.292L467.109,58.252L467.832,58.113L468.555,57.978L469.277,57.849"/><path fill="none" stroke="rgb(255, 130, 29)" stroke-width="1.5" d="M100,60.454L100.723,59.515L101.445,58.598L102.168,57.668L102.891,56.856L103.613,55.93L104.336,55.007L105.059,54.16L105.781,53.296L106.504,52.466L107.227,51.7L107.949,50.854L108.672,49.999L109.395,49.265L110.117,48.429L110.84,47.611L111.563,46.713L112.285,45.93L113.008,45.07L113.73,44.156L114.453,43.254L115.176,42.393L115.898,41.343L116.621,40.347L117.344,39.273L118.066,38.16L118.789,36.873L119.512,35.442L120.234,36.103L120.957,36.869L121.68,37.411L122.402,37.958L123.125,38.467L123.848,38.94L124.57,39.342L125.293,39.71L126.016,40.14L126.738,40.386L127.461,40.696L128.184,40.955L128.906,41.288L129.629,41.536L130.352,41.803L131.074,41.989L131.797,42.214L132.52,42.35L133.242,42.521L133.965,42.665L134.688,42.888L135.41,42.975L136.133,43.17L136.855,43.279L137.578,43.377L138.301,43.539L139.023,43.634L139.746,43.67L140.469,43.773L141.191,43.984L141.914,43.986L142.637,44.055L143.359,44.106L144.082,44.131L144.805,44.18L145.527,44.242L146.25,44.262L146.973,44.386L147.695,44.319L148.418,44.433L149.141,44.392L149.863,44.474L150.586,44.558L151.309,44.474L152.031,44.523L152.754,44.519L153.477,44.536L154.199,44.495L154.922,44.533L155.645,44.512L156.367,44.602L157.09,44.566L157.813,44.539L158.535,44.527L159.258,44.567L159.98,44.511L160.703,44.517L161.426,44.555L162.148,44.486L162.871,44.434L163.594,44.433L164.316,44.372L165.039,44.46L165.762,44.429L166.484,44.476L167.207,44.351L167.93,44.405L168.652,44.285L169.375,44.298L170.098,44.296L170.82,44.311L171.543,44.291L172.266,44.218L172.988,44.214L173.711,44.234L174.434,44.213L175.156,44.229L175.879,44.105L176.602,44.179L177.324,44.114L178.047,44.088L178.77,44.073L179.492,44.081L180.215,44.125L180.938,43.972L181.66,44.043L182.383,44.038L183.105,44.01L183.828,43.971L184.551,43.952L185.273,43.929L185.996,43.941L186.719,43.935L187.441,43.949L188.164,43.852L188.887,43.849L189.609,43.911L190.332,43.867L191.055,43.945L191.777,43.919L192.5,43.914L193.223,43.917L193.945,43.884L194.668,43.907L195.391,43.829L196.113,43.876L196.836,43.933L197.559,43.932L198.281,43.921L199.004,43.918L199.727,43.919L200.449,43.885L201.172,43.95L201.895,43.967L202.617,44.029L203.34,44.032L204.063,44.022L204.785,43.949L205.508,44.026L206.23,44.143L206.953,44.056L207.676,44.107L208.398,44.163L209.121,44.186L209.844,44.105L210.566,44.238L211.289,44.234L212.012,44.283L212.734,44.197L213.457,44.336L214.18,44.324L214.902,44.313L215.625,44.495L216.348,44.483L217.07,44.49L217.793,44.523L218.516,44.608L219.238,44.612L219.961,44.719L220.684,44.637L221.406,44.734L222.129,44.78L222.852,44.816L223.574,44.74L224.297,44.839L225.02,44.862L225.742,44.904L226.465,44.992L227.188,45.054L227.91,45.087L228.633,44.914L229.355,45.04L230.078,44.987L230.801,44.967L231.523,44.982L232.246,44.942L232.969,44.934L233.691,44.932L234.414,44.88L235.137,44.812L235.859,44.741L236.582,44.623L237.305,44.546L238.027,44.561L238.75,44.392L239.473,44.267L240.195,44.204L240.918,44.122L241.641,44.061L242.363,43.877L243.086,43.839L243.809,43.756L244.531,43.582L245.254,43.569L245.977,43.466L246.699,43.283L247.422,43.175L248.145,43.043L248.867,42.946L249.59,42.807L250.313,42.621L251.035,42.499L251.758,42.407L252.48,42.306L253.203,42.17L253.926,42.022L254.648,41.917L255.371,41.695L256.094,41.66L256.816,41.494L257.539,41.33L258.262,41.227L258.984,41.051L259.707,40.914L260.43,40.846L261.152,40.658L261.875,40.49L262.598,40.378L263.32,40.247L264.043,40.093L264.766,39.978L265.488,39.812L266.211,39.657L266.934,39.546L267.656,39.383L268.379,39.214L269.102,39.088L269.824,38.923L270.547,38.827L271.27,38.703L271.992,38.559L272.715,38.386L273.438,38.203L274.16,38.158L274.883,37.995L275.605,37.809L276.328,37.696L277.051,37.578L277.773,37.454L278.496,37.277L279.219,37.131L279.941,37.074L280.664,36.87L281.387,36.741L282.109,36.621L282.832,36.503L283.555,36.402L284.277,36.211L285,36.095L285.723,36.019L286.445,35.852L287.168,35.782L287.891,35.606L288.613,35.442L289.336,35.413L290.059,35.225L290.781,35.085L291.504,35.021L292.227,34.836L292.949,34.714L293.672,34.632L294.395,34.457L295.117,34.404L295.84,34.308L296.563,34.083L297.285,34.066L298.008,33.828L298.73,33.762L299.453,33.648L300.176,33.57L300.898,33.55L301.621,33.335L302.344,33.213L303.066,33.082L303.789,32.978L304.512,32.887L305.234,32.715L305.957,32.654L306.68,32.559L307.402,32.453L308.125,32.326L308.848,32.256L309.57,32.107L310.293,31.988L311.016,31.894L311.738,31.812L312.461,31.632L313.184,31.53L313.906,31.523L314.629,31.364L315.352,31.276L316.074,31.129L316.797,31.035L317.52,30.887L318.242,30.883L318.965,30.788L319.688,30.627L320.41,30.532L321.133,30.421L321.855,30.358L322.578,30.186L323.301,30.07L324.023,29.954L324.746,29.819L325.469,29.786L326.191,29.623L326.914,29.566L327.637,29.464L328.359,29.417L329.082,29.284L329.805,29.152L330.527,29.038L331.25,28.982L331.973,28.887L332.695,28.757L333.418,28.688L334.141,28.547L334.863,28.418L335.586,29.012L336.309,29.684L337.031,30.703L337.754,31.453L338.477,32.306L339.199,33.145L339.922,34.023L340.645,34.687L341.367,35.689L342.09,36.469L342.813,37.174L343.535,38.136L344.258,38.835L344.98,39.983L345.703,40.456L346.426,41.525L347.148,42.315L347.871,43.048L348.594,43.866L349.316,43.919L350.039,43.983L350.762,43.97L351.484,44.068L352.207,44.005L352.93,44.064L353.652,44.15L354.375,44.199L355.098,44.191L355.82,44.252L356.543,44.26L357.266,44.2L357.988,44.277L358.711,44.296L359.434,44.348L360.156,44.325L360.879,44.388L361.602,44.303L362.324,44.382L363.047,44.405L363.77,44.416L364.492,44.415L365.215,44.45L365.938,44.38L366.66,44.435L367.383,44.538L368.105,44.509L368.828,44.406L369.551,44.46L370.273,44.399L370.996,44.456L371.719,44.456L372.441,44.495L373.164,44.48L373.887,44.525L374.609,44.484L375.332,44.5L376.055,44.538L376.777,44.459L377.5,44.455L378.223,44.518L378.945,44.452L379.668,44.428L380.391,44.436L381.113,44.407L381.836,44.382L382.559,44.48L383.281,44.465L384.004,44.433L384.727,44.425L385.449,44.318L386.172,44.332L386.895,44.323L387.617,44.278L388.34,44.29L389.063,44.253L389.785,44.237L390.508,44.224L391.23,44.235L391.953,44.267L392.676,44.159L393.398,44.139L394.121,44.062L394.844,44.106L395.566,44.004L396.289,44.043L397.012,44.004L397.734,43.936L398.457,43.905L399.18,43.924L399.902,43.977L400.625,43.884L401.348,43.829L402.07,43.884L402.793,43.815L403.516,43.751L404.238,43.706L404.961,43.675L405.684,43.625L406.406,43.596L407.129,43.542L407.852,43.573L408.574,43.493L409.297,43.464L410.02,43.508L410.742,43.387L411.465,43.376L412.188,43.315L412.91,43.296L413.633,43.226L414.355,43.254L415.078,43.154L415.801,43.132L416.523,43.055L417.246,43.051L417.969,43.004L418.691,42.962L419.414,42.951L420.137,42.907L420.859,42.895L421.582,42.836L422.305,42.739L423.027,42.729L423.75,42.661L424.473,42.63L425.195,42.598L425.918,42.495L426.641,42.487L427.363,42.461L428.086,42.411L428.809,42.32L429.531,42.318L430.254,42.369L430.977,42.153L431.699,42.229L432.422,42.123L433.145,42.126L433.867,42.037L434.59,42.027L435.313,41.931L436.035,41.906L436.758,41.922L437.48,41.886L438.203,41.769L438.926,41.729L439.648,41.585L440.371,41.635L441.094,41.559L441.816,41.527L442.539,41.392L443.262,41.386L443.984,41.416L444.707,41.33L445.43,41.289L446.152,41.167L446.875,41.256L447.598,41.119L448.32,41.121L449.043,41.08L449.766,40.953L450.488,40.872L451.211,40.897L451.934,40.821L452.656,40.826L453.379,40.652L454.102,40.723L454.824,40.612L455.547,40.571L456.27,40.528L456.992,40.491L457.715,40.434L458.438,40.375L459.16,40.365L459.883,40.216L460.605,40.156L461.328,40.129L462.051,40.126L462.773,40.06L463.496,39.995L464.219,39.876L464.941,39.827L465.664,39.808L466.387,39.779L467.109,39.647L467.832,39.62L468.555,39.625L469.277,39.574"/><path fill="none" stroke="rgb(203, 47, 13)" stroke-width="1.5" d="M100,59.106L100.723,58.222L101.445,57.301L102.168,56.47L102.891,55.603L103.613,54.703L104.336,53.856L105.059,53.027L105.781,52.163L106.504,51.376L107.227,50.536L107.949,49.704L108.672,48.832L109.395,48.036L110.117,47.413L110.84,46.427L111.563,45.572L112.285,44.848L113.008,43.876L113.73,43.041L114.453,42.094L115.176,41.096L115.898,40.056L116.621,38.961L117.344,37.805L118.066,36.441L118.789,34.997L119.512,36.053L120.234,36.662L120.957,37.204L121.68,37.722L122.402,38.128L123.125,38.553L123.848,38.981L124.57,39.244L125.293,39.583L126.016,39.88L126.738,40.149L127.461,40.389L128.184,40.63L128.906,40.908L129.629,41.079L130.352,41.306L131.074,41.454L131.797,41.579L132.52,41.697L133.242,41.797L133.965,41.902L134.688,41.99L135.41,42.097L136.133,42.163L136.855,42.248L137.578,42.336L138.301,42.369L139.023,42.411L139.746,42.441L140.469,42.543L141.191,42.507L141.914,42.58L142.637,42.544L143.359,42.515L144.082,42.601L144.805,42.602L145.527,42.487L146.25,42.489L146.973,42.516L147.695,42.51L148.418,42.368L149.141,42.268L149.863,42.293L150.586,42.353L151.309,42.142L152.031,42.122L152.754,42.081L153.477,41.979L154.199,41.864L154.922,41.905L155.645,41.819L156.367,41.702L157.09,41.663L157.813,41.525L158.535,41.397L159.258,41.28L159.98,41.232L160.703,41.104L161.426,40.949L162.148,40.838L162.871,40.728L163.594,40.675L164.316,40.504L165.039,40.359L165.762,40.283L166.484,40.143L167.207,39.997L167.93,39.753L168.652,39.669L169.375,39.538L170.098,39.401L170.82,39.142L171.543,39.045L172.266,38.926L172.988,38.76L173.711,38.601L174.434,38.481L175.156,38.183L175.879,37.999L176.602,37.829L177.324,37.688L178.047,37.454L178.77,37.388L179.492,37.276L180.215,37.052L180.938,36.707L181.66,36.632L182.383,36.285L183.105,36.263L183.828,36.08L184.551,35.842L185.273,35.733L185.996,35.467L186.719,35.344L187.441,35.111L188.164,34.963L188.887,34.78L189.609,34.532L190.332,34.369L191.055,34.215L191.777,34.027L192.5,33.756L193.223,33.44L193.945,33.334L194.668,33.138L195.391,32.962L196.113,32.754L196.836,32.576L197.559,32.338L198.281,32.134L199.004,31.964L199.727,31.772L200.449,31.56L201.172,31.359L201.895,31.102L202.617,30.929L203.34,30.707L204.063,30.582L204.785,30.245L205.508,30.134L206.23,29.927L206.953,29.722L207.676,29.484L208.398,29.306L209.121,29.124L209.844,28.922L210.566,28.742L211.289,28.581L212.012,28.438L212.734,28.119L213.457,27.98L214.18,27.796L214.902,27.655L215.625,27.442L216.348,27.308L217.07,27.041L217.793,26.84L218.516,26.7L219.238,26.478L219.961,26.322L220.684,26.126L221.406,25.935L222.129,25.8L222.852,25.591L223.574,25.423L224.297,25.238L225.02,25.031L225.742,24.987L226.465,24.644L227.188,24.536L227.91,24.39L228.633,24.154L229.355,23.953L230.078,23.795L230.801,23.54L231.523,23.391L232.246,23.19L232.969,22.957L233.691,22.729L234.414,22.504L235.137,22.369L235.859,22.17L236.582,21.88L237.305,21.7L238.027,21.541L238.75,21.273L239.473,21.087L240.195,20.838L240.918,20.674L241.641,20.438L242.363,20.272L243.086,20.034L243.809,20L244.531,22.965L245.254,25.912L245.977,28.592L246.699,31.789L247.422,34.732L248.145,36.126L248.867,36.409L249.59,36.734L250.313,36.943L251.035,37.247L251.758,37.56L252.48,37.78L253.203,38.052L253.926,38.323L254.648,38.558L255.371,38.75L256.094,38.964L256.816,39.128L257.539,39.476L258.262,39.646L258.984,39.83L259.707,40.018L260.43,40.207L261.152,40.403L261.875,40.579L262.598,40.772L263.32,40.898L264.043,41.068L264.766,41.233L265.488,41.333L266.211,41.503L266.934,41.704L267.656,41.723L268.379,41.875L269.102,42.041L269.824,42.199L270.547,42.283L271.27,42.353L271.992,42.485L272.715,42.608L273.438,42.661L274.16,42.813L274.883,42.885L275.605,42.935L276.328,42.957L277.051,43.089L277.773,43.134L278.496,43.192L279.219,43.31L279.941,43.378L280.664,43.429L281.387,43.45L282.109,43.457L282.832,43.49L283.555,43.567L284.277,43.638L285,43.581L285.723,43.708L286.445,43.743L287.168,43.716L287.891,43.725L288.613,43.759L289.336,43.803L290.059,43.841L290.781,43.798L291.504,43.742L292.227,43.853L292.949,43.818L293.672,43.796L294.395,43.796L295.117,43.854L295.84,43.783L296.563,43.77L297.285,43.758L298.008,43.725L298.73,43.759L299.453,43.792L300.176,43.661L300.898,43.676L301.621,43.621L302.344,43.587L303.066,43.617L303.789,43.524L304.512,43.593L305.234,43.507L305.957,43.495L306.68,43.418L307.402,43.36L308.125,43.276L308.848,43.318L309.57,43.262L310.293,43.186L311.016,43.149L311.738,43.104L312.461,43.063L313.184,42.963L313.906,42.961L314.629,42.868L315.352,42.834L316.074,42.805L316.797,42.682L317.52,42.696L318.242,42.617L318.965,42.512L319.688,42.504L320.41,42.434L321.133,42.32L321.855,42.253L322.578,42.191L323.301,42.132L324.023,42.024L324.746,42.006L325.469,41.945L326.191,41.833L326.914,41.751L327.637,41.713L328.359,41.663L329.082,41.546L329.805,41.545L330.527,41.408L331.25,41.337L331.973,41.287L332.695,41.18L333.418,41.113L334.141,40.993L334.863,40.877L335.586,40.873L336.309,40.776L337.031,40.724L337.754,40.594L338.477,40.478L339.199,40.445L339.922,40.403L340.645,40.26L341.367,40.141L342.09,40.163L342.813,40.041L343.535,39.976L344.258,39.842L344.98,39.803L345.703,39.761L346.426,39.547L347.148,39.474L347.871,39.409L348.594,39.384L349.316,39.28L350.039,39.178L350.762,39.119L351.484,38.982L352.207,38.855L352.93,38.864L353.652,38.788L354.375,38.659L355.098,38.498L355.82,38.535L356.543,38.4L357.266,38.353L357.988,38.179L358.711,38.12L359.434,38.019L360.156,37.927L360.879,37.915L361.602,37.905L362.324,37.662L363.047,37.633L363.77,37.479L364.492,37.424L365.215,37.336L365.938,37.242L366.66,37.174L367.383,37.085L368.105,36.95L368.828,36.897L369.551,36.799L370.273,36.795L370.996,36.656L371.719,36.534L372.441,36.523L373.164,36.456L373.887,36.369L374.609,36.196L375.332,36.182L376.055,36.104L376.777,35.968L377.5,35.931L378.223,35.837L378.945,35.779L379.668,35.7L380.391,35.53L381.113,35.479L381.836,35.392L382.559,35.225L383.281,35.187L384.004,35.199L384.727,35.014L385.449,34.918L386.172,34.906L386.895,34.789L387.617,34.664L388.34,34.668L389.063,34.546L389.785,34.43L390.508,34.418L391.23,34.332L391.953,34.22L392.676,34.158L393.398,34.085L394.121,33.984L394.844,33.913L395.566,33.851L396.289,33.824L397.012,33.719L397.734,33.557L398.457,33.545L399.18,33.545L399.902,33.357L400.625,33.337L401.348,33.265L402.07,33.182L402.793,33.108L403.516,32.978L404.238,32.953L404.961,32.895L405.684,32.873L406.406,32.808L407.129,32.631L407.852,32.592L408.574,32.508L409.297,32.512L410.02,32.327L410.742,32.304L411.465,32.251L412.188,32.104L412.91,32.107L413.633,32.028L414.355,31.886L415.078,31.903L415.801,31.728L416.523,31.755L417.246,31.687L417.969,31.614L418.691,31.55L419.414,31.549L420.137,31.443L420.859,31.389L421.582,31.321L422.305,31.186L423.027,31.136L423.75,31.127L424.473,30.965L425.195,30.89L425.918,30.892L426.641,30.821L427.363,30.753L428.086,30.709L428.809,30.673L429.531,30.5L430.254,30.509L430.977,30.483L431.699,30.389L432.422,30.403L433.145,30.301L433.867,30.27L434.59,30.156L435.313,30.1L436.035,30.063L436.758,29.987L437.48,29.944L438.203,29.884L438.926,29.832L439.648,29.839L440.371,29.727L441.094,29.698L441.816,29.614L442.539,29.615L443.262,29.558L443.984,29.504L444.707,29.434L445.43,29.348L446.152,29.246L446.875,29.218L447.598,29.169L448.32,29.111L449.043,29.055L449.766,29.009L450.488,28.928L451.211,28.869L451.934,28.881L452.656,28.845L453.379,28.748L454.102,28.715L454.824,28.622L455.547,28.61L456.27,28.554L456.992,28.516L457.715,28.477L458.438,28.384L459.16,28.35L459.883,28.309L460.605,28.262L461.328,28.204L462.051,28.15L462.773,28.149L463.496,28.055L464.219,27.995L464.941,27.993L465.664,27.958L466.387,27.904L467.109,27.819L467.832,27.805L468.555,27.662L469.277,27.693"/><g transform="translate(0,190) scale(1.7) rotate(-90)"><text>Drift</text></g><g transform="translate(315,395) scale(1.8)"><text></text></g><g transform="translate(0,350)" fill="none" font-size="10" font-family="sans-serif" text-anchor="middle"><path class="domain" stroke="currentColor" d="M100,6V0H470V6"/><g class="tick" opacity="1" transform="translate(136.66666666666666,0)"><line stroke="currentColor" y2="6"/><text fill="currentColor" y="9" dy="0.71em" font-size="20px"> </text></g><g class="tick" opacity="1" transform="translate(173.7037037037037,0)"><line stroke="currentColor" y2="6"/><text fill="currentColor" y="9" dy="0.71em" font-size="20px">200</text></g><g class="tick" opacity="1" transform="translate(210.74074074074076,0)"><line stroke="currentColor" y2="6"/><text fill="currentColor" y="9" dy="0.71em" font-size="20px"> </text></g><g class="tick" opacity="1" transform="translate(247.77777777777777,0)"><line stroke="currentColor" y2="6"/><text fill="currentColor" y="9" dy="0.71em" font-size="20px">400</text></g><g class="tick" opacity="1" transform="translate(284.81481481481484,0)"><line stroke="currentColor" y2="6"/><text fill="currentColor" y="9" dy="0.71em" font-size="20px"> </text></g><g class="tick" opacity="1" transform="translate(321.85185185185185,0)"><line stroke="currentColor" y2="6"/><text fill="currentColor" y="9" dy="0.71em" font-size="20px">600</text></g><g class="tick" opacity="1" transform="translate(358.8888888888889,0)"><line stroke="currentColor" y2="6"/><text fill="currentColor" y="9" dy="0.71em" font-size="20px"> </text></g><g class="tick" opacity="1" transform="translate(395.9259259259259,0)"><line stroke="currentColor" y2="6"/><text fill="currentColor" y="9" dy="0.71em" font-size="20px">800</text></g><g class="tick" opacity="1" transform="translate(432.96296296296293,0)"><line stroke="currentColor" y2="6"/><text fill="currentColor" y="9" dy="0.71em" font-size="20px"> </text></g><g class="tick" opacity="1" transform="translate(470,0)"><line stroke="currentColor" y2="6"/><text fill="currentColor" y="9" dy="0.71em" font-size="20px">1000</text></g></g><g transform="translate(100,0)" fill="none" font-size="10" font-family="sans-serif" text-anchor="end"><path class="domain" stroke="currentColor" d="M-6,350H0V20H-6"/><g class="tick" opacity="1" transform="translate(0,349.83342055432036)"><line stroke="currentColor" x2="-6"/><text fill="currentColor" x="-9" dy="0.32em" font-size="20px">0.65</text></g><g class="tick" opacity="1" transform="translate(0,323.85856476552755)"><line stroke="currentColor" x2="-6"/><text fill="currentColor" x="-9" dy="0.32em" font-size="20px">0.60</text></g><g class="tick" opacity="1" transform="translate(0,297.88370897673485)"><line stroke="currentColor" x2="-6"/><text fill="currentColor" x="-9" dy="0.32em" font-size="20px">0.55</text></g><g class="tick" opacity="1" transform="translate(0,271.90885318794204)"><line stroke="currentColor" x2="-6"/><text fill="currentColor" x="-9" dy="0.32em" font-size="20px">0.50</text></g><g class="tick" opacity="1" transform="translate(0,245.9339973991493)"><line stroke="currentColor" x2="-6"/><text fill="currentColor" x="-9" dy="0.32em" font-size="20px">0.45</text></g><g class="tick" opacity="1" transform="translate(0,219.95914161035654)"><line stroke="currentColor" x2="-6"/><text fill="currentColor" x="-9" dy="0.32em" font-size="20px">0.40</text></g><g class="tick" opacity="1" transform="translate(0,193.9842858215638)"><line stroke="currentColor" x2="-6"/><text fill="currentColor" x="-9" dy="0.32em" font-size="20px">0.35</text></g><g class="tick" opacity="1" transform="translate(0,168.009430032771)"><line stroke="currentColor" x2="-6"/><text fill="currentColor" x="-9" dy="0.32em" font-size="20px">0.30</text></g><g class="tick" opacity="1" transform="translate(0,142.03457424397826)"><line stroke="currentColor" x2="-6"/><text fill="currentColor" x="-9" dy="0.32em" font-size="20px">0.25</text></g><g class="tick" opacity="1" transform="translate(0,116.05971845518553)"><line stroke="currentColor" x2="-6"/><text fill="currentColor" x="-9" dy="0.32em" font-size="20px">0.20</text></g><g class="tick" opacity="1" transform="translate(0,90.08486266639278)"><line stroke="currentColor" x2="-6"/><text fill="currentColor" x="-9" dy="0.32em" font-size="20px">0.15</text></g><g class="tick" opacity="1" transform="translate(0,64.11000687760004)"><line stroke="currentColor" x2="-6"/><text fill="currentColor" x="-9" dy="0.32em" font-size="20px">0.10</text></g><g class="tick" opacity="1" transform="translate(0,38.13515108880733)"><line stroke="currentColor" x2="-6"/><text fill="currentColor" x="-9" dy="0.32em" font-size="20px">0.05</text></g></g><circle cx="120" cy="255" r="8" style="fill: rgb(35, 23, 27);"/><circle cx="120" cy="280" r="8" style="fill: rgb(69, 105, 238);"/><circle cx="120" cy="305" r="8" style="fill: rgb(38, 188, 225);"/><circle cx="120" cy="330" r="8" style="fill: rgb(63, 243, 147);"/><circle cx="440" cy="255" r="8" style="fill: rgb(149, 251, 81);"/><circle cx="440" cy="280" r="8" style="fill: rgb(236, 209, 46);"/><circle cx="440" cy="305" r="8" style="fill: rgb(255, 130, 29);"/><circle cx="440" cy="330" r="8" style="fill: rgb(203, 47, 13);"/><text x="135" y="255" text-anchor="left" font-size="22" alignment-baseline="middle" style="fill: rgb(35, 23, 27);"> = 0</text><text x="135" y="280" text-anchor="left" font-size="22" alignment-baseline="middle" style="fill: rgb(69, 105, 238);"> = 0.22</text><text x="135" y="305" text-anchor="left" font-size="22" alignment-baseline="middle" style="fill: rgb(38, 188, 225);"> = 0.45</text><text x="135" y="330" text-anchor="left" font-size="22" alignment-baseline="middle" style="fill: rgb(63, 243, 147);"> = 0.67</text><text x="460" y="255" text-anchor="left" font-size="22" alignment-baseline="middle" style="fill: rgb(149, 251, 81);"> = 0.9</text><text x="460" y="280" text-anchor="left" font-size="22" alignment-baseline="middle" style="fill: rgb(236, 209, 46);"> = 1.12</text><text x="460" y="305" text-anchor="left" font-size="22" alignment-baseline="middle" style="fill: rgb(255, 130, 29);"> = 1.35</text><text x="460" y="330" text-anchor="left" font-size="22" alignment-baseline="middle" style="fill: rgb(203, 47, 13);"> = 1.57</text></svg>