<svg xmlns="http://www.w3.org/2000/svg" class="bg-white" width="500" height="400" viewBox="-34.29999999999997 -29.999999999999964 550 440.00000000000006"><path fill="none" stroke="rgb(35, 23, 27)" stroke-width="1.5" d="M100,80.31L100.723,78.626L101.445,74.429L102.168,72.983L102.891,71.478L103.613,69.993L104.336,68.418L105.059,66.748L105.781,67.505L106.504,65.716L107.227,62.746L107.949,60.99L108.672,59.096L109.395,59.525L110.117,57.496L110.84,55.521L111.563,51.302L112.285,49.278L113.008,46.389L113.73,44.222L114.453,42.035L115.176,40.134L115.898,37.802L116.621,32.352L117.344,29.997L118.066,27.517L118.789,27.903L119.512,24.651L120.234,22.665L120.957,20L121.68,215.637L122.402,214.712L123.125,215.156L123.848,218.327L124.57,214.821L125.293,213.639L126.016,218.133L126.738,214.695L127.461,214.479L128.184,213.245L128.906,216.41L129.629,213.938L130.352,213.901L131.074,216.148L131.797,215.946L132.52,215.774L133.242,213.707L133.965,213.266L134.688,212.803L135.41,213.411L136.133,213.245L136.855,214.189L137.578,214.121L138.301,213.847L139.023,213.884L139.746,213.829L140.469,214.97L141.191,213.294L141.914,212.71L142.637,212.936L143.359,213.6L144.082,213.333L144.805,213.243L145.527,212.255L146.25,211.58L146.973,211.315L147.695,211.098L148.418,210.927L149.141,211.35L149.863,211.131L150.586,210.223L151.309,209.359L152.031,209.319L152.754,211.858L153.477,211.929L154.199,211.731L154.922,209.896L155.645,209.772L156.367,209.72L157.09,209.579L157.813,210.801L158.535,207.085L159.258,207.064L159.98,209.169L160.703,210.274L161.426,208.79L162.148,206.54L162.871,207.987L163.594,206.149L164.316,205.739L165.039,208.568L165.762,209.107L166.484,209.096L167.207,207.9L167.93,206.957L168.652,208.224L169.375,204.413L170.098,207.992L170.82,206.053L171.543,206.966L172.266,206.85L172.988,205.505L173.711,205.283L174.434,204.498L175.156,204.378L175.879,205.939L176.602,204.767L177.324,204.415L178.047,204.366L178.77,204.166L179.492,205.101L180.215,205.042L180.938,205.017L181.66,204.645L182.383,204.435L183.105,204.276L183.828,202.901L184.551,202.674L185.273,201.69L185.996,203.343L186.719,201.213L187.441,201.369L188.164,203.533L188.887,201.073L189.609,200.509L190.332,200.684L191.055,202.193L191.777,201.267L192.5,200.677L193.223,200.14L193.945,199.351L194.668,201.589L195.391,200.271L196.113,201.331L196.836,201.015L197.559,200.19L198.281,198.984L199.004,200.567L199.727,200.462L200.449,197.914L201.172,199.766L201.895,198.592L202.617,199.89L203.34,199.712L204.063,199.191L204.785,199.052L205.508,198.238L206.23,201.38L206.953,197.489L207.676,198.56L208.398,197.474L209.121,197.341L209.844,198.232L210.566,201.132L211.289,197.066L212.012,196.92L212.734,197.84L213.457,199.248L214.18,198.447L214.902,198.404L215.625,198.821L216.348,197.066L217.07,198.752L217.793,197.246L218.516,197.932L219.238,197.12L219.961,199.554L220.684,198.504L221.406,196.397L222.129,197.846L222.852,195.925L223.574,196.392L224.297,196.417L225.02,196.162L225.742,197.434L226.465,197.452L227.188,196.091L227.91,196.119L228.633,196.142L229.355,197.65L230.078,197.548L230.801,194.884L231.523,198.739L232.246,195.212L232.969,195.807L233.691,195.801L234.414,196.445L235.137,195.429L235.859,196.008L236.582,196.682L237.305,196.611L238.027,197.012L238.75,196.975L239.473,195.045L240.195,198.117L240.918,195.942L241.641,196.117L242.363,196.441L243.086,196.319L243.809,198.377L244.531,198.59L245.254,198.607L245.977,198.899L246.699,196.716L247.422,196.292L248.145,196.85L248.867,198.273L249.59,198.588L250.313,199.317L251.035,198.238L251.758,196.725L252.48,197.062L253.203,197.236L253.926,197.438L254.648,197.551L255.371,197.71L256.094,194.818L256.816,198.437L257.539,197.784L258.262,200.303L258.984,198.178L259.707,198.12L260.43,198.87L261.152,198.418L261.875,200.008L262.598,198.703L263.32,198.723L264.043,195.551L264.766,198.861L265.488,199.206L266.211,196.058L266.934,196.03L267.656,196.401L268.379,199.51L269.102,200.159L269.824,201.66L270.547,201.419L271.27,202.095L271.992,199.33L272.715,201.676L273.438,202.718L274.16,202.772L274.883,203.096L275.605,201.796L276.328,201.051L277.051,202.873L277.773,202.879L278.496,202.858L279.219,202.226L279.941,204.285L280.664,204.584L281.387,204.166L282.109,204.76L282.832,204.919L283.555,203.801L284.277,206.34L285,204.482L285.723,205.827L286.445,206.474L287.168,207.039L287.891,207.039L288.613,208.353L289.336,209.434L290.059,208.14L290.781,208.459L291.504,209.064L292.227,209.96L292.949,210.034L293.672,209.66L294.395,210.788L295.117,210.433L295.84,211.894L296.563,214.438L297.285,214.725L298.008,212.395L298.73,213.562L299.453,213.988L300.176,213.911L300.898,217.069L301.621,217.436L302.344,218.019L303.066,218.375L303.789,218.829L304.512,217.192L305.234,220.589L305.957,218.49L306.68,217.516L307.402,219.007L308.125,219.633L308.848,218.876L309.57,219.417L310.293,221.276L311.016,223.24L311.738,218.974L312.461,221.578L313.184,223.556L313.906,222.334L314.629,224.091L315.352,225.116L316.074,224.074L316.797,225.364L317.52,225.185L318.242,227.239L318.965,224.676L319.688,225.236L320.41,230.188L321.133,228.306L321.855,227.04L322.578,230.414L323.301,230.015L324.023,230.841L324.746,232.869L325.469,231.931L326.191,230.898L326.914,232.587L327.637,237.208L328.359,233.929L329.082,236.841L329.805,235.71L330.527,237.614L331.25,240.607L331.973,238.27L332.695,241.204L333.418,240.946L334.141,243.417L334.863,240.144L335.586,243.189L336.309,243.677L337.031,242.504L337.754,244.141L338.477,248.959L339.199,249.744L339.922,249.699L340.645,248.361L341.367,247.002L342.09,246.761L342.813,254.679L343.535,250.33L344.258,250.712L344.98,254.147L345.703,253.304L346.426,256.549L347.148,256.894L347.871,260.37L348.594,257.965L349.316,256.078L350.039,255.155L350.762,261.685L351.484,257.561L352.207,260.349L352.93,259.071L353.652,261.883L354.375,260.637L355.098,262.374L355.82,266.094L356.543,268.091L357.266,264.378L357.988,269.679L358.711,265.08L359.434,270.979L360.156,271.327L360.879,272.497L361.602,271.617L362.324,271.777L363.047,272.508L363.77,272.542L364.492,273.869L365.215,275.006L365.938,276.98L366.66,279.505L367.383,278.767L368.105,278.324L368.828,282.177L369.551,281.027L370.273,281.632L370.996,280.02L371.719,281.877L372.441,283.801L373.164,282.554L373.887,282.49L374.609,286.068L375.332,287.24L376.055,287.676L376.777,287.638L377.5,290.5L378.223,293.325L378.945,291.621L379.668,292.489L380.391,293.205L381.113,293.253L381.836,294.139L382.559,294.853L383.281,295.748L384.004,296.526L384.727,296.689L385.449,299.848L386.172,298.671L386.895,298.297L387.617,299.766L388.34,301.688L389.063,301.276L389.785,300.166L390.508,302.255L391.23,305.94L391.953,306.63L392.676,307.588L393.398,305.414L394.121,306.253L394.844,309.159L395.566,306.35L396.289,310.965L397.012,311.56L397.734,309.567L398.457,310.062L399.18,314.064L399.902,312.966L400.625,315.362L401.348,316.42L402.07,314.481L402.793,314.485L403.516,315.962L404.238,316.71L404.961,316.412L405.684,319.515L406.406,317.851L407.129,319.597L407.852,319.81L408.574,319.984L409.297,323.582L410.02,321.739L410.742,321.557L411.465,323.302L412.188,325.415L412.91,326.147L413.633,327.255L414.355,325.277L415.078,328.341L415.801,331.124L416.523,329.601L417.246,329.51L417.969,328.129L418.691,331.067L419.414,331.198L420.137,329.892L420.859,332.787L421.582,329.516L422.305,332.809L423.027,333.833L423.75,337.172L424.473,335.072L425.195,333.26L425.918,334.552L426.641,339.258L427.363,334.884L428.086,335.131L428.809,336.061L429.531,341.255L430.254,336.689L430.977,337.221L431.699,338.511L432.422,339.588L433.145,337.998L433.867,338.253L434.59,339.285L435.313,340.617L436.035,340.083L436.758,337.703L437.48,345.25L438.203,340.659L438.926,338.126L439.648,346.255L440.371,339.916L441.094,339.424L441.816,346.326L442.539,341.233L443.262,343.48L443.984,341.562L444.707,341.101L445.43,340.742L446.152,341.994L446.875,340.503L447.598,343.233L448.32,345.137L449.043,341.698L449.766,343.881L450.488,343.452L451.211,341.418L451.934,342.775L452.656,343.54L453.379,343.529L454.102,345.791L454.824,342.564L455.547,344.347L456.27,343.504L456.992,343.066L457.715,346.423L458.438,344.76L459.16,345.297L459.883,342.672L460.605,346.387L461.328,346.445L462.051,347.917L462.773,350L463.496,344.085L464.219,346.343L464.941,345.057L465.664,343.564L466.387,345.69L467.109,343.493L467.832,349.403L468.555,345.495L469.277,343.822"/><path fill="none" stroke="rgb(69, 105, 238)" stroke-width="1.5" d="M100,107.014L100.723,104.411L101.445,103.674L102.168,102.092L102.891,100.296L103.613,97.284L104.336,98.354L105.059,95.628L105.781,95.812L106.504,94.224L107.227,92.299L107.949,88.669L108.672,87.743L109.395,86.963L110.117,85.396L110.84,81.174L111.563,78.332L112.285,77.581L113.008,74.358L113.73,74.909L114.453,69.534L115.176,70.681L115.898,65.905L116.621,63.462L117.344,61.052L118.066,60.591L118.789,189.637L119.512,187.039L120.234,187.767L120.957,186.78L121.68,186.796L122.402,190.105L123.125,188.238L123.848,188.895L124.57,188.396L125.293,186.836L126.016,189.37L126.738,188.407L127.461,187.979L128.184,188.665L128.906,186.918L129.629,182.069L130.352,186.547L131.074,188.151L131.797,186.023L132.52,185.859L133.242,186.393L133.965,185.982L134.688,186.058L135.41,187.899L136.133,186.824L136.855,186.565L137.578,184.494L138.301,185.613L139.023,185.708L139.746,185.019L140.469,184.501L141.191,184.11L141.914,184.649L142.637,183.968L143.359,184.899L144.082,186.929L144.805,182.836L145.527,186.241L146.25,184.499L146.973,184.383L147.695,182.58L148.418,184.708L149.141,182.748L149.863,185.362L150.586,183.128L151.309,182.221L152.031,182.736L152.754,182.863L153.477,182.187L154.199,183.835L154.922,181.551L155.645,181.416L156.367,181.417L157.09,183.582L157.813,180.654L158.535,183.175L159.258,180.871L159.98,180.798L160.703,182.019L161.426,181.769L162.148,178.542L162.871,183.576L163.594,181.186L164.316,181.221L165.039,179.896L165.762,179.634L166.484,179.556L167.207,180.339L167.93,180.558L168.652,176.27L169.375,181.768L170.098,179.793L170.82,181.335L171.543,179.714L172.266,180.972L172.988,179.484L173.711,178.996L174.434,179.29L175.156,179.121L175.879,177.141L176.602,178.485L177.324,177.864L178.047,177.92L178.77,177.73L179.492,179.055L180.215,175.214L180.938,177.388L181.66,177.53L182.383,176.858L183.105,173.77L183.828,176.998L184.551,176.857L185.273,176.564L185.996,178.466L186.719,176.583L187.441,176.525L188.164,174.814L188.887,173.158L189.609,176.687L190.332,175.849L191.055,176.075L191.777,177.969L192.5,175.348L193.223,172.411L193.945,171.568L194.668,173.752L195.391,174.74L196.113,173.278L196.836,171.433L197.559,173.359L198.281,174.348L199.004,172.783L199.727,175.364L200.449,175.407L201.172,175.325L201.895,174.389L202.617,175.646L203.34,173.698L204.063,173.623L204.785,171.847L205.508,171.444L206.23,173.738L206.953,171.486L207.676,171.594L208.398,172.849L209.121,171.299L209.844,171.217L210.566,171.225L211.289,171.238L212.012,171.133L212.734,170.578L213.457,172.89L214.18,171.878L214.902,170.413L215.625,171.807L216.348,172.631L217.07,170.707L217.793,169.247L218.516,171.628L219.238,172.523L219.961,173.061L220.684,170.793L221.406,171.196L222.129,172.401L222.852,170.398L223.574,170.046L224.297,168.455L225.02,172.324L225.742,169.119L226.465,169.528L227.188,170.26L227.91,169.484L228.633,169.444L229.355,170.075L230.078,168.812L230.801,168.939L231.523,169.464L232.246,168.337L232.969,170.699L233.691,169.116L234.414,169.329L235.137,169.501L235.859,168.698L236.582,172.32L237.305,171.678L238.027,170.35L238.75,170.881L239.473,170.339L240.195,170.42L240.918,171.678L241.641,171.004L242.363,169.975L243.086,172.372L243.809,172.605L244.531,168.699L245.254,171.504L245.977,172.841L246.699,171.466L247.422,172.342L248.145,172.5L248.867,172.608L249.59,170.435L250.313,172.748L251.035,172.276L251.758,171.117L252.48,171.913L253.203,173.783L253.926,172.932L254.648,172.567L255.371,172.734L256.094,172.51L256.816,174.065L257.539,170.883L258.262,172.268L258.984,173.798L259.707,173.638L260.43,173.183L261.152,173.8L261.875,172.644L262.598,174.245L263.32,174.877L264.043,173.436L264.766,174.852L265.488,173.907L266.211,172.651L266.934,173.535L267.656,175.181L268.379,175.067L269.102,175.174L269.824,174.752L270.547,176.004L271.27,177.397L271.992,175.812L272.715,176.668L273.438,178.066L274.16,178.261L274.883,174.646L275.605,176.293L276.328,177.074L277.051,177.178L277.773,179.736L278.496,180.109L279.219,176.834L279.941,180.307L280.664,177.906L281.387,178.008L282.109,179.65L282.832,181.672L283.555,179.623L284.277,179.755L285,182.737L285.723,183.777L286.445,179.735L287.168,180.721L287.891,180.514L288.613,182.175L289.336,184.498L290.059,182.246L290.781,183.887L291.504,183.804L292.227,186.438L292.949,187.303L293.672,185.387L294.395,186.378L295.117,185.38L295.84,185.524L296.563,185.115L297.285,188.659L298.008,185.651L298.73,187.594L299.453,187.918L300.176,188.396L300.898,188.721L301.621,190.696L302.344,190.39L303.066,192.262L303.789,192.572L304.512,193.311L305.234,191.225L305.957,192.28L306.68,193.346L307.402,193.486L308.125,193.879L308.848,192.636L309.57,196.701L310.293,195.372L311.016,195.69L311.738,197.835L312.461,198.457L313.184,198.261L313.906,200.342L314.629,198.515L315.352,198.913L316.074,201.403L316.797,201.593L317.52,202.063L318.242,202.893L318.965,204.607L319.688,205.219L320.41,200.197L321.133,206.56L321.855,205.978L322.578,206.094L323.301,203.309L324.023,208.645L324.746,206.024L325.469,206.756L326.191,210.065L326.914,206.228L327.637,211.02L328.359,211.66L329.082,212.32L329.805,214.206L330.527,213.895L331.25,214.291L331.973,213.491L332.695,215.567L333.418,215.365L334.141,216.664L334.863,215.023L335.586,216.258L336.309,219.492L337.031,215.221L337.754,217.872L338.477,219.774L339.199,221.05L339.922,223.382L340.645,221.707L341.367,224.785L342.09,223.274L342.813,220.917L343.535,224.566L344.258,227.61L344.98,225.971L345.703,228.467L346.426,226.694L347.148,230.615L347.871,228.286L348.594,227.055L349.316,231.258L350.039,231.7L350.762,234.632L351.484,234.988L352.207,231.759L352.93,235.909L353.652,233.85L354.375,232.796L355.098,238.065L355.82,238.387L356.543,238.658L357.266,238.168L357.988,238.735L358.711,243.248L359.434,241.735L360.156,242.882L360.879,244.055L361.602,239.564L362.324,244.647L363.047,245.347L363.77,245.932L364.492,246.576L365.215,250.983L365.938,247.134L366.66,249.552L367.383,251.547L368.105,251.843L368.828,251.905L369.551,251.755L370.273,252.753L370.996,256.891L371.719,251.79L372.441,255.036L373.164,255.259L373.887,252.768L374.609,257.597L375.332,258.107L376.055,260.439L376.777,260.195L377.5,258.013L378.223,263.167L378.945,262.353L379.668,262.763L380.391,260.802L381.113,262.931L381.836,262.114L382.559,265.128L383.281,269.45L384.004,262.933L384.727,264.661L385.449,271.541L386.172,265.939L386.895,269.537L387.617,270.122L388.34,270.806L389.063,270.64L389.785,273.115L390.508,274.486L391.23,273.444L391.953,273.416L392.676,274.546L393.398,279.099L394.121,277.439L394.844,273.234L395.566,281.289L396.289,279.525L397.012,279.125L397.734,280.37L398.457,282.747L399.18,279.867L399.902,279.602L400.625,279.404L401.348,281.638L402.07,283.444L402.793,282.749L403.516,285.928L404.238,286.857L404.961,282.388L405.684,285.277L406.406,290.638L407.129,286.986L407.852,288.033L408.574,288.522L409.297,287.68L410.02,291.644L410.742,290.235L411.465,288.97L412.188,293.812L412.91,293.56L413.633,292.062L414.355,293.67L415.078,293.582L415.801,289.995L416.523,292.673L417.246,292.089L417.969,291.959L418.691,290.944L419.414,295.669L420.137,295.528L420.859,293.099L421.582,297.041L422.305,300.536L423.027,300.838L423.75,297.178L424.473,298.301L425.195,295.346L425.918,294.572L426.641,298.285L427.363,296.375L428.086,300.648L428.809,300.879L429.531,297.066L430.254,300.991L430.977,297.816L431.699,304.059L432.422,301.821L433.145,300.835L433.867,299.82L434.59,298.72L435.313,307.014L436.035,303.966L436.758,299.523L437.48,302.589L438.203,304.766L438.926,299.97L439.648,304.454L440.371,304.275L441.094,300.186L441.816,300.614L442.539,303.358L443.262,305.805L443.984,303.517L444.707,308.241L445.43,304.423L446.152,303.464L446.875,301.324L447.598,301.311L448.32,304.531L449.043,301.406L449.766,303.744L450.488,303.797L451.211,303.367L451.934,308.122L452.656,303.446L453.379,306.511L454.102,305.524L454.824,301.424L455.547,305.465L456.27,301.26L456.992,306.009L457.715,304.734L458.438,303.421L459.16,304.355L459.883,301.914L460.605,304.198L461.328,299.879L462.051,304.917L462.773,302.45L463.496,300.94L464.219,302.695L464.941,305.924L465.664,301.378L466.387,308.025L467.109,303.549L467.832,301.69L468.555,302.966L469.277,301.365"/><path fill="none" stroke="rgb(38, 188, 225)" stroke-width="1.5" d="M100,65.673L100.723,61.448L101.445,61.438L102.168,62.018L102.891,57.582L103.613,55.738L104.336,58.256L105.059,53.952L105.781,56.268L106.504,52.148L107.227,51.317L107.949,49.861L108.672,46.203L109.395,43.043L110.117,41.938L110.84,41.987L111.563,38.091L112.285,224.999L113.008,226.861L113.73,227.231L114.453,229.758L115.176,230.843L115.898,229.289L116.621,228.68L117.344,227.683L118.066,229.03L118.789,226.985L119.512,230.876L120.234,229.862L120.957,229.601L121.68,226.728L122.402,228.805L123.125,225.911L123.848,230.849L124.57,226.284L125.293,226.433L126.016,227.564L126.738,226.802L127.461,228.432L128.184,228.778L128.906,227.477L129.629,226.113L130.352,226.061L131.074,227.086L131.797,223.909L132.52,227.393L133.242,228.626L133.965,227.176L134.688,228.067L135.41,226.235L136.133,228.274L136.855,226.784L137.578,223.911L138.301,225.283L139.023,228.192L139.746,226.551L140.469,225.84L141.191,224.565L141.914,225.353L142.637,224.337L143.359,224.365L144.082,229.112L144.805,225.582L145.527,226.329L146.25,227.538L146.973,226.141L147.695,227.398L148.418,227.321L149.141,223.429L149.863,223.664L150.586,225.488L151.309,225.453L152.031,226.734L152.754,222.81L153.477,227.306L154.199,225.178L154.922,220.907L155.645,224.239L156.367,222.404L157.09,222.747L157.813,222.672L158.535,228.494L159.258,223.578L159.98,225.119L160.703,222.292L161.426,223.939L162.148,224.382L162.871,222.97L163.594,221.318L164.316,222.85L165.039,222.926L165.762,223.815L166.484,222.883L167.207,222.42L167.93,222.929L168.652,222.24L169.375,225.568L170.098,223.342L170.82,221.595L171.543,224.999L172.266,221.157L172.988,220.566L173.711,221.928L174.434,221.329L175.156,222.262L175.879,218.432L176.602,222.116L177.324,220.704L178.047,221.461L178.77,223.446L179.492,217.999L180.215,223.059L180.938,220.546L181.66,221.306L182.383,221.622L183.105,221.916L183.828,221.029L184.551,219.925L185.273,218.857L185.996,220.402L186.719,222.306L187.441,217.387L188.164,220.744L188.887,219.696L189.609,217.88L190.332,216.485L191.055,215.553L191.777,214.37L192.5,218.316L193.223,215.118L193.945,220.692L194.668,216.515L195.391,219.691L196.113,217.225L196.836,215.21L197.559,216.364L198.281,217.011L199.004,216.803L199.727,219.822L200.449,217.009L201.172,217.815L201.895,218.956L202.617,213.99L203.34,214.487L204.063,219.83L204.785,213.75L205.508,218.407L206.23,215.875L206.953,215.653L207.676,215.652L208.398,212.329L209.121,215.504L209.844,213.09L210.566,216.421L211.289,211.942L212.012,215.212L212.734,217.264L213.457,217.382L214.18,219.445L214.902,213.702L215.625,217.145L216.348,214.961L217.07,219.169L217.793,214.191L218.516,213.484L219.238,213.891L219.961,216.397L220.684,214.413L221.406,213.832L222.129,217.443L222.852,213.622L223.574,214.714L224.297,215.839L225.02,216.517L225.742,213.403L226.465,214.236L227.188,215.427L227.91,216.616L228.633,215.792L229.355,215.345L230.078,214.721L230.801,214.589L231.523,216.488L232.246,213.297L232.969,215.4L233.691,214.265L234.414,217.601L235.137,216.708L235.859,211.44L236.582,215.127L237.305,214.865L238.027,216.397L238.75,216.308L239.473,216.726L240.195,212.29L240.918,214.07L241.641,215.459L242.363,214.478L243.086,214.517L243.809,213.687L244.531,217.544L245.254,215.256L245.977,216.159L246.699,216.471L247.422,214.816L248.145,216.363L248.867,214.357L249.59,216.395L250.313,217.984L251.035,217.967L251.758,217.793L252.48,217.005L253.203,218.23L253.926,218.109L254.648,216.698L255.371,216.1L256.094,215.771L256.816,218.05L257.539,219.059L258.262,217.352L258.984,218.555L259.707,219.776L260.43,219.921L261.152,216.83L261.875,220.338L262.598,220.043L263.32,220.391L264.043,221.594L264.766,220.414L265.488,219.43L266.211,219.299L266.934,222.435L267.656,222.03L268.379,221.42L269.102,220.811L269.824,222.297L270.547,221.588L271.27,221.073L271.992,220.231L272.715,221.444L273.438,223.083L274.16,223.314L274.883,225.522L275.605,224.3L276.328,221.807L277.051,223.877L277.773,224.739L278.496,222.996L279.219,227.732L279.941,224.314L280.664,224.68L281.387,228.365L282.109,226.74L282.832,229.197L283.555,225.28L284.277,226.634L285,227.912L285.723,228.198L286.445,228.087L287.168,231.589L287.891,227.931L288.613,229.543L289.336,231.509L290.059,232.281L290.781,231.13L291.504,230.39L292.227,230.214L292.949,232.382L293.672,233.674L294.395,233.976L295.117,231.92L295.84,234.771L296.563,232.764L297.285,236.36L298.008,233.782L298.73,236.611L299.453,235.64L300.176,234.432L300.898,235.419L301.621,236.739L302.344,238.984L303.066,236.537L303.789,237.269L304.512,239.57L305.234,237.186L305.957,242.428L306.68,242.021L307.402,240.508L308.125,243.914L308.848,241.487L309.57,240.654L310.293,245.712L311.016,245.445L311.738,242.343L312.461,246.873L313.184,248.2L313.906,243.878L314.629,247.821L315.352,249.154L316.074,249.606L316.797,248.432L317.52,250.508L318.242,251.732L318.965,254.029L319.688,248.752L320.41,250.76L321.133,253.334L321.855,252.804L322.578,252.075L323.301,253.682L324.023,253.608L324.746,253.01L325.469,258.981L326.191,259.528L326.914,254.914L327.637,255.49L328.359,256.582L329.082,261.856L329.805,260.118L330.527,255.506L331.25,259.931L331.973,256.627L332.695,258.82L333.418,262.397L334.141,262.916L334.863,264.166L335.586,260.179L336.309,267.573L337.031,267.917L337.754,265.413L338.477,264.181L339.199,266.03L339.922,268.152L340.645,269.753L341.367,271.082L342.09,272.502L342.813,272.198L343.535,273.486L344.258,270.877L344.98,271.056L345.703,270.314L346.426,272.365L347.148,273.437L347.871,270.793L348.594,275.306L349.316,275.864L350.039,275.122L350.762,276.201L351.484,273.906L352.207,278.747L352.93,280.69L353.652,279.541L354.375,282.556L355.098,283.232L355.82,283.873L356.543,277.818L357.266,281.712L357.988,286.509L358.711,279.576L359.434,287.676L360.156,284.145L360.879,285.959L361.602,285.926L362.324,285.797L363.047,285.865L363.77,289.386L364.492,291.716L365.215,289.586L365.938,289.349L366.66,290.584L367.383,289.653L368.105,289.683L368.828,292.802L369.551,295.902L370.273,293.964L370.996,295.805L371.719,298.306L372.441,296.461L373.164,293.092L373.887,299.931L374.609,297.737L375.332,293.208L376.055,298.024L376.777,297.718L377.5,297.245L378.223,299.869L378.945,300.744L379.668,302.022L380.391,300.251L381.113,297.29L381.836,300.351L382.559,300.703L383.281,303.046L384.004,304.037L384.727,302.159L385.449,304.82L386.172,307.585L386.895,306.296L387.617,298.985L388.34,305.755L389.063,306.319L389.785,304.986L390.508,307.801L391.23,309.819L391.953,313.145L392.676,309.562L393.398,307.139L394.121,308.686L394.844,307.764L395.566,309.661L396.289,310.618L397.012,312.313L397.734,311.483L398.457,307.148L399.18,312.478L399.902,313.104L400.625,309.152L401.348,313.79L402.07,308.322L402.793,312.432L403.516,310.713L404.238,313.569L404.961,314.175L405.684,314.035L406.406,315.872L407.129,314.505L407.852,311.896L408.574,315.846L409.297,315.544L410.02,320.505L410.742,316.241L411.465,316.862L412.188,311.476L412.91,312.962L413.633,314.785L414.355,309.938L415.078,312.225L415.801,315.32L416.523,315.258L417.246,316.426L417.969,318.226L418.691,317.341L419.414,317.515L420.137,314.312L420.859,313.716L421.582,317.112L422.305,314.578L423.027,315.779L423.75,316.642L424.473,313.792L425.195,312.465L425.918,317.349L426.641,315.861L427.363,315.394L428.086,316.398L428.809,316.473L429.531,317.153L430.254,317.14L430.977,316.265L431.699,313.082L432.422,314.453L433.145,316.793L433.867,316.499L434.59,310.632L435.313,315.59L436.035,317.917L436.758,315.686L437.48,314.576L438.203,312.814L438.926,312.591L439.648,312.303L440.371,310.209L441.094,315.144L441.816,315.076L442.539,314.07L443.262,318.992L443.984,313.198L444.707,314.772L445.43,312.691L446.152,315.271L446.875,311.249L447.598,317.695L448.32,310.396L449.043,312.269L449.766,307.654L450.488,313.264L451.211,317.038L451.934,310.476L452.656,308.144L453.379,310.419L454.102,309.044L454.824,314.677L455.547,308.944L456.27,311.395L456.992,312.097L457.715,306.017L458.438,311.252L459.16,305.786L459.883,305.31L460.605,304.559L461.328,306.796L462.051,302.152L462.773,304.187L463.496,307.754L464.219,302.923L464.941,304.547L465.664,305.542L466.387,300.769L467.109,303.439L467.832,302.913L468.555,303.603L469.277,306.458"/><path fill="none" stroke="rgb(63, 243, 147)" stroke-width="1.5" d="M100,96.871L100.723,94.221L101.445,95.038L102.168,93.047L102.891,91.637L103.613,90.528L104.336,188.953L105.059,189.964L105.781,191.159L106.504,192.348L107.227,193.014L107.949,193.48L108.672,193.517L109.395,195.325L110.117,195.905L110.84,194.608L111.563,196.27L112.285,200.789L113.008,196.317L113.73,195.335L114.453,196.459L115.176,198.61L115.898,196.431L116.621,199.627L117.344,200.198L118.066,200.548L118.789,201.352L119.512,200.527L120.234,199.941L120.957,201.255L121.68,200.571L122.402,201.414L123.125,199.705L123.848,197.787L124.57,201.892L125.293,197.722L126.016,200.604L126.738,200.557L127.461,200.802L128.184,201.245L128.906,199.578L129.629,199.154L130.352,199.705L131.074,200.452L131.797,196.939L132.52,197.466L133.242,203.139L133.965,198.985L134.688,200.174L135.41,198.389L136.133,197.294L136.855,196.368L137.578,199.44L138.301,197.376L139.023,199.467L139.746,197.814L140.469,198.015L141.191,200.429L141.914,196.791L142.637,198.507L143.359,197.887L144.082,197.768L144.805,197.705L145.527,196.582L146.25,196.074L146.973,199.093L147.695,199.311L148.418,199.004L149.141,198.523L149.863,195.05L150.586,196.118L151.309,195.387L152.031,197.264L152.754,196.352L153.477,197.303L154.199,197.551L154.922,197.493L155.645,192.616L156.367,197.687L157.09,197.499L157.813,192.352L158.535,196.319L159.258,195.695L159.98,192.23L160.703,195.398L161.426,194.682L162.148,198.902L162.871,196.576L163.594,196.719L164.316,195.662L165.039,193.426L165.762,194.855L166.484,196.035L167.207,197.625L167.93,195.114L168.652,197.559L169.375,193.544L170.098,195.784L170.82,195.669L171.543,197.203L172.266,196.605L172.988,196.382L173.711,192.531L174.434,197.848L175.156,195.054L175.879,197.081L176.602,192.978L177.324,194.617L178.047,194.431L178.77,194.391L179.492,195.081L180.215,196.55L180.938,194.861L181.66,193.051L182.383,197.239L183.105,195.52L183.828,197.113L184.551,194.576L185.273,192.083L185.996,192.627L186.719,193.948L187.441,193.488L188.164,192.22L188.887,191.883L189.609,194.764L190.332,193.977L191.055,192.351L191.777,193.698L192.5,191.651L193.223,192.932L193.945,192.602L194.668,192.883L195.391,192.655L196.113,192.082L196.836,192.6L197.559,191.101L198.281,191.565L199.004,190.088L199.727,191.126L200.449,195.289L201.172,192.581L201.895,190.868L202.617,190.906L203.34,192.659L204.063,191.935L204.785,189.474L205.508,193.131L206.23,191.344L206.953,190.546L207.676,190.772L208.398,190.567L209.121,192.961L209.844,192.973L210.566,192.402L211.289,196.244L212.012,192.356L212.734,192.301L213.457,190.667L214.18,191.666L214.902,190.789L215.625,190.304L216.348,189.109L217.07,192.839L217.793,191.812L218.516,192.687L219.238,193.059L219.961,190.562L220.684,189.662L221.406,193L222.129,195.645L222.852,190.366L223.574,191.69L224.297,190.727L225.02,193.258L225.742,191.918L226.465,190.481L227.188,193.441L227.91,190.767L228.633,192.171L229.355,191.165L230.078,190.608L230.801,192.286L231.523,193.089L232.246,189.839L232.969,192.09L233.691,191.657L234.414,192.165L235.137,195.333L235.859,190.216L236.582,191.037L237.305,191.711L238.027,192.516L238.75,193.584L239.473,191.077L240.195,195.572L240.918,194.861L241.641,197.928L242.363,190.819L243.086,193.737L243.809,198.2L244.531,193.067L245.254,192.257L245.977,194.415L246.699,191.427L247.422,195.281L248.145,191.714L248.867,195.568L249.59,196.187L250.313,194.327L251.035,195.565L251.758,196.411L252.48,196.47L253.203,196.825L253.926,196.966L254.648,196.68L255.371,194.196L256.094,196.628L256.816,193.415L257.539,197.101L258.262,194.876L258.984,198.275L259.707,196.888L260.43,198.618L261.152,197.203L261.875,197.94L262.598,197.876L263.32,199.547L264.043,195.463L264.766,195.796L265.488,198.556L266.211,200.63L266.934,200.827L267.656,199.302L268.379,198.73L269.102,199.008L269.824,199.331L270.547,200.599L271.27,201.851L271.992,202.663L272.715,201.6L273.438,201.173L274.16,199.987L274.883,202.911L275.605,203.738L276.328,204.492L277.051,204.468L277.773,201.911L278.496,204.159L279.219,204.419L279.941,206.269L280.664,203.433L281.387,206.456L282.109,204.454L282.832,207.524L283.555,206.079L284.277,207.059L285,207.68L285.723,209.965L286.445,207.781L287.168,208.143L287.891,207.692L288.613,211.135L289.336,207.681L290.059,211.223L290.781,208.994L291.504,210.195L292.227,210.154L292.949,215.349L293.672,212.486L294.395,213.295L295.117,212.653L295.84,212.462L296.563,216.077L297.285,215.533L298.008,214.49L298.73,214.068L299.453,215.726L300.176,215.318L300.898,219.634L301.621,220.82L302.344,221.232L303.066,221.759L303.789,219.317L304.512,218.15L305.234,218.495L305.957,223.701L306.68,221.36L307.402,223.416L308.125,220.963L308.848,223.335L309.57,225.314L310.293,223.829L311.016,224.987L311.738,227.354L312.461,225.924L313.184,224.63L313.906,225.377L314.629,225.492L315.352,227.473L316.074,225.475L316.797,228.999L317.52,232.306L318.242,227.601L318.965,228.618L319.688,232.441L320.41,230.943L321.133,230.553L321.855,234.105L322.578,236.414L323.301,234.976L324.023,231.567L324.746,234.238L325.469,235.949L326.191,232.238L326.914,236.255L327.637,238.122L328.359,237.78L329.082,236.584L329.805,236.843L330.527,237.712L331.25,240.533L331.973,238.99L332.695,238.589L333.418,239.58L334.141,241.056L334.863,241.676L335.586,242.383L336.309,243.573L337.031,245.294L337.754,243.686L338.477,242.994L339.199,244.276L339.922,245.059L340.645,247.393L341.367,244.907L342.09,247.669L342.813,243.661L343.535,245.87L344.258,247.784L344.98,250.707L345.703,249.047L346.426,247.735L347.148,250.478L347.871,250.3L348.594,251.808L349.316,252.177L350.039,251.945L350.762,252.83L351.484,252.697L352.207,249.746L352.93,251.109L353.652,252.373L354.375,256.024L355.098,258.049L355.82,253.079L356.543,253.5L357.266,256.312L357.988,257.398L358.711,257.241L359.434,258.108L360.156,259.829L360.879,258.984L361.602,258.484L362.324,255.616L363.047,262.083L363.77,258.366L364.492,261.615L365.215,259.778L365.938,257.959L366.66,262.698L367.383,262.583L368.105,258.083L368.828,258.954L369.551,264.378L370.273,259.364L370.996,262.164L371.719,265.552L372.441,264.271L373.164,263.733L373.887,265.173L374.609,260.931L375.332,263.93L376.055,260.38L376.777,264.895L377.5,266.994L378.223,265.997L378.945,265.918L379.668,264.074L380.391,263.506L381.113,266.37L381.836,265.129L382.559,266.266L383.281,269.012L384.004,261.802L384.727,263.994L385.449,269.016L386.172,264.972L386.895,267.031L387.617,269.455L388.34,267.691L389.063,267.431L389.785,267.764L390.508,268.087L391.23,266.472L391.953,266.819L392.676,266.032L393.398,268.15L394.121,261.19L394.844,268.461L395.566,269.732L396.289,268.555L397.012,270.958L397.734,270.014L398.457,270.685L399.18,269.062L399.902,267.955L400.625,260.382L401.348,270.491L402.07,266.679L402.793,265.939L403.516,267.948L404.238,266.196L404.961,264.159L405.684,266.27L406.406,269.351L407.129,261.665L407.852,259.306L408.574,265.447L409.297,264.362L410.02,263.01L410.742,266.242L411.465,266.47L412.188,265.52L412.91,263.113L413.633,268.95L414.355,259.616L415.078,265.986L415.801,260.747L416.523,263.535L417.246,260.241L417.969,256.689L418.691,262.345L419.414,255.144L420.137,259.531L420.859,256.173L421.582,260.704L422.305,258.244L423.027,257.039L423.75,260.858L424.473,257.466L425.195,256.673L425.918,258.012L426.641,257.092L427.363,254.899L428.086,254.036L428.809,252.83L429.531,254.328L430.254,254.079L430.977,262.495L431.699,251.521L432.422,255.17L433.145,258.718L433.867,252.529L434.59,255.286L435.313,249.023L436.035,250.153L436.758,249.947L437.48,247.774L438.203,249.826L438.926,249.79L439.648,247.343L440.371,248.373L441.094,248.877L441.816,249.054L442.539,247.78L443.262,249.017L443.984,244.744L444.707,252.457L445.43,243.036L446.152,243.159L446.875,244.487L447.598,244.81L448.32,242.304L449.043,248.794L449.766,240.173L450.488,241.235L451.211,242.976L451.934,243.567L452.656,242.9L453.379,238.92L454.102,239.532L454.824,237.952L455.547,232.803L456.27,237.314L456.992,233.961L457.715,235.588L458.438,242.131L459.16,236.142L459.883,230.185L460.605,230.185L461.328,231.47L462.051,233.957L462.773,236.758L463.496,226.636L464.219,226.685L464.941,229.699L465.664,227.873L466.387,230.359L467.109,226.333L467.832,225.756L468.555,224.504L469.277,224.503"/><path fill="none" stroke="rgb(149, 251, 81)" stroke-width="1.5" d="M100,108.024L100.723,166.961L101.445,168.285L102.168,171.079L102.891,172.891L103.613,174.181L104.336,174.358L105.059,174.73L105.781,177.52L106.504,178.214L107.227,176.122L107.949,178.789L108.672,178.329L109.395,179.144L110.117,178.052L110.84,183.29L111.563,180.51L112.285,183.571L113.008,182.416L113.73,183.099L114.453,185.322L115.176,184.496L115.898,187.182L116.621,184.112L117.344,187.086L118.066,184.941L118.789,185.258L119.512,185.996L120.234,185.343L120.957,186.685L121.68,189.858L122.402,185.816L123.125,184.351L123.848,185.448L124.57,188.779L125.293,186.036L126.016,186.081L126.738,184.286L127.461,186.115L128.184,184.203L128.906,185.081L129.629,187.245L130.352,186.27L131.074,185.952L131.797,190.325L132.52,186.642L133.242,186.601L133.965,185.065L134.688,184.87L135.41,184.379L136.133,185.704L136.855,184.194L137.578,186.76L138.301,184.348L139.023,184.902L139.746,185.528L140.469,187.514L141.191,185.388L141.914,188.656L142.637,185.298L143.359,188.275L144.082,184.88L144.805,185.54L145.527,186.111L146.25,185.599L146.973,189.904L147.695,186.878L148.418,185.761L149.141,183.583L149.863,184.417L150.586,186.13L151.309,186.012L152.031,183.343L152.754,187.034L153.477,183.943L154.199,184.406L154.922,186.474L155.645,187.669L156.367,186.497L157.09,187.486L157.813,186.527L158.535,185.859L159.258,185.616L159.98,185.838L160.703,188.727L161.426,185.956L162.148,187.307L162.871,184.535L163.594,184.055L164.316,184L165.039,187.287L165.762,186.306L166.484,186.139L167.207,188.399L167.93,187.206L168.652,186.067L169.375,183.588L170.098,185.731L170.82,187.62L171.543,184.78L172.266,186.507L172.988,183.351L173.711,184.217L174.434,184.918L175.156,184.132L175.879,186.146L176.602,185.501L177.324,182.329L178.047,186.577L178.77,183.975L179.492,185.084L180.215,186.624L180.938,184.624L181.66,185.547L182.383,184.803L183.105,185.946L183.828,186.734L184.551,186.829L185.273,184.601L185.996,183.462L186.719,183.789L187.441,184.605L188.164,186.337L188.887,185.812L189.609,186.852L190.332,186.622L191.055,186.239L191.777,186.695L192.5,186.166L193.223,185.457L193.945,187.843L194.668,185.691L195.391,182.703L196.113,187.356L196.836,185.936L197.559,187.833L198.281,186.48L199.004,186.556L199.727,185.042L200.449,186.038L201.172,186.792L201.895,183.525L202.617,187.824L203.34,185.316L204.063,185.586L204.785,186.794L205.508,183.857L206.23,186.935L206.953,187.759L207.676,186.268L208.398,186.492L209.121,187.288L209.844,184.385L210.566,186.655L211.289,187.617L212.012,184.124L212.734,185.295L213.457,187.823L214.18,183.571L214.902,186.95L215.625,187.6L216.348,185.111L217.07,186.346L217.793,188.053L218.516,187.74L219.238,187.343L219.961,186.339L220.684,184.366L221.406,187.412L222.129,186.477L222.852,186.712L223.574,184.891L224.297,184.516L225.02,186.896L225.742,188.935L226.465,188.475L227.188,186.033L227.91,187.274L228.633,188.355L229.355,185.74L230.078,188.929L230.801,187.453L231.523,186.53L232.246,187.299L232.969,187.658L233.691,186.391L234.414,186.495L235.137,187.874L235.859,190.107L236.582,189.917L237.305,187.028L238.027,189.675L238.75,189.298L239.473,187.792L240.195,186.829L240.918,188.903L241.641,187.212L242.363,187.874L243.086,185.716L243.809,191.509L244.531,189.01L245.254,188.006L245.977,190.799L246.699,191.209L247.422,188.548L248.145,189.714L248.867,192.56L249.59,190.949L250.313,190.222L251.035,193.16L251.758,188.362L252.48,190.728L253.203,190.556L253.926,190.569L254.648,190.587L255.371,192.071L256.094,193.058L256.816,193.258L257.539,193.015L258.262,193.304L258.984,190.842L259.707,192.453L260.43,194.656L261.152,195.983L261.875,194.493L262.598,194.147L263.32,191.705L264.043,192.651L264.766,196.721L265.488,193.426L266.211,194.38L266.934,195.588L267.656,195.876L268.379,197.449L269.102,198.106L269.824,197.225L270.547,194.197L271.27,199.18L271.992,199.115L272.715,201.465L273.438,199.743L274.16,198.44L274.883,198.695L275.605,198.115L276.328,197.265L277.051,201.653L277.773,202.307L278.496,202.408L279.219,202.137L279.941,202.405L280.664,203.744L281.387,204.434L282.109,203.471L282.832,204.887L283.555,204.481L284.277,206.304L285,205.154L285.723,205.613L286.445,207.696L287.168,207.447L287.891,205.571L288.613,209.026L289.336,209.146L290.059,206.636L290.781,209.069L291.504,208.688L292.227,208.352L292.949,211.227L293.672,213.236L294.395,214.117L295.117,212.891L295.84,214.792L296.563,212.093L297.285,213.141L298.008,211.53L298.73,215.081L299.453,215.138L300.176,216.384L300.898,214.288L301.621,214.653L302.344,213.842L303.066,216.282L303.789,214.664L304.512,213.676L305.234,216.433L305.957,217.505L306.68,221.009L307.402,215.549L308.125,221.497L308.848,218.218L309.57,218.905L310.293,224.14L311.016,222.104L311.738,223.192L312.461,223.407L313.184,224.625L313.906,224.396L314.629,225.074L315.352,224.916L316.074,225.839L316.797,225.542L317.52,225.286L318.242,226.015L318.965,228.023L319.688,228.738L320.41,226.099L321.133,230.095L321.855,230.542L322.578,226.846L323.301,230.443L324.023,234.496L324.746,229.83L325.469,232.995L326.191,233.322L326.914,235.266L327.637,230.357L328.359,231.756L329.082,233.036L329.805,236.844L330.527,236.669L331.25,236.935L331.973,235.948L332.695,231.998L333.418,233.168L334.141,236.328L334.863,236.341L335.586,239.279L336.309,240.642L337.031,239.954L337.754,240.359L338.477,239.483L339.199,244.029L339.922,242.998L340.645,241.236L341.367,241.608L342.09,240.455L342.813,241.043L343.535,242.607L344.258,241.281L344.98,240.128L345.703,243.071L346.426,241.591L347.148,242.573L347.871,243.565L348.594,241.478L349.316,242.672L350.039,244.895L350.762,250.479L351.484,244.573L352.207,245.955L352.93,243.648L353.652,243.995L354.375,241.844L355.098,249.779L355.82,243.684L356.543,247.546L357.266,247.667L357.988,251.338L358.711,245.625L359.434,247.544L360.156,248.714L360.879,246.608L361.602,250.328L362.324,253.276L363.047,249.424L363.77,248.215L364.492,247.207L365.215,245.352L365.938,251.336L366.66,250.804L367.383,244.94L368.105,249.153L368.828,249.461L369.551,250.63L370.273,248.932L370.996,253.761L371.719,247.167L372.441,248.51L373.164,251.335L373.887,247.051L374.609,248.381L375.332,250.253L376.055,252.195L376.777,247.257L377.5,250.308L378.223,249.997L378.945,246.725L379.668,247.526L380.391,245.09L381.113,246.632L381.836,250.893L382.559,247.55L383.281,245.826L384.004,250.337L384.727,245.584L385.449,245.043L386.172,247.199L386.895,248.173L387.617,245.031L388.34,245.129L389.063,243.36L389.785,246.815L390.508,241.725L391.23,247.268L391.953,243.445L392.676,246.211L393.398,244.807L394.121,243.632L394.844,246.374L395.566,245.422L396.289,243.261L397.012,242.115L397.734,242.913L398.457,241.319L399.18,239.819L399.902,244.737L400.625,237.391L401.348,236.648L402.07,240.324L402.793,238.219L403.516,239.692L404.238,239.446L404.961,236.926L405.684,234.793L406.406,233.859L407.129,237.15L407.852,233.146L408.574,237.621L409.297,234.429L410.02,232.994L410.742,232.108L411.465,232.916L412.188,233.758L412.91,234.218L413.633,231.35L414.355,225.068L415.078,228.657L415.801,231.508L416.523,227.516L417.246,226.066L417.969,228.297L418.691,225.144L419.414,226.617L420.137,230.07L420.859,228.611L421.582,221.151L422.305,221.537L423.027,224.58L423.75,224.124L424.473,224.519L425.195,220.246L425.918,215.616L426.641,219.686L427.363,218.185L428.086,216.101L428.809,219.543L429.531,213.645L430.254,214.573L430.977,217.721L431.699,216.385L432.422,213.45L433.145,215.579L433.867,212.182L434.59,212.707L435.313,209.891L436.035,208.15L436.758,208.215L437.48,210.356L438.203,207.765L438.926,207.924L439.648,201.883L440.371,202.227L441.094,207.869L441.816,203.633L442.539,205.536L443.262,205.288L443.984,203.818L444.707,199.069L445.43,199.405L446.152,195.854L446.875,199.782L447.598,198.991L448.32,197.071L449.043,194.83L449.766,196.165L450.488,197.149L451.211,197.698L451.934,190.223L452.656,189.806L453.379,190.12L454.102,192.11L454.824,190.244L455.547,188.021L456.27,188.449L456.992,189.911L457.715,187.559L458.438,185.16L459.16,183.266L459.883,187.82L460.605,183.52L461.328,181.463L462.051,178.664L462.773,181.644L463.496,183.126L464.219,181.053L464.941,178.464L465.664,181.06L466.387,178.186L467.109,173.705L467.832,171.849L468.555,175.9L469.277,173.297"/><path fill="none" stroke="rgb(236, 209, 46)" stroke-width="1.5" d="M100,121.864L100.723,155.558L101.445,158.347L102.168,159.138L102.891,158.95L103.613,164.729L104.336,161.335L105.059,161.939L105.781,166.52L106.504,164.985L107.227,165.899L107.949,166.537L108.672,167.824L109.395,171.44L110.117,169.317L110.84,170.013L111.563,172.924L112.285,172.782L113.008,175.319L113.73,172.032L114.453,174.232L115.176,176.895L115.898,171.834L116.621,176.414L117.344,176.95L118.066,178.438L118.789,176.918L119.512,176.447L120.234,176.338L120.957,176.434L121.68,175.588L122.402,176.924L123.125,177.433L123.848,176.634L124.57,177.054L125.293,174.659L126.016,176.16L126.738,175.811L127.461,177.472L128.184,176.487L128.906,178.108L129.629,174.673L130.352,175.89L131.074,178.241L131.797,176.684L132.52,175.79L133.242,179.287L133.965,177.256L134.688,177.856L135.41,176.822L136.133,179.102L136.855,179.497L137.578,180.698L138.301,178.02L139.023,177.582L139.746,180.043L140.469,180.053L141.191,179.752L141.914,180.52L142.637,177.954L143.359,180.04L144.082,181.4L144.805,178.902L145.527,180.85L146.25,181.927L146.973,181.17L147.695,180.349L148.418,181.023L149.141,181.17L149.863,179.611L150.586,180.691L151.309,180.642L152.031,178.276L152.754,182.146L153.477,176.816L154.199,178.453L154.922,182.54L155.645,179.824L156.367,182.144L157.09,179.237L157.813,181.282L158.535,183.015L159.258,181.533L159.98,178.562L160.703,183.204L161.426,185.147L162.148,179.571L162.871,182.049L163.594,183.393L164.316,183.449L165.039,179.914L165.762,178.402L166.484,182.785L167.207,179.662L167.93,183.717L168.652,184.692L169.375,181.103L170.098,179.672L170.82,181.709L171.543,180.188L172.266,183.562L172.988,182.933L173.711,182.129L174.434,183.247L175.156,183.947L175.879,182.433L176.602,184.232L177.324,184.791L178.047,183.835L178.77,184.831L179.492,182.844L180.215,183.894L180.938,184.207L181.66,183.97L182.383,185.167L183.105,186.049L183.828,187.004L184.551,183.923L185.273,185.447L185.996,183.699L186.719,182.251L187.441,185.084L188.164,186.099L188.887,186.325L189.609,185.962L190.332,184.595L191.055,185.016L191.777,184.54L192.5,185.885L193.223,186.009L193.945,185.49L194.668,185.218L195.391,185.355L196.113,186.549L196.836,185.773L197.559,187.792L198.281,187.036L199.004,187.734L199.727,184.705L200.449,187.517L201.172,188.01L201.895,188.843L202.617,186.463L203.34,186.73L204.063,188.161L204.785,187.099L205.508,188.371L206.23,183.843L206.953,186.512L207.676,186.863L208.398,187.227L209.121,185.949L209.844,189.393L210.566,189.468L211.289,190.954L212.012,188.092L212.734,186.992L213.457,190.188L214.18,191.395L214.902,190.962L215.625,188.128L216.348,187.879L217.07,186.542L217.793,189.467L218.516,190.52L219.238,190.375L219.961,186.357L220.684,187.707L221.406,191.012L222.129,190.015L222.852,192.509L223.574,190.033L224.297,191.172L225.02,190.03L225.742,192.979L226.465,191.225L227.188,194.364L227.91,190.101L228.633,191.633L229.355,192.591L230.078,189.246L230.801,191.562L231.523,192.415L232.246,191.343L232.969,190.296L233.691,190.481L234.414,191.096L235.137,193.69L235.859,194.264L236.582,191.18L237.305,193.196L238.027,194.59L238.75,193.486L239.473,192.661L240.195,195.701L240.918,193.74L241.641,194.633L242.363,195.257L243.086,195.345L243.809,196.505L244.531,194.781L245.254,195.827L245.977,194.542L246.699,195.559L247.422,193.194L248.145,195.874L248.867,195.561L249.59,197.217L250.313,195.105L251.035,198.038L251.758,199.785L252.48,196.271L253.203,200.392L253.926,198.839L254.648,202.974L255.371,198.238L256.094,198.83L256.816,198.986L257.539,196.895L258.262,199.406L258.984,198.645L259.707,201.793L260.43,199.484L261.152,201.606L261.875,198.904L262.598,201.538L263.32,202.579L264.043,203.95L264.766,204.092L265.488,203.598L266.211,204.048L266.934,199.953L267.656,203.855L268.379,203.186L269.102,203.441L269.824,204.847L270.547,208.056L271.27,207.318L271.992,204.635L272.715,207.04L273.438,205.437L274.16,205.013L274.883,207.419L275.605,205.425L276.328,206.029L277.051,209.079L277.773,209.545L278.496,208.785L279.219,207.985L279.941,209.829L280.664,210.292L281.387,212.801L282.109,211.483L282.832,209.657L283.555,208.68L284.277,209.168L285,211.093L285.723,210.513L286.445,213.582L287.168,213.174L287.891,212.927L288.613,212.749L289.336,212.329L290.059,212.834L290.781,215.748L291.504,211.74L292.227,215.171L292.949,218.815L293.672,221.247L294.395,217.254L295.117,218.561L295.84,219.837L296.563,217.795L297.285,220.582L298.008,219.779L298.73,217.957L299.453,222.701L300.176,218.221L300.898,224.642L301.621,224.074L302.344,219.468L303.066,225.023L303.789,224.37L304.512,221.827L305.234,223.904L305.957,229.497L306.68,222.214L307.402,224.219L308.125,225.757L308.848,228.046L309.57,223.692L310.293,225.921L311.016,228.406L311.738,223.325L312.461,230.619L313.184,228.723L313.906,228.776L314.629,229.998L315.352,229.808L316.074,230.534L316.797,233.767L317.52,230.591L318.242,227.624L318.965,229.156L319.688,230.228L320.41,235.063L321.133,233.37L321.855,235.995L322.578,235.294L323.301,235.841L324.023,238.644L324.746,236.787L325.469,234.085L326.191,239.763L326.914,238.053L327.637,239.189L328.359,240.929L329.082,240.929L329.805,239.46L330.527,237.677L331.25,241.939L331.973,237.443L332.695,240.129L333.418,237.86L334.141,240.278L334.863,237.158L335.586,238.77L336.309,241.129L337.031,242.227L337.754,242.876L338.477,238.575L339.199,240.933L339.922,243.683L340.645,245.378L341.367,244.869L342.09,244.248L342.813,244.65L343.535,244.079L344.258,244.361L344.98,243.112L345.703,241.19L346.426,245.626L347.148,245.697L347.871,247.241L348.594,245.272L349.316,245.257L350.039,246.138L350.762,249.802L351.484,244.056L352.207,247.737L352.93,245.291L353.652,245.383L354.375,242.865L355.098,245.635L355.82,246.25L356.543,244.584L357.266,246.692L357.988,242.933L358.711,246.759L359.434,245.522L360.156,244.895L360.879,248.871L361.602,244.795L362.324,244.583L363.047,248.068L363.77,248.627L364.492,248.384L365.215,246.534L365.938,248.583L366.66,242.928L367.383,246.337L368.105,245.18L368.828,240.784L369.551,246.072L370.273,245.278L370.996,244.481L371.719,248.235L372.441,245.136L373.164,244.639L373.887,241.405L374.609,240.783L375.332,244.212L376.055,245.927L376.777,238.995L377.5,239.681L378.223,241.315L378.945,242.141L379.668,245.701L380.391,237.376L381.113,241.099L381.836,242.342L382.559,236.762L383.281,239.277L384.004,241.899L384.727,233.583L385.449,238.411L386.172,237.054L386.895,234.42L387.617,236.888L388.34,234.914L389.063,237.925L389.785,231.118L390.508,237.093L391.23,235.331L391.953,233.968L392.676,236.925L393.398,236.707L394.121,231.461L394.844,228.26L395.566,234.106L396.289,232.095L397.012,234.64L397.734,227.762L398.457,228.296L399.18,222.381L399.902,228.237L400.625,231.263L401.348,224.783L402.07,222.685L402.793,223.453L403.516,219.517L404.238,227.883L404.961,225.219L405.684,219.605L406.406,220.646L407.129,220.578L407.852,217.888L408.574,218.411L409.297,218.816L410.02,215.257L410.742,219.19L411.465,218.084L412.188,215.618L412.91,213.108L413.633,213.129L414.355,209.894L415.078,210.631L415.801,212.872L416.523,206.161L417.246,208.892L417.969,208.666L418.691,209.694L419.414,209.038L420.137,203.857L420.859,209.252L421.582,202.256L422.305,205.996L423.027,199.362L423.75,206.224L424.473,198.752L425.195,201.798L425.918,196.297L426.641,200.037L427.363,198.371L428.086,197.942L428.809,195.062L429.531,196.252L430.254,194.651L430.977,192.935L431.699,196.442L432.422,190.92L433.145,192.54L433.867,187.185L434.59,192.556L435.313,187.561L436.035,186.342L436.758,185.616L437.48,189.388L438.203,182.262L438.926,181.79L439.648,187.293L440.371,184.6L441.094,182.788L441.816,180.895L442.539,178.703L443.262,179.286L443.984,180.378L444.707,178.365L445.43,177.025L446.152,174.176L446.875,172.97L447.598,173.913L448.32,170.108L449.043,174.053L449.766,172.866L450.488,166.831L451.211,171.099L451.934,166.796L452.656,167.987L453.379,169.279L454.102,165.847L454.824,162.15L455.547,162.672L456.27,164.338L456.992,159.978L457.715,161.044L458.438,158.314L459.16,160.747L459.883,156.399L460.605,154.843L461.328,159.57L462.051,156.579L462.773,158.385L463.496,151.987L464.219,154.16L464.941,153.517L465.664,154.578L466.387,149.331L467.109,150.714L467.832,146.871L468.555,150.821L469.277,147.085"/><path fill="none" stroke="rgb(255, 130, 29)" stroke-width="1.5" d="M100,124.392L100.723,151.449L101.445,154.48L102.168,155.754L102.891,156.345L103.613,155.712L104.336,157.432L105.059,156.432L105.781,160.323L106.504,159.336L107.227,161.828L107.949,162.713L108.672,160.915L109.395,163.543L110.117,165.832L110.84,166.337L111.563,166.752L112.285,168.072L113.008,167.07L113.73,167.083L114.453,168.509L115.176,170.977L115.898,175.271L116.621,168.89L117.344,172.281L118.066,168.418L118.789,171.8L119.512,172.658L120.234,174.533L120.957,172.319L121.68,170.132L122.402,171.453L123.125,174.547L123.848,171.074L124.57,175.099L125.293,173.192L126.016,172.701L126.738,173.908L127.461,175.496L128.184,175.757L128.906,176.548L129.629,173.053L130.352,174.552L131.074,172.931L131.797,173.225L132.52,174.24L133.242,174.183L133.965,175.669L134.688,172.071L135.41,172.314L136.133,175.534L136.855,175.724L137.578,173.532L138.301,174.612L139.023,175.3L139.746,176.174L140.469,174.869L141.191,174.616L141.914,175.876L142.637,176.28L143.359,178.737L144.082,178.84L144.805,178.302L145.527,176.415L146.25,175.175L146.973,179.668L147.695,177.269L148.418,178.947L149.141,177.492L149.863,179.429L150.586,179.436L151.309,179.752L152.031,180.288L152.754,183.547L153.477,182.733L154.199,179.433L154.922,182.711L155.645,179.083L156.367,182.437L157.09,181.029L157.813,181.877L158.535,185.318L159.258,181.888L159.98,181.763L160.703,181.243L161.426,181.117L162.148,181.579L162.871,180.377L163.594,185.851L164.316,181.667L165.039,184.467L165.762,183.187L166.484,185.916L167.207,185.119L167.93,185.355L168.652,186.433L169.375,183.276L170.098,188.906L170.82,185.68L171.543,187.578L172.266,184.547L172.988,187.332L173.711,185.127L174.434,189.696L175.156,188.748L175.879,186.038L176.602,186.041L177.324,190.521L178.047,188.011L178.77,188.527L179.492,190.905L180.215,187.624L180.938,193.04L181.66,189.374L182.383,189.391L183.105,188.522L183.828,191.216L184.551,189.329L185.273,190.802L185.996,192.705L186.719,191.854L187.441,192.475L188.164,193.132L188.887,191.16L189.609,192.533L190.332,193.841L191.055,195.355L191.777,196.718L192.5,197.01L193.223,193.169L193.945,198.701L194.668,195.173L195.391,193.943L196.113,196.142L196.836,199.221L197.559,197.117L198.281,195.616L199.004,198.445L199.727,197.834L200.449,198.941L201.172,197.415L201.895,195.915L202.617,200.681L203.34,202.104L204.063,193.669L204.785,201.352L205.508,201.24L206.23,199.683L206.953,198.637L207.676,200.955L208.398,204.246L209.121,200.683L209.844,199.47L210.566,200.29L211.289,203.251L212.012,199.291L212.734,204.448L213.457,199.685L214.18,203.456L214.902,202.884L215.625,203.002L216.348,203.371L217.07,206.762L217.793,201.645L218.516,201.389L219.238,206.721L219.961,206.257L220.684,205.407L221.406,205.43L222.129,205.818L222.852,207.901L223.574,207.876L224.297,204.534L225.02,206.076L225.742,207.942L226.465,207.773L227.188,206.241L227.91,208.294L228.633,205.228L229.355,213.027L230.078,207.857L230.801,210.142L231.523,210.392L232.246,208.014L232.969,210.931L233.691,211.012L234.414,212.265L235.137,210.264L235.859,212.097L236.582,213.636L237.305,215.38L238.027,212.744L238.75,212.06L239.473,213.985L240.195,209.851L240.918,215.503L241.641,212.93L242.363,215L243.086,213.412L243.809,215.453L244.531,215.295L245.254,212.915L245.977,216.532L246.699,215.093L247.422,212.724L248.145,217.408L248.867,217.082L249.59,216.776L250.313,215.287L251.035,217.941L251.758,220.234L252.48,218.912L253.203,219.457L253.926,219.961L254.648,218.232L255.371,221.548L256.094,222.154L256.816,221.927L257.539,222.214L258.262,223.474L258.984,223.366L259.707,220.767L260.43,222.25L261.152,220.252L261.875,219.702L262.598,221.129L263.32,225.532L264.043,223.767L264.766,223.182L265.488,225.181L266.211,226.879L266.934,222.988L267.656,225.186L268.379,227.019L269.102,225.063L269.824,228.872L270.547,232.194L271.27,225.716L271.992,226.638L272.715,225.725L273.438,227.45L274.16,229.289L274.883,230.596L275.605,233.293L276.328,229.84L277.051,228.747L277.773,234.457L278.496,230.905L279.219,229.425L279.941,231.837L280.664,229.366L281.387,233.974L282.109,237.208L282.832,235.011L283.555,232.766L284.277,237.89L285,234.742L285.723,234.335L286.445,234.732L287.168,235.4L287.891,237.071L288.613,241.073L289.336,238.269L290.059,238.633L290.781,241.586L291.504,242.792L292.227,237.517L292.949,240.311L293.672,238.984L294.395,238.508L295.117,241.207L295.84,244.919L296.563,244.518L297.285,242.663L298.008,240.715L298.73,247.271L299.453,244.271L300.176,246.062L300.898,242.749L301.621,244.256L302.344,247.99L303.066,244.623L303.789,243.129L304.512,246.665L305.234,245.131L305.957,244.844L306.68,245.611L307.402,247.524L308.125,246.361L308.848,247.995L309.57,248.587L310.293,248.526L311.016,249.008L311.738,253.73L312.461,250.272L313.184,254.115L313.906,253.225L314.629,248.815L315.352,253.125L316.074,253.993L316.797,254.345L317.52,254.323L318.242,252.905L318.965,251.949L319.688,255.075L320.41,254.028L321.133,257.784L321.855,253.316L322.578,258.343L323.301,256.612L324.023,255.395L324.746,255.461L325.469,260.451L326.191,253.562L326.914,257.251L327.637,257.818L328.359,260.959L329.082,254.558L329.805,257.238L330.527,260.316L331.25,257.003L331.973,256.108L332.695,262.473L333.418,263.902L334.141,259.594L334.863,255.524L335.586,257.065L336.309,259.441L337.031,256.978L337.754,259.011L338.477,257.696L339.199,261.051L339.922,260.299L340.645,258.688L341.367,261.207L342.09,262.056L342.813,261.701L343.535,260.214L344.258,258.518L344.98,256.332L345.703,258.693L346.426,261.135L347.148,265.125L347.871,261.216L348.594,261.582L349.316,260.73L350.039,258.762L350.762,258.538L351.484,258.827L352.207,257.733L352.93,260.654L353.652,261.945L354.375,258.155L355.098,253.429L355.82,259.553L356.543,261.079L357.266,262.171L357.988,257.252L358.711,255L359.434,256.199L360.156,257.908L360.879,255.944L361.602,257.766L362.324,256.083L363.047,257.487L363.77,254.886L364.492,257.464L365.215,253.907L365.938,251.893L366.66,252.41L367.383,254.824L368.105,252.728L368.828,256.315L369.551,255.062L370.273,254.532L370.996,256.279L371.719,250.897L372.441,257.028L373.164,258.198L373.887,252.348L374.609,247.804L375.332,249.895L376.055,252.028L376.777,255.821L377.5,250.08L378.223,253.497L378.945,250.404L379.668,248.85L380.391,248.209L381.113,249.444L381.836,246.847L382.559,246.507L383.281,248.192L384.004,250.623L384.727,241.873L385.449,241.458L386.172,241.86L386.895,242.243L387.617,241.641L388.34,241.742L389.063,238.842L389.785,236.832L390.508,238.301L391.23,237.432L391.953,237.271L392.676,236.893L393.398,236.695L394.121,232.692L394.844,235.733L395.566,232.035L396.289,233.855L397.012,236.085L397.734,235.264L398.457,234.342L399.18,230.132L399.902,228.453L400.625,226.088L401.348,225.481L402.07,222.793L402.793,222.32L403.516,225.022L404.238,227.345L404.961,222.499L405.684,219.596L406.406,218.229L407.129,220.406L407.852,216.418L408.574,215.41L409.297,218.286L410.02,211.959L410.742,216.432L411.465,213.389L412.188,213.451L412.91,211.962L413.633,212.16L414.355,209.654L415.078,211.173L415.801,210.704L416.523,207.665L417.246,205.393L417.969,204.936L418.691,206.032L419.414,200.793L420.137,204.605L420.859,197.678L421.582,199.488L422.305,201.655L423.027,197.578L423.75,198.613L424.473,201.381L425.195,194.673L425.918,196.434L426.641,193.029L427.363,187.519L428.086,194.014L428.809,188.5L429.531,193.067L430.254,191.343L430.977,185.851L431.699,187.966L432.422,187.129L433.145,183.625L433.867,181.35L434.59,180.403L435.313,180.521L436.035,181.365L436.758,182.103L437.48,178.922L438.203,174.598L438.926,177.15L439.648,174.186L440.371,174.862L441.094,171.487L441.816,171.687L442.539,173.925L443.262,168.749L443.984,169.273L444.707,166.746L445.43,166.276L446.152,165.012L446.875,167.927L447.598,165.727L448.32,165.242L449.043,160.949L449.766,159.613L450.488,158.721L451.211,160.936L451.934,160.844L452.656,154.003L453.379,152.02L454.102,153.382L454.824,154.698L455.547,154.922L456.27,153.231L456.992,153.421L457.715,152.656L458.438,153.258L459.16,145.162L459.883,144.333L460.605,148.729L461.328,145.607L462.051,145.585L462.773,144.318L463.496,146.037L464.219,145.932L464.941,142.613L465.664,141.037L466.387,145.706L467.109,140.696L467.832,138.801L468.555,141.926L469.277,136.622"/><path fill="none" stroke="rgb(203, 47, 13)" stroke-width="1.5" d="M100,129.163L100.723,148.828L101.445,150.334L102.168,155.845L102.891,151.826L103.613,155.873L104.336,156.86L105.059,156.105L105.781,156.89L106.504,158.866L107.227,159.222L107.949,160.571L108.672,161.176L109.395,161.643L110.117,165.215L110.84,163.55L111.563,166.606L112.285,167.257L113.008,166.031L113.73,166.731L114.453,166.816L115.176,171.6L115.898,170.538L116.621,168.532L117.344,171.683L118.066,170.145L118.789,170.779L119.512,170.99L120.234,174.113L120.957,171.065L121.68,172.274L122.402,173.466L123.125,172.592L123.848,172.029L124.57,171.514L125.293,173.931L126.016,173.465L126.738,172.18L127.461,171.637L128.184,174.399L128.906,174.642L129.629,171.747L130.352,175.903L131.074,173.059L131.797,173.002L132.52,173.606L133.242,175.675L133.965,173.375L134.688,173.983L135.41,172.87L136.133,176.371L136.855,176.278L137.578,177.998L138.301,175.638L139.023,178.355L139.746,176.129L140.469,178.113L141.191,176.04L141.914,175.18L142.637,175.867L143.359,176.813L144.082,178.187L144.805,178.262L145.527,176.432L146.25,179.883L146.973,178.264L147.695,180.124L148.418,180.848L149.141,177.955L149.863,178.411L150.586,180.062L151.309,180.104L152.031,177.686L152.754,180.502L153.477,180.635L154.199,182.884L154.922,179.797L155.645,181.71L156.367,184.39L157.09,180.751L157.813,181.82L158.535,185.018L159.258,185.512L159.98,183.814L160.703,186.659L161.426,182.316L162.148,184.107L162.871,183.344L163.594,187.105L164.316,188.151L165.039,187.715L165.762,186.688L166.484,189.123L167.207,187.026L167.93,191.055L168.652,187.676L169.375,188.073L170.098,186.607L170.82,190.404L171.543,189.511L172.266,189.207L172.988,189.767L173.711,190.933L174.434,188.904L175.156,192.641L175.879,192.421L176.602,191.203L177.324,193.156L178.047,193.203L178.77,192.769L179.492,192.484L180.215,192.136L180.938,195.566L181.66,195.262L182.383,195.985L183.105,197.1L183.828,198.378L184.551,195.588L185.273,195.502L185.996,197.96L186.719,195.619L187.441,197.814L188.164,198.022L188.887,198.365L189.609,200.3L190.332,199.554L191.055,202.471L191.777,203.927L192.5,202.145L193.223,199.023L193.945,202.273L194.668,201.238L195.391,202.836L196.113,204.589L196.836,203.443L197.559,206.111L198.281,206.429L199.004,205.904L199.727,205.042L200.449,204.598L201.172,206.006L201.895,210.976L202.617,211.554L203.34,208.689L204.063,206.095L204.785,210.616L205.508,211.336L206.23,213.874L206.953,215.755L207.676,215.578L208.398,213.412L209.121,213.432L209.844,212.896L210.566,217.468L211.289,216.917L212.012,212.414L212.734,216.788L213.457,218.971L214.18,217.986L214.902,218.94L215.625,221.116L216.348,219.745L217.07,220.237L217.793,221.426L218.516,223.562L219.238,223.151L219.961,226.173L220.684,225.731L221.406,227.56L222.129,223.217L222.852,226.945L223.574,226.922L224.297,227.659L225.02,224.894L225.742,229.719L226.465,226.116L227.188,230.919L227.91,229.725L228.633,232.217L229.355,232.812L230.078,232.98L230.801,231.738L231.523,235.821L232.246,233.594L232.969,235.669L233.691,233.119L234.414,238.381L235.137,240.697L235.859,239.766L236.582,240.487L237.305,237.807L238.027,240.081L238.75,237.445L239.473,242.205L240.195,246.249L240.918,242.909L241.641,243.154L242.363,244.35L243.086,246.915L243.809,245.747L244.531,246.796L245.254,243.836L245.977,248.85L246.699,251.458L247.422,249.769L248.145,250.082L248.867,248.666L249.59,254.188L250.313,254.98L251.035,258.949L251.758,255.228L252.48,256.752L253.203,252.574L253.926,257.624L254.648,254.831L255.371,258.112L256.094,256.294L256.816,262.178L257.539,260.2L258.262,263.507L258.984,262.009L259.707,260.22L260.43,263.544L261.152,261.859L261.875,266.858L262.598,265.818L263.32,266.491L264.043,269.174L264.766,268.679L265.488,270.001L266.211,271.496L266.934,268.735L267.656,272.112L268.379,268.524L269.102,271.779L269.824,275.622L270.547,277.108L271.27,276.274L271.992,273.528L272.715,277.069L273.438,275.624L274.16,281.285L274.883,279.459L275.605,282.58L276.328,278.219L277.051,284.982L277.773,286.658L278.496,282.472L279.219,284.888L279.941,284.299L280.664,286.839L281.387,288.655L282.109,288.217L282.832,289.16L283.555,292.986L284.277,290.569L285,292.178L285.723,293.55L286.445,292.587L287.168,291.639L287.891,298.68L288.613,296.613L289.336,296.474L290.059,298.029L290.781,296.05L291.504,303.713L292.227,298.066L292.949,300.235L293.672,298.18L294.395,300.453L295.117,296.246L295.84,301.843L296.563,300.223L297.285,304.853L298.008,308.558L298.73,305.382L299.453,308.834L300.176,304.981L300.898,310.484L301.621,311.818L302.344,309.209L303.066,311.519L303.789,314.774L304.512,315.141L305.234,313.73L305.957,320.507L306.68,320.668L307.402,321.885L308.125,319.645L308.848,318.778L309.57,320.591L310.293,322.998L311.016,316.394L311.738,319.931L312.461,323.278L313.184,319.542L313.906,319.214L314.629,327.086L315.352,322.721L316.074,323.346L316.797,330.799L317.52,325.755L318.242,328.437L318.965,324.279L319.688,326.598L320.41,330.861L321.133,329.878L321.855,330.812L322.578,329.215L323.301,337.187L324.023,330.166L324.746,331.545L325.469,338.247L326.191,336.296L326.914,325.549L327.637,333.459L328.359,341.445L329.082,334L329.805,338.903L330.527,336.375L331.25,335.519L331.973,336.365L332.695,343.481L333.418,338.705L334.141,339.595L334.863,343.78L335.586,334.939L336.309,340.189L337.031,340.871L337.754,339.662L338.477,340.208L339.199,340.975L339.922,341L340.645,343.557L341.367,344.943L342.09,335.792L342.813,339.96L343.535,343.422L344.258,349.154L344.98,345.058L345.703,344.972L346.426,341.738L347.148,344.576L347.871,340.924L348.594,347.285L349.316,344.319L350.039,343.222L350.762,344.947L351.484,339.002L352.207,343.036L352.93,348.073L353.652,343.966L354.375,345.222L355.098,345.53L355.82,342.559L356.543,344.792L357.266,339.918L357.988,343.008L358.711,339.332L359.434,342.354L360.156,348.668L360.879,338.931L361.602,338.832L362.324,335.451L363.047,343.482L363.77,342.119L364.492,339.011L365.215,336.372L365.938,344.195L366.66,336.724L367.383,338.466L368.105,337.5L368.828,338.174L369.551,333.147L370.273,335.428L370.996,345.907L371.719,331.461L372.441,336.982L373.164,335.057L373.887,332.611L374.609,332.031L375.332,335.705L376.055,332.902L376.777,336.141L377.5,327.491L378.223,330.355L378.945,333.743L379.668,325.92L380.391,327.649L381.113,330.318L381.836,329.715L382.559,327.757L383.281,328.841L384.004,329.065L384.727,318.208L385.449,319.377L386.172,323.726L386.895,319.303L387.617,324.756L388.34,319.206L389.063,319.593L389.785,315.595L390.508,314.967L391.23,321.249L391.953,316.207L392.676,315.287L393.398,313.482L394.121,307.339L394.844,311.355L395.566,312.252L396.289,307.885L397.012,313.132L397.734,308.49L398.457,306.639L399.18,298.783L399.902,301.925L400.625,302.58L401.348,298.396L402.07,297.485L402.793,304.304L403.516,303.036L404.238,304.248L404.961,293.427L405.684,294.834L406.406,299.152L407.129,296.124L407.852,292.745L408.574,292.337L409.297,279.076L410.02,287.938L410.742,280.837L411.465,287.355L412.188,284.727L412.91,276.413L413.633,283.59L414.355,275.779L415.078,276.348L415.801,272.555L416.523,270.43L417.246,269.411L417.969,274.863L418.691,271.383L419.414,269.363L420.137,267.162L420.859,267.511L421.582,267.9L422.305,265.484L423.027,265.619L423.75,263.633L424.473,258.659L425.195,259.941L425.918,255.389L426.641,258.385L427.363,252.338L428.086,252.224L428.809,255.839L429.531,248.838L430.254,251.965L430.977,248.793L431.699,244.678L432.422,247.524L433.145,244.927L433.867,243.195L434.59,242.161L435.313,238.14L436.035,234.502L436.758,240.172L437.48,238.29L438.203,233.634L438.926,235.932L439.648,234.645L440.371,226.582L441.094,227.907L441.816,228.377L442.539,225.937L443.262,233.189L443.984,219.042L444.707,224.973L445.43,221.868L446.152,220.991L446.875,209.273L447.598,214.338L448.32,219.639L449.043,214.104L449.766,216.513L450.488,207.756L451.211,210.401L451.934,211.394L452.656,207.946L453.379,208.597L454.102,203.754L454.824,209.254L455.547,201.913L456.27,197.287L456.992,206.059L457.715,200.16L458.438,200.84L459.16,195.832L459.883,196.11L460.605,194.661L461.328,191.11L462.051,193.026L462.773,189.012L463.496,193.358L464.219,190.335L464.941,187.451L465.664,182.698L466.387,189.036L467.109,184.801L467.832,186.503L468.555,185.334L469.277,180.5"/><g transform="translate(0,190) scale(1.7) rotate(-90)"><text>Drift</text></g><g transform="translate(315,395) scale(1.8)"><text></text></g><g transform="translate(0,350)" fill="none" font-size="10" font-family="sans-serif" text-anchor="middle"><path class="domain" stroke="currentColor" d="M100,6V0H470V6"/><g class="tick" opacity="1" transform="translate(136.66666666666666,0)"><line stroke="currentColor" y2="6"/><text fill="currentColor" y="9" dy="0.71em" font-size="20px"> </text></g><g class="tick" opacity="1" transform="translate(173.7037037037037,0)"><line stroke="currentColor" y2="6"/><text fill="currentColor" y="9" dy="0.71em" font-size="20px">200</text></g><g class="tick" opacity="1" transform="translate(210.74074074074076,0)"><line stroke="currentColor" y2="6"/><text fill="currentColor" y="9" dy="0.71em" font-size="20px"> </text></g><g class="tick" opacity="1" transform="translate(247.77777777777777,0)"><line stroke="currentColor" y2="6"/><text fill="currentColor" y="9" dy="0.71em" font-size="20px">400</text></g><g class="tick" opacity="1" transform="translate(284.81481481481484,0)"><line stroke="currentColor" y2="6"/><text fill="currentColor" y="9" dy="0.71em" font-size="20px"> </text></g><g class="tick" opacity="1" transform="translate(321.85185185185185,0)"><line stroke="currentColor" y2="6"/><text fill="currentColor" y="9" dy="0.71em" font-size="20px">600</text></g><g class="tick" opacity="1" transform="translate(358.8888888888889,0)"><line stroke="currentColor" y2="6"/><text fill="currentColor" y="9" dy="0.71em" font-size="20px"> </text></g><g class="tick" opacity="1" transform="translate(395.9259259259259,0)"><line stroke="currentColor" y2="6"/><text fill="currentColor" y="9" dy="0.71em" font-size="20px">800</text></g><g class="tick" opacity="1" transform="translate(432.96296296296293,0)"><line stroke="currentColor" y2="6"/><text fill="currentColor" y="9" dy="0.71em" font-size="20px"> </text></g><g class="tick" opacity="1" transform="translate(470,0)"><line stroke="currentColor" y2="6"/><text fill="currentColor" y="9" dy="0.71em" font-size="20px">1000</text></g></g><g transform="translate(100,0)" fill="none" font-size="10" font-family="sans-serif" text-anchor="end"><path class="domain" stroke="currentColor" d="M-6,350H0V20H-6"/><g class="tick" opacity="1" transform="translate(0,323.0221290074236)"><line stroke="currentColor" x2="-6"/><text fill="currentColor" x="-9" dy="0.32em" font-size="20px">0.0195</text></g><g class="tick" opacity="1" transform="translate(0,272.2206248296835)"><line stroke="currentColor" x2="-6"/><text fill="currentColor" x="-9" dy="0.32em" font-size="20px">0.0190</text></g><g class="tick" opacity="1" transform="translate(0,221.41912065194342)"><line stroke="currentColor" x2="-6"/><text fill="currentColor" x="-9" dy="0.32em" font-size="20px">0.0185</text></g><g class="tick" opacity="1" transform="translate(0,170.61761647420332)"><line stroke="currentColor" x2="-6"/><text fill="currentColor" x="-9" dy="0.32em" font-size="20px">0.0180</text></g><g class="tick" opacity="1" transform="translate(0,119.81611229646364)"><line stroke="currentColor" x2="-6"/><text fill="currentColor" x="-9" dy="0.32em" font-size="20px">0.0175</text></g><g class="tick" opacity="1" transform="translate(0,69.01460811872354)"><line stroke="currentColor" x2="-6"/><text fill="currentColor" x="-9" dy="0.32em" font-size="20px">0.0170</text></g></g><circle cx="155" cy="50" r="8" style="fill: rgb(35, 23, 27);"/><circle cx="155" cy="75" r="8" style="fill: rgb(69, 105, 238);"/><circle cx="155" cy="100" r="8" style="fill: rgb(38, 188, 225);"/><circle cx="155" cy="125" r="8" style="fill: rgb(63, 243, 147);"/><circle cx="275" cy="50" r="8" style="fill: rgb(149, 251, 81);"/><circle cx="275" cy="75" r="8" style="fill: rgb(236, 209, 46);"/><circle cx="275" cy="100" r="8" style="fill: rgb(255, 130, 29);"/><circle cx="275" cy="125" r="8" style="fill: rgb(203, 47, 13);"/><text x="170" y="50" text-anchor="left" font-size="22" alignment-baseline="middle" style="fill: rgb(35, 23, 27);"> = 0</text><text x="170" y="75" text-anchor="left" font-size="22" alignment-baseline="middle" style="fill: rgb(69, 105, 238);"> = 0.22</text><text x="170" y="100" text-anchor="left" font-size="22" alignment-baseline="middle" style="fill: rgb(38, 188, 225);"> = 0.45</text><text x="170" y="125" text-anchor="left" font-size="22" alignment-baseline="middle" style="fill: rgb(63, 243, 147);"> = 0.67</text><text x="295" y="50" text-anchor="left" font-size="22" alignment-baseline="middle" style="fill: rgb(149, 251, 81);"> = 0.9</text><text x="295" y="75" text-anchor="left" font-size="22" alignment-baseline="middle" style="fill: rgb(236, 209, 46);"> = 1.12</text><text x="295" y="100" text-anchor="left" font-size="22" alignment-baseline="middle" style="fill: rgb(255, 130, 29);"> = 1.35</text><text x="295" y="125" text-anchor="left" font-size="22" alignment-baseline="middle" style="fill: rgb(203, 47, 13);"> = 1.57</text></svg>