<svg xmlns="http://www.w3.org/2000/svg" class="bg-white" width="500" height="400" viewBox="-10 -1 500 400"><path fill="none" stroke="rgb(35, 23, 27)" stroke-width="1.5" d="M100,120.11L100.723,120.398L101.445,120.732L102.168,121.088L102.891,121.357L103.613,121.91L104.336,122.287L105.059,122.627L105.781,123.092L106.504,123.481L107.227,123.886L107.949,124.297L108.672,124.773L109.395,125.269L110.117,125.702L110.84,126.247L111.563,126.564L112.285,127.115L113.008,127.543L113.73,128.114L114.453,128.636L115.176,129.209L115.898,129.796L116.621,130.201L117.344,130.871L118.066,131.462L118.789,132.034L119.512,132.478L120.234,133.261L120.957,133.663L121.68,134.51L122.402,135.195L123.125,135.887L123.848,136.556L124.57,137.32L125.293,137.892L126.016,138.781L126.738,139.466L127.461,140.29L128.184,140.993L128.906,141.955L129.629,142.684L130.352,143.516L131.074,144.37L131.797,145.419L132.52,146.293L133.242,147.182L133.965,148.277L134.688,149.251L135.41,150.231L136.133,151.253L136.855,152.357L137.578,153.47L138.301,154.619L139.023,155.813L139.746,157.072L140.469,158.048L141.191,159.502L141.914,160.772L142.637,162.059L143.359,163.43L144.082,164.975L144.805,166.499L145.527,167.958L146.25,169.573L146.973,171.166L147.695,172.946L148.418,174.47L149.141,176.265L149.863,178.095L150.586,180.139L151.309,182.26L152.031,184.224L152.754,186.549L153.477,188.749L154.199,190.894L154.922,193.5L155.645,195.883L156.367,198.488L157.09,201.151L157.813,203.876L158.535,206.67L159.258,209.498L159.98,212.551L160.703,215.832L161.426,218.697L162.148,221.942L162.871,225.349L163.594,228.797L164.316,232.329L165.039,235.707L165.762,239.085L166.484,242.888L167.207,246.547L167.93,250.216L168.652,254.075L169.375,257.634L170.098,261.597L170.82,265.252L171.543,269.119L172.266,273.084L172.988,277.056L173.711,280.717L174.434,284.499L175.156,287.639L175.879,291.532L176.602,295.212L177.324,298.865L178.047,302.425L178.77,305.606L179.492,309.246L180.215,312.324L180.938,315.517L181.66,318.49L182.383,321.422L183.105,323.746L183.828,326.813L184.551,329.493L185.273,331.662L185.996,334.129L186.719,336.285L187.441,338.205L188.164,339.67L188.887,341.944L189.609,343.196L190.332,344.6L191.055,345.842L191.777,346.358L192.5,348.048L193.223,348.035L193.945,349.258L194.668,349.628L195.391,349.787L196.113,349.524L196.836,350L197.559,349.469L198.281,349.462L199.004,348.558L199.727,347.727L200.449,347.51L201.172,346.2L201.895,345.07L202.617,343.859L203.34,342.918L204.063,340.8L204.785,339.473L205.508,337.552L206.23,335.683L206.953,334.352L207.676,331.971L208.398,329.816L209.121,327.407L209.844,325.097L210.566,322.604L211.289,320.503L212.012,317.627L212.734,315.06L213.457,312.78L214.18,309.389L214.902,306.613L215.625,304.087L216.348,301.08L217.07,297.952L217.793,294.631L218.516,291.967L219.238,288.265L219.961,285.083L220.684,282.238L221.406,278.674L222.129,275.68L222.852,271.979L223.574,269.159L224.297,265.356L225.02,262.61L225.742,259.324L226.465,255.935L227.188,252.408L227.91,249.284L228.633,245.528L229.355,242.245L230.078,239.106L230.801,235.714L231.523,232.259L232.246,228.923L232.969,225.245L233.691,222.404L234.414,219.211L235.137,215.575L235.859,212.845L236.582,208.979L237.305,206.339L238.027,202.743L238.75,199.618L239.473,196.647L240.195,193.755L240.918,190.348L241.641,187.324L242.363,183.99L243.086,180.942L243.809,178.064L244.531,175.14L245.254,171.777L245.977,168.736L246.699,165.994L247.422,162.85L248.145,160L248.867,157.158L249.59,154.408L250.313,151.516L251.035,148.755L251.758,145.968L252.48,143.419L253.203,140.542L253.926,137.666L254.648,135.274L255.371,132.655L256.094,129.779L256.816,127.635L257.539,125.103L258.262,122.635L258.984,120.213L259.707,117.864L260.43,115.558L261.152,113.199L261.875,110.85L262.598,110.587L263.32,111.237L264.043,111.889L264.766,112.418L265.488,113.281L266.211,114.172L266.934,113.622L267.656,112.184L268.379,110.398L269.102,108.575L269.824,107.343L270.547,105.803L271.27,104.149L271.992,102.598L272.715,101.098L273.438,99.672L274.16,97.99L274.883,96.748L275.605,95.298L276.328,93.521L277.051,92.356L277.773,91.03L278.496,89.744L279.219,88.344L279.941,86.887L280.664,85.651L281.387,84.302L282.109,83.043L282.832,81.757L283.555,80.649L284.277,79.429L285,78.261L285.723,76.932L286.445,75.848L287.168,74.68L287.891,73.721L288.613,72.515L289.336,71.35L290.059,70.326L290.781,69.374L291.504,68.307L292.227,67.262L292.949,66.261L293.672,65.255L294.395,64.366L295.117,63.456L295.84,62.436L296.563,61.573L297.285,60.655L298.008,59.825L298.73,58.93L299.453,58.032L300.176,57.43L300.898,56.453L301.621,55.62L302.344,54.957L303.066,54.139L303.789,53.387L304.512,52.539L305.234,51.741L305.957,51.116L306.68,50.343L307.402,49.626L308.125,49.002L308.848,48.341L309.57,47.596L310.293,47.061L311.016,46.404L311.738,45.609L312.461,45.149L313.184,44.545L313.906,43.86L314.629,43.41L315.352,42.807L316.074,42.297L316.797,41.643L317.52,41.01L318.242,40.662L318.965,39.986L319.688,39.612L320.41,38.823L321.133,38.578L321.855,38.04L322.578,37.472L323.301,37.122L324.023,36.633L324.746,36.166L325.469,35.841L326.191,35.395L326.914,34.876L327.637,34.466L328.359,33.985L329.082,33.728L329.805,33.29L330.527,32.948L331.25,32.526L331.973,31.975L332.695,31.806L333.418,31.489L334.141,31.271L334.863,30.546L335.586,30.446L336.309,30.197L337.031,29.86L337.754,29.458L338.477,29.274L339.199,28.804L339.922,28.689L340.645,28.282L341.367,28.134L342.09,27.776L342.813,27.498L343.535,27.408L344.258,26.975L344.98,26.851L345.703,26.71L346.426,26.443L347.148,26.255L347.871,26.023L348.594,25.604L349.316,25.358L350.039,25.456L350.762,25.304L351.484,24.947L352.207,24.801L352.93,24.53L353.652,24.49L354.375,24.562L355.098,23.824L355.82,24.01L356.543,23.89L357.266,23.872L357.988,23.59L358.711,23.335L359.434,23.434L360.156,23.143L360.879,23.182L361.602,23.016L362.324,23.073L363.047,22.574L363.77,22.863L364.492,22.514L365.215,22.394L365.938,22.297L366.66,22.102L367.383,22.354L368.105,22.181L368.828,22.154L369.551,22.162L370.273,22.273L370.996,21.885L371.719,21.91L372.441,21.921L373.164,21.945L373.887,21.753L374.609,22.241L375.332,21.97L376.055,21.584L376.777,21.235L377.5,21.089L378.223,21.249L378.945,21.574L379.668,21.203L380.391,21.196L381.113,21.37L381.836,21.211L382.559,21.244L383.281,21.069L384.004,20.854L384.727,21.551L385.449,21.285L386.172,21.508L386.895,21.252L387.617,21.559L388.34,22.019L389.063,21.479L389.785,21.236L390.508,21.327L391.23,21.181L391.953,21.995L392.676,21.503L393.398,21.499L394.121,21.768L394.844,21.664L395.566,21.505L396.289,21.491L397.012,21.374L397.734,21.593L398.457,21.527L399.18,21.756L399.902,20.962L400.625,22.977L401.348,22.782L402.07,22.338L402.793,22.416L403.516,21.955L404.238,22.479L404.961,23.331L405.684,23.561L406.406,24.151L407.129,23.83L407.852,25.077L408.574,24.144L409.297,26.277L410.02,25.531L410.742,23.625L411.465,24.725L412.188,24.334L412.91,26.001L413.633,25.833L414.355,26.568L415.078,27.558L415.801,28.518L416.523,27.985L417.246,28.181L417.969,28.395L418.691,30.886L419.414,28.248L420.137,29.771L420.859,29.721L421.582,28.98L422.305,29.987L423.027,29.277L423.75,30.686L424.473,30.721L425.195,29.734L425.918,29.282L426.641,29.773L427.363,30.453L428.086,29.799L428.809,29.094L429.531,28.114L430.254,28.317L430.977,27.753L431.699,27.997L432.422,28.074L433.145,26.841L433.867,26.444L434.59,27.146L435.313,25.939L436.035,26.02L436.758,25.633L437.48,25.546L438.203,25.948L438.926,24.913L439.648,24.39L440.371,25.129L441.094,23.554L441.816,24.389L442.539,24.094L443.262,23.876L443.984,24L444.707,23.35L445.43,23.509L446.152,23.215L446.875,22.846L447.598,22.68L448.32,22.593L449.043,22.65L449.766,22.302L450.488,22.291L451.211,21.88L451.934,21.451L452.656,22.052L453.379,21.307L454.102,21.534L454.824,21.578L455.547,21.611L456.27,21.563L456.992,21.307L457.715,21.255L458.438,21.003L459.16,21.2L459.883,21.076L460.605,20.91L461.328,20.806L462.051,21.022L462.773,20.974L463.496,20.775L464.219,20.854L464.941,20.831L465.664,20.805L466.387,20.573L467.109,20.621L467.832,20.711L468.555,20.453L469.277,20.489"/><path fill="none" stroke="rgb(69, 105, 238)" stroke-width="1.5" d="M100,119.738L100.723,119.962L101.445,120.291L102.168,120.837L102.891,121.13L103.613,121.471L104.336,121.839L105.059,122.244L105.781,122.504L106.504,122.976L107.227,123.488L107.949,123.806L108.672,124.39L109.395,124.81L110.117,125.24L110.84,125.521L111.563,125.981L112.285,126.455L113.008,127.044L113.73,127.418L114.453,127.964L115.176,128.442L115.898,128.957L116.621,129.462L117.344,130.143L118.066,130.688L118.789,131.23L119.512,131.995L120.234,132.391L120.957,133.155L121.68,133.712L122.402,134.298L123.125,134.91L123.848,135.653L124.57,136.328L125.293,137.061L126.016,137.82L126.738,138.579L127.461,139.236L128.184,139.9L128.906,140.649L129.629,141.547L130.352,142.431L131.074,143.361L131.797,144.041L132.52,144.913L133.242,145.955L133.965,146.906L134.688,147.703L135.41,148.604L136.133,149.687L136.855,150.672L137.578,151.682L138.301,152.823L139.023,153.995L139.746,155.181L140.469,156.299L141.191,157.454L141.914,158.624L142.637,159.822L143.359,161.126L144.082,162.533L144.805,163.771L145.527,165.156L146.25,166.393L146.973,167.807L147.695,169.467L148.418,170.975L149.141,172.464L149.863,174.063L150.586,175.753L151.309,177.483L152.031,179.245L152.754,180.863L153.477,182.704L154.199,184.683L154.922,186.694L155.645,188.412L156.367,190.522L157.09,192.573L157.813,194.573L158.535,196.657L159.258,198.822L159.98,200.987L160.703,203.184L161.426,205.446L162.148,207.736L162.871,210.007L163.594,212.445L164.316,214.78L165.039,217.273L165.762,219.563L166.484,222.079L167.207,224.392L167.93,226.925L168.652,229.319L169.375,231.904L170.098,234.333L170.82,236.675L171.543,239.129L172.266,241.435L172.988,243.921L173.711,246.315L174.434,248.522L175.156,250.584L175.879,252.839L176.602,255.395L177.324,257.329L178.047,259.377L178.77,261.413L179.492,263.356L180.215,265.396L180.938,266.956L181.66,269.021L182.383,270.614L183.105,272.105L183.828,273.827L184.551,275.141L185.273,276.459L185.996,277.689L186.719,278.777L187.441,279.602L188.164,280.468L188.887,281.281L189.609,282.085L190.332,282.789L191.055,283.091L191.777,283.584L192.5,283.798L193.223,283.748L193.945,284.221L194.668,283.899L195.391,283.794L196.113,283.376L196.836,283.155L197.559,282.535L198.281,282.065L199.004,281.11L199.727,280.546L200.449,279.451L201.172,278.392L201.895,276.977L202.617,275.992L203.34,274.634L204.063,273.357L204.785,271.835L205.508,270.252L206.23,268.535L206.953,266.819L207.676,265.048L208.398,263.076L209.121,260.956L209.844,259.089L210.566,257.009L211.289,254.929L212.012,252.73L212.734,250.286L213.457,248.079L214.18,245.544L214.902,243.243L215.625,240.823L216.348,238.489L217.07,236.227L217.793,233.305L218.516,231.104L219.238,228.118L219.961,225.683L220.684,222.878L221.406,220.109L222.129,217.507L222.852,214.888L223.574,211.984L224.297,209.463L225.02,206.732L225.742,204.015L226.465,201.186L227.188,198.319L227.91,195.817L228.633,192.897L229.355,190.092L230.078,187.489L230.801,184.847L231.523,182.063L232.246,179.458L232.969,176.741L233.691,174.232L234.414,171.377L235.137,168.73L235.859,166.287L236.582,163.489L237.305,160.726L238.027,158.191L238.75,155.445L239.473,153.154L240.195,150.469L240.918,147.828L241.641,145.481L242.363,142.93L243.086,140.231L243.809,137.704L244.531,135.214L245.254,133.037L245.977,130.542L246.699,127.894L247.422,125.409L248.145,123.293L248.867,120.748L249.59,118.704L250.313,116.31L251.035,114.333L251.758,112.035L252.48,109.901L253.203,107.707L253.926,105.539L254.648,104.02L255.371,101.466L256.094,99.606L256.816,97.614L257.539,95.621L258.262,93.797L258.984,92.071L259.707,90.013L260.43,88.195L261.152,87.003L261.875,87.734L262.598,88.888L263.32,90.04L264.043,91.319L264.766,92.883L265.488,93.778L266.211,92.638L266.934,91.608L267.656,90.568L268.379,89.64L269.102,88.375L269.824,87.396L270.547,86.308L271.27,85.353L271.992,84.32L272.715,83.158L273.438,82.214L274.16,81.296L274.883,80.286L275.605,79.231L276.328,78.286L277.051,77.298L277.773,76.476L278.496,75.566L279.219,74.647L279.941,73.679L280.664,72.831L281.387,71.878L282.109,70.953L282.832,70.157L283.555,69.344L284.277,68.43L285,67.585L285.723,66.849L286.445,66.064L287.168,65.307L287.891,64.457L288.613,63.521L289.336,62.813L290.059,61.987L290.781,61.379L291.504,60.53L292.227,59.839L292.949,59.185L293.672,58.391L294.395,57.687L295.117,56.909L295.84,56.315L296.563,55.709L297.285,54.808L298.008,54.168L298.73,53.634L299.453,53.001L300.176,52.326L300.898,51.808L301.621,51.092L302.344,50.608L303.066,49.812L303.789,49.183L304.512,48.376L305.234,48.009L305.957,47.606L306.68,46.862L307.402,46.345L308.125,45.73L308.848,45.255L309.57,44.608L310.293,44.259L311.016,43.757L311.738,43.149L312.461,42.62L313.184,42.114L313.906,41.488L314.629,40.941L315.352,40.624L316.074,40.149L316.797,39.738L317.52,39.253L318.242,38.782L318.965,38.284L319.688,37.946L320.41,37.317L321.133,37.08L321.855,36.669L322.578,36.123L323.301,36.066L324.023,35.405L324.746,35.23L325.469,34.594L326.191,34.438L326.914,33.996L327.637,33.611L328.359,33.144L329.082,33.047L329.805,32.533L330.527,32.278L331.25,31.969L331.973,31.272L332.695,31.229L333.418,30.867L334.141,30.856L334.863,30.458L335.586,29.981L336.309,29.745L337.031,29.477L337.754,29.171L338.477,28.606L339.199,28.72L339.922,28.603L340.645,28.181L341.367,28.08L342.09,27.368L342.813,27.415L343.535,27.023L344.258,26.667L344.98,26.72L345.703,26.519L346.426,26.612L347.148,26.25L347.871,25.745L348.594,25.57L349.316,25.742L350.039,25.318L350.762,25.192L351.484,24.799L352.207,24.817L352.93,24.643L353.652,24.285L354.375,23.984L355.098,23.865L355.82,24.074L356.543,24.412L357.266,23.536L357.988,24.016L358.711,24.126L359.434,23.219L360.156,23.228L360.879,23.07L361.602,23.505L362.324,22.865L363.047,22.689L363.77,22.943L364.492,22.376L365.215,23.335L365.938,22.703L366.66,22.785L367.383,22.322L368.105,22.251L368.828,22.14L369.551,22.52L370.273,21.776L370.996,21.513L371.719,22.208L372.441,21.41L373.164,21.922L373.887,21.843L374.609,21.168L375.332,21.277L376.055,21.117L376.777,22.22L377.5,21.929L378.223,22.012L378.945,21.459L379.668,21.626L380.391,21.398L381.113,21.234L381.836,21.033L382.559,21.519L383.281,20.947L384.004,21.322L384.727,22.033L385.449,20.965L386.172,22.538L386.895,21.092L387.617,21.435L388.34,21.133L389.063,20.984L389.785,22.204L390.508,20.427L391.23,21.791L391.953,21.202L392.676,21.364L393.398,21.009L394.121,21.042L394.844,20.925L395.566,21.455L396.289,21.856L397.012,21.363L397.734,21.726L398.457,21.38L399.18,22.084L399.902,20.831L400.625,22.012L401.348,21.822L402.07,21.533L402.793,23.075L403.516,23.705L404.238,23.539L404.961,22.136L405.684,23.401L406.406,23.098L407.129,22.654L407.852,23.558L408.574,24.374L409.297,24.071L410.02,25.217L410.742,24.838L411.465,25.056L412.188,25.245L412.91,25.199L413.633,26.824L414.355,25.133L415.078,25.167L415.801,26.541L416.523,26.13L417.246,27.482L417.969,28.706L418.691,27.344L419.414,28.949L420.137,27.973L420.859,28.328L421.582,27.335L422.305,27.72L423.027,29.048L423.75,27.923L424.473,28.894L425.195,29.194L425.918,27.902L426.641,28.847L427.363,27.722L428.086,29.259L428.809,28.748L429.531,27.15L430.254,27.433L430.977,27.293L431.699,26.737L432.422,26.437L433.145,26.586L433.867,26.431L434.59,26.971L435.313,26.245L436.035,25.774L436.758,25.716L437.48,24.87L438.203,24.133L438.926,24.521L439.648,25.162L440.371,23.984L441.094,23.939L441.816,23.805L442.539,23.799L443.262,23.592L443.984,23.589L444.707,23.43L445.43,23.257L446.152,22.365L446.875,22.638L447.598,22.323L448.32,22.45L449.043,22.2L449.766,21.999L450.488,21.479L451.211,21.675L451.934,21.775L452.656,21.563L453.379,21.441L454.102,21.383L454.824,21.57L455.547,21.411L456.27,21.209L456.992,21.066L457.715,21.088L458.438,20.847L459.16,20.812L459.883,20.93L460.605,21.005L461.328,20.667L462.051,20.869L462.773,20.717L463.496,20.792L464.219,20.693L464.941,20.843L465.664,20.706L466.387,20.659L467.109,20.691L467.832,20.527L468.555,20.584L469.277,20.571"/><path fill="none" stroke="rgb(38, 188, 225)" stroke-width="1.5" d="M100,118.671L100.723,119.005L101.445,119.237L102.168,119.665L102.891,120.126L103.613,120.218L104.336,120.785L105.059,121.091L105.781,121.402L106.504,121.772L107.227,122.186L107.949,122.627L108.672,122.901L109.395,123.381L110.117,123.878L110.84,124.235L111.563,124.514L112.285,125.07L113.008,125.462L113.73,126.065L114.453,126.453L115.176,126.799L115.898,127.401L116.621,127.882L117.344,128.199L118.066,128.668L118.789,129.407L119.512,129.934L120.234,130.506L120.957,131.133L121.68,131.691L122.402,132.202L123.125,132.816L123.848,133.246L124.57,134.108L125.293,134.655L126.016,135.218L126.738,136.058L127.461,136.643L128.184,137.296L128.906,138.106L129.629,138.654L130.352,139.388L131.074,140.226L131.797,140.82L132.52,141.676L133.242,142.404L133.965,143.262L134.688,144.048L135.41,145.032L136.133,145.82L136.855,146.461L137.578,147.529L138.301,148.564L139.023,149.433L139.746,150.422L140.469,151.364L141.191,152.4L141.914,153.47L142.637,154.518L143.359,155.428L144.082,156.621L144.805,157.512L145.527,158.829L146.25,159.883L146.973,161.14L147.695,162.242L148.418,163.568L149.141,164.847L149.863,166.184L150.586,167.427L151.309,168.828L152.031,170.135L152.754,171.415L153.477,172.823L154.199,174.322L154.922,175.574L155.645,177.155L156.367,178.673L157.09,180.138L157.813,181.785L158.535,183.143L159.258,184.908L159.98,186.413L160.703,187.891L161.426,189.455L162.148,190.988L162.871,192.733L163.594,194.21L164.316,195.789L165.039,197.385L165.762,199.032L166.484,200.827L167.207,202.234L167.93,203.668L168.652,205.197L169.375,206.589L170.098,208.353L170.82,209.821L171.543,211.249L172.266,212.719L172.988,214.088L173.711,215.377L174.434,216.798L175.156,217.887L175.879,219.25L176.602,220.579L177.324,221.725L178.047,222.718L178.77,223.654L179.492,224.703L180.215,225.443L180.938,226.525L181.66,227.312L182.383,227.819L183.105,228.42L183.828,229.294L184.551,229.488L185.273,229.982L185.996,230.34L186.719,230.65L187.441,230.907L188.164,230.833L188.887,230.941L189.609,230.945L190.332,230.627L191.055,230.361L191.777,230.385L192.5,229.779L193.223,229.502L193.945,228.938L194.668,228.029L195.391,227.369L196.113,226.857L196.836,226.021L197.559,225L198.281,223.748L199.004,222.826L199.727,221.411L200.449,220.421L201.172,219.078L201.895,217.596L202.617,216.415L203.34,214.768L204.063,213.009L204.785,211.56L205.508,209.915L206.23,208.435L206.953,206.482L207.676,204.327L208.398,202.558L209.121,200.803L209.844,198.981L210.566,196.768L211.289,195.012L212.012,192.635L212.734,190.931L213.457,188.773L214.18,186.538L214.902,184.2L215.625,181.831L216.348,179.821L217.07,177.649L217.793,175.385L218.516,173.2L219.238,170.958L219.961,168.445L220.684,166.268L221.406,164.232L222.129,161.619L222.852,159.517L223.574,157.213L224.297,155.062L225.02,152.505L225.742,150.355L226.465,147.994L227.188,145.623L227.91,143.3L228.633,141.086L229.355,138.892L230.078,136.505L230.801,134.274L231.523,131.883L232.246,129.849L232.969,127.401L233.691,125.399L234.414,123.011L235.137,121.077L235.859,118.797L236.582,116.647L237.305,114.684L238.027,112.461L238.75,110.209L239.473,108.032L240.195,106.283L240.918,104.042L241.641,101.939L242.363,99.964L243.086,97.956L243.809,95.922L244.531,94.157L245.254,92.206L245.977,90.204L246.699,88.262L247.422,86.47L248.145,84.738L248.867,82.896L249.59,80.939L250.313,79.275L251.035,77.77L251.758,75.892L252.48,74.347L253.203,72.879L253.926,71.195L254.648,69.626L255.371,68.213L256.094,66.672L256.816,65.106L257.539,63.721L258.262,63.744L258.984,65.34L259.707,66.727L260.43,68.304L261.152,70.053L261.875,71.66L262.598,72.368L263.32,71.632L264.043,70.875L264.766,70.071L265.488,69.513L266.211,68.687L266.934,68.11L267.656,67.425L268.379,66.73L269.102,66.178L269.824,65.62L270.547,64.804L271.27,64.231L271.992,63.583L272.715,62.966L273.438,62.329L274.16,61.754L274.883,61.182L275.605,60.548L276.328,60.002L277.051,59.478L277.773,58.861L278.496,58.363L279.219,57.82L279.941,57.303L280.664,56.781L281.387,56.228L282.109,55.613L282.832,55.066L283.555,54.531L284.277,54.026L285,53.517L285.723,52.96L286.445,52.474L287.168,51.951L287.891,51.491L288.613,51.015L289.336,50.495L290.059,49.98L290.781,49.586L291.504,49.06L292.227,48.574L292.949,48.039L293.672,47.713L294.395,47.16L295.117,46.766L295.84,46.236L296.563,45.777L297.285,45.547L298.008,44.954L298.73,44.614L299.453,44.046L300.176,43.686L300.898,43.339L301.621,42.942L302.344,42.528L303.066,42.158L303.789,41.854L304.512,41.303L305.234,41.033L305.957,40.523L306.68,40.437L307.402,39.927L308.125,39.61L308.848,39.153L309.57,38.9L310.293,38.561L311.016,38.162L311.738,37.926L312.461,37.424L313.184,37.315L313.906,36.915L314.629,36.709L315.352,36.358L316.074,35.956L316.797,35.768L317.52,35.236L318.242,35.004L318.965,34.626L319.688,34.294L320.41,33.906L321.133,33.733L321.855,33.454L322.578,33.347L323.301,33.127L324.023,32.944L324.746,32.442L325.469,32.183L326.191,31.949L326.914,31.567L327.637,31.286L328.359,31.144L329.082,31.051L329.805,30.644L330.527,30.438L331.25,30.278L331.973,30.069L332.695,29.671L333.418,29.57L334.141,29.191L334.863,29.273L335.586,28.951L336.309,28.601L337.031,28.42L337.754,28.193L338.477,27.997L339.199,27.794L339.922,27.73L340.645,27.556L341.367,27.309L342.09,27.188L342.813,26.931L343.535,26.576L344.258,26.199L344.98,26.315L345.703,26.494L346.426,26.131L347.148,25.933L347.871,25.722L348.594,25.516L349.316,26.02L350.039,25.271L350.762,25.431L351.484,25.087L352.207,24.466L352.93,25.039L353.652,24.33L354.375,24.814L355.098,24.177L355.82,24.017L356.543,24.359L357.266,23.939L357.988,23.938L358.711,23.498L359.434,23.54L360.156,23.753L360.879,23.361L361.602,23.337L362.324,23.456L363.047,23.156L363.77,22.708L364.492,22.851L365.215,22.756L365.938,22.431L366.66,22.626L367.383,22.749L368.105,22.211L368.828,22.547L369.551,22.03L370.273,22.635L370.996,21.827L371.719,22.081L372.441,22.311L373.164,21.855L373.887,22.04L374.609,21.041L375.332,21.833L376.055,21.467L376.777,22.151L377.5,21.327L378.223,21.755L378.945,21.769L379.668,22.703L380.391,21.615L381.113,21.673L381.836,21.556L382.559,21.6L383.281,21.282L384.004,21.437L384.727,21.844L385.449,20.808L386.172,21.598L386.895,21.255L387.617,20.673L388.34,21.383L389.063,21.644L389.785,21.547L390.508,20L391.23,21.616L391.953,21.885L392.676,21.151L393.398,21.126L394.121,21.321L394.844,21.671L395.566,21.692L396.289,20.724L397.012,21.421L397.734,21.634L398.457,21.207L399.18,20.543L399.902,21.162L400.625,21.232L401.348,20.957L402.07,22.26L402.793,21.568L403.516,22.784L404.238,22.827L404.961,23.76L405.684,22.443L406.406,21.467L407.129,21.482L407.852,23.313L408.574,22.687L409.297,21.322L410.02,23.118L410.742,21.542L411.465,23.386L412.188,22.947L412.91,22.333L413.633,22.863L414.355,23.23L415.078,25.241L415.801,24.144L416.523,24.168L417.246,24.608L417.969,23.606L418.691,25.558L419.414,24.807L420.137,23.698L420.859,25.823L421.582,24.424L422.305,24.815L423.027,26.202L423.75,24.871L424.473,25.293L425.195,25.109L425.918,25.767L426.641,25.775L427.363,25.076L428.086,25.468L428.809,24.582L429.531,26.149L430.254,25.019L430.977,24.969L431.699,24.622L432.422,24.497L433.145,24.228L433.867,23.462L434.59,23.967L435.313,24.204L436.035,24.97L436.758,23.764L437.48,23.702L438.203,23.824L438.926,23.629L439.648,23.419L440.371,23.42L441.094,23.186L441.816,22.787L442.539,22.607L443.262,22.26L443.984,22.38L444.707,22.826L445.43,21.626L446.152,21.79L446.875,22.216L447.598,21.959L448.32,21.587L449.043,22.02L449.766,21.533L450.488,21.537L451.211,21.39L451.934,21.244L452.656,20.936L453.379,21.383L454.102,21.142L454.824,20.941L455.547,20.862L456.27,20.953L456.992,21.015L457.715,20.769L458.438,20.953L459.16,20.796L459.883,20.858L460.605,20.74L461.328,20.613L462.051,20.726L462.773,20.534L463.496,20.712L464.219,20.726L464.941,20.749L465.664,20.519L466.387,20.49L467.109,20.487L467.832,20.445L468.555,20.45L469.277,20.425"/><path fill="none" stroke="rgb(63, 243, 147)" stroke-width="1.5" d="M100,117.564L100.723,117.582L101.445,117.983L102.168,118.308L102.891,118.531L103.613,118.998L104.336,119.294L105.059,119.673L105.781,119.784L106.504,120.188L107.227,120.524L107.949,120.802L108.672,121.227L109.395,121.546L110.117,121.924L110.84,122.206L111.563,122.631L112.285,122.942L113.008,123.315L113.73,123.787L114.453,124.129L115.176,124.742L115.898,125.007L116.621,125.388L117.344,125.88L118.066,126.406L118.789,126.892L119.512,127.266L120.234,127.72L120.957,128.318L121.68,128.677L122.402,129.123L123.125,129.586L123.848,130.393L124.57,130.798L125.293,131.261L126.016,131.975L126.738,132.496L127.461,132.97L128.184,133.523L128.906,134.228L129.629,134.654L130.352,135.487L131.074,136.126L131.797,136.761L132.52,137.386L133.242,138.068L133.965,138.723L134.688,139.256L135.41,140.02L136.133,140.736L136.855,141.718L137.578,142.459L138.301,142.929L139.023,143.971L139.746,144.522L140.469,145.44L141.191,146.135L141.914,147.034L142.637,148.083L143.359,148.807L144.082,149.663L144.805,150.467L145.527,151.683L146.25,152.443L146.973,153.063L147.695,154.21L148.418,155.338L149.141,156.263L149.863,157.221L150.586,158.383L151.309,159.25L152.031,160.254L152.754,161.493L153.477,162.392L154.199,163.312L154.922,164.485L155.645,165.632L156.367,166.574L157.09,167.687L157.813,168.551L158.535,169.655L159.258,170.808L159.98,171.713L160.703,172.81L161.426,173.911L162.148,174.974L162.871,176.14L163.594,177.038L164.316,177.75L165.039,179.042L165.762,179.765L166.484,180.452L167.207,181.567L167.93,182.336L168.652,183.278L169.375,183.913L170.098,184.684L170.82,185.679L171.543,186.109L172.266,187.068L172.988,187.539L173.711,187.947L174.434,188.575L175.156,188.975L175.879,189.56L176.602,189.739L177.324,190.092L178.047,190.313L178.77,190.725L179.492,190.698L180.215,191.012L180.938,190.921L181.66,190.935L182.383,190.743L183.105,190.663L183.828,190.177L184.551,190.059L185.273,189.937L185.996,189.358L186.719,188.994L187.441,188.461L188.164,187.76L188.887,187.282L189.609,186.597L190.332,185.421L191.055,184.883L191.777,183.857L192.5,183.144L193.223,181.982L193.945,180.822L194.668,179.574L195.391,178.57L196.113,177.258L196.836,175.914L197.559,174.809L198.281,173.242L199.004,171.945L199.727,170.487L200.449,168.867L201.172,167.312L201.895,165.739L202.617,164.067L203.34,162.294L204.063,160.779L204.785,159.205L205.508,157.109L206.23,155.617L206.953,153.734L207.676,151.96L208.398,149.953L209.121,148.249L209.844,146.2L210.566,144.38L211.289,142.697L212.012,140.823L212.734,138.66L213.457,136.841L214.18,134.822L214.902,132.882L215.625,130.882L216.348,128.761L217.07,126.889L217.793,125.031L218.516,122.976L219.238,121.005L219.961,119.062L220.684,117.404L221.406,115.087L222.129,113.111L222.852,111.353L223.574,109.25L224.297,107.26L225.02,105.562L225.742,103.623L226.465,101.617L227.188,99.724L227.91,97.846L228.633,96.113L229.355,94.231L230.078,92.452L230.801,90.58L231.523,88.782L232.246,86.942L232.969,85.262L233.691,83.643L234.414,81.711L235.137,80.095L235.859,78.328L236.582,76.756L237.305,74.978L238.027,73.447L238.75,71.841L239.473,70.277L240.195,68.64L240.918,67.126L241.641,65.728L242.363,64.17L243.086,62.65L243.809,61.156L244.531,59.732L245.254,58.307L245.977,57.031L246.699,55.937L247.422,54.423L248.145,53.26L248.867,51.969L249.59,50.66L250.313,49.72L251.035,48.246L251.758,47.217L252.48,47.349L253.203,49.152L253.926,50.889L254.648,52.828L255.371,54.73L256.094,56.566L256.816,57.63L257.539,57.14L258.262,56.676L258.984,56.082L259.707,55.717L260.43,55.256L261.152,54.769L261.875,54.396L262.598,53.899L263.32,53.509L264.043,53.032L264.766,52.516L265.488,52.158L266.211,51.93L266.934,51.373L267.656,51.071L268.379,50.785L269.102,50.281L269.824,50.03L270.547,49.789L271.27,49.473L271.992,49.004L272.715,48.625L273.438,48.298L274.16,48.026L274.883,47.695L275.605,47.352L276.328,47.047L277.051,46.573L277.773,46.285L278.496,46.084L279.219,45.522L279.941,45.299L280.664,45.014L281.387,44.721L282.109,44.425L282.832,43.956L283.555,43.62L284.277,43.266L285,43.028L285.723,42.556L286.445,42.312L287.168,41.952L287.891,41.574L288.613,41.363L289.336,40.987L290.059,40.736L290.781,40.43L291.504,40.121L292.227,39.832L292.949,39.465L293.672,39.102L294.395,38.83L295.117,38.676L295.84,38.237L296.563,37.865L297.285,37.656L298.008,37.421L298.73,37.205L299.453,36.826L300.176,36.678L300.898,36.374L301.621,36.063L302.344,35.905L303.066,35.609L303.789,35.317L304.512,35.082L305.234,34.882L305.957,34.669L306.68,34.455L307.402,34.222L308.125,34.005L308.848,33.761L309.57,33.759L310.293,33.434L311.016,33.135L311.738,33.025L312.461,32.795L313.184,32.575L313.906,32.416L314.629,32.308L315.352,32.025L316.074,31.944L316.797,31.644L317.52,31.532L318.242,31.397L318.965,31.204L319.688,31.227L320.41,30.876L321.133,30.635L321.855,30.538L322.578,30.346L323.301,30.183L324.023,30.098L324.746,29.948L325.469,29.755L326.191,29.524L326.914,29.39L327.637,29.466L328.359,29.187L329.082,29.149L329.805,28.811L330.527,28.737L331.25,28.89L331.973,28.513L332.695,28.533L333.418,28.044L334.141,28.052L334.863,27.94L335.586,27.775L336.309,27.816L337.031,27.61L337.754,27.535L338.477,27.389L339.199,27.227L339.922,27.151L340.645,26.838L341.367,26.849L342.09,26.814L342.813,26.442L343.535,26.64L344.258,26.398L344.98,26.186L345.703,26.127L346.426,26.012L347.148,25.892L347.871,25.768L348.594,25.462L349.316,25.579L350.039,25.236L350.762,25.15L351.484,25.051L352.207,24.891L352.93,24.757L353.652,24.913L354.375,24.431L355.098,24.652L355.82,24.644L356.543,24.835L357.266,24.445L357.988,23.779L358.711,23.98L359.434,23.841L360.156,23.812L360.879,23.19L361.602,23.985L362.324,23.501L363.047,23.547L363.77,23.342L364.492,23.496L365.215,23.522L365.938,22.759L366.66,23.01L367.383,23.255L368.105,22.948L368.828,22.881L369.551,22.831L370.273,21.954L370.996,22.892L371.719,22.273L372.441,22.504L373.164,21.754L373.887,22.188L374.609,22.937L375.332,21.969L376.055,21.867L376.777,21.919L377.5,22.247L378.223,22.211L378.945,21.632L379.668,20.828L380.391,21.802L381.113,21.769L381.836,21.481L382.559,21.963L383.281,21.812L384.004,21.529L384.727,20.741L385.449,21.975L386.172,20.563L386.895,21.244L387.617,21.414L388.34,20.59L389.063,21.415L389.785,21.517L390.508,21.048L391.23,21.174L391.953,21.441L392.676,20.942L393.398,20.583L394.121,21.274L394.844,20.497L395.566,20.632L396.289,20.762L397.012,21.837L397.734,21.711L398.457,21.414L399.18,20.197L399.902,20.95L400.625,21.078L401.348,20.156L402.07,20.399L402.793,21.163L403.516,22.122L404.238,21.404L404.961,21.524L405.684,20.961L406.406,21.685L407.129,20.934L407.852,20.694L408.574,21.145L409.297,20.485L410.02,22.183L410.742,20.274L411.465,21.932L412.188,22.115L412.91,21.755L413.633,21.917L414.355,21.939L415.078,22.551L415.801,20.358L416.523,22.09L417.246,22.859L417.969,20.827L418.691,21.044L419.414,21.675L420.137,21.951L420.859,21.8L421.582,20.632L422.305,24.125L423.027,22.926L423.75,23.182L424.473,21.23L425.195,21.827L425.918,21.721L426.641,21.246L427.363,21.573L428.086,21.262L428.809,21.952L429.531,22.796L430.254,21.957L430.977,21.97L431.699,21.573L432.422,21.611L433.145,20.735L433.867,22.308L434.59,21.552L435.313,21.216L436.035,21.731L436.758,21.448L437.48,22.107L438.203,21.245L438.926,21.013L439.648,21.503L440.371,21.556L441.094,21.058L441.816,20.487L442.539,21.004L443.262,21.104L443.984,21.34L444.707,21.054L445.43,21.03L446.152,21.414L446.875,20.907L447.598,20.564L448.32,20.586L449.043,21.223L449.766,20.837L450.488,20.682L451.211,20.779L451.934,20.657L452.656,20.586L453.379,20.636L454.102,20.458L454.824,20.493L455.547,20.511L456.27,20.658L456.992,20.638L457.715,20.387L458.438,20.327L459.16,20.267L459.883,20.563L460.605,20.419L461.328,20.36L462.051,20.446L462.773,20.476L463.496,20.452L464.219,20.417L464.941,20.406L465.664,20.41L466.387,20.406L467.109,20.339L467.832,20.425L468.555,20.306L469.277,20.283"/><path fill="none" stroke="rgb(149, 251, 81)" stroke-width="1.5" d="M100,115.965L100.723,116.272L101.445,116.503L102.168,116.82L102.891,116.865L103.613,117.228L104.336,117.548L105.059,117.805L105.781,118.161L106.504,118.283L107.227,118.713L107.949,118.95L108.672,119.273L109.395,119.597L110.117,119.973L110.84,120.31L111.563,120.576L112.285,120.9L113.008,121.101L113.73,121.544L114.453,121.906L115.176,122.275L115.898,122.58L116.621,123.039L117.344,123.313L118.066,123.715L118.789,124.198L119.512,124.637L120.234,124.901L120.957,125.448L121.68,125.833L122.402,126.366L123.125,126.807L123.848,127.16L124.57,127.604L125.293,128.12L126.016,128.501L126.738,129.037L127.461,129.51L128.184,130.098L128.906,130.592L129.629,130.962L130.352,131.615L131.074,132.245L131.797,132.838L132.52,133.234L133.242,133.829L133.965,134.374L134.688,135.045L135.41,135.693L136.133,136.161L136.855,136.791L137.578,137.446L138.301,138.189L139.023,138.847L139.746,139.539L140.469,140.146L141.191,140.753L141.914,141.567L142.637,142.13L143.359,142.781L144.082,143.507L144.805,144.348L145.527,145.091L146.25,145.649L146.973,146.332L147.695,147.127L148.418,147.835L149.141,148.736L149.863,149.161L150.586,150.049L151.309,150.663L152.031,151.12L152.754,151.929L153.477,152.756L154.199,153.296L154.922,153.945L155.645,154.4L156.367,155.177L157.09,155.746L157.813,156.391L158.535,156.814L159.258,157.529L159.98,157.936L160.703,158.331L161.426,158.699L162.148,159.038L162.871,159.539L163.594,160.048L164.316,160.336L165.039,160.537L165.762,160.948L166.484,161.046L167.207,161.111L167.93,161.284L168.652,161.451L169.375,161.467L170.098,161.424L170.82,161.489L171.543,161.347L172.266,161.354L172.988,161.076L173.711,160.881L174.434,160.472L175.156,160.176L175.879,159.844L176.602,159.279L177.324,158.982L178.047,158.368L178.77,157.998L179.492,157.189L180.215,156.477L180.938,155.88L181.66,155.061L182.383,154.196L183.105,153.317L183.828,152.487L184.551,151.644L185.273,150.361L185.996,149.318L186.719,148.125L187.441,147.34L188.164,145.812L188.887,144.863L189.609,143.485L190.332,142.01L191.055,140.877L191.777,139.549L192.5,138.067L193.223,136.719L193.945,135.212L194.668,133.612L195.391,132.227L196.113,130.666L196.836,129.041L197.559,127.441L198.281,126.024L199.004,124.35L199.727,122.781L200.449,121.205L201.172,119.477L201.895,117.826L202.617,116.242L203.34,114.3L204.063,112.842L204.785,111.052L205.508,109.39L206.23,107.629L206.953,105.905L207.676,104.395L208.398,102.534L209.121,101.042L209.844,98.981L210.566,97.645L211.289,95.772L212.012,93.957L212.734,92.352L213.457,90.72L214.18,89.205L214.902,87.425L215.625,85.787L216.348,84.179L217.07,82.39L217.793,80.863L218.516,79.349L219.238,77.927L219.961,76.086L220.684,74.475L221.406,72.903L222.129,71.342L222.852,69.925L223.574,68.362L224.297,66.929L225.02,65.506L225.742,63.95L226.465,62.485L227.188,61.073L227.91,59.608L228.633,58.296L229.355,57.008L230.078,55.745L230.801,54.397L231.523,52.997L232.246,51.826L232.969,50.544L233.691,49.445L234.414,48.126L235.137,47.144L235.859,45.921L236.582,44.631L237.305,43.446L238.027,42.488L238.75,41.386L239.473,40.396L240.195,39.374L240.918,38.529L241.641,37.405L242.363,36.356L243.086,36.159L243.809,38.017L244.531,39.975L245.254,42.042L245.977,44.139L246.699,46.054L247.422,47.975L248.145,47.598L248.867,47.122L249.59,46.716L250.313,46.5L251.035,46.057L251.758,45.657L252.48,45.324L253.203,45L253.926,44.594L254.648,44.425L255.371,44.122L256.094,43.776L256.816,43.347L257.539,43.166L258.262,42.884L258.984,42.565L259.707,42.247L260.43,41.907L261.152,41.752L261.875,41.421L262.598,40.991L263.32,40.956L264.043,40.636L264.766,40.469L265.488,40.172L266.211,39.98L266.934,39.75L267.656,39.396L268.379,39.353L269.102,39.143L269.824,38.913L270.547,38.687L271.27,38.569L271.992,38.298L272.715,38.151L273.438,37.943L274.16,37.736L274.883,37.572L275.605,37.401L276.328,37.138L277.051,37.008L277.773,36.857L278.496,36.669L279.219,36.534L279.941,36.289L280.664,36.082L281.387,35.961L282.109,35.676L282.832,35.417L283.555,35.375L284.277,35.093L285,34.953L285.723,34.77L286.445,34.605L287.168,34.539L287.891,34.178L288.613,34.042L289.336,33.775L290.059,33.66L290.781,33.522L291.504,33.325L292.227,33.128L292.949,32.971L293.672,32.75L294.395,32.643L295.117,32.456L295.84,32.276L296.563,32.123L297.285,31.998L298.008,31.825L298.73,31.659L299.453,31.583L300.176,31.452L300.898,31.266L301.621,31.069L302.344,30.972L303.066,30.83L303.789,30.664L304.512,30.581L305.234,30.432L305.957,30.262L306.68,30.182L307.402,30.076L308.125,29.906L308.848,29.755L309.57,29.649L310.293,29.48L311.016,29.428L311.738,29.414L312.461,29.294L313.184,29.188L313.906,29.115L314.629,28.972L315.352,28.854L316.074,28.794L316.797,28.679L317.52,28.582L318.242,28.513L318.965,28.414L319.688,28.273L320.41,28.229L321.133,28.158L321.855,28.098L322.578,28.087L323.301,27.953L324.023,27.785L324.746,27.767L325.469,27.71L326.191,27.584L326.914,27.56L327.637,27.488L328.359,27.482L329.082,27.297L329.805,27.349L330.527,27.252L331.25,27.099L331.973,27.065L332.695,26.94L333.418,26.92L334.141,26.896L334.863,26.746L335.586,26.779L336.309,26.536L337.031,26.521L337.754,26.445L338.477,26.416L339.199,26.228L339.922,26.173L340.645,26.166L341.367,26.083L342.09,25.912L342.813,25.868L343.535,25.854L344.258,25.752L344.98,25.705L345.703,25.599L346.426,25.508L347.148,25.371L347.871,25.322L348.594,25.218L349.316,25.153L350.039,25.014L350.762,24.959L351.484,24.89L352.207,24.856L352.93,24.686L353.652,24.625L354.375,24.517L355.098,24.51L355.82,24.39L356.543,24.339L357.266,24.173L357.988,24.067L358.711,24.031L359.434,23.995L360.156,23.848L360.879,23.759L361.602,23.67L362.324,23.613L363.047,23.509L363.77,23.511L364.492,23.419L365.215,23.21L365.938,23.214L366.66,23.113L367.383,23.123L368.105,22.987L368.828,22.881L369.551,22.752L370.273,22.739L370.996,22.688L371.719,22.624L372.441,22.508L373.164,22.486L373.887,22.421L374.609,22.325L375.332,22.233L376.055,22.192L376.777,22.129L377.5,22.155L378.223,22.026L378.945,22.013L379.668,21.944L380.391,21.896L381.113,21.812L381.836,21.748L382.559,21.722L383.281,21.623L384.004,21.586L384.727,21.58L385.449,21.478L386.172,21.475L386.895,21.388L387.617,21.444L388.34,21.329L389.063,21.265L389.785,21.257L390.508,21.282L391.23,21.22L391.953,21.136L392.676,21.145L393.398,21.107L394.121,21.07L394.844,21.085L395.566,21.027L396.289,20.972L397.012,20.955L397.734,20.91L398.457,20.947L399.18,20.887L399.902,20.834L400.625,20.821L401.348,20.831L402.07,20.812L402.793,20.771L403.516,20.756L404.238,20.752L404.961,20.694L405.684,20.673L406.406,20.664L407.129,20.66L407.852,20.648L408.574,20.627L409.297,20.658L410.02,20.622L410.742,20.571L411.465,20.55L412.188,20.559L412.91,20.571L413.633,20.506L414.355,20.503L415.078,20.496L415.801,20.507L416.523,20.514L417.246,20.46L417.969,20.485L418.691,20.466L419.414,20.458L420.137,20.466L420.859,20.463L421.582,20.453L422.305,20.424L423.027,20.385L423.75,20.396L424.473,20.418L425.195,20.391L425.918,20.396L426.641,20.401L427.363,20.415L428.086,20.367L428.809,20.351L429.531,20.36L430.254,20.371L430.977,20.39L431.699,20.353L432.422,20.366L433.145,20.37L433.867,20.353L434.59,20.365L435.313,20.332L436.035,20.34L436.758,20.321L437.48,20.324L438.203,20.324L438.926,20.326L439.648,20.319L440.371,20.318L441.094,20.321L441.816,20.307L442.539,20.3L443.262,20.328L443.984,20.329L444.707,20.296L445.43,20.302L446.152,20.318L446.875,20.305L447.598,20.294L448.32,20.303L449.043,20.31L449.766,20.304L450.488,20.291L451.211,20.287L451.934,20.296L452.656,20.287L453.379,20.291L454.102,20.295L454.824,20.276L455.547,20.285L456.27,20.272L456.992,20.288L457.715,20.295L458.438,20.282L459.16,20.278L459.883,20.281L460.605,20.277L461.328,20.274L462.051,20.274L462.773,20.284L463.496,20.277L464.219,20.276L464.941,20.269L465.664,20.274L466.387,20.271L467.109,20.269L467.832,20.263L468.555,20.268L469.277,20.27"/><path fill="none" stroke="rgb(236, 209, 46)" stroke-width="1.5" d="M100,114.993L100.723,115.264L101.445,115.477L102.168,115.841L102.891,116.051L103.613,116.25L104.336,116.647L105.059,116.895L105.781,117.105L106.504,117.429L107.227,117.553L107.949,117.838L108.672,118.21L109.395,118.562L110.117,118.824L110.84,119.142L111.563,119.364L112.285,119.761L113.008,120.099L113.73,120.369L114.453,120.757L115.176,121.106L115.898,121.484L116.621,121.838L117.344,122.118L118.066,122.51L118.789,122.952L119.512,123.401L120.234,123.643L120.957,124.145L121.68,124.725L122.402,125.126L123.125,125.564L123.848,125.861L124.57,126.331L125.293,126.71L126.016,127.157L126.738,127.682L127.461,128.095L128.184,128.489L128.906,128.915L129.629,129.547L130.352,129.809L131.074,130.53L131.797,130.929L132.52,131.281L133.242,131.917L133.965,132.249L134.688,132.824L135.41,133.336L136.133,133.762L136.855,134.334L137.578,134.682L138.301,135.163L139.023,135.588L139.746,135.984L140.469,136.371L141.191,136.829L141.914,137.227L142.637,137.569L143.359,137.924L144.082,138.373L144.805,138.77L145.527,138.791L146.25,139.092L146.973,139.359L147.695,139.642L148.418,139.958L149.141,140.139L149.863,140.386L150.586,140.363L151.309,140.551L152.031,140.639L152.754,140.636L153.477,140.831L154.199,140.721L154.922,140.68L155.645,140.554L156.367,140.51L157.09,140.42L157.813,139.948L158.535,139.838L159.258,139.743L159.98,139.357L160.703,138.935L161.426,138.515L162.148,138.247L162.871,137.579L163.594,137.129L164.316,136.562L165.039,136.045L165.762,135.322L166.484,134.519L167.207,134.004L167.93,133.137L168.652,132.228L169.375,131.472L170.098,130.633L170.82,129.838L171.543,128.926L172.266,127.804L172.988,126.825L173.711,125.87L174.434,124.605L175.156,123.542L175.879,122.246L176.602,121.058L177.324,119.866L178.047,118.644L178.77,117.499L179.492,116.077L180.215,114.831L180.938,113.556L181.66,112.218L182.383,110.875L183.105,109.311L183.828,108.114L184.551,106.57L185.273,105.092L185.996,103.614L186.719,102.354L187.441,100.729L188.164,99.211L188.887,97.784L189.609,96.326L190.332,94.877L191.055,93.318L191.777,91.781L192.5,90.248L193.223,88.939L193.945,87.361L194.668,85.904L195.391,84.428L196.113,82.964L196.836,81.428L197.559,79.943L198.281,78.459L199.004,76.997L199.727,75.567L200.449,74.024L201.172,72.581L201.895,71.225L202.617,69.773L203.34,68.193L204.063,66.962L204.785,65.574L205.508,64.136L206.23,62.741L206.953,61.337L207.676,60.076L208.398,58.664L209.121,57.447L209.844,56.177L210.566,54.923L211.289,53.484L212.012,52.228L212.734,51.151L213.457,49.842L214.18,48.666L214.902,47.458L215.625,46.194L216.348,45.119L217.07,43.952L217.793,42.859L218.516,41.803L219.238,40.611L219.961,39.512L220.684,38.627L221.406,37.585L222.129,36.485L222.852,35.472L223.574,34.619L224.297,33.591L225.02,32.656L225.742,31.673L226.465,30.81L227.188,29.971L227.91,29.042L228.633,30.809L229.355,32.816L230.078,34.931L230.801,36.899L231.523,38.996L232.246,41.208L232.969,41.381L233.691,41.014L234.414,40.757L235.137,40.56L235.859,40.191L236.582,39.865L237.305,39.555L238.027,39.359L238.75,39.007L239.473,38.825L240.195,38.504L240.918,38.202L241.641,37.918L242.363,37.661L243.086,37.382L243.809,37.193L244.531,36.993L245.254,36.611L245.977,36.375L246.699,36.254L247.422,35.97L248.145,35.628L248.867,35.472L249.59,35.283L250.313,35.07L251.035,34.846L251.758,34.639L252.48,34.386L253.203,34.157L253.926,33.967L254.648,33.776L255.371,33.69L256.094,33.367L256.816,33.212L257.539,33.078L258.262,32.937L258.984,32.746L259.707,32.636L260.43,32.558L261.152,32.367L261.875,32.204L262.598,32.042L263.32,31.964L264.043,31.895L264.766,31.712L265.488,31.76L266.211,31.618L266.934,31.576L267.656,31.499L268.379,31.376L269.102,31.365L269.824,31.219L270.547,31.255L271.27,31.13L271.992,31.055L272.715,31L273.438,30.98L274.16,30.925L274.883,30.835L275.605,30.883L276.328,30.803L277.051,30.798L277.773,30.736L278.496,30.733L279.219,30.642L279.941,30.646L280.664,30.568L281.387,30.506L282.109,30.423L282.832,30.371L283.555,30.403L284.277,30.304L285,30.207L285.723,30.157L286.445,30.128L287.168,30.059L287.891,29.943L288.613,29.911L289.336,29.823L290.059,29.794L290.781,29.715L291.504,29.61L292.227,29.497L292.949,29.422L293.672,29.351L294.395,29.314L295.117,29.249L295.84,29.117L296.563,28.993L297.285,28.98L298.008,28.923L298.73,28.812L299.453,28.704L300.176,28.659L300.898,28.529L301.621,28.532L302.344,28.416L303.066,28.321L303.789,28.247L304.512,28.237L305.234,28.099L305.957,27.974L306.68,27.895L307.402,27.866L308.125,27.815L308.848,27.735L309.57,27.693L310.293,27.516L311.016,27.532L311.738,27.44L312.461,27.382L313.184,27.272L313.906,27.21L314.629,27.171L315.352,27.115L316.074,27.011L316.797,26.979L317.52,26.862L318.242,26.893L318.965,26.817L319.688,26.754L320.41,26.692L321.133,26.661L321.855,26.569L322.578,26.475L323.301,26.476L324.023,26.385L324.746,26.377L325.469,26.33L326.191,26.251L326.914,26.202L327.637,26.193L328.359,26.168L329.082,26.069L329.805,26.04L330.527,25.951L331.25,25.909L331.973,25.876L332.695,25.843L333.418,25.762L334.141,25.728L334.863,25.595L335.586,25.615L336.309,25.544L337.031,25.506L337.754,25.502L338.477,25.381L339.199,25.385L339.922,25.345L340.645,25.25L341.367,25.235L342.09,25.178L342.813,25.079L343.535,25.035L344.258,24.977L344.98,24.976L345.703,24.809L346.426,24.809L347.148,24.703L347.871,24.64L348.594,24.677L349.316,24.57L350.039,24.478L350.762,24.433L351.484,24.395L352.207,24.295L352.93,24.204L353.652,24.206L354.375,24.102L355.098,24.025L355.82,23.982L356.543,23.887L357.266,23.832L357.988,23.741L358.711,23.715L359.434,23.633L360.156,23.545L360.879,23.504L361.602,23.439L362.324,23.374L363.047,23.284L363.77,23.219L364.492,23.127L365.215,23.072L365.938,22.998L366.66,22.934L367.383,22.862L368.105,22.821L368.828,22.777L369.551,22.67L370.273,22.643L370.996,22.538L371.719,22.473L372.441,22.443L373.164,22.378L373.887,22.308L374.609,22.247L375.332,22.203L376.055,22.133L376.777,22.065L377.5,22.013L378.223,21.94L378.945,21.9L379.668,21.875L380.391,21.801L381.113,21.775L381.836,21.724L382.559,21.667L383.281,21.623L384.004,21.571L384.727,21.532L385.449,21.482L386.172,21.436L386.895,21.385L387.617,21.361L388.34,21.324L389.063,21.298L389.785,21.249L390.508,21.205L391.23,21.207L391.953,21.135L392.676,21.119L393.398,21.07L394.121,21.057L394.844,21.037L395.566,21.002L396.289,20.962L397.012,20.943L397.734,20.901L398.457,20.91L399.18,20.871L399.902,20.808L400.625,20.808L401.348,20.798L402.07,20.753L402.793,20.749L403.516,20.733L404.238,20.734L404.961,20.696L405.684,20.679L406.406,20.659L407.129,20.636L407.852,20.643L408.574,20.615L409.297,20.605L410.02,20.596L410.742,20.575L411.465,20.559L412.188,20.556L412.91,20.536L413.633,20.53L414.355,20.521L415.078,20.514L415.801,20.499L416.523,20.487L417.246,20.483L417.969,20.474L418.691,20.465L419.414,20.459L420.137,20.448L420.859,20.433L421.582,20.429L422.305,20.43L423.027,20.419L423.75,20.412L424.473,20.405L425.195,20.399L425.918,20.392L426.641,20.387L427.363,20.383L428.086,20.38L428.809,20.371L429.531,20.376L430.254,20.365L430.977,20.362L431.699,20.351L432.422,20.355L433.145,20.346L433.867,20.345L434.59,20.345L435.313,20.335L436.035,20.342L436.758,20.334L437.48,20.33L438.203,20.327L438.926,20.322L439.648,20.32L440.371,20.316L441.094,20.308L441.816,20.313L442.539,20.312L443.262,20.308L443.984,20.308L444.707,20.306L445.43,20.305L446.152,20.301L446.875,20.298L447.598,20.303L448.32,20.294L449.043,20.295L449.766,20.295L450.488,20.293L451.211,20.289L451.934,20.289L452.656,20.292L453.379,20.285L454.102,20.285L454.824,20.286L455.547,20.285L456.27,20.283L456.992,20.28L457.715,20.279L458.438,20.284L459.16,20.281L459.883,20.279L460.605,20.277L461.328,20.277L462.051,20.278L462.773,20.275L463.496,20.273L464.219,20.272L464.941,20.273L465.664,20.273L466.387,20.272L467.109,20.271L467.832,20.27L468.555,20.269L469.277,20.269"/><path fill="none" stroke="rgb(255, 130, 29)" stroke-width="1.5" d="M100,115.311L100.723,115.497L101.445,115.803L102.168,116.067L102.891,116.239L103.613,116.536L104.336,116.956L105.059,117.2L105.781,117.458L106.504,117.814L107.227,118.042L107.949,118.389L108.672,118.654L109.395,118.996L110.117,119.2L110.84,119.559L111.563,119.719L112.285,119.997L113.008,120.255L113.73,120.573L114.453,120.851L115.176,121.122L115.898,121.255L116.621,121.538L117.344,121.763L118.066,122.015L118.789,122.103L119.512,122.323L120.234,122.495L120.957,122.714L121.68,122.628L122.402,122.826L123.125,122.968L123.848,122.951L124.57,123.104L125.293,123.086L126.016,123.12L126.738,123.077L127.461,122.952L128.184,122.807L128.906,122.879L129.629,122.659L130.352,122.607L131.074,122.42L131.797,122.209L132.52,121.989L133.242,121.622L133.965,121.245L134.688,120.941L135.41,120.51L136.133,120.096L136.855,119.697L137.578,119.237L138.301,118.729L139.023,118.26L139.746,117.526L140.469,117.103L141.191,116.379L141.914,115.719L142.637,114.918L143.359,114.137L144.082,113.426L144.805,112.609L145.527,111.572L146.25,110.838L146.973,110.005L147.695,109.104L148.418,108.051L149.141,107.021L149.863,106.136L150.586,105.193L151.309,103.862L152.031,102.978L152.754,101.709L153.477,100.673L154.199,99.566L154.922,98.264L155.645,97.275L156.367,95.986L157.09,94.849L157.813,93.493L158.535,92.206L159.258,91.123L159.98,89.81L160.703,88.425L161.426,87.291L162.148,85.919L162.871,84.658L163.594,83.343L164.316,82.084L165.039,80.731L165.762,79.53L166.484,78.236L167.207,76.76L167.93,75.496L168.652,74.249L169.375,72.804L170.098,71.523L170.82,70.305L171.543,68.966L172.266,67.644L172.988,66.348L173.711,65.069L174.434,63.86L175.156,62.552L175.879,61.147L176.602,59.968L177.324,58.696L178.047,57.459L178.77,56.152L179.492,54.991L180.215,53.581L180.938,52.472L181.66,51.402L182.383,49.982L183.105,48.799L183.828,47.76L184.551,46.6L185.273,45.251L185.996,44.272L186.719,43.059L187.441,41.966L188.164,40.875L188.887,39.796L189.609,38.681L190.332,37.689L191.055,36.567L191.777,35.536L192.5,34.534L193.223,33.518L193.945,32.619L194.668,31.63L195.391,30.644L196.113,29.717L196.836,28.696L197.559,27.871L198.281,27.009L199.004,26.155L199.727,25.659L200.449,27.584L201.172,29.714L201.895,31.84L202.617,33.89L203.34,35.967L204.063,38.063L204.785,38.105L205.508,37.767L206.23,37.448L206.953,37.259L207.676,37.052L208.398,36.81L209.121,36.441L209.844,36.287L210.566,36.127L211.289,35.833L212.012,35.73L212.734,35.437L213.457,35.198L214.18,35.062L214.902,34.928L215.625,34.681L216.348,34.433L217.07,34.347L217.793,34.147L218.516,33.937L219.238,33.768L219.961,33.637L220.684,33.536L221.406,33.28L222.129,33.198L222.852,33.058L223.574,32.977L224.297,32.79L225.02,32.733L225.742,32.539L226.465,32.328L227.188,32.297L227.91,32.266L228.633,32.143L229.355,32.062L230.078,31.856L230.801,31.737L231.523,31.729L232.246,31.636L232.969,31.463L233.691,31.341L234.414,31.351L235.137,31.281L235.859,31.141L236.582,31.047L237.305,31.03L238.027,30.922L238.75,30.851L239.473,30.746L240.195,30.647L240.918,30.706L241.641,30.596L242.363,30.483L243.086,30.446L243.809,30.312L244.531,30.37L245.254,30.179L245.977,30.172L246.699,30.209L247.422,30.162L248.145,30.059L248.867,29.936L249.59,29.918L250.313,29.893L251.035,29.835L251.758,29.821L252.48,29.736L253.203,29.728L253.926,29.674L254.648,29.609L255.371,29.606L256.094,29.547L256.816,29.537L257.539,29.493L258.262,29.426L258.984,29.466L259.707,29.44L260.43,29.394L261.152,29.439L261.875,29.361L262.598,29.355L263.32,29.281L264.043,29.364L264.766,29.262L265.488,29.338L266.211,29.259L266.934,29.287L267.656,29.363L268.379,29.342L269.102,29.323L269.824,29.362L270.547,29.366L271.27,29.412L271.992,29.426L272.715,29.417L273.438,29.45L274.16,29.422L274.883,29.413L275.605,29.472L276.328,29.457L277.051,29.484L277.773,29.454L278.496,29.53L279.219,29.555L279.941,29.429L280.664,29.496L281.387,29.48L282.109,29.49L282.832,29.438L283.555,29.5L284.277,29.417L285,29.407L285.723,29.362L286.445,29.332L287.168,29.288L287.891,29.263L288.613,29.18L289.336,29.169L290.059,29.084L290.781,29.115L291.504,28.944L292.227,28.975L292.949,28.879L293.672,28.831L294.395,28.773L295.117,28.698L295.84,28.624L296.563,28.533L297.285,28.512L298.008,28.424L298.73,28.323L299.453,28.287L300.176,28.22L300.898,28.126L301.621,28.083L302.344,27.962L303.066,27.914L303.789,27.818L304.512,27.794L305.234,27.681L305.957,27.599L306.68,27.545L307.402,27.466L308.125,27.361L308.848,27.335L309.57,27.295L310.293,27.218L311.016,27.128L311.738,27.074L312.461,27.052L313.184,26.963L313.906,26.824L314.629,26.868L315.352,26.764L316.074,26.706L316.797,26.628L317.52,26.642L318.242,26.506L318.965,26.444L319.688,26.361L320.41,26.338L321.133,26.339L321.855,26.268L322.578,26.202L323.301,26.178L324.023,26.125L324.746,26.069L325.469,26.03L326.191,25.982L326.914,25.933L327.637,25.848L328.359,25.838L329.082,25.806L329.805,25.745L330.527,25.698L331.25,25.668L331.973,25.612L332.695,25.605L333.418,25.559L334.141,25.468L334.863,25.46L335.586,25.402L336.309,25.392L337.031,25.325L337.754,25.283L338.477,25.209L339.199,25.216L339.922,25.153L340.645,25.128L341.367,25.072L342.09,25.045L342.813,24.938L343.535,24.934L344.258,24.911L344.98,24.872L345.703,24.85L346.426,24.746L347.148,24.723L347.871,24.655L348.594,24.59L349.316,24.549L350.039,24.478L350.762,24.474L351.484,24.408L352.207,24.292L352.93,24.29L353.652,24.211L354.375,24.173L355.098,24.11L355.82,24.051L356.543,24.002L357.266,23.934L357.988,23.864L358.711,23.763L359.434,23.71L360.156,23.674L360.879,23.581L361.602,23.552L362.324,23.474L363.047,23.405L363.77,23.34L364.492,23.263L365.215,23.189L365.938,23.141L366.66,23.094L367.383,23.012L368.105,22.94L368.828,22.859L369.551,22.803L370.273,22.753L370.996,22.707L371.719,22.635L372.441,22.571L373.164,22.529L373.887,22.443L374.609,22.386L375.332,22.316L376.055,22.277L376.777,22.216L377.5,22.146L378.223,22.11L378.945,22.023L379.668,21.991L380.391,21.934L381.113,21.912L381.836,21.842L382.559,21.797L383.281,21.719L384.004,21.711L384.727,21.624L385.449,21.612L386.172,21.559L386.895,21.503L387.617,21.473L388.34,21.42L389.063,21.416L389.785,21.377L390.508,21.306L391.23,21.268L391.953,21.243L392.676,21.23L393.398,21.168L394.121,21.15L394.844,21.105L395.566,21.095L396.289,21.046L397.012,21.019L397.734,20.99L398.457,20.971L399.18,20.94L399.902,20.906L400.625,20.86L401.348,20.871L402.07,20.845L402.793,20.822L403.516,20.805L404.238,20.794L404.961,20.755L405.684,20.748L406.406,20.725L407.129,20.697L407.852,20.674L408.574,20.674L409.297,20.657L410.02,20.641L410.742,20.623L411.465,20.601L412.188,20.578L412.91,20.583L413.633,20.576L414.355,20.557L415.078,20.544L415.801,20.548L416.523,20.519L417.246,20.496L417.969,20.499L418.691,20.49L419.414,20.479L420.137,20.482L420.859,20.465L421.582,20.455L422.305,20.455L423.027,20.437L423.75,20.44L424.473,20.429L425.195,20.414L425.918,20.416L426.641,20.414L427.363,20.401L428.086,20.395L428.809,20.388L429.531,20.383L430.254,20.379L430.977,20.38L431.699,20.373L432.422,20.366L433.145,20.368L433.867,20.358L434.59,20.351L435.313,20.347L436.035,20.345L436.758,20.344L437.48,20.339L438.203,20.339L438.926,20.33L439.648,20.336L440.371,20.329L441.094,20.325L441.816,20.32L442.539,20.319L443.262,20.32L443.984,20.317L444.707,20.317L445.43,20.311L446.152,20.309L446.875,20.306L447.598,20.306L448.32,20.302L449.043,20.301L449.766,20.302L450.488,20.302L451.211,20.298L451.934,20.294L452.656,20.296L453.379,20.293L454.102,20.292L454.824,20.288L455.547,20.289L456.27,20.285L456.992,20.287L457.715,20.288L458.438,20.282L459.16,20.283L459.883,20.28L460.605,20.279L461.328,20.283L462.051,20.279L462.773,20.278L463.496,20.276L464.219,20.279L464.941,20.277L465.664,20.278L466.387,20.273L467.109,20.273L467.832,20.273L468.555,20.27L469.277,20.271"/><path fill="none" stroke="rgb(203, 47, 13)" stroke-width="1.5" d="M100,25.878L100.723,25.666L101.445,25.473L102.168,25.229L102.891,25.059L103.613,24.785L104.336,24.567L105.059,24.396L105.781,24.069L106.504,26.765L107.227,29.266L107.949,32.053L108.672,34.666L109.395,37.264L110.117,39.937L110.84,40.607L111.563,40.923L112.285,41.203L113.008,41.418L113.73,41.719L114.453,41.821L115.176,42.007L115.898,42.328L116.621,42.477L117.344,42.686L118.066,42.852L118.789,43.173L119.512,43.33L120.234,43.489L120.957,43.648L121.68,43.769L122.402,43.992L123.125,44.154L123.848,44.232L124.57,44.469L125.293,44.558L126.016,44.663L126.738,44.819L127.461,45.008L128.184,45.112L128.906,45.139L129.629,45.161L130.352,45.464L131.074,45.501L131.797,45.555L132.52,45.734L133.242,45.766L133.965,45.849L134.688,45.847L135.41,46.03L136.133,45.92L136.855,46.031L137.578,46.161L138.301,46.167L139.023,46.301L139.746,46.328L140.469,46.464L141.191,46.284L141.914,46.296L142.637,46.366L143.359,46.429L144.082,46.459L144.805,46.404L145.527,46.491L146.25,46.54L146.973,46.467L147.695,46.51L148.418,46.581L149.141,46.582L149.863,46.534L150.586,46.539L151.309,46.56L152.031,46.411L152.754,46.371L153.477,46.46L154.199,46.273L154.922,46.319L155.645,46.348L156.367,46.321L157.09,46.316L157.813,46.207L158.535,46.132L159.258,46.196L159.98,46.04L160.703,45.902L161.426,46.027L162.148,45.879L162.871,45.882L163.594,45.766L164.316,45.71L165.039,45.728L165.762,45.626L166.484,45.632L167.207,45.497L167.93,45.413L168.652,45.361L169.375,45.241L170.098,45.173L170.82,45.218L171.543,45.09L172.266,44.945L172.988,44.864L173.711,44.807L174.434,44.693L175.156,44.641L175.879,44.496L176.602,44.457L177.324,44.381L178.047,44.288L178.77,44.148L179.492,44.177L180.215,44.008L180.938,43.922L181.66,43.753L182.383,43.694L183.105,43.531L183.828,43.404L184.551,43.462L185.273,43.238L185.996,43.257L186.719,43.094L187.441,43.034L188.164,42.968L188.887,42.655L189.609,42.697L190.332,42.636L191.055,42.579L191.777,42.296L192.5,42.286L193.223,42.181L193.945,42.076L194.668,41.891L195.391,41.862L196.113,41.744L196.836,41.627L197.559,41.527L198.281,41.393L199.004,41.246L199.727,41.07L200.449,40.984L201.172,40.839L201.895,40.774L202.617,40.754L203.34,40.608L204.063,40.449L204.785,40.363L205.508,40.304L206.23,40.186L206.953,39.968L207.676,39.947L208.398,39.891L209.121,39.667L209.844,39.597L210.566,39.398L211.289,39.38L212.012,39.223L212.734,39.07L213.457,39.02L214.18,38.888L214.902,38.782L215.625,38.664L216.348,38.565L217.07,38.442L217.793,38.392L218.516,38.271L219.238,38.182L219.961,37.972L220.684,37.895L221.406,37.838L222.129,37.625L222.852,37.543L223.574,37.556L224.297,37.355L225.02,37.231L225.742,37.241L226.465,37.072L227.188,37.026L227.91,36.99L228.633,36.72L229.355,36.609L230.078,36.594L230.801,36.518L231.523,36.409L232.246,36.347L232.969,36.117L233.691,36.152L234.414,36.011L235.137,35.91L235.859,35.88L236.582,35.704L237.305,35.7L238.027,35.528L238.75,35.412L239.473,35.348L240.195,35.373L240.918,35.224L241.641,35.157L242.363,35.14L243.086,34.901L243.809,34.938L244.531,34.778L245.254,34.749L245.977,34.619L246.699,34.513L247.422,34.559L248.145,34.362L248.867,34.306L249.59,34.269L250.313,34.144L251.035,34.096L251.758,33.962L252.48,33.925L253.203,33.857L253.926,33.777L254.648,33.702L255.371,33.713L256.094,33.614L256.816,33.522L257.539,33.491L258.262,33.445L258.984,33.325L259.707,33.261L260.43,33.174L261.152,33.189L261.875,33.089L262.598,33.089L263.32,33.083L264.043,33.013L264.766,32.97L265.488,32.999L266.211,32.898L266.934,32.86L267.656,32.885L268.379,32.839L269.102,32.773L269.824,32.724L270.547,32.818L271.27,32.752L271.992,32.84L272.715,32.698L273.438,32.785L274.16,32.713L274.883,32.71L275.605,32.676L276.328,32.699L277.051,32.64L277.773,32.632L278.496,32.604L279.219,32.59L279.941,32.564L280.664,32.596L281.387,32.53L282.109,32.391L282.832,32.424L283.555,32.359L284.277,32.329L285,32.256L285.723,32.236L286.445,32.224L287.168,32.08L287.891,32.021L288.613,31.958L289.336,31.874L290.059,31.847L290.781,31.728L291.504,31.668L292.227,31.609L292.949,31.518L293.672,31.399L294.395,31.32L295.117,31.208L295.84,31.114L296.563,30.984L297.285,30.932L298.008,30.896L298.73,30.698L299.453,30.63L300.176,30.576L300.898,30.418L301.621,30.446L302.344,30.234L303.066,30.177L303.789,30.082L304.512,29.978L305.234,29.871L305.957,29.784L306.68,29.73L307.402,29.543L308.125,29.516L308.848,29.399L309.57,29.339L310.293,29.258L311.016,29.157L311.738,29.101L312.461,28.985L313.184,28.899L313.906,28.796L314.629,28.734L315.352,28.638L316.074,28.54L316.797,28.479L317.52,28.424L318.242,28.38L318.965,28.256L319.688,28.243L320.41,28.102L321.133,28.07L321.855,28.025L322.578,27.92L323.301,27.895L324.023,27.835L324.746,27.724L325.469,27.657L326.191,27.626L326.914,27.502L327.637,27.477L328.359,27.495L329.082,27.362L329.805,27.256L330.527,27.252L331.25,27.189L331.973,27.179L332.695,27.096L333.418,27.023L334.141,26.99L334.863,26.902L335.586,26.843L336.309,26.852L337.031,26.77L337.754,26.673L338.477,26.666L339.199,26.514L339.922,26.491L340.645,26.428L341.367,26.414L342.09,26.274L342.813,26.25L343.535,26.247L344.258,26.123L344.98,26.115L345.703,26.072L346.426,25.926L347.148,25.901L347.871,25.894L348.594,25.774L349.316,25.747L350.039,25.671L350.762,25.586L351.484,25.514L352.207,25.442L352.93,25.337L353.652,25.296L354.375,25.218L355.098,25.163L355.82,25.056L356.543,24.958L357.266,24.929L357.988,24.871L358.711,24.762L359.434,24.715L360.156,24.646L360.879,24.566L361.602,24.493L362.324,24.37L363.047,24.303L363.77,24.265L364.492,24.159L365.215,24.086L365.938,23.954L366.66,23.905L367.383,23.868L368.105,23.714L368.828,23.664L369.551,23.568L370.273,23.432L370.996,23.464L371.719,23.322L372.441,23.299L373.164,23.196L373.887,23.126L374.609,23.064L375.332,23.016L376.055,22.921L376.777,22.853L377.5,22.782L378.223,22.689L378.945,22.63L379.668,22.566L380.391,22.508L381.113,22.438L381.836,22.352L382.559,22.317L383.281,22.202L384.004,22.168L384.727,22.116L385.449,22.061L386.172,22.012L386.895,21.951L387.617,21.928L388.34,21.843L389.063,21.77L389.785,21.729L390.508,21.681L391.23,21.667L391.953,21.604L392.676,21.565L393.398,21.539L394.121,21.47L394.844,21.434L395.566,21.388L396.289,21.335L397.012,21.306L397.734,21.276L398.457,21.226L399.18,21.221L399.902,21.176L400.625,21.129L401.348,21.104L402.07,21.068L402.793,21.031L403.516,21.025L404.238,21.001L404.961,20.956L405.684,20.929L406.406,20.886L407.129,20.9L407.852,20.847L408.574,20.845L409.297,20.825L410.02,20.803L410.742,20.78L411.465,20.766L412.188,20.74L412.91,20.717L413.633,20.704L414.355,20.685L415.078,20.68L415.801,20.66L416.523,20.653L417.246,20.62L417.969,20.614L418.691,20.596L419.414,20.587L420.137,20.572L420.859,20.568L421.582,20.552L422.305,20.542L423.027,20.516L423.75,20.519L424.473,20.512L425.195,20.493L425.918,20.495L426.641,20.484L427.363,20.463L428.086,20.467L428.809,20.457L429.531,20.44L430.254,20.444L430.977,20.438L431.699,20.427L432.422,20.414L433.145,20.425L433.867,20.409L434.59,20.401L435.313,20.408L436.035,20.396L436.758,20.395L437.48,20.387L438.203,20.383L438.926,20.375L439.648,20.37L440.371,20.363L441.094,20.367L441.816,20.357L442.539,20.357L443.262,20.351L443.984,20.347L444.707,20.342L445.43,20.344L446.152,20.342L446.875,20.34L447.598,20.331L448.32,20.332L449.043,20.326L449.766,20.328L450.488,20.321L451.211,20.318L451.934,20.315L452.656,20.317L453.379,20.306L454.102,20.311L454.824,20.307L455.547,20.307L456.27,20.301L456.992,20.306L457.715,20.3L458.438,20.297L459.16,20.296L459.883,20.296L460.605,20.294L461.328,20.294L462.051,20.292L462.773,20.29L463.496,20.289L464.219,20.288L464.941,20.286L465.664,20.283L466.387,20.281L467.109,20.283L467.832,20.284L468.555,20.281L469.277,20.278"/><g transform="translate(15,190) scale(1.7) rotate(-90)"><text>Drift</text></g><g transform="translate(315,395) scale(1.8)"><text></text></g><g transform="translate(0,350)" fill="none" font-size="10" font-family="sans-serif" text-anchor="middle"><path class="domain" stroke="currentColor" d="M100,6V0H470V6"/><g class="tick" opacity="1" transform="translate(136.96669666966696,0)"><line stroke="currentColor" y2="6"/><text fill="currentColor" y="9" dy="0.71em" font-size="20px"> </text></g><g class="tick" opacity="1" transform="translate(173.97039703970398,0)"><line stroke="currentColor" y2="6"/><text fill="currentColor" y="9" dy="0.71em" font-size="20px">20</text></g><g class="tick" opacity="1" transform="translate(210.97409740974098,0)"><line stroke="currentColor" y2="6"/><text fill="currentColor" y="9" dy="0.71em" font-size="20px"> </text></g><g class="tick" opacity="1" transform="translate(247.97779777977803,0)"><line stroke="currentColor" y2="6"/><text fill="currentColor" y="9" dy="0.71em" font-size="20px">40</text></g><g class="tick" opacity="1" transform="translate(284.981498149815,0)"><line stroke="currentColor" y2="6"/><text fill="currentColor" y="9" dy="0.71em" font-size="20px"> </text></g><g class="tick" opacity="1" transform="translate(321.985198519852,0)"><line stroke="currentColor" y2="6"/><text fill="currentColor" y="9" dy="0.71em" font-size="20px">60</text></g><g class="tick" opacity="1" transform="translate(358.988898889889,0)"><line stroke="currentColor" y2="6"/><text fill="currentColor" y="9" dy="0.71em" font-size="20px"> </text></g><g class="tick" opacity="1" transform="translate(395.992599259926,0)"><line stroke="currentColor" y2="6"/><text fill="currentColor" y="9" dy="0.71em" font-size="20px">80</text></g><g class="tick" opacity="1" transform="translate(432.996299629963,0)"><line stroke="currentColor" y2="6"/><text fill="currentColor" y="9" dy="0.71em" font-size="20px"> </text></g><g class="tick" opacity="1" transform="translate(470,0)"><line stroke="currentColor" y2="6"/><text fill="currentColor" y="9" dy="0.71em" font-size="20px">100</text></g></g><g transform="translate(100,0)" fill="none" font-size="10" font-family="sans-serif" text-anchor="end"><path class="domain" stroke="currentColor" d="M-6,350H0V20H-6"/><g class="tick" opacity="1" transform="translate(0,326.575906915624)"><line stroke="currentColor" x2="-6"/><text fill="currentColor" x="-9" dy="0.32em" font-size="20px">0.60</text></g><g class="tick" opacity="1" transform="translate(0,300.32002673594025)"><line stroke="currentColor" x2="-6"/><text fill="currentColor" x="-9" dy="0.32em" font-size="20px">0.55</text></g><g class="tick" opacity="1" transform="translate(0,274.0641465562565)"><line stroke="currentColor" x2="-6"/><text fill="currentColor" x="-9" dy="0.32em" font-size="20px">0.50</text></g><g class="tick" opacity="1" transform="translate(0,247.80826637657267)"><line stroke="currentColor" x2="-6"/><text fill="currentColor" x="-9" dy="0.32em" font-size="20px">0.45</text></g><g class="tick" opacity="1" transform="translate(0,221.5523861968889)"><line stroke="currentColor" x2="-6"/><text fill="currentColor" x="-9" dy="0.32em" font-size="20px">0.40</text></g><g class="tick" opacity="1" transform="translate(0,195.2965060172051)"><line stroke="currentColor" x2="-6"/><text fill="currentColor" x="-9" dy="0.32em" font-size="20px">0.35</text></g><g class="tick" opacity="1" transform="translate(0,169.04062583752133)"><line stroke="currentColor" x2="-6"/><text fill="currentColor" x="-9" dy="0.32em" font-size="20px">0.30</text></g><g class="tick" opacity="1" transform="translate(0,142.78474565783756)"><line stroke="currentColor" x2="-6"/><text fill="currentColor" x="-9" dy="0.32em" font-size="20px">0.25</text></g><g class="tick" opacity="1" transform="translate(0,116.52886547815376)"><line stroke="currentColor" x2="-6"/><text fill="currentColor" x="-9" dy="0.32em" font-size="20px">0.20</text></g><g class="tick" opacity="1" transform="translate(0,90.27298529846998)"><line stroke="currentColor" x2="-6"/><text fill="currentColor" x="-9" dy="0.32em" font-size="20px">0.15</text></g><g class="tick" opacity="1" transform="translate(0,64.01710511878619)"><line stroke="currentColor" x2="-6"/><text fill="currentColor" x="-9" dy="0.32em" font-size="20px">0.10</text></g><g class="tick" opacity="1" transform="translate(0,37.76122493910245)"><line stroke="currentColor" x2="-6"/><text fill="currentColor" x="-9" dy="0.32em" font-size="20px">0.05</text></g></g><circle cx="355" cy="150" r="8" style="fill: rgb(35, 23, 27);"/><circle cx="355" cy="175" r="8" style="fill: rgb(69, 105, 238);"/><circle cx="355" cy="200" r="8" style="fill: rgb(38, 188, 225);"/><circle cx="355" cy="225" r="8" style="fill: rgb(63, 243, 147);"/><circle cx="355" cy="250" r="8" style="fill: rgb(149, 251, 81);"/><circle cx="355" cy="275" r="8" style="fill: rgb(236, 209, 46);"/><circle cx="355" cy="300" r="8" style="fill: rgb(255, 130, 29);"/><circle cx="355" cy="325" r="8" style="fill: rgb(203, 47, 13);"/><text x="370" y="150" text-anchor="left" font-size="22" alignment-baseline="middle" style="fill: rgb(35, 23, 27);"> = 0</text><text x="370" y="175" text-anchor="left" font-size="22" alignment-baseline="middle" style="fill: rgb(69, 105, 238);"> = 0.22</text><text x="370" y="200" text-anchor="left" font-size="22" alignment-baseline="middle" style="fill: rgb(38, 188, 225);"> = 0.45</text><text x="370" y="225" text-anchor="left" font-size="22" alignment-baseline="middle" style="fill: rgb(63, 243, 147);"> = 0.67</text><text x="370" y="250" text-anchor="left" font-size="22" alignment-baseline="middle" style="fill: rgb(149, 251, 81);"> = 0.9</text><text x="370" y="275" text-anchor="left" font-size="22" alignment-baseline="middle" style="fill: rgb(236, 209, 46);"> = 1.12</text><text x="370" y="300" text-anchor="left" font-size="22" alignment-baseline="middle" style="fill: rgb(255, 130, 29);"> = 1.35</text><text x="370" y="325" text-anchor="left" font-size="22" alignment-baseline="middle" style="fill: rgb(203, 47, 13);"> = 1.57</text></svg>