<svg xmlns="http://www.w3.org/2000/svg" class="bg-white" width="500" height="400" viewBox="-10 -1 500 400"><path fill="none" stroke="rgb(35, 23, 27)" stroke-width="1.5" d="M100,145.585L100.723,146.076L101.445,146.48L102.168,147.262L102.891,147.806L103.613,148.36L104.336,149.047L105.059,149.478L105.781,150.309L106.504,150.946L107.227,151.602L107.949,152.328L108.672,152.956L109.395,153.659L110.117,154.502L110.84,155.332L111.563,156.059L112.285,156.748L113.008,157.658L113.73,158.397L114.453,159.327L115.176,160.112L115.898,161.058L116.621,161.934L117.344,163.044L118.066,163.928L118.789,164.976L119.512,165.827L120.234,167.004L120.957,168.088L121.68,169.171L122.402,170.422L123.125,171.614L123.848,172.784L124.57,174.112L125.293,175.301L126.016,176.645L126.738,177.926L127.461,179.516L128.184,180.91L128.906,182.461L129.629,183.96L130.352,185.522L131.074,187.283L131.797,189.16L132.52,190.937L133.242,192.688L133.965,194.698L134.688,196.71L135.41,198.754L136.133,201.052L136.855,203.201L137.578,205.585L138.301,207.957L139.023,210.41L139.746,212.978L140.469,215.635L141.191,218.29L141.914,221.098L142.637,223.937L143.359,226.958L144.082,229.992L144.805,233.166L145.527,236.114L146.25,239.46L146.973,242.765L147.695,246.103L148.418,249.418L149.141,252.897L149.863,256.484L150.586,259.753L151.309,263.403L152.031,266.9L152.754,270.533L153.477,274.278L154.199,277.525L154.922,281.444L155.645,284.885L156.367,288.232L157.09,291.898L157.813,295.591L158.535,298.556L159.258,302.092L159.98,305.278L160.703,308.527L161.426,311.472L162.148,314.722L162.871,317.588L163.594,320.496L164.316,323.214L165.039,325.96L165.762,328.422L166.484,330.735L167.207,333.102L167.93,335.241L168.652,337.302L169.375,339.201L170.098,340.348L170.82,342.46L171.543,343.76L172.266,345.056L172.988,346.399L173.711,347.111L174.434,347.953L175.156,348.745L175.879,349.199L176.602,349.593L177.324,349.686L178.047,349.92L178.77,350L179.492,349.545L180.215,349.192L180.938,349.001L181.66,348.144L182.383,347.235L183.105,346.693L183.828,345.32L184.551,344.108L185.273,342.924L185.996,341.497L186.719,339.771L187.441,338.571L188.164,336.331L188.887,334.412L189.609,332.817L190.332,330.776L191.055,328.037L191.777,325.994L192.5,323.709L193.223,320.87L193.945,318.553L194.668,315.924L195.391,312.99L196.113,310.431L196.836,307.905L197.559,305.16L198.281,302.112L199.004,298.763L199.727,296.19L200.449,292.768L201.172,289.704L201.895,286.581L202.617,283.742L203.34,280.867L204.063,277.242L204.785,273.926L205.508,270.61L206.23,267.658L206.953,264.368L207.676,261.125L208.398,257.648L209.121,254.457L209.844,251.199L210.566,247.545L211.289,244.574L212.012,241.756L212.734,238.224L213.457,234.923L214.18,231.223L214.902,228.787L215.625,225.647L216.348,222.373L217.07,218.791L217.793,215.687L218.516,212.675L219.238,209.104L219.961,206.795L220.684,203.751L221.406,200.458L222.129,197.205L222.852,194.46L223.574,191.486L224.297,188.35L225.02,185.696L225.742,182.799L226.465,179.668L227.188,177.068L227.91,174.407L228.633,171.395L229.355,168.66L230.078,165.865L230.801,162.907L231.523,160.437L232.246,157.08L232.969,155.109L233.691,152.509L234.414,149.622L235.137,147.383L235.859,144.932L236.582,142.484L237.305,139.574L238.027,137.273L238.75,135.128L239.473,132.749L240.195,130.37L240.918,127.573L241.641,125.657L242.363,123.305L243.086,121.064L243.809,118.527L244.531,118.197L245.254,118.523L245.977,119.223L246.699,119.702L247.422,120.128L248.145,120.946L248.867,120.277L249.59,118.779L250.313,117.243L251.035,115.756L251.758,113.588L252.48,112.478L253.203,110.981L253.926,109.455L254.648,108.007L255.371,106.614L256.094,105.068L256.816,103.673L257.539,102.254L258.262,100.845L258.984,99.472L259.707,98.228L260.43,96.625L261.152,95.545L261.875,94.288L262.598,92.893L263.32,91.638L264.043,90.385L264.766,89.339L265.488,88.092L266.211,86.936L266.934,85.68L267.656,84.572L268.379,83.452L269.102,82.151L269.824,81.465L270.547,79.934L271.27,79.086L271.992,77.985L272.715,76.985L273.438,75.911L274.16,74.933L274.883,74.084L275.605,72.865L276.328,71.883L277.051,71.118L277.773,70.244L278.496,69.242L279.219,68.265L279.941,67.236L280.664,66.509L281.387,65.604L282.109,64.765L282.832,63.863L283.555,63.131L284.277,62.271L285,61.577L285.723,60.754L286.445,60.011L287.168,59.297L287.891,58.528L288.613,57.791L289.336,57.014L290.059,56.362L290.781,55.567L291.504,54.887L292.227,54.131L292.949,53.595L293.672,52.852L294.395,52.377L295.117,51.602L295.84,51.022L296.563,50.218L297.285,49.821L298.008,49.398L298.73,48.736L299.453,48.05L300.176,47.566L300.898,47.01L301.621,46.431L302.344,45.794L303.066,45.478L303.789,44.971L304.512,44.346L305.234,43.752L305.957,43.324L306.68,42.736L307.402,42.347L308.125,41.836L308.848,41.503L309.57,40.922L310.293,40.585L311.016,39.979L311.738,39.57L312.461,39.226L313.184,38.818L313.906,38.251L314.629,38.163L315.352,37.621L316.074,37.413L316.797,36.883L317.52,36.405L318.242,36.204L318.965,35.725L319.688,35.336L320.41,34.897L321.133,34.818L321.855,34.314L322.578,33.992L323.301,33.648L324.023,33.431L324.746,33.042L325.469,32.927L326.191,32.479L326.914,32.144L327.637,31.95L328.359,31.495L329.082,31.373L329.805,31.095L330.527,30.832L331.25,30.496L331.973,30.199L332.695,30.058L333.418,29.871L334.141,29.754L334.863,29.205L335.586,29.111L336.309,28.969L337.031,28.716L337.754,28.4L338.477,28.306L339.199,27.899L339.922,27.885L340.645,27.553L341.367,27.482L342.09,27.2L342.813,26.938L343.535,26.959L344.258,26.553L344.98,26.515L345.703,26.415L346.426,26.204L347.148,26.054L347.871,25.892L348.594,25.475L349.316,25.306L350.039,25.41L350.762,25.288L351.484,24.995L352.207,24.851L352.93,24.643L353.652,24.553L354.375,24.653L355.098,23.959L355.82,24.152L356.543,24.08L357.266,24.075L357.988,23.775L358.711,23.519L359.434,23.635L360.156,23.372L360.879,23.443L361.602,23.294L362.324,23.293L363.047,22.846L363.77,23.134L364.492,22.791L365.215,22.65L365.938,22.564L366.66,22.341L367.383,22.553L368.105,22.403L368.828,22.346L369.551,22.353L370.273,22.461L370.996,22.102L371.719,22.116L372.441,22.079L373.164,22.129L373.887,21.892L374.609,22.366L375.332,22.099L376.055,21.703L376.777,21.408L377.5,21.217L378.223,21.353L378.945,21.655L379.668,21.31L380.391,21.289L381.113,21.417L381.836,21.267L382.559,21.325L383.281,21.143L384.004,20.932L384.727,21.553L385.449,21.305L386.172,21.493L386.895,21.24L387.617,21.52L388.34,21.935L389.063,21.434L389.785,21.188L390.508,21.275L391.23,21.123L391.953,21.869L392.676,21.399L393.398,21.399L394.121,21.63L394.844,21.531L395.566,21.393L396.289,21.365L397.012,21.243L397.734,21.436L398.457,21.368L399.18,21.574L399.902,20.838L400.625,22.706L401.348,22.527L402.07,22.102L402.793,22.168L403.516,21.731L404.238,22.22L404.961,23.006L405.684,23.217L406.406,23.761L407.129,23.456L407.852,24.614L408.574,23.733L409.297,25.725L410.02,25.03L410.742,23.256L411.465,24.271L412.188,23.909L412.91,25.45L413.633,25.294L414.355,25.977L415.078,26.897L415.801,27.79L416.523,27.288L417.246,27.47L417.969,27.667L418.691,29.982L419.414,27.527L420.137,28.94L420.859,28.894L421.582,28.202L422.305,29.135L423.027,28.471L423.75,29.785L424.473,29.814L425.195,28.894L425.918,28.473L426.641,28.925L427.363,29.561L428.086,28.946L428.809,28.294L429.531,27.377L430.254,27.566L430.977,27.042L431.699,27.266L432.422,27.336L433.145,26.189L433.867,25.816L434.59,26.47L435.313,25.344L436.035,25.421L436.758,25.06L437.48,24.982L438.203,25.352L438.926,24.389L439.648,23.897L440.371,24.587L441.094,23.121L441.816,23.902L442.539,23.624L443.262,23.419L443.984,23.533L444.707,22.933L445.43,23.076L446.152,22.803L446.875,22.461L447.598,22.305L448.32,22.225L449.043,22.274L449.766,21.953L450.488,21.942L451.211,21.558L451.934,21.16L452.656,21.719L453.379,21.026L454.102,21.235L454.824,21.278L455.547,21.307L456.27,21.262L456.992,21.023L457.715,20.975L458.438,20.741L459.16,20.923L459.883,20.807L460.605,20.653L461.328,20.555L462.051,20.757L462.773,20.711L463.496,20.528L464.219,20.601L464.941,20.581L465.664,20.556L466.387,20.34L467.109,20.385L467.832,20.469L468.555,20.229L469.277,20.261"/><path fill="none" stroke="rgb(69, 105, 238)" stroke-width="1.5" d="M100,144.841L100.723,145.445L101.445,146.104L102.168,146.701L102.891,147.089L103.613,147.745L104.336,148.301L105.059,149.077L105.781,149.572L106.504,150.171L107.227,150.79L107.949,151.565L108.672,152.238L109.395,152.881L110.117,153.614L110.84,154.456L111.563,154.929L112.285,155.885L113.008,156.604L113.73,157.427L114.453,158.367L115.176,159.014L115.898,159.979L116.621,160.591L117.344,161.559L118.066,162.722L118.789,163.678L119.512,164.597L120.234,165.519L120.957,166.459L121.68,167.711L122.402,168.971L123.125,169.52L123.848,170.689L124.57,171.96L125.293,173.023L126.016,174.316L126.738,175.843L127.461,176.896L128.184,178.268L128.906,179.551L129.629,180.857L130.352,182.297L131.074,183.924L131.797,185.439L132.52,186.902L133.242,188.26L133.965,190.095L134.688,191.738L135.41,193.548L136.133,195.07L136.855,196.795L137.578,198.708L138.301,200.697L139.023,202.803L139.746,204.315L140.469,206.533L141.191,208.286L141.914,210.35L142.637,212.359L143.359,214.696L144.082,216.671L144.805,218.789L145.527,221.115L146.25,223.167L146.973,225.635L147.695,227.505L148.418,230.128L149.141,232.528L149.863,234.442L150.586,236.943L151.309,239.047L152.031,241.251L152.754,243.644L153.477,245.971L154.199,248.363L154.922,250.477L155.645,252.741L156.367,254.84L157.09,256.814L157.813,258.859L158.535,260.954L159.258,262.995L159.98,264.806L160.703,267.414L161.426,268.875L162.148,270.641L162.871,272.101L163.594,274.025L164.316,275.689L165.039,277L165.762,278.551L166.484,279.784L167.207,280.914L167.93,281.935L168.652,283.431L169.375,283.683L170.098,284.745L170.82,285.767L171.543,286.296L172.266,286.923L172.988,287.091L173.711,287.199L174.434,287.613L175.156,287.681L175.879,287.636L176.602,288.116L177.324,287.383L178.047,286.798L178.77,286.351L179.492,286.114L180.215,285.592L180.938,284.397L181.66,283.819L182.383,282.994L183.105,281.877L183.828,280.726L184.551,279.426L185.273,278.342L185.996,276.442L186.719,274.949L187.441,273.38L188.164,271.985L188.887,270.353L189.609,268.508L190.332,266.423L191.055,264.74L191.777,262.69L192.5,260.568L193.223,258.375L193.945,256.151L194.668,254.075L195.391,251.446L196.113,249.464L196.836,246.97L197.559,244.247L198.281,241.707L199.004,239.164L199.727,236.882L200.449,234.318L201.172,231.906L201.895,229.021L202.617,226.378L203.34,223.918L204.063,221.35L204.785,218.481L205.508,216.1L206.23,212.967L206.953,210.294L207.676,207.952L208.398,204.938L209.121,202.296L209.844,199.681L210.566,197.057L211.289,194.156L212.012,191.83L212.734,188.771L213.457,186.15L214.18,183.531L214.902,180.918L215.625,178.596L216.348,175.666L217.07,173.035L217.793,170.379L218.516,168.026L219.238,165.76L219.961,162.73L220.684,160.213L221.406,157.584L222.129,155.254L222.852,153.06L223.574,150.339L224.297,147.807L225.02,145.64L225.742,143.204L226.465,140.776L227.188,138.268L227.91,136.075L228.633,133.687L229.355,131.529L230.078,129.407L230.801,126.824L231.523,124.622L232.246,122.807L232.969,120.381L233.691,118.396L234.414,116.239L235.137,114.061L235.859,111.892L236.582,110.24L237.305,108.025L238.027,106.007L238.75,104.126L239.473,101.939L240.195,100.078L240.918,98.177L241.641,96.137L242.363,94.475L243.086,92.518L243.809,92.933L244.531,93.876L245.254,95.134L245.977,95.915L246.699,96.855L247.422,97.76L248.145,96.944L248.867,95.824L249.59,94.452L250.313,93.203L251.035,92.223L251.758,90.976L252.48,89.833L253.203,88.628L253.926,87.587L254.648,86.456L255.371,85.386L256.094,84.241L256.816,83.091L257.539,82.155L258.262,81.072L258.984,80.134L259.707,79.202L260.43,78.115L261.152,77.33L261.875,76.295L262.598,75.207L263.32,74.336L264.043,73.656L264.766,72.694L265.488,71.644L266.211,71.087L266.934,70.269L267.656,69.324L268.379,68.587L269.102,67.868L269.824,67.095L270.547,66.253L271.27,65.517L271.992,64.946L272.715,64.15L273.438,63.464L274.16,62.827L274.883,62.024L275.605,61.278L276.328,60.717L277.051,60.001L277.773,59.422L278.496,58.715L279.219,57.992L279.941,57.478L280.664,56.958L281.387,56.26L282.109,55.597L282.832,55.191L283.555,54.588L284.277,53.894L285,53.35L285.723,52.877L286.445,52.299L287.168,51.79L287.891,51.224L288.613,50.628L289.336,50.032L290.059,49.635L290.781,49.255L291.504,48.586L292.227,48.169L292.949,47.721L293.672,46.979L294.395,46.765L295.117,46.262L295.84,45.709L296.563,45.341L297.285,44.8L298.008,44.36L298.73,43.926L299.453,43.674L300.176,43.112L300.898,42.754L301.621,42.326L302.344,41.944L303.066,41.518L303.789,41.054L304.512,40.488L305.234,40.284L305.957,39.962L306.68,39.476L307.402,39.096L308.125,38.759L308.848,38.43L309.57,38.091L310.293,37.811L311.016,37.529L311.738,37.203L312.461,36.814L313.184,36.429L313.906,36.046L314.629,35.662L315.352,35.409L316.074,35.208L316.797,34.884L317.52,34.535L318.242,34.298L318.965,34.125L319.688,33.768L320.41,33.35L321.133,33.185L321.855,32.854L322.578,32.52L323.301,32.513L324.023,32.097L324.746,32.031L325.469,31.566L326.191,31.428L326.914,31.145L327.637,30.92L328.359,30.632L329.082,30.526L329.805,30.163L330.527,29.93L331.25,29.8L331.973,29.316L332.695,29.285L333.418,29.049L334.141,29.117L334.863,28.827L335.586,28.438L336.309,28.297L337.031,28.015L337.754,27.861L338.477,27.439L339.199,27.528L339.922,27.49L340.645,27.165L341.367,27.112L342.09,26.562L342.813,26.67L343.535,26.314L344.258,25.968L344.98,26.151L345.703,26.027L346.426,26.069L347.148,25.814L347.871,25.416L348.594,25.204L349.316,25.344L350.039,25.059L350.762,24.964L351.484,24.589L352.207,24.663L352.93,24.505L353.652,24.147L354.375,23.93L355.098,23.801L355.82,23.972L356.543,24.311L357.266,23.562L357.988,24.023L358.711,24.083L359.434,23.255L360.156,23.284L360.879,23.115L361.602,23.594L362.324,22.987L363.047,22.8L363.77,23.024L364.492,22.525L365.215,23.339L365.938,22.792L366.66,22.847L367.383,22.455L368.105,22.364L368.828,22.266L369.551,22.623L370.273,21.941L370.996,21.687L371.719,22.327L372.441,21.516L373.164,22.038L373.887,21.935L374.609,21.32L375.332,21.405L376.055,21.26L376.777,22.259L377.5,21.989L378.223,22.054L378.945,21.523L379.668,21.662L380.391,21.447L381.113,21.298L381.836,21.097L382.559,21.551L383.281,20.973L384.004,21.322L384.727,21.983L385.449,20.973L386.172,22.433L386.895,21.092L387.617,21.384L388.34,21.092L389.063,20.943L389.785,22.078L390.508,20.42L391.23,21.677L391.953,21.124L392.676,21.27L393.398,20.94L394.121,20.966L394.844,20.845L395.566,21.32L396.289,21.706L397.012,21.231L397.734,21.568L398.457,21.238L399.18,21.886L399.902,20.724L400.625,21.806L401.348,21.627L402.07,21.347L402.793,22.776L403.516,23.363L404.238,23.214L404.961,21.894L405.684,23.07L406.406,22.78L407.129,22.358L407.852,23.202L408.574,23.951L409.297,23.693L410.02,24.724L410.742,24.384L411.465,24.579L412.188,24.759L412.91,24.704L413.633,26.218L414.355,24.631L415.078,24.661L415.801,25.953L416.523,25.549L417.246,26.821L417.969,27.959L418.691,26.679L419.414,28.177L420.137,27.254L420.859,27.599L421.582,26.666L422.305,27.021L423.027,28.255L423.75,27.206L424.473,28.105L425.195,28.389L425.918,27.184L426.641,28.064L427.363,27.013L428.086,28.444L428.809,27.97L429.531,26.48L430.254,26.743L430.977,26.61L431.699,26.091L432.422,25.815L433.145,25.958L433.867,25.805L434.59,26.303L435.313,25.634L436.035,25.194L436.758,25.138L437.48,24.349L438.203,23.661L438.926,24.024L439.648,24.62L440.371,23.526L441.094,23.479L441.816,23.355L442.539,23.349L443.262,23.155L443.984,23.154L444.707,23.005L445.43,22.847L446.152,22.015L446.875,22.265L447.598,21.974L448.32,22.094L449.043,21.855L449.766,21.67L450.488,21.188L451.211,21.369L451.934,21.463L452.656,21.262L453.379,21.153L454.102,21.096L454.824,21.273L455.547,21.123L456.27,20.936L456.992,20.8L457.715,20.821L458.438,20.596L459.16,20.563L459.883,20.675L460.605,20.743L461.328,20.428L462.051,20.613L462.773,20.473L463.496,20.545L464.219,20.449L464.941,20.591L465.664,20.462L466.387,20.42L467.109,20.449L467.832,20.299L468.555,20.35L469.277,20.339"/><path fill="none" stroke="rgb(38, 188, 225)" stroke-width="1.5" d="M100,143.171L100.723,143.689L101.445,144.142L102.168,144.758L102.891,145.284L103.613,145.718L104.336,146.39L105.059,146.959L105.781,147.303L106.504,147.961L107.227,148.56L107.949,149.102L108.672,149.846L109.395,150.351L110.117,150.989L110.84,151.564L111.563,152.526L112.285,152.824L113.008,153.812L113.73,154.385L114.453,155.026L115.176,155.903L115.898,156.713L116.621,157.181L117.344,158.014L118.066,158.681L118.789,159.994L119.512,160.617L120.234,161.47L120.957,162.451L121.68,163.253L122.402,164.016L123.125,164.859L123.848,166.05L124.57,167.028L125.293,168.101L126.016,169.019L126.738,170.217L127.461,171.166L128.184,172.297L128.906,173.469L129.629,174.4L130.352,175.473L131.074,176.625L131.797,177.889L132.52,179.039L133.242,180.16L133.965,181.578L134.688,182.741L135.41,184.167L136.133,185.713L136.855,186.92L137.578,188.348L138.301,189.532L139.023,191.099L139.746,192.579L140.469,193.898L141.191,195.551L141.914,196.98L142.637,198.427L143.359,199.855L144.082,201.363L144.805,202.819L145.527,204.3L146.25,205.769L146.973,207.374L147.695,208.779L148.418,210.455L149.141,211.638L149.863,213.359L150.586,214.743L151.309,216.09L152.031,217.521L152.754,218.838L153.477,220.378L154.199,221.883L154.922,223.133L155.645,224.039L156.367,225.636L157.09,226.821L157.813,227.831L158.535,229.369L159.258,229.899L159.98,231.547L160.703,232.419L161.426,233.066L162.148,233.987L162.871,234.995L163.594,235.368L164.316,236.097L165.039,236.756L165.762,237.56L166.484,237.697L167.207,238.158L167.93,238.758L168.652,238.841L169.375,238.882L170.098,239.067L170.82,239.172L171.543,239.162L172.266,238.726L172.988,238.516L173.711,238.323L174.434,237.913L175.156,237.405L175.879,237.124L176.602,236.243L177.324,235.682L178.047,234.726L178.77,234.062L179.492,232.582L180.215,231.702L180.938,230.982L181.66,229.52L182.383,228.346L183.105,227.25L183.828,225.849L184.551,224.292L185.273,222.693L185.996,221.182L186.719,219.585L187.441,218.001L188.164,216.358L188.887,214.646L189.609,212.651L190.332,210.793L191.055,209.011L191.777,207.233L192.5,205.013L193.223,202.756L193.945,201.007L194.668,198.849L195.391,196.637L196.113,194.387L196.836,192.523L197.559,190.063L198.281,187.886L199.004,185.792L199.727,183.526L200.449,181.425L201.172,179.12L201.895,176.832L202.617,174.783L203.34,172.191L204.063,170.025L204.785,167.627L205.508,165.246L206.23,163.096L206.953,160.732L207.676,158.432L208.398,156.044L209.121,154.088L209.844,151.583L210.566,149.458L211.289,147.361L212.012,144.844L212.734,142.702L213.457,140.501L214.18,138.183L214.902,136.099L215.625,133.895L216.348,131.713L217.07,129.459L217.793,127.343L218.516,125.294L219.238,123.221L219.961,121.096L220.684,119.034L221.406,117.086L222.129,115.074L222.852,112.961L223.574,111.011L224.297,109.194L225.02,106.967L225.742,105.154L226.465,103.096L227.188,101.244L227.91,99.292L228.633,97.693L229.355,95.765L230.078,93.644L230.801,92.034L231.523,90.163L232.246,88.533L232.969,86.609L233.691,85.118L234.414,83.321L235.137,81.756L235.859,80.02L236.582,78.371L237.305,76.97L238.027,75.227L238.75,73.677L239.473,72.213L240.195,71.499L240.918,72.57L241.641,73.857L242.363,74.907L243.086,76.227L243.809,77.615L244.531,78.317L245.254,77.571L245.977,76.533L246.699,75.668L247.422,74.669L248.145,73.748L248.867,72.91L249.59,71.979L250.313,71.015L251.035,70.276L251.758,69.398L252.48,68.639L253.203,67.789L253.926,66.992L254.648,66.223L255.371,65.437L256.094,64.665L256.816,64.129L257.539,63.402L258.262,62.606L258.984,61.949L259.707,61.075L260.43,60.591L261.152,60.064L261.875,59.381L262.598,58.846L263.32,58.239L264.043,57.712L264.766,57.207L265.488,56.628L266.211,56.082L266.934,55.654L267.656,55.095L268.379,54.598L269.102,54.331L269.824,53.753L270.547,53.258L271.27,52.796L271.992,52.338L272.715,51.855L273.438,51.489L274.16,51.003L274.883,50.687L275.605,50.193L276.328,49.712L277.051,49.295L277.773,48.93L278.496,48.542L279.219,48.18L279.941,47.705L280.664,47.404L281.387,46.979L282.109,46.539L282.832,46.059L283.555,45.703L284.277,45.309L285,44.891L285.723,44.395L286.445,44.163L287.168,43.733L287.891,43.323L288.613,42.978L289.336,42.651L290.059,42.244L290.781,41.859L291.504,41.565L292.227,41.132L292.949,40.755L293.672,40.474L294.395,40.085L295.117,39.738L295.84,39.422L296.563,39.054L297.285,38.843L298.008,38.354L298.73,38.106L299.453,37.674L300.176,37.338L300.898,37.132L301.621,36.887L302.344,36.518L303.066,36.246L303.789,36.066L304.512,35.59L305.234,35.43L305.957,35.024L306.68,34.921L307.402,34.589L308.125,34.287L308.848,34.08L309.57,33.926L310.293,33.603L311.016,33.32L311.738,33.19L312.461,32.813L313.184,32.703L313.906,32.398L314.629,32.271L315.352,31.97L316.074,31.734L316.797,31.513L317.52,31.304L318.242,30.994L318.965,30.905L319.688,30.555L320.41,30.402L321.133,30.153L321.855,29.994L322.578,29.956L323.301,29.795L324.023,29.602L324.746,29.227L325.469,29.133L326.191,28.925L326.914,28.724L327.637,28.539L328.359,28.466L329.082,28.378L329.805,28.03L330.527,27.939L331.25,27.903L331.973,27.677L332.695,27.407L333.418,27.386L334.141,27.124L334.863,27.185L335.586,26.926L336.309,26.672L337.031,26.614L337.754,26.411L338.477,26.284L339.199,26.18L339.922,26.104L340.645,26.033L341.367,25.819L342.09,25.801L342.813,25.6L343.535,25.32L344.258,25.016L344.98,25.166L345.703,25.353L346.426,25.006L347.148,24.891L347.871,24.753L348.594,24.57L349.316,25.066L350.039,24.386L350.762,24.631L351.484,24.329L352.207,23.763L352.93,24.327L353.652,23.697L354.375,24.245L355.098,23.588L355.82,23.471L356.543,23.845L357.266,23.474L357.988,23.477L358.711,23.118L359.434,23.189L360.156,23.369L360.879,23.052L361.602,23.028L362.324,23.184L363.047,22.902L363.77,22.479L364.492,22.636L365.215,22.569L365.938,22.262L366.66,22.444L367.383,22.537L368.105,22.12L368.828,22.418L369.551,21.939L370.273,22.486L370.996,21.741L371.719,21.972L372.441,22.215L373.164,21.786L373.887,21.951L374.609,21.041L375.332,21.775L376.055,21.45L376.777,22.051L377.5,21.328L378.223,21.688L378.945,21.689L379.668,22.566L380.391,21.592L381.113,21.589L381.836,21.511L382.559,21.52L383.281,21.249L384.004,21.36L384.727,21.763L385.449,20.779L386.172,21.494L386.895,21.183L387.617,20.632L388.34,21.268L389.063,21.521L389.785,21.424L390.508,20L391.23,21.502L391.953,21.731L392.676,21.058L393.398,21.004L394.121,21.197L394.844,21.515L395.566,21.538L396.289,20.622L397.012,21.276L397.734,21.447L398.457,21.065L399.18,20.436L399.902,21.018L400.625,21.075L401.348,20.811L402.07,22.023L402.793,21.385L403.516,22.482L404.238,22.529L404.961,23.405L405.684,22.167L406.406,21.264L407.129,21.284L407.852,22.971L408.574,22.384L409.297,21.101L410.02,22.774L410.742,21.311L411.465,23.022L412.188,22.606L412.91,22.031L413.633,22.534L414.355,22.875L415.078,24.737L415.801,23.7L416.523,23.728L417.246,24.14L417.969,23.218L418.691,25.021L419.414,24.316L420.137,23.295L420.859,25.25L421.582,23.955L422.305,24.318L423.027,25.616L423.75,24.38L424.473,24.766L425.195,24.586L425.918,25.196L426.641,25.206L427.363,24.557L428.086,24.916L428.809,24.096L429.531,25.552L430.254,24.5L430.977,24.45L431.699,24.119L432.422,24.009L433.145,23.75L433.867,23.044L434.59,23.513L435.313,23.731L436.035,24.443L436.758,23.32L437.48,23.265L438.203,23.376L438.926,23.193L439.648,22.998L440.371,22.999L441.094,22.777L441.816,22.405L442.539,22.238L443.262,21.921L443.984,22.029L444.707,22.447L445.43,21.327L446.152,21.476L446.875,21.873L447.598,21.636L448.32,21.288L449.043,21.69L449.766,21.241L450.488,21.24L451.211,21.104L451.934,20.966L452.656,20.682L453.379,21.094L454.102,20.87L454.824,20.684L455.547,20.61L456.27,20.694L456.992,20.753L457.715,20.522L458.438,20.695L459.16,20.55L459.883,20.606L460.605,20.494L461.328,20.378L462.051,20.484L462.773,20.304L463.496,20.468L464.219,20.482L464.941,20.504L465.664,20.29L466.387,20.263L467.109,20.261L467.832,20.223L468.555,20.223L469.277,20.199"/><path fill="none" stroke="rgb(63, 243, 147)" stroke-width="1.5" d="M100,140.841L100.723,141.115L101.445,141.683L102.168,142.281L102.891,142.63L103.613,143.153L104.336,143.465L105.059,144.047L105.781,144.571L106.504,144.783L107.227,145.431L107.949,145.937L108.672,146.538L109.395,146.955L110.117,147.691L110.84,148.095L111.563,148.782L112.285,149.326L113.008,149.802L113.73,150.532L114.453,151.024L115.176,151.859L115.898,152.204L116.621,153.026L117.344,153.792L118.066,154.332L118.789,155.08L119.512,155.74L120.234,156.442L120.957,157.14L121.68,158.064L122.402,158.679L123.125,159.251L123.848,160.215L124.57,161.081L125.293,161.752L126.016,162.715L126.738,163.675L127.461,164.36L128.184,165.188L128.906,166.041L129.629,167.117L130.352,167.914L131.074,168.823L131.797,169.821L132.52,170.84L133.242,171.912L133.965,172.728L134.688,173.636L135.41,174.627L136.133,175.521L136.855,176.483L137.578,177.701L138.301,178.697L139.023,179.656L139.746,180.943L140.469,181.439L141.191,182.597L141.914,183.655L142.637,184.629L143.359,185.756L144.082,186.734L144.805,187.697L145.527,188.696L146.25,189.597L146.973,190.484L147.695,191.488L148.418,192.339L149.141,193.126L149.863,193.934L150.586,194.868L151.309,195.636L152.031,196.516L152.754,197.002L153.477,197.697L154.199,198.435L154.922,198.945L155.645,199.255L156.367,199.963L157.09,200.699L157.813,201.008L158.535,201.271L159.258,201.849L159.98,201.88L160.703,202.221L161.426,202.173L162.148,202.606L162.871,202.59L163.594,202.489L164.316,202.001L165.039,202.279L165.762,201.757L166.484,201.577L167.207,201.398L167.93,200.966L168.652,200.691L169.375,199.761L170.098,199.513L170.82,198.843L171.543,197.995L172.266,197.422L172.988,196.666L173.711,195.436L174.434,194.778L175.156,193.768L175.879,192.384L176.602,191.384L177.324,190.248L178.047,188.984L178.77,187.665L179.492,186.32L180.215,185.041L180.938,183.537L181.66,181.959L182.383,180.67L183.105,179.146L183.828,177.334L184.551,175.784L185.273,174.238L185.996,172.474L186.719,170.622L187.441,168.981L188.164,167.162L188.887,165.323L189.609,163.7L190.332,161.537L191.055,159.682L191.777,157.76L192.5,155.992L193.223,154.016L193.945,151.975L194.668,150.155L195.391,148.088L196.113,146.068L196.836,143.967L197.559,142.126L198.281,140.061L199.004,138.398L199.727,136.126L200.449,134.172L201.172,132.229L201.895,130.355L202.617,128.262L203.34,126.301L204.063,124.396L204.785,122.45L205.508,120.523L206.23,118.577L206.953,116.808L207.676,114.695L208.398,112.765L209.121,111.032L209.844,109L210.566,107.185L211.289,105.383L212.012,103.43L212.734,101.677L213.457,100.028L214.18,98.141L214.902,96.283L215.625,94.506L216.348,92.604L217.07,91.094L217.793,89.361L218.516,87.684L219.238,85.949L219.961,84.304L220.684,82.819L221.406,81.048L222.129,79.437L222.852,77.767L223.574,76.427L224.297,74.659L225.02,73.163L225.742,71.799L226.465,70.2L227.188,68.671L227.91,67.384L228.633,65.896L229.355,64.633L230.078,63.045L230.801,61.747L231.523,60.544L232.246,59.078L232.969,57.875L233.691,56.614L234.414,55.884L235.137,57.408L235.859,58.769L236.582,60.261L237.305,61.666L238.027,63.141L238.75,64.601L239.473,63.933L240.195,63.173L240.918,62.356L241.641,61.838L242.363,60.848L243.086,60.347L243.809,59.611L244.531,59.048L245.254,58.451L245.977,57.799L246.699,57.322L247.422,56.673L248.145,56.187L248.867,55.523L249.59,54.823L250.313,54.437L251.035,53.684L251.758,53.376L252.48,52.835L253.203,52.368L253.926,51.728L254.648,51.36L255.371,50.969L256.094,50.568L256.816,50.173L257.539,49.639L258.262,49.389L258.984,48.909L259.707,48.476L260.43,48.2L261.152,47.825L261.875,47.497L262.598,47.017L263.32,46.71L264.043,46.417L264.766,46.037L265.488,45.735L266.211,45.495L266.934,45.233L267.656,44.83L268.379,44.638L269.102,44.302L269.824,44.097L270.547,43.878L271.27,43.572L271.992,43.286L272.715,42.94L273.438,42.698L274.16,42.457L274.883,42.139L275.605,42.021L276.328,41.68L277.051,41.366L277.773,41.136L278.496,40.812L279.219,40.423L279.941,40.289L280.664,40.023L281.387,39.752L282.109,39.556L282.832,39.235L283.555,38.912L284.277,38.652L285,38.386L285.723,38.128L286.445,37.923L287.168,37.529L287.891,37.279L288.613,37.002L289.336,36.771L290.059,36.53L290.781,36.224L291.504,35.985L292.227,35.738L292.949,35.492L293.672,35.154L294.395,34.955L295.117,34.758L295.84,34.512L296.563,34.224L297.285,33.962L298.008,33.772L298.73,33.615L299.453,33.301L300.176,33.152L300.898,32.911L301.621,32.674L302.344,32.408L303.066,32.207L303.789,31.979L304.512,31.8L305.234,31.522L305.957,31.398L306.68,31.194L307.402,30.97L308.125,30.874L308.848,30.578L309.57,30.604L310.293,30.248L311.016,30.098L311.738,29.935L312.461,29.696L313.184,29.567L313.906,29.378L314.629,29.257L315.352,29.114L316.074,28.942L316.797,28.735L317.52,28.618L318.242,28.476L318.965,28.31L319.688,28.411L320.41,27.993L321.133,27.869L321.855,27.731L322.578,27.551L323.301,27.422L324.023,27.312L324.746,27.183L325.469,27.048L326.191,26.97L326.914,26.678L327.637,26.763L328.359,26.539L329.082,26.56L329.805,26.323L330.527,26.205L331.25,26.373L331.973,26.073L332.695,26.088L333.418,25.631L334.141,25.684L334.863,25.728L335.586,25.506L336.309,25.583L337.031,25.35L337.754,25.314L338.477,25.231L339.199,25.142L339.922,25.031L340.645,24.865L341.367,24.878L342.09,24.874L342.813,24.603L343.535,24.792L344.258,24.591L344.98,24.499L345.703,24.356L346.426,24.262L347.148,24.265L347.871,24.204L348.594,23.969L349.316,24.043L350.039,23.816L350.762,23.736L351.484,23.686L352.207,23.638L352.93,23.538L353.652,23.723L354.375,23.254L355.098,23.5L355.82,23.566L356.543,23.788L357.266,23.424L357.988,22.884L358.711,23.084L359.434,22.991L360.156,23.028L360.879,22.43L361.602,23.22L362.324,22.765L363.047,22.857L363.77,22.693L364.492,22.83L365.215,22.897L365.938,22.237L366.66,22.446L367.383,22.715L368.105,22.479L368.828,22.438L369.551,22.419L370.273,21.573L370.996,22.48L371.719,21.935L372.441,22.151L373.164,21.482L373.887,21.864L374.609,22.589L375.332,21.66L376.055,21.64L376.777,21.673L377.5,21.99L378.223,21.988L378.945,21.432L379.668,20.676L380.391,21.584L381.113,21.54L381.836,21.353L382.559,21.772L383.281,21.625L384.004,21.351L384.727,20.638L385.449,21.772L386.172,20.469L386.895,21.117L387.617,21.249L388.34,20.498L389.063,21.27L389.785,21.328L390.508,20.924L391.23,21.041L391.953,21.279L392.676,20.807L393.398,20.475L394.121,21.141L394.844,20.384L395.566,20.535L396.289,20.622L397.012,21.627L397.734,21.5L398.457,21.236L399.18,20.114L399.902,20.789L400.625,20.897L401.348,20.057L402.07,20.281L402.793,20.985L403.516,21.887L404.238,21.186L404.961,21.312L405.684,20.78L406.406,21.466L407.129,20.765L407.852,20.522L408.574,20.961L409.297,20.321L410.02,21.91L410.742,20.128L411.465,21.673L412.188,21.844L412.91,21.499L413.633,21.653L414.355,21.667L415.078,22.237L415.801,20.195L416.523,21.805L417.246,22.512L417.969,20.635L418.691,20.823L419.414,21.405L420.137,21.657L420.859,21.533L421.582,20.433L422.305,23.678L423.027,22.576L423.75,22.795L424.473,20.989L425.195,21.538L425.918,21.441L426.641,20.988L427.363,21.303L428.086,20.999L428.809,21.641L429.531,22.434L430.254,21.649L430.977,21.665L431.699,21.292L432.422,21.324L433.145,20.501L433.867,21.969L434.59,21.265L435.313,20.954L436.035,21.43L436.758,21.165L437.48,21.776L438.203,20.977L438.926,20.766L439.648,21.217L440.371,21.266L441.094,20.799L441.816,20.276L442.539,20.749L443.262,20.84L443.984,21.056L444.707,20.794L445.43,20.771L446.152,21.125L446.875,20.652L447.598,20.338L448.32,20.356L449.043,20.955L449.766,20.595L450.488,20.446L451.211,20.534L451.934,20.423L452.656,20.358L453.379,20.402L454.102,20.235L454.824,20.269L455.547,20.285L456.27,20.419L456.992,20.4L457.715,20.167L458.438,20.113L459.16,20.057L459.883,20.33L460.605,20.198L461.328,20.146L462.051,20.225L462.773,20.251L463.496,20.226L464.219,20.194L464.941,20.183L465.664,20.187L466.387,20.187L467.109,20.122L467.832,20.203L468.555,20.094L469.277,20.073"/><path fill="none" stroke="rgb(149, 251, 81)" stroke-width="1.5" d="M100,138.869L100.723,139.172L101.445,139.43L102.168,140.017L102.891,140.077L103.613,140.76L104.336,141.021L105.059,141.367L105.781,141.898L106.504,142.301L107.227,142.738L107.949,143.32L108.672,143.8L109.395,144.241L110.117,144.732L110.84,145.055L111.563,145.566L112.285,146.088L113.008,146.67L113.73,147.255L114.453,147.747L115.176,148.305L115.898,148.824L116.621,149.365L117.344,149.911L118.066,150.673L118.789,151.205L119.512,151.738L120.234,152.426L120.957,153.066L121.68,153.698L122.402,154.343L123.125,155.103L123.848,155.731L124.57,156.319L125.293,156.95L126.016,157.82L126.738,158.419L127.461,159.111L128.184,159.725L128.906,160.435L129.629,161.138L130.352,161.867L131.074,162.68L131.797,163.299L132.52,164.224L133.242,164.632L133.965,165.29L134.688,166.074L135.41,166.64L136.133,167.331L136.855,168.011L137.578,168.648L138.301,169.278L139.023,169.826L139.746,170.379L140.469,171.018L141.191,171.327L141.914,171.989L142.637,172.377L143.359,172.932L144.082,173.472L144.805,173.815L145.527,174.207L146.25,174.411L146.973,174.656L147.695,175.002L148.418,175.371L149.141,175.462L149.863,175.676L150.586,175.76L151.309,175.835L152.031,175.702L152.754,175.752L153.477,175.88L154.199,175.67L154.922,175.519L155.645,175.148L156.367,175.127L157.09,174.669L157.813,174.353L158.535,173.87L159.258,173.351L159.98,172.793L160.703,172.396L161.426,171.745L162.148,171.075L162.871,170.346L163.594,169.608L164.316,168.783L165.039,167.73L165.762,167.031L166.484,165.997L167.207,164.853L167.93,163.91L168.652,162.628L169.375,161.619L170.098,160.406L170.82,159.074L171.543,157.737L172.266,156.732L172.988,155.281L173.711,153.795L174.434,152.262L175.156,150.793L175.879,149.374L176.602,148.089L177.324,146.475L178.047,144.72L178.77,143.337L179.492,141.645L180.215,139.964L180.938,138.567L181.66,136.738L182.383,134.967L183.105,133.117L183.828,131.596L184.551,130.057L185.273,128.176L185.996,126.457L186.719,124.654L187.441,123.003L188.164,121.132L188.887,119.375L189.609,117.801L190.332,115.881L191.055,114.217L191.777,112.355L192.5,110.763L193.223,108.976L193.945,107.167L194.668,105.491L195.391,103.755L196.113,102.024L196.836,100.359L197.559,98.605L198.281,96.866L199.004,95.287L199.727,93.568L200.449,92.051L201.172,90.209L201.895,88.66L202.617,86.958L203.34,85.265L204.063,83.769L204.785,82.087L205.508,80.622L206.23,79.044L206.953,77.679L207.676,76.092L208.398,74.603L209.121,73.159L209.844,71.505L210.566,70.236L211.289,68.685L212.012,67.366L212.734,65.83L213.457,64.515L214.18,63.149L214.902,61.813L215.625,60.433L216.348,59.186L217.07,57.851L217.793,56.618L218.516,55.511L219.238,54.234L219.961,52.969L220.684,51.88L221.406,50.635L222.129,49.503L222.852,48.393L223.574,47.328L224.297,46.198L225.02,45.192L225.742,45.778L226.465,47.493L227.188,49.156L227.91,50.676L228.633,52.378L229.355,54.197L230.078,54.666L230.801,54.05L231.523,53.584L232.246,53.188L232.969,52.617L233.691,52.103L234.414,51.66L235.137,51.343L235.859,50.622L236.582,50.154L237.305,49.692L238.027,49.214L238.75,48.769L239.473,48.418L240.195,48.038L240.918,47.693L241.641,47.137L242.363,46.746L243.086,46.412L243.809,45.845L244.531,45.575L245.254,45.251L245.977,44.806L246.699,44.507L247.422,44.126L248.145,43.883L248.867,43.481L249.59,43.137L250.313,42.894L251.035,42.515L251.758,42.167L252.48,41.891L253.203,41.509L253.926,41.299L254.648,41.046L255.371,40.826L256.094,40.486L256.816,40.281L257.539,40.037L258.262,39.689L258.984,39.472L259.707,39.211L260.43,38.92L261.152,38.844L261.875,38.524L262.598,38.143L263.32,38.127L264.043,37.987L264.766,37.742L265.488,37.439L266.211,37.369L266.934,37.164L267.656,36.93L268.379,36.777L269.102,36.611L269.824,36.402L270.547,36.267L271.27,36.092L271.992,35.972L272.715,35.726L273.438,35.565L274.16,35.336L274.883,35.226L275.605,35.106L276.328,34.903L277.051,34.68L277.773,34.599L278.496,34.473L279.219,34.347L279.941,34.082L280.664,33.902L281.387,33.79L282.109,33.559L282.832,33.309L283.555,33.208L284.277,33.054L285,32.867L285.723,32.716L286.445,32.544L287.168,32.44L287.891,32.13L288.613,31.983L289.336,31.794L290.059,31.596L290.781,31.443L291.504,31.239L292.227,31.103L292.949,30.834L293.672,30.636L294.395,30.597L295.117,30.39L295.84,30.262L296.563,30.044L297.285,29.868L298.008,29.765L298.73,29.595L299.453,29.402L300.176,29.288L300.898,29.132L301.621,28.964L302.344,28.81L303.066,28.646L303.789,28.425L304.512,28.362L305.234,28.218L305.957,28.061L306.68,27.945L307.402,27.795L308.125,27.682L308.848,27.51L309.57,27.363L310.293,27.257L311.016,27.129L311.738,27.045L312.461,26.96L313.184,26.871L313.906,26.728L314.629,26.623L315.352,26.419L316.074,26.422L316.797,26.28L317.52,26.152L318.242,26.104L318.965,25.95L319.688,25.887L320.41,25.808L321.133,25.703L321.855,25.606L322.578,25.596L323.301,25.455L324.023,25.308L324.746,25.246L325.469,25.221L326.191,25.116L326.914,25.082L327.637,24.96L328.359,24.956L329.082,24.831L329.805,24.813L330.527,24.715L331.25,24.566L331.973,24.569L332.695,24.443L333.418,24.475L334.141,24.457L334.863,24.35L335.586,24.308L336.309,24.162L337.031,24.149L337.754,24.124L338.477,24.072L339.199,23.928L339.922,23.922L340.645,23.968L341.367,23.86L342.09,23.794L342.813,23.793L343.535,23.674L344.258,23.656L344.98,23.647L345.703,23.585L346.426,23.542L347.148,23.466L347.871,23.41L348.594,23.411L349.316,23.355L350.039,23.265L350.762,23.224L351.484,23.175L352.207,23.171L352.93,23.116L353.652,23.108L354.375,22.996L355.098,23.005L355.82,23.03L356.543,22.903L357.266,22.837L357.988,22.787L358.711,22.765L359.434,22.816L360.156,22.715L360.879,22.63L361.602,22.619L362.324,22.561L363.047,22.534L363.77,22.585L364.492,22.452L365.215,22.384L365.938,22.352L366.66,22.28L367.383,22.313L368.105,22.255L368.828,22.149L369.551,22.129L370.273,22.079L370.996,22.035L371.719,22.025L372.441,21.973L373.164,21.947L373.887,21.907L374.609,21.87L375.332,21.786L376.055,21.763L376.777,21.749L377.5,21.737L378.223,21.638L378.945,21.677L379.668,21.566L380.391,21.526L381.113,21.503L381.836,21.447L382.559,21.468L383.281,21.344L384.004,21.302L384.727,21.334L385.449,21.254L386.172,21.253L386.895,21.157L387.617,21.228L388.34,21.1L389.063,21.084L389.785,21.057L390.508,21.082L391.23,21.047L391.953,20.944L392.676,20.959L393.398,20.929L394.121,20.891L394.844,20.894L395.566,20.854L396.289,20.788L397.012,20.801L397.734,20.742L398.457,20.771L399.18,20.73L399.902,20.665L400.625,20.683L401.348,20.686L402.07,20.654L402.793,20.589L403.516,20.604L404.238,20.599L404.961,20.536L405.684,20.519L406.406,20.498L407.129,20.503L407.852,20.5L408.574,20.476L409.297,20.494L410.02,20.452L410.742,20.399L411.465,20.382L412.188,20.399L412.91,20.393L413.633,20.334L414.355,20.332L415.078,20.326L415.801,20.34L416.523,20.337L417.246,20.299L417.969,20.299L418.691,20.284L419.414,20.286L420.137,20.295L420.859,20.277L421.582,20.268L422.305,20.234L423.027,20.204L423.75,20.223L424.473,20.233L425.195,20.21L425.918,20.21L426.641,20.213L427.363,20.215L428.086,20.179L428.809,20.164L429.531,20.169L430.254,20.184L430.977,20.199L431.699,20.158L432.422,20.166L433.145,20.165L433.867,20.159L434.59,20.165L435.313,20.135L436.035,20.136L436.758,20.123L437.48,20.12L438.203,20.127L438.926,20.121L439.648,20.118L440.371,20.115L441.094,20.12L441.816,20.099L442.539,20.097L443.262,20.121L443.984,20.116L444.707,20.091L445.43,20.093L446.152,20.111L446.875,20.099L447.598,20.084L448.32,20.095L449.043,20.103L449.766,20.092L450.488,20.082L451.211,20.078L451.934,20.09L452.656,20.08L453.379,20.085L454.102,20.085L454.824,20.067L455.547,20.076L456.27,20.062L456.992,20.074L457.715,20.082L458.438,20.076L459.16,20.069L459.883,20.073L460.605,20.061L461.328,20.061L462.051,20.065L462.773,20.07L463.496,20.069L464.219,20.065L464.941,20.059L465.664,20.061L466.387,20.061L467.109,20.059L467.832,20.053L468.555,20.059L469.277,20.059"/><path fill="none" stroke="rgb(236, 209, 46)" stroke-width="1.5" d="M100,138.356L100.723,138.779L101.445,139.257L102.168,139.612L102.891,140.101L103.613,140.501L104.336,140.921L105.059,141.227L105.781,141.689L106.504,142.273L107.227,142.599L107.949,143.111L108.672,143.493L109.395,144.067L110.117,144.499L110.84,145.04L111.563,145.447L112.285,145.954L113.008,146.516L113.73,146.911L114.453,147.388L115.176,147.835L115.898,148.368L116.621,148.661L117.344,149.24L118.066,149.911L118.789,150.134L119.512,150.814L120.234,151.213L120.957,151.896L121.68,152.248L122.402,152.646L123.125,153.154L123.848,153.41L124.57,153.925L125.293,154.365L126.016,154.425L126.738,154.891L127.461,155.338L128.184,155.781L128.906,155.922L129.629,156.25L130.352,156.414L131.074,156.755L131.797,156.891L132.52,157.098L133.242,157.202L133.965,157.222L134.688,157.528L135.41,157.406L136.133,157.432L136.855,157.487L137.578,157.349L138.301,157.297L139.023,157.16L139.746,156.669L140.469,156.635L141.191,156.584L141.914,156.255L142.637,155.689L143.359,155.411L144.082,155.06L144.805,154.55L145.527,153.933L146.25,153.429L146.973,152.685L147.695,152.021L148.418,151.233L149.141,150.762L149.863,149.973L150.586,148.95L151.309,148.318L152.031,147.381L152.754,146.426L153.477,145.444L154.199,144.463L154.922,143.275L155.645,142.252L156.367,141.161L157.09,139.889L157.813,138.71L158.535,137.402L159.258,136.297L159.98,134.855L160.703,133.572L161.426,132.203L162.148,130.723L162.871,129.456L163.594,128.129L164.316,126.473L165.039,125.236L165.762,123.707L166.484,121.943L167.207,120.53L167.93,119.198L168.652,117.43L169.375,115.916L170.098,114.602L170.82,113.031L171.543,111.548L172.266,109.769L172.988,108.267L173.711,106.615L174.434,105.083L175.156,103.482L175.879,101.847L176.602,100.355L177.324,98.674L178.047,97.243L178.77,95.699L179.492,93.979L180.215,92.454L180.938,91.109L181.66,89.291L182.383,87.663L183.105,86.289L183.828,84.768L184.551,83.195L185.273,81.761L185.996,80.288L186.719,78.706L187.441,77.287L188.164,75.813L188.887,74.424L189.609,72.964L190.332,71.539L191.055,70.12L191.777,68.674L192.5,67.476L193.223,66.053L193.945,64.707L194.668,63.365L195.391,62.091L196.113,60.72L196.836,59.498L197.559,58.18L198.281,56.954L199.004,55.778L199.727,54.579L200.449,53.343L201.172,52.125L201.895,51.036L202.617,49.785L203.34,48.475L204.063,47.757L204.785,46.47L205.508,45.322L206.23,44.366L206.953,43.358L207.676,42.289L208.398,41.346L209.121,40.391L209.844,39.416L210.566,38.889L211.289,40.444L212.012,42.2L212.734,43.992L213.457,45.769L214.18,47.563L214.902,49.532L215.625,49.027L216.348,48.616L217.07,48.139L217.793,47.83L218.516,47.361L219.238,46.838L219.961,46.435L220.684,46.148L221.406,45.753L222.129,45.293L222.852,44.9L223.574,44.57L224.297,44.251L225.02,43.803L225.742,43.33L226.465,42.985L227.188,42.773L227.91,42.283L228.633,41.937L229.355,41.568L230.078,41.473L230.801,41.076L231.523,40.724L232.246,40.462L232.969,40.082L233.691,39.784L234.414,39.435L235.137,39.202L235.859,38.974L236.582,38.575L237.305,38.367L238.027,38.155L238.75,37.782L239.473,37.623L240.195,37.346L240.918,37.002L241.641,36.775L242.363,36.562L243.086,36.262L243.809,36.113L244.531,35.905L245.254,35.537L245.977,35.394L246.699,35.175L247.422,34.99L248.145,34.601L248.867,34.482L249.59,34.303L250.313,34.107L251.035,33.897L251.758,33.691L252.48,33.47L253.203,33.29L253.926,33.122L254.648,32.945L255.371,32.795L256.094,32.533L256.816,32.326L257.539,32.221L258.262,32.051L258.984,31.858L259.707,31.779L260.43,31.653L261.152,31.463L261.875,31.284L262.598,31.116L263.32,31.018L264.043,30.943L264.766,30.723L265.488,30.702L266.211,30.544L266.934,30.514L267.656,30.347L268.379,30.258L269.102,30.217L269.824,30.055L270.547,30.052L271.27,29.961L271.992,29.825L272.715,29.752L273.438,29.681L274.16,29.603L274.883,29.489L275.605,29.481L276.328,29.371L277.051,29.331L277.773,29.209L278.496,29.136L279.219,29.103L279.941,29.045L280.664,28.942L281.387,28.848L282.109,28.804L282.832,28.681L283.555,28.63L284.277,28.537L285,28.443L285.723,28.37L286.445,28.249L287.168,28.181L287.891,28.038L288.613,27.971L289.336,27.897L290.059,27.836L290.781,27.764L291.504,27.604L292.227,27.489L292.949,27.418L293.672,27.332L294.395,27.222L295.117,27.146L295.84,27.007L296.563,26.889L297.285,26.812L298.008,26.72L298.73,26.634L299.453,26.505L300.176,26.455L300.898,26.357L301.621,26.256L302.344,26.158L303.066,26.105L303.789,26.012L304.512,25.944L305.234,25.793L305.957,25.73L306.68,25.597L307.402,25.551L308.125,25.46L308.848,25.389L309.57,25.303L310.293,25.188L311.016,25.19L311.738,25.067L312.461,25.008L313.184,24.919L313.906,24.85L314.629,24.75L315.352,24.684L316.074,24.652L316.797,24.556L317.52,24.52L318.242,24.467L318.965,24.366L319.688,24.319L320.41,24.253L321.133,24.237L321.855,24.123L322.578,24.073L323.301,24.028L324.023,23.96L324.746,23.936L325.469,23.868L326.191,23.806L326.914,23.784L327.637,23.71L328.359,23.648L329.082,23.634L329.805,23.574L330.527,23.513L331.25,23.485L331.973,23.441L332.695,23.36L333.418,23.364L334.141,23.276L334.863,23.267L335.586,23.22L336.309,23.217L337.031,23.117L337.754,23.134L338.477,23.092L339.199,23.056L339.922,23.018L340.645,23.023L341.367,22.967L342.09,22.93L342.813,22.885L343.535,22.857L344.258,22.806L344.98,22.818L345.703,22.732L346.426,22.723L347.148,22.719L347.871,22.639L348.594,22.669L349.316,22.574L350.039,22.636L350.762,22.575L351.484,22.542L352.207,22.523L352.93,22.495L353.652,22.48L354.375,22.437L355.098,22.428L355.82,22.352L356.543,22.353L357.266,22.3L357.988,22.291L358.711,22.283L359.434,22.25L360.156,22.234L360.879,22.17L361.602,22.164L362.324,22.113L363.047,22.119L363.77,22.072L364.492,22.032L365.215,22.063L365.938,22.014L366.66,21.981L367.383,21.978L368.105,21.911L368.828,21.878L369.551,21.863L370.273,21.825L370.996,21.774L371.719,21.742L372.441,21.721L373.164,21.702L373.887,21.71L374.609,21.619L375.332,21.619L376.055,21.591L376.777,21.562L377.5,21.495L378.223,21.474L378.945,21.457L379.668,21.431L380.391,21.403L381.113,21.354L381.836,21.343L382.559,21.325L383.281,21.277L384.004,21.213L384.727,21.213L385.449,21.184L386.172,21.15L386.895,21.13L387.617,21.093L388.34,21.085L389.063,21.06L389.785,21.019L390.508,20.991L391.23,20.956L391.953,20.922L392.676,20.9L393.398,20.863L394.121,20.835L394.844,20.82L395.566,20.805L396.289,20.772L397.012,20.754L397.734,20.734L398.457,20.707L399.18,20.702L399.902,20.667L400.625,20.653L401.348,20.636L402.07,20.602L402.793,20.595L403.516,20.561L404.238,20.549L404.961,20.552L405.684,20.529L406.406,20.494L407.129,20.481L407.852,20.481L408.574,20.456L409.297,20.432L410.02,20.412L410.742,20.409L411.465,20.392L412.188,20.384L412.91,20.373L413.633,20.363L414.355,20.357L415.078,20.35L415.801,20.323L416.523,20.307L417.246,20.302L417.969,20.289L418.691,20.283L419.414,20.271L420.137,20.268L420.859,20.256L421.582,20.24L422.305,20.244L423.027,20.237L423.75,20.226L424.473,20.216L425.195,20.211L425.918,20.216L426.641,20.197L427.363,20.184L428.086,20.189L428.809,20.183L429.531,20.175L430.254,20.175L430.977,20.17L431.699,20.16L432.422,20.152L433.145,20.152L433.867,20.148L434.59,20.143L435.313,20.138L436.035,20.143L436.758,20.134L437.48,20.126L438.203,20.123L438.926,20.119L439.648,20.117L440.371,20.119L441.094,20.113L441.816,20.111L442.539,20.108L443.262,20.104L443.984,20.103L444.707,20.102L445.43,20.097L446.152,20.096L446.875,20.089L447.598,20.094L448.32,20.088L449.043,20.087L449.766,20.086L450.488,20.087L451.211,20.088L451.934,20.08L452.656,20.084L453.379,20.074L454.102,20.077L454.824,20.075L455.547,20.073L456.27,20.073L456.992,20.069L457.715,20.07L458.438,20.072L459.16,20.07L459.883,20.069L460.605,20.064L461.328,20.072L462.051,20.064L462.773,20.062L463.496,20.066L464.219,20.064L464.941,20.066L465.664,20.063L466.387,20.062L467.109,20.06L467.832,20.061L468.555,20.059L469.277,20.058"/><path fill="none" stroke="rgb(255, 130, 29)" stroke-width="1.5" d="M100,143.056L100.723,143.393L101.445,143.569L102.168,143.576L102.891,143.798L103.613,143.955L104.336,144.208L105.059,144.245L105.781,144.248L106.504,144.454L107.227,144.449L107.949,144.244L108.672,144.55L109.395,144.425L110.117,144.323L110.84,144.214L111.563,144.135L112.285,143.778L113.008,143.835L113.73,143.509L114.453,143.356L115.176,142.881L115.898,142.572L116.621,142.234L117.344,141.992L118.066,141.387L118.789,140.963L119.512,140.5L120.234,139.769L120.957,139.311L121.68,138.507L122.402,137.874L123.125,137.4L123.848,136.446L124.57,135.707L125.293,134.997L126.016,134.021L126.738,133.086L127.461,132.242L128.184,131.234L128.906,130.383L129.629,129.462L130.352,128.14L131.074,127.216L131.797,126.023L132.52,124.793L133.242,123.809L133.965,122.467L134.688,121.35L135.41,119.973L136.133,118.684L136.855,117.432L137.578,116.187L138.301,114.942L139.023,113.602L139.746,112.087L140.469,110.944L141.191,109.512L141.914,108.106L142.637,106.696L143.359,105.133L144.082,103.977L144.805,102.541L145.527,101.039L146.25,99.657L146.973,98.078L147.695,96.908L148.418,95.222L149.141,93.729L149.863,92.496L150.586,90.977L151.309,89.497L152.031,88.194L152.754,86.745L153.477,85.262L154.199,83.73L154.922,82.265L155.645,81.087L156.367,79.597L157.09,78.282L157.813,76.815L158.535,75.517L159.258,74.249L159.98,72.801L160.703,71.424L161.426,70.091L162.148,68.736L162.871,67.399L163.594,66.159L164.316,64.749L165.039,63.682L165.762,62.298L166.484,61.014L167.207,59.791L167.93,58.652L168.652,57.434L169.375,56.18L170.098,55.067L170.82,53.735L171.543,52.696L172.266,51.534L172.988,50.531L173.711,49.258L174.434,48.244L175.156,47.037L175.879,45.981L176.602,44.952L177.324,43.958L178.047,42.936L178.77,42L179.492,40.842L180.215,40.009L180.938,38.999L181.66,38.158L182.383,37.167L183.105,36.194L183.828,36.978L184.551,38.72L185.273,40.513L185.996,42.288L186.719,44.072L187.441,45.986L188.164,46.807L188.887,46.322L189.609,45.975L190.332,45.563L191.055,45.133L191.777,44.707L192.5,44.403L193.223,43.921L193.945,43.602L194.668,43.143L195.391,42.855L196.113,42.478L196.836,41.994L197.559,41.736L198.281,41.265L199.004,41.021L199.727,40.617L200.449,40.249L201.172,39.895L201.895,39.67L202.617,39.202L203.34,38.852L204.063,38.546L204.785,38.279L205.508,37.95L206.23,37.484L206.953,37.24L207.676,36.915L208.398,36.686L209.121,36.35L209.844,36.064L210.566,35.859L211.289,35.445L212.012,35.192L212.734,35.011L213.457,34.625L214.18,34.46L214.902,34.184L215.625,33.966L216.348,33.619L217.07,33.46L217.793,33.237L218.516,32.973L219.238,32.767L219.961,32.559L220.684,32.362L221.406,32.129L222.129,31.914L222.852,31.702L223.574,31.568L224.297,31.336L225.02,31.181L225.742,30.985L226.465,30.753L227.188,30.632L227.91,30.527L228.633,30.404L229.355,30.292L230.078,30.055L230.801,29.891L231.523,29.755L232.246,29.657L232.969,29.456L233.691,29.322L234.414,29.263L235.137,29.196L235.859,28.991L236.582,28.856L237.305,28.775L238.027,28.716L238.75,28.545L239.473,28.455L240.195,28.347L240.918,28.343L241.641,28.227L242.363,28.15L243.086,27.979L243.809,27.935L244.531,27.913L245.254,27.72L245.977,27.722L246.699,27.628L247.422,27.591L248.145,27.498L248.867,27.392L249.59,27.373L250.313,27.345L251.035,27.244L251.758,27.186L252.48,27.126L253.203,27.137L253.926,27.058L254.648,26.972L255.371,26.985L256.094,26.898L256.816,26.906L257.539,26.837L258.262,26.805L258.984,26.774L259.707,26.792L260.43,26.733L261.152,26.723L261.875,26.682L262.598,26.685L263.32,26.642L264.043,26.673L264.766,26.587L265.488,26.598L266.211,26.55L266.934,26.615L267.656,26.613L268.379,26.616L269.102,26.618L269.824,26.613L270.547,26.674L271.27,26.656L271.992,26.689L272.715,26.702L273.438,26.711L274.16,26.696L274.883,26.663L275.605,26.752L276.328,26.746L277.051,26.776L277.773,26.751L278.496,26.777L279.219,26.798L279.941,26.771L280.664,26.791L281.387,26.755L282.109,26.756L282.832,26.735L283.555,26.728L284.277,26.715L285,26.628L285.723,26.598L286.445,26.556L287.168,26.557L287.891,26.492L288.613,26.484L289.336,26.431L290.059,26.425L290.781,26.314L291.504,26.287L292.227,26.221L292.949,26.151L293.672,26.1L294.395,26.053L295.117,25.977L295.84,25.944L296.563,25.871L297.285,25.749L298.008,25.718L298.73,25.681L299.453,25.615L300.176,25.521L300.898,25.421L301.621,25.351L302.344,25.336L303.066,25.26L303.789,25.18L304.512,25.099L305.234,25.023L305.957,24.961L306.68,24.926L307.402,24.834L308.125,24.764L308.848,24.689L309.57,24.641L310.293,24.607L311.016,24.545L311.738,24.431L312.461,24.416L313.184,24.349L313.906,24.286L314.629,24.174L315.352,24.17L316.074,24.109L316.797,24.055L317.52,24.003L318.242,23.913L318.965,23.837L319.688,23.805L320.41,23.794L321.133,23.751L321.855,23.714L322.578,23.637L323.301,23.59L324.023,23.521L324.746,23.457L325.469,23.417L326.191,23.411L326.914,23.371L327.637,23.342L328.359,23.28L329.082,23.267L329.805,23.204L330.527,23.185L331.25,23.121L331.973,23.109L332.695,23.062L333.418,23.055L334.141,22.99L334.863,22.972L335.586,22.921L336.309,22.885L337.031,22.887L337.754,22.843L338.477,22.805L339.199,22.772L339.922,22.726L340.645,22.731L341.367,22.701L342.09,22.68L342.813,22.661L343.535,22.624L344.258,22.596L344.98,22.579L345.703,22.575L346.426,22.531L347.148,22.522L347.871,22.478L348.594,22.472L349.316,22.421L350.039,22.419L350.762,22.407L351.484,22.386L352.207,22.366L352.93,22.35L353.652,22.319L354.375,22.269L355.098,22.329L355.82,22.256L356.543,22.234L357.266,22.175L357.988,22.191L358.711,22.141L359.434,22.156L360.156,22.122L360.879,22.105L361.602,22.066L362.324,22.045L363.047,22.085L363.77,22.038L364.492,21.974L365.215,21.973L365.938,21.947L366.66,21.919L367.383,21.915L368.105,21.889L368.828,21.866L369.551,21.842L370.273,21.794L370.996,21.787L371.719,21.738L372.441,21.746L373.164,21.687L373.887,21.654L374.609,21.648L375.332,21.623L376.055,21.597L376.777,21.573L377.5,21.53L378.223,21.528L378.945,21.49L379.668,21.462L380.391,21.419L381.113,21.385L381.836,21.366L382.559,21.357L383.281,21.329L384.004,21.275L384.727,21.25L385.449,21.236L386.172,21.222L386.895,21.16L387.617,21.14L388.34,21.125L389.063,21.08L389.785,21.063L390.508,21.021L391.23,21.013L391.953,20.994L392.676,20.963L393.398,20.935L394.121,20.913L394.844,20.875L395.566,20.856L396.289,20.84L397.012,20.807L397.734,20.771L398.457,20.772L399.18,20.734L399.902,20.721L400.625,20.7L401.348,20.672L402.07,20.664L402.793,20.637L403.516,20.624L404.238,20.599L404.961,20.58L405.684,20.548L406.406,20.543L407.129,20.529L407.852,20.489L408.574,20.493L409.297,20.474L410.02,20.461L410.742,20.439L411.465,20.439L412.188,20.438L412.91,20.42L413.633,20.388L414.355,20.377L415.078,20.372L415.801,20.361L416.523,20.34L417.246,20.345L417.969,20.32L418.691,20.307L419.414,20.293L420.137,20.291L420.859,20.28L421.582,20.281L422.305,20.265L423.027,20.253L423.75,20.257L424.473,20.24L425.195,20.231L425.918,20.226L426.641,20.208L427.363,20.212L428.086,20.21L428.809,20.206L429.531,20.195L430.254,20.188L430.977,20.18L431.699,20.177L432.422,20.179L433.145,20.164L433.867,20.162L434.59,20.156L435.313,20.152L436.035,20.148L436.758,20.141L437.48,20.144L438.203,20.136L438.926,20.132L439.648,20.13L440.371,20.124L441.094,20.119L441.816,20.121L442.539,20.116L443.262,20.116L443.984,20.111L444.707,20.108L445.43,20.098L446.152,20.108L446.875,20.098L447.598,20.098L448.32,20.097L449.043,20.089L449.766,20.095L450.488,20.09L451.211,20.09L451.934,20.088L452.656,20.083L453.379,20.086L454.102,20.078L454.824,20.083L455.547,20.078L456.27,20.077L456.992,20.076L457.715,20.075L458.438,20.074L459.16,20.07L459.883,20.072L460.605,20.073L461.328,20.07L462.051,20.071L462.773,20.066L463.496,20.064L464.219,20.065L464.941,20.066L465.664,20.065L466.387,20.06L467.109,20.062L467.832,20.061L468.555,20.061L469.277,20.062"/><path fill="none" stroke="rgb(203, 47, 13)" stroke-width="1.5" d="M100,47.934L100.723,48.065L101.445,47.98L102.168,47.905L102.891,47.888L103.613,47.742L104.336,47.769L105.059,47.745L105.781,47.605L106.504,47.539L107.227,47.494L107.949,47.637L108.672,47.489L109.395,47.492L110.117,47.371L110.84,47.292L111.563,47.223L112.285,47.209L113.008,47.233L113.73,47.107L114.453,46.921L115.176,46.863L115.898,46.816L116.621,46.742L117.344,46.585L118.066,46.53L118.789,46.619L119.512,46.448L120.234,46.368L120.957,46.248L121.68,46.158L122.402,46.22L123.125,46.121L123.848,46.003L124.57,45.934L125.293,45.812L126.016,45.642L126.738,45.524L127.461,45.459L128.184,45.428L128.906,45.325L129.629,45.183L130.352,45.069L131.074,45.034L131.797,44.946L132.52,44.877L133.242,44.681L133.965,44.662L134.688,44.493L135.41,44.53L136.133,44.198L136.855,44.095L137.578,44.089L138.301,43.904L139.023,43.84L139.746,43.623L140.469,43.665L141.191,43.418L141.914,43.395L142.637,43.277L143.359,43.079L144.082,43.027L144.805,42.84L145.527,42.823L146.25,42.755L146.973,42.63L147.695,42.539L148.418,42.366L149.141,42.296L149.863,42.124L150.586,42.08L151.309,41.994L152.031,41.744L152.754,41.639L153.477,41.458L154.199,41.373L154.922,41.262L155.645,41.2L156.367,40.953L157.09,40.895L157.813,40.761L158.535,40.552L159.258,40.53L159.98,40.348L160.703,40.247L161.426,40.159L162.148,40.016L162.871,39.852L163.594,39.777L164.316,39.67L165.039,39.639L165.762,39.453L166.484,39.377L167.207,39.213L167.93,39.088L168.652,38.951L169.375,38.839L170.098,38.749L170.82,38.658L171.543,38.418L172.266,38.465L172.988,38.181L173.711,38.2L174.434,38.015L175.156,37.9L175.879,37.714L176.602,37.719L177.324,37.592L178.047,37.462L178.77,37.329L179.492,37.272L180.215,37.202L180.938,37.041L181.66,36.823L182.383,36.692L183.105,36.61L183.828,36.397L184.551,36.443L185.273,36.301L185.996,36.302L186.719,36.034L187.441,36.084L188.164,35.968L188.887,35.651L189.609,35.677L190.332,35.62L191.055,35.497L191.777,35.274L192.5,35.223L193.223,35.181L193.945,35.167L194.668,35.008L195.391,34.884L196.113,34.766L196.836,34.694L197.559,34.484L198.281,34.488L199.004,34.368L199.727,34.217L200.449,34.109L201.172,34.078L201.895,34.009L202.617,33.987L203.34,33.763L204.063,33.695L204.785,33.603L205.508,33.554L206.23,33.386L206.953,33.259L207.676,33.249L208.398,33.273L209.121,33.109L209.844,32.971L210.566,32.841L211.289,32.81L212.012,32.715L212.734,32.625L213.457,32.617L214.18,32.491L214.902,32.427L215.625,32.305L216.348,32.227L217.07,32.184L217.793,32.064L218.516,32.026L219.238,31.921L219.961,31.867L220.684,31.849L221.406,31.76L222.129,31.669L222.852,31.534L223.574,31.519L224.297,31.521L225.02,31.315L225.742,31.305L226.465,31.177L227.188,31.108L227.91,31.134L228.633,30.998L229.355,30.948L230.078,30.895L230.801,30.851L231.523,30.724L232.246,30.698L232.969,30.631L233.691,30.593L234.414,30.647L235.137,30.511L235.859,30.434L236.582,30.296L237.305,30.3L238.027,30.195L238.75,30.131L239.473,30.138L240.195,30.12L240.918,29.95L241.641,29.912L242.363,29.926L243.086,29.787L243.809,29.862L244.531,29.751L245.254,29.646L245.977,29.656L246.699,29.622L247.422,29.585L248.145,29.451L248.867,29.448L249.59,29.434L250.313,29.358L251.035,29.292L251.758,29.263L252.48,29.243L253.203,29.152L253.926,29.132L254.648,29.03L255.371,28.993L256.094,29.015L256.816,28.956L257.539,28.964L258.262,28.93L258.984,28.877L259.707,28.843L260.43,28.804L261.152,28.788L261.875,28.75L262.598,28.744L263.32,28.731L264.043,28.689L264.766,28.621L265.488,28.679L266.211,28.689L266.934,28.66L267.656,28.709L268.379,28.675L269.102,28.672L269.824,28.665L270.547,28.706L271.27,28.613L271.992,28.621L272.715,28.663L273.438,28.672L274.16,28.702L274.883,28.678L275.605,28.667L276.328,28.693L277.051,28.653L277.773,28.701L278.496,28.701L279.219,28.645L279.941,28.67L280.664,28.688L281.387,28.643L282.109,28.557L282.832,28.596L283.555,28.482L284.277,28.485L285,28.43L285.723,28.461L286.445,28.394L287.168,28.321L287.891,28.294L288.613,28.218L289.336,28.212L290.059,28.059L290.781,27.982L291.504,27.946L292.227,27.869L292.949,27.869L293.672,27.768L294.395,27.737L295.117,27.612L295.84,27.576L296.563,27.464L297.285,27.364L298.008,27.289L298.73,27.211L299.453,27.14L300.176,27.056L300.898,27.017L301.621,26.942L302.344,26.849L303.066,26.713L303.789,26.624L304.512,26.537L305.234,26.502L305.957,26.402L306.68,26.372L307.402,26.245L308.125,26.233L308.848,26.065L309.57,26.019L310.293,25.95L311.016,25.881L311.738,25.826L312.461,25.735L313.184,25.673L313.906,25.577L314.629,25.543L315.352,25.486L316.074,25.4L316.797,25.29L317.52,25.222L318.242,25.194L318.965,25.121L319.688,25.064L320.41,24.981L321.133,24.948L321.855,24.872L322.578,24.805L323.301,24.774L324.023,24.633L324.746,24.666L325.469,24.576L326.191,24.588L326.914,24.472L327.637,24.381L328.359,24.396L329.082,24.32L329.805,24.28L330.527,24.21L331.25,24.174L331.973,24.139L332.695,24.1L333.418,24.056L334.141,24.004L334.863,23.998L335.586,23.911L336.309,23.889L337.031,23.869L337.754,23.796L338.477,23.764L339.199,23.713L339.922,23.673L340.645,23.665L341.367,23.663L342.09,23.623L342.813,23.575L343.535,23.5L344.258,23.49L344.98,23.466L345.703,23.421L346.426,23.395L347.148,23.375L347.871,23.335L348.594,23.358L349.316,23.284L350.039,23.267L350.762,23.24L351.484,23.172L352.207,23.167L352.93,23.137L353.652,23.116L354.375,23.043L355.098,23.063L355.82,23.013L356.543,22.986L357.266,22.954L357.988,22.928L358.711,22.898L359.434,22.882L360.156,22.837L360.879,22.847L361.602,22.783L362.324,22.755L363.047,22.728L363.77,22.748L364.492,22.714L365.215,22.657L365.938,22.568L366.66,22.537L367.383,22.543L368.105,22.482L368.828,22.503L369.551,22.45L370.273,22.391L370.996,22.362L371.719,22.317L372.441,22.325L373.164,22.234L373.887,22.24L374.609,22.159L375.332,22.148L376.055,22.136L376.777,22.121L377.5,22.062L378.223,22.049L378.945,21.992L379.668,21.936L380.391,21.902L381.113,21.886L381.836,21.816L382.559,21.765L383.281,21.783L384.004,21.715L384.727,21.68L385.449,21.671L386.172,21.614L386.895,21.574L387.617,21.525L388.34,21.529L389.063,21.504L389.785,21.466L390.508,21.4L391.23,21.401L391.953,21.352L392.676,21.301L393.398,21.286L394.121,21.253L394.844,21.222L395.566,21.18L396.289,21.136L397.012,21.142L397.734,21.098L398.457,21.05L399.18,21.029L399.902,20.991L400.625,20.957L401.348,20.943L402.07,20.914L402.793,20.904L403.516,20.86L404.238,20.852L404.961,20.824L405.684,20.791L406.406,20.772L407.129,20.74L407.852,20.73L408.574,20.707L409.297,20.677L410.02,20.66L410.742,20.638L411.465,20.611L412.188,20.592L412.91,20.584L413.633,20.56L414.355,20.535L415.078,20.521L415.801,20.501L416.523,20.467L417.246,20.473L417.969,20.455L418.691,20.443L419.414,20.442L420.137,20.417L420.859,20.401L421.582,20.393L422.305,20.38L423.027,20.363L423.75,20.357L424.473,20.348L425.195,20.337L425.918,20.34L426.641,20.308L427.363,20.312L428.086,20.287L428.809,20.29L429.531,20.263L430.254,20.277L430.977,20.255L431.699,20.252L432.422,20.236L433.145,20.245L433.867,20.235L434.59,20.227L435.313,20.217L436.035,20.216L436.758,20.197L437.48,20.197L438.203,20.192L438.926,20.18L439.648,20.189L440.371,20.172L441.094,20.168L441.816,20.16L442.539,20.162L443.262,20.159L443.984,20.159L444.707,20.15L445.43,20.148L446.152,20.141L446.875,20.137L447.598,20.139L448.32,20.131L449.043,20.128L449.766,20.127L450.488,20.125L451.211,20.121L451.934,20.119L452.656,20.113L453.379,20.113L454.102,20.114L454.824,20.101L455.547,20.103L456.27,20.1L456.992,20.099L457.715,20.096L458.438,20.092L459.16,20.093L459.883,20.096L460.605,20.089L461.328,20.085L462.051,20.084L462.773,20.082L463.496,20.083L464.219,20.084L464.941,20.08L465.664,20.075L466.387,20.076L467.109,20.073L467.832,20.077L468.555,20.075L469.277,20.069"/><g transform="translate(15,190) scale(1.7) rotate(-90)"><text>Drift</text></g><g transform="translate(315,395) scale(1.8)"><text></text></g><g transform="translate(0,350)" fill="none" font-size="10" font-family="sans-serif" text-anchor="middle"><path class="domain" stroke="currentColor" d="M100,6V0H470V6"/><g class="tick" opacity="1" transform="translate(136.96669666966696,0)"><line stroke="currentColor" y2="6"/><text fill="currentColor" y="9" dy="0.71em" font-size="20px"> </text></g><g class="tick" opacity="1" transform="translate(173.97039703970398,0)"><line stroke="currentColor" y2="6"/><text fill="currentColor" y="9" dy="0.71em" font-size="20px">20</text></g><g class="tick" opacity="1" transform="translate(210.97409740974098,0)"><line stroke="currentColor" y2="6"/><text fill="currentColor" y="9" dy="0.71em" font-size="20px"> </text></g><g class="tick" opacity="1" transform="translate(247.97779777977803,0)"><line stroke="currentColor" y2="6"/><text fill="currentColor" y="9" dy="0.71em" font-size="20px">40</text></g><g class="tick" opacity="1" transform="translate(284.981498149815,0)"><line stroke="currentColor" y2="6"/><text fill="currentColor" y="9" dy="0.71em" font-size="20px"> </text></g><g class="tick" opacity="1" transform="translate(321.985198519852,0)"><line stroke="currentColor" y2="6"/><text fill="currentColor" y="9" dy="0.71em" font-size="20px">60</text></g><g class="tick" opacity="1" transform="translate(358.988898889889,0)"><line stroke="currentColor" y2="6"/><text fill="currentColor" y="9" dy="0.71em" font-size="20px"> </text></g><g class="tick" opacity="1" transform="translate(395.992599259926,0)"><line stroke="currentColor" y2="6"/><text fill="currentColor" y="9" dy="0.71em" font-size="20px">80</text></g><g class="tick" opacity="1" transform="translate(432.996299629963,0)"><line stroke="currentColor" y2="6"/><text fill="currentColor" y="9" dy="0.71em" font-size="20px"> </text></g><g class="tick" opacity="1" transform="translate(470,0)"><line stroke="currentColor" y2="6"/><text fill="currentColor" y="9" dy="0.71em" font-size="20px">100</text></g></g><g transform="translate(100,0)" fill="none" font-size="10" font-family="sans-serif" text-anchor="end"><path class="domain" stroke="currentColor" d="M-6,350H0V20H-6"/><g class="tick" opacity="1" transform="translate(0,329.59038986058005)"><line stroke="currentColor" x2="-6"/><text fill="currentColor" x="-9" dy="0.32em" font-size="20px">0.65</text></g><g class="tick" opacity="1" transform="translate(0,305.15260028715335)"><line stroke="currentColor" x2="-6"/><text fill="currentColor" x="-9" dy="0.32em" font-size="20px">0.60</text></g><g class="tick" opacity="1" transform="translate(0,280.71481071372676)"><line stroke="currentColor" x2="-6"/><text fill="currentColor" x="-9" dy="0.32em" font-size="20px">0.55</text></g><g class="tick" opacity="1" transform="translate(0,256.2770211403001)"><line stroke="currentColor" x2="-6"/><text fill="currentColor" x="-9" dy="0.32em" font-size="20px">0.50</text></g><g class="tick" opacity="1" transform="translate(0,231.83923156687348)"><line stroke="currentColor" x2="-6"/><text fill="currentColor" x="-9" dy="0.32em" font-size="20px">0.45</text></g><g class="tick" opacity="1" transform="translate(0,207.40144199344684)"><line stroke="currentColor" x2="-6"/><text fill="currentColor" x="-9" dy="0.32em" font-size="20px">0.40</text></g><g class="tick" opacity="1" transform="translate(0,182.9636524200202)"><line stroke="currentColor" x2="-6"/><text fill="currentColor" x="-9" dy="0.32em" font-size="20px">0.35</text></g><g class="tick" opacity="1" transform="translate(0,158.52586284659355)"><line stroke="currentColor" x2="-6"/><text fill="currentColor" x="-9" dy="0.32em" font-size="20px">0.30</text></g><g class="tick" opacity="1" transform="translate(0,134.08807327316694)"><line stroke="currentColor" x2="-6"/><text fill="currentColor" x="-9" dy="0.32em" font-size="20px">0.25</text></g><g class="tick" opacity="1" transform="translate(0,109.6502836997403)"><line stroke="currentColor" x2="-6"/><text fill="currentColor" x="-9" dy="0.32em" font-size="20px">0.20</text></g><g class="tick" opacity="1" transform="translate(0,85.21249412631364)"><line stroke="currentColor" x2="-6"/><text fill="currentColor" x="-9" dy="0.32em" font-size="20px">0.15</text></g><g class="tick" opacity="1" transform="translate(0,60.774704552886995)"><line stroke="currentColor" x2="-6"/><text fill="currentColor" x="-9" dy="0.32em" font-size="20px">0.10</text></g><g class="tick" opacity="1" transform="translate(0,36.336914979460374)"><line stroke="currentColor" x2="-6"/><text fill="currentColor" x="-9" dy="0.32em" font-size="20px">0.05</text></g></g><circle cx="355" cy="150" r="8" style="fill: rgb(35, 23, 27);"/><circle cx="355" cy="175" r="8" style="fill: rgb(69, 105, 238);"/><circle cx="355" cy="200" r="8" style="fill: rgb(38, 188, 225);"/><circle cx="355" cy="225" r="8" style="fill: rgb(63, 243, 147);"/><circle cx="355" cy="250" r="8" style="fill: rgb(149, 251, 81);"/><circle cx="355" cy="275" r="8" style="fill: rgb(236, 209, 46);"/><circle cx="355" cy="300" r="8" style="fill: rgb(255, 130, 29);"/><circle cx="355" cy="325" r="8" style="fill: rgb(203, 47, 13);"/><text x="370" y="150" text-anchor="left" font-size="22" alignment-baseline="middle" style="fill: rgb(35, 23, 27);"> = 0</text><text x="370" y="175" text-anchor="left" font-size="22" alignment-baseline="middle" style="fill: rgb(69, 105, 238);"> = 0.22</text><text x="370" y="200" text-anchor="left" font-size="22" alignment-baseline="middle" style="fill: rgb(38, 188, 225);"> = 0.45</text><text x="370" y="225" text-anchor="left" font-size="22" alignment-baseline="middle" style="fill: rgb(63, 243, 147);"> = 0.67</text><text x="370" y="250" text-anchor="left" font-size="22" alignment-baseline="middle" style="fill: rgb(149, 251, 81);"> = 0.9</text><text x="370" y="275" text-anchor="left" font-size="22" alignment-baseline="middle" style="fill: rgb(236, 209, 46);"> = 1.12</text><text x="370" y="300" text-anchor="left" font-size="22" alignment-baseline="middle" style="fill: rgb(255, 130, 29);"> = 1.35</text><text x="370" y="325" text-anchor="left" font-size="22" alignment-baseline="middle" style="fill: rgb(203, 47, 13);"> = 1.57</text></svg>