<svg xmlns="http://www.w3.org/2000/svg" class="bg-white" width="500" height="400" viewBox="-10 -1 500 400"><path fill="none" stroke="rgb(35, 23, 27)" stroke-width="1.5" d="M100,189.062L100.723,190.419L101.445,191.472L102.168,192.613L102.891,194.083L103.613,195.133L104.336,196.718L105.059,197.995L105.781,199.498L106.504,200.974L107.227,202.484L107.949,204.06L108.672,205.8L109.395,207.472L110.117,209.136L110.84,211.36L111.563,212.978L112.285,215.039L113.008,217.115L113.73,219.236L114.453,221.396L115.176,223.465L115.898,225.889L116.621,228.198L117.344,230.939L118.066,233.462L118.789,236.126L119.512,238.478L120.234,241.558L120.957,244.149L121.68,247.313L122.402,250.323L123.125,253.357L123.848,256.503L124.57,259.558L125.293,262.599L126.016,265.519L126.738,268.915L127.461,272.063L128.184,275.272L128.906,279.036L129.629,281.623L130.352,285.327L131.074,288.473L131.797,291.973L132.52,295.115L133.242,298.255L133.965,300.857L134.688,304.572L135.41,307.229L136.133,310.152L136.855,313.309L137.578,316.282L138.301,319.062L139.023,321.225L139.746,323.866L140.469,326.742L141.191,328.726L141.914,331.019L142.637,333.11L143.359,335.196L144.082,337.12L144.805,338.895L145.527,340.713L146.25,342.118L146.973,343.61L147.695,344.657L148.418,345.872L149.141,346.726L149.863,347.642L150.586,348.36L151.309,348.819L152.031,349.42L152.754,349.445L153.477,350L154.199,349.355L154.922,349.209L155.645,349.102L156.367,348.746L157.09,347.768L157.813,347.413L158.535,346.49L159.258,345.203L159.98,344.092L160.703,343.21L161.426,341.793L162.148,340.244L162.871,339.041L163.594,337.405L164.316,335.061L165.039,333.66L165.762,331.289L166.484,329.08L167.207,327.247L167.93,324.982L168.652,322.589L169.375,320.097L170.098,317.38L170.82,314.935L171.543,312.111L172.266,309.194L172.988,306.387L173.711,303.915L174.434,300.756L175.156,297.891L175.879,294.688L176.602,292.194L177.324,289.003L178.047,285.978L178.77,282.343L179.492,279.961L180.215,276.617L180.938,273.575L181.66,270.08L182.383,266.896L183.105,263.974L183.828,260.27L184.551,257.251L185.273,254.146L185.996,250.836L186.719,247.629L187.441,244.528L188.164,241.345L188.887,238.143L189.609,234.728L190.332,231.517L191.055,228.483L191.777,225.716L192.5,222.168L193.223,219.008L193.945,215.983L194.668,213.005L195.391,209.802L196.113,207.196L196.836,203.776L197.559,200.994L198.281,197.786L199.004,195.072L199.727,192.039L200.449,189.509L201.172,186.35L201.895,183.495L202.617,180.979L203.34,178.044L204.063,175.268L204.785,172.743L205.508,169.752L206.23,167.259L206.953,164.411L207.676,161.873L208.398,159.423L209.121,156.756L209.844,154.038L210.566,151.522L211.289,149.22L212.012,146.783L212.734,144.394L213.457,142.006L214.18,139.513L214.902,137.473L215.625,134.859L216.348,132.746L217.07,130.515L217.793,128.366L218.516,126.431L219.238,124.307L219.961,122.064L220.684,121.867L221.406,122.21L222.129,122.642L222.852,123.062L223.574,123.663L224.297,124.033L225.02,123.309L225.742,121.544L226.465,120.142L227.188,118.697L227.91,117.25L228.633,115.765L229.355,114.217L230.078,112.897L230.801,111.558L231.523,109.832L232.246,108.577L232.969,107.285L233.691,105.728L234.414,104.311L235.137,103.255L235.859,102.007L236.582,100.558L237.305,99.156L238.027,98.144L238.75,96.867L239.473,95.385L240.195,94.391L240.918,92.817L241.641,91.891L242.363,90.602L243.086,89.286L243.809,88.08L244.531,87.15L245.254,85.853L245.977,84.682L246.699,83.535L247.422,82.511L248.145,81.477L248.867,80.244L249.59,79.215L250.313,78.313L251.035,77.331L251.758,76.095L252.48,75.116L253.203,74.324L253.926,73.176L254.648,72.321L255.371,71.376L256.094,70.371L256.816,69.578L257.539,68.802L258.262,67.833L258.984,67.097L259.707,66.332L260.43,65.507L261.152,64.77L261.875,63.866L262.598,63.07L263.32,62.495L264.043,61.681L264.766,61.131L265.488,60.243L266.211,59.706L266.934,58.931L267.656,58.325L268.379,57.661L269.102,57.04L269.824,56.46L270.547,55.843L271.27,55.231L271.992,54.628L272.715,54.039L273.438,53.529L274.16,52.785L274.883,52.25L275.605,51.751L276.328,51.199L277.051,50.71L277.773,50.202L278.496,49.658L279.219,49.108L279.941,48.651L280.664,48.089L281.387,47.637L282.109,47.221L282.832,46.612L283.555,46.296L284.277,45.68L285,45.411L285.723,44.733L286.445,44.356L287.168,43.875L287.891,43.498L288.613,43.234L289.336,42.594L290.059,42.238L290.781,42.024L291.504,41.586L292.227,41.044L292.949,40.78L293.672,40.381L294.395,39.946L295.117,39.593L295.84,39.263L296.563,38.891L297.285,38.381L298.008,38.128L298.73,37.713L299.453,37.373L300.176,37.301L300.898,36.776L301.621,36.446L302.344,36.13L303.066,35.954L303.789,35.559L304.512,35.401L305.234,34.91L305.957,34.781L306.68,34.255L307.402,34.057L308.125,33.912L308.848,33.545L309.57,33.316L310.293,33.199L311.016,32.846L311.738,32.527L312.461,32.392L313.184,32.01L313.906,31.704L314.629,31.566L315.352,31.417L316.074,31.182L316.797,30.838L317.52,30.632L318.242,30.609L318.965,30.165L319.688,30.064L320.41,29.605L321.133,29.764L321.855,29.394L322.578,29.271L323.301,28.995L324.023,28.938L324.746,28.68L325.469,28.546L326.191,28.466L326.914,28.147L327.637,27.986L328.359,27.748L329.082,27.717L329.805,27.496L330.527,27.476L331.25,27.118L331.973,26.99L332.695,26.934L333.418,26.787L334.141,26.801L334.863,26.378L335.586,26.35L336.309,26.206L337.031,26.128L337.754,25.92L338.477,25.831L339.199,25.629L339.922,25.65L340.645,25.399L341.367,25.335L342.09,25.133L342.813,25.102L343.535,25.088L344.258,24.753L344.98,24.741L345.703,24.803L346.426,24.587L347.148,24.554L347.871,24.464L348.594,24.09L349.316,24.008L350.039,24.165L350.762,24.086L351.484,23.877L352.207,23.772L352.93,23.64L353.652,23.608L354.375,23.696L355.098,23.121L355.82,23.367L356.543,23.344L357.266,23.318L357.988,23.106L358.711,22.929L359.434,23.06L360.156,22.864L360.879,22.964L361.602,22.817L362.324,22.875L363.047,22.443L363.77,22.758L364.492,22.473L365.215,22.379L365.938,22.319L366.66,22.131L367.383,22.363L368.105,22.225L368.828,22.191L369.551,22.232L370.273,22.325L370.996,22.014L371.719,22.034L372.441,22.024L373.164,22.064L373.887,21.888L374.609,22.308L375.332,22.081L376.055,21.721L376.777,21.447L377.5,21.287L378.223,21.423L378.945,21.706L379.668,21.362L380.391,21.375L381.113,21.486L381.836,21.352L382.559,21.392L383.281,21.228L384.004,21.038L384.727,21.618L385.449,21.387L386.172,21.565L386.895,21.314L387.617,21.58L388.34,21.957L389.063,21.494L389.785,21.269L390.508,21.345L391.23,21.192L391.953,21.888L392.676,21.461L393.398,21.445L394.121,21.66L394.844,21.558L395.566,21.418L396.289,21.384L397.012,21.284L397.734,21.46L398.457,21.391L399.18,21.568L399.902,20.894L400.625,22.577L401.348,22.41L402.07,22.028L402.793,22.086L403.516,21.685L404.238,22.119L404.961,22.821L405.684,23.016L406.406,23.501L407.129,23.22L407.852,24.265L408.574,23.473L409.297,25.267L410.02,24.635L410.742,23.02L411.465,23.942L412.188,23.609L412.91,25.001L413.633,24.86L414.355,25.477L415.078,26.298L415.801,27.108L416.523,26.646L417.246,26.808L417.969,26.984L418.691,29.086L419.414,26.853L420.137,28.133L420.859,28.09L421.582,27.455L422.305,28.302L423.027,27.699L423.75,28.893L424.473,28.914L425.195,28.076L425.918,27.69L426.641,28.1L427.363,28.674L428.086,28.12L428.809,27.518L429.531,26.687L430.254,26.856L430.977,26.376L431.699,26.58L432.422,26.643L433.145,25.6L433.867,25.259L434.59,25.85L435.313,24.834L436.035,24.896L436.758,24.57L437.48,24.495L438.203,24.832L438.926,23.953L439.648,23.507L440.371,24.136L441.094,22.804L441.816,23.508L442.539,23.257L443.262,23.069L443.984,23.176L444.707,22.624L445.43,22.755L446.152,22.507L446.875,22.197L447.598,22.052L448.32,21.98L449.043,22.025L449.766,21.731L450.488,21.722L451.211,21.374L451.934,21.01L452.656,21.518L453.379,20.887L454.102,21.076L454.824,21.114L455.547,21.143L456.27,21.102L456.992,20.885L457.715,20.839L458.438,20.627L459.16,20.791L459.883,20.684L460.605,20.546L461.328,20.456L462.051,20.64L462.773,20.597L463.496,20.43L464.219,20.498L464.941,20.478L465.664,20.455L466.387,20.26L467.109,20.3L467.832,20.375L468.555,20.157L469.277,20.188"/><path fill="none" stroke="rgb(69, 105, 238)" stroke-width="1.5" d="M100,187.365L100.723,188.349L101.445,189.476L102.168,190.595L102.891,191.771L103.613,192.984L104.336,194.12L105.059,195.571L105.781,196.469L106.504,198.034L107.227,199.241L107.949,200.444L108.672,202.022L109.395,203.395L110.117,204.933L110.84,206.45L111.563,208.193L112.285,209.62L113.008,211.268L113.73,212.57L114.453,214.719L115.176,216.103L115.898,218.138L116.621,219.651L117.344,221.683L118.066,223.416L118.789,225.428L119.512,227.365L120.234,229.272L120.957,231.471L121.68,233.164L122.402,235.489L123.125,237.348L123.848,239.077L124.57,241.329L125.293,243.446L126.016,245.833L126.738,247.715L127.461,249.795L128.184,251.854L128.906,253.965L129.629,256.065L130.352,258.047L131.074,260.005L131.797,262.218L132.52,263.986L133.242,265.998L133.965,267.855L134.688,269.657L135.41,271.521L136.133,273.294L136.855,274.97L137.578,276.75L138.301,278.112L139.023,279.97L139.746,281.517L140.469,282.644L141.191,283.812L141.914,285.105L142.637,286.302L143.359,287.198L144.082,288.393L144.805,289.053L145.527,290.047L146.25,290.799L146.973,291.281L147.695,291.829L148.418,292.094L149.141,292.716L149.863,292.872L150.586,292.799L151.309,292.831L152.031,292.789L152.754,292.503L153.477,291.918L154.199,292.114L154.922,291.356L155.645,290.724L156.367,290.211L157.09,289.445L157.813,288.122L158.535,287.444L159.258,286.043L159.98,284.826L160.703,283.951L161.426,282.335L162.148,281.173L162.871,279.613L163.594,277.532L164.316,275.799L165.039,274.647L165.762,272.741L166.484,270.854L167.207,268.704L167.93,266.6L168.652,264.369L169.375,262.093L170.098,259.754L170.82,258.009L171.543,255.577L172.266,253.026L172.988,250.9L173.711,248.404L174.434,245.628L175.156,243.565L175.879,240.647L176.602,238.149L177.324,235.688L178.047,233.167L178.77,230.433L179.492,227.788L180.215,225.26L180.938,222.259L181.66,219.698L182.383,217.385L183.105,214.577L183.828,211.769L184.551,209.036L185.273,206.549L185.996,203.692L186.719,200.985L187.441,198.159L188.164,195.494L188.887,192.528L189.609,190.093L190.332,187.55L191.055,185.005L191.777,182.392L192.5,179.75L193.223,177.156L193.945,174.373L194.668,171.73L195.391,169.489L196.113,166.608L196.836,164.335L197.559,161.837L198.281,159.32L199.004,156.968L199.727,154.496L200.449,152.101L201.172,149.699L201.895,147.388L202.617,145.217L203.34,142.882L204.063,140.447L204.785,138.142L205.508,135.781L206.23,133.924L206.953,131.822L207.676,129.421L208.398,127.327L209.121,125.311L209.844,123.084L210.566,120.948L211.289,119.048L212.012,116.9L212.734,115.064L213.457,112.982L214.18,111.34L214.902,109.071L215.625,107.146L216.348,105.493L217.07,103.668L217.793,101.801L218.516,100.1L219.238,98.868L219.961,99.667L220.684,100.241L221.406,101.149L222.129,101.795L222.852,102.477L223.574,103.124L224.297,101.774L225.02,100.747L225.742,99.566L226.465,98.218L227.188,97.049L227.91,95.95L228.633,94.959L229.355,93.599L230.078,92.568L230.801,91.129L231.523,90.253L232.246,89.152L232.969,88.129L233.691,86.942L234.414,85.799L235.137,84.745L235.859,83.621L236.582,82.686L237.305,81.677L238.027,80.698L238.75,79.652L239.473,78.569L240.195,77.704L240.918,76.588L241.641,75.56L242.363,74.617L243.086,73.736L243.809,72.72L244.531,71.843L245.254,70.968L245.977,70.093L246.699,69.065L247.422,68.143L248.145,67.322L248.867,66.486L249.59,65.69L250.313,64.827L251.035,63.994L251.758,63.288L252.48,62.472L253.203,61.744L253.926,60.918L254.648,60.439L255.371,59.619L256.094,58.966L256.816,58.257L257.539,57.659L258.262,57.047L258.984,56.287L259.707,55.692L260.43,54.988L261.152,54.559L261.875,53.918L262.598,53.347L263.32,52.865L264.043,52.31L264.766,51.92L265.488,51.249L266.211,50.799L266.934,50.369L267.656,49.88L268.379,49.447L269.102,48.946L269.824,48.569L270.547,48.156L271.27,47.621L271.992,47.27L272.715,46.91L273.438,46.459L274.16,46.165L274.883,45.734L275.605,45.269L276.328,44.899L277.051,44.471L277.773,44.167L278.496,43.735L279.219,43.337L279.941,43.042L280.664,42.702L281.387,42.27L282.109,41.801L282.832,41.63L283.555,41.321L284.277,40.874L285,40.439L285.723,40.22L286.445,39.986L287.168,39.529L287.891,39.295L288.613,38.9L289.336,38.509L290.059,38.238L290.781,37.961L291.504,37.625L292.227,37.24L292.949,37.139L293.672,36.75L294.395,36.454L295.117,36.091L295.84,35.9L296.563,35.684L297.285,35.284L298.008,34.978L298.73,34.741L299.453,34.598L300.176,34.308L300.898,34.092L301.621,33.776L302.344,33.513L303.066,33.319L303.789,32.993L304.512,32.605L305.234,32.504L305.957,32.323L306.68,32.075L307.402,31.769L308.125,31.52L308.848,31.379L309.57,31.168L310.293,31.102L311.016,30.867L311.738,30.654L312.461,30.442L313.184,30.193L313.906,29.943L314.629,29.694L315.352,29.594L316.074,29.488L316.797,29.306L317.52,29.108L318.242,28.96L318.965,28.75L319.688,28.667L320.41,28.364L321.133,28.319L321.855,28.104L322.578,27.957L323.301,27.981L324.023,27.708L324.746,27.707L325.469,27.363L326.191,27.383L326.914,27.16L327.637,27.03L328.359,26.817L329.082,26.865L329.805,26.557L330.527,26.477L331.25,26.386L331.973,26.038L332.695,26.099L333.418,25.917L334.141,26.102L334.863,25.912L335.586,25.622L336.309,25.565L337.031,25.387L337.754,25.319L338.477,24.957L339.199,25.054L339.922,25.185L340.645,24.949L341.367,24.933L342.09,24.494L342.813,24.645L343.535,24.344L344.258,24.192L344.98,24.335L345.703,24.254L346.426,24.386L347.148,24.203L347.871,23.853L348.594,23.775L349.316,23.926L350.039,23.738L350.762,23.706L351.484,23.389L352.207,23.516L352.93,23.437L353.652,23.099L354.375,22.959L355.098,22.862L355.82,23.062L356.543,23.458L357.266,22.765L357.988,23.197L358.711,23.35L359.434,22.627L360.156,22.635L360.879,22.546L361.602,23.005L362.324,22.439L363.047,22.329L363.77,22.553L364.492,22.133L365.215,22.898L365.938,22.411L366.66,22.509L367.383,22.146L368.105,22.105L368.828,22.02L369.551,22.336L370.273,21.742L370.996,21.536L371.719,22.132L372.441,21.387L373.164,21.88L373.887,21.823L374.609,21.252L375.332,21.368L376.055,21.243L376.777,22.15L377.5,21.907L378.223,21.967L378.945,21.496L379.668,21.636L380.391,21.438L381.113,21.291L381.836,21.114L382.559,21.539L383.281,21.026L384.004,21.368L384.727,21.963L385.449,21.028L386.172,22.366L386.895,21.125L387.617,21.424L388.34,21.143L389.063,21.019L389.785,22.035L390.508,20.533L391.23,21.671L391.953,21.183L392.676,21.3L393.398,20.974L394.121,21.005L394.844,20.898L395.566,21.325L396.289,21.665L397.012,21.249L397.734,21.532L398.457,21.253L399.18,21.833L399.902,20.757L400.625,21.733L401.348,21.583L402.07,21.322L402.793,22.612L403.516,23.144L404.238,23.004L404.961,21.81L405.684,22.856L406.406,22.594L407.129,22.203L407.852,22.972L408.574,23.65L409.297,23.415L410.02,24.355L410.742,24.024L411.465,24.198L412.188,24.359L412.91,24.319L413.633,25.685L414.355,24.247L415.078,24.272L415.801,25.431L416.523,25.076L417.246,26.216L417.969,27.249L418.691,26.084L419.414,27.445L420.137,26.61L420.859,26.915L421.582,26.062L422.305,26.384L423.027,27.508L423.75,26.554L424.473,27.365L425.195,27.62L425.918,26.521L426.641,27.316L427.363,26.364L428.086,27.663L428.809,27.235L429.531,25.871L430.254,26.114L430.977,25.991L431.699,25.518L432.422,25.26L433.145,25.384L433.867,25.252L434.59,25.706L435.313,25.09L436.035,24.693L436.758,24.638L437.48,23.925L438.203,23.295L438.926,23.624L439.648,24.161L440.371,23.17L441.094,23.13L441.816,23.013L442.539,23.012L443.262,22.83L443.984,22.828L444.707,22.695L445.43,22.549L446.152,21.79L446.875,22.021L447.598,21.754L448.32,21.864L449.043,21.645L449.766,21.476L450.488,21.037L451.211,21.201L451.934,21.281L452.656,21.105L453.379,21.001L454.102,20.95L454.824,21.107L455.547,20.974L456.27,20.801L456.992,20.682L457.715,20.698L458.438,20.496L459.16,20.465L459.883,20.565L460.605,20.625L461.328,20.34L462.051,20.51L462.773,20.38L463.496,20.446L464.219,20.36L464.941,20.487L465.664,20.37L466.387,20.332L467.109,20.358L467.832,20.222L468.555,20.266L469.277,20.255"/><path fill="none" stroke="rgb(38, 188, 225)" stroke-width="1.5" d="M100,182.841L100.723,183.52L101.445,184.451L102.168,185.699L102.891,186.57L103.613,187.231L104.336,188.415L105.059,189.439L105.781,190.484L106.504,191.496L107.227,192.659L107.949,193.774L108.672,194.825L109.395,195.908L110.117,196.865L110.84,198.202L111.563,199.436L112.285,200.657L113.008,201.966L113.73,203.151L114.453,204.293L115.176,205.847L115.898,207.028L116.621,208.156L117.344,209.669L118.066,211.073L118.789,212.337L119.512,213.686L120.234,215.273L120.957,216.651L121.68,217.745L122.402,219.34L123.125,220.68L123.848,221.793L124.57,223.372L125.293,224.871L126.016,226.006L126.738,227.616L127.461,228.939L128.184,230.143L128.906,231.194L129.629,232.716L130.352,233.868L131.074,235.245L131.797,236.431L132.52,237.418L133.242,238.577L133.965,239.592L134.688,240.586L135.41,241.953L136.133,242.668L136.855,243.212L137.578,244.348L138.301,245.234L139.023,246.002L139.746,246.232L140.469,247.045L141.191,247.707L141.914,247.865L142.637,248.508L143.359,248.85L144.082,249.153L144.805,249.198L145.527,249.368L146.25,249.178L146.973,249.48L147.695,249.129L148.418,248.854L149.141,248.865L149.863,248.25L150.586,248.108L151.309,247.232L152.031,246.778L152.754,246.096L153.477,245.53L154.199,244.932L154.922,243.619L155.645,242.391L156.367,241.499L157.09,240.618L157.813,239.362L158.535,237.727L159.258,236.654L159.98,235.178L160.703,233.549L161.426,232.195L162.148,230.57L162.871,229.046L163.594,227.289L164.316,225.78L165.039,223.63L165.762,222.122L166.484,219.879L167.207,218.088L167.93,216.244L168.652,214.063L169.375,212.094L170.098,209.943L170.82,207.496L171.543,205.882L172.266,203.494L172.988,201.212L173.711,199.259L174.434,197.023L175.156,194.617L175.879,192.475L176.602,190.233L177.324,188.071L178.047,185.5L178.77,183.274L179.492,181.077L180.215,178.456L180.938,176.461L181.66,173.961L182.383,171.58L183.105,169.299L183.828,167.09L184.551,164.691L185.273,162.266L185.996,160.5L186.719,157.929L187.441,155.381L188.164,153.295L188.887,151.086L189.609,148.814L190.332,146.556L191.055,144.404L191.777,142.104L192.5,140.066L193.223,137.856L193.945,135.601L194.668,133.675L195.391,131.643L196.113,129.554L196.836,127.516L197.559,125.346L198.281,123.19L199.004,121.229L199.727,119.34L200.449,117.256L201.172,115.224L201.895,113.514L202.617,111.803L203.34,109.502L204.063,107.771L204.785,105.904L205.508,104.184L206.23,102.591L206.953,100.594L207.676,98.836L208.398,96.97L209.121,95.503L209.844,93.588L210.566,91.892L211.289,90.364L212.012,88.773L212.734,87.156L213.457,85.744L214.18,84.004L214.902,82.569L215.625,81.071L216.348,81.172L217.07,81.988L217.793,82.945L218.516,83.952L219.238,85.062L219.961,86.115L220.684,86.067L221.406,85.185L222.129,84.11L222.852,83.165L223.574,82.191L224.297,81.212L225.02,80.224L225.742,79.232L226.465,78.438L227.188,77.58L227.91,76.534L228.633,75.672L229.355,74.722L230.078,73.734L230.801,72.96L231.523,72.086L232.246,71.111L232.969,70.184L233.691,69.644L234.414,68.55L235.137,67.779L235.859,67.032L236.582,66.233L237.305,65.422L238.027,64.534L238.75,63.767L239.473,62.845L240.195,62.184L240.918,61.472L241.641,60.852L242.363,60.033L243.086,59.298L243.809,58.617L244.531,57.951L245.254,57.194L245.977,56.589L246.699,55.969L247.422,55.218L248.145,54.569L248.867,54.082L249.59,53.302L250.313,52.757L251.035,52.285L251.758,51.64L252.48,51.106L253.203,50.632L253.926,50.153L254.648,49.638L255.371,49.064L256.094,48.607L256.816,48.234L257.539,47.706L258.262,47.227L258.984,46.895L259.707,46.391L260.43,46.017L261.152,45.802L261.875,45.427L262.598,45.091L263.32,44.67L264.043,44.374L264.766,44.089L265.488,43.741L266.211,43.45L266.934,43.133L267.656,42.875L268.379,42.701L269.102,42.429L269.824,42.129L270.547,41.877L271.27,41.48L271.992,41.333L272.715,41.038L273.438,40.791L274.16,40.496L274.883,40.247L275.605,40.004L276.328,39.734L277.051,39.451L277.773,39.236L278.496,39.076L279.219,38.768L279.941,38.505L280.664,38.24L281.387,37.976L282.109,37.705L282.832,37.441L283.555,37.182L284.277,36.949L285,36.664L285.723,36.341L286.445,36.159L287.168,35.886L287.891,35.586L288.613,35.37L289.336,35.093L290.059,34.861L290.781,34.647L291.504,34.396L292.227,34.155L292.949,33.867L293.672,33.711L294.395,33.377L295.117,33.173L295.84,32.968L296.563,32.669L297.285,32.63L298.008,32.201L298.73,32.139L299.453,31.705L300.176,31.591L300.898,31.481L301.621,31.265L302.344,30.982L303.066,30.768L303.789,30.735L304.512,30.342L305.234,30.175L305.957,29.913L306.68,29.906L307.402,29.61L308.125,29.408L308.848,29.341L309.57,29.225L310.293,28.944L311.016,28.73L311.738,28.691L312.461,28.45L313.184,28.406L313.906,28.196L314.629,28.072L315.352,27.88L316.074,27.704L316.797,27.627L317.52,27.364L318.242,27.172L318.965,27.154L319.688,26.918L320.41,26.72L321.133,26.565L321.855,26.475L322.578,26.526L323.301,26.41L324.023,26.276L324.746,26.008L325.469,25.94L326.191,25.862L326.914,25.619L327.637,25.494L328.359,25.472L329.082,25.469L329.805,25.276L330.527,25.191L331.25,25.132L331.973,25.072L332.695,24.82L333.418,24.871L334.141,24.635L334.863,24.696L335.586,24.561L336.309,24.373L337.031,24.315L337.754,24.212L338.477,24.142L339.199,24.017L339.922,24.067L340.645,24.017L341.367,23.877L342.09,23.877L342.813,23.727L343.535,23.542L344.258,23.289L344.98,23.472L345.703,23.655L346.426,23.354L347.148,23.374L347.871,23.235L348.594,23.095L349.316,23.572L350.039,23.017L350.762,23.25L351.484,23.015L352.207,22.539L352.93,23.072L353.652,22.462L354.375,23.04L355.098,22.515L355.82,22.426L356.543,22.767L357.266,22.451L357.988,22.542L358.711,22.197L359.434,22.323L360.156,22.484L360.879,22.225L361.602,22.24L362.324,22.345L363.047,22.192L363.77,21.814L364.492,21.956L365.215,21.917L365.938,21.689L366.66,21.9L367.383,21.983L368.105,21.591L368.828,21.898L369.551,21.443L370.273,22.017L370.996,21.339L371.719,21.585L372.441,21.785L373.164,21.424L373.887,21.609L374.609,20.768L375.332,21.471L376.055,21.166L376.777,21.736L377.5,21.076L378.223,21.44L378.945,21.467L379.668,22.267L380.391,21.364L381.113,21.405L381.836,21.324L382.559,21.351L383.281,21.111L384.004,21.224L384.727,21.546L385.449,20.701L386.172,21.365L386.895,21.092L387.617,20.601L388.34,21.181L389.063,21.423L389.785,21.345L390.508,20.027L391.23,21.398L391.953,21.64L392.676,20.998L393.398,20.956L394.121,21.133L394.844,21.427L395.566,21.456L396.289,20.622L397.012,21.216L397.734,21.397L398.457,21.017L399.18,20.444L399.902,20.98L400.625,21.042L401.348,20.808L402.07,21.889L402.793,21.304L403.516,22.32L404.238,22.352L404.961,23.141L405.684,22.023L406.406,21.194L407.129,21.205L407.852,22.729L408.574,22.202L409.297,21.045L410.02,22.551L410.742,21.213L411.465,22.791L412.188,22.399L412.91,21.878L413.633,22.323L414.355,22.621L415.078,24.328L415.801,23.39L416.523,23.413L417.246,23.784L417.969,22.934L418.691,24.566L419.414,23.939L420.137,22.991L420.859,24.783L421.582,23.607L422.305,23.926L423.027,25.097L423.75,23.972L424.473,24.325L425.195,24.17L425.918,24.713L426.641,24.721L427.363,24.14L428.086,24.457L428.809,23.712L429.531,25.032L430.254,24.072L430.977,24.028L431.699,23.728L432.422,23.619L433.145,23.39L433.867,22.741L434.59,23.171L435.313,23.371L436.035,24.01L436.758,22.989L437.48,22.938L438.203,23.039L438.926,22.879L439.648,22.692L440.371,22.693L441.094,22.49L441.816,22.154L442.539,21.997L443.262,21.711L443.984,21.807L444.707,22.183L445.43,21.167L446.152,21.306L446.875,21.668L447.598,21.449L448.32,21.136L449.043,21.499L449.766,21.084L450.488,21.085L451.211,20.964L451.934,20.836L452.656,20.577L453.379,20.953L454.102,20.75L454.824,20.578L455.547,20.51L456.27,20.586L456.992,20.638L457.715,20.43L458.438,20.584L459.16,20.451L459.883,20.5L460.605,20.403L461.328,20.298L462.051,20.394L462.773,20.227L463.496,20.38L464.219,20.387L464.941,20.412L465.664,20.216L466.387,20.189L467.109,20.184L467.832,20.153L468.555,20.154L469.277,20.131"/><path fill="none" stroke="rgb(63, 243, 147)" stroke-width="1.5" d="M100,177.452L100.723,178.208L101.445,178.974L102.168,179.668L102.891,180.475L103.613,181.393L104.336,182.107L105.059,182.942L105.781,183.886L106.504,184.603L107.227,185.532L107.949,186.515L108.672,187.275L109.395,188.105L110.117,189.038L110.84,190.072L111.563,190.936L112.285,191.709L113.008,192.857L113.73,193.481L114.453,194.671L115.176,195.538L115.898,196.342L116.621,197.525L117.344,198.479L118.066,199.291L118.789,200.054L119.512,201.163L120.234,202.202L120.957,203.171L121.68,203.94L122.402,204.754L123.125,205.699L123.848,206.415L124.57,207.518L125.293,208.099L126.016,208.868L126.738,209.653L127.461,210.326L128.184,211.179L128.906,211.797L129.629,212.605L130.352,213.248L131.074,213.7L131.797,214.337L132.52,214.666L133.242,214.997L133.965,215.626L134.688,215.647L135.41,215.804L136.133,216.308L136.855,216.612L137.578,216.48L138.301,216.724L139.023,216.57L139.746,216.806L140.469,216.74L141.191,216.37L141.914,216.048L142.637,215.924L143.359,215.609L144.082,215.204L144.805,214.625L145.527,214.248L146.25,213.34L146.973,212.766L147.695,212.106L148.418,211.278L149.141,210.521L149.863,209.462L150.586,208.54L151.309,207.383L152.031,206.409L152.754,205.151L153.477,203.973L154.199,202.703L154.922,201.348L155.645,200.176L156.367,198.631L157.09,197.049L157.813,195.658L158.535,194.163L159.258,192.315L159.98,190.789L160.703,189.218L161.426,187.462L162.148,185.66L162.871,183.888L163.594,181.914L164.316,180.279L165.039,178.568L165.762,176.492L166.484,174.48L167.207,172.46L167.93,170.677L168.652,168.817L169.375,166.863L170.098,164.747L170.82,162.809L171.543,160.745L172.266,158.83L172.988,156.719L173.711,154.595L174.434,152.855L175.156,150.753L175.879,148.681L176.602,146.559L177.324,144.552L178.047,142.364L178.77,140.67L179.492,138.513L180.215,136.357L180.938,134.477L181.66,132.351L182.383,130.549L183.105,128.728L183.828,126.531L184.551,124.515L185.273,122.678L185.996,120.701L186.719,118.927L187.441,117.099L188.164,115.243L188.887,113.04L189.609,111.429L190.332,109.502L191.055,107.84L191.777,105.989L192.5,104.392L193.223,102.382L193.945,100.612L194.668,99.065L195.391,97.159L196.113,95.759L196.836,93.98L197.559,92.044L198.281,90.482L199.004,89.173L199.727,87.336L200.449,86.009L201.172,84.478L201.895,83.017L202.617,81.323L203.34,79.733L204.063,78.356L204.785,76.969L205.508,75.609L206.23,74.022L206.953,72.668L207.676,71.26L208.398,69.874L209.121,68.68L209.844,67.263L210.566,67L211.289,68.21L212.012,69.25L212.734,70.512L213.457,71.666L214.18,72.958L214.902,73.646L215.625,72.687L216.348,71.911L217.07,71.292L217.793,70.456L218.516,69.632L219.238,68.909L219.961,68.023L220.684,67.392L221.406,66.614L222.129,65.789L222.852,65.003L223.574,64.348L224.297,63.543L225.02,62.936L225.742,62.285L226.465,61.461L227.188,60.713L227.91,60.214L228.633,59.487L229.355,58.752L230.078,58.2L230.801,57.433L231.523,56.85L232.246,56.027L232.969,55.558L233.691,55.055L234.414,54.247L235.137,53.741L235.859,53.052L236.582,52.627L237.305,51.875L238.027,51.269L238.75,50.829L239.473,50.322L240.195,49.754L240.918,49.236L241.641,48.768L242.363,48.158L243.086,47.814L243.809,47.225L244.531,46.719L245.254,46.454L245.977,45.839L246.699,45.574L247.422,45.018L248.145,44.746L248.867,44.288L249.59,43.888L250.313,43.616L251.035,43.111L251.758,42.886L252.48,42.562L253.203,42.263L253.926,41.886L254.648,41.665L255.371,41.384L256.094,41.16L256.816,40.828L257.539,40.549L258.262,40.409L258.984,40.146L259.707,39.764L260.43,39.645L261.152,39.435L261.875,39.127L262.598,39.06L263.32,38.794L264.043,38.502L264.766,38.257L265.488,38.117L266.211,38.059L266.934,37.782L267.656,37.647L268.379,37.526L269.102,37.321L269.824,37.148L270.547,37.13L271.27,36.898L271.992,36.649L272.715,36.459L273.438,36.276L274.16,36.146L274.883,35.919L275.605,35.886L276.328,35.621L277.051,35.442L277.773,35.273L278.496,35.117L279.219,34.867L279.941,34.698L280.664,34.568L281.387,34.333L282.109,34.205L282.832,33.937L283.555,33.7L284.277,33.574L285,33.439L285.723,33.172L286.445,33.019L287.168,32.79L287.891,32.567L288.613,32.374L289.336,32.24L290.059,32.013L290.781,31.798L291.504,31.595L292.227,31.422L292.949,31.215L293.672,30.991L294.395,30.866L295.117,30.692L295.84,30.462L296.563,30.29L297.285,30.077L298.008,29.952L298.73,29.849L299.453,29.609L300.176,29.518L300.898,29.281L301.621,29.123L302.344,28.958L303.066,28.768L303.789,28.615L304.512,28.519L305.234,28.337L305.957,28.206L306.68,28.065L307.402,27.911L308.125,27.78L308.848,27.595L309.57,27.645L310.293,27.411L311.016,27.228L311.738,27.12L312.461,26.941L313.184,26.869L313.906,26.688L314.629,26.661L315.352,26.485L316.074,26.424L316.797,26.252L317.52,26.15L318.242,26.059L318.965,25.926L319.688,26.02L320.41,25.711L321.133,25.586L321.855,25.508L322.578,25.387L323.301,25.265L324.023,25.186L324.746,25.119L325.469,25.002L326.191,24.891L326.914,24.72L327.637,24.85L328.359,24.582L329.082,24.617L329.805,24.381L330.527,24.343L331.25,24.486L331.973,24.236L332.695,24.241L333.418,23.843L334.141,23.939L334.863,23.931L335.586,23.798L336.309,23.895L337.031,23.659L337.754,23.674L338.477,23.588L339.199,23.538L339.922,23.431L340.645,23.28L341.367,23.257L342.09,23.314L342.813,23.094L343.535,23.283L344.258,23.086L344.98,22.977L345.703,22.917L346.426,22.84L347.148,22.837L347.871,22.801L348.594,22.598L349.316,22.662L350.039,22.502L350.762,22.474L351.484,22.409L352.207,22.344L352.93,22.292L353.652,22.46L354.375,22.092L355.098,22.329L355.82,22.387L356.543,22.56L357.266,22.32L357.988,21.79L358.711,21.997L359.434,21.946L360.156,21.954L360.879,21.474L361.602,22.179L362.324,21.809L363.047,21.917L363.77,21.793L364.492,21.941L365.215,22.031L365.938,21.401L366.66,21.675L367.383,21.901L368.105,21.656L368.828,21.666L369.551,21.67L370.273,20.942L370.996,21.772L371.719,21.27L372.441,21.516L373.164,20.91L373.887,21.317L374.609,21.952L375.332,21.159L376.055,21.092L376.777,21.183L377.5,21.471L378.223,21.488L378.945,21.019L379.668,20.342L380.391,21.167L381.113,21.179L381.836,20.984L382.559,21.387L383.281,21.257L384.004,21.045L384.727,20.402L385.449,21.458L386.172,20.252L386.895,20.885L387.617,21.032L388.34,20.323L389.063,21.039L389.785,21.14L390.508,20.736L391.23,20.859L391.953,21.089L392.676,20.669L393.398,20.383L394.121,20.974L394.844,20.31L395.566,20.446L396.289,20.535L397.012,21.472L397.734,21.362L398.457,21.105L399.18,20.086L399.902,20.719L400.625,20.821L401.348,20.058L402.07,20.247L402.793,20.887L403.516,21.711L404.238,21.088L404.961,21.19L405.684,20.732L406.406,21.339L407.129,20.711L407.852,20.481L408.574,20.887L409.297,20.317L410.02,21.759L410.742,20.113L411.465,21.523L412.188,21.683L412.91,21.38L413.633,21.508L414.355,21.534L415.078,22.03L415.801,20.176L416.523,21.649L417.246,22.289L417.969,20.579L418.691,20.759L419.414,21.286L420.137,21.518L420.859,21.394L421.582,20.395L422.305,23.35L423.027,22.336L423.75,22.538L424.473,20.897L425.195,21.39L425.918,21.296L426.641,20.898L427.363,21.177L428.086,20.902L428.809,21.486L429.531,22.201L430.254,21.48L430.977,21.493L431.699,21.152L432.422,21.178L433.145,20.437L433.867,21.77L434.59,21.128L435.313,20.844L436.035,21.276L436.758,21.034L437.48,21.588L438.203,20.859L438.926,20.662L439.648,21.072L440.371,21.119L441.094,20.7L441.816,20.213L442.539,20.65L443.262,20.725L443.984,20.927L444.707,20.685L445.43,20.668L446.152,20.987L446.875,20.557L447.598,20.27L448.32,20.285L449.043,20.826L449.766,20.498L450.488,20.364L451.211,20.446L451.934,20.339L452.656,20.282L453.379,20.327L454.102,20.171L454.824,20.201L455.547,20.218L456.27,20.338L456.992,20.323L457.715,20.11L458.438,20.056L459.16,20.005L459.883,20.256L460.605,20.133L461.328,20.083L462.051,20.158L462.773,20.178L463.496,20.16L464.219,20.132L464.941,20.123L465.664,20.122L466.387,20.122L467.109,20.063L467.832,20.134L468.555,20.037L469.277,20.015"/><path fill="none" stroke="rgb(149, 251, 81)" stroke-width="1.5" d="M100,173.316L100.723,174.135L101.445,174.612L102.168,175.32L102.891,175.896L103.613,176.633L104.336,177.341L105.059,177.862L105.781,178.56L106.504,179.241L107.227,179.936L107.949,180.457L108.672,181.311L109.395,181.989L110.117,182.585L110.84,183.168L111.563,183.902L112.285,184.572L113.008,185.271L113.73,185.744L114.453,186.408L115.176,186.929L115.898,187.565L116.621,188.115L117.344,188.627L118.066,189.01L118.789,189.547L119.512,190.071L120.234,190.501L120.957,190.953L121.68,191.349L122.402,191.446L123.125,191.811L123.848,191.989L124.57,192.291L125.293,192.399L126.016,192.66L126.738,192.725L127.461,192.884L128.184,192.967L128.906,192.889L129.629,192.609L130.352,192.758L131.074,192.445L131.797,192.36L132.52,192.129L133.242,191.693L133.965,191.208L134.688,190.883L135.41,190.368L136.133,189.794L136.855,189.37L137.578,188.638L138.301,187.862L139.023,187.202L139.746,186.516L140.469,185.467L141.191,184.613L141.914,183.581L142.637,182.804L143.359,181.453L144.082,180.492L144.805,179.43L145.527,178.114L146.25,176.799L146.973,175.68L147.695,174.341L148.418,173.013L149.141,171.721L149.863,170.224L150.586,168.537L151.309,167.042L152.031,165.748L152.754,163.971L153.477,162.515L154.199,160.862L154.922,159.092L155.645,157.314L156.367,155.668L157.09,154.074L157.813,152.338L158.535,150.545L159.258,148.694L159.98,146.821L160.703,145.281L161.426,143.374L162.148,141.645L162.871,139.858L163.594,138.164L164.316,136.104L165.039,134.215L165.762,132.527L166.484,130.468L167.207,129.069L167.93,127.094L168.652,125.187L169.375,123.357L170.098,121.61L170.82,119.886L171.543,118.021L172.266,116.398L172.988,114.464L173.711,112.664L174.434,110.691L175.156,109.142L175.879,107.493L176.602,105.69L177.324,104.082L178.047,102.241L178.77,100.79L179.492,98.961L180.215,97.281L180.938,95.664L181.66,93.932L182.383,92.413L183.105,90.674L183.828,89.275L184.551,87.712L185.273,86.184L185.996,84.671L186.719,83.147L187.441,81.6L188.164,80.154L188.887,78.648L189.609,77.36L190.332,75.74L191.055,74.525L191.777,73.038L192.5,71.672L193.223,70.29L193.945,69.002L194.668,67.674L195.391,66.448L196.113,65.149L196.836,63.795L197.559,62.534L198.281,61.376L199.004,60.231L199.727,59.125L200.449,57.953L201.172,56.684L201.895,58.1L202.617,59.304L203.34,60.672L204.063,62.003L204.785,63.164L205.508,64.737L206.23,64.382L206.953,63.719L207.676,63.059L208.398,62.322L209.121,61.668L209.844,60.956L210.566,60.546L211.289,59.914L212.012,59.156L212.734,58.574L213.457,57.892L214.18,57.297L214.902,56.785L215.625,56.121L216.348,55.538L217.07,54.948L217.793,54.403L218.516,53.902L219.238,53.318L219.961,52.594L220.684,52.184L221.406,51.671L222.129,51.136L222.852,50.697L223.574,50.034L224.297,49.592L225.02,49.134L225.742,48.517L226.465,48.107L227.188,47.566L227.91,47.146L228.633,46.624L229.355,46.321L230.078,45.912L230.801,45.307L231.523,45.047L232.246,44.644L232.969,44.155L233.691,43.781L234.414,43.356L235.137,43.134L235.859,42.652L236.582,42.236L237.305,41.928L238.027,41.562L238.75,41.263L239.473,41.028L240.195,40.717L240.918,40.425L241.641,40.048L242.363,39.714L243.086,39.459L243.809,39.065L244.531,38.827L245.254,38.714L245.977,38.485L246.699,38.197L247.422,38.007L248.145,37.728L248.867,37.515L249.59,37.167L250.313,36.994L251.035,36.806L251.758,36.539L252.48,36.37L253.203,36.071L253.926,35.931L254.648,35.752L255.371,35.63L256.094,35.422L256.816,35.239L257.539,35.06L258.262,34.899L258.984,34.706L259.707,34.474L260.43,34.327L261.152,34.243L261.875,34.063L262.598,33.783L263.32,33.782L264.043,33.646L264.766,33.564L265.488,33.339L266.211,33.259L266.934,33.116L267.656,32.951L268.379,32.903L269.102,32.759L269.824,32.626L270.547,32.481L271.27,32.408L271.992,32.351L272.715,32.143L273.438,32.049L274.16,31.935L274.883,31.835L275.605,31.717L276.328,31.583L277.051,31.488L277.773,31.353L278.496,31.274L279.219,31.224L279.941,31.036L280.664,30.893L281.387,30.783L282.109,30.573L282.832,30.386L283.555,30.42L284.277,30.206L285,30.115L285.723,29.993L286.445,29.804L287.168,29.795L287.891,29.488L288.613,29.431L289.336,29.225L290.059,29.12L290.781,29.003L291.504,28.825L292.227,28.696L292.949,28.578L293.672,28.353L294.395,28.337L295.117,28.165L295.84,28.058L296.563,27.898L297.285,27.802L298.008,27.644L298.73,27.558L299.453,27.42L300.176,27.334L300.898,27.187L301.621,27.046L302.344,26.872L303.066,26.853L303.789,26.64L304.512,26.561L305.234,26.467L305.957,26.296L306.68,26.208L307.402,26.112L308.125,25.985L308.848,25.87L309.57,25.745L310.293,25.616L311.016,25.554L311.738,25.443L312.461,25.395L313.184,25.291L313.906,25.16L314.629,25.063L315.352,24.961L316.074,24.896L316.797,24.764L317.52,24.667L318.242,24.616L318.965,24.487L319.688,24.429L320.41,24.351L321.133,24.268L321.855,24.189L322.578,24.152L323.301,24.068L324.023,23.923L324.746,23.831L325.469,23.803L326.191,23.741L326.914,23.692L327.637,23.606L328.359,23.554L329.082,23.451L329.805,23.466L330.527,23.355L331.25,23.268L331.973,23.199L332.695,23.154L333.418,23.1L334.141,23.046L334.863,22.982L335.586,22.964L336.309,22.831L337.031,22.782L337.754,22.798L338.477,22.68L339.199,22.57L339.922,22.582L340.645,22.58L341.367,22.537L342.09,22.427L342.813,22.411L343.535,22.364L344.258,22.327L344.98,22.334L345.703,22.26L346.426,22.219L347.148,22.137L347.871,22.11L348.594,22.077L349.316,22.048L350.039,21.996L350.762,21.958L351.484,21.944L352.207,21.924L352.93,21.838L353.652,21.836L354.375,21.804L355.098,21.785L355.82,21.787L356.543,21.743L357.266,21.71L357.988,21.643L358.711,21.633L359.434,21.627L360.156,21.563L360.879,21.528L361.602,21.51L362.324,21.513L363.047,21.461L363.77,21.488L364.492,21.443L365.215,21.368L365.938,21.362L366.66,21.336L367.383,21.38L368.105,21.353L368.828,21.264L369.551,21.213L370.273,21.222L370.996,21.229L371.719,21.206L372.441,21.166L373.164,21.155L373.887,21.15L374.609,21.123L375.332,21.1L376.055,21.082L376.777,21.097L377.5,21.097L378.223,21.048L378.945,21.057L379.668,21.014L380.391,20.982L381.113,20.969L381.836,20.945L382.559,20.961L383.281,20.873L384.004,20.85L384.727,20.911L385.449,20.866L386.172,20.857L386.895,20.789L387.617,20.85L388.34,20.798L389.063,20.734L389.785,20.742L390.508,20.773L391.23,20.764L391.953,20.702L392.676,20.731L393.398,20.686L394.121,20.674L394.844,20.702L395.566,20.663L396.289,20.616L397.012,20.623L397.734,20.581L398.457,20.614L399.18,20.582L399.902,20.533L400.625,20.53L401.348,20.561L402.07,20.55L402.793,20.495L403.516,20.496L404.238,20.499L404.961,20.434L405.684,20.447L406.406,20.436L407.129,20.419L407.852,20.416L408.574,20.392L409.297,20.432L410.02,20.405L410.742,20.355L411.465,20.341L412.188,20.344L412.91,20.343L413.633,20.303L414.355,20.295L415.078,20.297L415.801,20.296L416.523,20.291L417.246,20.268L417.969,20.272L418.691,20.247L419.414,20.252L420.137,20.259L420.859,20.253L421.582,20.232L422.305,20.211L423.027,20.181L423.75,20.181L424.473,20.196L425.195,20.18L425.918,20.174L426.641,20.179L427.363,20.183L428.086,20.149L428.809,20.132L429.531,20.137L430.254,20.146L430.977,20.152L431.699,20.131L432.422,20.131L433.145,20.131L433.867,20.122L434.59,20.13L435.313,20.102L436.035,20.101L436.758,20.08L437.48,20.082L438.203,20.085L438.926,20.087L439.648,20.08L440.371,20.074L441.094,20.081L441.816,20.064L442.539,20.061L443.262,20.077L443.984,20.075L444.707,20.057L445.43,20.051L446.152,20.064L446.875,20.055L447.598,20.039L448.32,20.052L449.043,20.055L449.766,20.047L450.488,20.035L451.211,20.031L451.934,20.04L452.656,20.031L453.379,20.032L454.102,20.036L454.824,20.019L455.547,20.026L456.27,20.016L456.992,20.024L457.715,20.033L458.438,20.025L459.16,20.016L459.883,20.021L460.605,20.014L461.328,20.009L462.051,20.012L462.773,20.016L463.496,20.015L464.219,20.012L464.941,20.006L465.664,20.009L466.387,20.008L467.109,20.005L467.832,20L468.555,20.004L469.277,20.003"/><path fill="none" stroke="rgb(236, 209, 46)" stroke-width="1.5" d="M100,172.514L100.723,173.168L101.445,173.625L102.168,173.874L102.891,174.256L103.613,174.562L104.336,174.961L105.059,175.129L105.781,175.406L106.504,175.926L107.227,176.023L107.949,176.139L108.672,176.372L109.395,176.557L110.117,176.648L110.84,176.832L111.563,176.855L112.285,176.837L113.008,176.882L113.73,176.663L114.453,176.509L115.176,176.548L115.898,176.45L116.621,175.943L117.344,175.842L118.066,175.539L118.789,175.221L119.512,174.795L120.234,174.358L120.957,174.111L121.68,173.304L122.402,172.835L123.125,172.168L123.848,171.202L124.57,170.801L125.293,169.886L126.016,169.019L126.738,168.188L127.461,167.22L128.184,166.375L128.906,165.467L129.629,164.463L130.352,163.217L131.074,162.12L131.797,160.961L132.52,159.775L133.242,158.576L133.965,157.229L134.688,155.963L135.41,154.618L136.133,153.265L136.855,151.828L137.578,150.386L138.301,148.961L139.023,147.504L139.746,145.871L140.469,144.465L141.191,142.725L141.914,141.454L142.637,139.629L143.359,137.999L144.082,136.485L144.805,134.973L145.527,133.331L146.25,131.607L146.973,129.801L147.695,128.256L148.418,126.653L149.141,124.802L149.863,123.204L150.586,121.521L151.309,119.749L152.031,118.161L152.754,116.443L153.477,114.892L154.199,113.229L154.922,111.612L155.645,109.748L156.367,108.259L157.09,106.422L157.813,104.822L158.535,103.119L159.258,101.676L159.98,99.985L160.703,98.408L161.426,96.726L162.148,95.364L162.871,93.641L163.594,92.105L164.316,90.514L165.039,89.027L165.762,87.464L166.484,86.01L167.207,84.403L167.93,82.888L168.652,81.558L169.375,79.996L170.098,78.636L170.82,77.263L171.543,76.072L172.266,74.544L172.988,73.059L173.711,71.708L174.434,70.353L175.156,69.097L175.879,67.695L176.602,66.538L177.324,65.264L178.047,63.949L178.77,62.848L179.492,61.467L180.215,60.347L180.938,59.221L181.66,58.059L182.383,56.858L183.105,55.766L183.828,54.706L184.551,53.476L185.273,52.472L185.996,51.488L186.719,50.639L187.441,52.15L188.164,53.425L188.887,54.848L189.609,56.366L190.332,57.844L191.055,59.431L191.777,58.675L192.5,58.127L193.223,57.645L193.945,57.021L194.668,56.584L195.391,56.025L196.113,55.351L196.836,54.86L197.559,54.48L198.281,53.895L199.004,53.333L199.727,52.756L200.449,52.215L201.172,51.713L201.895,51.202L202.617,50.717L203.34,50.109L204.063,49.802L204.785,49.265L205.508,48.752L206.23,48.381L206.953,47.784L207.676,47.412L208.398,46.978L209.121,46.56L209.844,46.137L210.566,45.763L211.289,45.23L212.012,44.85L212.734,44.494L213.457,44.076L214.18,43.632L214.902,43.306L215.625,42.85L216.348,42.575L217.07,42.19L217.793,41.801L218.516,41.407L219.238,41.064L219.961,40.683L220.684,40.47L221.406,40.144L222.129,39.738L222.852,39.466L223.574,39.218L224.297,38.877L225.02,38.58L225.742,38.224L226.465,37.921L227.188,37.696L227.91,37.371L228.633,37.125L229.355,36.831L230.078,36.721L230.801,36.397L231.523,36.153L232.246,35.994L232.969,35.676L233.691,35.548L234.414,35.194L235.137,35.005L235.859,34.785L236.582,34.547L237.305,34.382L238.027,34.257L238.75,33.949L239.473,33.862L240.195,33.637L240.918,33.397L241.641,33.191L242.363,33.006L243.086,32.861L243.809,32.746L244.531,32.54L245.254,32.32L245.977,32.092L246.699,32.031L247.422,31.83L248.145,31.614L248.867,31.455L249.59,31.415L250.313,31.26L251.035,31.08L251.758,31.012L252.48,30.813L253.203,30.621L253.926,30.481L254.648,30.387L255.371,30.283L256.094,30.058L256.816,29.94L257.539,29.86L258.262,29.804L258.984,29.608L259.707,29.588L260.43,29.504L261.152,29.353L261.875,29.268L262.598,29.142L263.32,29.035L264.043,28.993L264.766,28.888L265.488,28.888L266.211,28.755L266.934,28.748L267.656,28.608L268.379,28.509L269.102,28.475L269.824,28.445L270.547,28.359L271.27,28.276L271.992,28.214L272.715,28.17L273.438,28.148L274.16,28.039L274.883,27.999L275.605,27.941L276.328,27.88L277.051,27.82L277.773,27.758L278.496,27.698L279.219,27.658L279.941,27.615L280.664,27.555L281.387,27.424L282.109,27.363L282.832,27.289L283.555,27.24L284.277,27.159L285,27.081L285.723,26.999L286.445,26.885L287.168,26.836L287.891,26.697L288.613,26.637L289.336,26.555L290.059,26.453L290.781,26.368L291.504,26.255L292.227,26.198L292.949,26.088L293.672,26.003L294.395,25.895L295.117,25.785L295.84,25.683L296.563,25.554L297.285,25.488L298.008,25.427L298.73,25.295L299.453,25.172L300.176,25.105L300.898,25.014L301.621,24.917L302.344,24.846L303.066,24.731L303.789,24.67L304.512,24.584L305.234,24.479L305.957,24.389L306.68,24.277L307.402,24.196L308.125,24.147L308.848,24.054L309.57,23.971L310.293,23.885L311.016,23.842L311.738,23.743L312.461,23.688L313.184,23.594L313.906,23.521L314.629,23.451L315.352,23.357L316.074,23.285L316.797,23.216L317.52,23.188L318.242,23.149L318.965,23.047L319.688,22.991L320.41,22.933L321.133,22.913L321.855,22.802L322.578,22.763L323.301,22.72L324.023,22.661L324.746,22.614L325.469,22.539L326.191,22.483L326.914,22.466L327.637,22.393L328.359,22.373L329.082,22.314L329.805,22.258L330.527,22.191L331.25,22.17L331.973,22.098L332.695,22.091L333.418,22.035L334.141,21.991L334.863,21.972L335.586,21.938L336.309,21.896L337.031,21.853L337.754,21.845L338.477,21.813L339.199,21.76L339.922,21.725L340.645,21.683L341.367,21.667L342.09,21.624L342.813,21.584L343.535,21.599L344.258,21.565L344.98,21.541L345.703,21.467L346.426,21.445L347.148,21.442L347.871,21.398L348.594,21.403L349.316,21.368L350.039,21.365L350.762,21.323L351.484,21.307L352.207,21.285L352.93,21.245L353.652,21.264L354.375,21.214L355.098,21.203L355.82,21.187L356.543,21.156L357.266,21.137L357.988,21.129L358.711,21.112L359.434,21.106L360.156,21.079L360.879,21.07L361.602,21.065L362.324,21.023L363.047,21.001L363.77,21.001L364.492,20.974L365.215,20.979L365.938,20.976L366.66,20.958L367.383,20.937L368.105,20.936L368.828,20.918L369.551,20.922L370.273,20.889L370.996,20.878L371.719,20.88L372.441,20.87L373.164,20.86L373.887,20.839L374.609,20.827L375.332,20.837L376.055,20.813L376.777,20.822L377.5,20.798L378.223,20.782L378.945,20.757L379.668,20.762L380.391,20.754L381.113,20.747L381.836,20.748L382.559,20.726L383.281,20.702L384.004,20.711L384.727,20.715L385.449,20.694L386.172,20.67L386.895,20.67L387.617,20.653L388.34,20.642L389.063,20.649L389.785,20.62L390.508,20.609L391.23,20.614L391.953,20.603L392.676,20.589L393.398,20.569L394.121,20.577L394.844,20.537L395.566,20.542L396.289,20.548L397.012,20.529L397.734,20.495L398.457,20.504L399.18,20.492L399.902,20.48L400.625,20.467L401.348,20.47L402.07,20.451L402.793,20.452L403.516,20.441L404.238,20.422L404.961,20.414L405.684,20.403L406.406,20.394L407.129,20.388L407.852,20.378L408.574,20.363L409.297,20.358L410.02,20.35L410.742,20.335L411.465,20.337L412.188,20.311L412.91,20.303L413.633,20.301L414.355,20.291L415.078,20.279L415.801,20.261L416.523,20.282L417.246,20.258L417.969,20.256L418.691,20.244L419.414,20.248L420.137,20.232L420.859,20.223L421.582,20.214L422.305,20.21L423.027,20.19L423.75,20.199L424.473,20.182L425.195,20.179L425.918,20.182L426.641,20.165L427.363,20.161L428.086,20.154L428.809,20.149L429.531,20.141L430.254,20.141L430.977,20.134L431.699,20.124L432.422,20.117L433.145,20.12L433.867,20.11L434.59,20.11L435.313,20.108L436.035,20.104L436.758,20.099L437.48,20.095L438.203,20.092L438.926,20.084L439.648,20.076L440.371,20.081L441.094,20.073L441.816,20.071L442.539,20.069L443.262,20.064L443.984,20.059L444.707,20.059L445.43,20.057L446.152,20.054L446.875,20.049L447.598,20.05L448.32,20.044L449.043,20.047L449.766,20.041L450.488,20.042L451.211,20.039L451.934,20.035L452.656,20.034L453.379,20.028L454.102,20.031L454.824,20.029L455.547,20.026L456.27,20.025L456.992,20.026L457.715,20.022L458.438,20.02L459.16,20.018L459.883,20.021L460.605,20.015L461.328,20.018L462.051,20.016L462.773,20.013L463.496,20.014L464.219,20.012L464.941,20.012L465.664,20.009L466.387,20.011L467.109,20.007L467.832,20.005L468.555,20.008L469.277,20.005"/><path fill="none" stroke="rgb(255, 130, 29)" stroke-width="1.5" d="M100,158.364L100.723,157.58L101.445,156.658L102.168,155.679L102.891,154.686L103.613,153.723L104.336,152.627L105.059,151.489L105.781,150.425L106.504,149.077L107.227,148.159L107.949,146.86L108.672,145.609L109.395,144.312L110.117,142.884L110.84,141.893L111.563,140.333L112.285,138.76L113.008,137.429L113.73,136.138L114.453,134.637L115.176,133.26L115.898,131.581L116.621,130.359L117.344,128.755L118.066,127.177L118.789,125.686L119.512,124.168L120.234,122.436L120.957,121.153L121.68,119.395L122.402,117.896L123.125,116.289L123.848,114.724L124.57,113.023L125.293,111.581L126.016,110.026L126.738,108.36L127.461,106.867L128.184,105.38L128.906,103.817L129.629,102.097L130.352,100.473L131.074,99.096L131.797,97.415L132.52,95.817L133.242,94.426L133.965,92.826L134.688,91.373L135.41,89.885L136.133,88.47L136.855,86.949L137.578,85.412L138.301,84.118L139.023,82.623L139.746,81.187L140.469,79.796L141.191,78.397L141.914,77.099L142.637,75.634L143.359,74.245L144.082,73.065L144.805,71.757L145.527,70.265L146.25,69.084L146.973,67.743L147.695,66.488L148.418,65.108L149.141,63.782L149.863,62.683L150.586,61.709L151.309,60.416L152.031,59.266L152.754,58.107L153.477,57.023L154.199,55.751L154.922,54.671L155.645,53.728L156.367,52.584L157.09,51.474L157.813,50.687L158.535,49.539L159.258,48.525L159.98,48.404L160.703,49.719L161.426,51.285L162.148,52.658L162.871,54.129L163.594,55.559L164.316,56.796L165.039,56.38L165.762,55.746L166.484,55.234L167.207,54.611L167.93,54.242L168.652,53.803L169.375,53.089L170.098,52.746L170.82,52.287L171.543,51.739L172.266,51.18L172.988,50.716L173.711,50.225L174.434,49.859L175.156,49.207L175.879,48.741L176.602,48.386L177.324,47.916L178.047,47.496L178.77,46.987L179.492,46.593L180.215,46.268L180.938,45.613L181.66,45.343L182.383,44.787L183.105,44.411L183.828,44.123L184.551,43.641L185.273,43.227L185.996,42.942L186.719,42.485L187.441,42.153L188.164,41.81L188.887,41.417L189.609,41.095L190.332,40.779L191.055,40.435L191.777,39.95L192.5,39.636L193.223,39.269L193.945,39.025L194.668,38.666L195.391,38.455L196.113,38.003L196.836,37.747L197.559,37.427L198.281,37.066L199.004,36.915L199.727,36.614L200.449,36.319L201.172,36.079L201.895,35.897L202.617,35.467L203.34,35.236L204.063,35.023L204.785,34.785L205.508,34.55L206.23,34.162L206.953,34.032L207.676,33.803L208.398,33.598L209.121,33.369L209.844,33.106L210.566,32.988L211.289,32.684L212.012,32.533L212.734,32.323L213.457,32.104L214.18,31.929L214.902,31.735L215.625,31.549L216.348,31.338L217.07,31.205L217.793,30.981L218.516,30.797L219.238,30.63L219.961,30.523L220.684,30.337L221.406,30.104L222.129,29.97L222.852,29.84L223.574,29.728L224.297,29.52L225.02,29.408L225.742,29.234L226.465,29.04L227.188,28.937L227.91,28.839L228.633,28.718L229.355,28.621L230.078,28.437L230.801,28.268L231.523,28.179L232.246,27.999L232.969,27.83L233.691,27.723L234.414,27.63L235.137,27.602L235.859,27.454L236.582,27.281L237.305,27.204L238.027,27.173L238.75,27.041L239.473,26.901L240.195,26.805L240.918,26.742L241.641,26.619L242.363,26.61L243.086,26.43L243.809,26.365L244.531,26.342L245.254,26.21L245.977,26.142L246.699,26.045L247.422,25.996L248.145,25.896L248.867,25.827L249.59,25.78L250.313,25.728L251.035,25.647L251.758,25.6L252.48,25.508L253.203,25.507L253.926,25.417L254.648,25.321L255.371,25.333L256.094,25.274L256.816,25.252L257.539,25.16L258.262,25.119L258.984,25.077L259.707,25.096L260.43,25.062L261.152,25.003L261.875,24.985L262.598,24.967L263.32,24.911L264.043,24.961L264.766,24.882L265.488,24.917L266.211,24.857L266.934,24.89L267.656,24.865L268.379,24.843L269.102,24.887L269.824,24.841L270.547,24.91L271.27,24.888L271.992,24.927L272.715,24.882L273.438,24.932L274.16,24.907L274.883,24.894L275.605,24.933L276.328,24.922L277.051,24.92L277.773,24.932L278.496,24.981L279.219,24.988L279.941,24.939L280.664,24.941L281.387,24.936L282.109,24.961L282.832,24.886L283.555,24.902L284.277,24.87L285,24.847L285.723,24.805L286.445,24.758L287.168,24.761L287.891,24.712L288.613,24.675L289.336,24.618L290.059,24.603L290.781,24.539L291.504,24.474L292.227,24.453L292.949,24.37L293.672,24.351L294.395,24.271L295.117,24.217L295.84,24.154L296.563,24.086L297.285,24.039L298.008,23.978L298.73,23.928L299.453,23.887L300.176,23.832L300.898,23.715L301.621,23.697L302.344,23.604L303.066,23.555L303.789,23.504L304.512,23.449L305.234,23.362L305.957,23.32L306.68,23.267L307.402,23.194L308.125,23.132L308.848,23.097L309.57,23.03L310.293,22.997L311.016,22.921L311.738,22.857L312.461,22.818L313.184,22.775L313.906,22.689L314.629,22.666L315.352,22.623L316.074,22.553L316.797,22.506L317.52,22.479L318.242,22.419L318.965,22.361L319.688,22.319L320.41,22.289L321.133,22.243L321.855,22.206L322.578,22.158L323.301,22.127L324.023,22.058L324.746,22.023L325.469,21.975L326.191,21.977L326.914,21.932L327.637,21.902L328.359,21.863L329.082,21.832L329.805,21.807L330.527,21.757L331.25,21.721L331.973,21.705L332.695,21.668L333.418,21.642L334.141,21.606L334.863,21.587L335.586,21.537L336.309,21.531L337.031,21.504L337.754,21.474L338.477,21.47L339.199,21.435L339.922,21.41L340.645,21.361L341.367,21.39L342.09,21.342L342.813,21.325L343.535,21.299L344.258,21.273L344.98,21.242L345.703,21.241L346.426,21.229L347.148,21.209L347.871,21.192L348.594,21.176L349.316,21.159L350.039,21.14L350.762,21.128L351.484,21.108L352.207,21.097L352.93,21.064L353.652,21.07L354.375,21.028L355.098,21.039L355.82,21.013L356.543,21.01L357.266,20.994L357.988,20.985L358.711,20.987L359.434,20.955L360.156,20.948L360.879,20.936L361.602,20.931L362.324,20.908L363.047,20.902L363.77,20.895L364.492,20.88L365.215,20.866L365.938,20.868L366.66,20.855L367.383,20.862L368.105,20.845L368.828,20.826L369.551,20.813L370.273,20.808L370.996,20.801L371.719,20.79L372.441,20.785L373.164,20.769L373.887,20.758L374.609,20.767L375.332,20.769L376.055,20.753L376.777,20.735L377.5,20.738L378.223,20.75L378.945,20.706L379.668,20.738L380.391,20.7L381.113,20.691L381.836,20.684L382.559,20.705L383.281,20.686L384.004,20.672L384.727,20.658L385.449,20.652L386.172,20.668L386.895,20.649L387.617,20.635L388.34,20.623L389.063,20.612L389.785,20.602L390.508,20.585L391.23,20.597L391.953,20.58L392.676,20.571L393.398,20.549L394.121,20.553L394.844,20.548L395.566,20.541L396.289,20.528L397.012,20.518L397.734,20.505L398.457,20.511L399.18,20.491L399.902,20.501L400.625,20.465L401.348,20.472L402.07,20.443L402.793,20.449L403.516,20.444L404.238,20.439L404.961,20.419L405.684,20.4L406.406,20.403L407.129,20.395L407.852,20.377L408.574,20.368L409.297,20.362L410.02,20.367L410.742,20.346L411.465,20.342L412.188,20.34L412.91,20.326L413.633,20.322L414.355,20.303L415.078,20.284L415.801,20.283L416.523,20.277L417.246,20.266L417.969,20.266L418.691,20.253L419.414,20.237L420.137,20.231L420.859,20.239L421.582,20.224L422.305,20.214L423.027,20.204L423.75,20.208L424.473,20.202L425.195,20.183L425.918,20.176L426.641,20.181L427.363,20.173L428.086,20.177L428.809,20.163L429.531,20.153L430.254,20.148L430.977,20.138L431.699,20.144L432.422,20.136L433.145,20.123L433.867,20.12L434.59,20.118L435.313,20.119L436.035,20.111L436.758,20.104L437.48,20.102L438.203,20.093L438.926,20.099L439.648,20.084L440.371,20.088L441.094,20.082L441.816,20.078L442.539,20.079L443.262,20.073L443.984,20.065L444.707,20.063L445.43,20.061L446.152,20.06L446.875,20.06L447.598,20.061L448.32,20.046L449.043,20.049L449.766,20.044L450.488,20.049L451.211,20.045L451.934,20.04L452.656,20.037L453.379,20.036L454.102,20.036L454.824,20.035L455.547,20.03L456.27,20.032L456.992,20.025L457.715,20.025L458.438,20.023L459.16,20.024L459.883,20.019L460.605,20.019L461.328,20.017L462.051,20.018L462.773,20.018L463.496,20.012L464.219,20.009L464.941,20.011L465.664,20.01L466.387,20.01L467.109,20.01L467.832,20.009L468.555,20.006L469.277,20.008"/><path fill="none" stroke="rgb(203, 47, 13)" stroke-width="1.5" d="M100,39.973L100.723,39.867L101.445,39.668L102.168,39.602L102.891,39.509L103.613,39.272L104.336,39.158L105.059,39.125L105.781,38.8L106.504,38.791L107.227,38.718L107.949,38.66L108.672,38.44L109.395,38.321L110.117,38.246L110.84,38.15L111.563,38.029L112.285,37.903L113.008,37.808L113.73,37.759L114.453,37.521L115.176,37.429L115.898,37.411L116.621,37.255L117.344,37.083L118.066,36.87L118.789,36.894L119.512,36.762L120.234,36.681L120.957,36.558L121.68,36.428L122.402,36.374L123.125,36.204L123.848,36.127L124.57,35.973L125.293,35.968L126.016,35.76L126.738,35.753L127.461,35.525L128.184,35.473L128.906,35.261L129.629,35.113L130.352,35.156L131.074,35.043L131.797,34.985L132.52,34.768L133.242,34.684L133.965,34.581L134.688,34.453L135.41,34.399L136.133,34.151L136.855,34.084L137.578,34.182L138.301,33.976L139.023,33.956L139.746,33.728L140.469,33.783L141.191,33.497L141.914,33.368L142.637,33.347L143.359,33.134L144.082,33.098L144.805,33.021L145.527,32.973L146.25,32.83L146.973,32.759L147.695,32.779L148.418,32.539L149.141,32.496L149.863,32.386L150.586,32.4L151.309,32.28L152.031,32.095L152.754,31.963L153.477,31.909L154.199,31.797L154.922,31.75L155.645,31.644L156.367,31.518L157.09,31.456L157.813,31.354L158.535,31.199L159.258,31.239L159.98,31.121L160.703,31.018L161.426,30.896L162.148,30.865L162.871,30.773L163.594,30.67L164.316,30.679L165.039,30.707L165.762,30.512L166.484,30.414L167.207,30.406L167.93,30.241L168.652,30.132L169.375,30.045L170.098,30.021L170.82,30.001L171.543,29.861L172.266,29.938L172.988,29.728L173.711,29.666L174.434,29.525L175.156,29.488L175.879,29.425L176.602,29.447L177.324,29.296L178.047,29.264L178.77,29.177L179.492,29.099L180.215,29.07L180.938,29.067L181.66,28.941L182.383,28.814L183.105,28.819L183.828,28.592L184.551,28.773L185.273,28.59L185.996,28.629L186.719,28.493L187.441,28.5L188.164,28.48L188.887,28.304L189.609,28.254L190.332,28.274L191.055,28.275L191.777,28.098L192.5,28.078L193.223,28.027L193.945,27.995L194.668,27.908L195.391,27.91L196.113,27.833L196.836,27.817L197.559,27.688L198.281,27.712L199.004,27.605L199.727,27.445L200.449,27.488L201.172,27.469L201.895,27.465L202.617,27.388L203.34,27.293L204.063,27.34L204.785,27.277L205.508,27.278L206.23,27.21L206.953,27.113L207.676,27.082L208.398,27.093L209.121,26.984L209.844,26.929L210.566,26.878L211.289,26.832L212.012,26.805L212.734,26.831L213.457,26.79L214.18,26.673L214.902,26.718L215.625,26.62L216.348,26.617L217.07,26.569L217.793,26.503L218.516,26.516L219.238,26.541L219.961,26.399L220.684,26.414L221.406,26.427L222.129,26.414L222.852,26.314L223.574,26.277L224.297,26.238L225.02,26.23L225.742,26.218L226.465,26.14L227.188,26.117L227.91,26.147L228.633,26.078L229.355,26.047L230.078,26.012L230.801,26.028L231.523,25.903L232.246,25.934L232.969,25.865L233.691,25.91L234.414,25.922L235.137,25.825L235.859,25.812L236.582,25.731L237.305,25.734L238.027,25.68L238.75,25.633L239.473,25.691L240.195,25.659L240.918,25.666L241.641,25.642L242.363,25.558L243.086,25.572L243.809,25.544L244.531,25.535L245.254,25.476L245.977,25.476L246.699,25.385L247.422,25.474L248.145,25.413L248.867,25.37L249.59,25.356L250.313,25.35L251.035,25.346L251.758,25.333L252.48,25.333L253.203,25.29L253.926,25.224L254.648,25.243L255.371,25.246L256.094,25.249L256.816,25.193L257.539,25.185L258.262,25.244L258.984,25.15L259.707,25.211L260.43,25.227L261.152,25.251L261.875,25.156L262.598,25.174L263.32,25.206L264.043,25.179L264.766,25.183L265.488,25.258L266.211,25.238L266.934,25.246L267.656,25.287L268.379,25.249L269.102,25.333L269.824,25.308L270.547,25.335L271.27,25.383L271.992,25.413L272.715,25.403L273.438,25.412L274.16,25.445L274.883,25.475L275.605,25.435L276.328,25.474L277.051,25.465L277.773,25.532L278.496,25.552L279.219,25.522L279.941,25.521L280.664,25.568L281.387,25.541L282.109,25.477L282.832,25.495L283.555,25.5L284.277,25.501L285,25.434L285.723,25.383L286.445,25.406L287.168,25.347L287.891,25.331L288.613,25.327L289.336,25.258L290.059,25.21L290.781,25.155L291.504,25.131L292.227,25.109L292.949,25.016L293.672,24.984L294.395,24.924L295.117,24.854L295.84,24.822L296.563,24.763L297.285,24.669L298.008,24.617L298.73,24.543L299.453,24.497L300.176,24.444L300.898,24.37L301.621,24.352L302.344,24.242L303.066,24.162L303.789,24.111L304.512,24.022L305.234,24.002L305.957,23.946L306.68,23.889L307.402,23.788L308.125,23.744L308.848,23.685L309.57,23.635L310.293,23.587L311.016,23.519L311.738,23.437L312.461,23.382L313.184,23.335L313.906,23.297L314.629,23.221L315.352,23.225L316.074,23.135L316.797,23.078L317.52,23.046L318.242,22.982L318.965,22.948L319.688,22.876L320.41,22.832L321.133,22.796L321.855,22.735L322.578,22.742L323.301,22.627L324.023,22.632L324.746,22.566L325.469,22.552L326.191,22.498L326.914,22.458L327.637,22.41L328.359,22.382L329.082,22.336L329.805,22.317L330.527,22.293L331.25,22.222L331.973,22.191L332.695,22.165L333.418,22.155L334.141,22.103L334.863,22.058L335.586,22.061L336.309,22.008L337.031,21.99L337.754,21.95L338.477,21.92L339.199,21.92L339.922,21.862L340.645,21.86L341.367,21.826L342.09,21.802L342.813,21.768L343.535,21.734L344.258,21.706L344.98,21.694L345.703,21.679L346.426,21.646L347.148,21.636L347.871,21.605L348.594,21.598L349.316,21.567L350.039,21.557L350.762,21.536L351.484,21.549L352.207,21.511L352.93,21.478L353.652,21.441L354.375,21.42L355.098,21.435L355.82,21.413L356.543,21.406L357.266,21.369L357.988,21.362L358.711,21.345L359.434,21.342L360.156,21.329L360.879,21.295L361.602,21.276L362.324,21.272L363.047,21.28L363.77,21.274L364.492,21.269L365.215,21.221L365.938,21.243L366.66,21.196L367.383,21.183L368.105,21.195L368.828,21.151L369.551,21.165L370.273,21.163L370.996,21.126L371.719,21.118L372.441,21.103L373.164,21.085L373.887,21.128L374.609,21.091L375.332,21.064L376.055,21.067L376.777,21.046L377.5,21.044L378.223,21.029L378.945,21.016L379.668,21.014L380.391,20.978L381.113,20.964L381.836,20.999L382.559,20.952L383.281,20.928L384.004,20.941L384.727,20.933L385.449,20.891L386.172,20.909L386.895,20.9L387.617,20.908L388.34,20.882L389.063,20.871L389.785,20.849L390.508,20.846L391.23,20.818L391.953,20.818L392.676,20.818L393.398,20.815L394.121,20.781L394.844,20.78L395.566,20.758L396.289,20.741L397.012,20.734L397.734,20.746L398.457,20.694L399.18,20.714L399.902,20.702L400.625,20.661L401.348,20.67L402.07,20.632L402.793,20.661L403.516,20.632L404.238,20.629L404.961,20.614L405.684,20.575L406.406,20.586L407.129,20.564L407.852,20.552L408.574,20.558L409.297,20.524L410.02,20.502L410.742,20.524L411.465,20.502L412.188,20.488L412.91,20.466L413.633,20.452L414.355,20.44L415.078,20.436L415.801,20.421L416.523,20.404L417.246,20.417L417.969,20.387L418.691,20.39L419.414,20.367L420.137,20.357L420.859,20.336L421.582,20.347L422.305,20.32L423.027,20.312L423.75,20.305L424.473,20.292L425.195,20.3L425.918,20.275L426.641,20.269L427.363,20.271L428.086,20.26L428.809,20.249L429.531,20.233L430.254,20.226L430.977,20.228L431.699,20.224L432.422,20.219L433.145,20.205L433.867,20.2L434.59,20.192L435.313,20.185L436.035,20.175L436.758,20.169L437.48,20.164L438.203,20.149L438.926,20.156L439.648,20.144L440.371,20.136L441.094,20.129L441.816,20.132L442.539,20.124L443.262,20.117L443.984,20.118L444.707,20.117L445.43,20.102L446.152,20.105L446.875,20.099L447.598,20.098L448.32,20.099L449.043,20.082L449.766,20.086L450.488,20.081L451.211,20.072L451.934,20.075L452.656,20.071L453.379,20.065L454.102,20.065L454.824,20.062L455.547,20.06L456.27,20.051L456.992,20.05L457.715,20.051L458.438,20.05L459.16,20.046L459.883,20.048L460.605,20.048L461.328,20.043L462.051,20.035L462.773,20.037L463.496,20.027L464.219,20.033L464.941,20.027L465.664,20.031L466.387,20.027L467.109,20.024L467.832,20.026L468.555,20.021L469.277,20.022"/><g transform="translate(15,190) scale(1.7) rotate(-90)"><text>Drift</text></g><g transform="translate(315,395) scale(1.8)"><text></text></g><g transform="translate(0,350)" fill="none" font-size="10" font-family="sans-serif" text-anchor="middle"><path class="domain" stroke="currentColor" d="M100,6V0H470V6"/><g class="tick" opacity="1" transform="translate(136.96669666966696,0)"><line stroke="currentColor" y2="6"/><text fill="currentColor" y="9" dy="0.71em" font-size="20px"> </text></g><g class="tick" opacity="1" transform="translate(173.97039703970398,0)"><line stroke="currentColor" y2="6"/><text fill="currentColor" y="9" dy="0.71em" font-size="20px">20</text></g><g class="tick" opacity="1" transform="translate(210.97409740974098,0)"><line stroke="currentColor" y2="6"/><text fill="currentColor" y="9" dy="0.71em" font-size="20px"> </text></g><g class="tick" opacity="1" transform="translate(247.97779777977803,0)"><line stroke="currentColor" y2="6"/><text fill="currentColor" y="9" dy="0.71em" font-size="20px">40</text></g><g class="tick" opacity="1" transform="translate(284.981498149815,0)"><line stroke="currentColor" y2="6"/><text fill="currentColor" y="9" dy="0.71em" font-size="20px"> </text></g><g class="tick" opacity="1" transform="translate(321.985198519852,0)"><line stroke="currentColor" y2="6"/><text fill="currentColor" y="9" dy="0.71em" font-size="20px">60</text></g><g class="tick" opacity="1" transform="translate(358.988898889889,0)"><line stroke="currentColor" y2="6"/><text fill="currentColor" y="9" dy="0.71em" font-size="20px"> </text></g><g class="tick" opacity="1" transform="translate(395.992599259926,0)"><line stroke="currentColor" y2="6"/><text fill="currentColor" y="9" dy="0.71em" font-size="20px">80</text></g><g class="tick" opacity="1" transform="translate(432.996299629963,0)"><line stroke="currentColor" y2="6"/><text fill="currentColor" y="9" dy="0.71em" font-size="20px"> </text></g><g class="tick" opacity="1" transform="translate(470,0)"><line stroke="currentColor" y2="6"/><text fill="currentColor" y="9" dy="0.71em" font-size="20px">100</text></g></g><g transform="translate(100,0)" fill="none" font-size="10" font-family="sans-serif" text-anchor="end"><path class="domain" stroke="currentColor" d="M-6,350H0V20H-6"/><g class="tick" opacity="1" transform="translate(0,323.28311690112946)"><line stroke="currentColor" x2="-6"/><text fill="currentColor" x="-9" dy="0.32em" font-size="20px">0.7</text></g><g class="tick" opacity="1" transform="translate(0,278.8983345289627)"><line stroke="currentColor" x2="-6"/><text fill="currentColor" x="-9" dy="0.32em" font-size="20px">0.6</text></g><g class="tick" opacity="1" transform="translate(0,234.51355215679592)"><line stroke="currentColor" x2="-6"/><text fill="currentColor" x="-9" dy="0.32em" font-size="20px">0.5</text></g><g class="tick" opacity="1" transform="translate(0,190.12876978462916)"><line stroke="currentColor" x2="-6"/><text fill="currentColor" x="-9" dy="0.32em" font-size="20px">0.4</text></g><g class="tick" opacity="1" transform="translate(0,145.74398741246233)"><line stroke="currentColor" x2="-6"/><text fill="currentColor" x="-9" dy="0.32em" font-size="20px">0.3</text></g><g class="tick" opacity="1" transform="translate(0,101.35920504029555)"><line stroke="currentColor" x2="-6"/><text fill="currentColor" x="-9" dy="0.32em" font-size="20px">0.2</text></g><g class="tick" opacity="1" transform="translate(0,56.97442266812877)"><line stroke="currentColor" x2="-6"/><text fill="currentColor" x="-9" dy="0.32em" font-size="20px">0.1</text></g></g><circle cx="355" cy="150" r="8" style="fill: rgb(35, 23, 27);"/><circle cx="355" cy="175" r="8" style="fill: rgb(69, 105, 238);"/><circle cx="355" cy="200" r="8" style="fill: rgb(38, 188, 225);"/><circle cx="355" cy="225" r="8" style="fill: rgb(63, 243, 147);"/><circle cx="355" cy="250" r="8" style="fill: rgb(149, 251, 81);"/><circle cx="355" cy="275" r="8" style="fill: rgb(236, 209, 46);"/><circle cx="355" cy="300" r="8" style="fill: rgb(255, 130, 29);"/><circle cx="355" cy="325" r="8" style="fill: rgb(203, 47, 13);"/><text x="370" y="150" text-anchor="left" font-size="22" alignment-baseline="middle" style="fill: rgb(35, 23, 27);"> = 0</text><text x="370" y="175" text-anchor="left" font-size="22" alignment-baseline="middle" style="fill: rgb(69, 105, 238);"> = 0.22</text><text x="370" y="200" text-anchor="left" font-size="22" alignment-baseline="middle" style="fill: rgb(38, 188, 225);"> = 0.45</text><text x="370" y="225" text-anchor="left" font-size="22" alignment-baseline="middle" style="fill: rgb(63, 243, 147);"> = 0.67</text><text x="370" y="250" text-anchor="left" font-size="22" alignment-baseline="middle" style="fill: rgb(149, 251, 81);"> = 0.9</text><text x="370" y="275" text-anchor="left" font-size="22" alignment-baseline="middle" style="fill: rgb(236, 209, 46);"> = 1.12</text><text x="370" y="300" text-anchor="left" font-size="22" alignment-baseline="middle" style="fill: rgb(255, 130, 29);"> = 1.35</text><text x="370" y="325" text-anchor="left" font-size="22" alignment-baseline="middle" style="fill: rgb(203, 47, 13);"> = 1.57</text></svg>