<svg xmlns="http://www.w3.org/2000/svg" class="bg-white" width="500" height="400" viewBox="-10 -1 500 400"><path fill="none" stroke="rgb(35, 23, 27)" stroke-width="1.5" d="M100,53.891L100.723,53.717L101.445,54.282L102.168,54.192L102.891,54.425L103.613,54.512L104.336,54.442L105.059,54.891L105.781,54.86L106.504,55.086L107.227,55.255L107.949,55.032L108.672,55.471L109.395,55.507L110.117,55.68L110.84,55.697L111.563,55.936L112.285,56.151L113.008,56.262L113.73,56.419L114.453,56.684L115.176,56.745L115.898,56.828L116.621,57.023L117.344,57.23L118.066,57.387L118.789,57.573L119.512,57.91L120.234,57.985L120.957,58.33L121.68,58.433L122.402,58.647L123.125,58.735L123.848,58.639L124.57,58.995L125.293,59.555L126.016,59.481L126.738,59.866L127.461,59.938L128.184,60.161L128.906,60.341L129.629,60.707L130.352,61.105L131.074,61.09L131.797,61.249L132.52,61.688L133.242,61.978L133.965,62.012L134.688,62.366L135.41,62.706L136.133,63.014L136.855,63.213L137.578,63.506L138.301,63.877L139.023,63.974L139.746,64.166L140.469,64.613L141.191,64.943L141.914,65.304L142.637,65.823L143.359,65.933L144.082,66.247L144.805,66.563L145.527,67.076L146.25,67.196L146.973,67.402L147.695,67.881L148.418,68.471L149.141,68.778L149.863,69.269L150.586,69.847L151.309,69.933L152.031,70.386L152.754,70.793L153.477,71.183L154.199,71.735L154.922,71.959L155.645,72.621L156.367,72.957L157.09,73.443L157.813,73.862L158.535,74.35L159.258,74.836L159.98,75.315L160.703,75.869L161.426,76.569L162.148,76.963L162.871,77.461L163.594,77.945L164.316,78.592L165.039,79.187L165.762,79.938L166.484,80.412L167.207,81.049L167.93,81.46L168.652,82.164L169.375,82.785L170.098,83.643L170.82,84.352L171.543,84.855L172.266,85.654L172.988,86.23L173.711,86.963L174.434,87.824L175.156,88.523L175.879,89.264L176.602,89.974L177.324,90.867L178.047,91.604L178.77,92.656L179.492,93.126L180.215,93.937L180.938,95.063L181.66,95.749L182.383,96.572L183.105,97.682L183.828,98.642L184.551,99.554L185.273,100.179L185.996,101.457L186.719,102.492L187.441,103.24L188.164,104.496L188.887,105.453L189.609,106.629L190.332,107.696L191.055,108.909L191.777,110.189L192.5,111.248L193.223,112.472L193.945,113.574L194.668,114.823L195.391,116.426L196.113,117.515L196.836,118.85L197.559,120.242L198.281,121.692L199.004,123.104L199.727,124.502L200.449,125.926L201.172,127.338L201.895,128.951L202.617,130.453L203.34,132.138L204.063,133.77L204.785,135.114L205.508,136.977L206.23,138.764L206.953,140.635L207.676,142.323L208.398,143.934L209.121,146.107L209.844,147.969L210.566,150.085L211.289,151.888L212.012,153.89L212.734,155.866L213.457,158.08L214.18,160.31L214.902,162.542L215.625,164.857L216.348,167.233L217.07,169.516L217.793,171.803L218.516,174.313L219.238,176.735L219.961,179.279L220.684,181.909L221.406,184.773L222.129,187.431L222.852,190.277L223.574,193.219L224.297,195.993L225.02,199.06L225.742,202.045L226.465,205.249L227.188,208.374L227.91,211.501L228.633,214.867L229.355,218.54L230.078,221.861L230.801,225.507L231.523,229.183L232.246,232.936L232.969,236.603L233.691,240.372L234.414,244.361L235.137,248.158L235.859,251.974L236.582,255.814L237.305,260.085L238.027,264.009L238.75,268.003L239.473,272.085L240.195,276.23L240.918,280.534L241.641,284.449L242.363,288.539L243.086,292.588L243.809,296.704L244.531,300.286L245.254,304.311L245.977,308.245L246.699,312.064L247.422,315.445L248.145,318.846L248.867,322.433L249.59,325.57L250.313,328.682L251.035,331.479L251.758,334.407L252.48,336.939L253.203,339.209L253.926,341.393L254.648,343.182L255.371,344.949L256.094,346.612L256.816,347.51L257.539,348.581L258.262,349.37L258.984,349.853L259.707,350L260.43,349.944L261.152,349.646L261.875,349.035L262.598,348.353L263.32,347.315L264.043,345.989L264.766,344.253L265.488,342.476L266.211,340.27L266.934,338.013L267.656,335.433L268.379,332.659L269.102,329.779L269.824,326.279L270.547,323.146L271.27,319.535L271.992,315.844L272.715,311.909L273.438,307.96L274.16,303.938L274.883,299.275L275.605,294.738L276.328,290.195L277.051,285.232L277.773,279.855L278.496,274.204L279.219,268.514L279.941,262.591L280.664,256.15L281.387,249.648L282.109,242.664L282.832,235.579L283.555,228.353L284.277,221.418L285,214.247L285.723,207.595L286.445,200.57L287.168,193.964L287.891,187.398L288.613,180.701L289.336,174.509L290.059,168.187L290.781,161.846L291.504,155.89L292.227,150.073L292.949,144.31L293.672,138.767L294.395,133.038L295.117,127.62L295.84,122.649L296.563,117.604L297.285,112.627L298.008,107.597L298.73,103.108L299.453,98.581L300.176,93.879L300.898,89.721L301.621,85.667L302.344,87.976L303.066,91.175L303.789,94.481L304.512,97.954L305.234,101.645L305.957,105.304L306.68,104.752L307.402,102.402L308.125,100.27L308.848,97.969L309.57,96.137L310.293,93.891L311.016,92.132L311.738,90.571L312.461,88.521L313.184,86.764L313.906,85.17L314.629,83.189L315.352,81.818L316.074,79.972L316.797,78.697L317.52,77.5L318.242,75.662L318.965,74.64L319.688,73.098L320.41,72.35L321.133,70.551L321.855,69.675L322.578,68.653L323.301,67.312L324.023,66.227L324.746,65.126L325.469,63.84L326.191,62.984L326.914,62.13L327.637,61.185L328.359,60.514L329.082,59.255L329.805,58.442L330.527,57.614L331.25,57.044L331.973,56.579L332.695,55.393L333.418,54.703L334.141,53.741L334.863,53.901L335.586,52.819L336.309,52.034L337.031,51.447L337.754,51.099L338.477,50.262L339.199,50.114L339.922,49.171L340.645,49.049L341.367,48.255L342.09,48.036L342.813,47.606L343.535,46.787L344.258,46.856L344.98,46.168L345.703,45.522L346.426,45.23L347.148,44.808L347.871,44.495L348.594,44.744L349.316,44.471L350.039,43.409L350.762,43.115L351.484,43.16L352.207,42.803L352.93,42.777L353.652,42.3L354.375,41.465L355.098,42.668L355.82,41.61L356.543,41.206L357.266,40.715L357.988,40.904L358.711,41.06L359.434,40.303L360.156,40.51L360.879,39.831L361.602,39.786L362.324,39.339L363.047,40.103L363.77,38.917L364.492,39.397L365.215,39.396L365.938,39.193L366.66,39.403L367.383,38.502L368.105,38.545L368.828,38.345L369.551,37.977L370.273,37.402L370.996,38L371.719,37.698L372.441,37.477L373.164,37.092L373.887,37.419L374.609,35.891L375.332,36.339L376.055,37.144L376.777,37.734L377.5,37.96L378.223,37.371L378.945,36.338L379.668,37.123L380.391,36.911L381.113,36.374L381.836,36.605L382.559,36.311L383.281,36.617L384.004,36.991L384.727,35.139L385.449,35.649L386.172,34.967L386.895,35.551L387.617,34.62L388.34,33.366L389.063,34.59L389.785,35.085L390.508,34.766L391.23,35.047L391.953,32.914L392.676,34.061L393.398,33.982L394.121,33.236L394.844,33.425L395.566,33.729L396.289,33.687L397.012,33.915L397.734,33.296L398.457,33.401L399.18,32.77L399.902,34.685L400.625,29.648L401.348,30.073L402.07,31.126L402.793,30.864L403.516,31.962L404.238,30.623L404.961,28.449L405.684,27.851L406.406,26.332L407.129,27.11L407.852,23.961L408.574,26.255L409.297,20.911L410.02,22.727L410.742,27.435L411.465,24.678L412.188,25.611L412.91,21.463L413.633,21.858L414.355,20L415.078,26.464L415.801,31.642L416.523,36.953L417.246,47.464L417.969,54.933L418.691,55.199L419.414,54.98L420.137,58.754L420.859,58.638L421.582,56.794L422.305,59.294L423.027,57.525L423.75,61.031L424.473,61.114L425.195,58.667L425.918,57.544L426.641,58.753L427.363,60.453L428.086,58.816L428.809,57.069L429.531,54.634L430.254,55.136L430.977,53.734L431.699,54.34L432.422,54.543L433.145,51.47L433.867,50.477L434.59,52.221L435.313,49.225L436.035,49.428L436.758,48.464L437.48,48.249L438.203,49.243L438.926,46.675L439.648,45.369L440.371,47.212L441.094,43.301L441.816,45.375L442.539,44.641L443.262,44.1L443.984,44.409L444.707,42.794L445.43,43.186L446.152,42.455L446.875,41.539L447.598,41.128L448.32,40.911L449.043,41.047L449.766,40.19L450.488,40.162L451.211,39.14L451.934,38.073L452.656,39.564L453.379,37.714L454.102,38.274L454.824,38.387L455.547,38.468L456.27,38.349L456.992,37.712L457.715,37.584L458.438,36.956L459.16,37.446L459.883,37.134L460.605,36.724L461.328,36.462L462.051,37L462.773,36.878L463.496,36.389L464.219,36.582L464.941,36.529L465.664,36.464L466.387,35.886L467.109,36.006L467.832,36.228L468.555,35.587L469.277,35.676"/><path fill="none" stroke="rgb(69, 105, 238)" stroke-width="1.5" d="M100,53.767L100.723,54.08L101.445,54.151L102.168,54.157L102.891,54.292L103.613,54.335L104.336,54.544L105.059,54.538L105.781,54.769L106.504,54.906L107.227,55.047L107.949,55.081L108.672,55.267L109.395,55.224L110.117,55.592L110.84,55.654L111.563,55.815L112.285,56.142L113.008,56.143L113.73,56.293L114.453,56.328L115.176,56.696L115.898,56.88L116.621,56.991L117.344,57.116L118.066,57.338L118.789,57.451L119.512,57.488L120.234,57.908L120.957,57.942L121.68,58.201L122.402,58.374L123.125,58.656L123.848,58.824L124.57,58.959L125.293,59.196L126.016,59.213L126.738,59.358L127.461,59.772L128.184,60.062L128.906,60.334L129.629,60.514L130.352,60.821L131.074,60.854L131.797,61.281L132.52,61.452L133.242,61.69L133.965,61.841L134.688,62.139L135.41,62.439L136.133,62.808L136.855,63.167L137.578,63.337L138.301,63.606L139.023,63.926L139.746,63.956L140.469,64.292L141.191,64.593L141.914,64.907L142.637,65.403L143.359,65.708L144.082,65.848L144.805,66.415L145.527,66.565L146.25,67.039L146.973,67.432L147.695,67.841L148.418,68.148L149.141,68.499L149.863,69.035L150.586,69.276L151.309,69.489L152.031,69.999L152.754,70.266L153.477,70.814L154.199,71.269L154.922,71.686L155.645,72.286L156.367,72.629L157.09,73.145L157.813,73.708L158.535,74.075L159.258,74.544L159.98,75.102L160.703,75.391L161.426,76.069L162.148,76.623L162.871,77.248L163.594,77.473L164.316,78.211L165.039,78.739L165.762,79.057L166.484,79.849L167.207,80.525L167.93,81.045L168.652,81.714L169.375,82.416L170.098,82.955L170.82,83.466L171.543,84.425L172.266,84.993L172.988,85.686L173.711,86.466L174.434,87.082L175.156,87.842L175.879,88.822L176.602,89.331L177.324,90.172L178.047,90.881L178.77,91.879L179.492,92.531L180.215,93.47L180.938,94.359L181.66,95.154L182.383,95.819L183.105,96.722L183.828,97.651L184.551,98.658L185.273,99.453L185.996,100.72L186.719,101.607L187.441,102.773L188.164,103.779L188.887,104.633L189.609,105.943L190.332,107.005L191.055,108.009L191.777,109.243L192.5,110.342L193.223,111.494L193.945,112.542L194.668,114.01L195.391,114.888L196.113,116.499L196.836,117.659L197.559,118.984L198.281,120.489L199.004,121.918L199.727,123.128L200.449,124.659L201.172,126.174L201.895,127.745L202.617,129.121L203.34,130.704L204.063,132.077L204.785,133.979L205.508,135.593L206.23,137.242L206.953,138.959L207.676,140.847L208.398,142.587L209.121,144.172L209.844,146.251L210.566,147.945L211.289,150.022L212.012,151.872L212.734,153.966L213.457,155.883L214.18,158.25L214.902,160.145L215.625,162.438L216.348,164.472L217.07,166.873L217.793,169.32L218.516,171.641L219.238,174.052L219.961,176.414L220.684,179.112L221.406,181.801L222.129,184.112L222.852,187.008L223.574,189.811L224.297,192.716L225.02,195.045L225.742,198.338L226.465,201.388L227.188,204.61L227.91,207.728L228.633,210.445L229.355,214.053L230.078,217.449L230.801,220.947L231.523,224.153L232.246,227.578L232.969,231.24L233.691,234.935L234.414,238.541L235.137,242.226L235.859,245.736L236.582,249.376L237.305,253.504L238.027,257.332L238.75,261.321L239.473,264.988L240.195,269.097L240.918,273.203L241.641,277.027L242.363,280.613L243.086,284.875L243.809,288.626L244.531,292.186L245.254,295.615L245.977,299.356L246.699,303.101L247.422,306.561L248.145,309.762L248.867,312.983L249.59,316.176L250.313,319.451L251.035,321.863L251.758,324.607L252.48,327.097L253.203,329.395L253.926,331.571L254.648,332.592L255.371,335.19L256.094,336.029L256.816,337.487L257.539,338.638L258.262,338.74L258.984,339.337L259.707,339.588L260.43,339.651L261.152,339.756L261.875,338.97L262.598,337.906L263.32,336.771L264.043,335.508L264.766,333.685L265.488,332.991L266.211,330.26L266.934,327.93L267.656,325.958L268.379,322.873L269.102,319.788L269.824,317.412L270.547,313.58L271.27,309.756L271.992,306.166L272.715,302.464L273.438,298.738L274.16,294.234L274.883,290.321L275.605,286.069L276.328,281.515L277.051,276.884L277.773,271.444L278.496,265.822L279.219,260.077L279.941,254.41L280.664,248.387L281.387,241.681L282.109,234.99L282.832,228.027L283.555,220.413L284.277,214.034L285,207.235L285.723,200.388L286.445,193.506L287.168,186.773L287.891,180.689L288.613,174.398L289.336,168.301L290.059,162.248L290.781,155.862L291.504,150.136L292.227,144.428L292.949,138.456L293.672,133.263L294.395,127.52L295.117,122.741L295.84,117.373L296.563,112.236L297.285,107.689L298.008,102.698L298.73,98.397L299.453,93.566L300.176,89.557L300.898,85.179L301.621,82.257L302.344,85.48L303.066,88.976L303.789,92.287L304.512,96.343L305.234,99.586L305.957,103.209L306.68,101.315L307.402,99.423L308.125,96.939L308.848,95.118L309.57,93.108L310.293,90.959L311.016,89.158L311.738,87.415L312.461,85.604L313.184,84.038L313.906,82.502L314.629,81.058L315.352,79.452L316.074,77.777L316.797,76.452L317.52,75.116L318.242,73.566L318.965,72.297L319.688,70.787L320.41,70.109L321.133,68.58L321.855,67.432L322.578,66.524L323.301,64.906L324.023,64.29L324.746,62.814L325.469,62.468L326.191,61.11L326.914,60.237L327.637,59.241L328.359,58.763L329.082,57.629L329.805,57.144L330.527,56.298L331.25,55.335L331.973,55.449L332.695,54.274L333.418,53.529L334.141,52.185L334.863,51.897L335.586,51.719L336.309,51.131L337.031,50.657L337.754,49.959L338.477,50.229L339.199,48.946L339.922,48.075L340.645,47.945L341.367,47.042L342.09,47.733L342.813,46.64L343.535,46.664L344.258,46.615L344.98,45.557L345.703,45.162L346.426,44.002L347.148,44.141L347.871,44.4L348.594,44.144L349.316,43.099L350.039,43.288L350.762,42.795L351.484,43.083L352.207,42.383L352.93,42.156L353.652,42.582L354.375,42.517L355.098,42.354L355.82,41.293L356.543,39.83L357.266,41.427L357.988,39.605L358.711,38.918L359.434,40.643L360.156,40.17L360.879,40.202L361.602,38.529L362.324,39.761L363.047,39.752L363.77,38.723L364.492,39.687L365.215,37.079L365.938,38.292L366.66,37.766L367.383,38.499L368.105,38.345L368.828,38.225L369.551,37.042L370.273,38.542L370.996,38.955L371.719,36.955L372.441,38.863L373.164,37.165L373.887,37.141L374.609,38.519L375.332,38.059L376.055,38.224L376.777,35.345L377.5,35.835L378.223,35.532L378.945,36.638L379.668,36.051L380.391,36.445L381.113,36.654L381.836,37.035L382.559,35.618L383.281,36.988L384.004,35.973L384.727,33.961L385.449,36.509L386.172,32.454L386.895,35.95L387.617,34.941L388.34,35.655L389.063,35.864L389.785,32.765L390.508,37.041L391.23,33.619L391.953,34.957L392.676,34.445L393.398,35.27L394.121,35.05L394.844,35.276L395.566,33.92L396.289,32.803L397.012,33.941L397.734,32.974L398.457,33.779L399.18,31.994L399.902,35.045L400.625,32.086L401.348,32.477L402.07,33.15L402.793,29.305L403.516,27.655L404.238,28.002L404.961,31.483L405.684,28.279L406.406,28.995L407.129,30.07L407.852,27.769L408.574,26.913L409.297,30.875L410.02,31.863L410.742,36.953L411.465,39.59L412.188,45.903L412.91,47.404L413.633,51.428L414.355,47.21L415.078,47.296L415.801,50.744L416.523,49.681L417.246,53.062L417.969,56.117L418.691,52.717L419.414,56.715L420.137,54.26L420.859,55.169L421.582,52.681L422.305,53.641L423.027,56.954L423.75,54.164L424.473,56.561L425.195,57.33L425.918,54.1L426.641,56.463L427.363,53.645L428.086,57.465L428.809,56.219L429.531,52.227L430.254,52.937L430.977,52.587L431.699,51.206L432.422,50.468L433.145,50.838L433.867,50.448L434.59,51.792L435.313,49.985L436.035,48.816L436.758,48.675L437.48,46.572L438.203,44.741L438.926,45.704L439.648,47.281L440.371,44.372L441.094,44.262L441.816,43.926L442.539,43.9L443.262,43.393L443.984,43.392L444.707,42.991L445.43,42.562L446.152,40.341L446.875,41.024L447.598,40.235L448.32,40.554L449.043,39.927L449.766,39.437L450.488,38.144L451.211,38.637L451.934,38.876L452.656,38.345L453.379,38.048L454.102,37.903L454.824,38.376L455.547,37.978L456.27,37.475L456.992,37.116L457.715,37.17L458.438,36.575L459.16,36.484L459.883,36.788L460.605,36.962L461.328,36.123L462.051,36.616L462.773,36.245L463.496,36.435L464.219,36.182L464.941,36.559L465.664,36.22L466.387,36.101L467.109,36.181L467.832,35.78L468.555,35.915L469.277,35.883"/><path fill="none" stroke="rgb(38, 188, 225)" stroke-width="1.5" d="M100,53.338L100.723,53.438L101.445,53.541L102.168,53.732L102.891,53.67L103.613,54.013L104.336,53.907L105.059,54.007L105.781,54.464L106.504,54.225L107.227,54.48L107.949,54.475L108.672,54.689L109.395,54.98L110.117,55.002L110.84,55.2L111.563,55.185L112.285,55.439L113.008,55.438L113.73,55.439L114.453,55.842L115.176,56.013L115.898,56.023L116.621,56.339L117.344,56.657L118.066,56.869L118.789,56.825L119.512,57.047L120.234,57.018L120.957,57.222L121.68,57.33L122.402,57.546L123.125,58.039L123.848,58.171L124.57,58.185L125.293,58.331L126.016,58.647L126.738,58.712L127.461,58.969L128.184,59.334L128.906,59.393L129.629,59.754L130.352,59.937L131.074,60.18L131.797,60.507L132.52,60.501L133.242,60.954L133.965,61.128L134.688,61.442L135.41,61.604L136.133,61.957L136.855,62.207L137.578,62.471L138.301,62.708L139.023,62.929L139.746,63.18L140.469,63.784L141.191,63.901L141.914,64.004L142.637,64.301L143.359,64.729L144.082,64.945L144.805,65.412L145.527,65.855L146.25,66.292L146.973,66.279L147.695,66.861L148.418,67.065L149.141,67.477L149.863,67.663L150.586,68.14L151.309,68.604L152.031,68.745L152.754,69.264L153.477,69.822L154.199,70.089L154.922,70.612L155.645,70.991L156.367,71.455L157.09,71.729L157.813,72.321L158.535,72.706L159.258,73.165L159.98,73.48L160.703,74.194L161.426,74.5L162.148,75.158L162.871,75.802L163.594,76.294L164.316,76.644L165.039,77.285L165.762,77.797L166.484,78.449L167.207,78.862L167.93,79.502L168.652,79.989L169.375,80.959L170.098,81.008L170.82,81.964L171.543,82.478L172.266,83.102L172.988,83.955L173.711,84.468L174.434,85.198L175.156,85.769L175.879,86.513L176.602,87.477L177.324,88.02L178.047,88.799L178.77,89.241L179.492,90.446L180.215,91.301L180.938,91.892L181.66,92.983L182.383,93.643L183.105,94.522L183.828,95.246L184.551,96.22L185.273,97.188L185.996,97.934L186.719,98.932L187.441,100.093L188.164,100.672L188.887,101.732L189.609,102.846L190.332,104.21L191.055,104.921L191.777,105.785L192.5,107.197L193.223,108.069L193.945,109.107L194.668,110.524L195.391,111.592L196.113,112.606L196.836,114.029L197.559,115.3L198.281,116.993L199.004,117.91L199.727,118.937L200.449,120.631L201.172,121.91L201.895,123.204L202.617,124.395L203.34,126.097L204.063,127.531L204.785,128.991L205.508,130.681L206.23,131.937L206.953,133.839L207.676,135.169L208.398,136.948L209.121,138.413L209.844,140.583L210.566,142.185L211.289,143.902L212.012,145.715L212.734,147.342L213.457,149.357L214.18,151.506L214.902,153.316L215.625,155.434L216.348,157.22L217.07,159.469L217.793,161.605L218.516,163.435L219.238,165.643L219.961,168.145L220.684,170.156L221.406,172.376L222.129,175.005L222.852,177.42L223.574,179.683L224.297,182.397L225.02,184.7L225.742,187.436L226.465,189.966L227.188,192.718L227.91,195.844L228.633,198.232L229.355,201.182L230.078,204.597L230.801,207.411L231.523,210.615L232.246,213.475L232.969,216.564L233.691,219.709L234.414,223.178L235.137,226.24L235.859,229.498L236.582,232.858L237.305,235.658L238.027,239.232L238.75,242.869L239.473,246.335L240.195,249.43L240.918,253.362L241.641,256.456L242.363,259.63L243.086,262.952L243.809,266.215L244.531,269.828L245.254,273.168L245.977,276.372L246.699,279.508L247.422,282.019L248.145,284.948L248.867,288.48L249.59,290.76L250.313,293.417L251.035,295.399L251.758,298.402L252.48,300.205L253.203,302.279L253.926,303.847L254.648,305.46L255.371,307.069L256.094,308.167L256.816,309.335L257.539,310.467L258.262,310.427L258.984,311.109L259.707,311.202L260.43,310.972L261.152,310.704L261.875,310.326L262.598,309.533L263.32,308.776L264.043,306.988L264.766,305.373L265.488,304.21L266.211,301.79L266.934,300.005L267.656,297.606L268.379,294.912L269.102,292.058L269.824,289.644L270.547,286.897L271.27,283.38L271.992,280.084L272.715,276.397L273.438,273.294L274.16,269.472L274.883,265.584L275.605,261.535L276.328,257.254L277.051,252.573L277.773,247.994L278.496,242.73L279.219,237.261L279.941,231.879L280.664,226.219L281.387,220.174L282.109,213.674L282.832,207.555L283.555,201.061L284.277,194.206L285,188.423L285.723,181.76L286.445,175.252L287.168,169.655L287.891,163.151L288.613,157.626L289.336,151.812L290.059,145.928L290.781,140.208L291.504,134.529L292.227,129.589L292.949,123.988L293.672,118.724L294.395,114.256L295.117,109.316L295.84,104.044L296.563,99.837L297.285,95.141L298.008,90.954L298.73,86.342L299.453,82.491L300.176,79.31L300.898,78.16L301.621,83.747L302.344,88.802L303.066,94.198L303.789,99.483L304.512,103.795L305.234,107.974L305.957,106.135L306.68,104.685L307.402,102.682L308.125,100.735L308.848,98.608L309.57,97.111L310.293,94.934L311.016,93.579L311.738,91.794L312.461,89.953L313.184,88.515L313.906,86.82L314.629,85.279L315.352,83.6L316.074,82.311L316.797,80.82L317.52,79.059L318.242,77.539L318.965,76.494L319.688,74.823L320.41,73.797L321.133,72.217L321.855,71.27L322.578,70.521L323.301,69.406L324.023,68.306L324.746,66.814L325.469,65.94L326.191,64.906L326.914,63.738L327.637,62.806L328.359,62.038L329.082,61.427L329.805,60.256L330.527,59.444L331.25,58.958L331.973,58.084L332.695,57.07L333.418,56.649L334.141,55.612L334.863,55.369L335.586,54.529L336.309,53.502L337.031,53.032L337.754,52.339L338.477,51.753L339.199,51.094L339.922,50.925L340.645,50.538L341.367,49.686L342.09,49.534L342.813,48.891L343.535,48.012L344.258,46.97L344.98,47.238L345.703,47.661L346.426,46.629L347.148,46.304L347.871,45.746L348.594,45.197L349.316,46.444L350.039,44.703L350.762,45.208L351.484,44.409L352.207,42.849L352.93,44.3L353.652,42.535L354.375,44.082L355.098,42.283L355.82,41.853L356.543,42.859L357.266,41.924L357.988,42.034L358.711,40.938L359.434,41.173L360.156,41.651L360.879,40.8L361.602,40.815L362.324,41.138L363.047,40.519L363.77,39.415L364.492,39.886L365.215,39.627L365.938,38.941L366.66,39.402L367.383,39.668L368.105,38.569L368.828,39.444L369.551,38.18L370.273,39.718L370.996,37.77L371.719,38.468L372.441,39.066L373.164,38.048L373.887,38.515L374.609,35.992L375.332,38.013L376.055,37.212L376.777,38.892L377.5,37.001L378.223,38.036L378.945,38.102L379.668,40.488L380.391,37.84L381.113,37.972L381.836,37.739L382.559,37.901L383.281,37.126L384.004,37.518L384.727,38.518L385.449,36.033L386.172,37.985L386.895,37.191L387.617,35.773L388.34,37.505L389.063,38.232L389.785,37.963L390.508,34.162L391.23,38.191L391.953,38.889L392.676,37.084L393.398,37.001L394.121,37.521L394.844,38.41L395.566,38.5L396.289,36.111L397.012,37.859L397.734,38.368L398.457,37.317L399.18,35.672L399.902,37.25L400.625,37.447L401.348,36.747L402.07,40.003L402.793,38.289L403.516,41.281L404.238,41.414L404.961,43.731L405.684,40.457L406.406,38.058L407.129,38.107L407.852,42.628L408.574,41.12L409.297,37.694L410.02,42.163L410.742,38.252L411.465,42.837L412.188,41.743L412.91,40.224L413.633,41.543L414.355,42.478L415.078,47.477L415.801,44.733L416.523,44.805L417.246,45.904L417.969,43.416L418.691,48.249L419.414,46.398L420.137,43.655L420.859,48.911L421.582,45.434L422.305,46.405L423.027,49.871L423.75,46.578L424.473,47.616L425.195,47.15L425.918,48.797L426.641,48.804L427.363,47.081L428.086,48.04L428.809,45.861L429.531,49.736L430.254,46.942L430.977,46.817L431.699,45.947L432.422,45.633L433.145,44.963L433.867,43.057L434.59,44.325L435.313,44.909L436.035,46.806L436.758,43.81L437.48,43.665L438.203,43.96L438.926,43.477L439.648,42.968L440.371,42.963L441.094,42.378L441.816,41.389L442.539,40.94L443.262,40.085L443.984,40.383L444.707,41.499L445.43,38.496L446.152,38.911L446.875,39.968L447.598,39.34L448.32,38.417L449.043,39.479L449.766,38.273L450.488,38.284L451.211,37.923L451.934,37.545L452.656,36.791L453.379,37.906L454.102,37.296L454.824,36.801L455.547,36.598L456.27,36.835L456.992,36.982L457.715,36.375L458.438,36.832L459.16,36.436L459.883,36.594L460.605,36.302L461.328,35.988L462.051,36.265L462.773,35.787L463.496,36.235L464.219,36.254L464.941,36.322L465.664,35.753L466.387,35.678L467.109,35.672L467.832,35.573L468.555,35.581L469.277,35.508"/><path fill="none" stroke="rgb(63, 243, 147)" stroke-width="1.5" d="M100,52.535L100.723,52.894L101.445,52.726L102.168,52.951L102.891,52.911L103.613,53.169L104.336,53.247L105.059,53.264L105.781,53.462L106.504,53.531L107.227,53.655L107.949,53.742L108.672,54.013L109.395,54.105L110.117,53.899L110.84,54.242L111.563,54.387L112.285,54.624L113.008,54.688L113.73,54.628L114.453,54.994L115.176,54.941L115.898,55.326L116.621,55.535L117.344,55.491L118.066,55.668L118.789,55.768L119.512,55.95L120.234,56.108L120.957,56.234L121.68,56.531L122.402,56.703L123.125,57.165L123.848,57.072L124.57,57.362L125.293,57.4L126.016,57.505L126.738,57.726L127.461,57.968L128.184,58.231L128.906,58.566L129.629,58.726L130.352,58.788L131.074,58.981L131.797,59.149L132.52,59.488L133.242,59.504L133.965,59.81L134.688,60.179L135.41,60.473L136.133,60.607L136.855,60.72L137.578,61.039L138.301,61.435L139.023,61.647L139.746,61.734L140.469,62.261L141.191,62.716L141.914,62.857L142.637,62.931L143.359,63.242L144.082,63.546L144.805,63.955L145.527,64.019L146.25,64.424L146.973,64.951L147.695,65.147L148.418,65.529L149.141,65.843L149.863,66.107L150.586,66.335L151.309,66.963L152.031,67.195L152.754,67.505L153.477,68.058L154.199,68.238L154.922,68.793L155.645,68.939L156.367,69.632L157.09,69.955L157.813,70.244L158.535,70.776L159.258,71.094L159.98,71.625L160.703,71.96L161.426,72.503L162.148,72.855L162.871,73.262L163.594,73.808L164.316,74.42L165.039,74.886L165.762,75.117L166.484,76.078L167.207,76.426L167.93,76.994L168.652,77.52L169.375,78.004L170.098,78.664L170.82,79.037L171.543,79.982L172.266,80.336L172.988,80.865L173.711,81.691L174.434,82.066L175.156,82.983L175.879,83.692L176.602,84.14L177.324,84.838L178.047,85.488L178.77,86.096L179.492,87.248L180.215,87.628L180.938,88.412L181.66,89.116L182.383,90.019L183.105,90.685L183.828,91.608L184.551,92.364L185.273,92.915L185.996,93.959L186.719,94.772L187.441,95.666L188.164,96.566L188.887,97.483L189.609,98.292L190.332,99.408L191.055,100.262L191.777,101.27L192.5,102.104L193.223,103.105L193.945,104.363L194.668,105.198L195.391,106.494L196.113,107.172L196.836,108.698L197.559,109.592L198.281,110.777L199.004,111.642L199.727,112.836L200.449,114.26L201.172,115.343L201.895,116.492L202.617,118.027L203.34,119.294L204.063,120.277L204.785,121.582L205.508,123.347L206.23,124.503L206.953,125.802L207.676,127.221L208.398,128.773L209.121,130.177L209.844,131.743L210.566,133.228L211.289,134.707L212.012,136.319L212.734,137.912L213.457,139.639L214.18,141.101L214.902,143.082L215.625,144.584L216.348,146.57L217.07,148.165L217.793,150.007L218.516,151.92L219.238,154.014L219.961,155.506L220.684,157.176L221.406,159.683L222.129,161.754L222.852,163.785L223.574,165.623L224.297,168.088L225.02,170.062L225.742,172.4L226.465,174.682L227.188,176.982L227.91,179.061L228.633,181.362L229.355,184.073L230.078,186.619L230.801,189.189L231.523,191.031L232.246,193.963L232.969,196.145L233.691,198.972L234.414,201.454L235.137,204.082L235.859,207.353L236.582,209.398L237.305,212.2L238.027,215.076L238.75,217.854L239.473,220.348L240.195,223.14L240.918,226.172L241.641,228.379L242.363,231.578L243.086,234.148L243.809,236.714L244.531,239.445L245.254,241.507L245.977,244.714L246.699,247.017L247.422,249.294L248.145,251.515L248.867,253.92L249.59,256.707L250.313,257.67L251.035,260.12L251.758,261.579L252.48,263.39L253.203,264.685L253.926,266.36L254.648,267.391L255.371,268.43L256.094,269.423L256.816,269.75L257.539,270.844L258.262,271.462L258.984,271.929L259.707,271.905L260.43,271.771L261.152,271.216L261.875,270.402L262.598,269.845L263.32,269.257L264.043,267.755L264.766,267.294L265.488,265.617L266.211,263.749L266.934,262.968L267.656,260.479L268.379,258.172L269.102,256.021L269.824,253.562L270.547,250.944L271.27,248.337L271.992,245.753L272.715,242.59L273.438,239.718L274.16,236.764L274.883,233.211L275.605,230.196L276.328,226.073L277.051,222.821L277.773,218.071L278.496,214.151L279.219,209.49L279.941,204.782L280.664,200.996L281.387,199.538L282.109,197.413L282.832,194.899L283.555,193.052L284.277,190.876L285,187.901L285.723,183.354L286.445,178.628L287.168,173.082L287.891,168.964L288.613,163.777L289.336,159.374L290.059,155.034L290.781,149.974L291.504,145.084L292.227,140.908L292.949,136.123L293.672,131.658L294.395,127.609L295.117,123.612L295.84,118.907L296.563,114.33L297.285,110.851L298.008,106.445L298.73,102.967L299.453,98.871L300.176,98.196L300.898,101.532L301.621,104.96L302.344,108.524L303.066,112.007L303.789,115.785L304.512,118.023L305.234,115.913L305.957,113.953L306.68,111.86L307.402,109.707L308.125,107.274L308.848,105.65L309.57,104.369L310.293,101.984L311.016,99.878L311.738,98.263L312.461,96.21L313.184,94.539L313.906,92.995L314.629,91.282L315.352,89.803L316.074,88.326L316.797,86.501L317.52,85.088L318.242,83.349L318.965,81.804L319.688,81.317L320.41,79.281L321.133,77.881L321.855,76.795L322.578,75.234L323.301,73.776L324.023,72.972L324.746,71.872L325.469,70.819L326.191,69.496L326.914,68.185L327.637,67.672L328.359,66.259L329.082,65.788L329.805,64.434L330.527,63.339L331.25,63.316L331.973,62.016L332.695,61.414L333.418,59.65L334.141,59.262L334.863,58.76L335.586,57.7L336.309,57.562L337.031,56.404L337.754,55.766L338.477,55.251L339.199,54.681L339.922,54.035L340.645,53.109L341.367,52.465L342.09,52.414L342.813,51.37L343.535,51.456L344.258,50.649L344.98,50.002L345.703,49.579L346.426,49.007L347.148,48.745L347.871,48.357L348.594,47.466L349.316,47.424L350.039,46.638L350.762,46.384L351.484,45.862L352.207,45.505L352.93,45.117L353.652,45.38L354.375,44.201L355.098,44.644L355.82,44.664L356.543,45.059L357.266,43.997L357.988,42.444L358.711,42.878L359.434,42.52L360.156,42.451L360.879,40.877L361.602,42.984L362.324,41.654L363.047,41.87L363.77,41.303L364.492,41.713L365.215,41.812L365.938,39.959L366.66,40.651L367.383,41.152L368.105,40.498L368.828,40.373L369.551,40.27L370.273,38.079L370.996,40.397L371.719,38.958L372.441,39.59L373.164,37.738L373.887,38.813L374.609,40.68L375.332,38.296L376.055,38.171L376.777,38.289L377.5,39.128L378.223,39.148L378.945,37.694L379.668,35.672L380.391,38.093L381.113,38.085L381.836,37.504L382.559,38.637L383.281,38.276L384.004,37.581L384.727,35.687L385.449,38.77L386.172,35.311L386.895,37.068L387.617,37.491L388.34,35.461L389.063,37.542L389.785,37.772L390.508,36.617L391.23,36.994L391.953,37.679L392.676,36.428L393.398,35.581L394.121,37.325L394.844,35.378L395.566,35.775L396.289,36.052L397.012,38.786L397.734,38.461L398.457,37.743L399.18,34.735L399.902,36.64L400.625,36.949L401.348,34.647L402.07,35.31L402.793,37.195L403.516,39.597L404.238,37.802L404.961,38.092L405.684,36.722L406.406,38.535L407.129,36.69L407.852,36.039L408.574,37.228L409.297,35.532L410.02,39.818L410.742,35.048L411.465,39.2L412.188,39.654L412.91,38.744L413.633,39.157L414.355,39.222L415.078,40.749L415.801,35.317L416.523,39.613L417.246,41.516L417.969,36.488L418.691,37.015L419.414,38.587L420.137,39.274L420.859,38.92L421.582,36.013L422.305,44.686L423.027,41.731L423.75,42.338L424.473,37.507L425.195,38.997L425.918,38.741L426.641,37.541L427.363,38.378L428.086,37.577L428.809,39.285L429.531,41.396L430.254,39.302L430.977,39.341L431.699,38.369L432.422,38.452L433.145,36.282L433.867,40.184L434.59,38.308L435.313,37.49L436.035,38.747L436.758,38.051L437.48,39.69L438.203,37.547L438.926,36.976L439.648,38.202L440.371,38.322L441.094,37.091L441.816,35.67L442.539,36.953L443.262,37.197L443.984,37.782L444.707,37.068L445.43,37.022L446.152,37.967L446.875,36.704L447.598,35.857L448.32,35.908L449.043,37.5L449.766,36.545L450.488,36.158L451.211,36.39L451.934,36.085L452.656,35.919L453.379,36.047L454.102,35.598L454.824,35.693L455.547,35.733L456.27,36.098L456.992,36.048L457.715,35.42L458.438,35.264L459.16,35.124L459.883,35.858L460.605,35.507L461.328,35.361L462.051,35.579L462.773,35.642L463.496,35.583L464.219,35.498L464.941,35.471L465.664,35.473L466.387,35.476L467.109,35.305L467.832,35.514L468.555,35.223L469.277,35.168"/><path fill="none" stroke="rgb(149, 251, 81)" stroke-width="1.5" d="M100,51.886L100.723,51.776L101.445,52.106L102.168,52.106L102.891,52.42L103.613,52.26L104.336,52.47L105.059,52.769L105.781,52.83L106.504,52.856L107.227,52.726L107.949,52.99L108.672,52.889L109.395,53.059L110.117,53.135L110.84,53.437L111.563,53.643L112.285,53.726L113.008,53.892L113.73,53.948L114.453,54.079L115.176,54.23L115.898,54.278L116.621,54.499L117.344,54.569L118.066,54.641L118.789,54.939L119.512,54.926L120.234,55.145L120.957,55.211L121.68,55.359L122.402,55.506L123.125,55.648L123.848,55.929L124.57,56.189L125.293,56.34L126.016,56.409L126.738,56.732L127.461,56.862L128.184,56.977L128.906,57.067L129.629,57.4L130.352,57.624L131.074,57.693L131.797,57.84L132.52,58.052L133.242,58.388L133.965,58.622L134.688,58.797L135.41,58.845L136.133,59.259L136.855,59.483L137.578,59.656L138.301,60.002L139.023,60.193L139.746,60.231L140.469,60.58L141.191,60.994L141.914,61.17L142.637,61.369L143.359,61.566L144.082,61.858L144.805,62.105L145.527,62.435L146.25,62.979L146.973,63.006L147.695,63.314L148.418,63.555L149.141,63.759L149.863,64.251L150.586,64.359L151.309,64.674L152.031,65.175L152.754,65.572L153.477,65.711L154.199,66.159L154.922,66.453L155.645,67.083L156.367,67.079L157.09,67.583L157.813,67.896L158.535,68.357L159.258,68.643L159.98,69.487L160.703,69.532L161.426,70.143L162.148,70.306L162.871,70.796L163.594,71.194L164.316,71.491L165.039,72.267L165.762,72.342L166.484,72.962L167.207,73.381L167.93,73.922L168.652,74.56L169.375,74.987L170.098,75.584L170.82,75.854L171.543,76.562L172.266,76.806L172.988,77.422L173.711,78.006L174.434,78.856L175.156,79.369L175.879,79.915L176.602,80.535L177.324,80.882L178.047,81.677L178.77,81.862L179.492,82.889L180.215,83.463L180.938,83.979L181.66,84.733L182.383,85.401L183.105,86.316L183.828,86.734L184.551,87.395L185.273,88.186L185.996,88.97L186.719,89.848L187.441,90.418L188.164,91.437L188.887,92.151L189.609,92.773L190.332,93.829L191.055,94.44L191.777,95.285L192.5,96.184L193.223,97.071L193.945,97.976L194.668,98.756L195.391,99.806L196.113,100.767L196.836,101.623L197.559,102.773L198.281,103.465L199.004,104.51L199.727,105.487L200.449,106.47L201.172,107.765L201.895,108.788L202.617,109.763L203.34,110.977L204.063,111.922L204.785,113.427L205.508,114.104L206.23,115.468L206.953,116.661L207.676,117.663L208.398,118.917L209.121,120.044L209.844,121.87L210.566,122.756L211.289,124.064L212.012,125.251L212.734,126.85L213.457,128.333L214.18,129.551L214.902,130.779L215.625,132.488L216.348,133.847L217.07,135.641L217.793,136.818L218.516,138.419L219.238,139.821L219.961,141.618L220.684,142.987L221.406,144.704L222.129,146.512L222.852,148.011L223.574,149.884L224.297,151.371L225.02,152.969L225.742,155.243L226.465,156.763L227.188,158.499L227.91,160.583L228.633,162.273L229.355,164.207L230.078,165.752L230.801,168.078L231.523,169.869L232.246,171.605L232.969,173.698L233.691,175.644L234.414,177.484L235.137,179.274L235.859,181.568L236.582,183.842L237.305,185.82L238.027,187.613L238.75,189.672L239.473,191.788L240.195,193.613L240.918,195.543L241.641,197.844L242.363,199.926L243.086,201.887L243.809,203.998L244.531,205.774L245.254,207.845L245.977,209.656L246.699,211.482L247.422,213.656L248.145,215.206L248.867,216.756L249.59,218.828L250.313,220.184L251.035,221.839L251.758,223.29L252.48,224.929L253.203,226.152L253.926,227.454L254.648,227.983L255.371,229.475L256.094,229.969L256.816,230.989L257.539,231.795L258.262,232.345L258.984,232.864L259.707,233.205L260.43,232.976L261.152,232.946L261.875,233.013L262.598,233.016L263.32,232.22L264.043,231.435L264.766,230.753L265.488,229.843L266.211,228.753L266.934,227.669L267.656,226.336L268.379,225.486L269.102,227.551L269.824,229.401L270.547,230.089L271.27,231.713L271.992,232.893L272.715,233.828L273.438,232.599L274.16,231.462L274.883,230.122L275.605,228.39L276.328,226.953L277.051,224.598L277.773,222.324L278.496,219.33L279.219,216.666L279.941,213.003L280.664,209.247L281.387,205.751L282.109,200.856L282.832,196.446L283.555,192.402L284.277,188.22L285,183.442L285.723,178.856L286.445,174.963L287.168,170.255L287.891,166.054L288.613,161.743L289.336,157.23L290.059,153.026L290.781,148.679L291.504,144.431L292.227,139.932L292.949,135.713L293.672,131.585L294.395,127.48L295.117,123.552L295.84,119.394L296.563,115.466L297.285,111.66L298.008,107.705L298.73,103.952L299.453,107.026L300.176,110.576L300.898,114.003L301.621,117.594L302.344,121.187L303.066,124.876L303.789,123.748L304.512,121.641L305.234,119.498L305.957,117.376L306.68,115.227L307.402,113.052L308.125,111.134L308.848,108.741L309.57,106.95L310.293,105.032L311.016,103.055L311.738,101.217L312.461,99.666L313.184,97.662L313.906,96.306L314.629,94.283L315.352,92.748L316.074,91.107L316.797,89.101L317.52,87.553L318.242,86.12L318.965,84.573L319.688,83.142L320.41,81.735L321.133,80.378L321.855,78.953L322.578,77.765L323.301,76.474L324.023,74.939L324.746,73.844L325.469,72.87L326.191,71.609L326.914,70.699L327.637,69.351L328.359,68.471L329.082,67.415L329.805,66.47L330.527,65.362L331.25,64.512L331.973,63.476L332.695,62.741L333.418,61.823L334.141,61.115L334.863,60.143L335.586,59.354L336.309,58.417L337.031,57.79L337.754,57.169L338.477,56.425L339.199,55.47L339.922,55.022L340.645,54.621L341.367,53.865L342.09,53.179L342.813,52.711L343.535,52.096L344.258,51.656L344.98,51.152L345.703,50.539L346.426,50.008L347.148,49.486L347.871,49.086L348.594,48.642L349.316,48.128L350.039,47.697L350.762,47.424L351.484,46.904L352.207,46.564L352.93,46.14L353.652,45.791L354.375,45.354L355.098,45.151L355.82,44.932L356.543,44.547L357.266,44.168L357.988,43.757L358.711,43.515L359.434,43.417L360.156,43.024L360.879,42.757L361.602,42.469L362.324,42.368L363.047,41.97L363.77,41.986L364.492,41.678L365.215,41.263L365.938,41.154L366.66,40.92L367.383,40.867L368.105,40.605L368.828,40.377L369.551,40.074L370.273,39.988L370.996,39.857L371.719,39.742L372.441,39.573L373.164,39.486L373.887,39.335L374.609,39.126L375.332,38.933L376.055,38.884L376.777,38.872L377.5,38.768L378.223,38.553L378.945,38.512L379.668,38.259L380.391,38.228L381.113,38.084L381.836,37.938L382.559,37.964L383.281,37.677L384.004,37.591L384.727,37.662L385.449,37.482L386.172,37.422L386.895,37.244L387.617,37.387L388.34,37.118L389.063,37.006L389.785,37.007L390.508,37.053L391.23,36.969L391.953,36.76L392.676,36.807L393.398,36.736L394.121,36.664L394.844,36.678L395.566,36.613L396.289,36.441L397.012,36.467L397.734,36.372L398.457,36.48L399.18,36.34L399.902,36.216L400.625,36.225L401.348,36.264L402.07,36.214L402.793,36.11L403.516,36.093L404.238,36.127L404.961,35.937L405.684,35.937L406.406,35.921L407.129,35.903L407.852,35.911L408.574,35.869L409.297,35.956L410.02,35.883L410.742,35.739L411.465,35.71L412.188,35.716L412.91,35.746L413.633,35.624L414.355,35.594L415.078,35.595L415.801,35.623L416.523,35.631L417.246,35.544L417.969,35.575L418.691,35.538L419.414,35.531L420.137,35.564L420.859,35.541L421.582,35.535L422.305,35.453L423.027,35.377L423.75,35.399L424.473,35.454L425.195,35.403L425.918,35.405L426.641,35.417L427.363,35.446L428.086,35.347L428.809,35.298L429.531,35.327L430.254,35.367L430.977,35.392L431.699,35.311L432.422,35.352L433.145,35.344L433.867,35.33L434.59,35.352L435.313,35.275L436.035,35.29L436.758,35.237L437.48,35.242L438.203,35.256L438.926,35.259L439.648,35.241L440.371,35.243L441.094,35.251L441.816,35.216L442.539,35.202L443.262,35.271L443.984,35.262L444.707,35.186L445.43,35.205L446.152,35.247L446.875,35.212L447.598,35.182L448.32,35.207L449.043,35.22L449.766,35.203L450.488,35.193L451.211,35.168L451.934,35.197L452.656,35.176L453.379,35.183L454.102,35.183L454.824,35.148L455.547,35.159L456.27,35.14L456.992,35.168L457.715,35.182L458.438,35.164L459.16,35.152L459.883,35.156L460.605,35.149L461.328,35.128L462.051,35.139L462.773,35.16L463.496,35.153L464.219,35.142L464.941,35.13L465.664,35.136L466.387,35.134L467.109,35.127L467.832,35.115L468.555,35.129L469.277,35.124"/><path fill="none" stroke="rgb(236, 209, 46)" stroke-width="1.5" d="M100,51.211L100.723,50.974L101.445,51.016L102.168,51.161L102.891,51.23L103.613,51.268L104.336,51.283L105.059,51.465L105.781,51.711L106.504,51.656L107.227,51.842L107.949,51.912L108.672,51.967L109.395,52.164L110.117,52.29L110.84,52.295L111.563,52.474L112.285,52.576L113.008,52.75L113.73,52.826L114.453,52.966L115.176,53.015L115.898,53.026L116.621,53.432L117.344,53.526L118.066,53.519L118.789,53.805L119.512,53.746L120.234,54.018L120.957,53.936L121.68,54.003L122.402,54.158L123.125,54.162L123.848,54.643L124.57,54.573L125.293,54.86L126.016,55.202L126.738,55.362L127.461,55.482L128.184,55.35L128.906,55.609L129.629,55.745L130.352,56.156L131.074,56.017L131.797,56.421L132.52,56.62L133.242,56.823L133.965,57.136L134.688,56.881L135.41,57.201L136.133,57.362L136.855,57.415L137.578,57.922L138.301,57.902L139.023,58.183L139.746,58.584L140.469,58.789L141.191,59.02L141.914,59.114L142.637,59.276L143.359,59.579L144.082,59.807L144.805,59.875L145.527,60.364L146.25,60.558L146.973,60.955L147.695,61.185L148.418,61.429L149.141,61.486L149.863,61.828L150.586,62.213L151.309,62.495L152.031,62.713L152.754,62.992L153.477,63.152L154.199,63.564L154.922,63.969L155.645,64.228L156.367,64.57L157.09,64.828L157.813,65.293L158.535,65.592L159.258,65.733L159.98,66.108L160.703,66.545L161.426,66.925L162.148,67.162L162.871,67.744L163.594,67.899L164.316,68.551L165.039,68.514L165.762,69.288L166.484,69.781L167.207,70.194L167.93,70.379L168.652,70.86L169.375,71.35L170.098,71.559L170.82,71.998L171.543,72.391L172.266,72.954L172.988,73.457L173.711,73.929L174.434,74.584L175.156,75.138L175.879,75.545L176.602,76.14L177.324,76.702L178.047,77.066L178.77,77.517L179.492,78.321L180.215,78.547L180.938,78.985L181.66,79.712L182.383,80.438L183.105,80.991L183.828,81.465L184.551,82.36L185.273,82.798L185.996,83.461L186.719,84.086L187.441,84.742L188.164,85.484L188.887,86.151L189.609,86.795L190.332,87.411L191.055,88.248L191.777,88.85L192.5,89.594L193.223,90.222L193.945,91.116L194.668,91.85L195.391,92.601L196.113,93.452L196.836,93.996L197.559,95.062L198.281,95.658L199.004,96.553L199.727,97.406L200.449,98.278L201.172,99.172L201.895,100.17L202.617,101.124L203.34,102.185L204.063,102.97L204.785,103.762L205.508,104.732L206.23,105.733L206.953,106.838L207.676,107.666L208.398,108.67L209.121,109.572L209.844,110.738L210.566,111.486L211.289,113.006L212.012,114.028L212.734,114.859L213.457,116.121L214.18,117.091L214.902,118.228L215.625,119.392L216.348,120.511L217.07,121.808L217.793,122.897L218.516,124.02L219.238,125.478L219.961,126.682L220.684,127.451L221.406,128.951L222.129,130.375L222.852,131.569L223.574,132.6L224.297,134.015L225.02,135.433L225.742,136.956L226.465,138.184L227.188,139.565L227.91,141.097L228.633,142.367L229.355,143.999L230.078,145.09L230.801,146.689L231.523,148.181L232.246,149.436L232.969,151.176L233.691,152.917L234.414,154.116L235.137,155.934L235.859,157.559L236.582,159.1L237.305,160.682L238.027,162.199L238.75,163.983L239.473,165.434L240.195,166.962L240.918,169.005L241.641,170.894L242.363,172.595L243.086,173.865L243.809,175.503L244.531,177.323L245.254,179.149L245.977,181.217L246.699,182.695L247.422,184.094L248.145,186.353L248.867,187.373L249.59,189.076L250.313,190.517L251.035,191.875L251.758,193.731L252.48,195.189L253.203,196.239L253.926,198.092L254.648,201.354L255.371,204.581L256.094,207.532L256.816,210.798L257.539,214.068L258.262,217.118L258.984,218.624L259.707,220.55L260.43,221.716L261.152,222.897L261.875,223.621L262.598,224.971L263.32,225.982L264.043,226.023L264.766,226.571L265.488,227.893L266.211,227.925L266.934,228.639L267.656,228.708L268.379,228.663L269.102,228.397L269.824,227.874L270.547,227.482L271.27,226.137L271.992,225.862L272.715,225.305L273.438,223.911L274.16,223.076L274.883,221.354L275.605,219.182L276.328,218.659L277.051,216.213L277.773,213.907L278.496,211.634L279.219,208.399L279.941,205.505L280.664,201.657L281.387,197.794L282.109,194.005L282.832,189.537L283.555,185.013L284.277,180.996L285,177.125L285.723,173.128L286.445,168.995L287.168,164.634L287.891,160.904L288.613,156.128L289.336,152.02L290.059,148.034L290.781,144.258L291.504,140.264L292.227,136.506L292.949,132.693L293.672,127.896L294.395,124.625L295.117,120.841L295.84,117.281L296.563,113.057L297.285,109.746L298.008,109.86L298.73,113.129L299.453,116.942L300.176,120.393L300.898,123.947L301.621,127.65L302.344,129.322L303.066,126.487L303.789,124.623L304.512,122.671L305.234,120.545L305.957,117.929L306.68,115.841L307.402,113.919L308.125,111.692L308.848,109.716L309.57,107.883L310.293,105.82L311.016,103.954L311.738,101.942L312.461,99.902L313.184,98.258L313.906,96.354L314.629,94.712L315.352,92.847L316.074,91.237L316.797,89.641L317.52,87.891L318.242,86.103L318.965,84.946L319.688,83.375L320.41,81.778L321.133,80.562L321.855,79.147L322.578,77.726L323.301,76.446L324.023,74.992L324.746,73.926L325.469,72.725L326.191,71.504L326.914,70.339L327.637,69.358L328.359,67.921L329.082,67.035L329.805,66.006L330.527,64.984L331.25,64.115L331.973,63.337L332.695,62.325L333.418,61.351L334.141,60.432L334.863,59.645L335.586,58.951L336.309,58.115L337.031,57.314L337.754,56.571L338.477,55.82L339.199,55.138L339.922,54.373L340.645,53.792L341.367,53.315L342.09,52.708L342.813,52.089L343.535,51.55L344.258,51.074L344.98,50.447L345.703,49.895L346.426,49.316L347.148,48.902L347.871,48.411L348.594,48.037L349.316,47.549L350.039,47.241L350.762,46.669L351.484,46.151L352.207,45.882L352.93,45.528L353.652,45.14L354.375,44.827L355.098,44.448L355.82,44.271L356.543,43.776L357.266,43.516L357.988,43.273L358.711,43.065L359.434,42.776L360.156,42.445L360.879,42.204L361.602,42.083L362.324,41.725L363.047,41.484L363.77,41.325L364.492,41.058L365.215,40.825L365.938,40.652L366.66,40.494L367.383,40.294L368.105,40.096L368.828,39.935L369.551,39.805L370.273,39.598L370.996,39.431L371.719,39.299L372.441,39.121L373.164,39.05L373.887,38.865L374.609,38.676L375.332,38.625L376.055,38.479L376.777,38.379L377.5,38.184L378.223,38.118L378.945,37.982L379.668,37.908L380.391,37.77L381.113,37.74L381.836,37.645L382.559,37.556L383.281,37.465L384.004,37.367L384.727,37.26L385.449,37.227L386.172,37.086L386.895,37.061L387.617,36.979L388.34,36.9L389.063,36.916L389.785,36.832L390.508,36.753L391.23,36.685L391.953,36.656L392.676,36.606L393.398,36.515L394.121,36.456L394.844,36.43L395.566,36.387L396.289,36.331L397.012,36.284L397.734,36.22L398.457,36.203L399.18,36.143L399.902,36.094L400.625,36.09L401.348,36.02L402.07,36.012L402.793,35.976L403.516,35.955L404.238,35.899L404.961,35.891L405.684,35.841L406.406,35.81L407.129,35.792L407.852,35.757L408.574,35.726L409.297,35.72L410.02,35.689L410.742,35.669L411.465,35.66L412.188,35.64L412.91,35.621L413.633,35.595L414.355,35.585L415.078,35.557L415.801,35.55L416.523,35.525L417.246,35.512L417.969,35.489L418.691,35.471L419.414,35.469L420.137,35.487L420.859,35.428L421.582,35.437L422.305,35.407L423.027,35.414L423.75,35.4L424.473,35.394L425.195,35.39L425.918,35.376L426.641,35.328L427.363,35.329L428.086,35.338L428.809,35.321L429.531,35.323L430.254,35.31L430.977,35.307L431.699,35.284L432.422,35.28L433.145,35.28L433.867,35.283L434.59,35.272L435.313,35.26L436.035,35.267L436.758,35.258L437.48,35.243L438.203,35.235L438.926,35.233L439.648,35.224L440.371,35.217L441.094,35.211L441.816,35.215L442.539,35.21L443.262,35.213L443.984,35.2L444.707,35.197L445.43,35.183L446.152,35.197L446.875,35.186L447.598,35.188L448.32,35.182L449.043,35.18L449.766,35.175L450.488,35.175L451.211,35.17L451.934,35.166L452.656,35.163L453.379,35.154L454.102,35.164L454.824,35.155L455.547,35.148L456.27,35.154L456.992,35.152L457.715,35.148L458.438,35.154L459.16,35.142L459.883,35.151L460.605,35.143L461.328,35.14L462.051,35.142L462.773,35.137L463.496,35.136L464.219,35.136L464.941,35.133L465.664,35.132L466.387,35.133L467.109,35.129L467.832,35.129L468.555,35.121L469.277,35.121"/><path fill="none" stroke="rgb(255, 130, 29)" stroke-width="1.5" d="M100,49.988L100.723,49.918L101.445,49.914L102.168,50.214L102.891,50.389L103.613,50.411L104.336,50.36L105.059,50.427L105.781,50.677L106.504,50.747L107.227,50.762L107.949,50.775L108.672,50.872L109.395,50.95L110.117,51.241L110.84,51.142L111.563,51.353L112.285,51.522L113.008,51.475L113.73,51.699L114.453,51.603L115.176,51.707L115.898,51.878L116.621,51.976L117.344,52.003L118.066,52.207L118.789,52.207L119.512,52.344L120.234,52.712L120.957,52.699L121.68,52.893L122.402,52.857L123.125,52.882L123.848,53.102L124.57,53.289L125.293,53.388L126.016,53.447L126.738,53.756L127.461,53.939L128.184,53.987L128.906,53.993L129.629,54.203L130.352,54.319L131.074,54.421L131.797,54.618L132.52,54.862L133.242,54.998L133.965,55.158L134.688,55.373L135.41,55.576L136.133,55.608L136.855,55.857L137.578,56.116L138.301,56.239L139.023,56.206L139.746,56.679L140.469,56.63L141.191,56.919L141.914,57.056L142.637,57.299L143.359,57.648L144.082,57.743L144.805,57.568L145.527,58.132L146.25,58.237L146.973,58.448L147.695,58.671L148.418,59.048L149.141,59.461L149.863,59.374L150.586,59.531L151.309,60.052L152.031,60.194L152.754,60.428L153.477,60.666L154.199,61.004L154.922,61.369L155.645,61.25L156.367,61.736L157.09,61.943L157.813,62.395L158.535,62.622L159.258,62.878L159.98,63.093L160.703,63.467L161.426,63.638L162.148,64.053L162.871,64.567L163.594,64.832L164.316,65.107L165.039,65.253L165.762,65.682L166.484,65.867L167.207,66.486L167.93,66.66L168.652,66.955L169.375,67.711L170.098,67.861L170.82,68.173L171.543,68.512L172.266,69.098L172.988,69.214L173.711,69.692L174.434,70.02L175.156,70.673L175.879,71.2L176.602,71.383L177.324,71.872L178.047,72.356L178.77,72.802L179.492,73.31L180.215,73.709L180.938,74.355L181.66,74.58L182.383,75.159L183.105,75.72L183.828,76.033L184.551,76.738L185.273,77.302L185.996,77.561L186.719,78.285L187.441,78.646L188.164,79.188L188.887,79.835L189.609,80.422L190.332,80.951L191.055,81.549L191.777,82.303L192.5,82.705L193.223,83.444L193.945,84.108L194.668,84.583L195.391,85.224L196.113,85.9L196.836,86.732L197.559,87.258L198.281,88.101L199.004,88.717L199.727,89.398L200.449,90.205L201.172,90.801L201.895,91.329L202.617,92.286L203.34,93.113L204.063,93.913L204.785,94.442L205.508,95.516L206.23,96.483L206.953,97.079L207.676,97.771L208.398,98.689L209.121,99.665L209.844,100.473L210.566,101.321L211.289,102.151L212.012,103.015L212.734,104.242L213.457,105.083L214.18,105.978L214.902,106.966L215.625,108.005L216.348,109.049L217.07,109.869L217.793,110.884L218.516,111.95L219.238,112.874L219.961,114.064L220.684,115.008L221.406,116.174L222.129,117.267L222.852,118.423L223.574,119.563L224.297,120.741L225.02,121.863L225.742,123.028L226.465,124.166L227.188,125.481L227.91,126.378L228.633,127.923L229.355,129.04L230.078,130.45L230.801,131.707L231.523,132.909L232.246,134.415L232.969,135.89L233.691,137.218L234.414,138.529L235.137,139.978L235.859,141.595L236.582,142.824L237.305,144.474L238.027,145.929L238.75,148.565L239.473,151.601L240.195,154.698L240.918,157.761L241.641,160.921L242.363,164.143L243.086,166.608L243.809,168.517L244.531,171.392L245.254,173.454L245.977,175.709L246.699,177.901L247.422,180.11L248.145,182.391L248.867,184.884L249.59,186.819L250.313,189.434L251.035,191.501L251.758,193.728L252.48,196.093L253.203,197.991L253.926,200.233L254.648,201.763L255.371,203.551L256.094,205.781L256.816,207.852L257.539,209.256L258.262,210.521L258.984,211.755L259.707,213.913L260.43,215.285L261.152,216.224L261.875,217.45L262.598,218.6L263.32,219.243L264.043,220.33L264.766,220.949L265.488,221.479L266.211,221.791L266.934,221.961L267.656,222.2L268.379,222.5L269.102,222.414L269.824,221.749L270.547,221.389L271.27,220.878L271.992,219.777L272.715,219.122L273.438,218.036L274.16,216.827L274.883,215.422L275.605,214.257L276.328,212.768L277.051,210.822L277.773,208.22L278.496,205.638L279.219,202.804L279.941,199.896L280.664,195.892L281.387,192.423L282.109,188.468L282.832,184.062L283.555,180.276L284.277,176.242L285,172.192L285.723,167.68L286.445,163.925L287.168,159.889L287.891,155.778L288.613,151.813L289.336,147.89L290.059,143.792L290.781,140.213L291.504,136.167L292.227,132.562L292.949,128.648L293.672,125.061L294.395,121.419L295.117,118.092L295.84,114.269L296.563,110.706L297.285,112.326L298.008,115.781L298.73,119.638L299.453,123.212L300.176,126.852L300.898,130.977L301.621,130.931L302.344,128.791L303.066,126.565L303.789,124.575L304.512,122.149L305.234,120.094L305.957,117.941L306.68,115.981L307.402,113.955L308.125,111.598L308.848,109.283L309.57,107.348L310.293,105.633L311.016,103.772L311.738,101.843L312.461,100.007L313.184,98.184L313.906,96.334L314.629,94.399L315.352,92.954L316.074,91.065L316.797,89.508L317.52,88.058L318.242,86.346L318.965,84.823L319.688,83.181L320.41,81.675L321.133,80.278L321.855,78.969L322.578,77.581L323.301,76.136L324.023,74.998L324.746,73.766L325.469,72.33L326.191,71.295L326.914,70.03L327.637,69.058L328.359,68.025L329.082,66.974L329.805,65.705L330.527,64.911L331.25,63.818L331.973,62.815L332.695,61.963L333.418,61.186L334.141,60.32L334.863,59.341L335.586,58.496L336.309,57.841L337.031,57.012L337.754,56.442L338.477,55.681L339.199,54.939L339.922,54.366L340.645,53.657L341.367,53.137L342.09,52.448L342.813,51.903L343.535,51.211L344.258,50.815L344.98,50.225L345.703,49.701L346.426,49.116L347.148,48.669L347.871,48.191L348.594,47.697L349.316,47.298L350.039,46.895L350.762,46.472L351.484,46.098L352.207,45.778L352.93,45.365L353.652,45.066L354.375,44.607L355.098,44.406L355.82,43.988L356.543,43.726L357.266,43.351L357.988,43.141L358.711,42.893L359.434,42.595L360.156,42.33L360.879,42.036L361.602,41.795L362.324,41.562L363.047,41.393L363.77,41.13L364.492,40.93L365.215,40.733L365.938,40.584L366.66,40.317L367.383,40.174L368.105,40.028L368.828,39.816L369.551,39.696L370.273,39.475L370.996,39.403L371.719,39.203L372.441,39.028L373.164,38.872L373.887,38.798L374.609,38.606L375.332,38.485L376.055,38.409L376.777,38.322L377.5,38.15L378.223,38.079L378.945,37.863L379.668,37.845L380.391,37.717L381.113,37.678L381.836,37.575L382.559,37.51L383.281,37.415L384.004,37.337L384.727,37.213L385.449,37.185L386.172,37.11L386.895,37.016L387.617,36.939L388.34,36.887L389.063,36.827L389.785,36.775L390.508,36.707L391.23,36.647L391.953,36.591L392.676,36.552L393.398,36.481L394.121,36.453L394.844,36.402L395.566,36.34L396.289,36.3L397.012,36.257L397.734,36.213L398.457,36.157L399.18,36.151L399.902,36.068L400.625,36.041L401.348,35.997L402.07,35.986L402.793,35.958L403.516,35.922L404.238,35.864L404.961,35.847L405.684,35.821L406.406,35.827L407.129,35.78L407.852,35.766L408.574,35.711L409.297,35.729L410.02,35.682L410.742,35.644L411.465,35.624L412.188,35.619L412.91,35.605L413.633,35.603L414.355,35.556L415.078,35.523L415.801,35.538L416.523,35.498L417.246,35.498L417.969,35.491L418.691,35.462L419.414,35.449L420.137,35.452L420.859,35.432L421.582,35.424L422.305,35.406L423.027,35.401L423.75,35.39L424.473,35.374L425.195,35.367L425.918,35.37L426.641,35.337L427.363,35.336L428.086,35.331L428.809,35.327L429.531,35.324L430.254,35.307L430.977,35.302L431.699,35.299L432.422,35.28L433.145,35.263L433.867,35.282L434.59,35.255L435.313,35.245L436.035,35.248L436.758,35.248L437.48,35.235L438.203,35.23L438.926,35.237L439.648,35.237L440.371,35.225L441.094,35.211L441.816,35.22L442.539,35.214L443.262,35.208L443.984,35.185L444.707,35.203L445.43,35.186L446.152,35.184L446.875,35.179L447.598,35.184L448.32,35.18L449.043,35.172L449.766,35.173L450.488,35.167L451.211,35.161L451.934,35.167L452.656,35.165L453.379,35.163L454.102,35.155L454.824,35.159L455.547,35.159L456.27,35.15L456.992,35.147L457.715,35.144L458.438,35.145L459.16,35.142L459.883,35.143L460.605,35.139L461.328,35.137L462.051,35.14L462.773,35.136L463.496,35.135L464.219,35.129L464.941,35.132L465.664,35.13L466.387,35.126L467.109,35.128L467.832,35.124L468.555,35.124L469.277,35.123"/><path fill="none" stroke="rgb(203, 47, 13)" stroke-width="1.5" d="M100,49.338L100.723,49.427L101.445,49.528L102.168,49.62L102.891,49.649L103.613,49.854L104.336,49.929L105.059,49.927L105.781,50.157L106.504,50.124L107.227,50.323L107.949,50.142L108.672,50.334L109.395,50.376L110.117,50.366L110.84,50.475L111.563,50.527L112.285,50.598L113.008,50.77L113.73,50.635L114.453,51.024L115.176,51.244L115.898,51.116L116.621,51.242L117.344,51.506L118.066,51.585L118.789,51.513L119.512,51.568L120.234,51.618L120.957,51.872L121.68,51.901L122.402,52.022L123.125,52.06L123.848,52.292L124.57,52.406L125.293,52.443L126.016,52.643L126.738,52.772L127.461,52.787L128.184,52.901L128.906,53.032L129.629,53.436L130.352,53.261L131.074,53.53L131.797,53.562L132.52,53.563L133.242,53.874L133.965,53.972L134.688,54.217L135.41,54.214L136.133,54.699L136.855,54.725L137.578,54.768L138.301,55.036L139.023,54.965L139.746,55.301L140.469,55.329L141.191,55.693L141.914,55.98L142.637,56.057L143.359,56.164L144.082,56.291L144.805,56.604L145.527,56.66L146.25,56.881L146.973,57.143L147.695,57.142L148.418,57.435L149.141,57.618L149.863,57.918L150.586,58.013L151.309,58.121L152.031,58.49L152.754,58.962L153.477,59.046L154.199,59.306L154.922,59.477L155.645,59.733L156.367,60.08L157.09,60.246L157.813,60.596L158.535,60.894L159.258,61.055L159.98,61.44L160.703,61.753L161.426,61.877L162.148,62.151L162.871,62.451L163.594,62.788L164.316,63.022L165.039,63.151L165.762,63.662L166.484,63.858L167.207,64.192L167.93,64.657L168.652,64.977L169.375,65.365L170.098,65.603L170.82,65.865L171.543,66.276L172.266,66.553L172.988,67.102L173.711,67.338L174.434,67.747L175.156,68.207L175.879,68.673L176.602,68.917L177.324,69.31L178.047,69.741L178.77,70.236L179.492,70.483L180.215,70.95L180.938,71.393L181.66,71.934L182.383,72.491L183.105,72.882L183.828,73.594L184.551,73.654L185.273,74.354L185.996,74.644L186.719,75.236L187.441,75.618L188.164,76.251L188.887,77.06L189.609,77.39L190.332,77.776L191.055,78.31L191.777,79.127L192.5,79.592L193.223,80.103L193.945,80.615L194.668,81.233L195.391,81.741L196.113,82.586L196.836,83.147L197.559,83.766L198.281,84.333L199.004,85.152L199.727,85.973L200.449,86.551L201.172,87.346L201.895,87.871L202.617,88.513L203.34,89.304L204.063,90.024L204.785,90.822L205.508,91.412L206.23,92.269L206.953,93.216L207.676,93.899L208.398,94.625L209.121,95.666L209.844,96.381L210.566,97.355L211.289,98.044L212.012,98.973L212.734,99.814L213.457,100.569L214.18,101.523L214.902,102.444L215.625,103.416L216.348,104.299L217.07,105.138L217.793,106.061L218.516,106.922L219.238,108.107L219.961,109.214L220.684,110.057L221.406,111.016L222.129,112.174L222.852,113.12L223.574,114.373L224.297,115.384L225.02,116.528L225.742,117.696L226.465,119.028L227.188,120.004L227.91,121.057L228.633,122.67L229.355,123.803L230.078,124.9L230.801,125.97L231.523,128.801L232.246,131.475L232.969,133.738L233.691,136.53L234.414,139.276L235.137,141.826L235.859,144.167L236.582,146.125L237.305,148.007L238.027,150.149L238.75,152.47L239.473,154.436L240.195,156.681L240.918,158.788L241.641,160.84L242.363,163.186L243.086,165.163L243.809,167.572L244.531,169.544L245.254,171.841L245.977,173.943L246.699,176.317L247.422,178.551L248.145,180.588L248.867,182.802L249.59,185.066L250.313,187.234L251.035,189.202L251.758,191.095L252.48,193.579L253.203,195.519L253.926,197.536L254.648,199.35L255.371,200.916L256.094,202.979L256.816,204.368L257.539,206.316L258.262,208.212L258.984,209.724L259.707,211.006L260.43,212.467L261.152,213.957L261.875,214.63L262.598,216.242L263.32,216.888L264.043,217.954L264.766,218.372L265.488,218.996L266.211,219.201L266.934,219.335L267.656,219.876L268.379,219.736L269.102,219.751L269.824,219.875L270.547,219.392L271.27,218.285L271.992,218.043L272.715,216.932L273.438,215.755L274.16,214.892L274.883,212.968L275.605,211.641L276.328,210.068L277.051,208.683L277.773,206.248L278.496,203.712L279.219,200.852L279.941,197.303L280.664,194.106L281.387,189.981L282.109,185.86L282.832,182.363L283.555,178.302L284.277,173.867L285,169.957L285.723,166.216L286.445,161.971L287.168,157.975L287.891,154.383L288.613,149.981L289.336,146.661L290.059,142.464L290.781,138.353L291.504,134.742L292.227,131.276L292.949,127.205L293.672,123.81L294.395,119.939L295.117,116.147L295.84,113.001L296.563,110.965L297.285,114.506L298.008,118.103L298.73,121.954L299.453,125.353L300.176,129.611L300.898,132.583L301.621,130.877L302.344,128.668L303.066,126.544L303.789,124.118L304.512,122.192L305.234,120.166L305.957,118.117L306.68,115.794L307.402,113.753L308.125,111.559L308.848,109.627L309.57,107.728L310.293,105.451L311.016,103.445L311.738,101.941L312.461,99.985L313.184,98.11L313.906,96.402L314.629,94.632L315.352,92.915L316.074,91.046L316.797,89.514L317.52,87.767L318.242,86.108L318.965,84.745L319.688,83.242L320.41,81.677L321.133,80.26L321.855,78.976L322.578,77.565L323.301,76.174L324.023,74.854L324.746,73.558L325.469,72.396L326.191,71.193L326.914,70.029L327.637,68.881L328.359,67.959L329.082,66.869L329.805,65.636L330.527,64.806L331.25,63.869L331.973,62.765L332.695,61.8L333.418,61.177L334.141,60.095L334.863,59.42L335.586,58.516L336.309,57.829L337.031,57.064L337.754,56.268L338.477,55.614L339.199,54.964L339.922,54.183L340.645,53.59L341.367,52.982L342.09,52.326L342.813,51.799L343.535,51.111L344.258,50.587L344.98,50.11L345.703,49.606L346.426,49.159L347.148,48.655L347.871,48.11L348.594,47.744L349.316,47.236L350.039,46.878L350.762,46.526L351.484,46.076L352.207,45.618L352.93,45.239L353.652,44.951L354.375,44.598L355.098,44.324L355.82,43.973L356.543,43.732L357.266,43.381L357.988,43.12L358.711,42.814L359.434,42.583L360.156,42.298L360.879,41.98L361.602,41.808L362.324,41.508L363.047,41.308L363.77,41.214L364.492,40.917L365.215,40.667L365.938,40.519L366.66,40.325L367.383,40.15L368.105,39.965L368.828,39.821L369.551,39.581L370.273,39.446L370.996,39.288L371.719,39.2L372.441,39.029L373.164,38.894L373.887,38.828L374.609,38.614L375.332,38.485L376.055,38.381L376.777,38.271L377.5,38.177L378.223,38.043L378.945,37.958L379.668,37.87L380.391,37.713L381.113,37.617L381.836,37.554L382.559,37.47L383.281,37.412L384.004,37.317L384.727,37.293L385.449,37.171L386.172,37.082L386.895,37.008L387.617,36.978L388.34,36.874L389.063,36.872L389.785,36.761L390.508,36.679L391.23,36.644L391.953,36.574L392.676,36.539L393.398,36.484L394.121,36.439L394.844,36.353L395.566,36.353L396.289,36.269L397.012,36.284L397.734,36.205L398.457,36.158L399.18,36.134L399.902,36.106L400.625,36.059L401.348,36.008L402.07,35.977L402.793,35.924L403.516,35.904L404.238,35.905L404.961,35.878L405.684,35.804L406.406,35.804L407.129,35.743L407.852,35.741L408.574,35.728L409.297,35.707L410.02,35.657L410.742,35.656L411.465,35.643L412.188,35.588L412.91,35.59L413.633,35.556L414.355,35.542L415.078,35.541L415.801,35.514L416.523,35.509L417.246,35.484L417.969,35.471L418.691,35.467L419.414,35.469L420.137,35.421L420.859,35.426L421.582,35.414L422.305,35.411L423.027,35.397L423.75,35.377L424.473,35.375L425.195,35.356L425.918,35.352L426.641,35.338L427.363,35.322L428.086,35.315L428.809,35.323L429.531,35.313L430.254,35.293L430.977,35.285L431.699,35.289L432.422,35.282L433.145,35.262L433.867,35.273L434.59,35.24L435.313,35.256L436.035,35.249L436.758,35.244L437.48,35.238L438.203,35.224L438.926,35.228L439.648,35.231L440.371,35.214L441.094,35.216L441.816,35.201L442.539,35.209L443.262,35.203L443.984,35.213L444.707,35.183L445.43,35.188L446.152,35.18L446.875,35.181L447.598,35.174L448.32,35.171L449.043,35.179L449.766,35.169L450.488,35.173L451.211,35.163L451.934,35.165L452.656,35.154L453.379,35.158L454.102,35.155L454.824,35.155L455.547,35.148L456.27,35.149L456.992,35.149L457.715,35.138L458.438,35.144L459.16,35.141L459.883,35.14L460.605,35.142L461.328,35.142L462.051,35.136L462.773,35.138L463.496,35.128L464.219,35.131L464.941,35.13L465.664,35.13L466.387,35.126L467.109,35.123L467.832,35.122L468.555,35.129L469.277,35.12"/><g transform="translate(15,190) scale(1.7) rotate(-90)"><text>Drift</text></g><g transform="translate(315,395) scale(1.8)"><text></text></g><g transform="translate(0,350)" fill="none" font-size="10" font-family="sans-serif" text-anchor="middle"><path class="domain" stroke="currentColor" d="M100,6V0H470V6"/><g class="tick" opacity="1" transform="translate(136.96669666966696,0)"><line stroke="currentColor" y2="6"/><text fill="currentColor" y="9" dy="0.71em" font-size="20px"> </text></g><g class="tick" opacity="1" transform="translate(173.97039703970398,0)"><line stroke="currentColor" y2="6"/><text fill="currentColor" y="9" dy="0.71em" font-size="20px">20</text></g><g class="tick" opacity="1" transform="translate(210.97409740974098,0)"><line stroke="currentColor" y2="6"/><text fill="currentColor" y="9" dy="0.71em" font-size="20px"> </text></g><g class="tick" opacity="1" transform="translate(247.97779777977803,0)"><line stroke="currentColor" y2="6"/><text fill="currentColor" y="9" dy="0.71em" font-size="20px">40</text></g><g class="tick" opacity="1" transform="translate(284.981498149815,0)"><line stroke="currentColor" y2="6"/><text fill="currentColor" y="9" dy="0.71em" font-size="20px"> </text></g><g class="tick" opacity="1" transform="translate(321.985198519852,0)"><line stroke="currentColor" y2="6"/><text fill="currentColor" y="9" dy="0.71em" font-size="20px">60</text></g><g class="tick" opacity="1" transform="translate(358.988898889889,0)"><line stroke="currentColor" y2="6"/><text fill="currentColor" y="9" dy="0.71em" font-size="20px"> </text></g><g class="tick" opacity="1" transform="translate(395.992599259926,0)"><line stroke="currentColor" y2="6"/><text fill="currentColor" y="9" dy="0.71em" font-size="20px">80</text></g><g class="tick" opacity="1" transform="translate(432.996299629963,0)"><line stroke="currentColor" y2="6"/><text fill="currentColor" y="9" dy="0.71em" font-size="20px"> </text></g><g class="tick" opacity="1" transform="translate(470,0)"><line stroke="currentColor" y2="6"/><text fill="currentColor" y="9" dy="0.71em" font-size="20px">100</text></g></g><g transform="translate(100,0)" fill="none" font-size="10" font-family="sans-serif" text-anchor="end"><path class="domain" stroke="currentColor" d="M-6,350H0V20H-6"/><g class="tick" opacity="1" transform="translate(0,326.33844884486786)"><line stroke="currentColor" x2="-6"/><text fill="currentColor" x="-9" dy="0.32em" font-size="20px">0.24</text></g><g class="tick" opacity="1" transform="translate(0,300.25700115769763)"><line stroke="currentColor" x2="-6"/><text fill="currentColor" x="-9" dy="0.32em" font-size="20px">0.22</text></g><g class="tick" opacity="1" transform="translate(0,274.1755534705274)"><line stroke="currentColor" x2="-6"/><text fill="currentColor" x="-9" dy="0.32em" font-size="20px">0.20</text></g><g class="tick" opacity="1" transform="translate(0,248.09410578335712)"><line stroke="currentColor" x2="-6"/><text fill="currentColor" x="-9" dy="0.32em" font-size="20px">0.18</text></g><g class="tick" opacity="1" transform="translate(0,222.01265809618693)"><line stroke="currentColor" x2="-6"/><text fill="currentColor" x="-9" dy="0.32em" font-size="20px">0.16</text></g><g class="tick" opacity="1" transform="translate(0,195.93121040901673)"><line stroke="currentColor" x2="-6"/><text fill="currentColor" x="-9" dy="0.32em" font-size="20px">0.14</text></g><g class="tick" opacity="1" transform="translate(0,169.84976272184645)"><line stroke="currentColor" x2="-6"/><text fill="currentColor" x="-9" dy="0.32em" font-size="20px">0.12</text></g><g class="tick" opacity="1" transform="translate(0,143.76831503467622)"><line stroke="currentColor" x2="-6"/><text fill="currentColor" x="-9" dy="0.32em" font-size="20px">0.10</text></g><g class="tick" opacity="1" transform="translate(0,117.68686734750602)"><line stroke="currentColor" x2="-6"/><text fill="currentColor" x="-9" dy="0.32em" font-size="20px">0.08</text></g><g class="tick" opacity="1" transform="translate(0,91.60541966033574)"><line stroke="currentColor" x2="-6"/><text fill="currentColor" x="-9" dy="0.32em" font-size="20px">0.06</text></g><g class="tick" opacity="1" transform="translate(0,65.52397197316553)"><line stroke="currentColor" x2="-6"/><text fill="currentColor" x="-9" dy="0.32em" font-size="20px">0.04</text></g><g class="tick" opacity="1" transform="translate(0,39.44252428599529)"><line stroke="currentColor" x2="-6"/><text fill="currentColor" x="-9" dy="0.32em" font-size="20px">0.02</text></g></g><circle cx="355" cy="150" r="8" style="fill: rgb(35, 23, 27);"/><circle cx="355" cy="175" r="8" style="fill: rgb(69, 105, 238);"/><circle cx="355" cy="200" r="8" style="fill: rgb(38, 188, 225);"/><circle cx="355" cy="225" r="8" style="fill: rgb(63, 243, 147);"/><circle cx="355" cy="250" r="8" style="fill: rgb(149, 251, 81);"/><circle cx="355" cy="275" r="8" style="fill: rgb(236, 209, 46);"/><circle cx="355" cy="300" r="8" style="fill: rgb(255, 130, 29);"/><circle cx="355" cy="325" r="8" style="fill: rgb(203, 47, 13);"/><text x="370" y="150" text-anchor="left" font-size="22" alignment-baseline="middle" style="fill: rgb(35, 23, 27);"> = 0</text><text x="370" y="175" text-anchor="left" font-size="22" alignment-baseline="middle" style="fill: rgb(69, 105, 238);"> = 0.22</text><text x="370" y="200" text-anchor="left" font-size="22" alignment-baseline="middle" style="fill: rgb(38, 188, 225);"> = 0.45</text><text x="370" y="225" text-anchor="left" font-size="22" alignment-baseline="middle" style="fill: rgb(63, 243, 147);"> = 0.67</text><text x="370" y="250" text-anchor="left" font-size="22" alignment-baseline="middle" style="fill: rgb(149, 251, 81);"> = 0.9</text><text x="370" y="275" text-anchor="left" font-size="22" alignment-baseline="middle" style="fill: rgb(236, 209, 46);"> = 1.12</text><text x="370" y="300" text-anchor="left" font-size="22" alignment-baseline="middle" style="fill: rgb(255, 130, 29);"> = 1.35</text><text x="370" y="325" text-anchor="left" font-size="22" alignment-baseline="middle" style="fill: rgb(203, 47, 13);"> = 1.57</text></svg>