<svg xmlns="http://www.w3.org/2000/svg" class="bg-white" width="500" height="400" viewBox="-10 -1 500 400"><path fill="none" stroke="rgb(35, 23, 27)" stroke-width="1.5" d="M100,64.369L100.723,64.665L101.445,64.519L102.168,64.738L102.891,64.827L103.613,64.955L104.336,65.191L105.059,65.112L105.781,65.355L106.504,65.428L107.227,65.537L107.949,65.904L108.672,65.847L109.395,66.076L110.117,66.197L110.84,66.475L111.563,66.521L112.285,66.65L113.008,66.826L113.73,67.022L114.453,67.085L115.176,67.323L115.898,67.558L116.621,67.706L117.344,67.845L118.066,68.052L118.789,68.226L119.512,68.386L120.234,68.592L120.957,68.738L121.68,68.993L122.402,69.188L123.125,69.465L123.848,69.863L124.57,69.97L125.293,69.978L126.016,70.39L126.738,70.503L127.461,70.825L128.184,71.074L128.906,71.348L129.629,71.495L130.352,71.64L131.074,72.059L131.797,72.382L132.52,72.548L133.242,72.759L133.965,73.198L134.688,73.419L135.41,73.598L136.133,73.917L136.855,74.264L137.578,74.558L138.301,74.851L139.023,75.273L139.746,75.58L140.469,75.876L141.191,76.104L141.914,76.425L142.637,76.639L143.359,77.215L144.082,77.515L144.805,77.973L145.527,78.164L146.25,78.678L146.973,79.181L147.695,79.565L148.418,79.759L149.141,80.22L149.863,80.565L150.586,80.873L151.309,81.54L152.031,81.953L152.754,82.399L153.477,82.89L154.199,83.28L154.922,84.011L155.645,84.272L156.367,84.827L157.09,85.348L157.813,85.891L158.535,86.426L159.258,86.996L159.98,87.56L160.703,88.193L161.426,88.553L162.148,89.317L162.871,89.851L163.594,90.521L164.316,91.08L165.039,91.711L165.762,92.238L166.484,92.984L167.207,93.645L167.93,94.466L168.652,95.131L169.375,95.87L170.098,96.466L170.82,97.194L171.543,98.075L172.266,98.782L172.988,99.661L173.711,100.487L174.434,101.169L175.156,102.116L175.879,103L176.602,103.934L177.324,104.686L178.047,105.754L178.77,106.535L179.492,107.76L180.215,108.782L180.938,109.549L181.66,110.712L182.383,111.81L183.105,112.865L183.828,113.958L184.551,115.124L185.273,116.457L185.996,117.448L186.719,118.649L187.441,120.08L188.164,121.219L188.887,122.474L189.609,123.751L190.332,125.266L191.055,126.483L191.777,127.837L192.5,129.512L193.223,130.867L193.945,132.48L194.668,134.049L195.391,135.453L196.113,137.381L196.836,138.93L197.559,140.662L198.281,142.397L199.004,144.227L199.727,146.141L200.449,148.119L201.172,150.152L201.895,152.143L202.617,154.282L203.34,156.38L204.063,158.609L204.785,161.1L205.508,163.332L206.23,165.909L206.953,168.157L207.676,170.974L208.398,173.784L209.121,176.121L209.844,178.952L210.566,181.886L211.289,184.824L212.012,188.069L212.734,191.307L213.457,194.472L214.18,197.763L214.902,201.161L215.625,204.783L216.348,208.179L217.07,212.072L217.793,215.753L218.516,219.569L219.238,223.544L219.961,227.544L220.684,231.821L221.406,235.843L222.129,239.842L222.852,244.3L223.574,248.304L224.297,252.74L225.02,257.235L225.742,261.651L226.465,265.789L227.188,270.206L227.91,274.822L228.633,278.987L229.355,283.102L230.078,287.447L230.801,291.861L231.523,295.793L232.246,299.83L232.969,303.871L233.691,307.831L234.414,311.389L235.137,315.084L235.859,318.767L236.582,322.217L237.305,325.133L238.027,328.264L238.75,331.207L239.473,333.904L240.195,336.456L240.918,338.538L241.641,340.819L242.363,342.692L243.086,344.351L243.809,345.73L244.531,347.24L245.254,348.091L245.977,348.872L246.699,349.355L247.422,349.832L248.145,350L248.867,349.745L249.59,349.458L250.313,348.886L251.035,348.188L251.758,347.006L252.48,345.875L253.203,344.519L253.926,342.843L254.648,341.072L255.371,339.01L256.094,335.995L256.816,333.826L257.539,331.729L258.262,328.396L258.984,325.785L259.707,322.445L260.43,319.496L261.152,316.078L261.875,312.27L262.598,308.786L263.32,304.921L264.043,300.975L264.766,296.689L265.488,292.453L266.211,288.217L266.934,283.744L267.656,279.25L268.379,274.845L269.102,270.052L269.824,265.249L270.547,260.201L271.27,255.265L271.992,250.303L272.715,245.196L273.438,239.848L274.16,234.549L274.883,229.362L275.605,224.062L276.328,218.492L277.051,213.056L277.773,207.56L278.496,202.055L279.219,196.35L279.941,190.597L280.664,184.991L281.387,179.259L282.109,173.446L282.832,167.449L283.555,161.59L284.277,155.67L285,150.085L285.723,144.314L286.445,138.965L287.168,133.521L287.891,128.345L288.613,123.363L289.336,118.101L290.059,113.266L290.781,108.814L291.504,104.165L292.227,99.42L292.949,95.312L293.672,91.034L294.395,86.79L295.117,82.848L295.84,79.118L296.563,75.365L297.285,71.772L298.008,68.421L298.73,64.621L299.453,61.674L300.176,58.41L300.898,55.306L301.621,52.44L302.344,49.649L303.066,50.695L303.789,52.506L304.512,54.691L305.234,56.856L305.957,59.216L306.68,61.552L307.402,61.752L308.125,60.29L308.848,58.929L309.57,57.541L310.293,56.298L311.016,55.034L311.738,53.493L312.461,52.473L313.184,51.458L313.906,50.164L314.629,49.317L315.352,48.136L316.074,47.343L316.797,46.347L317.52,45.247L318.242,44.542L318.965,43.461L319.688,42.844L320.41,41.685L321.133,41.276L321.855,40.431L322.578,39.588L323.301,39.05L324.023,38.376L324.746,37.741L325.469,37.285L326.191,36.597L326.914,35.938L327.637,35.394L328.359,34.716L329.082,34.469L329.805,33.925L330.527,33.46L331.25,32.875L331.973,32.245L332.695,32.109L333.418,31.69L334.141,31.478L334.863,30.548L335.586,30.465L336.309,30.215L337.031,29.864L337.754,29.383L338.477,29.246L339.199,28.694L339.922,28.664L340.645,28.131L341.367,28.083L342.09,27.65L342.813,27.347L343.535,27.393L344.258,26.793L344.98,26.747L345.703,26.705L346.426,26.465L347.148,26.269L347.871,26.077L348.594,25.451L349.316,25.23L350.039,25.614L350.762,25.442L351.484,25.061L352.207,24.955L352.93,24.64L353.652,24.556L354.375,24.873L355.098,23.781L355.82,24.193L356.543,24.182L357.266,24.166L357.988,23.786L358.711,23.504L359.434,23.763L360.156,23.336L360.879,23.614L361.602,23.43L362.324,23.517L363.047,22.758L363.77,23.408L364.492,22.905L365.215,22.721L365.938,22.652L366.66,22.333L367.383,22.823L368.105,22.594L368.828,22.576L369.551,22.675L370.273,22.913L370.996,22.412L371.719,22.488L372.441,22.503L373.164,22.607L373.887,22.306L374.609,23.172L375.332,22.791L376.055,22.13L376.777,21.656L377.5,21.405L378.223,21.686L378.945,22.278L379.668,21.676L380.391,21.736L381.113,22.008L381.836,21.776L382.559,21.894L383.281,21.618L384.004,21.299L384.727,22.455L385.449,22.049L386.172,22.431L386.895,21.983L387.617,22.542L388.34,23.312L389.063,22.45L389.785,22.062L390.508,22.228L391.23,21.991L391.953,23.336L392.676,22.55L393.398,22.548L394.121,22.998L394.844,22.825L395.566,22.58L396.289,22.57L397.012,22.39L397.734,22.751L398.457,22.645L399.18,23.028L399.902,21.732L400.625,25.026L401.348,24.728L402.07,24.012L402.793,24.146L403.516,23.387L404.238,24.263L404.961,25.656L405.684,26.035L406.406,27.007L407.129,26.477L407.852,28.526L408.574,26.997L409.297,30.5L410.02,29.281L410.742,26.163L411.465,27.966L412.188,27.334L412.91,30.057L413.633,29.781L414.355,30.999L415.078,32.625L415.801,34.192L416.523,33.315L417.246,33.643L417.969,33.993L418.691,38.081L419.414,33.755L420.137,36.253L420.859,36.177L421.582,34.955L422.305,36.612L423.027,35.444L423.75,37.754L424.473,37.816L425.195,36.194L425.918,35.46L426.641,36.259L427.363,37.383L428.086,36.302L428.809,35.149L429.531,33.542L430.254,33.875L430.977,32.948L431.699,33.349L432.422,33.471L433.145,31.454L433.867,30.799L434.59,31.951L435.313,29.972L436.035,30.106L436.758,29.469L437.48,29.324L438.203,29.987L438.926,28.288L439.648,27.424L440.371,28.642L441.094,26.058L441.816,27.432L442.539,26.944L443.262,26.587L443.984,26.792L444.707,25.724L445.43,25.983L446.152,25.501L446.875,24.897L447.598,24.625L448.32,24.481L449.043,24.571L449.766,24.004L450.488,23.986L451.211,23.312L451.934,22.607L452.656,23.592L453.379,22.371L454.102,22.74L454.824,22.814L455.547,22.868L456.27,22.79L456.992,22.369L457.715,22.284L458.438,21.871L459.16,22.195L459.883,21.988L460.605,21.718L461.328,21.545L462.051,21.901L462.773,21.82L463.496,21.498L464.219,21.626L464.941,21.59L465.664,21.547L466.387,21.165L467.109,21.244L467.832,21.391L468.555,20.97L469.277,21.029"/><path fill="none" stroke="rgb(69, 105, 238)" stroke-width="1.5" d="M100,64.156L100.723,64.118L101.445,64.289L102.168,64.576L102.891,64.673L103.613,64.839L104.336,64.907L105.059,65.034L105.781,65.042L106.504,65.206L107.227,65.351L107.949,65.533L108.672,65.744L109.395,65.922L110.117,65.894L110.84,66.087L111.563,66.221L112.285,66.377L113.008,66.545L113.73,66.673L114.453,66.917L115.176,66.951L115.898,67.077L116.621,67.297L117.344,67.534L118.066,67.693L118.789,67.912L119.512,68.182L120.234,68.298L120.957,68.578L121.68,68.755L122.402,68.869L123.125,68.982L123.848,69.209L124.57,69.577L125.293,69.666L126.016,70.063L126.738,70.242L127.461,70.388L128.184,70.578L128.906,70.785L129.629,71.111L130.352,71.323L131.074,71.645L131.797,71.744L132.52,72.079L133.242,72.426L133.965,72.683L134.688,72.862L135.41,73.175L136.133,73.417L136.855,73.594L137.578,73.996L138.301,74.362L139.023,74.609L139.746,75.068L140.469,75.364L141.191,75.713L141.914,75.988L142.637,76.25L143.359,76.57L144.082,77.159L144.805,77.299L145.527,77.772L146.25,78.096L146.973,78.413L147.695,78.798L148.418,79.184L149.141,79.642L149.863,79.924L150.586,80.49L151.309,80.943L152.031,81.34L152.754,81.832L153.477,82.166L154.199,82.718L154.922,83.134L155.645,83.531L156.367,84.061L157.09,84.549L157.813,85.005L158.535,85.635L159.258,86.161L159.98,86.716L160.703,87.335L161.426,87.783L162.148,88.339L162.871,88.826L163.594,89.61L164.316,90.128L165.039,90.749L165.762,91.51L166.484,92.121L167.207,92.645L167.93,93.41L168.652,94.032L169.375,94.775L170.098,95.55L170.82,96.278L171.543,96.944L172.266,97.739L172.988,98.494L173.711,99.28L174.434,100.155L175.156,100.853L175.879,101.647L176.602,102.663L177.324,103.512L178.047,104.386L178.77,105.211L179.492,106.242L180.215,107.169L180.938,107.982L181.66,109.175L182.383,110.348L183.105,111.35L183.828,112.388L184.551,113.446L185.273,114.659L185.996,115.651L186.719,116.823L187.441,117.888L188.164,119.208L188.887,120.449L189.609,121.585L190.332,123.042L191.055,124.42L191.777,125.696L192.5,127.128L193.223,128.496L193.945,130.196L194.668,131.396L195.391,133.159L196.113,134.548L196.836,136.288L197.559,137.868L198.281,139.491L199.004,141.144L199.727,143.07L200.449,144.826L201.172,146.482L201.895,148.423L202.617,150.536L203.34,152.489L204.063,154.561L204.785,156.559L205.508,158.599L206.23,160.877L206.953,163.146L207.676,165.26L208.398,167.751L209.121,170.323L209.844,172.552L210.566,175.26L211.289,177.838L212.012,180.511L212.734,183.064L213.457,185.906L214.18,188.749L214.902,191.793L215.625,194.681L216.348,197.652L217.07,200.946L217.793,203.948L218.516,206.972L219.238,210.282L219.961,213.796L220.684,217.064L221.406,220.258L222.129,223.544L222.852,227.286L223.574,230.756L224.297,233.935L225.02,237.867L225.742,241.329L226.465,244.891L227.188,248.212L227.91,251.993L228.633,255.576L229.355,258.774L230.078,262.653L230.801,266.024L231.523,269.401L232.246,273.191L232.969,276.23L233.691,279.316L234.414,282.464L235.137,285.328L235.859,288.703L236.582,291.47L237.305,293.931L238.027,296.845L238.75,299.404L239.473,301.926L240.195,303.844L240.918,305.615L241.641,307.66L242.363,309.642L243.086,311.11L243.809,312.409L244.531,313.637L245.254,315.162L245.977,315.748L246.699,316.139L247.422,316.589L248.145,316.63L248.867,316.995L249.59,316.641L250.313,316.567L251.035,316.209L251.758,315.562L252.48,314.47L253.203,313.601L253.926,312.129L254.648,311.42L255.371,309.343L256.094,307.537L256.816,305.909L257.539,303.565L258.262,301.222L258.984,298.715L259.707,295.919L260.43,293.331L261.152,290.58L261.875,287.185L262.598,284.45L263.32,281.312L264.043,277.723L264.766,274.348L265.488,270.439L266.211,266.773L266.934,262.946L267.656,259.135L268.379,255.166L269.102,250.889L269.824,246.419L270.547,242.568L271.27,238.101L271.992,234.113L272.715,229.08L273.438,224.22L274.16,219.98L274.883,215.23L275.605,210.773L276.328,205.464L277.051,200.349L277.773,196.168L278.496,190.876L279.219,186.083L279.941,180.969L280.664,176.348L281.387,170.548L282.109,165.403L282.832,160.235L283.555,155.319L284.277,149.332L285,144.311L285.723,139.305L286.445,134.668L287.168,129.422L287.891,124.293L288.613,119.632L289.336,115.029L290.059,110.496L290.781,106.545L291.504,101.906L292.227,97.848L292.949,94.021L293.672,89.856L294.395,86.045L295.117,82.32L295.84,78.562L296.563,75.316L297.285,71.533L298.008,68.36L298.73,65.235L299.453,62.157L300.176,59.073L300.898,56.364L301.621,53.486L302.344,53.629L303.066,55.731L303.789,57.832L304.512,59.695L305.234,62.239L305.957,64.776L306.68,65.095L307.402,63.628L308.125,62.194L308.848,60.776L309.57,59.539L310.293,58.234L311.016,57.015L311.738,55.785L312.461,54.491L313.184,53.283L313.906,51.983L314.629,50.795L315.352,49.879L316.074,48.956L316.797,47.904L317.52,46.911L318.242,46.146L318.965,45.164L319.688,44.382L320.41,43.26L321.133,42.769L321.855,41.898L322.578,41.072L323.301,40.677L324.023,39.746L324.746,39.369L325.469,38.334L326.191,38.083L326.914,37.385L327.637,36.682L328.359,35.981L329.082,35.774L329.805,34.904L330.527,34.489L331.25,34.148L331.973,33.154L332.695,33.016L333.418,32.512L334.141,32.652L334.863,31.981L335.586,31.304L336.309,31.05L337.031,30.661L337.754,30.35L338.477,29.507L339.199,29.532L339.922,29.603L340.645,29.017L341.367,28.937L342.09,27.954L342.813,28.131L343.535,27.583L344.258,27.118L344.98,27.299L345.703,27.133L346.426,27.321L347.148,26.914L347.871,26.179L348.594,26.015L349.316,26.285L350.039,25.81L350.762,25.707L351.484,25.129L352.207,25.243L352.93,25.141L353.652,24.522L354.375,24.175L355.098,24.026L355.82,24.442L356.543,25.117L357.266,23.848L357.988,24.73L358.711,24.901L359.434,23.564L360.156,23.647L360.879,23.439L361.602,24.266L362.324,23.263L363.047,23.023L363.77,23.484L364.492,22.733L365.215,24.217L365.938,23.271L366.66,23.468L367.383,22.854L368.105,22.798L368.828,22.688L369.551,23.336L370.273,22.161L370.996,21.779L371.719,22.997L372.441,21.618L373.164,22.551L373.887,22.476L374.609,21.451L375.332,21.637L376.055,21.415L376.777,23.244L377.5,22.815L378.223,22.965L378.945,22.077L379.668,22.386L380.391,22.033L381.113,21.814L381.836,21.522L382.559,22.343L383.281,21.39L384.004,22.018L384.727,23.241L385.449,21.489L386.172,24.117L386.895,21.742L387.617,22.338L388.34,21.817L389.063,21.62L389.785,23.626L390.508,20.716L391.23,22.978L391.953,22.011L392.676,22.304L393.398,21.726L394.121,21.805L394.844,21.613L395.566,22.494L396.289,23.159L397.012,22.369L397.734,22.989L398.457,22.421L399.18,23.557L399.902,21.531L400.625,23.438L401.348,23.147L402.07,22.684L402.793,25.202L403.516,26.259L404.238,26.003L404.961,23.673L405.684,25.766L406.406,25.264L407.129,24.539L407.852,26.029L408.574,27.355L409.297,26.881L410.02,28.757L410.742,28.153L411.465,28.497L412.188,28.811L412.91,28.757L413.633,31.415L414.355,28.623L415.078,28.699L415.801,30.961L416.523,30.279L417.246,32.492L417.969,34.521L418.691,32.271L419.414,34.913L420.137,33.282L420.859,33.898L421.582,32.255L422.305,32.881L423.027,35.085L423.75,33.224L424.473,34.816L425.195,35.307L425.918,33.194L426.641,34.745L427.363,32.9L428.086,35.408L428.809,34.58L429.531,31.949L430.254,32.413L430.977,32.182L431.699,31.277L432.422,30.794L433.145,31.036L433.867,30.769L434.59,31.665L435.313,30.464L436.035,29.706L436.758,29.604L437.48,28.219L438.203,27.006L438.926,27.65L439.648,28.694L440.371,26.761L441.094,26.692L441.816,26.471L442.539,26.459L443.262,26.121L443.984,26.12L444.707,25.859L445.43,25.576L446.152,24.107L446.875,24.551L447.598,24.038L448.32,24.249L449.043,23.833L449.766,23.505L450.488,22.652L451.211,22.977L451.934,23.14L452.656,22.786L453.379,22.59L454.102,22.494L454.824,22.806L455.547,22.546L456.27,22.209L456.992,21.974L457.715,22.014L458.438,21.617L459.16,21.56L459.883,21.754L460.605,21.872L461.328,21.319L462.051,21.646L462.773,21.402L463.496,21.524L464.219,21.358L464.941,21.606L465.664,21.382L466.387,21.307L467.109,21.355L467.832,21.092L468.555,21.184L469.277,21.159"/><path fill="none" stroke="rgb(38, 188, 225)" stroke-width="1.5" d="M100,63.232L100.723,63.351L101.445,63.438L102.168,63.479L102.891,63.769L103.613,63.705L104.336,63.997L105.059,64.04L105.781,64.017L106.504,64.394L107.227,64.515L107.949,64.662L108.672,64.721L109.395,64.743L110.117,64.95L110.84,65.061L111.563,65.277L112.285,65.354L113.008,65.608L113.73,65.782L114.453,65.844L115.176,65.948L115.898,66.209L116.621,66.336L117.344,66.386L118.066,66.488L118.789,66.747L119.512,66.963L120.234,67.134L120.957,67.391L121.68,67.652L122.402,67.768L123.125,67.823L123.848,68.033L124.57,68.364L125.293,68.471L126.016,68.67L126.738,68.873L127.461,69.161L128.184,69.294L128.906,69.641L129.629,69.753L130.352,70.022L131.074,70.124L131.797,70.376L132.52,70.734L133.242,71.009L133.965,71.142L134.688,71.427L135.41,71.695L136.133,71.942L136.855,72.188L137.578,72.467L138.301,72.82L139.023,73.122L139.746,73.427L140.469,73.513L141.191,73.983L141.914,74.414L142.637,74.629L143.359,74.918L144.082,75.296L144.805,75.547L145.527,75.875L146.25,76.098L146.973,76.614L147.695,76.881L148.418,77.311L149.141,77.691L149.863,78.065L150.586,78.519L151.309,78.888L152.031,79.376L152.754,79.553L153.477,79.897L154.199,80.614L154.922,80.839L155.645,81.376L156.367,81.823L157.09,82.303L157.813,82.796L158.535,83.243L159.258,83.764L159.98,84.364L160.703,84.773L161.426,85.231L162.148,85.724L162.871,86.276L163.594,86.786L164.316,87.318L165.039,87.9L165.762,88.452L166.484,89.117L167.207,89.749L167.93,90.268L168.652,90.937L169.375,91.391L170.098,92.318L170.82,92.869L171.543,93.65L172.266,94.261L172.988,94.791L173.711,95.651L174.434,96.475L175.156,97.201L175.879,98.067L176.602,98.585L177.324,99.53L178.047,100.151L178.77,101.226L179.492,101.773L180.215,102.625L180.938,103.712L181.66,104.38L182.383,105.541L183.105,106.366L183.828,107.362L184.551,108.292L185.273,109.084L185.996,110.343L186.719,111.356L187.441,112.259L188.164,113.49L188.887,114.603L189.609,115.588L190.332,116.582L191.055,117.939L191.777,119.161L192.5,120.177L193.223,121.436L193.945,122.791L194.668,123.87L195.391,125.323L196.113,126.676L196.836,127.939L197.559,129.371L198.281,130.476L199.004,132.196L199.727,133.757L200.449,135.102L201.172,136.663L201.895,138.168L202.617,139.817L203.34,141.418L204.063,142.942L204.785,144.574L205.508,146.317L206.23,148.134L206.953,149.761L207.676,151.575L208.398,153.214L209.121,155.157L209.844,156.913L210.566,158.646L211.289,160.853L212.012,162.762L212.734,164.794L213.457,166.749L214.18,168.639L214.902,170.701L215.625,172.615L216.348,174.86L217.07,176.993L217.793,178.851L218.516,181.263L219.238,183.313L219.961,185.439L220.684,187.581L221.406,189.809L222.129,191.911L222.852,193.829L223.574,196.316L224.297,198.591L225.02,200.734L225.742,202.63L226.465,204.941L227.188,207.08L227.91,209.103L228.633,211.252L229.355,213.096L230.078,215.328L230.801,217.244L231.523,219.359L232.246,220.976L232.969,222.814L233.691,224.893L234.414,226.503L235.137,228.279L235.859,230.204L236.582,231.931L237.305,233.573L238.027,234.886L238.75,235.91L239.473,237.618L240.195,238.913L240.918,239.593L241.641,240.995L242.363,242.124L243.086,242.814L243.809,243.806L244.531,244.439L245.254,245.131L245.977,245.46L246.699,245.842L247.422,246.448L248.145,246.473L248.867,246.545L249.59,246.437L250.313,246.284L251.035,246.378L251.758,245.849L252.48,245.34L253.203,244.593L253.926,244.083L254.648,243.309L255.371,242.411L256.094,241.228L256.816,240.234L257.539,238.897L258.262,237.906L258.984,236.177L259.707,233.986L260.43,232.488L261.152,231.565L261.875,228.96L262.598,227.234L263.32,225.52L264.043,222.929L264.766,220.997L265.488,218.482L266.211,216.134L266.934,213.888L267.656,210.814L268.379,208.305L269.102,205.659L269.824,202.614L270.547,199.314L271.27,196.935L271.992,193.514L272.715,190.489L273.438,187.321L274.16,183.937L274.883,180.92L275.605,177.331L276.328,174.199L277.051,170.576L277.773,166.988L278.496,163.206L279.219,159.911L279.941,156.402L280.664,152.268L281.387,148.971L282.109,145.122L282.832,140.944L283.555,137.242L284.277,133.14L285,129.117L285.723,125.145L286.445,121.512L287.168,117.764L287.891,113.833L288.613,110.132L289.336,106.446L290.059,102.683L290.781,99.372L291.504,95.853L292.227,92.539L292.949,89.103L293.672,85.934L294.395,82.653L295.117,79.294L295.84,76.5L296.563,73.318L297.285,70.562L298.008,67.489L298.73,64.777L299.453,61.751L300.176,61.584L300.898,64.039L301.621,65.999L302.344,68.08L303.066,70.57L303.789,73.075L304.512,73.517L305.234,72.112L305.957,70.428L306.68,69.357L307.402,67.526L308.125,66.143L308.848,64.797L309.57,63.598L310.293,62.174L311.016,60.927L311.738,59.577L312.461,58.346L313.184,57.332L313.906,55.984L314.629,55.094L315.352,53.839L316.074,52.723L316.797,51.748L317.52,50.735L318.242,49.407L318.965,48.688L319.688,47.627L320.41,46.73L321.133,45.801L321.855,44.929L322.578,44.461L323.301,43.614L324.023,42.864L324.746,41.93L325.469,41.369L326.191,40.542L326.914,39.738L327.637,39.104L328.359,38.516L329.082,38.18L329.805,37.297L330.527,36.743L331.25,36.446L331.973,35.93L332.695,35.112L333.418,34.791L334.141,34.167L334.863,33.931L335.586,33.483L336.309,32.767L337.031,32.459L337.754,31.917L338.477,31.568L339.199,31.169L339.922,31.016L340.645,30.734L341.367,30.155L342.09,30.03L342.813,29.628L343.535,29.091L344.258,28.462L344.98,28.528L345.703,28.862L346.426,28.132L347.148,27.874L347.871,27.527L348.594,27.242L349.316,28.021L350.039,26.839L350.762,27.139L351.484,26.618L352.207,25.656L352.93,26.62L353.652,25.414L354.375,26.383L355.098,25.278L355.82,25.059L356.543,25.663L357.266,25.038L357.988,25.079L358.711,24.395L359.434,24.458L360.156,24.849L360.879,24.305L361.602,24.323L362.324,24.48L363.047,24.121L363.77,23.41L364.492,23.667L365.215,23.526L365.938,23.052L366.66,23.343L367.383,23.62L368.105,22.793L368.828,23.434L369.551,22.568L370.273,23.543L370.996,22.321L371.719,22.768L372.441,23.215L373.164,22.43L373.887,22.842L374.609,21.173L375.332,22.554L376.055,21.993L376.777,23.079L377.5,21.814L378.223,22.532L378.945,22.572L379.668,24.149L380.391,22.397L381.113,22.497L381.836,22.356L382.559,22.426L383.281,21.928L384.004,22.182L384.727,22.878L385.449,21.201L386.172,22.504L386.895,21.965L387.617,21.017L388.34,22.213L389.063,22.667L389.785,22.502L390.508,20L391.23,22.651L391.953,23.107L392.676,21.912L393.398,21.851L394.121,22.188L394.844,22.769L395.566,22.826L396.289,21.261L397.012,22.424L397.734,22.772L398.457,22.053L399.18,20.963L399.902,22.031L400.625,22.136L401.348,21.696L402.07,23.842L402.793,22.712L403.516,24.697L404.238,24.798L404.961,26.319L405.684,24.158L406.406,22.587L407.129,22.602L407.852,25.59L408.574,24.583L409.297,22.336L410.02,25.301L410.742,22.72L411.465,25.743L412.188,25.011L412.91,24.03L413.633,24.875L414.355,25.496L415.078,28.795L415.801,26.99L416.523,27.035L417.246,27.769L417.969,26.129L418.691,29.322L419.414,28.082L420.137,26.285L420.859,29.755L421.582,27.47L422.305,28.108L423.027,30.392L423.75,28.214L424.473,28.902L425.195,28.599L425.918,29.674L426.641,29.69L427.363,28.545L428.086,29.196L428.809,27.744L429.531,30.318L430.254,28.463L430.977,28.367L431.699,27.792L432.422,27.601L433.145,27.154L433.867,25.899L434.59,26.733L435.313,27.124L436.035,28.373L436.758,26.395L437.48,26.298L438.203,26.492L438.926,26.171L439.648,25.828L440.371,25.833L441.094,25.437L441.816,24.786L442.539,24.493L443.262,23.935L443.984,24.134L444.707,24.862L445.43,22.886L446.152,23.158L446.875,23.861L447.598,23.447L448.32,22.832L449.043,23.536L449.766,22.743L450.488,22.745L451.211,22.502L451.934,22.261L452.656,21.762L453.379,22.495L454.102,22.089L454.824,21.764L455.547,21.637L456.27,21.789L456.992,21.891L457.715,21.486L458.438,21.787L459.16,21.53L459.883,21.636L460.605,21.441L461.328,21.235L462.051,21.414L462.773,21.095L463.496,21.394L464.219,21.411L464.941,21.448L465.664,21.075L466.387,21.022L467.109,21.021L467.832,20.955L468.555,20.962L469.277,20.917"/><path fill="none" stroke="rgb(63, 243, 147)" stroke-width="1.5" d="M100,61.783L100.723,61.678L101.445,62.044L102.168,62.044L102.891,62.214L103.613,62.228L104.336,62.362L105.059,62.537L105.781,62.521L106.504,62.741L107.227,62.788L107.949,63.004L108.672,62.915L109.395,63.115L110.117,63.449L110.84,63.449L111.563,63.548L112.285,63.649L113.008,63.783L113.73,64.007L114.453,64.063L115.176,64.316L115.898,64.279L116.621,64.459L117.344,64.651L118.066,64.95L118.789,64.895L119.512,65.117L120.234,65.235L120.957,65.455L121.68,65.545L122.402,65.736L123.125,65.756L123.848,66.038L124.57,66.178L125.293,66.419L126.016,66.628L126.738,66.861L127.461,66.949L128.184,67.099L128.906,67.216L129.629,67.444L130.352,67.728L131.074,68.016L131.797,68.239L132.52,68.351L133.242,68.672L133.965,68.882L134.688,68.934L135.41,69.177L136.133,69.525L136.855,69.784L137.578,70.01L138.301,70.208L139.023,70.456L139.746,70.752L140.469,70.937L141.191,71.048L141.914,71.34L142.637,71.721L143.359,72.042L144.082,72.33L144.805,72.605L145.527,72.975L146.25,73.212L146.973,73.36L147.695,73.814L148.418,74.079L149.141,74.509L149.863,74.717L150.586,75.242L151.309,75.279L152.031,75.788L152.754,76.176L153.477,76.481L154.199,76.889L154.922,77.252L155.645,77.73L156.367,77.986L157.09,78.295L157.813,78.815L158.535,79.141L159.258,79.699L159.98,80.021L160.703,80.528L161.426,80.889L162.148,81.43L162.871,81.906L163.594,82.254L164.316,82.734L165.039,83.322L165.762,83.898L166.484,84.125L167.207,84.648L167.93,85.349L168.652,85.905L169.375,86.279L170.098,86.919L170.82,87.532L171.543,87.948L172.266,88.568L172.988,89.262L173.711,89.689L174.434,90.481L175.156,90.987L175.879,91.54L176.602,92.383L177.324,92.94L178.047,93.546L178.77,94.253L179.492,94.831L180.215,95.645L180.938,96.324L181.66,97.082L182.383,97.691L183.105,98.424L183.828,99.221L184.551,100.049L185.273,100.935L185.996,101.605L186.719,102.41L187.441,103.311L188.164,104.097L188.887,104.879L189.609,106.013L190.332,106.669L191.055,107.548L191.777,108.503L192.5,109.564L193.223,110.37L193.945,111.12L194.668,112.244L195.391,113.152L196.113,114.192L196.836,115.117L197.559,116.194L198.281,117.229L199.004,118.389L199.727,119.347L200.449,120.401L201.172,121.576L201.895,122.69L202.617,123.663L203.34,124.778L204.063,126.099L204.785,127.174L205.508,128.109L206.23,129.277L206.953,130.631L207.676,131.689L208.398,132.727L209.121,133.973L209.844,135.049L210.566,136.451L211.289,137.74L212.012,138.885L212.734,140.036L213.457,141.276L214.18,142.713L214.902,143.448L215.625,144.992L216.348,146.09L217.07,147.241L217.793,148.546L218.516,149.657L219.238,150.927L219.961,152.002L220.684,153.509L221.406,154.353L222.129,155.316L222.852,156.6L223.574,157.821L224.297,158.479L225.02,159.809L225.742,160.926L226.465,161.8L227.188,162.581L227.91,163.861L228.633,164.544L229.355,165.732L230.078,166.639L230.801,167.333L231.523,168.33L232.246,169.013L232.969,169.679L233.691,170.679L234.414,170.875L235.137,171.872L235.859,172.357L236.582,172.957L237.305,173.218L238.027,174.07L238.75,174.525L239.473,174.853L240.195,175.097L240.918,175.568L241.641,175.839L242.363,175.952L243.086,176.231L243.809,176.395L244.531,176.631L245.254,176.528L245.977,176.773L246.699,176.967L247.422,176.774L248.145,176.822L248.867,176.542L249.59,176.615L250.313,176.547L251.035,175.961L251.758,175.691L252.48,175.796L253.203,175.134L253.926,175.163L254.648,174.788L255.371,174.265L256.094,174.063L256.816,173.07L257.539,172.608L258.262,172.26L258.984,171.446L259.707,170.517L260.43,169.81L261.152,168.731L261.875,168.097L262.598,167.068L263.32,166.074L264.043,164.765L264.766,163.601L265.488,162.367L266.211,161.143L266.934,159.369L267.656,158.406L268.379,156.815L269.102,155.274L269.824,153.442L270.547,152.29L271.27,150.208L271.992,148.676L272.715,146.806L273.438,144.995L274.16,143.219L274.883,141.093L275.605,139.189L276.328,137.285L277.051,135.173L277.773,133.109L278.496,131.065L279.219,128.7L279.941,126.613L280.664,124.412L281.387,121.962L282.109,119.329L282.832,116.834L283.555,114.447L284.277,111.613L285,108.988L285.723,106.196L286.445,103.632L287.168,100.868L287.891,98.201L288.613,95.662L289.336,93.153L290.059,90.339L290.781,87.8L291.504,85.086L292.227,82.869L292.949,80.252L293.672,77.733L294.395,75.169L295.117,73.113L295.84,70.301L296.563,70.328L297.285,72.653L298.008,75.114L298.73,77.509L299.453,79.737L300.176,82.317L300.898,83.524L301.621,81.867L302.344,80.467L303.066,78.992L303.789,77.521L304.512,76.185L305.234,74.713L305.957,73.412L306.68,72.083L307.402,70.642L308.125,69.301L308.848,68.007L309.57,67.022L310.293,65.636L311.016,64.436L311.738,63.287L312.461,61.882L313.184,60.765L313.906,59.528L314.629,58.612L315.352,57.499L316.074,56.462L316.797,55.297L317.52,54.18L318.242,53.364L318.965,52.35L319.688,51.674L320.41,50.349L321.133,49.363L321.855,48.576L322.578,47.767L323.301,46.763L324.023,46.059L324.746,45.436L325.469,44.631L326.191,43.654L326.914,42.892L327.637,42.548L328.359,41.63L329.082,41.162L329.805,40.198L330.527,39.66L331.25,39.479L331.973,38.567L332.695,38.158L333.418,36.986L334.141,36.766L334.863,36.32L335.586,35.822L336.309,35.564L337.031,34.753L337.754,34.442L338.477,34.065L339.199,33.614L339.922,33.163L340.645,32.506L341.367,32.34L342.09,32.178L342.813,31.36L343.535,31.513L344.258,30.991L344.98,30.505L345.703,30.222L346.426,29.896L347.148,29.625L347.871,29.368L348.594,28.848L349.316,28.771L350.039,28.243L350.762,28.031L351.484,27.814L352.207,27.55L352.93,27.214L353.652,27.409L354.375,26.646L355.098,26.904L355.82,26.977L356.543,27.229L357.266,26.584L357.988,25.429L358.711,25.808L359.434,25.596L360.156,25.522L360.879,24.503L361.602,25.758L362.324,24.962L363.047,25.139L363.77,24.734L364.492,24.982L365.215,25.053L365.938,23.841L366.66,24.247L367.383,24.607L368.105,24.153L368.828,24.092L369.551,24.02L370.273,22.567L370.996,24.109L371.719,23.146L372.441,23.572L373.164,22.36L373.887,23.091L374.609,24.32L375.332,22.724L376.055,22.674L376.777,22.7L377.5,23.305L378.223,23.286L378.945,22.272L379.668,21.014L380.391,22.598L381.113,22.576L381.836,22.212L382.559,22.95L383.281,22.76L384.004,22.271L384.727,21.019L385.449,23.034L386.172,20.759L386.895,21.927L387.617,22.201L388.34,20.831L389.063,22.231L389.785,22.404L390.508,21.653L391.23,21.848L391.953,22.318L392.676,21.511L393.398,20.931L394.121,22.101L394.844,20.824L395.566,21.067L396.289,21.25L397.012,23.063L397.734,22.857L398.457,22.371L399.18,20.397L399.902,21.627L400.625,21.837L401.348,20.348L402.07,20.762L402.793,22.005L403.516,23.614L404.238,22.405L404.961,22.615L405.684,21.715L406.406,22.914L407.129,21.689L407.852,21.263L408.574,22.042L409.297,20.942L410.02,23.751L410.742,20.592L411.465,23.328L412.188,23.654L412.91,23.044L413.633,23.312L414.355,23.361L415.078,24.376L415.801,20.774L416.523,23.614L417.246,24.871L417.969,21.549L418.691,21.903L419.414,22.937L420.137,23.4L420.859,23.168L421.582,21.247L422.305,26.964L423.027,25.014L423.75,25.421L424.473,22.221L425.195,23.215L425.918,23.036L426.641,22.251L427.363,22.803L428.086,22.277L428.809,23.414L429.531,24.806L430.254,23.414L430.977,23.449L431.699,22.803L432.422,22.855L433.145,21.415L433.867,23.996L434.59,22.763L435.313,22.217L436.035,23.053L436.758,22.596L437.48,23.681L438.203,22.258L438.926,21.881L439.648,22.681L440.371,22.771L441.094,21.958L441.816,21.02L442.539,21.865L443.262,22.03L443.984,22.41L444.707,21.949L445.43,21.917L446.152,22.535L446.875,21.709L447.598,21.146L448.32,21.182L449.043,22.234L449.766,21.596L450.488,21.341L451.211,21.499L451.934,21.296L452.656,21.184L453.379,21.271L454.102,20.974L454.824,21.035L455.547,21.063L456.27,21.299L456.992,21.265L457.715,20.858L458.438,20.763L459.16,20.66L459.883,21.151L460.605,20.908L461.328,20.816L462.051,20.956L462.773,21.001L463.496,20.963L464.219,20.907L464.941,20.886L465.664,20.892L466.387,20.896L467.109,20.777L467.832,20.921L468.555,20.725L469.277,20.691"/><path fill="none" stroke="rgb(149, 251, 81)" stroke-width="1.5" d="M100,59.452L100.723,59.664L101.445,59.625L102.168,59.703L102.891,59.719L103.613,59.913L104.336,59.888L105.059,59.907L105.781,60.073L106.504,60.2L107.227,60.351L107.949,60.348L108.672,60.615L109.395,60.59L110.117,60.804L110.84,60.785L111.563,60.819L112.285,60.924L113.008,61.005L113.73,61.264L114.453,61.328L115.176,61.379L115.898,61.563L116.621,61.626L117.344,61.745L118.066,61.966L118.789,61.964L119.512,62.209L120.234,62.301L120.957,62.496L121.68,62.609L122.402,62.678L123.125,62.88L123.848,62.977L124.57,63.043L125.293,63.215L126.016,63.362L126.738,63.439L127.461,63.661L128.184,63.875L128.906,63.993L129.629,64.135L130.352,64.288L131.074,64.397L131.797,64.769L132.52,64.899L133.242,64.914L133.965,65.08L134.688,65.327L135.41,65.667L136.133,65.61L136.855,65.817L137.578,66.126L138.301,66.258L139.023,66.458L139.746,66.651L140.469,66.833L141.191,66.968L141.914,67.277L142.637,67.524L143.359,67.764L144.082,68.066L144.805,68.274L145.527,68.462L146.25,68.503L146.973,68.872L147.695,69.221L148.418,69.433L149.141,69.763L149.863,69.904L150.586,70.305L151.309,70.572L152.031,70.64L152.754,71.002L153.477,71.377L154.199,71.574L154.922,71.942L155.645,72.008L156.367,72.56L157.09,72.791L157.813,73.073L158.535,73.43L159.258,73.705L159.98,73.74L160.703,74.356L161.426,74.568L162.148,75.041L162.871,75.284L163.594,75.794L164.316,76.15L165.039,76.373L165.762,76.95L166.484,77.239L167.207,77.622L167.93,78.064L168.652,78.347L169.375,78.694L170.098,79.065L170.82,79.68L171.543,79.967L172.266,80.481L172.988,80.992L173.711,81.354L174.434,81.631L175.156,82.075L175.879,82.621L176.602,82.935L177.324,83.597L178.047,84.001L178.77,84.724L179.492,84.886L180.215,85.442L180.938,86.155L181.66,86.52L182.383,86.874L183.105,87.394L183.828,88.105L184.551,88.646L185.273,89.05L185.996,89.571L186.719,90.093L187.441,90.771L188.164,91.197L188.887,91.751L189.609,92.473L190.332,92.779L191.055,93.549L191.777,94.052L192.5,94.68L193.223,95.252L193.945,95.767L194.668,96.39L195.391,96.987L196.113,97.575L196.836,98.326L197.559,98.876L198.281,99.521L199.004,100.063L199.727,100.701L200.449,101.372L201.172,101.892L201.895,102.601L202.617,103.008L203.34,103.572L204.063,104.365L204.785,104.688L205.508,105.597L206.23,106.133L206.953,106.716L207.676,107.417L208.398,107.972L209.121,108.567L209.844,108.823L210.566,109.763L211.289,110.272L212.012,110.807L212.734,111.308L213.457,111.888L214.18,112.545L214.902,113.075L215.625,113.463L216.348,114.082L217.07,114.486L217.793,114.995L218.516,115.496L219.238,116.108L219.961,116.278L220.684,116.816L221.406,117.178L222.129,117.688L222.852,118.129L223.574,118.305L224.297,118.853L225.02,119.261L225.742,119.176L226.465,119.736L227.188,120.037L227.91,120.386L228.633,120.501L229.355,120.866L230.078,121.061L230.801,121.271L231.523,121.591L232.246,121.922L232.969,121.965L233.691,122.177L234.414,122.308L235.137,122.85L235.859,122.821L236.582,122.742L237.305,122.674L238.027,123.019L238.75,123.067L239.473,123.25L240.195,123.452L240.918,123.454L241.641,123.592L242.363,123.574L243.086,123.716L243.809,123.456L244.531,123.741L245.254,123.793L245.977,123.779L246.699,123.8L247.422,123.789L248.145,123.893L248.867,124.025L249.59,123.711L250.313,123.83L251.035,123.652L251.758,123.721L252.48,123.494L253.203,123.507L253.926,123.381L254.648,123.791L255.371,123.386L256.094,123.104L256.816,122.813L257.539,122.686L258.262,122.347L258.984,122.041L259.707,121.341L260.43,121.143L261.152,120.673L261.875,120.33L262.598,119.728L263.32,119.201L264.043,118.462L264.766,118.089L265.488,117.243L266.211,116.715L266.934,115.93L267.656,115.204L268.379,114.564L269.102,114.075L269.824,113.297L270.547,112.197L271.27,111.382L271.992,110.822L272.715,109.689L273.438,108.867L274.16,107.948L274.883,107.005L275.605,105.952L276.328,104.859L277.051,103.765L277.773,102.653L278.496,101.702L279.219,100.377L279.941,99.297L280.664,97.784L281.387,96.214L282.109,94.861L282.832,93.357L283.555,91.891L284.277,90.037L285,88.496L285.723,86.904L286.445,85.023L287.168,83.577L287.891,81.427L288.613,79.783L289.336,77.758L290.059,76.235L290.781,74.264L291.504,75.351L292.227,78.157L292.949,81.26L293.672,83.88L294.395,87.144L295.117,89.731L295.84,90.837L296.563,89.475L297.285,88.478L298.008,87.187L298.73,85.85L299.453,84.907L300.176,83.725L300.898,82.575L301.621,81.169L302.344,80.065L303.066,78.971L303.789,77.452L304.512,76.335L305.234,75.132L305.957,73.92L306.68,72.84L307.402,71.687L308.125,70.342L308.848,68.924L309.57,67.896L310.293,66.727L311.016,65.562L311.738,64.323L312.461,63.348L313.184,62.029L313.906,61.132L314.629,59.967L315.352,58.843L316.074,57.98L316.797,56.757L317.52,55.904L318.242,54.826L318.965,54.047L319.688,52.98L320.41,52.071L321.133,51.181L321.855,50.248L322.578,49.452L323.301,48.656L324.023,47.715L324.746,46.896L325.469,46.172L326.191,45.437L326.914,44.662L327.637,44.003L328.359,43.291L329.082,42.569L329.805,41.953L330.527,41.238L331.25,40.588L331.973,39.948L332.695,39.359L333.418,38.762L334.141,38.346L334.863,37.685L335.586,37.18L336.309,36.497L337.031,36.116L337.754,35.659L338.477,35.167L339.199,34.549L339.922,34.193L340.645,33.839L341.367,33.451L342.09,32.925L342.813,32.606L343.535,32.143L344.258,31.81L344.98,31.494L345.703,31.162L346.426,30.792L347.148,30.431L347.871,30.125L348.594,29.832L349.316,29.476L350.039,29.105L350.762,28.897L351.484,28.71L352.207,28.484L352.93,28.13L353.652,27.921L354.375,27.66L355.098,27.44L355.82,27.254L356.543,26.972L357.266,26.779L357.988,26.502L358.711,26.327L359.434,26.297L360.156,25.996L360.879,25.827L361.602,25.693L362.324,25.482L363.047,25.298L363.77,25.322L364.492,25.071L365.215,24.801L365.938,24.768L366.66,24.541L367.383,24.574L368.105,24.389L368.828,24.132L369.551,23.991L370.273,23.938L370.996,23.88L371.719,23.71L372.441,23.643L373.164,23.566L373.887,23.479L374.609,23.399L375.332,23.235L376.055,23.168L376.777,23.126L377.5,23.09L378.223,22.98L378.945,22.908L379.668,22.764L380.391,22.742L381.113,22.627L381.836,22.555L382.559,22.568L383.281,22.358L384.004,22.291L384.727,22.366L385.449,22.198L386.172,22.192L386.895,22.063L387.617,22.146L388.34,22.011L389.063,21.888L389.785,21.923L390.508,21.967L391.23,21.89L391.953,21.791L392.676,21.772L393.398,21.733L394.121,21.695L394.844,21.686L395.566,21.638L396.289,21.563L397.012,21.551L397.734,21.49L398.457,21.562L399.18,21.467L399.902,21.386L400.625,21.407L401.348,21.406L402.07,21.397L402.793,21.314L403.516,21.293L404.238,21.324L404.961,21.21L405.684,21.206L406.406,21.175L407.129,21.171L407.852,21.195L408.574,21.137L409.297,21.206L410.02,21.162L410.742,21.059L411.465,21.056L412.188,21.066L412.91,21.056L413.633,20.966L414.355,20.98L415.078,20.969L415.801,21L416.523,21.008L417.246,20.926L417.969,20.957L418.691,20.943L419.414,20.934L420.137,20.95L420.859,20.921L421.582,20.925L422.305,20.881L423.027,20.829L423.75,20.85L424.473,20.878L425.195,20.838L425.918,20.844L426.641,20.852L427.363,20.865L428.086,20.805L428.809,20.778L429.531,20.797L430.254,20.824L430.977,20.845L431.699,20.779L432.422,20.817L433.145,20.809L433.867,20.793L434.59,20.804L435.313,20.76L436.035,20.782L436.758,20.742L437.48,20.746L438.203,20.747L438.926,20.746L439.648,20.744L440.371,20.749L441.094,20.742L441.816,20.712L442.539,20.714L443.262,20.754L443.984,20.758L444.707,20.704L445.43,20.713L446.152,20.745L446.875,20.715L447.598,20.7L448.32,20.717L449.043,20.73L449.766,20.718L450.488,20.699L451.211,20.691L451.934,20.707L452.656,20.694L453.379,20.704L454.102,20.704L454.824,20.676L455.547,20.681L456.27,20.669L456.992,20.688L457.715,20.7L458.438,20.694L459.16,20.68L459.883,20.687L460.605,20.668L461.328,20.669L462.051,20.672L462.773,20.682L463.496,20.677L464.219,20.676L464.941,20.665L465.664,20.67L466.387,20.67L467.109,20.667L467.832,20.658L468.555,20.666L469.277,20.664"/><path fill="none" stroke="rgb(236, 209, 46)" stroke-width="1.5" d="M100,55.828L100.723,56.077L101.445,56.051L102.168,56.1L102.891,56.176L103.613,56.303L104.336,56.433L105.059,56.365L105.781,56.381L106.504,56.599L107.227,56.546L107.949,56.682L108.672,56.743L109.395,56.748L110.117,56.846L110.84,56.92L111.563,56.954L112.285,57.08L113.008,57.128L113.73,57.152L114.453,57.281L115.176,57.381L115.898,57.534L116.621,57.358L117.344,57.572L118.066,57.621L118.789,57.623L119.512,57.785L120.234,57.864L120.957,58.049L121.68,58.219L122.402,58.314L123.125,58.472L123.848,58.44L124.57,58.625L125.293,58.631L126.016,58.609L126.738,58.597L127.461,58.819L128.184,59.072L128.906,59.169L129.629,59.314L130.352,59.216L131.074,59.504L131.797,59.575L132.52,59.601L133.242,59.67L133.965,59.698L134.688,60.177L135.41,60.24L136.133,60.368L136.855,60.441L137.578,60.503L138.301,60.783L139.023,60.886L139.746,60.839L140.469,61.032L141.191,61.035L141.914,61.39L142.637,61.604L143.359,61.638L144.082,61.86L144.805,62.078L145.527,61.998L146.25,62.251L146.973,62.234L147.695,62.572L148.418,62.669L149.141,62.951L149.863,63.12L150.586,63.192L151.309,63.417L152.031,63.522L152.754,63.717L153.477,63.965L154.199,64.225L154.922,64.289L155.645,64.512L156.367,64.662L157.09,64.974L157.813,64.94L158.535,65.248L159.258,65.559L159.98,65.706L160.703,65.791L161.426,66.041L162.148,66.324L162.871,66.415L163.594,66.669L164.316,66.814L165.039,67.318L165.762,67.215L166.484,67.396L167.207,67.601L167.93,68.015L168.652,68.136L169.375,68.364L170.098,68.763L170.82,69.046L171.543,69.299L172.266,69.408L172.988,69.72L173.711,69.944L174.434,69.988L175.156,70.305L175.879,70.478L176.602,70.656L177.324,70.979L178.047,71.32L178.77,71.572L179.492,71.708L180.215,72.065L180.938,72.485L181.66,72.474L182.383,72.753L183.105,73.01L183.828,73.464L184.551,73.424L185.273,73.778L185.996,74.129L186.719,74.415L187.441,74.61L188.164,74.765L188.887,74.973L189.609,75.326L190.332,75.615L191.055,75.767L191.777,76.146L192.5,76.177L193.223,76.611L193.945,76.739L194.668,77.092L195.391,77.497L196.113,77.54L196.836,77.861L197.559,77.956L198.281,78.367L199.004,78.521L199.727,78.764L200.449,78.956L201.172,79.081L201.895,79.302L202.617,79.51L203.34,79.706L204.063,79.961L204.785,80.246L205.508,80.418L206.23,80.544L206.953,80.821L207.676,80.994L208.398,81.176L209.121,81.395L209.844,81.677L210.566,81.857L211.289,81.916L212.012,82.163L212.734,82.446L213.457,82.562L214.18,82.779L214.902,83.007L215.625,82.953L216.348,83.208L217.07,83.389L217.793,83.604L218.516,83.592L219.238,83.746L219.961,83.976L220.684,84.259L221.406,84.428L222.129,84.358L222.852,84.642L223.574,84.918L224.297,84.932L225.02,85.197L225.742,85.084L226.465,85.237L227.188,85.546L227.91,85.495L228.633,85.739L229.355,85.762L230.078,86.081L230.801,86.107L231.523,86.276L232.246,86.678L232.969,86.587L233.691,86.732L234.414,86.861L235.137,86.985L235.859,87.101L236.582,87.046L237.305,87.261L238.027,87.358L238.75,87.447L239.473,87.578L240.195,87.659L240.918,87.816L241.641,87.822L242.363,87.877L243.086,87.947L243.809,88.314L244.531,88.418L245.254,88.341L245.977,88.351L246.699,88.47L247.422,88.571L248.145,88.317L248.867,88.726L249.59,88.656L250.313,88.893L251.035,89.053L251.758,88.898L252.48,89.128L253.203,88.797L253.926,89.093L254.648,89.036L255.371,89.011L256.094,88.82L256.816,88.916L257.539,88.511L258.262,88.487L258.984,88.406L259.707,88.302L260.43,88.112L261.152,87.959L261.875,87.641L262.598,87.367L263.32,87.253L264.043,86.79L264.766,86.647L265.488,86.401L266.211,85.963L266.934,85.807L267.656,85.538L268.379,85.244L269.102,84.8L269.824,84.635L270.547,84.357L271.27,83.589L271.992,83.513L272.715,82.877L273.438,82.461L274.16,82.353L274.883,81.703L275.605,81.146L276.328,80.516L277.051,80.193L277.773,79.626L278.496,79.094L279.219,78.51L279.941,78.069L280.664,77.137L281.387,76.199L282.109,75.334L282.832,74.344L283.555,73.597L284.277,72.295L285,75.684L285.723,79.227L286.445,82.73L287.168,86.314L287.891,89.557L288.613,93.266L289.336,93.637L290.059,93.138L290.781,92.476L291.504,92.029L292.227,91.296L292.949,90.646L293.672,89.876L294.395,89.241L295.117,88.18L295.84,87.449L296.563,86.567L297.285,85.677L298.008,84.722L298.73,83.884L299.453,82.94L300.176,81.971L300.898,80.713L301.621,79.789L302.344,78.904L303.066,77.903L303.789,76.426L304.512,75.761L305.234,74.361L305.957,73.228L306.68,72.115L307.402,71.219L308.125,69.903L308.848,69.027L309.57,67.916L310.293,66.718L311.016,65.759L311.738,64.519L312.461,63.446L313.184,62.524L313.906,61.402L314.629,60.308L315.352,59.453L316.074,58.36L316.797,57.277L317.52,56.434L318.242,55.403L318.965,54.291L319.688,53.412L320.41,52.493L321.133,51.552L321.855,50.723L322.578,49.938L323.301,49.083L324.023,48.172L324.746,47.461L325.469,46.638L326.191,45.738L326.914,44.976L327.637,44.217L328.359,43.603L329.082,42.905L329.805,42.122L330.527,41.509L331.25,40.914L331.973,40.219L332.695,39.583L333.418,38.988L334.141,38.309L334.863,37.766L335.586,37.158L336.309,36.75L337.031,36.207L337.754,35.761L338.477,35.21L339.199,34.694L339.922,34.195L340.645,33.833L341.367,33.366L342.09,32.976L342.813,32.636L343.535,32.147L344.258,31.74L344.98,31.395L345.703,30.991L346.426,30.692L347.148,30.301L347.871,29.957L348.594,29.798L349.316,29.341L350.039,29.153L350.762,28.784L351.484,28.523L352.207,28.237L352.93,27.975L353.652,27.724L354.375,27.425L355.098,27.261L355.82,27.017L356.543,26.816L357.266,26.587L357.988,26.379L358.711,26.176L359.434,25.923L360.156,25.806L360.879,25.619L361.602,25.497L362.324,25.27L363.047,25.109L363.77,24.939L364.492,24.836L365.215,24.631L365.938,24.542L366.66,24.396L367.383,24.223L368.105,24.157L368.828,24.035L369.551,23.896L370.273,23.808L370.996,23.645L371.719,23.56L372.441,23.49L373.164,23.395L373.887,23.288L374.609,23.16L375.332,23.096L376.055,23.016L376.777,22.919L377.5,22.81L378.223,22.797L378.945,22.686L379.668,22.608L380.391,22.579L381.113,22.474L381.836,22.441L382.559,22.37L383.281,22.288L384.004,22.197L384.727,22.183L385.449,22.106L386.172,22.045L386.895,21.995L387.617,21.968L388.34,21.925L389.063,21.898L389.785,21.821L390.508,21.78L391.23,21.717L391.953,21.702L392.676,21.648L393.398,21.603L394.121,21.599L394.844,21.585L395.566,21.547L396.289,21.502L397.012,21.464L397.734,21.413L398.457,21.422L399.18,21.358L399.902,21.33L400.625,21.314L401.348,21.296L402.07,21.273L402.793,21.261L403.516,21.22L404.238,21.18L404.961,21.196L405.684,21.159L406.406,21.132L407.129,21.119L407.852,21.116L408.574,21.088L409.297,21.08L410.02,21.069L410.742,21.051L411.465,21.033L412.188,21.012L412.91,21L413.633,20.981L414.355,20.981L415.078,20.975L415.801,20.955L416.523,20.946L417.246,20.933L417.969,20.926L418.691,20.907L419.414,20.896L420.137,20.903L420.859,20.879L421.582,20.864L422.305,20.86L423.027,20.852L423.75,20.856L424.473,20.841L425.195,20.842L425.918,20.834L426.641,20.809L427.363,20.809L428.086,20.799L428.809,20.805L429.531,20.807L430.254,20.789L430.977,20.782L431.699,20.781L432.422,20.773L433.145,20.772L433.867,20.764L434.59,20.765L435.313,20.755L436.035,20.755L436.758,20.749L437.48,20.747L438.203,20.744L438.926,20.734L439.648,20.733L440.371,20.728L441.094,20.728L441.816,20.731L442.539,20.727L443.262,20.725L443.984,20.713L444.707,20.714L445.43,20.709L446.152,20.712L446.875,20.706L447.598,20.706L448.32,20.703L449.043,20.699L449.766,20.699L450.488,20.699L451.211,20.695L451.934,20.694L452.656,20.692L453.379,20.684L454.102,20.692L454.824,20.68L455.547,20.684L456.27,20.682L456.992,20.675L457.715,20.675L458.438,20.681L459.16,20.678L459.883,20.679L460.605,20.674L461.328,20.676L462.051,20.67L462.773,20.675L463.496,20.672L464.219,20.67L464.941,20.669L465.664,20.666L466.387,20.666L467.109,20.664L467.832,20.663L468.555,20.665L469.277,20.664"/><path fill="none" stroke="rgb(255, 130, 29)" stroke-width="1.5" d="M100,51.559L100.723,51.628L101.445,51.721L102.168,51.532L102.891,51.591L103.613,51.646L104.336,51.67L105.059,51.743L105.781,51.733L106.504,51.694L107.227,51.85L107.949,51.798L108.672,51.886L109.395,51.999L110.117,51.883L110.84,52.029L111.563,51.932L112.285,51.953L113.008,52.115L113.73,52.065L114.453,52.222L115.176,52.201L115.898,52.245L116.621,52.273L117.344,52.356L118.066,52.296L118.789,52.465L119.512,52.522L120.234,52.367L120.957,52.431L121.68,52.484L122.402,52.661L123.125,52.634L123.848,52.645L124.57,52.702L125.293,52.702L126.016,52.856L126.738,52.783L127.461,52.815L128.184,52.842L128.906,53.003L129.629,53.066L130.352,53.226L131.074,53.202L131.797,53.183L132.52,53.23L133.242,53.26L133.965,53.327L134.688,53.318L135.41,53.443L136.133,53.487L136.855,53.475L137.578,53.465L138.301,53.597L139.023,53.806L139.746,53.633L140.469,53.868L141.191,53.861L141.914,53.967L142.637,53.989L143.359,53.996L144.082,54.122L144.805,54.39L145.527,54.147L146.25,54.373L146.973,54.371L147.695,54.493L148.418,54.445L149.141,54.394L149.863,54.617L150.586,54.775L151.309,54.787L152.031,54.792L152.754,54.952L153.477,54.924L154.199,55.043L154.922,54.97L155.645,55.247L156.367,55.215L157.09,55.427L157.813,55.311L158.535,55.407L159.258,55.515L159.98,55.612L160.703,55.599L161.426,55.794L162.148,55.815L162.871,55.646L163.594,55.829L164.316,55.976L165.039,56.14L165.762,56.169L166.484,56.376L167.207,56.25L167.93,56.418L168.652,56.557L169.375,56.345L170.098,56.518L170.82,56.733L171.543,56.756L172.266,56.837L172.988,56.987L173.711,57.101L174.434,57.185L175.156,57.178L175.879,57.197L176.602,57.406L177.324,57.49L178.047,57.487L178.77,57.631L179.492,57.654L180.215,57.775L180.938,57.737L181.66,58.049L182.383,57.977L183.105,58.018L183.828,58.249L184.551,58.235L185.273,58.374L185.996,58.485L186.719,58.423L187.441,58.704L188.164,58.737L188.887,58.831L189.609,58.927L190.332,59.004L191.055,59.122L191.777,59.079L192.5,59.245L193.223,59.35L193.945,59.503L194.668,59.499L195.391,59.655L196.113,59.781L196.836,59.78L197.559,59.92L198.281,59.894L199.004,60.115L199.727,60.186L200.449,60.21L201.172,60.39L201.895,60.577L202.617,60.609L203.34,60.64L204.063,60.751L204.785,60.914L205.508,60.927L206.23,60.896L206.953,61.197L207.676,61.263L208.398,61.381L209.121,61.397L209.844,61.528L210.566,61.726L211.289,61.68L212.012,61.84L212.734,61.865L213.457,62.035L214.18,62.158L214.902,62.287L215.625,62.348L216.348,62.319L217.07,62.697L217.793,62.633L218.516,62.748L219.238,62.746L219.961,62.917L220.684,63.1L221.406,63.095L222.129,63.21L222.852,63.358L223.574,63.604L224.297,63.561L225.02,63.716L225.742,63.88L226.465,63.734L227.188,63.992L227.91,64.155L228.633,64.33L229.355,64.37L230.078,64.419L230.801,64.596L231.523,64.721L232.246,64.699L232.969,64.758L233.691,64.865L234.414,65.071L235.137,65.377L235.859,65.278L236.582,65.394L237.305,65.515L238.027,65.653L238.75,65.737L239.473,65.95L240.195,66.128L240.918,66.247L241.641,66.319L242.363,66.408L243.086,66.399L243.809,66.5L244.531,66.886L245.254,66.805L245.977,66.851L246.699,67.083L247.422,67.368L248.145,67.362L248.867,67.391L249.59,67.549L250.313,67.806L251.035,67.855L251.758,68.019L252.48,68.079L253.203,68.282L253.926,68.318L254.648,68.517L255.371,68.52L256.094,68.602L256.816,68.772L257.539,68.715L258.262,68.899L258.984,68.636L259.707,68.812L260.43,68.848L261.152,68.687L261.875,68.479L262.598,68.464L263.32,68.311L264.043,68.484L264.766,68.186L265.488,68.144L266.211,67.972L266.934,67.908L267.656,67.953L268.379,67.789L269.102,67.736L269.824,67.42L270.547,67.656L271.27,67.206L271.992,67.078L272.715,66.884L273.438,66.53L274.16,66.407L274.883,66.153L275.605,65.823L276.328,65.712L277.051,65.58L277.773,68.174L278.496,72.541L279.219,76.829L279.941,80.975L280.664,85.591L281.387,89.294L282.109,91.865L282.832,91.843L283.555,92.308L284.277,92.017L285,91.734L285.723,91.702L286.445,91.595L287.168,91.593L287.891,91.212L288.613,91.096L289.336,90.543L290.059,90.256L290.781,89.871L291.504,89.643L292.227,88.902L292.949,88.671L293.672,88.058L294.395,87.195L295.117,86.81L295.84,85.883L296.563,85.365L297.285,84.498L298.008,83.54L298.73,82.839L299.453,82.121L300.176,81.065L300.898,80.179L301.621,79.295L302.344,78.349L303.066,77.208L303.789,76.484L304.512,75.435L305.234,74.33L305.957,73.597L306.68,72.505L307.402,71.295L308.125,70.378L308.848,69.216L309.57,68.156L310.293,67.227L311.016,66.101L311.738,65.056L312.461,63.891L313.184,62.824L313.906,61.959L314.629,60.759L315.352,59.722L316.074,58.824L316.797,57.907L317.52,56.942L318.242,55.821L318.965,54.917L319.688,54.135L320.41,53.13L321.133,52.266L321.855,51.353L322.578,50.598L323.301,49.703L324.023,48.818L324.746,47.968L325.469,47.245L326.191,46.279L326.914,45.624L327.637,44.788L328.359,44.207L329.082,43.397L329.805,42.699L330.527,41.995L331.25,41.357L331.973,40.655L332.695,40.09L333.418,39.493L334.141,38.8L334.863,38.282L335.586,37.648L336.309,37.132L337.031,36.5L337.754,36.066L338.477,35.576L339.199,35.121L339.922,34.649L340.645,34.154L341.367,33.662L342.09,33.271L342.813,32.827L343.535,32.413L344.258,31.989L344.98,31.639L345.703,31.382L346.426,30.905L347.148,30.562L347.871,30.246L348.594,29.871L349.316,29.59L350.039,29.254L350.762,28.988L351.484,28.715L352.207,28.443L352.93,28.233L353.652,27.894L354.375,27.674L355.098,27.437L355.82,27.125L356.543,26.93L357.266,26.741L357.988,26.533L358.711,26.312L359.434,26.094L360.156,25.941L360.879,25.693L361.602,25.582L362.324,25.372L363.047,25.256L363.77,25.059L364.492,24.909L365.215,24.797L365.938,24.62L366.66,24.456L367.383,24.369L368.105,24.193L368.828,24.126L369.551,23.985L370.273,23.859L370.996,23.754L371.719,23.634L372.441,23.493L373.164,23.427L373.887,23.339L374.609,23.256L375.332,23.159L376.055,23.093L376.777,23.004L377.5,22.885L378.223,22.816L378.945,22.701L379.668,22.676L380.391,22.576L381.113,22.523L381.836,22.453L382.559,22.362L383.281,22.34L384.004,22.276L384.727,22.207L385.449,22.145L386.172,22.116L386.895,22.047L387.617,21.996L388.34,21.943L389.063,21.927L389.785,21.84L390.508,21.807L391.23,21.753L391.953,21.687L392.676,21.696L393.398,21.671L394.121,21.628L394.844,21.578L395.566,21.548L396.289,21.505L397.012,21.473L397.734,21.437L398.457,21.416L399.18,21.377L399.902,21.359L400.625,21.341L401.348,21.303L402.07,21.279L402.793,21.263L403.516,21.216L404.238,21.214L404.961,21.185L405.684,21.161L406.406,21.161L407.129,21.128L407.852,21.125L408.574,21.087L409.297,21.073L410.02,21.073L410.742,21.046L411.465,21.043L412.188,21.011L412.91,21.012L413.633,20.987L414.355,20.977L415.078,20.975L415.801,20.964L416.523,20.952L417.246,20.94L417.969,20.92L418.691,20.911L419.414,20.906L420.137,20.895L420.859,20.886L421.582,20.879L422.305,20.858L423.027,20.855L423.75,20.862L424.473,20.846L425.195,20.832L425.918,20.828L426.641,20.817L427.363,20.815L428.086,20.808L428.809,20.805L429.531,20.802L430.254,20.791L430.977,20.79L431.699,20.786L432.422,20.78L433.145,20.769L433.867,20.762L434.59,20.761L435.313,20.757L436.035,20.745L436.758,20.749L437.48,20.743L438.203,20.742L438.926,20.736L439.648,20.738L440.371,20.735L441.094,20.727L441.816,20.723L442.539,20.719L443.262,20.721L443.984,20.721L444.707,20.712L445.43,20.711L446.152,20.715L446.875,20.708L447.598,20.709L448.32,20.702L449.043,20.704L449.766,20.7L450.488,20.7L451.211,20.698L451.934,20.698L452.656,20.691L453.379,20.684L454.102,20.686L454.824,20.686L455.547,20.683L456.27,20.68L456.992,20.679L457.715,20.679L458.438,20.68L459.16,20.68L459.883,20.676L460.605,20.675L461.328,20.675L462.051,20.669L462.773,20.671L463.496,20.672L464.219,20.669L464.941,20.666L465.664,20.666L466.387,20.667L467.109,20.665L467.832,20.664L468.555,20.662L469.277,20.664"/><path fill="none" stroke="rgb(203, 47, 13)" stroke-width="1.5" d="M100,49.417L100.723,49.459L101.445,49.406L102.168,49.361L102.891,49.424L103.613,49.409L104.336,49.392L105.059,49.44L105.781,49.401L106.504,49.446L107.227,49.399L107.949,49.53L108.672,49.539L109.395,49.593L110.117,49.541L110.84,49.629L111.563,49.643L112.285,49.631L113.008,49.641L113.73,49.796L114.453,49.604L115.176,49.53L115.898,49.75L116.621,49.69L117.344,49.682L118.066,49.724L118.789,49.778L119.512,49.813L120.234,49.871L120.957,49.828L121.68,49.848L122.402,49.877L123.125,49.969L123.848,49.857L124.57,49.901L125.293,50.007L126.016,49.969L126.738,50.031L127.461,50.077L128.184,50.102L128.906,50.127L129.629,49.888L130.352,50.139L131.074,50.073L131.797,50.247L132.52,50.373L133.242,50.21L133.965,50.33L134.688,50.247L135.41,50.317L136.133,50.157L136.855,50.323L137.578,50.417L138.301,50.342L139.023,50.574L139.746,50.43L140.469,50.541L141.191,50.474L141.914,50.391L142.637,50.461L143.359,50.553L144.082,50.578L144.805,50.617L145.527,50.668L146.25,50.699L146.973,50.743L147.695,50.776L148.418,50.797L149.141,50.922L149.863,50.838L150.586,50.895L151.309,51.036L152.031,50.989L152.754,50.89L153.477,51.005L154.199,51.021L154.922,51.019L155.645,51.122L156.367,51.035L157.09,51.096L157.813,51.127L158.535,51.157L159.258,51.212L159.98,51.207L160.703,51.199L161.426,51.321L162.148,51.34L162.871,51.464L163.594,51.419L164.316,51.414L165.039,51.656L165.762,51.527L166.484,51.665L167.207,51.673L167.93,51.618L168.652,51.65L169.375,51.622L170.098,51.741L170.82,51.909L171.543,51.868L172.266,51.959L172.988,51.84L173.711,51.919L174.434,51.909L175.156,52.076L175.879,51.966L176.602,52.161L177.324,52.159L178.047,52.183L178.77,52.251L179.492,52.345L180.215,52.359L180.938,52.384L181.66,52.412L182.383,52.405L183.105,52.446L183.828,52.377L184.551,52.642L185.273,52.548L185.996,52.692L186.719,52.668L187.441,52.897L188.164,52.895L188.887,52.644L189.609,52.823L190.332,52.984L191.055,53.008L191.777,52.989L192.5,53.116L193.223,53.089L193.945,53.264L194.668,53.289L195.391,53.424L196.113,53.354L196.836,53.5L197.559,53.52L198.281,53.592L199.004,53.507L199.727,53.392L200.449,53.535L201.172,53.68L201.895,53.783L202.617,53.802L203.34,53.905L204.063,53.987L204.785,53.956L205.508,54.037L206.23,54.083L206.953,54.09L207.676,54.21L208.398,54.359L209.121,54.341L209.844,54.369L210.566,54.45L211.289,54.606L212.012,54.646L212.734,54.724L213.457,54.804L214.18,54.859L214.902,54.925L215.625,54.992L216.348,55.041L217.07,55.175L217.793,55.158L218.516,55.41L219.238,55.451L219.961,55.545L220.684,55.556L221.406,55.692L222.129,55.85L222.852,55.974L223.574,55.979L224.297,56.025L225.02,56.111L225.742,56.176L226.465,56.23L227.188,56.437L227.91,56.563L228.633,56.664L229.355,56.755L230.078,56.742L230.801,57.011L231.523,56.974L232.246,57.162L232.969,57.264L233.691,57.391L234.414,57.573L235.137,57.798L235.859,57.773L236.582,57.866L237.305,58.03L238.027,58.154L238.75,58.258L239.473,58.396L240.195,58.627L240.918,58.714L241.641,58.876L242.363,58.984L243.086,59.027L243.809,59.179L244.531,59.285L245.254,59.465L245.977,59.582L246.699,59.748L247.422,59.975L248.145,60.036L248.867,60.214L249.59,60.362L250.313,60.486L251.035,60.719L251.758,60.74L252.48,61.078L253.203,61.24L253.926,61.205L254.648,61.447L255.371,61.539L256.094,61.759L256.816,61.85L257.539,61.855L258.262,61.964L258.984,61.969L259.707,62.076L260.43,62.029L261.152,62.09L261.875,62.028L262.598,62.017L263.32,62.173L264.043,62.186L264.766,62.098L265.488,62.141L266.211,62.047L266.934,61.856L267.656,61.926L268.379,61.883L269.102,61.672L269.824,61.737L270.547,61.608L271.27,61.58L271.992,61.27L272.715,61.352L273.438,61.12L274.16,62.357L274.883,67.079L275.605,71.38L276.328,75.923L277.051,80.328L277.773,84.83L278.496,88.76L279.219,89.023L279.941,89.745L280.664,90.054L281.387,90.401L282.109,90.614L282.832,90.675L283.555,90.754L284.277,91.195L285,90.979L285.723,91.03L286.445,90.828L287.168,90.791L287.891,90.545L288.613,90.453L289.336,90.06L290.059,89.74L290.781,89.383L291.504,88.977L292.227,88.491L292.949,87.883L293.672,87.559L294.395,86.972L295.117,86.542L295.84,85.719L296.563,85.061L297.285,84.075L298.008,83.475L298.73,82.55L299.453,81.979L300.176,81.121L300.898,80.147L301.621,79.281L302.344,78.355L303.066,77.324L303.789,76.223L304.512,75.379L305.234,74.719L305.957,73.554L306.68,72.534L307.402,71.512L308.125,70.556L308.848,69.451L309.57,68.249L310.293,67.563L311.016,66.163L311.738,65.101L312.461,64.401L313.184,63.159L313.906,62.199L314.629,61.269L315.352,60.187L316.074,59.176L316.797,58.192L317.52,57.401L318.242,56.254L318.965,55.423L319.688,54.398L320.41,53.372L321.133,52.498L321.855,51.703L322.578,50.902L323.301,49.958L324.023,49.101L324.746,48.266L325.469,47.404L326.191,46.564L326.914,45.942L327.637,45.161L328.359,44.474L329.082,43.732L329.805,42.85L330.527,42.2L331.25,41.632L331.973,40.914L332.695,40.284L333.418,39.595L334.141,39.077L334.863,38.491L335.586,37.896L336.309,37.368L337.031,36.804L337.754,36.415L338.477,35.752L339.199,35.278L339.922,34.73L340.645,34.347L341.367,33.84L342.09,33.467L342.813,33.034L343.535,32.563L344.258,32.27L344.98,31.742L345.703,31.408L346.426,31.028L347.148,30.749L347.871,30.393L348.594,30.03L349.316,29.68L350.039,29.364L350.762,29.103L351.484,28.87L352.207,28.503L352.93,28.283L353.652,28.002L354.375,27.786L355.098,27.493L355.82,27.273L356.543,27.066L357.266,26.808L357.988,26.592L358.711,26.433L359.434,26.233L360.156,26.003L360.879,25.857L361.602,25.629L362.324,25.5L363.047,25.314L363.77,25.134L364.492,24.995L365.215,24.805L365.938,24.678L366.66,24.552L367.383,24.42L368.105,24.25L368.828,24.16L369.551,24.061L370.273,23.904L370.996,23.786L371.719,23.701L372.441,23.564L373.164,23.481L373.887,23.383L374.609,23.303L375.332,23.21L376.055,23.106L376.777,23.037L377.5,22.957L378.223,22.839L378.945,22.759L379.668,22.674L380.391,22.597L381.113,22.562L381.836,22.48L382.559,22.39L383.281,22.36L384.004,22.287L384.727,22.241L385.449,22.184L386.172,22.123L386.895,22.064L387.617,22.021L388.34,21.966L389.063,21.92L389.785,21.873L390.508,21.837L391.23,21.796L391.953,21.724L392.676,21.68L393.398,21.668L394.121,21.615L394.844,21.596L395.566,21.552L396.289,21.51L397.012,21.489L397.734,21.467L398.457,21.43L399.18,21.407L399.902,21.381L400.625,21.344L401.348,21.306L402.07,21.297L402.793,21.267L403.516,21.238L404.238,21.226L404.961,21.191L405.684,21.182L406.406,21.173L407.129,21.125L407.852,21.115L408.574,21.123L409.297,21.08L410.02,21.071L410.742,21.066L411.465,21.051L412.188,21.018L412.91,21.019L413.633,20.985L414.355,20.983L415.078,20.978L415.801,20.95L416.523,20.96L417.246,20.936L417.969,20.935L418.691,20.919L419.414,20.905L420.137,20.894L420.859,20.883L421.582,20.876L422.305,20.868L423.027,20.858L423.75,20.853L424.473,20.84L425.195,20.834L425.918,20.817L426.641,20.821L427.363,20.824L428.086,20.817L428.809,20.808L429.531,20.788L430.254,20.789L430.977,20.792L431.699,20.775L432.422,20.785L433.145,20.773L433.867,20.783L434.59,20.768L435.313,20.76L436.035,20.752L436.758,20.745L437.48,20.753L438.203,20.751L438.926,20.741L439.648,20.728L440.371,20.738L441.094,20.737L441.816,20.727L442.539,20.719L443.262,20.725L443.984,20.712L444.707,20.715L445.43,20.717L446.152,20.712L446.875,20.711L447.598,20.701L448.32,20.707L449.043,20.707L449.766,20.702L450.488,20.7L451.211,20.7L451.934,20.697L452.656,20.693L453.379,20.686L454.102,20.689L454.824,20.688L455.547,20.686L456.27,20.68L456.992,20.679L457.715,20.68L458.438,20.677L459.16,20.678L459.883,20.678L460.605,20.674L461.328,20.675L462.051,20.673L462.773,20.674L463.496,20.672L464.219,20.668L464.941,20.669L465.664,20.661L466.387,20.668L467.109,20.667L467.832,20.666L468.555,20.664L469.277,20.659"/><g transform="translate(15,190) scale(1.7) rotate(-90)"><text>Drift</text></g><g transform="translate(315,395) scale(1.8)"><text></text></g><g transform="translate(0,350)" fill="none" font-size="10" font-family="sans-serif" text-anchor="middle"><path class="domain" stroke="currentColor" d="M100,6V0H470V6"/><g class="tick" opacity="1" transform="translate(136.96669666966696,0)"><line stroke="currentColor" y2="6"/><text fill="currentColor" y="9" dy="0.71em" font-size="20px"> </text></g><g class="tick" opacity="1" transform="translate(173.97039703970398,0)"><line stroke="currentColor" y2="6"/><text fill="currentColor" y="9" dy="0.71em" font-size="20px">20</text></g><g class="tick" opacity="1" transform="translate(210.97409740974098,0)"><line stroke="currentColor" y2="6"/><text fill="currentColor" y="9" dy="0.71em" font-size="20px"> </text></g><g class="tick" opacity="1" transform="translate(247.97779777977803,0)"><line stroke="currentColor" y2="6"/><text fill="currentColor" y="9" dy="0.71em" font-size="20px">40</text></g><g class="tick" opacity="1" transform="translate(284.981498149815,0)"><line stroke="currentColor" y2="6"/><text fill="currentColor" y="9" dy="0.71em" font-size="20px"> </text></g><g class="tick" opacity="1" transform="translate(321.985198519852,0)"><line stroke="currentColor" y2="6"/><text fill="currentColor" y="9" dy="0.71em" font-size="20px">60</text></g><g class="tick" opacity="1" transform="translate(358.988898889889,0)"><line stroke="currentColor" y2="6"/><text fill="currentColor" y="9" dy="0.71em" font-size="20px"> </text></g><g class="tick" opacity="1" transform="translate(395.992599259926,0)"><line stroke="currentColor" y2="6"/><text fill="currentColor" y="9" dy="0.71em" font-size="20px">80</text></g><g class="tick" opacity="1" transform="translate(432.996299629963,0)"><line stroke="currentColor" y2="6"/><text fill="currentColor" y="9" dy="0.71em" font-size="20px"> </text></g><g class="tick" opacity="1" transform="translate(470,0)"><line stroke="currentColor" y2="6"/><text fill="currentColor" y="9" dy="0.71em" font-size="20px">100</text></g></g><g transform="translate(100,0)" fill="none" font-size="10" font-family="sans-serif" text-anchor="end"><path class="domain" stroke="currentColor" d="M-6,350H0V20H-6"/><g class="tick" opacity="1" transform="translate(0,307.7643631193969)"><line stroke="currentColor" x2="-6"/><text fill="currentColor" x="-9" dy="0.32em" font-size="20px">0.35</text></g><g class="tick" opacity="1" transform="translate(0,264.69618085242286)"><line stroke="currentColor" x2="-6"/><text fill="currentColor" x="-9" dy="0.32em" font-size="20px">0.30</text></g><g class="tick" opacity="1" transform="translate(0,221.62799858544878)"><line stroke="currentColor" x2="-6"/><text fill="currentColor" x="-9" dy="0.32em" font-size="20px">0.25</text></g><g class="tick" opacity="1" transform="translate(0,178.55981631847473)"><line stroke="currentColor" x2="-6"/><text fill="currentColor" x="-9" dy="0.32em" font-size="20px">0.20</text></g><g class="tick" opacity="1" transform="translate(0,135.49163405150065)"><line stroke="currentColor" x2="-6"/><text fill="currentColor" x="-9" dy="0.32em" font-size="20px">0.15</text></g><g class="tick" opacity="1" transform="translate(0,92.42345178452663)"><line stroke="currentColor" x2="-6"/><text fill="currentColor" x="-9" dy="0.32em" font-size="20px">0.10</text></g><g class="tick" opacity="1" transform="translate(0,49.35526951755253)"><line stroke="currentColor" x2="-6"/><text fill="currentColor" x="-9" dy="0.32em" font-size="20px">0.05</text></g></g><circle cx="355" cy="150" r="8" style="fill: rgb(35, 23, 27);"/><circle cx="355" cy="175" r="8" style="fill: rgb(69, 105, 238);"/><circle cx="355" cy="200" r="8" style="fill: rgb(38, 188, 225);"/><circle cx="355" cy="225" r="8" style="fill: rgb(63, 243, 147);"/><circle cx="355" cy="250" r="8" style="fill: rgb(149, 251, 81);"/><circle cx="355" cy="275" r="8" style="fill: rgb(236, 209, 46);"/><circle cx="355" cy="300" r="8" style="fill: rgb(255, 130, 29);"/><circle cx="355" cy="325" r="8" style="fill: rgb(203, 47, 13);"/><text x="370" y="150" text-anchor="left" font-size="22" alignment-baseline="middle" style="fill: rgb(35, 23, 27);"> = 0</text><text x="370" y="175" text-anchor="left" font-size="22" alignment-baseline="middle" style="fill: rgb(69, 105, 238);"> = 0.22</text><text x="370" y="200" text-anchor="left" font-size="22" alignment-baseline="middle" style="fill: rgb(38, 188, 225);"> = 0.45</text><text x="370" y="225" text-anchor="left" font-size="22" alignment-baseline="middle" style="fill: rgb(63, 243, 147);"> = 0.67</text><text x="370" y="250" text-anchor="left" font-size="22" alignment-baseline="middle" style="fill: rgb(149, 251, 81);"> = 0.9</text><text x="370" y="275" text-anchor="left" font-size="22" alignment-baseline="middle" style="fill: rgb(236, 209, 46);"> = 1.12</text><text x="370" y="300" text-anchor="left" font-size="22" alignment-baseline="middle" style="fill: rgb(255, 130, 29);"> = 1.35</text><text x="370" y="325" text-anchor="left" font-size="22" alignment-baseline="middle" style="fill: rgb(203, 47, 13);"> = 1.57</text></svg>