<svg xmlns="http://www.w3.org/2000/svg" class="bg-white" width="500" height="400" viewBox="-10 -1 500 400"><path fill="none" stroke="rgb(35, 23, 27)" stroke-width="1.5" d="M100,59.233L100.723,59.561L101.445,59.332L102.168,59.607L102.891,59.648L103.613,59.807L104.336,60.051L105.059,59.938L105.781,60.194L106.504,60.255L107.227,60.358L107.949,60.764L108.672,60.672L109.395,60.91L110.117,61.027L110.84,61.283L111.563,61.351L112.285,61.437L113.008,61.651L113.73,61.812L114.453,61.895L115.176,62.139L115.898,62.381L116.621,62.526L117.344,62.657L118.066,62.865L118.789,63.037L119.512,63.106L120.234,63.39L120.957,63.447L121.68,63.709L122.402,63.896L123.125,64.182L123.848,64.613L124.57,64.702L125.293,64.665L126.016,65.065L126.738,65.158L127.461,65.493L128.184,65.736L128.906,66.051L129.629,66.142L130.352,66.266L131.074,66.71L131.797,67.038L132.52,67.177L133.242,67.383L133.965,67.84L134.688,68.045L135.41,68.277L136.133,68.523L136.855,68.873L137.578,69.159L138.301,69.432L139.023,69.873L139.746,70.249L140.469,70.456L141.191,70.748L141.914,71.057L142.637,71.243L143.359,71.76L144.082,72.131L144.805,72.51L145.527,72.751L146.25,73.286L146.973,73.796L147.695,74.086L148.418,74.323L149.141,74.783L149.863,75.028L150.586,75.306L151.309,75.994L152.031,76.393L152.754,76.833L153.477,77.314L154.199,77.682L154.922,78.34L155.645,78.649L156.367,79.208L157.09,79.71L157.813,80.248L158.535,80.77L159.258,81.322L159.98,81.875L160.703,82.394L161.426,82.812L162.148,83.481L162.871,84.093L163.594,84.753L164.316,85.431L165.039,85.896L165.762,86.384L166.484,87.12L167.207,87.756L167.93,88.579L168.652,89.21L169.375,89.928L170.098,90.475L170.82,91.17L171.543,92.044L172.266,92.871L172.988,93.735L173.711,94.527L174.434,95.235L175.156,96.087L175.879,96.938L176.602,97.845L177.324,98.626L178.047,99.589L178.77,100.305L179.492,101.528L180.215,102.51L180.938,103.287L181.66,104.425L182.383,105.484L183.105,106.38L183.828,107.416L184.551,108.532L185.273,109.835L185.996,110.733L186.719,111.87L187.441,113.266L188.164,114.312L188.887,115.613L189.609,116.805L190.332,118.134L191.055,119.372L191.777,120.625L192.5,122.1L193.223,123.478L193.945,125.004L194.668,126.468L195.391,127.663L196.113,129.361L196.836,130.918L197.559,132.512L198.281,134.1L199.004,135.782L199.727,137.543L200.449,139.358L201.172,141.225L201.895,143.018L202.617,144.965L203.34,146.837L204.063,148.839L204.785,151.127L205.508,153.089L206.23,155.214L206.953,157.342L207.676,159.696L208.398,162.213L209.121,164.378L209.844,166.878L210.566,169.277L211.289,172.024L212.012,174.709L212.734,177.551L213.457,180.287L214.18,183.142L214.902,186.098L215.625,188.86L216.348,192.215L217.07,195.502L217.793,198.63L218.516,201.988L219.238,205.531L219.961,209.107L220.684,212.749L221.406,216.343L222.129,220.209L222.852,224.067L223.574,227.962L224.297,232.116L225.02,236.137L225.742,240.343L226.465,244.475L227.188,248.77L227.91,253.156L228.633,257.439L229.355,261.553L230.078,266.023L230.801,270.436L231.523,274.736L232.246,279.015L232.969,283.38L233.691,287.649L234.414,291.752L235.137,295.998L235.859,300.19L236.582,304.307L237.305,308.028L238.027,311.93L238.75,315.668L239.473,319.216L240.195,322.587L240.918,325.182L241.641,328.37L242.363,331.245L243.086,333.944L243.809,336.377L244.531,339.008L245.254,341.017L245.977,342.82L246.699,344.421L247.422,346.059L248.145,347.389L248.867,348.242L249.59,349.087L250.313,349.605L251.035,350L251.758,349.924L252.48,349.8L253.203,349.484L253.926,348.826L254.648,348.051L255.371,346.874L256.094,345.387L256.816,344.095L257.539,342.265L258.262,340.282L258.984,338.088L259.707,335.77L260.43,333.213L261.152,330.448L261.875,328.057L262.598,324.299L263.32,321.497L264.043,318.016L264.766,314.449L265.488,310.601L266.211,306.702L266.934,302.521L267.656,298.277L268.379,293.898L269.102,289.323L269.824,284.922L270.547,279.973L271.27,275.107L271.992,270.067L272.715,264.956L273.438,259.61L274.16,254.105L274.883,248.858L275.605,243.331L276.328,237.586L277.051,231.829L277.773,226.073L278.496,220.224L279.219,214.144L279.941,207.997L280.664,201.985L281.387,195.776L282.109,189.567L282.832,183.188L283.555,176.766L284.277,170.276L285,164.165L285.723,157.808L286.445,152.022L287.168,146.028L287.891,140.203L288.613,134.699L289.336,129.023L290.059,123.676L290.781,118.556L291.504,113.386L292.227,108.36L292.949,103.531L293.672,98.76L294.395,94.369L295.117,89.977L295.84,85.503L296.563,81.309L297.285,77.302L298.008,73.572L298.73,69.669L299.453,66.026L300.176,62.729L300.898,59.252L301.621,55.931L302.344,52.824L303.066,50.558L303.789,53.064L304.512,55.638L305.234,58.277L305.957,61.132L306.68,63.957L307.402,67.08L308.125,65.642L308.848,64.261L309.57,62.613L310.293,61.383L311.016,59.859L311.738,58.276L312.461,57.145L313.184,55.871L313.906,54.562L314.629,53.627L315.352,52.301L316.074,51.437L316.797,50.186L317.52,48.966L318.242,48.295L318.965,47.076L319.688,46.307L320.41,44.999L321.133,44.554L321.855,43.605L322.578,42.689L323.301,42.072L324.023,41.31L324.746,40.605L325.469,40.094L326.191,39.301L326.914,38.553L327.637,37.931L328.359,37.141L329.082,36.847L329.805,36.246L330.527,35.698L331.25,35.006L331.973,34.35L332.695,34.208L333.418,33.717L334.141,33.469L334.863,32.395L335.586,32.308L336.309,32.032L337.031,31.624L337.754,31.07L338.477,30.922L339.199,30.273L339.922,30.241L340.645,29.62L341.367,29.542L342.09,29.043L342.813,28.721L343.535,28.733L344.258,28.077L344.98,28.026L345.703,27.96L346.426,27.643L347.148,27.45L347.871,27.195L348.594,26.52L349.316,26.268L350.039,26.634L350.762,26.426L351.484,25.975L352.207,25.846L352.93,25.476L353.652,25.515L354.375,25.792L355.098,24.517L355.82,24.996L356.543,24.974L357.266,25.034L357.988,24.586L358.711,24.173L359.434,24.471L360.156,24.036L360.879,24.297L361.602,24.083L362.324,24.181L363.047,23.365L363.77,24.052L364.492,23.469L365.215,23.254L365.938,23.221L366.66,22.845L367.383,23.364L368.105,23.144L368.828,23.117L369.551,23.228L370.273,23.499L370.996,22.875L371.719,22.964L372.441,22.984L373.164,23.137L373.887,22.746L374.609,23.786L375.332,23.31L376.055,22.532L376.777,21.991L377.5,21.665L378.223,22.006L378.945,22.689L379.668,21.984L380.391,22.045L381.113,22.359L381.836,22.126L382.559,22.22L383.281,21.897L384.004,21.522L384.727,22.863L385.449,22.392L386.172,22.838L386.895,22.315L387.617,22.96L388.34,23.852L389.063,22.847L389.785,22.401L390.508,22.584L391.23,22.308L391.953,23.888L392.676,22.953L393.398,22.959L394.121,23.481L394.844,23.284L395.566,23.003L396.289,22.987L397.012,22.765L397.734,23.196L398.457,23.067L399.18,23.517L399.902,22.002L400.625,25.83L401.348,25.482L402.07,24.636L402.793,24.791L403.516,23.915L404.238,24.922L404.961,26.549L405.684,26.99L406.406,28.12L407.129,27.507L407.852,29.891L408.574,28.115L409.297,32.189L410.02,30.775L410.742,27.139L411.465,29.236L412.188,28.501L412.91,31.679L413.633,31.358L414.355,32.764L415.078,34.654L415.801,36.486L416.523,35.467L417.246,35.84L417.969,36.255L418.691,41.002L419.414,35.979L420.137,38.887L420.859,38.798L421.582,37.377L422.305,39.302L423.027,37.94L423.75,40.635L424.473,40.698L425.195,38.819L425.918,37.96L426.641,38.884L427.363,40.19L428.086,38.934L428.809,37.593L429.531,35.724L430.254,36.111L430.977,35.034L431.699,35.5L432.422,35.648L433.145,33.296L433.867,32.534L434.59,33.873L435.313,31.572L436.035,31.739L436.758,30.988L437.48,30.823L438.203,31.588L438.926,29.616L439.648,28.611L440.371,30.027L441.094,27.024L441.816,28.617L442.539,28.053L443.262,27.637L443.984,27.878L444.707,26.636L445.43,26.939L446.152,26.378L446.875,25.675L447.598,25.359L448.32,25.194L449.043,25.298L449.766,24.639L450.488,24.618L451.211,23.833L451.934,23.015L452.656,24.159L453.379,22.74L454.102,23.169L454.824,23.255L455.547,23.318L456.27,23.226L456.992,22.738L457.715,22.639L458.438,22.158L459.16,22.534L459.883,22.293L460.605,21.979L461.328,21.778L462.051,22.191L462.773,22.098L463.496,21.728L464.219,21.872L464.941,21.83L465.664,21.781L466.387,21.341L467.109,21.434L467.832,21.604L468.555,21.112L469.277,21.18"/><path fill="none" stroke="rgb(69, 105, 238)" stroke-width="1.5" d="M100,58.955L100.723,58.858L101.445,59.059L102.168,59.31L102.891,59.37L103.613,59.603L104.336,59.637L105.059,59.855L105.781,59.82L106.504,59.984L107.227,60.149L107.949,60.312L108.672,60.457L109.395,60.693L110.117,60.645L110.84,60.892L111.563,60.989L112.285,61.024L113.008,61.317L113.73,61.468L114.453,61.723L115.176,61.691L115.898,61.828L116.621,62.062L117.344,62.273L118.066,62.412L118.789,62.655L119.512,62.928L120.234,62.966L120.957,63.258L121.68,63.403L122.402,63.644L123.125,63.711L123.848,63.968L124.57,64.201L125.293,64.418L126.016,64.734L126.738,64.987L127.461,65.125L128.184,65.306L128.906,65.51L129.629,65.738L130.352,65.954L131.074,66.327L131.797,66.463L132.52,66.761L133.242,67.019L133.965,67.371L134.688,67.541L135.41,67.85L136.133,68.091L136.855,68.25L137.578,68.691L138.301,69.018L139.023,69.228L139.746,69.772L140.469,69.999L141.191,70.393L141.914,70.599L142.637,70.856L143.359,71.187L144.082,71.733L144.805,71.886L145.527,72.387L146.25,72.671L146.973,72.99L147.695,73.408L148.418,73.786L149.141,74.196L149.863,74.478L150.586,74.975L151.309,75.507L152.031,75.944L152.754,76.354L153.477,76.695L154.199,77.282L154.922,77.633L155.645,77.987L156.367,78.5L157.09,79.091L157.813,79.453L158.535,80.112L159.258,80.565L159.98,81.121L160.703,81.734L161.426,82.243L162.148,82.755L162.871,83.24L163.594,83.936L164.316,84.533L165.039,85.007L165.762,85.883L166.484,86.379L167.207,86.905L167.93,87.625L168.652,88.262L169.375,88.948L170.098,89.71L170.82,90.424L171.543,91.088L172.266,91.803L172.988,92.541L173.711,93.342L174.434,94.203L175.156,94.856L175.879,95.545L176.602,96.584L177.324,97.383L178.047,98.196L178.77,99.043L179.492,100.156L180.215,100.951L180.938,101.682L181.66,102.835L182.383,103.98L183.105,105.064L183.828,106.085L184.551,106.949L185.273,108.204L185.996,109.115L186.719,110.155L187.441,111.161L188.164,112.466L188.887,113.631L189.609,114.702L190.332,115.999L191.055,117.451L191.777,118.563L192.5,119.898L193.223,121.238L193.945,122.751L194.668,123.993L195.391,125.684L196.113,126.822L196.836,128.651L197.559,129.964L198.281,131.453L199.004,133.167L199.727,134.887L200.449,136.521L201.172,138.038L201.895,139.73L202.617,141.694L203.34,143.712L204.063,145.483L204.785,147.353L205.508,149.307L206.23,151.328L206.953,153.409L207.676,155.472L208.398,157.569L209.121,160.102L209.844,162.117L210.566,164.491L211.289,166.823L212.012,169.5L212.734,171.743L213.457,174.377L214.18,176.884L214.902,179.7L215.625,182.357L216.348,185.25L217.07,188.278L217.793,191.058L218.516,194.001L219.238,196.949L219.961,200.202L220.684,203.579L221.406,206.72L222.129,209.867L222.852,213.199L223.574,216.725L224.297,219.974L225.02,223.856L225.742,227.206L226.465,230.696L227.188,234.701L227.91,238.247L228.633,241.905L229.355,245.487L230.078,249.567L230.801,253.211L231.523,256.949L232.246,260.791L232.969,264.2L233.691,268.063L234.414,271.257L235.137,275.072L235.859,278.954L236.582,282.416L237.305,285.901L238.027,289.244L238.75,292.15L239.473,295.352L240.195,298.763L240.918,301.523L241.641,304.083L242.363,306.366L243.086,308.787L243.809,311.359L244.531,313.158L245.254,315.397L245.977,317.497L246.699,318.947L247.422,319.993L248.145,321.078L248.867,322.675L249.59,323.094L250.313,323.55L251.035,324.342L251.758,324.398L252.48,324.403L253.203,325.096L253.926,323.916L254.648,323.992L255.371,322.643L256.094,321.992L256.816,320.754L257.539,319.473L258.262,317.946L258.984,316.403L259.707,314.271L260.43,312.211L261.152,309.934L261.875,307.174L262.598,304.834L263.32,301.705L264.043,298.973L264.766,295.547L265.488,292.345L266.211,288.703L266.934,285.212L267.656,281.527L268.379,278.359L269.102,274.1L269.824,270.257L270.547,265.908L271.27,261.699L271.992,257.237L272.715,252.538L273.438,247.847L274.16,242.921L274.883,237.975L275.605,233.19L276.328,228.063L277.051,222.568L277.773,217.659L278.496,212.334L279.219,206.744L279.941,201.294L280.664,195.929L281.387,190.012L282.109,184.235L282.832,178.461L283.555,172.812L284.277,166.641L285,160.864L285.723,155.07L286.445,149.447L287.168,144.067L287.891,138.654L288.613,133.206L289.336,127.998L290.059,122.936L290.781,118.163L291.504,113.193L292.227,108.485L292.949,104.064L293.672,99.212L294.395,95.033L295.117,90.772L295.84,86.602L296.563,82.831L297.285,78.739L298.008,74.674L298.73,71.421L299.453,67.968L300.176,64.479L300.898,61.194L301.621,57.884L302.344,54.878L303.066,56.495L303.789,59.147L304.512,61.385L305.234,64.513L305.957,67.379L306.68,70.349L307.402,69.77L308.125,68.031L308.848,66.563L309.57,65.033L310.293,63.986L311.016,62.439L311.738,60.994L312.461,59.669L313.184,58.196L313.906,56.851L314.629,55.446L315.352,54.454L316.074,53.462L316.797,52.274L317.52,51.076L318.242,50.188L318.965,49.113L319.688,48.269L320.41,47.087L321.133,46.397L321.855,45.252L322.578,44.501L323.301,44.074L324.023,42.987L324.746,42.651L325.469,41.48L326.191,41.09L326.914,40.225L327.637,39.666L328.359,38.748L329.082,38.412L329.805,37.474L330.527,36.95L331.25,36.594L331.973,35.438L332.695,35.285L333.418,34.772L334.141,34.739L334.863,34.149L335.586,33.366L336.309,32.947L337.031,32.499L337.754,32.101L338.477,31.161L339.199,31.414L339.922,31.314L340.645,30.659L341.367,30.546L342.09,29.371L342.813,29.631L343.535,28.945L344.258,28.414L344.98,28.749L345.703,28.406L346.426,28.692L347.148,28.194L347.871,27.378L348.594,27.116L349.316,27.456L350.039,26.91L350.762,26.8L351.484,26.113L352.207,26.307L352.93,26.078L353.652,25.392L354.375,25.027L355.098,24.786L355.82,25.321L356.543,26.05L357.266,24.58L357.988,25.6L358.711,25.854L359.434,24.218L360.156,24.348L360.879,24.08L361.602,25.08L362.324,23.887L363.047,23.639L363.77,24.187L364.492,23.226L365.215,24.997L365.938,23.924L366.66,24.168L367.383,23.412L368.105,23.38L368.828,23.15L369.551,23.944L370.273,22.567L370.996,22.12L371.719,23.543L372.441,21.961L373.164,23.005L373.887,22.908L374.609,21.709L375.332,21.939L376.055,21.727L376.777,23.804L377.5,23.289L378.223,23.484L378.945,22.435L379.668,22.785L380.391,22.385L381.113,22.157L381.836,21.801L382.559,22.733L383.281,21.655L384.004,22.359L384.727,23.786L385.449,21.738L386.172,24.793L386.895,22.031L387.617,22.751L388.34,22.13L389.063,21.909L389.785,24.235L390.508,20.857L391.23,23.463L391.953,22.364L392.676,22.702L393.398,22.013L394.121,22.102L394.844,21.897L395.566,22.884L396.289,23.681L397.012,22.747L397.734,23.468L398.457,22.808L399.18,24.137L399.902,21.762L400.625,23.991L401.348,23.651L402.07,23.105L402.793,26.039L403.516,27.262L404.238,26.958L404.961,24.274L405.684,26.69L406.406,26.105L407.129,25.256L407.852,27.004L408.574,28.548L409.297,27.996L410.02,30.164L410.742,29.465L411.465,29.868L412.188,30.222L412.91,30.157L413.633,33.258L414.355,30.016L415.078,30.093L415.801,32.72L416.523,31.919L417.246,34.5L417.969,36.85L418.691,34.246L419.414,37.318L420.137,35.425L420.859,36.133L421.582,34.228L422.305,34.97L423.027,37.5L423.75,35.347L424.473,37.193L425.195,37.785L425.918,35.306L426.641,37.127L427.363,34.975L428.086,37.915L428.809,36.934L429.531,33.883L430.254,34.427L430.977,34.146L431.699,33.083L432.422,32.522L433.145,32.815L433.867,32.509L434.59,33.545L435.313,32.148L436.035,31.256L436.758,31.146L437.48,29.537L438.203,28.131L438.926,28.869L439.648,30.086L440.371,27.848L441.094,27.763L441.816,27.508L442.539,27.49L443.262,27.097L443.984,27.097L444.707,26.784L445.43,26.466L446.152,24.758L446.875,25.273L447.598,24.673L448.32,24.922L449.043,24.437L449.766,24.056L450.488,23.069L451.211,23.449L451.934,23.628L452.656,23.223L453.379,22.996L454.102,22.88L454.824,23.243L455.547,22.942L456.27,22.552L456.992,22.284L457.715,22.325L458.438,21.863L459.16,21.794L459.883,22.025L460.605,22.16L461.328,21.524L462.051,21.898L462.773,21.611L463.496,21.758L464.219,21.563L464.941,21.852L465.664,21.593L466.387,21.501L467.109,21.565L467.832,21.259L468.555,21.36L469.277,21.335"/><path fill="none" stroke="rgb(38, 188, 225)" stroke-width="1.5" d="M100,58.067L100.723,58.237L101.445,58.335L102.168,58.398L102.891,58.664L103.613,58.528L104.336,58.787L105.059,58.993L105.781,58.845L106.504,59.315L107.227,59.275L107.949,59.526L108.672,59.559L109.395,59.565L110.117,59.82L110.84,59.872L111.563,60.186L112.285,60.139L113.008,60.402L113.73,60.75L114.453,60.718L115.176,60.824L115.898,61.077L116.621,61.183L117.344,61.146L118.066,61.278L118.789,61.634L119.512,61.85L120.234,62.109L120.957,62.251L121.68,62.481L122.402,62.618L123.125,62.644L123.848,62.848L124.57,63.153L125.293,63.414L126.016,63.458L126.738,63.796L127.461,63.979L128.184,64.174L128.906,64.437L129.629,64.563L130.352,64.85L131.074,64.995L131.797,65.14L132.52,65.6L133.242,65.741L133.965,66.048L134.688,66.184L135.41,66.509L136.133,66.678L136.855,66.998L137.578,67.261L138.301,67.557L139.023,67.858L139.746,68.149L140.469,68.234L141.191,68.712L141.914,69.219L142.637,69.377L143.359,69.627L144.082,70.002L144.805,70.275L145.527,70.538L146.25,70.873L146.973,71.351L147.695,71.612L148.418,72.048L149.141,72.369L149.863,72.864L150.586,73.174L151.309,73.44L152.031,74.035L152.754,74.36L153.477,74.587L154.199,75.199L154.922,75.489L155.645,76.044L156.367,76.491L157.09,77.006L157.813,77.359L158.535,77.891L159.258,78.338L159.98,79.066L160.703,79.358L161.426,79.8L162.148,80.311L162.871,80.755L163.594,81.278L164.316,82.035L165.039,82.505L165.762,83.109L166.484,83.579L167.207,84.232L167.93,84.809L168.652,85.515L169.375,85.836L170.098,86.833L170.82,87.226L171.543,88.036L172.266,88.671L172.988,89.203L173.711,90.023L174.434,90.77L175.156,91.615L175.879,92.308L176.602,92.864L177.324,93.733L178.047,94.478L178.77,95.51L179.492,96.022L180.215,96.814L180.938,97.837L181.66,98.546L182.383,99.583L183.105,100.448L183.828,101.453L184.551,102.299L185.273,103.174L185.996,104.255L186.719,105.227L187.441,106.116L188.164,107.342L188.887,108.34L189.609,109.236L190.332,110.295L191.055,111.665L191.777,112.848L192.5,113.915L193.223,115.124L193.945,116.285L194.668,117.38L195.391,118.812L196.113,120.092L196.836,121.319L197.559,122.625L198.281,123.667L199.004,125.36L199.727,126.821L200.449,128.24L201.172,129.652L201.895,131.272L202.617,132.868L203.34,134.204L204.063,135.878L204.785,137.383L205.508,138.913L206.23,140.813L206.953,142.508L207.676,144.232L208.398,145.775L209.121,147.767L209.844,149.32L210.566,151.233L211.289,153.19L212.012,155.205L212.734,157.15L213.457,159.179L214.18,160.988L214.902,163.12L215.625,165.1L216.348,167.405L217.07,169.361L217.793,171.384L218.516,173.707L219.238,175.91L219.961,178.356L220.684,180.547L221.406,182.905L222.129,184.965L222.852,187.112L223.574,189.667L224.297,192.064L225.02,194.728L225.742,196.963L226.465,199.402L227.188,201.899L227.91,204.154L228.633,206.669L229.355,209.128L230.078,211.255L230.801,213.881L231.523,216.143L232.246,218.617L232.969,221.122L233.691,223.772L234.414,225.554L235.137,228.355L235.859,230.734L236.582,232.626L237.305,235.158L238.027,237.383L238.75,239.095L239.473,241.394L240.195,243.709L240.918,245.234L241.641,247.296L242.363,249.375L243.086,251.176L243.809,252.485L244.531,253.915L245.254,255.503L245.977,256.939L246.699,258.224L247.422,259.615L248.145,260.429L248.867,261.248L249.59,261.977L250.313,262.919L251.035,263.476L251.758,263.785L252.48,263.949L253.203,264.679L253.926,264.46L254.648,264.797L255.371,264.063L256.094,264.17L256.816,263.243L257.539,262.998L258.262,262.518L258.984,261.399L259.707,260.068L260.43,259.176L261.152,258.637L261.875,256.741L262.598,255.533L263.32,253.883L264.043,252.379L264.766,250.701L265.488,248.968L266.211,246.329L266.934,244.469L267.656,242.275L268.379,239.542L269.102,237.042L269.824,234.234L270.547,230.965L271.27,228.396L271.992,225.252L272.715,221.728L273.438,218.437L274.16,215.038L274.883,211.254L275.605,207.569L276.328,203.842L277.051,200.173L277.773,196.058L278.496,191.99L279.219,187.939L279.941,183.461L280.664,179.228L281.387,174.889L282.109,170.365L282.832,165.449L283.555,160.872L284.277,155.767L285,151.439L285.723,146.102L286.445,141.952L287.168,137.403L287.891,132.627L288.613,128.037L289.336,123.989L290.059,119.643L290.781,115.052L291.504,110.901L292.227,107.046L292.949,102.972L293.672,98.715L294.395,95.085L295.117,91.151L295.84,87.636L296.563,83.989L297.285,80.282L298.008,76.61L298.73,73.414L299.453,69.777L300.176,66.844L300.898,64.318L301.621,66.932L302.344,69.017L303.066,72.033L303.789,74.724L304.512,77.236L305.234,80.168L305.957,78.468L306.68,76.993L307.402,75.13L308.125,73.437L308.848,71.999L309.57,70.524L310.293,68.767L311.016,67.26L311.738,66.027L312.461,64.649L313.184,63.413L313.906,62.046L314.629,60.643L315.352,59.342L316.074,58.038L316.797,56.847L317.52,55.612L318.242,54.293L318.965,53.395L319.688,52.112L320.41,50.94L321.133,49.883L321.855,49.031L322.578,48.519L323.301,47.543L324.023,46.73L324.746,45.435L325.469,44.851L326.191,44L326.914,43.096L327.637,42.292L328.359,41.722L329.082,41.245L329.805,40.266L330.527,39.653L331.25,39.141L331.973,38.553L332.695,37.747L333.418,37.329L334.141,36.545L334.863,36.427L335.586,35.754L336.309,34.987L337.031,34.539L337.754,34.053L338.477,33.609L339.199,33.082L339.922,32.858L340.645,32.577L341.367,31.974L342.09,31.793L342.813,31.244L343.535,30.58L344.258,29.924L344.98,30.019L345.703,30.419L346.426,29.543L347.148,29.369L347.871,28.955L348.594,28.471L349.316,29.471L350.039,28.096L350.762,28.462L351.484,27.828L352.207,26.589L352.93,27.813L353.652,26.341L354.375,27.547L355.098,26.225L355.82,25.903L356.543,26.651L357.266,25.95L357.988,25.938L358.711,25.194L359.434,25.288L360.156,25.761L360.879,25.124L361.602,25.092L362.324,25.322L363.047,24.763L363.77,24.024L364.492,24.352L365.215,24.18L365.938,23.605L366.66,24.022L367.383,24.216L368.105,23.324L368.828,23.999L369.551,23.054L370.273,24.274L370.996,22.732L371.719,23.251L372.441,23.739L373.164,22.896L373.887,23.34L374.609,21.396L375.332,22.966L376.055,22.344L376.777,23.624L377.5,22.143L378.223,22.954L378.945,22.997L379.668,24.836L380.391,22.814L381.113,22.934L381.836,22.752L382.559,22.823L383.281,22.259L384.004,22.51L384.727,23.36L385.449,21.399L386.172,22.904L386.895,22.321L387.617,21.236L388.34,22.538L389.063,23.101L389.785,22.908L390.508,20L391.23,23.071L391.953,23.622L392.676,22.223L393.398,22.171L394.121,22.557L394.844,23.243L395.566,23.305L396.289,21.481L397.012,22.829L397.734,23.218L398.457,22.404L399.18,21.135L399.902,22.362L400.625,22.492L401.348,21.992L402.07,24.474L402.793,23.16L403.516,25.464L404.238,25.559L404.961,27.362L405.684,24.813L406.406,23.001L407.129,23.029L407.852,26.504L408.574,25.321L409.297,22.724L410.02,26.15L410.742,23.136L411.465,26.673L412.188,25.819L412.91,24.66L413.633,25.677L414.355,26.382L415.078,30.222L415.801,28.117L416.523,28.184L417.246,29.02L417.969,27.111L418.691,30.836L419.414,29.396L420.137,27.306L420.859,31.33L421.582,28.666L422.305,29.418L423.027,32.079L423.75,29.542L424.473,30.33L425.195,29.989L425.918,31.241L426.641,31.242L427.363,29.922L428.086,30.668L428.809,28.991L429.531,31.978L430.254,29.821L430.977,29.72L431.699,29.053L432.422,28.822L433.145,28.303L433.867,26.843L434.59,27.815L435.313,28.264L436.035,29.715L436.758,27.412L437.48,27.3L438.203,27.542L438.926,27.176L439.648,26.772L440.371,26.775L441.094,26.313L441.816,25.549L442.539,25.217L443.262,24.561L443.984,24.791L444.707,25.643L445.43,23.345L446.152,23.66L446.875,24.473L447.598,23.983L448.32,23.274L449.043,24.102L449.766,23.172L450.488,23.174L451.211,22.895L451.934,22.612L452.656,22.035L453.379,22.887L454.102,22.425L454.824,22.039L455.547,21.889L456.27,22.063L456.992,22.182L457.715,21.708L458.438,22.063L459.16,21.76L459.883,21.878L460.605,21.654L461.328,21.42L462.051,21.631L462.773,21.262L463.496,21.604L464.219,21.626L464.941,21.675L465.664,21.237L466.387,21.181L467.109,21.171L467.832,21.094L468.555,21.101L469.277,21.057"/><path fill="none" stroke="rgb(63, 243, 147)" stroke-width="1.5" d="M100,56.83L100.723,56.741L101.445,56.991L102.168,57.07L102.891,57.243L103.613,57.236L104.336,57.394L105.059,57.524L105.781,57.593L106.504,57.686L107.227,57.807L107.949,57.947L108.672,58.072L109.395,58.079L110.117,58.501L110.84,58.439L111.563,58.559L112.285,58.636L113.008,58.82L113.73,59.031L114.453,59.01L115.176,59.263L115.898,59.223L116.621,59.411L117.344,59.664L118.066,59.84L118.789,59.991L119.512,60.189L120.234,60.165L120.957,60.454L121.68,60.516L122.402,60.665L123.125,60.691L123.848,60.958L124.57,61.065L125.293,61.41L126.016,61.572L126.738,61.803L127.461,61.955L128.184,62.062L128.906,62.164L129.629,62.405L130.352,62.754L131.074,62.957L131.797,63.161L132.52,63.245L133.242,63.653L133.965,63.73L134.688,63.914L135.41,64.137L136.133,64.414L136.855,64.759L137.578,64.943L138.301,65.116L139.023,65.445L139.746,65.688L140.469,65.795L141.191,65.949L141.914,66.411L142.637,66.773L143.359,67.095L144.082,67.258L144.805,67.446L145.527,67.964L146.25,68.179L146.973,68.312L147.695,68.762L148.418,69.017L149.141,69.391L149.863,69.679L150.586,70.179L151.309,70.276L152.031,70.766L152.754,71.099L153.477,71.319L154.199,71.812L154.922,72.071L155.645,72.554L156.367,72.783L157.09,73.215L157.813,73.741L158.535,74.11L159.258,74.508L159.98,74.875L160.703,75.41L161.426,75.674L162.148,76.289L162.871,76.868L163.594,77.169L164.316,77.662L165.039,78.176L165.762,78.754L166.484,79.036L167.207,79.604L167.93,80.053L168.652,80.64L169.375,81.214L170.098,81.589L170.82,82.32L171.543,82.675L172.266,83.353L172.988,83.934L173.711,84.427L174.434,85.287L175.156,85.621L175.879,86.165L176.602,87.082L177.324,87.705L178.047,88.312L178.77,89.076L179.492,89.407L180.215,90.305L180.938,91.072L181.66,91.77L182.383,92.371L183.105,93.299L183.828,93.862L184.551,94.659L185.273,95.595L185.996,96.208L186.719,97.091L187.441,97.883L188.164,98.824L188.887,99.576L189.609,100.514L190.332,101.245L191.055,102.082L191.777,102.995L192.5,104.128L193.223,105.001L193.945,105.709L194.668,106.74L195.391,107.666L196.113,108.774L196.836,109.63L197.559,110.745L198.281,111.879L199.004,113.067L199.727,114.088L200.449,114.99L201.172,116.09L201.895,117.208L202.617,118.208L203.34,119.404L204.063,120.709L204.785,121.915L205.508,122.774L206.23,124.184L206.953,125.414L207.676,126.587L208.398,127.817L209.121,129.062L209.844,130.183L210.566,131.703L211.289,132.971L212.012,134.259L212.734,135.539L213.457,136.852L214.18,138.291L214.902,139.404L215.625,140.816L216.348,142L217.07,143.576L217.793,145.032L218.516,146.11L219.238,147.575L219.961,149.028L220.684,150.594L221.406,151.88L222.129,152.988L222.852,154.414L223.574,156.014L224.297,157.118L225.02,158.496L225.742,159.842L226.465,161.336L227.188,162.64L227.91,164.075L228.633,165.338L229.355,166.848L230.078,167.884L230.801,169.379L231.523,170.703L232.246,171.781L232.969,173.345L233.691,174.558L234.414,175.533L235.137,177.004L235.859,178.115L236.582,179.162L237.305,180.381L238.027,181.681L238.75,182.633L239.473,183.968L240.195,184.903L240.918,186.263L241.641,187.495L242.363,188.275L243.086,189.236L243.809,189.94L244.531,190.989L245.254,192.2L245.977,192.769L246.699,193.658L247.422,194.441L248.145,195.517L248.867,196.183L249.59,196.572L250.313,197.338L251.035,197.992L251.758,198.596L252.48,199.113L253.203,199.525L253.926,200.038L254.648,200.269L255.371,200.747L256.094,201.266L256.816,201.368L257.539,201.445L258.262,201.957L258.984,201.851L259.707,201.489L260.43,201.803L261.152,201.762L261.875,201.606L262.598,201.144L263.32,200.391L264.043,200.334L264.766,199.569L265.488,198.957L266.211,198.305L266.934,197.149L267.656,196.094L268.379,194.853L269.102,193.483L269.824,192.21L270.547,190.569L271.27,188.779L271.992,186.763L272.715,184.745L273.438,182.52L274.16,180.616L274.883,178.465L275.605,176.149L276.328,173.798L277.051,171.025L277.773,168.534L278.496,165.725L279.219,162.491L279.941,159.848L280.664,157.123L281.387,153.666L282.109,150.555L282.832,147.216L283.555,143.24L284.277,139.875L285,136.506L285.723,132.648L286.445,129.286L287.168,125.47L287.891,121.974L288.613,118.358L289.336,115.186L290.059,111.299L290.781,108.14L291.504,104.499L292.227,100.925L292.949,97.569L293.672,94.288L294.395,91.085L295.117,88.01L295.84,84.685L296.563,81.361L297.285,78.363L298.008,75.723L298.73,77.428L299.453,79.825L300.176,82.707L300.898,85.03L301.621,87.708L302.344,90.514L303.066,90.022L303.789,88.227L304.512,86.561L305.234,84.87L305.957,83.178L306.68,81.516L307.402,79.77L308.125,78.152L308.848,76.382L309.57,75.439L310.293,73.466L311.016,72.19L311.738,70.649L312.461,69.089L313.184,67.843L313.906,66.291L314.629,65.101L315.352,63.813L316.074,62.388L316.797,61.222L317.52,60.059L318.242,58.878L318.965,57.63L319.688,56.887L320.41,55.494L321.133,54.389L321.855,53.534L322.578,52.204L323.301,51.24L324.023,50.441L324.746,49.385L325.469,48.584L326.191,47.682L326.914,46.585L327.637,46.288L328.359,45.195L329.082,44.691L329.805,43.649L330.527,42.824L331.25,42.76L331.973,41.716L332.695,41.169L333.418,39.947L334.141,39.581L334.863,39.064L335.586,38.44L336.309,38.174L337.031,37.276L337.754,36.921L338.477,36.41L339.199,35.855L339.922,35.311L340.645,34.754L341.367,34.358L342.09,34.131L342.813,33.42L343.535,33.442L344.258,32.758L344.98,32.259L345.703,31.983L346.426,31.493L347.148,31.287L347.871,30.937L348.594,30.309L349.316,30.302L350.039,29.627L350.762,29.32L351.484,29.161L352.207,28.767L352.93,28.487L353.652,28.758L354.375,27.696L355.098,28.069L355.82,28.12L356.543,28.425L357.266,27.668L357.988,26.379L358.711,26.691L359.434,26.454L360.156,26.469L360.879,25.262L361.602,26.734L362.324,25.786L363.047,25.93L363.77,25.581L364.492,25.805L365.215,25.852L365.938,24.522L366.66,24.942L367.383,25.378L368.105,24.863L368.828,24.819L369.551,24.725L370.273,23.003L370.996,24.812L371.719,23.724L372.441,24.189L373.164,22.801L373.887,23.59L374.609,25.06L375.332,23.19L376.055,23.083L376.777,23.21L377.5,23.827L378.223,23.826L378.945,22.698L379.668,21.184L380.391,23.057L381.113,23.038L381.836,22.548L382.559,23.455L383.281,23.189L384.004,22.671L384.727,21.177L385.449,23.534L386.172,20.879L386.895,22.24L387.617,22.551L388.34,20.99L389.063,22.609L389.785,22.794L390.508,21.93L391.23,22.165L391.953,22.674L392.676,21.743L393.398,21.106L394.121,22.451L394.844,20.946L395.566,21.235L396.289,21.491L397.012,23.523L397.734,23.303L398.457,22.73L399.18,20.442L399.902,21.882L400.625,22.119L401.348,20.382L402.07,20.895L402.793,22.332L403.516,24.181L404.238,22.789L404.961,23.025L405.684,21.973L406.406,23.347L407.129,21.941L407.852,21.461L408.574,22.37L409.297,21.079L410.02,24.352L410.742,20.69L411.465,23.859L412.188,24.238L412.91,23.534L413.633,23.832L414.355,23.883L415.078,25.074L415.801,20.877L416.523,24.198L417.246,25.652L417.969,21.807L418.691,22.199L419.414,23.407L420.137,23.944L420.859,23.674L421.582,21.436L422.305,28.085L423.027,25.806L423.75,26.3L424.473,22.581L425.195,23.708L425.918,23.521L426.641,22.607L427.363,23.246L428.086,22.638L428.809,23.95L429.531,25.563L430.254,23.961L430.977,24L431.699,23.233L432.422,23.318L433.145,21.64L433.867,24.636L434.59,23.205L435.313,22.564L436.035,23.537L436.758,22.995L437.48,24.255L438.203,22.619L438.926,22.17L439.648,23.104L440.371,23.204L441.094,22.261L441.816,21.174L442.539,22.157L443.262,22.342L443.984,22.798L444.707,22.253L445.43,22.206L446.152,22.933L446.875,21.969L447.598,21.321L448.32,21.361L449.043,22.579L449.766,21.843L450.488,21.548L451.211,21.726L451.934,21.492L452.656,21.36L453.379,21.459L454.102,21.123L454.824,21.188L455.547,21.22L456.27,21.494L456.992,21.457L457.715,20.979L458.438,20.87L459.16,20.751L459.883,21.321L460.605,21.041L461.328,20.934L462.051,21.099L462.773,21.146L463.496,21.107L464.219,21.039L464.941,21.021L465.664,21.021L466.387,21.021L467.109,20.887L467.832,21.056L468.555,20.832L469.277,20.79"/><path fill="none" stroke="rgb(149, 251, 81)" stroke-width="1.5" d="M100,54.751L100.723,54.883L101.445,54.908L102.168,54.96L102.891,54.96L103.613,55.191L104.336,55.194L105.059,55.102L105.781,55.304L106.504,55.421L107.227,55.62L107.949,55.625L108.672,55.888L109.395,55.936L110.117,56.088L110.84,56.038L111.563,56.059L112.285,56.178L113.008,56.335L113.73,56.419L114.453,56.582L115.176,56.693L115.898,56.846L116.621,56.876L117.344,57.083L118.066,57.234L118.789,57.182L119.512,57.468L120.234,57.517L120.957,57.708L121.68,57.883L122.402,57.978L123.125,58.191L123.848,58.221L124.57,58.236L125.293,58.471L126.016,58.629L126.738,58.746L127.461,58.935L128.184,59.091L128.906,59.316L129.629,59.357L130.352,59.561L131.074,59.704L131.797,60.032L132.52,60.191L133.242,60.208L133.965,60.373L134.688,60.618L135.41,60.924L136.133,60.901L136.855,61.131L137.578,61.417L138.301,61.578L139.023,61.689L139.746,62.067L140.469,62.189L141.191,62.273L141.914,62.603L142.637,62.871L143.359,63.059L144.082,63.296L144.805,63.535L145.527,63.771L146.25,63.765L146.973,64.154L147.695,64.414L148.418,64.792L149.141,65.051L149.863,65.179L150.586,65.603L151.309,65.888L152.031,65.899L152.754,66.318L153.477,66.669L154.199,66.859L154.922,67.27L155.645,67.36L156.367,67.901L157.09,68.085L157.813,68.372L158.535,68.664L159.258,69.039L159.98,69.132L160.703,69.72L161.426,69.907L162.148,70.436L162.871,70.661L163.594,71.142L164.316,71.539L165.039,71.766L165.762,72.268L166.484,72.631L167.207,73.044L167.93,73.401L168.652,73.733L169.375,74.042L170.098,74.483L170.82,75.109L171.543,75.382L172.266,75.994L172.988,76.314L173.711,76.769L174.434,77.041L175.156,77.459L175.879,78.012L176.602,78.537L177.324,79.032L178.047,79.461L178.77,80.29L179.492,80.482L180.215,80.96L180.938,81.614L181.66,82.127L182.383,82.672L183.105,82.936L183.828,83.713L184.551,84.302L185.273,84.77L185.996,85.42L186.719,85.889L187.441,86.592L188.164,86.833L188.887,87.567L189.609,88.24L190.332,88.741L191.055,89.419L191.777,90.072L192.5,90.65L193.223,91.189L193.945,91.911L194.668,92.584L195.391,93.279L196.113,93.775L196.836,94.455L197.559,95.136L198.281,95.969L199.004,96.621L199.727,97.386L200.449,98.056L201.172,98.525L201.895,99.354L202.617,99.966L203.34,100.589L204.063,101.485L204.785,101.831L205.508,102.939L206.23,103.545L206.953,104.36L207.676,105.159L208.398,105.803L209.121,106.589L209.844,107.079L210.566,108.042L211.289,108.76L212.012,109.437L212.734,110.149L213.457,110.806L214.18,111.716L214.902,112.498L215.625,113.086L216.348,113.816L217.07,114.535L217.793,115.4L218.516,116.022L219.238,116.948L219.961,117.338L220.684,118.482L221.406,118.96L222.129,119.793L222.852,120.522L223.574,121.016L224.297,121.786L225.02,122.742L225.742,123.095L226.465,124.166L227.188,124.81L227.91,125.545L228.633,126.013L229.355,127.071L230.078,127.728L230.801,128.288L231.523,129.191L232.246,130.087L232.969,130.731L233.691,131.352L234.414,131.992L235.137,133.232L235.859,133.7L236.582,134.149L237.305,134.776L238.027,135.804L238.75,136.395L239.473,137.415L240.195,138.111L240.918,138.965L241.641,139.459L242.363,140.237L243.086,140.933L243.809,141.592L244.531,142.341L245.254,143.414L245.977,143.948L246.699,144.477L247.422,145.201L248.145,145.878L248.867,146.796L249.59,147.182L250.313,148.037L251.035,148.629L251.758,149.4L252.48,149.832L253.203,150.194L253.926,150.866L254.648,151.54L255.371,152.021L256.094,152.321L256.816,152.856L257.539,153.179L258.262,153.758L258.984,154.493L259.707,154.519L260.43,155.142L261.152,155.351L261.875,155.396L262.598,155.898L263.32,156.278L264.043,156.188L264.766,156.365L265.488,155.886L266.211,155.775L266.934,155.874L267.656,155.11L268.379,154.543L269.102,154.05L269.824,153.376L270.547,152.305L271.27,151.858L271.992,150.672L272.715,149.639L273.438,148.828L274.16,147.414L274.883,146L275.605,144.977L276.328,143.519L277.051,141.981L277.773,140.194L278.496,138.69L279.219,136.939L279.941,134.973L280.664,132.883L281.387,130.742L282.109,128.472L282.832,126.117L283.555,123.482L284.277,121.028L285,118.416L285.723,116.036L286.445,113.153L287.168,110.677L287.891,108.006L288.613,105.195L289.336,102.071L290.059,99.473L290.781,97.192L291.504,94.23L292.227,91.424L292.949,88.95L293.672,86.006L294.395,84.161L295.117,87.012L295.84,89.698L296.563,92.608L297.285,95.473L298.008,98.147L298.73,101.355L299.453,99.962L300.176,98L300.898,96.296L301.621,94.516L302.344,92.945L303.066,91.176L303.789,89.517L304.512,87.914L305.234,86.306L305.957,84.769L306.68,83.227L307.402,81.605L308.125,80.131L308.848,78.404L309.57,76.985L310.293,75.618L311.016,73.811L311.738,72.552L312.461,71.294L313.184,69.842L313.906,68.584L314.629,67.314L315.352,65.751L316.074,64.595L316.797,63.354L317.52,61.952L318.242,60.834L318.965,59.689L319.688,58.507L320.41,57.438L321.133,56.327L321.855,55.433L322.578,54.401L323.301,53.282L324.023,52.266L324.746,51.325L325.469,50.334L326.191,49.567L326.914,48.73L327.637,47.895L328.359,47.131L329.082,46.219L329.805,45.526L330.527,44.635L331.25,43.919L331.973,43.141L332.695,42.381L333.418,41.776L334.141,41.142L334.863,40.484L335.586,39.907L336.309,39.092L337.031,38.702L337.754,38.035L338.477,37.479L339.199,36.806L339.922,36.496L340.645,36.009L341.367,35.529L342.09,34.927L342.813,34.616L343.535,34.134L344.258,33.724L344.98,33.381L345.703,32.877L346.426,32.533L347.148,32.068L347.871,31.711L348.594,31.374L349.316,31.054L350.039,30.656L350.762,30.34L351.484,30.07L352.207,29.744L352.93,29.413L353.652,29.168L354.375,28.786L355.098,28.629L355.82,28.466L356.543,28.188L357.266,27.843L357.988,27.536L358.711,27.392L359.434,27.279L360.156,26.95L360.879,26.737L361.602,26.532L362.324,26.376L363.047,26.242L363.77,26.131L364.492,25.857L365.215,25.592L365.938,25.553L366.66,25.257L367.383,25.348L368.105,25.092L368.828,24.838L369.551,24.652L370.273,24.567L370.996,24.475L371.719,24.365L372.441,24.244L373.164,24.133L373.887,24.044L374.609,23.93L375.332,23.773L376.055,23.665L376.777,23.634L377.5,23.584L378.223,23.364L378.945,23.394L379.668,23.251L380.391,23.17L381.113,23.06L381.836,22.942L382.559,22.933L383.281,22.758L384.004,22.637L384.727,22.755L385.449,22.622L386.172,22.538L386.895,22.4L387.617,22.524L388.34,22.306L389.063,22.201L389.785,22.243L390.508,22.256L391.23,22.199L391.953,22.022L392.676,22.075L393.398,22.027L394.121,21.949L394.844,21.976L395.566,21.895L396.289,21.785L397.012,21.775L397.734,21.709L398.457,21.799L399.18,21.689L399.902,21.586L400.625,21.635L401.348,21.628L402.07,21.591L402.793,21.505L403.516,21.492L404.238,21.522L404.961,21.371L405.684,21.389L406.406,21.356L407.129,21.372L407.852,21.369L408.574,21.328L409.297,21.4L410.02,21.327L410.742,21.22L411.465,21.201L412.188,21.226L412.91,21.225L413.633,21.139L414.355,21.111L415.078,21.101L415.801,21.146L416.523,21.146L417.246,21.062L417.969,21.108L418.691,21.072L419.414,21.076L420.137,21.101L420.859,21.076L421.582,21.073L422.305,20.997L423.027,20.957L423.75,20.965L424.473,20.998L425.195,20.959L425.918,20.964L426.641,20.988L427.363,20.988L428.086,20.914L428.809,20.887L429.531,20.913L430.254,20.935L430.977,20.96L431.699,20.898L432.422,20.924L433.145,20.929L433.867,20.911L434.59,20.926L435.313,20.862L436.035,20.886L436.758,20.837L437.48,20.847L438.203,20.856L438.926,20.855L439.648,20.848L440.371,20.849L441.094,20.848L441.816,20.813L442.539,20.811L443.262,20.864L443.984,20.859L444.707,20.811L445.43,20.812L446.152,20.845L446.875,20.82L447.598,20.8L448.32,20.822L449.043,20.827L449.766,20.817L450.488,20.797L451.211,20.787L451.934,20.81L452.656,20.795L453.379,20.804L454.102,20.804L454.824,20.767L455.547,20.778L456.27,20.76L456.992,20.791L457.715,20.807L458.438,20.787L459.16,20.771L459.883,20.781L460.605,20.766L461.328,20.765L462.051,20.766L462.773,20.778L463.496,20.777L464.219,20.768L464.941,20.755L465.664,20.767L466.387,20.765L467.109,20.757L467.832,20.744L468.555,20.761L469.277,20.756"/><path fill="none" stroke="rgb(236, 209, 46)" stroke-width="1.5" d="M100,51.984L100.723,52.29L101.445,52.323L102.168,52.377L102.891,52.451L103.613,52.536L104.336,52.682L105.059,52.619L105.781,52.602L106.504,52.846L107.227,52.809L107.949,52.907L108.672,52.952L109.395,52.888L110.117,53.097L110.84,53.174L111.563,53.247L112.285,53.339L113.008,53.367L113.73,53.546L114.453,53.569L115.176,53.647L115.898,53.785L116.621,53.651L117.344,53.811L118.066,53.912L118.789,53.995L119.512,54.229L120.234,54.137L120.957,54.42L121.68,54.538L122.402,54.716L123.125,54.754L123.848,54.77L124.57,55.023L125.293,54.994L126.016,55.059L126.738,55.034L127.461,55.277L128.184,55.473L128.906,55.569L129.629,55.721L130.352,55.638L131.074,55.949L131.797,55.997L132.52,56.107L133.242,56.231L133.965,56.258L134.688,56.673L135.41,56.635L136.133,56.855L136.855,57.12L137.578,57.092L138.301,57.361L139.023,57.437L139.746,57.499L140.469,57.56L141.191,57.757L141.914,57.979L142.637,58.255L143.359,58.272L144.082,58.511L144.805,58.75L145.527,58.745L146.25,58.922L146.973,58.929L147.695,59.309L148.418,59.402L149.141,59.749L149.863,59.821L150.586,59.92L151.309,60.098L152.031,60.233L152.754,60.587L153.477,60.847L154.199,61.034L154.922,61.232L155.645,61.389L156.367,61.541L157.09,61.87L157.813,61.873L158.535,62.185L159.258,62.644L159.98,62.627L160.703,62.892L161.426,63.139L162.148,63.425L162.871,63.577L163.594,63.884L164.316,63.988L165.039,64.5L165.762,64.574L166.484,64.643L167.207,65.089L167.93,65.338L168.652,65.569L169.375,65.798L170.098,66.259L170.82,66.548L171.543,66.856L172.266,67.026L172.988,67.407L173.711,67.529L174.434,67.782L175.156,68.069L175.879,68.394L176.602,68.518L177.324,68.915L178.047,69.215L178.77,69.57L179.492,69.84L180.215,70.159L180.938,70.718L181.66,70.914L182.383,71.151L183.105,71.524L183.828,71.948L184.551,72.076L185.273,72.465L185.996,72.839L186.719,73.276L187.441,73.426L188.164,73.816L188.887,74.172L189.609,74.512L190.332,74.868L191.055,75.18L191.777,75.624L192.5,75.932L193.223,76.487L193.945,76.597L194.668,77.015L195.391,77.585L196.113,77.788L196.836,78.276L197.559,78.55L198.281,79.056L199.004,79.371L199.727,79.738L200.449,80.128L201.172,80.486L201.895,80.794L202.617,81.153L203.34,81.447L204.063,82.069L204.785,82.481L205.508,82.999L206.23,83.318L206.953,83.592L207.676,84.304L208.398,84.606L209.121,85.086L209.844,85.449L210.566,86.07L211.289,86.166L212.012,86.832L212.734,87.316L213.457,87.669L214.18,88.16L214.902,88.811L215.625,89.127L216.348,89.574L217.07,90.126L217.793,90.635L218.516,91.131L219.238,91.452L219.961,91.895L220.684,92.654L221.406,92.957L222.129,93.51L222.852,94.198L223.574,94.881L224.297,95.163L225.02,95.742L225.742,96.096L226.465,96.715L227.188,97.257L227.91,97.725L228.633,98.304L229.355,98.798L230.078,99.584L230.801,99.967L231.523,100.554L232.246,101.276L232.969,101.755L233.691,102.201L234.414,102.637L235.137,103.507L235.859,104.079L236.582,104.497L237.305,105.219L238.027,105.718L238.75,106.356L239.473,106.827L240.195,107.443L240.918,108.116L241.641,108.605L242.363,109.42L243.086,109.611L243.809,110.427L244.531,111.234L245.254,111.488L245.977,112.02L246.699,112.729L247.422,113.272L248.145,113.522L248.867,114.34L249.59,114.951L250.313,115.277L251.035,115.845L251.758,116.467L252.48,116.885L253.203,117.232L253.926,118.078L254.648,118.705L255.371,119.16L256.094,119.64L256.816,119.905L257.539,120.601L258.262,120.973L258.984,121.345L259.707,121.753L260.43,122.35L261.152,122.655L261.875,122.956L262.598,123.108L263.32,123.766L264.043,124.082L264.766,124.263L265.488,124.499L266.211,124.403L266.934,124.866L267.656,124.683L268.379,124.664L269.102,124.265L269.824,124.244L270.547,123.67L271.27,123.088L271.992,122.634L272.715,121.886L273.438,121.783L274.16,120.879L274.883,120.572L275.605,119.711L276.328,118.847L277.051,118.074L277.773,117.132L278.496,115.665L279.219,114.935L279.941,113.634L280.664,112.446L281.387,110.867L282.109,109.471L282.832,107.82L283.555,106.009L284.277,104.11L285,102.377L285.723,100.435L286.445,98.386L287.168,96.648L287.891,94.111L288.613,92.056L289.336,90.289L290.059,88.978L290.781,92.154L291.504,95.28L292.227,98.728L292.949,101.991L293.672,105.163L294.395,108.086L295.117,106.839L295.84,105.508L296.563,104.292L297.285,102.672L298.008,101.488L298.73,99.982L299.453,98.238L300.176,96.638L300.898,95.371L301.621,93.864L302.344,92.375L303.066,90.815L303.789,89.192L304.512,87.927L305.234,85.988L305.957,84.708L306.68,83.199L307.402,81.741L308.125,80.336L308.848,78.905L309.57,77.447L310.293,75.609L311.016,74.594L311.738,73.096L312.461,71.587L313.184,70.345L313.906,68.927L314.629,67.502L315.352,66.337L316.074,64.949L316.797,63.585L317.52,62.42L318.242,61.347L318.965,60.059L319.688,58.906L320.41,57.773L321.133,56.813L321.855,55.692L322.578,54.594L323.301,53.614L324.023,52.696L324.746,51.734L325.469,50.592L326.191,49.755L326.914,48.819L327.637,48.018L328.359,47.2L329.082,46.243L329.805,45.372L330.527,44.713L331.25,43.925L331.973,43.164L332.695,42.429L333.418,41.797L334.141,40.98L334.863,40.406L335.586,39.826L336.309,39.243L337.031,38.556L337.754,37.985L338.477,37.415L339.199,36.859L339.922,36.349L340.645,35.776L341.367,35.288L342.09,34.793L342.813,34.335L343.535,33.959L344.258,33.436L344.98,33.004L345.703,32.601L346.426,32.132L347.148,31.835L347.871,31.478L348.594,31.121L349.316,30.744L350.039,30.385L350.762,30.048L351.484,29.714L352.207,29.323L352.93,29.155L353.652,28.841L354.375,28.558L355.098,28.259L355.82,28.073L356.543,27.795L357.266,27.527L357.988,27.339L358.711,27.148L359.434,26.794L360.156,26.659L360.879,26.45L361.602,26.252L362.324,26.061L363.047,25.815L363.77,25.726L364.492,25.518L365.215,25.38L365.938,25.179L366.66,25.022L367.383,24.886L368.105,24.709L368.828,24.637L369.551,24.445L370.273,24.328L370.996,24.179L371.719,24.07L372.441,23.973L373.164,23.862L373.887,23.748L374.609,23.585L375.332,23.552L376.055,23.456L376.777,23.339L377.5,23.259L378.223,23.147L378.945,23.096L379.668,23.006L380.391,22.95L381.113,22.873L381.836,22.794L382.559,22.692L383.281,22.641L384.004,22.554L384.727,22.477L385.449,22.453L386.172,22.342L386.895,22.275L387.617,22.259L388.34,22.206L389.063,22.153L389.785,22.085L390.508,22.061L391.23,21.97L391.953,21.956L392.676,21.912L393.398,21.843L394.121,21.835L394.844,21.791L395.566,21.761L396.289,21.716L397.012,21.654L397.734,21.648L398.457,21.586L399.18,21.564L399.902,21.526L400.625,21.527L401.348,21.468L402.07,21.459L402.793,21.433L403.516,21.396L404.238,21.39L404.961,21.357L405.684,21.346L406.406,21.308L407.129,21.289L407.852,21.27L408.574,21.239L409.297,21.232L410.02,21.211L410.742,21.205L411.465,21.163L412.188,21.173L412.91,21.139L413.633,21.128L414.355,21.107L415.078,21.104L415.801,21.079L416.523,21.072L417.246,21.059L417.969,21.043L418.691,21.045L419.414,21.019L420.137,21.027L420.859,20.996L421.582,20.99L422.305,20.992L423.027,20.981L423.75,20.97L424.473,20.959L425.195,20.954L425.918,20.947L426.641,20.93L427.363,20.925L428.086,20.919L428.809,20.914L429.531,20.903L430.254,20.906L430.977,20.886L431.699,20.874L432.422,20.887L433.145,20.881L433.867,20.873L434.59,20.87L435.313,20.858L436.035,20.868L436.758,20.856L437.48,20.848L438.203,20.858L438.926,20.839L439.648,20.833L440.371,20.827L441.094,20.826L441.816,20.836L442.539,20.826L443.262,20.827L443.984,20.823L444.707,20.812L445.43,20.805L446.152,20.809L446.875,20.806L447.598,20.809L448.32,20.803L449.043,20.793L449.766,20.795L450.488,20.793L451.211,20.794L451.934,20.782L452.656,20.788L453.379,20.78L454.102,20.781L454.824,20.775L455.547,20.78L456.27,20.773L456.992,20.773L457.715,20.775L458.438,20.778L459.16,20.774L459.883,20.773L460.605,20.769L461.328,20.767L462.051,20.765L462.773,20.763L463.496,20.766L464.219,20.766L464.941,20.766L465.664,20.762L466.387,20.757L467.109,20.757L467.832,20.754L468.555,20.755L469.277,20.753"/><path fill="none" stroke="rgb(255, 130, 29)" stroke-width="1.5" d="M100,49.375L100.723,49.615L101.445,49.691L102.168,49.546L102.891,49.588L103.613,49.588L104.336,49.709L105.059,49.775L105.781,49.717L106.504,49.721L107.227,49.882L107.949,49.998L108.672,49.931L109.395,50.051L110.117,49.973L110.84,50.116L111.563,50.049L112.285,50.093L113.008,50.291L113.73,50.175L114.453,50.406L115.176,50.47L115.898,50.412L116.621,50.533L117.344,50.651L118.066,50.667L118.789,50.754L119.512,50.878L120.234,50.741L120.957,50.81L121.68,50.846L122.402,51.11L123.125,51.116L123.848,51.123L124.57,51.171L125.293,51.306L126.016,51.388L126.738,51.381L127.461,51.441L128.184,51.494L128.906,51.686L129.629,51.737L130.352,51.832L131.074,51.92L131.797,52.016L132.52,51.957L133.242,52.099L133.965,52.236L134.688,52.277L135.41,52.269L136.133,52.457L136.855,52.468L137.578,52.444L138.301,52.653L139.023,52.918L139.746,52.761L140.469,53.064L141.191,53.109L141.914,53.243L142.637,53.273L143.359,53.233L144.082,53.436L144.805,53.78L145.527,53.547L146.25,53.85L146.973,54.025L147.695,54.053L148.418,54.083L149.141,54.004L149.863,54.371L150.586,54.6L151.309,54.526L152.031,54.764L152.754,54.787L153.477,54.921L154.199,54.985L154.922,54.994L155.645,55.463L156.367,55.545L157.09,55.622L157.813,55.664L158.535,55.809L159.258,56.036L159.98,56.167L160.703,56.221L161.426,56.49L162.148,56.515L162.871,56.615L163.594,56.722L164.316,56.92L165.039,57.278L165.762,57.282L166.484,57.575L167.207,57.566L167.93,57.855L168.652,58.054L169.375,57.914L170.098,58.247L170.82,58.469L171.543,58.6L172.266,58.845L172.988,59.061L173.711,59.225L174.434,59.415L175.156,59.44L175.879,59.69L176.602,59.916L177.324,60.174L178.047,60.183L178.77,60.537L179.492,60.635L180.215,60.972L180.938,60.967L181.66,61.345L182.383,61.459L183.105,61.618L183.828,62.022L184.551,62.16L185.273,62.408L185.996,62.638L186.719,62.719L187.441,63.11L188.164,63.302L188.887,63.543L189.609,63.802L190.332,64.087L191.055,64.261L191.777,64.566L192.5,64.835L193.223,64.993L193.945,65.198L194.668,65.535L195.391,65.783L196.113,66.121L196.836,66.197L197.559,66.662L198.281,66.807L199.004,67.205L199.727,67.472L200.449,67.734L201.172,68.097L201.895,68.472L202.617,68.585L203.34,68.959L204.063,69.239L204.785,69.684L205.508,69.839L206.23,70.005L206.953,70.458L207.676,70.925L208.398,71.239L209.121,71.374L209.844,71.751L210.566,72.272L211.289,72.494L212.012,73.052L212.734,73.289L213.457,73.554L214.18,73.902L214.902,74.433L215.625,74.797L216.348,74.936L217.07,75.541L217.793,75.848L218.516,76.22L219.238,76.519L219.961,77.031L220.684,77.373L221.406,77.57L222.129,78.235L222.852,78.605L223.574,79.164L224.297,79.374L225.02,79.849L225.742,80.078L226.465,80.463L227.188,81.055L227.91,81.596L228.633,81.893L229.355,82.346L230.078,82.809L230.801,83.217L231.523,83.505L232.246,84L232.969,84.308L233.691,84.898L234.414,85.395L235.137,85.785L235.859,86.211L236.582,86.85L237.305,87.046L238.027,87.484L238.75,88.002L239.473,88.687L240.195,89.084L240.918,89.581L241.641,89.899L242.363,90.527L243.086,91.04L243.809,91.295L244.531,91.987L245.254,92.347L245.977,92.814L246.699,93.418L247.422,93.942L248.145,94.489L248.867,94.683L249.59,95.11L250.313,95.791L251.035,96.326L251.758,96.777L252.48,97.081L253.203,97.786L253.926,98.234L254.648,98.455L255.371,99.172L256.094,99.425L256.816,100.134L257.539,100.55L258.262,100.655L258.984,101.372L259.707,101.948L260.43,102.478L261.152,103.094L261.875,103.386L262.598,103.889L263.32,104.306L264.043,104.497L264.766,104.911L265.488,105.353L266.211,105.401L266.934,105.827L267.656,105.817L268.379,105.75L269.102,106.055L269.824,105.825L270.547,105.92L271.27,105.604L271.992,105.572L272.715,105.495L273.438,104.83L274.16,104.372L274.883,103.974L275.605,103.41L276.328,102.929L277.051,102.634L277.773,102.07L278.496,101.289L279.219,100.379L279.941,99.533L280.664,98.714L281.387,97.306L282.109,96.48L282.832,95.084L283.555,93.683L284.277,92.47L285,91.068L285.723,89.31L286.445,92.823L287.168,96.319L287.891,100.784L288.613,104.297L289.336,107.9L290.059,111.521L290.781,111.786L291.504,110.849L292.227,109.778L292.949,108.859L293.672,107.636L294.395,106.461L295.117,105.348L295.84,104.114L296.563,102.82L297.285,101.646L298.008,100.159L298.73,98.827L299.453,97.576L300.176,96.121L300.898,94.667L301.621,93.126L302.344,91.765L303.066,90.421L303.789,88.757L304.512,87.421L305.234,86.025L305.957,84.854L306.68,83.036L307.402,81.809L308.125,80.13L308.848,78.674L309.57,77.444L310.293,75.915L311.016,74.632L311.738,73.143L312.461,71.935L313.184,70.457L313.906,69.348L314.629,67.947L315.352,66.603L316.074,65.434L316.797,63.949L317.52,62.993L318.242,61.592L318.965,60.421L319.688,59.311L320.41,58.226L321.133,57.209L321.855,55.947L322.578,54.918L323.301,53.946L324.023,52.833L324.746,51.896L325.469,50.953L326.191,50.116L326.914,49.247L327.637,48.378L328.359,47.397L329.082,46.648L329.805,45.728L330.527,44.984L331.25,44.167L331.973,43.4L332.695,42.684L333.418,41.932L334.141,41.323L334.863,40.618L335.586,39.928L336.309,39.231L337.031,38.722L337.754,38.123L338.477,37.603L339.199,36.893L339.922,36.407L340.645,35.948L341.367,35.401L342.09,34.898L342.813,34.408L343.535,33.977L344.258,33.502L344.98,33.196L345.703,32.743L346.426,32.247L347.148,31.85L347.871,31.477L348.594,31.132L349.316,30.848L350.039,30.519L350.762,30.046L351.484,29.827L352.207,29.546L352.93,29.151L353.652,28.854L354.375,28.555L355.098,28.403L355.82,28.096L356.543,27.823L357.266,27.562L357.988,27.291L358.711,27.081L359.434,26.829L360.156,26.679L360.879,26.488L361.602,26.241L362.324,26.042L363.047,25.878L363.77,25.741L364.492,25.542L365.215,25.372L365.938,25.231L366.66,25.02L367.383,24.922L368.105,24.732L368.828,24.621L369.551,24.464L370.273,24.331L370.996,24.23L371.719,24.022L372.441,23.98L373.164,23.868L373.887,23.758L374.609,23.667L375.332,23.516L376.055,23.414L376.777,23.335L377.5,23.262L378.223,23.14L378.945,23.035L379.668,22.982L380.391,22.894L381.113,22.811L381.836,22.74L382.559,22.672L383.281,22.624L384.004,22.563L384.727,22.455L385.449,22.437L386.172,22.366L386.895,22.261L387.617,22.258L388.34,22.208L389.063,22.154L389.785,22.096L390.508,22.034L391.23,21.956L391.953,21.945L392.676,21.909L393.398,21.862L394.121,21.828L394.844,21.765L395.566,21.743L396.289,21.702L397.012,21.673L397.734,21.629L398.457,21.598L399.18,21.56L399.902,21.532L400.625,21.529L401.348,21.488L402.07,21.421L402.793,21.42L403.516,21.376L404.238,21.366L404.961,21.352L405.684,21.335L406.406,21.298L407.129,21.278L407.852,21.247L408.574,21.234L409.297,21.233L410.02,21.197L410.742,21.194L411.465,21.186L412.188,21.159L412.91,21.135L413.633,21.122L414.355,21.104L415.078,21.078L415.801,21.083L416.523,21.078L417.246,21.057L417.969,21.043L418.691,21.029L419.414,21.018L420.137,21.013L420.859,21.005L421.582,20.999L422.305,20.986L423.027,20.968L423.75,20.96L424.473,20.966L425.195,20.952L425.918,20.941L426.641,20.943L427.363,20.926L428.086,20.924L428.809,20.917L429.531,20.917L430.254,20.906L430.977,20.905L431.699,20.893L432.422,20.877L433.145,20.871L433.867,20.876L434.59,20.871L435.313,20.866L436.035,20.846L436.758,20.856L437.48,20.853L438.203,20.841L438.926,20.84L439.648,20.839L440.371,20.835L441.094,20.833L441.816,20.826L442.539,20.825L443.262,20.824L443.984,20.811L444.707,20.816L445.43,20.812L446.152,20.807L446.875,20.801L447.598,20.804L448.32,20.802L449.043,20.798L449.766,20.794L450.488,20.795L451.211,20.787L451.934,20.782L452.656,20.788L453.379,20.783L454.102,20.783L454.824,20.782L455.547,20.782L456.27,20.777L456.992,20.772L457.715,20.78L458.438,20.773L459.16,20.768L459.883,20.767L460.605,20.769L461.328,20.768L462.051,20.77L462.773,20.763L463.496,20.764L464.219,20.762L464.941,20.758L465.664,20.759L466.387,20.757L467.109,20.756L467.832,20.76L468.555,20.757L469.277,20.755"/><path fill="none" stroke="rgb(203, 47, 13)" stroke-width="1.5" d="M100,48.388L100.723,48.385L101.445,48.453L102.168,48.374L102.891,48.546L103.613,48.404L104.336,48.364L105.059,48.54L105.781,48.486L106.504,48.543L107.227,48.524L107.949,48.727L108.672,48.721L109.395,48.711L110.117,48.807L110.84,48.91L111.563,48.966L112.285,48.998L113.008,49.012L113.73,49.181L114.453,49.04L115.176,49.011L115.898,49.217L116.621,49.136L117.344,49.138L118.066,49.181L118.789,49.375L119.512,49.453L120.234,49.545L120.957,49.556L121.68,49.608L122.402,49.667L123.125,49.679L123.848,49.664L124.57,49.731L125.293,49.882L126.016,49.859L126.738,49.929L127.461,50.051L128.184,50.181L128.906,50.163L129.629,50.049L130.352,50.325L131.074,50.294L131.797,50.475L132.52,50.585L133.242,50.474L133.965,50.682L134.688,50.595L135.41,50.733L136.133,50.658L136.855,50.884L137.578,51.015L138.301,50.968L139.023,51.246L139.746,51.178L140.469,51.262L141.191,51.357L141.914,51.291L142.637,51.432L143.359,51.47L144.082,51.652L144.805,51.66L145.527,51.865L146.25,51.836L146.973,51.965L147.695,52.231L148.418,52.24L149.141,52.411L149.863,52.379L150.586,52.504L151.309,52.733L152.031,52.745L152.754,52.709L153.477,52.934L154.199,52.914L154.922,53.128L155.645,53.253L156.367,53.22L157.09,53.389L157.813,53.438L158.535,53.498L159.258,53.742L159.98,53.786L160.703,53.813L161.426,54.103L162.148,54.182L162.871,54.354L163.594,54.48L164.316,54.591L165.039,54.908L165.762,54.928L166.484,55.078L167.207,55.219L167.93,55.197L168.652,55.426L169.375,55.378L170.098,55.701L170.82,55.911L171.543,55.949L172.266,56.262L172.988,56.133L173.711,56.454L174.434,56.544L175.156,56.698L175.879,56.813L176.602,57.055L177.324,57.295L178.047,57.34L178.77,57.592L179.492,57.809L180.215,57.941L180.938,58.123L181.66,58.248L182.383,58.425L183.105,58.647L183.828,58.611L184.551,59.095L185.273,59.201L185.996,59.44L186.719,59.532L187.441,59.953L188.164,60.001L188.887,60.03L189.609,60.41L190.332,60.623L191.055,60.808L191.777,60.976L192.5,61.249L193.223,61.473L193.945,61.805L194.668,61.97L195.391,62.176L196.113,62.363L196.836,62.646L197.559,62.844L198.281,63.197L199.004,63.319L199.727,63.397L200.449,63.634L201.172,63.975L201.895,64.355L202.617,64.486L203.34,64.749L204.063,65.141L204.785,65.416L205.508,65.775L206.23,65.966L206.953,66.055L207.676,66.509L208.398,66.937L209.121,67.024L209.844,67.387L210.566,67.662L211.289,67.934L212.012,68.222L212.734,68.465L213.457,68.942L214.18,69.095L214.902,69.475L215.625,69.62L216.348,70.205L217.07,70.364L217.793,70.657L218.516,71.181L219.238,71.485L219.961,71.741L220.684,72.101L221.406,72.436L222.129,72.89L222.852,73.088L223.574,73.545L224.297,73.907L225.02,74.086L225.742,74.596L226.465,74.736L227.188,75.278L227.91,75.857L228.633,76.033L229.355,76.382L230.078,76.798L230.801,77.25L231.523,77.53L232.246,78.039L232.969,78.4L233.691,78.929L234.414,79.337L235.137,79.672L235.859,80.152L236.582,80.471L237.305,80.929L238.027,81.339L238.75,81.906L239.473,82.25L240.195,82.766L240.918,83.118L241.641,83.621L242.363,84.189L243.086,84.366L243.809,84.944L244.531,85.346L245.254,85.782L245.977,86.406L246.699,86.538L247.422,87.15L248.145,87.549L248.867,88.089L249.59,88.56L250.313,89.078L251.035,89.53L251.758,89.971L252.48,90.409L253.203,90.838L253.926,91.307L254.648,91.85L255.371,92.338L256.094,92.661L256.816,93.361L257.539,93.705L258.262,94.445L258.984,94.832L259.707,95.287L260.43,95.66L261.152,96.162L261.875,96.477L262.598,96.998L263.32,97.697L264.043,98.01L264.766,98.583L265.488,98.757L266.211,99.284L266.934,99.209L267.656,99.517L268.379,99.874L269.102,99.738L269.824,99.783L270.547,99.759L271.27,99.787L271.992,99.445L272.715,99.268L273.438,99.117L274.16,98.942L274.883,98.514L275.605,98.005L276.328,97.483L277.051,97.096L277.773,96.556L278.496,96.059L279.219,95.259L279.941,94.665L280.664,93.57L281.387,92.732L282.109,91.797L282.832,90.692L283.555,89.323L284.277,89.981L285,93.906L285.723,98.206L286.445,101.993L287.168,106.233L287.891,110.036L288.613,113.471L289.336,112.483L290.059,111.618L290.781,110.777L291.504,110.048L292.227,108.927L292.949,108.076L293.672,107.118L294.395,105.984L295.117,104.781L295.84,103.677L296.563,102.43L297.285,101.284L298.008,99.83L298.73,98.484L299.453,97.229L300.176,95.692L300.898,94.846L301.621,93.125L302.344,91.892L303.066,90.364L303.789,88.71L304.512,87.354L305.234,86.161L305.957,84.645L306.68,83.195L307.402,81.856L308.125,80.561L308.848,78.788L309.57,77.489L310.293,75.909L311.016,74.554L311.738,73.429L312.461,71.994L313.184,70.699L313.906,69.326L314.629,67.99L315.352,66.7L316.074,65.479L316.797,64.265L317.52,63.048L318.242,61.809L318.965,60.725L319.688,59.636L320.41,58.349L321.133,57.194L321.855,56.154L322.578,55.133L323.301,54.062L324.023,53.008L324.746,52.012L325.469,51.185L326.191,50.298L326.914,49.237L327.637,48.471L328.359,47.507L329.082,46.683L329.805,45.82L330.527,45.102L331.25,44.203L331.973,43.444L332.695,42.703L333.418,42.291L334.141,41.422L334.863,40.832L335.586,40.079L336.309,39.461L337.031,38.774L337.754,38.176L338.477,37.585L339.199,37.016L339.922,36.495L340.645,35.923L341.367,35.59L342.09,35.059L342.813,34.548L343.535,34.082L344.258,33.641L344.98,33.191L345.703,32.739L346.426,32.396L347.148,31.98L347.871,31.628L348.594,31.265L349.316,30.816L350.039,30.466L350.762,30.146L351.484,29.79L352.207,29.561L352.93,29.24L353.652,28.931L354.375,28.687L355.098,28.371L355.82,28.054L356.543,27.771L357.266,27.55L357.988,27.364L358.711,27.084L359.434,26.888L360.156,26.693L360.879,26.457L361.602,26.294L362.324,26.087L363.047,25.917L363.77,25.703L364.492,25.572L365.215,25.439L365.938,25.211L366.66,25.088L367.383,24.972L368.105,24.794L368.828,24.641L369.551,24.536L370.273,24.363L370.996,24.233L371.719,24.118L372.441,23.993L373.164,23.859L373.887,23.803L374.609,23.635L375.332,23.555L376.055,23.427L376.777,23.365L377.5,23.309L378.223,23.196L378.945,23.132L379.668,23.01L380.391,22.937L381.113,22.852L381.836,22.779L382.559,22.678L383.281,22.662L384.004,22.531L384.727,22.504L385.449,22.434L386.172,22.372L386.895,22.286L387.617,22.26L388.34,22.205L389.063,22.157L389.785,22.09L390.508,22.034L391.23,22.02L391.953,21.946L392.676,21.914L393.398,21.87L394.121,21.821L394.844,21.777L395.566,21.771L396.289,21.698L397.012,21.699L397.734,21.633L398.457,21.612L399.18,21.554L399.902,21.542L400.625,21.513L401.348,21.48L402.07,21.462L402.793,21.43L403.516,21.406L404.238,21.385L404.961,21.351L405.684,21.327L406.406,21.319L407.129,21.301L407.852,21.256L408.574,21.246L409.297,21.221L410.02,21.199L410.742,21.192L411.465,21.166L412.188,21.142L412.91,21.144L413.633,21.121L414.355,21.121L415.078,21.098L415.801,21.079L416.523,21.08L417.246,21.061L417.969,21.043L418.691,21.033L419.414,21.017L420.137,21.015L420.859,21.009L421.582,20.996L422.305,20.97L423.027,20.978L423.75,20.959L424.473,20.956L425.195,20.953L425.918,20.935L426.641,20.929L427.363,20.927L428.086,20.926L428.809,20.919L429.531,20.916L430.254,20.901L430.977,20.901L431.699,20.886L432.422,20.879L433.145,20.88L433.867,20.867L434.59,20.874L435.313,20.867L436.035,20.848L436.758,20.859L437.48,20.849L438.203,20.847L438.926,20.835L439.648,20.837L440.371,20.837L441.094,20.826L441.816,20.829L442.539,20.819L443.262,20.82L443.984,20.818L444.707,20.815L445.43,20.809L446.152,20.807L446.875,20.8L447.598,20.8L448.32,20.795L449.043,20.798L449.766,20.799L450.488,20.793L451.211,20.787L451.934,20.784L452.656,20.787L453.379,20.779L454.102,20.785L454.824,20.778L455.547,20.777L456.27,20.776L456.992,20.768L457.715,20.778L458.438,20.769L459.16,20.774L459.883,20.765L460.605,20.766L461.328,20.77L462.051,20.771L462.773,20.77L463.496,20.762L464.219,20.764L464.941,20.758L465.664,20.759L466.387,20.758L467.109,20.761L467.832,20.756L468.555,20.752L469.277,20.752"/><g transform="translate(15,190) scale(1.7) rotate(-90)"><text>Drift</text></g><g transform="translate(315,395) scale(1.8)"><text></text></g><g transform="translate(0,350)" fill="none" font-size="10" font-family="sans-serif" text-anchor="middle"><path class="domain" stroke="currentColor" d="M100,6V0H470V6"/><g class="tick" opacity="1" transform="translate(136.96669666966696,0)"><line stroke="currentColor" y2="6"/><text fill="currentColor" y="9" dy="0.71em" font-size="20px"> </text></g><g class="tick" opacity="1" transform="translate(173.97039703970398,0)"><line stroke="currentColor" y2="6"/><text fill="currentColor" y="9" dy="0.71em" font-size="20px">20</text></g><g class="tick" opacity="1" transform="translate(210.97409740974098,0)"><line stroke="currentColor" y2="6"/><text fill="currentColor" y="9" dy="0.71em" font-size="20px"> </text></g><g class="tick" opacity="1" transform="translate(247.97779777977803,0)"><line stroke="currentColor" y2="6"/><text fill="currentColor" y="9" dy="0.71em" font-size="20px">40</text></g><g class="tick" opacity="1" transform="translate(284.981498149815,0)"><line stroke="currentColor" y2="6"/><text fill="currentColor" y="9" dy="0.71em" font-size="20px"> </text></g><g class="tick" opacity="1" transform="translate(321.985198519852,0)"><line stroke="currentColor" y2="6"/><text fill="currentColor" y="9" dy="0.71em" font-size="20px">60</text></g><g class="tick" opacity="1" transform="translate(358.988898889889,0)"><line stroke="currentColor" y2="6"/><text fill="currentColor" y="9" dy="0.71em" font-size="20px"> </text></g><g class="tick" opacity="1" transform="translate(395.992599259926,0)"><line stroke="currentColor" y2="6"/><text fill="currentColor" y="9" dy="0.71em" font-size="20px">80</text></g><g class="tick" opacity="1" transform="translate(432.996299629963,0)"><line stroke="currentColor" y2="6"/><text fill="currentColor" y="9" dy="0.71em" font-size="20px"> </text></g><g class="tick" opacity="1" transform="translate(470,0)"><line stroke="currentColor" y2="6"/><text fill="currentColor" y="9" dy="0.71em" font-size="20px">100</text></g></g><g transform="translate(100,0)" fill="none" font-size="10" font-family="sans-serif" text-anchor="end"><path class="domain" stroke="currentColor" d="M-6,350H0V20H-6"/><g class="tick" opacity="1" transform="translate(0,304.4157426118051)"><line stroke="currentColor" x2="-6"/><text fill="currentColor" x="-9" dy="0.32em" font-size="20px">0.30</text></g><g class="tick" opacity="1" transform="translate(0,254.35398867994206)"><line stroke="currentColor" x2="-6"/><text fill="currentColor" x="-9" dy="0.32em" font-size="20px">0.25</text></g><g class="tick" opacity="1" transform="translate(0,204.29223474807898)"><line stroke="currentColor" x2="-6"/><text fill="currentColor" x="-9" dy="0.32em" font-size="20px">0.20</text></g><g class="tick" opacity="1" transform="translate(0,154.23048081621593)"><line stroke="currentColor" x2="-6"/><text fill="currentColor" x="-9" dy="0.32em" font-size="20px">0.15</text></g><g class="tick" opacity="1" transform="translate(0,104.16872688435286)"><line stroke="currentColor" x2="-6"/><text fill="currentColor" x="-9" dy="0.32em" font-size="20px">0.10</text></g><g class="tick" opacity="1" transform="translate(0,54.106972952489755)"><line stroke="currentColor" x2="-6"/><text fill="currentColor" x="-9" dy="0.32em" font-size="20px">0.05</text></g></g><circle cx="355" cy="150" r="8" style="fill: rgb(35, 23, 27);"/><circle cx="355" cy="175" r="8" style="fill: rgb(69, 105, 238);"/><circle cx="355" cy="200" r="8" style="fill: rgb(38, 188, 225);"/><circle cx="355" cy="225" r="8" style="fill: rgb(63, 243, 147);"/><circle cx="355" cy="250" r="8" style="fill: rgb(149, 251, 81);"/><circle cx="355" cy="275" r="8" style="fill: rgb(236, 209, 46);"/><circle cx="355" cy="300" r="8" style="fill: rgb(255, 130, 29);"/><circle cx="355" cy="325" r="8" style="fill: rgb(203, 47, 13);"/><text x="370" y="150" text-anchor="left" font-size="22" alignment-baseline="middle" style="fill: rgb(35, 23, 27);"> = 0</text><text x="370" y="175" text-anchor="left" font-size="22" alignment-baseline="middle" style="fill: rgb(69, 105, 238);"> = 0.22</text><text x="370" y="200" text-anchor="left" font-size="22" alignment-baseline="middle" style="fill: rgb(38, 188, 225);"> = 0.45</text><text x="370" y="225" text-anchor="left" font-size="22" alignment-baseline="middle" style="fill: rgb(63, 243, 147);"> = 0.67</text><text x="370" y="250" text-anchor="left" font-size="22" alignment-baseline="middle" style="fill: rgb(149, 251, 81);"> = 0.9</text><text x="370" y="275" text-anchor="left" font-size="22" alignment-baseline="middle" style="fill: rgb(236, 209, 46);"> = 1.12</text><text x="370" y="300" text-anchor="left" font-size="22" alignment-baseline="middle" style="fill: rgb(255, 130, 29);"> = 1.35</text><text x="370" y="325" text-anchor="left" font-size="22" alignment-baseline="middle" style="fill: rgb(203, 47, 13);"> = 1.57</text></svg>