<svg xmlns="http://www.w3.org/2000/svg" class="bg-white" width="500" height="400" viewBox="-10 -1 500 400"><path fill="none" stroke="rgb(35, 23, 27)" stroke-width="1.5" d="M100,128.059L100.723,128.49L101.445,128.908L102.168,129.231L102.891,129.771L103.613,130.144L104.336,130.611L105.059,131.139L105.781,131.669L106.504,131.967L107.227,132.436L107.949,133.198L108.672,133.596L109.395,134.198L110.117,134.707L110.84,135.328L111.563,135.655L112.285,136.19L113.008,136.932L113.73,137.529L114.453,138.15L115.176,138.806L115.898,139.369L116.621,140.051L117.344,140.719L118.066,141.453L118.789,142.09L119.512,142.792L120.234,143.55L120.957,144.195L121.68,144.831L122.402,145.83L123.125,146.449L123.848,147.589L124.57,148.35L125.293,149.094L126.016,150.13L126.738,150.957L127.461,151.94L128.184,152.868L128.906,153.939L129.629,154.872L130.352,155.586L131.074,156.941L131.797,158.097L132.52,159.138L133.242,160.246L133.965,161.442L134.688,162.774L135.41,163.858L136.133,165.252L136.855,166.357L137.578,167.733L138.301,169.29L139.023,170.952L139.746,172.473L140.469,173.693L141.191,175.332L141.914,177.092L142.637,178.877L143.359,180.812L144.082,182.626L144.805,184.591L145.527,186.377L146.25,188.29L146.973,190.855L147.695,192.914L148.418,194.858L149.141,197.63L149.863,199.902L150.586,202.377L151.309,205.157L152.031,207.715L152.754,210.613L153.477,213.618L154.199,216.251L154.922,219.24L155.645,222.265L156.367,225.478L157.09,228.635L157.813,232.262L158.535,235.81L159.258,239.315L159.98,242.484L160.703,246.396L161.426,249.803L162.148,253.583L162.871,257.299L163.594,260.98L164.316,264.707L165.039,268.449L165.762,272.048L166.484,275.84L167.207,279.738L167.93,283.238L168.652,286.927L169.375,290.825L170.098,294.036L170.82,297.827L171.543,301.055L172.266,304.452L172.988,307.759L173.711,311.149L174.434,314.114L175.156,317.123L175.879,320.266L176.602,322.654L177.324,325.474L178.047,328.208L178.77,330.367L179.492,332.936L180.215,335.244L180.938,337.228L181.66,339.401L182.383,340.65L183.105,342.736L183.828,343.909L184.551,345.427L185.273,346.535L185.996,347.621L186.719,348.238L187.441,349.07L188.164,349.415L188.887,349.594L189.609,349.748L190.332,349.821L191.055,349.655L191.777,350L192.5,349.332L193.223,349.057L193.945,348.1L194.668,346.993L195.391,346.432L196.113,345.169L196.836,343.655L197.559,342.063L198.281,341.125L199.004,339.365L199.727,337.662L200.449,335.581L201.172,333.955L201.895,331.704L202.617,329.702L203.34,327.154L204.063,325.132L204.785,322.765L205.508,320.275L206.23,317.375L206.953,314.69L207.676,312.044L208.398,309.37L209.121,306.636L209.844,303.724L210.566,300.691L211.289,297.736L212.012,294.168L212.734,291.61L213.457,288.54L214.18,285.234L214.902,281.724L215.625,278.39L216.348,275.152L217.07,272.347L217.793,269.176L218.516,265.873L219.238,262.281L219.961,258.926L220.684,256.02L221.406,252.617L222.129,249.033L222.852,246.063L223.574,242.643L224.297,239.234L225.02,236.151L225.742,232.651L226.465,229.49L227.188,226.305L227.91,223.223L228.633,219.873L229.355,216.583L230.078,213.307L230.801,210.245L231.523,207.079L232.246,203.896L232.969,200.82L233.691,197.724L234.414,194.288L235.137,191.346L235.859,188.507L236.582,185.426L237.305,182.309L238.027,179.517L238.75,176.628L239.473,173.623L240.195,170.545L240.918,167.745L241.641,165.001L242.363,162.057L243.086,159.205L243.809,156.187L244.531,153.687L245.254,150.721L245.977,147.942L246.699,145.175L247.422,142.755L248.145,140.178L248.867,137.317L249.59,135.086L250.313,132.29L251.035,130.068L251.758,127.275L252.48,125.04L253.203,122.519L253.926,120.135L254.648,117.817L255.371,115.551L256.094,113.266L256.816,113.851L257.539,114.492L258.262,114.99L258.984,115.601L259.707,116.371L260.43,117.106L261.152,115.915L261.875,114.29L262.598,112.696L263.32,111.168L264.043,109.603L264.766,108.145L265.488,106.634L266.211,105.201L266.934,103.668L267.656,102.251L268.379,100.818L269.102,99.295L269.824,98.213L270.547,96.599L271.27,95.177L271.992,93.81L272.715,92.536L273.438,91.063L274.16,89.636L274.883,88.482L275.605,87.276L276.328,85.963L277.051,84.698L277.773,83.562L278.496,82.395L279.219,81.232L279.941,79.873L280.664,78.864L281.387,77.604L282.109,76.646L282.832,75.47L283.555,74.441L284.277,73.386L285,72.278L285.723,71.284L286.445,70.374L287.168,69.3L287.891,68.328L288.613,67.315L289.336,66.451L290.059,65.477L290.781,64.639L291.504,63.59L292.227,62.735L292.949,61.871L293.672,61.018L294.395,60.271L295.117,59.463L295.84,58.493L296.563,57.624L297.285,56.94L298.008,56.259L298.73,55.427L299.453,54.588L300.176,54.071L300.898,53.291L301.621,52.442L302.344,51.858L303.066,51.167L303.789,50.499L304.512,49.798L305.234,49.154L305.957,48.526L306.68,47.804L307.402,47.218L308.125,46.672L308.848,46.15L309.57,45.379L310.293,45.018L311.016,44.39L311.738,43.706L312.461,43.253L313.184,42.74L313.906,42.091L314.629,41.768L315.352,41.116L316.074,40.82L316.797,40.238L317.52,39.503L318.242,39.325L318.965,38.67L319.688,38.347L320.41,37.646L321.133,37.424L321.855,36.986L322.578,36.53L323.301,36.201L324.023,35.763L324.746,35.286L325.469,35.101L326.191,34.592L326.914,34.166L327.637,33.819L328.359,33.344L329.082,33.177L329.805,32.821L330.527,32.517L331.25,32.095L331.973,31.567L332.695,31.492L333.418,31.167L334.141,30.916L334.863,30.288L335.586,30.265L336.309,30.022L337.031,29.732L337.754,29.314L338.477,29.158L339.199,28.708L339.922,28.652L340.645,28.281L341.367,28.162L342.09,27.765L342.813,27.494L343.535,27.442L344.258,27.021L344.98,26.88L345.703,26.786L346.426,26.538L347.148,26.393L347.871,26.176L348.594,25.744L349.316,25.525L350.039,25.613L350.762,25.428L351.484,25.144L352.207,24.959L352.93,24.691L353.652,24.636L354.375,24.672L355.098,23.983L355.82,24.151L356.543,24.083L357.266,24.041L357.988,23.745L358.711,23.464L359.434,23.587L360.156,23.297L360.879,23.372L361.602,23.212L362.324,23.168L363.047,22.736L363.77,23.036L364.492,22.677L365.215,22.494L365.938,22.452L366.66,22.196L367.383,22.445L368.105,22.276L368.828,22.24L369.551,22.267L370.273,22.362L370.996,21.983L371.719,21.994L372.441,21.971L373.164,22.027L373.887,21.789L374.609,22.323L375.332,22.015L376.055,21.608L376.777,21.288L377.5,21.114L378.223,21.269L378.945,21.594L379.668,21.223L380.391,21.235L381.113,21.388L381.836,21.212L382.559,21.264L383.281,21.102L384.004,20.877L384.727,21.544L385.449,21.293L386.172,21.503L386.895,21.227L387.617,21.546L388.34,21.986L389.063,21.463L389.785,21.223L390.508,21.308L391.23,21.157L391.953,21.953L392.676,21.473L393.398,21.471L394.121,21.723L394.844,21.615L395.566,21.464L396.289,21.45L397.012,21.33L397.734,21.549L398.457,21.476L399.18,21.696L399.902,20.917L400.625,22.878L401.348,22.685L402.07,22.253L402.793,22.322L403.516,21.877L404.238,22.399L404.961,23.224L405.684,23.437L406.406,24.021L407.129,23.703L407.852,24.926L408.574,24.009L409.297,26.096L410.02,25.365L410.742,23.5L411.465,24.573L412.188,24.196L412.91,25.822L413.633,25.658L414.355,26.371L415.078,27.341L415.801,28.276L416.523,27.759L417.246,27.937L417.969,28.16L418.691,30.583L419.414,28.015L420.137,29.498L420.859,29.444L421.582,28.719L422.305,29.706L423.027,29.013L423.75,30.392L424.473,30.424L425.195,29.461L425.918,29.016L426.641,29.494L427.363,30.16L428.086,29.517L428.809,28.83L429.531,27.869L430.254,28.067L430.977,27.515L431.699,27.759L432.422,27.832L433.145,26.628L433.867,26.234L434.59,26.924L435.313,25.745L436.035,25.825L436.758,25.445L437.48,25.359L438.203,25.752L438.926,24.743L439.648,24.227L440.371,24.954L441.094,23.415L441.816,24.229L442.539,23.94L443.262,23.727L443.984,23.848L444.707,23.216L445.43,23.369L446.152,23.082L446.875,22.722L447.598,22.56L448.32,22.475L449.043,22.529L449.766,22.19L450.488,22.18L451.211,21.777L451.934,21.358L452.656,21.945L453.379,21.217L454.102,21.438L454.824,21.479L455.547,21.514L456.27,21.467L456.992,21.215L457.715,21.165L458.438,20.918L459.16,21.11L459.883,20.987L460.605,20.829L461.328,20.725L462.051,20.938L462.773,20.889L463.496,20.697L464.219,20.771L464.941,20.752L465.664,20.725L466.387,20.5L467.109,20.545L467.832,20.632L468.555,20.382L469.277,20.417"/><path fill="none" stroke="rgb(69, 105, 238)" stroke-width="1.5" d="M100,127.738L100.723,128.128L101.445,128.558L102.168,129.014L102.891,129.336L103.613,129.8L104.336,130.252L105.059,130.693L105.781,131.121L106.504,131.605L107.227,132.019L107.949,132.431L108.672,133.126L109.395,133.75L110.117,134.085L110.84,134.634L111.563,135.256L112.285,135.628L113.008,136.252L113.73,136.932L114.453,137.431L115.176,138.081L115.898,138.532L116.621,139.255L117.344,139.928L118.066,140.617L118.789,141.274L119.512,142.03L120.234,142.459L120.957,143.298L121.68,144.209L122.402,144.775L123.125,145.664L123.848,146.469L124.57,147.209L125.293,148.032L126.016,148.945L126.738,149.704L127.461,150.751L128.184,151.59L128.906,152.329L129.629,153.228L130.352,154.347L131.074,155.555L131.797,156.416L132.52,157.469L133.242,158.653L133.965,159.684L134.688,160.862L135.41,161.966L136.133,163.213L136.855,164.207L137.578,165.647L138.301,166.933L139.023,168.316L139.746,169.74L140.469,171.109L141.191,172.465L141.914,173.842L142.637,175.422L143.359,177.023L144.082,178.571L144.805,180.064L145.527,181.718L146.25,183.484L146.973,185.273L147.695,187.105L148.418,188.689L149.141,190.798L149.863,192.588L150.586,194.548L151.309,196.494L152.031,198.798L152.754,200.619L153.477,202.678L154.199,205.062L154.922,207.253L155.645,209.188L156.367,211.558L157.09,213.84L157.813,215.99L158.535,218.661L159.258,221.004L159.98,223.239L160.703,225.685L161.426,228.042L162.148,230.378L162.871,232.423L163.594,235.016L164.316,237.244L165.039,239.846L165.762,242.368L166.484,244.544L167.207,246.922L167.93,249.08L168.652,251.529L169.375,253.746L170.098,255.93L170.82,258.038L171.543,259.901L172.266,261.995L172.988,264.101L173.711,265.935L174.434,267.91L175.156,269.596L175.879,271.244L176.602,272.829L177.324,274.283L178.047,275.693L178.77,277.127L179.492,278.318L180.215,279.512L180.938,280.586L181.66,281.785L182.383,282.629L183.105,283.239L183.828,283.851L184.551,284.445L185.273,284.525L185.996,285.174L186.719,285.267L187.441,285.478L188.164,285.337L188.887,285.384L189.609,285.104L190.332,284.747L191.055,284.078L191.777,283.424L192.5,282.987L193.223,282.143L193.945,281.467L194.668,280.393L195.391,279.408L196.113,278.126L196.836,276.729L197.559,275.299L198.281,273.846L199.004,272.567L199.727,270.948L200.449,269.378L201.172,267.308L201.895,265.467L202.617,263.639L203.34,261.55L204.063,259.572L204.785,257.374L205.508,255.298L206.23,253.19L206.953,250.844L207.676,248.469L208.398,246.215L209.121,243.937L209.844,241.375L210.566,238.86L211.289,236.555L212.012,233.81L212.734,231.115L213.457,228.649L214.18,225.909L214.902,223.366L215.625,220.591L216.348,217.926L217.07,215.154L217.793,212.832L218.516,210.063L219.238,207.431L219.961,204.658L220.684,201.765L221.406,199.095L222.129,196.238L222.852,193.436L223.574,190.936L224.297,188.114L225.02,185.598L225.742,183.013L226.465,180.156L227.188,177.376L227.91,174.787L228.633,172.177L229.355,169.55L230.078,166.907L230.801,164.105L231.523,161.738L232.246,159.305L232.969,156.725L233.691,154.178L234.414,151.653L235.137,149.008L235.859,146.567L236.582,144.2L237.305,141.739L238.027,139.064L238.75,136.755L239.473,134.402L240.195,132.031L240.918,129.624L241.641,127.198L242.363,124.995L243.086,122.708L243.809,120.601L244.531,118.17L245.254,115.818L245.977,113.661L246.699,111.527L247.422,109.244L248.145,107.092L248.867,105.447L249.59,103.111L250.313,101.068L251.035,99.219L251.758,97.215L252.48,95.128L253.203,93.537L253.926,91.395L254.648,89.839L255.371,88.777L256.094,89.609L256.816,90.791L257.539,91.909L258.262,93.041L258.984,94.055L259.707,94.801L260.43,93.485L261.152,92.512L261.875,91.208L262.598,90.169L263.32,89.231L264.043,88.154L264.766,87.114L265.488,85.87L266.211,84.877L266.934,83.915L267.656,82.786L268.379,81.868L269.102,81.003L269.824,80.097L270.547,79.013L271.27,78.076L271.992,77.197L272.715,76.249L273.438,75.445L274.16,74.52L274.883,73.733L275.605,72.815L276.328,71.772L277.051,71.035L277.773,70.21L278.496,69.305L279.219,68.646L279.941,67.704L280.664,67.141L281.387,66.163L282.109,65.413L282.832,64.759L283.555,63.957L284.277,63.262L285,62.523L285.723,61.807L286.445,61.032L287.168,60.434L287.891,59.73L288.613,58.989L289.336,58.226L290.059,57.575L290.781,57.023L291.504,56.308L292.227,55.705L292.949,55.123L293.672,54.368L294.395,53.787L295.117,53.112L295.84,52.656L296.563,52.01L297.285,51.277L298.008,50.821L298.73,50.176L299.453,49.796L300.176,49.156L300.898,48.673L301.621,48.061L302.344,47.544L303.066,46.968L303.789,46.414L304.512,45.756L305.234,45.381L305.957,44.927L306.68,44.468L307.402,43.921L308.125,43.304L308.848,42.966L309.57,42.456L310.293,42.097L311.016,41.706L311.738,41.237L312.461,40.779L313.184,40.238L313.906,39.744L314.629,39.237L315.352,38.918L316.074,38.692L316.797,38.162L317.52,37.74L318.242,37.385L318.965,37.112L319.688,36.736L320.41,36.058L321.133,35.916L321.855,35.472L322.578,35.119L323.301,35.043L324.023,34.509L324.746,34.356L325.469,33.753L326.191,33.603L326.914,33.22L327.637,32.886L328.359,32.558L329.082,32.343L329.805,31.888L330.527,31.597L331.25,31.413L331.973,30.806L332.695,30.835L333.418,30.455L334.141,30.454L334.863,30.091L335.586,29.665L336.309,29.416L337.031,29.134L337.754,29.01L338.477,28.337L339.199,28.386L339.922,28.378L340.645,28.014L341.367,27.921L342.09,27.279L342.813,27.337L343.535,27.01L344.258,26.578L344.98,26.714L345.703,26.477L346.426,26.56L347.148,26.215L347.871,25.772L348.594,25.58L349.316,25.714L350.039,25.339L350.762,25.24L351.484,24.867L352.207,24.887L352.93,24.704L353.652,24.317L354.375,24.056L355.098,23.932L355.82,24.089L356.543,24.422L357.266,23.664L357.988,24.128L358.711,24.181L359.434,23.283L360.156,23.297L360.879,23.131L361.602,23.633L362.324,22.958L363.047,22.769L363.77,23.007L364.492,22.533L365.215,23.353L365.938,22.769L366.66,22.844L367.383,22.421L368.105,22.338L368.828,22.268L369.551,22.607L370.273,21.881L370.996,21.62L371.719,22.285L372.441,21.435L373.164,21.981L373.887,21.93L374.609,21.26L375.332,21.35L376.055,21.182L376.777,22.249L377.5,21.961L378.223,22.038L378.945,21.497L379.668,21.654L380.391,21.425L381.113,21.265L381.836,21.061L382.559,21.542L383.281,20.956L384.004,21.321L384.727,22.019L385.449,20.968L386.172,22.507L386.895,21.089L387.617,21.438L388.34,21.125L389.063,20.984L389.785,22.155L390.508,20.418L391.23,21.743L391.953,21.177L392.676,21.332L393.398,20.966L394.121,21.016L394.844,20.911L395.566,21.402L396.289,21.805L397.012,21.341L397.734,21.684L398.457,21.34L399.18,22.023L399.902,20.797L400.625,21.936L401.348,21.753L402.07,21.475L402.793,22.98L403.516,23.598L404.238,23.436L404.961,22.048L405.684,23.298L406.406,22.993L407.129,22.547L407.852,23.437L408.574,24.222L409.297,23.954L410.02,25.053L410.742,24.686L411.465,24.896L412.188,25.077L412.91,25.04L413.633,26.632L414.355,24.967L415.078,24.994L415.801,26.347L416.523,25.936L417.246,27.256L417.969,28.465L418.691,27.126L419.414,28.702L420.137,27.735L420.859,28.089L421.582,27.11L422.305,27.489L423.027,28.792L423.75,27.688L424.473,28.632L425.195,28.932L425.918,27.666L426.641,28.594L427.363,27.49L428.086,28.992L428.809,28.496L429.531,26.928L430.254,27.207L430.977,27.069L431.699,26.524L432.422,26.231L433.145,26.377L433.867,26.223L434.59,26.754L435.313,26.044L436.035,25.584L436.758,25.528L437.48,24.698L438.203,23.98L438.926,24.357L439.648,24.982L440.371,23.837L441.094,23.791L441.816,23.658L442.539,23.655L443.262,23.45L443.984,23.45L444.707,23.29L445.43,23.124L446.152,22.25L446.875,22.518L447.598,22.212L448.32,22.334L449.043,22.091L449.766,21.891L450.488,21.385L451.211,21.576L451.934,21.672L452.656,21.465L453.379,21.346L454.102,21.29L454.824,21.476L455.547,21.321L456.27,21.12L456.992,20.978L457.715,21.004L458.438,20.766L459.16,20.729L459.883,20.848L460.605,20.919L461.328,20.59L462.051,20.784L462.773,20.64L463.496,20.713L464.219,20.613L464.941,20.761L465.664,20.63L466.387,20.582L467.109,20.61L467.832,20.457L468.555,20.507L469.277,20.496"/><path fill="none" stroke="rgb(38, 188, 225)" stroke-width="1.5" d="M100,126.57L100.723,126.881L101.445,127.331L102.168,127.738L102.891,128.175L103.613,128.527L104.336,128.87L105.059,129.262L105.781,129.572L106.504,130.117L107.227,130.652L107.949,131.028L108.672,131.668L109.395,131.91L110.117,132.426L110.84,132.919L111.563,133.529L112.285,133.804L113.008,134.545L113.73,135.036L114.453,135.455L115.176,135.906L115.898,136.475L116.621,137.165L117.344,137.492L118.066,138.173L118.789,138.778L119.512,139.596L120.234,140.129L120.957,140.87L121.68,141.531L122.402,142.16L123.125,142.788L123.848,143.358L124.57,144.359L125.293,144.916L126.016,145.868L126.738,146.527L127.461,147.271L128.184,148.187L128.906,148.925L129.629,149.657L130.352,150.544L131.074,151.483L131.797,152.143L132.52,153.272L133.242,154.118L133.965,155.087L134.688,156.127L135.41,157.211L136.133,157.912L136.855,159.067L137.578,160.05L138.301,161.161L139.023,162.356L139.746,163.34L140.469,164.382L141.191,165.46L141.914,166.732L142.637,168.054L143.359,169.311L144.082,170.597L144.805,171.666L145.527,173.122L146.25,174.454L146.973,175.923L147.695,177.177L148.418,178.697L149.141,179.939L149.863,181.428L150.586,182.721L151.309,184.435L152.031,186.04L152.754,187.342L153.477,188.876L154.199,190.478L154.922,191.943L155.645,193.427L156.367,195.123L157.09,196.615L157.813,198.217L158.535,199.878L159.258,201.328L159.98,203.029L160.703,204.14L161.426,205.973L162.148,207.419L162.871,208.692L163.594,210.615L164.316,211.783L165.039,213.553L165.762,214.879L166.484,216.082L167.207,217.839L167.93,219.025L168.652,220.057L169.375,221.347L170.098,222.665L170.82,223.875L171.543,225.011L172.266,226.042L172.988,226.828L173.711,228.045L174.434,228.855L175.156,229.556L175.879,230.598L176.602,230.978L177.324,231.599L178.047,232.115L178.77,232.677L179.492,232.997L180.215,232.914L180.938,233.727L181.66,233.464L182.383,233.806L183.105,233.869L183.828,233.929L184.551,233.199L185.273,233.127L185.996,233.08L186.719,232.597L187.441,232.054L188.164,231.171L188.887,230.895L189.609,229.962L190.332,229.186L191.055,228.211L191.777,227.309L192.5,226.397L193.223,225.37L193.945,223.997L194.668,222.676L195.391,221.354L196.113,219.831L196.836,218.351L197.559,217.052L198.281,215.43L199.004,213.472L199.727,212.03L200.449,210.323L201.172,208.767L201.895,207.01L202.617,205.174L203.34,203.049L204.063,201.099L204.785,198.992L205.508,197.018L206.23,195.019L206.953,192.836L207.676,190.611L208.398,188.665L209.121,186.407L209.844,184.102L210.566,182.027L211.289,179.85L212.012,177.678L212.734,175.308L213.457,173.032L214.18,170.898L214.902,168.366L215.625,166.133L216.348,163.875L217.07,161.517L217.793,159.173L218.516,157.07L219.238,154.797L219.961,152.491L220.684,150.269L221.406,147.872L222.129,145.757L222.852,143.202L223.574,141.136L224.297,138.899L225.02,136.636L225.742,134.503L226.465,132.214L227.188,130.018L227.91,127.972L228.633,125.555L229.355,123.367L230.078,121.204L230.801,119.131L231.523,117.052L232.246,114.931L232.969,112.669L233.691,110.86L234.414,108.704L235.137,106.609L235.859,104.693L236.582,102.586L237.305,100.779L238.027,98.437L238.75,96.545L239.473,94.602L240.195,92.931L240.918,90.899L241.641,89.039L242.363,87.358L243.086,85.525L243.809,83.745L244.531,82.158L245.254,80.12L245.977,78.586L246.699,76.773L247.422,75.235L248.145,73.512L248.867,71.982L249.59,70.388L250.313,68.775L251.035,67.312L251.758,65.992L252.48,66.754L253.203,67.94L253.926,69.378L254.648,70.847L255.371,72.339L256.094,73.712L256.816,73.764L257.539,73.068L258.262,71.989L258.984,71.292L259.707,70.423L260.43,69.821L261.152,69.086L261.875,68.338L262.598,67.684L263.32,66.856L264.043,66.237L264.766,65.419L265.488,64.799L266.211,64.217L266.934,63.684L267.656,63.054L268.379,62.481L269.102,61.98L269.824,61.342L270.547,60.676L271.27,60.185L271.992,59.645L272.715,59.019L273.438,58.464L274.16,58.021L274.883,57.454L275.605,56.868L276.328,56.328L277.051,55.846L277.773,55.34L278.496,54.896L279.219,54.39L279.941,53.79L280.664,53.347L281.387,52.913L282.109,52.292L282.832,51.786L283.555,51.379L284.277,50.872L285,50.425L285.723,49.864L286.445,49.399L287.168,49.028L287.891,48.564L288.613,48.017L289.336,47.666L290.059,47.091L290.781,46.753L291.504,46.363L292.227,45.833L292.949,45.452L293.672,45.074L294.395,44.644L295.117,44.203L295.84,43.839L296.563,43.38L297.285,43.069L298.008,42.569L298.73,42.234L299.453,41.761L300.176,41.451L300.898,41.11L301.621,40.746L302.344,40.343L303.066,40.044L303.789,39.822L304.512,39.275L305.234,38.964L305.957,38.613L306.68,38.417L307.402,37.936L308.125,37.654L308.848,37.414L309.57,37.135L310.293,36.862L311.016,36.426L311.738,36.32L312.461,35.883L313.184,35.604L313.906,35.349L314.629,35.139L315.352,34.828L316.074,34.499L316.797,34.277L317.52,33.936L318.242,33.572L318.965,33.388L319.688,32.998L320.41,32.735L321.133,32.417L321.855,32.243L322.578,32.321L323.301,32.011L324.023,31.786L324.746,31.333L325.469,31.203L326.191,30.958L326.914,30.613L327.637,30.4L328.359,30.263L329.082,30.151L329.805,29.805L330.527,29.658L331.25,29.511L331.973,29.384L332.695,29.009L333.418,28.945L334.141,28.615L334.863,28.585L335.586,28.343L336.309,28.019L337.031,27.875L337.754,27.684L338.477,27.547L339.199,27.359L339.922,27.204L340.645,27.174L341.367,26.873L342.09,26.804L342.813,26.6L343.535,26.271L344.258,25.954L344.98,26.034L345.703,26.224L346.426,25.806L347.148,25.669L347.871,25.455L348.594,25.301L349.316,25.739L350.039,25.088L350.762,25.276L351.484,24.935L352.207,24.322L352.93,24.876L353.652,24.186L354.375,24.758L355.098,24.051L355.82,23.898L356.543,24.239L357.266,23.848L357.988,23.903L358.711,23.453L359.434,23.503L360.156,23.659L360.879,23.327L361.602,23.329L362.324,23.418L363.047,23.132L363.77,22.725L364.492,22.842L365.215,22.759L365.938,22.412L366.66,22.615L367.383,22.73L368.105,22.237L368.828,22.537L369.551,22.045L370.273,22.612L370.996,21.836L371.719,22.068L372.441,22.328L373.164,21.87L373.887,22.062L374.609,21.049L375.332,21.819L376.055,21.506L376.777,22.113L377.5,21.366L378.223,21.771L378.945,21.778L379.668,22.666L380.391,21.611L381.113,21.668L381.836,21.578L382.559,21.59L383.281,21.291L384.004,21.411L384.727,21.819L385.449,20.814L386.172,21.591L386.895,21.243L387.617,20.666L388.34,21.344L389.063,21.608L389.785,21.519L390.508,20L391.23,21.587L391.953,21.855L392.676,21.118L393.398,21.092L394.121,21.261L394.844,21.616L395.566,21.654L396.289,20.704L397.012,21.382L397.734,21.589L398.457,21.153L399.18,20.511L399.902,21.126L400.625,21.181L401.348,20.903L402.07,22.183L402.793,21.516L403.516,22.685L404.238,22.73L404.961,23.64L405.684,22.351L406.406,21.401L407.129,21.42L407.852,23.189L408.574,22.58L409.297,21.251L410.02,23.01L410.742,21.46L411.465,23.272L412.188,22.826L412.91,22.233L413.633,22.752L414.355,23.114L415.078,25.076L415.801,23.995L416.523,24.02L417.246,24.454L417.969,23.48L418.691,25.382L419.414,24.642L420.137,23.567L420.859,25.632L421.582,24.264L422.305,24.646L423.027,26.014L423.75,24.713L424.473,25.118L425.195,24.937L425.918,25.581L426.641,25.583L427.363,24.908L428.086,25.287L428.809,24.423L429.531,25.952L430.254,24.852L430.977,24.802L431.699,24.454L432.422,24.336L433.145,24.072L433.867,23.32L434.59,23.818L435.313,24.052L436.035,24.792L436.758,23.618L437.48,23.56L438.203,23.675L438.926,23.487L439.648,23.28L440.371,23.285L441.094,23.049L441.816,22.662L442.539,22.487L443.262,22.15L443.984,22.266L444.707,22.704L445.43,21.529L446.152,21.688L446.875,22.109L447.598,21.855L448.32,21.492L449.043,21.914L449.766,21.438L450.488,21.442L451.211,21.297L451.934,21.151L452.656,20.854L453.379,21.289L454.102,21.052L454.824,20.856L455.547,20.779L456.27,20.872L456.992,20.931L457.715,20.69L458.438,20.869L459.16,20.716L459.883,20.776L460.605,20.659L461.328,20.538L462.051,20.647L462.773,20.458L463.496,20.634L464.219,20.645L464.941,20.669L465.664,20.445L466.387,20.418L467.109,20.414L467.832,20.374L468.555,20.376L469.277,20.352"/><path fill="none" stroke="rgb(63, 243, 147)" stroke-width="1.5" d="M100,124.997L100.723,125.232L101.445,125.741L102.168,125.965L102.891,126.457L103.613,126.726L104.336,127.009L105.059,127.473L105.781,127.738L106.504,128.198L107.227,128.552L107.949,128.902L108.672,129.345L109.395,129.729L110.117,130.16L110.84,130.533L111.563,130.997L112.285,131.37L113.008,131.917L113.73,132.412L114.453,132.897L115.176,133.325L115.898,133.684L116.621,133.993L117.344,134.802L118.066,135.361L118.789,135.585L119.512,136.302L120.234,137.004L120.957,137.511L121.68,138.016L122.402,138.579L123.125,139.169L123.848,139.76L124.57,140.238L125.293,140.714L126.016,141.649L126.738,142.269L127.461,142.762L128.184,143.493L128.906,144.209L129.629,144.945L130.352,145.626L131.074,146.269L131.797,147.112L132.52,147.91L133.242,148.711L133.965,149.538L134.688,150.219L135.41,151.012L136.133,151.868L136.855,152.765L137.578,153.713L138.301,154.322L139.023,155.187L139.746,156.12L140.469,156.898L141.191,157.994L141.914,158.979L142.637,159.944L143.359,160.893L144.082,161.925L144.805,162.921L145.527,163.906L146.25,164.807L146.973,165.733L147.695,167.005L148.418,167.939L149.141,169.038L149.863,169.954L150.586,171.118L151.309,172.083L152.031,173.069L152.754,174.162L153.477,175.238L154.199,176.144L154.922,177.245L155.645,178.218L156.367,179.275L157.09,180.362L157.813,181.173L158.535,182.283L159.258,183.341L159.98,184.258L160.703,184.981L161.426,185.85L162.148,186.644L162.871,187.532L163.594,188.312L164.316,189.152L165.039,189.695L165.762,190.712L166.484,190.922L167.207,191.578L167.93,192.384L168.652,192.651L169.375,193.115L170.098,193.491L170.82,194.161L171.543,194.119L172.266,194.403L172.988,194.879L173.711,194.904L174.434,194.925L175.156,194.819L175.879,194.8L176.602,194.491L177.324,194.626L178.047,194.373L178.77,194.062L179.492,193.838L180.215,193.314L180.938,192.788L181.66,192.269L182.383,191.728L183.105,190.991L183.828,190.362L184.551,189.332L185.273,188.558L185.996,187.55L186.719,186.803L187.441,185.723L188.164,184.551L188.887,183.294L189.609,182.254L190.332,180.978L191.055,179.795L191.777,178.333L192.5,177.032L193.223,175.445L193.945,173.844L194.668,172.392L195.391,170.751L196.113,169.28L196.836,167.441L197.559,166.034L198.281,164.148L199.004,162.672L199.727,160.799L200.449,158.937L201.172,157.375L201.895,155.386L202.617,153.337L203.34,151.519L204.063,149.897L204.785,147.858L205.508,146.11L206.23,144.129L206.953,142.11L207.676,139.968L208.398,138.148L209.121,136.266L209.844,134.114L210.566,132.193L211.289,130.139L212.012,128.355L212.734,126.463L213.457,124.532L214.18,122.695L214.902,120.302L215.625,118.708L216.348,116.556L217.07,114.69L217.793,112.762L218.516,110.879L219.238,108.991L219.961,107.012L220.684,105.155L221.406,103.106L222.129,101.299L222.852,99.504L223.574,97.808L224.297,95.678L225.02,93.987L225.742,92.212L226.465,90.479L227.188,88.542L227.91,86.827L228.633,85.099L229.355,83.415L230.078,81.79L230.801,79.954L231.523,78.431L232.246,76.487L232.969,75.272L233.691,73.612L234.414,71.881L235.137,70.24L235.859,68.773L236.582,67.44L237.305,65.707L238.027,64.433L238.75,62.936L239.473,61.377L240.195,60.039L240.918,58.637L241.641,57.547L242.363,55.945L243.086,54.717L243.809,53.293L244.531,52.174L245.254,51.114L245.977,49.808L246.699,50.717L247.422,52.148L248.145,53.904L248.867,55.583L249.59,57.298L250.313,59.016L251.035,59.386L251.758,58.975L252.48,58.269L253.203,57.816L253.926,57.188L254.648,56.751L255.371,56.296L256.094,55.808L256.816,55.214L257.539,54.692L258.262,54.269L258.984,53.783L259.707,53.299L260.43,52.9L261.152,52.501L261.875,52.184L262.598,51.733L263.32,51.331L264.043,50.953L264.766,50.344L265.488,50.039L266.211,49.74L266.934,49.298L267.656,49.03L268.379,48.682L269.102,48.394L269.824,48.007L270.547,47.839L271.27,47.439L271.992,47.064L272.715,46.757L273.438,46.399L274.16,46.094L274.883,45.849L275.605,45.582L276.328,45.266L277.051,44.812L277.773,44.549L278.496,44.269L279.219,43.851L279.941,43.616L280.664,43.344L281.387,42.952L282.109,42.68L282.832,42.337L283.555,41.989L284.277,41.677L285,41.455L285.723,41.065L286.445,40.836L287.168,40.446L287.891,40.072L288.613,39.849L289.336,39.601L290.059,39.318L290.781,38.889L291.504,38.678L292.227,38.41L292.949,38.083L293.672,37.712L294.395,37.472L295.117,37.323L295.84,36.949L296.563,36.592L297.285,36.41L298.008,36.128L298.73,35.965L299.453,35.543L300.176,35.436L300.898,35.145L301.621,34.852L302.344,34.613L303.066,34.297L303.789,34.114L304.512,33.885L305.234,33.599L305.957,33.484L306.68,33.276L307.402,33.012L308.125,32.828L308.848,32.536L309.57,32.56L310.293,32.253L311.016,31.977L311.738,31.848L312.461,31.662L313.184,31.422L313.906,31.179L314.629,31.203L315.352,30.885L316.074,30.741L316.797,30.555L317.52,30.378L318.242,30.209L318.965,30.025L319.688,30.127L320.41,29.731L321.133,29.55L321.855,29.495L322.578,29.275L323.301,29.063L324.023,29.073L324.746,28.902L325.469,28.722L326.191,28.568L326.914,28.315L327.637,28.453L328.359,28.098L329.082,28.123L329.805,27.881L330.527,27.768L331.25,27.934L331.973,27.606L332.695,27.582L333.418,27.094L334.141,27.201L334.863,27.145L335.586,26.921L336.309,27.058L337.031,26.683L337.754,26.676L338.477,26.63L339.199,26.512L339.922,26.336L340.645,26.136L341.367,26.08L342.09,26.101L342.813,25.865L343.535,25.99L344.258,25.732L344.98,25.625L345.703,25.533L346.426,25.386L347.148,25.346L347.871,25.255L348.594,25.008L349.316,25.05L350.039,24.813L350.762,24.717L351.484,24.609L352.207,24.51L352.93,24.42L353.652,24.549L354.375,24.099L355.098,24.277L355.82,24.363L356.543,24.533L357.266,24.149L357.988,23.543L358.711,23.727L359.434,23.624L360.156,23.621L360.879,23.005L361.602,23.791L362.324,23.305L363.047,23.393L363.77,23.233L364.492,23.332L365.215,23.376L365.938,22.644L366.66,22.897L367.383,23.139L368.105,22.868L368.828,22.788L369.551,22.743L370.273,21.863L370.996,22.792L371.719,22.214L372.441,22.438L373.164,21.708L373.887,22.154L374.609,22.839L375.332,21.902L376.055,21.83L376.777,21.896L377.5,22.201L378.223,22.187L378.945,21.558L379.668,20.798L380.391,21.765L381.113,21.72L381.836,21.468L382.559,21.936L383.281,21.769L384.004,21.498L384.727,20.725L385.449,21.921L386.172,20.527L386.895,21.239L387.617,21.377L388.34,20.59L389.063,21.401L389.785,21.461L390.508,21.014L391.23,21.138L391.953,21.396L392.676,20.911L393.398,20.547L394.121,21.259L394.844,20.46L395.566,20.61L396.289,20.71L397.012,21.782L397.734,21.652L398.457,21.372L399.18,20.171L399.902,20.916L400.625,21.018L401.348,20.132L402.07,20.375L402.793,21.097L403.516,22.049L404.238,21.326L404.961,21.448L405.684,20.904L406.406,21.612L407.129,20.877L407.852,20.628L408.574,21.09L409.297,20.426L410.02,22.1L410.742,20.218L411.465,21.846L412.188,22.036L412.91,21.665L413.633,21.822L414.355,21.849L415.078,22.455L415.801,20.311L416.523,21.998L417.246,22.745L417.969,20.768L418.691,20.975L419.414,21.586L420.137,21.857L420.859,21.719L421.582,20.57L422.305,23.976L423.027,22.813L423.75,23.054L424.473,21.154L425.195,21.734L425.918,21.635L426.641,21.161L427.363,21.487L428.086,21.18L428.809,21.852L429.531,22.677L430.254,21.852L430.977,21.87L431.699,21.485L432.422,21.517L433.145,20.658L433.867,22.198L434.59,21.461L435.313,21.128L436.035,21.632L436.758,21.354L437.48,22.003L438.203,21.154L438.926,20.926L439.648,21.409L440.371,21.457L441.094,20.971L441.816,20.419L442.539,20.922L443.262,21.018L443.984,21.246L444.707,20.971L445.43,20.949L446.152,21.317L446.875,20.821L447.598,20.492L448.32,20.511L449.043,21.137L449.766,20.756L450.488,20.603L451.211,20.699L451.934,20.58L452.656,20.513L453.379,20.564L454.102,20.387L454.824,20.421L455.547,20.44L456.27,20.583L456.992,20.561L457.715,20.317L458.438,20.257L459.16,20.198L459.883,20.489L460.605,20.35L461.328,20.292L462.051,20.377L462.773,20.404L463.496,20.379L464.219,20.344L464.941,20.335L465.664,20.338L466.387,20.338L467.109,20.271L467.832,20.354L468.555,20.238L469.277,20.219"/><path fill="none" stroke="rgb(149, 251, 81)" stroke-width="1.5" d="M100,123.435L100.723,123.709L101.445,123.977L102.168,124.332L102.891,124.408L103.613,124.904L104.336,125.17L105.059,125.409L105.781,125.736L106.504,126.111L107.227,126.671L107.949,126.753L108.672,127.123L109.395,127.48L110.117,127.889L110.84,128.229L111.563,128.49L112.285,128.896L113.008,129.456L113.73,129.724L114.453,130.172L115.176,130.542L115.898,130.916L116.621,131.419L117.344,131.775L118.066,132.31L118.789,132.858L119.512,133.165L120.234,133.779L120.957,134.244L121.68,134.68L122.402,135.171L123.125,135.614L123.848,136.224L124.57,136.847L125.293,137.242L126.016,137.816L126.738,138.2L127.461,138.93L128.184,139.686L128.906,140.153L129.629,140.734L130.352,141.318L131.074,142.005L131.797,142.726L132.52,143.332L133.242,143.964L133.965,144.566L134.688,145.201L135.41,145.923L136.133,146.626L136.855,147.301L137.578,147.913L138.301,148.55L139.023,149.265L139.746,150.198L140.469,150.771L141.191,151.324L141.914,152.068L142.637,153.079L143.359,153.547L144.082,154.312L144.805,154.977L145.527,155.537L146.25,156.255L146.973,157.044L147.695,157.594L148.418,158.466L149.141,159.064L149.863,159.525L150.586,160.259L151.309,160.809L152.031,161.255L152.754,161.9L153.477,162.519L154.199,162.946L154.922,163.335L155.645,163.726L156.367,164.316L157.09,164.544L157.813,165.004L158.535,165.415L159.258,165.602L159.98,165.715L160.703,165.9L161.426,166.273L162.148,166.358L162.871,166.293L163.594,166.656L164.316,166.537L165.039,166.372L165.762,166.305L166.484,166.227L167.207,165.871L167.93,165.71L168.652,165.348L169.375,165.084L170.098,164.677L170.82,164.315L171.543,163.837L172.266,163.315L172.988,162.678L173.711,161.96L174.434,161.305L175.156,160.451L175.879,159.745L176.602,158.821L177.324,157.97L178.047,157.134L178.77,156.171L179.492,155.313L180.215,154.114L180.938,152.897L181.66,151.71L182.383,150.549L183.105,149.406L183.828,148.245L184.551,146.721L185.273,145.44L185.996,144.094L186.719,142.45L187.441,141.382L188.164,139.509L188.887,138.196L189.609,136.633L190.332,135.035L191.055,133.486L191.777,131.865L192.5,130.294L193.223,128.611L193.945,127.091L194.668,125.429L195.391,123.726L196.113,122.008L196.836,120.271L197.559,118.643L198.281,116.883L199.004,115.211L199.727,113.673L200.449,111.963L201.172,110.102L201.895,108.426L202.617,106.701L203.34,104.912L204.063,103.164L204.785,101.309L205.508,99.796L206.23,98.064L206.953,96.349L207.676,94.806L208.398,92.936L209.121,91.34L209.844,89.644L210.566,88.134L211.289,86.462L212.012,84.645L212.734,83.225L213.457,81.619L214.18,79.978L214.902,78.391L215.625,76.741L216.348,75.225L217.07,73.612L217.793,72.089L218.516,70.542L219.238,69.33L219.961,67.686L220.684,66.229L221.406,64.768L222.129,63.364L222.852,62.014L223.574,60.54L224.297,59.238L225.02,58.038L225.742,56.574L226.465,55.278L227.188,53.954L227.91,52.614L228.633,51.44L229.355,50.14L230.078,49.029L230.801,47.857L231.523,46.7L232.246,45.696L232.969,44.551L233.691,43.428L234.414,42.301L235.137,41.502L235.859,40.278L236.582,39.237L237.305,39.304L238.027,41.112L238.75,43.058L239.473,44.996L240.195,46.85L240.918,48.835L241.641,50.112L242.363,49.698L243.086,49.313L243.809,48.811L244.531,48.415L245.254,48.089L245.977,47.692L246.699,47.238L247.422,46.891L248.145,46.564L248.867,46.28L249.59,45.821L250.313,45.562L251.035,45.114L251.758,44.698L252.48,44.42L253.203,44.06L253.926,43.802L254.648,43.422L255.371,43.231L256.094,42.832L256.816,42.538L257.539,42.275L258.262,41.946L258.984,41.638L259.707,41.379L260.43,41.022L261.152,40.876L261.875,40.663L262.598,40.246L263.32,40.078L264.043,39.916L264.766,39.693L265.488,39.449L266.211,39.299L266.934,39.031L267.656,38.697L268.379,38.581L269.102,38.374L269.824,38.186L270.547,37.922L271.27,37.84L271.992,37.669L272.715,37.48L273.438,37.23L274.16,37.112L274.883,36.859L275.605,36.727L276.328,36.479L277.051,36.299L277.773,36.168L278.496,36L279.219,35.829L279.941,35.617L280.664,35.445L281.387,35.266L282.109,34.994L282.832,34.753L283.555,34.602L284.277,34.443L285,34.284L285.723,34.072L286.445,33.909L287.168,33.77L287.891,33.477L288.613,33.389L289.336,33.112L290.059,32.985L290.781,32.813L291.504,32.538L292.227,32.389L292.949,32.198L293.672,32.011L294.395,31.888L295.117,31.678L295.84,31.538L296.563,31.351L297.285,31.232L298.008,31.002L298.73,30.857L299.453,30.739L300.176,30.56L300.898,30.432L301.621,30.256L302.344,30.148L303.066,29.948L303.789,29.705L304.512,29.673L305.234,29.481L305.957,29.386L306.68,29.265L307.402,29.108L308.125,28.943L308.848,28.895L309.57,28.753L310.293,28.583L311.016,28.49L311.738,28.414L312.461,28.302L313.184,28.199L313.906,28.121L314.629,28.018L315.352,27.866L316.074,27.757L316.797,27.666L317.52,27.584L318.242,27.482L318.965,27.352L319.688,27.27L320.41,27.235L321.133,27.109L321.855,27.094L322.578,27.05L323.301,26.902L324.023,26.814L324.746,26.686L325.469,26.647L326.191,26.583L326.914,26.512L327.637,26.503L328.359,26.472L329.082,26.251L329.805,26.283L330.527,26.227L331.25,26.106L331.973,26.012L332.695,25.959L333.418,25.962L334.141,25.866L334.863,25.797L335.586,25.748L336.309,25.654L337.031,25.588L337.754,25.553L338.477,25.486L339.199,25.368L339.922,25.347L340.645,25.351L341.367,25.282L342.09,25.172L342.813,25.142L343.535,25.021L344.258,24.995L344.98,24.961L345.703,24.89L346.426,24.803L347.148,24.715L347.871,24.662L348.594,24.628L349.316,24.548L350.039,24.413L350.762,24.414L351.484,24.336L352.207,24.234L352.93,24.174L353.652,24.148L354.375,24.026L355.098,23.967L355.82,23.981L356.543,23.875L357.266,23.787L357.988,23.678L358.711,23.614L359.434,23.589L360.156,23.514L360.879,23.431L361.602,23.377L362.324,23.318L363.047,23.233L363.77,23.255L364.492,23.132L365.215,23.006L365.938,22.967L366.66,22.914L367.383,22.868L368.105,22.797L368.828,22.718L369.551,22.579L370.273,22.548L370.996,22.509L371.719,22.447L372.441,22.374L373.164,22.355L373.887,22.303L374.609,22.226L375.332,22.143L376.055,22.112L376.777,22.095L377.5,22.028L378.223,21.963L378.945,21.951L379.668,21.828L380.391,21.826L381.113,21.733L381.836,21.692L382.559,21.693L383.281,21.547L384.004,21.531L384.727,21.524L385.449,21.464L386.172,21.449L386.895,21.356L387.617,21.394L388.34,21.275L389.063,21.218L389.785,21.209L390.508,21.23L391.23,21.186L391.953,21.082L392.676,21.112L393.398,21.069L394.121,21.008L394.844,21.028L395.566,20.987L396.289,20.928L397.012,20.924L397.734,20.866L398.457,20.913L399.18,20.851L399.902,20.784L400.625,20.777L401.348,20.795L402.07,20.762L402.793,20.719L403.516,20.702L404.238,20.715L404.961,20.625L405.684,20.632L406.406,20.609L407.129,20.614L407.852,20.596L408.574,20.578L409.297,20.602L410.02,20.566L410.742,20.505L411.465,20.503L412.188,20.514L412.91,20.51L413.633,20.449L414.355,20.446L415.078,20.44L415.801,20.445L416.523,20.442L417.246,20.408L417.969,20.423L418.691,20.409L419.414,20.406L420.137,20.414L420.859,20.398L421.582,20.392L422.305,20.367L423.027,20.327L423.75,20.344L424.473,20.352L425.195,20.336L425.918,20.335L426.641,20.334L427.363,20.341L428.086,20.305L428.809,20.283L429.531,20.301L430.254,20.31L430.977,20.32L431.699,20.29L432.422,20.302L433.145,20.301L433.867,20.291L434.59,20.305L435.313,20.273L436.035,20.274L436.758,20.25L437.48,20.258L438.203,20.257L438.926,20.26L439.648,20.254L440.371,20.255L441.094,20.257L441.816,20.239L442.539,20.238L443.262,20.261L443.984,20.259L444.707,20.227L445.43,20.234L446.152,20.253L446.875,20.235L447.598,20.228L448.32,20.234L449.043,20.242L449.766,20.238L450.488,20.225L451.211,20.219L451.934,20.227L452.656,20.222L453.379,20.226L454.102,20.227L454.824,20.211L455.547,20.214L456.27,20.205L456.992,20.218L457.715,20.225L458.438,20.216L459.16,20.212L459.883,20.215L460.605,20.207L461.328,20.206L462.051,20.206L462.773,20.213L463.496,20.212L464.219,20.209L464.941,20.201L465.664,20.204L466.387,20.205L467.109,20.205L467.832,20.197L468.555,20.204L469.277,20.203"/><path fill="none" stroke="rgb(236, 209, 46)" stroke-width="1.5" d="M100,122.73L100.723,123.011L101.445,123.323L102.168,123.561L102.891,123.809L103.613,124.099L104.336,124.58L105.059,124.686L105.781,125.124L106.504,125.356L107.227,125.706L107.949,126.043L108.672,126.354L109.395,126.688L110.117,127.081L110.84,127.516L111.563,127.834L112.285,128.175L113.008,128.51L113.73,129.099L114.453,129.51L115.176,129.857L115.898,130.255L116.621,130.723L117.344,131.083L118.066,131.549L118.789,132.008L119.512,132.473L120.234,132.769L120.957,133.429L121.68,133.93L122.402,134.514L123.125,134.869L123.848,135.217L124.57,135.834L125.293,136.281L126.016,136.777L126.738,137.075L127.461,137.725L128.184,138.073L128.906,138.75L129.629,139.169L130.352,139.583L131.074,140.084L131.797,140.452L132.52,140.976L133.242,141.401L133.965,141.782L134.688,142.328L135.41,142.791L136.133,143.039L136.855,143.58L137.578,143.673L138.301,144.428L139.023,144.492L139.746,144.818L140.469,145.139L141.191,145.22L141.914,145.665L142.637,146.014L143.359,146.143L144.082,146.314L144.805,146.456L145.527,146.576L146.25,146.519L146.973,146.451L147.695,146.586L148.418,146.622L149.141,146.664L149.863,146.549L150.586,146.385L151.309,146.122L152.031,145.967L152.754,145.87L153.477,145.456L154.199,145.119L154.922,144.612L155.645,144.351L156.367,143.923L157.09,143.488L157.813,142.97L158.535,142.348L159.258,141.751L159.98,141.021L160.703,140.407L161.426,139.558L162.148,138.828L162.871,137.954L163.594,137.121L164.316,136.001L165.039,135.387L165.762,134.358L166.484,133.225L167.207,132.206L167.93,131.143L168.652,130.092L169.375,128.934L170.098,127.725L170.82,126.595L171.543,125.373L172.266,123.928L172.988,122.668L173.711,121.485L174.434,119.951L175.156,118.58L175.879,117.277L176.602,115.807L177.324,114.374L178.047,113.04L178.77,111.495L179.492,110.061L180.215,108.652L180.938,107.213L181.66,105.645L182.383,104.096L183.105,102.548L183.828,101.196L184.551,99.599L185.273,98.053L185.996,96.497L186.719,94.937L187.441,93.519L188.164,91.967L188.887,90.371L189.609,88.997L190.332,87.348L191.055,85.81L191.777,84.373L192.5,82.789L193.223,81.361L193.945,79.796L194.668,78.325L195.391,76.914L196.113,75.468L196.836,74.022L197.559,72.577L198.281,71.212L199.004,69.7L199.727,68.247L200.449,66.877L201.172,65.468L201.895,63.989L202.617,62.725L203.34,61.342L204.063,60.027L204.785,58.854L205.508,57.513L206.23,56.182L206.953,54.845L207.676,53.647L208.398,52.465L209.121,51.232L209.844,50.077L210.566,48.864L211.289,47.586L212.012,46.478L212.734,45.405L213.457,44.203L214.18,43.204L214.902,42.106L215.625,41.05L216.348,40.046L217.07,39.03L217.793,38.072L218.516,37.015L219.238,36.018L219.961,34.976L220.684,34.278L221.406,33.314L222.129,32.289L222.852,33.869L223.574,35.827L224.297,37.816L225.02,39.736L225.742,41.603L226.465,43.754L227.188,43.993L227.91,43.582L228.633,43.311L229.355,42.837L230.078,42.765L230.801,42.371L231.523,42L232.246,41.776L232.969,41.375L233.691,40.962L234.414,40.705L235.137,40.427L235.859,40.155L236.582,39.793L237.305,39.519L238.027,39.264L238.75,38.948L239.473,38.678L240.195,38.41L240.918,38.08L241.641,37.808L242.363,37.613L243.086,37.362L243.809,37.101L244.531,36.91L245.254,36.559L245.977,36.283L246.699,36.148L247.422,35.831L248.145,35.502L248.867,35.389L249.59,35.138L250.313,34.976L251.035,34.715L251.758,34.439L252.48,34.232L253.203,34.044L253.926,33.832L254.648,33.632L255.371,33.447L256.094,33.22L256.816,33.134L257.539,32.909L258.262,32.799L258.984,32.585L259.707,32.467L260.43,32.339L261.152,32.158L261.875,31.937L262.598,31.767L263.32,31.679L264.043,31.583L264.766,31.41L265.488,31.425L266.211,31.243L266.934,31.226L267.656,31.063L268.379,30.973L269.102,30.966L269.824,30.791L270.547,30.81L271.27,30.665L271.992,30.555L272.715,30.508L273.438,30.459L274.16,30.43L274.883,30.354L275.605,30.33L276.328,30.235L277.051,30.194L277.773,30.139L278.496,30.056L279.219,30.05L279.941,30.008L280.664,29.907L281.387,29.806L282.109,29.758L282.832,29.736L283.555,29.708L284.277,29.568L285,29.5L285.723,29.46L286.445,29.341L287.168,29.29L287.891,29.141L288.613,29.121L289.336,29.04L290.059,28.986L290.781,28.884L291.504,28.826L292.227,28.688L292.949,28.619L293.672,28.521L294.395,28.466L295.117,28.332L295.84,28.281L296.563,28.159L297.285,28.086L298.008,28.023L298.73,27.899L299.453,27.774L300.176,27.778L300.898,27.678L301.621,27.546L302.344,27.48L303.066,27.38L303.789,27.304L304.512,27.298L305.234,27.138L305.957,27.044L306.68,26.968L307.402,26.909L308.125,26.855L308.848,26.771L309.57,26.674L310.293,26.571L311.016,26.559L311.738,26.466L312.461,26.432L313.184,26.34L313.906,26.235L314.629,26.167L315.352,26.113L316.074,26.034L316.797,25.963L317.52,25.917L318.242,25.922L318.965,25.83L319.688,25.73L320.41,25.68L321.133,25.659L321.855,25.561L322.578,25.521L323.301,25.46L324.023,25.435L324.746,25.384L325.469,25.273L326.191,25.253L326.914,25.214L327.637,25.176L328.359,25.104L329.082,25.049L329.805,25.013L330.527,24.934L331.25,24.918L331.973,24.841L332.695,24.804L333.418,24.789L334.141,24.71L334.863,24.667L335.586,24.669L336.309,24.661L337.031,24.587L337.754,24.537L338.477,24.529L339.199,24.455L339.922,24.428L340.645,24.4L341.367,24.349L342.09,24.298L342.813,24.23L343.535,24.23L344.258,24.147L344.98,24.136L345.703,24.064L346.426,24.035L347.148,23.978L347.871,23.942L348.594,23.935L349.316,23.861L350.039,23.849L350.762,23.786L351.484,23.748L352.207,23.697L352.93,23.636L353.652,23.597L354.375,23.504L355.098,23.494L355.82,23.46L356.543,23.41L357.266,23.324L357.988,23.277L358.711,23.242L359.434,23.203L360.156,23.143L360.879,23.074L361.602,23.049L362.324,22.951L363.047,22.909L363.77,22.887L364.492,22.811L365.215,22.764L365.938,22.735L366.66,22.663L367.383,22.605L368.105,22.529L368.828,22.509L369.551,22.461L370.273,22.401L370.996,22.35L371.719,22.305L372.441,22.26L373.164,22.185L373.887,22.162L374.609,22.135L375.332,22.051L376.055,21.976L376.777,21.952L377.5,21.924L378.223,21.836L378.945,21.811L379.668,21.76L380.391,21.734L381.113,21.683L381.836,21.641L382.559,21.573L383.281,21.532L384.004,21.475L384.727,21.436L385.449,21.419L386.172,21.377L386.895,21.328L387.617,21.311L388.34,21.258L389.063,21.228L389.785,21.198L390.508,21.175L391.23,21.154L391.953,21.105L392.676,21.058L393.398,21.019L394.121,21.012L394.844,20.992L395.566,20.949L396.289,20.917L397.012,20.883L397.734,20.869L398.457,20.864L399.18,20.829L399.902,20.781L400.625,20.777L401.348,20.747L402.07,20.717L402.793,20.723L403.516,20.692L404.238,20.669L404.961,20.657L405.684,20.626L406.406,20.604L407.129,20.612L407.852,20.586L408.574,20.568L409.297,20.555L410.02,20.534L410.742,20.527L411.465,20.505L412.188,20.494L412.91,20.498L413.633,20.472L414.355,20.461L415.078,20.456L415.801,20.439L416.523,20.429L417.246,20.426L417.969,20.409L418.691,20.408L419.414,20.404L420.137,20.39L420.859,20.372L421.582,20.372L422.305,20.361L423.027,20.365L423.75,20.354L424.473,20.349L425.195,20.348L425.918,20.335L426.641,20.33L427.363,20.309L428.086,20.313L428.809,20.307L429.531,20.308L430.254,20.301L430.977,20.297L431.699,20.289L432.422,20.291L433.145,20.288L433.867,20.273L434.59,20.282L435.313,20.273L436.035,20.272L436.758,20.272L437.48,20.259L438.203,20.258L438.926,20.257L439.648,20.257L440.371,20.251L441.094,20.251L441.816,20.25L442.539,20.248L443.262,20.245L443.984,20.244L444.707,20.239L445.43,20.236L446.152,20.236L446.875,20.233L447.598,20.23L448.32,20.228L449.043,20.228L449.766,20.232L450.488,20.229L451.211,20.225L451.934,20.222L452.656,20.221L453.379,20.219L454.102,20.22L454.824,20.215L455.547,20.218L456.27,20.217L456.992,20.213L457.715,20.212L458.438,20.214L459.16,20.212L459.883,20.211L460.605,20.21L461.328,20.211L462.051,20.209L462.773,20.206L463.496,20.208L464.219,20.207L464.941,20.207L465.664,20.205L466.387,20.205L467.109,20.206L467.832,20.204L468.555,20.202L469.277,20.202"/><path fill="none" stroke="rgb(255, 130, 29)" stroke-width="1.5" d="M100,124.993L100.723,125.468L101.445,125.792L102.168,125.977L102.891,126.353L103.613,126.578L104.336,126.926L105.059,127.115L105.781,127.432L106.504,127.719L107.227,128.015L107.949,128.277L108.672,128.468L109.395,128.876L110.117,128.985L110.84,129.326L111.563,129.351L112.285,129.588L113.008,129.903L113.73,130.075L114.453,130.269L115.176,130.46L115.898,130.486L116.621,130.606L117.344,130.643L118.066,130.667L118.789,130.917L119.512,130.808L120.234,130.804L120.957,130.926L121.68,130.767L122.402,130.72L123.125,130.572L123.848,130.432L124.57,130.201L125.293,129.961L126.016,129.873L126.738,129.494L127.461,129.122L128.184,128.831L128.906,128.527L129.629,128.26L130.352,127.778L131.074,127.19L131.797,126.627L132.52,126.184L133.242,125.511L133.965,124.857L134.688,124.25L135.41,123.555L136.133,122.943L136.855,122.173L137.578,121.282L138.301,120.572L139.023,119.78L139.746,118.709L140.469,117.941L141.191,116.965L141.914,115.996L142.637,114.978L143.359,113.974L144.082,112.846L144.805,111.776L145.527,110.6L146.25,109.499L146.973,108.444L147.695,107.118L148.418,106.109L149.141,104.829L149.863,103.621L150.586,102.359L151.309,101.06L152.031,99.744L152.754,98.598L153.477,97.262L154.199,95.838L154.922,94.577L155.645,93.33L156.367,91.947L157.09,90.7L157.813,89.302L158.535,87.874L159.258,86.564L159.98,85.197L160.703,83.918L161.426,82.519L162.148,81.152L162.871,79.654L163.594,78.447L164.316,77.069L165.039,75.865L165.762,74.412L166.484,73.202L167.207,71.617L167.93,70.423L168.652,69.156L169.375,67.714L170.098,66.326L170.82,65.157L171.543,64.023L172.266,62.674L172.988,61.331L173.711,60.159L174.434,58.852L175.156,57.635L175.879,56.298L176.602,55.258L177.324,53.984L178.047,52.735L178.77,51.44L179.492,50.228L180.215,49.154L180.938,47.923L181.66,46.971L182.383,45.604L183.105,44.54L183.828,43.591L184.551,42.488L185.273,41.406L185.996,40.337L186.719,39.335L187.441,38.244L188.164,37.333L188.887,36.308L189.609,35.391L190.332,34.412L191.055,33.373L191.777,32.422L192.5,31.539L193.223,30.627L193.945,29.75L194.668,29.852L195.391,31.763L196.113,33.713L196.836,35.586L197.559,37.658L198.281,39.539L199.004,41.129L199.727,40.857L200.449,40.428L201.172,40.196L201.895,39.816L202.617,39.455L203.34,39.098L204.063,38.82L204.785,38.608L205.508,38.242L206.23,37.804L206.953,37.584L207.676,37.323L208.398,37.093L209.121,36.714L209.844,36.454L210.566,36.345L211.289,35.899L212.012,35.719L212.734,35.434L213.457,35.174L214.18,34.994L214.902,34.752L215.625,34.556L216.348,34.17L217.07,34.128L217.793,33.868L218.516,33.624L219.238,33.406L219.961,33.254L220.684,33.155L221.406,32.883L222.129,32.764L222.852,32.629L223.574,32.493L224.297,32.24L225.02,32.123L225.742,31.986L226.465,31.737L227.188,31.691L227.91,31.594L228.633,31.434L229.355,31.327L230.078,31.142L230.801,31L231.523,30.955L232.246,30.759L232.969,30.621L233.691,30.556L234.414,30.483L235.137,30.451L235.859,30.283L236.582,30.2L237.305,30.064L238.027,30.036L238.75,29.939L239.473,29.845L240.195,29.768L240.918,29.722L241.641,29.647L242.363,29.537L243.086,29.42L243.809,29.341L244.531,29.348L245.254,29.206L245.977,29.207L246.699,29.146L247.422,29.092L248.145,29.022L248.867,28.912L249.59,28.91L250.313,28.862L251.035,28.82L251.758,28.737L252.48,28.701L253.203,28.739L253.926,28.655L254.648,28.472L255.371,28.532L256.094,28.498L256.816,28.497L257.539,28.437L258.262,28.379L258.984,28.381L259.707,28.381L260.43,28.342L261.152,28.349L261.875,28.267L262.598,28.266L263.32,28.269L264.043,28.269L264.766,28.227L265.488,28.287L266.211,28.247L266.934,28.261L267.656,28.248L268.379,28.228L269.102,28.235L269.824,28.249L270.547,28.321L271.27,28.3L271.992,28.323L272.715,28.32L273.438,28.339L274.16,28.376L274.883,28.338L275.605,28.395L276.328,28.396L277.051,28.385L277.773,28.389L278.496,28.476L279.219,28.449L279.941,28.421L280.664,28.426L281.387,28.428L282.109,28.421L282.832,28.34L283.555,28.362L284.277,28.331L285,28.33L285.723,28.264L286.445,28.237L287.168,28.229L287.891,28.173L288.613,28.131L289.336,28.088L290.059,28.022L290.781,27.978L291.504,27.906L292.227,27.854L292.949,27.798L293.672,27.761L294.395,27.679L295.117,27.646L295.84,27.559L296.563,27.478L297.285,27.371L298.008,27.334L298.73,27.31L299.453,27.248L300.176,27.119L300.898,27.051L301.621,26.989L302.344,26.914L303.066,26.868L303.789,26.774L304.512,26.718L305.234,26.624L305.957,26.605L306.68,26.513L307.402,26.372L308.125,26.322L308.848,26.231L309.57,26.207L310.293,26.128L311.016,26.074L311.738,25.994L312.461,25.92L313.184,25.86L313.906,25.823L314.629,25.747L315.352,25.697L316.074,25.616L316.797,25.576L317.52,25.482L318.242,25.453L318.965,25.412L319.688,25.339L320.41,25.28L321.133,25.264L321.855,25.232L322.578,25.161L323.301,25.128L324.023,25.047L324.746,25.001L325.469,24.897L326.191,24.909L326.914,24.836L327.637,24.868L328.359,24.812L329.082,24.716L329.805,24.667L330.527,24.64L331.25,24.627L331.973,24.59L332.695,24.545L333.418,24.519L334.141,24.5L334.863,24.467L335.586,24.405L336.309,24.373L337.031,24.321L337.754,24.316L338.477,24.245L339.199,24.265L339.922,24.204L340.645,24.175L341.367,24.147L342.09,24.059L342.813,24.044L343.535,24.028L344.258,24.009L344.98,23.977L345.703,23.981L346.426,23.936L347.148,23.888L347.871,23.862L348.594,23.831L349.316,23.782L350.039,23.75L350.762,23.691L351.484,23.668L352.207,23.61L352.93,23.554L353.652,23.535L354.375,23.483L355.098,23.427L355.82,23.434L356.543,23.354L357.266,23.288L357.988,23.291L358.711,23.228L359.434,23.183L360.156,23.182L360.879,23.097L361.602,23.051L362.324,23.029L363.047,22.978L363.77,22.924L364.492,22.877L365.215,22.869L365.938,22.8L366.66,22.744L367.383,22.74L368.105,22.633L368.828,22.597L369.551,22.548L370.273,22.494L370.996,22.435L371.719,22.397L372.441,22.336L373.164,22.267L373.887,22.247L374.609,22.2L375.332,22.125L376.055,22.096L376.777,22.045L377.5,21.972L378.223,21.937L378.945,21.897L379.668,21.841L380.391,21.817L381.113,21.76L381.836,21.745L382.559,21.684L383.281,21.661L384.004,21.577L384.727,21.562L385.449,21.497L386.172,21.476L386.895,21.436L387.617,21.394L388.34,21.368L389.063,21.321L389.785,21.272L390.508,21.25L391.23,21.233L391.953,21.192L392.676,21.14L393.398,21.129L394.121,21.08L394.844,21.07L395.566,21.038L396.289,20.99L397.012,20.962L397.734,20.937L398.457,20.918L399.18,20.892L399.902,20.859L400.625,20.852L401.348,20.796L402.07,20.789L402.793,20.771L403.516,20.76L404.238,20.728L404.961,20.706L405.684,20.699L406.406,20.677L407.129,20.658L407.852,20.643L408.574,20.607L409.297,20.6L410.02,20.599L410.742,20.569L411.465,20.573L412.188,20.538L412.91,20.525L413.633,20.507L414.355,20.507L415.078,20.483L415.801,20.472L416.523,20.473L417.246,20.455L417.969,20.437L418.691,20.435L419.414,20.427L420.137,20.422L420.859,20.411L421.582,20.403L422.305,20.391L423.027,20.377L423.75,20.375L424.473,20.365L425.195,20.362L425.918,20.353L426.641,20.347L427.363,20.344L428.086,20.34L428.809,20.325L429.531,20.331L430.254,20.314L430.977,20.316L431.699,20.305L432.422,20.314L433.145,20.302L433.867,20.295L434.59,20.292L435.313,20.293L436.035,20.287L436.758,20.276L437.48,20.27L438.203,20.271L438.926,20.27L439.648,20.275L440.371,20.266L441.094,20.264L441.816,20.255L442.539,20.25L443.262,20.259L443.984,20.244L444.707,20.25L445.43,20.246L446.152,20.237L446.875,20.246L447.598,20.237L448.32,20.238L449.043,20.24L449.766,20.238L450.488,20.236L451.211,20.231L451.934,20.233L452.656,20.229L453.379,20.224L454.102,20.22L454.824,20.224L455.547,20.223L456.27,20.22L456.992,20.219L457.715,20.218L458.438,20.214L459.16,20.218L459.883,20.215L460.605,20.213L461.328,20.211L462.051,20.212L462.773,20.21L463.496,20.21L464.219,20.21L464.941,20.209L465.664,20.208L466.387,20.207L467.109,20.205L467.832,20.205L468.555,20.203L469.277,20.204"/><path fill="none" stroke="rgb(203, 47, 13)" stroke-width="1.5" d="M100,43.682L100.723,43.828L101.445,43.95L102.168,44.195L102.891,44.344L103.613,44.446L104.336,44.656L105.059,44.801L105.781,44.781L106.504,45.098L107.227,45.149L107.949,45.403L108.672,45.439L109.395,45.567L110.117,45.677L110.84,45.798L111.563,46.011L112.285,46.075L113.008,46.123L113.73,46.249L114.453,46.299L115.176,46.324L115.898,46.456L116.621,46.445L117.344,46.632L118.066,46.603L118.789,46.727L119.512,46.771L120.234,46.895L120.957,46.84L121.68,46.884L122.402,46.925L123.125,47.045L123.848,47.022L124.57,46.993L125.293,47.049L126.016,47.05L126.738,47.19L127.461,47.122L128.184,47.208L128.906,47.13L129.629,47.016L130.352,47.198L131.074,47.09L131.797,47.151L132.52,47.164L133.242,47.064L133.965,47.166L134.688,46.987L135.41,47.038L136.133,46.81L136.855,46.897L137.578,46.955L138.301,46.923L139.023,46.904L139.746,46.808L140.469,46.844L141.191,46.726L141.914,46.657L142.637,46.609L143.359,46.587L144.082,46.552L144.805,46.481L145.527,46.494L146.25,46.435L146.973,46.378L147.695,46.406L148.418,46.205L149.141,46.117L149.863,46.091L150.586,46.126L151.309,46.074L152.031,45.844L152.754,45.69L153.477,45.668L154.199,45.561L154.922,45.531L155.645,45.4L156.367,45.334L157.09,45.333L157.813,45.157L158.535,45.025L159.258,45.026L159.98,44.883L160.703,44.649L161.426,44.804L162.148,44.629L162.871,44.507L163.594,44.451L164.316,44.385L165.039,44.324L165.762,44.137L166.484,44.059L167.207,43.896L167.93,43.84L168.652,43.757L169.375,43.577L170.098,43.554L170.82,43.494L171.543,43.301L172.266,43.304L172.988,42.991L173.711,43.002L174.434,42.877L175.156,42.782L175.879,42.68L176.602,42.54L177.324,42.336L178.047,42.289L178.77,42.199L179.492,42.063L180.215,42.068L180.938,41.908L181.66,41.742L182.383,41.53L183.105,41.442L183.828,41.306L184.551,41.4L185.273,41.167L185.996,41.124L186.719,40.904L187.441,40.901L188.164,40.741L188.887,40.477L189.609,40.426L190.332,40.325L191.055,40.353L191.777,40.003L192.5,40.053L193.223,39.856L193.945,39.803L194.668,39.655L195.391,39.607L196.113,39.455L196.836,39.359L197.559,39.225L198.281,39.125L199.004,38.981L199.727,38.753L200.449,38.721L201.172,38.604L201.895,38.53L202.617,38.317L203.34,38.26L204.063,38.197L204.785,38.121L205.508,37.943L206.23,37.856L206.953,37.625L207.676,37.665L208.398,37.507L209.121,37.403L209.844,37.29L210.566,37.098L211.289,37.12L212.012,36.989L212.734,36.782L213.457,36.774L214.18,36.605L214.902,36.591L215.625,36.422L216.348,36.291L217.07,36.315L217.793,36.148L218.516,36.083L219.238,35.931L219.961,35.883L220.684,35.722L221.406,35.647L222.129,35.576L222.852,35.444L223.574,35.32L224.297,35.244L225.02,35.108L225.742,35.082L226.465,34.92L227.188,34.891L227.91,34.846L228.633,34.749L229.355,34.57L230.078,34.463L230.801,34.421L231.523,34.323L232.246,34.287L232.969,34.267L233.691,34.125L234.414,34.138L235.137,33.977L235.859,33.862L236.582,33.729L237.305,33.708L238.027,33.572L238.75,33.548L239.473,33.465L240.195,33.439L240.918,33.318L241.641,33.236L242.363,33.176L243.086,33.12L243.809,32.941L244.531,32.941L245.254,32.895L245.977,32.82L246.699,32.766L247.422,32.652L248.145,32.554L248.867,32.49L249.59,32.515L250.313,32.375L251.035,32.371L251.758,32.24L252.48,32.195L253.203,32.145L253.926,32.037L254.648,32.001L255.371,31.945L256.094,31.902L256.816,31.762L257.539,31.777L258.262,31.749L258.984,31.689L259.707,31.663L260.43,31.583L261.152,31.547L261.875,31.473L262.598,31.476L263.32,31.444L264.043,31.402L264.766,31.32L265.488,31.394L266.211,31.339L266.934,31.315L267.656,31.37L268.379,31.29L269.102,31.29L269.824,31.33L270.547,31.301L271.27,31.23L271.992,31.239L272.715,31.179L273.438,31.24L274.16,31.296L274.883,31.207L275.605,31.161L276.328,31.196L277.051,31.154L277.773,31.135L278.496,31.167L279.219,31.127L279.941,31.093L280.664,31.031L281.387,31.068L282.109,31L282.832,30.981L283.555,30.958L284.277,30.922L285,30.91L285.723,30.821L286.445,30.729L287.168,30.668L287.891,30.608L288.613,30.573L289.336,30.477L290.059,30.356L290.781,30.296L291.504,30.255L292.227,30.151L292.949,30.091L293.672,29.996L294.395,29.926L295.117,29.88L295.84,29.79L296.563,29.649L297.285,29.562L298.008,29.525L298.73,29.376L299.453,29.311L300.176,29.246L300.898,29.131L301.621,29.068L302.344,28.962L303.066,28.803L303.789,28.738L304.512,28.644L305.234,28.578L305.957,28.488L306.68,28.38L307.402,28.297L308.125,28.277L308.848,28.14L309.57,28.051L310.293,27.924L311.016,27.896L311.738,27.82L312.461,27.677L313.184,27.646L313.906,27.596L314.629,27.534L315.352,27.368L316.074,27.338L316.797,27.255L317.52,27.169L318.242,27.098L318.965,27.007L319.688,27.009L320.41,26.898L321.133,26.813L321.855,26.77L322.578,26.678L323.301,26.645L324.023,26.588L324.746,26.492L325.469,26.461L326.191,26.406L326.914,26.323L327.637,26.269L328.359,26.199L329.082,26.175L329.805,26.078L330.527,26.069L331.25,26.033L331.973,25.939L332.695,25.875L333.418,25.912L334.141,25.786L334.863,25.729L335.586,25.697L336.309,25.642L337.031,25.62L337.754,25.572L338.477,25.528L339.199,25.449L339.922,25.381L340.645,25.404L341.367,25.335L342.09,25.261L342.813,25.212L343.535,25.194L344.258,25.124L344.98,25.143L345.703,25.114L346.426,24.994L347.148,25.005L347.871,24.964L348.594,24.886L349.316,24.806L350.039,24.807L350.762,24.752L351.484,24.679L352.207,24.649L352.93,24.59L353.652,24.555L354.375,24.466L355.098,24.407L355.82,24.428L356.543,24.358L357.266,24.266L357.988,24.221L358.711,24.176L359.434,24.11L360.156,24.068L360.879,24.005L361.602,23.894L362.324,23.88L363.047,23.822L363.77,23.758L364.492,23.663L365.215,23.585L365.938,23.561L366.66,23.525L367.383,23.433L368.105,23.396L368.828,23.318L369.551,23.263L370.273,23.2L370.996,23.153L371.719,23.057L372.441,23.012L373.164,22.949L373.887,22.879L374.609,22.813L375.332,22.756L376.055,22.696L376.777,22.663L377.5,22.572L378.223,22.549L378.945,22.494L379.668,22.428L380.391,22.378L381.113,22.298L381.836,22.253L382.559,22.174L383.281,22.138L384.004,22.112L384.727,22.031L385.449,21.976L386.172,21.913L386.895,21.848L387.617,21.8L388.34,21.773L389.063,21.742L389.785,21.668L390.508,21.663L391.23,21.569L391.953,21.562L392.676,21.496L393.398,21.456L394.121,21.414L394.844,21.406L395.566,21.336L396.289,21.287L397.012,21.28L397.734,21.23L398.457,21.192L399.18,21.156L399.902,21.13L400.625,21.098L401.348,21.075L402.07,21.023L402.793,21.034L403.516,20.989L404.238,20.964L404.961,20.917L405.684,20.897L406.406,20.856L407.129,20.84L407.852,20.822L408.574,20.796L409.297,20.778L410.02,20.741L410.742,20.742L411.465,20.724L412.188,20.705L412.91,20.689L413.633,20.672L414.355,20.642L415.078,20.606L415.801,20.622L416.523,20.595L417.246,20.587L417.969,20.575L418.691,20.567L419.414,20.537L420.137,20.517L420.859,20.511L421.582,20.495L422.305,20.49L423.027,20.482L423.75,20.464L424.473,20.466L425.195,20.439L425.918,20.434L426.641,20.428L427.363,20.404L428.086,20.416L428.809,20.398L429.531,20.392L430.254,20.382L430.977,20.367L431.699,20.38L432.422,20.355L433.145,20.358L433.867,20.349L434.59,20.341L435.313,20.35L436.035,20.34L436.758,20.327L437.48,20.324L438.203,20.32L438.926,20.313L439.648,20.306L440.371,20.302L441.094,20.301L441.816,20.296L442.539,20.298L443.262,20.29L443.984,20.283L444.707,20.284L445.43,20.278L446.152,20.281L446.875,20.265L447.598,20.266L448.32,20.264L449.043,20.27L449.766,20.256L450.488,20.257L451.211,20.255L451.934,20.25L452.656,20.248L453.379,20.247L454.102,20.248L454.824,20.244L455.547,20.245L456.27,20.238L456.992,20.238L457.715,20.233L458.438,20.236L459.16,20.234L459.883,20.228L460.605,20.232L461.328,20.228L462.051,20.225L462.773,20.227L463.496,20.221L464.219,20.223L464.941,20.22L465.664,20.219L466.387,20.22L467.109,20.216L467.832,20.216L468.555,20.214L469.277,20.217"/><g transform="translate(15,190) scale(1.7) rotate(-90)"><text>Drift</text></g><g transform="translate(315,395) scale(1.8)"><text></text></g><g transform="translate(0,350)" fill="none" font-size="10" font-family="sans-serif" text-anchor="middle"><path class="domain" stroke="currentColor" d="M100,6V0H470V6"/><g class="tick" opacity="1" transform="translate(136.96669666966696,0)"><line stroke="currentColor" y2="6"/><text fill="currentColor" y="9" dy="0.71em" font-size="20px"> </text></g><g class="tick" opacity="1" transform="translate(173.97039703970398,0)"><line stroke="currentColor" y2="6"/><text fill="currentColor" y="9" dy="0.71em" font-size="20px">20</text></g><g class="tick" opacity="1" transform="translate(210.97409740974098,0)"><line stroke="currentColor" y2="6"/><text fill="currentColor" y="9" dy="0.71em" font-size="20px"> </text></g><g class="tick" opacity="1" transform="translate(247.97779777977803,0)"><line stroke="currentColor" y2="6"/><text fill="currentColor" y="9" dy="0.71em" font-size="20px">40</text></g><g class="tick" opacity="1" transform="translate(284.981498149815,0)"><line stroke="currentColor" y2="6"/><text fill="currentColor" y="9" dy="0.71em" font-size="20px"> </text></g><g class="tick" opacity="1" transform="translate(321.985198519852,0)"><line stroke="currentColor" y2="6"/><text fill="currentColor" y="9" dy="0.71em" font-size="20px">60</text></g><g class="tick" opacity="1" transform="translate(358.988898889889,0)"><line stroke="currentColor" y2="6"/><text fill="currentColor" y="9" dy="0.71em" font-size="20px"> </text></g><g class="tick" opacity="1" transform="translate(395.992599259926,0)"><line stroke="currentColor" y2="6"/><text fill="currentColor" y="9" dy="0.71em" font-size="20px">80</text></g><g class="tick" opacity="1" transform="translate(432.996299629963,0)"><line stroke="currentColor" y2="6"/><text fill="currentColor" y="9" dy="0.71em" font-size="20px"> </text></g><g class="tick" opacity="1" transform="translate(470,0)"><line stroke="currentColor" y2="6"/><text fill="currentColor" y="9" dy="0.71em" font-size="20px">100</text></g></g><g transform="translate(100,0)" fill="none" font-size="10" font-family="sans-serif" text-anchor="end"><path class="domain" stroke="currentColor" d="M-6,350H0V20H-6"/><g class="tick" opacity="1" transform="translate(0,345.1307647316391)"><line stroke="currentColor" x2="-6"/><text fill="currentColor" x="-9" dy="0.32em" font-size="20px">0.65</text></g><g class="tick" opacity="1" transform="translate(0,319.47749506559546)"><line stroke="currentColor" x2="-6"/><text fill="currentColor" x="-9" dy="0.32em" font-size="20px">0.60</text></g><g class="tick" opacity="1" transform="translate(0,293.82422539955195)"><line stroke="currentColor" x2="-6"/><text fill="currentColor" x="-9" dy="0.32em" font-size="20px">0.55</text></g><g class="tick" opacity="1" transform="translate(0,268.17095573350826)"><line stroke="currentColor" x2="-6"/><text fill="currentColor" x="-9" dy="0.32em" font-size="20px">0.50</text></g><g class="tick" opacity="1" transform="translate(0,242.51768606746467)"><line stroke="currentColor" x2="-6"/><text fill="currentColor" x="-9" dy="0.32em" font-size="20px">0.45</text></g><g class="tick" opacity="1" transform="translate(0,216.8644164014211)"><line stroke="currentColor" x2="-6"/><text fill="currentColor" x="-9" dy="0.32em" font-size="20px">0.40</text></g><g class="tick" opacity="1" transform="translate(0,191.21114673537744)"><line stroke="currentColor" x2="-6"/><text fill="currentColor" x="-9" dy="0.32em" font-size="20px">0.35</text></g><g class="tick" opacity="1" transform="translate(0,165.55787706933384)"><line stroke="currentColor" x2="-6"/><text fill="currentColor" x="-9" dy="0.32em" font-size="20px">0.30</text></g><g class="tick" opacity="1" transform="translate(0,139.90460740329024)"><line stroke="currentColor" x2="-6"/><text fill="currentColor" x="-9" dy="0.32em" font-size="20px">0.25</text></g><g class="tick" opacity="1" transform="translate(0,114.25133773724667)"><line stroke="currentColor" x2="-6"/><text fill="currentColor" x="-9" dy="0.32em" font-size="20px">0.20</text></g><g class="tick" opacity="1" transform="translate(0,88.59806807120306)"><line stroke="currentColor" x2="-6"/><text fill="currentColor" x="-9" dy="0.32em" font-size="20px">0.15</text></g><g class="tick" opacity="1" transform="translate(0,62.94479840515942)"><line stroke="currentColor" x2="-6"/><text fill="currentColor" x="-9" dy="0.32em" font-size="20px">0.10</text></g><g class="tick" opacity="1" transform="translate(0,37.291528739115854)"><line stroke="currentColor" x2="-6"/><text fill="currentColor" x="-9" dy="0.32em" font-size="20px">0.05</text></g></g><circle cx="355" cy="150" r="8" style="fill: rgb(35, 23, 27);"/><circle cx="355" cy="175" r="8" style="fill: rgb(69, 105, 238);"/><circle cx="355" cy="200" r="8" style="fill: rgb(38, 188, 225);"/><circle cx="355" cy="225" r="8" style="fill: rgb(63, 243, 147);"/><circle cx="355" cy="250" r="8" style="fill: rgb(149, 251, 81);"/><circle cx="355" cy="275" r="8" style="fill: rgb(236, 209, 46);"/><circle cx="355" cy="300" r="8" style="fill: rgb(255, 130, 29);"/><circle cx="355" cy="325" r="8" style="fill: rgb(203, 47, 13);"/><text x="370" y="150" text-anchor="left" font-size="22" alignment-baseline="middle" style="fill: rgb(35, 23, 27);"> = 0</text><text x="370" y="175" text-anchor="left" font-size="22" alignment-baseline="middle" style="fill: rgb(69, 105, 238);"> = 0.22</text><text x="370" y="200" text-anchor="left" font-size="22" alignment-baseline="middle" style="fill: rgb(38, 188, 225);"> = 0.45</text><text x="370" y="225" text-anchor="left" font-size="22" alignment-baseline="middle" style="fill: rgb(63, 243, 147);"> = 0.67</text><text x="370" y="250" text-anchor="left" font-size="22" alignment-baseline="middle" style="fill: rgb(149, 251, 81);"> = 0.9</text><text x="370" y="275" text-anchor="left" font-size="22" alignment-baseline="middle" style="fill: rgb(236, 209, 46);"> = 1.12</text><text x="370" y="300" text-anchor="left" font-size="22" alignment-baseline="middle" style="fill: rgb(255, 130, 29);"> = 1.35</text><text x="370" y="325" text-anchor="left" font-size="22" alignment-baseline="middle" style="fill: rgb(203, 47, 13);"> = 1.57</text></svg>