<svg xmlns="http://www.w3.org/2000/svg" class="bg-white" width="500" height="400" viewBox="-10 -1 500 400"><path fill="none" stroke="rgb(35, 23, 27)" stroke-width="1.5" d="M100,165.499L100.723,166.373L101.445,167.128L102.168,168.042L102.891,168.682L103.613,169.527L104.336,170.586L105.059,171.233L105.781,172.294L106.504,173.218L107.227,174.13L107.949,175.215L108.672,176.32L109.395,177.369L110.117,178.43L110.84,179.467L111.563,180.754L112.285,181.908L113.008,182.965L113.73,184.419L114.453,185.698L115.176,186.868L115.898,188.497L116.621,189.684L117.344,191.176L118.066,192.709L118.789,194.269L119.512,195.997L120.234,197.756L120.957,199.317L121.68,201.321L122.402,203.111L123.125,205.07L123.848,207.337L124.57,209.377L125.293,211.55L126.016,213.687L126.738,216.17L127.461,218.635L128.184,220.855L128.906,223.644L129.629,226.327L130.352,228.882L131.074,231.543L131.797,234.42L132.52,237.635L133.242,240.611L133.965,243.445L134.688,246.797L135.41,249.874L136.133,252.951L136.855,256.208L137.578,259.673L138.301,262.849L139.023,266.227L139.746,269.656L140.469,272.999L141.191,276.51L141.914,280.116L142.637,283.554L143.359,286.763L144.082,290.141L144.805,293.844L145.527,296.703L146.25,300.375L146.973,303.483L147.695,306.65L148.418,309.837L149.141,312.887L149.863,315.456L150.586,318.303L151.309,321.074L152.031,323.973L152.754,326.606L153.477,328.826L154.199,331.333L154.922,333.679L155.645,335.71L156.367,337.467L157.09,339.154L157.813,340.873L158.535,342.462L159.258,343.838L159.98,345.147L160.703,346.315L161.426,347.183L162.148,347.832L162.871,348.566L163.594,349.3L164.316,349.699L165.039,349.723L165.762,350L166.484,349.982L167.207,349.517L167.93,349.112L168.652,348.973L169.375,348.099L170.098,347.52L170.82,346.933L171.543,345.291L172.266,344.419L172.988,343.306L173.711,341.702L174.434,340.14L175.156,338.626L175.879,337.172L176.602,335.103L177.324,333.337L178.047,331.115L178.77,328.972L179.492,326.668L180.215,324.172L180.938,321.986L181.66,319.335L182.383,317.01L183.105,314.33L183.828,311.664L184.551,308.886L185.273,306.161L185.996,303.008L186.719,300.029L187.441,297.332L188.164,294.57L188.887,291.154L189.609,288.347L190.332,285.366L191.055,281.92L191.777,278.999L192.5,275.762L193.223,272.22L193.945,269.504L194.668,266.17L195.391,262.837L196.113,259.538L196.836,256.435L197.559,252.932L198.281,249.657L199.004,246.392L199.727,243.311L200.449,239.753L201.172,236.556L201.895,233.755L202.617,230.55L203.34,227.308L204.063,223.913L204.785,221.095L205.508,217.894L206.23,214.752L206.953,211.441L207.676,208.505L208.398,205.588L209.121,202.317L209.844,199.319L210.566,196.321L211.289,193.463L212.012,190.505L212.734,187.523L213.457,184.97L214.18,181.882L214.902,178.904L215.625,176.411L216.348,173.637L217.07,170.535L217.793,167.968L218.516,165.52L219.238,162.916L219.961,160.055L220.684,157.677L221.406,154.831L222.129,152.155L222.852,149.802L223.574,147.273L224.297,144.757L225.02,142.698L225.742,140.345L226.465,137.495L227.188,135.316L227.91,132.99L228.633,130.716L229.355,128.406L230.078,126.21L230.801,124.068L231.523,122.219L232.246,120.358L232.969,120.481L233.691,121.184L234.414,121.715L235.137,122.079L235.859,122.708L236.582,123.302L237.305,121.797L238.027,120.132L238.75,118.454L239.473,117.089L240.195,115.379L240.918,113.938L241.641,112.709L242.363,111L243.086,109.349L243.809,108.051L244.531,106.69L245.254,105.401L245.977,103.78L246.699,102.431L247.422,101.241L248.145,99.834L248.867,98.154L249.59,97.104L250.313,95.79L251.035,94.54L251.758,93.187L252.48,91.965L253.203,90.739L253.926,89.32L254.648,88.177L255.371,87.187L256.094,85.999L256.816,84.873L257.539,83.645L258.262,82.509L258.984,81.644L259.707,80.416L260.43,79.572L261.152,78.359L261.875,77.364L262.598,76.443L263.32,75.335L264.043,74.553L264.766,73.523L265.488,72.506L266.211,71.702L266.934,70.757L267.656,69.866L268.379,69.177L269.102,68.184L269.824,67.699L270.547,66.693L271.27,65.897L271.992,65.072L272.715,64.238L273.438,63.418L274.16,62.586L274.883,62.012L275.605,61.108L276.328,60.631L277.051,59.784L277.773,59.149L278.496,58.46L279.219,57.766L279.941,57.138L280.664,56.377L281.387,55.73L282.109,54.96L282.832,54.428L283.555,53.788L284.277,53.185L285,52.763L285.723,51.985L286.445,51.503L287.168,50.771L287.891,50.281L288.613,49.739L289.336,49.051L290.059,48.504L290.781,48.071L291.504,47.515L292.227,46.996L292.949,46.461L293.672,45.917L294.395,45.538L295.117,45.062L295.84,44.48L296.563,44.104L297.285,43.542L298.008,43.25L298.73,42.739L299.453,42.205L300.176,41.832L300.898,41.418L301.621,41.056L302.344,40.656L303.066,40.173L303.789,39.823L304.512,39.375L305.234,38.968L305.957,38.577L306.68,38.149L307.402,37.932L308.125,37.494L308.848,37.22L309.57,36.802L310.293,36.556L311.016,36.174L311.738,35.69L312.461,35.467L313.184,35.125L313.906,34.83L314.629,34.622L315.352,34.321L316.074,34.078L316.797,33.708L317.52,33.325L318.242,33.173L318.965,32.765L319.688,32.59L320.41,32.131L321.133,32.071L321.855,31.772L322.578,31.531L323.301,31.302L324.023,31.034L324.746,30.834L325.469,30.648L326.191,30.458L326.914,30.135L327.637,29.873L328.359,29.574L329.082,29.525L329.805,29.344L330.527,29.175L331.25,28.797L331.973,28.569L332.695,28.488L333.418,28.319L334.141,28.208L334.863,27.702L335.586,27.701L336.309,27.586L337.031,27.407L337.754,27.21L338.477,27.09L339.199,26.793L339.922,26.784L340.645,26.544L341.367,26.453L342.09,26.221L342.813,26.052L343.535,26.022L344.258,25.707L344.98,25.676L345.703,25.64L346.426,25.471L347.148,25.342L347.871,25.21L348.594,24.873L349.316,24.716L350.039,24.885L350.762,24.755L351.484,24.514L352.207,24.416L352.93,24.221L353.652,24.172L354.375,24.292L355.098,23.642L355.82,23.835L356.543,23.809L357.266,23.807L357.988,23.561L358.711,23.323L359.434,23.426L360.156,23.2L360.879,23.29L361.602,23.153L362.324,23.159L363.047,22.742L363.77,23.029L364.492,22.726L365.215,22.594L365.938,22.539L366.66,22.318L367.383,22.537L368.105,22.393L368.828,22.354L369.551,22.381L370.273,22.469L370.996,22.149L371.719,22.132L372.441,22.12L373.164,22.16L373.887,21.946L374.609,22.408L375.332,22.156L376.055,21.779L376.777,21.465L377.5,21.301L378.223,21.447L378.945,21.715L379.668,21.358L380.391,21.384L381.113,21.488L381.836,21.35L382.559,21.381L383.281,21.191L384.004,21.014L384.727,21.592L385.449,21.357L386.172,21.554L386.895,21.29L387.617,21.553L388.34,21.961L389.063,21.463L389.785,21.234L390.508,21.304L391.23,21.15L391.953,21.867L392.676,21.431L393.398,21.409L394.121,21.626L394.844,21.52L395.566,21.383L396.289,21.363L397.012,21.243L397.734,21.425L398.457,21.37L399.18,21.554L399.902,20.838L400.625,22.618L401.348,22.445L402.07,22.032L402.793,22.094L403.516,21.69L404.238,22.144L404.961,22.891L405.684,23.096L406.406,23.604L407.129,23.307L407.852,24.421L408.574,23.586L409.297,25.461L410.02,24.796L410.742,23.098L411.465,24.072L412.188,23.727L412.91,25.191L413.633,25.045L414.355,25.686L415.078,26.567L415.801,27.407L416.523,26.927L417.246,27.106L417.969,27.29L418.691,29.498L419.414,27.147L420.137,28.493L420.859,28.451L421.582,27.795L422.305,28.685L423.027,28.043L423.75,29.294L424.473,29.323L425.195,28.45L425.918,28.049L426.641,28.47L427.363,29.083L428.086,28.496L428.809,27.869L429.531,27L430.254,27.173L430.977,26.672L431.699,26.883L432.422,26.958L433.145,25.863L433.867,25.505L434.59,26.129L435.313,25.055L436.035,25.122L436.758,24.779L437.48,24.701L438.203,25.059L438.926,24.136L439.648,23.669L440.371,24.327L441.094,22.928L441.816,23.673L442.539,23.407L443.262,23.212L443.984,23.324L444.707,22.746L445.43,22.887L446.152,22.625L446.875,22.297L447.598,22.148L448.32,22.071L449.043,22.118L449.766,21.813L450.488,21.8L451.211,21.437L451.934,21.055L452.656,21.588L453.379,20.925L454.102,21.127L454.824,21.167L455.547,21.193L456.27,21.153L456.992,20.925L457.715,20.879L458.438,20.655L459.16,20.827L459.883,20.718L460.605,20.571L461.328,20.478L462.051,20.67L462.773,20.625L463.496,20.452L464.219,20.52L464.941,20.501L465.664,20.477L466.387,20.272L467.109,20.313L467.832,20.393L468.555,20.166L469.277,20.197"/><path fill="none" stroke="rgb(69, 105, 238)" stroke-width="1.5" d="M100,164.355L100.723,164.983L101.445,165.933L102.168,166.84L102.891,167.61L103.613,168.694L104.336,169.181L105.059,170.359L105.781,170.907L106.504,171.81L107.227,172.559L107.949,173.638L108.672,174.914L109.395,175.75L110.117,176.456L110.84,177.62L111.563,178.669L112.285,179.645L113.008,181.214L113.73,181.997L114.453,183.218L115.176,184.707L115.898,185.523L116.621,186.905L117.344,188.201L118.066,189.9L118.789,191.29L119.512,192.216L120.234,193.795L120.957,195.276L121.68,197.168L122.402,198.341L123.125,199.991L123.848,201.612L124.57,203.213L125.293,204.949L126.016,206.663L126.738,208.441L127.461,210.508L128.184,212.374L128.906,214.477L129.629,215.933L130.352,218.03L131.074,220.023L131.797,222.08L132.52,224.096L133.242,226.115L133.965,228.384L134.688,230.331L135.41,232.318L136.133,234.594L136.855,236.763L137.578,238.943L138.301,241.13L139.023,243.2L139.746,245.565L140.469,247.723L141.191,249.902L141.914,252.156L142.637,254.186L143.359,256.29L144.082,258.5L144.805,260.404L145.527,262.55L146.25,264.699L146.973,266.092L147.695,268.239L148.418,270.003L149.141,271.871L149.863,273.982L150.586,275.035L151.309,276.75L152.031,278.537L152.754,279.981L153.477,280.894L154.199,282.325L154.922,283.491L155.645,284.716L156.367,285.618L157.09,286.534L157.813,287.257L158.535,288.041L159.258,288.663L159.98,289.204L160.703,289.823L161.426,289.785L162.148,290.207L162.871,290.278L163.594,290.576L164.316,290.22L165.039,290.051L165.762,289.776L166.484,289.852L167.207,288.931L167.93,288.475L168.652,287.617L169.375,286.338L170.098,285.686L170.82,284.664L171.543,283.327L172.266,282.383L172.988,281.063L173.711,279.767L174.434,278.206L175.156,276.58L175.879,274.875L176.602,273.235L177.324,271.48L178.047,269.592L178.77,267.603L179.492,265.571L180.215,263.567L180.938,261.41L181.66,259.388L182.383,257.337L183.105,254.686L183.828,253.011L184.551,250.246L185.273,247.869L185.996,245.326L186.719,242.842L187.441,240.28L188.164,237.726L188.887,234.786L189.609,232.468L190.332,230.023L191.055,227.181L191.777,224.697L192.5,222.03L193.223,219.286L193.945,216.605L194.668,213.844L195.391,211.338L196.113,208.201L196.836,205.813L197.559,202.886L198.281,200.572L199.004,197.575L199.727,195.151L200.449,192.104L201.172,189.781L201.895,186.949L202.617,184.144L203.34,181.842L204.063,178.824L204.785,176.263L205.508,173.938L206.23,171.102L206.953,168.865L207.676,165.932L208.398,163.538L209.121,161.585L209.844,158.752L210.566,156.085L211.289,153.811L212.012,151.203L212.734,149.055L213.457,146.763L214.18,144.059L214.902,142.063L215.625,139.689L216.348,137.175L217.07,135.1L217.793,132.62L218.516,130.771L219.238,128.54L219.961,126.196L220.684,124.075L221.406,121.834L222.129,120.103L222.852,117.679L223.574,116.021L224.297,113.564L225.02,111.805L225.742,109.839L226.465,107.792L227.188,106.068L227.91,104.117L228.633,102.375L229.355,100.258L230.078,98.374L230.801,96.979L231.523,96.58L232.246,97.638L232.969,98.362L233.691,99.015L234.414,99.875L235.137,100.779L235.859,100.692L236.582,99.267L237.305,97.951L238.027,97.013L238.75,95.8L239.473,94.347L240.195,93.256L240.918,91.947L241.641,91.004L242.363,89.854L243.086,88.657L243.809,87.541L244.531,86.23L245.254,85.356L245.977,84.259L246.699,83.051L247.422,81.935L248.145,80.719L248.867,79.977L249.59,78.821L250.313,77.65L251.035,76.896L251.758,75.893L252.48,74.84L253.203,73.863L253.926,72.988L254.648,72.201L255.371,71.212L256.094,70.454L256.816,69.413L257.539,68.695L258.262,67.645L258.984,66.919L259.707,66.061L260.43,65.31L261.152,64.813L261.875,63.793L262.598,63.111L263.32,62.508L264.043,61.783L264.766,61.195L265.488,60.26L266.211,59.701L266.934,59.153L267.656,58.494L268.379,57.844L269.102,57.349L269.824,56.753L270.547,56.2L271.27,55.704L271.992,55.146L272.715,54.41L273.438,53.905L274.16,53.543L274.883,53.005L275.605,52.39L276.328,51.864L277.051,51.386L277.773,50.934L278.496,50.387L279.219,49.957L279.941,49.465L280.664,49.086L281.387,48.413L282.109,47.986L282.832,47.627L283.555,47.207L284.277,46.675L285,46.255L285.723,45.692L286.445,45.37L287.168,44.962L287.891,44.639L288.613,44.04L289.336,43.599L290.059,43.178L290.781,42.958L291.504,42.45L292.227,41.983L292.949,41.846L293.672,41.351L294.395,40.979L295.117,40.558L295.84,40.163L296.563,39.918L297.285,39.474L298.008,39.121L298.73,38.795L299.453,38.503L300.176,38.27L300.898,37.898L301.621,37.696L302.344,37.201L303.066,36.943L303.789,36.592L304.512,36.097L305.234,35.987L305.957,35.751L306.68,35.39L307.402,35.02L308.125,34.791L308.848,34.555L309.57,34.269L310.293,34.152L311.016,33.882L311.738,33.603L312.461,33.333L313.184,32.979L313.906,32.649L314.629,32.418L315.352,32.2L316.074,32.075L316.797,31.814L317.52,31.571L318.242,31.413L318.965,31.204L319.688,30.995L320.41,30.624L321.133,30.556L321.855,30.297L322.578,30.102L323.301,30.066L324.023,29.734L324.746,29.724L325.469,29.401L326.191,29.272L326.914,29.105L327.637,28.808L328.359,28.561L329.082,28.527L329.805,28.249L330.527,28.084L331.25,28.01L331.973,27.6L332.695,27.685L333.418,27.473L334.141,27.515L334.863,27.286L335.586,27.047L336.309,26.87L337.031,26.71L337.754,26.623L338.477,26.182L339.199,26.262L339.922,26.378L340.645,26.075L341.367,26.029L342.09,25.539L342.813,25.667L343.535,25.409L344.258,25.079L344.98,25.252L345.703,25.142L346.426,25.288L347.148,25.026L347.871,24.724L348.594,24.564L349.316,24.704L350.039,24.408L350.762,24.37L351.484,24.075L352.207,24.128L352.93,24.036L353.652,23.691L354.375,23.526L355.098,23.392L355.82,23.623L356.543,23.951L357.266,23.243L357.988,23.72L358.711,23.789L359.434,23.01L360.156,23.058L360.879,22.913L361.602,23.365L362.324,22.781L363.047,22.627L363.77,22.852L364.492,22.41L365.215,23.199L365.938,22.653L366.66,22.756L367.383,22.386L368.105,22.266L368.828,22.223L369.551,22.53L370.273,21.905L370.996,21.661L371.719,22.269L372.441,21.515L373.164,22L373.887,21.933L374.609,21.339L375.332,21.449L376.055,21.261L376.777,22.26L377.5,21.973L378.223,22.034L378.945,21.528L379.668,21.674L380.391,21.478L381.113,21.358L381.836,21.128L382.559,21.577L383.281,21.019L384.004,21.348L384.727,21.982L385.449,21.005L386.172,22.412L386.895,21.106L387.617,21.417L388.34,21.115L389.063,20.993L389.785,22.054L390.508,20.47L391.23,21.678L391.953,21.138L392.676,21.283L393.398,20.949L394.121,20.988L394.844,20.875L395.566,21.324L396.289,21.677L397.012,21.235L397.734,21.548L398.457,21.232L399.18,21.84L399.902,20.728L400.625,21.75L401.348,21.587L402.07,21.317L402.793,22.68L403.516,23.228L404.238,23.085L404.961,21.828L405.684,22.93L406.406,22.649L407.129,22.251L407.852,23.057L408.574,23.766L409.297,23.512L410.02,24.511L410.742,24.178L411.465,24.361L412.188,24.522L412.91,24.487L413.633,25.921L414.355,24.397L415.078,24.44L415.801,25.657L416.523,25.291L417.246,26.476L417.969,27.562L418.691,26.353L419.414,27.78L420.137,26.893L420.859,27.213L421.582,26.327L422.305,26.666L423.027,27.84L423.75,26.845L424.473,27.702L425.195,27.97L425.918,26.817L426.641,27.653L427.363,26.651L428.086,28.021L428.809,27.566L429.531,26.146L430.254,26.385L430.977,26.259L431.699,25.769L432.422,25.504L433.145,25.635L433.867,25.498L434.59,25.97L435.313,25.325L436.035,24.908L436.758,24.852L437.48,24.105L438.203,23.447L438.926,23.792L439.648,24.357L440.371,23.315L441.094,23.272L441.816,23.151L442.539,23.145L443.262,22.957L443.984,22.956L444.707,22.818L445.43,22.666L446.152,21.872L446.875,22.11L447.598,21.831L448.32,21.947L449.043,21.716L449.766,21.542L450.488,21.083L451.211,21.255L451.934,21.342L452.656,21.153L453.379,21.047L454.102,20.992L454.824,21.159L455.547,21.022L456.27,20.843L456.992,20.711L457.715,20.732L458.438,20.516L459.16,20.484L459.883,20.592L460.605,20.657L461.328,20.355L462.051,20.533L462.773,20.399L463.496,20.466L464.219,20.376L464.941,20.511L465.664,20.39L466.387,20.349L467.109,20.375L467.832,20.232L468.555,20.28L469.277,20.268"/><path fill="none" stroke="rgb(38, 188, 225)" stroke-width="1.5" d="M100,161.616L100.723,162.303L101.445,163.06L102.168,163.708L102.891,164.432L103.613,165.148L104.336,166.003L105.059,166.631L105.781,167.404L106.504,168.172L107.227,168.799L107.949,169.782L108.672,170.658L109.395,171.448L110.117,172.273L110.84,173.133L111.563,174.108L112.285,175.029L113.008,176.086L113.73,177.264L114.453,177.748L115.176,178.872L115.898,179.974L116.621,180.823L117.344,181.982L118.066,182.988L118.789,184.303L119.512,185.376L120.234,186.618L120.957,187.835L121.68,189.184L122.402,190.168L123.125,191.224L123.848,192.405L124.57,194.056L125.293,195.262L126.016,196.457L126.738,197.936L127.461,199.292L128.184,200.701L128.906,201.94L129.629,203.345L130.352,204.638L131.074,206.124L131.797,207.644L132.52,209.077L133.242,210.524L133.965,211.998L134.688,213.277L135.41,214.701L136.133,216.423L136.855,217.753L137.578,218.928L138.301,220.687L139.023,221.851L139.746,223.168L140.469,224.626L141.191,226.004L141.914,227.447L142.637,228.449L143.359,229.881L144.082,230.926L144.805,232.059L145.527,233.374L146.25,234.437L146.973,235.555L147.695,236.45L148.418,237.797L149.141,238.567L149.863,239.289L150.586,239.962L151.309,240.803L152.031,241.499L152.754,241.95L153.477,242.62L154.199,243.067L154.922,243.515L155.645,243.917L156.367,244.222L157.09,244.188L157.813,244.483L158.535,244.258L159.258,244.432L159.98,244.204L160.703,243.997L161.426,243.678L162.148,243.46L162.871,242.779L163.594,242.161L164.316,241.784L165.039,241.155L165.762,240.22L166.484,239.489L167.207,238.505L167.93,237.565L168.652,236.09L169.375,235.063L170.098,234.199L170.82,232.823L171.543,231.32L172.266,229.916L172.988,228.267L173.711,227.058L174.434,225.19L175.156,223.663L175.879,222.154L176.602,220.283L177.324,218.471L178.047,216.533L178.77,214.836L179.492,212.501L180.215,210.65L180.938,208.881L181.66,206.528L182.383,204.455L183.105,202.57L183.828,200.439L184.551,198.081L185.273,195.79L185.996,193.761L186.719,191.944L187.441,188.94L188.164,187.25L188.887,184.719L189.609,182.474L190.332,179.961L191.055,177.87L191.777,175.64L192.5,173.373L193.223,171.19L193.945,168.697L194.668,166.251L195.391,164.163L196.113,162.002L196.836,159.464L197.559,157.016L198.281,154.815L199.004,152.921L199.727,150.42L200.449,148.233L201.172,146.051L201.895,143.848L202.617,141.655L203.34,139.361L204.063,137.304L204.785,135.13L205.508,132.927L206.23,131.107L206.953,128.575L207.676,126.51L208.398,124.671L209.121,122.532L209.844,120.497L210.566,118.399L211.289,116.431L212.012,114.577L212.734,112.439L213.457,110.51L214.18,108.487L214.902,106.74L215.625,104.761L216.348,103.006L217.07,101.156L217.793,99.419L218.516,97.631L219.238,95.766L219.961,93.97L220.684,92.415L221.406,90.71L222.129,88.945L222.852,87.148L223.574,85.636L224.297,84.061L225.02,82.57L225.742,80.998L226.465,79.321L227.188,77.768L227.91,76.233L228.633,77.444L229.355,78.465L230.078,79.478L230.801,80.527L231.523,81.644L232.246,82.711L232.969,82.062L233.691,81.205L234.414,80.218L235.137,79.195L235.859,78.293L236.582,77.298L237.305,76.446L238.027,75.373L238.75,74.449L239.473,73.719L240.195,72.925L240.918,71.783L241.641,70.98L242.363,70.126L243.086,69.194L243.809,68.346L244.531,67.52L245.254,66.751L245.977,65.928L246.699,65.079L247.422,64.327L248.145,63.524L248.867,62.812L249.59,61.948L250.313,61.304L251.035,60.691L251.758,59.9L252.48,59.091L253.203,58.559L253.926,57.848L254.648,57.304L255.371,56.639L256.094,55.977L256.816,55.375L257.539,54.846L258.262,54.29L258.984,53.811L259.707,53.156L260.43,52.601L261.152,52.224L261.875,51.769L262.598,51.366L263.32,50.937L264.043,50.475L264.766,49.96L265.488,49.673L266.211,49.238L266.934,48.771L267.656,48.363L268.379,48.092L269.102,47.861L269.824,47.385L270.547,47.042L271.27,46.591L271.992,46.281L272.715,45.912L273.438,45.601L274.16,45.301L274.883,45.033L275.605,44.597L276.328,44.208L277.051,43.977L277.773,43.607L278.496,43.348L279.219,43.001L279.941,42.777L280.664,42.359L281.387,42.031L282.109,41.768L282.832,41.358L283.555,40.956L284.277,40.743L285,40.418L285.723,39.991L286.445,39.724L287.168,39.412L287.891,39.092L288.613,38.784L289.336,38.602L290.059,38.21L290.781,37.867L291.504,37.691L292.227,37.248L292.949,37.001L293.672,36.781L294.395,36.487L295.117,36.171L295.84,35.895L296.563,35.559L297.285,35.418L298.008,34.951L298.73,34.854L299.453,34.446L300.176,34.131L300.898,34.051L301.621,33.795L302.344,33.478L303.066,33.227L303.789,33.054L304.512,32.674L305.234,32.501L305.957,32.198L306.68,32.163L307.402,31.798L308.125,31.56L308.848,31.45L309.57,31.291L310.293,31.003L311.016,30.726L311.738,30.656L312.461,30.404L313.184,30.308L313.906,30.05L314.629,29.907L315.352,29.771L316.074,29.538L316.797,29.318L317.52,29.079L318.242,28.91L318.965,28.738L319.688,28.468L320.41,28.319L321.133,28.118L321.855,28.034L322.578,28.077L323.301,27.957L324.023,27.772L324.746,27.391L325.469,27.343L326.191,27.237L326.914,26.992L327.637,26.836L328.359,26.813L329.082,26.751L329.805,26.484L330.527,26.46L331.25,26.366L331.973,26.24L332.695,26.025L333.418,26.017L334.141,25.744L334.863,25.811L335.586,25.633L336.309,25.453L337.031,25.338L337.754,25.21L338.477,25.141L339.199,25.02L339.922,24.986L340.645,24.937L341.367,24.751L342.09,24.777L342.813,24.61L343.535,24.417L344.258,24.132L344.98,24.245L345.703,24.449L346.426,24.149L347.148,24.07L347.871,23.975L348.594,23.808L349.316,24.29L350.039,23.685L350.762,23.929L351.484,23.688L352.207,23.164L352.93,23.752L353.652,23.092L354.375,23.636L355.098,23.06L355.82,22.935L356.543,23.308L357.266,23L357.988,23.025L358.711,22.657L359.434,22.771L360.156,22.926L360.879,22.654L361.602,22.654L362.324,22.768L363.047,22.579L363.77,22.16L364.492,22.336L365.215,22.224L365.938,21.995L366.66,22.187L367.383,22.32L368.105,21.877L368.828,22.193L369.551,21.714L370.273,22.266L370.996,21.543L371.719,21.833L372.441,22.022L373.164,21.628L373.887,21.821L374.609,20.926L375.332,21.638L376.055,21.341L376.777,21.917L377.5,21.214L378.223,21.595L378.945,21.576L379.668,22.461L380.391,21.462L381.113,21.533L381.836,21.443L382.559,21.461L383.281,21.19L384.004,21.301L384.727,21.668L385.449,20.755L386.172,21.454L386.895,21.167L387.617,20.645L388.34,21.264L389.063,21.49L389.785,21.384L390.508,20.033L391.23,21.439L391.953,21.696L392.676,21.028L393.398,20.978L394.121,21.173L394.844,21.476L395.566,21.49L396.289,20.628L397.012,21.255L397.734,21.43L398.457,21.024L399.18,20.428L399.902,20.989L400.625,21.033L401.348,20.801L402.07,21.947L402.793,21.332L403.516,22.392L404.238,22.434L404.961,23.251L405.684,22.079L406.406,21.205L407.129,21.217L407.852,22.825L408.574,22.265L409.297,21.055L410.02,22.656L410.742,21.238L411.465,22.881L412.188,22.47L412.91,21.94L413.633,22.401L414.355,22.725L415.078,24.502L415.801,23.523L416.523,23.549L417.246,23.939L417.969,23.041L418.691,24.768L419.414,24.095L420.137,23.117L420.859,24.989L421.582,23.747L422.305,24.092L423.027,25.326L423.75,24.14L424.473,24.509L425.195,24.337L425.918,24.926L426.641,24.931L427.363,24.31L428.086,24.653L428.809,23.874L429.531,25.257L430.254,24.257L430.977,24.214L431.699,23.893L432.422,23.78L433.145,23.54L433.867,22.859L434.59,23.311L435.313,23.52L436.035,24.191L436.758,23.12L437.48,23.074L438.203,23.179L438.926,23L439.648,22.813L440.371,22.815L441.094,22.599L441.816,22.249L442.539,22.087L443.262,21.782L443.984,21.888L444.707,22.286L445.43,21.217L446.152,21.359L446.875,21.738L447.598,21.513L448.32,21.177L449.043,21.563L449.766,21.136L450.488,21.133L451.211,21.004L451.934,20.87L452.656,20.6L453.379,20.993L454.102,20.78L454.824,20.602L455.547,20.532L456.27,20.614L456.992,20.667L457.715,20.449L458.438,20.611L459.16,20.473L459.883,20.527L460.605,20.421L461.328,20.311L462.051,20.409L462.773,20.236L463.496,20.396L464.219,20.405L464.941,20.426L465.664,20.224L466.387,20.196L467.109,20.197L467.832,20.161L468.555,20.161L469.277,20.138"/><path fill="none" stroke="rgb(63, 243, 147)" stroke-width="1.5" d="M100,158.313L100.723,158.69L101.445,159.508L102.168,159.996L102.891,160.625L103.613,161.134L104.336,161.907L105.059,162.643L105.781,163.073L106.504,163.786L107.227,164.351L107.949,165.067L108.672,165.677L109.395,166.5L110.117,167.334L110.84,167.828L111.563,168.687L112.285,169.437L113.008,170.24L113.73,171.082L114.453,171.883L115.176,172.692L115.898,173.316L116.621,174.188L117.344,175.098L118.066,176.087L118.789,176.877L119.512,177.782L120.234,178.658L120.957,179.749L121.68,180.592L122.402,181.528L123.125,182.262L123.848,183.403L124.57,184.365L125.293,185.302L126.016,186.467L126.738,187.607L127.461,188.228L128.184,189.222L128.906,190.149L129.629,191.107L130.352,192.206L131.074,193.267L131.797,194.214L132.52,194.96L133.242,196.038L133.965,196.974L134.688,197.767L135.41,198.688L136.133,199.697L136.855,200.408L137.578,201.433L138.301,202.199L139.023,202.857L139.746,203.616L140.469,204.293L141.191,204.968L141.914,205.604L142.637,206.149L143.359,206.949L144.082,207.252L144.805,207.648L145.527,208.278L146.25,208.824L146.973,209.072L147.695,209.165L148.418,209.571L149.141,209.472L149.863,209.796L150.586,209.797L151.309,209.81L152.031,209.822L152.754,209.597L153.477,209.46L154.199,209.01L154.922,208.9L155.645,208.633L156.367,208.081L157.09,207.473L157.813,206.953L158.535,206.222L159.258,205.832L159.98,204.654L160.703,204.004L161.426,203.189L162.148,202.354L162.871,201.362L163.594,200.204L164.316,199.107L165.039,197.956L165.762,196.819L166.484,195.412L167.207,194.239L167.93,192.864L168.652,191.442L169.375,189.969L170.098,188.253L170.82,186.875L171.543,185.236L172.266,183.502L172.988,181.855L173.711,180.124L174.434,178.474L175.156,176.544L175.879,174.951L176.602,173.121L177.324,171.323L178.047,169.348L178.77,167.354L179.492,165.435L180.215,163.651L180.938,161.499L181.66,159.62L182.383,157.771L183.105,155.864L183.828,153.632L184.551,151.795L185.273,149.786L185.996,147.654L186.719,145.815L187.441,143.737L188.164,141.793L188.887,139.78L189.609,137.835L190.332,135.621L191.055,133.743L191.777,131.746L192.5,129.909L193.223,127.882L193.945,125.839L194.668,123.99L195.391,122.071L196.113,120.01L196.836,117.862L197.559,116.338L198.281,114.223L199.004,112.503L199.727,110.519L200.449,108.685L201.172,107.008L201.895,105.104L202.617,103.259L203.34,101.417L204.063,99.745L204.785,98.057L205.508,96.219L206.23,94.495L206.953,92.677L207.676,91.29L208.398,89.434L209.121,87.873L209.844,86.239L210.566,84.768L211.289,83.211L212.012,81.452L212.734,79.944L213.457,78.394L214.18,76.947L214.902,75.425L215.625,74.04L216.348,72.468L217.07,71.124L217.793,69.708L218.516,68.216L219.238,67.03L219.961,65.593L220.684,64.56L221.406,62.911L222.129,61.774L222.852,62.491L223.574,63.824L224.297,64.864L225.02,66.361L225.742,67.763L226.465,69.134L227.188,68.88L227.91,68.258L228.633,67.468L229.355,66.79L230.078,65.998L230.801,65.222L231.523,64.47L232.246,63.71L232.969,63.038L233.691,62.374L234.414,61.563L235.137,60.981L235.859,60.159L236.582,59.521L237.305,58.814L238.027,58.139L238.75,57.608L239.473,56.864L240.195,56.165L240.918,55.588L241.641,55.13L242.363,54.34L243.086,53.779L243.809,53.249L244.531,52.684L245.254,52.147L245.977,51.572L246.699,51.221L247.422,50.526L248.145,50.306L248.867,49.606L249.59,49.264L250.313,48.812L251.035,48.158L251.758,47.828L252.48,47.426L253.203,47.059L253.926,46.609L254.648,46.292L255.371,45.955L256.094,45.59L256.816,45.202L257.539,44.856L258.262,44.645L258.984,44.2L259.707,43.907L260.43,43.693L261.152,43.447L261.875,43.127L262.598,42.838L263.32,42.509L264.043,42.224L264.766,41.928L265.488,41.713L266.211,41.623L266.934,41.271L267.656,41.008L268.379,40.861L269.102,40.523L269.824,40.473L270.547,40.321L271.27,40.034L271.992,39.779L272.715,39.556L273.438,39.351L274.16,39.101L274.883,38.878L275.605,38.749L276.328,38.493L277.051,38.183L277.773,37.97L278.496,37.833L279.219,37.503L279.941,37.348L280.664,37.122L281.387,36.938L282.109,36.702L282.832,36.485L283.555,36.161L284.277,35.954L285,35.678L285.723,35.459L286.445,35.316L287.168,35.019L287.891,34.794L288.613,34.557L289.336,34.345L290.059,34.15L290.781,33.915L291.504,33.636L292.227,33.414L292.949,33.218L293.672,32.983L294.395,32.726L295.117,32.658L295.84,32.27L296.563,32.063L297.285,31.874L298.008,31.748L298.73,31.61L299.453,31.301L300.176,31.186L300.898,30.959L301.621,30.74L302.344,30.574L303.066,30.354L303.789,30.221L304.512,30.004L305.234,29.851L305.957,29.718L306.68,29.544L307.402,29.322L308.125,29.158L308.848,28.95L309.57,29.026L310.293,28.754L311.016,28.566L311.738,28.459L312.461,28.211L313.184,28.091L313.906,27.946L314.629,27.848L315.352,27.656L316.074,27.577L316.797,27.398L317.52,27.286L318.242,27.136L318.965,26.986L319.688,27.077L320.41,26.722L321.133,26.592L321.855,26.516L322.578,26.362L323.301,26.216L324.023,26.12L324.746,26.012L325.469,25.904L326.191,25.784L326.914,25.567L327.637,25.684L328.359,25.479L329.082,25.421L329.805,25.194L330.527,25.14L331.25,25.284L331.973,25.002L332.695,24.982L333.418,24.63L334.141,24.669L334.863,24.647L335.586,24.517L336.309,24.602L337.031,24.322L337.754,24.364L338.477,24.287L339.199,24.181L339.922,24.098L340.645,23.945L341.367,23.931L342.09,23.937L342.813,23.706L343.535,23.856L344.258,23.729L344.98,23.58L345.703,23.547L346.426,23.432L347.148,23.427L347.871,23.357L348.594,23.13L349.316,23.208L350.039,23.055L350.762,23.014L351.484,22.965L352.207,22.873L352.93,22.798L353.652,22.947L354.375,22.59L355.098,22.834L355.82,22.896L356.543,23.084L357.266,22.776L357.988,22.266L358.711,22.473L359.434,22.424L360.156,22.414L360.879,21.884L361.602,22.665L362.324,22.245L363.047,22.335L363.77,22.213L364.492,22.36L365.215,22.436L365.938,21.804L366.66,22.071L367.383,22.28L368.105,22.034L368.828,22.013L369.551,22.022L370.273,21.255L370.996,22.094L371.719,21.579L372.441,21.851L373.164,21.156L373.887,21.581L374.609,22.254L375.332,21.402L376.055,21.362L376.777,21.406L377.5,21.735L378.223,21.752L378.945,21.214L379.668,20.512L380.391,21.391L381.113,21.379L381.836,21.167L382.559,21.598L383.281,21.432L384.004,21.196L384.727,20.53L385.449,21.617L386.172,20.385L386.895,21.007L387.617,21.155L388.34,20.422L389.063,21.165L389.785,21.248L390.508,20.842L391.23,20.972L391.953,21.206L392.676,20.749L393.398,20.451L394.121,21.044L394.844,20.35L395.566,20.478L396.289,20.604L397.012,21.553L397.734,21.436L398.457,21.166L399.18,20.091L399.902,20.751L400.625,20.842L401.348,20.044L402.07,20.274L402.793,20.927L403.516,21.782L404.238,21.128L404.961,21.234L405.684,20.74L406.406,21.388L407.129,20.718L407.852,20.486L408.574,20.909L409.297,20.295L410.02,21.812L410.742,20.116L411.465,21.596L412.188,21.744L412.91,21.422L413.633,21.553L414.355,21.576L415.078,22.118L415.801,20.173L416.523,21.705L417.246,22.372L417.969,20.57L418.691,20.768L419.414,21.328L420.137,21.559L420.859,21.432L421.582,20.384L422.305,23.487L423.027,22.419L423.75,22.647L424.473,20.914L425.195,21.438L425.918,21.337L426.641,20.918L427.363,21.21L428.086,20.925L428.809,21.538L429.531,22.288L430.254,21.54L430.977,21.548L431.699,21.196L432.422,21.224L433.145,20.446L433.867,21.834L434.59,21.173L435.313,20.876L436.035,21.325L436.758,21.069L437.48,21.654L438.203,20.889L438.926,20.68L439.648,21.113L440.371,21.167L441.094,20.72L441.816,20.212L442.539,20.674L443.262,20.759L443.984,20.963L444.707,20.708L445.43,20.692L446.152,21.025L446.875,20.579L447.598,20.272L448.32,20.295L449.043,20.86L449.766,20.517L450.488,20.377L451.211,20.461L451.934,20.352L452.656,20.293L453.379,20.337L454.102,20.173L454.824,20.206L455.547,20.222L456.27,20.349L456.992,20.333L457.715,20.111L458.438,20.059L459.16,20.001L459.883,20.266L460.605,20.137L461.328,20.084L462.051,20.164L462.773,20.185L463.496,20.164L464.219,20.133L464.941,20.123L465.664,20.125L466.387,20.125L467.109,20.064L467.832,20.14L468.555,20.035L469.277,20.016"/><path fill="none" stroke="rgb(149, 251, 81)" stroke-width="1.5" d="M100,155.167L100.723,155.7L101.445,156.168L102.168,156.826L102.891,157.223L103.613,157.811L104.336,158.285L105.059,159.09L105.781,159.538L106.504,160.242L107.227,160.693L107.949,161.33L108.672,162.005L109.395,162.502L110.117,163.229L110.84,163.757L111.563,164.439L112.285,165.009L113.008,165.779L113.73,166.325L114.453,166.987L115.176,167.822L115.898,168.467L116.621,169.128L117.344,169.847L118.066,170.432L118.789,171.209L119.512,171.839L120.234,172.45L120.957,173.281L121.68,173.953L122.402,174.67L123.125,175.317L123.848,175.886L124.57,176.471L125.293,177.088L126.016,177.801L126.738,178.396L127.461,178.924L128.184,179.601L128.906,180.036L129.629,180.509L130.352,181.161L131.074,181.553L131.797,181.934L132.52,182.455L133.242,182.815L133.965,182.984L134.688,183.515L135.41,183.801L136.133,184L136.855,184.247L137.578,184.431L138.301,184.52L139.023,184.593L139.746,184.597L140.469,184.664L141.191,184.641L141.914,184.39L142.637,184.286L143.359,184.195L144.082,183.946L144.805,183.869L145.527,183.264L146.25,182.745L146.973,182.464L147.695,181.999L148.418,181.71L149.141,180.791L149.863,180.188L150.586,179.476L151.309,178.727L152.031,177.714L152.754,176.932L153.477,176.203L154.199,175.168L154.922,174.274L155.645,173.18L156.367,172.064L157.09,170.92L157.813,169.788L158.535,168.266L159.258,167.145L159.98,165.707L160.703,164.49L161.426,162.996L162.148,161.516L162.871,160.156L163.594,158.565L164.316,157.232L165.039,155.548L165.762,154.204L166.484,152.255L167.207,150.799L167.93,149.007L168.652,147.305L169.375,145.768L170.098,143.953L170.82,142.177L171.543,140.461L172.266,138.886L172.988,136.974L173.711,135.401L174.434,133.424L175.156,131.476L175.879,129.842L176.602,128.262L177.324,126.297L178.047,124.585L178.77,122.801L179.492,121.038L180.215,119.314L180.938,117.37L181.66,115.792L182.383,113.953L183.105,112.099L183.828,110.336L184.551,108.771L185.273,106.834L185.996,105.145L186.719,103.373L187.441,101.708L188.164,99.894L188.887,98.33L189.609,96.607L190.332,94.782L191.055,93.291L191.777,91.8L192.5,90.211L193.223,88.445L193.945,86.828L194.668,85.278L195.391,83.872L196.113,82.116L196.836,80.724L197.559,79.206L198.281,77.816L199.004,76.29L199.727,74.765L200.449,73.236L201.172,71.901L201.895,70.55L202.617,69.236L203.34,67.64L204.063,66.454L204.785,65.118L205.508,63.705L206.23,62.515L206.953,61.315L207.676,60.072L208.398,58.771L209.121,57.718L209.844,56.225L210.566,55.216L211.289,54.217L212.012,52.876L212.734,51.755L213.457,51.582L214.18,52.977L214.902,54.473L215.625,55.928L216.348,57.367L217.07,58.883L217.793,60.025L218.516,59.317L219.238,58.878L219.961,58.142L220.684,57.549L221.406,57.037L222.129,56.402L222.852,55.854L223.574,55.117L224.297,54.734L225.02,54.209L225.742,53.536L226.465,53.058L227.188,52.514L227.91,51.892L228.633,51.342L229.355,50.925L230.078,50.354L230.801,49.966L231.523,49.448L232.246,49.145L232.969,48.568L233.691,48.071L234.414,47.637L235.137,47.423L235.859,46.777L236.582,46.326L237.305,45.868L238.027,45.475L238.75,45.131L239.473,44.786L240.195,44.358L240.918,44.09L241.641,43.665L242.363,43.305L243.086,42.961L243.809,42.538L244.531,42.266L245.254,41.923L245.977,41.756L246.699,41.312L247.422,41.082L248.145,40.716L248.867,40.522L249.59,40.194L250.313,39.977L251.035,39.676L251.758,39.424L252.48,39.116L253.203,38.786L253.926,38.612L254.648,38.453L255.371,38.229L256.094,38.028L256.816,37.707L257.539,37.519L258.262,37.327L258.984,37.07L259.707,36.891L260.43,36.639L261.152,36.527L261.875,36.316L262.598,36.081L263.32,35.943L264.043,35.749L264.766,35.614L265.488,35.421L266.211,35.232L266.934,35.085L267.656,34.947L268.379,34.743L269.102,34.662L269.824,34.483L270.547,34.316L271.27,34.229L271.992,34.112L272.715,33.925L273.438,33.777L274.16,33.657L274.883,33.519L275.605,33.38L276.328,33.232L277.051,33.103L277.773,32.953L278.496,32.851L279.219,32.739L279.941,32.566L280.664,32.373L281.387,32.303L282.109,32.04L282.832,31.863L283.555,31.759L284.277,31.627L285,31.46L285.723,31.307L286.445,31.225L287.168,31.055L287.891,30.846L288.613,30.71L289.336,30.481L290.059,30.351L290.781,30.157L291.504,30.005L292.227,29.867L292.949,29.726L293.672,29.56L294.395,29.44L295.117,29.282L295.84,29.107L296.563,28.988L297.285,28.839L298.008,28.711L298.73,28.53L299.453,28.39L300.176,28.238L300.898,28.124L301.621,27.968L302.344,27.829L303.066,27.731L303.789,27.516L304.512,27.41L305.234,27.289L305.957,27.135L306.68,27.047L307.402,26.892L308.125,26.77L308.848,26.615L309.57,26.475L310.293,26.336L311.016,26.241L311.738,26.17L312.461,26.111L313.184,25.984L313.906,25.897L314.629,25.688L315.352,25.607L316.074,25.495L316.797,25.409L317.52,25.297L318.242,25.212L318.965,25.119L319.688,25.033L320.41,24.937L321.133,24.898L321.855,24.785L322.578,24.716L323.301,24.611L324.023,24.528L324.746,24.407L325.469,24.392L326.191,24.289L326.914,24.238L327.637,24.14L328.359,24.113L329.082,23.992L329.805,23.981L330.527,23.875L331.25,23.82L331.973,23.753L332.695,23.651L333.418,23.613L334.141,23.594L334.863,23.526L335.586,23.459L336.309,23.319L337.031,23.291L337.754,23.285L338.477,23.208L339.199,23.072L339.922,23.076L340.645,23.081L341.367,23.03L342.09,22.961L342.813,22.928L343.535,22.864L344.258,22.826L344.98,22.812L345.703,22.733L346.426,22.678L347.148,22.626L347.871,22.608L348.594,22.567L349.316,22.515L350.039,22.458L350.762,22.445L351.484,22.406L352.207,22.39L352.93,22.349L353.652,22.337L354.375,22.258L355.098,22.28L355.82,22.271L356.543,22.188L357.266,22.181L357.988,22.087L358.711,22.058L359.434,22.083L360.156,21.991L360.879,21.989L361.602,21.94L362.324,21.938L363.047,21.879L363.77,21.933L364.492,21.863L365.215,21.802L365.938,21.798L366.66,21.755L367.383,21.755L368.105,21.733L368.828,21.652L369.551,21.625L370.273,21.623L370.996,21.605L371.719,21.566L372.441,21.542L373.164,21.524L373.887,21.504L374.609,21.443L375.332,21.412L376.055,21.424L376.777,21.392L377.5,21.385L378.223,21.317L378.945,21.319L379.668,21.293L380.391,21.284L381.113,21.238L381.836,21.205L382.559,21.231L383.281,21.118L384.004,21.077L384.727,21.144L385.449,21.051L386.172,21.076L386.895,20.981L387.617,21.038L388.34,20.942L389.063,20.92L389.785,20.916L390.508,20.929L391.23,20.909L391.953,20.84L392.676,20.852L393.398,20.814L394.121,20.811L394.844,20.805L395.566,20.771L396.289,20.718L397.012,20.713L397.734,20.668L398.457,20.703L399.18,20.647L399.902,20.621L400.625,20.597L401.348,20.595L402.07,20.601L402.793,20.543L403.516,20.53L404.238,20.56L404.961,20.49L405.684,20.483L406.406,20.467L407.129,20.454L407.852,20.447L408.574,20.432L409.297,20.451L410.02,20.418L410.742,20.361L411.465,20.361L412.188,20.365L412.91,20.346L413.633,20.298L414.355,20.301L415.078,20.287L415.801,20.298L416.523,20.305L417.246,20.261L417.969,20.269L418.691,20.255L419.414,20.242L420.137,20.244L420.859,20.234L421.582,20.232L422.305,20.198L423.027,20.175L423.75,20.177L424.473,20.191L425.195,20.169L425.918,20.167L426.641,20.169L427.363,20.173L428.086,20.137L428.809,20.124L429.531,20.126L430.254,20.14L430.977,20.148L431.699,20.117L432.422,20.132L433.145,20.127L433.867,20.112L434.59,20.113L435.313,20.095L436.035,20.092L436.758,20.075L437.48,20.071L438.203,20.082L438.926,20.075L439.648,20.073L440.371,20.073L441.094,20.073L441.816,20.051L442.539,20.053L443.262,20.074L443.984,20.074L444.707,20.05L445.43,20.046L446.152,20.058L446.875,20.047L447.598,20.039L448.32,20.044L449.043,20.052L449.766,20.043L450.488,20.035L451.211,20.03L451.934,20.035L452.656,20.026L453.379,20.031L454.102,20.032L454.824,20.015L455.547,20.02L456.27,20.012L456.992,20.021L457.715,20.029L458.438,20.022L459.16,20.018L459.883,20.019L460.605,20.011L461.328,20.009L462.051,20.011L462.773,20.017L463.496,20.012L464.219,20.011L464.941,20.004L465.664,20.007L466.387,20.008L467.109,20.006L467.832,20L468.555,20.006L469.277,20.005"/><path fill="none" stroke="rgb(236, 209, 46)" stroke-width="1.5" d="M100,155.501L100.723,156.051L101.445,156.579L102.168,157.106L102.891,157.45L103.613,158.152L104.336,158.603L105.059,159.127L105.781,159.621L106.504,160.023L107.227,160.506L107.949,161.192L108.672,161.57L109.395,162.056L110.117,162.549L110.84,163.003L111.563,163.358L112.285,163.837L113.008,164.199L113.73,164.537L114.453,164.954L115.176,165.273L115.898,165.687L116.621,165.816L117.344,166.152L118.066,166.364L118.789,166.6L119.512,166.865L120.234,167.046L120.957,167.209L121.68,167.321L122.402,167.635L123.125,167.704L123.848,167.644L124.57,167.587L125.293,167.432L126.016,167.51L126.738,167.409L127.461,167.18L128.184,167.194L128.906,166.801L129.629,166.55L130.352,166.15L131.074,165.837L131.797,165.319L132.52,164.794L133.242,164.345L133.965,163.79L134.688,163.409L135.41,162.719L136.133,161.963L136.855,161.375L137.578,160.387L138.301,159.864L139.023,158.645L139.746,157.716L140.469,156.846L141.191,155.88L141.914,154.852L142.637,153.908L143.359,152.709L144.082,151.469L144.805,150.417L145.527,149.021L146.25,147.786L146.973,146.516L147.695,145.159L148.418,143.875L149.141,142.508L149.863,141.1L150.586,139.702L151.309,138.187L152.031,136.736L152.754,135.189L153.477,133.837L154.199,132.155L154.922,130.58L155.645,129.007L156.367,127.521L157.09,125.97L157.813,124.238L158.535,122.681L159.258,121.177L159.98,119.486L160.703,117.829L161.426,116.04L162.148,114.596L162.871,112.86L163.594,111.195L164.316,109.548L165.039,108.055L165.762,106.185L166.484,104.734L167.207,103.131L167.93,101.516L168.652,99.999L169.375,98.296L170.098,96.804L170.82,95.311L171.543,93.643L172.266,92.049L172.988,90.581L173.711,88.869L174.434,87.251L175.156,85.764L175.879,84.242L176.602,82.749L177.324,81.336L178.047,79.908L178.77,78.573L179.492,76.912L180.215,75.49L180.938,74.094L181.66,72.703L182.383,71.389L183.105,69.913L183.828,68.713L184.551,67.201L185.273,65.893L185.996,64.592L186.719,63.477L187.441,62.053L188.164,60.914L188.887,59.574L189.609,58.383L190.332,57.197L191.055,55.979L191.777,54.933L192.5,53.753L193.223,52.644L193.945,51.406L194.668,50.44L195.391,49.326L196.113,48.271L196.836,47.451L197.559,46.15L198.281,45.221L199.004,45.457L199.727,47.051L200.449,48.636L201.172,50.099L201.895,51.683L202.617,53.239L203.34,54.118L204.063,53.708L204.785,53.333L205.508,52.764L206.23,52.272L206.953,51.728L207.676,51.294L208.398,50.77L209.121,50.319L209.844,49.789L210.566,49.454L211.289,48.794L212.012,48.543L212.734,48.104L213.457,47.57L214.18,47.162L214.902,46.925L215.625,46.313L216.348,45.969L217.07,45.48L217.793,45.099L218.516,44.648L219.238,44.255L219.961,43.993L220.684,43.597L221.406,43.174L222.129,42.74L222.852,42.376L223.574,42.097L224.297,41.8L225.02,41.353L225.742,40.977L226.465,40.76L227.188,40.4L227.91,40L228.633,39.721L229.355,39.389L230.078,39.263L230.801,38.817L231.523,38.568L232.246,38.453L232.969,38.052L233.691,37.714L234.414,37.467L235.137,37.274L235.859,36.972L236.582,36.706L237.305,36.446L238.027,36.377L238.75,35.978L239.473,35.817L240.195,35.555L240.918,35.32L241.641,35.084L242.363,34.888L243.086,34.701L243.809,34.52L244.531,34.28L245.254,34.044L245.977,33.872L246.699,33.646L247.422,33.509L248.145,33.249L248.867,33.074L249.59,32.969L250.313,32.793L251.035,32.612L251.758,32.365L252.48,32.305L253.203,32.028L253.926,31.909L254.648,31.738L255.371,31.604L256.094,31.42L256.816,31.288L257.539,31.148L258.262,31.035L258.984,30.873L259.707,30.739L260.43,30.627L261.152,30.562L261.875,30.363L262.598,30.208L263.32,30.08L264.043,30.033L264.766,29.88L265.488,29.901L266.211,29.753L266.934,29.65L267.656,29.552L268.379,29.478L269.102,29.408L269.824,29.313L270.547,29.281L271.27,29.173L271.992,29.081L272.715,28.992L273.438,28.971L274.16,28.885L274.883,28.795L275.605,28.714L276.328,28.655L277.051,28.636L277.773,28.548L278.496,28.437L279.219,28.338L279.941,28.349L280.664,28.191L281.387,28.131L282.109,28.09L282.832,27.961L283.555,27.897L284.277,27.812L285,27.724L285.723,27.646L286.445,27.526L287.168,27.429L287.891,27.319L288.613,27.255L289.336,27.176L290.059,27.1L290.781,26.968L291.504,26.853L292.227,26.762L292.949,26.695L293.672,26.538L294.395,26.459L295.117,26.366L295.84,26.24L296.563,26.115L297.285,26.045L298.008,25.979L298.73,25.884L299.453,25.716L300.176,25.658L300.898,25.559L301.621,25.482L302.344,25.363L303.066,25.24L303.789,25.176L304.512,25.145L305.234,24.993L305.957,24.906L306.68,24.818L307.402,24.733L308.125,24.647L308.848,24.573L309.57,24.506L310.293,24.391L311.016,24.35L311.738,24.257L312.461,24.184L313.184,24.13L313.906,24.056L314.629,23.912L315.352,23.841L316.074,23.814L316.797,23.719L317.52,23.678L318.242,23.642L318.965,23.547L319.688,23.485L320.41,23.443L321.133,23.411L321.855,23.289L322.578,23.278L323.301,23.204L324.023,23.155L324.746,23.081L325.469,23.051L326.191,22.973L326.914,22.964L327.637,22.881L328.359,22.834L329.082,22.818L329.805,22.745L330.527,22.679L331.25,22.658L331.973,22.604L332.695,22.54L333.418,22.54L334.141,22.477L334.863,22.433L335.586,22.393L336.309,22.359L337.031,22.295L337.754,22.332L338.477,22.275L339.199,22.216L339.922,22.2L340.645,22.159L341.367,22.139L342.09,22.108L342.813,22.069L343.535,22.015L344.258,22.008L344.98,21.99L345.703,21.975L346.426,21.957L347.148,21.928L347.871,21.877L348.594,21.896L349.316,21.821L350.039,21.821L350.762,21.775L351.484,21.765L352.207,21.751L352.93,21.706L353.652,21.708L354.375,21.645L355.098,21.633L355.82,21.643L356.543,21.59L357.266,21.581L357.988,21.575L358.711,21.545L359.434,21.523L360.156,21.515L360.879,21.485L361.602,21.514L362.324,21.468L363.047,21.451L363.77,21.435L364.492,21.411L365.215,21.379L365.938,21.38L366.66,21.374L367.383,21.393L368.105,21.331L368.828,21.302L369.551,21.31L370.273,21.332L370.996,21.274L371.719,21.239L372.441,21.226L373.164,21.219L373.887,21.219L374.609,21.184L375.332,21.166L376.055,21.143L376.777,21.129L377.5,21.098L378.223,21.093L378.945,21.079L379.668,21.067L380.391,21.038L381.113,21.031L381.836,21.044L382.559,20.999L383.281,20.979L384.004,20.933L384.727,20.948L385.449,20.925L386.172,20.91L386.895,20.895L387.617,20.87L388.34,20.872L389.063,20.825L389.785,20.825L390.508,20.804L391.23,20.788L391.953,20.771L392.676,20.746L393.398,20.724L394.121,20.732L394.844,20.706L395.566,20.69L396.289,20.652L397.012,20.649L397.734,20.62L398.457,20.598L399.18,20.584L399.902,20.573L400.625,20.581L401.348,20.542L402.07,20.529L402.793,20.512L403.516,20.5L404.238,20.489L404.961,20.476L405.684,20.466L406.406,20.444L407.129,20.431L407.852,20.418L408.574,20.42L409.297,20.385L410.02,20.379L410.742,20.371L411.465,20.349L412.188,20.33L412.91,20.33L413.633,20.315L414.355,20.307L415.078,20.31L415.801,20.283L416.523,20.279L417.246,20.263L417.969,20.235L418.691,20.247L419.414,20.247L420.137,20.219L420.859,20.221L421.582,20.204L422.305,20.195L423.027,20.209L423.75,20.185L424.473,20.178L425.195,20.176L425.918,20.169L426.641,20.161L427.363,20.151L428.086,20.139L428.809,20.147L429.531,20.142L430.254,20.127L430.977,20.131L431.699,20.121L432.422,20.119L433.145,20.112L433.867,20.107L434.59,20.103L435.313,20.098L436.035,20.094L436.758,20.091L437.48,20.083L438.203,20.079L438.926,20.076L439.648,20.076L440.371,20.063L441.094,20.062L441.816,20.068L442.539,20.064L443.262,20.055L443.984,20.06L444.707,20.05L445.43,20.049L446.152,20.045L446.875,20.047L447.598,20.044L448.32,20.044L449.043,20.04L449.766,20.039L450.488,20.041L451.211,20.034L451.934,20.028L452.656,20.028L453.379,20.025L454.102,20.028L454.824,20.027L455.547,20.021L456.27,20.021L456.992,20.018L457.715,20.018L458.438,20.018L459.16,20.018L459.883,20.012L460.605,20.011L461.328,20.013L462.051,20.01L462.773,20.009L463.496,20.01L464.219,20.01L464.941,20.008L465.664,20.004L466.387,20.009L467.109,20.008L467.832,20.006L468.555,20.005L469.277,20.004"/><path fill="none" stroke="rgb(255, 130, 29)" stroke-width="1.5" d="M100,156.076L100.723,155.824L101.445,155.627L102.168,155.349L102.891,154.922L103.613,154.637L104.336,154.431L105.059,153.861L105.781,153.473L106.504,153.08L107.227,152.54L107.949,152.05L108.672,151.408L109.395,150.721L110.117,150.056L110.84,149.253L111.563,148.456L112.285,147.7L113.008,147.022L113.73,145.936L114.453,145.041L115.176,144.176L115.898,143.206L116.621,142.119L117.344,140.936L118.066,139.9L118.789,138.762L119.512,137.929L120.234,136.469L120.957,135.393L121.68,134.016L122.402,132.803L123.125,131.521L123.848,130.062L124.57,128.848L125.293,127.423L126.016,126.099L126.738,124.634L127.461,123.27L128.184,121.777L128.906,120.462L129.629,118.985L130.352,117.573L131.074,116.02L131.797,114.465L132.52,112.956L133.242,111.546L133.965,110.021L134.688,108.607L135.41,107.051L136.133,105.578L136.855,103.877L137.578,102.388L138.301,100.918L139.023,99.528L139.746,97.852L140.469,96.65L141.191,94.96L141.914,93.497L142.637,91.962L143.359,90.328L144.082,88.881L144.805,87.615L145.527,86.158L146.25,84.739L146.973,83.247L147.695,81.729L148.418,80.208L149.141,78.818L149.863,77.653L150.586,76.18L151.309,74.654L152.031,73.412L152.754,72.092L153.477,70.677L154.199,69.359L154.922,68.048L155.645,66.89L156.367,65.6L157.09,64.29L157.813,63.041L158.535,61.756L159.258,60.57L159.98,59.374L160.703,58.226L161.426,56.955L162.148,55.853L162.871,54.693L163.594,53.547L164.316,52.426L165.039,51.453L165.762,50.268L166.484,49.343L167.207,48.246L167.93,47.249L168.652,46.175L169.375,45.098L170.098,44.156L170.82,43.245L171.543,42.312L172.266,43.11L172.988,44.763L173.711,46.364L174.434,48.085L175.156,49.546L175.879,51.285L176.602,51.835L177.324,51.412L178.047,50.929L178.77,50.377L179.492,49.943L180.215,49.546L180.938,48.959L181.66,48.705L182.383,48.137L183.105,47.736L183.828,47.393L184.551,46.875L185.273,46.445L185.996,46.047L186.719,45.548L187.441,45.217L188.164,44.789L188.887,44.4L189.609,44.023L190.332,43.595L191.055,43.221L191.777,42.77L192.5,42.461L193.223,42.025L193.945,41.662L194.668,41.332L195.391,40.903L196.113,40.622L196.836,40.207L197.559,39.929L198.281,39.51L199.004,39.323L199.727,38.903L200.449,38.595L201.172,38.34L201.895,38.073L202.617,37.69L203.34,37.371L204.063,37.009L204.785,36.793L205.508,36.502L206.23,36.179L206.953,36.008L207.676,35.699L208.398,35.369L209.121,35.034L209.844,34.877L210.566,34.683L211.289,34.351L212.012,34.171L212.734,33.928L213.457,33.583L214.18,33.48L214.902,33.156L215.625,33.013L216.348,32.692L217.07,32.547L217.793,32.294L218.516,32.117L219.238,31.852L219.961,31.709L220.684,31.582L221.406,31.254L222.129,31.053L222.852,30.938L223.574,30.789L224.297,30.531L225.02,30.431L225.742,30.209L226.465,29.924L227.188,29.847L227.91,29.74L228.633,29.579L229.355,29.48L230.078,29.258L230.801,29.112L231.523,29.001L232.246,28.807L232.969,28.652L233.691,28.506L234.414,28.421L235.137,28.353L235.859,28.188L236.582,28.047L237.305,27.92L238.027,27.867L238.75,27.736L239.473,27.641L240.195,27.499L240.918,27.417L241.641,27.344L242.363,27.238L243.086,27.102L243.809,27.003L244.531,27.06L245.254,26.848L245.977,26.801L246.699,26.702L247.422,26.696L248.145,26.53L248.867,26.476L249.59,26.416L250.313,26.411L251.035,26.27L251.758,26.205L252.48,26.182L253.203,26.17L253.926,26.082L254.648,25.96L255.371,25.994L256.094,25.93L256.816,25.894L257.539,25.794L258.262,25.808L258.984,25.764L259.707,25.733L260.43,25.712L261.152,25.704L261.875,25.657L262.598,25.616L263.32,25.608L264.043,25.632L264.766,25.58L265.488,25.575L266.211,25.54L266.934,25.598L267.656,25.552L268.379,25.582L269.102,25.583L269.824,25.554L270.547,25.619L271.27,25.576L271.992,25.632L272.715,25.606L273.438,25.607L274.16,25.657L274.883,25.615L275.605,25.661L276.328,25.647L277.051,25.669L277.773,25.647L278.496,25.709L279.219,25.72L279.941,25.674L280.664,25.689L281.387,25.663L282.109,25.647L282.832,25.59L283.555,25.624L284.277,25.608L285,25.572L285.723,25.52L286.445,25.476L287.168,25.462L287.891,25.449L288.613,25.393L289.336,25.336L290.059,25.301L290.781,25.258L291.504,25.175L292.227,25.181L292.949,25.094L293.672,25.055L294.395,24.976L295.117,24.924L295.84,24.858L296.563,24.794L297.285,24.731L298.008,24.711L298.73,24.627L299.453,24.561L300.176,24.472L300.898,24.4L301.621,24.366L302.344,24.275L303.066,24.227L303.789,24.159L304.512,24.106L305.234,24.02L305.957,23.971L306.68,23.902L307.402,23.854L308.125,23.796L308.848,23.708L309.57,23.674L310.293,23.613L311.016,23.538L311.738,23.507L312.461,23.458L313.184,23.377L313.906,23.298L314.629,23.25L315.352,23.18L316.074,23.177L316.797,23.103L317.52,23.039L318.242,23.006L318.965,22.938L319.688,22.919L320.41,22.873L321.133,22.824L321.855,22.775L322.578,22.726L323.301,22.705L324.023,22.624L324.746,22.593L325.469,22.542L326.191,22.53L326.914,22.449L327.637,22.43L328.359,22.388L329.082,22.386L329.805,22.331L330.527,22.296L331.25,22.253L331.973,22.234L332.695,22.167L333.418,22.156L334.141,22.115L334.863,22.093L335.586,22.059L336.309,22.03L337.031,22.011L337.754,21.988L338.477,21.964L339.199,21.93L339.922,21.921L340.645,21.88L341.367,21.866L342.09,21.827L342.813,21.803L343.535,21.784L344.258,21.775L344.98,21.741L345.703,21.727L346.426,21.709L347.148,21.678L347.871,21.659L348.594,21.652L349.316,21.659L350.039,21.612L350.762,21.595L351.484,21.572L352.207,21.548L352.93,21.521L353.652,21.526L354.375,21.479L355.098,21.502L355.82,21.503L356.543,21.453L357.266,21.446L357.988,21.407L358.711,21.425L359.434,21.415L360.156,21.4L360.879,21.383L361.602,21.364L362.324,21.341L363.047,21.36L363.77,21.339L364.492,21.305L365.215,21.276L365.938,21.295L366.66,21.274L367.383,21.269L368.105,21.241L368.828,21.227L369.551,21.218L370.273,21.174L370.996,21.223L371.719,21.148L372.441,21.176L373.164,21.169L373.887,21.147L374.609,21.126L375.332,21.109L376.055,21.139L376.777,21.094L377.5,21.094L378.223,21.075L378.945,21.063L379.668,21.059L380.391,21.029L381.113,21.019L381.836,20.986L382.559,20.988L383.281,20.98L384.004,20.971L384.727,20.931L385.449,20.951L386.172,20.923L386.895,20.882L387.617,20.859L388.34,20.879L389.063,20.837L389.785,20.817L390.508,20.816L391.23,20.783L391.953,20.772L392.676,20.754L393.398,20.755L394.121,20.739L394.844,20.726L395.566,20.702L396.289,20.683L397.012,20.667L397.734,20.666L398.457,20.632L399.18,20.63L399.902,20.624L400.625,20.589L401.348,20.573L402.07,20.537L402.793,20.536L403.516,20.531L404.238,20.532L404.961,20.488L405.684,20.488L406.406,20.464L407.129,20.448L407.852,20.44L408.574,20.452L409.297,20.405L410.02,20.412L410.742,20.374L411.465,20.367L412.188,20.355L412.91,20.358L413.633,20.334L414.355,20.329L415.078,20.31L415.801,20.31L416.523,20.304L417.246,20.281L417.969,20.28L418.691,20.272L419.414,20.255L420.137,20.25L420.859,20.24L421.582,20.237L422.305,20.225L423.027,20.216L423.75,20.2L424.473,20.197L425.195,20.192L425.918,20.189L426.641,20.184L427.363,20.172L428.086,20.157L428.809,20.165L429.531,20.15L430.254,20.141L430.977,20.133L431.699,20.131L432.422,20.13L433.145,20.125L433.867,20.112L434.59,20.11L435.313,20.115L436.035,20.1L436.758,20.09L437.48,20.098L438.203,20.091L438.926,20.082L439.648,20.083L440.371,20.079L441.094,20.075L441.816,20.075L442.539,20.064L443.262,20.068L443.984,20.063L444.707,20.058L445.43,20.061L446.152,20.054L446.875,20.054L447.598,20.055L448.32,20.047L449.043,20.045L449.766,20.047L450.488,20.04L451.211,20.039L451.934,20.035L452.656,20.036L453.379,20.034L454.102,20.029L454.824,20.027L455.547,20.026L456.27,20.026L456.992,20.023L457.715,20.023L458.438,20.021L459.16,20.02L459.883,20.019L460.605,20.021L461.328,20.016L462.051,20.016L462.773,20.013L463.496,20.014L464.219,20.015L464.941,20.01L465.664,20.01L466.387,20.009L467.109,20.01L467.832,20.008L468.555,20.007L469.277,20.006"/><path fill="none" stroke="rgb(203, 47, 13)" stroke-width="1.5" d="M100,45.094L100.723,45.015L101.445,44.846L102.168,44.632L102.891,44.697L103.613,44.51L104.336,44.372L105.059,44.304L105.781,44.055L106.504,44.026L107.227,43.944L107.949,43.929L108.672,43.715L109.395,43.655L110.117,43.605L110.84,43.31L111.563,43.252L112.285,43.218L113.008,43.196L113.73,43.02L114.453,42.836L115.176,42.697L115.898,42.676L116.621,42.471L117.344,42.239L118.066,42.157L118.789,42.134L119.512,42.086L120.234,41.987L120.957,41.831L121.68,41.632L122.402,41.6L123.125,41.454L123.848,41.289L124.57,41.179L125.293,41.034L126.016,40.901L126.738,40.859L127.461,40.753L128.184,40.662L128.906,40.446L129.629,40.203L130.352,40.31L131.074,40.086L131.797,40.005L132.52,39.973L133.242,39.751L133.965,39.662L134.688,39.458L135.41,39.495L136.133,39.185L136.855,39.086L137.578,38.992L138.301,38.916L139.023,38.867L139.746,38.663L140.469,38.687L141.191,38.415L141.914,38.154L142.637,38.192L143.359,38.047L144.082,37.91L144.805,37.762L145.527,37.771L146.25,37.595L146.973,37.497L147.695,37.401L148.418,37.254L149.141,37.202L149.863,36.999L150.586,36.935L151.309,36.838L152.031,36.656L152.754,36.468L153.477,36.452L154.199,36.351L154.922,36.121L155.645,36.188L156.367,35.943L157.09,35.867L157.813,35.713L158.535,35.547L159.258,35.462L159.98,35.389L160.703,35.214L161.426,35.27L162.148,34.974L162.871,34.958L163.594,34.916L164.316,34.811L165.039,34.815L165.762,34.57L166.484,34.442L167.207,34.384L167.93,34.231L168.652,34.157L169.375,33.929L170.098,33.949L170.82,33.876L171.543,33.718L172.266,33.755L172.988,33.551L173.711,33.447L174.434,33.379L175.156,33.197L175.879,33.139L176.602,33.107L177.324,32.943L178.047,32.884L178.77,32.778L179.492,32.723L180.215,32.594L180.938,32.571L181.66,32.454L182.383,32.296L183.105,32.271L183.828,32.125L184.551,32.109L185.273,32.008L185.996,31.928L186.719,31.769L187.441,31.85L188.164,31.743L188.887,31.468L189.609,31.415L190.332,31.485L191.055,31.419L191.777,31.21L192.5,31.135L193.223,31.07L193.945,31.132L194.668,30.93L195.391,30.928L196.113,30.803L196.836,30.835L197.559,30.699L198.281,30.644L199.004,30.493L199.727,30.279L200.449,30.338L201.172,30.257L201.895,30.223L202.617,30.159L203.34,30.076L204.063,30.069L204.785,30.053L205.508,29.942L206.23,29.889L206.953,29.703L207.676,29.694L208.398,29.806L209.121,29.61L209.844,29.465L210.566,29.459L211.289,29.437L212.012,29.347L212.734,29.249L213.457,29.224L214.18,29.146L214.902,29.141L215.625,29.094L216.348,29.01L217.07,29.029L217.793,28.924L218.516,28.953L219.238,28.774L219.961,28.729L220.684,28.678L221.406,28.714L222.129,28.647L222.852,28.571L223.574,28.556L224.297,28.45L225.02,28.43L225.742,28.392L226.465,28.251L227.188,28.23L227.91,28.293L228.633,28.141L229.355,28.168L230.078,28.115L230.801,28.112L231.523,27.939L232.246,27.983L232.969,27.94L233.691,27.91L234.414,27.817L235.137,27.848L235.859,27.79L236.582,27.688L237.305,27.723L238.027,27.633L238.75,27.616L239.473,27.575L240.195,27.535L240.918,27.473L241.641,27.442L242.363,27.464L243.086,27.331L243.809,27.378L244.531,27.289L245.254,27.226L245.977,27.251L246.699,27.174L247.422,27.235L248.145,27.116L248.867,27.089L249.59,27.068L250.313,26.99L251.035,27.042L251.758,27.004L252.48,26.943L253.203,26.86L253.926,26.9L254.648,26.84L255.371,26.834L256.094,26.883L256.816,26.777L257.539,26.754L258.262,26.805L258.984,26.762L259.707,26.751L260.43,26.689L261.152,26.74L261.875,26.656L262.598,26.69L263.32,26.705L264.043,26.68L264.766,26.66L265.488,26.697L266.211,26.693L266.934,26.681L267.656,26.719L268.379,26.693L269.102,26.799L269.824,26.771L270.547,26.756L271.27,26.76L271.992,26.803L272.715,26.761L273.438,26.776L274.16,26.799L274.883,26.863L275.605,26.788L276.328,26.824L277.051,26.824L277.773,26.872L278.496,26.868L279.219,26.806L279.941,26.837L280.664,26.817L281.387,26.804L282.109,26.761L282.832,26.768L283.555,26.768L284.277,26.778L285,26.675L285.723,26.711L286.445,26.595L287.168,26.606L287.891,26.571L288.613,26.509L289.336,26.464L290.059,26.377L290.781,26.372L291.504,26.244L292.227,26.244L292.949,26.199L293.672,26.128L294.395,26.071L295.117,26.025L295.84,25.959L296.563,25.862L297.285,25.779L298.008,25.757L298.73,25.653L299.453,25.607L300.176,25.511L300.898,25.486L301.621,25.391L302.344,25.27L303.066,25.257L303.789,25.124L304.512,25.096L305.234,25.005L305.957,24.964L306.68,24.858L307.402,24.786L308.125,24.778L308.848,24.68L309.57,24.571L310.293,24.59L311.016,24.491L311.738,24.462L312.461,24.321L313.184,24.292L313.906,24.209L314.629,24.158L315.352,24.085L316.074,24.022L316.797,24.008L317.52,23.927L318.242,23.884L318.965,23.801L319.688,23.752L320.41,23.684L321.133,23.645L321.855,23.565L322.578,23.544L323.301,23.505L324.023,23.445L324.746,23.385L325.469,23.332L326.191,23.303L326.914,23.302L327.637,23.201L328.359,23.17L329.082,23.122L329.805,23.065L330.527,23.02L331.25,23.014L331.973,22.978L332.695,22.933L333.418,22.891L334.141,22.854L334.863,22.829L335.586,22.776L336.309,22.781L337.031,22.697L337.754,22.704L338.477,22.671L339.199,22.614L339.922,22.588L340.645,22.552L341.367,22.54L342.09,22.5L342.813,22.46L343.535,22.447L344.258,22.425L344.98,22.363L345.703,22.374L346.426,22.32L347.148,22.338L347.871,22.288L348.594,22.265L349.316,22.227L350.039,22.172L350.762,22.191L351.484,22.169L352.207,22.13L352.93,22.108L353.652,22.087L354.375,22.08L355.098,22.057L355.82,22.029L356.543,22.028L357.266,22.007L357.988,21.998L358.711,21.967L359.434,21.971L360.156,21.908L360.879,21.879L361.602,21.883L362.324,21.815L363.047,21.85L363.77,21.851L364.492,21.803L365.215,21.774L365.938,21.776L366.66,21.755L367.383,21.72L368.105,21.721L368.828,21.715L369.551,21.693L370.273,21.677L370.996,21.639L371.719,21.641L372.441,21.621L373.164,21.614L373.887,21.593L374.609,21.566L375.332,21.532L376.055,21.555L376.777,21.571L377.5,21.517L378.223,21.468L378.945,21.47L379.668,21.434L380.391,21.425L381.113,21.415L381.836,21.364L382.559,21.352L383.281,21.337L384.004,21.328L384.727,21.313L385.449,21.291L386.172,21.279L386.895,21.229L387.617,21.221L388.34,21.196L389.063,21.207L389.785,21.169L390.508,21.132L391.23,21.094L391.953,21.094L392.676,21.073L393.398,21.044L394.121,21.059L394.844,21.022L395.566,21.004L396.289,20.967L397.012,20.922L397.734,20.932L398.457,20.921L399.18,20.89L399.902,20.846L400.625,20.827L401.348,20.82L402.07,20.81L402.793,20.767L403.516,20.76L404.238,20.727L404.961,20.7L405.684,20.692L406.406,20.698L407.129,20.665L407.852,20.63L408.574,20.617L409.297,20.601L410.02,20.586L410.742,20.563L411.465,20.554L412.188,20.535L412.91,20.514L413.633,20.504L414.355,20.48L415.078,20.481L415.801,20.478L416.523,20.459L417.246,20.423L417.969,20.437L418.691,20.392L419.414,20.389L420.137,20.384L420.859,20.363L421.582,20.353L422.305,20.331L423.027,20.319L423.75,20.322L424.473,20.301L425.195,20.307L425.918,20.28L426.641,20.276L427.363,20.267L428.086,20.261L428.809,20.26L429.531,20.25L430.254,20.229L430.977,20.22L431.699,20.217L432.422,20.215L433.145,20.206L433.867,20.188L434.59,20.185L435.313,20.186L436.035,20.177L436.758,20.166L437.48,20.152L438.203,20.154L438.926,20.148L439.648,20.131L440.371,20.131L441.094,20.125L441.816,20.12L442.539,20.12L443.262,20.12L443.984,20.106L444.707,20.108L445.43,20.104L446.152,20.092L446.875,20.089L447.598,20.085L448.32,20.079L449.043,20.078L449.766,20.079L450.488,20.072L451.211,20.068L451.934,20.067L452.656,20.064L453.379,20.061L454.102,20.064L454.824,20.054L455.547,20.053L456.27,20.051L456.992,20.05L457.715,20.048L458.438,20.043L459.16,20.042L459.883,20.04L460.605,20.036L461.328,20.035L462.051,20.034L462.773,20.034L463.496,20.033L464.219,20.03L464.941,20.032L465.664,20.027L466.387,20.019L467.109,20.023L467.832,20.02L468.555,20.022L469.277,20.022"/><g transform="translate(15,190) scale(1.7) rotate(-90)"><text>Drift</text></g><g transform="translate(315,395) scale(1.8)"><text></text></g><g transform="translate(0,350)" fill="none" font-size="10" font-family="sans-serif" text-anchor="middle"><path class="domain" stroke="currentColor" d="M100,6V0H470V6"/><g class="tick" opacity="1" transform="translate(136.96669666966696,0)"><line stroke="currentColor" y2="6"/><text fill="currentColor" y="9" dy="0.71em" font-size="20px"> </text></g><g class="tick" opacity="1" transform="translate(173.97039703970398,0)"><line stroke="currentColor" y2="6"/><text fill="currentColor" y="9" dy="0.71em" font-size="20px">20</text></g><g class="tick" opacity="1" transform="translate(210.97409740974098,0)"><line stroke="currentColor" y2="6"/><text fill="currentColor" y="9" dy="0.71em" font-size="20px"> </text></g><g class="tick" opacity="1" transform="translate(247.97779777977803,0)"><line stroke="currentColor" y2="6"/><text fill="currentColor" y="9" dy="0.71em" font-size="20px">40</text></g><g class="tick" opacity="1" transform="translate(284.981498149815,0)"><line stroke="currentColor" y2="6"/><text fill="currentColor" y="9" dy="0.71em" font-size="20px"> </text></g><g class="tick" opacity="1" transform="translate(321.985198519852,0)"><line stroke="currentColor" y2="6"/><text fill="currentColor" y="9" dy="0.71em" font-size="20px">60</text></g><g class="tick" opacity="1" transform="translate(358.988898889889,0)"><line stroke="currentColor" y2="6"/><text fill="currentColor" y="9" dy="0.71em" font-size="20px"> </text></g><g class="tick" opacity="1" transform="translate(395.992599259926,0)"><line stroke="currentColor" y2="6"/><text fill="currentColor" y="9" dy="0.71em" font-size="20px">80</text></g><g class="tick" opacity="1" transform="translate(432.996299629963,0)"><line stroke="currentColor" y2="6"/><text fill="currentColor" y="9" dy="0.71em" font-size="20px"> </text></g><g class="tick" opacity="1" transform="translate(470,0)"><line stroke="currentColor" y2="6"/><text fill="currentColor" y="9" dy="0.71em" font-size="20px">100</text></g></g><g transform="translate(100,0)" fill="none" font-size="10" font-family="sans-serif" text-anchor="end"><path class="domain" stroke="currentColor" d="M-6,350H0V20H-6"/><g class="tick" opacity="1" transform="translate(0,338.2995183649295)"><line stroke="currentColor" x2="-6"/><text fill="currentColor" x="-9" dy="0.32em" font-size="20px">0.7</text></g><g class="tick" opacity="1" transform="translate(0,291.7174140404111)"><line stroke="currentColor" x2="-6"/><text fill="currentColor" x="-9" dy="0.32em" font-size="20px">0.6</text></g><g class="tick" opacity="1" transform="translate(0,245.13530971589276)"><line stroke="currentColor" x2="-6"/><text fill="currentColor" x="-9" dy="0.32em" font-size="20px">0.5</text></g><g class="tick" opacity="1" transform="translate(0,198.5532053913744)"><line stroke="currentColor" x2="-6"/><text fill="currentColor" x="-9" dy="0.32em" font-size="20px">0.4</text></g><g class="tick" opacity="1" transform="translate(0,151.971101066856)"><line stroke="currentColor" x2="-6"/><text fill="currentColor" x="-9" dy="0.32em" font-size="20px">0.3</text></g><g class="tick" opacity="1" transform="translate(0,105.38899674233765)"><line stroke="currentColor" x2="-6"/><text fill="currentColor" x="-9" dy="0.32em" font-size="20px">0.2</text></g><g class="tick" opacity="1" transform="translate(0,58.806892417819256)"><line stroke="currentColor" x2="-6"/><text fill="currentColor" x="-9" dy="0.32em" font-size="20px">0.1</text></g></g><circle cx="355" cy="150" r="8" style="fill: rgb(35, 23, 27);"/><circle cx="355" cy="175" r="8" style="fill: rgb(69, 105, 238);"/><circle cx="355" cy="200" r="8" style="fill: rgb(38, 188, 225);"/><circle cx="355" cy="225" r="8" style="fill: rgb(63, 243, 147);"/><circle cx="355" cy="250" r="8" style="fill: rgb(149, 251, 81);"/><circle cx="355" cy="275" r="8" style="fill: rgb(236, 209, 46);"/><circle cx="355" cy="300" r="8" style="fill: rgb(255, 130, 29);"/><circle cx="355" cy="325" r="8" style="fill: rgb(203, 47, 13);"/><text x="370" y="150" text-anchor="left" font-size="22" alignment-baseline="middle" style="fill: rgb(35, 23, 27);"> = 0</text><text x="370" y="175" text-anchor="left" font-size="22" alignment-baseline="middle" style="fill: rgb(69, 105, 238);"> = 0.22</text><text x="370" y="200" text-anchor="left" font-size="22" alignment-baseline="middle" style="fill: rgb(38, 188, 225);"> = 0.45</text><text x="370" y="225" text-anchor="left" font-size="22" alignment-baseline="middle" style="fill: rgb(63, 243, 147);"> = 0.67</text><text x="370" y="250" text-anchor="left" font-size="22" alignment-baseline="middle" style="fill: rgb(149, 251, 81);"> = 0.9</text><text x="370" y="275" text-anchor="left" font-size="22" alignment-baseline="middle" style="fill: rgb(236, 209, 46);"> = 1.12</text><text x="370" y="300" text-anchor="left" font-size="22" alignment-baseline="middle" style="fill: rgb(255, 130, 29);"> = 1.35</text><text x="370" y="325" text-anchor="left" font-size="22" alignment-baseline="middle" style="fill: rgb(203, 47, 13);"> = 1.57</text></svg>