<svg xmlns="http://www.w3.org/2000/svg" class="bg-white" width="500" height="400" viewBox="-10 -1 500 400"><path fill="none" stroke="rgb(35, 23, 27)" stroke-width="1.5" d="M100,72.651L100.723,72.92L101.445,72.811L102.168,73.051L102.891,73.141L103.613,73.316L104.336,73.544L105.059,73.513L105.781,73.756L106.504,73.856L107.227,73.987L107.949,74.334L108.672,74.328L109.395,74.56L110.117,74.7L110.84,74.959L111.563,75.072L112.285,75.216L113.008,75.41L113.73,75.486L114.453,75.725L115.176,75.977L115.898,76.223L116.621,76.365L117.344,76.566L118.066,76.764L118.789,76.985L119.512,77.119L120.234,77.391L120.957,77.53L121.68,77.798L122.402,78.031L123.125,78.32L123.848,78.702L124.57,78.856L125.293,78.941L126.016,79.35L126.738,79.511L127.461,79.846L128.184,80.102L128.906,80.432L129.629,80.627L130.352,80.796L131.074,81.25L131.797,81.48L132.52,81.794L133.242,81.962L133.965,82.494L134.688,82.767L135.41,83.054L136.133,83.35L136.855,83.732L137.578,84.07L138.301,84.425L139.023,84.86L139.746,85.275L140.469,85.562L141.191,85.911L141.914,86.286L142.637,86.574L143.359,87.111L144.082,87.57L144.805,87.964L145.527,88.302L146.25,88.841L146.973,89.391L147.695,89.766L148.418,90.126L149.141,90.64L149.863,91.061L150.586,91.46L151.309,92.161L152.031,92.567L152.754,93.158L153.477,93.727L154.199,94.251L154.922,94.826L155.645,95.277L156.367,95.895L157.09,96.509L157.813,97.125L158.535,97.744L159.258,98.41L159.98,99.061L160.703,99.713L161.426,100.281L162.148,101.035L162.871,101.763L163.594,102.53L164.316,103.213L165.039,103.96L165.762,104.625L166.484,105.478L167.207,106.271L167.93,107.188L168.652,107.999L169.375,108.869L170.098,109.633L170.82,110.509L171.543,111.522L172.266,112.395L172.988,113.415L173.711,114.407L174.434,115.345L175.156,116.389L175.879,117.609L176.602,118.583L177.324,119.599L178.047,120.791L178.77,121.82L179.492,123.218L180.215,124.463L180.938,125.577L181.66,127.101L182.383,128.298L183.105,129.551L183.828,130.923L184.551,132.364L185.273,133.964L185.996,135.296L186.719,136.825L187.441,138.533L188.164,140.072L188.887,141.785L189.609,143.462L190.332,145.271L191.055,147.031L191.777,148.848L192.5,150.859L193.223,152.828L193.945,154.94L194.668,157.05L195.391,159.069L196.113,161.439L196.836,163.754L197.559,166.154L198.281,168.595L199.004,171.161L199.727,173.825L200.449,176.586L201.172,179.442L201.895,182.307L202.617,185.342L203.34,188.386L204.063,191.569L204.785,195.021L205.508,198.293L206.23,201.723L206.953,205.444L207.676,208.886L208.398,212.723L209.121,216.356L209.844,220.529L210.566,224.112L211.289,228.234L212.012,232.316L212.734,236.521L213.457,240.652L214.18,244.855L214.902,249.094L215.625,253.343L216.348,257.868L217.07,262.216L217.793,266.589L218.516,270.565L219.238,274.869L219.961,279.119L220.684,283.323L221.406,287.37L222.129,291.859L222.852,295.524L223.574,299.391L224.297,303.341L225.02,307.366L225.742,311.05L226.465,314.553L227.188,318.002L227.91,321.335L228.633,324.438L229.355,327.271L230.078,330.145L230.801,332.841L231.523,335.284L232.246,337.549L232.969,339.725L233.691,341.252L234.414,343.299L235.137,344.889L235.859,346.3L236.582,347.512L237.305,348.304L238.027,349.084L238.75,349.646L239.473,349.962L240.195,350L240.918,349.763L241.641,349.557L242.363,349.027L243.086,348.28L243.809,347.289L244.531,346.1L245.254,344.722L245.977,343.155L246.699,341.415L247.422,339.688L248.145,337.713L248.867,335.393L249.59,333.08L250.313,330.25L251.035,327.767L251.758,324.855L252.48,322.052L253.203,318.996L253.926,315.735L254.648,312.439L255.371,308.951L256.094,305.305L256.816,301.848L257.539,298.085L258.262,294.253L258.984,290.365L259.707,286.466L260.43,282.445L261.152,278.385L261.875,274.234L262.598,269.966L263.32,265.716L264.043,261.415L264.766,257.174L265.488,252.843L266.211,248.541L266.934,243.977L267.656,239.456L268.379,235.013L269.102,230.688L269.824,226.223L270.547,221.706L271.27,217.201L271.992,212.64L272.715,208.098L273.438,203.466L274.16,198.789L274.883,194.374L275.605,189.8L276.328,185.14L277.051,180.516L277.773,175.93L278.496,171.286L279.219,166.48L279.941,161.277L280.664,156.491L281.387,151.453L282.109,146.544L282.832,141.669L283.555,136.965L284.277,132.232L285,127.779L285.723,123.163L286.445,118.888L287.168,114.532L287.891,110.291L288.613,106.261L289.336,102.126L290.059,98.218L290.781,94.473L291.504,90.708L292.227,87.031L292.949,83.487L293.672,79.977L294.395,76.739L295.117,73.509L295.84,70.198L296.563,67.093L297.285,64.301L298.008,61.515L298.73,58.434L299.453,55.707L300.176,55.944L300.898,57.163L301.621,58.516L302.344,59.969L303.066,61.505L303.789,63.136L304.512,63.02L305.234,61.415L305.957,59.943L306.68,58.6L307.402,57.095L308.125,55.727L308.848,54.531L309.57,53.152L310.293,52.073L311.016,50.996L311.738,49.477L312.461,48.723L313.184,47.576L313.906,46.506L314.629,45.769L315.352,44.49L316.074,43.935L316.797,42.919L317.52,41.921L318.242,41.325L318.965,40.346L319.688,39.696L320.41,38.666L321.133,38.257L321.855,37.489L322.578,36.746L323.301,36.227L324.023,35.61L324.746,35.047L325.469,34.624L326.191,34.001L326.914,33.308L327.637,32.932L328.359,32.329L329.082,32.082L329.805,31.622L330.527,31.206L331.25,30.683L331.973,30.138L332.695,30.083L333.418,29.644L334.141,29.454L334.863,28.715L335.586,28.632L336.309,28.381L337.031,28.077L337.754,27.697L338.477,27.574L339.199,27.104L339.922,27.078L340.645,26.627L341.367,26.563L342.09,26.198L342.813,25.897L343.535,25.902L344.258,25.5L344.98,25.456L345.703,25.406L346.426,25.176L347.148,25.031L347.871,24.849L348.594,24.371L349.316,24.193L350.039,24.453L350.762,24.306L351.484,23.943L352.207,23.87L352.93,23.644L353.652,23.634L354.375,23.833L355.098,22.937L355.82,23.28L356.543,23.253L357.266,23.324L357.988,22.969L358.711,22.705L359.434,22.923L360.156,22.606L360.879,22.813L361.602,22.69L362.324,22.747L363.047,22.174L363.77,22.665L364.492,22.262L365.215,22.121L365.938,22.109L366.66,21.849L367.383,22.222L368.105,22.076L368.828,22.064L369.551,22.15L370.273,22.348L370.996,21.909L371.719,21.978L372.441,21.999L373.164,22.106L373.887,21.835L374.609,22.575L375.332,22.244L376.055,21.722L376.777,21.319L377.5,21.115L378.223,21.358L378.945,21.846L379.668,21.351L380.391,21.398L381.113,21.625L381.836,21.431L382.559,21.531L383.281,21.306L384.004,21.046L384.727,21.997L385.449,21.667L386.172,21.985L386.895,21.618L387.617,22.075L388.34,22.696L389.063,21.999L389.785,21.688L390.508,21.822L391.23,21.61L391.953,22.747L392.676,22.089L393.398,22.095L394.121,22.464L394.844,22.327L395.566,22.131L396.289,22.121L397.012,21.959L397.734,22.264L398.457,22.184L399.18,22.499L399.902,21.433L400.625,24.141L401.348,23.895L402.07,23.297L402.793,23.406L403.516,22.795L404.238,23.506L404.961,24.659L405.684,24.967L406.406,25.766L407.129,25.333L407.852,27.025L408.574,25.763L409.297,28.641L410.02,27.641L410.742,25.072L411.465,26.554L412.188,26.035L412.91,28.28L413.633,28.053L414.355,29.048L415.078,30.385L415.801,31.681L416.523,30.961L417.246,31.233L417.969,31.518L418.691,34.875L419.414,31.324L420.137,33.378L420.859,33.313L421.582,32.313L422.305,33.671L423.027,32.711L423.75,34.615L424.473,34.662L425.195,33.334L425.918,32.725L426.641,33.381L427.363,34.304L428.086,33.416L428.809,32.468L429.531,31.148L430.254,31.422L430.977,30.661L431.699,30.985L432.422,31.098L433.145,29.436L433.867,28.89L434.59,29.843L435.313,28.217L436.035,28.33L436.758,27.806L437.48,27.689L438.203,28.231L438.926,26.837L439.648,26.127L440.371,27.128L441.094,25.005L441.816,26.131L442.539,25.729L443.262,25.44L443.984,25.611L444.707,24.731L445.43,24.944L446.152,24.548L446.875,24.051L447.598,23.824L448.32,23.714L449.043,23.785L449.766,23.314L450.488,23.299L451.211,22.752L451.934,22.166L452.656,22.976L453.379,21.978L454.102,22.276L454.824,22.337L455.547,22.382L456.27,22.317L456.992,21.972L457.715,21.902L458.438,21.562L459.16,21.828L459.883,21.658L460.605,21.437L461.328,21.295L462.051,21.587L462.773,21.521L463.496,21.26L464.219,21.362L464.941,21.333L465.664,21.298L466.387,20.987L467.109,21.05L467.832,21.17L468.555,20.823L469.277,20.874"/><path fill="none" stroke="rgb(69, 105, 238)" stroke-width="1.5" d="M100,72.294L100.723,72.214L101.445,72.349L102.168,72.676L102.891,72.753L103.613,72.974L104.336,73.058L105.059,73.262L105.781,73.291L106.504,73.46L107.227,73.622L107.949,73.778L108.672,73.961L109.395,74.116L110.117,74.141L110.84,74.443L111.563,74.507L112.285,74.607L113.008,74.979L113.73,75.145L114.453,75.354L115.176,75.446L115.898,75.571L116.621,75.838L117.344,76.086L118.066,76.268L118.789,76.396L119.512,76.817L120.234,76.865L120.957,77.187L121.68,77.321L122.402,77.585L123.125,77.732L123.848,77.998L124.57,78.328L125.293,78.453L126.016,78.837L126.738,79.109L127.461,79.229L128.184,79.418L128.906,79.668L129.629,79.952L130.352,80.198L131.074,80.708L131.797,80.802L132.52,81.128L133.242,81.525L133.965,81.889L134.688,82.067L135.41,82.511L136.133,82.71L136.855,83.034L137.578,83.437L138.301,83.784L139.023,84.01L139.746,84.479L140.469,84.943L141.191,85.294L141.914,85.594L142.637,85.865L143.359,86.333L144.082,86.912L144.805,87.115L145.527,87.717L146.25,87.989L146.973,88.495L147.695,88.934L148.418,89.378L149.141,89.798L149.863,90.164L150.586,90.809L151.309,91.375L152.031,91.853L152.754,92.34L153.477,92.724L154.199,93.33L154.922,93.862L155.645,94.404L156.367,95.013L157.09,95.593L157.813,96.162L158.535,96.737L159.258,97.379L159.98,98.05L160.703,98.71L161.426,99.238L162.148,99.877L162.871,100.605L163.594,101.325L164.316,102.04L165.039,102.705L165.762,103.702L166.484,104.402L167.207,104.998L167.93,105.917L168.652,106.734L169.375,107.423L170.098,108.322L170.82,109.155L171.543,110.007L172.266,111.056L172.988,111.808L173.711,112.928L174.434,113.762L175.156,114.779L175.879,115.648L176.602,116.865L177.324,117.944L178.047,118.907L178.77,119.921L179.492,121.32L180.215,122.377L180.938,123.394L181.66,124.854L182.383,126.162L183.105,127.373L183.828,128.575L184.551,129.85L185.273,131.331L185.996,132.716L186.719,134.245L187.441,135.579L188.164,137.021L188.887,138.744L189.609,140.262L190.332,141.834L191.055,143.674L191.777,145.189L192.5,147.081L193.223,148.718L193.945,150.837L194.668,152.346L195.391,154.663L196.113,156.501L196.836,158.507L197.559,160.624L198.281,162.485L199.004,164.74L199.727,167.274L200.449,169.565L201.172,171.749L201.895,173.997L202.617,176.667L203.34,179.183L204.063,181.888L204.785,184.206L205.508,187.16L206.23,189.475L206.953,192.627L207.676,195.179L208.398,198.032L209.121,201.068L209.844,204.001L210.566,207.259L211.289,209.937L212.012,213.34L212.734,216.175L213.457,219.571L214.18,222.343L214.902,225.555L215.625,228.637L216.348,231.82L217.07,235.143L217.793,237.906L218.516,241.365L219.238,244.78L219.961,247.711L220.684,250.746L221.406,253.759L222.129,256.677L222.852,259.442L223.574,262.642L224.297,265.827L225.02,268.368L225.742,271.05L226.465,273.701L227.188,276.034L227.91,279.049L228.633,281.222L229.355,283.731L230.078,285.743L230.801,287.96L231.523,289.576L232.246,291.633L232.969,293.122L233.691,294.715L234.414,296.122L235.137,297.325L235.859,298.941L236.582,299.909L237.305,300.083L238.027,301.106L238.75,302.012L239.473,301.963L240.195,302.265L240.918,302.514L241.641,302.361L242.363,301.724L243.086,301.102L243.809,300.686L244.531,299.98L245.254,298.83L245.977,298.073L246.699,296.422L247.422,295.327L248.145,293.783L248.867,292.154L249.59,290.281L250.313,288.07L251.035,286.321L251.758,283.966L252.48,281.831L253.203,279.361L253.926,276.563L254.648,274.316L255.371,271.251L256.094,268.566L256.816,265.606L257.539,262.642L258.262,259.503L258.984,256.163L259.707,253.065L260.43,249.703L261.152,246.647L261.875,242.849L262.598,239.473L263.32,236.017L264.043,232.52L264.766,229.023L265.488,225.093L266.211,221.448L266.934,217.8L267.656,214.037L268.379,210.305L269.102,206.426L269.824,202.919L270.547,199.1L271.27,194.985L271.992,190.992L272.715,187.154L273.438,183.217L274.16,179.534L274.883,175.356L275.605,171.281L276.328,167.347L277.051,163.312L277.773,159.14L278.496,154.915L279.219,150.78L279.941,146.895L280.664,142.939L281.387,138.494L282.109,134.183L282.832,129.96L283.555,126.069L284.277,121.967L285,117.793L285.723,114.126L286.445,110.435L287.168,106.486L287.891,102.827L288.613,99.143L289.336,95.777L290.059,92.055L290.781,88.898L291.504,85.36L292.227,82.224L292.949,79.201L293.672,75.975L294.395,73.182L295.117,69.935L295.84,67.229L296.563,64.471L297.285,61.622L298.008,59.297L298.73,56.914L299.453,58.295L300.176,59.662L300.898,61.257L301.621,62.683L302.344,64.403L303.066,66.042L303.789,64.881L304.512,63.312L305.234,62.154L305.957,60.833L306.68,59.21L307.402,57.784L308.125,56.588L308.848,55.485L309.57,54.115L310.293,53.254L311.016,51.979L311.738,50.825L312.461,49.753L313.184,48.625L313.906,47.689L314.629,46.58L315.352,45.728L316.074,44.924L316.797,43.895L317.52,43.079L318.242,42.386L318.965,41.508L319.688,40.769L320.41,39.878L321.133,39.24L321.855,38.589L322.578,37.861L323.301,37.448L324.023,36.597L324.746,36.413L325.469,35.46L326.191,35.071L326.914,34.551L327.637,33.997L328.359,33.387L329.082,33.137L329.805,32.441L330.527,32.038L331.25,31.756L331.973,30.91L332.695,30.807L333.418,30.405L334.141,30.389L334.863,29.87L335.586,29.355L336.309,29.026L337.031,28.673L337.754,28.448L338.477,27.675L339.199,27.806L339.922,27.762L340.645,27.37L341.367,27.291L342.09,26.397L342.813,26.608L343.535,26.098L344.258,25.682L344.98,25.906L345.703,25.722L346.426,25.947L347.148,25.525L347.871,24.946L348.594,24.795L349.316,25.011L350.039,24.589L350.762,24.547L351.484,24.093L352.207,24.214L352.93,24.072L353.652,23.573L354.375,23.329L355.098,23.185L355.82,23.544L356.543,24.082L357.266,23.043L357.988,23.779L358.711,23.94L359.434,22.807L360.156,22.877L360.879,22.723L361.602,23.433L362.324,22.596L363.047,22.407L363.77,22.811L364.492,22.106L365.215,23.399L365.938,22.637L366.66,22.765L367.383,22.279L368.105,22.221L368.828,22.137L369.551,22.667L370.273,21.722L370.996,21.406L371.719,22.386L372.441,21.28L373.164,22.054L373.887,21.988L374.609,21.126L375.332,21.293L376.055,21.127L376.777,22.623L377.5,22.288L378.223,22.395L378.945,21.677L379.668,21.922L380.391,21.636L381.113,21.453L381.836,21.215L382.559,21.907L383.281,21.12L384.004,21.631L384.727,22.617L385.449,21.182L386.172,23.333L386.895,21.404L387.617,21.9L388.34,21.472L389.063,21.298L389.785,22.963L390.508,20.567L391.23,22.432L391.953,21.649L392.676,21.88L393.398,21.4L394.121,21.473L394.844,21.318L395.566,22.033L396.289,22.589L397.012,21.957L397.734,22.444L398.457,21.988L399.18,22.926L399.902,21.246L400.625,22.823L401.348,22.596L402.07,22.199L402.793,24.284L403.516,25.134L404.238,24.927L404.961,23.029L405.684,24.739L406.406,24.327L407.129,23.723L407.852,24.956L408.574,26.048L409.297,25.668L410.02,27.199L410.742,26.694L411.465,26.983L412.188,27.24L412.91,27.195L413.633,29.389L414.355,27.089L415.078,27.15L415.801,29.018L416.523,28.451L417.246,30.275L417.969,31.936L418.691,30.098L419.414,32.267L420.137,30.936L420.859,31.426L421.582,30.082L422.305,30.609L423.027,32.4L423.75,30.886L424.473,32.188L425.195,32.6L425.918,30.862L426.641,32.135L427.363,30.621L428.086,32.686L428.809,32.007L429.531,29.854L430.254,30.231L430.977,30.036L431.699,29.289L432.422,28.892L433.145,29.089L433.867,28.884L434.59,29.608L435.313,28.63L436.035,27.997L436.758,27.927L437.48,26.775L438.203,25.783L438.926,26.316L439.648,27.167L440.371,25.585L441.094,25.526L441.816,25.344L442.539,25.335L443.262,25.059L443.984,25.054L444.707,24.846L445.43,24.608L446.152,23.407L446.875,23.77L447.598,23.35L448.32,23.516L449.043,23.182L449.766,22.907L450.488,22.216L451.211,22.479L451.934,22.606L452.656,22.32L453.379,22.158L454.102,22.076L454.824,22.33L455.547,22.117L456.27,21.842L456.992,21.651L457.715,21.68L458.438,21.36L459.16,21.308L459.883,21.47L460.605,21.568L461.328,21.113L462.051,21.383L462.773,21.181L463.496,21.283L464.219,21.146L464.941,21.349L465.664,21.165L466.387,21.101L467.109,21.142L467.832,20.927L468.555,21.001L469.277,20.983"/><path fill="none" stroke="rgb(38, 188, 225)" stroke-width="1.5" d="M100,71.182L100.723,71.344L101.445,71.444L102.168,71.57L102.891,71.742L103.613,71.735L104.336,72.065L105.059,72.128L105.781,72.08L106.504,72.486L107.227,72.515L107.949,72.775L108.672,72.896L109.395,72.87L110.117,73.015L110.84,73.234L111.563,73.47L112.285,73.575L113.008,73.831L113.73,74.069L114.453,74.145L115.176,74.213L115.898,74.537L116.621,74.626L117.344,74.651L118.066,74.897L118.789,75.105L119.512,75.456L120.234,75.718L120.957,75.847L121.68,76.118L122.402,76.214L123.125,76.316L123.848,76.6L124.57,76.885L125.293,77.169L126.016,77.345L126.738,77.672L127.461,77.917L128.184,77.981L128.906,78.386L129.629,78.528L130.352,78.815L131.074,79.01L131.797,79.29L132.52,79.642L133.242,79.822L133.965,80.142L134.688,80.444L135.41,80.804L136.133,81.064L136.855,81.339L137.578,81.681L138.301,82.032L139.023,82.289L139.746,82.603L140.469,82.888L141.191,83.361L141.914,83.749L142.637,84.048L143.359,84.4L144.082,84.759L144.805,85.031L145.527,85.592L146.25,85.798L146.973,86.398L147.695,86.689L148.418,87.224L149.141,87.645L149.863,88.061L150.586,88.432L151.309,88.829L152.031,89.462L152.754,89.853L153.477,90.215L154.199,90.828L154.922,91.309L155.645,91.8L156.367,92.366L157.09,92.998L157.813,93.374L158.535,94.025L159.258,94.586L159.98,95.236L160.703,95.67L161.426,96.328L162.148,96.861L162.871,97.451L163.594,98.026L164.316,98.823L165.039,99.396L165.762,100.035L166.484,100.718L167.207,101.416L167.93,102.221L168.652,103.023L169.375,103.465L170.098,104.492L170.82,105.171L171.543,106.054L172.266,106.71L172.988,107.544L173.711,108.449L174.434,109.36L175.156,110.218L175.879,111.084L176.602,111.884L177.324,112.94L178.047,113.864L178.77,114.936L179.492,115.73L180.215,116.73L180.938,117.94L181.66,118.753L182.383,119.852L183.105,121.023L183.828,122.244L184.551,123.286L185.273,124.224L185.996,125.636L186.719,126.82L187.441,127.919L188.164,129.46L188.887,130.659L189.609,131.897L190.332,133.109L191.055,134.669L191.777,136.032L192.5,137.396L193.223,138.99L193.945,140.346L194.668,141.588L195.391,143.384L196.113,144.963L196.836,146.536L197.559,148.154L198.281,149.56L199.004,151.228L199.727,152.919L200.449,154.622L201.172,156.36L201.895,158.043L202.617,159.932L203.34,161.807L204.063,163.534L204.785,165.352L205.508,167.262L206.23,169.237L206.953,170.99L207.676,172.88L208.398,174.482L209.121,176.661L209.844,178.35L210.566,180.178L211.289,182.493L212.012,184.256L212.734,186.109L213.457,188.131L214.18,189.88L214.902,191.64L215.625,193.757L216.348,195.494L217.07,197.206L217.793,199.154L218.516,200.906L219.238,202.881L219.961,204.452L220.684,205.967L221.406,207.693L222.129,209.405L222.852,210.84L223.574,212.473L224.297,213.986L225.02,215.373L225.742,216.407L226.465,217.692L227.188,219.112L227.91,220.212L228.633,221.269L229.355,222.243L230.078,222.928L230.801,223.872L231.523,224.472L232.246,225.178L232.969,225.404L233.691,226.209L234.414,226.243L235.137,226.616L235.859,226.862L236.582,227.039L237.305,226.998L238.027,226.768L238.75,226.448L239.473,226.203L240.195,225.958L240.918,225.305L241.641,224.785L242.363,224.339L243.086,223.494L243.809,222.331L244.531,221.478L245.254,220.369L245.977,219.319L246.699,218.191L247.422,216.939L248.145,215.348L248.867,213.958L249.59,212.19L250.313,210.804L251.035,209.349L251.758,207.061L252.48,205.306L253.203,203.703L253.926,201.581L254.648,199.939L255.371,197.899L256.094,195.665L256.816,193.782L257.539,191.442L258.262,189.471L258.984,187.058L259.707,184.979L260.43,182.556L261.152,180.306L261.875,178.056L262.598,175.556L263.32,173.169L264.043,170.977L264.766,168.235L265.488,166.123L266.211,163.307L266.934,160.908L267.656,158.467L268.379,155.932L269.102,153.524L269.824,150.881L270.547,148.241L271.27,145.516L271.992,142.856L272.715,140.334L273.438,137.609L274.16,134.868L274.883,132.361L275.605,129.756L276.328,126.913L277.051,124.284L277.773,121.554L278.496,119.079L279.219,116.539L279.941,113.626L280.664,111.173L281.387,108.615L282.109,105.619L282.832,103.001L283.555,100.194L284.277,97.423L285,94.858L285.723,92.273L286.445,89.534L287.168,87.106L287.891,84.36L288.613,81.987L289.336,79.452L290.059,77.247L290.781,74.64L291.504,72.553L292.227,70.097L292.949,67.859L293.672,65.721L294.395,63.437L295.117,61.278L295.84,59.868L296.563,61.463L297.285,63.356L298.008,65.03L298.73,67.186L299.453,68.938L300.176,70.779L300.898,69.676L301.621,68.382L302.344,67.134L303.066,65.88L303.789,64.896L304.512,63.29L305.234,62.313L305.957,61.049L306.68,60.171L307.402,58.96L308.125,57.722L308.848,56.67L309.57,55.718L310.293,54.601L311.016,53.472L311.738,52.629L312.461,51.714L313.184,50.818L313.906,49.851L314.629,48.879L315.352,48.185L316.074,47.16L316.797,46.342L317.52,45.513L318.242,44.426L318.965,43.889L319.688,42.918L320.41,42.162L321.133,41.327L321.855,40.756L322.578,40.376L323.301,39.612L324.023,39.034L324.746,38.226L325.469,37.758L326.191,37.135L326.914,36.331L327.637,35.817L328.359,35.4L329.082,34.971L329.805,34.333L330.527,33.878L331.25,33.542L331.973,33.218L332.695,32.488L333.418,32.255L334.141,31.691L334.863,31.577L335.586,31.064L336.309,30.553L337.031,30.148L337.754,29.847L338.477,29.436L339.199,29.192L339.922,28.982L340.645,28.751L341.367,28.32L342.09,28.235L342.813,27.825L343.535,27.463L344.258,26.866L344.98,26.975L345.703,27.262L346.426,26.609L347.148,26.497L347.871,26.167L348.594,25.885L349.316,26.524L350.039,25.503L350.762,25.845L351.484,25.345L352.207,24.58L352.93,25.38L353.652,24.383L354.375,25.169L355.098,24.258L355.82,24.079L356.543,24.562L357.266,24.086L357.988,24.11L358.711,23.549L359.434,23.645L360.156,23.924L360.879,23.45L361.602,23.428L362.324,23.633L363.047,23.326L363.77,22.717L364.492,22.982L365.215,22.864L365.938,22.431L366.66,22.736L367.383,22.878L368.105,22.268L368.828,22.746L369.551,22.081L370.273,22.927L370.996,21.824L371.719,22.216L372.441,22.583L373.164,21.969L373.887,22.297L374.609,20.937L375.332,22.06L376.055,21.593L376.777,22.492L377.5,21.475L378.223,22.047L378.945,22.114L379.668,23.369L380.391,21.941L381.113,22.038L381.836,21.935L382.559,21.982L383.281,21.565L384.004,21.776L384.727,22.334L385.449,20.969L386.172,22.032L386.895,21.617L387.617,20.84L388.34,21.792L389.063,22.179L389.785,22.041L390.508,20L391.23,22.174L391.953,22.565L392.676,21.579L393.398,21.549L394.121,21.813L394.844,22.292L395.566,22.327L396.289,21.045L397.012,21.998L397.734,22.277L398.457,21.698L399.18,20.81L399.902,21.676L400.625,21.773L401.348,21.403L402.07,23.171L402.793,22.241L403.516,23.878L404.238,23.954L404.961,25.211L405.684,23.429L406.406,22.132L407.129,22.16L407.852,24.61L408.574,23.777L409.297,21.941L410.02,24.366L410.742,22.235L411.465,24.737L412.188,24.148L412.91,23.314L413.633,24.032L414.355,24.539L415.078,27.254L415.801,25.759L416.523,25.794L417.246,26.408L417.969,25.058L418.691,27.691L419.414,26.665L420.137,25.185L420.859,28.038L421.582,26.15L422.305,26.679L423.027,28.562L423.75,26.771L424.473,27.338L425.195,27.089L425.918,27.982L426.641,27.985L427.363,27.052L428.086,27.579L428.809,26.389L429.531,28.492L430.254,26.975L430.977,26.91L431.699,26.434L432.422,26.269L433.145,25.906L433.867,24.879L434.59,25.564L435.313,25.878L436.035,26.906L436.758,25.283L437.48,25.201L438.203,25.361L438.926,25.103L439.648,24.82L440.371,24.826L441.094,24.501L441.816,23.964L442.539,23.724L443.262,23.263L443.984,23.419L444.707,24.026L445.43,22.405L446.152,22.627L446.875,23.203L447.598,22.854L448.32,22.354L449.043,22.941L449.766,22.285L450.488,22.291L451.211,22.086L451.934,21.89L452.656,21.477L453.379,22.076L454.102,21.749L454.824,21.482L455.547,21.373L456.27,21.5L456.992,21.58L457.715,21.245L458.438,21.498L459.16,21.284L459.883,21.368L460.605,21.21L461.328,21.043L462.051,21.193L462.773,20.935L463.496,21.174L464.219,21.192L464.941,21.219L465.664,20.912L466.387,20.872L467.109,20.873L467.832,20.815L468.555,20.82L469.277,20.786"/><path fill="none" stroke="rgb(63, 243, 147)" stroke-width="1.5" d="M100,69.524L100.723,69.453L101.445,69.672L102.168,69.83L102.891,69.9L103.613,69.973L104.336,70.174L105.059,70.367L105.781,70.383L106.504,70.493L107.227,70.726L107.949,70.815L108.672,70.892L109.395,71.018L110.117,71.359L110.84,71.303L111.563,71.505L112.285,71.603L113.008,71.783L113.73,71.955L114.453,71.979L115.176,72.257L115.898,72.266L116.621,72.464L117.344,72.753L118.066,72.921L118.789,72.995L119.512,73.258L120.234,73.404L120.957,73.605L121.68,73.805L122.402,73.882L123.125,74.048L123.848,74.342L124.57,74.372L125.293,74.714L126.016,74.878L126.738,75.195L127.461,75.35L128.184,75.502L128.906,75.735L129.629,75.93L130.352,76.265L131.074,76.505L131.797,76.815L132.52,76.852L133.242,77.325L133.965,77.449L134.688,77.679L135.41,77.884L136.133,78.189L136.855,78.638L137.578,78.721L138.301,78.993L139.023,79.369L139.746,79.701L140.469,79.836L141.191,80.104L141.914,80.422L142.637,80.913L143.359,81.15L144.082,81.484L144.805,81.847L145.527,82.166L146.25,82.505L146.973,82.767L147.695,83.205L148.418,83.457L149.141,83.938L149.863,84.229L150.586,84.673L151.309,85.068L152.031,85.48L152.754,85.828L153.477,86.225L154.199,86.694L154.922,87.153L155.645,87.566L156.367,87.891L157.09,88.468L157.813,88.864L158.535,89.38L159.258,89.959L159.98,90.38L160.703,90.965L161.426,91.393L162.148,91.957L162.871,92.497L163.594,92.868L164.316,93.389L165.039,94.077L165.762,94.736L166.484,95.073L167.207,95.814L167.93,96.357L168.652,96.968L169.375,97.574L170.098,98.283L170.82,98.916L171.543,99.412L172.266,100.216L172.988,100.784L173.711,101.489L174.434,102.312L175.156,102.927L175.879,103.498L176.602,104.296L177.324,105.107L178.047,105.781L178.77,106.756L179.492,107.407L180.215,108.201L180.938,109.055L181.66,109.88L182.383,110.684L183.105,111.527L183.828,112.434L184.551,113.229L185.273,114.312L185.996,115.081L186.719,116.004L187.441,116.878L188.164,118.021L188.887,118.786L189.609,119.909L190.332,120.786L191.055,121.83L191.777,122.873L192.5,123.94L193.223,125.027L193.945,125.887L194.668,126.913L195.391,127.879L196.113,129.109L196.836,130.071L197.559,131.267L198.281,132.406L199.004,133.618L199.727,134.527L200.449,135.578L201.172,136.846L201.895,137.892L202.617,138.977L203.34,140.073L204.063,141.158L204.785,142.522L205.508,143.531L206.23,144.538L206.953,145.766L207.676,146.693L208.398,147.769L209.121,148.939L209.844,149.938L210.566,151.008L211.289,152.128L212.012,152.975L212.734,154.061L213.457,155.203L214.18,156.206L214.902,156.867L215.625,157.998L216.348,158.577L217.07,159.495L217.793,160.447L218.516,161.045L219.238,161.819L219.961,162.4L220.684,163.252L221.406,163.697L222.129,164.343L222.852,164.809L223.574,165.219L224.297,165.687L225.02,166.253L225.742,166.396L226.465,166.676L227.188,166.773L227.91,167.192L228.633,167.136L229.355,167.3L230.078,167.163L230.801,166.977L231.523,166.929L232.246,166.597L232.969,166.484L233.691,166.176L234.414,165.626L235.137,165.125L235.859,164.649L236.582,163.986L237.305,163.177L238.027,162.473L238.75,161.908L239.473,160.888L240.195,159.865L240.918,158.997L241.641,158.126L242.363,156.678L243.086,155.752L243.809,154.307L244.531,153.147L245.254,151.987L245.977,150.725L246.699,149.503L247.422,147.92L248.145,146.717L248.867,145.185L249.59,143.59L250.313,142.301L251.035,140.509L251.758,139.087L252.48,137.559L253.203,136.009L253.926,134.191L254.648,132.73L255.371,131.207L256.094,129.532L256.816,127.886L257.539,126.039L258.262,124.653L258.984,123.023L259.707,121.062L260.43,119.756L261.152,118.038L261.875,116.39L262.598,114.71L263.32,113.019L264.043,111.456L264.766,109.576L265.488,108.055L266.211,106.483L266.934,104.936L267.656,103.349L268.379,101.872L269.102,100.432L269.824,98.782L270.547,97.386L271.27,95.95L271.992,94.477L272.715,92.978L273.438,91.538L274.16,90.09L274.883,88.732L275.605,87.446L276.328,86.019L277.051,84.445L277.773,83.165L278.496,81.83L279.219,80.308L279.941,78.949L280.664,77.679L281.387,76.164L282.109,75.048L282.832,73.494L283.555,71.988L284.277,70.522L285,69.179L285.723,67.619L286.445,66.174L287.168,64.503L287.891,63.222L288.613,61.893L289.336,60.565L290.059,59.103L290.781,59.108L291.504,61.514L292.227,63.856L292.949,66.409L293.672,68.775L294.395,71.376L295.117,73.264L295.84,72.509L296.563,71.489L297.285,70.682L298.008,69.918L298.73,69.286L299.453,68.189L300.176,67.483L300.898,66.729L301.621,65.683L302.344,64.931L303.066,63.971L303.789,63.114L304.512,62.334L305.234,61.494L305.957,60.648L306.68,59.727L307.402,58.894L308.125,58.042L308.848,57.034L309.57,56.517L310.293,55.556L311.016,54.618L311.738,53.907L312.461,52.908L313.184,52.162L313.906,51.244L314.629,50.722L315.352,49.76L316.074,49.077L316.797,48.263L317.52,47.606L318.242,46.795L318.965,46.053L319.688,45.716L320.41,44.486L321.133,43.859L321.855,43.394L322.578,42.547L323.301,41.831L324.023,41.301L324.746,40.772L325.469,40.114L326.191,39.549L326.914,38.735L327.637,38.546L328.359,37.822L329.082,37.507L329.805,36.751L330.527,36.165L331.25,36.13L331.973,35.355L332.695,34.991L333.418,34.049L334.141,33.919L334.863,33.538L335.586,33.071L336.309,32.893L337.031,32.265L337.754,31.994L338.477,31.65L339.199,31.255L339.922,30.899L340.645,30.436L341.367,30.103L342.09,30.028L342.813,29.463L343.535,29.509L344.258,29.048L344.98,28.667L345.703,28.491L346.426,28.134L347.148,27.97L347.871,27.743L348.594,27.272L349.316,27.289L350.039,26.864L350.762,26.628L351.484,26.384L352.207,26.16L352.93,25.978L353.652,26.151L354.375,25.432L355.098,25.737L355.82,25.699L356.543,25.916L357.266,25.348L357.988,24.493L358.711,24.728L359.434,24.529L360.156,24.565L360.879,23.636L361.602,24.753L362.324,24.063L363.047,24.147L363.77,23.874L364.492,24.024L365.215,24.148L365.938,23.141L366.66,23.53L367.383,23.763L368.105,23.369L368.828,23.377L369.551,23.306L370.273,22.121L370.996,23.398L371.719,22.599L372.441,22.944L373.164,21.926L373.887,22.517L374.609,23.528L375.332,22.222L376.055,22.173L376.777,22.227L377.5,22.685L378.223,22.711L378.945,21.896L379.668,20.81L380.391,22.131L381.113,22.126L381.836,21.794L382.559,22.458L383.281,22.263L384.004,21.858L384.727,20.853L385.449,22.503L386.172,20.602L386.895,21.58L387.617,21.813L388.34,20.697L389.063,21.856L389.785,21.991L390.508,21.359L391.23,21.536L391.953,21.897L392.676,21.263L393.398,20.789L394.121,21.739L394.844,20.661L395.566,20.899L396.289,21.052L397.012,22.52L397.734,22.335L398.457,21.954L399.18,20.334L399.902,21.352L400.625,21.524L401.348,20.305L402.07,20.629L402.793,21.673L403.516,22.971L404.238,22.007L404.961,22.16L405.684,21.412L406.406,22.396L407.129,21.405L407.852,21.062L408.574,21.695L409.297,20.784L410.02,23.1L410.742,20.518L411.465,22.765L412.188,23.029L412.91,22.523L413.633,22.746L414.355,22.782L415.078,23.619L415.801,20.649L416.523,22.998L417.246,24.03L417.969,21.294L418.691,21.591L419.414,22.44L420.137,22.824L420.859,22.623L421.582,21.047L422.305,25.752L423.027,24.143L423.75,24.478L424.473,21.859L425.195,22.669L425.918,22.523L426.641,21.881L427.363,22.33L428.086,21.902L428.809,22.832L429.531,23.977L430.254,22.833L430.977,22.864L431.699,22.336L432.422,22.381L433.145,21.194L433.867,23.31L434.59,22.306L435.313,21.853L436.035,22.534L436.758,22.16L437.48,23.047L438.203,21.887L438.926,21.572L439.648,22.235L440.371,22.303L441.094,21.639L441.816,20.874L442.539,21.567L443.262,21.699L443.984,22.009L444.707,21.63L445.43,21.606L446.152,22.121L446.875,21.433L447.598,20.971L448.32,20.997L449.043,21.865L449.766,21.342L450.488,21.13L451.211,21.264L451.934,21.095L452.656,21.003L453.379,21.072L454.102,20.83L454.824,20.881L455.547,20.899L456.27,21.102L456.992,21.072L457.715,20.733L458.438,20.654L459.16,20.572L459.883,20.973L460.605,20.78L461.328,20.701L462.051,20.819L462.773,20.852L463.496,20.822L464.219,20.776L464.941,20.759L465.664,20.764L466.387,20.766L467.109,20.67L467.832,20.784L468.555,20.626L469.277,20.598"/><path fill="none" stroke="rgb(149, 251, 81)" stroke-width="1.5" d="M100,66.824L100.723,66.911L101.445,66.855L102.168,67.062L102.891,67.04L103.613,67.26L104.336,67.306L105.059,67.29L105.781,67.484L106.504,67.626L107.227,67.85L107.949,67.864L108.672,68.086L109.395,68.146L110.117,68.306L110.84,68.353L111.563,68.369L112.285,68.466L113.008,68.587L113.73,68.815L114.453,68.891L115.176,69.046L115.898,69.191L116.621,69.26L117.344,69.554L118.066,69.702L118.789,69.71L119.512,69.948L120.234,70.11L120.957,70.262L121.68,70.4L122.402,70.47L123.125,70.746L123.848,70.835L124.57,71.023L125.293,71.126L126.016,71.365L126.738,71.46L127.461,71.706L128.184,71.868L128.906,72.095L129.629,72.187L130.352,72.365L131.074,72.607L131.797,72.867L132.52,73.025L133.242,73.075L133.965,73.292L134.688,73.571L135.41,73.892L136.133,74.006L136.855,74.126L137.578,74.545L138.301,74.671L139.023,74.977L139.746,75.333L140.469,75.345L141.191,75.505L141.914,75.81L142.637,76.213L143.359,76.373L144.082,76.767L144.805,77.026L145.527,77.217L146.25,77.342L146.973,77.786L147.695,78.105L148.418,78.321L149.141,78.757L149.863,78.897L150.586,79.262L151.309,79.703L152.031,79.827L152.754,80.191L153.477,80.57L154.199,80.895L154.922,81.262L155.645,81.401L156.367,81.995L157.09,82.28L157.813,82.647L158.535,82.939L159.258,83.272L159.98,83.472L160.703,84.114L161.426,84.263L162.148,84.893L162.871,85.105L163.594,85.711L164.316,86.137L165.039,86.494L165.762,87.093L166.484,87.422L167.207,87.873L167.93,88.309L168.652,88.646L169.375,89.122L170.098,89.608L170.82,90.048L171.543,90.557L172.266,91.185L172.988,91.576L173.711,92.113L174.434,92.579L175.156,92.971L175.879,93.56L176.602,94.039L177.324,94.684L178.047,95.178L178.77,95.875L179.492,96.204L180.215,96.8L180.938,97.388L181.66,97.979L182.383,98.628L183.105,98.806L183.828,99.614L184.551,100.279L185.273,100.834L185.996,101.443L186.719,101.941L187.441,102.622L188.164,103.092L188.887,103.703L189.609,104.376L190.332,104.938L191.055,105.53L191.777,106.124L192.5,106.807L193.223,107.267L193.945,107.973L194.668,108.483L195.391,109.176L196.113,109.604L196.836,110.36L197.559,110.906L198.281,111.43L199.004,112.013L199.727,112.618L200.449,113.244L201.172,113.495L201.895,114.14L202.617,114.589L203.34,115.147L204.063,115.723L204.785,116.113L205.508,116.616L206.23,117.17L206.953,117.439L207.676,118.059L208.398,118.346L209.121,118.754L209.844,118.951L210.566,119.458L211.289,119.786L212.012,119.968L212.734,120.209L213.457,120.505L214.18,120.752L214.902,120.893L215.625,120.803L216.348,120.865L217.07,121.142L217.793,121.074L218.516,121.057L219.238,121.288L219.961,120.938L220.684,120.881L221.406,120.787L222.129,120.69L222.852,120.582L223.574,120.172L224.297,119.992L225.02,119.76L225.742,119.183L226.465,118.867L227.188,118.485L227.91,117.861L228.633,117.431L229.355,116.925L230.078,116.358L230.801,115.676L231.523,115.016L232.246,114.514L232.969,113.589L233.691,112.846L234.414,112.031L235.137,111.467L235.859,110.285L236.582,109.466L237.305,108.614L238.027,107.595L238.75,106.581L239.473,105.589L240.195,104.713L240.918,103.804L241.641,102.609L242.363,101.622L243.086,100.448L243.809,99.329L244.531,98.124L245.254,97.121L245.977,96.013L246.699,94.812L247.422,93.795L248.145,92.497L248.867,91.481L249.59,90.233L250.313,88.992L251.035,87.743L251.758,86.549L252.48,85.323L253.203,84.066L253.926,82.881L254.648,81.617L255.371,80.69L256.094,79.4L256.816,78.164L257.539,76.9L258.262,75.893L258.984,74.8L259.707,73.672L260.43,72.685L261.152,71.772L261.875,70.625L262.598,69.532L263.32,68.716L264.043,67.905L264.766,67.022L265.488,66.006L266.211,65.216L266.934,64.343L267.656,63.522L268.379,62.856L269.102,62.01L269.824,61.254L270.547,60.547L271.27,59.89L271.992,59.125L272.715,58.384L273.438,57.998L274.16,57.251L274.883,56.773L275.605,56.026L276.328,55.332L277.051,54.775L277.773,54.248L278.496,53.668L279.219,53.12L279.941,52.465L280.664,51.848L281.387,51.22L282.109,50.483L282.832,50.807L283.555,53.967L284.277,57.27L285,60.203L285.723,63.376L286.445,66.448L287.168,69.639L287.891,69.335L288.613,69.216L289.336,69.181L290.059,68.91L290.781,68.569L291.504,68.217L292.227,68.129L292.949,67.722L293.672,67.377L294.395,67.137L295.117,66.625L295.84,66.348L296.563,65.803L297.285,65.517L298.008,64.942L298.73,64.428L299.453,64.088L300.176,63.409L300.898,63.042L301.621,62.515L302.344,61.755L303.066,61.177L303.789,60.596L304.512,60.102L305.234,59.497L305.957,58.804L306.68,58.066L307.402,57.524L308.125,56.89L308.848,56.079L309.57,55.45L310.293,54.688L311.016,54.112L311.738,53.412L312.461,53.017L313.184,52.035L313.906,51.493L314.629,50.819L315.352,50.186L316.074,49.549L316.797,48.846L317.52,48.116L318.242,47.376L318.965,46.726L319.688,46.146L320.41,45.543L321.133,44.915L321.855,44.221L322.578,43.747L323.301,42.971L324.023,42.402L324.746,41.818L325.469,41.264L326.191,40.694L326.914,40.092L327.637,39.517L328.359,39.127L329.082,38.52L329.805,38.098L330.527,37.497L331.25,37.004L331.973,36.401L332.695,35.966L333.418,35.545L334.141,35.147L334.863,34.668L335.586,34.298L336.309,33.791L337.031,33.323L337.754,32.985L338.477,32.61L339.199,32.092L339.922,31.881L340.645,31.438L341.367,31.153L342.09,30.805L342.813,30.533L343.535,30.191L344.258,29.881L344.98,29.621L345.703,29.302L346.426,28.974L347.148,28.692L347.871,28.456L348.594,28.208L349.316,27.886L350.039,27.691L350.762,27.425L351.484,27.241L352.207,27.07L352.93,26.778L353.652,26.616L354.375,26.322L355.098,26.226L355.82,26.093L356.543,25.844L357.266,25.672L357.988,25.438L358.711,25.331L359.434,25.236L360.156,24.991L360.879,24.837L361.602,24.721L362.324,24.582L363.047,24.419L363.77,24.421L364.492,24.212L365.215,24.001L365.938,23.987L366.66,23.818L367.383,23.754L368.105,23.625L368.828,23.459L369.551,23.331L370.273,23.282L370.996,23.176L371.719,23.122L372.441,23.032L373.164,22.95L373.887,22.887L374.609,22.827L375.332,22.681L376.055,22.633L376.777,22.578L377.5,22.563L378.223,22.445L378.945,22.452L379.668,22.298L380.391,22.283L381.113,22.19L381.836,22.137L382.559,22.131L383.281,21.98L384.004,21.909L384.727,21.978L385.449,21.852L386.172,21.824L386.895,21.707L387.617,21.823L388.34,21.684L389.063,21.598L389.785,21.628L390.508,21.649L391.23,21.586L391.953,21.462L392.676,21.485L393.398,21.471L394.121,21.416L394.844,21.421L395.566,21.388L396.289,21.297L397.012,21.308L397.734,21.236L398.457,21.312L399.18,21.227L399.902,21.154L400.625,21.195L401.348,21.194L402.07,21.173L402.793,21.095L403.516,21.1L404.238,21.108L404.961,21.014L405.684,21.026L406.406,21.003L407.129,20.99L407.852,20.998L408.574,20.969L409.297,21.027L410.02,20.982L410.742,20.892L411.465,20.892L412.188,20.895L412.91,20.898L413.633,20.841L414.355,20.835L415.078,20.833L415.801,20.853L416.523,20.851L417.246,20.797L417.969,20.823L418.691,20.803L419.414,20.794L420.137,20.813L420.859,20.797L421.582,20.792L422.305,20.741L423.027,20.705L423.75,20.725L424.473,20.756L425.195,20.715L425.918,20.72L426.641,20.726L427.363,20.746L428.086,20.684L428.809,20.668L429.531,20.682L430.254,20.704L430.977,20.721L431.699,20.675L432.422,20.692L433.145,20.696L433.867,20.68L434.59,20.698L435.313,20.652L436.035,20.665L436.758,20.637L437.48,20.633L438.203,20.646L438.926,20.647L439.648,20.638L440.371,20.638L441.094,20.645L441.816,20.621L442.539,20.618L443.262,20.649L443.984,20.653L444.707,20.609L445.43,20.613L446.152,20.639L446.875,20.621L447.598,20.608L448.32,20.62L449.043,20.63L449.766,20.623L450.488,20.609L451.211,20.595L451.934,20.615L452.656,20.598L453.379,20.606L454.102,20.607L454.824,20.583L455.547,20.596L456.27,20.582L456.992,20.6L457.715,20.61L458.438,20.594L459.16,20.589L459.883,20.595L460.605,20.582L461.328,20.579L462.051,20.585L462.773,20.592L463.496,20.59L464.219,20.585L464.941,20.579L465.664,20.581L466.387,20.583L467.109,20.575L467.832,20.568L468.555,20.576L469.277,20.577"/><path fill="none" stroke="rgb(236, 209, 46)" stroke-width="1.5" d="M100,62.234L100.723,62.435L101.445,62.447L102.168,62.543L102.891,62.657L103.613,62.673L104.336,62.886L105.059,62.818L105.781,62.902L106.504,63.033L107.227,63.017L107.949,63.212L108.672,63.275L109.395,63.307L110.117,63.404L110.84,63.5L111.563,63.588L112.285,63.62L113.008,63.738L113.73,63.846L114.453,63.915L115.176,64.06L115.898,64.191L116.621,64.115L117.344,64.275L118.066,64.406L118.789,64.454L119.512,64.637L120.234,64.608L120.957,64.923L121.68,65.069L122.402,65.206L123.125,65.271L123.848,65.301L124.57,65.543L125.293,65.601L126.016,65.69L126.738,65.7L127.461,65.904L128.184,66.152L128.906,66.252L129.629,66.446L130.352,66.364L131.074,66.578L131.797,66.705L132.52,66.819L133.242,66.93L133.965,67.032L134.688,67.446L135.41,67.535L136.133,67.611L136.855,67.884L137.578,67.843L138.301,68.124L139.023,68.208L139.746,68.383L140.469,68.553L141.191,68.713L141.914,68.931L142.637,69.16L143.359,69.255L144.082,69.461L144.805,69.728L145.527,69.769L146.25,69.956L146.973,70.056L147.695,70.341L148.418,70.533L149.141,70.748L149.863,70.971L150.586,71.129L151.309,71.355L152.031,71.547L152.754,71.75L153.477,72.033L154.199,72.258L154.922,72.438L155.645,72.69L156.367,72.86L157.09,73.095L157.813,73.135L158.535,73.522L159.258,73.882L159.98,74.001L160.703,74.177L161.426,74.49L162.148,74.808L162.871,74.921L163.594,75.269L164.316,75.468L165.039,75.806L165.762,75.911L166.484,76.128L167.207,76.376L167.93,76.611L168.652,76.985L169.375,77.189L170.098,77.532L170.82,77.73L171.543,78.204L172.266,78.306L172.988,78.514L173.711,78.789L174.434,78.997L175.156,79.182L175.879,79.491L176.602,79.724L177.324,80.02L178.047,80.252L178.77,80.526L179.492,80.752L180.215,81.106L180.938,81.404L181.66,81.556L182.383,81.795L183.105,82.003L183.828,82.332L184.551,82.388L185.273,82.59L185.996,82.867L186.719,83.137L187.441,83.353L188.164,83.491L188.887,83.657L189.609,83.792L190.332,84.022L191.055,84.195L191.777,84.346L192.5,84.452L193.223,84.686L193.945,84.68L194.668,84.802L195.391,84.83L196.113,84.959L196.836,85.044L197.559,85.074L198.281,85.233L199.004,85.078L199.727,85.083L200.449,85.067L201.172,84.986L201.895,84.83L202.617,84.814L203.34,84.624L204.063,84.576L204.785,84.546L205.508,84.458L206.23,84.21L206.953,83.898L207.676,83.839L208.398,83.618L209.121,83.318L209.844,83.045L210.566,82.925L211.289,82.419L212.012,82.253L212.734,81.892L213.457,81.581L214.18,81.282L214.902,80.99L215.625,80.6L216.348,80.233L217.07,79.772L217.793,79.491L218.516,79.099L219.238,78.465L219.961,78.211L220.684,77.848L221.406,77.335L222.129,76.821L222.852,76.488L223.574,76.134L224.297,75.596L225.02,75.264L225.742,74.671L226.465,74.206L227.188,73.807L227.91,73.18L228.633,72.758L229.355,72.151L230.078,71.746L230.801,71.187L231.523,70.518L232.246,70.202L232.969,69.524L233.691,68.737L234.414,67.981L235.137,67.555L235.859,66.946L236.582,66.251L237.305,65.561L238.027,64.889L238.75,64.179L239.473,63.485L240.195,62.857L240.918,62.049L241.641,61.217L242.363,60.567L243.086,59.817L243.809,59.082L244.531,58.36L245.254,57.565L245.977,56.818L246.699,56.151L247.422,55.407L248.145,54.568L248.867,54.042L249.59,53.418L250.313,52.678L251.035,51.905L251.758,51.278L252.48,50.6L253.203,49.977L253.926,49.314L254.648,48.76L255.371,48.133L256.094,47.395L256.816,46.925L257.539,46.177L258.262,45.868L258.984,45.147L259.707,44.73L260.43,44.29L261.152,43.767L261.875,43.099L262.598,42.617L263.32,42.213L264.043,41.787L264.766,41.34L265.488,41.081L266.211,40.641L266.934,40.3L267.656,39.852L268.379,39.563L269.102,39.223L269.824,38.761L270.547,38.558L271.27,38.212L271.992,41.017L272.715,44.592L273.438,48.162L274.16,51.521L274.883,55.148L275.605,58.887L276.328,60.446L277.051,60.777L277.773,61.157L278.496,61.302L279.219,61.698L279.941,62.02L280.664,62.17L281.387,62.292L282.109,62.61L282.832,62.778L283.555,63.035L284.277,62.947L285,63.179L285.723,63.354L286.445,63.225L287.168,63.389L287.891,63.476L288.613,63.399L289.336,63.326L290.059,63.555L290.781,63.342L291.504,63.273L292.227,63.06L292.949,63.012L293.672,62.918L294.395,62.779L295.117,62.572L295.84,62.344L296.563,62.001L297.285,61.877L298.008,61.517L298.73,61.161L299.453,60.881L300.176,60.527L300.898,60.317L301.621,59.802L302.344,59.476L303.066,59.145L303.789,58.666L304.512,58.256L305.234,57.553L305.957,57.19L306.68,56.716L307.402,56.119L308.125,55.702L308.848,55.146L309.57,54.657L310.293,54.033L311.016,53.549L311.738,52.897L312.461,52.192L313.184,51.66L313.906,51.061L314.629,50.571L315.352,50.015L316.074,49.284L316.797,48.712L317.52,48.099L318.242,47.345L318.965,46.866L319.688,46.215L320.41,45.53L321.133,45.17L321.855,44.519L322.578,43.956L323.301,43.231L324.023,42.764L324.746,42.235L325.469,41.528L326.191,41.041L326.914,40.47L327.637,39.92L328.359,39.301L329.082,38.888L329.805,38.224L330.527,37.754L331.25,37.385L331.973,36.841L332.695,36.337L333.418,35.787L334.141,35.391L334.863,34.909L335.586,34.497L336.309,34.104L337.031,33.625L337.754,33.247L338.477,32.896L339.199,32.408L339.922,32.138L340.645,31.745L341.367,31.401L342.09,31.013L342.813,30.647L343.535,30.376L344.258,30.03L344.98,29.764L345.703,29.386L346.426,29.152L347.148,28.821L347.871,28.561L348.594,28.331L349.316,27.957L350.039,27.766L350.762,27.626L351.484,27.286L352.207,27.093L352.93,26.792L353.652,26.68L354.375,26.395L355.098,26.249L355.82,26.053L356.543,25.807L357.266,25.655L357.988,25.468L358.711,25.278L359.434,25.14L360.156,24.974L360.879,24.809L361.602,24.722L362.324,24.519L363.047,24.363L363.77,24.263L364.492,24.089L365.215,24.032L365.938,23.854L366.66,23.739L367.383,23.638L368.105,23.521L368.828,23.457L369.551,23.326L370.273,23.25L370.996,23.16L371.719,23.058L372.441,22.978L373.164,22.901L373.887,22.811L374.609,22.683L375.332,22.639L376.055,22.549L376.777,22.491L377.5,22.406L378.223,22.367L378.945,22.302L379.668,22.247L380.391,22.167L381.113,22.115L381.836,22.05L382.559,22.024L383.281,21.961L384.004,21.888L384.727,21.831L385.449,21.796L386.172,21.761L386.895,21.725L387.617,21.67L388.34,21.639L389.063,21.598L389.785,21.583L390.508,21.547L391.23,21.5L391.953,21.462L392.676,21.434L393.398,21.375L394.121,21.353L394.844,21.365L395.566,21.319L396.289,21.294L397.012,21.258L397.734,21.218L398.457,21.189L399.18,21.175L399.902,21.137L400.625,21.128L401.348,21.098L402.07,21.086L402.793,21.077L403.516,21.054L404.238,21.033L404.961,21.032L405.684,21.011L406.406,20.974L407.129,20.94L407.852,20.945L408.574,20.937L409.297,20.918L410.02,20.913L410.742,20.904L411.465,20.886L412.188,20.876L412.91,20.863L413.633,20.85L414.355,20.852L415.078,20.834L415.801,20.816L416.523,20.802L417.246,20.801L417.969,20.789L418.691,20.791L419.414,20.784L420.137,20.776L420.859,20.763L421.582,20.75L422.305,20.74L423.027,20.737L423.75,20.739L424.473,20.726L425.195,20.72L425.918,20.723L426.641,20.703L427.363,20.705L428.086,20.691L428.809,20.689L429.531,20.687L430.254,20.684L430.977,20.684L431.699,20.676L432.422,20.673L433.145,20.663L433.867,20.657L434.59,20.658L435.313,20.654L436.035,20.658L436.758,20.651L437.48,20.641L438.203,20.638L438.926,20.638L439.648,20.632L440.371,20.635L441.094,20.627L441.816,20.627L442.539,20.628L443.262,20.623L443.984,20.619L444.707,20.615L445.43,20.617L446.152,20.615L446.875,20.612L447.598,20.612L448.32,20.607L449.043,20.605L449.766,20.606L450.488,20.607L451.211,20.601L451.934,20.602L452.656,20.598L453.379,20.592L454.102,20.597L454.824,20.594L455.547,20.59L456.27,20.59L456.992,20.589L457.715,20.588L458.438,20.59L459.16,20.588L459.883,20.591L460.605,20.584L461.328,20.584L462.051,20.583L462.773,20.581L463.496,20.583L464.219,20.581L464.941,20.58L465.664,20.575L466.387,20.579L467.109,20.58L467.832,20.577L468.555,20.577L469.277,20.575"/><path fill="none" stroke="rgb(255, 130, 29)" stroke-width="1.5" d="M100,54.834L100.723,54.895L101.445,55.016L102.168,54.887L102.891,54.921L103.613,54.926L104.336,55.063L105.059,55.091L105.781,55.063L106.504,55.028L107.227,55.126L107.949,55.133L108.672,55.146L109.395,55.302L110.117,55.183L110.84,55.317L111.563,55.245L112.285,55.275L113.008,55.395L113.73,55.361L114.453,55.48L115.176,55.539L115.898,55.495L116.621,55.531L117.344,55.694L118.066,55.581L118.789,55.727L119.512,55.709L120.234,55.703L120.957,55.692L121.68,55.707L122.402,55.884L123.125,55.903L123.848,55.899L124.57,55.973L125.293,56.027L126.016,56.063L126.738,55.987L127.461,56.074L128.184,56.061L128.906,56.187L129.629,56.23L130.352,56.317L131.074,56.339L131.797,56.317L132.52,56.331L133.242,56.411L133.965,56.395L134.688,56.453L135.41,56.424L136.133,56.544L136.855,56.561L137.578,56.458L138.301,56.593L139.023,56.806L139.746,56.659L140.469,56.872L141.191,56.776L141.914,56.854L142.637,56.812L143.359,56.79L144.082,56.894L144.805,57.154L145.527,56.949L146.25,57.081L146.973,57.077L147.695,57.176L148.418,57.118L149.141,56.978L149.863,57.193L150.586,57.262L151.309,57.134L152.031,57.175L152.754,57.235L153.477,57.206L154.199,57.175L154.922,57.134L155.645,57.307L156.367,57.249L157.09,57.268L157.813,57.213L158.535,57.225L159.258,57.266L159.98,57.265L160.703,57.198L161.426,57.273L162.148,57.192L162.871,57.037L163.594,57.037L164.316,57.084L165.039,57.147L165.762,57.061L166.484,57.064L167.207,56.865L167.93,56.959L168.652,56.932L169.375,56.718L170.098,56.721L170.82,56.704L171.543,56.604L172.266,56.539L172.988,56.513L173.711,56.442L174.434,56.364L175.156,56.245L175.879,56.021L176.602,56.001L177.324,55.985L178.047,55.79L178.77,55.719L179.492,55.57L180.215,55.488L180.938,55.335L181.66,55.276L182.383,55.06L183.105,54.856L183.828,54.905L184.551,54.712L185.273,54.532L185.996,54.435L186.719,54.151L187.441,54.128L188.164,53.926L188.887,53.78L189.609,53.747L190.332,53.486L191.055,53.353L191.777,53.115L192.5,52.988L193.223,52.75L193.945,52.581L194.668,52.38L195.391,52.204L196.113,52.07L196.836,51.885L197.559,51.749L198.281,51.394L199.004,51.383L199.727,51.082L200.449,50.895L201.172,50.807L201.895,50.694L202.617,50.378L203.34,50.084L204.063,49.887L204.785,49.783L205.508,49.536L206.23,49.105L206.953,49.164L207.676,48.929L208.398,48.72L209.121,48.406L209.844,48.18L210.566,48.192L211.289,47.796L212.012,47.658L212.734,47.442L213.457,47.183L214.18,47.053L214.902,46.855L215.625,46.664L216.348,46.385L217.07,46.299L217.793,45.988L218.516,45.812L219.238,45.577L219.961,45.417L220.684,45.227L221.406,44.95L222.129,44.832L222.852,44.627L223.574,44.478L224.297,44.246L225.02,44.18L225.742,43.769L226.465,43.588L227.188,43.428L227.91,43.246L228.633,43.05L229.355,42.835L230.078,42.5L230.801,42.185L231.523,41.958L232.246,41.565L232.969,41.258L233.691,40.935L234.414,40.684L235.137,40.464L235.859,40.087L236.582,39.705L237.305,39.483L238.027,39.156L238.75,38.787L239.473,38.509L240.195,38.1L240.918,37.771L241.641,37.498L242.363,37.172L243.086,36.762L243.809,36.35L244.531,36.187L245.254,35.698L245.977,35.445L246.699,35.092L247.422,34.793L248.145,34.417L248.867,33.996L249.59,33.669L250.313,33.301L251.035,33.053L251.758,32.702L252.48,32.287L253.203,32.125L253.926,31.795L254.648,31.47L255.371,31.054L256.094,30.845L256.816,30.779L257.539,34.319L258.262,37.8L258.984,41.369L259.707,44.896L260.43,48.553L261.152,52.026L261.875,52.621L262.598,52.968L263.32,53.279L264.043,53.724L264.766,53.935L265.488,54.308L266.211,54.655L266.934,54.951L267.656,55.34L268.379,55.425L269.102,55.909L269.824,56.206L270.547,56.473L271.27,56.824L271.992,57.272L272.715,57.385L273.438,57.683L274.16,57.917L274.883,58.251L275.605,58.669L276.328,58.892L277.051,59.132L277.773,59.374L278.496,59.699L279.219,60.076L279.941,60.287L280.664,60.478L281.387,60.846L282.109,60.842L282.832,60.989L283.555,61.307L284.277,61.358L285,61.404L285.723,61.616L286.445,61.547L287.168,61.771L287.891,61.917L288.613,62.097L289.336,61.945L290.059,61.994L290.781,61.94L291.504,61.826L292.227,61.672L292.949,61.671L293.672,61.807L294.395,61.537L295.117,61.586L295.84,61.261L296.563,61.23L297.285,60.844L298.008,60.88L298.73,60.537L299.453,60.402L300.176,60.069L300.898,59.631L301.621,59.538L302.344,59.008L303.066,58.674L303.789,58.441L304.512,58.047L305.234,57.521L305.957,57.163L306.68,56.653L307.402,56.309L308.125,55.879L308.848,55.37L309.57,55.116L310.293,54.353L311.016,54.096L311.738,53.265L312.461,52.902L313.184,52.149L313.906,51.686L314.629,50.987L315.352,50.517L316.074,49.915L316.797,49.504L317.52,48.91L318.242,48.241L318.965,47.639L319.688,47.1L320.41,46.417L321.133,45.901L321.855,45.246L322.578,44.875L323.301,44.18L324.023,43.581L324.746,43.084L325.469,42.417L326.191,41.882L326.914,41.304L327.637,40.747L328.359,40.268L329.082,39.685L329.805,39.202L330.527,38.734L331.25,38.28L331.973,37.709L332.695,37.133L333.418,36.695L334.141,36.208L334.863,35.77L335.586,35.32L336.309,34.885L337.031,34.426L337.754,34.071L338.477,33.535L339.199,33.244L339.922,32.738L340.645,32.408L341.367,32.04L342.09,31.684L342.813,31.387L343.535,30.96L344.258,30.641L344.98,30.291L345.703,30.021L346.426,29.679L347.148,29.399L347.871,29.096L348.594,28.71L349.316,28.518L350.039,28.226L350.762,28.015L351.484,27.762L352.207,27.531L352.93,27.264L353.652,27.012L354.375,26.837L355.098,26.592L355.82,26.401L356.543,26.173L357.266,26.008L357.988,25.791L358.711,25.657L359.434,25.482L360.156,25.287L360.879,25.141L361.602,24.963L362.324,24.819L363.047,24.67L363.77,24.506L364.492,24.411L365.215,24.236L365.938,24.098L366.66,23.977L367.383,23.863L368.105,23.744L368.828,23.619L369.551,23.511L370.273,23.419L370.996,23.34L371.719,23.261L372.441,23.15L373.164,23.052L373.887,22.968L374.609,22.876L375.332,22.8L376.055,22.695L376.777,22.618L377.5,22.539L378.223,22.501L378.945,22.454L379.668,22.369L380.391,22.295L381.113,22.225L381.836,22.145L382.559,22.131L383.281,22.078L384.004,21.983L384.727,21.961L385.449,21.908L386.172,21.854L386.895,21.792L387.617,21.752L388.34,21.717L389.063,21.675L389.785,21.63L390.508,21.597L391.23,21.557L391.953,21.526L392.676,21.487L393.398,21.456L394.121,21.404L394.844,21.382L395.566,21.348L396.289,21.313L397.012,21.3L397.734,21.268L398.457,21.242L399.18,21.207L399.902,21.193L400.625,21.18L401.348,21.141L402.07,21.122L402.793,21.111L403.516,21.091L404.238,21.067L404.961,21.033L405.684,21.026L406.406,21.012L407.129,20.995L407.852,21.001L408.574,20.961L409.297,20.934L410.02,20.941L410.742,20.92L411.465,20.894L412.188,20.887L412.91,20.872L413.633,20.877L414.355,20.852L415.078,20.85L415.801,20.834L416.523,20.814L417.246,20.819L417.969,20.82L418.691,20.8L419.414,20.78L420.137,20.776L420.859,20.774L421.582,20.77L422.305,20.76L423.027,20.756L423.75,20.75L424.473,20.741L425.195,20.725L425.918,20.732L426.641,20.718L427.363,20.708L428.086,20.709L428.809,20.713L429.531,20.692L430.254,20.693L430.977,20.687L431.699,20.683L432.422,20.675L433.145,20.672L433.867,20.667L434.59,20.662L435.313,20.666L436.035,20.655L436.758,20.651L437.48,20.654L438.203,20.646L438.926,20.649L439.648,20.643L440.371,20.638L441.094,20.634L441.816,20.632L442.539,20.634L443.262,20.624L443.984,20.625L444.707,20.623L445.43,20.626L446.152,20.618L446.875,20.615L447.598,20.619L448.32,20.618L449.043,20.608L449.766,20.607L450.488,20.608L451.211,20.605L451.934,20.598L452.656,20.602L453.379,20.595L454.102,20.6L454.824,20.6L455.547,20.594L456.27,20.596L456.992,20.595L457.715,20.592L458.438,20.592L459.16,20.589L459.883,20.59L460.605,20.589L461.328,20.588L462.051,20.587L462.773,20.585L463.496,20.582L464.219,20.58L464.941,20.585L465.664,20.582L466.387,20.581L467.109,20.581L467.832,20.577L468.555,20.578L469.277,20.575"/><path fill="none" stroke="rgb(203, 47, 13)" stroke-width="1.5" d="M100,47.327L100.723,47.264L101.445,47.218L102.168,47.158L102.891,47.24L103.613,47.125L104.336,47.037L105.059,47.057L105.781,46.993L106.504,47.019L107.227,46.922L107.949,46.99L108.672,46.904L109.395,46.969L110.117,46.918L110.84,46.939L111.563,46.904L112.285,46.902L113.008,46.799L113.73,46.871L114.453,46.724L115.176,46.556L115.898,46.732L116.621,46.629L117.344,46.511L118.066,46.525L118.789,46.549L119.512,46.569L120.234,46.518L120.957,46.415L121.68,46.42L122.402,46.366L123.125,46.335L123.848,46.225L124.57,46.185L125.293,46.216L126.016,46.154L126.738,46.077L127.461,46.054L128.184,46.042L128.906,45.926L129.629,45.716L130.352,45.917L131.074,45.792L131.797,45.795L132.52,45.788L133.242,45.625L133.965,45.648L134.688,45.488L135.41,45.508L136.133,45.289L136.855,45.271L137.578,45.292L138.301,45.15L139.023,45.212L139.746,45.053L140.469,45.072L141.191,44.921L141.914,44.754L142.637,44.759L143.359,44.739L144.082,44.687L144.805,44.523L145.527,44.542L146.25,44.45L146.973,44.39L147.695,44.3L148.418,44.207L149.141,44.179L149.863,44.122L150.586,44.035L151.309,43.978L152.031,43.785L152.754,43.642L153.477,43.659L154.199,43.529L154.922,43.415L155.645,43.361L156.367,43.191L157.09,43.138L157.813,42.97L158.535,42.865L159.258,42.807L159.98,42.646L160.703,42.553L161.426,42.543L162.148,42.407L162.871,42.306L163.594,42.195L164.316,42.126L165.039,42.11L165.762,41.903L166.484,41.815L167.207,41.693L167.93,41.509L168.652,41.425L169.375,41.262L170.098,41.178L170.82,41.174L171.543,40.992L172.266,40.985L172.988,40.711L173.711,40.626L174.434,40.488L175.156,40.431L175.879,40.185L176.602,40.195L177.324,40.075L178.047,39.876L178.77,39.776L179.492,39.742L180.215,39.575L180.938,39.495L181.66,39.215L182.383,39.125L183.105,39.014L183.828,38.748L184.551,38.888L185.273,38.618L185.996,38.543L186.719,38.35L187.441,38.399L188.164,38.232L188.887,37.957L189.609,37.916L190.332,37.831L191.055,37.732L191.777,37.422L192.5,37.409L193.223,37.276L193.945,37.253L194.668,37.048L195.391,36.957L196.113,36.715L196.836,36.658L197.559,36.488L198.281,36.365L199.004,36.178L199.727,36.048L200.449,35.961L201.172,35.845L201.895,35.767L202.617,35.671L203.34,35.446L204.063,35.367L204.785,35.26L205.508,35.191L206.23,35.039L206.953,34.862L207.676,34.771L208.398,34.798L209.121,34.539L209.844,34.415L210.566,34.294L211.289,34.231L212.012,34.08L212.734,34.012L213.457,33.927L214.18,33.737L214.902,33.721L215.625,33.527L216.348,33.442L217.07,33.387L217.793,33.193L218.516,33.254L219.238,33.135L219.961,32.941L220.684,32.875L221.406,32.855L222.129,32.773L222.852,32.572L223.574,32.527L224.297,32.414L225.02,32.304L225.742,32.259L226.465,32.099L227.188,32.074L227.91,31.968L228.633,31.81L229.355,31.727L230.078,31.596L230.801,31.476L231.523,31.294L232.246,31.196L232.969,31.006L233.691,30.92L234.414,30.788L235.137,30.59L235.859,30.425L236.582,30.159L237.305,30.036L238.027,29.82L238.75,29.629L239.473,29.376L240.195,29.298L240.918,29.019L241.641,28.782L242.363,28.667L243.086,28.335L243.809,28.205L244.531,27.928L245.254,27.764L245.977,27.559L246.699,29.41L247.422,33.056L248.145,36.581L248.867,40.127L249.59,43.799L250.313,47.333L251.035,49.729L251.758,50.051L252.48,50.552L253.203,50.85L253.926,51.151L254.648,51.444L255.371,51.919L256.094,52.18L256.816,52.434L257.539,52.783L258.262,53.189L258.984,53.365L259.707,53.748L260.43,53.928L261.152,54.362L261.875,54.502L262.598,54.952L263.32,55.218L264.043,55.461L264.766,55.678L265.488,56.007L266.211,56.369L266.934,56.563L267.656,56.778L268.379,57.137L269.102,57.297L269.824,57.596L270.547,57.937L271.27,58.084L271.992,58.41L272.715,58.705L273.438,58.952L274.16,59.192L274.883,59.33L275.605,59.799L276.328,59.931L277.051,60.077L277.773,60.492L278.496,60.651L279.219,60.783L279.941,61.228L280.664,61.453L281.387,61.417L282.109,61.649L282.832,61.877L283.555,62.001L284.277,62.099L285,62.165L285.723,62.402L286.445,62.428L287.168,62.568L287.891,62.487L288.613,62.521L289.336,62.579L290.059,62.564L290.781,62.545L291.504,62.545L292.227,62.52L292.949,62.532L293.672,62.523L294.395,62.477L295.117,62.207L295.84,62.159L296.563,61.96L297.285,61.869L298.008,61.61L298.73,61.5L299.453,61.143L300.176,60.854L300.898,60.607L301.621,60.23L302.344,60.001L303.066,59.678L303.789,59.273L304.512,58.876L305.234,58.476L305.957,58.113L306.68,57.689L307.402,57.225L308.125,56.713L308.848,56.248L309.57,55.925L310.293,55.309L311.016,54.774L311.738,54.365L312.461,53.703L313.184,53.112L313.906,52.644L314.629,52.08L315.352,51.457L316.074,51.018L316.797,50.368L317.52,49.772L318.242,49.215L318.965,48.651L319.688,47.956L320.41,47.439L321.133,46.734L321.855,46.221L322.578,45.672L323.301,45.069L324.023,44.511L324.746,43.909L325.469,43.292L326.191,42.744L326.914,42.234L327.637,41.718L328.359,41.117L329.082,40.527L329.805,40.03L330.527,39.45L331.25,38.921L331.973,38.403L332.695,37.892L333.418,37.456L334.141,36.913L334.863,36.472L335.586,35.952L336.309,35.492L337.031,35.037L337.754,34.664L338.477,34.223L339.199,33.817L339.922,33.331L340.645,32.995L341.367,32.608L342.09,32.155L342.813,31.862L343.535,31.465L344.258,31.183L344.98,30.854L345.703,30.476L346.426,30.176L347.148,29.829L347.871,29.518L348.594,29.225L349.316,28.966L350.039,28.672L350.762,28.336L351.484,28.135L352.207,27.86L352.93,27.629L353.652,27.345L354.375,27.142L355.098,26.882L355.82,26.75L356.543,26.487L357.266,26.304L357.988,26.059L358.711,25.873L359.434,25.745L360.156,25.599L360.879,25.383L361.602,25.193L362.324,25.05L363.047,24.892L363.77,24.755L364.492,24.576L365.215,24.469L365.938,24.34L366.66,24.178L367.383,24.076L368.105,23.905L368.828,23.787L369.551,23.698L370.273,23.571L370.996,23.516L371.719,23.399L372.441,23.311L373.164,23.182L373.887,23.134L374.609,23L375.332,22.9L376.055,22.809L376.777,22.735L377.5,22.706L378.223,22.59L378.945,22.543L379.668,22.437L380.391,22.394L381.113,22.328L381.836,22.248L382.559,22.184L383.281,22.117L384.004,22.097L384.727,22.035L385.449,21.979L386.172,21.9L386.895,21.883L387.617,21.819L388.34,21.805L389.063,21.74L389.785,21.7L390.508,21.662L391.23,21.643L391.953,21.581L392.676,21.556L393.398,21.496L394.121,21.464L394.844,21.436L395.566,21.406L396.289,21.388L397.012,21.352L397.734,21.316L398.457,21.286L399.18,21.269L399.902,21.226L400.625,21.226L401.348,21.17L402.07,21.161L402.793,21.169L403.516,21.122L404.238,21.097L404.961,21.075L405.684,21.068L406.406,21.05L407.129,21.017L407.852,21.007L408.574,20.985L409.297,20.966L410.02,20.953L410.742,20.944L411.465,20.938L412.188,20.907L412.91,20.911L413.633,20.896L414.355,20.884L415.078,20.874L415.801,20.866L416.523,20.843L417.246,20.842L417.969,20.813L418.691,20.808L419.414,20.801L420.137,20.804L420.859,20.79L421.582,20.769L422.305,20.771L423.027,20.763L423.75,20.754L424.473,20.75L425.195,20.747L425.918,20.736L426.641,20.735L427.363,20.726L428.086,20.715L428.809,20.715L429.531,20.709L430.254,20.694L430.977,20.695L431.699,20.692L432.422,20.683L433.145,20.677L433.867,20.681L434.59,20.674L435.313,20.672L436.035,20.655L436.758,20.662L437.48,20.655L438.203,20.647L438.926,20.652L439.648,20.643L440.371,20.637L441.094,20.634L441.816,20.634L442.539,20.635L443.262,20.63L443.984,20.629L444.707,20.625L445.43,20.62L446.152,20.621L446.875,20.617L447.598,20.623L448.32,20.616L449.043,20.613L449.766,20.609L450.488,20.608L451.211,20.604L451.934,20.607L452.656,20.602L453.379,20.603L454.102,20.598L454.824,20.603L455.547,20.6L456.27,20.598L456.992,20.592L457.715,20.59L458.438,20.591L459.16,20.592L459.883,20.589L460.605,20.591L461.328,20.59L462.051,20.589L462.773,20.586L463.496,20.583L464.219,20.581L464.941,20.582L465.664,20.586L466.387,20.583L467.109,20.58L467.832,20.578L468.555,20.579L469.277,20.58"/><g transform="translate(15,190) scale(1.7) rotate(-90)"><text>Drift</text></g><g transform="translate(315,395) scale(1.8)"><text></text></g><g transform="translate(0,350)" fill="none" font-size="10" font-family="sans-serif" text-anchor="middle"><path class="domain" stroke="currentColor" d="M100,6V0H470V6"/><g class="tick" opacity="1" transform="translate(136.96669666966696,0)"><line stroke="currentColor" y2="6"/><text fill="currentColor" y="9" dy="0.71em" font-size="20px"> </text></g><g class="tick" opacity="1" transform="translate(173.97039703970398,0)"><line stroke="currentColor" y2="6"/><text fill="currentColor" y="9" dy="0.71em" font-size="20px">20</text></g><g class="tick" opacity="1" transform="translate(210.97409740974098,0)"><line stroke="currentColor" y2="6"/><text fill="currentColor" y="9" dy="0.71em" font-size="20px"> </text></g><g class="tick" opacity="1" transform="translate(247.97779777977803,0)"><line stroke="currentColor" y2="6"/><text fill="currentColor" y="9" dy="0.71em" font-size="20px">40</text></g><g class="tick" opacity="1" transform="translate(284.981498149815,0)"><line stroke="currentColor" y2="6"/><text fill="currentColor" y="9" dy="0.71em" font-size="20px"> </text></g><g class="tick" opacity="1" transform="translate(321.985198519852,0)"><line stroke="currentColor" y2="6"/><text fill="currentColor" y="9" dy="0.71em" font-size="20px">60</text></g><g class="tick" opacity="1" transform="translate(358.988898889889,0)"><line stroke="currentColor" y2="6"/><text fill="currentColor" y="9" dy="0.71em" font-size="20px"> </text></g><g class="tick" opacity="1" transform="translate(395.992599259926,0)"><line stroke="currentColor" y2="6"/><text fill="currentColor" y="9" dy="0.71em" font-size="20px">80</text></g><g class="tick" opacity="1" transform="translate(432.996299629963,0)"><line stroke="currentColor" y2="6"/><text fill="currentColor" y="9" dy="0.71em" font-size="20px"> </text></g><g class="tick" opacity="1" transform="translate(470,0)"><line stroke="currentColor" y2="6"/><text fill="currentColor" y="9" dy="0.71em" font-size="20px">100</text></g></g><g transform="translate(100,0)" fill="none" font-size="10" font-family="sans-serif" text-anchor="end"><path class="domain" stroke="currentColor" d="M-6,350H0V20H-6"/><g class="tick" opacity="1" transform="translate(0,327.25453743382343)"><line stroke="currentColor" x2="-6"/><text fill="currentColor" x="-9" dy="0.32em" font-size="20px">0.45</text></g><g class="tick" opacity="1" transform="translate(0,291.86662776927886)"><line stroke="currentColor" x2="-6"/><text fill="currentColor" x="-9" dy="0.32em" font-size="20px">0.40</text></g><g class="tick" opacity="1" transform="translate(0,256.4787181047343)"><line stroke="currentColor" x2="-6"/><text fill="currentColor" x="-9" dy="0.32em" font-size="20px">0.35</text></g><g class="tick" opacity="1" transform="translate(0,221.0908084401897)"><line stroke="currentColor" x2="-6"/><text fill="currentColor" x="-9" dy="0.32em" font-size="20px">0.30</text></g><g class="tick" opacity="1" transform="translate(0,185.70289877564514)"><line stroke="currentColor" x2="-6"/><text fill="currentColor" x="-9" dy="0.32em" font-size="20px">0.25</text></g><g class="tick" opacity="1" transform="translate(0,150.3149891111006)"><line stroke="currentColor" x2="-6"/><text fill="currentColor" x="-9" dy="0.32em" font-size="20px">0.20</text></g><g class="tick" opacity="1" transform="translate(0,114.927079446556)"><line stroke="currentColor" x2="-6"/><text fill="currentColor" x="-9" dy="0.32em" font-size="20px">0.15</text></g><g class="tick" opacity="1" transform="translate(0,79.53916978201146)"><line stroke="currentColor" x2="-6"/><text fill="currentColor" x="-9" dy="0.32em" font-size="20px">0.10</text></g><g class="tick" opacity="1" transform="translate(0,44.15126011746686)"><line stroke="currentColor" x2="-6"/><text fill="currentColor" x="-9" dy="0.32em" font-size="20px">0.05</text></g></g><circle cx="355" cy="150" r="8" style="fill: rgb(35, 23, 27);"/><circle cx="355" cy="175" r="8" style="fill: rgb(69, 105, 238);"/><circle cx="355" cy="200" r="8" style="fill: rgb(38, 188, 225);"/><circle cx="355" cy="225" r="8" style="fill: rgb(63, 243, 147);"/><circle cx="355" cy="250" r="8" style="fill: rgb(149, 251, 81);"/><circle cx="355" cy="275" r="8" style="fill: rgb(236, 209, 46);"/><circle cx="355" cy="300" r="8" style="fill: rgb(255, 130, 29);"/><circle cx="355" cy="325" r="8" style="fill: rgb(203, 47, 13);"/><text x="370" y="150" text-anchor="left" font-size="22" alignment-baseline="middle" style="fill: rgb(35, 23, 27);"> = 0</text><text x="370" y="175" text-anchor="left" font-size="22" alignment-baseline="middle" style="fill: rgb(69, 105, 238);"> = 0.22</text><text x="370" y="200" text-anchor="left" font-size="22" alignment-baseline="middle" style="fill: rgb(38, 188, 225);"> = 0.45</text><text x="370" y="225" text-anchor="left" font-size="22" alignment-baseline="middle" style="fill: rgb(63, 243, 147);"> = 0.67</text><text x="370" y="250" text-anchor="left" font-size="22" alignment-baseline="middle" style="fill: rgb(149, 251, 81);"> = 0.9</text><text x="370" y="275" text-anchor="left" font-size="22" alignment-baseline="middle" style="fill: rgb(236, 209, 46);"> = 1.12</text><text x="370" y="300" text-anchor="left" font-size="22" alignment-baseline="middle" style="fill: rgb(255, 130, 29);"> = 1.35</text><text x="370" y="325" text-anchor="left" font-size="22" alignment-baseline="middle" style="fill: rgb(203, 47, 13);"> = 1.57</text></svg>