<svg xmlns="http://www.w3.org/2000/svg" class="bg-white" width="500" height="400" viewBox="-10 -1 500 400"><path fill="none" stroke="rgb(35, 23, 27)" stroke-width="1.5" d="M100,82.059L100.723,82.341L101.445,82.283L102.168,82.548L102.891,82.675L103.613,82.881L104.336,83.13L105.059,83.152L105.781,83.412L106.504,83.564L107.227,83.731L107.949,84.09L108.672,84.143L109.395,84.399L110.117,84.578L110.84,84.874L111.563,85.021L112.285,85.198L113.008,85.492L113.73,85.666L114.453,85.899L115.176,86.133L115.898,86.425L116.621,86.632L117.344,86.913L118.066,87.119L118.789,87.377L119.512,87.566L120.234,87.958L120.957,88.059L121.68,88.448L122.402,88.667L123.125,88.998L123.848,89.409L124.57,89.634L125.293,89.8L126.016,90.252L126.738,90.48L127.461,90.883L128.184,91.217L128.906,91.612L129.629,91.846L130.352,92.203L131.074,92.599L131.797,93.006L132.52,93.359L133.242,93.655L133.965,94.163L134.688,94.523L135.41,94.888L136.133,95.285L136.855,95.765L137.578,96.239L138.301,96.605L139.023,97.199L139.746,97.613L140.469,98.089L141.191,98.488L141.914,99.013L142.637,99.319L143.359,100.047L144.082,100.564L144.805,101.012L145.527,101.56L146.25,102.198L146.973,102.763L147.695,103.353L148.418,103.856L149.141,104.409L149.863,105.043L150.586,105.59L151.309,106.327L152.031,107.029L152.754,107.684L153.477,108.405L154.199,109.032L154.922,109.876L155.645,110.499L156.367,111.271L157.09,112.003L157.813,112.839L158.535,113.571L159.258,114.372L159.98,115.204L160.703,116.06L161.426,116.94L162.148,117.895L162.871,118.716L163.594,119.715L164.316,120.661L165.039,121.64L165.762,122.619L166.484,123.503L167.207,124.549L167.93,125.711L168.652,126.804L169.375,127.949L170.098,129.167L170.82,130.298L171.543,131.488L172.266,132.69L172.988,134.044L173.711,135.378L174.434,136.687L175.156,138.095L175.879,139.556L176.602,141.163L177.324,142.643L178.047,144.154L178.77,145.638L179.492,147.493L180.215,149.432L180.938,150.895L181.66,152.817L182.383,154.856L183.105,156.706L183.828,158.828L184.551,160.719L185.273,163.232L185.996,165.323L186.719,167.634L187.441,169.901L188.164,172.427L188.887,174.873L189.609,177.758L190.332,180.523L191.055,183.287L191.777,186.144L192.5,189.217L193.223,192.195L193.945,195.227L194.668,198.79L195.391,202.001L196.113,205.549L196.836,209.083L197.559,212.582L198.281,216.344L199.004,220.122L199.727,223.993L200.449,227.914L201.172,231.948L201.895,235.953L202.617,240.053L203.34,244.129L204.063,248.309L204.785,252.343L205.508,256.461L206.23,260.643L206.953,265.033L207.676,269.134L208.398,273.576L209.121,277.307L209.844,281.688L210.566,285.657L211.289,289.765L212.012,294.007L212.734,297.929L213.457,301.637L214.18,305.275L214.902,308.823L215.625,311.824L216.348,315.565L217.07,318.818L217.793,321.972L218.516,324.895L219.238,327.407L219.961,330.407L220.684,332.931L221.406,334.87L222.129,337.396L222.852,339.386L223.574,341.185L224.297,342.996L225.02,344.437L225.742,345.822L226.465,346.953L227.188,347.797L227.91,348.672L228.633,349.261L229.355,349.644L230.078,349.889L230.801,350L231.523,349.813L232.246,349.468L232.969,348.983L233.691,348.304L234.414,347.41L235.137,346.468L235.859,345.365L236.582,344.099L237.305,342.291L238.027,340.874L238.75,339.089L239.473,337.118L240.195,334.97L240.918,332.593L241.641,330.118L242.363,327.724L243.086,324.772L243.809,322.219L244.531,319.086L245.254,316.391L245.977,313.217L246.699,309.943L247.422,306.748L248.145,303.137L248.867,299.833L249.59,296.21L250.313,292.697L251.035,289L251.758,285.195L252.48,281.467L253.203,277.676L253.926,273.746L254.648,269.984L255.371,265.796L256.094,261.966L256.816,258.163L257.539,254.108L258.262,250.149L258.984,246.146L259.707,242.204L260.43,238.218L261.152,234.232L261.875,230.149L262.598,226.199L263.32,222.216L264.043,218.247L264.766,214.363L265.488,210.396L266.211,206.444L266.934,202.616L267.656,198.748L268.379,194.881L269.102,191.19L269.824,187.331L270.547,183.414L271.27,179.458L271.992,175.874L272.715,171.948L273.438,168.425L274.16,164.387L274.883,160.73L275.605,156.795L276.328,152.76L277.051,148.389L277.773,144.71L278.496,140.753L279.219,136.778L279.941,132.752L280.664,128.723L281.387,125.102L282.109,121.369L282.832,117.662L283.555,113.883L284.277,110.5L285,107.155L285.723,103.438L286.445,100.386L287.168,97.067L287.891,93.824L288.613,90.763L289.336,87.59L290.059,84.504L290.781,81.76L291.504,78.761L292.227,76L292.949,73.249L293.672,70.507L294.395,71.027L295.117,71.909L295.84,72.678L296.563,73.638L297.285,74.672L298.008,75.855L298.73,74.813L299.453,73.038L300.176,71.532L300.898,69.846L301.621,68.204L302.344,66.692L303.066,65.166L303.789,63.641L304.512,62.171L305.234,60.699L305.957,59.341L306.68,57.94L307.402,56.769L308.125,55.435L308.848,54.305L309.57,53.012L310.293,52.035L311.016,50.782L311.738,49.536L312.461,48.59L313.184,47.562L313.906,46.519L314.629,45.711L315.352,44.663L316.074,43.958L316.797,42.941L317.52,41.941L318.242,41.333L318.965,40.416L319.688,39.754L320.41,38.701L321.133,38.313L321.855,37.504L322.578,36.771L323.301,36.276L324.023,35.615L324.746,35.067L325.469,34.582L326.191,33.99L326.914,33.377L327.637,32.896L328.359,32.288L329.082,32L329.805,31.497L330.527,31.073L331.25,30.564L331.973,30.019L332.695,29.83L333.418,29.464L334.141,29.236L334.863,28.488L335.586,28.369L336.309,28.125L337.031,27.812L337.754,27.403L338.477,27.265L339.199,26.812L339.922,26.754L340.645,26.323L341.367,26.237L342.09,25.913L342.813,25.651L343.535,25.62L344.258,25.213L344.98,25.123L345.703,25.059L346.426,24.839L347.148,24.726L347.871,24.508L348.594,24.1L349.316,23.924L350.039,24.14L350.762,23.999L351.484,23.702L352.207,23.613L352.93,23.365L353.652,23.351L354.375,23.521L355.098,22.716L355.82,23.004L356.543,22.994L357.266,23.029L357.988,22.743L358.711,22.479L359.434,22.667L360.156,22.393L360.879,22.556L361.602,22.407L362.324,22.489L363.047,21.955L363.77,22.382L364.492,22.028L365.215,21.894L365.938,21.878L366.66,21.649L367.383,21.979L368.105,21.846L368.828,21.819L369.551,21.896L370.273,22.069L370.996,21.681L371.719,21.739L372.441,21.765L373.164,21.864L373.887,21.615L374.609,22.275L375.332,21.982L376.055,21.511L376.777,21.162L377.5,20.982L378.223,21.19L378.945,21.633L379.668,21.19L380.391,21.234L381.113,21.433L381.836,21.267L382.559,21.356L383.281,21.157L384.004,20.926L384.727,21.771L385.449,21.477L386.172,21.76L386.895,21.418L387.617,21.839L388.34,22.414L389.063,21.772L389.785,21.489L390.508,21.608L391.23,21.436L391.953,22.446L392.676,21.858L393.398,21.863L394.121,22.193L394.844,22.07L395.566,21.895L396.289,21.872L397.012,21.747L397.734,22.022L398.457,21.933L399.18,22.226L399.902,21.274L400.625,23.696L401.348,23.464L402.07,22.944L402.793,23.045L403.516,22.495L404.238,23.132L404.961,24.161L405.684,24.439L406.406,25.147L407.129,24.761L407.852,26.263L408.574,25.138L409.297,27.711L410.02,26.817L410.742,24.537L411.465,25.86L412.188,25.399L412.91,27.401L413.633,27.199L414.355,28.075L415.078,29.268L415.801,30.422L416.523,29.78L417.246,30.014L417.969,30.276L418.691,33.27L419.414,30.103L420.137,31.932L420.859,31.877L421.582,30.987L422.305,32.201L423.027,31.343L423.75,33.041L424.473,33.092L425.195,31.908L425.918,31.355L426.641,31.941L427.363,32.765L428.086,31.974L428.809,31.129L429.531,29.952L430.254,30.196L430.977,29.521L431.699,29.812L432.422,29.906L433.145,28.429L433.867,27.944L434.59,28.797L435.313,27.339L436.035,27.446L436.758,26.975L437.48,26.875L438.203,27.354L438.926,26.111L439.648,25.477L440.371,26.371L441.094,24.478L441.816,25.482L442.539,25.127L443.262,24.865L443.984,25.012L444.707,24.234L445.43,24.423L446.152,24.07L446.875,23.626L447.598,23.427L448.32,23.324L449.043,23.388L449.766,22.971L450.488,22.96L451.211,22.465L451.934,21.948L452.656,22.672L453.379,21.775L454.102,22.049L454.824,22.1L455.547,22.142L456.27,22.083L456.992,21.777L457.715,21.717L458.438,21.412L459.16,21.652L459.883,21.496L460.605,21.3L461.328,21.175L462.051,21.432L462.773,21.375L463.496,21.138L464.219,21.232L464.941,21.205L465.664,21.175L466.387,20.895L467.109,20.953L467.832,21.063L468.555,20.751L469.277,20.796"/><path fill="none" stroke="rgb(69, 105, 238)" stroke-width="1.5" d="M100,81.627L100.723,81.703L101.445,81.916L102.168,82.097L102.891,82.245L103.613,82.459L104.336,82.547L105.059,82.797L105.781,82.816L106.504,83.129L107.227,83.306L107.949,83.495L108.672,83.721L109.395,83.929L110.117,84.074L110.84,84.391L111.563,84.409L112.285,84.59L113.008,84.889L113.73,85.077L114.453,85.443L115.176,85.541L115.898,85.758L116.621,86.06L117.344,86.412L118.066,86.451L118.789,86.811L119.512,87.145L120.234,87.288L120.957,87.617L121.68,87.789L122.402,88.141L123.125,88.387L123.848,88.714L124.57,88.974L125.293,89.257L126.016,89.579L126.738,90.101L127.461,90.258L128.184,90.51L128.906,90.893L129.629,91.201L130.352,91.514L131.074,91.958L131.797,92.2L132.52,92.553L133.242,92.991L133.965,93.432L134.688,93.759L135.41,94.139L136.133,94.583L136.855,94.901L137.578,95.429L138.301,95.92L139.023,96.241L139.746,96.785L140.469,97.134L141.191,97.706L141.914,98.16L142.637,98.563L143.359,98.968L144.082,99.7L144.805,100.094L145.527,100.662L146.25,101.222L146.973,101.703L147.695,102.152L148.418,102.836L149.141,103.415L149.863,103.94L150.586,104.654L151.309,105.326L152.031,105.9L152.754,106.615L153.477,107.153L154.199,107.901L154.922,108.552L155.645,109.155L156.367,109.964L157.09,110.674L157.813,111.391L158.535,112.268L159.258,113.032L159.98,113.823L160.703,114.658L161.426,115.568L162.148,116.288L162.871,117.113L163.594,118.237L164.316,119.028L165.039,119.941L165.762,121.037L166.484,121.966L167.207,122.852L167.93,124.058L168.652,124.984L169.375,126.058L170.098,127.331L170.82,128.42L171.543,129.344L172.266,130.686L172.988,131.915L173.711,133.12L174.434,134.49L175.156,135.655L175.879,137.015L176.602,138.456L177.324,139.891L178.047,141.298L178.77,142.735L179.492,144.37L180.215,145.903L180.938,147.407L181.66,149.182L182.383,151.009L183.105,152.718L183.828,154.458L184.551,156.109L185.273,158.246L185.996,159.796L186.719,161.968L187.441,163.869L188.164,165.914L188.887,168.041L189.609,170.148L190.332,172.461L191.055,174.75L191.777,177.081L192.5,179.398L193.223,181.781L193.945,184.346L194.668,186.751L195.391,189.202L196.113,191.775L196.836,194.408L197.559,197.141L198.281,199.834L199.004,202.538L199.727,205.231L200.449,208.299L201.172,210.917L201.895,213.86L202.617,216.506L203.34,219.687L204.063,222.394L204.785,225.365L205.508,227.973L206.23,230.814L206.953,234.034L207.676,236.745L208.398,239.543L209.121,242.499L209.844,245.053L210.566,247.939L211.289,250.601L212.012,253.112L212.734,255.832L213.457,258.409L214.18,260.612L214.902,263.122L215.625,265.493L216.348,267.669L217.07,270.016L217.793,271.985L218.516,273.716L219.238,275.661L219.961,277.512L220.684,279.153L221.406,280.825L222.129,282.17L222.852,283.356L223.574,284.541L224.297,285.748L225.02,287.045L225.742,287.767L226.465,288.292L227.188,288.831L227.91,289.531L228.633,289.499L229.355,289.614L230.078,289.732L230.801,289.869L231.523,289.718L232.246,289.614L232.969,289.017L233.691,288.509L234.414,287.514L235.137,286.851L235.859,286.077L236.582,285.001L237.305,283.327L238.027,282.406L238.75,280.94L239.473,279.338L240.195,277.776L240.918,275.902L241.641,274.177L242.363,272.221L243.086,270.026L243.809,267.75L244.531,265.663L245.254,263.167L245.977,261.068L246.699,258.131L247.422,255.421L248.145,252.777L248.867,250.279L249.59,247.684L250.313,244.467L251.035,241.904L251.758,239.318L252.48,236.347L253.203,233.355L253.926,230.203L254.648,227.15L255.371,224.079L256.094,221.049L256.816,217.548L257.539,214.583L258.262,212.023L258.984,208.584L259.707,205.262L260.43,202.418L261.152,198.735L261.875,196.099L262.598,192.949L263.32,189.667L264.043,186.09L264.766,183.292L265.488,180.277L266.211,176.839L266.934,173.487L267.656,170.928L268.379,167.525L269.102,164.27L269.824,161.115L270.547,157.765L271.27,155.025L271.992,151.867L272.715,148.863L273.438,145.5L274.16,142.501L274.883,139.009L275.605,135.82L276.328,132.74L277.051,128.983L277.773,126.059L278.496,122.65L279.219,119.495L279.941,116.523L280.664,113.455L281.387,110.083L282.109,107.145L282.832,104.346L283.555,101.404L284.277,98.038L285,95.438L285.723,92.61L286.445,89.821L287.168,86.825L287.891,84.319L288.613,81.597L289.336,78.811L290.059,76.425L290.781,74.074L291.504,71.509L292.227,69.075L292.949,68.848L293.672,69.635L294.395,71.042L295.117,71.986L295.84,73.284L296.563,74.687L297.285,74.708L298.008,73.173L298.73,71.744L299.453,70.389L300.176,68.896L300.898,67.661L301.621,66.114L302.344,64.751L303.066,63.396L303.789,62.096L304.512,60.599L305.234,59.581L305.957,58.454L306.68,57.208L307.402,55.84L308.125,54.797L308.848,53.664L309.57,52.551L310.293,51.665L311.016,50.671L311.738,49.649L312.461,48.667L313.184,47.647L313.906,46.555L314.629,45.608L315.352,44.904L316.074,44.111L316.797,43.279L317.52,42.44L318.242,41.714L318.965,40.893L319.688,40.216L320.41,39.353L321.133,38.804L321.855,38.062L322.578,37.469L323.301,37.106L324.023,36.343L324.746,35.983L325.469,35.01L326.191,34.698L326.914,34.074L327.637,33.535L328.359,33.011L329.082,32.741L329.805,32.078L330.527,31.7L331.25,31.372L331.973,30.483L332.695,30.485L333.418,29.985L334.141,29.99L334.863,29.568L335.586,29.001L336.309,28.694L337.031,28.314L337.754,28.06L338.477,27.428L339.199,27.448L339.922,27.433L340.645,26.96L341.367,26.852L342.09,26.057L342.813,26.294L343.535,25.839L344.258,25.448L344.98,25.595L345.703,25.368L346.426,25.567L347.148,25.195L347.871,24.636L348.594,24.454L349.316,24.636L350.039,24.31L350.762,24.2L351.484,23.828L352.207,23.869L352.93,23.781L353.652,23.325L354.375,23.061L355.098,22.91L355.82,23.217L356.543,23.719L357.266,22.769L357.988,23.411L358.711,23.587L359.434,22.542L360.156,22.6L360.879,22.464L361.602,23.064L362.324,22.345L363.047,22.183L363.77,22.529L364.492,21.931L365.215,23.009L365.938,22.346L366.66,22.508L367.383,22.02L368.105,21.98L368.828,21.888L369.551,22.391L370.273,21.536L370.996,21.239L371.719,22.134L372.441,21.148L373.164,21.83L373.887,21.774L374.609,21.012L375.332,21.144L376.055,20.997L376.777,22.348L377.5,22.023L378.223,22.136L378.945,21.498L379.668,21.698L380.391,21.44L381.113,21.303L381.836,21.076L382.559,21.693L383.281,20.995L384.004,21.444L384.727,22.339L385.449,21.073L386.172,22.98L386.895,21.254L387.617,21.675L388.34,21.32L389.063,21.179L389.785,22.642L390.508,20.516L391.23,22.159L391.953,21.466L392.676,21.679L393.398,21.243L394.121,21.319L394.844,21.175L395.566,21.814L396.289,22.31L397.012,21.728L397.734,22.169L398.457,21.754L399.18,22.602L399.902,21.111L400.625,22.517L401.348,22.304L402.07,21.968L402.793,23.809L403.516,24.596L404.238,24.399L404.961,22.708L405.684,24.232L406.406,23.868L407.129,23.333L407.852,24.431L408.574,25.402L409.297,25.068L410.02,26.424L410.742,25.981L411.465,26.239L412.188,26.469L412.91,26.428L413.633,28.381L414.355,26.335L415.078,26.388L415.801,28.051L416.523,27.554L417.246,29.174L417.969,30.654L418.691,29.003L419.414,30.955L420.137,29.764L420.859,30.213L421.582,29.009L422.305,29.475L423.027,31.071L423.75,29.719L424.473,30.885L425.195,31.262L425.918,29.695L426.641,30.832L427.363,29.479L428.086,31.332L428.809,30.718L429.531,28.795L430.254,29.136L430.977,28.968L431.699,28.298L432.422,27.939L433.145,28.12L433.867,27.933L434.59,28.582L435.313,27.712L436.035,27.145L436.758,27.077L437.48,26.058L438.203,25.169L438.926,25.639L439.648,26.41L440.371,24.995L441.094,24.94L441.816,24.779L442.539,24.773L443.262,24.521L443.984,24.523L444.707,24.329L445.43,24.128L446.152,23.057L446.875,23.378L447.598,23L448.32,23.151L449.043,22.848L449.766,22.61L450.488,21.987L451.211,22.224L451.934,22.34L452.656,22.082L453.379,21.941L454.102,21.868L454.824,22.096L455.547,21.906L456.27,21.664L456.992,21.488L457.715,21.518L458.438,21.226L459.16,21.182L459.883,21.328L460.605,21.414L461.328,21.009L462.051,21.249L462.773,21.067L463.496,21.158L464.219,21.038L464.941,21.219L465.664,21.056L466.387,20.999L467.109,21.035L467.832,20.844L468.555,20.908L469.277,20.893"/><path fill="none" stroke="rgb(38, 188, 225)" stroke-width="1.5" d="M100,80.69L100.723,80.888L101.445,81.008L102.168,81.144L102.891,81.345L103.613,81.458L104.336,81.619L105.059,81.856L105.781,81.913L106.504,82.206L107.227,82.384L107.949,82.645L108.672,82.657L109.395,82.822L110.117,83.078L110.84,83.144L111.563,83.502L112.285,83.576L113.008,83.884L113.73,84.227L114.453,84.177L115.176,84.48L115.898,84.596L116.621,84.972L117.344,85.043L118.066,85.29L118.789,85.505L119.512,85.879L120.234,86.194L120.957,86.456L121.68,86.697L122.402,86.881L123.125,87.089L123.848,87.357L124.57,87.702L125.293,88.047L126.016,88.193L126.738,88.632L127.461,88.886L128.184,88.976L128.906,89.509L129.629,89.709L130.352,90.11L131.074,90.365L131.797,90.739L132.52,91.173L133.242,91.375L133.965,91.728L134.688,92.048L135.41,92.509L136.133,92.851L136.855,93.207L137.578,93.634L138.301,94.026L139.023,94.464L139.746,94.902L140.469,95.083L141.191,95.735L141.914,96.224L142.637,96.434L143.359,96.95L144.082,97.448L144.805,97.939L145.527,98.362L146.25,98.849L146.973,99.395L147.695,99.884L148.418,100.484L149.141,100.829L149.863,101.6L150.586,102.104L151.309,102.533L152.031,103.294L152.754,103.748L153.477,104.327L154.199,105.062L154.922,105.544L155.645,106.229L156.367,106.931L157.09,107.663L157.813,108.288L158.535,108.998L159.258,109.67L159.98,110.554L160.703,111.111L161.426,111.885L162.148,112.677L162.871,113.416L163.594,114.15L164.316,115.03L165.039,115.945L165.762,116.517L166.484,117.454L167.207,118.511L167.93,119.165L168.652,120.351L169.375,120.926L170.098,122.216L170.82,123.155L171.543,124.236L172.266,125.178L172.988,126.189L173.711,127.351L174.434,128.374L175.156,129.661L175.879,130.705L176.602,131.757L177.324,132.924L178.047,134.225L178.77,135.603L179.492,136.568L180.215,137.867L180.938,139.306L181.66,140.462L182.383,141.936L183.105,143.139L183.828,144.873L184.551,146.206L185.273,147.373L185.996,149.131L186.719,150.565L187.441,152.046L188.164,153.914L188.887,155.354L189.609,156.86L190.332,158.431L191.055,160.196L191.777,162.037L192.5,163.723L193.223,165.414L193.945,167.204L194.668,168.84L195.391,170.427L196.113,172.465L196.836,174.224L197.559,175.838L198.281,177.49L199.004,179.59L199.727,181.262L200.449,183.162L201.172,184.931L201.895,186.488L202.617,188.502L203.34,190.318L204.063,192.175L204.785,193.727L205.508,195.441L206.23,197.181L206.953,198.719L207.676,200.568L208.398,202.118L209.121,203.766L209.844,204.992L210.566,206.387L211.289,208.062L212.012,209.21L212.734,210.767L213.457,211.97L214.18,213.107L214.902,214.304L215.625,215.355L216.348,216.282L217.07,216.918L217.793,217.976L218.516,218.778L219.238,219.475L219.961,220.344L220.684,220.671L221.406,220.893L222.129,221.482L222.852,221.677L223.574,222.1L224.297,221.98L225.02,222.037L225.742,222.038L226.465,221.921L227.188,221.564L227.91,221.093L228.633,220.716L229.355,220.245L230.078,219.313L230.801,218.714L231.523,217.95L232.246,216.859L232.969,215.889L233.691,214.897L234.414,213.409L235.137,212.633L235.859,211.457L236.582,209.547L237.305,208.37L238.027,206.665L238.75,204.804L239.473,203.462L240.195,201.831L240.918,199.862L241.641,198.107L242.363,196.212L243.086,194.167L243.809,192.071L244.531,190.067L245.254,187.901L245.977,185.896L246.699,183.535L247.422,181.526L248.145,179.208L248.867,176.874L249.59,174.37L250.313,172.459L251.035,169.911L251.758,167.802L252.48,165.282L253.203,163.049L253.926,160.524L254.648,158.366L255.371,156.196L256.094,153.531L256.816,151.481L257.539,148.883L258.262,146.622L258.984,144.255L259.707,141.679L260.43,139.551L261.152,137.445L261.875,134.931L262.598,132.728L263.32,130.641L264.043,128.464L264.766,126.144L265.488,123.953L266.211,121.729L266.934,119.766L267.656,117.474L268.379,115.4L269.102,113.169L269.824,111.028L270.547,108.782L271.27,106.626L271.992,104.415L272.715,102.365L273.438,100.282L274.16,97.92L274.883,96.22L275.605,94.11L276.328,92.036L277.051,90.061L277.773,88.182L278.496,86.248L279.219,84.392L279.941,82.495L280.664,80.624L281.387,78.631L282.109,76.836L282.832,74.805L283.555,72.951L284.277,71.314L285,69.421L285.723,67.409L286.445,65.893L287.168,64.12L287.891,62.477L288.613,60.712L289.336,59.926L290.059,61.623L290.781,63.525L291.504,65.283L292.227,67.283L292.949,69.127L293.672,70.894L294.395,69.853L295.117,68.798L295.84,67.976L296.563,66.911L297.285,66.172L298.008,64.971L298.73,64.181L299.453,62.973L300.176,62.041L300.898,61.394L301.621,60.419L302.344,59.573L303.066,58.649L303.789,57.849L304.512,56.714L305.234,55.934L305.957,55.001L306.68,54.392L307.402,53.542L308.125,52.5L308.848,51.762L309.57,51.097L310.293,50.216L311.016,49.427L311.738,48.778L312.461,47.844L313.184,47.198L313.906,46.442L314.629,45.718L315.352,45.087L316.074,44.358L316.797,43.657L317.52,42.889L318.242,42.174L318.965,41.657L319.688,40.833L320.41,40.209L321.133,39.49L321.855,38.948L322.578,38.724L323.301,38.115L324.023,37.545L324.746,36.789L325.469,36.302L326.191,35.821L326.914,35.214L327.637,34.681L328.359,34.346L329.082,34.008L329.805,33.435L330.527,32.981L331.25,32.656L331.973,32.265L332.695,31.685L333.418,31.449L334.141,30.924L334.863,30.769L335.586,30.328L336.309,29.858L337.031,29.55L337.754,29.21L338.477,28.916L339.199,28.604L339.922,28.41L340.645,28.159L341.367,27.798L342.09,27.71L342.813,27.333L343.535,26.891L344.258,26.436L344.98,26.512L345.703,26.704L346.426,26.198L347.148,26L347.871,25.735L348.594,25.43L349.316,26.023L350.039,25.169L350.762,25.38L351.484,24.943L352.207,24.24L352.93,24.929L353.652,24.024L354.375,24.75L355.098,23.884L355.82,23.716L356.543,24.177L357.266,23.732L357.988,23.736L358.711,23.262L359.434,23.285L360.156,23.563L360.879,23.148L361.602,23.168L362.324,23.306L363.047,23.014L363.77,22.46L364.492,22.622L365.215,22.551L365.938,22.204L366.66,22.455L367.383,22.599L368.105,22.048L368.828,22.472L369.551,21.871L370.273,22.606L370.996,21.646L371.719,22.019L372.441,22.319L373.164,21.766L373.887,22.049L374.609,20.837L375.332,21.816L376.055,21.424L376.777,22.224L377.5,21.31L378.223,21.827L378.945,21.84L379.668,23.008L380.391,21.731L381.113,21.807L381.836,21.702L382.559,21.772L383.281,21.408L384.004,21.579L384.727,22.095L385.449,20.861L386.172,21.817L386.895,21.435L387.617,20.761L388.34,21.602L389.063,21.928L389.785,21.817L390.508,20L391.23,21.933L391.953,22.261L392.676,21.405L393.398,21.372L394.121,21.605L394.844,22.034L395.566,22.093L396.289,20.909L397.012,21.789L397.734,22.044L398.457,21.513L399.18,20.717L399.902,21.502L400.625,21.587L401.348,21.264L402.07,22.837L402.793,22.003L403.516,23.454L404.238,23.526L404.961,24.651L405.684,23.066L406.406,21.903L407.129,21.931L407.852,24.11L408.574,23.384L409.297,21.732L410.02,23.889L410.742,22.001L411.465,24.236L412.188,23.7L412.91,22.971L413.633,23.602L414.355,24.056L415.078,26.469L415.801,25.145L416.523,25.18L417.246,25.723L417.969,24.52L418.691,26.86L419.414,25.956L420.137,24.635L420.859,27.171L421.582,25.498L422.305,25.971L423.027,27.647L423.75,26.046L424.473,26.555L425.195,26.333L425.918,27.127L426.641,27.137L427.363,26.297L428.086,26.77L428.809,25.709L429.531,27.587L430.254,26.235L430.977,26.177L431.699,25.751L432.422,25.605L433.145,25.277L433.867,24.361L434.59,24.972L435.313,25.255L436.035,26.17L436.758,24.721L437.48,24.656L438.203,24.801L438.926,24.565L439.648,24.311L440.371,24.313L441.094,24.029L441.816,23.552L442.539,23.336L443.262,22.924L443.984,23.068L444.707,23.609L445.43,22.161L446.152,22.356L446.875,22.871L447.598,22.562L448.32,22.113L449.043,22.632L449.766,22.053L450.488,22.054L451.211,21.873L451.934,21.696L452.656,21.334L453.379,21.866L454.102,21.575L454.824,21.339L455.547,21.243L456.27,21.355L456.992,21.424L457.715,21.133L458.438,21.353L459.16,21.164L459.883,21.238L460.605,21.096L461.328,20.945L462.051,21.08L462.773,20.85L463.496,21.065L464.219,21.075L464.941,21.107L465.664,20.831L466.387,20.795L467.109,20.793L467.832,20.743L468.555,20.746L469.277,20.717"/><path fill="none" stroke="rgb(63, 243, 147)" stroke-width="1.5" d="M100,79.143L100.723,79.091L101.445,79.365L102.168,79.485L102.891,79.658L103.613,79.774L104.336,79.895L105.059,80.141L105.781,80.169L106.504,80.402L107.227,80.539L107.949,80.66L108.672,80.803L109.395,80.99L110.117,81.201L110.84,81.27L111.563,81.477L112.285,81.687L113.008,81.94L113.73,82.062L114.453,82.216L115.176,82.548L115.898,82.538L116.621,82.797L117.344,83.055L118.066,83.314L118.789,83.508L119.512,83.678L120.234,83.922L120.957,84.069L121.68,84.327L122.402,84.546L123.125,84.604L123.848,84.991L124.57,85.301L125.293,85.534L126.016,85.824L126.738,86.014L127.461,86.241L128.184,86.575L128.906,86.801L129.629,87.1L130.352,87.358L131.074,87.807L131.797,87.953L132.52,88.265L133.242,88.705L133.965,88.836L134.688,89.204L135.41,89.456L136.133,89.834L136.855,90.272L137.578,90.566L138.301,90.893L139.023,91.296L139.746,91.692L140.469,91.9L141.191,92.23L141.914,92.724L142.637,93.17L143.359,93.479L144.082,93.97L144.805,94.283L145.527,94.833L146.25,95.121L146.973,95.504L147.695,96.075L148.418,96.518L149.141,96.904L149.863,97.403L150.586,97.932L151.309,98.253L152.031,98.806L152.754,99.328L153.477,99.74L154.199,100.425L154.922,100.882L155.645,101.531L156.367,101.889L157.09,102.507L157.813,103.139L158.535,103.703L159.258,104.358L159.98,104.873L160.703,105.697L161.426,106.184L162.148,106.895L162.871,107.613L163.594,108.22L164.316,108.937L165.039,109.677L165.762,110.396L166.484,110.904L167.207,111.727L167.93,112.414L168.652,113.126L169.375,113.88L170.098,114.735L170.82,115.453L171.543,116.235L172.266,117.159L172.988,117.95L173.711,118.771L174.434,119.682L175.156,120.419L175.879,121.23L176.602,122.44L177.324,123.228L178.047,124.341L178.77,125.264L179.492,125.926L180.215,127.047L180.938,128.125L181.66,128.972L182.383,130.111L183.105,131.171L183.828,132.052L184.551,133.239L185.273,134.353L185.996,135.223L186.719,136.467L187.441,137.609L188.164,138.575L188.887,139.572L189.609,140.667L190.332,141.911L191.055,142.903L191.777,143.999L192.5,145.359L193.223,146.314L193.945,147.458L194.668,148.585L195.391,149.511L196.113,150.861L196.836,151.79L197.559,152.947L198.281,153.905L199.004,155.069L199.727,156.115L200.449,156.997L201.172,158.121L201.895,159.031L202.617,160.021L203.34,160.622L204.063,161.687L204.785,162.753L205.508,163.334L206.23,164.284L206.953,164.968L207.676,165.619L208.398,166.18L209.121,166.833L209.844,167.515L210.566,167.836L211.289,168.564L212.012,168.755L212.734,169.149L213.457,169.619L214.18,169.643L214.902,169.818L215.625,170.06L216.348,170.015L217.07,170.128L217.793,169.955L218.516,169.961L219.238,169.613L219.961,169.427L220.684,169.26L221.406,168.775L222.129,168.133L222.852,167.675L223.574,167.094L224.297,166.317L225.02,165.645L225.742,165.103L226.465,164.083L227.188,163.147L227.91,162.152L228.633,161.114L229.355,160.071L230.078,159.029L230.801,157.722L231.523,156.473L232.246,155.244L232.969,153.961L233.691,152.576L234.414,150.903L235.137,149.565L235.859,147.911L236.582,146.378L237.305,144.551L238.027,142.988L238.75,141.429L239.473,139.619L240.195,137.856L240.918,136.212L241.641,134.452L242.363,132.409L243.086,130.787L243.809,128.71L244.531,126.994L245.254,125.358L245.977,123.301L246.699,121.403L247.422,119.443L248.145,117.673L248.867,115.7L249.59,113.891L250.313,111.985L251.035,109.883L251.758,108.107L252.48,106.241L253.203,104.364L253.926,102.355L254.648,100.704L255.371,98.85L256.094,97.09L256.816,95.25L257.539,93.27L258.262,91.636L258.984,89.882L259.707,88.045L260.43,86.294L261.152,84.562L261.875,82.806L262.598,81.08L263.32,79.385L264.043,77.707L264.766,76.062L265.488,74.593L266.211,73.072L266.934,71.659L267.656,70.101L268.379,68.744L269.102,67.363L269.824,65.866L270.547,64.896L271.27,63.559L271.992,62.039L272.715,61.004L273.438,59.867L274.16,58.545L274.883,57.584L275.605,56.358L276.328,55.31L277.051,54.173L277.773,53.111L278.496,52.134L279.219,50.999L279.941,50.069L280.664,49.161L281.387,48.219L282.109,47.272L282.832,46.276L283.555,47.636L284.277,50.24L285,52.868L285.723,55.247L286.445,57.956L287.168,60.462L287.891,61.359L288.613,61.179L289.336,60.849L290.059,60.602L290.781,60.05L291.504,59.743L292.227,59.456L292.949,58.922L293.672,58.48L294.395,58.215L295.117,57.865L295.84,57.382L296.563,56.91L297.285,56.431L298.008,56.209L298.73,55.873L299.453,55.175L300.176,54.823L300.898,54.405L301.621,53.904L302.344,53.394L303.066,52.979L303.789,52.457L304.512,51.969L305.234,51.462L305.957,51.064L306.68,50.588L307.402,50.054L308.125,49.646L308.848,48.931L309.57,48.731L310.293,48.026L311.016,47.615L311.738,46.891L312.461,46.536L313.184,45.95L313.906,45.491L314.629,45.079L315.352,44.421L316.074,43.938L316.797,43.442L317.52,42.928L318.242,42.45L318.965,41.965L319.688,41.774L320.41,40.907L321.133,40.346L321.855,39.991L322.578,39.36L323.301,38.965L324.023,38.507L324.746,38.024L325.469,37.586L326.191,37.057L326.914,36.58L327.637,36.443L328.359,35.7L329.082,35.531L329.805,34.82L330.527,34.429L331.25,34.403L331.973,33.851L332.695,33.503L333.418,32.628L334.141,32.636L334.863,32.266L335.586,31.879L336.309,31.733L337.031,31.175L337.754,30.925L338.477,30.641L339.199,30.332L339.922,30.015L340.645,29.533L341.367,29.39L342.09,29.203L342.813,28.721L343.535,28.786L344.258,28.292L344.98,27.978L345.703,27.844L346.426,27.539L347.148,27.346L347.871,27.156L348.594,26.71L349.316,26.702L350.039,26.275L350.762,26.113L351.484,25.966L352.207,25.685L352.93,25.514L353.652,25.604L354.375,24.993L355.098,25.243L355.82,25.203L356.543,25.379L357.266,24.896L357.988,24.159L358.711,24.315L359.434,24.179L360.156,24.148L360.879,23.381L361.602,24.353L362.324,23.705L363.047,23.777L363.77,23.548L364.492,23.699L365.215,23.822L365.938,22.869L366.66,23.149L367.383,23.46L368.105,23.074L368.828,23.03L369.551,23.018L370.273,21.944L370.996,23.038L371.719,22.342L372.441,22.671L373.164,21.742L373.887,22.266L374.609,23.15L375.332,22.044L376.055,21.916L376.777,22.031L377.5,22.421L378.223,22.417L378.945,21.711L379.668,20.752L380.391,21.918L381.113,21.91L381.836,21.643L382.559,22.181L383.281,22.025L384.004,21.66L384.727,20.767L385.449,22.249L386.172,20.567L386.895,21.423L387.617,21.621L388.34,20.658L389.063,21.653L389.785,21.774L390.508,21.219L391.23,21.384L391.953,21.706L392.676,21.121L393.398,20.695L394.121,21.558L394.844,20.622L395.566,20.789L396.289,20.946L397.012,22.256L397.734,22.102L398.457,21.746L399.18,20.301L399.902,21.224L400.625,21.358L401.348,20.284L402.07,20.569L402.793,21.486L403.516,22.667L404.238,21.789L404.961,21.932L405.684,21.277L406.406,22.151L407.129,21.249L407.852,20.957L408.574,21.513L409.297,20.711L410.02,22.766L410.742,20.469L411.465,22.484L412.188,22.713L412.91,22.263L413.633,22.465L414.355,22.489L415.078,23.235L415.801,20.598L416.523,22.68L417.246,23.609L417.969,21.168L418.691,21.426L419.414,22.184L420.137,22.521L420.859,22.35L421.582,20.939L422.305,25.142L423.027,23.704L423.75,24.003L424.473,21.67L425.195,22.382L425.918,22.259L426.641,21.692L427.363,22.092L428.086,21.709L428.809,22.54L429.531,23.549L430.254,22.548L430.977,22.559L431.699,22.086L432.422,22.129L433.145,21.073L433.867,22.97L434.59,22.063L435.313,21.664L436.035,22.282L436.758,21.935L437.48,22.738L438.203,21.697L438.926,21.416L439.648,22.008L440.371,22.071L441.094,21.475L441.816,20.791L442.539,21.407L443.262,21.529L443.984,21.813L444.707,21.471L445.43,21.44L446.152,21.902L446.875,21.289L447.598,20.883L448.32,20.906L449.043,21.68L449.766,21.216L450.488,21.024L451.211,21.142L451.934,20.994L452.656,20.909L453.379,20.972L454.102,20.756L454.824,20.8L455.547,20.825L456.27,20.998L456.992,20.971L457.715,20.669L458.438,20.598L459.16,20.526L459.883,20.885L460.605,20.708L461.328,20.641L462.051,20.745L462.773,20.776L463.496,20.748L464.219,20.704L464.941,20.692L465.664,20.696L466.387,20.695L467.109,20.615L467.832,20.716L468.555,20.576L469.277,20.55"/><path fill="none" stroke="rgb(149, 251, 81)" stroke-width="1.5" d="M100,76.483L100.723,76.582L101.445,76.648L102.168,76.792L102.891,76.9L103.613,77.13L104.336,77.16L105.059,77.173L105.781,77.339L106.504,77.548L107.227,77.74L107.949,77.799L108.672,78.031L109.395,78.119L110.117,78.322L110.84,78.448L111.563,78.494L112.285,78.675L113.008,78.8L113.73,78.995L114.453,79.08L115.176,79.344L115.898,79.48L116.621,79.645L117.344,79.865L118.066,80.123L118.789,80.117L119.512,80.435L120.234,80.508L120.957,80.809L121.68,80.973L122.402,81.077L123.125,81.41L123.848,81.577L124.57,81.742L125.293,81.947L126.016,82.17L126.738,82.344L127.461,82.584L128.184,82.834L128.906,83.17L129.629,83.316L130.352,83.534L131.074,83.854L131.797,84.054L132.52,84.299L133.242,84.58L133.965,84.79L134.688,85.008L135.41,85.374L136.133,85.631L136.855,85.84L137.578,86.124L138.301,86.41L139.023,86.752L139.746,87.011L140.469,87.378L141.191,87.562L141.914,87.939L142.637,88.244L143.359,88.658L144.082,88.947L144.805,89.297L145.527,89.683L146.25,89.895L146.973,90.31L147.695,90.694L148.418,91.081L149.141,91.479L149.863,91.712L150.586,92.284L151.309,92.657L152.031,92.899L152.754,93.377L153.477,93.82L154.199,94.274L154.922,94.68L155.645,95.019L156.367,95.641L157.09,95.988L157.813,96.416L158.535,96.823L159.258,97.266L159.98,97.677L160.703,98.37L161.426,98.794L162.148,99.328L162.871,99.787L163.594,100.353L164.316,101.019L165.039,101.418L165.762,101.997L166.484,102.456L167.207,103.101L167.93,103.659L168.652,104.084L169.375,104.676L170.098,105.328L170.82,105.971L171.543,106.442L172.266,107.291L172.988,107.777L173.711,108.366L174.434,108.927L175.156,109.539L175.879,110.129L176.602,110.778L177.324,111.499L178.047,112.15L178.77,112.905L179.492,113.392L180.215,114.038L180.938,114.767L181.66,115.369L182.383,116.104L183.105,116.606L183.828,117.425L184.551,117.992L185.273,118.678L185.996,119.298L186.719,119.899L187.441,120.627L188.164,121.041L188.887,121.789L189.609,122.418L190.332,122.952L191.055,123.584L191.777,124.07L192.5,124.794L193.223,125.385L193.945,125.852L194.668,126.361L195.391,126.813L196.113,127.263L196.836,127.706L197.559,128.051L198.281,128.501L199.004,128.884L199.727,129.263L200.449,129.582L201.172,129.758L201.895,130.035L202.617,130.336L203.34,130.305L204.063,130.553L204.785,130.459L205.508,130.702L206.23,130.566L206.953,130.669L207.676,130.593L208.398,130.322L209.121,130.195L209.844,129.923L210.566,129.839L211.289,129.417L212.012,128.931L212.734,128.578L213.457,128.043L214.18,127.699L214.902,127.17L215.625,126.42L216.348,125.839L217.07,124.946L217.793,124.333L218.516,123.543L219.238,122.891L219.961,121.755L220.684,120.844L221.406,119.938L222.129,118.909L222.852,117.948L223.574,116.776L224.297,115.581L225.02,114.589L225.742,113.275L226.465,111.922L227.188,110.626L227.91,109.403L228.633,108.194L229.355,106.741L230.078,105.567L230.801,103.981L231.523,102.573L232.246,101.236L232.969,99.759L233.691,98.318L234.414,96.953L235.137,95.548L235.859,93.928L236.582,92.232L237.305,90.696L238.027,89.305L238.75,87.656L239.473,86.245L240.195,84.711L240.918,83.288L241.641,81.576L242.363,80.032L243.086,78.485L243.809,76.906L244.531,75.436L245.254,73.92L245.977,72.438L246.699,70.871L247.422,69.394L248.145,67.937L248.867,66.556L249.59,64.896L250.313,63.395L251.035,61.986L251.758,60.453L252.48,59.085L253.203,57.655L253.926,56.266L254.648,55.067L255.371,53.749L256.094,52.466L256.816,51.238L257.539,50.136L258.262,48.869L258.984,47.772L259.707,46.538L260.43,45.517L261.152,44.663L261.875,43.584L262.598,42.525L263.32,41.805L264.043,40.934L264.766,40.084L265.488,39.222L266.211,38.415L266.934,37.737L267.656,36.8L268.379,36.263L269.102,35.615L269.824,34.945L270.547,34.348L271.27,33.761L271.992,33.325L272.715,32.575L273.438,32.224L274.16,34.524L274.883,37.437L275.605,40.345L276.328,43.329L277.051,46.268L277.773,49.311L278.496,50.252L279.219,50.374L279.941,50.435L280.664,50.565L281.387,50.703L282.109,50.619L282.832,50.499L283.555,50.606L284.277,50.662L285,50.721L285.723,50.775L286.445,50.629L287.168,50.866L287.891,50.622L288.613,50.784L289.336,50.524L290.059,50.644L290.781,50.635L291.504,50.28L292.227,50.39L292.949,50.301L293.672,50.14L294.395,50.131L295.117,49.962L295.84,49.97L296.563,49.714L297.285,49.645L298.008,49.59L298.73,49.247L299.453,49.054L300.176,49.109L300.898,48.91L301.621,48.683L302.344,48.415L303.066,48.314L303.789,47.846L304.512,47.587L305.234,47.515L305.957,47.163L306.68,46.949L307.402,46.716L308.125,46.333L308.848,46.108L309.57,45.821L310.293,45.447L311.016,45.295L311.738,44.919L312.461,44.659L313.184,44.201L313.906,44.054L314.629,43.553L315.352,43.124L316.074,42.779L316.797,42.403L317.52,42.054L318.242,41.639L318.965,41.273L319.688,40.891L320.41,40.578L321.133,40.161L321.855,39.696L322.578,39.438L323.301,39.046L324.023,38.59L324.746,38.132L325.469,37.825L326.191,37.459L326.914,37.012L327.637,36.636L328.359,36.25L329.082,35.862L329.805,35.596L330.527,35.066L331.25,34.843L331.973,34.449L332.695,34.024L333.418,33.719L334.141,33.407L334.863,32.99L335.586,32.721L336.309,32.283L337.031,31.991L337.754,31.687L338.477,31.344L339.199,30.968L339.922,30.634L340.645,30.433L341.367,30.177L342.09,29.839L342.813,29.596L343.535,29.24L344.258,29.071L344.98,28.885L345.703,28.499L346.426,28.211L347.148,27.967L347.871,27.722L348.594,27.548L349.316,27.37L350.039,27.137L350.762,26.901L351.484,26.607L352.207,26.532L352.93,26.276L353.652,26.015L354.375,25.888L355.098,25.74L355.82,25.632L356.543,25.376L357.266,25.259L357.988,25.009L358.711,24.917L359.434,24.853L360.156,24.591L360.879,24.46L361.602,24.357L362.324,24.26L363.047,24.071L363.77,24.051L364.492,23.869L365.215,23.664L365.938,23.609L366.66,23.511L367.383,23.472L368.105,23.361L368.828,23.174L369.551,23.06L370.273,23.019L370.996,22.94L371.719,22.851L372.441,22.793L373.164,22.676L373.887,22.63L374.609,22.542L375.332,22.456L376.055,22.409L376.777,22.352L377.5,22.327L378.223,22.221L378.945,22.224L379.668,22.109L380.391,22.073L381.113,21.989L381.836,21.933L382.559,21.936L383.281,21.772L384.004,21.736L384.727,21.794L385.449,21.699L386.172,21.649L386.895,21.552L387.617,21.648L388.34,21.501L389.063,21.443L389.785,21.471L390.508,21.467L391.23,21.433L391.953,21.332L392.676,21.346L393.398,21.315L394.121,21.27L394.844,21.303L395.566,21.247L396.289,21.188L397.012,21.166L397.734,21.127L398.457,21.189L399.18,21.12L399.902,21.044L400.625,21.081L401.348,21.059L402.07,21.065L402.793,20.996L403.516,20.987L404.238,21.015L404.961,20.916L405.684,20.911L406.406,20.895L407.129,20.906L407.852,20.905L408.574,20.877L409.297,20.926L410.02,20.883L410.742,20.815L411.465,20.813L412.188,20.822L412.91,20.828L413.633,20.762L414.355,20.761L415.078,20.756L415.801,20.773L416.523,20.769L417.246,20.724L417.969,20.745L418.691,20.721L419.414,20.727L420.137,20.736L420.859,20.728L421.582,20.721L422.305,20.689L423.027,20.646L423.75,20.664L424.473,20.682L425.195,20.658L425.918,20.66L426.641,20.666L427.363,20.679L428.086,20.632L428.809,20.613L429.531,20.621L430.254,20.639L430.977,20.667L431.699,20.619L432.422,20.641L433.145,20.632L433.867,20.63L434.59,20.631L435.313,20.601L436.035,20.612L436.758,20.581L437.48,20.588L438.203,20.596L438.926,20.589L439.648,20.585L440.371,20.589L441.094,20.595L441.816,20.567L442.539,20.568L443.262,20.596L443.984,20.595L444.707,20.56L445.43,20.569L446.152,20.59L446.875,20.568L447.598,20.557L448.32,20.565L449.043,20.575L449.766,20.568L450.488,20.56L451.211,20.552L451.934,20.561L452.656,20.554L453.379,20.557L454.102,20.559L454.824,20.542L455.547,20.548L456.27,20.533L456.992,20.551L457.715,20.559L458.438,20.548L459.16,20.542L459.883,20.545L460.605,20.536L461.328,20.535L462.051,20.536L462.773,20.545L463.496,20.542L464.219,20.54L464.941,20.531L465.664,20.536L466.387,20.534L467.109,20.531L467.832,20.524L468.555,20.531L469.277,20.531"/><path fill="none" stroke="rgb(236, 209, 46)" stroke-width="1.5" d="M100,72.227L100.723,72.477L101.445,72.639L102.168,72.701L102.891,72.762L103.613,72.84L104.336,73.077L105.059,72.969L105.781,73.116L106.504,73.283L107.227,73.349L107.949,73.486L108.672,73.606L109.395,73.66L110.117,73.797L110.84,73.941L111.563,74.067L112.285,74.178L113.008,74.327L113.73,74.427L114.453,74.522L115.176,74.613L115.898,74.82L116.621,74.844L117.344,75.025L118.066,75.23L118.789,75.309L119.512,75.507L120.234,75.554L120.957,75.854L121.68,76.053L122.402,76.275L123.125,76.381L123.848,76.473L124.57,76.699L125.293,76.858L126.016,76.932L126.738,77.028L127.461,77.289L128.184,77.587L128.906,77.697L129.629,77.855L130.352,77.975L131.074,78.263L131.797,78.386L132.52,78.585L133.242,78.74L133.965,78.823L134.688,79.369L135.41,79.466L136.133,79.703L136.855,79.977L137.578,80.044L138.301,80.387L139.023,80.541L139.746,80.693L140.469,80.896L141.191,81.239L141.914,81.52L142.637,81.786L143.359,81.942L144.082,82.128L144.805,82.527L145.527,82.57L146.25,82.986L146.973,83.133L147.695,83.532L148.418,83.684L149.141,84.081L149.863,84.333L150.586,84.506L151.309,84.855L152.031,85.198L152.754,85.421L153.477,85.805L154.199,86.157L154.922,86.372L155.645,86.744L156.367,87.043L157.09,87.297L157.813,87.488L158.535,88.001L159.258,88.312L159.98,88.656L160.703,89.009L161.426,89.251L162.148,89.684L162.871,89.893L163.594,90.35L164.316,90.564L165.039,91.05L165.762,91.233L166.484,91.524L167.207,91.926L167.93,92.349L168.652,92.499L169.375,92.959L170.098,93.378L170.82,93.684L171.543,94.113L172.266,94.383L172.988,94.692L173.711,94.848L174.434,95.158L175.156,95.626L175.879,95.818L176.602,95.975L177.324,96.491L178.047,96.673L178.77,96.961L179.492,97.106L180.215,97.465L180.938,97.718L181.66,97.917L182.383,98.102L183.105,98.319L183.828,98.601L184.551,98.624L185.273,98.896L185.996,98.899L186.719,99.1L187.441,99.184L188.164,99.271L188.887,99.341L189.609,99.421L190.332,99.421L191.055,99.369L191.777,99.323L192.5,99.214L193.223,99.215L193.945,99.013L194.668,98.97L195.391,98.73L196.113,98.501L196.836,98.253L197.559,97.859L198.281,97.577L199.004,97.223L199.727,96.685L200.449,96.256L201.172,95.838L201.895,95.277L202.617,94.672L203.34,94.017L204.063,93.487L204.785,92.853L205.508,92.078L206.23,91.416L206.953,90.584L207.676,89.867L208.398,89.073L209.121,88.292L209.844,87.353L210.566,86.379L211.289,85.343L212.012,84.484L212.734,83.668L213.457,82.515L214.18,81.48L214.902,80.499L215.625,79.365L216.348,78.201L217.07,77.251L217.793,76.154L218.516,75.111L219.238,73.82L219.961,72.725L220.684,71.726L221.406,70.5L222.129,69.231L222.852,68.141L223.574,66.947L224.297,65.74L225.02,64.62L225.742,63.337L226.465,62.245L227.188,61.069L227.91,59.894L228.633,58.704L229.355,57.512L230.078,56.421L230.801,55.23L231.523,54.083L232.246,53.073L232.969,51.752L233.691,50.601L234.414,49.468L235.137,48.372L235.859,47.276L236.582,46.175L237.305,45.128L238.027,44.142L238.75,43.056L239.473,42.158L240.195,41.147L240.918,40.094L241.641,39.288L242.363,38.398L243.086,37.568L243.809,36.738L244.531,35.888L245.254,35.023L245.977,34.227L246.699,33.502L247.422,32.793L248.145,31.917L248.867,31.263L249.59,30.674L250.313,30.021L251.035,29.325L251.758,28.691L252.48,28.06L253.203,27.419L253.926,26.847L254.648,26.31L255.371,25.807L256.094,25.178L256.816,24.717L257.539,24.244L258.262,23.786L258.984,23.278L259.707,24.994L260.43,28.06L261.152,31.047L261.875,33.979L262.598,36.975L263.32,39.99L264.043,41.845L264.766,42.031L265.488,42.214L266.211,42.306L266.934,42.569L267.656,42.62L268.379,42.847L269.102,43.06L269.824,43.182L270.547,43.359L271.27,43.494L271.992,43.667L272.715,43.847L273.438,43.973L274.16,44.133L274.883,44.233L275.605,44.417L276.328,44.513L277.051,44.696L277.773,44.877L278.496,44.998L279.219,45.132L279.941,45.277L280.664,45.351L281.387,45.399L282.109,45.563L282.832,45.673L283.555,45.73L284.277,45.8L285,45.87L285.723,45.868L286.445,45.985L287.168,46.061L287.891,46.064L288.613,46.085L289.336,46.208L290.059,46.322L290.781,46.269L291.504,46.172L292.227,46.28L292.949,46.23L293.672,46.281L294.395,46.266L295.117,46.137L295.84,46.195L296.563,46.22L297.285,46.161L298.008,46.074L298.73,46.088L299.453,45.91L300.176,45.893L300.898,45.771L301.621,45.681L302.344,45.56L303.066,45.444L303.789,45.31L304.512,45.256L305.234,45.038L305.957,44.904L306.68,44.791L307.402,44.579L308.125,44.441L308.848,44.236L309.57,44.001L310.293,43.725L311.016,43.646L311.738,43.36L312.461,43.066L313.184,42.83L313.906,42.493L314.629,42.274L315.352,42.044L316.074,41.861L316.797,41.456L317.52,41.095L318.242,40.858L318.965,40.592L319.688,40.286L320.41,39.907L321.133,39.609L321.855,39.225L322.578,38.873L323.301,38.581L324.023,38.247L324.746,37.879L325.469,37.559L326.191,37.056L326.914,36.918L327.637,36.493L328.359,36.202L329.082,35.873L329.805,35.503L330.527,35.139L331.25,34.814L331.973,34.462L332.695,34.076L333.418,33.666L334.141,33.358L334.863,33.113L335.586,32.807L336.309,32.443L337.031,32.071L337.754,31.834L338.477,31.466L339.199,31.178L339.922,30.852L340.645,30.564L341.367,30.281L342.09,29.983L342.813,29.708L343.535,29.45L344.258,29.136L344.98,28.936L345.703,28.638L346.426,28.396L347.148,28.119L347.871,27.884L348.594,27.673L349.316,27.425L350.039,27.216L350.762,27.007L351.484,26.728L352.207,26.614L352.93,26.383L353.652,26.201L354.375,26.009L355.098,25.81L355.82,25.638L356.543,25.479L357.266,25.297L357.988,25.149L358.711,24.969L359.434,24.815L360.156,24.667L360.879,24.518L361.602,24.379L362.324,24.249L363.047,24.111L363.77,23.949L364.492,23.827L365.215,23.706L365.938,23.636L366.66,23.522L367.383,23.416L368.105,23.305L368.828,23.172L369.551,23.123L370.273,23.011L370.996,22.931L371.719,22.825L372.441,22.751L373.164,22.691L373.887,22.625L374.609,22.532L375.332,22.451L376.055,22.383L376.777,22.332L377.5,22.245L378.223,22.164L378.945,22.108L379.668,22.069L380.391,22.024L381.113,21.956L381.836,21.909L382.559,21.867L383.281,21.792L384.004,21.746L384.727,21.717L385.449,21.671L386.172,21.612L386.895,21.556L387.617,21.541L388.34,21.504L389.063,21.488L389.785,21.445L390.508,21.407L391.23,21.371L391.953,21.336L392.676,21.304L393.398,21.278L394.121,21.262L394.844,21.227L395.566,21.202L396.289,21.178L397.012,21.143L397.734,21.131L398.457,21.103L399.18,21.064L399.902,21.048L400.625,21.033L401.348,21.007L402.07,21.01L402.793,20.987L403.516,20.971L404.238,20.94L404.961,20.935L405.684,20.922L406.406,20.894L407.129,20.878L407.852,20.87L408.574,20.847L409.297,20.848L410.02,20.831L410.742,20.829L411.465,20.811L412.188,20.802L412.91,20.781L413.633,20.782L414.355,20.765L415.078,20.765L415.801,20.751L416.523,20.739L417.246,20.738L417.969,20.716L418.691,20.717L419.414,20.711L420.137,20.719L420.859,20.687L421.582,20.685L422.305,20.69L423.027,20.672L423.75,20.676L424.473,20.667L425.195,20.661L425.918,20.655L426.641,20.649L427.363,20.642L428.086,20.635L428.809,20.636L429.531,20.631L430.254,20.628L430.977,20.622L431.699,20.62L432.422,20.619L433.145,20.608L433.867,20.605L434.59,20.603L435.313,20.603L436.035,20.602L436.758,20.597L437.48,20.592L438.203,20.592L438.926,20.586L439.648,20.586L440.371,20.58L441.094,20.579L441.816,20.576L442.539,20.575L443.262,20.575L443.984,20.574L444.707,20.573L445.43,20.564L446.152,20.563L446.875,20.559L447.598,20.563L448.32,20.558L449.043,20.56L449.766,20.557L450.488,20.559L451.211,20.556L451.934,20.551L452.656,20.554L453.379,20.545L454.102,20.552L454.824,20.547L455.547,20.547L456.27,20.545L456.992,20.544L457.715,20.546L458.438,20.544L459.16,20.541L459.883,20.54L460.605,20.54L461.328,20.54L462.051,20.538L462.773,20.536L463.496,20.538L464.219,20.535L464.941,20.538L465.664,20.533L466.387,20.533L467.109,20.532L467.832,20.533L468.555,20.531L469.277,20.532"/><path fill="none" stroke="rgb(255, 130, 29)" stroke-width="1.5" d="M100,63.633L100.723,63.758L101.445,63.832L102.168,63.76L102.891,63.815L103.613,63.87L104.336,64.082L105.059,64.089L105.781,64.083L106.504,64.175L107.227,64.246L107.949,64.286L108.672,64.37L109.395,64.445L110.117,64.435L110.84,64.61L111.563,64.557L112.285,64.65L113.008,64.788L113.73,64.815L114.453,64.996L115.176,65.064L115.898,65.135L116.621,65.151L117.344,65.332L118.066,65.342L118.789,65.47L119.512,65.479L120.234,65.5L120.957,65.607L121.68,65.684L122.402,65.853L123.125,65.884L123.848,66.014L124.57,66.06L125.293,66.141L126.016,66.274L126.738,66.261L127.461,66.374L128.184,66.451L128.906,66.63L129.629,66.682L130.352,66.843L131.074,66.976L131.797,66.966L132.52,67.032L133.242,67.153L133.965,67.257L134.688,67.293L135.41,67.315L136.133,67.466L136.855,67.506L137.578,67.548L138.301,67.647L139.023,67.867L139.746,67.799L140.469,68.004L141.191,68.019L141.914,68.153L142.637,68.212L143.359,68.272L144.082,68.386L144.805,68.517L145.527,68.356L146.25,68.552L146.973,68.574L147.695,68.619L148.418,68.638L149.141,68.602L149.863,68.8L150.586,68.816L151.309,68.733L152.031,68.772L152.754,68.749L153.477,68.789L154.199,68.733L154.922,68.676L155.645,68.811L156.367,68.681L157.09,68.677L157.813,68.497L158.535,68.462L159.258,68.38L159.98,68.291L160.703,68.149L161.426,68.112L162.148,67.838L162.871,67.624L163.594,67.473L164.316,67.353L165.039,67.303L165.762,66.992L166.484,66.837L167.207,66.464L167.93,66.309L168.652,66.123L169.375,65.656L170.098,65.415L170.82,65.243L171.543,64.869L172.266,64.575L172.988,64.272L173.711,63.922L174.434,63.658L175.156,63.14L175.879,62.716L176.602,62.413L177.324,62.074L178.047,61.57L178.77,61.246L179.492,60.765L180.215,60.366L180.938,59.883L181.66,59.604L182.383,59.051L183.105,58.579L183.828,58.285L184.551,57.69L185.273,57.225L185.996,56.842L186.719,56.319L187.441,55.902L188.164,55.417L188.887,54.947L189.609,54.566L190.332,54L191.055,53.609L191.777,53.052L192.5,52.588L193.223,52.111L193.945,51.656L194.668,51.18L195.391,50.646L196.113,50.147L196.836,49.558L197.559,49.055L198.281,48.486L199.004,48.02L199.727,47.474L200.449,46.868L201.172,46.383L201.895,45.953L202.617,45.21L203.34,44.611L204.063,44.033L204.785,43.558L205.508,42.862L206.23,42.206L206.953,41.8L207.676,41.205L208.398,40.5L209.121,39.858L209.844,39.256L210.566,38.763L211.289,38.044L212.012,37.549L212.734,36.834L213.457,36.269L214.18,35.73L214.902,35.186L215.625,34.615L216.348,33.98L217.07,33.552L217.793,32.95L218.516,32.408L219.238,31.857L219.961,31.331L220.684,30.929L221.406,30.354L222.129,29.86L222.852,29.42L223.574,28.957L224.297,28.414L225.02,28.019L225.742,27.532L226.465,27.031L227.188,26.603L227.91,26.2L228.633,25.844L229.355,25.435L230.078,24.935L230.801,24.513L231.523,24.172L232.246,23.743L232.969,23.294L233.691,22.89L234.414,22.635L235.137,22.28L235.859,21.762L236.582,21.384L237.305,22.298L238.027,25.381L238.75,28.433L239.473,31.547L240.195,34.55L240.918,37.618L241.641,40.154L242.363,40.392L243.086,40.522L243.809,40.63L244.531,40.954L245.254,41.016L245.977,41.173L246.699,41.327L247.422,41.552L248.145,41.574L248.867,41.693L249.59,41.889L250.313,41.956L251.035,42.062L251.758,42.105L252.48,42.176L253.203,42.293L253.926,42.434L254.648,42.5L255.371,42.611L256.094,42.695L256.816,42.736L257.539,42.793L258.262,42.761L258.984,42.911L259.707,43.019L260.43,43.08L261.152,43.149L261.875,43.178L262.598,43.319L263.32,43.342L264.043,43.455L264.766,43.376L265.488,43.601L266.211,43.69L266.934,43.752L267.656,43.858L268.379,43.817L269.102,43.974L269.824,44.089L270.547,44.175L271.27,44.212L271.992,44.339L272.715,44.451L273.438,44.571L274.16,44.615L274.883,44.758L275.605,44.836L276.328,44.929L277.051,45.004L277.773,45.025L278.496,45.15L279.219,45.21L279.941,45.363L280.664,45.389L281.387,45.457L282.109,45.566L282.832,45.518L283.555,45.64L284.277,45.662L285,45.695L285.723,45.751L286.445,45.77L287.168,45.958L287.891,45.899L288.613,45.934L289.336,46.029L290.059,45.934L290.781,45.943L291.504,45.967L292.227,46L292.949,45.953L293.672,45.973L294.395,46.021L295.117,45.896L295.84,45.994L296.563,45.919L297.285,45.893L298.008,45.719L298.73,45.751L299.453,45.659L300.176,45.606L300.898,45.622L301.621,45.401L302.344,45.467L303.066,45.277L303.789,45.152L304.512,45.107L305.234,44.878L305.957,44.821L306.68,44.695L307.402,44.625L308.125,44.363L308.848,44.249L309.57,44.137L310.293,43.841L311.016,43.63L311.738,43.536L312.461,43.372L313.184,43.037L313.906,42.747L314.629,42.528L315.352,42.36L316.074,42.127L316.797,41.796L317.52,41.482L318.242,41.263L318.965,41.003L319.688,40.723L320.41,40.429L321.133,40.175L321.855,39.827L322.578,39.497L323.301,39.272L324.023,38.882L324.746,38.543L325.469,38.208L326.191,37.91L326.914,37.663L327.637,37.188L328.359,36.99L329.082,36.501L329.805,36.252L330.527,35.888L331.25,35.535L331.973,35.201L332.695,34.838L333.418,34.528L334.141,34.292L334.863,33.903L335.586,33.61L336.309,33.244L337.031,32.882L337.754,32.524L338.477,32.203L339.199,31.942L339.922,31.596L340.645,31.339L341.367,31.068L342.09,30.71L342.813,30.427L343.535,30.198L344.258,29.891L344.98,29.578L345.703,29.384L346.426,29.079L347.148,28.769L347.871,28.573L348.594,28.266L349.316,28.084L350.039,27.785L350.762,27.586L351.484,27.357L352.207,27.146L352.93,26.957L353.652,26.723L354.375,26.498L355.098,26.35L355.82,26.106L356.543,25.932L357.266,25.739L357.988,25.569L358.711,25.404L359.434,25.269L360.156,25.074L360.879,24.959L361.602,24.75L362.324,24.632L363.047,24.541L363.77,24.365L364.492,24.213L365.215,24.101L365.938,23.962L366.66,23.83L367.383,23.733L368.105,23.562L368.828,23.502L369.551,23.399L370.273,23.271L370.996,23.206L371.719,23.091L372.441,23.01L373.164,22.957L373.887,22.839L374.609,22.758L375.332,22.671L376.055,22.605L376.777,22.506L377.5,22.431L378.223,22.393L378.945,22.32L379.668,22.229L380.391,22.173L381.113,22.122L381.836,22.087L382.559,22.01L383.281,21.962L384.004,21.875L384.727,21.888L385.449,21.793L386.172,21.774L386.895,21.716L387.617,21.649L388.34,21.626L389.063,21.583L389.785,21.563L390.508,21.498L391.23,21.489L391.953,21.455L392.676,21.376L393.398,21.389L394.121,21.347L394.844,21.301L395.566,21.291L396.289,21.241L397.012,21.237L397.734,21.216L398.457,21.182L399.18,21.136L399.902,21.126L400.625,21.1L401.348,21.067L402.07,21.057L402.793,21.038L403.516,21.013L404.238,20.999L404.961,20.974L405.684,20.948L406.406,20.941L407.129,20.937L407.852,20.908L408.574,20.914L409.297,20.89L410.02,20.867L410.742,20.854L411.465,20.849L412.188,20.847L412.91,20.824L413.633,20.807L414.355,20.806L415.078,20.783L415.801,20.788L416.523,20.777L417.246,20.759L417.969,20.763L418.691,20.749L419.414,20.742L420.137,20.724L420.859,20.724L421.582,20.716L422.305,20.698L423.027,20.707L423.75,20.687L424.473,20.68L425.195,20.682L425.918,20.664L426.641,20.665L427.363,20.67L428.086,20.662L428.809,20.657L429.531,20.646L430.254,20.638L430.977,20.641L431.699,20.636L432.422,20.625L433.145,20.628L433.867,20.615L434.59,20.615L435.313,20.616L436.035,20.613L436.758,20.607L437.48,20.602L438.203,20.599L438.926,20.596L439.648,20.597L440.371,20.589L441.094,20.593L441.816,20.584L442.539,20.581L443.262,20.586L443.984,20.582L444.707,20.576L445.43,20.575L446.152,20.57L446.875,20.568L447.598,20.566L448.32,20.565L449.043,20.56L449.766,20.566L450.488,20.563L451.211,20.562L451.934,20.559L452.656,20.557L453.379,20.557L454.102,20.554L454.824,20.552L455.547,20.554L456.27,20.546L456.992,20.546L457.715,20.545L458.438,20.542L459.16,20.544L459.883,20.544L460.605,20.54L461.328,20.542L462.051,20.538L462.773,20.538L463.496,20.538L464.219,20.537L464.941,20.538L465.664,20.537L466.387,20.536L467.109,20.535L467.832,20.533L468.555,20.532L469.277,20.531"/><path fill="none" stroke="rgb(203, 47, 13)" stroke-width="1.5" d="M100,44.928L100.723,44.854L101.445,44.806L102.168,44.583L102.891,44.633L103.613,44.46L104.336,44.353L105.059,44.325L105.781,44.138L106.504,44.141L107.227,43.981L107.949,43.979L108.672,43.834L109.395,43.778L110.117,43.643L110.84,43.619L111.563,43.478L112.285,43.375L113.008,43.213L113.73,43.227L114.453,43.028L115.176,42.747L115.898,42.82L116.621,42.592L117.344,42.48L118.066,42.38L118.789,42.334L119.512,42.225L120.234,42.188L120.957,41.959L121.68,41.895L122.402,41.76L123.125,41.611L123.848,41.413L124.57,41.389L125.293,41.286L126.016,41.101L126.738,40.929L127.461,40.814L128.184,40.718L128.906,40.517L129.629,40.256L130.352,40.288L131.074,40.046L131.797,39.976L132.52,39.91L133.242,39.631L133.965,39.554L134.688,39.302L135.41,39.259L136.133,38.956L136.855,38.879L137.578,38.72L138.301,38.487L139.023,38.489L139.746,38.253L140.469,38.182L141.191,37.886L141.914,37.68L142.637,37.506L143.359,37.381L144.082,37.287L144.805,37.09L145.527,37.035L146.25,36.805L146.973,36.585L147.695,36.552L148.418,36.332L149.141,36.142L149.863,35.953L150.586,35.772L151.309,35.676L152.031,35.461L152.754,35.139L153.477,35.093L154.199,34.873L154.922,34.666L155.645,34.516L156.367,34.316L157.09,34.185L157.813,33.944L158.535,33.753L159.258,33.616L159.98,33.389L160.703,33.147L161.426,33.075L162.148,32.845L162.871,32.72L163.594,32.551L164.316,32.364L165.039,32.258L165.762,31.978L166.484,31.812L167.207,31.673L167.93,31.447L168.652,31.254L169.375,31.002L170.098,30.869L170.82,30.766L171.543,30.587L172.266,30.457L172.988,30.14L173.711,29.98L174.434,29.825L175.156,29.639L175.879,29.427L176.602,29.296L177.324,29.13L178.047,28.916L178.77,28.744L179.492,28.617L180.215,28.49L180.938,28.318L181.66,28.064L182.383,27.869L183.105,27.677L183.828,27.406L184.551,27.433L185.273,27.166L185.996,27.072L186.719,26.892L187.441,26.863L188.164,26.603L188.887,26.275L189.609,26.26L190.332,26.141L191.055,25.96L191.777,25.707L192.5,25.574L193.223,25.441L193.945,25.34L194.668,25.15L195.391,25.029L196.113,24.712L196.836,24.624L197.559,24.406L198.281,24.272L199.004,24.001L199.727,23.719L200.449,23.569L201.172,23.386L201.895,23.276L202.617,23.023L203.34,22.843L204.063,22.674L204.785,22.421L205.508,22.245L206.23,22.042L206.953,21.744L207.676,21.554L208.398,21.451L209.121,21.139L209.844,20.879L210.566,20.636L211.289,20.491L212.012,20.197L212.734,20.012L213.457,21.132L214.18,24.309L214.902,27.545L215.625,30.644L216.348,33.918L217.07,37.083L217.793,39.552L218.516,39.987L219.238,40.25L219.961,40.5L220.684,40.864L221.406,41.173L222.129,41.486L222.852,41.703L223.574,41.977L224.297,42.212L225.02,42.405L225.742,42.71L226.465,42.868L227.188,43.16L227.91,43.47L228.633,43.538L229.355,43.756L230.078,44.007L230.801,44.262L231.523,44.308L232.246,44.513L232.969,44.635L233.691,44.869L234.414,45.003L235.137,45.188L235.859,45.251L236.582,45.408L237.305,45.565L238.027,45.626L238.75,45.733L239.473,45.805L240.195,46.009L240.918,46.074L241.641,46.147L242.363,46.232L243.086,46.29L243.809,46.46L244.531,46.406L245.254,46.477L245.977,46.585L246.699,46.571L247.422,46.704L248.145,46.586L248.867,46.701L249.59,46.756L250.313,46.83L251.035,46.888L251.758,46.756L252.48,46.875L253.203,46.85L253.926,46.831L254.648,46.91L255.371,46.923L256.094,46.928L256.816,46.939L257.539,46.923L258.262,46.967L258.984,46.925L259.707,46.963L260.43,46.962L261.152,47.044L261.875,47.043L262.598,47.05L263.32,47.02L264.043,46.944L264.766,47.042L265.488,47.187L266.211,47.182L266.934,47.182L267.656,47.182L268.379,47.175L269.102,47.323L269.824,47.346L270.547,47.433L271.27,47.409L271.992,47.477L272.715,47.508L273.438,47.532L274.16,47.514L274.883,47.687L275.605,47.717L276.328,47.803L277.051,47.846L277.773,47.912L278.496,47.919L279.219,47.911L279.941,47.974L280.664,48.08L281.387,48.062L282.109,48.078L282.832,48.058L283.555,48.113L284.277,48.156L285,48.15L285.723,48.191L286.445,48.201L287.168,48.227L287.891,48.245L288.613,48.235L289.336,48.182L290.059,48.178L290.781,48.189L291.504,48.151L292.227,48.036L292.949,48.07L293.672,48.03L294.395,48.13L295.117,47.973L295.84,48.049L296.563,47.869L297.285,47.788L298.008,47.783L298.73,47.585L299.453,47.582L300.176,47.616L300.898,47.432L301.621,47.445L302.344,47.152L303.066,47.067L303.789,47.02L304.512,46.827L305.234,46.752L305.957,46.518L306.68,46.624L307.402,46.192L308.125,46.195L308.848,45.89L309.57,45.832L310.293,45.601L311.016,45.292L311.738,45.137L312.461,44.971L313.184,44.742L313.906,44.56L314.629,44.265L315.352,43.956L316.074,43.723L316.797,43.495L317.52,43.106L318.242,42.778L318.965,42.559L319.688,42.364L320.41,41.99L321.133,41.614L321.855,41.311L322.578,41.03L323.301,40.751L324.023,40.383L324.746,40.116L325.469,39.782L326.191,39.347L326.914,38.97L327.637,38.632L328.359,38.335L329.082,37.914L329.805,37.598L330.527,37.089L331.25,36.847L331.973,36.449L332.695,36.147L333.418,35.843L334.141,35.445L334.863,35.093L335.586,34.735L336.309,34.449L337.031,34.035L337.754,33.68L338.477,33.39L339.199,33.027L339.922,32.745L340.645,32.416L341.367,32.042L342.09,31.702L342.813,31.413L343.535,31.034L344.258,30.85L344.98,30.478L345.703,30.247L346.426,29.968L347.148,29.688L347.871,29.414L348.594,29.135L349.316,28.843L350.039,28.62L350.762,28.394L351.484,28.101L352.207,27.885L352.93,27.633L353.652,27.37L354.375,27.159L355.098,26.943L355.82,26.801L356.543,26.563L357.266,26.347L357.988,26.146L358.711,25.938L359.434,25.853L360.156,25.613L360.879,25.433L361.602,25.269L362.324,25.158L363.047,24.984L363.77,24.831L364.492,24.688L365.215,24.545L365.938,24.397L366.66,24.245L367.383,24.079L368.105,24.004L368.828,23.869L369.551,23.777L370.273,23.627L370.996,23.526L371.719,23.422L372.441,23.33L373.164,23.218L373.887,23.133L374.609,23.029L375.332,22.933L376.055,22.822L376.777,22.78L377.5,22.673L378.223,22.608L378.945,22.542L379.668,22.44L380.391,22.387L381.113,22.327L381.836,22.257L382.559,22.19L383.281,22.137L384.004,22.087L384.727,22.02L385.449,21.989L386.172,21.91L386.895,21.867L387.617,21.832L388.34,21.783L389.063,21.728L389.785,21.677L390.508,21.654L391.23,21.606L391.953,21.565L392.676,21.507L393.398,21.49L394.121,21.445L394.844,21.406L395.566,21.368L396.289,21.324L397.012,21.317L397.734,21.299L398.457,21.255L399.18,21.222L399.902,21.199L400.625,21.181L401.348,21.154L402.07,21.139L402.793,21.109L403.516,21.082L404.238,21.069L404.961,21.061L405.684,21.005L406.406,21.004L407.129,20.985L407.852,20.961L408.574,20.952L409.297,20.943L410.02,20.917L410.742,20.91L411.465,20.895L412.188,20.893L412.91,20.868L413.633,20.857L414.355,20.832L415.078,20.833L415.801,20.819L416.523,20.81L417.246,20.79L417.969,20.797L418.691,20.771L419.414,20.762L420.137,20.754L420.859,20.748L421.582,20.741L422.305,20.732L423.027,20.725L423.75,20.716L424.473,20.705L425.195,20.702L425.918,20.702L426.641,20.69L427.363,20.69L428.086,20.671L428.809,20.669L429.531,20.668L430.254,20.669L430.977,20.655L431.699,20.65L432.422,20.647L433.145,20.639L433.867,20.633L434.59,20.63L435.313,20.634L436.035,20.624L436.758,20.623L437.48,20.612L438.203,20.612L438.926,20.61L439.648,20.612L440.371,20.605L441.094,20.599L441.816,20.595L442.539,20.591L443.262,20.594L443.984,20.584L444.707,20.589L445.43,20.582L446.152,20.576L446.875,20.579L447.598,20.575L448.32,20.569L449.043,20.568L449.766,20.57L450.488,20.571L451.211,20.566L451.934,20.563L452.656,20.559L453.379,20.559L454.102,20.562L454.824,20.558L455.547,20.554L456.27,20.558L456.992,20.553L457.715,20.55L458.438,20.552L459.16,20.55L459.883,20.544L460.605,20.545L461.328,20.541L462.051,20.541L462.773,20.544L463.496,20.541L464.219,20.54L464.941,20.542L465.664,20.542L466.387,20.539L467.109,20.538L467.832,20.534L468.555,20.536L469.277,20.536"/><g transform="translate(15,190) scale(1.7) rotate(-90)"><text>Drift</text></g><g transform="translate(315,395) scale(1.8)"><text></text></g><g transform="translate(0,350)" fill="none" font-size="10" font-family="sans-serif" text-anchor="middle"><path class="domain" stroke="currentColor" d="M100,6V0H470V6"/><g class="tick" opacity="1" transform="translate(136.96669666966696,0)"><line stroke="currentColor" y2="6"/><text fill="currentColor" y="9" dy="0.71em" font-size="20px"> </text></g><g class="tick" opacity="1" transform="translate(173.97039703970398,0)"><line stroke="currentColor" y2="6"/><text fill="currentColor" y="9" dy="0.71em" font-size="20px">20</text></g><g class="tick" opacity="1" transform="translate(210.97409740974098,0)"><line stroke="currentColor" y2="6"/><text fill="currentColor" y="9" dy="0.71em" font-size="20px"> </text></g><g class="tick" opacity="1" transform="translate(247.97779777977803,0)"><line stroke="currentColor" y2="6"/><text fill="currentColor" y="9" dy="0.71em" font-size="20px">40</text></g><g class="tick" opacity="1" transform="translate(284.981498149815,0)"><line stroke="currentColor" y2="6"/><text fill="currentColor" y="9" dy="0.71em" font-size="20px"> </text></g><g class="tick" opacity="1" transform="translate(321.985198519852,0)"><line stroke="currentColor" y2="6"/><text fill="currentColor" y="9" dy="0.71em" font-size="20px">60</text></g><g class="tick" opacity="1" transform="translate(358.988898889889,0)"><line stroke="currentColor" y2="6"/><text fill="currentColor" y="9" dy="0.71em" font-size="20px"> </text></g><g class="tick" opacity="1" transform="translate(395.992599259926,0)"><line stroke="currentColor" y2="6"/><text fill="currentColor" y="9" dy="0.71em" font-size="20px">80</text></g><g class="tick" opacity="1" transform="translate(432.996299629963,0)"><line stroke="currentColor" y2="6"/><text fill="currentColor" y="9" dy="0.71em" font-size="20px"> </text></g><g class="tick" opacity="1" transform="translate(470,0)"><line stroke="currentColor" y2="6"/><text fill="currentColor" y="9" dy="0.71em" font-size="20px">100</text></g></g><g transform="translate(100,0)" fill="none" font-size="10" font-family="sans-serif" text-anchor="end"><path class="domain" stroke="currentColor" d="M-6,350H0V20H-6"/><g class="tick" opacity="1" transform="translate(0,325.57747120799206)"><line stroke="currentColor" x2="-6"/><text fill="currentColor" x="-9" dy="0.32em" font-size="20px">0.50</text></g><g class="tick" opacity="1" transform="translate(0,294.019356915453)"><line stroke="currentColor" x2="-6"/><text fill="currentColor" x="-9" dy="0.32em" font-size="20px">0.45</text></g><g class="tick" opacity="1" transform="translate(0,262.46124262291386)"><line stroke="currentColor" x2="-6"/><text fill="currentColor" x="-9" dy="0.32em" font-size="20px">0.40</text></g><g class="tick" opacity="1" transform="translate(0,230.90312833037478)"><line stroke="currentColor" x2="-6"/><text fill="currentColor" x="-9" dy="0.32em" font-size="20px">0.35</text></g><g class="tick" opacity="1" transform="translate(0,199.34501403783568)"><line stroke="currentColor" x2="-6"/><text fill="currentColor" x="-9" dy="0.32em" font-size="20px">0.30</text></g><g class="tick" opacity="1" transform="translate(0,167.78689974529664)"><line stroke="currentColor" x2="-6"/><text fill="currentColor" x="-9" dy="0.32em" font-size="20px">0.25</text></g><g class="tick" opacity="1" transform="translate(0,136.22878545275753)"><line stroke="currentColor" x2="-6"/><text fill="currentColor" x="-9" dy="0.32em" font-size="20px">0.20</text></g><g class="tick" opacity="1" transform="translate(0,104.67067116021848)"><line stroke="currentColor" x2="-6"/><text fill="currentColor" x="-9" dy="0.32em" font-size="20px">0.15</text></g><g class="tick" opacity="1" transform="translate(0,73.11255686767936)"><line stroke="currentColor" x2="-6"/><text fill="currentColor" x="-9" dy="0.32em" font-size="20px">0.10</text></g><g class="tick" opacity="1" transform="translate(0,41.5544425751403)"><line stroke="currentColor" x2="-6"/><text fill="currentColor" x="-9" dy="0.32em" font-size="20px">0.05</text></g></g><circle cx="355" cy="150" r="8" style="fill: rgb(35, 23, 27);"/><circle cx="355" cy="175" r="8" style="fill: rgb(69, 105, 238);"/><circle cx="355" cy="200" r="8" style="fill: rgb(38, 188, 225);"/><circle cx="355" cy="225" r="8" style="fill: rgb(63, 243, 147);"/><circle cx="355" cy="250" r="8" style="fill: rgb(149, 251, 81);"/><circle cx="355" cy="275" r="8" style="fill: rgb(236, 209, 46);"/><circle cx="355" cy="300" r="8" style="fill: rgb(255, 130, 29);"/><circle cx="355" cy="325" r="8" style="fill: rgb(203, 47, 13);"/><text x="370" y="150" text-anchor="left" font-size="22" alignment-baseline="middle" style="fill: rgb(35, 23, 27);"> = 0</text><text x="370" y="175" text-anchor="left" font-size="22" alignment-baseline="middle" style="fill: rgb(69, 105, 238);"> = 0.22</text><text x="370" y="200" text-anchor="left" font-size="22" alignment-baseline="middle" style="fill: rgb(38, 188, 225);"> = 0.45</text><text x="370" y="225" text-anchor="left" font-size="22" alignment-baseline="middle" style="fill: rgb(63, 243, 147);"> = 0.67</text><text x="370" y="250" text-anchor="left" font-size="22" alignment-baseline="middle" style="fill: rgb(149, 251, 81);"> = 0.9</text><text x="370" y="275" text-anchor="left" font-size="22" alignment-baseline="middle" style="fill: rgb(236, 209, 46);"> = 1.12</text><text x="370" y="300" text-anchor="left" font-size="22" alignment-baseline="middle" style="fill: rgb(255, 130, 29);"> = 1.35</text><text x="370" y="325" text-anchor="left" font-size="22" alignment-baseline="middle" style="fill: rgb(203, 47, 13);"> = 1.57</text></svg>