<svg xmlns="http://www.w3.org/2000/svg" class="bg-white" width="500" height="400" viewBox="-10 -1 500 400"><path fill="none" stroke="rgb(35, 23, 27)" stroke-width="1.5" d="M100,76.97L100.723,77.326L101.445,77.246L102.168,77.491L102.891,77.598L103.613,77.787L104.336,78.021L105.059,78.012L105.781,78.264L106.504,78.326L107.227,78.473L107.949,78.881L108.672,78.909L109.395,79.15L110.117,79.307L110.84,79.581L111.563,79.705L112.285,79.871L113.008,79.997L113.73,80.29L114.453,80.352L115.176,80.706L115.898,80.901L116.621,81.063L117.344,81.353L118.066,81.592L118.789,81.721L119.512,81.969L120.234,82.285L120.957,82.427L121.68,82.713L122.402,83.016L123.125,83.321L123.848,83.602L124.57,83.856L125.293,83.911L126.016,84.337L126.738,84.526L127.461,84.882L128.184,85.307L128.906,85.52L129.629,85.815L130.352,85.981L131.074,86.425L131.797,86.796L132.52,87.066L133.242,87.352L133.965,87.823L134.688,88.135L135.41,88.455L136.133,88.788L136.855,89.202L137.578,89.648L138.301,89.976L139.023,90.439L139.746,90.891L140.469,91.222L141.191,91.615L141.914,92.032L142.637,92.368L143.359,93.014L144.082,93.479L144.805,93.885L145.527,94.348L146.25,94.928L146.973,95.523L147.695,95.95L148.418,96.373L149.141,96.937L149.863,97.338L150.586,97.88L151.309,98.67L152.031,99.169L152.754,99.784L153.477,100.377L154.199,100.918L154.922,101.677L155.645,102.203L156.367,102.885L157.09,103.573L157.813,104.256L158.535,104.947L159.258,105.693L159.98,106.46L160.703,107.071L161.426,107.721L162.148,108.65L162.871,109.373L163.594,110.321L164.316,111.099L165.039,111.85L165.762,112.716L166.484,113.668L167.207,114.565L167.93,115.563L168.652,116.493L169.375,117.54L170.098,118.392L170.82,119.431L171.543,120.557L172.266,121.567L172.988,122.728L173.711,123.796L174.434,124.955L175.156,126.11L175.879,127.375L176.602,128.651L177.324,129.851L178.047,131.138L178.77,132.427L179.492,134.003L180.215,135.448L180.938,136.781L181.66,138.373L182.383,139.937L183.105,141.436L183.828,143.061L184.551,144.76L185.273,146.53L185.996,148.256L186.719,149.988L187.441,152.125L188.164,153.98L188.887,155.942L189.609,157.994L190.332,160.194L191.055,162.428L191.777,164.696L192.5,167.151L193.223,169.52L193.945,172.117L194.668,174.738L195.391,177.367L196.113,180.194L196.836,183.044L197.559,186.047L198.281,189.064L199.004,192.35L199.727,195.522L200.449,198.898L201.172,202.361L201.895,205.85L202.617,209.502L203.34,213.148L204.063,216.896L204.785,220.917L205.508,224.749L206.23,228.711L206.953,232.702L207.676,237.028L208.398,241.283L209.121,245.125L209.844,249.533L210.566,253.667L211.289,257.875L212.012,262.134L212.734,266.434L213.457,270.611L214.18,274.762L214.902,279.08L215.625,283.183L216.348,287.245L217.07,291.083L217.793,295.313L218.516,299.117L219.238,302.895L219.961,306.441L220.684,310.073L221.406,313.449L222.129,317.429L222.852,319.992L223.574,323.011L224.297,326.025L225.02,328.766L225.742,331.444L226.465,333.854L227.188,337.026L227.91,338.379L228.633,340.297L229.355,341.908L230.078,343.556L230.801,345.786L231.523,346.942L232.246,347.887L232.969,347.964L233.691,349.33L234.414,349.667L235.137,349.1L235.859,350L236.582,349.12L237.305,348.602L238.027,348.11L238.75,348.163L239.473,346.707L240.195,346.09L240.918,343.975L241.641,343.23L242.363,341.161L243.086,339.688L243.809,337.11L244.531,335.62L245.254,333.22L245.977,330.273L246.699,328.037L247.422,325.417L248.145,322.614L248.867,319.42L249.59,316.185L250.313,313.224L251.035,309.975L251.758,306.229L252.48,302.985L253.203,299.44L253.926,295.749L254.648,292.062L255.371,288.087L256.094,284.14L256.816,280.57L257.539,276.411L258.262,272.568L258.984,268.245L259.707,264.254L260.43,260.449L261.152,256.304L261.875,252.186L262.598,247.942L263.32,243.819L264.043,239.565L264.766,235.44L265.488,231.421L266.211,227.07L266.934,222.915L267.656,218.508L268.379,214.67L269.102,210.258L269.824,206.243L270.547,202.086L271.27,197.778L271.992,193.757L272.715,189.607L273.438,185.403L274.16,181.167L274.883,177.175L275.605,172.861L276.328,168.645L277.051,164.446L277.773,160.112L278.496,155.899L279.219,151.083L279.941,146.482L280.664,142.35L281.387,137.946L282.109,133.521L282.832,129.164L283.555,125.079L284.277,120.95L285,117.321L285.723,113.136L286.445,109.306L287.168,105.735L287.891,102.017L288.613,98.502L289.336,94.864L290.059,91.439L290.781,87.92L291.504,84.59L292.227,81.337L292.949,78.414L293.672,75.288L294.395,72.222L295.117,69.339L295.84,66.384L296.563,63.767L297.285,61.753L298.008,62.985L298.73,63.941L299.453,65.066L300.176,66.415L300.898,67.504L301.621,68.6L302.344,66.958L303.066,65.464L303.789,63.897L304.512,62.222L305.234,60.706L305.957,59.493L306.68,58.025L307.402,56.732L308.125,55.403L308.848,54.124L309.57,52.889L310.293,51.831L311.016,50.53L311.738,49.307L312.461,48.304L313.184,47.17L313.906,46.174L314.629,45.395L315.352,44.334L316.074,43.584L316.797,42.593L317.52,41.613L318.242,41.007L318.965,40.038L319.688,39.389L320.41,38.37L321.133,37.896L321.855,37.148L322.578,36.479L323.301,35.956L324.023,35.34L324.746,34.751L325.469,34.319L326.191,33.723L326.914,33.147L327.637,32.656L328.359,32.035L329.082,31.798L329.805,31.313L330.527,30.888L331.25,30.369L331.973,29.872L332.695,29.693L333.418,29.325L334.141,29.145L334.863,28.365L335.586,28.265L336.309,28.041L337.031,27.748L337.754,27.387L338.477,27.224L339.199,26.775L339.922,26.771L340.645,26.31L341.367,26.239L342.09,25.892L342.813,25.691L343.535,25.688L344.258,25.223L344.98,25.196L345.703,25.098L346.426,24.929L347.148,24.771L347.871,24.597L348.594,24.163L349.316,23.968L350.039,24.228L350.762,24.027L351.484,23.74L352.207,23.654L352.93,23.408L353.652,23.4L354.375,23.582L355.098,22.78L355.82,23.08L356.543,23.049L357.266,23.115L357.988,22.795L358.711,22.551L359.434,22.751L360.156,22.464L360.879,22.652L361.602,22.511L362.324,22.584L363.047,22.047L363.77,22.505L364.492,22.127L365.215,21.984L365.938,21.97L366.66,21.735L367.383,22.086L368.105,21.945L368.828,21.931L369.551,21.988L370.273,22.197L370.996,21.79L371.719,21.832L372.441,21.872L373.164,21.98L373.887,21.705L374.609,22.403L375.332,22.107L376.055,21.6L376.777,21.224L377.5,21.037L378.223,21.266L378.945,21.722L379.668,21.26L380.391,21.306L381.113,21.519L381.836,21.352L382.559,21.433L383.281,21.225L384.004,20.993L384.727,21.871L385.449,21.561L386.172,21.866L386.895,21.516L387.617,21.946L388.34,22.545L389.063,21.879L389.785,21.587L390.508,21.717L391.23,21.53L391.953,22.576L392.676,21.962L393.398,21.966L394.121,22.314L394.844,22.185L395.566,22.005L396.289,21.991L397.012,21.856L397.734,22.14L398.457,22.06L399.18,22.356L399.902,21.359L400.625,23.884L401.348,23.665L402.07,23.109L402.793,23.203L403.516,22.625L404.238,23.294L404.961,24.373L405.684,24.676L406.406,25.414L407.129,25.009L407.852,26.586L408.574,25.412L409.297,28.12L410.02,27.18L410.742,24.766L411.465,26.153L412.188,25.667L412.91,27.781L413.633,27.569L414.355,28.488L415.078,29.738L415.801,30.952L416.523,30.277L417.246,30.538L417.969,30.798L418.691,33.952L419.414,30.629L420.137,32.548L420.859,32.489L421.582,31.554L422.305,32.825L423.027,31.914L423.75,33.696L424.473,33.75L425.195,32.508L425.918,31.939L426.641,32.553L427.363,33.417L428.086,32.583L428.809,31.688L429.531,30.463L430.254,30.719L430.977,30.008L431.699,30.305L432.422,30.415L433.145,28.86L433.867,28.356L434.59,29.241L435.313,27.72L436.035,27.824L436.758,27.326L437.48,27.217L438.203,27.724L438.926,26.423L439.648,25.762L440.371,26.698L441.094,24.709L441.816,25.765L442.539,25.389L443.262,25.113L443.984,25.274L444.707,24.453L445.43,24.652L446.152,24.281L446.875,23.816L447.598,23.605L448.32,23.498L449.043,23.567L449.766,23.131L450.488,23.116L451.211,22.597L451.934,22.056L452.656,22.813L453.379,21.877L454.102,22.158L454.824,22.216L455.547,22.258L456.27,22.197L456.992,21.874L457.715,21.808L458.438,21.491L459.16,21.742L459.883,21.58L460.605,21.372L461.328,21.239L462.051,21.515L462.773,21.451L463.496,21.206L464.219,21.303L464.941,21.275L465.664,21.242L466.387,20.949L467.109,21.009L467.832,21.122L468.555,20.797L469.277,20.843"/><path fill="none" stroke="rgb(69, 105, 238)" stroke-width="1.5" d="M100,76.591L100.723,76.656L101.445,76.816L102.168,77.123L102.891,77.153L103.613,77.378L104.336,77.546L105.059,77.757L105.781,77.786L106.504,77.973L107.227,78.214L107.949,78.411L108.672,78.464L109.395,78.831L110.117,78.881L110.84,79.028L111.563,79.172L112.285,79.348L113.008,79.531L113.73,79.843L114.453,79.975L115.176,80.158L115.898,80.35L116.621,80.626L117.344,80.901L118.066,80.98L118.789,81.352L119.512,81.606L120.234,81.771L120.957,81.963L121.68,82.307L122.402,82.494L123.125,82.714L123.848,82.998L124.57,83.202L125.293,83.445L126.016,83.803L126.738,84.099L127.461,84.301L128.184,84.584L128.906,84.957L129.629,85.219L130.352,85.534L131.074,85.908L131.797,86.044L132.52,86.507L133.242,86.873L133.965,87.222L134.688,87.434L135.41,87.878L136.133,88.117L136.855,88.425L137.578,88.945L138.301,89.313L139.023,89.731L139.746,90.147L140.469,90.578L141.191,91.085L141.914,91.453L142.637,91.68L143.359,92.187L144.082,92.818L144.805,93.035L145.527,93.67L146.25,94.078L146.973,94.497L147.695,95.069L148.418,95.475L149.141,96.103L149.863,96.506L150.586,97.098L151.309,97.768L152.031,98.313L152.754,98.758L153.477,99.349L154.199,100.03L154.922,100.563L155.645,101.158L156.367,101.766L157.09,102.349L157.813,103.049L158.535,103.808L159.258,104.385L159.98,105.146L160.703,105.953L161.426,106.531L162.148,107.399L162.871,108.091L163.594,108.993L164.316,109.693L165.039,110.497L165.762,111.486L166.484,112.267L167.207,113.06L167.93,114.062L168.652,114.955L169.375,115.867L170.098,116.861L170.82,117.807L171.543,118.803L172.266,119.678L172.988,120.849L173.711,121.927L174.434,122.942L175.156,123.955L175.879,125.182L176.602,126.369L177.324,127.55L178.047,128.841L178.77,130.091L179.492,131.52L180.215,132.777L180.938,134.008L181.66,135.581L182.383,137.098L183.105,138.597L183.828,140.082L184.551,141.511L185.273,143.24L185.996,144.718L186.719,146.327L187.441,148.036L188.164,149.825L188.887,151.622L189.609,153.419L190.332,155.171L191.055,157.282L191.777,159.223L192.5,161.228L193.223,163.346L193.945,165.552L194.668,167.729L195.391,169.825L196.113,172.201L196.836,174.688L197.559,177.046L198.281,179.405L199.004,181.829L199.727,184.502L200.449,187.014L201.172,189.658L201.895,192.257L202.617,195.08L203.34,197.843L204.063,200.602L204.785,203.499L205.508,206.338L206.23,209.158L206.953,212.184L207.676,215.139L208.398,218.129L209.121,221.224L209.844,224.058L210.566,227.16L211.289,230.075L212.012,233.086L212.734,235.978L213.457,239.105L214.18,241.858L214.902,244.789L215.625,247.859L216.348,250.654L217.07,253.632L217.793,256.137L218.516,258.881L219.238,261.654L219.961,264.27L220.684,266.732L221.406,268.933L222.129,271.491L222.852,273.731L223.574,275.826L224.297,278.033L225.02,280.086L225.742,281.903L226.465,283.402L227.188,284.997L227.91,286.827L228.633,287.958L229.355,289.291L230.078,290.629L230.801,291.553L231.523,292.416L232.246,293.267L232.969,294.05L233.691,294.136L234.414,294.496L235.137,294.784L235.859,295.154L236.582,294.789L237.305,294.478L238.027,294.193L238.75,293.619L239.473,292.949L240.195,292.229L240.918,291.357L241.641,289.974L242.363,288.71L243.086,287.214L243.809,285.997L244.531,284.372L245.254,282.571L245.977,280.685L246.699,278.741L247.422,276.507L248.145,274.522L248.867,272.366L249.59,269.931L250.313,267.471L251.035,264.851L251.758,262.272L252.48,259.435L253.203,256.509L253.926,253.753L254.648,251.021L255.371,247.719L256.094,245.046L256.816,241.868L257.539,238.354L258.262,235.457L258.984,232.353L259.707,229.026L260.43,225.569L261.152,222.324L261.875,219.083L262.598,215.74L263.32,211.901L264.043,209.052L264.766,205.763L265.488,201.602L266.211,198.459L266.934,195.033L267.656,191.834L268.379,188.413L269.102,184.739L269.824,180.97L270.547,177.518L271.27,174.468L271.992,170.963L272.715,167.075L273.438,164.024L274.16,160.102L274.883,156.742L275.605,152.819L276.328,149.539L277.051,145.895L277.773,142.117L278.496,138.587L279.219,134.608L279.941,131.317L280.664,127.605L281.387,123.916L282.109,120.11L282.832,116.731L283.555,113.075L284.277,109.643L285,106.284L285.723,102.956L286.445,99.666L287.168,96.468L287.891,93.212L288.613,89.987L289.336,86.994L290.059,83.978L290.781,81.138L291.504,78.192L292.227,75.59L292.949,72.791L293.672,69.988L294.395,67.464L295.117,64.969L295.84,62.382L296.563,62.661L297.285,63.675L298.008,65.058L298.73,66.343L299.453,67.909L300.176,69.305L300.898,69.126L301.621,67.527L302.344,66.12L303.066,64.544L303.789,63.175L304.512,61.454L305.234,60.408L305.957,59.26L306.68,57.898L307.402,56.578L308.125,55.316L308.848,54.108L309.57,52.969L310.293,52.042L311.016,51.113L311.738,50.033L312.461,48.883L313.184,47.815L313.906,46.742L314.629,45.722L315.352,45.039L316.074,44.154L316.797,43.287L317.52,42.351L318.242,41.702L318.965,40.858L319.688,40.302L320.41,39.219L321.133,38.831L321.855,37.953L322.578,37.361L323.301,37.003L324.023,36.131L324.746,35.909L325.469,34.977L326.191,34.717L326.914,34.013L327.637,33.48L328.359,32.979L329.082,32.672L329.805,32.046L330.527,31.682L331.25,31.331L331.973,30.525L332.695,30.42L333.418,30.007L334.141,30.021L334.863,29.562L335.586,28.967L336.309,28.689L337.031,28.289L337.754,28.117L338.477,27.436L339.199,27.469L339.922,27.448L340.645,27.042L341.367,26.984L342.09,26.178L342.813,26.351L343.535,25.866L344.258,25.485L344.98,25.586L345.703,25.486L346.426,25.577L347.148,25.275L347.871,24.693L348.594,24.524L349.316,24.724L350.039,24.425L350.762,24.304L351.484,23.905L352.207,24.007L352.93,23.881L353.652,23.404L354.375,23.205L355.098,22.992L355.82,23.36L356.543,23.857L357.266,22.861L357.988,23.566L358.711,23.694L359.434,22.624L360.156,22.7L360.879,22.532L361.602,23.249L362.324,22.428L363.047,22.265L363.77,22.62L364.492,22.005L365.215,23.178L365.938,22.44L366.66,22.624L367.383,22.117L368.105,22.058L368.828,21.973L369.551,22.514L370.273,21.572L370.996,21.304L371.719,22.232L372.441,21.203L373.164,21.92L373.887,21.854L374.609,21.069L375.332,21.223L376.055,21.055L376.777,22.471L377.5,22.097L378.223,22.249L378.945,21.575L379.668,21.804L380.391,21.578L381.113,21.372L381.836,21.133L382.559,21.785L383.281,21.057L384.004,21.542L384.727,22.464L385.449,21.133L386.172,23.14L386.895,21.345L387.617,21.804L388.34,21.409L389.063,21.237L389.785,22.789L390.508,20.552L391.23,22.289L391.953,21.56L392.676,21.779L393.398,21.345L394.121,21.398L394.844,21.259L395.566,21.903L396.289,22.451L397.012,21.827L397.734,22.302L398.457,21.879L399.18,22.759L399.902,21.172L400.625,22.666L401.348,22.437L402.07,22.082L402.793,24.024L403.516,24.849L404.238,24.646L404.961,22.851L405.684,24.449L406.406,24.075L407.129,23.513L407.852,24.655L408.574,25.692L409.297,25.328L410.02,26.758L410.742,26.289L411.465,26.563L412.188,26.8L412.91,26.753L413.633,28.814L414.355,26.668L415.078,26.721L415.801,28.46L416.523,27.937L417.246,29.643L417.969,31.195L418.691,29.466L419.414,31.508L420.137,30.254L420.859,30.725L421.582,29.458L422.305,29.954L423.027,31.627L423.75,30.212L424.473,31.427L425.195,31.821L425.918,30.186L426.641,31.378L427.363,29.959L428.086,31.9L428.809,31.257L429.531,29.243L430.254,29.6L430.977,29.422L431.699,28.715L432.422,28.339L433.145,28.533L433.867,28.338L434.59,29.014L435.313,28.103L436.035,27.509L436.758,27.443L437.48,26.372L438.203,25.439L438.926,25.936L439.648,26.738L440.371,25.251L441.094,25.198L441.816,25.028L442.539,25.016L443.262,24.754L443.984,24.755L444.707,24.555L445.43,24.34L446.152,23.209L446.875,23.556L447.598,23.155L448.32,23.317L449.043,23.001L449.766,22.751L450.488,22.092L451.211,22.34L451.934,22.463L452.656,22.2L453.379,22.044L454.102,21.968L454.824,22.208L455.547,22.008L456.27,21.751L456.992,21.57L457.715,21.599L458.438,21.298L459.16,21.25L459.883,21.405L460.605,21.493L461.328,21.068L462.051,21.32L462.773,21.132L463.496,21.226L464.219,21.097L464.941,21.289L465.664,21.119L466.387,21.055L467.109,21.097L467.832,20.892L468.555,20.961L469.277,20.945"/><path fill="none" stroke="rgb(38, 188, 225)" stroke-width="1.5" d="M100,75.779L100.723,75.905L101.445,75.988L102.168,76.12L102.891,76.299L103.613,76.31L104.336,76.643L105.059,76.721L105.781,76.832L106.504,77.095L107.227,77.13L107.949,77.444L108.672,77.511L109.395,77.656L110.117,77.888L110.84,78.018L111.563,78.277L112.285,78.332L113.008,78.601L113.73,78.867L114.453,78.928L115.176,79.111L115.898,79.404L116.621,79.543L117.344,79.611L118.066,79.827L118.789,80.132L119.512,80.365L120.234,80.61L120.957,80.836L121.68,81.149L122.402,81.242L123.125,81.445L123.848,81.688L124.57,81.996L125.293,82.249L126.016,82.541L126.738,82.818L127.461,82.962L128.184,83.263L128.906,83.585L129.629,83.799L130.352,84.078L131.074,84.4L131.797,84.677L132.52,85.093L133.242,85.297L133.965,85.638L134.688,85.908L135.41,86.223L136.133,86.546L136.855,86.978L137.578,87.297L138.301,87.667L139.023,87.992L139.746,88.422L140.469,88.512L141.191,89.147L141.914,89.606L142.637,89.942L143.359,90.278L144.082,90.731L144.805,91.05L145.527,91.511L146.25,91.834L146.973,92.453L147.695,92.831L148.418,93.355L149.141,93.792L149.863,94.22L150.586,94.816L151.309,95.196L152.031,95.887L152.754,96.319L153.477,96.816L154.199,97.416L154.922,97.844L155.645,98.472L156.367,98.978L157.09,99.742L157.813,100.257L158.535,100.961L159.258,101.528L159.98,102.225L160.703,102.82L161.426,103.497L162.148,104.055L162.871,104.868L163.594,105.452L164.316,106.19L165.039,106.78L165.762,107.663L166.484,108.397L167.207,109.254L167.93,109.959L168.652,110.903L169.375,111.503L170.098,112.68L170.82,113.394L171.543,114.273L172.266,115.165L172.988,115.963L173.711,116.994L174.434,117.951L175.156,119.001L175.879,120.081L176.602,121.011L177.324,122.022L178.047,123.072L178.77,124.342L179.492,125.129L180.215,126.233L180.938,127.631L181.66,128.587L182.383,129.845L183.105,131.071L183.828,132.453L184.551,133.711L185.273,134.829L185.996,136.29L186.719,137.54L187.441,138.818L188.164,140.555L188.887,141.811L189.609,143.277L190.332,144.669L191.055,146.397L191.777,147.853L192.5,149.261L193.223,150.747L193.945,152.455L194.668,154.108L195.391,155.934L196.113,157.514L196.836,159.192L197.559,160.847L198.281,162.541L199.004,164.384L199.727,166.133L200.449,168.018L201.172,169.849L201.895,171.54L202.617,173.557L203.34,175.281L204.063,177.08L204.785,178.926L205.508,180.807L206.23,182.836L206.953,184.564L207.676,186.213L208.398,188.165L209.121,189.986L209.844,191.816L210.566,193.586L211.289,195.223L212.012,196.943L212.734,198.886L213.457,200.538L214.18,202.113L214.902,203.772L215.625,205.305L216.348,206.892L217.07,208.371L217.793,209.726L218.516,211.181L219.238,212.503L219.961,213.79L220.684,214.847L221.406,215.91L222.129,216.87L222.852,217.966L223.574,218.849L224.297,219.642L225.02,220.313L225.742,220.946L226.465,221.669L227.188,222.291L227.91,222.547L228.633,222.812L229.355,222.988L230.078,223.09L230.801,222.944L231.523,222.941L232.246,222.866L232.969,222.486L233.691,222.436L234.414,221.705L235.137,221.292L235.859,220.793L236.582,219.801L237.305,219.181L238.027,218.103L238.75,217.221L239.473,216.167L240.195,215.144L240.918,213.719L241.641,212.377L242.363,210.888L243.086,209.434L243.809,207.767L244.531,206.16L245.254,204.638L245.977,203.093L246.699,201.14L247.422,199.315L248.145,197.285L248.867,195.128L249.59,193.184L250.313,191.157L251.035,189.059L251.758,186.842L252.48,184.835L253.203,182.691L253.926,180.567L254.648,178.374L255.371,176.175L256.094,173.731L256.816,171.628L257.539,169.091L258.262,166.69L258.984,164.615L259.707,162.028L260.43,159.874L261.152,157.593L261.875,155.412L262.598,152.661L263.32,150.573L264.043,148.223L264.766,145.729L265.488,143.402L266.211,141.337L266.934,138.745L267.656,136.701L268.379,134.251L269.102,131.731L269.824,129.534L270.547,127.226L271.27,124.892L271.992,122.2L272.715,119.888L273.438,117.532L274.16,115.127L274.883,112.64L275.605,110.305L276.328,108.174L277.051,105.707L277.773,103.402L278.496,101.377L279.219,99.165L279.941,96.726L280.664,94.626L281.387,92.45L282.109,90.175L282.832,87.703L283.555,85.335L284.277,83.306L285,81.316L285.723,79.064L286.445,76.826L287.168,74.656L287.891,72.609L288.613,70.572L289.336,68.709L290.059,66.717L290.781,64.771L291.504,62.755L292.227,60.998L292.949,59.352L293.672,61.458L294.395,62.88L295.117,64.754L295.84,66.733L296.563,68.437L297.285,70.579L298.008,69.492L298.73,68.543L299.453,67.214L300.176,66.098L300.898,65.268L301.621,64.084L302.344,63.075L303.066,62.024L303.789,60.955L304.512,59.854L305.234,58.86L305.957,57.628L306.68,56.987L307.402,55.835L308.125,54.902L308.848,53.994L309.57,53.197L310.293,52.232L311.016,51.261L311.738,50.527L312.461,49.521L313.184,48.941L313.906,48.006L314.629,47.27L315.352,46.387L316.074,45.502L316.797,44.781L317.52,43.864L318.242,43.229L318.965,42.531L319.688,41.583L320.41,40.98L321.133,40.254L321.855,39.739L322.578,39.384L323.301,38.728L324.023,38.076L324.746,37.247L325.469,36.782L326.191,36.278L326.914,35.649L327.637,35.058L328.359,34.664L329.082,34.397L329.805,33.617L330.527,33.315L331.25,32.961L331.973,32.516L332.695,31.991L333.418,31.691L334.141,31.152L334.863,30.983L335.586,30.555L336.309,30.05L337.031,29.721L337.754,29.379L338.477,29.079L339.199,28.709L339.922,28.604L340.645,28.34L341.367,27.954L342.09,27.854L342.813,27.468L343.535,27.047L344.258,26.524L344.98,26.64L345.703,26.809L346.426,26.296L347.148,26.131L347.871,25.864L348.594,25.545L349.316,26.161L350.039,25.269L350.762,25.529L351.484,25.12L352.207,24.318L352.93,25.069L353.652,24.112L354.375,24.863L355.098,23.985L355.82,23.849L356.543,24.307L357.266,23.814L357.988,23.851L358.711,23.332L359.434,23.445L360.156,23.713L360.879,23.316L361.602,23.269L362.324,23.441L363.047,23.11L363.77,22.577L364.492,22.78L365.215,22.669L365.938,22.287L366.66,22.589L367.383,22.739L368.105,22.119L368.828,22.588L369.551,21.938L370.273,22.748L370.996,21.74L371.719,22.105L372.441,22.402L373.164,21.861L373.887,22.158L374.609,20.872L375.332,21.919L376.055,21.52L376.777,22.352L377.5,21.391L378.223,21.928L378.945,21.945L379.668,23.182L380.391,21.824L381.113,21.903L381.836,21.782L382.559,21.849L383.281,21.454L384.004,21.68L384.727,22.207L385.449,20.915L386.172,21.927L386.895,21.519L387.617,20.779L388.34,21.704L389.063,22.036L389.785,21.924L390.508,20L391.23,22.039L391.953,22.402L392.676,21.506L393.398,21.444L394.121,21.706L394.844,22.155L395.566,22.193L396.289,20.995L397.012,21.88L397.734,22.154L398.457,21.611L399.18,20.774L399.902,21.591L400.625,21.68L401.348,21.332L402.07,22.986L402.793,22.126L403.516,23.635L404.238,23.708L404.961,24.9L405.684,23.229L406.406,22.012L407.129,22.04L407.852,24.332L408.574,23.554L409.297,21.839L410.02,24.114L410.742,22.115L411.465,24.449L412.188,23.883L412.91,23.134L413.633,23.795L414.355,24.266L415.078,26.809L415.801,25.417L416.523,25.458L417.246,26.016L417.969,24.753L418.691,27.216L419.414,26.262L420.137,24.872L420.859,27.545L421.582,25.78L422.305,26.278L423.027,28.041L423.75,26.36L424.473,26.885L425.195,26.661L425.918,27.494L426.641,27.498L427.363,26.627L428.086,27.111L428.809,25.997L429.531,27.976L430.254,26.555L430.977,26.489L431.699,26.047L432.422,25.885L433.145,25.554L433.867,24.589L434.59,25.225L435.313,25.528L436.035,26.483L436.758,24.972L437.48,24.891L438.203,25.045L438.926,24.8L439.648,24.536L440.371,24.539L441.094,24.238L441.816,23.741L442.539,23.51L443.262,23.071L443.984,23.229L444.707,23.792L445.43,22.275L446.152,22.484L446.875,23.021L447.598,22.7L448.32,22.229L449.043,22.774L449.766,22.164L450.488,22.166L451.211,21.982L451.934,21.793L452.656,21.409L453.379,21.969L454.102,21.665L454.824,21.415L455.547,21.308L456.27,21.43L456.992,21.508L457.715,21.195L458.438,21.425L459.16,21.231L459.883,21.307L460.605,21.161L461.328,20.999L462.051,21.141L462.773,20.9L463.496,21.125L464.219,21.139L464.941,21.172L465.664,20.88L466.387,20.841L467.109,20.84L467.832,20.79L468.555,20.792L469.277,20.758"/><path fill="none" stroke="rgb(63, 243, 147)" stroke-width="1.5" d="M100,73.912L100.723,73.921L101.445,74.136L102.168,74.291L102.891,74.432L103.613,74.5L104.336,74.667L105.059,74.836L105.781,74.987L106.504,75.085L107.227,75.134L107.949,75.334L108.672,75.521L109.395,75.602L110.117,75.916L110.84,75.982L111.563,76.095L112.285,76.158L113.008,76.507L113.73,76.761L114.453,76.757L115.176,76.989L115.898,77.012L116.621,77.211L117.344,77.45L118.066,77.774L118.789,77.887L119.512,78.045L120.234,78.172L120.957,78.455L121.68,78.702L122.402,78.806L123.125,78.864L123.848,79.234L124.57,79.415L125.293,79.721L126.016,79.978L126.738,80.158L127.461,80.364L128.184,80.555L128.906,80.707L129.629,81.134L130.352,81.415L131.074,81.691L131.797,82.013L132.52,82.041L133.242,82.529L133.965,82.68L134.688,82.866L135.41,83.153L136.133,83.543L136.855,83.92L137.578,84.115L138.301,84.419L139.023,84.781L139.746,85.156L140.469,85.398L141.191,85.673L141.914,86.017L142.637,86.438L143.359,86.819L144.082,87.23L144.805,87.607L145.527,87.878L146.25,88.264L146.973,88.599L147.695,89.109L148.418,89.418L149.141,89.939L149.863,90.215L150.586,90.717L151.309,91.02L152.031,91.56L152.754,92.028L153.477,92.444L154.199,93.059L154.922,93.296L155.645,93.899L156.367,94.281L157.09,94.834L157.813,95.372L158.535,95.827L159.258,96.473L159.98,96.891L160.703,97.573L161.426,98.121L162.148,98.628L162.871,99.236L163.594,99.944L164.316,100.386L165.039,101.149L165.762,101.718L166.484,102.311L167.207,102.853L167.93,103.603L168.652,104.398L169.375,104.932L170.098,105.629L170.82,106.505L171.543,106.999L172.266,107.815L172.988,108.498L173.711,109.204L174.434,110.101L175.156,110.857L175.879,111.522L176.602,112.526L177.324,113.418L178.047,114.097L178.77,115.056L179.492,115.856L180.215,116.801L180.938,117.655L181.66,118.577L182.383,119.33L183.105,120.322L183.828,121.173L184.551,122.264L185.273,123.354L185.996,124.319L186.719,125.244L187.441,126.308L188.164,127.244L188.887,128.23L189.609,129.383L190.332,130.292L191.055,131.555L191.777,132.432L192.5,133.608L193.223,134.847L193.945,135.683L194.668,136.835L195.391,137.818L196.113,139.143L196.836,140.129L197.559,141.283L198.281,142.31L199.004,143.631L199.727,144.818L200.449,145.63L201.172,146.784L201.895,147.922L202.617,149.034L203.34,149.964L204.063,151.1L204.785,152.128L205.508,153.185L206.23,154.257L206.953,155.304L207.676,156.219L208.398,157.05L209.121,158.113L209.844,158.755L210.566,159.747L211.289,160.71L212.012,161.381L212.734,162.303L213.457,163.042L214.18,163.829L214.902,164.144L215.625,164.891L216.348,165.379L217.07,165.805L217.793,166.343L218.516,166.523L219.238,166.875L219.961,167.243L220.684,167.44L221.406,167.571L222.129,167.615L222.852,167.685L223.574,167.777L224.297,167.553L225.02,167.448L225.742,167.22L226.465,166.949L227.188,166.554L227.91,166.188L228.633,165.794L229.355,165.298L230.078,164.621L230.801,163.814L231.523,162.979L232.246,162.217L232.969,161.458L233.691,160.385L234.414,159.345L235.137,158.516L235.859,157.223L236.582,155.982L237.305,154.777L238.027,153.543L238.75,152.297L239.473,150.9L240.195,149.253L240.918,148.045L241.641,146.704L242.363,144.781L243.086,143.423L243.809,141.733L244.531,140.28L245.254,138.517L245.977,136.769L246.699,135.109L247.422,133.417L248.145,131.725L248.867,129.774L249.59,128.087L250.313,126.414L251.035,124.447L251.758,122.648L252.48,120.822L253.203,119.017L253.926,117.195L254.648,115.455L255.371,113.681L256.094,111.828L256.816,109.972L257.539,108.232L258.262,106.468L258.984,104.545L259.707,102.769L260.43,101.156L261.152,99.445L261.875,97.638L262.598,95.934L263.32,94.1L264.043,92.483L264.766,90.733L265.488,89.213L266.211,87.582L266.934,85.994L267.656,84.589L268.379,82.987L269.102,81.466L269.824,80.103L270.547,78.869L271.27,77.43L271.992,76.171L272.715,74.736L273.438,73.399L274.16,72.196L274.883,70.836L275.605,69.75L276.328,68.516L277.051,67.208L277.773,65.925L278.496,64.747L279.219,63.555L279.941,62.488L280.664,61.524L281.387,60.502L282.109,59.246L282.832,58.153L283.555,56.821L284.277,55.768L285,54.8L285.723,53.711L286.445,52.631L287.168,52.168L287.891,54.769L288.613,57.123L289.336,59.789L290.059,62.343L290.781,64.856L291.504,67.374L292.227,66.742L292.949,66.212L293.672,65.67L294.395,65.225L295.117,64.904L295.84,64.18L296.563,63.606L297.285,62.847L298.008,62.439L298.73,61.842L299.453,61.095L300.176,60.72L300.898,60.063L301.621,59.431L302.344,58.81L303.066,58.132L303.789,57.437L304.512,56.81L305.234,56.181L305.957,55.573L306.68,54.823L307.402,54.103L308.125,53.609L308.848,52.796L309.57,52.325L310.293,51.653L311.016,50.876L311.738,50.287L312.461,49.635L313.184,48.886L313.906,48.309L314.629,47.748L315.352,47.014L316.074,46.46L316.797,45.794L317.52,45.118L318.242,44.479L318.965,43.862L319.688,43.607L320.41,42.627L321.133,42.084L321.855,41.572L322.578,40.879L323.301,40.323L324.023,39.856L324.746,39.226L325.469,38.684L326.191,38.183L326.914,37.52L327.637,37.395L328.359,36.626L329.082,36.254L329.805,35.681L330.527,35.215L331.25,35.153L331.973,34.411L332.695,34.135L333.418,33.276L334.141,33.067L334.863,32.83L335.586,32.271L336.309,32.139L337.031,31.607L337.754,31.286L338.477,31.061L339.199,30.659L339.922,30.353L340.645,29.849L341.367,29.668L342.09,29.425L342.813,28.977L343.535,29.067L344.258,28.579L344.98,28.288L345.703,28.016L346.426,27.665L347.148,27.619L347.871,27.389L348.594,26.868L349.316,26.903L350.039,26.452L350.762,26.303L351.484,26.088L352.207,25.82L352.93,25.686L353.652,25.85L354.375,25.155L355.098,25.414L355.82,25.398L356.543,25.543L357.266,25.061L357.988,24.244L358.711,24.5L359.434,24.293L360.156,24.309L360.879,23.513L361.602,24.496L362.324,23.84L363.047,23.958L363.77,23.674L364.492,23.834L365.215,23.902L365.938,22.939L366.66,23.265L367.383,23.57L368.105,23.239L368.828,23.191L369.551,23.147L370.273,22.007L370.996,23.179L371.719,22.433L372.441,22.802L373.164,21.859L373.887,22.385L374.609,23.309L375.332,22.163L376.055,22.02L376.777,22.104L377.5,22.526L378.223,22.539L378.945,21.781L379.668,20.789L380.391,22.042L381.113,21.988L381.836,21.726L382.559,22.297L383.281,22.116L384.004,21.759L384.727,20.797L385.449,22.364L386.172,20.586L386.895,21.525L387.617,21.719L388.34,20.687L389.063,21.732L389.785,21.873L390.508,21.301L391.23,21.474L391.953,21.816L392.676,21.193L393.398,20.743L394.121,21.639L394.844,20.643L395.566,20.841L396.289,20.993L397.012,22.382L397.734,22.228L398.457,21.849L399.18,20.333L399.902,21.295L400.625,21.453L401.348,20.318L402.07,20.625L402.793,21.581L403.516,22.804L404.238,21.886L404.961,22.058L405.684,21.353L406.406,22.269L407.129,21.327L407.852,21.011L408.574,21.626L409.297,20.755L410.02,22.918L410.742,20.507L411.465,22.615L412.188,22.851L412.91,22.376L413.633,22.588L414.355,22.622L415.078,23.403L415.801,20.637L416.523,22.825L417.246,23.792L417.969,21.242L418.691,21.507L419.414,22.303L420.137,22.667L420.859,22.482L421.582,21L422.305,25.397L423.027,23.912L423.75,24.217L424.473,21.758L425.195,22.509L425.918,22.388L426.641,21.787L427.363,22.206L428.086,21.805L428.809,22.674L429.531,23.739L430.254,22.679L430.977,22.702L431.699,22.205L432.422,22.254L433.145,21.136L433.867,23.129L434.59,22.178L435.313,21.757L436.035,22.403L436.758,22.036L437.48,22.88L438.203,21.794L438.926,21.492L439.648,22.116L440.371,22.185L441.094,21.555L441.816,20.834L442.539,21.491L443.262,21.615L443.984,21.907L444.707,21.547L445.43,21.523L446.152,22.007L446.875,21.369L447.598,20.937L448.32,20.961L449.043,21.77L449.766,21.287L450.488,21.086L451.211,21.204L451.934,21.049L452.656,20.967L453.379,21.031L454.102,20.803L454.824,20.848L455.547,20.876L456.27,21.054L456.992,21.028L457.715,20.71L458.438,20.637L459.16,20.563L459.883,20.935L460.605,20.757L461.328,20.683L462.051,20.794L462.773,20.824L463.496,20.798L464.219,20.75L464.941,20.738L465.664,20.742L466.387,20.739L467.109,20.654L467.832,20.763L468.555,20.612L469.277,20.588"/><path fill="none" stroke="rgb(149, 251, 81)" stroke-width="1.5" d="M100,71.108L100.723,71.313L101.445,71.306L102.168,71.436L102.891,71.535L103.613,71.725L104.336,71.694L105.059,71.776L105.781,71.87L106.504,72.145L107.227,72.303L107.949,72.331L108.672,72.565L109.395,72.603L110.117,72.813L110.84,72.88L111.563,72.947L112.285,73.058L113.008,73.217L113.73,73.402L114.453,73.513L115.176,73.708L115.898,73.744L116.621,73.906L117.344,74.134L118.066,74.363L118.789,74.342L119.512,74.662L120.234,74.806L120.957,75.005L121.68,75.153L122.402,75.333L123.125,75.563L123.848,75.623L124.57,75.781L125.293,75.97L126.016,76.27L126.738,76.322L127.461,76.579L128.184,76.768L128.906,77.023L129.629,77.155L130.352,77.287L131.074,77.643L131.797,77.918L132.52,78.073L133.242,78.287L133.965,78.421L134.688,78.691L135.41,78.997L136.133,79.232L136.855,79.475L137.578,79.681L138.301,79.891L139.023,80.188L139.746,80.531L140.469,80.713L141.191,80.921L141.914,81.191L142.637,81.645L143.359,81.869L144.082,82.199L144.805,82.506L145.527,82.737L146.25,82.93L146.973,83.39L147.695,83.696L148.418,84.118L149.141,84.396L149.863,84.716L150.586,85.107L151.309,85.468L152.031,85.647L152.754,86.125L153.477,86.524L154.199,86.827L154.922,87.316L155.645,87.455L156.367,88.012L157.09,88.382L157.813,88.858L158.535,89.127L159.258,89.641L159.98,89.86L160.703,90.45L161.426,90.75L162.148,91.365L162.871,91.759L163.594,92.199L164.316,92.691L165.039,93.077L165.762,93.775L166.484,94.124L167.207,94.649L167.93,95.11L168.652,95.6L169.375,96.03L170.098,96.6L170.82,97.205L171.543,97.618L172.266,98.245L172.988,98.825L173.711,99.384L174.434,99.72L175.156,100.347L175.879,100.999L176.602,101.486L177.324,102.192L178.047,102.679L178.77,103.456L179.492,103.881L180.215,104.586L180.938,105.181L181.66,105.805L182.383,106.413L183.105,106.827L183.828,107.585L184.551,108.319L185.273,108.804L185.996,109.438L186.719,110.036L187.441,110.826L188.164,111.241L188.887,111.916L189.609,112.55L190.332,113.027L191.055,113.74L191.777,114.493L192.5,114.975L193.223,115.601L193.945,116.118L194.668,116.742L195.391,117.391L196.113,117.97L196.836,118.49L197.559,118.956L198.281,119.574L199.004,120.117L199.727,120.648L200.449,121.005L201.172,121.409L201.895,121.918L202.617,122.401L203.34,122.73L204.063,123.161L204.785,123.395L205.508,123.85L206.23,124.093L206.953,124.427L207.676,124.659L208.398,125.024L209.121,125.029L209.844,125.099L210.566,125.404L211.289,125.44L212.012,125.475L212.734,125.536L213.457,125.387L214.18,125.469L214.902,125.22L215.625,125.029L216.348,124.722L217.07,124.501L217.793,124.236L218.516,123.893L219.238,123.499L219.961,122.822L220.684,122.51L221.406,121.957L222.129,121.254L222.852,120.826L223.574,119.977L224.297,119.413L225.02,118.504L225.742,117.547L226.465,116.901L227.188,115.828L227.91,114.844L228.633,113.818L229.355,112.943L230.078,111.928L230.801,110.714L231.523,109.72L232.246,108.734L232.969,107.413L233.691,106.195L234.414,104.867L235.137,103.9L235.859,102.58L236.582,101.089L237.305,99.781L238.027,98.398L238.75,97.254L239.473,95.852L240.195,94.455L240.918,93.189L241.641,91.665L242.363,90.34L243.086,88.954L243.809,87.4L244.531,86.105L245.254,84.638L245.977,83.371L246.699,81.771L247.422,80.533L248.145,79.18L248.867,77.699L249.59,76.217L250.313,74.869L251.035,73.38L251.758,71.955L252.48,70.589L253.203,69.17L253.926,67.843L254.648,66.564L255.371,65.305L256.094,63.866L256.816,62.622L257.539,61.513L258.262,60.311L258.984,59.146L259.707,57.944L260.43,56.873L261.152,55.9L261.875,54.786L262.598,53.791L263.32,53.161L264.043,52.063L264.766,51.18L265.488,50.19L266.211,49.481L266.934,48.72L267.656,47.872L268.379,47.056L269.102,46.436L269.824,45.843L270.547,45.02L271.27,44.462L271.992,43.785L272.715,43.091L273.438,42.718L274.16,42.214L274.883,41.505L275.605,41.042L276.328,40.503L277.051,39.992L277.773,39.49L278.496,41.016L279.219,44.175L279.941,47.193L280.664,50.387L281.387,53.481L282.109,56.674L282.832,58.442L283.555,58.544L284.277,58.623L285,58.626L285.723,58.628L286.445,58.694L287.168,58.83L287.891,58.621L288.613,58.616L289.336,58.336L290.059,58.336L290.781,58.231L291.504,58.229L292.227,58.093L292.949,57.873L293.672,57.746L294.395,57.569L295.117,57.307L295.84,57.208L296.563,56.863L297.285,56.657L298.008,56.624L298.73,56.203L299.453,55.817L300.176,55.563L300.898,55.367L301.621,54.986L302.344,54.433L303.066,54.195L303.789,53.704L304.512,53.38L305.234,53.093L305.957,52.589L306.68,52.199L307.402,51.674L308.125,51.263L308.848,50.852L309.57,50.297L310.293,49.876L311.016,49.441L311.738,48.981L312.461,48.497L313.184,47.993L313.906,47.618L314.629,47.062L315.352,46.421L316.074,46.096L316.797,45.448L317.52,44.968L318.242,44.507L318.965,43.944L319.688,43.399L320.41,42.891L321.133,42.394L321.855,41.864L322.578,41.382L323.301,40.901L324.023,40.32L324.746,39.907L325.469,39.488L326.191,38.901L326.914,38.468L327.637,38.093L328.359,37.629L329.082,37.144L329.805,36.761L330.527,36.291L331.25,35.853L331.973,35.417L332.695,34.951L333.418,34.587L334.141,34.177L334.863,33.761L335.586,33.374L336.309,32.898L337.031,32.61L337.754,32.268L338.477,31.891L339.199,31.426L339.922,31.064L340.645,30.923L341.367,30.62L342.09,30.242L342.813,29.972L343.535,29.699L344.258,29.381L344.98,29.153L345.703,28.798L346.426,28.605L347.148,28.273L347.871,28.061L348.594,27.834L349.316,27.555L350.039,27.306L350.762,27.101L351.484,26.913L352.207,26.713L352.93,26.387L353.652,26.293L354.375,26.058L355.098,25.931L355.82,25.77L356.543,25.595L357.266,25.376L357.988,25.156L358.711,25.086L359.434,24.997L360.156,24.758L360.879,24.57L361.602,24.483L362.324,24.412L363.047,24.179L363.77,24.17L364.492,24.029L365.215,23.805L365.938,23.764L366.66,23.622L367.383,23.584L368.105,23.46L368.828,23.302L369.551,23.148L370.273,23.13L370.996,23.065L371.719,22.981L372.441,22.867L373.164,22.837L373.887,22.735L374.609,22.669L375.332,22.569L376.055,22.49L376.777,22.487L377.5,22.425L378.223,22.319L378.945,22.301L379.668,22.205L380.391,22.147L381.113,22.082L381.836,22.016L382.559,22.038L383.281,21.896L384.004,21.825L384.727,21.873L385.449,21.775L386.172,21.745L386.895,21.637L387.617,21.75L388.34,21.592L389.063,21.544L389.785,21.523L390.508,21.549L391.23,21.496L391.953,21.418L392.676,21.421L393.398,21.373L394.121,21.334L394.844,21.348L395.566,21.304L396.289,21.241L397.012,21.249L397.734,21.185L398.457,21.235L399.18,21.188L399.902,21.104L400.625,21.116L401.348,21.123L402.07,21.104L402.793,21.055L403.516,21.052L404.238,21.06L404.961,20.963L405.684,20.975L406.406,20.963L407.129,20.964L407.852,20.954L408.574,20.938L409.297,20.986L410.02,20.941L410.742,20.875L411.465,20.867L412.188,20.865L412.91,20.865L413.633,20.8L414.355,20.807L415.078,20.795L415.801,20.822L416.523,20.812L417.246,20.767L417.969,20.788L418.691,20.769L419.414,20.774L420.137,20.781L420.859,20.777L421.582,20.767L422.305,20.728L423.027,20.694L423.75,20.706L424.473,20.735L425.195,20.695L425.918,20.701L426.641,20.714L427.363,20.715L428.086,20.67L428.809,20.653L429.531,20.665L430.254,20.691L430.977,20.705L431.699,20.659L432.422,20.676L433.145,20.679L433.867,20.661L434.59,20.678L435.313,20.635L436.035,20.647L436.758,20.625L437.48,20.622L438.203,20.631L438.926,20.63L439.648,20.622L440.371,20.625L441.094,20.626L441.816,20.605L442.539,20.603L443.262,20.632L443.984,20.634L444.707,20.595L445.43,20.602L446.152,20.624L446.875,20.613L447.598,20.593L448.32,20.608L449.043,20.614L449.766,20.603L450.488,20.591L451.211,20.586L451.934,20.605L452.656,20.586L453.379,20.591L454.102,20.595L454.824,20.576L455.547,20.584L456.27,20.57L456.992,20.584L457.715,20.597L458.438,20.582L459.16,20.577L459.883,20.58L460.605,20.572L461.328,20.569L462.051,20.574L462.773,20.585L463.496,20.578L464.219,20.574L464.941,20.566L465.664,20.571L466.387,20.569L467.109,20.568L467.832,20.559L468.555,20.567L469.277,20.565"/><path fill="none" stroke="rgb(236, 209, 46)" stroke-width="1.5" d="M100,66.733L100.723,66.904L101.445,67.058L102.168,67.048L102.891,67.144L103.613,67.214L104.336,67.393L105.059,67.347L105.781,67.483L106.504,67.615L107.227,67.66L107.949,67.771L108.672,67.825L109.395,67.885L110.117,68.013L110.84,68.166L111.563,68.258L112.285,68.314L113.008,68.406L113.73,68.64L114.453,68.681L115.176,68.731L115.898,69.046L116.621,68.876L117.344,69.142L118.066,69.164L118.789,69.282L119.512,69.504L120.234,69.593L120.957,69.796L121.68,70.008L122.402,70.146L123.125,70.25L123.848,70.318L124.57,70.579L125.293,70.619L126.016,70.687L126.738,70.7L127.461,70.954L128.184,71.211L128.906,71.341L129.629,71.527L130.352,71.519L131.074,71.798L131.797,71.847L132.52,71.985L133.242,72.167L133.965,72.311L134.688,72.709L135.41,72.798L136.133,73.065L136.855,73.255L137.578,73.261L138.301,73.612L139.023,73.771L139.746,73.848L140.469,74.054L141.191,74.233L141.914,74.503L142.637,74.81L143.359,74.912L144.082,75.045L144.805,75.397L145.527,75.478L146.25,75.755L146.973,75.907L147.695,76.157L148.418,76.377L149.141,76.655L149.863,76.887L150.586,77.12L151.309,77.416L152.031,77.648L152.754,77.843L153.477,78.147L154.199,78.412L154.922,78.604L155.645,78.798L156.367,79.082L157.09,79.467L157.813,79.616L158.535,79.937L159.258,80.256L159.98,80.497L160.703,80.762L161.426,81.057L162.148,81.383L162.871,81.567L163.594,81.95L164.316,82.152L165.039,82.548L165.762,82.804L166.484,82.887L167.207,83.297L167.93,83.553L168.652,83.897L169.375,84.141L170.098,84.596L170.82,84.887L171.543,85.218L172.266,85.452L172.988,85.827L173.711,86.01L174.434,86.284L175.156,86.521L175.879,86.837L176.602,87.044L177.324,87.437L178.047,87.602L178.77,87.997L179.492,88.255L180.215,88.513L180.938,88.83L181.66,89.009L182.383,89.227L183.105,89.443L183.828,89.793L184.551,89.817L185.273,90.202L185.996,90.287L186.719,90.531L187.441,90.69L188.164,90.905L188.887,90.975L189.609,91.106L190.332,91.265L191.055,91.336L191.777,91.335L192.5,91.452L193.223,91.587L193.945,91.502L194.668,91.573L195.391,91.6L196.113,91.546L196.836,91.568L197.559,91.223L198.281,91.367L199.004,91.234L199.727,91.07L200.449,90.798L201.172,90.519L201.895,90.377L202.617,90.077L203.34,89.585L204.063,89.469L204.785,89.195L205.508,88.729L206.23,88.497L206.953,87.988L207.676,87.686L208.398,87.127L209.121,86.688L209.844,86.214L210.566,85.827L211.289,84.998L212.012,84.576L212.734,83.957L213.457,83.259L214.18,82.732L214.902,82.087L215.625,81.329L216.348,80.526L217.07,79.843L217.793,79.219L218.516,78.379L219.238,77.554L219.961,76.636L220.684,75.965L221.406,75.128L222.129,74.249L222.852,73.421L223.574,72.545L224.297,71.742L225.02,70.76L225.742,69.777L226.465,68.845L227.188,68.038L227.91,67.095L228.633,66.155L229.355,65.156L230.078,64.47L230.801,63.389L231.523,62.382L232.246,61.497L232.969,60.494L233.691,59.486L234.414,58.442L235.137,57.585L235.859,56.632L236.582,55.589L237.305,54.637L238.027,53.65L238.75,52.651L239.473,51.778L240.195,50.934L240.918,49.968L241.641,49.081L242.363,48.167L243.086,47.27L243.809,46.492L244.531,45.759L245.254,44.845L245.977,43.97L246.699,43.36L247.422,42.54L248.145,41.645L248.867,40.951L249.59,40.307L250.313,39.6L251.035,38.901L251.758,38.214L252.48,37.581L253.203,36.879L253.926,36.322L254.648,35.636L255.371,35.05L256.094,34.432L256.816,33.875L257.539,33.374L258.262,32.958L258.984,32.376L259.707,31.974L260.43,31.497L261.152,30.946L261.875,30.431L262.598,29.934L263.32,29.483L264.043,29.132L264.766,28.732L265.488,30.112L266.211,33.352L266.934,36.717L267.656,39.879L268.379,43.175L269.102,46.415L269.824,48.792L270.547,49.11L271.27,49.28L271.992,49.467L272.715,49.83L273.438,50.044L274.16,50.203L274.883,50.488L275.605,50.855L276.328,50.987L277.051,51.283L277.773,51.507L278.496,51.648L279.219,51.857L279.941,52.207L280.664,52.235L281.387,52.322L282.109,52.583L282.832,52.717L283.555,52.844L284.277,53.014L285,53.082L285.723,53.147L286.445,53.214L287.168,53.321L287.891,53.286L288.613,53.424L289.336,53.473L290.059,53.44L290.781,53.566L291.504,53.55L292.227,53.537L292.949,53.422L293.672,53.333L294.395,53.469L295.117,53.316L295.84,53.304L296.563,53.147L297.285,52.994L298.008,52.979L298.73,52.787L299.453,52.586L300.176,52.409L300.898,52.216L301.621,52.105L302.344,51.863L303.066,51.591L303.789,51.291L304.512,51.272L305.234,50.788L305.957,50.631L306.68,50.16L307.402,50.038L308.125,49.669L308.848,49.253L309.57,48.867L310.293,48.572L311.016,48.375L311.738,47.904L312.461,47.419L313.184,47.016L313.906,46.806L314.629,46.115L315.352,45.779L316.074,45.483L316.797,44.993L317.52,44.415L318.242,44.114L318.965,43.715L319.688,43.222L320.41,42.736L321.133,42.322L321.855,41.763L322.578,41.364L323.301,40.948L324.023,40.463L324.746,40.112L325.469,39.441L326.191,39.11L326.914,38.709L327.637,38.169L328.359,37.802L329.082,37.316L329.805,36.904L330.527,36.398L331.25,35.997L331.973,35.566L332.695,35.198L333.418,34.804L334.141,34.385L334.863,34.015L335.586,33.583L336.309,33.292L337.031,32.866L337.754,32.499L338.477,32.254L339.199,31.815L339.922,31.437L340.645,31.094L341.367,30.763L342.09,30.507L342.813,30.161L343.535,29.835L344.258,29.531L344.98,29.289L345.703,29.041L346.426,28.702L347.148,28.444L347.871,28.138L348.594,27.973L349.316,27.665L350.039,27.446L350.762,27.232L351.484,26.976L352.207,26.833L352.93,26.522L353.652,26.366L354.375,26.153L355.098,25.952L355.82,25.786L356.543,25.608L357.266,25.395L357.988,25.225L358.711,25.083L359.434,24.917L360.156,24.75L360.879,24.635L361.602,24.54L362.324,24.373L363.047,24.195L363.77,24.105L364.492,23.935L365.215,23.855L365.938,23.734L366.66,23.646L367.383,23.506L368.105,23.38L368.828,23.315L369.551,23.202L370.273,23.131L370.996,22.992L371.719,22.931L372.441,22.864L373.164,22.758L373.887,22.683L374.609,22.623L375.332,22.532L376.055,22.462L376.777,22.409L377.5,22.307L378.223,22.262L378.945,22.199L379.668,22.152L380.391,22.079L381.113,22.038L381.836,21.97L382.559,21.946L383.281,21.89L384.004,21.833L384.727,21.762L385.449,21.759L386.172,21.693L386.895,21.63L387.617,21.627L388.34,21.552L389.063,21.534L389.785,21.498L390.508,21.473L391.23,21.438L391.953,21.388L392.676,21.367L393.398,21.326L394.121,21.329L394.844,21.298L395.566,21.255L396.289,21.246L397.012,21.21L397.734,21.17L398.457,21.147L399.18,21.112L399.902,21.097L400.625,21.098L401.348,21.066L402.07,21.06L402.793,21.04L403.516,21.04L404.238,20.995L404.961,20.979L405.684,20.977L406.406,20.946L407.129,20.928L407.852,20.93L408.574,20.908L409.297,20.887L410.02,20.876L410.742,20.869L411.465,20.85L412.188,20.843L412.91,20.835L413.633,20.82L414.355,20.816L415.078,20.808L415.801,20.792L416.523,20.776L417.246,20.788L417.969,20.777L418.691,20.762L419.414,20.752L420.137,20.747L420.859,20.736L421.582,20.728L422.305,20.73L423.027,20.715L423.75,20.719L424.473,20.713L425.195,20.707L425.918,20.7L426.641,20.681L427.363,20.685L428.086,20.674L428.809,20.674L429.531,20.67L430.254,20.667L430.977,20.663L431.699,20.658L432.422,20.656L433.145,20.649L433.867,20.645L434.59,20.648L435.313,20.633L436.035,20.635L436.758,20.632L437.48,20.63L438.203,20.626L438.926,20.627L439.648,20.619L440.371,20.617L441.094,20.618L441.816,20.611L442.539,20.617L443.262,20.613L443.984,20.607L444.707,20.607L445.43,20.602L446.152,20.605L446.875,20.6L447.598,20.6L448.32,20.598L449.043,20.595L449.766,20.593L450.488,20.59L451.211,20.59L451.934,20.587L452.656,20.592L453.379,20.583L454.102,20.585L454.824,20.582L455.547,20.581L456.27,20.581L456.992,20.578L457.715,20.576L458.438,20.58L459.16,20.58L459.883,20.577L460.605,20.574L461.328,20.577L462.051,20.573L462.773,20.575L463.496,20.571L464.219,20.569L464.941,20.572L465.664,20.57L466.387,20.57L467.109,20.566L467.832,20.566L468.555,20.564L469.277,20.564"/><path fill="none" stroke="rgb(255, 130, 29)" stroke-width="1.5" d="M100,58.28L100.723,58.355L101.445,58.424L102.168,58.391L102.891,58.388L103.613,58.408L104.336,58.505L105.059,58.556L105.781,58.527L106.504,58.542L107.227,58.66L107.949,58.703L108.672,58.727L109.395,58.851L110.117,58.765L110.84,58.887L111.563,58.857L112.285,58.961L113.008,58.999L113.73,59.056L114.453,59.147L115.176,59.22L115.898,59.197L116.621,59.247L117.344,59.343L118.066,59.376L118.789,59.493L119.512,59.493L120.234,59.449L120.957,59.549L121.68,59.558L122.402,59.731L123.125,59.786L123.848,59.791L124.57,59.823L125.293,59.934L126.016,60.013L126.738,59.952L127.461,59.976L128.184,60.074L128.906,60.225L129.629,60.285L130.352,60.341L131.074,60.365L131.797,60.41L132.52,60.463L133.242,60.525L133.965,60.546L134.688,60.628L135.41,60.61L136.133,60.723L136.855,60.832L137.578,60.748L138.301,60.931L139.023,61.027L139.746,60.879L140.469,61.126L141.191,61.098L141.914,61.179L142.637,61.185L143.359,61.219L144.082,61.277L144.805,61.488L145.527,61.324L146.25,61.433L146.973,61.495L147.695,61.479L148.418,61.448L149.141,61.439L149.863,61.572L150.586,61.587L151.309,61.582L152.031,61.57L152.754,61.584L153.477,61.615L154.199,61.568L154.922,61.5L155.645,61.617L156.367,61.605L157.09,61.614L157.813,61.498L158.535,61.447L159.258,61.445L159.98,61.462L160.703,61.31L161.426,61.398L162.148,61.181L162.871,61.026L163.594,61.042L164.316,60.955L165.039,60.944L165.762,60.723L166.484,60.698L167.207,60.517L167.93,60.425L168.652,60.34L169.375,59.995L170.098,59.887L170.82,59.771L171.543,59.596L172.266,59.416L172.988,59.368L173.711,59.045L174.434,58.948L175.156,58.597L175.879,58.381L176.602,58.263L177.324,58.108L178.047,57.773L178.77,57.526L179.492,57.245L180.215,57.049L180.938,56.71L181.66,56.637L182.383,56.288L183.105,55.969L183.828,55.771L184.551,55.429L185.273,55.132L185.996,54.874L186.719,54.535L187.441,54.307L188.164,54.013L188.887,53.665L189.609,53.407L190.332,53.114L191.055,52.76L191.777,52.42L192.5,52.121L193.223,51.751L193.945,51.525L194.668,51.191L195.391,50.809L196.113,50.555L196.836,50.138L197.559,49.87L198.281,49.465L199.004,49.247L199.727,48.856L200.449,48.506L201.172,48.254L201.895,48.089L202.617,47.611L203.34,47.231L204.063,46.907L204.785,46.723L205.508,46.319L206.23,45.842L206.953,45.65L207.676,45.391L208.398,45.033L209.121,44.624L209.844,44.349L210.566,44.155L211.289,43.719L212.012,43.388L212.734,43.055L213.457,42.631L214.18,42.307L214.902,41.965L215.625,41.549L216.348,41.019L217.07,40.779L217.793,40.271L218.516,39.803L219.238,39.376L219.961,38.944L220.684,38.571L221.406,38.012L222.129,37.659L222.852,37.244L223.574,36.832L224.297,36.321L225.02,35.952L225.742,35.514L226.465,35.017L227.188,34.57L227.91,34.241L228.633,33.8L229.355,33.386L230.078,33.006L230.801,32.523L231.523,32.211L232.246,31.735L232.969,31.352L233.691,30.882L234.414,30.539L235.137,30.221L235.859,29.755L236.582,29.347L237.305,28.942L238.027,28.601L238.75,28.18L239.473,27.851L240.195,27.467L240.918,27.132L241.641,26.754L242.363,26.435L243.086,26.008L243.809,25.601L244.531,25.383L245.254,24.912L245.977,24.672L246.699,26.134L247.422,29.35L248.145,32.461L248.867,35.737L249.59,39.019L250.313,42.358L251.035,44.52L251.758,44.795L252.48,44.919L253.203,45.22L253.926,45.452L254.648,45.648L255.371,45.871L256.094,45.968L256.816,46.174L257.539,46.419L258.262,46.553L258.984,46.699L259.707,46.934L260.43,47.046L261.152,47.302L261.875,47.379L262.598,47.559L263.32,47.701L264.043,47.972L264.766,47.96L265.488,48.299L266.211,48.323L266.934,48.531L267.656,48.742L268.379,48.808L269.102,49.091L269.824,49.228L270.547,49.462L271.27,49.687L271.992,49.71L272.715,49.921L273.438,50.067L274.16,50.249L274.883,50.408L275.605,50.625L276.328,50.689L277.051,50.88L277.773,51.055L278.496,51.238L279.219,51.386L279.941,51.535L280.664,51.652L281.387,51.749L282.109,51.947L282.832,52.008L283.555,52.178L284.277,52.105L285,52.253L285.723,52.46L286.445,52.522L287.168,52.575L287.891,52.554L288.613,52.702L289.336,52.758L290.059,52.727L290.781,52.825L291.504,52.695L292.227,52.734L292.949,52.678L293.672,52.777L294.395,52.716L295.117,52.742L295.84,52.678L296.563,52.529L297.285,52.431L298.008,52.49L298.73,52.383L299.453,52.33L300.176,52.048L300.898,51.961L301.621,51.773L302.344,51.619L303.066,51.48L303.789,51.105L304.512,51.086L305.234,50.831L305.957,50.6L306.68,50.292L307.402,50.068L308.125,49.8L308.848,49.474L309.57,49.121L310.293,48.964L311.016,48.567L311.738,48.271L312.461,47.935L313.184,47.566L313.906,47.162L314.629,46.774L315.352,46.328L316.074,46.006L316.797,45.552L317.52,45.226L318.242,44.784L318.965,44.309L319.688,43.991L320.41,43.681L321.133,43.093L321.855,42.647L322.578,42.163L323.301,41.727L324.023,41.28L324.746,40.774L325.469,40.397L326.191,39.852L326.914,39.502L327.637,39.094L328.359,38.719L329.082,38.145L329.805,37.759L330.527,37.381L331.25,36.973L331.973,36.468L332.695,36.121L333.418,35.772L334.141,35.215L334.863,34.894L335.586,34.442L336.309,34.053L337.031,33.654L337.754,33.327L338.477,32.927L339.199,32.61L339.922,32.198L340.645,31.92L341.367,31.579L342.09,31.215L342.813,30.848L343.535,30.547L344.258,30.237L344.98,29.961L345.703,29.657L346.426,29.342L347.148,29.118L347.871,28.871L348.594,28.549L349.316,28.291L350.039,28.015L350.762,27.805L351.484,27.621L352.207,27.258L352.93,27.07L353.652,26.869L354.375,26.648L355.098,26.461L355.82,26.271L356.543,26.084L357.266,25.89L357.988,25.71L358.711,25.505L359.434,25.35L360.156,25.167L360.879,25.024L361.602,24.861L362.324,24.666L363.047,24.548L363.77,24.453L364.492,24.266L365.215,24.122L365.938,24.045L366.66,23.901L367.383,23.768L368.105,23.714L368.828,23.573L369.551,23.485L370.273,23.337L370.996,23.253L371.719,23.137L372.441,23.063L373.164,22.966L373.887,22.884L374.609,22.811L375.332,22.713L376.055,22.643L376.777,22.566L377.5,22.519L378.223,22.449L378.945,22.401L379.668,22.317L380.391,22.238L381.113,22.158L381.836,22.104L382.559,22.054L383.281,21.983L384.004,21.971L384.727,21.913L385.449,21.835L386.172,21.827L386.895,21.751L387.617,21.714L388.34,21.664L389.063,21.64L389.785,21.606L390.508,21.581L391.23,21.526L391.953,21.507L392.676,21.447L393.398,21.417L394.121,21.393L394.844,21.36L395.566,21.322L396.289,21.296L397.012,21.252L397.734,21.252L398.457,21.227L399.18,21.175L399.902,21.167L400.625,21.148L401.348,21.126L402.07,21.1L402.793,21.084L403.516,21.052L404.238,21.051L404.961,21.01L405.684,21.01L406.406,20.981L407.129,20.972L407.852,20.949L408.574,20.945L409.297,20.925L410.02,20.913L410.742,20.895L411.465,20.876L412.188,20.882L412.91,20.86L413.633,20.849L414.355,20.842L415.078,20.831L415.801,20.824L416.523,20.811L417.246,20.798L417.969,20.79L418.691,20.784L419.414,20.773L420.137,20.77L420.859,20.767L421.582,20.755L422.305,20.745L423.027,20.728L423.75,20.734L424.473,20.724L425.195,20.723L425.918,20.711L426.641,20.71L427.363,20.694L428.086,20.699L428.809,20.691L429.531,20.685L430.254,20.683L430.977,20.671L431.699,20.669L432.422,20.669L433.145,20.663L433.867,20.659L434.59,20.656L435.313,20.644L436.035,20.649L436.758,20.641L437.48,20.642L438.203,20.639L438.926,20.631L439.648,20.627L440.371,20.627L441.094,20.627L441.816,20.626L442.539,20.622L443.262,20.618L443.984,20.617L444.707,20.61L445.43,20.609L446.152,20.604L446.875,20.603L447.598,20.603L448.32,20.598L449.043,20.603L449.766,20.6L450.488,20.596L451.211,20.592L451.934,20.588L452.656,20.588L453.379,20.588L454.102,20.582L454.824,20.583L455.547,20.588L456.27,20.588L456.992,20.581L457.715,20.581L458.438,20.582L459.16,20.578L459.883,20.578L460.605,20.577L461.328,20.575L462.051,20.575L462.773,20.576L463.496,20.571L464.219,20.573L464.941,20.572L465.664,20.574L466.387,20.57L467.109,20.568L467.832,20.569L468.555,20.566L469.277,20.566"/><path fill="none" stroke="rgb(203, 47, 13)" stroke-width="1.5" d="M100,45.979L100.723,45.947L101.445,45.839L102.168,45.789L102.891,45.859L103.613,45.693L104.336,45.53L105.059,45.616L105.781,45.449L106.504,45.491L107.227,45.361L107.949,45.477L108.672,45.306L109.395,45.321L110.117,45.25L110.84,45.255L111.563,45.146L112.285,45.108L113.008,44.997L113.73,44.986L114.453,44.859L115.176,44.691L115.898,44.814L116.621,44.611L117.344,44.569L118.066,44.455L118.789,44.443L119.512,44.444L120.234,44.366L120.957,44.248L121.68,44.159L122.402,44.047L123.125,44.063L123.848,43.864L124.57,43.874L125.293,43.751L126.016,43.63L126.738,43.579L127.461,43.506L128.184,43.458L128.906,43.287L129.629,43.109L130.352,43.096L131.074,42.972L131.797,42.898L132.52,42.928L133.242,42.672L133.965,42.65L134.688,42.425L135.41,42.403L136.133,42.197L136.855,42.15L137.578,42.052L138.301,41.89L139.023,41.958L139.746,41.672L140.469,41.688L141.191,41.435L141.914,41.27L142.637,41.205L143.359,41.073L144.082,41.001L144.805,40.805L145.527,40.792L146.25,40.622L146.973,40.517L147.695,40.374L148.418,40.271L149.141,40.189L149.863,40.039L150.586,39.846L151.309,39.788L152.031,39.591L152.754,39.339L153.477,39.237L154.199,39.111L154.922,38.975L155.645,38.891L156.367,38.705L157.09,38.497L157.813,38.389L158.535,38.216L159.258,38.137L159.98,37.887L160.703,37.713L161.426,37.663L162.148,37.492L162.871,37.373L163.594,37.216L164.316,37.051L165.039,36.991L165.762,36.763L166.484,36.631L167.207,36.435L167.93,36.243L168.652,36.084L169.375,35.895L170.098,35.8L170.82,35.711L171.543,35.48L172.266,35.363L172.988,35.122L173.711,35.025L174.434,34.852L175.156,34.611L175.879,34.388L176.602,34.404L177.324,34.2L178.047,33.965L178.77,33.803L179.492,33.804L180.215,33.571L180.938,33.405L181.66,33.182L182.383,32.985L183.105,32.871L183.828,32.532L184.551,32.662L185.273,32.408L185.996,32.271L186.719,32.093L187.441,32.058L188.164,31.815L188.887,31.498L189.609,31.511L190.332,31.342L191.055,31.194L191.777,30.977L192.5,30.832L193.223,30.707L193.945,30.608L194.668,30.477L195.391,30.307L196.113,30.076L196.836,29.976L197.559,29.767L198.281,29.692L199.004,29.418L199.727,29.209L200.449,29.16L201.172,28.989L201.895,28.901L202.617,28.776L203.34,28.662L204.063,28.455L204.785,28.301L205.508,28.217L206.23,28.083L206.953,27.872L207.676,27.822L208.398,27.719L209.121,27.453L209.844,27.356L210.566,27.193L211.289,27.14L212.012,26.948L212.734,26.779L213.457,26.702L214.18,26.499L214.902,26.389L215.625,26.105L216.348,26.017L217.07,25.835L217.793,25.611L218.516,25.518L219.238,25.26L219.961,24.99L220.684,24.81L221.406,24.682L222.129,24.465L222.852,24.313L223.574,24.098L224.297,23.833L225.02,23.618L225.742,23.458L226.465,23.147L227.188,23.018L227.91,22.847L228.633,22.513L229.355,22.267L230.078,22.438L230.801,25.796L231.523,29.065L232.246,32.517L232.969,35.827L233.691,39.201L234.414,42.586L235.137,43.113L235.859,43.504L236.582,43.769L237.305,44.153L238.027,44.417L238.75,44.769L239.473,44.999L240.195,45.379L240.918,45.629L241.641,45.896L242.363,46.195L243.086,46.343L243.809,46.715L244.531,46.835L245.254,47.004L245.977,47.316L246.699,47.492L247.422,47.745L248.145,47.844L248.867,48.076L249.59,48.262L250.313,48.394L251.035,48.626L251.758,48.671L252.48,48.906L253.203,49.001L253.926,49.112L254.648,49.211L255.371,49.416L256.094,49.542L256.816,49.568L257.539,49.717L258.262,49.841L258.984,49.959L259.707,50.047L260.43,50.186L261.152,50.386L261.875,50.392L262.598,50.538L263.32,50.714L264.043,50.608L264.766,50.845L265.488,50.994L266.211,51.072L266.934,51.102L267.656,51.302L268.379,51.347L269.102,51.537L269.824,51.594L270.547,51.817L271.27,51.87L271.992,52.034L272.715,52.137L273.438,52.238L274.16,52.345L274.883,52.503L275.605,52.634L276.328,52.769L277.051,52.909L277.773,53.091L278.496,53.155L279.219,53.33L279.941,53.399L280.664,53.499L281.387,53.569L282.109,53.67L282.832,53.755L283.555,53.849L284.277,53.893L285,53.938L285.723,53.913L286.445,54.154L287.168,54.177L287.891,54.141L288.613,54.29L289.336,54.143L290.059,54.183L290.781,54.213L291.504,54.337L292.227,54.319L292.949,54.219L293.672,54.21L294.395,54.125L295.117,54.195L295.84,54.184L296.563,54.034L297.285,53.864L298.008,53.842L298.73,53.723L299.453,53.516L300.176,53.404L300.898,53.221L301.621,53.255L302.344,52.932L303.066,52.7L303.789,52.61L304.512,52.376L305.234,52.121L305.957,51.846L306.68,51.658L307.402,51.278L308.125,51.107L308.848,50.829L309.57,50.539L310.293,50.193L311.016,49.929L311.738,49.57L312.461,49.143L313.184,48.817L313.906,48.475L314.629,48.038L315.352,47.643L316.074,47.335L316.797,46.924L317.52,46.426L318.242,45.975L318.965,45.612L319.688,45.19L320.41,44.686L321.133,44.319L321.855,43.846L322.578,43.413L323.301,42.995L324.023,42.499L324.746,41.937L325.469,41.732L326.191,41.123L326.914,40.75L327.637,40.209L328.359,39.797L329.082,39.258L329.805,38.884L330.527,38.505L331.25,37.923L331.973,37.448L332.695,37.155L333.418,36.715L334.141,36.304L334.863,35.742L335.586,35.422L336.309,35.026L337.031,34.576L337.754,34.239L338.477,33.801L339.199,33.394L339.922,33.069L340.645,32.725L341.367,32.368L342.09,31.938L342.813,31.619L343.535,31.26L344.258,30.986L344.98,30.61L345.703,30.332L346.426,30.03L347.148,29.742L347.871,29.401L348.594,29.119L349.316,28.921L350.039,28.58L350.762,28.344L351.484,28.062L352.207,27.909L352.93,27.623L353.652,27.359L354.375,27.131L355.098,26.955L355.82,26.701L356.543,26.475L357.266,26.384L357.988,26.096L358.711,25.905L359.434,25.705L360.156,25.531L360.879,25.373L361.602,25.203L362.324,25.056L363.047,24.888L363.77,24.778L364.492,24.594L365.215,24.463L365.938,24.297L366.66,24.224L367.383,24.085L368.105,23.936L368.828,23.815L369.551,23.722L370.273,23.615L370.996,23.486L371.719,23.337L372.441,23.246L373.164,23.197L373.887,23.089L374.609,22.994L375.332,22.896L376.055,22.834L376.777,22.755L377.5,22.663L378.223,22.618L378.945,22.547L379.668,22.459L380.391,22.394L381.113,22.339L381.836,22.248L382.559,22.2L383.281,22.15L384.004,22.068L384.727,22.029L385.449,21.969L386.172,21.908L386.895,21.852L387.617,21.81L388.34,21.771L389.063,21.738L389.785,21.707L390.508,21.664L391.23,21.6L391.953,21.586L392.676,21.517L393.398,21.506L394.121,21.463L394.844,21.444L395.566,21.409L396.289,21.368L397.012,21.342L397.734,21.306L398.457,21.28L399.18,21.263L399.902,21.212L400.625,21.21L401.348,21.176L402.07,21.164L402.793,21.131L403.516,21.127L404.238,21.092L404.961,21.077L405.684,21.048L406.406,21.033L407.129,21.01L407.852,20.991L408.574,20.979L409.297,20.975L410.02,20.951L410.742,20.936L411.465,20.936L412.188,20.905L412.91,20.894L413.633,20.888L414.355,20.866L415.078,20.863L415.801,20.848L416.523,20.828L417.246,20.829L417.969,20.823L418.691,20.805L419.414,20.796L420.137,20.788L420.859,20.767L421.582,20.768L422.305,20.761L423.027,20.758L423.75,20.744L424.473,20.731L425.195,20.718L425.918,20.724L426.641,20.72L427.363,20.722L428.086,20.706L428.809,20.703L429.531,20.695L430.254,20.69L430.977,20.688L431.699,20.68L432.422,20.679L433.145,20.674L433.867,20.665L434.59,20.667L435.313,20.663L436.035,20.653L436.758,20.646L437.48,20.649L438.203,20.649L438.926,20.645L439.648,20.641L440.371,20.635L441.094,20.628L441.816,20.626L442.539,20.622L443.262,20.62L443.984,20.622L444.707,20.617L445.43,20.61L446.152,20.613L446.875,20.613L447.598,20.61L448.32,20.601L449.043,20.604L449.766,20.602L450.488,20.603L451.211,20.598L451.934,20.599L452.656,20.592L453.379,20.597L454.102,20.595L454.824,20.593L455.547,20.586L456.27,20.59L456.992,20.586L457.715,20.585L458.438,20.581L459.16,20.583L459.883,20.582L460.605,20.58L461.328,20.577L462.051,20.578L462.773,20.579L463.496,20.574L464.219,20.577L464.941,20.576L465.664,20.572L466.387,20.574L467.109,20.571L467.832,20.568L468.555,20.567L469.277,20.568"/><g transform="translate(15,190) scale(1.7) rotate(-90)"><text>Drift</text></g><g transform="translate(315,395) scale(1.8)"><text></text></g><g transform="translate(0,350)" fill="none" font-size="10" font-family="sans-serif" text-anchor="middle"><path class="domain" stroke="currentColor" d="M100,6V0H470V6"/><g class="tick" opacity="1" transform="translate(136.96669666966696,0)"><line stroke="currentColor" y2="6"/><text fill="currentColor" y="9" dy="0.71em" font-size="20px"> </text></g><g class="tick" opacity="1" transform="translate(173.97039703970398,0)"><line stroke="currentColor" y2="6"/><text fill="currentColor" y="9" dy="0.71em" font-size="20px">20</text></g><g class="tick" opacity="1" transform="translate(210.97409740974098,0)"><line stroke="currentColor" y2="6"/><text fill="currentColor" y="9" dy="0.71em" font-size="20px"> </text></g><g class="tick" opacity="1" transform="translate(247.97779777977803,0)"><line stroke="currentColor" y2="6"/><text fill="currentColor" y="9" dy="0.71em" font-size="20px">40</text></g><g class="tick" opacity="1" transform="translate(284.981498149815,0)"><line stroke="currentColor" y2="6"/><text fill="currentColor" y="9" dy="0.71em" font-size="20px"> </text></g><g class="tick" opacity="1" transform="translate(321.985198519852,0)"><line stroke="currentColor" y2="6"/><text fill="currentColor" y="9" dy="0.71em" font-size="20px">60</text></g><g class="tick" opacity="1" transform="translate(358.988898889889,0)"><line stroke="currentColor" y2="6"/><text fill="currentColor" y="9" dy="0.71em" font-size="20px"> </text></g><g class="tick" opacity="1" transform="translate(395.992599259926,0)"><line stroke="currentColor" y2="6"/><text fill="currentColor" y="9" dy="0.71em" font-size="20px">80</text></g><g class="tick" opacity="1" transform="translate(432.996299629963,0)"><line stroke="currentColor" y2="6"/><text fill="currentColor" y="9" dy="0.71em" font-size="20px"> </text></g><g class="tick" opacity="1" transform="translate(470,0)"><line stroke="currentColor" y2="6"/><text fill="currentColor" y="9" dy="0.71em" font-size="20px">100</text></g></g><g transform="translate(100,0)" fill="none" font-size="10" font-family="sans-serif" text-anchor="end"><path class="domain" stroke="currentColor" d="M-6,350H0V20H-6"/><g class="tick" opacity="1" transform="translate(0,340.6545634808941)"><line stroke="currentColor" x2="-6"/><text fill="currentColor" x="-9" dy="0.32em" font-size="20px">0.50</text></g><g class="tick" opacity="1" transform="translate(0,307.54030054559973)"><line stroke="currentColor" x2="-6"/><text fill="currentColor" x="-9" dy="0.32em" font-size="20px">0.45</text></g><g class="tick" opacity="1" transform="translate(0,274.42603761030534)"><line stroke="currentColor" x2="-6"/><text fill="currentColor" x="-9" dy="0.32em" font-size="20px">0.40</text></g><g class="tick" opacity="1" transform="translate(0,241.31177467501092)"><line stroke="currentColor" x2="-6"/><text fill="currentColor" x="-9" dy="0.32em" font-size="20px">0.35</text></g><g class="tick" opacity="1" transform="translate(0,208.19751173971656)"><line stroke="currentColor" x2="-6"/><text fill="currentColor" x="-9" dy="0.32em" font-size="20px">0.30</text></g><g class="tick" opacity="1" transform="translate(0,175.08324880442214)"><line stroke="currentColor" x2="-6"/><text fill="currentColor" x="-9" dy="0.32em" font-size="20px">0.25</text></g><g class="tick" opacity="1" transform="translate(0,141.96898586912772)"><line stroke="currentColor" x2="-6"/><text fill="currentColor" x="-9" dy="0.32em" font-size="20px">0.20</text></g><g class="tick" opacity="1" transform="translate(0,108.85472293383333)"><line stroke="currentColor" x2="-6"/><text fill="currentColor" x="-9" dy="0.32em" font-size="20px">0.15</text></g><g class="tick" opacity="1" transform="translate(0,75.74045999853888)"><line stroke="currentColor" x2="-6"/><text fill="currentColor" x="-9" dy="0.32em" font-size="20px">0.10</text></g><g class="tick" opacity="1" transform="translate(0,42.62619706324449)"><line stroke="currentColor" x2="-6"/><text fill="currentColor" x="-9" dy="0.32em" font-size="20px">0.05</text></g></g><circle cx="355" cy="150" r="8" style="fill: rgb(35, 23, 27);"/><circle cx="355" cy="175" r="8" style="fill: rgb(69, 105, 238);"/><circle cx="355" cy="200" r="8" style="fill: rgb(38, 188, 225);"/><circle cx="355" cy="225" r="8" style="fill: rgb(63, 243, 147);"/><circle cx="355" cy="250" r="8" style="fill: rgb(149, 251, 81);"/><circle cx="355" cy="275" r="8" style="fill: rgb(236, 209, 46);"/><circle cx="355" cy="300" r="8" style="fill: rgb(255, 130, 29);"/><circle cx="355" cy="325" r="8" style="fill: rgb(203, 47, 13);"/><text x="370" y="150" text-anchor="left" font-size="22" alignment-baseline="middle" style="fill: rgb(35, 23, 27);"> = 0</text><text x="370" y="175" text-anchor="left" font-size="22" alignment-baseline="middle" style="fill: rgb(69, 105, 238);"> = 0.22</text><text x="370" y="200" text-anchor="left" font-size="22" alignment-baseline="middle" style="fill: rgb(38, 188, 225);"> = 0.45</text><text x="370" y="225" text-anchor="left" font-size="22" alignment-baseline="middle" style="fill: rgb(63, 243, 147);"> = 0.67</text><text x="370" y="250" text-anchor="left" font-size="22" alignment-baseline="middle" style="fill: rgb(149, 251, 81);"> = 0.9</text><text x="370" y="275" text-anchor="left" font-size="22" alignment-baseline="middle" style="fill: rgb(236, 209, 46);"> = 1.12</text><text x="370" y="300" text-anchor="left" font-size="22" alignment-baseline="middle" style="fill: rgb(255, 130, 29);"> = 1.35</text><text x="370" y="325" text-anchor="left" font-size="22" alignment-baseline="middle" style="fill: rgb(203, 47, 13);"> = 1.57</text></svg>