<svg xmlns="http://www.w3.org/2000/svg" class="bg-white" width="500" height="400" viewBox="-10 -1 500 400"><path fill="none" stroke="rgb(35, 23, 27)" stroke-width="1.5" d="M100,155.157L100.723,155.763L101.445,156.298L102.168,157.201L102.891,157.704L103.613,158.33L104.336,159.234L105.059,159.942L105.781,160.638L106.504,161.4L107.227,162.105L107.949,163.163L108.672,164.07L109.395,164.696L110.117,165.875L110.84,166.539L111.563,167.414L112.285,168.593L113.008,169.642L113.73,170.689L114.453,171.707L115.176,172.585L115.898,173.623L116.621,175.003L117.344,175.873L118.066,177.39L118.789,178.609L119.512,179.859L120.234,181.243L120.957,182.195L121.68,183.716L122.402,185.105L123.125,186.79L123.848,188.245L124.57,189.816L125.293,191.453L126.016,193.286L126.738,194.906L127.461,197.148L128.184,199.085L128.906,201.013L129.629,202.826L130.352,205.02L131.074,207.195L131.797,209.499L132.52,211.816L133.242,214.549L133.965,217.154L134.688,219.54L135.41,222.384L136.133,224.786L136.855,227.961L137.578,230.551L138.301,233.712L139.023,236.611L139.746,240.028L140.469,242.968L141.191,246.281L141.914,249.633L142.637,252.866L143.359,256.062L144.082,259.597L144.805,263.197L145.527,266.573L146.25,270.133L146.973,273.584L147.695,276.997L148.418,280.732L149.141,283.917L149.863,287.389L150.586,290.661L151.309,294.505L152.031,297.772L152.754,301.057L153.477,304.121L154.199,307.578L154.922,310.783L155.645,313.552L156.367,316.622L157.09,319.516L157.813,322.264L158.535,324.984L159.258,327.518L159.98,329.606L160.703,331.837L161.426,334.237L162.148,336.439L162.871,338.405L163.594,339.747L164.316,341.549L165.039,343.063L165.762,344.595L166.484,345.835L167.207,346.77L167.93,347.877L168.652,348.614L169.375,349.227L170.098,349.54L170.82,349.86L171.543,349.698L172.266,350L172.988,349.92L173.711,349.62L174.434,348.967L175.156,348.608L175.879,347.823L176.602,347.006L177.324,346.045L178.047,344.937L178.77,343.131L179.492,342.286L180.215,340.85L180.938,338.866L181.66,337.463L182.383,335.758L183.105,333.712L183.828,331.598L184.551,329.708L185.273,327.533L185.996,325.156L186.719,322.749L187.441,320.27L188.164,317.684L188.887,315.232L189.609,312.432L190.332,309.442L191.055,306.855L191.777,303.914L192.5,301.234L193.223,298.129L193.945,295.149L194.668,292.254L195.391,289.058L196.113,285.87L196.836,282.568L197.559,279.588L198.281,276.196L199.004,273.053L199.727,270.002L200.449,266.676L201.172,263.308L201.895,260.422L202.617,256.847L203.34,253.827L204.063,250.612L204.785,247.512L205.508,244.14L206.23,240.651L206.953,237.357L207.676,234.383L208.398,231.281L209.121,227.911L209.844,224.57L210.566,221.48L211.289,218.49L212.012,215.133L212.734,212.033L213.457,209.217L214.18,205.935L214.902,202.878L215.625,199.927L216.348,196.96L217.07,193.942L217.793,190.885L218.516,188.23L219.238,185.278L219.961,182.297L220.684,179.535L221.406,176.6L222.129,173.885L222.852,171.138L223.574,168.354L224.297,165.584L225.02,162.849L225.742,160.317L226.465,157.357L227.188,155.233L227.91,152.608L228.633,149.952L229.355,147.568L230.078,144.528L230.801,142.125L231.523,139.665L232.246,137.52L232.969,135.187L233.691,132.792L234.414,130.616L235.137,128.182L235.859,125.968L236.582,123.775L237.305,121.651L238.027,119.175L238.75,119.734L239.473,120.108L240.195,120.446L240.918,120.916L241.641,121.705L242.363,122.083L243.086,121.094L243.809,119.443L244.531,118.118L245.254,116.316L245.977,114.719L246.699,113.009L247.422,111.573L248.145,110.475L248.867,108.894L249.59,107.38L250.313,105.845L251.035,104.506L251.758,103.001L252.48,101.616L253.203,100.385L253.926,98.995L254.648,97.547L255.371,96.368L256.094,94.946L256.816,93.659L257.539,92.439L258.262,91.073L258.984,90.147L259.707,89.017L260.43,87.545L261.152,86.43L261.875,85.512L262.598,84.12L263.32,83.216L264.043,81.887L264.766,81.111L265.488,79.772L266.211,78.993L266.934,77.761L267.656,76.755L268.379,75.764L269.102,74.746L269.824,74.123L270.547,72.855L271.27,71.96L271.992,71.11L272.715,70.327L273.438,69.383L274.16,68.248L274.883,67.518L275.605,66.848L276.328,65.789L277.051,65.162L277.773,64.416L278.496,63.566L279.219,62.66L279.941,61.767L280.664,61.107L281.387,60.318L282.109,59.593L282.832,58.967L283.555,58.169L284.277,57.444L285,56.811L285.723,56.213L286.445,55.439L287.168,54.734L287.891,54.226L288.613,53.5L289.336,52.787L290.059,52.191L290.781,51.677L291.504,51.039L292.227,50.503L292.949,49.912L293.672,49.22L294.395,48.681L295.117,48.313L295.84,47.532L296.563,46.936L297.285,46.46L298.008,46.011L298.73,45.384L299.453,44.852L300.176,44.545L300.898,44.15L301.621,43.498L302.344,43.034L303.066,42.532L303.789,42.064L304.512,41.603L305.234,41.315L305.957,40.873L306.68,40.239L307.402,39.867L308.125,39.456L308.848,39.155L309.57,38.823L310.293,38.393L311.016,37.963L311.738,37.471L312.461,37.199L313.184,36.806L313.906,36.466L314.629,36.237L315.352,35.901L316.074,35.692L316.797,35.174L317.52,34.831L318.242,34.593L318.965,34.145L319.688,33.917L320.41,33.497L321.133,33.315L321.855,33.061L322.578,32.655L323.301,32.501L324.023,32.215L324.746,31.935L325.469,31.747L326.191,31.437L326.914,31.14L327.637,30.895L328.359,30.6L329.082,30.472L329.805,30.239L330.527,29.978L331.25,29.699L331.973,29.374L332.695,29.33L333.418,29.089L334.141,28.995L334.863,28.451L335.586,28.441L336.309,28.302L337.031,28.095L337.754,27.838L338.477,27.696L339.199,27.432L339.922,27.333L340.645,27.036L341.367,27.005L342.09,26.728L342.813,26.562L343.535,26.516L344.258,26.203L344.98,26.127L345.703,26.08L346.426,25.841L347.148,25.715L347.871,25.599L348.594,25.231L349.316,25.05L350.039,25.183L350.762,25.082L351.484,24.754L352.207,24.697L352.93,24.428L353.652,24.406L354.375,24.506L355.098,23.84L355.82,24.021L356.543,23.99L357.266,23.955L357.988,23.717L358.711,23.471L359.434,23.56L360.156,23.297L360.879,23.389L361.602,23.206L362.324,23.246L363.047,22.797L363.77,23.111L364.492,22.766L365.215,22.616L365.938,22.57L366.66,22.336L367.383,22.556L368.105,22.416L368.828,22.331L369.551,22.382L370.273,22.455L370.996,22.133L371.719,22.127L372.441,22.101L373.164,22.139L373.887,21.916L374.609,22.393L375.332,22.117L376.055,21.745L376.777,21.426L377.5,21.271L378.223,21.405L378.945,21.703L379.668,21.335L380.391,21.332L381.113,21.445L381.836,21.29L382.559,21.325L383.281,21.167L384.004,20.965L384.727,21.577L385.449,21.317L386.172,21.521L386.895,21.246L387.617,21.538L388.34,21.933L389.063,21.433L389.785,21.212L390.508,21.283L391.23,21.123L391.953,21.867L392.676,21.405L393.398,21.385L394.121,21.618L394.844,21.51L395.566,21.367L396.289,21.349L397.012,21.233L397.734,21.429L398.457,21.358L399.18,21.555L399.902,20.825L400.625,22.639L401.348,22.464L402.07,22.052L402.793,22.111L403.516,21.694L404.238,22.168L404.961,22.928L405.684,23.131L406.406,23.665L407.129,23.366L407.852,24.491L408.574,23.645L409.297,25.576L410.02,24.899L410.742,23.154L411.465,24.152L412.188,23.794L412.91,25.306L413.633,25.145L414.355,25.812L415.078,26.71L415.801,27.578L416.523,27.089L417.246,27.261L417.969,27.455L418.691,29.713L419.414,27.316L420.137,28.695L420.859,28.652L421.582,27.974L422.305,28.888L423.027,28.237L423.75,29.518L424.473,29.547L425.195,28.651L425.918,28.234L426.641,28.679L427.363,29.295L428.086,28.698L428.809,28.057L429.531,27.162L430.254,27.345L430.977,26.835L431.699,27.056L432.422,27.124L433.145,26.001L433.867,25.638L434.59,26.276L435.313,25.178L436.035,25.252L436.758,24.899L437.48,24.819L438.203,25.184L438.926,24.244L439.648,23.765L440.371,24.436L441.094,23.007L441.816,23.763L442.539,23.491L443.262,23.297L443.984,23.409L444.707,22.818L445.43,22.961L446.152,22.693L446.875,22.356L447.598,22.208L448.32,22.127L449.043,22.178L449.766,21.862L450.488,21.853L451.211,21.479L451.934,21.089L452.656,21.631L453.379,20.957L454.102,21.161L454.824,21.202L455.547,21.232L456.27,21.188L456.992,20.952L457.715,20.908L458.438,20.679L459.16,20.855L459.883,20.743L460.605,20.593L461.328,20.497L462.051,20.694L462.773,20.65L463.496,20.471L464.219,20.542L464.941,20.523L465.664,20.497L466.387,20.286L467.109,20.329L467.832,20.411L468.555,20.177L469.277,20.209"/><path fill="none" stroke="rgb(69, 105, 238)" stroke-width="1.5" d="M100,154.388L100.723,155.077L101.445,155.653L102.168,156.284L102.891,156.981L103.613,157.729L104.336,158.367L105.059,159.068L105.781,159.797L106.504,160.418L107.227,161.333L107.949,162.009L108.672,162.942L109.395,163.812L110.117,164.606L110.84,165.495L111.563,166.359L112.285,167.511L113.008,168.188L113.73,169.045L114.453,170.016L115.176,171L115.898,172.057L116.621,173.073L117.344,174.117L118.066,175.334L118.789,176.418L119.512,177.698L120.234,178.812L120.957,180.139L121.68,181.37L122.402,182.66L123.125,183.817L123.848,185.434L124.57,186.628L125.293,188.099L126.016,189.64L126.738,191.076L127.461,192.644L128.184,194.15L128.906,195.769L129.629,197.534L130.352,199.128L131.074,200.921L131.797,202.741L132.52,204.59L133.242,206.339L133.965,208.437L134.688,210.127L135.41,212.326L136.133,214.193L136.855,216.186L137.578,218.198L138.301,220.512L139.023,222.704L139.746,224.745L140.469,226.931L141.191,229.109L141.914,231.215L142.637,233.303L143.359,235.556L144.082,237.901L144.805,240.335L145.527,242.562L146.25,244.605L146.973,246.835L147.695,248.985L148.418,251.322L149.141,253.477L149.863,255.539L150.586,257.68L151.309,259.796L152.031,261.626L152.754,263.799L153.477,265.447L154.199,267.855L154.922,269.645L155.645,271.051L156.367,272.842L157.09,274.469L157.813,275.816L158.535,277.312L159.258,279.278L159.98,280.237L160.703,281.722L161.426,282.794L162.148,283.571L162.871,284.765L163.594,285.65L164.316,286.639L165.039,286.967L165.762,287.804L166.484,288.299L167.207,288.636L167.93,288.921L168.652,288.851L169.375,289.12L170.098,289.173L170.82,288.665L171.543,288.297L172.266,288.115L172.988,287.59L173.711,287.158L174.434,286.777L175.156,285.895L175.879,284.877L176.602,283.664L177.324,282.523L178.047,281.352L178.77,280.23L179.492,278.785L180.215,277.401L180.938,275.663L181.66,274.129L182.383,272.632L183.105,270.967L183.828,268.674L184.551,266.948L185.273,264.817L185.996,263.583L186.719,260.896L187.441,258.64L188.164,256.554L188.887,254.119L189.609,251.834L190.332,249.534L191.055,247.399L191.777,244.392L192.5,242.539L193.223,240.051L193.945,237.283L194.668,234.422L195.391,232.663L196.113,229.743L196.836,226.687L197.559,224.397L198.281,221.492L199.004,218.942L199.727,216.18L200.449,213.671L201.172,210.894L201.895,208.203L202.617,205.333L203.34,202.97L204.063,200.1L204.785,197.223L205.508,194.69L206.23,191.974L206.953,189.114L207.676,186.38L208.398,184.16L209.121,181.457L209.844,178.429L210.566,176.226L211.289,173.377L212.012,170.761L212.734,168.387L213.457,165.939L214.18,163.196L214.902,160.775L215.625,158.356L216.348,155.976L217.07,153.309L217.793,151.169L218.516,148.81L219.238,146.02L219.961,143.779L220.684,141.349L221.406,139.093L222.129,136.748L222.852,134.573L223.574,132.511L224.297,129.897L225.02,127.83L225.742,125.583L226.465,123.369L227.188,121.463L227.91,119.085L228.633,117.194L229.355,114.832L230.078,113.095L230.801,111.016L231.523,108.958L232.246,107.026L232.969,105.066L233.691,103.06L234.414,101.102L235.137,99.359L235.859,97.557L236.582,95.718L237.305,94.503L238.027,95.187L238.75,96.105L239.473,96.846L240.195,97.925L240.918,98.677L241.641,99.611L242.363,98.354L243.086,96.933L243.809,95.579L244.531,94.471L245.254,93.388L245.977,92.023L246.699,90.867L247.422,89.669L248.145,88.367L248.867,87.387L249.59,86.419L250.313,85.071L251.035,84.044L251.758,83.137L252.48,81.883L253.203,80.921L253.926,79.73L254.648,79.091L255.371,77.837L256.094,77.065L256.816,75.783L257.539,75.085L258.262,74.097L258.984,73.209L259.707,72.131L260.43,71.377L261.152,70.635L261.875,69.677L262.598,68.84L263.32,68.056L264.043,67.404L264.766,66.674L265.488,65.763L266.211,65.069L266.934,64.335L267.656,63.59L268.379,63.083L269.102,62.128L269.824,61.529L270.547,60.956L271.27,60.335L271.992,59.661L272.715,59.03L273.438,58.303L274.16,57.883L274.883,57.111L275.605,56.59L276.328,56.058L277.051,55.527L277.773,54.943L278.496,54.376L279.219,53.747L279.941,53.226L280.664,52.757L281.387,52.094L282.109,51.522L282.832,51.031L283.555,50.695L284.277,50.093L285,49.559L285.723,49.107L286.445,48.629L287.168,48.053L287.891,47.592L288.613,47.152L289.336,46.619L290.059,46.178L290.781,45.866L291.504,45.29L292.227,44.831L292.949,44.557L293.672,44.043L294.395,43.697L295.117,43.154L295.84,42.782L296.563,42.496L297.285,41.949L298.008,41.609L298.73,41.277L299.453,40.949L300.176,40.595L300.898,40.25L301.621,39.693L302.344,39.425L303.066,39.026L303.789,38.638L304.512,38.164L305.234,38.05L305.957,37.756L306.68,37.358L307.402,36.937L308.125,36.633L308.848,36.34L309.57,35.988L310.293,35.941L311.016,35.734L311.738,35.312L312.461,34.948L313.184,34.64L313.906,34.254L314.629,33.992L315.352,33.755L316.074,33.592L316.797,33.26L317.52,32.998L318.242,32.786L318.965,32.597L319.688,32.298L320.41,31.916L321.133,31.783L321.855,31.57L322.578,31.233L323.301,31.249L324.023,30.867L324.746,30.871L325.469,30.417L326.191,30.374L326.914,30.06L327.637,29.926L328.359,29.556L329.082,29.469L329.805,29.152L330.527,28.988L331.25,28.87L331.973,28.422L332.695,28.442L333.418,28.221L334.141,28.353L334.863,28.029L335.586,27.714L336.309,27.616L337.031,27.355L337.754,27.242L338.477,26.788L339.199,26.906L339.922,26.885L340.645,26.65L341.367,26.57L342.09,26.061L342.813,26.15L343.535,25.842L344.258,25.632L344.98,25.697L345.703,25.598L346.426,25.711L347.148,25.413L347.871,25.049L348.594,24.907L349.316,25.06L350.039,24.736L350.762,24.71L351.484,24.354L352.207,24.426L352.93,24.266L353.652,23.903L354.375,23.75L355.098,23.573L355.82,23.85L356.543,24.131L357.266,23.476L357.988,23.882L358.711,23.964L359.434,23.164L360.156,23.188L360.879,23.059L361.602,23.449L362.324,22.886L363.047,22.71L363.77,22.966L364.492,22.46L365.215,23.296L365.938,22.747L366.66,22.79L367.383,22.424L368.105,22.345L368.828,22.255L369.551,22.576L370.273,21.921L370.996,21.67L371.719,22.311L372.441,21.523L373.164,21.996L373.887,21.935L374.609,21.331L375.332,21.422L376.055,21.257L376.777,22.28L377.5,21.992L378.223,22.048L378.945,21.531L379.668,21.674L380.391,21.454L381.113,21.283L381.836,21.1L382.559,21.537L383.281,20.997L384.004,21.312L384.727,21.971L385.449,20.994L386.172,22.417L386.895,21.082L387.617,21.392L388.34,21.099L389.063,20.959L389.785,22.058L390.508,20.428L391.23,21.666L391.953,21.125L392.676,21.262L393.398,20.934L394.121,20.964L394.844,20.84L395.566,21.304L396.289,21.669L397.012,21.229L397.734,21.543L398.457,21.213L399.18,21.856L399.902,20.694L400.625,21.756L401.348,21.595L402.07,21.314L402.793,22.705L403.516,23.281L404.238,23.128L404.961,21.838L405.684,22.98L406.406,22.701L407.129,22.279L407.852,23.11L408.574,23.839L409.297,23.581L410.02,24.6L410.742,24.25L411.465,24.443L412.188,24.616L412.91,24.568L413.633,26.043L414.355,24.508L415.078,24.528L415.801,25.777L416.523,25.397L417.246,26.627L417.969,27.737L418.691,26.494L419.414,27.959L420.137,27.065L420.859,27.382L421.582,26.481L422.305,26.83L423.027,28.033L423.75,27.003L424.473,27.885L425.195,28.153L425.918,26.976L426.641,27.844L427.363,26.806L428.086,28.21L428.809,27.744L429.531,26.288L430.254,26.547L430.977,26.414L431.699,25.91L432.422,25.64L433.145,25.768L433.867,25.632L434.59,26.117L435.313,25.456L436.035,25.032L436.758,24.979L437.48,24.202L438.203,23.534L438.926,23.889L439.648,24.467L440.371,23.401L441.094,23.357L441.816,23.236L442.539,23.23L443.262,23.038L443.984,23.037L444.707,22.892L445.43,22.734L446.152,21.92L446.875,22.168L447.598,21.881L448.32,21.999L449.043,21.77L449.766,21.589L450.488,21.116L451.211,21.295L451.934,21.384L452.656,21.189L453.379,21.08L454.102,21.023L454.824,21.198L455.547,21.054L456.27,20.869L456.992,20.739L457.715,20.759L458.438,20.539L459.16,20.506L459.883,20.614L460.605,20.679L461.328,20.374L462.051,20.554L462.773,20.418L463.496,20.487L464.219,20.394L464.941,20.534L465.664,20.407L466.387,20.365L467.109,20.391L467.832,20.248L468.555,20.296L469.277,20.285"/><path fill="none" stroke="rgb(38, 188, 225)" stroke-width="1.5" d="M100,152.202L100.723,152.628L101.445,153.573L102.168,153.91L102.891,154.526L103.613,155.028L104.336,155.772L105.059,156.385L105.781,157.071L106.504,157.803L107.227,158.42L107.949,159.006L108.672,159.819L109.395,160.483L110.117,161.275L110.84,162.003L111.563,162.879L112.285,163.707L113.008,164.529L113.73,165.391L114.453,165.865L115.176,166.895L115.898,167.733L116.621,168.532L117.344,169.546L118.066,170.571L118.789,171.465L119.512,172.367L120.234,173.502L120.957,174.421L121.68,175.544L122.402,176.608L123.125,177.623L123.848,178.733L124.57,179.748L125.293,181.153L126.016,182.13L126.738,183.44L127.461,184.597L128.184,185.816L128.906,186.981L129.629,188.321L130.352,189.713L131.074,191.049L131.797,192.358L132.52,193.84L133.242,195.197L133.965,196.713L134.688,198.189L135.41,199.295L136.133,200.885L136.855,202.14L137.578,203.978L138.301,205.473L139.023,206.776L139.746,208.351L140.469,209.491L141.191,210.888L141.914,212.609L142.637,214.044L143.359,215.501L144.082,216.794L144.805,218.429L145.527,219.825L146.25,221.364L146.973,222.51L147.695,223.708L148.418,225.222L149.141,226.544L149.863,227.779L150.586,228.853L151.309,230.116L152.031,231.426L152.754,232.343L153.477,233.159L154.199,234.593L154.922,235.308L155.645,236.133L156.367,236.959L157.09,237.892L157.813,238.54L158.535,239.077L159.258,239.804L159.98,240.25L160.703,240.608L161.426,240.972L162.148,241.373L162.871,241.516L163.594,241.487L164.316,241.775L165.039,241.74L165.762,241.7L166.484,241.336L167.207,241.271L167.93,240.736L168.652,240.536L169.375,239.905L170.098,239.033L170.82,238.723L171.543,238.017L172.266,237.119L172.988,235.881L173.711,235.312L174.434,234.336L175.156,232.997L175.879,231.939L176.602,230.438L177.324,229.197L178.047,227.658L178.77,226.598L179.492,224.755L180.215,223.383L180.938,221.661L181.66,219.733L182.383,218.325L183.105,216.463L183.828,214.709L184.551,212.57L185.273,210.579L185.996,208.859L186.719,206.708L187.441,204.805L188.164,202.722L188.887,200.644L189.609,198.584L190.332,196.262L191.055,194.473L191.777,192.184L192.5,189.776L193.223,187.525L193.945,185.133L194.668,182.929L195.391,180.773L196.113,178.39L196.836,176.388L197.559,173.875L198.281,171.42L199.004,169.308L199.727,166.918L200.449,164.888L201.172,162.402L201.895,160.231L202.617,157.903L203.34,155.528L204.063,153.472L204.785,151.02L205.508,148.723L206.23,146.674L206.953,144.443L207.676,142.313L208.398,140.005L209.121,137.896L209.844,135.68L210.566,133.351L211.289,131.461L212.012,129.212L212.734,126.995L213.457,124.91L214.18,122.698L214.902,120.72L215.625,118.613L216.348,116.734L217.07,114.651L217.793,112.849L218.516,110.779L219.238,108.909L219.961,107.063L220.684,105.256L221.406,103.217L222.129,101.22L222.852,99.289L223.574,97.526L224.297,95.882L225.02,94.015L225.742,92.307L226.465,90.47L227.188,88.829L227.91,87.041L228.633,85.497L229.355,83.748L230.078,82.098L230.801,80.596L231.523,78.971L232.246,77.324L232.969,75.801L233.691,74.377L234.414,74.448L235.137,75.63L235.859,76.929L236.582,78.11L237.305,79.119L238.027,80.217L238.75,80.224L239.473,79.407L240.195,78.572L240.918,77.525L241.641,76.538L242.363,75.636L243.086,74.764L243.809,73.831L244.531,72.806L245.254,71.933L245.977,71.063L246.699,70.206L247.422,69.346L248.145,68.529L248.867,67.727L249.59,66.706L250.313,65.983L251.035,65.243L251.758,64.384L252.48,63.735L253.203,62.876L253.926,62.262L254.648,61.542L255.371,60.798L256.094,60.178L256.816,59.558L257.539,58.888L258.262,58.269L258.984,57.6L259.707,57.026L260.43,56.428L261.152,55.965L261.875,55.393L262.598,54.931L263.32,54.296L264.043,53.82L264.766,53.449L265.488,52.975L266.211,52.422L266.934,51.99L267.656,51.539L268.379,51.215L269.102,50.801L269.824,50.454L270.547,49.901L271.27,49.556L271.992,49.138L272.715,48.756L273.438,48.373L274.16,48.012L274.883,47.685L275.605,47.281L276.328,46.953L277.051,46.551L277.773,46.139L278.496,45.788L279.219,45.457L279.941,45.074L280.664,44.724L281.387,44.449L282.109,44.023L282.832,43.562L283.555,43.165L284.277,42.959L285,42.526L285.723,42.123L286.445,41.863L287.168,41.423L287.891,41.125L288.613,40.725L289.336,40.452L290.059,40.126L290.781,39.805L291.504,39.459L292.227,39.085L292.949,38.734L293.672,38.487L294.395,38.167L295.117,37.772L295.84,37.523L296.563,37.158L297.285,37.027L298.008,36.57L298.73,36.408L299.453,35.886L300.176,35.688L300.898,35.522L301.621,35.278L302.344,34.913L303.066,34.699L303.789,34.48L304.512,34.13L305.234,33.865L305.957,33.485L306.68,33.457L307.402,33.119L308.125,32.833L308.848,32.684L309.57,32.499L310.293,32.163L311.016,31.907L311.738,31.837L312.461,31.576L313.184,31.423L313.906,31.214L314.629,30.993L315.352,30.789L316.074,30.605L316.797,30.374L317.52,30.143L318.242,29.844L318.965,29.803L319.688,29.455L320.41,29.243L321.133,29.079L321.855,28.925L322.578,28.942L323.301,28.743L324.023,28.628L324.746,28.297L325.469,28.204L326.191,28.072L326.914,27.756L327.637,27.607L328.359,27.573L329.082,27.529L329.805,27.271L330.527,27.105L331.25,27.092L331.973,26.99L332.695,26.692L333.418,26.638L334.141,26.444L334.863,26.468L335.586,26.258L336.309,26.061L337.031,25.976L337.754,25.792L338.477,25.689L339.199,25.585L339.922,25.564L340.645,25.485L341.367,25.244L342.09,25.274L342.813,25.113L343.535,24.881L344.258,24.575L344.98,24.693L345.703,24.935L346.426,24.591L347.148,24.486L347.871,24.302L348.594,24.17L349.316,24.639L350.039,24.044L350.762,24.266L351.484,24.024L352.207,23.473L352.93,24.009L353.652,23.352L354.375,23.94L355.098,23.332L355.82,23.201L356.543,23.55L357.266,23.259L357.988,23.258L358.711,22.858L359.434,22.96L360.156,23.152L360.879,22.876L361.602,22.82L362.324,22.989L363.047,22.74L363.77,22.35L364.492,22.479L365.215,22.407L365.938,22.113L366.66,22.299L367.383,22.41L368.105,21.986L368.828,22.297L369.551,21.805L370.273,22.391L370.996,21.659L371.719,21.864L372.441,22.108L373.164,21.715L373.887,21.879L374.609,20.984L375.332,21.714L376.055,21.38L376.777,21.968L377.5,21.259L378.223,21.631L378.945,21.614L379.668,22.491L380.391,21.517L381.113,21.563L381.836,21.449L382.559,21.495L383.281,21.199L384.004,21.332L384.727,21.701L385.449,20.766L386.172,21.442L386.895,21.163L387.617,20.624L388.34,21.254L389.063,21.49L389.785,21.401L390.508,20L391.23,21.464L391.953,21.701L392.676,21.029L393.398,20.987L394.121,21.163L394.844,21.486L395.566,21.501L396.289,20.62L397.012,21.239L397.734,21.417L398.457,21.025L399.18,20.422L399.902,20.982L400.625,21.038L401.348,20.775L402.07,21.967L402.793,21.335L403.516,22.419L404.238,22.461L404.961,23.317L405.684,22.104L406.406,21.22L407.129,21.229L407.852,22.867L408.574,22.317L409.297,21.063L410.02,22.693L410.742,21.263L411.465,22.938L412.188,22.518L412.91,21.963L413.633,22.441L414.355,22.775L415.078,24.605L415.801,23.59L416.523,23.614L417.246,24.021L417.969,23.108L418.691,24.878L419.414,24.187L420.137,23.176L420.859,25.105L421.582,23.834L422.305,24.18L423.027,25.444L423.75,24.24L424.473,24.617L425.195,24.446L425.918,25.038L426.641,25.042L427.363,24.414L428.086,24.769L428.809,23.966L429.531,25.384L430.254,24.354L430.977,24.309L431.699,23.984L432.422,23.877L433.145,23.626L433.867,22.925L434.59,23.391L435.313,23.609L436.035,24.291L436.758,23.203L437.48,23.147L438.203,23.25L438.926,23.075L439.648,22.883L440.371,22.885L441.094,22.668L441.816,22.308L442.539,22.143L443.262,21.833L443.984,21.936L444.707,22.346L445.43,21.249L446.152,21.399L446.875,21.787L447.598,21.555L448.32,21.215L449.043,21.611L449.766,21.164L450.488,21.168L451.211,21.035L451.934,20.897L452.656,20.621L453.379,21.025L454.102,20.807L454.824,20.622L455.547,20.551L456.27,20.633L456.992,20.689L457.715,20.467L458.438,20.633L459.16,20.49L459.883,20.546L460.605,20.441L461.328,20.328L462.051,20.427L462.773,20.252L463.496,20.414L464.219,20.423L464.941,20.448L465.664,20.239L466.387,20.213L467.109,20.207L467.832,20.171L468.555,20.175L469.277,20.151"/><path fill="none" stroke="rgb(63, 243, 147)" stroke-width="1.5" d="M100,149.277L100.723,149.675L101.445,150.235L102.168,150.811L102.891,151.263L103.613,151.778L104.336,152.27L105.059,152.915L105.781,153.477L106.504,153.924L107.227,154.665L107.949,155.144L108.672,155.769L109.395,156.378L110.117,156.898L110.84,157.659L111.563,158.308L112.285,158.883L113.008,159.607L113.73,160.428L114.453,161.049L115.176,161.86L115.898,162.507L116.621,163.108L117.344,163.975L118.066,164.745L118.789,165.522L119.512,166.412L120.234,167.14L120.957,168.088L121.68,169.004L122.402,169.811L123.125,170.369L123.848,171.66L124.57,172.338L125.293,173.157L126.016,174.306L126.738,175.108L127.461,176.115L128.184,177.063L128.906,177.813L129.629,178.882L130.352,179.829L131.074,181.023L131.797,182.161L132.52,182.961L133.242,184.116L133.965,184.971L134.688,185.709L135.41,186.925L136.133,187.996L136.855,189.147L137.578,190.099L138.301,191.018L139.023,191.718L139.746,192.681L140.469,193.554L141.191,194.345L141.914,195.496L142.637,196.488L143.359,197.278L144.082,197.936L144.805,198.925L145.527,199.68L146.25,200.42L146.973,200.995L147.695,201.707L148.418,202.127L149.141,202.869L149.863,203.106L150.586,203.834L151.309,204.199L152.031,204.717L152.754,205.019L153.477,205.166L154.199,205.686L154.922,205.614L155.645,205.928L156.367,205.857L157.09,205.966L157.813,206.081L158.535,205.906L159.258,205.625L159.98,205.448L160.703,205.202L161.426,204.746L162.148,204.467L162.871,204.061L163.594,203.397L164.316,202.812L165.039,202.262L165.762,201.592L166.484,200.762L167.207,199.949L167.93,198.86L168.652,197.947L169.375,197.05L170.098,195.693L170.82,194.828L171.543,193.441L172.266,192.168L172.988,191.042L173.711,189.551L174.434,188.337L175.156,186.78L175.879,185.222L176.602,183.652L177.324,181.969L178.047,180.377L178.77,178.875L179.492,177.054L180.215,175.484L180.938,173.664L181.66,171.724L182.383,170.085L183.105,168.276L183.828,166.423L184.551,164.524L185.273,162.572L185.996,160.663L186.719,158.895L187.441,156.715L188.164,154.816L188.887,152.77L189.609,150.956L190.332,148.897L191.055,146.925L191.777,144.877L192.5,143.116L193.223,141.07L193.945,138.826L194.668,136.991L195.391,134.863L196.113,133.016L196.836,130.855L197.559,129.089L198.281,126.91L199.004,125.277L199.727,123.153L200.449,121.304L201.172,119.317L201.895,117.335L202.617,115.54L203.34,113.55L204.063,111.706L204.785,109.982L205.508,107.942L206.23,106.04L206.953,104.327L207.676,102.523L208.398,100.74L209.121,99.027L209.844,97.115L210.566,95.288L211.289,93.612L212.012,91.96L212.734,90.191L213.457,88.636L214.18,87.187L214.902,85.145L215.625,83.795L216.348,81.979L217.07,80.514L217.793,79.042L218.516,77.302L219.238,75.942L219.961,74.304L220.684,72.986L221.406,71.405L222.129,69.896L222.852,68.521L223.574,67.274L224.297,65.714L225.02,64.538L225.742,63.133L226.465,61.745L227.188,60.449L227.91,59.184L228.633,59.526L229.355,60.906L230.078,62.195L230.801,63.554L231.523,65.049L232.246,66.335L232.969,66.92L233.691,66L234.414,65.268L235.137,64.677L235.859,63.857L236.582,63.139L237.305,62.369L238.027,61.592L238.75,61.11L239.473,60.406L240.195,59.589L240.918,58.98L241.641,58.386L242.363,57.635L243.086,57.05L243.809,56.402L244.531,55.804L245.254,55.319L245.977,54.667L246.699,54.264L247.422,53.629L248.145,53.166L248.867,52.61L249.59,52.044L250.313,51.605L251.035,50.895L251.758,50.508L252.48,49.945L253.203,49.651L253.926,49.148L254.648,48.768L255.371,48.342L256.094,48.05L256.816,47.629L257.539,47.24L258.262,46.923L258.984,46.571L259.707,46.184L260.43,45.874L261.152,45.588L261.875,45.259L262.598,44.889L263.32,44.598L264.043,44.322L264.766,43.944L265.488,43.715L266.211,43.496L266.934,43.145L267.656,42.96L268.379,42.665L269.102,42.459L269.824,42.16L270.547,42.057L271.27,41.729L271.992,41.389L272.715,41.205L273.438,41.006L274.16,40.704L274.883,40.507L275.605,40.338L276.328,40.059L277.051,39.652L277.773,39.53L278.496,39.318L279.219,38.876L279.941,38.754L280.664,38.595L281.387,38.278L282.109,38.082L282.832,37.79L283.555,37.511L284.277,37.275L285,37.052L285.723,36.772L286.445,36.499L287.168,36.233L287.891,35.97L288.613,35.687L289.336,35.532L290.059,35.343L290.781,35.032L291.504,34.785L292.227,34.525L292.949,34.285L293.672,34.037L294.395,33.803L295.117,33.597L295.84,33.36L296.563,33.097L297.285,32.87L298.008,32.668L298.73,32.572L299.453,32.242L300.176,32.146L300.898,31.893L301.621,31.682L302.344,31.482L303.066,31.233L303.789,31.032L304.512,30.848L305.234,30.659L305.957,30.488L306.68,30.308L307.402,30.112L308.125,29.991L308.848,29.793L309.57,29.743L310.293,29.475L311.016,29.234L311.738,29.132L312.461,28.926L313.184,28.817L313.906,28.596L314.629,28.548L315.352,28.33L316.074,28.207L316.797,28.013L317.52,27.948L318.242,27.704L318.965,27.608L319.688,27.659L320.41,27.306L321.133,27.134L321.855,27.092L322.578,26.929L323.301,26.738L324.023,26.652L324.746,26.617L325.469,26.477L326.191,26.286L326.914,26.083L327.637,26.199L328.359,25.998L329.082,25.953L329.805,25.722L330.527,25.604L331.25,25.804L331.973,25.494L332.695,25.452L333.418,25.038L334.141,25.139L334.863,25.113L335.586,24.938L336.309,25.052L337.031,24.776L337.754,24.778L338.477,24.692L339.199,24.619L339.922,24.524L340.645,24.37L341.367,24.303L342.09,24.332L342.813,24.153L343.535,24.249L344.258,24.074L344.98,23.939L345.703,23.866L346.426,23.814L347.148,23.792L347.871,23.752L348.594,23.546L349.316,23.62L350.039,23.409L350.762,23.349L351.484,23.279L352.207,23.246L352.93,23.161L353.652,23.29L354.375,22.904L355.098,23.108L355.82,23.197L356.543,23.39L357.266,23.078L357.988,22.542L358.711,22.761L359.434,22.636L360.156,22.678L360.879,22.148L361.602,22.952L362.324,22.476L363.047,22.601L363.77,22.412L364.492,22.544L365.215,22.644L365.938,22.024L366.66,22.26L367.383,22.479L368.105,22.229L368.828,22.228L369.551,22.214L370.273,21.374L370.996,22.292L371.719,21.739L372.441,21.985L373.164,21.333L373.887,21.72L374.609,22.404L375.332,21.532L376.055,21.477L376.777,21.542L377.5,21.868L378.223,21.883L378.945,21.314L379.668,20.603L380.391,21.495L381.113,21.454L381.836,21.233L382.559,21.645L383.281,21.533L384.004,21.281L384.727,20.572L385.449,21.697L386.172,20.409L386.895,21.048L387.617,21.205L388.34,20.426L389.063,21.206L389.785,21.279L390.508,20.864L391.23,20.993L391.953,21.229L392.676,20.776L393.398,20.461L394.121,21.078L394.844,20.374L395.566,20.489L396.289,20.596L397.012,21.594L397.734,21.463L398.457,21.182L399.18,20.077L399.902,20.77L400.625,20.873L401.348,20.034L402.07,20.257L402.793,20.951L403.516,21.822L404.238,21.152L404.961,21.262L405.684,20.754L406.406,21.41L407.129,20.72L407.852,20.487L408.574,20.925L409.297,20.294L410.02,21.849L410.742,20.1L411.465,21.616L412.188,21.778L412.91,21.43L413.633,21.584L414.355,21.599L415.078,22.163L415.801,20.171L416.523,21.734L417.246,22.425L417.969,20.58L418.691,20.763L419.414,21.346L420.137,21.596L420.859,21.462L421.582,20.394L422.305,23.562L423.027,22.483L423.75,22.699L424.473,20.928L425.195,21.475L425.918,21.372L426.641,20.925L427.363,21.233L428.086,20.945L428.809,21.572L429.531,22.334L430.254,21.571L430.977,21.587L431.699,21.226L432.422,21.253L433.145,20.457L433.867,21.888L434.59,21.195L435.313,20.897L436.035,21.357L436.758,21.094L437.48,21.701L438.203,20.918L438.926,20.7L439.648,21.143L440.371,21.201L441.094,20.742L441.816,20.225L442.539,20.693L443.262,20.78L443.984,20.993L444.707,20.732L445.43,20.713L446.152,21.056L446.875,20.599L447.598,20.288L448.32,20.305L449.043,20.886L449.766,20.531L450.488,20.395L451.211,20.477L451.934,20.367L452.656,20.302L453.379,20.352L454.102,20.186L454.824,20.22L455.547,20.236L456.27,20.365L456.992,20.348L457.715,20.12L458.438,20.065L459.16,20.011L459.883,20.28L460.605,20.15L461.328,20.094L462.051,20.175L462.773,20.201L463.496,20.177L464.219,20.146L464.941,20.135L465.664,20.138L466.387,20.136L467.109,20.075L467.832,20.153L468.555,20.043L469.277,20.026"/><path fill="none" stroke="rgb(149, 251, 81)" stroke-width="1.5" d="M100,146.785L100.723,147.27L101.445,147.634L102.168,148.024L102.891,148.436L103.613,148.923L104.336,149.38L105.059,149.975L105.781,150.413L106.504,150.798L107.227,151.531L107.949,151.995L108.672,152.503L109.395,152.894L110.117,153.573L110.84,154.074L111.563,154.668L112.285,155.149L113.008,155.93L113.73,156.524L114.453,157.094L115.176,157.773L115.898,158.284L116.621,159.052L117.344,159.749L118.066,160.335L118.789,160.865L119.512,161.675L120.234,162.395L120.957,163.042L121.68,163.81L122.402,164.436L123.125,165.065L123.848,165.848L124.57,166.398L125.293,167.258L126.016,167.946L126.738,168.518L127.461,169.293L128.184,170L128.906,170.647L129.629,171.132L130.352,171.847L131.074,172.44L131.797,173.085L132.52,173.789L133.242,174.351L133.965,175.04L134.688,175.504L135.41,176.124L136.133,176.563L136.855,177.127L137.578,177.368L138.301,177.88L139.023,178.139L139.746,178.592L140.469,178.82L141.191,179.085L141.914,179.487L142.637,179.677L143.359,179.848L144.082,179.98L144.805,180.286L145.527,180.222L146.25,180.024L146.973,180.204L147.695,180.192L148.418,180.079L149.141,179.72L149.863,179.514L150.586,179.562L151.309,179.14L152.031,178.532L152.754,178.156L153.477,177.817L154.199,177.093L154.922,176.631L155.645,175.969L156.367,175.381L157.09,174.511L157.813,173.574L158.535,172.784L159.258,172.005L159.98,170.812L160.703,170.062L161.426,169.101L162.148,167.797L162.871,166.769L163.594,165.473L164.316,164.451L165.039,162.983L165.762,161.88L166.484,160.591L167.207,159.018L167.93,157.635L168.652,156.209L169.375,154.794L170.098,153.276L170.82,151.684L171.543,150.119L172.266,148.752L172.988,146.961L173.711,145.306L174.434,143.596L175.156,141.953L175.879,140.406L176.602,138.775L177.324,136.898L178.047,135.242L178.77,133.588L179.492,131.572L180.215,129.865L180.938,128.402L181.66,126.575L182.383,124.649L183.105,122.769L183.828,121.066L184.551,119.45L185.273,117.737L185.996,115.73L186.719,113.936L187.441,112.48L188.164,110.668L188.887,108.924L189.609,107.231L190.332,105.23L191.055,103.625L191.777,101.906L192.5,100.116L193.223,98.407L193.945,96.856L194.668,95.075L195.391,93.483L196.113,91.881L196.836,90.232L197.559,88.579L198.281,87.072L199.004,85.357L199.727,83.775L200.449,82.129L201.172,80.72L201.895,79.077L202.617,77.639L203.34,76.139L204.063,74.794L204.785,73.082L205.508,71.896L206.23,70.396L206.953,68.836L207.676,67.517L208.398,66.28L209.121,64.885L209.844,63.457L210.566,62.309L211.289,60.969L212.012,59.588L212.734,58.383L213.457,57.05L214.18,55.979L214.902,54.684L215.625,53.47L216.348,52.375L217.07,51.1L217.793,50.107L218.516,48.929L219.238,48.248L219.961,49.649L220.684,51.249L221.406,52.826L222.129,54.316L222.852,56.014L223.574,57.438L224.297,57.154L225.02,56.551L225.742,55.741L226.465,55.322L227.188,54.803L227.91,54.187L228.633,53.683L229.355,53.153L230.078,52.671L230.801,52.076L231.523,51.658L232.246,51.196L232.969,50.61L233.691,50.094L234.414,49.649L235.137,49.494L235.859,48.769L236.582,48.326L237.305,47.767L238.027,47.482L238.75,46.959L239.473,46.66L240.195,46.195L240.918,45.962L241.641,45.449L242.363,45.063L243.086,44.718L243.809,44.237L244.531,43.981L245.254,43.692L245.977,43.36L246.699,43.001L247.422,42.542L248.145,42.346L248.867,42.084L249.59,41.677L250.313,41.506L251.035,41.127L251.758,40.742L252.48,40.528L253.203,40.172L253.926,39.919L254.648,39.777L255.371,39.504L256.094,39.271L256.816,39.04L257.539,38.781L258.262,38.511L258.984,38.24L259.707,38.019L260.43,37.782L261.152,37.705L261.875,37.43L262.598,37.158L263.32,37.078L264.043,36.912L264.766,36.69L265.488,36.44L266.211,36.287L266.934,36.113L267.656,35.868L268.379,35.813L269.102,35.644L269.824,35.481L270.547,35.268L271.27,35.158L271.992,35.03L272.715,34.821L273.438,34.665L274.16,34.526L274.883,34.346L275.605,34.226L276.328,34.056L277.051,33.875L277.773,33.747L278.496,33.654L279.219,33.523L279.941,33.372L280.664,33.183L281.387,33.015L282.109,32.8L282.832,32.625L283.555,32.482L284.277,32.328L285,32.168L285.723,31.991L286.445,31.856L287.168,31.797L287.891,31.485L288.613,31.351L289.336,31.139L290.059,30.931L290.781,30.878L291.504,30.601L292.227,30.515L292.949,30.273L293.672,30.106L294.395,30L295.117,29.764L295.84,29.646L296.563,29.497L297.285,29.383L298.008,29.184L298.73,28.978L299.453,28.888L300.176,28.767L300.898,28.625L301.621,28.44L302.344,28.323L303.066,28.165L303.789,27.943L304.512,27.868L305.234,27.738L305.957,27.578L306.68,27.473L307.402,27.285L308.125,27.122L308.848,27.051L309.57,26.924L310.293,26.746L311.016,26.647L311.738,26.572L312.461,26.494L313.184,26.331L313.906,26.268L314.629,26.14L315.352,26.004L316.074,25.929L316.797,25.779L317.52,25.666L318.242,25.61L318.965,25.493L319.688,25.372L320.41,25.328L321.133,25.203L321.855,25.145L322.578,25.072L323.301,24.99L324.023,24.845L324.746,24.763L325.469,24.721L326.191,24.681L326.914,24.59L327.637,24.472L328.359,24.465L329.082,24.36L329.805,24.35L330.527,24.231L331.25,24.154L331.973,24.081L332.695,24.026L333.418,23.98L334.141,23.936L334.863,23.854L335.586,23.793L336.309,23.685L337.031,23.643L337.754,23.651L338.477,23.554L339.199,23.45L339.922,23.43L340.645,23.434L341.367,23.38L342.09,23.278L342.813,23.259L343.535,23.229L344.258,23.163L344.98,23.168L345.703,23.107L346.426,23.047L347.148,22.976L347.871,22.948L348.594,22.899L349.316,22.85L350.039,22.814L350.762,22.798L351.484,22.767L352.207,22.756L352.93,22.678L353.652,22.636L354.375,22.6L355.098,22.581L355.82,22.582L356.543,22.514L357.266,22.488L357.988,22.41L358.711,22.41L359.434,22.401L360.156,22.275L360.879,22.27L361.602,22.238L362.324,22.237L363.047,22.182L363.77,22.218L364.492,22.137L365.215,22.039L365.938,22.042L366.66,22.003L367.383,22.005L368.105,21.978L368.828,21.854L369.551,21.828L370.273,21.834L370.996,21.811L371.719,21.775L372.441,21.723L373.164,21.724L373.887,21.696L374.609,21.67L375.332,21.6L376.055,21.587L376.777,21.581L377.5,21.548L378.223,21.5L378.945,21.51L379.668,21.444L380.391,21.427L381.113,21.342L381.836,21.341L382.559,21.326L383.281,21.231L384.004,21.191L384.727,21.213L385.449,21.145L386.172,21.147L386.895,21.068L387.617,21.13L388.34,21.018L389.063,20.988L389.785,20.98L390.508,20.988L391.23,20.957L391.953,20.892L392.676,20.874L393.398,20.86L394.121,20.849L394.844,20.829L395.566,20.824L396.289,20.751L397.012,20.737L397.734,20.699L398.457,20.725L399.18,20.686L399.902,20.626L400.625,20.637L401.348,20.645L402.07,20.622L402.793,20.567L403.516,20.556L404.238,20.553L404.961,20.502L405.684,20.476L406.406,20.478L407.129,20.463L407.852,20.457L408.574,20.44L409.297,20.463L410.02,20.416L410.742,20.373L411.465,20.364L412.188,20.352L412.91,20.355L413.633,20.3L414.355,20.302L415.078,20.287L415.801,20.296L416.523,20.287L417.246,20.247L417.969,20.26L418.691,20.245L419.414,20.243L420.137,20.251L420.859,20.24L421.582,20.232L422.305,20.202L423.027,20.17L423.75,20.18L424.473,20.191L425.195,20.166L425.918,20.17L426.641,20.173L427.363,20.176L428.086,20.141L428.809,20.129L429.531,20.126L430.254,20.143L430.977,20.154L431.699,20.119L432.422,20.13L433.145,20.128L433.867,20.117L434.59,20.123L435.313,20.099L436.035,20.1L436.758,20.078L437.48,20.077L438.203,20.081L438.926,20.08L439.648,20.077L440.371,20.075L441.094,20.077L441.816,20.064L442.539,20.054L443.262,20.08L443.984,20.075L444.707,20.051L445.43,20.052L446.152,20.066L446.875,20.054L447.598,20.041L448.32,20.053L449.043,20.057L449.766,20.049L450.488,20.041L451.211,20.036L451.934,20.046L452.656,20.035L453.379,20.039L454.102,20.039L454.824,20.025L455.547,20.029L456.27,20.018L456.992,20.029L457.715,20.036L458.438,20.027L459.16,20.022L459.883,20.024L460.605,20.018L461.328,20.017L462.051,20.018L462.773,20.025L463.496,20.022L464.219,20.019L464.941,20.013L465.664,20.015L466.387,20.016L467.109,20.014L467.832,20.006L468.555,20.013L469.277,20.011"/><path fill="none" stroke="rgb(236, 209, 46)" stroke-width="1.5" d="M100,146.705L100.723,147.365L101.445,147.804L102.168,148.192L102.891,148.634L103.613,149.15L104.336,149.732L105.059,150.139L105.781,150.581L106.504,151.142L107.227,151.617L107.949,152.103L108.672,152.546L109.395,153.065L110.117,153.407L110.84,154.037L111.563,154.6L112.285,155.081L113.008,155.57L113.73,155.917L114.453,156.393L115.176,156.933L115.898,157.509L116.621,157.732L117.344,158.148L118.066,158.773L118.789,158.984L119.512,159.399L120.234,159.731L120.957,160.128L121.68,160.529L122.402,160.877L123.125,161.199L123.848,161.24L124.57,161.658L125.293,161.93L126.016,161.956L126.738,162.088L127.461,162.307L128.184,162.52L128.906,162.407L129.629,162.705L130.352,162.563L131.074,162.534L131.797,162.563L132.52,162.178L133.242,162.338L133.965,162.023L134.688,161.903L135.41,161.547L136.133,161.26L136.855,160.9L137.578,160.511L138.301,160.024L139.023,159.627L139.746,159.01L140.469,158.463L141.191,157.691L141.914,157.114L142.637,156.401L143.359,155.644L144.082,154.984L144.805,154.076L145.527,153.035L146.25,152.155L146.973,151.212L147.695,150.185L148.418,149.125L149.141,148.112L149.863,146.962L150.586,145.775L151.309,144.661L152.031,143.304L152.754,142.01L153.477,140.749L154.199,139.531L154.922,138.101L155.645,136.867L156.367,135.177L157.09,133.988L157.813,132.32L158.535,130.916L159.258,129.621L159.98,128.098L160.703,126.405L161.426,124.812L162.148,123.371L162.871,121.755L163.594,120.319L164.316,118.52L165.039,117.094L165.762,115.423L166.484,113.774L167.207,112.268L167.93,110.773L168.652,108.993L169.375,107.369L170.098,105.862L170.82,104.299L171.543,102.678L172.266,101.058L172.988,99.495L173.711,97.847L174.434,96.348L175.156,94.668L175.879,93.241L176.602,91.378L177.324,89.904L178.047,88.494L178.77,86.871L179.492,85.336L180.215,83.894L180.938,82.391L181.66,80.919L182.383,79.44L183.105,77.865L183.828,76.618L184.551,74.947L185.273,73.703L185.996,72.201L186.719,70.969L187.441,69.409L188.164,68.025L188.887,66.72L189.609,65.391L190.332,64.063L191.055,62.785L191.777,61.532L192.5,60.293L193.223,59.075L193.945,57.707L194.668,56.668L195.391,55.324L196.113,54.085L196.836,53.099L197.559,51.863L198.281,50.76L199.004,49.625L199.727,48.585L200.449,47.537L201.172,46.364L201.895,45.245L202.617,44.219L203.34,43.237L204.063,42.306L204.785,42.307L205.508,43.704L206.23,45.315L206.953,46.982L207.676,48.715L208.398,50.443L209.121,51.9L209.844,51.403L210.566,51.021L211.289,50.417L212.012,49.954L212.734,49.615L213.457,49.104L214.18,48.689L214.902,48.277L215.625,47.801L216.348,47.392L217.07,47.007L217.793,46.597L218.516,46.137L219.238,45.719L219.961,45.241L220.684,44.903L221.406,44.529L222.129,44.114L222.852,43.813L223.574,43.46L224.297,43.061L225.02,42.669L225.742,42.187L226.465,41.868L227.188,41.586L227.91,41.23L228.633,40.944L229.355,40.533L230.078,40.415L230.801,39.988L231.523,39.728L232.246,39.527L232.969,39.095L233.691,38.818L234.414,38.465L235.137,38.281L235.859,38.037L236.582,37.717L237.305,37.461L238.027,37.251L238.75,36.91L239.473,36.742L240.195,36.492L240.918,36.194L241.641,35.952L242.363,35.74L243.086,35.508L243.809,35.275L244.531,35.145L245.254,34.848L245.977,34.584L246.699,34.543L247.422,34.289L248.145,33.985L248.867,33.798L249.59,33.678L250.313,33.467L251.035,33.34L251.758,33.113L252.48,32.947L253.203,32.711L253.926,32.552L254.648,32.314L255.371,32.162L256.094,31.984L256.816,31.823L257.539,31.716L258.262,31.571L258.984,31.349L259.707,31.307L260.43,31.223L261.152,30.995L261.875,30.867L262.598,30.696L263.32,30.593L264.043,30.496L264.766,30.274L265.488,30.308L266.211,30.194L266.934,30.16L267.656,29.971L268.379,29.888L269.102,29.841L269.824,29.675L270.547,29.694L271.27,29.529L271.992,29.474L272.715,29.36L273.438,29.34L274.16,29.236L274.883,29.092L275.605,29.059L276.328,28.989L277.051,28.941L277.773,28.859L278.496,28.803L279.219,28.735L279.941,28.692L280.664,28.597L281.387,28.451L282.109,28.371L282.832,28.291L283.555,28.23L284.277,28.14L285,28.067L285.723,27.97L286.445,27.856L287.168,27.76L287.891,27.651L288.613,27.59L289.336,27.49L290.059,27.412L290.781,27.318L291.504,27.182L292.227,27.087L292.949,26.965L293.672,26.9L294.395,26.8L295.117,26.666L295.84,26.583L296.563,26.443L297.285,26.382L298.008,26.286L298.73,26.181L299.453,26.069L300.176,25.987L300.898,25.879L301.621,25.817L302.344,25.718L303.066,25.611L303.789,25.504L304.512,25.46L305.234,25.347L305.957,25.246L306.68,25.149L307.402,25.074L308.125,25.017L308.848,24.92L309.57,24.847L310.293,24.725L311.016,24.686L311.738,24.605L312.461,24.522L313.184,24.441L313.906,24.399L314.629,24.283L315.352,24.232L316.074,24.18L316.797,24.091L317.52,24.014L318.242,23.977L318.965,23.91L319.688,23.852L320.41,23.797L321.133,23.737L321.855,23.648L322.578,23.582L323.301,23.541L324.023,23.514L324.746,23.46L325.469,23.381L326.191,23.304L326.914,23.303L327.637,23.28L328.359,23.199L329.082,23.137L329.805,23.083L330.527,23.018L331.25,23.034L331.973,22.944L332.695,22.909L333.418,22.869L334.141,22.835L334.863,22.789L335.586,22.741L336.309,22.747L337.031,22.661L337.754,22.658L338.477,22.617L339.199,22.553L339.922,22.559L340.645,22.505L341.367,22.488L342.09,22.435L342.813,22.412L343.535,22.402L344.258,22.333L344.98,22.341L345.703,22.29L346.426,22.256L347.148,22.217L347.871,22.212L348.594,22.19L349.316,22.123L350.039,22.12L350.762,22.101L351.484,22.096L352.207,22.058L352.93,22.065L353.652,22.015L354.375,21.98L355.098,21.949L355.82,21.963L356.543,21.91L357.266,21.91L357.988,21.865L358.711,21.88L359.434,21.837L360.156,21.802L360.879,21.804L361.602,21.785L362.324,21.797L363.047,21.754L363.77,21.715L364.492,21.711L365.215,21.682L365.938,21.644L366.66,21.647L367.383,21.6L368.105,21.575L368.828,21.578L369.551,21.54L370.273,21.536L370.996,21.512L371.719,21.487L372.441,21.452L373.164,21.45L373.887,21.44L374.609,21.395L375.332,21.376L376.055,21.343L376.777,21.324L377.5,21.302L378.223,21.299L378.945,21.244L379.668,21.22L380.391,21.212L381.113,21.201L381.836,21.147L382.559,21.137L383.281,21.12L384.004,21.1L384.727,21.065L385.449,21.05L386.172,21.058L386.895,21.006L387.617,20.972L388.34,20.944L389.063,20.928L389.785,20.915L390.508,20.898L391.23,20.871L391.953,20.828L392.676,20.822L393.398,20.806L394.121,20.776L394.844,20.752L395.566,20.736L396.289,20.718L397.012,20.706L397.734,20.664L398.457,20.632L399.18,20.627L399.902,20.605L400.625,20.601L401.348,20.578L402.07,20.551L402.793,20.541L403.516,20.527L404.238,20.513L404.961,20.501L405.684,20.475L406.406,20.462L407.129,20.426L407.852,20.418L408.574,20.408L409.297,20.413L410.02,20.388L410.742,20.396L411.465,20.362L412.188,20.346L412.91,20.334L413.633,20.333L414.355,20.321L415.078,20.304L415.801,20.287L416.523,20.279L417.246,20.27L417.969,20.253L418.691,20.245L419.414,20.239L420.137,20.222L420.859,20.223L421.582,20.212L422.305,20.216L423.027,20.195L423.75,20.202L424.473,20.19L425.195,20.178L425.918,20.169L426.641,20.16L427.363,20.152L428.086,20.145L428.809,20.144L429.531,20.135L430.254,20.131L430.977,20.122L431.699,20.119L432.422,20.117L433.145,20.115L433.867,20.108L434.59,20.107L435.313,20.099L436.035,20.094L436.758,20.092L437.48,20.093L438.203,20.084L438.926,20.082L439.648,20.077L440.371,20.074L441.094,20.068L441.816,20.068L442.539,20.068L443.262,20.066L443.984,20.063L444.707,20.056L445.43,20.05L446.152,20.053L446.875,20.051L447.598,20.051L448.32,20.048L449.043,20.047L449.766,20.042L450.488,20.042L451.211,20.036L451.934,20.036L452.656,20.038L453.379,20.03L454.102,20.032L454.824,20.033L455.547,20.031L456.27,20.03L456.992,20.03L457.715,20.026L458.438,20.026L459.16,20.027L459.883,20.027L460.605,20.018L461.328,20.023L462.051,20.017L462.773,20.02L463.496,20.014L464.219,20.015L464.941,20.017L465.664,20.015L466.387,20.015L467.109,20.013L467.832,20.013L468.555,20.013L469.277,20.011"/><path fill="none" stroke="rgb(255, 130, 29)" stroke-width="1.5" d="M100,150.435L100.723,150.688L101.445,150.499L102.168,150.425L102.891,150.626L103.613,150.475L104.336,150.429L105.059,150.228L105.781,150.098L106.504,149.983L107.227,149.751L107.949,149.644L108.672,149.317L109.395,149.082L110.117,148.688L110.84,148.272L111.563,147.893L112.285,147.381L113.008,146.845L113.73,146.254L114.453,145.794L115.176,145.114L115.898,144.458L116.621,143.745L117.344,143.111L118.066,142.165L118.789,141.474L119.512,140.622L120.234,139.677L120.957,138.686L121.68,137.787L122.402,136.809L123.125,135.763L123.848,134.731L124.57,133.809L125.293,132.653L126.016,131.379L126.738,130.063L127.461,129.036L128.184,127.697L128.906,126.673L129.629,125.372L130.352,123.99L131.074,122.58L131.797,121.344L132.52,119.917L133.242,118.678L133.965,117.228L134.688,115.69L135.41,114.278L136.133,112.799L136.855,111.448L137.578,110.056L138.301,108.588L139.023,107.313L139.746,105.619L140.469,104.255L141.191,102.725L141.914,101.22L142.637,99.735L143.359,98.303L144.082,96.867L144.805,95.548L145.527,93.845L146.25,92.335L146.973,90.973L147.695,89.473L148.418,88.062L149.141,86.477L149.863,85.145L150.586,83.733L151.309,82.143L152.031,80.902L152.754,79.385L153.477,78.036L154.199,76.649L154.922,75.272L155.645,73.929L156.367,72.452L157.09,71.261L157.813,69.787L158.535,68.588L159.258,67.337L159.98,66.04L160.703,64.646L161.426,63.353L162.148,62.214L162.871,60.809L163.594,59.634L164.316,58.477L165.039,57.219L165.762,56.067L166.484,54.997L167.207,53.849L167.93,52.678L168.652,51.559L169.375,50.336L170.098,49.275L170.82,48.322L171.543,47.21L172.266,46.225L172.988,45.17L173.711,44.11L174.434,43.195L175.156,42.174L175.879,41.172L176.602,40.265L177.324,39.295L178.047,39.997L178.77,41.714L179.492,43.357L180.215,45.097L180.938,46.793L181.66,48.565L182.383,49.332L183.105,48.912L183.828,48.544L184.551,48.105L185.273,47.647L185.996,47.267L186.719,46.787L187.441,46.46L188.164,45.993L188.887,45.547L189.609,45.204L190.332,44.784L191.055,44.343L191.777,43.903L192.5,43.571L193.223,43.161L193.945,42.825L194.668,42.409L195.391,41.983L196.113,41.626L196.836,41.254L197.559,40.936L198.281,40.505L199.004,40.175L199.727,39.872L200.449,39.51L201.172,39.279L201.895,38.953L202.617,38.541L203.34,38.275L204.063,37.892L204.785,37.655L205.508,37.235L206.23,36.884L206.953,36.687L207.676,36.428L208.398,36.147L209.121,35.837L209.844,35.524L210.566,35.405L211.289,35.007L212.012,34.724L212.734,34.477L213.457,34.159L214.18,34.022L214.902,33.757L215.625,33.464L216.348,33.195L217.07,33.061L217.793,32.8L218.516,32.504L219.238,32.283L219.961,32.108L220.684,31.95L221.406,31.721L222.129,31.514L222.852,31.355L223.574,31.164L224.297,30.961L225.02,30.766L225.742,30.665L226.465,30.377L227.188,30.258L227.91,30.159L228.633,29.979L229.355,29.829L230.078,29.668L230.801,29.482L231.523,29.372L232.246,29.209L232.969,28.963L233.691,28.902L234.414,28.814L235.137,28.716L235.859,28.559L236.582,28.396L237.305,28.3L238.027,28.226L238.75,28.119L239.473,28.033L240.195,27.891L240.918,27.877L241.641,27.728L242.363,27.624L243.086,27.504L243.809,27.413L244.531,27.416L245.254,27.244L245.977,27.207L246.699,27.134L247.422,27.095L248.145,26.942L248.867,26.86L249.59,26.859L250.313,26.787L251.035,26.701L251.758,26.643L252.48,26.58L253.203,26.578L253.926,26.498L254.648,26.416L255.371,26.407L256.094,26.356L256.816,26.312L257.539,26.294L258.262,26.208L258.984,26.188L259.707,26.209L260.43,26.172L261.152,26.123L261.875,26.09L262.598,26.099L263.32,26.058L264.043,26.06L264.766,26.035L265.488,26.07L266.211,26.012L266.934,26.07L267.656,26.023L268.379,26.003L269.102,26.032L269.824,26.022L270.547,26.069L271.27,26.054L271.992,26.111L272.715,26.071L273.438,26.117L274.16,26.137L274.883,26.099L275.605,26.145L276.328,26.148L277.051,26.174L277.773,26.145L278.496,26.188L279.219,26.194L279.941,26.141L280.664,26.15L281.387,26.167L282.109,26.138L282.832,26.095L283.555,26.121L284.277,26.085L285,26.047L285.723,26.015L286.445,25.964L287.168,25.94L287.891,25.905L288.613,25.871L289.336,25.832L290.059,25.776L290.781,25.73L291.504,25.666L292.227,25.647L292.949,25.561L293.672,25.5L294.395,25.447L295.117,25.381L295.84,25.35L296.563,25.261L297.285,25.177L298.008,25.152L298.73,25.084L299.453,25.001L300.176,24.948L300.898,24.864L301.621,24.811L302.344,24.746L303.066,24.667L303.789,24.595L304.512,24.541L305.234,24.462L305.957,24.399L306.68,24.337L307.402,24.278L308.125,24.227L308.848,24.149L309.57,24.089L310.293,24.021L311.016,23.969L311.738,23.908L312.461,23.872L313.184,23.787L313.906,23.721L314.629,23.681L315.352,23.604L316.074,23.577L316.797,23.52L317.52,23.47L318.242,23.389L318.965,23.342L319.688,23.305L320.41,23.269L321.133,23.215L321.855,23.159L322.578,23.115L323.301,23.063L324.023,22.992L324.746,22.981L325.469,22.891L326.191,22.881L326.914,22.842L327.637,22.824L328.359,22.793L329.082,22.749L329.805,22.673L330.527,22.658L331.25,22.638L331.973,22.587L332.695,22.566L333.418,22.528L334.141,22.485L334.863,22.478L335.586,22.408L336.309,22.394L337.031,22.367L337.754,22.348L338.477,22.302L339.199,22.287L339.922,22.288L340.645,22.242L341.367,22.234L342.09,22.186L342.813,22.147L343.535,22.124L344.258,22.106L344.98,22.107L345.703,22.057L346.426,22.068L347.148,22.024L347.871,22.05L348.594,21.973L349.316,21.966L350.039,21.962L350.762,21.947L351.484,21.933L352.207,21.906L352.93,21.869L353.652,21.842L354.375,21.84L355.098,21.803L355.82,21.825L356.543,21.784L357.266,21.77L357.988,21.758L358.711,21.743L359.434,21.72L360.156,21.703L360.879,21.686L361.602,21.676L362.324,21.653L363.047,21.626L363.77,21.657L364.492,21.601L365.215,21.586L365.938,21.578L366.66,21.558L367.383,21.545L368.105,21.535L368.828,21.54L369.551,21.485L370.273,21.476L370.996,21.469L371.719,21.423L372.441,21.433L373.164,21.415L373.887,21.392L374.609,21.369L375.332,21.342L376.055,21.34L376.777,21.275L377.5,21.267L378.223,21.292L378.945,21.251L379.668,21.26L380.391,21.198L381.113,21.188L381.836,21.165L382.559,21.158L383.281,21.146L384.004,21.08L384.727,21.093L385.449,21.03L386.172,21.065L386.895,21.007L387.617,20.997L388.34,20.966L389.063,20.982L389.785,20.94L390.508,20.928L391.23,20.907L391.953,20.89L392.676,20.856L393.398,20.832L394.121,20.81L394.844,20.788L395.566,20.774L396.289,20.737L397.012,20.728L397.734,20.7L398.457,20.691L399.18,20.659L399.902,20.652L400.625,20.621L401.348,20.616L402.07,20.596L402.793,20.589L403.516,20.567L404.238,20.542L404.961,20.524L405.684,20.498L406.406,20.487L407.129,20.472L407.852,20.449L408.574,20.437L409.297,20.426L410.02,20.408L410.742,20.396L411.465,20.383L412.188,20.385L412.91,20.362L413.633,20.346L414.355,20.344L415.078,20.31L415.801,20.318L416.523,20.298L417.246,20.287L417.969,20.272L418.691,20.262L419.414,20.266L420.137,20.264L420.859,20.234L421.582,20.239L422.305,20.232L423.027,20.223L423.75,20.217L424.473,20.192L425.195,20.197L425.918,20.181L426.641,20.192L427.363,20.181L428.086,20.165L428.809,20.166L429.531,20.163L430.254,20.155L430.977,20.146L431.699,20.135L432.422,20.126L433.145,20.127L433.867,20.119L434.59,20.112L435.313,20.12L436.035,20.111L436.758,20.105L437.48,20.097L438.203,20.096L438.926,20.087L439.648,20.086L440.371,20.078L441.094,20.081L441.816,20.081L442.539,20.077L443.262,20.075L443.984,20.071L444.707,20.069L445.43,20.064L446.152,20.063L446.875,20.061L447.598,20.056L448.32,20.05L449.043,20.051L449.766,20.049L450.488,20.049L451.211,20.045L451.934,20.04L452.656,20.044L453.379,20.04L454.102,20.038L454.824,20.037L455.547,20.034L456.27,20.033L456.992,20.031L457.715,20.03L458.438,20.025L459.16,20.029L459.883,20.024L460.605,20.025L461.328,20.021L462.051,20.021L462.773,20.019L463.496,20.018L464.219,20.018L464.941,20.02L465.664,20.016L466.387,20.017L467.109,20.016L467.832,20.018L468.555,20.014L469.277,20.016"/><path fill="none" stroke="rgb(203, 47, 13)" stroke-width="1.5" d="M100,47.058L100.723,46.931L101.445,46.912L102.168,46.728L102.891,46.657L103.613,46.57L104.336,46.482L105.059,46.432L105.781,46.277L106.504,46.217L107.227,46.111L107.949,46.055L108.672,45.901L109.395,45.863L110.117,45.821L110.84,45.72L111.563,45.577L112.285,45.608L113.008,45.366L113.73,45.373L114.453,45.128L115.176,44.968L115.898,45.057L116.621,44.888L117.344,44.742L118.066,44.549L118.789,44.661L119.512,44.476L120.234,44.418L120.957,44.339L121.68,44.072L122.402,44.059L123.125,43.935L123.848,43.847L124.57,43.763L125.293,43.643L126.016,43.455L126.738,43.34L127.461,43.292L128.184,43.235L128.906,42.947L129.629,42.685L130.352,42.854L131.074,42.619L131.797,42.597L132.52,42.574L133.242,42.381L133.965,42.241L134.688,42.008L135.41,41.982L136.133,41.834L136.855,41.672L137.578,41.599L138.301,41.453L139.023,41.443L139.746,41.204L140.469,41.199L141.191,40.945L141.914,40.785L142.637,40.704L143.359,40.645L144.082,40.466L144.805,40.314L145.527,40.358L146.25,40.269L146.973,40.04L147.695,40.014L148.418,39.792L149.141,39.752L149.863,39.623L150.586,39.409L151.309,39.403L152.031,39.224L152.754,38.988L153.477,38.924L154.199,38.809L154.922,38.674L155.645,38.605L156.367,38.374L157.09,38.318L157.813,38.14L158.535,38.043L159.258,37.922L159.98,37.847L160.703,37.667L161.426,37.682L162.148,37.52L162.871,37.404L163.594,37.303L164.316,37.139L165.039,37.191L165.762,36.925L166.484,36.787L167.207,36.666L167.93,36.592L168.652,36.487L169.375,36.293L170.098,36.184L170.82,36.232L171.543,35.927L172.266,36.009L172.988,35.762L173.711,35.707L174.434,35.566L175.156,35.468L175.879,35.399L176.602,35.258L177.324,35.13L178.047,35.039L178.77,34.873L179.492,34.913L180.215,34.731L180.938,34.708L181.66,34.53L182.383,34.387L183.105,34.324L183.828,34.122L184.551,34.194L185.273,34.074L185.996,33.904L186.719,33.821L187.441,33.792L188.164,33.702L188.887,33.459L189.609,33.397L190.332,33.381L191.055,33.297L191.777,33.158L192.5,33.184L193.223,33.055L193.945,33L194.668,32.81L195.391,32.728L196.113,32.588L196.836,32.595L197.559,32.505L198.281,32.516L199.004,32.195L199.727,32.046L200.449,32.099L201.172,32.049L201.895,32L202.617,31.897L203.34,31.811L204.063,31.728L204.785,31.601L205.508,31.6L206.23,31.513L206.953,31.39L207.676,31.414L208.398,31.25L209.121,31.215L209.844,31.041L210.566,31.049L211.289,30.991L212.012,30.879L212.734,30.821L213.457,30.802L214.18,30.68L214.902,30.568L215.625,30.557L216.348,30.449L217.07,30.459L217.793,30.374L218.516,30.332L219.238,30.295L219.961,30.102L220.684,30.123L221.406,30.117L222.129,30.079L222.852,29.926L223.574,29.92L224.297,29.792L225.02,29.769L225.742,29.731L226.465,29.666L227.188,29.593L227.91,29.578L228.633,29.38L229.355,29.405L230.078,29.341L230.801,29.394L231.523,29.212L232.246,29.243L232.969,29.17L233.691,29.131L234.414,29.066L235.137,29.054L235.859,29L236.582,28.892L237.305,28.926L238.027,28.847L238.75,28.829L239.473,28.734L240.195,28.706L240.918,28.628L241.641,28.594L242.363,28.581L243.086,28.499L243.809,28.52L244.531,28.443L245.254,28.354L245.977,28.3L246.699,28.276L247.422,28.325L248.145,28.172L248.867,28.148L249.59,28.168L250.313,28.09L251.035,28.122L251.758,27.99L252.48,27.987L253.203,27.927L253.926,27.86L254.648,27.913L255.371,27.899L256.094,27.802L256.816,27.777L257.539,27.75L258.262,27.743L258.984,27.741L259.707,27.688L260.43,27.638L261.152,27.698L261.875,27.662L262.598,27.617L263.32,27.612L264.043,27.604L264.766,27.604L265.488,27.628L266.211,27.597L266.934,27.62L267.656,27.648L268.379,27.616L269.102,27.657L269.824,27.597L270.547,27.613L271.27,27.641L271.992,27.606L272.715,27.636L273.438,27.671L274.16,27.672L274.883,27.68L275.605,27.68L276.328,27.712L277.051,27.638L277.773,27.701L278.496,27.656L279.219,27.66L279.941,27.693L280.664,27.657L281.387,27.662L282.109,27.564L282.832,27.612L283.555,27.569L284.277,27.559L285,27.483L285.723,27.506L286.445,27.414L287.168,27.373L287.891,27.339L288.613,27.289L289.336,27.245L290.059,27.16L290.781,27.12L291.504,27.082L292.227,26.987L292.949,26.924L293.672,26.869L294.395,26.792L295.117,26.76L295.84,26.639L296.563,26.625L297.285,26.516L298.008,26.472L298.73,26.362L299.453,26.245L300.176,26.204L300.898,26.146L301.621,26.072L302.344,25.973L303.066,25.937L303.789,25.794L304.512,25.741L305.234,25.661L305.957,25.597L306.68,25.541L307.402,25.456L308.125,25.396L308.848,25.328L309.57,25.25L310.293,25.193L311.016,25.151L311.738,25.043L312.461,24.936L313.184,24.865L313.906,24.82L314.629,24.786L315.352,24.726L316.074,24.616L316.797,24.608L317.52,24.509L318.242,24.43L318.965,24.383L319.688,24.32L320.41,24.247L321.133,24.237L321.855,24.149L322.578,24.094L323.301,24.036L324.023,23.994L324.746,23.96L325.469,23.917L326.191,23.842L326.914,23.811L327.637,23.727L328.359,23.735L329.082,23.635L329.805,23.601L330.527,23.568L331.25,23.54L331.973,23.461L332.695,23.424L333.418,23.375L334.141,23.363L334.863,23.29L335.586,23.294L336.309,23.232L337.031,23.253L337.754,23.197L338.477,23.136L339.199,23.115L339.922,23.038L340.645,23.063L341.367,23.002L342.09,22.968L342.813,22.971L343.535,22.923L344.258,22.875L344.98,22.842L345.703,22.838L346.426,22.813L347.148,22.772L347.871,22.737L348.594,22.692L349.316,22.676L350.039,22.68L350.762,22.624L351.484,22.591L352.207,22.57L352.93,22.575L353.652,22.543L354.375,22.519L355.098,22.469L355.82,22.481L356.543,22.459L357.266,22.44L357.988,22.429L358.711,22.397L359.434,22.338L360.156,22.341L360.879,22.325L361.602,22.303L362.324,22.288L363.047,22.243L363.77,22.217L364.492,22.19L365.215,22.173L365.938,22.143L366.66,22.136L367.383,22.118L368.105,22.088L368.828,22.028L369.551,22.049L370.273,22.027L370.996,21.968L371.719,21.985L372.441,21.929L373.164,21.924L373.887,21.899L374.609,21.843L375.332,21.836L376.055,21.835L376.777,21.782L377.5,21.746L378.223,21.773L378.945,21.683L379.668,21.696L380.391,21.648L381.113,21.612L381.836,21.626L382.559,21.573L383.281,21.568L384.004,21.52L384.727,21.479L385.449,21.462L386.172,21.45L386.895,21.42L387.617,21.379L388.34,21.335L389.063,21.331L389.785,21.296L390.508,21.251L391.23,21.227L391.953,21.228L392.676,21.178L393.398,21.148L394.121,21.15L394.844,21.104L395.566,21.101L396.289,21.054L397.012,21.011L397.734,20.975L398.457,20.955L399.18,20.935L399.902,20.907L400.625,20.906L401.348,20.876L402.07,20.835L402.793,20.81L403.516,20.803L404.238,20.785L404.961,20.77L405.684,20.731L406.406,20.714L407.129,20.705L407.852,20.679L408.574,20.646L409.297,20.639L410.02,20.624L410.742,20.587L411.465,20.587L412.188,20.549L412.91,20.53L413.633,20.508L414.355,20.485L415.078,20.481L415.801,20.464L416.523,20.452L417.246,20.448L417.969,20.416L418.691,20.416L419.414,20.393L420.137,20.372L420.859,20.363L421.582,20.367L422.305,20.336L423.027,20.327L423.75,20.32L424.473,20.31L425.195,20.293L425.918,20.284L426.641,20.273L427.363,20.275L428.086,20.249L428.809,20.245L429.531,20.241L430.254,20.234L430.977,20.221L431.699,20.213L432.422,20.212L433.145,20.193L433.867,20.192L434.59,20.186L435.313,20.18L436.035,20.174L436.758,20.169L437.48,20.156L438.203,20.164L438.926,20.144L439.648,20.144L440.371,20.143L441.094,20.131L441.816,20.119L442.539,20.124L443.262,20.115L443.984,20.107L444.707,20.11L445.43,20.108L446.152,20.095L446.875,20.088L447.598,20.095L448.32,20.09L449.043,20.077L449.766,20.081L450.488,20.08L451.211,20.079L451.934,20.072L452.656,20.068L453.379,20.068L454.102,20.066L454.824,20.068L455.547,20.062L456.27,20.055L456.992,20.06L457.715,20.054L458.438,20.049L459.16,20.043L459.883,20.048L460.605,20.044L461.328,20.038L462.051,20.04L462.773,20.042L463.496,20.042L464.219,20.04L464.941,20.036L465.664,20.035L466.387,20.032L467.109,20.034L467.832,20.028L468.555,20.024L469.277,20.026"/><g transform="translate(15,190) scale(1.7) rotate(-90)"><text>Drift</text></g><g transform="translate(315,395) scale(1.8)"><text></text></g><g transform="translate(0,350)" fill="none" font-size="10" font-family="sans-serif" text-anchor="middle"><path class="domain" stroke="currentColor" d="M100,6V0H470V6"/><g class="tick" opacity="1" transform="translate(136.96669666966696,0)"><line stroke="currentColor" y2="6"/><text fill="currentColor" y="9" dy="0.71em" font-size="20px"> </text></g><g class="tick" opacity="1" transform="translate(173.97039703970398,0)"><line stroke="currentColor" y2="6"/><text fill="currentColor" y="9" dy="0.71em" font-size="20px">20</text></g><g class="tick" opacity="1" transform="translate(210.97409740974098,0)"><line stroke="currentColor" y2="6"/><text fill="currentColor" y="9" dy="0.71em" font-size="20px"> </text></g><g class="tick" opacity="1" transform="translate(247.97779777977803,0)"><line stroke="currentColor" y2="6"/><text fill="currentColor" y="9" dy="0.71em" font-size="20px">40</text></g><g class="tick" opacity="1" transform="translate(284.981498149815,0)"><line stroke="currentColor" y2="6"/><text fill="currentColor" y="9" dy="0.71em" font-size="20px"> </text></g><g class="tick" opacity="1" transform="translate(321.985198519852,0)"><line stroke="currentColor" y2="6"/><text fill="currentColor" y="9" dy="0.71em" font-size="20px">60</text></g><g class="tick" opacity="1" transform="translate(358.988898889889,0)"><line stroke="currentColor" y2="6"/><text fill="currentColor" y="9" dy="0.71em" font-size="20px"> </text></g><g class="tick" opacity="1" transform="translate(395.992599259926,0)"><line stroke="currentColor" y2="6"/><text fill="currentColor" y="9" dy="0.71em" font-size="20px">80</text></g><g class="tick" opacity="1" transform="translate(432.996299629963,0)"><line stroke="currentColor" y2="6"/><text fill="currentColor" y="9" dy="0.71em" font-size="20px"> </text></g><g class="tick" opacity="1" transform="translate(470,0)"><line stroke="currentColor" y2="6"/><text fill="currentColor" y="9" dy="0.71em" font-size="20px">100</text></g></g><g transform="translate(100,0)" fill="none" font-size="10" font-family="sans-serif" text-anchor="end"><path class="domain" stroke="currentColor" d="M-6,350H0V20H-6"/><g class="tick" opacity="1" transform="translate(0,346.0027674956129)"><line stroke="currentColor" x2="-6"/><text fill="currentColor" x="-9" dy="0.32em" font-size="20px">0.70</text></g><g class="tick" opacity="1" transform="translate(0,322.1487491329906)"><line stroke="currentColor" x2="-6"/><text fill="currentColor" x="-9" dy="0.32em" font-size="20px">0.65</text></g><g class="tick" opacity="1" transform="translate(0,298.2947307703683)"><line stroke="currentColor" x2="-6"/><text fill="currentColor" x="-9" dy="0.32em" font-size="20px">0.60</text></g><g class="tick" opacity="1" transform="translate(0,274.4407124077461)"><line stroke="currentColor" x2="-6"/><text fill="currentColor" x="-9" dy="0.32em" font-size="20px">0.55</text></g><g class="tick" opacity="1" transform="translate(0,250.5866940451238)"><line stroke="currentColor" x2="-6"/><text fill="currentColor" x="-9" dy="0.32em" font-size="20px">0.50</text></g><g class="tick" opacity="1" transform="translate(0,226.7326756825015)"><line stroke="currentColor" x2="-6"/><text fill="currentColor" x="-9" dy="0.32em" font-size="20px">0.45</text></g><g class="tick" opacity="1" transform="translate(0,202.8786573198793)"><line stroke="currentColor" x2="-6"/><text fill="currentColor" x="-9" dy="0.32em" font-size="20px">0.40</text></g><g class="tick" opacity="1" transform="translate(0,179.024638957257)"><line stroke="currentColor" x2="-6"/><text fill="currentColor" x="-9" dy="0.32em" font-size="20px">0.35</text></g><g class="tick" opacity="1" transform="translate(0,155.17062059463476)"><line stroke="currentColor" x2="-6"/><text fill="currentColor" x="-9" dy="0.32em" font-size="20px">0.30</text></g><g class="tick" opacity="1" transform="translate(0,131.31660223201246)"><line stroke="currentColor" x2="-6"/><text fill="currentColor" x="-9" dy="0.32em" font-size="20px">0.25</text></g><g class="tick" opacity="1" transform="translate(0,107.46258386939024)"><line stroke="currentColor" x2="-6"/><text fill="currentColor" x="-9" dy="0.32em" font-size="20px">0.20</text></g><g class="tick" opacity="1" transform="translate(0,83.60856550676795)"><line stroke="currentColor" x2="-6"/><text fill="currentColor" x="-9" dy="0.32em" font-size="20px">0.15</text></g><g class="tick" opacity="1" transform="translate(0,59.75454714414567)"><line stroke="currentColor" x2="-6"/><text fill="currentColor" x="-9" dy="0.32em" font-size="20px">0.10</text></g><g class="tick" opacity="1" transform="translate(0,35.90052878152342)"><line stroke="currentColor" x2="-6"/><text fill="currentColor" x="-9" dy="0.32em" font-size="20px">0.05</text></g></g><circle cx="355" cy="150" r="8" style="fill: rgb(35, 23, 27);"/><circle cx="355" cy="175" r="8" style="fill: rgb(69, 105, 238);"/><circle cx="355" cy="200" r="8" style="fill: rgb(38, 188, 225);"/><circle cx="355" cy="225" r="8" style="fill: rgb(63, 243, 147);"/><circle cx="355" cy="250" r="8" style="fill: rgb(149, 251, 81);"/><circle cx="355" cy="275" r="8" style="fill: rgb(236, 209, 46);"/><circle cx="355" cy="300" r="8" style="fill: rgb(255, 130, 29);"/><circle cx="355" cy="325" r="8" style="fill: rgb(203, 47, 13);"/><text x="370" y="150" text-anchor="left" font-size="22" alignment-baseline="middle" style="fill: rgb(35, 23, 27);"> = 0</text><text x="370" y="175" text-anchor="left" font-size="22" alignment-baseline="middle" style="fill: rgb(69, 105, 238);"> = 0.22</text><text x="370" y="200" text-anchor="left" font-size="22" alignment-baseline="middle" style="fill: rgb(38, 188, 225);"> = 0.45</text><text x="370" y="225" text-anchor="left" font-size="22" alignment-baseline="middle" style="fill: rgb(63, 243, 147);"> = 0.67</text><text x="370" y="250" text-anchor="left" font-size="22" alignment-baseline="middle" style="fill: rgb(149, 251, 81);"> = 0.9</text><text x="370" y="275" text-anchor="left" font-size="22" alignment-baseline="middle" style="fill: rgb(236, 209, 46);"> = 1.12</text><text x="370" y="300" text-anchor="left" font-size="22" alignment-baseline="middle" style="fill: rgb(255, 130, 29);"> = 1.35</text><text x="370" y="325" text-anchor="left" font-size="22" alignment-baseline="middle" style="fill: rgb(203, 47, 13);"> = 1.57</text></svg>