<svg xmlns="http://www.w3.org/2000/svg" class="bg-white" width="500" height="400" viewBox="-10 -1 500 400"><path fill="none" stroke="rgb(35, 23, 27)" stroke-width="1.5" d="M100,106.206L100.723,106.01L101.445,106.565L102.168,106.458L102.891,106.676L103.613,106.757L104.336,106.654L105.059,107.094L105.781,107.048L106.504,107.257L107.227,107.403L107.949,107.154L108.672,107.575L109.395,107.604L110.117,107.756L110.84,107.759L111.563,107.97L112.285,108.175L113.008,108.253L113.73,108.389L114.453,108.635L115.176,108.674L115.898,108.741L116.621,108.91L117.344,109.074L118.066,109.22L118.789,109.382L119.512,109.704L120.234,109.753L120.957,110.064L121.68,110.143L122.402,110.331L123.125,110.38L123.848,110.254L124.57,110.576L125.293,111.126L126.016,111.019L126.738,111.374L127.461,111.406L128.184,111.599L128.906,111.749L129.629,112.076L130.352,112.449L131.074,112.39L131.797,112.516L132.52,112.945L133.242,113.18L133.965,113.187L134.688,113.491L135.41,113.803L136.133,114.064L136.855,114.211L137.578,114.459L138.301,114.81L139.023,114.856L139.746,115.061L140.469,115.467L141.191,115.742L141.914,116.06L142.637,116.537L143.359,116.589L144.082,116.865L144.805,117.136L145.527,117.669L146.25,117.721L146.973,117.875L147.695,118.296L148.418,118.839L149.141,119.096L149.863,119.525L150.586,120.047L151.309,120.084L152.031,120.474L152.754,120.813L153.477,121.137L154.199,121.622L154.922,121.794L155.645,122.391L156.367,122.638L157.09,123.062L157.813,123.404L158.535,123.825L159.258,124.251L159.98,124.653L160.703,125.127L161.426,125.743L162.148,126.048L162.871,126.455L163.594,126.864L164.316,127.421L165.039,127.936L165.762,128.586L166.484,128.961L167.207,129.509L167.93,129.818L168.652,130.427L169.375,130.947L170.098,131.699L170.82,132.31L171.543,132.698L172.266,133.377L172.988,133.838L173.711,134.464L174.434,135.22L175.156,135.793L175.879,136.404L176.602,136.987L177.324,137.743L178.047,138.365L178.77,139.268L179.492,139.605L180.215,140.275L180.938,141.262L181.66,141.796L182.383,142.45L183.105,143.417L183.828,144.204L184.551,144.96L185.273,145.488L185.996,146.585L186.719,147.455L187.441,148.02L188.164,149.1L188.887,149.861L189.609,150.85L190.332,151.721L191.055,152.796L191.777,153.87L192.5,154.715L193.223,155.714L193.945,156.588L194.668,157.605L195.391,158.974L196.113,159.818L196.836,160.892L197.559,162.033L198.281,163.224L199.004,164.358L199.727,165.478L200.449,166.624L201.172,167.737L201.895,169.053L202.617,170.238L203.34,171.6L204.063,172.92L204.785,173.92L205.508,175.425L206.23,176.868L206.953,178.375L207.676,179.68L208.398,180.916L209.121,182.694L209.844,184.136L210.566,185.828L211.289,187.192L212.012,188.74L212.734,190.265L213.457,191.988L214.18,193.731L214.902,195.454L215.625,197.249L216.348,199.093L217.07,200.82L217.793,202.54L218.516,204.468L219.238,206.279L219.961,208.205L220.684,210.181L221.406,212.39L222.129,214.354L222.852,216.489L223.574,218.699L224.297,220.721L225.02,223.013L225.742,225.199L226.465,227.57L227.188,229.852L227.91,232.107L228.633,234.582L229.355,237.337L230.078,239.728L230.801,242.225L231.523,244.917L232.246,247.677L232.969,250.33L233.691,253.064L234.414,256.03L235.137,258.779L235.859,261.543L236.582,264.145L237.305,267.379L238.027,270.263L238.75,273.212L239.473,276.276L240.195,279.429L240.918,282.779L241.641,285.748L242.363,288.951L243.086,292.138L243.809,295.432L244.531,298.228L245.254,301.523L245.977,304.76L246.699,307.962L247.422,310.777L248.145,313.687L248.867,316.861L249.59,319.67L250.313,322.534L251.035,325.162L251.758,327.979L252.48,330.493L253.203,332.842L253.926,335.204L254.648,337.253L255.371,339.338L256.094,341.419L256.816,342.793L257.539,344.424L258.262,345.832L258.984,347.025L259.707,347.961L260.43,348.742L261.152,349.326L261.875,349.673L262.598,350L263.32,349.991L264.043,349.76L264.766,349.153L265.488,348.576L266.211,347.589L266.934,346.605L267.656,345.296L268.379,343.775L269.102,342.169L269.824,339.944L270.547,338.064L271.27,335.697L271.992,333.255L272.715,330.536L273.438,327.796L274.16,324.961L274.883,321.465L275.605,318.052L276.328,314.63L277.051,310.933L277.773,306.974L278.496,302.91L279.219,298.536L279.941,293.223L280.664,287.025L281.387,280.873L282.109,274.771L282.832,268.426L283.555,261.902L284.277,255.585L285,248.94L285.723,242.765L286.445,236.166L287.168,229.915L287.891,223.636L288.613,217.162L289.336,211.15L290.059,204.937L290.781,198.681L291.504,192.755L292.227,186.912L292.949,181.082L293.672,175.446L294.395,169.597L295.117,164.011L295.84,158.845L296.563,153.587L297.285,148.358L298.008,143.062L298.73,138.274L299.453,133.409L300.176,132.848L300.898,135.494L301.621,138.218L302.344,140.925L303.066,143.82L303.789,146.801L304.512,147.124L305.234,144.312L305.957,141.4L306.68,138.737L307.402,135.868L308.125,133.212L308.848,130.375L309.57,128.024L310.293,125.231L311.016,122.946L311.738,120.872L312.461,118.311L313.184,116.05L313.906,113.945L314.629,111.477L315.352,109.632L316.074,107.295L316.797,105.572L317.52,103.931L318.242,101.654L318.965,100.199L319.688,98.235L320.41,97.088L321.133,94.878L321.855,93.438L322.578,92.046L323.301,90.331L324.023,88.887L324.746,87.451L325.469,85.847L326.191,84.67L326.914,83.495L327.637,82.209L328.359,81.249L329.082,79.695L329.805,78.605L330.527,77.512L331.25,76.674L331.973,75.944L332.695,74.488L333.418,73.555L334.141,72.348L334.863,72.292L335.586,70.987L336.309,69.977L337.031,69.179L337.754,68.629L338.477,67.581L339.199,67.229L339.922,66.09L340.645,65.782L341.367,64.796L342.09,64.41L342.813,63.815L343.535,62.816L344.258,62.73L344.98,61.886L345.703,61.09L346.426,60.663L347.148,60.099L347.871,59.649L348.594,59.779L349.316,59.373L350.039,58.17L350.762,57.756L351.484,57.685L352.207,57.211L352.93,57.087L353.652,56.505L354.375,55.562L355.098,56.688L355.82,55.514L356.543,55.007L357.266,54.419L357.988,54.52L358.711,54.588L359.434,53.731L360.156,53.856L360.879,53.085L361.602,52.958L362.324,52.429L363.047,53.129L363.77,51.857L364.492,52.27L365.215,52.207L365.938,51.914L366.66,52.095L367.383,51.103L368.105,51.095L368.828,50.846L369.551,50.423L370.273,49.799L370.996,50.374L371.719,50.014L372.441,49.753L373.164,49.305L373.887,49.596L374.609,48.002L375.332,48.424L376.055,49.209L376.777,49.778L377.5,49.975L378.223,49.342L378.945,48.263L379.668,49.027L380.391,48.782L381.113,48.209L381.836,48.423L382.559,48.101L383.281,48.387L384.004,48.747L384.727,46.846L385.449,47.347L386.172,46.639L386.895,47.213L387.617,46.249L388.34,44.962L389.063,46.189L389.785,46.679L390.508,46.337L391.23,46.61L391.953,44.431L392.676,45.582L393.398,45.49L394.121,44.722L394.844,44.904L395.566,45.201L396.289,45.149L397.012,45.372L397.734,44.733L398.457,44.833L399.18,44.183L399.902,46.119L400.625,40.997L401.348,41.402L402.07,42.466L402.793,42.209L403.516,43.316L404.238,41.934L404.961,39.733L405.684,39.106L406.406,37.568L407.129,38.337L407.852,35.145L408.574,37.456L409.297,32.032L410.02,33.868L410.742,38.642L411.465,35.834L412.188,36.774L412.91,32.542L413.633,32.937L414.355,31.047L415.078,28.518L415.801,26.066L416.523,27.388L417.246,26.869L417.969,26.296L418.691,20L419.414,26.624L420.137,22.766L420.859,22.862L421.582,24.711L422.305,22.151L423.027,23.928L423.75,20.348L424.473,20.245L425.195,22.713L425.918,23.834L426.641,22.59L427.363,20.847L428.086,22.494L428.809,24.253L429.531,26.711L430.254,26.186L430.977,27.598L431.699,26.97L432.422,26.763L433.145,29.861L433.867,30.858L434.59,29.075L435.313,32.108L436.035,31.891L436.758,32.86L437.48,33.069L438.203,32.047L438.926,34.647L439.648,35.967L440.371,34.087L441.094,38.052L441.816,35.937L442.539,36.676L443.262,37.218L443.984,36.898L444.707,38.53L445.43,38.126L446.152,38.861L446.875,39.786L447.598,40.198L448.32,40.412L449.043,40.268L449.766,41.137L450.488,41.159L451.211,42.192L451.934,43.269L452.656,41.75L453.379,43.624L454.102,43.051L454.824,42.933L455.547,42.846L456.27,42.963L456.992,43.606L457.715,43.733L458.438,44.366L459.16,43.865L459.883,44.18L460.605,44.593L461.328,44.856L462.051,44.307L462.773,44.428L463.496,44.921L464.219,44.725L464.941,44.777L465.664,44.84L466.387,45.425L467.109,45.301L467.832,45.073L468.555,45.721L469.277,45.628"/><path fill="none" stroke="rgb(69, 105, 238)" stroke-width="1.5" d="M100,106.276L100.723,106.693L101.445,106.643L102.168,106.64L102.891,106.785L103.613,106.773L104.336,107.005L105.059,106.898L105.781,107.156L106.504,107.352L107.227,107.451L107.949,107.38L108.672,107.581L109.395,107.561L110.117,107.987L110.84,107.971L111.563,108.166L112.285,108.427L113.008,108.262L113.73,108.574L114.453,108.601L115.176,108.958L115.898,109.12L116.621,109.153L117.344,109.265L118.066,109.457L118.789,109.545L119.512,109.568L120.234,109.96L120.957,109.88L121.68,110.222L122.402,110.346L123.125,110.661L123.848,110.811L124.57,110.84L125.293,111.09L126.016,111.174L126.738,111.225L127.461,111.585L128.184,111.772L128.906,112.042L129.629,112.26L130.352,112.386L131.074,112.351L131.797,112.811L132.52,113.026L133.242,113.213L133.965,113.34L134.688,113.679L135.41,113.888L136.133,114.228L136.855,114.559L137.578,114.645L138.301,114.853L139.023,115.092L139.746,115.228L140.469,115.389L141.191,115.62L141.914,116.105L142.637,116.456L143.359,116.752L144.082,116.895L144.805,117.348L145.527,117.451L146.25,117.856L146.973,118.267L147.695,118.564L148.418,118.887L149.141,119.127L149.863,119.633L150.586,119.846L151.309,120.086L152.031,120.451L152.754,120.664L153.477,121.239L154.199,121.513L154.922,121.991L155.645,122.475L156.367,122.816L157.09,123.178L157.813,123.646L158.535,123.934L159.258,124.286L159.98,124.843L160.703,125.041L161.426,125.6L162.148,126.132L162.871,126.716L163.594,126.98L164.316,127.537L165.039,128.13L165.762,128.218L166.484,128.878L167.207,129.472L167.93,130.005L168.652,130.48L169.375,131.088L170.098,131.452L170.82,132.118L171.543,132.828L172.266,133.325L172.988,133.833L173.711,134.538L174.434,135.053L175.156,135.828L175.879,136.532L176.602,136.967L177.324,137.719L178.047,138.346L178.77,139.22L179.492,139.595L180.215,140.526L180.938,141.421L181.66,141.956L182.383,142.427L183.105,143.103L183.828,143.942L184.551,145.024L185.273,145.514L185.996,146.583L186.719,147.429L187.441,148.359L188.164,149.161L188.887,150.065L189.609,150.953L190.332,151.723L191.055,152.563L191.777,153.755L192.5,154.533L193.223,155.586L193.945,156.312L194.668,157.682L195.391,158.414L196.113,159.811L196.836,160.662L197.559,161.727L198.281,163.161L199.004,164.237L199.727,165.145L200.449,166.497L201.172,167.678L201.895,168.98L202.617,170.183L203.34,171.266L204.063,172.593L204.785,174.076L205.508,175.374L206.23,176.842L206.953,177.982L207.676,179.548L208.398,181.164L209.121,182.354L209.844,183.885L210.566,185.442L211.289,187.097L212.012,188.543L212.734,190.251L213.457,191.638L214.18,193.61L214.902,195.241L215.625,197.007L216.348,198.745L217.07,200.364L217.793,202.503L218.516,204.216L219.238,206.173L219.961,208.016L220.684,210.102L221.406,212.244L222.129,214.092L222.852,216.435L223.574,218.34L224.297,220.433L225.02,222.619L225.742,224.882L226.465,227.387L227.188,229.685L227.91,232.013L228.633,234.469L229.355,237.21L230.078,239.5L230.801,242.22L231.523,244.745L232.246,247.149L232.969,250.153L233.691,252.854L234.414,255.823L235.137,258.307L235.859,260.922L236.582,263.997L237.305,267.247L238.027,270.306L238.75,273.255L239.473,276.495L240.195,279.384L240.918,282.74L241.641,285.434L242.363,288.557L243.086,292.243L243.809,295.326L244.531,298.061L245.254,301.347L245.977,304.527L246.699,307.425L247.422,310.899L248.145,313.735L248.867,316.77L249.59,319.726L250.313,322.6L251.035,324.808L251.758,327.673L252.48,329.953L253.203,332.115L253.926,335.042L254.648,336.334L255.371,339L256.094,340.132L256.816,342.616L257.539,343.982L258.262,345.063L258.984,345.46L259.707,346.839L260.43,347.411L261.152,347.701L261.875,349.196L262.598,348.263L263.32,348.995L264.043,348.022L264.766,347.261L265.488,346.55L266.211,345.448L266.934,344.461L267.656,343.057L268.379,341.912L269.102,339.456L269.824,338.175L270.547,335.111L271.27,333.689L271.992,330.111L272.715,327.562L273.438,324.612L274.16,321.132L274.883,317.751L275.605,314.537L276.328,310.914L277.051,306.965L277.773,303.27L278.496,298.984L279.219,294.764L279.941,289.77L280.664,282.938L281.387,276.717L282.109,270.415L282.832,264.033L283.555,257.279L284.277,250.939L285,244.014L285.723,238.008L286.445,231.081L287.168,225.016L287.891,218.866L288.613,212.535L289.336,206.107L290.059,200.323L290.781,193.9L291.504,188.166L292.227,182.388L292.949,176.232L293.672,170.867L294.395,165.006L295.117,159.819L295.84,154.326L296.563,148.876L297.285,144.053L298.008,138.979L298.73,133.918L299.453,128.881L300.176,128.195L300.898,130.774L301.621,133.817L302.344,136.465L303.066,139.634L303.789,142.808L304.512,143.821L305.234,140.522L305.957,137.375L306.68,134.919L307.402,132.273L308.125,129.882L308.848,127.15L309.57,124.754L310.293,121.905L311.016,119.434L311.738,117.399L312.461,115.145L313.184,113.163L313.906,111.143L314.629,109.255L315.352,107.151L316.074,104.795L316.797,103.121L317.52,101.455L318.242,99.177L318.965,97.722L319.688,95.889L320.41,94.713L321.133,92.804L321.855,91.399L322.578,89.964L323.301,87.934L324.023,86.792L324.746,85.134L325.469,84.233L326.191,82.691L326.914,81.598L327.637,80.464L328.359,79.496L329.082,77.944L329.805,77.186L330.527,76.035L331.25,74.949L331.973,74.62L332.695,73.254L333.418,72.316L334.141,70.737L334.863,70.116L335.586,69.725L336.309,68.887L337.031,68.095L337.754,67.3L338.477,67.225L339.199,65.875L339.922,64.835L340.645,64.436L341.367,63.499L342.09,64.027L342.813,62.638L343.535,62.564L344.258,62.369L344.98,60.982L345.703,60.528L346.426,59.292L347.148,59.111L347.871,59.426L348.594,59.002L349.316,57.86L350.039,57.78L350.762,57.241L351.484,57.464L352.207,56.624L352.93,56.282L353.652,56.55L354.375,56.434L355.098,56.195L355.82,55.039L356.543,53.451L357.266,54.955L357.988,53.084L358.711,52.32L359.434,53.982L360.156,53.395L360.879,53.335L361.602,51.644L362.324,52.749L363.047,52.74L363.77,51.64L364.492,52.584L365.215,49.86L365.938,50.93L366.66,50.353L367.383,51.068L368.105,50.857L368.828,50.702L369.551,49.482L370.273,50.926L370.996,51.352L371.719,49.284L372.441,51.113L373.164,49.429L373.887,49.355L374.609,50.65L375.332,50.217L376.055,50.356L376.777,47.349L377.5,47.756L378.223,47.44L378.945,48.577L379.668,47.944L380.391,48.375L381.113,48.545L381.836,48.898L382.559,47.389L383.281,48.751L384.004,47.676L384.727,45.631L385.449,48.246L386.172,44.107L386.895,47.593L387.617,46.566L388.34,47.274L389.063,47.486L389.785,44.317L390.508,48.667L391.23,45.126L391.953,46.493L392.676,45.97L393.398,46.738L394.121,46.532L394.844,46.738L395.566,45.371L396.289,44.247L397.012,45.373L397.734,44.381L398.457,45.221L399.18,43.373L399.902,46.442L400.625,43.452L401.348,43.814L402.07,44.49L402.793,40.586L403.516,38.9L404.238,39.244L404.961,42.749L405.684,39.534L406.406,40.264L407.129,41.357L407.852,38.984L408.574,36.905L409.297,37.585L410.02,34.684L410.742,35.605L411.465,35.01L412.188,34.52L412.91,34.585L413.633,30.435L414.355,34.686L415.078,34.586L415.801,31.049L416.523,32.086L417.246,28.647L417.969,25.528L418.691,28.943L419.414,24.861L420.137,27.332L420.859,26.367L421.582,28.876L422.305,27.867L423.027,24.497L423.75,27.334L424.473,24.875L425.195,24.067L425.918,27.303L426.641,24.912L427.363,27.75L428.086,23.863L428.809,25.132L429.531,29.136L430.254,28.411L430.977,28.764L431.699,30.16L432.422,30.886L433.145,30.49L433.867,30.895L434.59,29.521L435.313,31.343L436.035,32.517L436.758,32.654L437.48,34.777L438.203,36.629L438.926,35.643L439.648,33.995L440.371,36.971L441.094,37.062L441.816,37.41L442.539,37.424L443.262,37.928L443.984,37.93L444.707,38.32L445.43,38.756L446.152,41.006L446.875,40.307L447.598,41.097L448.32,40.775L449.043,41.39L449.766,41.899L450.488,43.194L451.211,42.701L451.934,42.451L452.656,42.979L453.379,43.273L454.102,43.43L454.824,42.942L455.547,43.338L456.27,43.852L456.992,44.205L457.715,44.149L458.438,44.754L459.16,44.842L459.883,44.531L460.605,44.354L461.328,45.198L462.051,44.69L462.773,45.068L463.496,44.88L464.219,45.132L464.941,44.746L465.664,45.089L466.387,45.206L467.109,45.126L467.832,45.528L468.555,45.389L469.277,45.42"/><path fill="none" stroke="rgb(38, 188, 225)" stroke-width="1.5" d="M100,106.242L100.723,106.349L101.445,106.439L102.168,106.629L102.891,106.633L103.613,106.878L104.336,106.848L105.059,106.901L105.781,107.307L106.504,107.05L107.227,107.341L107.949,107.302L108.672,107.516L109.395,107.706L110.117,107.731L110.84,107.952L111.563,107.933L112.285,108.215L113.008,108.116L113.73,108.164L114.453,108.399L115.176,108.723L115.898,108.758L116.621,108.944L117.344,109.349L118.066,109.434L118.789,109.44L119.512,109.635L120.234,109.622L120.957,109.699L121.68,109.769L122.402,110.059L123.125,110.388L123.848,110.646L124.57,110.52L125.293,110.756L126.016,111.104L126.738,111.188L127.461,111.254L128.184,111.611L128.906,111.714L129.629,112.072L130.352,112.202L131.074,112.504L131.797,112.668L132.52,112.697L133.242,113.121L133.965,113.272L134.688,113.622L135.41,113.652L136.133,113.965L136.855,114.17L137.578,114.424L138.301,114.749L139.023,115.016L139.746,115.151L140.469,115.646L141.191,115.723L141.914,115.76L142.637,116.193L143.359,116.542L144.082,116.706L144.805,117.118L145.527,117.411L146.25,117.793L146.973,117.985L147.695,118.371L148.418,118.555L149.141,119.011L149.863,119.124L150.586,119.589L151.309,120.003L152.031,120.15L152.754,120.483L153.477,121.114L154.199,121.244L154.922,121.668L155.645,122.17L156.367,122.531L157.09,122.71L157.813,123.432L158.535,123.669L159.258,124.137L159.98,124.383L160.703,124.936L161.426,125.377L162.148,125.82L162.871,126.508L163.594,126.915L164.316,127.372L165.039,127.695L165.762,128.339L166.484,128.882L167.207,129.253L167.93,129.886L168.652,130.29L169.375,131.007L170.098,131.136L170.82,131.888L171.543,132.345L172.266,133.129L172.988,133.926L173.711,134.285L174.434,134.908L175.156,135.302L175.879,136.027L176.602,136.917L177.324,137.377L178.047,138.1L178.77,138.6L179.492,139.469L180.215,140.148L180.938,140.814L181.66,141.734L182.383,142.457L183.105,143.174L183.828,143.85L184.551,144.479L185.273,145.524L185.996,146.187L186.719,147.074L187.441,148.064L188.164,148.718L188.887,149.524L189.609,150.582L190.332,151.73L191.055,152.342L191.777,153.268L192.5,154.389L193.223,155.353L193.945,156.301L194.668,157.384L195.391,158.307L196.113,159.316L196.836,160.465L197.559,161.486L198.281,163.074L199.004,163.785L199.727,164.728L200.449,166.01L201.172,167.333L201.895,168.466L202.617,169.462L203.34,170.954L204.063,172.249L204.785,173.726L205.508,174.876L206.23,176.059L206.953,177.775L207.676,179.107L208.398,180.47L209.121,181.991L209.844,183.716L210.566,184.923L211.289,186.679L212.012,188.066L212.734,189.518L213.457,191.202L214.18,193.224L214.902,194.95L215.625,196.753L216.348,198.303L217.07,199.893L217.793,201.756L218.516,203.642L219.238,205.636L219.961,207.447L220.684,209.324L221.406,211.094L222.129,213.734L222.852,215.657L223.574,217.807L224.297,219.909L225.02,222.027L225.742,224.238L226.465,226.609L227.188,228.66L227.91,231.275L228.633,233.771L229.355,236.074L230.078,238.552L230.801,241.199L231.523,243.704L232.246,246.545L232.969,249.145L233.691,251.986L234.414,254.64L235.137,257.559L235.859,260.492L236.582,263.117L237.305,266.167L238.027,269.214L238.75,272.515L239.473,275.368L240.195,277.977L240.918,281.579L241.641,284.224L242.363,287.492L243.086,290.253L243.809,293.584L244.531,296.782L245.254,299.69L245.977,302.291L246.699,305.722L247.422,308.554L248.145,311.735L248.867,314.021L249.59,317.265L250.313,319.47L251.035,322L251.758,324.33L252.48,327.203L253.203,328.911L253.926,331.465L254.648,332.725L255.371,335.077L256.094,336.46L256.816,338.083L257.539,339.608L258.262,340.511L258.984,340.98L259.707,342.428L260.43,342.584L261.152,342.598L261.875,342.901L262.598,342.823L263.32,342.651L264.043,341.692L264.766,341.059L265.488,339.844L266.211,339.025L266.934,337.511L267.656,335.339L268.379,333.746L269.102,331.626L269.824,329.554L270.547,326.93L271.27,324.435L271.992,321.578L272.715,318.389L273.438,315.537L274.16,312.313L274.883,308.36L275.605,305.075L276.328,300.763L277.051,297.061L277.773,293.357L278.496,288.584L279.219,283.867L279.941,278.623L280.664,272.286L281.387,266.108L282.109,259.749L282.832,253.311L283.555,246.46L284.277,239.944L285,233.193L285.723,226.897L286.445,220.415L287.168,213.892L287.891,208.101L288.613,201.376L289.336,195.594L290.059,189.548L290.781,183.602L291.504,177.188L292.227,171.504L292.949,165.719L293.672,160.263L294.395,154.996L295.117,149.582L295.84,143.983L296.563,139.467L297.285,133.799L298.008,129.201L298.73,124.26L299.453,119.997L300.176,119.863L300.898,122.364L301.621,125.626L302.344,128.341L303.066,131.438L303.789,134.397L304.512,135.116L305.234,132.224L305.957,130.112L306.68,127.033L307.402,124.601L308.125,122.258L308.848,119.544L309.57,117.143L310.293,114.948L311.016,113.019L311.738,110.663L312.461,108.53L313.184,106.457L313.906,104.328L314.629,102.428L315.352,100.548L316.074,99.083L316.797,97.258L317.52,95.538L318.242,94.32L318.965,92.221L319.688,90.946L320.41,89.844L321.133,88.474L321.855,86.955L322.578,84.846L323.301,83.53L324.023,82.108L324.746,81.716L325.469,80.253L326.191,79.151L326.914,78.164L327.637,77.046L328.359,75.988L329.082,74.349L329.805,73.983L330.527,72.7L331.25,71.673L331.973,70.856L332.695,70.403L333.418,69.2L334.141,68.634L334.863,67.323L335.586,66.884L336.309,66.325L337.031,65.621L337.754,64.914L338.477,64.338L339.199,63.789L339.922,62.988L340.645,62.222L341.367,61.865L342.09,61.01L342.813,60.686L343.535,60.433L344.258,60.647L344.98,59.453L345.703,57.99L346.426,58.222L347.148,57.848L347.871,57.579L348.594,57.362L349.316,55.306L350.039,56.33L350.762,55.157L351.484,55.422L352.207,56.238L352.93,54.195L353.652,55.362L354.375,53.298L355.098,54.468L355.82,54.284L356.543,52.801L357.266,53.18L357.988,52.727L358.711,53.306L359.434,52.656L360.156,51.634L360.879,52.134L361.602,51.672L362.324,51.003L363.047,51.27L363.77,51.869L364.492,51.208L365.215,51.033L365.938,51.455L366.66,50.537L367.383,49.985L368.105,50.838L368.828,49.67L369.551,50.733L370.273,48.894L370.996,50.598L371.719,49.678L372.441,48.756L373.164,49.619L373.887,48.906L374.609,51.186L375.332,48.935L376.055,49.554L376.777,47.679L377.5,49.421L378.223,48.145L378.945,47.932L379.668,45.329L380.391,47.866L381.113,47.572L381.836,47.625L382.559,47.39L383.281,47.963L384.004,47.468L384.727,46.257L385.449,48.672L386.172,46.61L386.895,47.286L387.617,48.626L388.34,46.694L389.063,45.945L389.785,46.053L390.508,49.826L391.23,45.662L391.953,44.843L392.676,46.573L393.398,46.593L394.121,45.969L394.844,45.001L395.566,44.827L396.289,47.216L397.012,45.331L397.734,44.731L398.457,45.739L399.18,47.351L399.902,45.666L400.625,45.457L401.348,46.07L402.07,42.707L402.793,44.391L403.516,41.29L404.238,41.132L404.961,38.705L405.684,42.021L406.406,44.364L407.129,44.313L407.852,39.684L408.574,41.206L409.297,44.595L410.02,40.002L410.742,43.954L411.465,39.255L412.188,40.333L412.91,41.841L413.633,40.482L414.355,39.503L415.078,34.403L415.801,37.157L416.523,37.053L417.246,35.919L417.969,38.398L418.691,33.456L419.414,35.354L420.137,38.103L420.859,32.74L421.582,36.247L422.305,35.223L423.027,31.692L423.75,35.028L424.473,33.957L425.195,34.408L425.918,32.729L426.641,32.696L427.363,34.432L428.086,33.427L428.809,35.643L429.531,31.679L430.254,34.514L430.977,34.626L431.699,35.495L432.422,35.787L433.145,36.457L433.867,38.387L434.59,37.077L435.313,36.482L436.035,34.549L436.758,37.576L437.48,37.731L438.203,37.407L438.926,37.882L439.648,38.402L440.371,38.406L441.094,38.988L441.816,39.99L442.539,40.427L443.262,41.298L443.984,40.989L444.707,39.858L445.43,42.871L446.152,42.455L446.875,41.37L447.598,42.015L448.32,42.942L449.043,41.863L449.766,43.067L450.488,43.058L451.211,43.425L451.934,43.799L452.656,44.563L453.379,43.436L454.102,44.042L454.824,44.545L455.547,44.736L456.27,44.502L456.992,44.349L457.715,44.962L458.438,44.499L459.16,44.883L459.883,44.732L460.605,45.026L461.328,45.337L462.051,45.054L462.773,45.536L463.496,45.078L464.219,45.049L464.941,44.981L465.664,45.562L466.387,45.635L467.109,45.638L467.832,45.734L468.555,45.729L469.277,45.791"/><path fill="none" stroke="rgb(63, 243, 147)" stroke-width="1.5" d="M100,106.238L100.723,106.599L101.445,106.422L102.168,106.581L102.891,106.579L103.613,106.884L104.336,106.868L105.059,106.854L105.781,107.131L106.504,107.151L107.227,107.259L107.949,107.479L108.672,107.601L109.395,107.644L110.117,107.647L110.84,107.876L111.563,108.102L112.285,108.28L113.008,108.221L113.73,108.25L114.453,108.578L115.176,108.571L115.898,108.883L116.621,109.142L117.344,109.091L118.066,109.032L118.789,109.342L119.512,109.563L120.234,109.624L120.957,109.878L121.68,109.955L122.402,110.191L123.125,110.585L123.848,110.599L124.57,110.796L125.293,110.818L126.016,111.1L126.738,111.036L127.461,111.516L128.184,111.701L128.906,111.994L129.629,112.15L130.352,112.159L131.074,112.327L131.797,112.502L132.52,112.969L133.242,112.962L133.965,113.149L134.688,113.48L135.41,113.825L136.133,113.972L136.855,114.07L137.578,114.332L138.301,114.753L139.023,114.928L139.746,114.991L140.469,115.525L141.191,115.815L141.914,115.989L142.637,116.16L143.359,116.374L144.082,116.772L144.805,117.108L145.527,117.205L146.25,117.623L146.973,118.047L147.695,118.201L148.418,118.575L149.141,119.04L149.863,119.214L150.586,119.326L151.309,120.035L152.031,120.254L152.754,120.479L153.477,121.053L154.199,121.33L154.922,121.775L155.645,121.929L156.367,122.588L157.09,122.94L157.813,123.206L158.535,123.701L159.258,123.962L159.98,124.498L160.703,124.793L161.426,125.488L162.148,125.644L162.871,126.021L163.594,126.485L164.316,127.186L165.039,127.491L165.762,127.871L166.484,128.753L167.207,129.121L167.93,129.644L168.652,130.01L169.375,130.633L170.098,131.173L170.82,131.538L171.543,132.592L172.266,132.855L172.988,133.418L173.711,134.12L174.434,134.505L175.156,135.377L175.879,136.116L176.602,136.448L177.324,137.066L178.047,137.748L178.77,138.437L179.492,139.343L180.215,139.793L180.938,140.581L181.66,141.324L182.383,142.148L183.105,142.89L183.828,143.678L184.551,144.303L185.273,144.959L185.996,146.09L186.719,146.811L187.441,147.622L188.164,148.502L188.887,149.39L189.609,150.206L190.332,151.1L191.055,151.985L191.777,153.098L192.5,153.819L193.223,154.775L193.945,156.082L194.668,156.852L195.391,158.141L196.113,158.868L196.836,160.095L197.559,161.197L198.281,162.301L199.004,163.012L199.727,164.334L200.449,165.704L201.172,166.954L201.895,167.822L202.617,169.194L203.34,170.811L204.063,171.666L204.785,172.721L205.508,174.329L206.23,175.769L206.953,176.735L207.676,178.333L208.398,179.824L209.121,181.191L209.844,182.919L210.566,184.325L211.289,185.59L212.012,187.25L212.734,188.887L213.457,190.456L214.18,191.966L214.902,193.889L215.625,195.351L216.348,197.37L217.07,199.033L217.793,200.641L218.516,202.525L219.238,204.614L219.961,206.311L220.684,208.033L221.406,210.295L222.129,212.676L222.852,214.91L223.574,216.502L224.297,218.839L225.02,220.921L225.742,223.142L226.465,225.147L227.188,227.405L227.91,229.724L228.633,232.506L229.355,234.324L230.078,237.045L230.801,239.695L231.523,241.791L232.246,244.775L232.969,247.208L233.691,250.109L234.414,253.018L235.137,255.286L235.859,258.047L236.582,260.688L237.305,263.956L238.027,266.457L238.75,269.425L239.473,272.543L240.195,275.026L240.918,278.327L241.641,280.687L242.363,283.98L243.086,286.86L243.809,289.918L244.531,292.31L245.254,295.063L245.977,297.776L246.699,300.235L247.422,303.512L248.145,305.878L248.867,308.584L249.59,311.155L250.313,312.98L251.035,316.018L251.758,317.794L252.48,320.155L253.203,322.095L253.926,323.547L254.648,324.937L255.371,326.611L256.094,328.241L256.816,328.725L257.539,330.648L258.262,330.869L258.984,331.717L259.707,332.066L260.43,332.117L261.152,332.601L261.875,332.052L262.598,331.948L263.32,331.451L264.043,331.053L264.766,329.933L265.488,328.947L266.211,327.073L266.934,326.152L267.656,324.901L268.379,321.847L269.102,319.882L269.824,317.695L270.547,314.504L271.27,312.328L271.992,308.526L272.715,306.478L273.438,303.54L274.16,299.694L274.883,296.346L275.605,292.198L276.328,288.988L277.051,284.986L277.773,281.853L278.496,276.547L279.219,272.107L279.941,266.585L280.664,260.354L281.387,254.29L282.109,247.518L282.832,241.119L283.555,234.818L284.277,228.136L285,221.179L285.723,216.218L286.445,209.192L287.168,202.934L287.891,196.841L288.613,190.513L289.336,184.561L290.059,178.794L290.781,172.617L291.504,166.84L292.227,161.246L292.949,155.741L293.672,150.48L294.395,144.999L295.117,139.335L295.84,134.817L296.563,129.313L297.285,124.695L298.008,120.048L298.73,114.989L299.453,110.797L300.176,110.527L300.898,113.115L301.621,116.388L302.344,119.696L303.066,122.819L303.789,125.923L304.512,127.001L305.234,124.067L305.957,121.929L306.68,119.397L307.402,117.071L308.125,114.592L308.848,112.582L309.57,109.784L310.293,108.04L311.016,105.854L311.738,103.646L312.461,102.031L313.184,100.027L313.906,98.32L314.629,96.19L315.352,94.506L316.074,92.893L316.797,91.342L317.52,89.772L318.242,88.381L318.965,86.923L319.688,84.881L320.41,84.194L321.133,82.846L321.855,81.179L322.578,80.362L323.301,78.927L324.023,77.807L324.746,76.595L325.469,75.359L326.191,74.284L326.914,73.584L327.637,71.942L328.359,71.572L329.082,70.32L329.805,69.7L330.527,68.962L331.25,67.437L331.973,66.894L332.695,66.011L333.418,66.259L334.141,64.962L334.863,64.088L335.586,63.536L336.309,62.58L337.031,62.4L337.754,61.583L338.477,60.746L339.199,60.471L339.922,59.871L340.645,59.492L341.367,58.914L342.09,58.258L342.813,58.011L343.535,57.04L344.258,56.939L344.98,56.711L345.703,56.18L346.426,56.031L347.148,55.377L347.871,54.999L348.594,55.113L349.316,54.475L350.039,54.415L350.762,54.137L351.484,53.825L352.207,53.636L352.93,53.397L353.652,52.502L354.375,53.097L355.098,52.157L355.82,51.418L356.543,50.562L357.266,51.101L357.988,52.228L358.711,51.339L359.434,51.177L360.156,50.872L360.879,52.039L361.602,49.527L362.324,50.446L363.047,49.805L363.77,50.071L364.492,49.275L365.215,48.838L365.938,50.365L366.66,49.367L367.383,48.578L368.105,48.939L368.828,48.775L369.551,48.513L370.273,50.475L370.996,47.881L371.719,49.138L372.441,48.243L373.164,49.804L373.887,48.574L374.609,46.479L375.332,48.665L376.055,48.625L376.777,48.279L377.5,47.221L378.223,46.977L378.945,48.429L379.668,50.198L380.391,47.599L381.113,47.4L381.836,47.917L382.559,46.598L383.281,46.778L384.004,47.37L384.727,49.188L385.449,45.937L386.172,49.342L386.895,47.394L387.617,46.876L388.34,48.801L389.063,46.623L389.785,46.259L390.508,47.302L391.23,46.874L391.953,46.088L392.676,47.22L393.398,48.022L394.121,46.187L394.844,48.082L395.566,47.6L396.289,47.235L397.012,44.421L397.734,44.632L398.457,45.315L399.18,48.273L399.902,46.313L400.625,45.984L401.348,48.174L402.07,47.48L402.793,45.517L403.516,43.044L404.238,44.826L404.961,44.439L405.684,45.815L406.406,43.913L407.129,45.753L407.852,46.331L408.574,45.114L409.297,46.787L410.02,42.379L410.742,47.2L411.465,42.95L412.188,42.439L412.91,43.346L413.633,42.895L414.355,42.784L415.078,41.22L415.801,46.696L416.523,42.32L417.246,40.352L417.969,45.443L418.691,44.896L419.414,43.265L420.137,42.541L420.859,42.869L421.582,45.808L422.305,36.983L423.027,39.972L423.75,39.326L424.473,44.203L425.195,42.697L425.918,42.933L426.641,44.133L427.363,43.253L428.086,44.069L428.809,42.299L429.531,40.146L430.254,42.278L430.977,42.205L431.699,43.182L432.422,43.085L433.145,45.284L433.867,41.302L434.59,43.186L435.313,44.022L436.035,42.728L436.758,43.436L437.48,41.756L438.203,43.922L438.926,44.503L439.648,43.252L440.371,43.115L441.094,44.365L441.816,45.792L442.539,44.478L443.262,44.22L443.984,43.622L444.707,44.333L445.43,44.384L446.152,43.41L446.875,44.689L447.598,45.542L448.32,45.489L449.043,43.862L449.766,44.829L450.488,45.224L451.211,44.974L451.934,45.273L452.656,45.452L453.379,45.317L454.102,45.769L454.824,45.667L455.547,45.633L456.27,45.25L456.992,45.298L457.715,45.936L458.438,46.075L459.16,46.217L459.883,45.472L460.605,45.83L461.328,45.976L462.051,45.752L462.773,45.682L463.496,45.741L464.219,45.822L464.941,45.85L465.664,45.842L466.387,45.837L467.109,46.007L467.832,45.797L468.555,46.088L469.277,46.145"/><path fill="none" stroke="rgb(149, 251, 81)" stroke-width="1.5" d="M100,106.002L100.723,105.975L101.445,106.188L102.168,106.186L102.891,106.528L103.613,106.497L104.336,106.67L105.059,106.883L105.781,106.985L106.504,106.985L107.227,106.873L107.949,107.08L108.672,107.046L109.395,107.35L110.117,107.254L110.84,107.585L111.563,107.769L112.285,107.85L113.008,108.031L113.73,107.985L114.453,108.318L115.176,108.381L115.898,108.578L116.621,108.781L117.344,108.771L118.066,108.933L118.789,109.105L119.512,109.216L120.234,109.452L120.957,109.396L121.68,109.658L122.402,109.777L123.125,109.958L123.848,110.074L124.57,110.389L125.293,110.574L126.016,110.676L126.738,110.882L127.461,111.169L128.184,111.119L128.906,111.295L129.629,111.634L130.352,111.809L131.074,111.896L131.797,112.096L132.52,112.225L133.242,112.597L133.965,112.963L134.688,113.121L135.41,113.154L136.133,113.472L136.855,113.763L137.578,113.991L138.301,114.341L139.023,114.496L139.746,114.541L140.469,114.988L141.191,115.312L141.914,115.541L142.637,115.69L143.359,116.051L144.082,116.189L144.805,116.508L145.527,116.761L146.25,117.339L146.973,117.383L147.695,117.804L148.418,118.085L149.141,118.19L149.863,118.639L150.586,118.792L151.309,119.124L152.031,119.878L152.754,120.061L153.477,120.215L154.199,120.687L154.922,120.953L155.645,121.575L156.367,121.794L157.09,122.19L157.813,122.549L158.535,122.929L159.258,123.386L159.98,124.115L160.703,124.155L161.426,124.905L162.148,125.022L162.871,125.581L163.594,125.895L164.316,126.324L165.039,127.039L165.762,127.146L166.484,127.775L167.207,128.238L167.93,128.752L168.652,129.426L169.375,129.855L170.098,130.54L170.82,130.73L171.543,131.558L172.266,131.792L172.988,132.489L173.711,133.022L174.434,133.984L175.156,134.468L175.879,135.113L176.602,135.629L177.324,136.168L178.047,137.004L178.77,137.136L179.492,138.254L180.215,138.867L180.938,139.516L181.66,140.229L182.383,140.793L183.105,141.899L183.828,142.426L184.551,142.998L185.273,144.045L185.996,144.782L186.719,145.588L187.441,146.17L188.164,147.457L188.887,148.076L189.609,148.767L190.332,149.911L191.055,150.605L191.777,151.515L192.5,152.493L193.223,153.45L193.945,154.536L194.668,155.533L195.391,156.345L196.113,157.484L196.836,158.487L197.559,159.719L198.281,160.434L199.004,161.461L199.727,162.683L200.449,163.74L201.172,165.083L201.895,166.132L202.617,167.373L203.34,168.678L204.063,169.633L204.785,171.426L205.508,172.256L206.23,173.644L206.953,174.977L207.676,176.143L208.398,177.57L209.121,178.973L209.844,180.669L210.566,181.761L211.289,183.364L212.012,184.723L212.734,186.484L213.457,187.862L214.18,189.341L214.902,190.895L215.625,192.655L216.348,194.389L217.07,196.271L217.793,197.731L218.516,199.817L219.238,201.126L219.961,203.362L220.684,205.118L221.406,207.137L222.129,208.684L222.852,210.647L223.574,212.755L224.297,214.619L225.02,216.769L225.742,218.933L226.465,220.803L227.188,222.612L227.91,225.3L228.633,227.382L229.355,229.863L230.078,231.687L230.801,234.213L231.523,236.772L232.246,238.514L232.969,241.237L233.691,243.431L234.414,245.978L235.137,248.044L235.859,250.797L236.582,253.558L237.305,255.974L238.027,258.631L238.75,261.372L239.473,263.93L240.195,266.563L240.918,268.559L241.641,271.845L242.363,274.482L243.086,276.917L243.809,279.63L244.531,282.083L245.254,284.355L245.977,287.151L246.699,289.619L247.422,292.081L248.145,294.735L248.867,296.884L249.59,299.152L250.313,301.413L251.035,303.274L251.758,305.601L252.48,307.674L253.203,309.177L253.926,311.064L254.648,312.243L255.371,313.731L256.094,314.989L256.816,316.112L257.539,317.132L258.262,317.952L258.984,318.478L259.707,319.344L260.43,319.632L261.152,320.307L261.875,319.819L262.598,319.427L263.32,319.034L264.043,318.687L264.766,317.522L265.488,317.061L266.211,315.67L266.934,313.89L267.656,312.724L268.379,310.886L269.102,308.686L269.824,306.331L270.547,304.301L271.27,301.73L271.992,298.974L272.715,295.979L273.438,292.76L274.16,290.166L274.883,286.638L275.605,283.045L276.328,279.71L277.051,275.288L277.773,272.022L278.496,267.923L279.219,262.685L279.941,257.518L280.664,251.653L281.387,245.428L282.109,239.328L282.832,232.897L283.555,226.536L284.277,220.246L285,214.144L285.723,208.103L286.445,201.248L287.168,195.23L287.891,189.677L288.613,183.305L289.336,177.511L290.059,171.618L290.781,166.249L291.504,160.738L292.227,154.634L292.949,149.634L293.672,143.951L294.395,138.7L295.117,133.824L295.84,128.679L296.563,123.498L297.285,118.827L298.008,114.238L298.73,109.868L299.453,105.318L300.176,105.796L300.898,108.954L301.621,111.731L302.344,115.104L303.066,118.432L303.789,122.081L304.512,122.5L305.234,119.819L305.957,117.643L306.68,115.223L307.402,113.159L308.125,111.029L308.848,108.563L309.57,106.603L310.293,104.542L311.016,102.434L311.738,100.432L312.461,98.518L313.184,96.905L313.906,94.969L314.629,93.486L315.352,91.865L316.074,90.145L316.797,88.712L317.52,87.189L318.242,85.511L318.965,84.195L319.688,82.928L320.41,81.563L321.133,80.405L321.855,79.054L322.578,77.671L323.301,76.749L324.023,75.625L324.746,74.706L325.469,73.426L326.191,72.52L326.914,71.491L327.637,70.574L328.359,69.519L329.082,68.785L329.805,67.647L330.527,67.087L331.25,66.465L331.973,65.604L332.695,64.835L333.418,63.99L334.141,63.543L334.863,62.638L335.586,61.992L336.309,61.536L337.031,61.021L337.754,60.266L338.477,59.879L339.199,59.5L339.922,58.899L340.645,58.224L341.367,57.813L342.09,57.416L342.813,57.063L343.535,56.578L344.258,56.06L344.98,55.659L345.703,55.492L346.426,55.05L347.148,54.686L347.871,54.428L348.594,53.964L349.316,53.875L350.039,53.481L350.762,53.245L351.484,53.028L352.207,52.619L352.93,52.413L353.652,52.203L354.375,51.948L355.098,51.689L355.82,51.316L356.543,51.187L357.266,50.989L357.988,50.929L358.711,50.726L359.434,50.384L360.156,50.408L360.879,50.271L361.602,50.046L362.324,49.803L363.047,49.786L363.77,49.4L364.492,49.396L365.215,49.406L365.938,49.203L366.66,49.211L367.383,48.911L368.105,48.764L368.828,48.875L369.551,48.843L370.273,48.58L370.996,48.456L371.719,48.439L372.441,48.314L373.164,48.171L373.887,48.142L374.609,48.045L375.332,48.033L376.055,47.921L376.777,47.773L377.5,47.662L378.223,47.741L378.945,47.558L379.668,47.596L380.391,47.506L381.113,47.516L381.836,47.453L382.559,47.338L383.281,47.473L384.004,47.422L384.727,47.178L385.449,47.242L386.172,47.168L386.895,47.261L387.617,46.978L388.34,47.18L389.063,47.174L389.785,47.058L390.508,46.917L391.23,46.869L391.953,46.997L392.676,46.847L393.398,46.881L394.121,46.871L394.844,46.754L395.566,46.755L396.289,46.813L397.012,46.758L397.734,46.81L398.457,46.605L399.18,46.672L399.902,46.757L400.625,46.657L401.348,46.59L402.07,46.57L402.793,46.644L403.516,46.618L404.238,46.496L404.961,46.65L405.684,46.571L406.406,46.602L407.129,46.511L407.852,46.504L408.574,46.52L409.297,46.367L410.02,46.41L410.742,46.519L411.465,46.508L412.188,46.435L412.91,46.399L413.633,46.5L414.355,46.492L415.078,46.456L415.801,46.406L416.523,46.362L417.246,46.453L417.969,46.384L418.691,46.394L419.414,46.344L420.137,46.318L420.859,46.313L421.582,46.308L422.305,46.359L423.027,46.416L423.75,46.366L424.473,46.307L425.195,46.347L425.918,46.312L426.641,46.294L427.363,46.257L428.086,46.323L428.809,46.351L429.531,46.322L430.254,46.273L430.977,46.217L431.699,46.296L432.422,46.235L433.145,46.244L433.867,46.247L434.59,46.212L435.313,46.28L436.035,46.24L436.758,46.291L437.48,46.273L438.203,46.246L438.926,46.242L439.648,46.252L440.371,46.24L441.094,46.236L441.816,46.261L442.539,46.262L443.262,46.202L443.984,46.179L444.707,46.25L445.43,46.236L446.152,46.182L446.875,46.21L447.598,46.229L448.32,46.199L449.043,46.183L449.766,46.191L450.488,46.225L451.211,46.221L451.934,46.19L452.656,46.211L453.379,46.187L454.102,46.185L454.824,46.223L455.547,46.203L456.27,46.225L456.992,46.187L457.715,46.165L458.438,46.183L459.16,46.198L459.883,46.187L460.605,46.198L461.328,46.203L462.051,46.192L462.773,46.172L463.496,46.173L464.219,46.182L464.941,46.196L465.664,46.188L466.387,46.185L467.109,46.192L467.832,46.201L468.555,46.179L469.277,46.186"/><path fill="none" stroke="rgb(236, 209, 46)" stroke-width="1.5" d="M100,106.049L100.723,105.793L101.445,105.886L102.168,105.953L102.891,106.084L103.613,106.135L104.336,106.092L105.059,106.368L105.781,106.631L106.504,106.413L107.227,106.726L107.949,106.808L108.672,106.803L109.395,107.057L110.117,107.243L110.84,107.275L111.563,107.339L112.285,107.571L113.008,107.658L113.73,107.732L114.453,107.837L115.176,107.968L115.898,108L116.621,108.533L117.344,108.583L118.066,108.605L118.789,108.788L119.512,108.736L120.234,109.006L120.957,108.917L121.68,108.931L122.402,109.087L123.125,109.186L123.848,109.667L124.57,109.758L125.293,109.925L126.016,110.188L126.738,110.605L127.461,110.715L128.184,110.605L128.906,110.77L129.629,110.998L130.352,111.339L131.074,111.38L131.797,111.565L132.52,111.771L133.242,112.145L133.965,112.338L134.688,112.138L135.41,112.559L136.133,112.747L136.855,112.83L137.578,113.237L138.301,113.219L139.023,113.494L139.746,113.868L140.469,114.12L141.191,114.41L141.914,114.518L142.637,114.694L143.359,115.133L144.082,115.34L144.805,115.494L145.527,115.962L146.25,116.247L146.973,116.635L147.695,116.813L148.418,117.121L149.141,117.2L149.863,117.532L150.586,117.927L151.309,118.293L152.031,118.631L152.754,118.909L153.477,119.052L154.199,119.529L154.922,119.892L155.645,120.148L156.367,120.58L157.09,120.81L157.813,121.451L158.535,121.706L159.258,121.837L159.98,122.235L160.703,122.816L161.426,123.253L162.148,123.504L162.871,124.083L163.594,124.345L164.316,125.037L165.039,125.074L165.762,125.762L166.484,126.228L167.207,126.793L167.93,127.118L168.652,127.702L169.375,128.124L170.098,128.394L170.82,128.831L171.543,129.33L172.266,129.99L172.988,130.482L173.711,131.072L174.434,131.646L175.156,132.311L175.879,132.973L176.602,133.607L177.324,134.251L178.047,134.713L178.77,135.193L179.492,136.005L180.215,136.468L180.938,136.933L181.66,137.696L182.383,138.445L183.105,139.12L183.828,139.588L184.551,140.624L185.273,141.164L185.996,141.847L186.719,142.607L187.441,143.507L188.164,144.342L188.887,145.164L189.609,145.844L190.332,146.766L191.055,147.544L191.777,148.388L192.5,149.324L193.223,150.013L193.945,151.04L194.668,151.842L195.391,152.69L196.113,153.744L196.836,154.403L197.559,155.497L198.281,156.25L199.004,157.385L199.727,158.413L200.449,159.364L201.172,160.77L201.895,161.792L202.617,162.83L203.34,164.045L204.063,165.172L204.785,166.004L205.508,167.417L206.23,168.527L206.953,169.739L207.676,171.078L208.398,172.195L209.121,173.314L209.844,174.689L210.566,175.933L211.289,177.56L212.012,178.752L212.734,179.966L213.457,181.637L214.18,182.834L214.902,184.037L215.625,185.875L216.348,187.115L217.07,188.607L217.793,190.262L218.516,191.937L219.238,193.486L219.961,195.14L220.684,196.606L221.406,198.39L222.129,199.823L222.852,201.772L223.574,203.325L224.297,205.145L225.02,206.998L225.742,208.941L226.465,211.148L227.188,212.94L227.91,214.848L228.633,216.715L229.355,219.162L230.078,220.904L230.801,223.157L231.523,225.295L232.246,227.309L232.969,229.508L233.691,231.922L234.414,234.494L235.137,236.49L235.859,239.215L236.582,241.448L237.305,244.167L238.027,246.329L238.75,249.096L239.473,251.191L240.195,254.095L240.918,256.799L241.641,259.128L242.363,261.901L243.086,264.293L243.809,266.565L244.531,269.59L245.254,272.326L245.977,275.2L246.699,277.269L247.422,279.646L248.145,282.608L248.867,285.18L249.59,287.14L250.313,289.299L251.035,291.922L251.758,294.194L252.48,296.001L253.203,298.034L253.926,299.455L254.648,301.277L255.371,303.269L256.094,304.508L256.816,306.206L257.539,306.955L258.262,308.378L258.984,309.021L259.707,309.52L260.43,310.073L261.152,309.918L261.875,310.692L262.598,310.533L263.32,310.454L264.043,309.715L264.766,309.208L265.488,308.15L266.211,307.567L266.934,306.433L267.656,304.904L268.379,303.07L269.102,301.086L269.824,299.451L270.547,296.805L271.27,294.653L271.992,292.641L272.715,289.259L273.438,286.851L274.16,283.883L274.883,280.259L275.605,277.209L276.328,273.556L277.051,270.679L277.773,266.197L278.496,262.432L279.219,257.712L279.941,252.723L280.664,246.677L281.387,240.841L282.109,234.685L282.832,228.399L283.555,222.224L284.277,216.292L285,210.115L285.723,203.734L286.445,197.574L287.168,191.95L287.891,185.682L288.613,179.98L289.336,174.31L290.059,168.143L290.781,162.42L291.504,157.355L292.227,151.832L292.949,146.098L293.672,141.313L294.395,135.874L295.117,130.859L295.84,126.11L296.563,121.33L297.285,116.704L298.008,111.817L298.73,107.543L299.453,103.196L300.176,103.92L300.898,106.91L301.621,109.934L302.344,113.35L303.066,116.785L303.789,120.38L304.512,120.928L305.234,118.79L305.957,116.381L306.68,114.211L307.402,112.028L308.125,110.031L308.848,107.509L309.57,105.448L310.293,103.562L311.016,101.487L311.738,99.653L312.461,98.051L313.184,96.383L313.906,94.737L314.629,93.248L315.352,91.446L316.074,90.102L316.797,88.237L317.52,86.902L318.242,85.535L318.965,83.998L319.688,82.824L320.41,81.49L321.133,80.504L321.855,79.169L322.578,77.981L323.301,76.994L324.023,75.807L324.746,74.751L325.469,73.722L326.191,72.811L326.914,71.727L327.637,71.03L328.359,70.08L329.082,68.992L329.805,68.385L330.527,67.571L331.25,66.729L331.973,66.166L332.695,65.391L333.418,64.774L334.141,63.963L334.863,63.507L335.586,63.014L336.309,62.159L337.031,61.626L337.754,61.092L338.477,60.527L339.199,59.911L339.922,59.474L340.645,59.061L341.367,58.568L342.09,58.236L342.813,57.636L343.535,57.224L344.258,56.811L344.98,56.377L345.703,56.13L346.426,55.828L347.148,55.502L347.871,55.181L348.594,54.749L349.316,54.522L350.039,54.202L350.762,53.82L351.484,53.709L352.207,53.352L352.93,53.178L353.652,52.811L354.375,52.611L355.098,52.42L355.82,52.111L356.543,52.036L357.266,51.737L357.988,51.521L358.711,51.384L359.434,51.176L360.156,50.992L360.879,50.806L361.602,50.607L362.324,50.494L363.047,50.37L363.77,50.074L364.492,50.031L365.215,49.973L365.938,49.799L366.66,49.582L367.383,49.538L368.105,49.435L368.828,49.302L369.551,49.207L370.273,49.074L370.996,49.014L371.719,48.828L372.441,48.771L373.164,48.659L373.887,48.583L374.609,48.507L375.332,48.428L376.055,48.315L376.777,48.287L377.5,48.188L378.223,48.135L378.945,48.065L379.668,47.983L380.391,47.906L381.113,47.829L381.836,47.781L382.559,47.759L383.281,47.652L384.004,47.666L384.727,47.595L385.449,47.495L386.172,47.483L386.895,47.491L387.617,47.383L388.34,47.345L389.063,47.311L389.785,47.265L390.508,47.25L391.23,47.187L391.953,47.15L392.676,47.142L393.398,47.12L394.121,47.053L394.844,46.997L395.566,46.993L396.289,46.999L397.012,46.976L397.734,46.94L398.457,46.884L399.18,46.895L399.902,46.877L400.625,46.867L401.348,46.799L402.07,46.792L402.793,46.748L403.516,46.751L404.238,46.711L404.961,46.692L405.684,46.699L406.406,46.678L407.129,46.659L407.852,46.642L408.574,46.638L409.297,46.604L410.02,46.595L410.742,46.587L411.465,46.589L412.188,46.547L412.91,46.538L413.633,46.54L414.355,46.509L415.078,46.507L415.801,46.47L416.523,46.502L417.246,46.468L417.969,46.461L418.691,46.447L419.414,46.454L420.137,46.422L420.859,46.428L421.582,46.435L422.305,46.385L423.027,46.387L423.75,46.387L424.473,46.392L425.195,46.376L425.918,46.372L426.641,46.364L427.363,46.359L428.086,46.347L428.809,46.345L429.531,46.334L430.254,46.319L430.977,46.318L431.699,46.309L432.422,46.302L433.145,46.304L433.867,46.3L434.59,46.294L435.313,46.293L436.035,46.278L436.758,46.276L437.48,46.285L438.203,46.281L438.926,46.267L439.648,46.263L440.371,46.261L441.094,46.264L441.816,46.256L442.539,46.258L443.262,46.253L443.984,46.259L444.707,46.242L445.43,46.25L446.152,46.243L446.875,46.245L447.598,46.232L448.32,46.231L449.043,46.22L449.766,46.228L450.488,46.227L451.211,46.225L451.934,46.225L452.656,46.222L453.379,46.229L454.102,46.213L454.824,46.217L455.547,46.212L456.27,46.211L456.992,46.212L457.715,46.205L458.438,46.198L459.16,46.202L459.883,46.197L460.605,46.205L461.328,46.197L462.051,46.201L462.773,46.198L463.496,46.198L464.219,46.195L464.941,46.188L465.664,46.195L466.387,46.193L467.109,46.193L467.832,46.19L468.555,46.194L469.277,46.188"/><path fill="none" stroke="rgb(255, 130, 29)" stroke-width="1.5" d="M100,105.157L100.723,105.118L101.445,105.12L102.168,105.417L102.891,105.556L103.613,105.617L104.336,105.604L105.059,105.695L105.781,105.887L106.504,106.031L107.227,105.985L107.949,106.112L108.672,106.108L109.395,106.247L110.117,106.496L110.84,106.428L111.563,106.65L112.285,106.804L113.008,106.706L113.73,106.909L114.453,106.94L115.176,107.009L115.898,107.139L116.621,107.354L117.344,107.392L118.066,107.444L118.789,107.459L119.512,107.704L120.234,107.993L120.957,108.095L121.68,108.236L122.402,108.246L123.125,108.32L123.848,108.611L124.57,108.766L125.293,108.808L126.016,108.945L126.738,109.276L127.461,109.428L128.184,109.582L128.906,109.568L129.629,109.68L130.352,109.769L131.074,110.017L131.797,110.171L132.52,110.491L133.242,110.527L133.965,110.768L134.688,110.9L135.41,111.353L136.133,111.326L136.855,111.474L137.578,111.808L138.301,111.9L139.023,111.954L139.746,112.39L140.469,112.42L141.191,112.712L141.914,112.857L142.637,113.115L143.359,113.47L144.082,113.591L144.805,113.484L145.527,114.058L146.25,114.13L146.973,114.418L147.695,114.704L148.418,115.116L149.141,115.455L149.863,115.394L150.586,115.609L151.309,116.086L152.031,116.29L152.754,116.673L153.477,116.963L154.199,117.196L154.922,117.633L155.645,117.471L156.367,118.044L157.09,118.447L157.813,118.891L158.535,119.065L159.258,119.267L159.98,119.623L160.703,119.908L161.426,120.308L162.148,120.615L162.871,121.224L163.594,121.594L164.316,121.864L165.039,121.976L165.762,122.544L166.484,122.91L167.207,123.424L167.93,123.74L168.652,124.113L169.375,124.849L170.098,125.097L170.82,125.412L171.543,125.892L172.266,126.425L172.988,126.669L173.711,127.278L174.434,127.701L175.156,128.421L175.879,128.887L176.602,129.203L177.324,129.712L178.047,130.236L178.77,130.758L179.492,131.362L180.215,131.905L180.938,132.593L181.66,132.961L182.383,133.664L183.105,134.326L183.828,134.681L184.551,135.434L185.273,136.242L185.996,136.573L186.719,137.297L187.441,137.863L188.164,138.615L188.887,139.468L189.609,140.001L190.332,140.742L191.055,141.477L191.777,142.263L192.5,143.009L193.223,143.848L193.945,144.573L194.668,145.294L195.391,146.152L196.113,146.978L196.836,147.875L197.559,148.589L198.281,149.634L199.004,150.566L199.727,151.488L200.449,152.288L201.172,153.291L201.895,154.155L202.617,155.261L203.34,156.29L204.063,157.113L204.785,158.17L205.508,159.468L206.23,160.71L206.953,161.541L207.676,162.596L208.398,163.889L209.121,165.19L209.844,166.329L210.566,167.28L211.289,168.659L212.012,169.785L212.734,171.171L213.457,172.611L214.18,173.935L214.902,175.177L215.625,176.601L216.348,178.219L217.07,179.496L217.793,180.864L218.516,182.513L219.238,184.114L219.961,185.824L220.684,187.241L221.406,189.145L222.129,190.772L222.852,192.257L223.574,193.979L224.297,196.112L225.02,197.724L225.742,199.541L226.465,201.848L227.188,203.532L227.91,205.369L228.633,207.472L229.355,209.265L230.078,211.59L230.801,213.848L231.523,216.081L232.246,218.406L232.969,220.664L233.691,222.851L234.414,224.97L235.137,227.606L235.859,230.226L236.582,232.723L237.305,235.357L238.027,237.651L238.75,240.351L239.473,242.932L240.195,245.618L240.918,248.331L241.641,251.083L242.363,253.668L243.086,256.408L243.809,259.141L244.531,261.766L245.254,264.368L245.977,267.203L246.699,269.882L247.422,272.345L248.145,275.219L248.867,277.848L249.59,280.167L250.313,282.052L251.035,284.791L251.758,286.654L252.48,289.011L253.203,291.267L253.926,292.954L254.648,294.919L255.371,296.696L256.094,297.787L256.816,299.696L257.539,301.172L258.262,302.222L258.984,303.102L259.707,304.001L260.43,304.443L261.152,305.352L261.875,305.189L262.598,305.495L263.32,305.01L264.043,304.835L264.766,304.604L265.488,303.781L266.211,302.747L266.934,301.664L267.656,301.081L268.379,298.713L269.102,297.343L269.824,295.541L270.547,293.324L271.27,291.391L271.992,288.63L272.715,286.234L273.438,283.13L274.16,280.872L274.883,277.392L275.605,274.116L276.328,270.636L277.051,267.352L277.773,263.641L278.496,259.782L279.219,255.371L279.941,250.813L280.664,244.517L281.387,238.246L282.109,232.24L282.832,226.092L283.555,220.318L284.277,214.292L285,208.04L285.723,201.793L286.445,195.896L287.168,189.937L287.891,183.946L288.613,177.989L289.336,172.572L290.059,166.846L290.781,161.544L291.504,155.674L292.227,150.481L292.949,145.149L293.672,140.301L294.395,134.744L295.117,129.567L295.84,124.897L296.563,120.168L297.285,115.479L298.008,111.163L298.73,106.906L299.453,102.268L300.176,102.434L300.898,106.276L301.621,109.093L302.344,112.442L303.066,116.193L303.789,119.622L304.512,120.719L305.234,118.176L305.957,115.817L306.68,113.63L307.402,111.664L308.125,109.607L308.848,107.434L309.57,105.587L310.293,103.874L311.016,101.726L311.738,100.012L312.461,97.871L313.184,96.355L313.906,94.76L314.629,93.153L315.352,91.426L316.074,89.881L316.797,88.475L317.52,87.083L318.242,85.807L318.965,84.431L319.688,83.03L320.41,81.524L321.133,80.515L321.855,79.264L322.578,78.172L323.301,76.985L324.023,75.998L324.746,74.998L325.469,74.064L326.191,72.978L326.914,72.072L327.637,71.191L328.359,70.483L329.082,69.392L329.805,68.705L330.527,68.001L331.25,67.175L331.973,66.401L332.695,65.645L333.418,64.982L334.141,64.384L334.863,63.808L335.586,63.105L336.309,62.561L337.031,61.96L337.754,61.426L338.477,60.93L339.199,60.363L339.922,59.877L340.645,59.42L341.367,58.964L342.09,58.482L342.813,57.971L343.535,57.679L344.258,57.236L344.98,56.789L345.703,56.558L346.426,56.096L347.148,55.786L347.871,55.389L348.594,55.029L349.316,54.746L350.039,54.44L350.762,54.173L351.484,53.828L352.207,53.688L352.93,53.36L353.652,53.103L354.375,52.859L355.098,52.592L355.82,52.305L356.543,52.205L357.266,51.926L357.988,51.744L358.711,51.536L359.434,51.433L360.156,51.163L360.879,51.046L361.602,50.845L362.324,50.641L363.047,50.552L363.77,50.388L364.492,50.257L365.215,50.058L365.938,49.96L366.66,49.79L367.383,49.702L368.105,49.521L368.828,49.357L369.551,49.248L370.273,49.151L370.996,49.114L371.719,49.048L372.441,48.863L373.164,48.827L373.887,48.701L374.609,48.594L375.332,48.537L376.055,48.443L376.777,48.388L377.5,48.315L378.223,48.229L378.945,48.153L379.668,48.071L380.391,47.994L381.113,47.95L381.836,47.888L382.559,47.801L383.281,47.765L384.004,47.716L384.727,47.663L385.449,47.599L386.172,47.576L386.895,47.508L387.617,47.462L388.34,47.399L389.063,47.357L389.785,47.357L390.508,47.298L391.23,47.27L391.953,47.214L392.676,47.198L393.398,47.139L394.121,47.117L394.844,47.085L395.566,47.05L396.289,47.019L397.012,46.985L397.734,46.95L398.457,46.951L399.18,46.928L399.902,46.879L400.625,46.871L401.348,46.836L402.07,46.794L402.793,46.805L403.516,46.769L404.238,46.771L404.961,46.751L405.684,46.724L406.406,46.686L407.129,46.672L407.852,46.681L408.574,46.634L409.297,46.616L410.02,46.616L410.742,46.613L411.465,46.579L412.188,46.567L412.91,46.543L413.633,46.561L414.355,46.512L415.078,46.526L415.801,46.521L416.523,46.508L417.246,46.503L417.969,46.481L418.691,46.472L419.414,46.452L420.137,46.449L420.859,46.459L421.582,46.446L422.305,46.403L423.027,46.405L423.75,46.391L424.473,46.397L425.195,46.379L425.918,46.374L426.641,46.378L427.363,46.357L428.086,46.363L428.809,46.355L429.531,46.34L430.254,46.341L430.977,46.334L431.699,46.312L432.422,46.311L433.145,46.314L433.867,46.288L434.59,46.301L435.313,46.286L436.035,46.299L436.758,46.29L437.48,46.283L438.203,46.291L438.926,46.271L439.648,46.277L440.371,46.261L441.094,46.274L441.816,46.267L442.539,46.256L443.262,46.257L443.984,46.257L444.707,46.239L445.43,46.242L446.152,46.232L446.875,46.243L447.598,46.236L448.32,46.235L449.043,46.233L449.766,46.23L450.488,46.235L451.211,46.231L451.934,46.211L452.656,46.225L453.379,46.213L454.102,46.221L454.824,46.216L455.547,46.218L456.27,46.222L456.992,46.213L457.715,46.207L458.438,46.206L459.16,46.205L459.883,46.202L460.605,46.204L461.328,46.205L462.051,46.204L462.773,46.198L463.496,46.198L464.219,46.191L464.941,46.192L465.664,46.194L466.387,46.194L467.109,46.189L467.832,46.193L468.555,46.191L469.277,46.186"/><path fill="none" stroke="rgb(203, 47, 13)" stroke-width="1.5" d="M100,104.443L100.723,104.632L101.445,104.699L102.168,104.827L102.891,104.763L103.613,105.115L104.336,105.165L105.059,105.154L105.781,105.39L106.504,105.308L107.227,105.541L107.949,105.338L108.672,105.512L109.395,105.553L110.117,105.604L110.84,105.636L111.563,105.806L112.285,105.87L113.008,106.053L113.73,105.816L114.453,106.298L115.176,106.477L115.898,106.394L116.621,106.428L117.344,106.695L118.066,106.767L118.789,106.68L119.512,106.784L120.234,106.9L120.957,107.058L121.68,107.194L122.402,107.364L123.125,107.249L123.848,107.638L124.57,107.552L125.293,107.768L126.016,107.926L126.738,108.009L127.461,108.081L128.184,108.196L128.906,108.511L129.629,108.884L130.352,108.748L131.074,108.945L131.797,108.885L132.52,109.061L133.242,109.363L133.965,109.294L134.688,109.793L135.41,109.651L136.133,110.241L136.855,110.167L137.578,110.21L138.301,110.556L139.023,110.511L139.746,110.847L140.469,110.949L141.191,111.209L141.914,111.631L142.637,111.72L143.359,111.867L144.082,111.93L144.805,112.279L145.527,112.351L146.25,112.63L146.973,112.839L147.695,112.778L148.418,113.272L149.141,113.452L149.863,113.754L150.586,113.897L151.309,113.932L152.031,114.408L152.754,114.714L153.477,114.979L154.199,115.178L154.922,115.562L155.645,115.76L156.367,116.144L157.09,116.293L157.813,116.678L158.535,116.987L159.258,117.102L159.98,117.644L160.703,117.995L161.426,118.14L162.148,118.452L162.871,118.765L163.594,119.226L164.316,119.561L165.039,119.511L165.762,120.279L166.484,120.484L167.207,120.798L167.93,121.319L168.652,121.774L169.375,122.096L170.098,122.626L170.82,122.686L171.543,123.236L172.266,123.505L172.988,124.213L173.711,124.516L174.434,125.051L175.156,125.517L175.879,126.141L176.602,126.314L177.324,126.919L178.047,127.322L178.77,127.95L179.492,128.398L180.215,128.801L180.938,129.325L181.66,130.077L182.383,130.643L183.105,131.26L183.828,131.961L184.551,132.2L185.273,132.97L185.996,133.26L186.719,134.144L187.441,134.644L188.164,135.365L188.887,136.449L189.609,136.868L190.332,137.47L191.055,138.075L191.777,139.038L192.5,139.706L193.223,140.444L193.945,140.958L194.668,141.881L195.391,142.629L196.113,143.71L196.836,144.302L197.559,145.276L198.281,145.944L199.004,146.985L199.727,148.035L200.449,148.849L201.172,149.894L201.895,150.724L202.617,151.474L203.34,152.693L204.063,153.644L204.785,154.62L205.508,155.786L206.23,156.66L206.953,158.029L207.676,158.978L208.398,160.243L209.121,161.561L209.844,162.772L210.566,163.891L211.289,165.103L212.012,166.162L212.734,167.728L213.457,168.794L214.18,170.43L214.902,171.44L215.625,173.15L216.348,174.669L217.07,176.079L217.793,177.589L218.516,179.02L219.238,180.624L219.961,182.22L220.684,183.999L221.406,185.387L222.129,187.174L222.852,188.942L223.574,190.808L224.297,192.635L225.02,194.459L225.742,196.431L226.465,198.305L227.188,200.343L227.91,202.135L228.633,204.401L229.355,206.512L230.078,208.789L230.801,210.523L231.523,213.018L232.246,215.061L232.969,217.369L233.691,220.15L234.414,222.356L235.137,224.71L235.859,226.992L236.582,229.595L237.305,232.278L238.027,234.806L238.75,237.373L239.473,240.331L240.195,242.825L240.918,245.579L241.641,248.166L242.363,251.16L243.086,253.888L243.809,256.427L244.531,259.453L245.254,262.084L245.977,264.653L246.699,267.629L247.422,269.426L248.145,272.844L248.867,275.232L249.59,277.594L250.313,280.349L251.035,282.692L251.758,285.099L252.48,286.97L253.203,289.188L253.926,291.303L254.648,293.154L255.371,294.678L256.094,296.51L256.816,297.927L257.539,299.659L258.262,299.997L258.984,301.078L259.707,302.116L260.43,302.894L261.152,303.102L261.875,303.484L262.598,303.383L263.32,303.782L264.043,303.279L264.766,302.969L265.488,301.863L266.211,301.227L266.934,300.758L267.656,299.313L268.379,297.758L269.102,295.921L269.824,293.874L270.547,292.072L271.27,290.043L271.992,287.293L272.715,285.049L273.438,282.547L274.16,279.116L274.883,276.327L275.605,273.239L276.328,269.498L277.051,266.345L277.773,262.187L278.496,258.604L279.219,254.772L279.941,249.733L280.664,243.721L281.387,237.546L282.109,231.998L282.832,225.666L283.555,219.908L284.277,213.125L285,207.275L285.723,200.891L286.445,195.734L287.168,189.75L287.891,183.567L288.613,177.445L289.336,171.947L290.059,166.271L290.781,161.162L291.504,155.415L292.227,150.091L292.949,144.701L293.672,139.403L294.395,134.503L295.117,129.554L295.84,124.441L296.563,120.123L297.285,115.35L298.008,110.915L298.73,106.596L299.453,102.345L300.176,102.406L300.898,105.702L301.621,109.136L302.344,112.482L303.066,115.862L303.789,119.693L304.512,120.261L305.234,118.268L305.957,115.83L306.68,113.758L307.402,111.631L308.125,109.395L308.848,107.222L309.57,105.414L310.293,103.475L311.016,101.791L311.738,99.949L312.461,97.988L313.184,96.506L313.906,94.443L314.629,93.129L315.352,91.397L316.074,89.873L316.797,88.606L317.52,87.224L318.242,85.727L318.965,84.307L319.688,82.874L320.41,81.935L321.133,80.711L321.855,79.563L322.578,78.365L323.301,77.345L324.023,76.194L324.746,75.253L325.469,74.188L326.191,73.391L326.914,72.248L327.637,71.228L328.359,70.376L329.082,69.785L329.805,68.958L330.527,68.048L331.25,67.258L331.973,66.62L332.695,65.997L333.418,65.147L334.141,64.454L334.863,63.822L335.586,63.307L336.309,62.543L337.031,62.092L337.754,61.55L338.477,60.915L339.199,60.486L339.922,60.01L340.645,59.533L341.367,59.103L342.09,58.517L342.813,58.227L343.535,57.715L344.258,57.353L344.98,56.896L345.703,56.538L346.426,56.195L347.148,55.839L347.871,55.475L348.594,55.206L349.316,54.859L350.039,54.522L350.762,54.285L351.484,54.009L352.207,53.647L352.93,53.418L353.652,53.146L354.375,52.905L355.098,52.631L355.82,52.449L356.543,52.27L357.266,52.032L357.988,51.794L358.711,51.61L359.434,51.466L360.156,51.135L360.879,51.081L361.602,50.868L362.324,50.77L363.047,50.625L363.77,50.364L364.492,50.317L365.215,50.055L365.938,49.977L366.66,49.835L367.383,49.671L368.105,49.58L368.828,49.476L369.551,49.375L370.273,49.217L370.996,49.197L371.719,49.029L372.441,48.967L373.164,48.897L373.887,48.728L374.609,48.683L375.332,48.546L376.055,48.477L376.777,48.354L377.5,48.256L378.223,48.218L378.945,48.153L379.668,48.132L380.391,48.046L381.113,48.014L381.836,47.879L382.559,47.855L383.281,47.75L384.004,47.726L384.727,47.663L385.449,47.581L386.172,47.548L386.895,47.502L387.617,47.488L388.34,47.469L389.063,47.394L389.785,47.382L390.508,47.31L391.23,47.294L391.953,47.257L392.676,47.192L393.398,47.168L394.121,47.125L394.844,47.105L395.566,47.035L396.289,47.013L397.012,47.016L397.734,46.966L398.457,46.958L399.18,46.911L399.902,46.909L400.625,46.877L401.348,46.857L402.07,46.827L402.793,46.785L403.516,46.787L404.238,46.734L404.961,46.756L405.684,46.737L406.406,46.684L407.129,46.707L407.852,46.666L408.574,46.664L409.297,46.66L410.02,46.64L410.742,46.611L411.465,46.585L412.188,46.557L412.91,46.556L413.633,46.538L414.355,46.534L415.078,46.543L415.801,46.522L416.523,46.498L417.246,46.491L417.969,46.476L418.691,46.46L419.414,46.458L420.137,46.445L420.859,46.442L421.582,46.424L422.305,46.421L423.027,46.409L423.75,46.399L424.473,46.403L425.195,46.392L425.918,46.371L426.641,46.378L427.363,46.359L428.086,46.352L428.809,46.344L429.531,46.338L430.254,46.329L430.977,46.332L431.699,46.324L432.422,46.326L433.145,46.316L433.867,46.301L434.59,46.304L435.313,46.294L436.035,46.291L436.758,46.29L437.48,46.292L438.203,46.286L438.926,46.277L439.648,46.279L440.371,46.268L441.094,46.279L441.816,46.26L442.539,46.257L443.262,46.254L443.984,46.262L444.707,46.25L445.43,46.245L446.152,46.239L446.875,46.234L447.598,46.236L448.32,46.24L449.043,46.23L449.766,46.231L450.488,46.222L451.211,46.233L451.934,46.219L452.656,46.218L453.379,46.219L454.102,46.221L454.824,46.222L455.547,46.215L456.27,46.204L456.992,46.21L457.715,46.214L458.438,46.21L459.16,46.202L459.883,46.207L460.605,46.206L461.328,46.202L462.051,46.203L462.773,46.198L463.496,46.198L464.219,46.199L464.941,46.197L465.664,46.193L466.387,46.196L467.109,46.188L467.832,46.187L468.555,46.191L469.277,46.192"/><g transform="translate(15,190) scale(1.7) rotate(-90)"><text>Drift</text></g><g transform="translate(315,395) scale(1.8)"><text></text></g><g transform="translate(0,350)" fill="none" font-size="10" font-family="sans-serif" text-anchor="middle"><path class="domain" stroke="currentColor" d="M100,6V0H470V6"/><g class="tick" opacity="1" transform="translate(136.96669666966696,0)"><line stroke="currentColor" y2="6"/><text fill="currentColor" y="9" dy="0.71em" font-size="20px"> </text></g><g class="tick" opacity="1" transform="translate(173.97039703970398,0)"><line stroke="currentColor" y2="6"/><text fill="currentColor" y="9" dy="0.71em" font-size="20px">20</text></g><g class="tick" opacity="1" transform="translate(210.97409740974098,0)"><line stroke="currentColor" y2="6"/><text fill="currentColor" y="9" dy="0.71em" font-size="20px"> </text></g><g class="tick" opacity="1" transform="translate(247.97779777977803,0)"><line stroke="currentColor" y2="6"/><text fill="currentColor" y="9" dy="0.71em" font-size="20px">40</text></g><g class="tick" opacity="1" transform="translate(284.981498149815,0)"><line stroke="currentColor" y2="6"/><text fill="currentColor" y="9" dy="0.71em" font-size="20px"> </text></g><g class="tick" opacity="1" transform="translate(321.985198519852,0)"><line stroke="currentColor" y2="6"/><text fill="currentColor" y="9" dy="0.71em" font-size="20px">60</text></g><g class="tick" opacity="1" transform="translate(358.988898889889,0)"><line stroke="currentColor" y2="6"/><text fill="currentColor" y="9" dy="0.71em" font-size="20px"> </text></g><g class="tick" opacity="1" transform="translate(395.992599259926,0)"><line stroke="currentColor" y2="6"/><text fill="currentColor" y="9" dy="0.71em" font-size="20px">80</text></g><g class="tick" opacity="1" transform="translate(432.996299629963,0)"><line stroke="currentColor" y2="6"/><text fill="currentColor" y="9" dy="0.71em" font-size="20px"> </text></g><g class="tick" opacity="1" transform="translate(470,0)"><line stroke="currentColor" y2="6"/><text fill="currentColor" y="9" dy="0.71em" font-size="20px">100</text></g></g><g transform="translate(100,0)" fill="none" font-size="10" font-family="sans-serif" text-anchor="end"><path class="domain" stroke="currentColor" d="M-6,350H0V20H-6"/><g class="tick" opacity="1" transform="translate(0,341.97425306853876)"><line stroke="currentColor" x2="-6"/><text fill="currentColor" x="-9" dy="0.32em" font-size="20px">0.24</text></g><g class="tick" opacity="1" transform="translate(0,315.48417647288034)"><line stroke="currentColor" x2="-6"/><text fill="currentColor" x="-9" dy="0.32em" font-size="20px">0.22</text></g><g class="tick" opacity="1" transform="translate(0,288.99409987722186)"><line stroke="currentColor" x2="-6"/><text fill="currentColor" x="-9" dy="0.32em" font-size="20px">0.20</text></g><g class="tick" opacity="1" transform="translate(0,262.5040232815634)"><line stroke="currentColor" x2="-6"/><text fill="currentColor" x="-9" dy="0.32em" font-size="20px">0.18</text></g><g class="tick" opacity="1" transform="translate(0,236.01394668590493)"><line stroke="currentColor" x2="-6"/><text fill="currentColor" x="-9" dy="0.32em" font-size="20px">0.16</text></g><g class="tick" opacity="1" transform="translate(0,209.5238700902465)"><line stroke="currentColor" x2="-6"/><text fill="currentColor" x="-9" dy="0.32em" font-size="20px">0.14</text></g><g class="tick" opacity="1" transform="translate(0,183.03379349458802)"><line stroke="currentColor" x2="-6"/><text fill="currentColor" x="-9" dy="0.32em" font-size="20px">0.12</text></g><g class="tick" opacity="1" transform="translate(0,156.54371689892957)"><line stroke="currentColor" x2="-6"/><text fill="currentColor" x="-9" dy="0.32em" font-size="20px">0.10</text></g><g class="tick" opacity="1" transform="translate(0,130.0536403032711)"><line stroke="currentColor" x2="-6"/><text fill="currentColor" x="-9" dy="0.32em" font-size="20px">0.08</text></g><g class="tick" opacity="1" transform="translate(0,103.56356370761266)"><line stroke="currentColor" x2="-6"/><text fill="currentColor" x="-9" dy="0.32em" font-size="20px">0.06</text></g><g class="tick" opacity="1" transform="translate(0,77.07348711195421)"><line stroke="currentColor" x2="-6"/><text fill="currentColor" x="-9" dy="0.32em" font-size="20px">0.04</text></g><g class="tick" opacity="1" transform="translate(0,50.58341051629573)"><line stroke="currentColor" x2="-6"/><text fill="currentColor" x="-9" dy="0.32em" font-size="20px">0.02</text></g><g class="tick" opacity="1" transform="translate(0,24.093333920637285)"><line stroke="currentColor" x2="-6"/><text fill="currentColor" x="-9" dy="0.32em" font-size="20px">0.00</text></g></g><circle cx="355" cy="150" r="8" style="fill: rgb(35, 23, 27);"/><circle cx="355" cy="175" r="8" style="fill: rgb(69, 105, 238);"/><circle cx="355" cy="200" r="8" style="fill: rgb(38, 188, 225);"/><circle cx="355" cy="225" r="8" style="fill: rgb(63, 243, 147);"/><circle cx="355" cy="250" r="8" style="fill: rgb(149, 251, 81);"/><circle cx="355" cy="275" r="8" style="fill: rgb(236, 209, 46);"/><circle cx="355" cy="300" r="8" style="fill: rgb(255, 130, 29);"/><circle cx="355" cy="325" r="8" style="fill: rgb(203, 47, 13);"/><text x="370" y="150" text-anchor="left" font-size="22" alignment-baseline="middle" style="fill: rgb(35, 23, 27);"> = 0</text><text x="370" y="175" text-anchor="left" font-size="22" alignment-baseline="middle" style="fill: rgb(69, 105, 238);"> = 0.22</text><text x="370" y="200" text-anchor="left" font-size="22" alignment-baseline="middle" style="fill: rgb(38, 188, 225);"> = 0.45</text><text x="370" y="225" text-anchor="left" font-size="22" alignment-baseline="middle" style="fill: rgb(63, 243, 147);"> = 0.67</text><text x="370" y="250" text-anchor="left" font-size="22" alignment-baseline="middle" style="fill: rgb(149, 251, 81);"> = 0.9</text><text x="370" y="275" text-anchor="left" font-size="22" alignment-baseline="middle" style="fill: rgb(236, 209, 46);"> = 1.12</text><text x="370" y="300" text-anchor="left" font-size="22" alignment-baseline="middle" style="fill: rgb(255, 130, 29);"> = 1.35</text><text x="370" y="325" text-anchor="left" font-size="22" alignment-baseline="middle" style="fill: rgb(203, 47, 13);"> = 1.57</text></svg>