<svg xmlns="http://www.w3.org/2000/svg" class="bg-white" width="500" height="400" viewBox="-10 -1 500 400"><path fill="none" stroke="rgb(35, 23, 27)" stroke-width="1.5" d="M100,99.904L100.723,100.124L101.445,100.174L102.168,100.494L102.891,100.699L103.613,101.085L104.336,101.41L105.059,101.408L105.781,101.778L106.504,102.023L107.227,102.241L107.949,102.669L108.672,102.917L109.395,103.167L110.117,103.525L110.84,103.827L111.563,104.071L112.285,104.353L113.008,104.698L113.73,105.03L114.453,105.324L115.176,105.801L115.898,106.102L116.621,106.418L117.344,106.814L118.066,107.194L118.789,107.628L119.512,107.841L120.234,108.306L120.957,108.714L121.68,109.184L122.402,109.595L123.125,110.073L123.848,110.484L124.57,110.992L125.293,111.244L126.016,111.798L126.738,112.18L127.461,112.726L128.184,113.273L128.906,113.757L129.629,114.211L130.352,114.784L131.074,115.31L131.797,115.893L132.52,116.409L133.242,116.946L133.965,117.627L134.688,118.2L135.41,118.776L136.133,119.37L136.855,120.042L137.578,120.74L138.301,121.381L139.023,122.23L139.746,122.849L140.469,123.486L141.191,124.202L141.914,124.985L142.637,125.706L143.359,126.57L144.082,127.436L144.805,128.141L145.527,129.003L146.25,129.836L146.973,130.912L147.695,131.759L148.418,132.488L149.141,133.594L149.863,134.38L150.586,135.416L151.309,136.492L152.031,137.563L152.754,138.697L153.477,139.85L154.199,140.908L154.922,142.189L155.645,143.207L156.367,144.536L157.09,145.827L157.813,147.119L158.535,148.434L159.258,149.768L159.98,151.263L160.703,152.703L161.426,153.968L162.148,155.732L162.871,157.282L163.594,159.049L164.316,160.535L165.039,162.434L165.762,164.072L166.484,166.011L167.207,168.118L167.93,170.042L168.652,171.998L169.375,174.371L170.098,176.304L170.82,178.867L171.543,181.333L172.266,183.851L172.988,186.395L173.711,188.747L174.434,191.585L175.156,194.269L175.879,197.209L176.602,200.241L177.324,203.274L178.047,206.802L178.77,210.115L179.492,213.356L180.215,216.691L180.938,220.147L181.66,223.828L182.383,227.712L183.105,231.173L183.828,234.968L184.551,238.82L185.273,243.166L185.996,246.633L186.719,250.996L187.441,254.68L188.164,258.698L188.887,262.724L189.609,266.631L190.332,270.976L191.055,275.026L191.777,278.517L192.5,282.813L193.223,286.426L193.945,290.141L194.668,294.337L195.391,297.923L196.113,301.396L196.836,305.064L197.559,308.509L198.281,311.715L199.004,315.079L199.727,318.221L200.449,320.844L201.172,324.179L201.895,326.898L202.617,329.509L203.34,331.479L204.063,334.231L204.785,336.54L205.508,338.524L206.23,340.186L206.953,341.515L207.676,343.47L208.398,344.922L209.121,346.084L209.844,347.163L210.566,347.726L211.289,348.722L212.012,349.164L212.734,349.42L213.457,349.6L214.18,350L214.902,349.645L215.625,349.073L216.348,348.817L217.07,348.082L217.793,347.546L218.516,346.437L219.238,345.701L219.961,344.237L220.684,342.895L221.406,341.455L222.129,339.828L222.852,338.678L223.574,336.262L224.297,334.565L225.02,332.295L225.742,330.162L226.465,327.891L227.188,325.677L227.91,323.483L228.633,320.467L229.355,317.697L230.078,315.013L230.801,312.154L231.523,309.575L232.246,306.085L232.969,303.254L233.691,300.149L234.414,296.897L235.137,293.657L235.859,290.793L236.582,287.311L237.305,283.727L238.027,280.265L238.75,277.049L239.473,273.844L240.195,270.06L240.918,266.289L241.641,262.815L242.363,259.245L243.086,255.66L243.809,252.189L244.531,248.554L245.254,244.889L245.977,241.575L246.699,237.584L247.422,234.048L248.145,230.834L248.867,226.824L249.59,223.266L250.313,219.723L251.035,216.499L251.758,212.608L252.48,209.322L253.203,205.692L253.926,202.403L254.648,198.766L255.371,195.322L256.094,192.225L256.816,189.04L257.539,185.322L258.262,182.343L258.984,179.213L259.707,175.975L260.43,172.693L261.152,169.59L261.875,166.409L262.598,162.729L263.32,160.019L264.043,156.884L264.766,153.659L265.488,150.449L266.211,147.754L266.934,144.546L267.656,141.468L268.379,138.677L269.102,135.675L269.824,132.413L270.547,129.553L271.27,126.977L271.992,123.952L272.715,121.284L273.438,118.14L274.16,115.544L274.883,112.818L275.605,109.809L276.328,107.426L277.051,104.552L277.773,102.253L278.496,99.659L279.219,97.064L279.941,96.808L280.664,97.493L281.387,98.184L282.109,98.848L282.832,99.332L283.555,100.417L284.277,99.656L285,97.806L285.723,96.219L286.445,94.632L287.168,92.918L287.891,91.335L288.613,89.735L289.336,88.082L290.059,86.552L290.781,84.937L291.504,83.595L292.227,81.917L292.949,80.649L293.672,79.188L294.395,77.871L295.117,76.53L295.84,75.058L296.563,73.606L297.285,72.423L298.008,71.211L298.73,69.899L299.453,68.658L300.176,67.521L300.898,66.326L301.621,65.065L302.344,63.984L303.066,62.812L303.789,61.699L304.512,60.605L305.234,59.524L305.957,58.449L306.68,57.366L307.402,56.418L308.125,55.418L308.848,54.57L309.57,53.495L310.293,52.742L311.016,51.694L311.738,50.667L312.461,49.829L313.184,49.053L313.906,48.202L314.629,47.518L315.352,46.564L316.074,45.942L316.797,45.075L317.52,44.245L318.242,43.655L318.965,42.732L319.688,42.193L320.41,41.239L321.133,40.852L321.855,40.175L322.578,39.46L323.301,38.91L324.023,38.27L324.746,37.728L325.469,37.276L326.191,36.628L326.914,36.097L327.637,35.582L328.359,34.976L329.082,34.644L329.805,34.156L330.527,33.682L331.25,33.142L331.973,32.574L332.695,32.343L333.418,31.953L334.141,31.68L334.863,30.954L335.586,30.755L336.309,30.465L337.031,30.119L337.754,29.695L338.477,29.492L339.199,28.994L339.922,28.912L340.645,28.47L341.367,28.326L342.09,27.924L342.813,27.652L343.535,27.556L344.258,27.147L344.98,27.002L345.703,26.915L346.426,26.632L347.148,26.473L347.871,26.274L348.594,25.805L349.316,25.599L350.039,25.726L350.762,25.574L351.484,25.265L352.207,25.119L352.93,24.881L353.652,24.805L354.375,24.92L355.098,24.154L355.82,24.405L356.543,24.332L357.266,24.355L357.988,24.066L358.711,23.803L359.434,23.923L360.156,23.669L360.879,23.789L361.602,23.65L362.324,23.681L363.047,23.178L363.77,23.546L364.492,23.215L365.215,23.068L365.938,23.038L366.66,22.797L367.383,23.098L368.105,22.954L368.828,22.925L369.551,22.972L370.273,23.122L370.996,22.755L371.719,22.797L372.441,22.799L373.164,22.885L373.887,22.639L374.609,23.231L375.332,22.947L376.055,22.538L376.777,22.207L377.5,22.024L378.223,22.218L378.945,22.612L379.668,22.21L380.391,22.243L381.113,22.409L381.836,22.258L382.559,22.332L383.281,22.141L384.004,21.92L384.727,22.687L385.449,22.422L386.172,22.673L386.895,22.374L387.617,22.725L388.34,23.221L389.063,22.671L389.785,22.399L390.508,22.522L391.23,22.348L391.953,23.26L392.676,22.726L393.398,22.715L394.121,23.01L394.844,22.9L395.566,22.741L396.289,22.733L397.012,22.626L397.734,22.87L398.457,22.785L399.18,23.037L399.902,22.199L400.625,24.373L401.348,24.157L402.07,23.694L402.793,23.769L403.516,23.286L404.238,23.846L404.961,24.778L405.684,25.03L406.406,25.672L407.129,25.322L407.852,26.662L408.574,25.671L409.297,27.968L410.02,27.173L410.742,25.108L411.465,26.3L412.188,25.881L412.91,27.678L413.633,27.496L414.355,28.298L415.078,29.361L415.801,30.4L416.523,29.824L417.246,30.035L417.969,30.269L418.691,32.958L419.414,30.113L420.137,31.758L420.859,31.703L421.582,30.904L422.305,31.992L423.027,31.226L423.75,32.748L424.473,32.782L425.195,31.719L425.918,31.238L426.641,31.761L427.363,32.5L428.086,31.785L428.809,31.033L429.531,29.976L430.254,30.191L430.977,29.584L431.699,29.847L432.422,29.935L433.145,28.602L433.867,28.174L434.59,28.934L435.313,27.63L436.035,27.712L436.758,27.3L437.48,27.206L438.203,27.64L438.926,26.525L439.648,25.958L440.371,26.759L441.094,25.061L441.816,25.962L442.539,25.64L443.262,25.408L443.984,25.543L444.707,24.839L445.43,25.012L446.152,24.696L446.875,24.298L447.598,24.119L448.32,24.025L449.043,24.084L449.766,23.71L450.488,23.699L451.211,23.252L451.934,22.793L452.656,23.442L453.379,22.638L454.102,22.88L454.824,22.927L455.547,22.967L456.27,22.914L456.992,22.634L457.715,22.581L458.438,22.309L459.16,22.52L459.883,22.383L460.605,22.205L461.328,22.093L462.051,22.328L462.773,22.274L463.496,22.061L464.219,22.146L464.941,22.122L465.664,22.093L466.387,21.843L467.109,21.894L467.832,21.993L468.555,21.718L469.277,21.753"/><path fill="none" stroke="rgb(69, 105, 238)" stroke-width="1.5" d="M100,99.648L100.723,99.794L101.445,99.983L102.168,100.268L102.891,100.492L103.613,100.921L104.336,101.089L105.059,101.29L105.781,101.466L106.504,101.744L107.227,102.05L107.949,102.438L108.672,102.612L109.395,103.036L110.117,103.188L110.84,103.53L111.563,103.844L112.285,104.103L113.008,104.365L113.73,104.709L114.453,105.182L115.176,105.363L115.898,105.723L116.621,106.083L117.344,106.421L118.066,106.835L118.789,107.208L119.512,107.686L120.234,107.854L120.957,108.352L121.68,108.749L122.402,109.146L123.125,109.484L123.848,109.881L124.57,110.465L125.293,110.913L126.016,111.396L126.738,111.918L127.461,112.31L128.184,112.723L128.906,113.172L129.629,113.643L130.352,114.231L131.074,114.829L131.797,115.177L132.52,115.832L133.242,116.357L133.965,117.06L134.688,117.495L135.41,118.185L136.133,118.67L136.855,119.31L137.578,120.003L138.301,120.64L139.023,121.214L139.746,122.079L140.469,122.795L141.191,123.384L141.914,124.202L142.637,124.713L143.359,125.559L144.082,126.386L144.805,127.015L145.527,127.914L146.25,128.746L146.973,129.552L147.695,130.508L148.418,131.368L149.141,132.312L149.863,133.091L150.586,134.1L151.309,135.101L152.031,136.238L152.754,137.22L153.477,138.117L154.199,139.232L154.922,140.313L155.645,141.343L156.367,142.625L157.09,143.814L157.813,144.984L158.535,146.272L159.258,147.453L159.98,148.736L160.703,150.145L161.426,151.512L162.148,152.94L162.871,154.334L163.594,156.009L164.316,157.502L165.039,158.82L165.762,160.559L166.484,162.139L167.207,163.667L167.93,165.745L168.652,167.507L169.375,169.164L170.098,171.129L170.82,173.153L171.543,174.852L172.266,176.869L172.988,178.937L173.711,180.939L174.434,183.373L175.156,185.237L175.879,187.389L176.602,189.913L177.324,191.967L178.047,194.622L178.77,196.802L179.492,199.495L180.215,201.818L180.938,204.111L181.66,206.78L182.383,209.341L183.105,211.88L183.828,214.728L184.551,217.123L185.273,219.831L185.996,222.34L186.719,224.836L187.441,227.564L188.164,229.991L188.887,232.528L189.609,235.479L190.332,237.928L191.055,240.362L191.777,242.786L192.5,245.301L193.223,247.626L193.945,250.185L194.668,252.525L195.391,254.776L196.113,256.992L196.836,259.203L197.559,261.215L198.281,263.444L199.004,265.209L199.727,267.332L200.449,268.95L201.172,270.508L201.895,272.072L202.617,273.944L203.34,275.319L204.063,276.444L204.785,277.468L205.508,278.666L206.23,279.893L206.953,280.712L207.676,281.26L208.398,282.007L209.121,282.789L209.844,282.86L210.566,283.465L211.289,283.774L212.012,283.636L212.734,283.419L213.457,283.312L214.18,283.08L214.902,282.817L215.625,282.362L216.348,281.675L217.07,281.011L217.793,279.901L218.516,278.904L219.238,277.802L219.961,276.839L220.684,275.79L221.406,274.375L222.129,272.632L222.852,271.084L223.574,269.654L224.297,267.972L225.02,266.272L225.742,264.28L226.465,262.147L227.188,260.147L227.91,258.238L228.633,256.238L229.355,254.074L230.078,251.836L230.801,249.349L231.523,247.07L232.246,244.756L232.969,241.997L233.691,239.689L234.414,236.822L235.137,234.161L235.859,231.832L236.582,229.021L237.305,226.287L238.027,223.397L238.75,220.718L239.473,217.825L240.195,215.188L240.918,212.27L241.641,209.472L242.363,206.643L243.086,203.667L243.809,200.893L244.531,197.982L245.254,195.18L245.977,192.237L246.699,189.273L247.422,186.487L248.145,183.601L248.867,180.792L249.59,177.899L250.313,175.067L251.035,172.648L251.758,169.646L252.48,166.797L253.203,164.04L253.926,161.513L254.648,158.791L255.371,155.892L256.094,153.471L256.816,150.808L257.539,148.09L258.262,145.584L258.984,142.99L259.707,140.294L260.43,137.701L261.152,135.536L261.875,132.707L262.598,130.353L263.32,128.126L264.043,125.711L264.766,123.178L265.488,120.58L266.211,118.417L266.934,116.187L267.656,113.953L268.379,111.782L269.102,109.458L269.824,107.26L270.547,104.99L271.27,102.858L271.992,100.719L272.715,98.542L273.438,96.585L274.16,94.488L274.883,92.467L275.605,90.228L276.328,88.265L277.051,86.36L277.773,84.598L278.496,82.904L279.219,84.256L279.941,85.361L280.664,86.438L281.387,87.641L282.109,88.881L282.832,90.249L283.555,88.982L284.277,87.669L285,86.494L285.723,85.272L286.445,84.044L287.168,82.82L287.891,81.57L288.613,80.289L289.336,79.139L290.059,77.914L290.781,76.891L291.504,75.624L292.227,74.46L292.949,73.513L293.672,72.303L294.395,71.334L295.117,70.123L295.84,68.941L296.563,67.95L297.285,66.813L298.008,65.796L298.73,64.796L299.453,64.017L300.176,62.928L300.898,62.045L301.621,60.934L302.344,60.096L303.066,59.043L303.789,58.136L304.512,57.079L305.234,56.271L305.957,55.536L306.68,54.633L307.402,53.615L308.125,52.831L308.848,51.961L309.57,51.241L310.293,50.451L311.016,49.74L311.738,48.996L312.461,48.113L313.184,47.386L313.906,46.496L314.629,45.729L315.352,45.207L316.074,44.561L316.797,43.769L317.52,43.204L318.242,42.612L318.965,41.875L319.688,41.423L320.41,40.622L321.133,40.081L321.855,39.536L322.578,38.843L323.301,38.689L324.023,37.887L324.746,37.574L325.469,36.829L326.191,36.51L326.914,35.895L327.637,35.389L328.359,34.83L329.082,34.653L329.805,33.941L330.527,33.577L331.25,33.288L331.973,32.564L332.695,32.383L333.418,31.97L334.141,31.853L334.863,31.428L335.586,30.912L336.309,30.606L337.031,30.236L337.754,29.991L338.477,29.354L339.199,29.32L339.922,29.238L340.645,28.762L341.367,28.707L342.09,27.913L342.813,27.992L343.535,27.526L344.258,27.182L344.98,27.216L345.703,27.054L346.426,27.117L347.148,26.748L347.871,26.292L348.594,26.075L349.316,26.206L350.039,25.774L350.762,25.711L351.484,25.291L352.207,25.346L352.93,25.189L353.652,24.747L354.375,24.511L355.098,24.332L355.82,24.597L356.543,24.975L357.266,24.124L357.988,24.644L358.711,24.771L359.434,23.838L360.156,23.849L360.879,23.71L361.602,24.251L362.324,23.561L363.047,23.394L363.77,23.667L364.492,23.117L365.215,24.111L365.938,23.48L366.66,23.564L367.383,23.16L368.105,23.079L368.828,22.992L369.551,23.407L370.273,22.628L370.996,22.363L371.719,23.144L372.441,22.246L373.164,22.85L373.887,22.791L374.609,22.095L375.332,22.22L376.055,22.066L376.777,23.263L377.5,22.967L378.223,23.068L378.945,22.473L379.668,22.675L380.391,22.445L381.113,22.297L381.836,22.086L382.559,22.622L383.281,21.997L384.004,22.419L384.727,23.2L385.449,22.055L386.172,23.769L386.895,22.205L387.617,22.611L388.34,22.27L389.063,22.132L389.785,23.438L390.508,21.54L391.23,23.012L391.953,22.376L392.676,22.579L393.398,22.19L394.121,22.235L394.844,22.126L395.566,22.675L396.289,23.127L397.012,22.605L397.734,23.016L398.457,22.627L399.18,23.398L399.902,22.055L400.625,23.317L401.348,23.125L402.07,22.818L402.793,24.476L403.516,25.172L404.238,24.985L404.961,23.48L405.684,24.848L406.406,24.513L407.129,24.036L407.852,25.02L408.574,25.887L409.297,25.588L410.02,26.815L410.742,26.415L411.465,26.643L412.188,26.851L412.91,26.801L413.633,28.568L414.355,26.726L415.078,26.773L415.801,28.261L416.523,27.813L417.246,29.275L417.969,30.6L418.691,29.122L419.414,30.866L420.137,29.802L420.859,30.198L421.582,29.127L422.305,29.544L423.027,30.976L423.75,29.765L424.473,30.803L425.195,31.134L425.918,29.741L426.641,30.759L427.363,29.547L428.086,31.201L428.809,30.66L429.531,28.934L430.254,29.24L430.977,29.082L431.699,28.486L432.422,28.162L433.145,28.327L433.867,28.156L434.59,28.742L435.313,27.956L436.035,27.452L436.758,27.388L437.48,26.473L438.203,25.683L438.926,26.096L439.648,26.786L440.371,25.524L441.094,25.475L441.816,25.326L442.539,25.322L443.262,25.098L443.984,25.097L444.707,24.925L445.43,24.741L446.152,23.776L446.875,24.071L447.598,23.732L448.32,23.869L449.043,23.599L449.766,23.381L450.488,22.822L451.211,23.035L451.934,23.14L452.656,22.909L453.379,22.782L454.102,22.715L454.824,22.922L455.547,22.752L456.27,22.53L456.992,22.375L457.715,22.404L458.438,22.141L459.16,22.104L459.883,22.23L460.605,22.31L461.328,21.947L462.051,22.16L462.773,21.998L463.496,22.081L464.219,21.972L464.941,22.136L465.664,21.987L466.387,21.935L467.109,21.971L467.832,21.796L468.555,21.856L469.277,21.844"/><path fill="none" stroke="rgb(38, 188, 225)" stroke-width="1.5" d="M100,98.771L100.723,99.099L101.445,99.329L102.168,99.476L102.891,99.706L103.613,99.86L104.336,100.101L105.059,100.402L105.781,100.559L106.504,100.926L107.227,101.137L107.949,101.416L108.672,101.702L109.395,101.842L110.117,102.195L110.84,102.431L111.563,102.818L112.285,102.97L113.008,103.369L113.73,103.722L114.453,103.964L115.176,104.248L115.898,104.556L116.621,104.911L117.344,105.187L118.066,105.487L118.789,105.801L119.512,106.263L120.234,106.63L120.957,106.973L121.68,107.442L122.402,107.728L123.125,108.096L123.848,108.472L124.57,108.964L125.293,109.422L126.016,109.76L126.738,110.12L127.461,110.68L128.184,111.064L128.906,111.492L129.629,111.905L130.352,112.395L131.074,112.914L131.797,113.279L132.52,113.896L133.242,114.29L133.965,114.931L134.688,115.344L135.41,115.908L136.133,116.452L136.855,116.999L137.578,117.566L138.301,118.275L139.023,118.801L139.746,119.429L140.469,119.953L141.191,120.738L141.914,121.314L142.637,122.064L143.359,122.742L144.082,123.312L144.805,124.103L145.527,124.746L146.25,125.534L146.973,126.388L147.695,127.05L148.418,127.854L149.141,128.732L149.863,129.523L150.586,130.326L151.309,130.974L152.031,132.173L152.754,132.937L153.477,133.713L154.199,134.697L154.922,135.566L155.645,136.61L156.367,137.582L157.09,138.649L157.813,139.665L158.535,140.672L159.258,141.862L159.98,142.937L160.703,144.037L161.426,145.228L162.148,146.408L162.871,147.469L163.594,148.67L164.316,149.948L165.039,151.27L165.762,152.498L166.484,153.913L167.207,155.238L167.93,156.608L168.652,157.936L169.375,159.337L170.098,160.973L170.82,162.342L171.543,163.699L172.266,165.255L172.988,166.647L173.711,168.399L174.434,169.851L175.156,171.682L175.879,173.147L176.602,174.807L177.324,176.335L178.047,178.074L178.77,179.751L179.492,181.406L180.215,183.079L180.938,184.84L181.66,186.426L182.383,187.903L183.105,189.81L183.828,191.538L184.551,193.163L185.273,194.588L185.996,196.318L186.719,198.015L187.441,199.477L188.164,201.189L188.887,202.832L189.609,204.366L190.332,205.825L191.055,207.373L191.777,208.685L192.5,210.097L193.223,211.445L193.945,212.657L194.668,213.844L195.391,215.156L196.113,216.171L196.836,217.243L197.559,218.248L198.281,219.178L199.004,220.251L199.727,221.007L200.449,221.766L201.172,222.247L201.895,223.03L202.617,223.518L203.34,223.798L204.063,224.244L204.785,224.51L205.508,224.732L206.23,224.925L206.953,225.001L207.676,224.955L208.398,224.527L209.121,224.403L209.844,223.997L210.566,223.649L211.289,223.206L212.012,222.562L212.734,222.059L213.457,221.274L214.18,220.262L214.902,219.462L215.625,218.393L216.348,217.477L217.07,216.326L217.793,215.078L218.516,213.74L219.238,212.613L219.961,211.198L220.684,209.779L221.406,208.366L222.129,206.508L222.852,204.71L223.574,203.133L224.297,201.361L225.02,199.551L225.742,197.927L226.465,195.722L227.188,193.896L227.91,191.938L228.633,189.702L229.355,187.561L230.078,185.461L230.801,183.449L231.523,181.196L232.246,178.894L232.969,176.551L233.691,174.41L234.414,172.141L235.137,169.946L235.859,167.784L236.582,165.229L237.305,162.945L238.027,160.454L238.75,157.971L239.473,155.67L240.195,153.398L240.918,151.043L241.641,148.725L242.363,146.38L243.086,143.962L243.809,141.481L244.531,139.123L245.254,136.85L245.977,134.637L246.699,132.252L247.422,129.728L248.145,127.662L248.867,125.259L249.59,122.866L250.313,120.687L251.035,118.649L251.758,116.331L252.48,113.967L253.203,111.992L253.926,109.741L254.648,107.739L255.371,105.561L256.094,103.393L256.816,101.47L257.539,99.48L258.262,97.471L258.984,95.274L259.707,93.439L260.43,91.541L261.152,89.861L261.875,88.089L262.598,86.264L263.32,84.281L264.043,82.675L264.766,80.916L265.488,79.368L266.211,77.734L266.934,76.144L267.656,74.341L268.379,73.037L269.102,71.54L269.824,70.147L270.547,68.305L271.27,66.99L271.992,65.672L272.715,64.3L273.438,62.952L274.16,61.62L274.883,60.449L275.605,61.697L276.328,63.473L277.051,65.503L277.773,67.144L278.496,69.008L279.219,71.039L279.941,71.05L280.664,70.409L281.387,69.752L282.109,68.981L282.832,68.274L283.555,67.593L284.277,67.069L285,66.275L285.723,65.529L286.445,64.89L287.168,64.286L287.891,63.694L288.613,63.045L289.336,62.328L290.059,61.518L290.781,61.01L291.504,60.509L292.227,59.666L292.949,59.012L293.672,58.425L294.395,57.767L295.117,57.119L295.84,56.555L296.563,55.943L297.285,55.385L298.008,54.685L298.73,54.181L299.453,53.5L300.176,52.794L300.898,52.432L301.621,51.753L302.344,51.201L303.066,50.611L303.789,50.22L304.512,49.386L305.234,48.992L305.957,48.375L306.68,48.015L307.402,47.339L308.125,46.783L308.848,46.319L309.57,45.951L310.293,45.432L311.016,44.713L311.738,44.315L312.461,43.827L313.184,43.452L313.906,42.863L314.629,42.451L315.352,42.077L316.074,41.511L316.797,41.006L317.52,40.509L318.242,39.948L318.965,39.632L319.688,39.016L320.41,38.666L321.133,38.145L321.855,37.711L322.578,37.574L323.301,37.135L324.023,36.801L324.746,36.129L325.469,35.881L326.191,35.428L326.914,34.969L327.637,34.576L328.359,34.287L329.082,34.161L329.805,33.632L330.527,33.321L331.25,33.096L331.973,32.743L332.695,32.276L333.418,32.027L334.141,31.62L334.863,31.57L335.586,31.138L336.309,30.756L337.031,30.5L337.754,30.164L338.477,29.886L339.199,29.674L339.922,29.51L340.645,29.232L341.367,28.879L342.09,28.767L342.813,28.527L343.535,28.055L344.258,27.644L344.98,27.676L345.703,27.846L346.426,27.329L347.148,27.238L347.871,26.923L348.594,26.637L349.316,27.182L350.039,26.392L350.762,26.586L351.484,26.203L352.207,25.493L352.93,26.098L353.652,25.293L354.375,25.88L355.098,25.157L355.82,24.954L356.543,25.332L357.266,24.91L357.988,24.874L358.711,24.394L359.434,24.49L360.156,24.708L360.879,24.309L361.602,24.28L362.324,24.371L363.047,24.097L363.77,23.662L364.492,23.775L365.215,23.688L365.938,23.361L366.66,23.549L367.383,23.677L368.105,23.146L368.828,23.539L369.551,22.963L370.273,23.622L370.996,22.755L371.719,23.068L372.441,23.327L373.164,22.835L373.887,23.05L374.609,21.966L375.332,22.836L376.055,22.473L376.777,23.205L377.5,22.341L378.223,22.809L378.945,22.82L379.668,23.847L380.391,22.69L381.113,22.777L381.836,22.662L382.559,22.708L383.281,22.381L384.004,22.541L384.727,22.99L385.449,21.893L386.172,22.731L386.895,22.383L387.617,21.771L388.34,22.532L389.063,22.813L389.785,22.719L390.508,21.075L391.23,22.823L391.953,23.129L392.676,22.336L393.398,22.301L394.121,22.511L394.844,22.897L395.566,22.939L396.289,21.903L397.012,22.667L397.734,22.887L398.457,22.429L399.18,21.71L399.902,22.403L400.625,22.479L401.348,22.185L402.07,23.603L402.793,22.848L403.516,24.155L404.238,24.217L404.961,25.221L405.684,23.798L406.406,22.764L407.129,22.787L407.852,24.736L408.574,24.078L409.297,22.595L410.02,24.548L410.742,22.843L411.465,24.844L412.188,24.361L412.91,23.701L413.633,24.274L414.355,24.677L415.078,26.855L415.801,25.657L416.523,25.697L417.246,26.181L417.969,25.095L418.691,27.201L419.414,26.391L420.137,25.2L420.859,27.479L421.582,25.977L422.305,26.399L423.027,27.911L423.75,26.476L424.473,26.925L425.195,26.722L425.918,27.43L426.641,27.446L427.363,26.694L428.086,27.111L428.809,26.163L429.531,27.854L430.254,26.636L430.977,26.581L431.699,26.202L432.422,26.069L433.145,25.774L433.867,24.956L434.59,25.5L435.313,25.757L436.035,26.577L436.758,25.275L437.48,25.217L438.203,25.344L438.926,25.138L439.648,24.913L440.371,24.913L441.094,24.654L441.816,24.226L442.539,24.035L443.262,23.663L443.984,23.792L444.707,24.279L445.43,22.978L446.152,23.157L446.875,23.619L447.598,23.338L448.32,22.939L449.043,23.406L449.766,22.88L450.488,22.882L451.211,22.726L451.934,22.566L452.656,22.235L453.379,22.718L454.102,22.455L454.824,22.24L455.547,22.156L456.27,22.255L456.992,22.32L457.715,22.056L458.438,22.255L459.16,22.082L459.883,22.153L460.605,22.025L461.328,21.89L462.051,22.01L462.773,21.805L463.496,21.998L464.219,22.008L464.941,22.034L465.664,21.786L466.387,21.755L467.109,21.752L467.832,21.71L468.555,21.71L469.277,21.684"/><path fill="none" stroke="rgb(63, 243, 147)" stroke-width="1.5" d="M100,97.725L100.723,97.733L101.445,98.135L102.168,98.235L102.891,98.52L103.613,98.728L104.336,98.976L105.059,99.185L105.781,99.403L106.504,99.494L107.227,99.715L107.949,99.943L108.672,100.202L109.395,100.489L110.117,100.775L110.84,100.992L111.563,101.16L112.285,101.422L113.008,101.645L113.73,102.037L114.453,102.319L115.176,102.74L115.898,102.743L116.621,103.026L117.344,103.325L118.066,103.7L118.789,104.053L119.512,104.322L120.234,104.66L120.957,105.001L121.68,105.366L122.402,105.573L123.125,105.691L123.848,106.311L124.57,106.595L125.293,106.976L126.016,107.457L126.738,107.817L127.461,108.108L128.184,108.423L128.906,108.788L129.629,109.336L130.352,109.761L131.074,110.117L131.797,110.617L132.52,110.996L133.242,111.527L133.965,111.844L134.688,112.383L135.41,112.891L136.133,113.405L136.855,113.888L137.578,114.368L138.301,114.798L139.023,115.294L139.746,116.012L140.469,116.408L141.191,116.785L141.914,117.452L142.637,118.056L143.359,118.603L144.082,119.278L144.805,119.746L145.527,120.477L146.25,121.065L146.973,121.679L147.695,122.439L148.418,123.092L149.141,123.684L149.863,124.291L150.586,125.127L151.309,125.671L152.031,126.421L152.754,127.162L153.477,128L154.199,128.834L154.922,129.477L155.645,130.272L156.367,131.111L157.09,131.942L157.813,132.713L158.535,133.665L159.258,134.441L159.98,135.438L160.703,136.166L161.426,137.09L162.148,138.172L162.871,139.003L163.594,140.07L164.316,141.117L165.039,142.159L165.762,142.989L166.484,143.949L167.207,145.093L167.93,145.976L168.652,146.958L169.375,148.074L170.098,149.18L170.82,150.438L171.543,151.212L172.266,152.519L172.988,153.388L173.711,154.524L174.434,155.632L175.156,156.678L175.879,157.682L176.602,158.72L177.324,160.143L178.047,161.138L178.77,162.314L179.492,163.301L180.215,164.379L180.938,165.4L181.66,166.4L182.383,167.259L183.105,168.337L183.828,169.058L184.551,170.193L185.273,171.063L185.996,171.912L186.719,172.754L187.441,173.536L188.164,174.213L188.887,175L189.609,175.832L190.332,176.24L191.055,176.908L191.777,177.488L192.5,177.964L193.223,178.501L193.945,178.926L194.668,179.463L195.391,179.51L196.113,179.728L196.836,179.866L197.559,180.228L198.281,180.237L199.004,180.506L199.727,180.433L200.449,180.032L201.172,180.118L201.895,179.625L202.617,179.362L203.34,178.915L204.063,178.479L204.785,178.243L205.508,177.495L206.23,177.059L206.953,176.169L207.676,175.474L208.398,174.827L209.121,173.972L209.844,172.944L210.566,171.933L211.289,170.929L212.012,169.764L212.734,168.587L213.457,167.365L214.18,166.299L214.902,164.887L215.625,163.711L216.348,162.136L217.07,160.537L217.793,159.065L218.516,157.662L219.238,156.088L219.961,154.337L220.684,153.086L221.406,151.248L222.129,149.285L222.852,147.623L223.574,145.826L224.297,143.966L225.02,142.249L225.742,140.48L226.465,138.502L227.188,136.477L227.91,134.662L228.633,132.661L229.355,130.993L230.078,128.844L230.801,126.92L231.523,125.014L232.246,123.085L232.969,121.097L233.691,119.128L234.414,117.028L235.137,115.12L235.859,113.136L236.582,111.22L237.305,109.335L238.027,107.37L238.75,105.568L239.473,103.47L240.195,101.453L240.918,99.546L241.641,97.878L242.363,95.655L243.086,94.036L243.809,92.048L244.531,90.326L245.254,88.522L245.977,86.487L246.699,84.916L247.422,83.064L248.145,81.386L248.867,79.679L249.59,77.853L250.313,76.376L251.035,74.514L251.758,72.901L252.48,71.297L253.203,69.736L253.926,68.081L254.648,66.636L255.371,65.218L256.094,63.599L256.816,62.207L257.539,60.683L258.262,59.45L258.984,58.048L259.707,56.585L260.43,55.356L261.152,54.102L261.875,52.843L262.598,51.623L263.32,50.411L264.043,49.38L264.766,48.111L265.488,47.023L266.211,46.099L266.934,44.938L267.656,44.074L268.379,43.031L269.102,42.568L269.824,44.755L270.547,46.976L271.27,49.202L271.992,51.353L272.715,53.529L273.438,55.697L274.16,55.315L274.883,54.907L275.605,54.617L276.328,54.264L277.051,53.778L277.773,53.458L278.496,53.199L279.219,52.703L279.941,52.485L280.664,52.155L281.387,51.698L282.109,51.455L282.832,51.053L283.555,50.7L284.277,50.32L285,50.06L285.723,49.584L286.445,49.369L287.168,48.858L287.891,48.621L288.613,48.228L289.336,48.056L290.059,47.69L290.781,47.278L291.504,47.015L292.227,46.701L292.949,46.416L293.672,46.042L294.395,45.708L295.117,45.515L295.84,45.196L296.563,44.88L297.285,44.516L298.008,44.331L298.73,44.135L299.453,43.695L300.176,43.577L300.898,43.243L301.621,42.926L302.344,42.732L303.066,42.456L303.789,42.154L304.512,41.903L305.234,41.634L305.957,41.463L306.68,41.21L307.402,40.969L308.125,40.715L308.848,40.397L309.57,40.406L310.293,39.991L311.016,39.766L311.738,39.551L312.461,39.253L313.184,38.985L313.906,38.705L314.629,38.541L315.352,38.312L316.074,38.067L316.797,37.795L317.52,37.584L318.242,37.214L318.965,36.926L319.688,37.022L320.41,36.445L321.133,36.244L321.855,36.134L322.578,35.743L323.301,35.483L324.023,35.262L324.746,35.06L325.469,34.715L326.191,34.516L326.914,34.123L327.637,34.136L328.359,33.765L329.082,33.555L329.805,33.217L330.527,32.941L331.25,33.09L331.973,32.628L332.695,32.5L333.418,31.833L334.141,31.795L334.863,31.687L335.586,31.315L336.309,31.283L337.031,30.836L337.754,30.756L338.477,30.492L339.199,30.299L339.922,30.032L340.645,29.795L341.367,29.509L342.09,29.481L342.813,29.099L343.535,29.14L344.258,28.86L344.98,28.509L345.703,28.369L346.426,28.141L347.148,28.03L347.871,27.824L348.594,27.475L349.316,27.475L350.039,27.081L350.762,26.924L351.484,26.822L352.207,26.574L352.93,26.448L353.652,26.502L354.375,25.987L355.098,26.188L355.82,26.153L356.543,26.3L357.266,25.859L357.988,25.172L358.711,25.314L359.434,25.211L360.156,25.176L360.879,24.45L361.602,25.279L362.324,24.717L363.047,24.797L363.77,24.556L364.492,24.673L365.215,24.758L365.938,23.922L366.66,24.194L367.383,24.405L368.105,24.101L368.828,24.034L369.551,23.978L370.273,23.025L370.996,24.029L371.719,23.373L372.441,23.616L373.164,22.83L373.887,23.292L374.609,24.081L375.332,23.046L376.055,22.948L376.777,23.007L377.5,23.394L378.223,23.373L378.945,22.71L379.668,21.851L380.391,22.902L381.113,22.876L381.836,22.626L382.559,23.126L383.281,22.954L384.004,22.644L384.727,21.82L385.449,23.134L386.172,21.615L386.895,22.379L387.617,22.564L388.34,21.679L389.063,22.598L389.785,22.687L390.508,22.197L391.23,22.35L391.953,22.624L392.676,22.087L393.398,21.719L394.121,22.484L394.844,21.628L395.566,21.798L396.289,21.919L397.012,23.101L397.734,22.959L398.457,22.639L399.18,21.329L399.902,22.165L400.625,22.298L401.348,21.31L402.07,21.565L402.793,22.396L403.516,23.443L404.238,22.659L404.961,22.798L405.684,22.196L406.406,22.974L407.129,22.18L407.852,21.918L408.574,22.416L409.297,21.682L410.02,23.536L410.742,21.466L411.465,23.258L412.188,23.468L412.91,23.08L413.633,23.256L414.355,23.274L415.078,23.947L415.801,21.58L416.523,23.455L417.246,24.28L417.969,22.101L418.691,22.32L419.414,23.005L420.137,23.317L420.859,23.163L421.582,21.893L422.305,25.652L423.027,24.374L423.75,24.644L424.473,22.543L425.195,23.18L425.918,23.076L426.641,22.56L427.363,22.915L428.086,22.571L428.809,23.319L429.531,24.232L430.254,23.324L430.977,23.345L431.699,22.917L432.422,22.96L433.145,22.004L433.867,23.701L434.59,22.9L435.313,22.536L436.035,23.087L436.758,22.782L437.48,23.491L438.203,22.563L438.926,22.311L439.648,22.838L440.371,22.899L441.094,22.366L441.816,21.748L442.539,22.307L443.262,22.413L443.984,22.67L444.707,22.357L445.43,22.333L446.152,22.746L446.875,22.199L447.598,21.833L448.32,21.856L449.043,22.545L449.766,22.13L450.488,21.959L451.211,22.062L451.934,21.93L452.656,21.859L453.379,21.918L454.102,21.719L454.824,21.76L455.547,21.779L456.27,21.935L456.992,21.911L457.715,21.643L458.438,21.578L459.16,21.514L459.883,21.833L460.605,21.68L461.328,21.618L462.051,21.712L462.773,21.738L463.496,21.712L464.219,21.675L464.941,21.665L465.664,21.667L466.387,21.665L467.109,21.592L467.832,21.686L468.555,21.558L469.277,21.535"/><path fill="none" stroke="rgb(149, 251, 81)" stroke-width="1.5" d="M100,95.971L100.723,96.351L101.445,96.338L102.168,96.622L102.891,96.691L103.613,96.984L104.336,97.074L105.059,97.166L105.781,97.402L106.504,97.61L107.227,97.824L107.949,98.079L108.672,98.387L109.395,98.534L110.117,98.775L110.84,98.871L111.563,99.123L112.285,99.344L113.008,99.641L113.73,99.793L114.453,100.045L115.176,100.198L115.898,100.516L116.621,100.728L117.344,100.993L118.066,101.244L118.789,101.562L119.512,101.809L120.234,102.089L120.957,102.425L121.68,102.581L122.402,103.039L123.125,103.333L123.848,103.486L124.57,103.821L125.293,104.078L126.016,104.546L126.738,104.76L127.461,105.124L128.184,105.522L128.906,105.717L129.629,105.978L130.352,106.444L131.074,106.888L131.797,107.209L132.52,107.639L133.242,107.903L133.965,108.217L134.688,108.784L135.41,109.037L136.133,109.49L136.855,109.888L137.578,110.357L138.301,110.759L139.023,111.127L139.746,111.686L140.469,112.077L141.191,112.383L141.914,112.926L142.637,113.541L143.359,114.009L144.082,114.431L144.805,114.954L145.527,115.542L146.25,116.025L146.973,116.555L147.695,116.999L148.418,117.628L149.141,118.218L149.863,118.737L150.586,119.449L151.309,119.986L152.031,120.362L152.754,121.118L153.477,121.751L154.199,122.241L154.922,122.97L155.645,123.555L156.367,124.34L157.09,124.93L157.813,125.599L158.535,126.222L159.258,126.883L159.98,127.46L160.703,128.189L161.426,128.987L162.148,129.743L162.871,130.342L163.594,131.196L164.316,131.964L165.039,132.539L165.762,133.3L166.484,133.923L167.207,134.62L167.93,135.252L168.652,135.915L169.375,136.542L170.098,137.262L170.82,138.147L171.543,138.6L172.266,139.363L172.988,139.814L173.711,140.592L174.434,140.809L175.156,141.508L175.879,142.032L176.602,142.629L177.324,143.211L178.047,143.558L178.77,144.356L179.492,144.549L180.215,144.963L180.938,145.442L181.66,145.675L182.383,146.052L183.105,146.135L183.828,146.517L184.551,146.685L185.273,146.923L185.996,146.901L186.719,147.034L187.441,147.125L188.164,147.039L188.887,147.01L189.609,146.955L190.332,146.627L191.055,146.45L191.777,146.308L192.5,145.941L193.223,145.661L193.945,145.268L194.668,144.85L195.391,144.326L196.113,143.869L196.836,143.066L197.559,142.454L198.281,141.971L199.004,141.103L199.727,140.417L200.449,139.615L201.172,138.587L201.895,137.68L202.617,136.728L203.34,135.772L204.063,134.818L204.785,133.551L205.508,132.539L206.23,131.219L206.953,130.092L207.676,128.985L208.398,127.583L209.121,126.37L209.844,124.835L210.566,123.763L211.289,122.163L212.012,120.77L212.734,119.248L213.457,117.846L214.18,116.471L214.902,114.904L215.625,113.295L216.348,111.741L217.07,110.106L217.793,108.518L218.516,106.994L219.238,105.408L219.961,103.652L220.684,102.158L221.406,100.569L222.129,98.835L222.852,97.343L223.574,95.524L224.297,93.906L225.02,92.395L225.742,90.508L226.465,88.973L227.188,87.377L227.91,85.524L228.633,83.997L229.355,82.451L230.078,80.84L230.801,79.155L231.523,77.653L232.246,76.111L232.969,74.564L233.691,72.848L234.414,71.395L235.137,70.06L235.859,68.273L236.582,66.873L237.305,65.332L238.027,63.784L238.75,62.429L239.473,60.891L240.195,59.465L240.918,58.184L241.641,56.67L242.363,55.27L243.086,53.945L243.809,52.531L244.531,51.335L245.254,50.034L245.977,48.751L246.699,47.431L247.422,46.205L248.145,45.033L248.867,43.833L249.59,42.561L250.313,41.541L251.035,40.314L251.758,39.177L252.48,38.176L253.203,37.021L253.926,36.026L254.648,35.102L255.371,34.262L256.094,33.231L256.816,32.323L257.539,31.462L258.262,30.516L258.984,29.705L259.707,30.626L260.43,32.87L261.152,35.195L261.875,37.523L262.598,39.757L263.32,42.311L264.043,43.639L264.766,43.439L265.488,43.231L266.211,43.104L266.934,42.888L267.656,42.65L268.379,42.521L269.102,42.437L269.824,42.272L270.547,41.99L271.27,41.926L271.992,41.837L272.715,41.603L273.438,41.411L274.16,41.391L274.883,41.26L275.605,41.227L276.328,41.018L277.051,40.883L277.773,40.819L278.496,40.692L279.219,40.609L279.941,40.477L280.664,40.346L281.387,40.205L282.109,40.066L282.832,39.91L283.555,39.867L284.277,39.839L285,39.637L285.723,39.555L286.445,39.504L287.168,39.357L287.891,39.153L288.613,39.101L289.336,38.92L290.059,38.855L290.781,38.769L291.504,38.57L292.227,38.44L292.949,38.367L293.672,38.144L294.395,38.203L295.117,38.055L295.84,37.905L296.563,37.839L297.285,37.722L298.008,37.638L298.73,37.56L299.453,37.503L300.176,37.385L300.898,37.291L301.621,37.165L302.344,37.022L303.066,37.014L303.789,36.859L304.512,36.783L305.234,36.711L305.957,36.518L306.68,36.446L307.402,36.34L308.125,36.207L308.848,36.134L309.57,36.051L310.293,35.966L311.016,35.897L311.738,35.796L312.461,35.694L313.184,35.546L313.906,35.41L314.629,35.297L315.352,35.142L316.074,35.148L316.797,34.956L317.52,34.792L318.242,34.768L318.965,34.619L319.688,34.481L320.41,34.327L321.133,34.217L321.855,34.079L322.578,33.978L323.301,33.816L324.023,33.649L324.746,33.522L325.469,33.384L326.191,33.186L326.914,33.08L327.637,32.911L328.359,32.778L329.082,32.594L329.805,32.538L330.527,32.261L331.25,32.147L331.973,31.91L332.695,31.729L333.418,31.595L334.141,31.416L334.863,31.227L335.586,31.068L336.309,30.741L337.031,30.683L337.754,30.521L338.477,30.345L339.199,30.003L339.922,29.919L340.645,29.816L341.367,29.663L342.09,29.389L342.813,29.27L343.535,29.079L344.258,28.92L344.98,28.763L345.703,28.53L346.426,28.408L347.148,28.212L347.871,28.035L348.594,27.861L349.316,27.691L350.039,27.462L350.762,27.394L351.484,27.214L352.207,27.06L352.93,26.877L353.652,26.704L354.375,26.562L355.098,26.501L355.82,26.407L356.543,26.183L357.266,26.049L357.988,25.839L358.711,25.747L359.434,25.698L360.156,25.462L360.879,25.334L361.602,25.273L362.324,25.109L363.047,24.997L363.77,25.001L364.492,24.798L365.215,24.643L365.938,24.585L366.66,24.461L367.383,24.42L368.105,24.335L368.828,24.158L369.551,24.049L370.273,23.943L370.996,23.906L371.719,23.81L372.441,23.76L373.164,23.698L373.887,23.638L374.609,23.531L375.332,23.424L376.055,23.368L376.777,23.36L377.5,23.323L378.223,23.207L378.945,23.206L379.668,23.076L380.391,23.046L381.113,22.988L381.836,22.907L382.559,22.888L383.281,22.769L384.004,22.719L384.727,22.754L385.449,22.641L386.172,22.651L386.895,22.546L387.617,22.59L388.34,22.489L389.063,22.419L389.785,22.413L390.508,22.449L391.23,22.392L391.953,22.3L392.676,22.31L393.398,22.272L394.121,22.262L394.844,22.236L395.566,22.222L396.289,22.154L397.012,22.14L397.734,22.104L398.457,22.144L399.18,22.067L399.902,22.001L400.625,22.027L401.348,22.025L402.07,22.021L402.793,21.968L403.516,21.954L404.238,21.963L404.961,21.892L405.684,21.883L406.406,21.87L407.129,21.874L407.852,21.87L408.574,21.843L409.297,21.879L410.02,21.845L410.742,21.789L411.465,21.778L412.188,21.79L412.91,21.784L413.633,21.726L414.355,21.736L415.078,21.732L415.801,21.739L416.523,21.732L417.246,21.696L417.969,21.709L418.691,21.699L419.414,21.7L420.137,21.711L420.859,21.697L421.582,21.693L422.305,21.657L423.027,21.62L423.75,21.636L424.473,21.663L425.195,21.631L425.918,21.634L426.641,21.639L427.363,21.656L428.086,21.609L428.809,21.594L429.531,21.6L430.254,21.623L430.977,21.635L431.699,21.6L432.422,21.607L433.145,21.613L433.867,21.605L434.59,21.608L435.313,21.582L436.035,21.586L436.758,21.565L437.48,21.567L438.203,21.575L438.926,21.571L439.648,21.567L440.371,21.563L441.094,21.571L441.816,21.549L442.539,21.551L443.262,21.576L443.984,21.577L444.707,21.546L445.43,21.549L446.152,21.569L446.875,21.552L447.598,21.543L448.32,21.551L449.043,21.557L449.766,21.55L450.488,21.541L451.211,21.535L451.934,21.546L452.656,21.536L453.379,21.542L454.102,21.544L454.824,21.524L455.547,21.531L456.27,21.521L456.992,21.534L457.715,21.542L458.438,21.533L459.16,21.526L459.883,21.529L460.605,21.52L461.328,21.52L462.051,21.525L462.773,21.53L463.496,21.528L464.219,21.524L464.941,21.518L465.664,21.521L466.387,21.521L467.109,21.52L467.832,21.513L468.555,21.518L469.277,21.52"/><path fill="none" stroke="rgb(236, 209, 46)" stroke-width="1.5" d="M100,93.311L100.723,93.654L101.445,93.845L102.168,93.994L102.891,94.077L103.613,94.252L104.336,94.549L105.059,94.624L105.781,94.655L106.504,94.817L107.227,95.032L107.949,95.299L108.672,95.335L109.395,95.625L110.117,95.839L110.84,95.951L111.563,96.136L112.285,96.328L113.008,96.504L113.73,96.72L114.453,97.032L115.176,97.227L115.898,97.411L116.621,97.555L117.344,97.855L118.066,98.017L118.789,98.27L119.512,98.513L120.234,98.752L120.957,99.063L121.68,99.331L122.402,99.612L123.125,99.948L123.848,100.063L124.57,100.37L125.293,100.658L126.016,100.828L126.738,101.106L127.461,101.286L128.184,101.799L128.906,101.966L129.629,102.358L130.352,102.57L131.074,103.013L131.797,103.414L132.52,103.684L133.242,103.794L133.965,104.207L134.688,104.763L135.41,104.993L136.133,105.361L136.855,105.764L137.578,105.949L138.301,106.582L139.023,106.962L139.746,107.199L140.469,107.545L141.191,107.923L141.914,108.356L142.637,108.92L143.359,109.233L144.082,109.599L144.805,110.067L145.527,110.453L146.25,110.948L146.973,111.281L147.695,111.745L148.418,112.184L149.141,112.707L149.863,113.17L150.586,113.437L151.309,113.835L152.031,114.396L152.754,114.853L153.477,115.448L154.199,115.848L154.922,116.03L155.645,116.555L156.367,117.004L157.09,117.426L157.813,117.698L158.535,118.127L159.258,118.751L159.98,119.046L160.703,119.166L161.426,119.547L162.148,119.923L162.871,120.041L163.594,120.447L164.316,120.666L165.039,121.089L165.762,121.071L166.484,121.307L167.207,121.409L167.93,121.708L168.652,121.949L169.375,121.921L170.098,122.136L170.82,122.212L171.543,122.146L172.266,122.055L172.988,122.072L173.711,122.093L174.434,121.79L175.156,121.676L175.879,121.543L176.602,121.248L177.324,120.913L178.047,120.665L178.77,120.451L179.492,119.965L180.215,119.603L180.938,119.205L181.66,118.587L182.383,118.011L183.105,117.539L183.828,117.022L184.551,116.097L185.273,115.642L185.996,114.891L186.719,114.143L187.441,113.346L188.164,112.375L188.887,111.573L189.609,110.733L190.332,109.738L191.055,108.919L191.777,107.868L192.5,106.797L193.223,105.833L193.945,104.658L194.668,103.609L195.391,102.537L196.113,101.288L196.836,100.137L197.559,98.845L198.281,97.73L199.004,96.52L199.727,95.215L200.449,94.014L201.172,92.508L201.895,91.145L202.617,89.918L203.34,88.531L204.063,87.26L204.785,85.952L205.508,84.557L206.23,83.215L206.953,81.69L207.676,80.399L208.398,79.018L209.121,77.567L209.844,76.151L210.566,74.921L211.289,73.401L212.012,72.049L212.734,70.599L213.457,69.185L214.18,67.813L214.902,66.389L215.625,64.858L216.348,63.607L217.07,62.247L217.793,60.976L218.516,59.475L219.238,58.052L219.961,56.774L220.684,55.516L221.406,54.082L222.129,52.737L222.852,51.474L223.574,50.245L224.297,48.919L225.02,47.571L225.742,46.195L226.465,44.972L227.188,43.787L227.91,42.487L228.633,41.382L229.355,40.07L230.078,39.1L230.801,37.854L231.523,36.692L232.246,35.738L232.969,34.61L233.691,33.503L234.414,32.411L235.137,31.556L235.859,30.45L236.582,29.552L237.305,28.588L238.027,27.778L238.75,26.872L239.473,26.088L240.195,25.301L240.918,24.469L241.641,23.637L242.363,22.928L243.086,22.196L243.809,22.371L244.531,24.815L245.254,27.12L245.977,29.624L246.699,32.049L247.422,34.575L248.145,36.648L248.867,36.61L249.59,36.525L250.313,36.437L251.035,36.299L251.758,36.211L252.48,36.123L253.203,36.048L253.926,35.954L254.648,35.849L255.371,35.792L256.094,35.657L256.816,35.571L257.539,35.597L258.262,35.576L258.984,35.463L259.707,35.48L260.43,35.453L261.152,35.334L261.875,35.262L262.598,35.257L263.32,35.229L264.043,35.192L264.766,35.105L265.488,35.248L266.211,35.22L266.934,35.271L267.656,35.242L268.379,35.203L269.102,35.264L269.824,35.181L270.547,35.287L271.27,35.226L271.992,35.329L272.715,35.278L273.438,35.381L274.16,35.295L274.883,35.363L275.605,35.379L276.328,35.419L277.051,35.495L277.773,35.531L278.496,35.473L279.219,35.521L279.941,35.542L280.664,35.518L281.387,35.526L282.109,35.564L282.832,35.581L283.555,35.6L284.277,35.49L285,35.523L285.723,35.483L286.445,35.498L287.168,35.457L287.891,35.425L288.613,35.423L289.336,35.368L290.059,35.41L290.781,35.379L291.504,35.237L292.227,35.26L292.949,35.21L293.672,35.204L294.395,35.075L295.117,35.071L295.84,35.038L296.563,34.91L297.285,34.87L298.008,34.842L298.73,34.761L299.453,34.742L300.176,34.722L300.898,34.648L301.621,34.611L302.344,34.55L303.066,34.422L303.789,34.446L304.512,34.434L305.234,34.33L305.957,34.248L306.68,34.128L307.402,34.09L308.125,34.07L308.848,34.004L309.57,33.976L310.293,33.832L311.016,33.777L311.738,33.743L312.461,33.682L313.184,33.68L313.906,33.513L314.629,33.48L315.352,33.4L316.074,33.303L316.797,33.253L317.52,33.14L318.242,33.169L318.965,33.038L319.688,32.994L320.41,32.845L321.133,32.813L321.855,32.661L322.578,32.602L323.301,32.483L324.023,32.409L324.746,32.284L325.469,32.161L326.191,31.987L326.914,31.969L327.637,31.818L328.359,31.657L329.082,31.634L329.805,31.493L330.527,31.313L331.25,31.18L331.973,31.164L332.695,30.973L333.418,30.809L334.141,30.717L334.863,30.475L335.586,30.405L336.309,30.248L337.031,30.153L337.754,29.936L338.477,29.811L339.199,29.703L339.922,29.589L340.645,29.395L341.367,29.191L342.09,29.028L342.813,28.884L343.535,28.785L344.258,28.628L344.98,28.474L345.703,28.302L346.426,28.099L347.148,27.952L347.871,27.838L348.594,27.688L349.316,27.528L350.039,27.413L350.762,27.253L351.484,27.078L352.207,26.975L352.93,26.744L353.652,26.657L354.375,26.518L355.098,26.361L355.82,26.214L356.543,26.094L357.266,25.965L357.988,25.832L358.711,25.682L359.434,25.585L360.156,25.43L360.879,25.324L361.602,25.23L362.324,25.134L363.047,24.932L363.77,24.852L364.492,24.748L365.215,24.644L365.938,24.556L366.66,24.488L367.383,24.362L368.105,24.273L368.828,24.173L369.551,24.1L370.273,23.971L370.996,23.9L371.719,23.874L372.441,23.74L373.164,23.647L373.887,23.582L374.609,23.504L375.332,23.441L376.055,23.386L376.777,23.329L377.5,23.238L378.223,23.163L378.945,23.118L379.668,23.059L380.391,23.004L381.113,22.951L381.836,22.909L382.559,22.833L383.281,22.783L384.004,22.743L384.727,22.683L385.449,22.672L386.172,22.603L386.895,22.551L387.617,22.552L388.34,22.477L389.063,22.462L389.785,22.415L390.508,22.393L391.23,22.353L391.953,22.315L392.676,22.29L393.398,22.255L394.121,22.242L394.844,22.195L395.566,22.18L396.289,22.142L397.012,22.118L397.734,22.091L398.457,22.069L399.18,22.036L399.902,22.037L400.625,22.031L401.348,21.994L402.07,21.963L402.793,21.955L403.516,21.944L404.238,21.919L404.961,21.905L405.684,21.895L406.406,21.87L407.129,21.865L407.852,21.842L408.574,21.828L409.297,21.826L410.02,21.817L410.742,21.806L411.465,21.776L412.188,21.767L412.91,21.757L413.633,21.742L414.355,21.739L415.078,21.737L415.801,21.729L416.523,21.719L417.246,21.711L417.969,21.699L418.691,21.695L419.414,21.683L420.137,21.682L420.859,21.671L421.582,21.657L422.305,21.666L423.027,21.654L423.75,21.647L424.473,21.638L425.195,21.642L425.918,21.633L426.641,21.62L427.363,21.618L428.086,21.62L428.809,21.613L429.531,21.608L430.254,21.61L430.977,21.599L431.699,21.598L432.422,21.598L433.145,21.593L433.867,21.584L434.59,21.589L435.313,21.583L436.035,21.585L436.758,21.573L437.48,21.574L438.203,21.57L438.926,21.567L439.648,21.565L440.371,21.565L441.094,21.563L441.816,21.561L442.539,21.558L443.262,21.555L443.984,21.551L444.707,21.551L445.43,21.549L446.152,21.548L446.875,21.549L447.598,21.545L448.32,21.543L449.043,21.544L449.766,21.54L450.488,21.545L451.211,21.538L451.934,21.536L452.656,21.536L453.379,21.529L454.102,21.533L454.824,21.531L455.547,21.531L456.27,21.532L456.992,21.529L457.715,21.529L458.438,21.531L459.16,21.53L459.883,21.525L460.605,21.523L461.328,21.525L462.051,21.524L462.773,21.523L463.496,21.522L464.219,21.522L464.941,21.52L465.664,21.519L466.387,21.52L467.109,21.52L467.832,21.52L468.555,21.518L469.277,21.517"/><path fill="none" stroke="rgb(255, 130, 29)" stroke-width="1.5" d="M100,87.548L100.723,87.688L101.445,87.866L102.168,87.905L102.891,88.19L103.613,88.204L104.336,88.407L105.059,88.528L105.781,88.77L106.504,88.799L107.227,89.152L107.949,89.234L108.672,89.414L109.395,89.593L110.117,89.659L110.84,89.942L111.563,90.109L112.285,90.306L113.008,90.468L113.73,90.638L114.453,90.891L115.176,91.091L115.898,91.31L116.621,91.487L117.344,91.705L118.066,91.868L118.789,92.071L119.512,92.333L120.234,92.503L120.957,92.698L121.68,92.853L122.402,93.148L123.125,93.408L123.848,93.555L124.57,93.773L125.293,93.892L126.016,94.213L126.738,94.387L127.461,94.51L128.184,94.778L128.906,95.061L129.629,95.257L130.352,95.401L131.074,95.609L131.797,95.725L132.52,96.036L133.242,96.112L133.965,96.332L134.688,96.528L135.41,96.604L136.133,96.832L136.855,96.904L137.578,97.043L138.301,97.221L139.023,97.526L139.746,97.398L140.469,97.547L141.191,97.67L141.914,97.753L142.637,97.733L143.359,97.771L144.082,97.816L144.805,97.88L145.527,97.783L146.25,97.75L146.973,97.733L147.695,97.551L148.418,97.445L149.141,97.3L149.863,97.122L150.586,97.065L151.309,96.713L152.031,96.459L152.754,96.127L153.477,95.765L154.199,95.413L154.922,94.997L155.645,94.686L156.367,94.271L157.09,93.668L157.813,93.113L158.535,92.653L159.258,92.146L159.98,91.528L160.703,90.838L161.426,90.295L162.148,89.483L162.871,88.706L163.594,87.997L164.316,87.226L165.039,86.413L165.762,85.669L166.484,84.788L167.207,83.704L167.93,82.908L168.652,82.011L169.375,80.916L170.098,79.98L170.82,78.974L171.543,78.021L172.266,76.94L172.988,75.87L173.711,74.889L174.434,73.814L175.156,72.55L175.879,71.471L176.602,70.4L177.324,69.257L178.047,68.108L178.77,67.05L179.492,65.764L180.215,64.704L180.938,63.462L181.66,62.458L182.383,61.281L183.105,60.092L183.828,59.019L184.551,57.747L185.273,56.62L185.996,55.499L186.719,54.309L187.441,53.251L188.164,52.079L188.887,50.924L189.609,49.917L190.332,48.719L191.055,47.645L191.777,46.489L192.5,45.513L193.223,44.346L193.945,43.281L194.668,42.23L195.391,41.246L196.113,40.285L196.836,39.123L197.559,38.166L198.281,37.096L199.004,36.198L199.727,35.243L200.449,34.341L201.172,33.477L201.895,32.609L202.617,31.728L203.34,30.769L204.063,29.889L204.785,29.287L205.508,28.503L206.23,27.588L206.953,26.939L207.676,26.228L208.398,25.579L209.121,24.869L209.844,24.236L210.566,23.64L211.289,23.008L212.012,22.46L212.734,21.841L213.457,21.289L214.18,20.763L214.902,20.257L215.625,20L216.348,22.451L217.07,25.213L217.793,27.682L218.516,30.245L219.238,32.849L219.961,35.576L220.684,36L221.406,35.947L222.129,35.964L222.852,36.05L223.574,36.112L224.297,36.033L225.02,36.081L225.742,36.083L226.465,36.042L227.188,36.134L227.91,36.162L228.633,36.181L229.355,36.283L230.078,36.206L230.801,36.199L231.523,36.24L232.246,36.249L232.969,36.148L233.691,36.187L234.414,36.175L235.137,36.245L235.859,36.135L236.582,36.126L237.305,36.161L238.027,36.115L238.75,36.141L239.473,36.083L240.195,36.078L240.918,36.124L241.641,36.14L242.363,36.03L243.086,36.002L243.809,35.919L244.531,36.043L245.254,35.905L245.977,35.956L246.699,35.937L247.422,35.928L248.145,35.798L248.867,35.801L249.59,35.82L250.313,35.743L251.035,35.745L251.758,35.722L252.48,35.62L253.203,35.658L253.926,35.632L254.648,35.522L255.371,35.556L256.094,35.55L256.816,35.527L257.539,35.452L258.262,35.414L258.984,35.416L259.707,35.453L260.43,35.438L261.152,35.422L261.875,35.353L262.598,35.354L263.32,35.292L264.043,35.363L264.766,35.313L265.488,35.347L266.211,35.319L266.934,35.339L267.656,35.363L268.379,35.356L269.102,35.392L269.824,35.347L270.547,35.414L271.27,35.482L271.992,35.401L272.715,35.517L273.438,35.495L274.16,35.592L274.883,35.515L275.605,35.557L276.328,35.539L277.051,35.643L277.773,35.59L278.496,35.665L279.219,35.706L279.941,35.678L280.664,35.678L281.387,35.731L282.109,35.642L282.832,35.658L283.555,35.678L284.277,35.583L285,35.629L285.723,35.599L286.445,35.564L287.168,35.551L287.891,35.543L288.613,35.479L289.336,35.415L290.059,35.405L290.781,35.367L291.504,35.331L292.227,35.211L292.949,35.147L293.672,35.151L294.395,35.061L295.117,35.071L295.84,34.971L296.563,34.873L297.285,34.851L298.008,34.807L298.73,34.732L299.453,34.688L300.176,34.541L300.898,34.493L301.621,34.457L302.344,34.395L303.066,34.361L303.789,34.276L304.512,34.22L305.234,34.134L305.957,34.04L306.68,33.997L307.402,33.918L308.125,33.88L308.848,33.851L309.57,33.847L310.293,33.71L311.016,33.682L311.738,33.558L312.461,33.539L313.184,33.489L313.906,33.317L314.629,33.24L315.352,33.293L316.074,33.104L316.797,33.159L317.52,33.07L318.242,33.009L318.965,32.934L319.688,32.815L320.41,32.786L321.133,32.704L321.855,32.621L322.578,32.533L323.301,32.444L324.023,32.333L324.746,32.263L325.469,32.183L326.191,32.105L326.914,32.016L327.637,31.877L328.359,31.763L329.082,31.693L329.805,31.484L330.527,31.495L331.25,31.325L331.973,31.204L332.695,31.039L333.418,30.993L334.141,30.851L334.863,30.747L335.586,30.693L336.309,30.513L337.031,30.339L337.754,30.165L338.477,30.157L339.199,29.979L339.922,29.76L340.645,29.689L341.367,29.583L342.09,29.354L342.813,29.235L343.535,29.051L344.258,28.933L344.98,28.808L345.703,28.656L346.426,28.504L347.148,28.335L347.871,28.187L348.594,28.052L349.316,27.941L350.039,27.714L350.762,27.576L351.484,27.461L352.207,27.305L352.93,27.16L353.652,26.986L354.375,26.859L355.098,26.815L355.82,26.551L356.543,26.465L357.266,26.362L357.988,26.211L358.711,26.047L359.434,25.905L360.156,25.813L360.879,25.711L361.602,25.591L362.324,25.431L363.047,25.355L363.77,25.212L364.492,25.085L365.215,24.973L365.938,24.884L366.66,24.757L367.383,24.682L368.105,24.59L368.828,24.468L369.551,24.352L370.273,24.221L370.996,24.173L371.719,24.138L372.441,24.007L373.164,23.912L373.887,23.837L374.609,23.771L375.332,23.683L376.055,23.612L376.777,23.533L377.5,23.471L378.223,23.402L378.945,23.352L379.668,23.279L380.391,23.185L381.113,23.16L381.836,23.075L382.559,22.995L383.281,22.975L384.004,22.916L384.727,22.858L385.449,22.832L386.172,22.757L386.895,22.713L387.617,22.668L388.34,22.618L389.063,22.612L389.785,22.541L390.508,22.511L391.23,22.481L391.953,22.434L392.676,22.419L393.398,22.36L394.121,22.347L394.844,22.301L395.566,22.267L396.289,22.247L397.012,22.233L397.734,22.191L398.457,22.171L399.18,22.152L399.902,22.102L400.625,22.092L401.348,22.054L402.07,22.049L402.793,22.024L403.516,22.004L404.238,21.989L404.961,21.962L405.684,21.939L406.406,21.923L407.129,21.906L407.852,21.892L408.574,21.896L409.297,21.871L410.02,21.861L410.742,21.844L411.465,21.825L412.188,21.816L412.91,21.793L413.633,21.797L414.355,21.776L415.078,21.777L415.801,21.754L416.523,21.741L417.246,21.753L417.969,21.727L418.691,21.718L419.414,21.716L420.137,21.706L420.859,21.701L421.582,21.7L422.305,21.685L423.027,21.679L423.75,21.674L424.473,21.666L425.195,21.662L425.918,21.656L426.641,21.645L427.363,21.646L428.086,21.638L428.809,21.637L429.531,21.628L430.254,21.623L430.977,21.624L431.699,21.622L432.422,21.616L433.145,21.604L433.867,21.6L434.59,21.602L435.313,21.599L436.035,21.593L436.758,21.592L437.48,21.583L438.203,21.581L438.926,21.576L439.648,21.584L440.371,21.572L441.094,21.572L441.816,21.574L442.539,21.566L443.262,21.564L443.984,21.561L444.707,21.566L445.43,21.557L446.152,21.553L446.875,21.557L447.598,21.554L448.32,21.549L449.043,21.548L449.766,21.55L450.488,21.545L451.211,21.548L451.934,21.546L452.656,21.543L453.379,21.544L454.102,21.538L454.824,21.539L455.547,21.537L456.27,21.536L456.992,21.535L457.715,21.533L458.438,21.533L459.16,21.533L459.883,21.529L460.605,21.53L461.328,21.528L462.051,21.529L462.773,21.526L463.496,21.525L464.219,21.524L464.941,21.524L465.664,21.522L466.387,21.523L467.109,21.522L467.832,21.522L468.555,21.519L469.277,21.52"/><path fill="none" stroke="rgb(203, 47, 13)" stroke-width="1.5" d="M100,38.449L100.723,38.305L101.445,38.014L102.168,37.848L102.891,37.685L103.613,37.402L104.336,37.184L105.059,37.013L105.781,36.733L106.504,36.594L107.227,36.28L107.949,36.267L108.672,35.959L109.395,35.822L110.117,35.61L110.84,35.468L111.563,35.209L112.285,35.077L113.008,34.871L113.73,34.697L114.453,34.338L115.176,34.099L115.898,34.041L116.621,33.77L117.344,33.512L118.066,33.316L118.789,33.216L119.512,32.999L120.234,32.799L120.957,32.564L121.68,32.398L122.402,32.228L123.125,32.004L123.848,31.734L124.57,31.542L125.293,31.391L126.016,31.101L126.738,30.955L127.461,30.801L128.184,30.594L128.906,30.332L129.629,30.043L130.352,30.009L131.074,29.726L131.797,29.598L132.52,29.44L133.242,29.162L133.965,29.036L134.688,28.721L135.41,28.651L136.133,28.318L136.855,28.147L137.578,28.052L138.301,27.809L139.023,27.699L139.746,27.421L140.469,27.331L141.191,27.021L141.914,26.763L142.637,26.643L143.359,26.467L144.082,26.31L144.805,26.077L145.527,25.924L146.25,25.66L146.973,25.495L147.695,25.36L148.418,25.091L149.141,24.976L149.863,24.664L150.586,24.48L151.309,24.32L152.031,24.065L152.754,23.784L153.477,23.643L154.199,23.357L154.922,23.147L155.645,22.965L156.367,22.694L157.09,22.515L157.813,22.28L158.535,22.096L159.258,21.9L159.98,21.685L160.703,24.509L161.426,27.463L162.148,30.26L162.871,33.127L163.594,35.984L164.316,38.825L165.039,39.604L165.762,39.734L166.484,40.068L167.207,40.305L167.93,40.546L168.652,40.805L169.375,41.03L170.098,41.28L170.82,41.544L171.543,41.72L172.266,42.008L172.988,42.113L173.711,42.396L174.434,42.509L175.156,42.753L175.879,42.863L176.602,43.099L177.324,43.227L178.047,43.429L178.77,43.584L179.492,43.774L180.215,43.89L180.938,44.108L181.66,44.128L182.383,44.249L183.105,44.326L183.828,44.376L184.551,44.65L185.273,44.686L185.996,44.857L186.719,44.902L187.441,45.084L188.164,45.134L188.887,45.05L189.609,45.225L190.332,45.324L191.055,45.4L191.777,45.421L192.5,45.55L193.223,45.561L193.945,45.546L194.668,45.637L195.391,45.731L196.113,45.626L196.836,45.732L197.559,45.732L198.281,45.807L199.004,45.735L199.727,45.628L200.449,45.766L201.172,45.776L201.895,45.814L202.617,45.815L203.34,45.754L204.063,45.805L204.785,45.756L205.508,45.774L206.23,45.806L206.953,45.657L207.676,45.689L208.398,45.771L209.121,45.6L209.844,45.586L210.566,45.533L211.289,45.51L212.012,45.452L212.734,45.422L213.457,45.498L214.18,45.312L214.902,45.367L215.625,45.244L216.348,45.2L217.07,45.145L217.793,45.095L218.516,45.158L219.238,45.037L219.961,44.878L220.684,44.88L221.406,44.877L222.129,44.712L222.852,44.71L223.574,44.683L224.297,44.535L225.02,44.421L225.742,44.426L226.465,44.286L227.188,44.198L227.91,44.208L228.633,44.081L229.355,43.967L230.078,43.885L230.801,43.84L231.523,43.652L232.246,43.64L232.969,43.496L233.691,43.521L234.414,43.459L235.137,43.328L235.859,43.219L236.582,43.139L237.305,43.035L238.027,42.877L238.75,42.827L239.473,42.732L240.195,42.705L240.918,42.569L241.641,42.448L242.363,42.414L243.086,42.276L243.809,42.266L244.531,42.125L245.254,41.996L245.977,41.937L246.699,41.8L247.422,41.784L248.145,41.668L248.867,41.58L249.59,41.474L250.313,41.404L251.035,41.385L251.758,41.174L252.48,41.233L253.203,41.034L253.926,40.922L254.648,40.859L255.371,40.813L256.094,40.681L256.816,40.55L257.539,40.467L258.262,40.516L258.984,40.356L259.707,40.243L260.43,40.212L261.152,40.236L261.875,40.061L262.598,40L263.32,39.993L264.043,39.906L264.766,39.858L265.488,39.846L266.211,39.72L266.934,39.726L267.656,39.791L268.379,39.628L269.102,39.665L269.824,39.631L270.547,39.58L271.27,39.61L271.992,39.617L272.715,39.558L273.438,39.551L274.16,39.528L274.883,39.474L275.605,39.359L276.328,39.444L277.051,39.408L277.773,39.454L278.496,39.408L279.219,39.346L279.941,39.306L280.664,39.306L281.387,39.257L282.109,39.165L282.832,39.164L283.555,39.116L284.277,39.116L285,39.002L285.723,38.861L286.445,38.873L287.168,38.844L287.891,38.849L288.613,38.685L289.336,38.682L290.059,38.486L290.781,38.461L291.504,38.384L292.227,38.312L292.949,38.253L293.672,38.132L294.395,37.955L295.117,37.969L295.84,37.941L296.563,37.812L297.285,37.631L298.008,37.586L298.73,37.477L299.453,37.414L300.176,37.336L300.898,37.197L301.621,37.152L302.344,37.06L303.066,36.921L303.789,36.776L304.512,36.721L305.234,36.604L305.957,36.547L306.68,36.513L307.402,36.362L308.125,36.249L308.848,36.19L309.57,36.146L310.293,36.084L311.016,35.948L311.738,35.889L312.461,35.776L313.184,35.769L313.906,35.612L314.629,35.519L315.352,35.448L316.074,35.345L316.797,35.174L317.52,35.108L318.242,35.052L318.965,34.993L319.688,34.887L320.41,34.75L321.133,34.66L321.855,34.6L322.578,34.454L323.301,34.385L324.023,34.146L324.746,34.251L325.469,34.061L326.191,33.956L326.914,33.746L327.637,33.712L328.359,33.601L329.082,33.46L329.805,33.358L330.527,33.307L331.25,33.078L331.973,32.87L332.695,32.714L333.418,32.662L334.141,32.547L334.863,32.403L335.586,32.239L336.309,32.124L337.031,31.963L337.754,31.811L338.477,31.642L339.199,31.493L339.922,31.297L340.645,31.239L341.367,30.977L342.09,30.818L342.813,30.718L343.535,30.444L344.258,30.314L344.98,30.2L345.703,29.994L346.426,29.817L347.148,29.693L347.871,29.43L348.594,29.323L349.316,29.115L350.039,28.946L350.762,28.837L351.484,28.672L352.207,28.513L352.93,28.312L353.652,28.162L354.375,27.92L355.098,27.843L355.82,27.591L356.543,27.54L357.266,27.315L357.988,27.21L358.711,27.001L359.434,26.844L360.156,26.742L360.879,26.547L361.602,26.442L362.324,26.28L363.047,26.173L363.77,26.011L364.492,25.901L365.215,25.732L365.938,25.637L366.66,25.507L367.383,25.408L368.105,25.258L368.828,25.134L369.551,25.04L370.273,24.923L370.996,24.759L371.719,24.711L372.441,24.572L373.164,24.496L373.887,24.384L374.609,24.296L375.332,24.217L376.055,24.083L376.777,24.019L377.5,23.951L378.223,23.839L378.945,23.757L379.668,23.71L380.391,23.595L381.113,23.527L381.836,23.468L382.559,23.386L383.281,23.36L384.004,23.264L384.727,23.222L385.449,23.153L386.172,23.106L386.895,23.02L387.617,22.978L388.34,22.916L389.063,22.873L389.785,22.815L390.508,22.787L391.23,22.72L391.953,22.694L392.676,22.63L393.398,22.614L394.121,22.578L394.844,22.516L395.566,22.488L396.289,22.456L397.012,22.42L397.734,22.397L398.457,22.345L399.18,22.334L399.902,22.276L400.625,22.241L401.348,22.243L402.07,22.186L402.793,22.181L403.516,22.136L404.238,22.119L404.961,22.105L405.684,22.073L406.406,22.066L407.129,22.038L407.852,22.012L408.574,22.001L409.297,21.986L410.02,21.963L410.742,21.94L411.465,21.939L412.188,21.918L412.91,21.907L413.633,21.888L414.355,21.865L415.078,21.865L415.801,21.846L416.523,21.842L417.246,21.813L417.969,21.817L418.691,21.797L419.414,21.78L420.137,21.774L420.859,21.76L421.582,21.757L422.305,21.741L423.027,21.74L423.75,21.727L424.473,21.73L425.195,21.707L425.918,21.705L426.641,21.693L427.363,21.689L428.086,21.681L428.809,21.676L429.531,21.668L430.254,21.662L430.977,21.656L431.699,21.648L432.422,21.646L433.145,21.644L433.867,21.632L434.59,21.627L435.313,21.627L436.035,21.619L436.758,21.616L437.48,21.612L438.203,21.6L438.926,21.609L439.648,21.601L440.371,21.599L441.094,21.596L441.816,21.589L442.539,21.584L443.262,21.588L443.984,21.581L444.707,21.582L445.43,21.575L446.152,21.577L446.875,21.575L447.598,21.571L448.32,21.566L449.043,21.569L449.766,21.565L450.488,21.561L451.211,21.561L451.934,21.558L452.656,21.556L453.379,21.553L454.102,21.553L454.824,21.553L455.547,21.547L456.27,21.546L456.992,21.541L457.715,21.543L458.438,21.539L459.16,21.542L459.883,21.537L460.605,21.539L461.328,21.537L462.051,21.534L462.773,21.536L463.496,21.533L464.219,21.529L464.941,21.53L465.664,21.528L466.387,21.53L467.109,21.531L467.832,21.525L468.555,21.525L469.277,21.523"/><g transform="translate(15,190) scale(1.7) rotate(-90)"><text>Drift</text></g><g transform="translate(315,395) scale(1.8)"><text></text></g><g transform="translate(0,350)" fill="none" font-size="10" font-family="sans-serif" text-anchor="middle"><path class="domain" stroke="currentColor" d="M100,6V0H470V6"/><g class="tick" opacity="1" transform="translate(136.96669666966696,0)"><line stroke="currentColor" y2="6"/><text fill="currentColor" y="9" dy="0.71em" font-size="20px"> </text></g><g class="tick" opacity="1" transform="translate(173.97039703970398,0)"><line stroke="currentColor" y2="6"/><text fill="currentColor" y="9" dy="0.71em" font-size="20px">20</text></g><g class="tick" opacity="1" transform="translate(210.97409740974098,0)"><line stroke="currentColor" y2="6"/><text fill="currentColor" y="9" dy="0.71em" font-size="20px"> </text></g><g class="tick" opacity="1" transform="translate(247.97779777977803,0)"><line stroke="currentColor" y2="6"/><text fill="currentColor" y="9" dy="0.71em" font-size="20px">40</text></g><g class="tick" opacity="1" transform="translate(284.981498149815,0)"><line stroke="currentColor" y2="6"/><text fill="currentColor" y="9" dy="0.71em" font-size="20px"> </text></g><g class="tick" opacity="1" transform="translate(321.985198519852,0)"><line stroke="currentColor" y2="6"/><text fill="currentColor" y="9" dy="0.71em" font-size="20px">60</text></g><g class="tick" opacity="1" transform="translate(358.988898889889,0)"><line stroke="currentColor" y2="6"/><text fill="currentColor" y="9" dy="0.71em" font-size="20px"> </text></g><g class="tick" opacity="1" transform="translate(395.992599259926,0)"><line stroke="currentColor" y2="6"/><text fill="currentColor" y="9" dy="0.71em" font-size="20px">80</text></g><g class="tick" opacity="1" transform="translate(432.996299629963,0)"><line stroke="currentColor" y2="6"/><text fill="currentColor" y="9" dy="0.71em" font-size="20px"> </text></g><g class="tick" opacity="1" transform="translate(470,0)"><line stroke="currentColor" y2="6"/><text fill="currentColor" y="9" dy="0.71em" font-size="20px">100</text></g></g><g transform="translate(100,0)" fill="none" font-size="10" font-family="sans-serif" text-anchor="end"><path class="domain" stroke="currentColor" d="M-6,350H0V20H-6"/><g class="tick" opacity="1" transform="translate(0,323.54695207779406)"><line stroke="currentColor" x2="-6"/><text fill="currentColor" x="-9" dy="0.32em" font-size="20px">0.55</text></g><g class="tick" opacity="1" transform="translate(0,295.2304472509563)"><line stroke="currentColor" x2="-6"/><text fill="currentColor" x="-9" dy="0.32em" font-size="20px">0.50</text></g><g class="tick" opacity="1" transform="translate(0,266.9139424241186)"><line stroke="currentColor" x2="-6"/><text fill="currentColor" x="-9" dy="0.32em" font-size="20px">0.45</text></g><g class="tick" opacity="1" transform="translate(0,238.59743759728084)"><line stroke="currentColor" x2="-6"/><text fill="currentColor" x="-9" dy="0.32em" font-size="20px">0.40</text></g><g class="tick" opacity="1" transform="translate(0,210.28093277044312)"><line stroke="currentColor" x2="-6"/><text fill="currentColor" x="-9" dy="0.32em" font-size="20px">0.35</text></g><g class="tick" opacity="1" transform="translate(0,181.9644279436054)"><line stroke="currentColor" x2="-6"/><text fill="currentColor" x="-9" dy="0.32em" font-size="20px">0.30</text></g><g class="tick" opacity="1" transform="translate(0,153.64792311676769)"><line stroke="currentColor" x2="-6"/><text fill="currentColor" x="-9" dy="0.32em" font-size="20px">0.25</text></g><g class="tick" opacity="1" transform="translate(0,125.33141828992993)"><line stroke="currentColor" x2="-6"/><text fill="currentColor" x="-9" dy="0.32em" font-size="20px">0.20</text></g><g class="tick" opacity="1" transform="translate(0,97.01491346309223)"><line stroke="currentColor" x2="-6"/><text fill="currentColor" x="-9" dy="0.32em" font-size="20px">0.15</text></g><g class="tick" opacity="1" transform="translate(0,68.69840863625447)"><line stroke="currentColor" x2="-6"/><text fill="currentColor" x="-9" dy="0.32em" font-size="20px">0.10</text></g><g class="tick" opacity="1" transform="translate(0,40.381903809416805)"><line stroke="currentColor" x2="-6"/><text fill="currentColor" x="-9" dy="0.32em" font-size="20px">0.05</text></g></g><circle cx="355" cy="150" r="8" style="fill: rgb(35, 23, 27);"/><circle cx="355" cy="175" r="8" style="fill: rgb(69, 105, 238);"/><circle cx="355" cy="200" r="8" style="fill: rgb(38, 188, 225);"/><circle cx="355" cy="225" r="8" style="fill: rgb(63, 243, 147);"/><circle cx="355" cy="250" r="8" style="fill: rgb(149, 251, 81);"/><circle cx="355" cy="275" r="8" style="fill: rgb(236, 209, 46);"/><circle cx="355" cy="300" r="8" style="fill: rgb(255, 130, 29);"/><circle cx="355" cy="325" r="8" style="fill: rgb(203, 47, 13);"/><text x="370" y="150" text-anchor="left" font-size="22" alignment-baseline="middle" style="fill: rgb(35, 23, 27);"> = 0</text><text x="370" y="175" text-anchor="left" font-size="22" alignment-baseline="middle" style="fill: rgb(69, 105, 238);"> = 0.22</text><text x="370" y="200" text-anchor="left" font-size="22" alignment-baseline="middle" style="fill: rgb(38, 188, 225);"> = 0.45</text><text x="370" y="225" text-anchor="left" font-size="22" alignment-baseline="middle" style="fill: rgb(63, 243, 147);"> = 0.67</text><text x="370" y="250" text-anchor="left" font-size="22" alignment-baseline="middle" style="fill: rgb(149, 251, 81);"> = 0.9</text><text x="370" y="275" text-anchor="left" font-size="22" alignment-baseline="middle" style="fill: rgb(236, 209, 46);"> = 1.12</text><text x="370" y="300" text-anchor="left" font-size="22" alignment-baseline="middle" style="fill: rgb(255, 130, 29);"> = 1.35</text><text x="370" y="325" text-anchor="left" font-size="22" alignment-baseline="middle" style="fill: rgb(203, 47, 13);"> = 1.57</text></svg>