<svg xmlns="http://www.w3.org/2000/svg" class="bg-white" width="500" height="400" viewBox="-10 -1 500 400"><path fill="none" stroke="rgb(35, 23, 27)" stroke-width="1.5" d="M100,68.461L100.723,68.738L101.445,68.597L102.168,68.838L102.891,68.912L103.613,69.077L104.336,69.304L105.059,69.25L105.781,69.489L106.504,69.577L107.227,69.696L107.949,70.111L108.672,70.016L109.395,70.405L110.117,70.371L110.84,70.62L111.563,70.711L112.285,70.848L113.008,71.031L113.73,71.274L114.453,71.431L115.176,71.672L115.898,71.91L116.621,72.064L117.344,72.219L118.066,72.431L118.789,72.614L119.512,72.768L120.234,73.051L120.957,73.099L121.68,73.356L122.402,73.612L123.125,73.797L123.848,74.275L124.57,74.357L125.293,74.405L126.016,74.809L126.738,74.944L127.461,75.266L128.184,75.53L128.906,75.813L129.629,75.98L130.352,76.15L131.074,76.564L131.797,76.94L132.52,77.136L133.242,77.316L133.965,77.753L134.688,77.997L135.41,78.259L136.133,78.529L136.855,78.888L137.578,79.246L138.301,79.518L139.023,79.987L139.746,80.378L140.469,80.583L141.191,80.95L141.914,81.293L142.637,81.541L143.359,82.054L144.082,82.444L144.805,82.846L145.527,83.143L146.25,83.66L146.973,84.18L147.695,84.515L148.418,84.826L149.141,85.307L149.863,85.684L150.586,85.937L151.309,86.706L152.031,87.147L152.754,87.619L153.477,88.14L154.199,88.566L154.922,89.18L155.645,89.621L156.367,90.197L157.09,90.757L157.813,91.326L158.535,91.895L159.258,92.452L159.98,93.046L160.703,93.633L161.426,94.133L162.148,94.834L162.871,95.5L163.594,96.207L164.316,96.816L165.039,97.457L165.762,98.081L166.484,98.869L167.207,99.541L167.93,100.438L168.652,101.162L169.375,101.953L170.098,102.62L170.82,103.407L171.543,104.335L172.266,105.068L172.988,106.003L173.711,106.937L174.434,107.767L175.156,108.711L175.879,109.623L176.602,110.668L177.324,111.58L178.047,112.652L178.77,113.53L179.492,114.816L180.215,115.925L180.938,116.839L181.66,118.131L182.383,119.324L183.105,120.408L183.828,121.613L184.551,122.835L185.273,124.266L185.996,125.396L186.719,126.727L187.441,128.268L188.164,129.558L188.887,131.05L189.609,132.486L190.332,134.048L191.055,135.579L191.777,137.079L192.5,138.809L193.223,140.475L193.945,142.276L194.668,144.054L195.391,145.704L196.113,147.713L196.836,149.641L197.559,151.632L198.281,153.642L199.004,155.758L199.727,157.97L200.449,160.259L201.172,162.69L201.895,164.967L202.617,167.47L203.34,169.958L204.063,172.585L204.785,175.543L205.508,178.08L206.23,180.935L206.953,183.83L207.676,186.943L208.398,190.227L209.121,193.28L209.844,196.725L210.566,199.948L211.289,203.573L212.012,207.257L212.734,210.934L213.457,214.637L214.18,218.444L214.902,222.348L215.625,226.303L216.348,230.328L217.07,234.488L217.793,238.74L218.516,242.949L219.238,247.283L219.961,251.719L220.684,256.048L221.406,260.161L222.129,264.693L222.852,268.889L223.574,273.174L224.297,277.582L225.02,281.815L225.742,286.098L226.465,290.331L227.188,294.381L227.91,298.524L228.633,302.451L229.355,306.312L230.078,310.139L230.801,313.781L231.523,317.194L232.246,320.509L232.969,323.743L233.691,326.793L234.414,329.606L235.137,332.406L235.859,334.95L236.582,337.501L237.305,339.529L238.027,341.595L238.75,343.426L239.473,345.022L240.195,346.358L240.918,347.371L241.641,348.387L242.363,349.074L243.086,349.548L243.809,349.735L244.531,350L245.254,349.749L245.977,349.323L246.699,348.798L247.422,348.029L248.145,347.092L248.867,345.764L249.59,344.416L250.313,342.962L251.035,340.782L251.758,338.69L252.48,336.536L253.203,334.233L253.926,331.679L254.648,329.056L255.371,326.469L256.094,323.029L256.816,320.081L257.539,317.111L258.262,313.281L258.984,309.711L259.707,306.113L260.43,302.363L261.152,298.491L261.875,294.555L262.598,290.433L263.32,286.274L264.043,282.066L264.766,277.838L265.488,273.681L266.211,269.029L266.934,264.765L267.656,259.876L268.379,255.245L269.102,250.521L269.824,245.961L270.547,241.044L271.27,236.228L271.992,231.621L272.715,226.448L273.438,221.435L274.16,216.897L274.883,211.771L275.605,207.054L276.328,201.624L277.051,196.535L277.773,191.488L278.496,186.402L279.219,181.145L279.941,175.843L280.664,170.665L281.387,165.245L282.109,159.707L282.832,154.219L283.555,148.941L284.277,143.619L285,138.607L285.723,133.421L286.445,128.605L287.168,123.707L287.891,118.951L288.613,114.448L289.336,109.82L290.059,105.467L290.781,101.293L291.504,97.083L292.227,92.991L292.949,88.95L293.672,85.166L294.395,81.578L295.117,78.002L295.84,74.236L296.563,70.772L297.285,67.486L298.008,64.419L298.73,61.227L299.453,58.25L300.176,55.551L300.898,52.796L301.621,50.835L302.344,52.456L303.066,54.127L303.789,55.954L304.512,57.748L305.234,59.627L305.957,61.55L306.68,59.983L307.402,58.621L308.125,57.215L308.848,56.005L309.57,54.592L310.293,53.48L311.016,52.211L311.738,50.869L312.461,49.889L313.184,48.81L313.906,47.706L314.629,46.887L315.352,45.78L316.074,44.972L316.797,43.984L317.52,42.961L318.242,42.306L318.965,41.359L319.688,40.685L320.41,39.571L321.133,39.225L321.855,38.393L322.578,37.63L323.301,37.113L324.023,36.487L324.746,35.912L325.469,35.478L326.191,34.83L326.914,34.226L327.637,33.725L328.359,33.1L329.082,32.857L329.805,32.39L330.527,31.961L331.25,31.418L331.973,30.849L332.695,30.734L333.418,30.344L334.141,30.155L334.863,29.322L335.586,29.248L336.309,29.03L337.031,28.715L337.754,28.283L338.477,28.226L339.199,27.669L339.922,27.655L340.645,27.15L341.367,27.12L342.09,26.708L342.813,26.46L343.535,26.549L344.258,25.969L344.98,25.929L345.703,25.885L346.426,25.641L347.148,25.527L347.871,25.3L348.594,24.779L349.316,24.616L350.039,24.872L350.762,24.719L351.484,24.376L352.207,24.305L352.93,24L353.652,23.996L354.375,24.213L355.098,23.238L355.82,23.608L356.543,23.599L357.266,23.653L357.988,23.314L358.711,23.003L359.434,23.234L360.156,22.907L360.879,23.111L361.602,22.948L362.324,23.027L363.047,22.443L363.77,22.974L364.492,22.528L365.215,22.331L365.938,22.351L366.66,22.063L367.383,22.466L368.105,22.304L368.828,22.288L369.551,22.379L370.273,22.591L370.996,22.114L371.719,22.185L372.441,22.205L373.164,22.327L373.887,22.031L374.609,22.838L375.332,22.476L376.055,21.908L376.777,21.469L377.5,21.246L378.223,21.511L378.945,22.041L379.668,21.502L380.391,21.555L381.113,21.8L381.836,21.59L382.559,21.695L383.281,21.45L384.004,21.16L384.727,22.2L385.449,21.819L386.172,22.187L386.895,21.766L387.617,22.263L388.34,22.95L389.063,22.177L389.785,21.864L390.508,21.978L391.23,21.799L391.953,22.986L392.676,22.295L393.398,22.275L394.121,22.678L394.844,22.555L395.566,22.315L396.289,22.305L397.012,22.135L397.734,22.468L398.457,22.375L399.18,22.737L399.902,21.558L400.625,24.506L401.348,24.239L402.07,23.591L402.793,23.711L403.516,23.039L404.238,23.817L404.961,25.072L405.684,25.412L406.406,26.281L407.129,25.811L407.852,27.646L408.574,26.29L409.297,29.423L410.02,28.334L410.742,25.532L411.465,27.15L412.188,26.584L412.91,29.028L413.633,28.781L414.355,29.863L415.078,31.319L415.801,32.729L416.523,31.945L417.246,32.231L417.969,32.55L418.691,36.204L419.414,32.338L420.137,34.569L420.859,34.501L421.582,33.412L422.305,34.89L423.027,33.845L423.75,35.918L424.473,35.962L425.195,34.521L425.918,33.859L426.641,34.573L427.363,35.579L428.086,34.612L428.809,33.58L429.531,32.142L430.254,32.442L430.977,31.612L431.699,31.972L432.422,32.087L433.145,30.278L433.867,29.691L434.59,30.719L435.313,28.951L436.035,29.068L436.758,28.502L437.48,28.375L438.203,28.963L438.926,27.447L439.648,26.671L440.371,27.763L441.094,25.452L441.816,26.678L442.539,26.244L443.262,25.924L443.984,26.107L444.707,25.151L445.43,25.384L446.152,24.954L446.875,24.413L447.598,24.17L448.32,24.042L449.043,24.123L449.766,23.615L450.488,23.6L451.211,22.996L451.934,22.366L452.656,23.247L453.379,22.154L454.102,22.482L454.824,22.551L455.547,22.599L456.27,22.53L456.992,22.15L457.715,22.076L458.438,21.707L459.16,21.996L459.883,21.811L460.605,21.57L461.328,21.415L462.051,21.733L462.773,21.662L463.496,21.374L464.219,21.488L464.941,21.457L465.664,21.418L466.387,21.077L467.109,21.147L467.832,21.281L468.555,20.901L469.277,20.953"/><path fill="none" stroke="rgb(69, 105, 238)" stroke-width="1.5" d="M100,68.278L100.723,68.264L101.445,68.444L102.168,68.641L102.891,68.673L103.613,68.954L104.336,68.91L105.059,69.194L105.781,69.215L106.504,69.392L107.227,69.55L107.949,69.67L108.672,69.864L109.395,70.115L110.117,69.986L110.84,70.31L111.563,70.448L112.285,70.531L113.008,70.782L113.73,70.93L114.453,71.092L115.176,71.219L115.898,71.327L116.621,71.517L117.344,71.753L118.066,72.001L118.789,72.144L119.512,72.439L120.234,72.543L120.957,72.822L121.68,73.025L122.402,73.216L123.125,73.344L123.848,73.538L124.57,73.81L125.293,74.013L126.016,74.264L126.738,74.576L127.461,74.692L128.184,74.935L128.906,75.119L129.629,75.498L130.352,75.672L131.074,76.002L131.797,76.171L132.52,76.531L133.242,76.869L133.965,77.151L134.688,77.438L135.41,77.7L136.133,78.009L136.855,78.12L137.578,78.647L138.301,78.889L139.023,79.263L139.746,79.729L140.469,79.985L141.191,80.346L141.914,80.652L142.637,80.866L143.359,81.352L144.082,81.85L144.805,82.025L145.527,82.528L146.25,82.937L146.973,83.29L147.695,83.632L148.418,84.1L149.141,84.481L149.863,84.926L150.586,85.384L151.309,85.823L152.031,86.342L152.754,86.843L153.477,87.195L154.199,87.875L154.922,88.273L155.645,88.667L156.367,89.216L157.09,89.743L157.813,90.312L158.535,90.888L159.258,91.526L159.98,92.001L160.703,92.605L161.426,93.247L162.148,93.86L162.871,94.344L163.594,95.114L164.316,95.705L165.039,96.376L165.762,97.247L166.484,97.719L167.207,98.333L167.93,99.139L168.652,99.902L169.375,100.735L170.098,101.479L170.82,102.219L171.543,103.022L172.266,103.755L172.988,104.659L173.711,105.448L174.434,106.482L175.156,107.137L175.879,107.996L176.602,109.143L177.324,110.003L178.047,110.988L178.77,111.846L179.492,113.073L180.215,113.969L180.938,114.987L181.66,116.293L182.383,117.442L183.105,118.675L183.828,119.737L184.551,120.872L185.273,122.116L185.996,123.338L186.719,124.555L187.441,125.687L188.164,127.146L188.887,128.444L189.609,129.943L190.332,131.254L191.055,132.855L191.777,134.305L192.5,135.875L193.223,137.42L193.945,139.069L194.668,140.733L195.391,142.387L196.113,143.99L196.836,146.006L197.559,147.837L198.281,149.455L199.004,151.363L199.727,153.422L200.449,155.553L201.172,157.643L201.895,159.577L202.617,161.859L203.34,164.004L204.063,166.407L204.785,168.8L205.508,170.961L206.23,173.629L206.953,176.184L207.676,178.575L208.398,181.057L209.121,183.983L209.844,186.682L210.566,189.346L211.289,192.367L212.012,195.174L212.734,197.926L213.457,201.328L214.18,204.22L214.902,207.401L215.625,210.553L216.348,213.764L217.07,216.754L217.793,220.012L218.516,223.411L219.238,226.626L219.961,230.199L220.684,233.364L221.406,236.557L222.129,240.304L222.852,243.509L223.574,247.016L224.297,250.351L225.02,253.474L225.742,256.801L226.465,259.96L227.188,263.215L227.91,266.324L228.633,269.547L229.355,272.41L230.078,275.997L230.801,278.284L231.523,281.235L232.246,284.148L232.969,287.134L233.691,289.063L234.414,291.357L235.137,293.613L235.859,295.875L236.582,297.966L237.305,299.683L238.027,301.574L238.75,303.667L239.473,304.327L240.195,305.735L240.918,307.341L241.641,307.734L242.363,308.596L243.086,308.886L243.809,309.201L244.531,309.53L245.254,309.663L245.977,309.41L246.699,309.322L247.422,308.634L248.145,308.101L248.867,307.008L249.59,306.1L250.313,304.787L251.035,303.555L251.758,301.936L252.48,300.42L253.203,298.444L253.926,296.249L254.648,294.674L255.371,292.008L256.094,289.843L256.816,287.212L257.539,284.428L258.262,281.58L258.984,278.676L259.707,275.763L260.43,272.595L261.152,269.281L261.875,266.069L262.598,262.686L263.32,259.285L264.043,255.672L264.766,252.131L265.488,248.098L266.211,244.441L266.934,240.602L267.656,236.617L268.379,232.887L269.102,228.824L269.824,224.74L270.547,220.488L271.27,216.293L271.992,212.06L272.715,207.818L273.438,203.443L274.16,199.24L274.883,194.816L275.605,190.324L276.328,185.684L277.051,181.662L277.773,177.214L278.496,172.295L279.219,167.7L279.941,163.237L280.664,158.541L281.387,153.884L282.109,149.092L282.832,144.31L283.555,139.799L284.277,135.016L285,130.421L285.723,126.29L286.445,121.888L287.168,117.264L287.891,113.006L288.613,108.824L289.336,104.796L290.059,100.767L290.781,97.124L291.504,93.41L292.227,89.472L292.949,86.126L293.672,82.419L294.395,79.076L295.117,75.66L295.84,72.62L296.563,69.454L297.285,66.301L298.008,63.384L298.73,60.515L299.453,57.851L300.176,55.183L300.898,54.121L301.621,55.697L302.344,57.362L303.066,59.186L303.789,61.005L304.512,62.78L305.234,64.408L305.957,63.028L306.68,61.431L307.402,60.004L308.125,58.651L308.848,57.285L309.57,56L310.293,54.934L311.016,53.698L311.738,52.565L312.461,51.519L313.184,50.294L313.906,49.097L314.629,47.933L315.352,47.108L316.074,46.314L316.797,45.364L317.52,44.39L318.242,43.65L318.965,42.746L319.688,42.074L320.41,41.023L321.133,40.507L321.855,39.676L322.578,38.944L323.301,38.657L324.023,37.742L324.746,37.447L325.469,36.509L326.191,36.131L326.914,35.525L327.637,34.966L328.359,34.313L329.082,34.07L329.805,33.292L330.527,32.852L331.25,32.598L331.973,31.701L332.695,31.628L333.418,31.215L334.141,31.241L334.863,30.62L335.586,30.105L336.309,29.755L337.031,29.405L337.754,29.092L338.477,28.344L339.199,28.495L339.922,28.461L340.645,27.991L341.367,27.922L342.09,26.982L342.813,27.218L343.535,26.676L344.258,26.261L344.98,26.464L345.703,26.252L346.426,26.482L347.148,26.047L347.871,25.497L348.594,25.253L349.316,25.538L350.039,25.101L350.762,25.013L351.484,24.502L352.207,24.682L352.93,24.511L353.652,23.961L354.375,23.696L355.098,23.524L355.82,23.904L356.543,24.523L357.266,23.403L357.988,24.194L358.711,24.35L359.434,23.124L360.156,23.232L360.879,23.03L361.602,23.791L362.324,22.894L363.047,22.702L363.77,23.117L364.492,22.383L365.215,23.759L365.938,22.92L366.66,23.097L367.383,22.543L368.105,22.48L368.828,22.384L369.551,22.956L370.273,21.92L370.996,21.596L371.719,22.667L372.441,21.466L373.164,22.278L373.887,22.226L374.609,21.269L375.332,21.454L376.055,21.264L376.777,22.897L377.5,22.537L378.223,22.657L378.945,21.858L379.668,22.13L380.391,21.849L381.113,21.629L381.836,21.343L382.559,22.127L383.281,21.244L384.004,21.814L384.727,22.917L385.449,21.326L386.172,23.674L386.895,21.562L387.617,22.131L388.34,21.636L389.063,21.454L389.785,23.241L390.508,20.648L391.23,22.665L391.953,21.84L392.676,22.08L393.398,21.554L394.121,21.622L394.844,21.468L395.566,22.234L396.289,22.848L397.012,22.137L397.734,22.684L398.457,22.172L399.18,23.204L399.902,21.373L400.625,23.094L401.348,22.832L402.07,22.423L402.793,24.666L403.516,25.63L404.238,25.389L404.961,23.314L405.684,25.186L406.406,24.738L407.129,24.07L407.852,25.413L408.574,26.604L409.297,26.194L410.02,27.851L410.742,27.313L411.465,27.625L412.188,27.905L412.91,27.847L413.633,30.236L414.355,27.735L415.078,27.798L415.801,29.832L416.523,29.218L417.246,31.203L417.969,33.004L418.691,30.999L419.414,33.365L420.137,31.916L420.859,32.46L421.582,30.988L422.305,31.564L423.027,33.506L423.75,31.856L424.473,33.282L425.195,33.725L425.918,31.823L426.641,33.231L427.363,31.561L428.086,33.816L428.809,33.083L429.531,30.733L430.254,31.146L430.977,30.934L431.699,30.124L432.422,29.687L433.145,29.914L433.867,29.669L434.59,30.478L435.313,29.412L436.035,28.71L436.758,28.622L437.48,27.384L438.203,26.3L438.926,26.873L439.648,27.811L440.371,26.088L441.094,26.021L441.816,25.83L442.539,25.815L443.262,25.515L443.984,25.509L444.707,25.273L445.43,25.02L446.152,23.708L446.875,24.108L447.598,23.647L448.32,23.835L449.043,23.461L449.766,23.177L450.488,22.412L451.211,22.699L451.934,22.846L452.656,22.529L453.379,22.353L454.102,22.263L454.824,22.545L455.547,22.31L456.27,22.012L456.992,21.8L457.715,21.835L458.438,21.484L459.16,21.427L459.883,21.604L460.605,21.713L461.328,21.215L462.051,21.504L462.773,21.289L463.496,21.398L464.219,21.249L464.941,21.474L465.664,21.271L466.387,21.201L467.109,21.247L467.832,21.014L468.555,21.09L469.277,21.073"/><path fill="none" stroke="rgb(38, 188, 225)" stroke-width="1.5" d="M100,67.164L100.723,67.341L101.445,67.493L102.168,67.603L102.891,67.784L103.613,67.766L104.336,67.95L105.059,68.114L105.781,68.128L106.504,68.428L107.227,68.487L107.949,68.744L108.672,68.808L109.395,68.857L110.117,69.075L110.84,69.124L111.563,69.309L112.285,69.389L113.008,69.725L113.73,69.981L114.453,69.935L115.176,70.084L115.898,70.353L116.621,70.467L117.344,70.491L118.066,70.649L118.789,70.914L119.512,71.077L120.234,71.316L120.957,71.572L121.68,71.782L122.402,71.96L123.125,72.07L123.848,72.235L124.57,72.529L125.293,72.771L126.016,72.937L126.738,73.122L127.461,73.461L128.184,73.586L128.906,73.93L129.629,74.091L130.352,74.38L131.074,74.561L131.797,74.742L132.52,75.128L133.242,75.317L133.965,75.661L134.688,75.797L135.41,76.204L136.133,76.41L136.855,76.58L137.578,76.898L138.301,77.187L139.023,77.57L139.746,77.941L140.469,77.968L141.191,78.508L141.914,78.989L142.637,79.235L143.359,79.427L144.082,79.932L144.805,80.139L145.527,80.466L146.25,80.853L146.973,81.372L147.695,81.663L148.418,82.059L149.141,82.458L149.863,82.962L150.586,83.211L151.309,83.633L152.031,84.165L152.754,84.475L153.477,84.857L154.199,85.493L154.922,85.801L155.645,86.311L156.367,86.852L157.09,87.391L157.813,87.743L158.535,88.344L159.258,88.814L159.98,89.427L160.703,89.907L161.426,90.419L162.148,90.941L162.871,91.479L163.594,91.937L164.316,92.718L165.039,93.322L165.762,93.869L166.484,94.371L167.207,95.207L167.93,95.702L168.652,96.499L169.375,96.967L170.098,97.958L170.82,98.505L171.543,99.333L172.266,100.104L172.988,100.608L173.711,101.564L174.434,102.251L175.156,103.199L175.879,104.04L176.602,104.721L177.324,105.644L178.047,106.294L178.77,107.445L179.492,108.12L180.215,109.072L180.938,110.081L181.66,110.892L182.383,112L183.105,112.956L183.828,114.105L184.551,115.11L185.273,115.974L185.996,117.254L186.719,118.202L187.441,119.287L188.164,120.576L188.887,121.736L189.609,122.831L190.332,124.026L191.055,125.267L191.777,126.628L192.5,127.8L193.223,129.251L193.945,130.592L194.668,131.848L195.391,133.464L196.113,134.873L196.836,136.232L197.559,137.727L198.281,138.925L199.004,140.621L199.727,142.249L200.449,143.852L201.172,145.446L201.895,146.959L202.617,148.906L203.34,150.412L204.063,152.214L204.785,153.823L205.508,155.617L206.23,157.644L206.953,159.193L207.676,161.086L208.398,162.993L209.121,164.976L209.844,166.601L210.566,168.637L211.289,170.719L212.012,172.673L212.734,174.551L213.457,176.578L214.18,178.206L214.902,180.581L215.625,182.383L216.348,184.489L217.07,186.692L217.793,188.474L218.516,190.433L219.238,192.613L219.961,194.626L220.684,196.745L221.406,198.664L222.129,200.269L222.852,202.244L223.574,204.16L224.297,206.103L225.02,208.121L225.742,209.589L226.465,211.509L227.188,213.356L227.91,215.097L228.633,216.541L229.355,218.375L230.078,219.813L230.801,221.193L231.523,222.384L232.246,223.761L232.969,225.253L233.691,226.346L234.414,227.588L235.137,228.545L235.859,229.451L236.582,230.437L237.305,231.379L238.027,231.756L238.75,232.743L239.473,233.151L240.195,233.773L240.918,234.104L241.641,234.428L242.363,234.251L243.086,234.736L243.809,234.553L244.531,234.568L245.254,234.401L245.977,233.842L246.699,233.381L247.422,232.583L248.145,232.299L248.867,231.128L249.59,230.479L250.313,229.594L251.035,228.397L251.758,227.585L252.48,226.016L253.203,224.704L253.926,223.4L254.648,222.094L255.371,220.145L256.094,218.934L256.816,217.066L257.539,215.029L258.262,213.161L258.984,211.103L259.707,209.194L260.43,206.855L261.152,204.979L261.875,202.983L262.598,200.691L263.32,198.08L264.043,195.728L264.766,193.425L265.488,191.319L266.211,188.112L266.934,185.967L267.656,183.601L268.379,180.704L269.102,178.101L269.824,175.258L270.547,172.476L271.27,169.554L271.992,166.428L272.715,163.552L273.438,161.099L274.16,157.734L274.883,154.664L275.605,152.003L276.328,148.643L277.051,145.908L277.773,142.585L278.496,139.466L279.219,136.761L279.941,133.387L280.664,130.467L281.387,127.148L282.109,123.815L282.832,120.515L283.555,117.275L284.277,113.799L285,110.924L285.723,107.497L286.445,104.318L287.168,101.283L287.891,98.104L288.613,94.899L289.336,91.98L290.059,89.098L290.781,86.154L291.504,83.439L292.227,80.574L292.949,77.664L293.672,75.141L294.395,72.457L295.117,69.872L295.84,67.185L296.563,64.688L297.285,62.361L298.008,59.82L298.73,61.413L299.453,62.84L300.176,64.931L300.898,67.073L301.621,68.985L302.344,71.045L303.066,70.657L303.789,69.404L304.512,67.756L305.234,66.498L305.957,65.03L306.68,63.926L307.402,62.539L308.125,61.301L308.848,60.147L309.57,59.121L310.293,57.821L311.016,56.51L311.738,55.628L312.461,54.309L313.184,53.47L313.906,52.474L314.629,51.397L315.352,50.559L316.074,49.393L316.797,48.555L317.52,47.614L318.242,46.496L318.965,45.774L319.688,44.842L320.41,44.009L321.133,43.116L321.855,42.323L322.578,42.06L323.301,41.17L324.023,40.523L324.746,39.601L325.469,39.181L326.191,38.401L326.914,37.727L327.637,37.016L328.359,36.615L329.082,36.347L329.805,35.467L330.527,35.054L331.25,34.572L331.973,34.119L332.695,33.624L333.418,33.258L334.141,32.654L334.863,32.502L335.586,31.934L336.309,31.379L337.031,31.028L337.754,30.683L338.477,30.393L339.199,29.949L339.922,29.751L340.645,29.492L341.367,29.059L342.09,29.011L342.813,28.531L343.535,28.047L344.258,27.44L344.98,27.572L345.703,27.866L346.426,27.234L347.148,27.083L347.871,26.732L348.594,26.377L349.316,27.08L350.039,26.076L350.762,26.412L351.484,25.932L352.207,24.945L352.93,25.898L353.652,24.79L354.375,25.674L355.098,24.667L355.82,24.427L356.543,24.981L357.266,24.416L357.988,24.517L358.711,23.828L359.434,23.998L360.156,24.282L360.879,23.857L361.602,23.839L362.324,23.982L363.047,23.629L363.77,23.002L364.492,23.246L365.215,23.14L365.938,22.683L366.66,22.99L367.383,23.24L368.105,22.509L368.828,23.053L369.551,22.309L370.273,23.22L370.996,22.044L371.719,22.478L372.441,22.848L373.164,22.212L373.887,22.486L374.609,21.037L375.332,22.277L376.055,21.784L376.777,22.758L377.5,21.618L378.223,22.263L378.945,22.275L379.668,23.695L380.391,22.145L381.113,22.244L381.836,22.112L382.559,22.159L383.281,21.725L384.004,21.924L384.727,22.56L385.449,21.098L386.172,22.236L386.895,21.776L387.617,20.943L388.34,21.971L389.063,22.353L389.785,22.219L390.508,20L391.23,22.375L391.953,22.813L392.676,21.731L393.398,21.682L394.121,21.989L394.844,22.496L395.566,22.545L396.289,21.144L397.012,22.184L397.734,22.494L398.457,21.875L399.18,20.903L399.902,21.831L400.625,21.955L401.348,21.547L402.07,23.468L402.793,22.446L403.516,24.232L404.238,24.309L404.961,25.683L405.684,23.732L406.406,22.334L407.129,22.364L407.852,25.036L408.574,24.126L409.297,22.121L410.02,24.762L410.742,22.45L411.465,25.178L412.188,24.516L412.91,23.625L413.633,24.393L414.355,24.952L415.078,27.901L415.801,26.289L416.523,26.322L417.246,26.985L417.969,25.516L418.691,28.364L419.414,27.269L420.137,25.654L420.859,28.758L421.582,26.703L422.305,27.281L423.027,29.336L423.75,27.377L424.473,27.994L425.195,27.725L425.918,28.688L426.641,28.704L427.363,27.688L428.086,28.263L428.809,26.956L429.531,29.256L430.254,27.603L430.977,27.522L431.699,27.007L432.422,26.833L433.145,26.431L433.867,25.315L434.59,26.055L435.313,26.405L436.035,27.517L436.758,25.757L437.48,25.665L438.203,25.836L438.926,25.556L439.648,25.254L440.371,25.253L441.094,24.9L441.816,24.324L442.539,24.055L443.262,23.556L443.984,23.727L444.707,24.392L445.43,22.618L446.152,22.86L446.875,23.489L447.598,23.111L448.32,22.566L449.043,23.196L449.766,22.485L450.488,22.491L451.211,22.274L451.934,22.058L452.656,21.608L453.379,22.264L454.102,21.91L454.824,21.614L455.547,21.497L456.27,21.635L456.992,21.722L457.715,21.363L458.438,21.63L459.16,21.398L459.883,21.492L460.605,21.32L461.328,21.137L462.051,21.301L462.773,21.02L463.496,21.28L464.219,21.296L464.941,21.332L465.664,20.994L466.387,20.954L467.109,20.951L467.832,20.891L468.555,20.891L469.277,20.858"/><path fill="none" stroke="rgb(63, 243, 147)" stroke-width="1.5" d="M100,65.633L100.723,65.67L101.445,65.885L102.168,65.93L102.891,66.09L103.613,66.111L104.336,66.316L105.059,66.423L105.781,66.539L106.504,66.619L107.227,66.72L107.949,66.867L108.672,66.904L109.395,67.082L110.117,67.339L110.84,67.387L111.563,67.432L112.285,67.544L113.008,67.803L113.73,68.018L114.453,68.016L115.176,68.255L115.898,68.299L116.621,68.466L117.344,68.659L118.066,68.879L118.789,68.97L119.512,69.137L120.234,69.242L120.957,69.423L121.68,69.602L122.402,69.734L123.125,69.817L123.848,70.222L124.57,70.229L125.293,70.5L126.016,70.804L126.738,70.987L127.461,71.039L128.184,71.305L128.906,71.406L129.629,71.569L130.352,71.86L131.074,72.193L131.797,72.384L132.52,72.441L133.242,72.904L133.965,73.109L134.688,73.174L135.41,73.527L136.133,73.799L136.855,74.052L137.578,74.32L138.301,74.473L139.023,74.763L139.746,75.028L140.469,75.292L141.191,75.373L141.914,75.745L142.637,76.185L143.359,76.532L144.082,76.78L144.805,76.98L145.527,77.399L146.25,77.726L146.973,77.826L147.695,78.287L148.418,78.687L149.141,78.94L149.863,79.33L150.586,79.731L151.309,80.001L152.031,80.467L152.754,80.833L153.477,81.07L154.199,81.551L154.922,81.905L155.645,82.456L156.367,82.635L157.09,83.034L157.813,83.669L158.535,83.899L159.258,84.495L159.98,84.847L160.703,85.469L161.426,85.805L162.148,86.423L162.871,86.97L163.594,87.365L164.316,87.788L165.039,88.323L165.762,88.906L166.484,89.23L167.207,89.886L167.93,90.523L168.652,90.971L169.375,91.519L170.098,92.161L170.82,92.778L171.543,93.185L172.266,93.923L172.988,94.62L173.711,95.111L174.434,95.986L175.156,96.467L175.879,96.987L176.602,97.792L177.324,98.495L178.047,99.211L178.77,99.934L179.492,100.505L180.215,101.399L180.938,102.068L181.66,102.843L182.383,103.734L183.105,104.487L183.828,105.24L184.551,106.024L185.273,106.997L185.996,107.745L186.719,108.642L187.441,109.488L188.164,110.369L188.887,111.206L189.609,112.269L190.332,113.039L191.055,113.989L191.777,114.925L192.5,116.005L193.223,116.929L193.945,117.762L194.668,118.756L195.391,119.792L196.113,120.905L196.836,121.896L197.559,122.952L198.281,123.922L199.004,125.225L199.727,126.119L200.449,127.181L201.172,128.45L201.895,129.641L202.617,130.479L203.34,131.549L204.063,132.768L204.785,134.053L205.508,134.973L206.23,136.183L206.953,137.413L207.676,138.494L208.398,139.733L209.121,140.781L209.844,141.857L210.566,143.107L211.289,144.302L212.012,145.459L212.734,146.389L213.457,147.56L214.18,148.786L214.902,149.487L215.625,150.805L216.348,151.869L217.07,152.8L217.793,153.825L218.516,154.683L219.238,155.845L219.961,156.65L220.684,157.99L221.406,158.767L222.129,159.687L222.852,160.397L223.574,161.252L224.297,162.047L225.02,162.626L225.742,163.486L226.465,164.085L227.188,164.735L227.91,165.553L228.633,166.115L229.355,166.723L230.078,166.876L230.801,167.282L231.523,167.79L232.246,167.946L232.969,168.565L233.691,168.775L234.414,168.737L235.137,168.822L235.859,168.894L236.582,168.765L237.305,168.806L238.027,168.715L238.75,168.682L239.473,168.376L240.195,167.866L240.918,167.746L241.641,167.692L242.363,166.933L243.086,166.593L243.809,166.03L244.531,165.496L245.254,164.906L245.977,164.104L246.699,163.556L247.422,162.647L248.145,161.734L248.867,160.775L249.59,160.093L250.313,159.236L251.035,157.974L251.758,157.067L252.48,156.001L253.203,154.905L253.926,153.839L254.648,152.674L255.371,151.271L256.094,150.516L256.816,149.052L257.539,147.585L258.262,146.568L258.984,145.236L259.707,143.836L260.43,142.568L261.152,141.126L261.875,139.868L262.598,138.419L263.32,136.856L264.043,135.415L264.766,133.518L265.488,132.209L266.211,130.839L266.934,129.107L267.656,127.577L268.379,126.182L269.102,124.744L269.824,123.128L270.547,121.549L271.27,120.059L271.992,118.288L272.715,116.816L273.438,115.201L274.16,113.456L274.883,111.879L275.605,110.312L276.328,108.759L277.051,106.947L277.773,105.393L278.496,103.755L279.219,101.889L279.941,100.15L280.664,98.555L281.387,96.637L282.109,94.817L282.832,92.961L283.555,91.191L284.277,88.942L285,87.032L285.723,85.081L286.445,83.467L287.168,81.113L287.891,78.975L288.613,77.346L289.336,75.353L290.059,73.594L290.781,71.491L291.504,69.658L292.227,67.868L292.949,65.999L293.672,63.842L294.395,66.089L295.117,68.756L295.84,70.882L296.563,73.212L297.285,75.726L298.008,78.134L298.73,77.818L299.453,76.463L300.176,75.544L300.898,74.397L301.621,73.086L302.344,72.107L303.066,70.698L303.789,69.654L304.512,68.494L305.234,67.447L305.957,66.318L306.68,65.291L307.402,64.187L308.125,63.116L308.848,61.996L309.57,61.214L310.293,60.05L311.016,58.941L311.738,57.874L312.461,56.778L313.184,55.976L313.906,54.934L314.629,54.127L315.352,53.165L316.074,52.245L316.797,51.351L317.52,50.48L318.242,49.561L318.965,48.758L319.688,48.161L320.41,47.108L321.133,46.229L321.855,45.683L322.578,44.633L323.301,43.861L324.023,43.325L324.746,42.668L325.469,41.893L326.191,41.227L326.914,40.551L327.637,40.169L328.359,39.398L329.082,38.93L329.805,38.191L330.527,37.612L331.25,37.492L331.973,36.588L332.695,36.288L333.418,35.307L334.141,35.124L334.863,34.675L335.586,34.157L336.309,33.968L337.031,33.267L337.754,32.929L338.477,32.619L339.199,32.156L339.922,31.83L340.645,31.275L341.367,30.99L342.09,30.817L342.813,30.256L343.535,30.283L344.258,29.852L344.98,29.406L345.703,29.201L346.426,28.863L347.148,28.666L347.871,28.44L348.594,27.859L349.316,27.868L350.039,27.413L350.762,27.168L351.484,26.967L352.207,26.762L352.93,26.555L353.652,26.655L354.375,25.986L355.098,26.188L355.82,26.199L356.543,26.407L357.266,25.832L357.988,24.917L358.711,25.17L359.434,25.008L360.156,24.917L360.879,23.976L361.602,25.177L362.324,24.447L363.047,24.547L363.77,24.257L364.492,24.426L365.215,24.493L365.938,23.438L366.66,23.783L367.383,24.139L368.105,23.739L368.828,23.703L369.551,23.611L370.273,22.342L370.996,23.686L371.719,22.847L372.441,23.198L373.164,22.132L373.887,22.781L374.609,23.854L375.332,22.426L376.055,22.376L376.777,22.444L377.5,22.935L378.223,22.957L378.945,22.075L379.668,20.927L380.391,22.351L381.113,22.349L381.836,22.003L382.559,22.665L383.281,22.46L384.004,22.06L384.727,20.932L385.449,22.747L386.172,20.692L386.895,21.754L387.617,21.986L388.34,20.787L389.063,22.029L389.785,22.149L390.508,21.481L391.23,21.695L391.953,22.097L392.676,21.384L393.398,20.839L394.121,21.918L394.844,20.718L395.566,20.978L396.289,21.172L397.012,22.761L397.734,22.576L398.457,22.154L399.18,20.383L399.902,21.471L400.625,21.666L401.348,20.343L402.07,20.703L402.793,21.828L403.516,23.253L404.238,22.186L404.961,22.368L405.684,21.549L406.406,22.629L407.129,21.53L407.852,21.159L408.574,21.859L409.297,20.866L410.02,23.376L410.742,20.571L411.465,23.014L412.188,23.285L412.91,22.754L413.633,22.993L414.355,23.027L415.078,23.943L415.801,20.721L416.523,23.276L417.246,24.394L417.969,21.425L418.691,21.738L419.414,22.659L420.137,23.064L420.859,22.854L421.582,21.145L422.305,26.263L423.027,24.517L423.75,24.879L424.473,22.031L425.195,22.911L425.918,22.752L426.641,22.048L427.363,22.543L428.086,22.074L428.809,23.085L429.531,24.333L430.254,23.091L430.977,23.125L431.699,22.539L432.422,22.591L433.145,21.308L433.867,23.616L434.59,22.51L435.313,22.018L436.035,22.766L436.758,22.348L437.48,23.323L438.203,22.063L438.926,21.711L439.648,22.435L440.371,22.516L441.094,21.783L441.816,20.955L442.539,21.703L443.262,21.851L443.984,22.198L444.707,21.783L445.43,21.744L446.152,22.305L446.875,21.563L447.598,21.064L448.32,21.095L449.043,22.026L449.766,21.466L450.488,21.24L451.211,21.373L451.934,21.197L452.656,21.094L453.379,21.176L454.102,20.907L454.824,20.962L455.547,20.984L456.27,21.2L456.992,21.17L457.715,20.799L458.438,20.713L459.16,20.625L459.883,21.06L460.605,20.852L461.328,20.766L462.051,20.892L462.773,20.932L463.496,20.899L464.219,20.848L464.941,20.832L465.664,20.835L466.387,20.833L467.109,20.73L467.832,20.857L468.555,20.686L469.277,20.652"/><path fill="none" stroke="rgb(149, 251, 81)" stroke-width="1.5" d="M100,63.052L100.723,63.177L101.445,63.181L102.168,63.277L102.891,63.241L103.613,63.512L104.336,63.541L105.059,63.528L105.781,63.584L106.504,63.738L107.227,63.988L107.949,64.001L108.672,64.18L109.395,64.262L110.117,64.382L110.84,64.393L111.563,64.451L112.285,64.538L113.008,64.687L113.73,64.915L114.453,64.915L115.176,65.119L115.898,65.155L116.621,65.214L117.344,65.428L118.066,65.692L118.789,65.675L119.512,65.855L120.234,66.017L120.957,66.163L121.68,66.34L122.402,66.491L123.125,66.531L123.848,66.663L124.57,66.848L125.293,66.964L126.016,67.128L126.738,67.236L127.461,67.45L128.184,67.62L128.906,67.831L129.629,67.947L130.352,68.184L131.074,68.333L131.797,68.592L132.52,68.737L133.242,68.788L133.965,68.942L134.688,69.162L135.41,69.507L136.133,69.521L136.855,69.817L137.578,70.11L138.301,70.2L139.023,70.453L139.746,70.757L140.469,70.87L141.191,70.952L141.914,71.298L142.637,71.56L143.359,71.822L144.082,72.06L144.805,72.388L145.527,72.567L146.25,72.616L146.973,72.986L147.695,73.204L148.418,73.597L149.141,73.925L149.863,74.08L150.586,74.468L151.309,74.765L152.031,74.883L152.754,75.218L153.477,75.648L154.199,75.853L154.922,76.166L155.645,76.352L156.367,76.936L157.09,77.131L157.813,77.415L158.535,77.742L159.258,78.059L159.98,78.246L160.703,78.685L161.426,79.028L162.148,79.499L162.871,79.814L163.594,80.305L164.316,80.691L165.039,81.047L165.762,81.466L166.484,81.799L167.207,82.238L167.93,82.606L168.652,82.913L169.375,83.411L170.098,83.803L170.82,84.424L171.543,84.698L172.266,85.344L172.988,85.678L173.711,86.136L174.434,86.497L175.156,86.962L175.879,87.481L176.602,87.91L177.324,88.488L178.047,88.938L178.77,89.56L179.492,89.966L180.215,90.442L180.938,91.106L181.66,91.563L182.383,92.165L183.105,92.414L183.828,93.167L184.551,93.811L185.273,94.139L185.996,94.771L186.719,95.285L187.441,95.967L188.164,96.339L188.887,96.954L189.609,97.49L190.332,98.057L191.055,98.793L191.777,99.326L192.5,99.908L193.223,100.469L193.945,100.995L194.668,101.696L195.391,102.216L196.113,102.855L196.836,103.393L197.559,103.898L198.281,104.571L199.004,105.169L199.727,105.864L200.449,106.382L201.172,106.93L201.895,107.413L202.617,108.004L203.34,108.486L204.063,109.196L204.785,109.468L205.508,110.279L206.23,110.707L206.953,111.374L207.676,111.908L208.398,112.372L209.121,112.854L209.844,113.165L210.566,113.771L211.289,114.232L212.012,114.559L212.734,114.994L213.457,115.358L214.18,115.892L214.902,116.234L215.625,116.333L216.348,116.819L217.07,117.027L217.793,117.308L218.516,117.588L219.238,117.893L219.961,117.911L220.684,118.215L221.406,118.285L222.129,118.469L222.852,118.592L223.574,118.652L224.297,118.756L225.02,118.89L225.742,118.612L226.465,118.675L227.188,118.557L227.91,118.336L228.633,118.355L229.355,118.184L230.078,118.096L230.801,117.954L231.523,117.658L232.246,117.554L232.969,117.187L233.691,116.984L234.414,116.689L235.137,116.586L235.859,116.093L236.582,115.603L237.305,115.286L238.027,115.155L238.75,114.623L239.473,114.183L240.195,113.886L240.918,113.351L241.641,112.88L242.363,112.389L243.086,112.06L243.809,111.295L244.531,110.748L245.254,110.24L245.977,109.812L246.699,109.209L247.422,108.424L248.145,107.908L248.867,107.416L249.59,106.296L250.313,105.657L251.035,104.785L251.758,103.992L252.48,103.208L253.203,102.299L253.926,101.75L254.648,100.821L255.371,99.893L256.094,99.003L256.816,98.222L257.539,97.192L258.262,96.202L258.984,95.336L259.707,94.626L260.43,93.636L261.152,92.856L261.875,92.078L262.598,90.919L263.32,90.364L264.043,89.438L264.766,88.599L265.488,87.887L266.211,87.197L266.934,86.222L267.656,85.405L268.379,84.573L269.102,84.066L269.824,83.407L270.547,82.254L271.27,81.765L271.992,80.853L272.715,80.07L273.438,79.333L274.16,78.877L274.883,77.802L275.605,77.077L276.328,76.446L277.051,75.644L277.773,74.809L278.496,74.103L279.219,73.175L279.941,72.433L280.664,71.547L281.387,70.751L282.109,69.559L282.832,68.656L283.555,67.543L284.277,66.693L285,65.532L285.723,64.528L286.445,63.57L287.168,63.053L287.891,66.248L288.613,68.965L289.336,72.151L290.059,75.113L290.781,78.237L291.504,81.116L292.227,80.546L292.949,79.822L293.672,79.136L294.395,78.715L295.117,77.876L295.84,77.321L296.563,76.538L297.285,75.899L298.008,75.112L298.73,74.304L299.453,73.748L300.176,72.755L300.898,72.072L301.621,71.009L302.344,70.326L303.066,69.346L303.789,68.382L304.512,67.587L305.234,66.648L305.957,65.534L306.68,64.72L307.402,63.861L308.125,63.041L308.848,62.089L309.57,61.061L310.293,60.259L311.016,59.278L311.738,58.515L312.461,57.613L313.184,56.718L313.906,55.857L314.629,54.918L315.352,54.014L316.074,53.235L316.797,52.436L317.52,51.491L318.242,50.805L318.965,49.974L319.688,49.197L320.41,48.382L321.133,47.607L321.855,46.881L322.578,46.308L323.301,45.463L324.023,44.701L324.746,44.026L325.469,43.311L326.191,42.586L326.914,42.013L327.637,41.372L328.359,40.822L329.082,40.263L329.805,39.69L330.527,39.012L331.25,38.468L331.973,38.005L332.695,37.356L333.418,36.983L334.141,36.437L334.863,35.864L335.586,35.432L336.309,34.875L337.031,34.48L337.754,34.075L338.477,33.654L339.199,33.127L339.922,32.822L340.645,32.426L341.367,32.129L342.09,31.677L342.813,31.343L343.535,31.009L344.258,30.675L344.98,30.434L345.703,30.014L346.426,29.696L347.148,29.365L347.871,29.129L348.594,28.923L349.316,28.585L350.039,28.26L350.762,28.068L351.484,27.772L352.207,27.618L352.93,27.28L353.652,27.109L354.375,26.866L355.098,26.71L355.82,26.563L356.543,26.307L357.266,26.126L357.988,25.874L358.711,25.767L359.434,25.648L360.156,25.383L360.879,25.196L361.602,25.062L362.324,24.962L363.047,24.771L363.77,24.767L364.492,24.55L365.215,24.374L365.938,24.296L366.66,24.104L367.383,24.121L368.105,23.939L368.828,23.801L369.551,23.592L370.273,23.576L370.996,23.477L371.719,23.389L372.441,23.281L373.164,23.214L373.887,23.154L374.609,23.044L375.332,22.921L376.055,22.871L376.777,22.827L377.5,22.809L378.223,22.686L378.945,22.639L379.668,22.519L380.391,22.483L381.113,22.397L381.836,22.306L382.559,22.316L383.281,22.161L384.004,22.084L384.727,22.134L385.449,22.038L386.172,21.992L386.895,21.886L387.617,21.976L388.34,21.838L389.063,21.739L389.785,21.747L390.508,21.768L391.23,21.724L391.953,21.601L392.676,21.643L393.398,21.574L394.121,21.519L394.844,21.574L395.566,21.488L396.289,21.412L397.012,21.419L397.734,21.342L398.457,21.42L399.18,21.342L399.902,21.267L400.625,21.291L401.348,21.28L402.07,21.275L402.793,21.201L403.516,21.2L404.238,21.22L404.961,21.117L405.684,21.11L406.406,21.084L407.129,21.098L407.852,21.102L408.574,21.061L409.297,21.106L410.02,21.069L410.742,20.996L411.465,20.984L412.188,20.991L412.91,21.002L413.633,20.928L414.355,20.908L415.078,20.895L415.801,20.929L416.523,20.921L417.246,20.869L417.969,20.895L418.691,20.874L419.414,20.876L420.137,20.883L420.859,20.862L421.582,20.863L422.305,20.824L423.027,20.781L423.75,20.796L424.473,20.82L425.195,20.784L425.918,20.793L426.641,20.794L427.363,20.821L428.086,20.761L428.809,20.732L429.531,20.749L430.254,20.767L430.977,20.794L431.699,20.74L432.422,20.762L433.145,20.757L433.867,20.743L434.59,20.766L435.313,20.714L436.035,20.729L436.758,20.692L437.48,20.698L438.203,20.705L438.926,20.7L439.648,20.7L440.371,20.707L441.094,20.7L441.816,20.67L442.539,20.68L443.262,20.708L443.984,20.711L444.707,20.662L445.43,20.669L446.152,20.698L446.875,20.679L447.598,20.667L448.32,20.681L449.043,20.688L449.766,20.675L450.488,20.664L451.211,20.653L451.934,20.673L452.656,20.657L453.379,20.665L454.102,20.667L454.824,20.641L455.547,20.649L456.27,20.635L456.992,20.652L457.715,20.665L458.438,20.653L459.16,20.644L459.883,20.647L460.605,20.634L461.328,20.634L462.051,20.637L462.773,20.651L463.496,20.649L464.219,20.64L464.941,20.63L465.664,20.634L466.387,20.635L467.109,20.632L467.832,20.623L468.555,20.632L469.277,20.63"/><path fill="none" stroke="rgb(236, 209, 46)" stroke-width="1.5" d="M100,58.727L100.723,59.035L101.445,59.108L102.168,59.105L102.891,59.229L103.613,59.281L104.336,59.447L105.059,59.391L105.781,59.394L106.504,59.515L107.227,59.658L107.949,59.699L108.672,59.674L109.395,59.685L110.117,59.852L110.84,59.97L111.563,60.02L112.285,60.14L113.008,60.166L113.73,60.2L114.453,60.359L115.176,60.364L115.898,60.696L116.621,60.491L117.344,60.622L118.066,60.784L118.789,60.826L119.512,60.903L120.234,60.978L120.957,61.183L121.68,61.306L122.402,61.556L123.125,61.596L123.848,61.545L124.57,61.809L125.293,61.804L126.016,61.785L126.738,61.91L127.461,62.048L128.184,62.274L128.906,62.364L129.629,62.493L130.352,62.492L131.074,62.767L131.797,62.778L132.52,62.879L133.242,62.947L133.965,63.06L134.688,63.491L135.41,63.458L136.133,63.655L136.855,63.818L137.578,63.813L138.301,64.027L139.023,64.17L139.746,64.201L140.469,64.358L141.191,64.52L141.914,64.758L142.637,64.916L143.359,65.01L144.082,65.178L144.805,65.464L145.527,65.497L146.25,65.617L146.973,65.714L147.695,65.934L148.418,66.173L149.141,66.387L149.863,66.487L150.586,66.612L151.309,66.787L152.031,67.005L152.754,67.197L153.477,67.515L154.199,67.709L154.922,67.791L155.645,67.941L156.367,68.196L157.09,68.436L157.813,68.464L158.535,68.713L159.258,69.139L159.98,69.226L160.703,69.365L161.426,69.573L162.148,69.916L162.871,70.049L163.594,70.319L164.316,70.305L165.039,70.843L165.762,70.915L166.484,71.047L167.207,71.291L167.93,71.617L168.652,71.75L169.375,71.91L170.098,72.36L170.82,72.6L171.543,72.875L172.266,73.14L172.988,73.261L173.711,73.457L174.434,73.613L175.156,73.878L175.879,74.199L176.602,74.317L177.324,74.596L178.047,74.906L178.77,75.088L179.492,75.238L180.215,75.635L180.938,75.911L181.66,76.068L182.383,76.237L183.105,76.475L183.828,76.792L184.551,76.931L185.273,77.084L185.996,77.428L186.719,77.706L187.441,77.871L188.164,78.013L188.887,78.157L189.609,78.467L190.332,78.643L191.055,78.794L191.777,79.038L192.5,79.151L193.223,79.488L193.945,79.541L194.668,79.804L195.391,79.95L196.113,80.107L196.836,80.258L197.559,80.257L198.281,80.594L199.004,80.608L199.727,80.666L200.449,80.757L201.172,80.842L201.895,80.948L202.617,80.98L203.34,80.95L204.063,81.16L204.785,81.219L205.508,81.173L206.23,81.201L206.953,81.221L207.676,81.266L208.398,81.208L209.121,81.187L209.844,81.202L210.566,81.239L211.289,81.031L212.012,80.965L212.734,81.072L213.457,80.824L214.18,80.802L214.902,80.815L215.625,80.626L216.348,80.512L217.07,80.41L217.793,80.38L218.516,80.261L219.238,80.048L219.961,79.931L220.684,79.944L221.406,79.703L222.129,79.533L222.852,79.314L223.574,79.175L224.297,78.982L225.02,78.81L225.742,78.623L226.465,78.375L227.188,78.399L227.91,78.111L228.633,77.831L229.355,77.661L230.078,77.691L230.801,77.179L231.523,77.217L232.246,76.975L232.969,76.878L233.691,76.486L234.414,76.306L235.137,76.204L235.859,75.926L236.582,75.605L237.305,75.438L238.027,75.475L238.75,75.014L239.473,74.907L240.195,74.732L240.918,74.379L241.641,74.13L242.363,73.859L243.086,73.616L243.809,73.247L244.531,73.052L245.254,72.59L245.977,72.219L246.699,71.957L247.422,71.358L248.145,70.779L248.867,70.445L249.59,70.14L250.313,69.529L251.035,69.059L251.758,68.48L252.48,68.041L253.203,67.53L253.926,67.087L254.648,66.622L255.371,65.896L256.094,65.266L256.816,64.968L257.539,64.525L258.262,64.044L258.984,63.439L259.707,63.141L260.43,62.607L261.152,62.27L261.875,61.7L262.598,61.165L263.32,60.629L264.043,60.38L264.766,59.938L265.488,59.533L266.211,59.223L266.934,58.77L267.656,58.629L268.379,58.039L269.102,57.695L269.824,57.42L270.547,57.044L271.27,56.823L271.992,56.408L272.715,56.156L273.438,55.831L274.16,55.421L274.883,55.081L275.605,54.819L276.328,54.316L277.051,54.129L277.773,53.602L278.496,56.023L279.219,59.852L279.941,63.716L280.664,67.339L281.387,71.291L282.109,74.723L282.832,76.796L283.555,76.812L284.277,76.877L285,76.877L285.723,77.135L286.445,76.87L287.168,76.985L287.891,76.789L288.613,76.743L289.336,76.607L290.059,76.352L290.781,76.264L291.504,75.785L292.227,75.434L292.949,75.239L293.672,75.012L294.395,74.446L295.117,74.217L295.84,73.44L296.563,73.06L297.285,72.658L298.008,72.063L298.73,71.453L299.453,70.838L300.176,70.152L300.898,69.487L301.621,69.028L302.344,68.331L303.066,67.502L303.789,66.965L304.512,66.256L305.234,65.443L305.957,64.555L306.68,63.817L307.402,63.14L308.125,62.289L308.848,61.578L309.57,60.705L310.293,59.883L311.016,59.209L311.738,58.259L312.461,57.49L313.184,56.634L313.906,55.882L314.629,55.111L315.352,54.191L316.074,53.458L316.797,52.708L317.52,51.69L318.242,51.007L318.965,50.325L319.688,49.538L320.41,48.637L321.133,48.034L321.855,47.245L322.578,46.553L323.301,45.9L324.023,45.106L324.746,44.498L325.469,43.712L326.191,43.198L326.914,42.429L327.637,41.941L328.359,41.206L329.082,40.576L329.805,40.029L330.527,39.385L331.25,38.824L331.973,38.254L332.695,37.754L333.418,37.277L334.141,36.584L334.863,36.127L335.586,35.681L336.309,35.224L337.031,34.779L337.754,34.307L338.477,33.821L339.199,33.407L339.922,33.003L340.645,32.6L341.367,32.24L342.09,31.855L342.813,31.459L343.535,31.156L344.258,30.673L344.98,30.461L345.703,29.994L346.426,29.762L347.148,29.45L347.871,29.095L348.594,28.867L349.316,28.551L350.039,28.307L350.762,28.078L351.484,27.79L352.207,27.56L352.93,27.33L353.652,27.146L354.375,26.839L355.098,26.649L355.82,26.411L356.543,26.224L357.266,25.972L357.988,25.872L358.711,25.61L359.434,25.471L360.156,25.302L360.879,25.16L361.602,25.01L362.324,24.858L363.047,24.689L363.77,24.541L364.492,24.378L365.215,24.285L365.938,24.149L366.66,24.043L367.383,23.912L368.105,23.795L368.828,23.701L369.551,23.594L370.273,23.473L370.996,23.368L371.719,23.284L372.441,23.18L373.164,23.065L373.887,23.037L374.609,22.905L375.332,22.829L376.055,22.764L376.777,22.683L377.5,22.626L378.223,22.54L378.945,22.459L379.668,22.398L380.391,22.343L381.113,22.287L381.836,22.241L382.559,22.188L383.281,22.125L384.004,22.049L384.727,22.002L385.449,21.938L386.172,21.895L386.895,21.831L387.617,21.811L388.34,21.785L389.063,21.728L389.785,21.673L390.508,21.657L391.23,21.624L391.953,21.593L392.676,21.545L393.398,21.494L394.121,21.458L394.844,21.472L395.566,21.418L396.289,21.396L397.012,21.361L397.734,21.323L398.457,21.296L399.18,21.256L399.902,21.219L400.625,21.23L401.348,21.206L402.07,21.186L402.793,21.167L403.516,21.131L404.238,21.104L404.961,21.09L405.684,21.099L406.406,21.058L407.129,21.057L407.852,21.037L408.574,21.008L409.297,20.995L410.02,20.986L410.742,20.978L411.465,20.957L412.188,20.95L412.91,20.926L413.633,20.919L414.355,20.912L415.078,20.911L415.801,20.884L416.523,20.873L417.246,20.878L417.969,20.855L418.691,20.868L419.414,20.85L420.137,20.84L420.859,20.825L421.582,20.812L422.305,20.803L423.027,20.808L423.75,20.799L424.473,20.783L425.195,20.79L425.918,20.777L426.641,20.766L427.363,20.755L428.086,20.749L428.809,20.758L429.531,20.753L430.254,20.742L430.977,20.737L431.699,20.735L432.422,20.728L433.145,20.72L433.867,20.725L434.59,20.727L435.313,20.712L436.035,20.711L436.758,20.704L437.48,20.702L438.203,20.712L438.926,20.7L439.648,20.697L440.371,20.683L441.094,20.684L441.816,20.688L442.539,20.686L443.262,20.679L443.984,20.677L444.707,20.676L445.43,20.672L446.152,20.67L446.875,20.667L447.598,20.669L448.32,20.662L449.043,20.665L449.766,20.665L450.488,20.66L451.211,20.658L451.934,20.656L452.656,20.656L453.379,20.647L454.102,20.653L454.824,20.647L455.547,20.644L456.27,20.643L456.992,20.644L457.715,20.645L458.438,20.646L459.16,20.646L459.883,20.64L460.605,20.642L461.328,20.637L462.051,20.634L462.773,20.636L463.496,20.635L464.219,20.638L464.941,20.637L465.664,20.634L466.387,20.631L467.109,20.631L467.832,20.631L468.555,20.629L469.277,20.629"/><path fill="none" stroke="rgb(255, 130, 29)" stroke-width="1.5" d="M100,52.904L100.723,53.074L101.445,53.108L102.168,52.999L102.891,53.05L103.613,53.034L104.336,53.127L105.059,53.103L105.781,53.122L106.504,53.107L107.227,53.192L107.949,53.255L108.672,53.238L109.395,53.332L110.117,53.187L110.84,53.322L111.563,53.266L112.285,53.307L113.008,53.482L113.73,53.4L114.453,53.457L115.176,53.572L115.898,53.485L116.621,53.595L117.344,53.645L118.066,53.605L118.789,53.696L119.512,53.727L120.234,53.695L120.957,53.701L121.68,53.683L122.402,53.837L123.125,53.872L123.848,53.833L124.57,53.877L125.293,53.936L126.016,54.024L126.738,53.917L127.461,54.001L128.184,54.03L128.906,54.114L129.629,54.198L130.352,54.264L131.074,54.227L131.797,54.252L132.52,54.24L133.242,54.243L133.965,54.337L134.688,54.383L135.41,54.353L136.133,54.476L136.855,54.416L137.578,54.434L138.301,54.525L139.023,54.694L139.746,54.521L140.469,54.727L141.191,54.723L141.914,54.735L142.637,54.767L143.359,54.748L144.082,54.853L144.805,55.099L145.527,54.889L146.25,55.005L146.973,55.044L147.695,55.082L148.418,55.066L149.141,55.001L149.863,55.182L150.586,55.263L151.309,55.248L152.031,55.259L152.754,55.372L153.477,55.278L154.199,55.361L154.922,55.22L155.645,55.545L156.367,55.451L157.09,55.56L157.813,55.531L158.535,55.529L159.258,55.595L159.98,55.585L160.703,55.538L161.426,55.742L162.148,55.657L162.871,55.57L163.594,55.704L164.316,55.68L165.039,55.83L165.762,55.793L166.484,55.916L167.207,55.741L167.93,55.889L168.652,55.945L169.375,55.794L170.098,55.859L170.82,55.923L171.543,55.887L172.266,55.864L172.988,55.978L173.711,55.977L174.434,55.954L175.156,55.842L175.879,55.862L176.602,55.908L177.324,55.885L178.047,55.856L178.77,55.835L179.492,55.922L180.215,55.806L180.938,55.741L181.66,55.906L182.383,55.792L183.105,55.764L183.828,55.797L184.551,55.684L185.273,55.643L185.996,55.679L186.719,55.629L187.441,55.654L188.164,55.652L188.887,55.556L189.609,55.576L190.332,55.55L191.055,55.47L191.777,55.433L192.5,55.447L193.223,55.291L193.945,55.272L194.668,55.302L195.391,55.231L196.113,55.188L196.836,55.093L197.559,55.052L198.281,54.905L199.004,54.889L199.727,54.884L200.449,54.776L201.172,54.784L201.895,54.792L202.617,54.647L203.34,54.52L204.063,54.589L204.785,54.568L205.508,54.308L206.23,54.287L206.953,54.274L207.676,54.266L208.398,54.156L209.121,53.971L209.844,53.957L210.566,53.983L211.289,53.762L212.012,53.8L212.734,53.6L213.457,53.493L214.18,53.535L214.902,53.55L215.625,53.341L216.348,53.144L217.07,53.218L217.793,53.118L218.516,53.018L219.238,52.91L219.961,52.893L220.684,52.815L221.406,52.763L222.129,52.626L222.852,52.526L223.574,52.593L224.297,52.311L225.02,52.319L225.742,52.271L226.465,51.989L227.188,52.122L227.91,51.965L228.633,51.928L229.355,51.937L230.078,51.799L230.801,51.703L231.523,51.62L232.246,51.569L232.969,51.331L233.691,51.447L234.414,51.373L235.137,51.327L235.859,51.173L236.582,51.101L237.305,51.033L238.027,50.957L238.75,50.866L239.473,50.8L240.195,50.726L240.918,50.809L241.641,50.764L242.363,50.631L243.086,50.421L243.809,50.27L244.531,50.296L245.254,49.936L245.977,49.793L246.699,49.703L247.422,49.656L248.145,49.225L248.867,49.023L249.59,48.859L250.313,48.715L251.035,48.349L251.758,48.161L252.48,47.826L253.203,47.725L253.926,47.39L254.648,47.054L255.371,46.807L256.094,46.607L256.816,46.336L257.539,46.014L258.262,45.79L258.984,45.585L259.707,45.503L260.43,45.155L261.152,44.769L261.875,44.611L262.598,44.297L263.32,44.142L264.043,44.04L264.766,43.69L265.488,43.547L266.211,43.319L266.934,43.067L267.656,44.202L268.379,48.03L269.102,51.936L269.824,56.036L270.547,60.095L271.27,63.972L271.992,67.828L272.715,68.293L273.438,68.773L274.16,69.167L274.883,69.727L275.605,70.129L276.328,70.804L277.051,71.191L277.773,71.459L278.496,71.968L279.219,72.359L279.941,72.692L280.664,72.923L281.387,73.302L282.109,73.75L282.832,73.897L283.555,73.788L284.277,73.996L285,74.292L285.723,74.127L286.445,74.247L287.168,74.255L287.891,74.442L288.613,74.231L289.336,74.106L290.059,74.187L290.781,74.04L291.504,73.87L292.227,73.741L292.949,73.597L293.672,73.11L294.395,72.893L295.117,72.549L295.84,72.22L296.563,71.978L297.285,71.449L298.008,70.911L298.73,70.528L299.453,70.028L300.176,69.593L300.898,69.057L301.621,68.662L302.344,67.671L303.066,67.374L303.789,66.717L304.512,66.274L305.234,65.412L305.957,64.596L306.68,63.971L307.402,63.219L308.125,62.689L308.848,61.922L309.57,61.033L310.293,60.379L311.016,59.629L311.738,58.716L312.461,57.998L313.184,57.157L313.906,56.36L314.629,55.61L315.352,54.799L316.074,54.015L316.797,53.408L317.52,52.78L318.242,51.736L318.965,51.05L319.688,50.25L320.41,49.724L321.133,48.878L321.855,48.083L322.578,47.323L323.301,46.65L324.023,45.843L324.746,45.313L325.469,44.49L326.191,43.861L326.914,43.165L327.637,42.469L328.359,41.904L329.082,41.266L329.805,40.765L330.527,40.109L331.25,39.509L331.973,39.013L332.695,38.374L333.418,37.848L334.141,37.386L334.863,36.816L335.586,36.311L336.309,35.798L337.031,35.246L337.754,34.796L338.477,34.382L339.199,33.989L339.922,33.531L340.645,33.156L341.367,32.764L342.09,32.292L342.813,31.911L343.535,31.57L344.258,31.209L344.98,30.858L345.703,30.45L346.426,30.209L347.148,29.866L347.871,29.541L348.594,29.224L349.316,28.963L350.039,28.596L350.762,28.343L351.484,28.097L352.207,27.851L352.93,27.635L353.652,27.385L354.375,27.137L355.098,26.91L355.82,26.708L356.543,26.489L357.266,26.334L357.988,26.129L358.711,25.875L359.434,25.74L360.156,25.572L360.879,25.369L361.602,25.22L362.324,25.036L363.047,24.874L363.77,24.753L364.492,24.585L365.215,24.418L365.938,24.382L366.66,24.181L367.383,24.061L368.105,23.96L368.828,23.85L369.551,23.689L370.273,23.607L370.996,23.535L371.719,23.396L372.441,23.279L373.164,23.224L373.887,23.09L374.609,23.014L375.332,22.923L376.055,22.877L376.777,22.776L377.5,22.69L378.223,22.657L378.945,22.507L379.668,22.492L380.391,22.462L381.113,22.321L381.836,22.291L382.559,22.236L383.281,22.169L384.004,22.135L384.727,22.053L385.449,21.988L386.172,21.954L386.895,21.906L387.617,21.876L388.34,21.825L389.063,21.793L389.785,21.761L390.508,21.67L391.23,21.626L391.953,21.642L392.676,21.586L393.398,21.516L394.121,21.534L394.844,21.476L395.566,21.457L396.289,21.448L397.012,21.394L397.734,21.359L398.457,21.336L399.18,21.307L399.902,21.256L400.625,21.231L401.348,21.233L402.07,21.191L402.793,21.19L403.516,21.153L404.238,21.139L404.961,21.106L405.684,21.096L406.406,21.078L407.129,21.07L407.852,21.07L408.574,21.041L409.297,21.014L410.02,21.005L410.742,20.993L411.465,20.982L412.188,20.959L412.91,20.947L413.633,20.927L414.355,20.934L415.078,20.918L415.801,20.914L416.523,20.889L417.246,20.888L417.969,20.87L418.691,20.853L419.414,20.85L420.137,20.842L420.859,20.833L421.582,20.83L422.305,20.819L423.027,20.805L423.75,20.807L424.473,20.79L425.195,20.793L425.918,20.779L426.641,20.77L427.363,20.771L428.086,20.767L428.809,20.762L429.531,20.752L430.254,20.75L430.977,20.751L431.699,20.742L432.422,20.736L433.145,20.731L433.867,20.723L434.59,20.718L435.313,20.712L436.035,20.713L436.758,20.708L437.48,20.709L438.203,20.702L438.926,20.698L439.648,20.695L440.371,20.694L441.094,20.697L441.816,20.687L442.539,20.686L443.262,20.69L443.984,20.68L444.707,20.68L445.43,20.676L446.152,20.673L446.875,20.67L447.598,20.673L448.32,20.672L449.043,20.664L449.766,20.664L450.488,20.657L451.211,20.662L451.934,20.654L452.656,20.655L453.379,20.654L454.102,20.651L454.824,20.652L455.547,20.647L456.27,20.646L456.992,20.649L457.715,20.646L458.438,20.642L459.16,20.645L459.883,20.644L460.605,20.639L461.328,20.638L462.051,20.639L462.773,20.634L463.496,20.635L464.219,20.635L464.941,20.631L465.664,20.631L466.387,20.633L467.109,20.632L467.832,20.634L468.555,20.631L469.277,20.628"/><path fill="none" stroke="rgb(203, 47, 13)" stroke-width="1.5" d="M100,48.659L100.723,48.683L101.445,48.623L102.168,48.566L102.891,48.611L103.613,48.575L104.336,48.551L105.059,48.543L105.781,48.496L106.504,48.575L107.227,48.461L107.949,48.623L108.672,48.533L109.395,48.617L110.117,48.584L110.84,48.612L111.563,48.551L112.285,48.629L113.008,48.521L113.73,48.71L114.453,48.46L115.176,48.39L115.898,48.571L116.621,48.483L117.344,48.481L118.066,48.443L118.789,48.494L119.512,48.525L120.234,48.561L120.957,48.443L121.68,48.478L122.402,48.479L123.125,48.5L123.848,48.382L124.57,48.497L125.293,48.446L126.016,48.379L126.738,48.39L127.461,48.434L128.184,48.399L128.906,48.357L129.629,48.199L130.352,48.404L131.074,48.277L131.797,48.358L132.52,48.387L133.242,48.29L133.965,48.315L134.688,48.235L135.41,48.302L136.133,48.056L136.855,48.197L137.578,48.243L138.301,48.135L139.023,48.315L139.746,48.13L140.469,48.225L141.191,48.115L141.914,47.945L142.637,47.994L143.359,47.991L144.082,48.064L144.805,47.951L145.527,48.088L146.25,48.006L146.973,47.951L147.695,48.058L148.418,47.963L149.141,47.902L149.863,47.848L150.586,47.857L151.309,47.887L152.031,47.82L152.754,47.629L153.477,47.7L154.199,47.64L154.922,47.623L155.645,47.671L156.367,47.511L157.09,47.515L157.813,47.455L158.535,47.466L159.258,47.424L159.98,47.335L160.703,47.228L161.426,47.315L162.148,47.242L162.871,47.177L163.594,47.188L164.316,47.138L165.039,47.234L165.762,47.084L166.484,47.084L167.207,46.996L167.93,46.869L168.652,46.808L169.375,46.731L170.098,46.751L170.82,46.762L171.543,46.671L172.266,46.693L172.988,46.561L173.711,46.508L174.434,46.443L175.156,46.419L175.879,46.284L176.602,46.357L177.324,46.215L178.047,46.166L178.77,46.126L179.492,46.186L180.215,46.062L180.938,46.067L181.66,45.82L182.383,45.762L183.105,45.775L183.828,45.588L184.551,45.755L185.273,45.588L185.996,45.623L186.719,45.444L187.441,45.579L188.164,45.417L188.887,45.178L189.609,45.257L190.332,45.213L191.055,45.16L191.777,45.009L192.5,45.006L193.223,44.883L193.945,44.935L194.668,44.848L195.391,44.862L196.113,44.705L196.836,44.677L197.559,44.585L198.281,44.571L199.004,44.456L199.727,44.262L200.449,44.17L201.172,44.135L201.895,44.218L202.617,44.218L203.34,44.044L204.063,44.003L204.785,43.913L205.508,43.936L206.23,43.802L206.953,43.688L207.676,43.729L208.398,43.715L209.121,43.577L209.844,43.506L210.566,43.42L211.289,43.421L212.012,43.288L212.734,43.302L213.457,43.264L214.18,43.145L214.902,43.161L215.625,43.035L216.348,43.018L217.07,42.95L217.793,42.926L218.516,42.946L219.238,42.916L219.961,42.844L220.684,42.758L221.406,42.741L222.129,42.819L222.852,42.707L223.574,42.644L224.297,42.565L225.02,42.48L225.742,42.514L226.465,42.443L227.188,42.487L227.91,42.497L228.633,42.409L229.355,42.312L230.078,42.404L230.801,42.42L231.523,42.232L232.246,42.325L232.969,42.199L233.691,42.331L234.414,42.365L235.137,42.29L235.859,42.244L236.582,42.183L237.305,42.132L238.027,42.107L238.75,42.085L239.473,42.131L240.195,42.193L240.918,42.133L241.641,42.166L242.363,42.233L243.086,41.975L243.809,42.17L244.531,41.999L245.254,41.791L245.977,41.9L246.699,41.69L247.422,41.739L248.145,41.407L248.867,41.365L249.59,41.252L250.313,41.023L251.035,41.069L251.758,40.762L252.48,40.697L253.203,40.43L253.926,40.273L254.648,40.107L255.371,39.958L256.094,39.901L256.816,39.535L257.539,39.418L258.262,39.251L258.984,39.019L259.707,38.876L260.43,38.699L261.152,38.536L261.875,42.073L262.598,46.212L263.32,50.029L264.043,54.075L264.766,58.047L265.488,62.317L266.211,63.657L266.934,64.166L267.656,64.704L268.379,65.197L269.102,65.828L269.824,66.422L270.547,66.907L271.27,67.285L271.992,67.868L272.715,68.314L273.438,68.844L274.16,69.308L274.883,69.851L275.605,70.169L276.328,70.61L277.051,71.057L277.773,71.492L278.496,71.747L279.219,72.237L279.941,72.544L280.664,72.903L281.387,73.087L282.109,73.536L282.832,73.613L283.555,73.629L284.277,73.931L285,73.877L285.723,74.147L286.445,74.18L287.168,74.315L287.891,74.259L288.613,74.152L289.336,74.099L290.059,73.999L290.781,73.96L291.504,73.894L292.227,73.728L292.949,73.452L293.672,73.356L294.395,72.963L295.117,72.651L295.84,72.474L296.563,72.105L297.285,71.845L298.008,71.212L298.73,70.91L299.453,70.335L300.176,69.78L300.898,69.262L301.621,68.847L302.344,68.283L303.066,67.716L303.789,66.961L304.512,66.452L305.234,65.696L305.957,65.334L306.68,64.437L307.402,63.656L308.125,63.082L308.848,62.447L309.57,61.648L310.293,60.798L311.016,59.838L311.738,59.392L312.461,58.477L313.184,57.828L313.906,57.098L314.629,56.336L315.352,55.536L316.074,54.735L316.797,54.129L317.52,53.148L318.242,52.39L318.965,51.669L319.688,50.946L320.41,50.29L321.133,49.338L321.855,48.678L322.578,47.971L323.301,47.228L324.023,46.51L324.746,45.742L325.469,45.045L326.191,44.572L326.914,43.778L327.637,43.036L328.359,42.468L329.082,41.822L329.805,41.169L330.527,40.615L331.25,40.038L331.973,39.46L332.695,38.919L333.418,38.342L334.141,37.772L334.863,37.26L335.586,36.662L336.309,36.183L337.031,35.758L337.754,35.178L338.477,34.808L339.199,34.385L339.922,33.877L340.645,33.439L341.367,33.004L342.09,32.564L342.813,32.206L343.535,31.837L344.258,31.481L344.98,31.181L345.703,30.77L346.426,30.484L347.148,30.145L347.871,29.772L348.594,29.527L349.316,29.228L350.039,28.9L350.762,28.661L351.484,28.311L352.207,28.096L352.93,27.885L353.652,27.599L354.375,27.346L355.098,27.077L355.82,26.902L356.543,26.699L357.266,26.5L357.988,26.249L358.711,26.02L359.434,25.832L360.156,25.684L360.879,25.562L361.602,25.304L362.324,25.166L363.047,24.989L363.77,24.876L364.492,24.729L365.215,24.621L365.938,24.462L366.66,24.311L367.383,24.146L368.105,24.067L368.828,23.95L369.551,23.815L370.273,23.694L370.996,23.602L371.719,23.482L372.441,23.363L373.164,23.29L373.887,23.231L374.609,23.083L375.332,22.979L376.055,22.929L376.777,22.85L377.5,22.787L378.223,22.706L378.945,22.619L379.668,22.532L380.391,22.463L381.113,22.417L381.836,22.356L382.559,22.27L383.281,22.23L384.004,22.189L384.727,22.097L385.449,22.067L386.172,22.046L386.895,21.98L387.617,21.918L388.34,21.852L389.063,21.813L389.785,21.778L390.508,21.721L391.23,21.69L391.953,21.659L392.676,21.606L393.398,21.58L394.121,21.538L394.844,21.51L395.566,21.475L396.289,21.441L397.012,21.415L397.734,21.401L398.457,21.359L399.18,21.33L399.902,21.301L400.625,21.283L401.348,21.252L402.07,21.23L402.793,21.206L403.516,21.179L404.238,21.153L404.961,21.137L405.684,21.112L406.406,21.093L407.129,21.082L407.852,21.07L408.574,21.047L409.297,21.033L410.02,21.022L410.742,20.997L411.465,20.985L412.188,20.967L412.91,20.959L413.633,20.936L414.355,20.933L415.078,20.922L415.801,20.919L416.523,20.912L417.246,20.902L417.969,20.883L418.691,20.865L419.414,20.859L420.137,20.852L420.859,20.848L421.582,20.834L422.305,20.821L423.027,20.813L423.75,20.813L424.473,20.811L425.195,20.798L425.918,20.796L426.641,20.788L427.363,20.776L428.086,20.771L428.809,20.77L429.531,20.758L430.254,20.754L430.977,20.758L431.699,20.749L432.422,20.735L433.145,20.728L433.867,20.733L434.59,20.73L435.313,20.722L436.035,20.718L436.758,20.718L437.48,20.702L438.203,20.707L438.926,20.705L439.648,20.694L440.371,20.696L441.094,20.699L441.816,20.69L442.539,20.691L443.262,20.683L443.984,20.683L444.707,20.679L445.43,20.681L446.152,20.672L446.875,20.671L447.598,20.67L448.32,20.672L449.043,20.667L449.766,20.664L450.488,20.665L451.211,20.66L451.934,20.659L452.656,20.653L453.379,20.655L454.102,20.66L454.824,20.65L455.547,20.648L456.27,20.653L456.992,20.65L457.715,20.646L458.438,20.648L459.16,20.643L459.883,20.642L460.605,20.644L461.328,20.639L462.051,20.643L462.773,20.641L463.496,20.64L464.219,20.634L464.941,20.634L465.664,20.634L466.387,20.631L467.109,20.633L467.832,20.633L468.555,20.632L469.277,20.633"/><g transform="translate(15,190) scale(1.7) rotate(-90)"><text>Drift</text></g><g transform="translate(315,395) scale(1.8)"><text></text></g><g transform="translate(0,350)" fill="none" font-size="10" font-family="sans-serif" text-anchor="middle"><path class="domain" stroke="currentColor" d="M100,6V0H470V6"/><g class="tick" opacity="1" transform="translate(136.96669666966696,0)"><line stroke="currentColor" y2="6"/><text fill="currentColor" y="9" dy="0.71em" font-size="20px"> </text></g><g class="tick" opacity="1" transform="translate(173.97039703970398,0)"><line stroke="currentColor" y2="6"/><text fill="currentColor" y="9" dy="0.71em" font-size="20px">20</text></g><g class="tick" opacity="1" transform="translate(210.97409740974098,0)"><line stroke="currentColor" y2="6"/><text fill="currentColor" y="9" dy="0.71em" font-size="20px"> </text></g><g class="tick" opacity="1" transform="translate(247.97779777977803,0)"><line stroke="currentColor" y2="6"/><text fill="currentColor" y="9" dy="0.71em" font-size="20px">40</text></g><g class="tick" opacity="1" transform="translate(284.981498149815,0)"><line stroke="currentColor" y2="6"/><text fill="currentColor" y="9" dy="0.71em" font-size="20px"> </text></g><g class="tick" opacity="1" transform="translate(321.985198519852,0)"><line stroke="currentColor" y2="6"/><text fill="currentColor" y="9" dy="0.71em" font-size="20px">60</text></g><g class="tick" opacity="1" transform="translate(358.988898889889,0)"><line stroke="currentColor" y2="6"/><text fill="currentColor" y="9" dy="0.71em" font-size="20px"> </text></g><g class="tick" opacity="1" transform="translate(395.992599259926,0)"><line stroke="currentColor" y2="6"/><text fill="currentColor" y="9" dy="0.71em" font-size="20px">80</text></g><g class="tick" opacity="1" transform="translate(432.996299629963,0)"><line stroke="currentColor" y2="6"/><text fill="currentColor" y="9" dy="0.71em" font-size="20px"> </text></g><g class="tick" opacity="1" transform="translate(470,0)"><line stroke="currentColor" y2="6"/><text fill="currentColor" y="9" dy="0.71em" font-size="20px">100</text></g></g><g transform="translate(100,0)" fill="none" font-size="10" font-family="sans-serif" text-anchor="end"><path class="domain" stroke="currentColor" d="M-6,350H0V20H-6"/><g class="tick" opacity="1" transform="translate(0,315.99015925275455)"><line stroke="currentColor" x2="-6"/><text fill="currentColor" x="-9" dy="0.32em" font-size="20px">0.40</text></g><g class="tick" opacity="1" transform="translate(0,277.46246237647784)"><line stroke="currentColor" x2="-6"/><text fill="currentColor" x="-9" dy="0.32em" font-size="20px">0.35</text></g><g class="tick" opacity="1" transform="translate(0,238.93476550020108)"><line stroke="currentColor" x2="-6"/><text fill="currentColor" x="-9" dy="0.32em" font-size="20px">0.30</text></g><g class="tick" opacity="1" transform="translate(0,200.4070686239244)"><line stroke="currentColor" x2="-6"/><text fill="currentColor" x="-9" dy="0.32em" font-size="20px">0.25</text></g><g class="tick" opacity="1" transform="translate(0,161.87937174764775)"><line stroke="currentColor" x2="-6"/><text fill="currentColor" x="-9" dy="0.32em" font-size="20px">0.20</text></g><g class="tick" opacity="1" transform="translate(0,123.35167487137102)"><line stroke="currentColor" x2="-6"/><text fill="currentColor" x="-9" dy="0.32em" font-size="20px">0.15</text></g><g class="tick" opacity="1" transform="translate(0,84.82397799509431)"><line stroke="currentColor" x2="-6"/><text fill="currentColor" x="-9" dy="0.32em" font-size="20px">0.10</text></g><g class="tick" opacity="1" transform="translate(0,46.29628111881759)"><line stroke="currentColor" x2="-6"/><text fill="currentColor" x="-9" dy="0.32em" font-size="20px">0.05</text></g></g><circle cx="355" cy="150" r="8" style="fill: rgb(35, 23, 27);"/><circle cx="355" cy="175" r="8" style="fill: rgb(69, 105, 238);"/><circle cx="355" cy="200" r="8" style="fill: rgb(38, 188, 225);"/><circle cx="355" cy="225" r="8" style="fill: rgb(63, 243, 147);"/><circle cx="355" cy="250" r="8" style="fill: rgb(149, 251, 81);"/><circle cx="355" cy="275" r="8" style="fill: rgb(236, 209, 46);"/><circle cx="355" cy="300" r="8" style="fill: rgb(255, 130, 29);"/><circle cx="355" cy="325" r="8" style="fill: rgb(203, 47, 13);"/><text x="370" y="150" text-anchor="left" font-size="22" alignment-baseline="middle" style="fill: rgb(35, 23, 27);"> = 0</text><text x="370" y="175" text-anchor="left" font-size="22" alignment-baseline="middle" style="fill: rgb(69, 105, 238);"> = 0.22</text><text x="370" y="200" text-anchor="left" font-size="22" alignment-baseline="middle" style="fill: rgb(38, 188, 225);"> = 0.45</text><text x="370" y="225" text-anchor="left" font-size="22" alignment-baseline="middle" style="fill: rgb(63, 243, 147);"> = 0.67</text><text x="370" y="250" text-anchor="left" font-size="22" alignment-baseline="middle" style="fill: rgb(149, 251, 81);"> = 0.9</text><text x="370" y="275" text-anchor="left" font-size="22" alignment-baseline="middle" style="fill: rgb(236, 209, 46);"> = 1.12</text><text x="370" y="300" text-anchor="left" font-size="22" alignment-baseline="middle" style="fill: rgb(255, 130, 29);"> = 1.35</text><text x="370" y="325" text-anchor="left" font-size="22" alignment-baseline="middle" style="fill: rgb(203, 47, 13);"> = 1.57</text></svg>