<svg xmlns="http://www.w3.org/2000/svg" class="bg-white" width="500" height="400" viewBox="-10 -1 500 400"><path fill="none" stroke="rgb(35, 23, 27)" stroke-width="1.5" d="M100,87.761L100.723,88.003L101.445,88.027L102.168,88.3L102.891,88.45L103.613,88.677L104.336,88.945L105.059,88.955L105.781,89.204L106.504,89.45L107.227,89.64L107.949,90.012L108.672,90.102L109.395,90.378L110.117,90.534L110.84,90.834L111.563,91.008L112.285,91.22L113.008,91.486L113.73,91.818L114.453,91.953L115.176,92.27L115.898,92.581L116.621,92.836L117.344,93.158L118.066,93.379L118.789,93.672L119.512,93.956L120.234,94.261L120.957,94.474L121.68,94.823L122.402,95.198L123.125,95.518L123.848,96.036L124.57,96.227L125.293,96.439L126.016,97L126.738,97.242L127.461,97.706L128.184,98.018L128.906,98.471L129.629,98.814L130.352,99.114L131.074,99.584L131.797,100.086L132.52,100.41L133.242,100.813L133.965,101.349L134.688,101.783L135.41,102.238L136.133,102.622L136.855,103.154L137.578,103.699L138.301,104.193L139.023,104.754L139.746,105.34L140.469,105.773L141.191,106.237L141.914,106.853L142.637,107.305L143.359,107.969L144.082,108.601L144.805,109.217L145.527,109.767L146.25,110.464L146.973,111.204L147.695,111.725L148.418,112.38L149.141,113.098L149.863,113.746L150.586,114.325L151.309,115.3L152.031,116.018L152.754,116.774L153.477,117.533L154.199,118.339L154.922,119.227L155.645,119.968L156.367,120.855L157.09,121.83L157.813,122.667L158.535,123.581L159.258,124.569L159.98,125.539L160.703,126.541L161.426,127.457L162.148,128.56L162.871,129.644L163.594,130.793L164.316,131.944L165.039,133.026L165.762,134.129L166.484,135.382L167.207,136.626L167.93,138.064L168.652,139.399L169.375,140.687L170.098,141.991L170.82,143.483L171.543,144.933L172.266,146.427L172.988,148.104L173.711,149.725L174.434,151.27L175.156,153.032L175.879,154.865L176.602,156.777L177.324,158.529L178.047,160.505L178.77,162.469L179.492,164.679L180.215,166.925L180.938,169.008L181.66,171.486L182.383,173.91L183.105,176.244L183.828,178.893L184.551,181.576L185.273,184.464L185.996,187.055L186.719,190.083L187.441,193.246L188.164,196.14L188.887,199.513L189.609,202.679L190.332,206.217L191.055,209.472L191.777,213.16L192.5,216.877L193.223,220.52L193.945,224.391L194.668,228.246L195.391,231.987L196.113,236.038L196.836,240.045L197.559,244.099L198.281,248.15L199.004,252.287L199.727,256.449L200.449,260.667L201.172,264.585L201.895,268.771L202.617,272.939L203.34,276.961L204.063,281.039L204.785,285.434L205.508,289.066L206.23,292.961L206.953,296.69L207.676,300.728L208.398,304.181L209.121,307.668L209.844,311.13L210.566,314.197L211.289,317.721L212.012,320.763L212.734,323.813L213.457,326.559L214.18,329.219L214.902,331.841L215.625,334.136L216.348,336.373L217.07,338.384L217.793,340.474L218.516,342.205L219.238,343.688L219.961,345.201L220.684,346.181L221.406,347.293L222.129,348.268L222.852,348.676L223.574,349.439L224.297,349.808L225.02,349.95L225.742,350L226.465,349.763L227.188,349.109L227.91,349.16L228.633,348.477L229.355,347.504L230.078,346.198L230.801,345.409L231.523,343.646L232.246,342.502L232.969,340.92L233.691,339.021L234.414,337.185L235.137,334.812L235.859,333.099L236.582,330.248L237.305,328.32L238.027,325.844L238.75,323.216L239.473,320.454L240.195,317.286L240.918,314.492L241.641,311.505L242.363,308.328L243.086,304.417L243.809,301.68L244.531,298.1L245.254,294.934L245.977,291.369L246.699,287.395L247.422,283.862L248.145,280.377L248.867,276.813L249.59,272.735L250.313,269.314L251.035,265.325L251.758,261.336L252.48,257.637L253.203,253.851L253.926,249.884L254.648,246.19L255.371,242.226L256.094,238.378L256.816,234.616L257.539,230.747L258.262,226.986L258.984,223.131L259.707,219.475L260.43,215.73L261.152,211.935L261.875,208.242L262.598,204.42L263.32,200.768L264.043,197.152L264.766,193.561L265.488,189.926L266.211,186.416L266.934,182.65L267.656,179.31L268.379,175.814L269.102,172.255L269.824,168.972L270.547,165.3L271.27,161.729L271.992,158.087L272.715,154.519L273.438,150.944L274.16,147.193L274.883,143.693L275.605,140.209L276.328,136.604L277.051,133.048L277.773,129.623L278.496,126.167L279.219,122.635L279.941,119.343L280.664,115.888L281.387,112.684L282.109,109.373L282.832,106.36L283.555,103.147L284.277,100.043L285,97.169L285.723,94.128L286.445,91.371L287.168,88.529L287.891,85.887L288.613,83.141L289.336,80.416L290.059,80.5L290.781,81.33L291.504,82.199L292.227,82.919L292.949,83.922L293.672,84.766L294.395,84.125L295.117,82.397L295.84,80.542L296.563,78.854L297.285,77.186L298.008,75.686L298.73,74.006L299.453,72.412L300.176,71.055L300.898,69.497L301.621,68.033L302.344,66.549L303.066,65.161L303.789,63.797L304.512,62.431L305.234,60.997L305.957,59.732L306.68,58.474L307.402,57.314L308.125,56.038L308.848,55.055L309.57,53.829L310.293,52.856L311.016,51.657L311.738,50.559L312.461,49.601L313.184,48.515L313.906,47.6L314.629,46.807L315.352,45.7L316.074,45.009L316.797,44.072L317.52,43.09L318.242,42.497L318.965,41.477L319.688,40.913L320.41,39.83L321.133,39.377L321.855,38.621L322.578,37.958L323.301,37.407L324.023,36.709L324.746,36.121L325.469,35.696L326.191,35.065L326.914,34.427L327.637,33.953L328.359,33.297L329.082,32.992L329.805,32.578L330.527,32.108L331.25,31.534L331.973,30.987L332.695,30.8L333.418,30.4L334.141,30.156L334.863,29.416L335.586,29.311L336.309,29.018L337.031,28.692L337.754,28.315L338.477,28.137L339.199,27.656L339.922,27.614L340.645,27.178L341.367,27.023L342.09,26.716L342.813,26.474L343.535,26.434L344.258,25.995L344.98,25.919L345.703,25.842L346.426,25.579L347.148,25.444L347.871,25.268L348.594,24.798L349.316,24.626L350.039,24.836L350.762,24.63L351.484,24.386L352.207,24.238L352.93,24.046L353.652,24.016L354.375,24.166L355.098,23.338L355.82,23.645L356.543,23.623L357.266,23.664L357.988,23.371L358.711,23.12L359.434,23.293L360.156,23.023L360.879,23.174L361.602,23.003L362.324,23.089L363.047,22.588L363.77,22.969L364.492,22.64L365.215,22.51L365.938,22.492L366.66,22.263L367.383,22.577L368.105,22.434L368.828,22.417L369.551,22.493L370.273,22.656L370.996,22.269L371.719,22.32L372.441,22.341L373.164,22.432L373.887,22.186L374.609,22.821L375.332,22.539L376.055,22.088L376.777,21.743L377.5,21.567L378.223,21.775L378.945,22.188L379.668,21.77L380.391,21.801L381.113,22.005L381.836,21.83L382.559,21.917L383.281,21.718L384.004,21.496L384.727,22.321L385.449,22.039L386.172,22.306L386.895,21.981L387.617,22.39L388.34,22.931L389.063,22.325L389.785,22.058L390.508,22.174L391.23,21.996L391.953,22.966L392.676,22.404L393.398,22.41L394.121,22.726L394.844,22.612L395.566,22.445L396.289,22.412L397.012,22.28L397.734,22.562L398.457,22.486L399.18,22.76L399.902,21.857L400.625,24.161L401.348,23.954L402.07,23.445L402.793,23.54L403.516,23.016L404.238,23.632L404.961,24.607L405.684,24.862L406.406,25.569L407.129,25.189L407.852,26.639L408.574,25.557L409.297,28.028L410.02,27.169L410.742,24.968L411.465,26.235L412.188,25.791L412.91,27.715L413.633,27.515L414.355,28.374L415.078,29.516L415.801,30.626L416.523,30.001L417.246,30.229L417.969,30.479L418.691,33.351L419.414,30.313L420.137,32.066L420.859,32.013L421.582,31.159L422.305,32.32L423.027,31.499L423.75,33.125L424.473,33.167L425.195,32.03L425.918,31.511L426.641,32.075L427.363,32.864L428.086,32.103L428.809,31.293L429.531,30.168L430.254,30.399L430.977,29.753L431.699,30.031L432.422,30.125L433.145,28.704L433.867,28.241L434.59,29.05L435.313,27.663L436.035,27.755L436.758,27.307L437.48,27.208L438.203,27.671L438.926,26.481L439.648,25.876L440.371,26.729L441.094,24.914L441.816,25.878L442.539,25.544L443.262,25.29L443.984,25.431L444.707,24.684L445.43,24.864L446.152,24.526L446.875,24.107L447.598,23.91L448.32,23.816L449.043,23.875L449.766,23.473L450.488,23.463L451.211,22.995L451.934,22.494L452.656,23.188L453.379,22.33L454.102,22.588L454.824,22.645L455.547,22.68L456.27,22.623L456.992,22.328L457.715,22.269L458.438,21.978L459.16,22.206L459.883,22.062L460.605,21.872L461.328,21.75L462.051,22L462.773,21.945L463.496,21.716L464.219,21.806L464.941,21.781L465.664,21.751L466.387,21.483L467.109,21.54L467.832,21.643L468.555,21.345L469.277,21.387"/><path fill="none" stroke="rgb(69, 105, 238)" stroke-width="1.5" d="M100,87.421L100.723,87.476L101.445,87.749L102.168,87.925L102.891,88.114L103.613,88.372L104.336,88.465L105.059,88.833L105.781,88.869L106.504,89.186L107.227,89.289L107.949,89.579L108.672,89.854L109.395,90.105L110.117,90.195L110.84,90.449L111.563,90.653L112.285,90.799L113.008,91.208L113.73,91.453L114.453,91.665L115.176,91.825L115.898,92.173L116.621,92.342L117.344,92.721L118.066,92.984L118.789,93.251L119.512,93.71L120.234,93.808L120.957,94.125L121.68,94.509L122.402,94.728L123.125,95.004L123.848,95.355L124.57,95.75L125.293,96.046L126.016,96.564L126.738,96.807L127.461,97.164L128.184,97.515L128.906,97.798L129.629,98.179L130.352,98.571L131.074,99.137L131.797,99.379L132.52,99.849L133.242,100.353L133.965,100.715L134.688,101.14L135.41,101.549L136.133,102.069L136.855,102.385L137.578,102.943L138.301,103.471L139.023,103.88L139.746,104.5L140.469,105.001L141.191,105.693L141.914,106.066L142.637,106.545L143.359,107.237L144.082,107.828L144.805,108.258L145.527,108.956L146.25,109.56L146.973,110.102L147.695,110.739L148.418,111.396L149.141,112.103L149.863,112.742L150.586,113.488L151.309,114.231L152.031,114.98L152.754,115.824L153.477,116.397L154.199,117.274L154.922,118.05L155.645,118.715L156.367,119.699L157.09,120.471L157.813,121.304L158.535,122.211L159.258,123.153L159.98,124.068L160.703,125.067L161.426,126.108L162.148,126.954L162.871,127.899L163.594,129.175L164.316,130.075L165.039,131.142L165.762,132.44L166.484,133.544L167.207,134.712L167.93,135.903L168.652,137.134L169.375,138.374L170.098,139.729L170.82,141.064L171.543,142.359L172.266,143.839L172.988,145.246L173.711,146.665L174.434,148.267L175.156,149.724L175.879,151.329L176.602,153.017L177.324,154.801L178.047,156.37L178.77,158.094L179.492,159.995L180.215,161.872L180.938,163.638L181.66,165.755L182.383,167.923L183.105,169.821L183.828,171.854L184.551,173.889L185.273,176.289L185.996,178.51L186.719,180.689L187.441,182.898L188.164,185.294L188.887,187.802L189.609,190.345L190.332,192.932L191.055,195.441L191.777,197.981L192.5,200.427L193.223,203.079L193.945,205.878L194.668,208.434L195.391,211.277L196.113,213.912L196.836,216.862L197.559,219.655L198.281,222.403L199.004,224.999L199.727,227.816L200.449,230.625L201.172,233.143L201.895,235.938L202.617,238.797L203.34,241.612L204.063,244.287L204.785,246.864L205.508,249.075L206.23,251.72L206.953,254.238L207.676,256.617L208.398,258.952L209.121,261.532L209.844,263.432L210.566,265.694L211.289,267.633L212.012,269.671L212.734,271.445L213.457,273.131L214.18,274.844L214.902,276.548L215.625,277.992L216.348,279.17L217.07,280.357L217.793,281.644L218.516,282.743L219.238,283.551L219.961,284.405L220.684,285.101L221.406,285.604L222.129,285.935L222.852,286.295L223.574,286.359L224.297,286.353L225.02,286.411L225.742,286.221L226.465,285.717L227.188,285.425L227.91,284.814L228.633,284.219L229.355,283.4L230.078,282.322L230.801,281.233L231.523,280.122L232.246,279.305L232.969,277.677L233.691,276.053L234.414,274.448L235.137,273.018L235.859,271.391L236.582,269.263L237.305,267.57L238.027,265.672L238.75,263.31L239.473,261.058L240.195,258.889L240.918,256.466L241.641,254.092L242.363,251.496L243.086,248.956L243.809,246.382L244.531,243.84L245.254,241.136L245.977,238.342L246.699,235.451L247.422,232.639L248.145,229.925L248.867,227.152L249.59,224.004L250.313,221.368L251.035,218.523L251.758,215.425L252.48,212.156L253.203,209.137L253.926,206.364L254.648,203.378L255.371,200.068L256.094,197.61L256.816,194.221L257.539,191.258L258.262,188.582L258.984,185.396L259.707,182.294L260.43,179.247L261.152,176.255L261.875,173.474L262.598,170.667L263.32,167.76L264.043,164.816L264.766,161.981L265.488,158.967L266.211,156.194L266.934,153.458L267.656,150.396L268.379,147.723L269.102,144.823L269.824,141.926L270.547,138.935L271.27,136.18L271.992,133.477L272.715,130.598L273.438,127.767L274.16,125.11L274.883,122.005L275.605,119.162L276.328,116.604L277.051,113.884L277.773,111.082L278.496,108.493L279.219,105.745L279.941,102.992L280.664,100.643L281.387,97.61L282.109,95.101L282.832,92.523L283.555,90.078L284.277,87.629L285,85.241L285.723,82.705L286.445,80.429L287.168,78.22L287.891,75.79L288.613,74.628L289.336,75.748L290.059,76.836L290.781,78.3L291.504,79.29L292.227,80.406L292.949,81.381L293.672,79.874L294.395,78.347L295.117,76.83L295.84,75.457L296.563,74.252L297.285,72.678L298.008,71.385L298.73,69.994L299.453,68.851L300.176,67.622L300.898,66.364L301.621,64.943L302.344,63.712L303.066,62.501L303.789,61.351L304.512,60.037L305.234,59.128L305.957,57.933L306.68,56.836L307.402,55.734L308.125,54.695L308.848,53.697L309.57,52.697L310.293,51.761L311.016,50.925L311.738,49.972L312.461,49.077L313.184,47.914L313.906,47.078L314.629,46.115L315.352,45.361L316.074,44.704L316.797,43.885L317.52,43.119L318.242,42.45L318.965,41.604L319.688,40.963L320.41,40.129L321.133,39.606L321.855,38.744L322.578,38.227L323.301,37.905L324.023,37.121L324.746,36.754L325.469,35.939L326.191,35.54L326.914,34.999L327.637,34.48L328.359,33.844L329.082,33.635L329.805,32.984L330.527,32.515L331.25,32.17L331.973,31.371L332.695,31.327L333.418,30.873L334.141,30.811L334.863,30.383L335.586,29.791L336.309,29.441L337.031,29.194L337.754,28.907L338.477,28.193L339.199,28.243L339.922,28.218L340.645,27.77L341.367,27.652L342.09,26.799L342.813,27.047L343.535,26.522L344.258,26.191L344.98,26.277L345.703,26.089L346.426,26.21L347.148,25.802L347.871,25.368L348.594,25.183L349.316,25.359L350.039,25.009L350.762,24.924L351.484,24.511L352.207,24.577L352.93,24.443L353.652,23.995L354.375,23.756L355.098,23.606L355.82,23.889L356.543,24.344L357.266,23.454L357.988,24.048L358.711,24.161L359.434,23.192L360.156,23.244L360.879,23.088L361.602,23.681L362.324,22.955L363.047,22.799L363.77,23.123L364.492,22.534L365.215,23.613L365.938,22.959L366.66,23.086L367.383,22.637L368.105,22.557L368.828,22.489L369.551,22.974L370.273,22.128L370.996,21.855L371.719,22.709L372.441,21.742L373.164,22.401L373.887,22.346L374.609,21.623L375.332,21.753L376.055,21.596L376.777,22.882L377.5,22.585L378.223,22.681L378.945,22.06L379.668,22.275L380.391,22.039L381.113,21.885L381.836,21.664L382.559,22.241L383.281,21.577L384.004,22.021L384.727,22.859L385.449,21.652L386.172,23.477L386.895,21.825L387.617,22.268L388.34,21.882L389.063,21.753L389.785,23.148L390.508,21.123L391.23,22.694L391.953,22.034L392.676,22.234L393.398,21.816L394.121,21.885L394.844,21.758L395.566,22.359L396.289,22.836L397.012,22.287L397.734,22.715L398.457,22.317L399.18,23.12L399.902,21.685L400.625,23.05L401.348,22.838L402.07,22.516L402.793,24.289L403.516,25.033L404.238,24.846L404.961,23.214L405.684,24.687L406.406,24.322L407.129,23.809L407.852,24.861L408.574,25.804L409.297,25.476L410.02,26.785L410.742,26.359L411.465,26.608L412.188,26.832L412.91,26.79L413.633,28.657L414.355,26.701L415.078,26.748L415.801,28.342L416.523,27.848L417.246,29.422L417.969,30.829L418.691,29.263L419.414,31.114L420.137,29.973L420.859,30.395L421.582,29.261L422.305,29.693L423.027,31.236L423.75,29.943L424.473,31.053L425.195,31.412L425.918,29.912L426.641,31.006L427.363,29.715L428.086,31.48L428.809,30.892L429.531,29.055L430.254,29.38L430.977,29.223L431.699,28.571L432.422,28.232L433.145,28.408L433.867,28.224L434.59,28.848L435.313,28.014L436.035,27.471L436.758,27.409L437.48,26.432L438.203,25.582L438.926,26.03L439.648,26.766L440.371,25.415L441.094,25.363L441.816,25.208L442.539,25.2L443.262,24.958L443.984,24.959L444.707,24.775L445.43,24.579L446.152,23.548L446.875,23.861L447.598,23.5L448.32,23.647L449.043,23.356L449.766,23.127L450.488,22.529L451.211,22.757L451.934,22.868L452.656,22.625L453.379,22.485L454.102,22.415L454.824,22.638L455.547,22.452L456.27,22.218L456.992,22.053L457.715,22.08L458.438,21.801L459.16,21.76L459.883,21.898L460.605,21.982L461.328,21.594L462.051,21.824L462.773,21.65L463.496,21.738L464.219,21.621L464.941,21.795L465.664,21.638L466.387,21.582L467.109,21.619L467.832,21.435L468.555,21.498L469.277,21.481"/><path fill="none" stroke="rgb(38, 188, 225)" stroke-width="1.5" d="M100,86.636L100.723,86.762L101.445,86.949L102.168,87.039L102.891,87.336L103.613,87.406L104.336,87.654L105.059,87.879L105.781,87.979L106.504,88.35L107.227,88.354L107.949,88.614L108.672,88.791L109.395,89.027L110.117,89.266L110.84,89.361L111.563,89.72L112.285,89.786L113.008,90.141L113.73,90.464L114.453,90.62L115.176,90.822L115.898,91.107L116.621,91.278L117.344,91.56L118.066,91.712L118.789,92.092L119.512,92.371L120.234,92.659L120.957,92.998L121.68,93.329L122.402,93.533L123.125,93.727L123.848,94.081L124.57,94.524L125.293,94.819L126.016,95.103L126.738,95.357L127.461,95.651L128.184,96.056L128.906,96.452L129.629,96.7L130.352,97.055L131.074,97.454L131.797,97.859L132.52,98.239L133.242,98.559L133.965,99.083L134.688,99.384L135.41,99.844L136.133,100.234L136.855,100.726L137.578,101.038L138.301,101.441L139.023,101.974L139.746,102.457L140.469,102.801L141.191,103.505L141.914,103.992L142.637,104.398L143.359,105.043L144.082,105.512L144.805,106.027L145.527,106.546L146.25,107.015L146.973,107.653L147.695,108.228L148.418,108.92L149.141,109.484L149.863,110.178L150.586,110.692L151.309,111.317L152.031,112.064L152.754,112.65L153.477,113.285L154.199,114.027L154.922,114.792L155.645,115.455L156.367,116.245L157.09,117.071L157.813,117.775L158.535,118.528L159.258,119.386L159.98,120.203L160.703,120.955L161.426,121.965L162.148,122.757L162.871,123.538L163.594,124.474L164.316,125.558L165.039,126.528L165.762,127.38L166.484,128.338L167.207,129.382L167.93,130.359L168.652,131.562L169.375,132.393L170.098,133.75L170.82,134.816L171.543,135.947L172.266,137.19L172.988,138.147L173.711,139.551L174.434,140.834L175.156,142.202L175.879,143.399L176.602,144.615L177.324,146.016L178.047,147.37L178.77,148.893L179.492,150.209L180.215,151.635L180.938,153.261L181.66,154.659L182.383,156.056L183.105,157.759L183.828,159.413L184.551,161.02L185.273,162.407L185.996,164.092L186.719,165.858L187.441,167.427L188.164,169.192L188.887,170.883L189.609,172.468L190.332,174.268L191.055,176.002L191.777,177.881L192.5,179.579L193.223,181.406L193.945,183.034L194.668,184.69L195.391,186.622L196.113,188.431L196.836,189.947L197.559,191.885L198.281,193.353L199.004,195.111L199.727,196.858L200.449,198.381L201.172,199.887L201.895,201.699L202.617,203.355L203.34,204.604L204.063,206.224L204.785,207.612L205.508,209.061L206.23,210.425L206.953,211.464L207.676,212.848L208.398,213.889L209.121,214.94L209.844,215.996L210.566,216.888L211.289,217.925L212.012,218.657L212.734,219.251L213.457,220.1L214.18,220.609L214.902,220.974L215.625,221.247L216.348,221.74L217.07,222.02L217.793,222.139L218.516,221.993L219.238,222.267L219.961,222.308L220.684,222.019L221.406,221.908L222.129,221.333L222.852,220.797L223.574,220.388L224.297,219.786L225.02,219.003L225.742,218.087L226.465,217.121L227.188,216.34L227.91,215.123L228.633,214.086L229.355,212.801L230.078,211.597L230.801,209.849L231.523,208.698L232.246,207.088L232.969,205.337L233.691,204.104L234.414,202.096L235.137,200.372L235.859,198.716L236.582,196.799L237.305,194.832L238.027,192.722L238.75,190.664L239.473,188.751L240.195,186.607L240.918,184.402L241.641,182.101L242.363,179.991L243.086,177.722L243.809,175.349L244.531,173.134L245.254,170.869L245.977,168.643L246.699,166.174L247.422,163.84L248.145,161.36L248.867,158.947L249.59,156.512L250.313,154.026L251.035,151.753L251.758,149.443L252.48,146.973L253.203,144.631L253.926,142.177L254.648,140.217L255.371,137.637L256.094,135.157L256.816,133.083L257.539,130.742L258.262,128.412L258.984,126.346L259.707,123.937L260.43,121.836L261.152,119.829L261.875,117.676L262.598,115.516L263.32,113.27L264.043,111.181L264.766,109.074L265.488,107.236L266.211,104.956L266.934,103.033L267.656,100.87L268.379,98.995L269.102,97.207L269.824,95.102L270.547,93.15L271.27,91.34L271.992,89.351L272.715,87.585L273.438,85.878L274.16,83.947L274.883,82.279L275.605,80.484L276.328,78.826L277.051,77.198L277.773,75.438L278.496,73.737L279.219,72.393L279.941,70.513L280.664,69.037L281.387,67.509L282.109,65.849L282.832,64.3L283.555,62.776L284.277,61.244L285,60.05L285.723,61.72L286.445,63.563L287.168,65.522L287.891,67.381L288.613,69.322L289.336,71.216L290.059,70.624L290.781,69.751L291.504,68.917L292.227,68.095L292.949,67.171L293.672,66.492L294.395,65.515L295.117,64.757L295.84,63.983L296.563,63.009L297.285,62.383L298.008,61.281L298.73,60.681L299.453,59.748L300.176,59.002L300.898,58.338L301.621,57.575L302.344,56.746L303.066,56.076L303.789,55.323L304.512,54.433L305.234,53.712L305.957,52.914L306.68,52.395L307.402,51.537L308.125,50.747L308.848,50.181L309.57,49.607L310.293,48.787L311.016,48.153L311.738,47.505L312.461,46.77L313.184,46.3L313.906,45.642L314.629,44.853L315.352,44.293L316.074,43.554L316.797,43.1L317.52,42.483L318.242,41.719L318.965,41.221L319.688,40.47L320.41,39.91L321.133,39.47L321.855,38.869L322.578,38.624L323.301,38.14L324.023,37.723L324.746,36.864L325.469,36.563L326.191,36.049L326.914,35.384L327.637,34.973L328.359,34.577L329.082,34.388L329.805,33.749L330.527,33.271L331.25,33.114L331.973,32.708L332.695,32.058L333.418,31.906L334.141,31.398L334.863,31.306L335.586,30.862L336.309,30.422L337.031,30.185L337.754,29.729L338.477,29.538L339.199,29.149L339.922,28.946L340.645,28.744L341.367,28.414L342.09,28.322L342.813,27.876L343.535,27.519L344.258,27.005L344.98,27.087L345.703,27.238L346.426,26.785L347.148,26.631L347.871,26.339L348.594,26.07L349.316,26.609L350.039,25.755L350.762,26.01L351.484,25.609L352.207,24.863L352.93,25.509L353.652,24.612L354.375,25.34L355.098,24.539L355.82,24.318L356.543,24.783L357.266,24.294L357.988,24.33L358.711,23.847L359.434,23.918L360.156,24.121L360.879,23.717L361.602,23.801L362.324,23.884L363.047,23.583L363.77,23.107L364.492,23.263L365.215,23.188L365.938,22.838L366.66,23.053L367.383,23.192L368.105,22.649L368.828,23.043L369.551,22.464L370.273,23.172L370.996,22.269L371.719,22.594L372.441,22.864L373.164,22.39L373.887,22.609L374.609,21.454L375.332,22.429L376.055,22.022L376.777,22.766L377.5,21.913L378.223,22.415L378.945,22.443L379.668,23.525L380.391,22.296L381.113,22.376L381.836,22.263L382.559,22.335L383.281,21.964L384.004,22.148L384.727,22.63L385.449,21.462L386.172,22.366L386.895,22.011L387.617,21.353L388.34,22.176L389.063,22.489L389.785,22.372L390.508,20.636L391.23,22.498L391.953,22.824L392.676,21.97L393.398,21.94L394.121,22.182L394.844,22.585L395.566,22.637L396.289,21.52L397.012,22.334L397.734,22.586L398.457,22.091L399.18,21.324L399.902,22.06L400.625,22.145L401.348,21.826L402.07,23.34L402.793,22.551L403.516,23.942L404.238,24.007L404.961,25.092L405.684,23.554L406.406,22.451L407.129,22.479L407.852,24.573L408.574,23.849L409.297,22.289L410.02,24.363L410.742,22.541L411.465,24.676L412.188,24.171L412.91,23.475L413.633,24.074L414.355,24.51L415.078,26.827L415.801,25.563L416.523,25.597L417.246,26.111L417.969,24.961L418.691,27.196L419.414,26.33L420.137,25.068L420.859,27.508L421.582,25.899L422.305,26.349L423.027,27.956L423.75,26.422L424.473,26.901L425.195,26.694L425.918,27.454L426.641,27.455L427.363,26.663L428.086,27.116L428.809,26.091L429.531,27.902L430.254,26.596L430.977,26.541L431.699,26.135L432.422,25.996L433.145,25.687L433.867,24.808L434.59,25.39L435.313,25.661L436.035,26.534L436.758,25.155L437.48,25.082L438.203,25.226L438.926,24.997L439.648,24.76L440.371,24.764L441.094,24.484L441.816,24.033L442.539,23.824L443.262,23.428L443.984,23.562L444.707,24.08L445.43,22.691L446.152,22.883L446.875,23.375L447.598,23.083L448.32,22.654L449.043,23.15L449.766,22.592L450.488,22.596L451.211,22.426L451.934,22.254L452.656,21.901L453.379,22.417L454.102,22.138L454.824,21.907L455.547,21.814L456.27,21.924L456.992,21.993L457.715,21.709L458.438,21.923L459.16,21.741L459.883,21.815L460.605,21.676L461.328,21.532L462.051,21.661L462.773,21.44L463.496,21.646L464.219,21.658L464.941,21.685L465.664,21.423L466.387,21.391L467.109,21.386L467.832,21.343L468.555,21.342L469.277,21.313"/><path fill="none" stroke="rgb(63, 243, 147)" stroke-width="1.5" d="M100,85.125L100.723,85.232L101.445,85.445L102.168,85.677L102.891,85.79L103.613,85.906L104.336,86.033L105.059,86.29L105.781,86.411L106.504,86.592L107.227,86.694L107.949,86.937L108.672,87.144L109.395,87.276L110.117,87.599L110.84,87.695L111.563,87.988L112.285,87.96L113.008,88.353L113.73,88.563L114.453,88.674L115.176,89.004L115.898,89.15L116.621,89.347L117.344,89.578L118.066,89.965L118.789,90.149L119.512,90.307L120.234,90.576L120.957,90.872L121.68,91.095L122.402,91.272L123.125,91.493L123.848,91.812L124.57,92.09L125.293,92.396L126.016,92.627L126.738,92.991L127.461,93.267L128.184,93.614L128.906,93.896L129.629,94.173L130.352,94.608L131.074,94.921L131.797,95.29L132.52,95.402L133.242,95.918L133.965,96.223L134.688,96.621L135.41,96.878L136.133,97.245L136.855,97.705L137.578,98.072L138.301,98.379L139.023,98.857L139.746,99.33L140.469,99.629L141.191,99.894L141.914,100.492L142.637,100.891L143.359,101.452L144.082,101.879L144.805,102.324L145.527,102.829L146.25,103.336L146.973,103.619L147.695,104.28L148.418,104.64L149.141,105.213L149.863,105.809L150.586,106.456L151.309,106.805L152.031,107.391L152.754,108.038L153.477,108.556L154.199,109.177L154.922,109.718L155.645,110.381L156.367,111.011L157.09,111.633L157.813,112.344L158.535,112.949L159.258,113.736L159.98,114.312L160.703,115.015L161.426,115.604L162.148,116.504L162.871,117.212L163.594,117.969L164.316,118.698L165.039,119.444L165.762,120.345L166.484,120.996L167.207,121.846L167.93,122.706L168.652,123.565L169.375,124.456L170.098,125.261L170.82,126.233L171.543,127.05L172.266,128.066L172.988,128.947L173.711,129.878L174.434,130.883L175.156,131.762L175.879,132.669L176.602,133.906L177.324,134.868L178.047,135.967L178.77,137.08L179.492,137.896L180.215,139.074L180.938,140.034L181.66,141.174L182.383,142.211L183.105,143.287L183.828,144.442L184.551,145.723L185.273,146.98L185.996,147.594L186.719,148.963L187.441,149.942L188.164,151.219L188.887,152.295L189.609,153.287L190.332,154.352L191.055,155.55L191.777,156.536L192.5,157.61L193.223,158.635L193.945,159.415L194.668,160.543L195.391,161.434L196.113,162.648L196.836,163.348L197.559,164.281L198.281,165.321L199.004,165.855L199.727,166.942L200.449,167.646L201.172,168.163L201.895,169.151L202.617,169.325L203.34,170.21L204.063,170.713L204.785,171.342L205.508,171.648L206.23,172.026L206.953,172.635L207.676,172.778L208.398,172.938L209.121,173.063L209.844,173.064L210.566,173.226L211.289,173.275L212.012,172.99L212.734,173.018L213.457,172.809L214.18,172.751L214.902,172.118L215.625,171.854L216.348,171.258L217.07,170.674L217.793,170.131L218.516,169.518L219.238,168.724L219.961,167.881L220.684,167.15L221.406,166.125L222.129,165.192L222.852,164.144L223.574,163.054L224.297,161.909L225.02,160.728L225.742,159.476L226.465,158.111L227.188,156.571L227.91,155.533L228.633,153.8L229.355,152.381L230.078,150.91L230.801,149.266L231.523,147.592L232.246,145.96L232.969,144.249L233.691,142.658L234.414,140.73L235.137,139.061L235.859,137.186L236.582,135.462L237.305,133.507L238.027,131.62L238.75,129.677L239.473,127.722L240.195,125.779L240.918,123.934L241.641,122.125L242.363,120.139L243.086,118.12L243.809,116.183L244.531,114.21L245.254,112.534L245.977,110.454L246.699,108.583L247.422,106.616L248.145,104.728L248.867,102.795L249.59,100.961L250.313,99.136L251.035,97.046L251.758,95.218L252.48,93.459L253.203,91.606L253.926,89.646L254.648,87.91L255.371,86.292L256.094,84.451L256.816,82.62L257.539,81.092L258.262,79.392L258.984,77.587L259.707,75.96L260.43,74.311L261.152,72.653L261.875,70.997L262.598,69.464L263.32,67.967L264.043,66.459L264.766,64.851L265.488,63.518L266.211,62.054L266.934,60.756L267.656,59.584L268.379,58.137L269.102,56.978L269.824,55.732L270.547,54.648L271.27,53.401L271.992,52.152L272.715,51.243L273.438,50.089L274.16,48.973L274.883,48.015L275.605,47.14L276.328,46.118L277.051,45.046L277.773,44.176L278.496,43.311L279.219,44.272L279.941,46.748L280.664,49.297L281.387,51.597L282.109,54.21L282.832,56.593L283.555,57.645L284.277,57.391L285,57.113L285.723,56.761L286.445,56.508L287.168,56.114L287.891,55.792L288.613,55.572L289.336,55.198L290.059,54.993L290.781,54.685L291.504,54.259L292.227,54.047L292.949,53.755L293.672,53.203L294.395,53.014L295.117,52.721L295.84,52.42L296.563,51.925L297.285,51.679L298.008,51.329L298.73,51.109L299.453,50.668L300.176,50.482L300.898,49.91L301.621,49.723L302.344,49.31L303.066,48.936L303.789,48.595L304.512,48.201L305.234,47.848L305.957,47.524L306.68,47.103L307.402,46.739L308.125,46.42L308.848,46.068L309.57,45.884L310.293,45.276L311.016,44.888L311.738,44.562L312.461,44.038L313.184,43.759L313.906,43.241L314.629,43.005L315.352,42.54L316.074,42.208L316.797,41.757L317.52,41.463L318.242,41.024L318.965,40.523L319.688,40.379L320.41,39.704L321.133,39.308L321.855,39.003L322.578,38.473L323.301,38.048L324.023,37.831L324.746,37.419L325.469,37.017L326.191,36.574L326.914,36.061L327.637,36.009L328.359,35.439L329.082,35.183L329.805,34.778L330.527,34.28L331.25,34.372L331.973,33.703L332.695,33.479L333.418,32.762L334.141,32.633L334.863,32.436L335.586,32.041L336.309,31.917L337.031,31.349L337.754,31.223L338.477,30.911L339.199,30.568L339.922,30.376L340.645,29.984L341.367,29.683L342.09,29.525L342.813,29.164L343.535,29.221L344.258,28.801L344.98,28.459L345.703,28.303L346.426,28.018L347.148,27.808L347.871,27.657L348.594,27.229L349.316,27.151L350.039,26.841L350.762,26.683L351.484,26.439L352.207,26.256L352.93,26.052L353.652,26.165L354.375,25.596L355.098,25.76L355.82,25.809L356.543,25.923L357.266,25.508L357.988,24.687L358.711,24.886L359.434,24.731L360.156,24.706L360.879,23.954L361.602,24.874L362.324,24.288L363.047,24.365L363.77,24.154L364.492,24.276L365.215,24.306L365.938,23.445L366.66,23.75L367.383,24L368.105,23.688L368.828,23.623L369.551,23.561L370.273,22.554L370.996,23.602L371.719,22.942L372.441,23.241L373.164,22.357L373.887,22.88L374.609,23.708L375.332,22.593L376.055,22.518L376.777,22.592L377.5,22.98L378.223,23.007L378.945,22.306L379.668,21.386L380.391,22.516L381.113,22.494L381.836,22.205L382.559,22.766L383.281,22.571L384.004,22.273L384.727,21.38L385.449,22.804L386.172,21.176L386.895,21.998L387.617,22.214L388.34,21.276L389.063,22.239L389.785,22.319L390.508,21.812L391.23,21.967L391.953,22.274L392.676,21.706L393.398,21.318L394.121,22.121L394.844,21.214L395.566,21.387L396.289,21.531L397.012,22.789L397.734,22.653L398.457,22.299L399.18,20.914L399.902,21.804L400.625,21.936L401.348,20.903L402.07,21.182L402.793,22.056L403.516,23.175L404.238,22.335L404.961,22.492L405.684,21.835L406.406,22.69L407.129,21.831L407.852,21.544L408.574,22.083L409.297,21.303L410.02,23.283L410.742,21.073L411.465,22.997L412.188,23.226L412.91,22.784L413.633,22.979L414.355,23.007L415.078,23.725L415.801,21.199L416.523,23.201L417.246,24.083L417.969,21.745L418.691,22.001L419.414,22.721L420.137,23.046L420.859,22.882L421.582,21.53L422.305,25.55L423.027,24.184L423.75,24.465L424.473,22.225L425.195,22.911L425.918,22.795L426.641,22.244L427.363,22.634L428.086,22.265L428.809,23.058L429.531,24.032L430.254,23.064L430.977,23.085L431.699,22.624L432.422,22.67L433.145,21.66L433.867,23.475L434.59,22.607L435.313,22.224L436.035,22.806L436.758,22.481L437.48,23.243L438.203,22.252L438.926,21.982L439.648,22.554L440.371,22.61L441.094,22.038L441.816,21.386L442.539,21.979L443.262,22.087L443.984,22.36L444.707,22.037L445.43,22.007L446.152,22.449L446.875,21.866L447.598,21.47L448.32,21.5L449.043,22.235L449.766,21.788L450.488,21.61L451.211,21.718L451.934,21.576L452.656,21.501L453.379,21.558L454.102,21.351L454.824,21.392L455.547,21.417L456.27,21.578L456.992,21.559L457.715,21.268L458.438,21.2L459.16,21.131L459.883,21.473L460.605,21.304L461.328,21.24L462.051,21.341L462.773,21.373L463.496,21.345L464.219,21.305L464.941,21.292L465.664,21.295L466.387,21.296L467.109,21.216L467.832,21.314L468.555,21.176L469.277,21.153"/><path fill="none" stroke="rgb(149, 251, 81)" stroke-width="1.5" d="M100,82.899L100.723,83.108L101.445,83.143L102.168,83.307L102.891,83.405L103.613,83.624L104.336,83.681L105.059,83.745L105.781,83.95L106.504,84.103L107.227,84.371L107.949,84.341L108.672,84.768L109.395,84.768L110.117,85.013L110.84,85.167L111.563,85.272L112.285,85.282L113.008,85.638L113.73,85.864L114.453,85.944L115.176,86.131L115.898,86.318L116.621,86.566L117.344,86.763L118.066,87.03L118.789,87.092L119.512,87.378L120.234,87.495L120.957,87.804L121.68,88.072L122.402,88.276L123.125,88.527L123.848,88.633L124.57,88.913L125.293,89.076L126.016,89.394L126.738,89.476L127.461,89.889L128.184,90.195L128.906,90.453L129.629,90.678L130.352,90.884L131.074,91.251L131.797,91.562L132.52,91.807L133.242,92.05L133.965,92.278L134.688,92.608L135.41,93.026L136.133,93.245L136.855,93.48L137.578,93.973L138.301,94.154L139.023,94.521L139.746,94.962L140.469,95.303L141.191,95.507L141.914,95.97L142.637,96.316L143.359,96.753L144.082,97.164L144.805,97.482L145.527,97.83L146.25,98.115L146.973,98.646L147.695,98.944L148.418,99.52L149.141,99.943L149.863,100.323L150.586,100.838L151.309,101.308L152.031,101.712L152.754,102.117L153.477,102.674L154.199,103.086L154.922,103.616L155.645,104.031L156.367,104.59L157.09,105.013L157.813,105.468L158.535,106.083L159.258,106.648L159.98,107.028L160.703,107.806L161.426,108.148L162.148,108.879L162.871,109.499L163.594,110.159L164.316,110.727L165.039,111.032L165.762,111.859L166.484,112.43L167.207,113.057L167.93,113.763L168.652,114.337L169.375,114.931L170.098,115.667L170.82,116.297L171.543,116.948L172.266,117.7L172.988,118.24L173.711,118.907L174.434,119.452L175.156,120.207L175.879,120.887L176.602,121.522L177.324,122.331L178.047,122.901L178.77,123.88L179.492,124.309L180.215,124.98L180.938,125.735L181.66,126.436L182.383,127.002L183.105,127.52L183.828,128.277L184.551,128.826L185.273,129.504L185.996,130.093L186.719,130.541L187.441,131.194L188.164,131.599L188.887,132.181L189.609,132.686L190.332,133.066L191.055,133.639L191.777,134.018L192.5,134.283L193.223,134.721L193.945,135.084L194.668,135.325L195.391,135.592L196.113,135.795L196.836,135.997L197.559,136.016L198.281,136.313L199.004,136.33L199.727,136.35L200.449,136.226L201.172,136.14L201.895,136.144L202.617,135.768L203.34,135.684L204.063,135.499L204.785,135.081L205.508,134.748L206.23,134.333L206.953,133.935L207.676,133.439L208.398,132.976L209.121,132.349L209.844,131.615L210.566,130.971L211.289,130.277L212.012,129.426L212.734,128.587L213.457,127.717L214.18,126.869L214.902,125.828L215.625,124.758L216.348,123.819L217.07,122.544L217.793,121.494L218.516,120.369L219.238,119.407L219.961,117.815L220.684,116.793L221.406,115.357L222.129,113.953L222.852,112.75L223.574,111.257L224.297,110.056L225.02,108.497L225.742,106.903L226.465,105.558L227.188,104.077L227.91,102.476L228.633,100.987L229.355,99.423L230.078,98.044L230.801,96.284L231.523,94.989L232.246,93.313L232.969,91.696L233.691,90.152L234.414,88.514L235.137,87.12L235.859,85.4L236.582,83.683L237.305,82.167L238.027,80.613L238.75,79.066L239.473,77.416L240.195,75.902L240.918,74.425L241.641,72.857L242.363,71.184L243.086,69.718L243.809,68.151L244.531,66.574L245.254,65.114L245.977,63.628L246.699,61.997L247.422,60.668L248.145,59.155L248.867,57.855L249.59,56.181L250.313,54.88L251.035,53.398L251.758,51.913L252.48,50.648L253.203,49.294L253.926,48.048L254.648,46.81L255.371,45.745L256.094,44.481L256.816,43.249L257.539,42.079L258.262,41.062L258.984,40.067L259.707,38.967L260.43,37.947L261.152,37.13L261.875,36.132L262.598,35.296L263.32,34.514L264.043,33.624L264.766,32.87L265.488,32.116L266.211,31.48L266.934,30.667L267.656,29.952L268.379,29.353L269.102,29.144L269.824,31.806L270.547,34.451L271.27,37.245L271.992,39.977L272.715,42.675L273.438,45.465L274.16,45.659L274.883,45.709L275.605,45.708L276.328,45.704L277.051,45.762L277.773,45.721L278.496,45.817L279.219,45.712L279.941,45.734L280.664,45.671L281.387,45.726L282.109,45.596L282.832,45.546L283.555,45.621L284.277,45.58L285,45.558L285.723,45.518L286.445,45.561L287.168,45.564L287.891,45.474L288.613,45.438L289.336,45.349L290.059,45.373L290.781,45.149L291.504,45.045L292.227,45.182L292.949,44.999L293.672,44.93L294.395,45.016L295.117,44.783L295.84,44.778L296.563,44.612L297.285,44.675L298.008,44.467L298.73,44.303L299.453,44.386L300.176,44.295L300.898,44.134L301.621,43.966L302.344,43.915L303.066,43.808L303.789,43.58L304.512,43.28L305.234,43.283L305.957,43.11L306.68,42.793L307.402,42.711L308.125,42.62L308.848,42.389L309.57,42.204L310.293,41.88L311.016,41.824L311.738,41.654L312.461,41.429L313.184,41.132L313.906,40.929L314.629,40.684L315.352,40.477L316.074,40.191L316.797,39.954L317.52,39.739L318.242,39.541L318.965,39.145L319.688,38.873L320.41,38.692L321.133,38.337L321.855,38.154L322.578,37.788L323.301,37.545L324.023,37.204L324.746,36.881L325.469,36.641L326.191,36.277L326.914,36.072L327.637,35.679L328.359,35.569L329.082,35.13L329.805,34.909L330.527,34.553L331.25,34.154L331.973,33.899L332.695,33.663L333.418,33.367L334.141,33.123L334.863,32.791L335.586,32.568L336.309,32.171L337.031,31.889L337.754,31.693L338.477,31.385L339.199,30.96L339.922,30.767L340.645,30.636L341.367,30.37L342.09,30.015L342.813,29.813L343.535,29.54L344.258,29.326L344.98,29.088L345.703,28.839L346.426,28.632L347.148,28.353L347.871,28.174L348.594,27.898L349.316,27.757L350.039,27.541L350.762,27.304L351.484,27.162L352.207,26.899L352.93,26.72L353.652,26.583L354.375,26.344L355.098,26.237L355.82,26.085L356.543,25.934L357.266,25.732L357.988,25.536L358.711,25.434L359.434,25.37L360.156,25.128L360.879,25.026L361.602,24.899L362.324,24.791L363.047,24.619L363.77,24.592L364.492,24.42L365.215,24.296L365.938,24.174L366.66,24.029L367.383,24.043L368.105,23.906L368.828,23.752L369.551,23.638L370.273,23.548L370.996,23.541L371.719,23.397L372.441,23.317L373.164,23.324L373.887,23.211L374.609,23.129L375.332,23.041L376.055,22.966L376.777,22.964L377.5,22.882L378.223,22.778L378.945,22.761L379.668,22.675L380.391,22.67L381.113,22.574L381.836,22.494L382.559,22.497L383.281,22.378L384.004,22.336L384.727,22.363L385.449,22.23L386.172,22.233L386.895,22.128L387.617,22.208L388.34,22.116L389.063,22.012L389.785,22.038L390.508,22.058L391.23,22.019L391.953,21.922L392.676,21.938L393.398,21.899L394.121,21.849L394.844,21.871L395.566,21.822L396.289,21.769L397.012,21.764L397.734,21.713L398.457,21.769L399.18,21.698L399.902,21.64L400.625,21.649L401.348,21.653L402.07,21.651L402.793,21.597L403.516,21.568L404.238,21.593L404.961,21.505L405.684,21.505L406.406,21.504L407.129,21.498L407.852,21.501L408.574,21.472L409.297,21.515L410.02,21.479L410.742,21.411L411.465,21.415L412.188,21.404L412.91,21.417L413.633,21.357L414.355,21.351L415.078,21.343L415.801,21.369L416.523,21.367L417.246,21.315L417.969,21.343L418.691,21.329L419.414,21.322L420.137,21.328L420.859,21.332L421.582,21.321L422.305,21.285L423.027,21.248L423.75,21.264L424.473,21.28L425.195,21.252L425.918,21.256L426.641,21.264L427.363,21.282L428.086,21.237L428.809,21.209L429.531,21.226L430.254,21.244L430.977,21.263L431.699,21.217L432.422,21.239L433.145,21.232L433.867,21.226L434.59,21.236L435.313,21.205L436.035,21.21L436.758,21.186L437.48,21.19L438.203,21.192L438.926,21.192L439.648,21.194L440.371,21.192L441.094,21.193L441.816,21.169L442.539,21.167L443.262,21.197L443.984,21.199L444.707,21.165L445.43,21.169L446.152,21.189L446.875,21.17L447.598,21.164L448.32,21.171L449.043,21.179L449.766,21.174L450.488,21.163L451.211,21.155L451.934,21.168L452.656,21.156L453.379,21.161L454.102,21.162L454.824,21.144L455.547,21.151L456.27,21.14L456.992,21.152L457.715,21.163L458.438,21.151L459.16,21.145L459.883,21.149L460.605,21.142L461.328,21.137L462.051,21.142L462.773,21.149L463.496,21.147L464.219,21.143L464.941,21.136L465.664,21.139L466.387,21.141L467.109,21.137L467.832,21.129L468.555,21.137L469.277,21.135"/><path fill="none" stroke="rgb(236, 209, 46)" stroke-width="1.5" d="M100,78.846L100.723,79.139L101.445,79.268L102.168,79.368L102.891,79.438L103.613,79.577L104.336,79.763L105.059,79.86L105.781,79.916L106.504,80.139L107.227,80.163L107.949,80.366L108.672,80.529L109.395,80.582L110.117,80.778L110.84,80.812L111.563,81.015L112.285,81.137L113.008,81.288L113.73,81.493L114.453,81.531L115.176,81.799L115.898,81.976L116.621,82.02L117.344,82.178L118.066,82.366L118.789,82.502L119.512,82.779L120.234,82.874L120.957,83.104L121.68,83.379L122.402,83.589L123.125,83.687L123.848,83.85L124.57,84.04L125.293,84.247L126.016,84.453L126.738,84.541L127.461,84.794L128.184,85.064L128.906,85.192L129.629,85.52L130.352,85.639L131.074,85.999L131.797,86.129L132.52,86.376L133.242,86.5L133.965,86.787L134.688,87.233L135.41,87.347L136.133,87.688L136.855,87.976L137.578,88.073L138.301,88.517L139.023,88.691L139.746,88.916L140.469,89.12L141.191,89.41L141.914,89.835L142.637,90.101L143.359,90.391L144.082,90.628L144.805,90.983L145.527,91.257L146.25,91.628L146.973,91.806L147.695,92.162L148.418,92.534L149.141,92.911L149.863,93.187L150.586,93.509L151.309,93.907L152.031,94.086L152.754,94.564L153.477,94.953L154.199,95.332L154.922,95.661L155.645,96.031L156.367,96.357L157.09,96.769L157.813,97.01L158.535,97.45L159.258,97.92L159.98,98.22L160.703,98.599L161.426,99.002L162.148,99.498L162.871,99.708L163.594,100.141L164.316,100.317L165.039,100.958L165.762,101.225L166.484,101.524L167.207,101.896L167.93,102.361L168.652,102.693L169.375,103.059L170.098,103.416L170.82,103.854L171.543,104.123L172.266,104.42L172.988,104.746L173.711,105.054L174.434,105.162L175.156,105.538L175.879,105.781L176.602,106.095L177.324,106.179L178.047,106.497L178.77,106.772L179.492,106.857L180.215,107.025L180.938,107.325L181.66,107.378L182.383,107.339L183.105,107.405L183.828,107.557L184.551,107.232L185.273,107.296L185.996,107.365L186.719,107.305L187.441,107.178L188.164,106.887L188.887,106.741L189.609,106.544L190.332,106.317L191.055,105.832L191.777,105.605L192.5,105.249L193.223,104.956L193.945,104.345L194.668,103.857L195.391,103.404L196.113,102.706L196.836,102.154L197.559,101.439L198.281,100.96L199.004,100.129L199.727,99.382L200.449,98.605L201.172,97.693L201.895,96.861L202.617,95.935L203.34,94.912L204.063,94.158L204.785,93.14L205.508,92.09L206.23,91.066L206.953,89.951L207.676,88.99L208.398,87.846L209.121,86.743L209.844,85.524L210.566,84.432L211.289,83.106L212.012,81.889L212.734,80.691L213.457,79.513L214.18,78.259L214.902,76.977L215.625,75.773L216.348,74.364L217.07,73.101L217.793,71.906L218.516,70.543L219.238,69.062L219.961,67.754L220.684,66.625L221.406,65.187L222.129,63.913L222.852,62.56L223.574,61.379L224.297,59.991L225.02,58.709L225.742,57.401L226.465,56.092L227.188,54.847L227.91,53.439L228.633,52.21L229.355,50.944L230.078,49.817L230.801,48.531L231.523,47.286L232.246,46.203L232.969,44.878L233.691,43.655L234.414,42.441L235.137,41.367L235.859,40.259L236.582,39.142L237.305,38.068L238.027,37.178L238.75,36.095L239.473,35.181L240.195,34.297L240.918,33.302L241.641,32.381L242.363,31.575L243.086,30.782L243.809,29.958L244.531,29.244L245.254,28.365L245.977,27.655L246.699,27.006L247.422,26.263L248.145,25.417L248.867,24.92L249.59,24.349L250.313,23.665L251.035,23.168L251.758,22.536L252.48,21.967L253.203,21.363L253.926,21.748L254.648,24.558L255.371,27.384L256.094,30.151L256.816,32.964L257.539,35.744L258.262,38.395L258.984,38.428L259.707,38.596L260.43,38.649L261.152,38.727L261.875,38.752L262.598,38.776L263.32,38.848L264.043,38.926L264.766,39.02L265.488,39.208L266.211,39.318L266.934,39.442L267.656,39.452L268.379,39.542L269.102,39.658L269.824,39.724L270.547,39.934L271.27,39.895L271.992,39.982L272.715,40.098L273.438,40.194L274.16,40.289L274.883,40.373L275.605,40.524L276.328,40.573L277.051,40.727L277.773,40.724L278.496,40.837L279.219,40.884L279.941,41.029L280.664,41.064L281.387,41.086L282.109,41.105L282.832,41.237L283.555,41.281L284.277,41.356L285,41.408L285.723,41.436L286.445,41.311L287.168,41.534L287.891,41.486L288.613,41.474L289.336,41.437L290.059,41.536L290.781,41.468L291.504,41.513L292.227,41.489L292.949,41.521L293.672,41.474L294.395,41.451L295.117,41.457L295.84,41.468L296.563,41.408L297.285,41.376L298.008,41.397L298.73,41.284L299.453,41.195L300.176,41.216L300.898,41.142L301.621,41.117L302.344,41.016L303.066,40.989L303.789,40.945L304.512,40.891L305.234,40.691L305.957,40.635L306.68,40.501L307.402,40.523L308.125,40.368L308.848,40.236L309.57,40.055L310.293,39.951L311.016,39.88L311.738,39.777L312.461,39.519L313.184,39.427L313.906,39.377L314.629,39.121L315.352,39.007L316.074,38.781L316.797,38.577L317.52,38.472L318.242,38.255L318.965,38.06L319.688,37.85L320.41,37.614L321.133,37.527L321.855,37.23L322.578,36.935L323.301,36.745L324.023,36.523L324.746,36.285L325.469,35.997L326.191,35.759L326.914,35.553L327.637,35.299L328.359,35.025L329.082,34.722L329.805,34.534L330.527,34.212L331.25,33.926L331.973,33.699L332.695,33.47L333.418,33.098L334.141,32.884L334.863,32.672L335.586,32.359L336.309,32.14L337.031,31.873L337.754,31.651L338.477,31.32L339.199,31.142L339.922,30.863L340.645,30.567L341.367,30.336L342.09,30.094L342.813,29.751L343.535,29.666L344.258,29.345L344.98,29.163L345.703,28.879L346.426,28.654L347.148,28.432L347.871,28.253L348.594,28.034L349.316,27.805L350.039,27.633L350.762,27.434L351.484,27.22L352.207,27.036L352.93,26.816L353.652,26.697L354.375,26.396L355.098,26.257L355.82,26.145L356.543,25.964L357.266,25.75L357.988,25.624L358.711,25.511L359.434,25.357L360.156,25.21L360.879,25.092L361.602,24.974L362.324,24.774L363.047,24.655L363.77,24.563L364.492,24.426L365.215,24.278L365.938,24.17L366.66,24.09L367.383,23.979L368.105,23.847L368.828,23.804L369.551,23.727L370.273,23.616L370.996,23.511L371.719,23.434L372.441,23.327L373.164,23.247L373.887,23.183L374.609,23.092L375.332,23.047L376.055,22.981L376.777,22.898L377.5,22.842L378.223,22.764L378.945,22.719L379.668,22.673L380.391,22.618L381.113,22.542L381.836,22.492L382.559,22.449L383.281,22.394L384.004,22.359L384.727,22.289L385.449,22.241L386.172,22.214L386.895,22.167L387.617,22.131L388.34,22.097L389.063,22.065L389.785,22.031L390.508,21.997L391.23,21.946L391.953,21.923L392.676,21.891L393.398,21.871L394.121,21.842L394.844,21.813L395.566,21.785L396.289,21.762L397.012,21.746L397.734,21.706L398.457,21.693L399.18,21.649L399.902,21.642L400.625,21.624L401.348,21.605L402.07,21.6L402.793,21.568L403.516,21.554L404.238,21.54L404.961,21.531L405.684,21.506L406.406,21.485L407.129,21.474L407.852,21.464L408.574,21.444L409.297,21.445L410.02,21.439L410.742,21.418L411.465,21.403L412.188,21.398L412.91,21.386L413.633,21.379L414.355,21.371L415.078,21.366L415.801,21.342L416.523,21.346L417.246,21.325L417.969,21.325L418.691,21.323L419.414,21.31L420.137,21.302L420.859,21.293L421.582,21.277L422.305,21.283L423.027,21.278L423.75,21.271L424.473,21.268L425.195,21.264L425.918,21.255L426.641,21.245L427.363,21.25L428.086,21.237L428.809,21.237L429.531,21.234L430.254,21.23L430.977,21.23L431.699,21.216L432.422,21.218L433.145,21.212L433.867,21.211L434.59,21.204L435.313,21.201L436.035,21.207L436.758,21.196L437.48,21.194L438.203,21.191L438.926,21.186L439.648,21.19L440.371,21.183L441.094,21.188L441.816,21.177L442.539,21.181L443.262,21.176L443.984,21.172L444.707,21.168L445.43,21.164L446.152,21.168L446.875,21.163L447.598,21.163L448.32,21.161L449.043,21.163L449.766,21.159L450.488,21.161L451.211,21.157L451.934,21.157L452.656,21.158L453.379,21.152L454.102,21.152L454.824,21.151L455.547,21.151L456.27,21.147L456.992,21.148L457.715,21.149L458.438,21.145L459.16,21.148L459.883,21.143L460.605,21.14L461.328,21.146L462.051,21.14L462.773,21.141L463.496,21.141L464.219,21.138L464.941,21.142L465.664,21.137L466.387,21.137L467.109,21.137L467.832,21.135L468.555,21.137L469.277,21.136"/><path fill="none" stroke="rgb(255, 130, 29)" stroke-width="1.5" d="M100,70.646L100.723,70.832L101.445,70.922L102.168,70.963L102.891,71.031L103.613,71.074L104.336,71.161L105.059,71.316L105.781,71.318L106.504,71.393L107.227,71.496L107.949,71.636L108.672,71.731L109.395,71.851L110.117,71.895L110.84,72.058L111.563,72.082L112.285,72.156L113.008,72.324L113.73,72.344L114.453,72.527L115.176,72.713L115.898,72.818L116.621,72.816L117.344,73.049L118.066,73.107L118.789,73.225L119.512,73.376L120.234,73.326L120.957,73.531L121.68,73.699L122.402,73.858L123.125,73.964L123.848,74.062L124.57,74.111L125.293,74.257L126.016,74.435L126.738,74.473L127.461,74.574L128.184,74.703L128.906,74.94L129.629,75.105L130.352,75.21L131.074,75.347L131.797,75.445L132.52,75.49L133.242,75.659L133.965,75.838L134.688,75.945L135.41,75.958L136.133,76.134L136.855,76.28L137.578,76.405L138.301,76.493L139.023,76.743L139.746,76.732L140.469,77.053L141.191,76.959L141.914,77.176L142.637,77.241L143.359,77.274L144.082,77.396L144.805,77.656L145.527,77.587L146.25,77.698L146.973,77.819L147.695,77.837L148.418,77.863L149.141,77.838L149.863,77.925L150.586,77.973L151.309,77.91L152.031,77.867L152.754,77.919L153.477,77.928L154.199,77.778L154.922,77.697L155.645,77.788L156.367,77.627L157.09,77.466L157.813,77.303L158.535,77.222L159.258,77.053L159.98,76.887L160.703,76.702L161.426,76.449L162.148,76.194L162.871,75.912L163.594,75.612L164.316,75.307L165.039,75.034L165.762,74.671L166.484,74.38L167.207,73.868L167.93,73.531L168.652,73.124L169.375,72.58L170.098,72.2L170.82,71.776L171.543,71.189L172.266,70.74L172.988,70.249L173.711,69.716L174.434,69.29L175.156,68.59L175.879,67.968L176.602,67.479L177.324,66.887L178.047,66.223L178.77,65.642L179.492,64.992L180.215,64.358L180.938,63.632L181.66,63.026L182.383,62.271L183.105,61.589L183.828,60.914L184.551,60.125L185.273,59.408L185.996,58.782L186.719,57.989L187.441,57.183L188.164,56.461L188.887,55.669L189.609,54.931L190.332,54.213L191.055,53.408L191.777,52.58L192.5,51.818L193.223,51.002L193.945,50.244L194.668,49.402L195.391,48.667L196.113,47.881L196.836,46.979L197.559,46.345L198.281,45.403L199.004,44.653L199.727,43.956L200.449,43.119L201.172,42.422L201.895,41.661L202.617,40.816L203.34,40.014L204.063,39.207L204.785,38.586L205.508,37.746L206.23,36.894L206.953,36.233L207.676,35.526L208.398,34.837L209.121,34.123L209.844,33.424L210.566,32.803L211.289,32.11L212.012,31.5L212.734,30.944L213.457,30.174L214.18,29.744L214.902,29.176L215.625,28.612L216.348,27.943L217.07,27.555L217.793,26.885L218.516,26.395L219.238,25.8L219.961,25.387L220.684,24.931L221.406,24.359L222.129,23.961L222.852,23.531L223.574,23.088L224.297,22.592L225.02,22.182L225.742,21.779L226.465,21.311L227.188,20.903L227.91,20.615L228.633,20.203L229.355,22.713L230.078,25.529L230.801,28.383L231.523,31.305L232.246,34.223L232.969,37.099L233.691,38.065L234.414,38.242L235.137,38.495L235.859,38.515L236.582,38.636L237.305,38.759L238.027,38.948L238.75,38.972L239.473,39.14L240.195,39.166L240.918,39.34L241.641,39.398L242.363,39.505L243.086,39.484L243.809,39.555L244.531,39.71L245.254,39.689L245.977,39.754L246.699,39.833L247.422,39.869L248.145,39.916L248.867,39.865L249.59,39.981L250.313,40.043L251.035,39.999L251.758,40.062L252.48,40.039L253.203,40.228L253.926,40.123L254.648,40.132L255.371,40.187L256.094,40.267L256.816,40.248L257.539,40.207L258.262,40.217L258.984,40.213L259.707,40.267L260.43,40.294L261.152,40.319L261.875,40.296L262.598,40.343L263.32,40.286L264.043,40.447L264.766,40.34L265.488,40.464L266.211,40.535L266.934,40.523L267.656,40.64L268.379,40.591L269.102,40.582L269.824,40.624L270.547,40.733L271.27,40.732L271.992,40.829L272.715,40.887L273.438,40.925L274.16,41.042L274.883,40.975L275.605,41.114L276.328,41.085L277.051,41.177L277.773,41.221L278.496,41.286L279.219,41.339L279.941,41.367L280.664,41.474L281.387,41.443L282.109,41.487L282.832,41.434L283.555,41.517L284.277,41.516L285,41.495L285.723,41.525L286.445,41.494L287.168,41.627L287.891,41.581L288.613,41.593L289.336,41.586L290.059,41.515L290.781,41.497L291.504,41.45L292.227,41.539L292.949,41.431L293.672,41.448L294.395,41.417L295.117,41.379L295.84,41.283L296.563,41.328L297.285,41.252L298.008,41.25L298.73,41.195L299.453,41.107L300.176,41.161L300.898,41.015L301.621,40.955L302.344,40.994L303.066,40.824L303.789,40.813L304.512,40.771L305.234,40.681L305.957,40.502L306.68,40.526L307.402,40.454L308.125,40.245L308.848,40.204L309.57,40.019L310.293,39.946L311.016,39.926L311.738,39.814L312.461,39.706L313.184,39.562L313.906,39.38L314.629,39.232L315.352,39.163L316.074,38.934L316.797,38.837L317.52,38.679L318.242,38.374L318.965,38.298L319.688,38.089L320.41,37.987L321.133,37.742L321.855,37.564L322.578,37.382L323.301,37.074L324.023,36.91L324.746,36.717L325.469,36.45L326.191,36.262L326.914,35.988L327.637,35.77L328.359,35.555L329.082,35.293L329.805,35.067L330.527,34.774L331.25,34.569L331.973,34.235L332.695,34.016L333.418,33.823L334.141,33.649L334.863,33.235L335.586,32.995L336.309,32.734L337.031,32.57L337.754,32.228L338.477,32.01L339.199,31.737L339.922,31.463L340.645,31.214L341.367,30.961L342.09,30.768L342.813,30.57L343.535,30.227L344.258,29.989L344.98,29.703L345.703,29.504L346.426,29.3L347.148,29.025L347.871,28.792L348.594,28.618L349.316,28.421L350.039,28.193L350.762,27.979L351.484,27.766L352.207,27.553L352.93,27.386L353.652,27.194L354.375,26.964L355.098,26.789L355.82,26.62L356.543,26.487L357.266,26.286L357.988,26.122L358.711,25.935L359.434,25.759L360.156,25.645L360.879,25.493L361.602,25.349L362.324,25.22L363.047,25.031L363.77,24.961L364.492,24.799L365.215,24.67L365.938,24.566L366.66,24.431L367.383,24.321L368.105,24.189L368.828,24.111L369.551,23.969L370.273,23.886L370.996,23.776L371.719,23.721L372.441,23.599L373.164,23.525L373.887,23.399L374.609,23.357L375.332,23.288L376.055,23.217L376.777,23.141L377.5,23.078L378.223,22.991L378.945,22.93L379.668,22.867L380.391,22.785L381.113,22.75L381.836,22.682L382.559,22.611L383.281,22.527L384.004,22.545L384.727,22.462L385.449,22.377L386.172,22.383L386.895,22.327L387.617,22.277L388.34,22.223L389.063,22.191L389.785,22.161L390.508,22.115L391.23,22.079L391.953,22.032L392.676,22L393.398,21.959L394.121,21.945L394.844,21.905L395.566,21.882L396.289,21.842L397.012,21.826L397.734,21.795L398.457,21.76L399.18,21.742L399.902,21.713L400.625,21.707L401.348,21.686L402.07,21.659L402.793,21.641L403.516,21.629L404.238,21.591L404.961,21.57L405.684,21.567L406.406,21.547L407.129,21.534L407.852,21.518L408.574,21.506L409.297,21.491L410.02,21.466L410.742,21.46L411.465,21.438L412.188,21.434L412.91,21.418L413.633,21.405L414.355,21.414L415.078,21.387L415.801,21.386L416.523,21.365L417.246,21.372L417.969,21.359L418.691,21.344L419.414,21.327L420.137,21.333L420.859,21.318L421.582,21.315L422.305,21.31L423.027,21.293L423.75,21.286L424.473,21.292L425.195,21.283L425.918,21.274L426.641,21.276L427.363,21.264L428.086,21.259L428.809,21.254L429.531,21.253L430.254,21.24L430.977,21.238L431.699,21.238L432.422,21.231L433.145,21.225L433.867,21.219L434.59,21.218L435.313,21.215L436.035,21.21L436.758,21.21L437.48,21.207L438.203,21.201L438.926,21.205L439.648,21.198L440.371,21.194L441.094,21.193L441.816,21.194L442.539,21.187L443.262,21.187L443.984,21.187L444.707,21.182L445.43,21.176L446.152,21.178L446.875,21.173L447.598,21.17L448.32,21.17L449.043,21.171L449.766,21.166L450.488,21.165L451.211,21.166L451.934,21.159L452.656,21.162L453.379,21.16L454.102,21.159L454.824,21.158L455.547,21.157L456.27,21.155L456.992,21.151L457.715,21.151L458.438,21.149L459.16,21.149L459.883,21.145L460.605,21.144L461.328,21.144L462.051,21.147L462.773,21.141L463.496,21.143L464.219,21.142L464.941,21.145L465.664,21.139L466.387,21.137L467.109,21.139L467.832,21.139L468.555,21.138L469.277,21.137"/><path fill="none" stroke="rgb(203, 47, 13)" stroke-width="1.5" d="M100,43.617L100.723,43.516L101.445,43.289L102.168,43.201L102.891,43.156L103.613,42.908L104.336,42.752L105.059,42.648L105.781,42.462L106.504,42.388L107.227,42.192L107.949,42.128L108.672,41.967L109.395,41.907L110.117,41.727L110.84,41.546L111.563,41.432L112.285,41.312L113.008,41.108L113.73,41.062L114.453,40.822L115.176,40.585L115.898,40.535L116.621,40.313L117.344,40.171L118.066,39.972L118.789,39.858L119.512,39.763L120.234,39.576L120.957,39.355L121.68,39.199L122.402,39.068L123.125,38.905L123.848,38.729L124.57,38.56L125.293,38.423L126.016,38.199L126.738,38.042L127.461,37.812L128.184,37.772L128.906,37.524L129.629,37.191L130.352,37.157L131.074,36.929L131.797,36.832L132.52,36.688L133.242,36.45L133.965,36.329L134.688,36.053L135.41,35.898L136.133,35.604L136.855,35.454L137.578,35.319L138.301,35.123L139.023,35.061L139.746,34.76L140.469,34.618L141.191,34.345L141.914,34.127L142.637,33.992L143.359,33.818L144.082,33.666L144.805,33.406L145.527,33.301L146.25,33.048L146.973,32.873L147.695,32.772L148.418,32.545L149.141,32.417L149.863,32.174L150.586,31.916L151.309,31.859L152.031,31.55L152.754,31.309L153.477,31.179L154.199,30.99L154.922,30.754L155.645,30.596L156.367,30.4L157.09,30.225L157.813,30L158.535,29.752L159.258,29.641L159.98,29.41L160.703,29.177L161.426,29.064L162.148,28.849L162.871,28.752L163.594,28.554L164.316,28.319L165.039,28.294L165.762,27.996L166.484,27.838L167.207,27.645L167.93,27.414L168.652,27.241L169.375,26.994L170.098,26.893L170.82,26.776L171.543,26.55L172.266,26.422L172.988,26.108L173.711,25.997L174.434,25.843L175.156,25.672L175.879,25.443L176.602,25.355L177.324,25.086L178.047,24.922L178.77,24.733L179.492,24.633L180.215,24.401L180.938,24.278L181.66,23.989L182.383,23.806L183.105,23.572L183.828,23.231L184.551,23.272L185.273,22.956L185.996,22.798L186.719,22.582L187.441,22.46L188.164,22.197L188.887,21.821L189.609,21.742L190.332,21.574L191.055,21.341L191.777,21.009L192.5,20.866L193.223,20.636L193.945,20.461L194.668,20.239L195.391,20L196.113,22.602L196.836,25.664L197.559,28.759L198.281,31.819L199.004,34.782L199.727,37.69L200.449,38.878L201.172,39.226L201.895,39.611L202.617,39.866L203.34,40.113L204.063,40.438L204.785,40.685L205.508,40.951L206.23,41.199L206.953,41.409L207.676,41.698L208.398,41.955L209.121,42.153L209.844,42.292L210.566,42.459L211.289,42.698L212.012,42.88L212.734,43.056L213.457,43.274L214.18,43.452L214.902,43.568L215.625,43.725L216.348,43.889L217.07,44.004L217.793,44.185L218.516,44.332L219.238,44.424L219.961,44.525L220.684,44.681L221.406,44.794L222.129,44.88L222.852,44.93L223.574,45.085L224.297,45.106L225.02,45.148L225.742,45.272L226.465,45.291L227.188,45.376L227.91,45.453L228.633,45.469L229.355,45.526L230.078,45.596L230.801,45.638L231.523,45.635L232.246,45.728L232.969,45.683L233.691,45.713L234.414,45.749L235.137,45.791L235.859,45.868L236.582,45.792L237.305,45.842L238.027,45.792L238.75,45.772L239.473,45.767L240.195,45.807L240.918,45.854L241.641,45.784L242.363,45.783L243.086,45.704L243.809,45.685L244.531,45.718L245.254,45.636L245.977,45.679L246.699,45.53L247.422,45.596L248.145,45.542L248.867,45.469L249.59,45.511L250.313,45.394L251.035,45.399L251.758,45.28L252.48,45.298L253.203,45.169L253.926,45.211L254.648,45.092L255.371,45.077L256.094,44.952L256.816,44.996L257.539,44.962L258.262,44.844L258.984,44.84L259.707,44.81L260.43,44.801L261.152,44.753L261.875,44.655L262.598,44.679L263.32,44.607L264.043,44.503L264.766,44.539L265.488,44.661L266.211,44.575L266.934,44.488L267.656,44.575L268.379,44.485L269.102,44.551L269.824,44.531L270.547,44.532L271.27,44.568L271.992,44.516L272.715,44.589L273.438,44.488L274.16,44.564L274.883,44.666L275.605,44.539L276.328,44.6L277.051,44.537L277.773,44.561L278.496,44.624L279.219,44.65L279.941,44.644L280.664,44.635L281.387,44.661L282.109,44.587L282.832,44.572L283.555,44.52L284.277,44.525L285,44.545L285.723,44.367L286.445,44.417L287.168,44.456L287.891,44.52L288.613,44.298L289.336,44.339L290.059,44.273L290.781,44.174L291.504,44.114L292.227,44.088L292.949,44.117L293.672,44.116L294.395,44.041L295.117,43.831L295.84,43.861L296.563,43.84L297.285,43.603L298.008,43.587L298.73,43.489L299.453,43.485L300.176,43.327L300.898,43.344L301.621,43.344L302.344,43.177L303.066,43.049L303.789,42.976L304.512,42.819L305.234,42.756L305.957,42.66L306.68,42.588L307.402,42.447L308.125,42.384L308.848,42.245L309.57,42.161L310.293,42.128L311.016,41.894L311.738,41.712L312.461,41.552L313.184,41.596L313.906,41.351L314.629,41.094L315.352,40.986L316.074,40.831L316.797,40.616L317.52,40.425L318.242,40.245L318.965,40.094L319.688,39.889L320.41,39.836L321.133,39.432L321.855,39.247L322.578,39.129L323.301,38.782L324.023,38.674L324.746,38.409L325.469,38.206L326.191,37.954L326.914,37.683L327.637,37.349L328.359,37.185L329.082,36.817L329.805,36.579L330.527,36.372L331.25,36.171L331.973,35.786L332.695,35.588L333.418,35.274L334.141,34.996L334.863,34.743L335.586,34.435L336.309,34.232L337.031,33.867L337.754,33.566L338.477,33.302L339.199,32.996L339.922,32.853L340.645,32.514L341.367,32.31L342.09,31.926L342.813,31.695L343.535,31.389L344.258,31.149L344.98,30.863L345.703,30.619L346.426,30.356L347.148,30.153L347.871,29.872L348.594,29.655L349.316,29.358L350.039,29.169L350.762,28.903L351.484,28.707L352.207,28.482L352.93,28.21L353.652,28.008L354.375,27.801L355.098,27.634L355.82,27.394L356.543,27.245L357.266,27.013L357.988,26.821L358.711,26.696L359.434,26.458L360.156,26.314L360.879,26.113L361.602,26.033L362.324,25.82L363.047,25.694L363.77,25.524L364.492,25.35L365.215,25.242L365.938,25.065L366.66,24.944L367.383,24.832L368.105,24.667L368.828,24.56L369.551,24.472L370.273,24.332L370.996,24.218L371.719,24.131L372.441,24.033L373.164,23.935L373.887,23.832L374.609,23.715L375.332,23.62L376.055,23.534L376.777,23.457L377.5,23.361L378.223,23.275L378.945,23.268L379.668,23.129L380.391,23.08L381.113,22.997L381.836,22.922L382.559,22.892L383.281,22.814L384.004,22.732L384.727,22.7L385.449,22.621L386.172,22.581L386.895,22.527L387.617,22.475L388.34,22.413L389.063,22.364L389.785,22.325L390.508,22.303L391.23,22.249L391.953,22.196L392.676,22.154L393.398,22.124L394.121,22.077L394.844,22.071L395.566,22.024L396.289,21.979L397.012,21.945L397.734,21.928L398.457,21.876L399.18,21.855L399.902,21.84L400.625,21.819L401.348,21.794L402.07,21.755L402.793,21.725L403.516,21.718L404.238,21.678L404.961,21.683L405.684,21.653L406.406,21.64L407.129,21.608L407.852,21.584L408.574,21.588L409.297,21.558L410.02,21.537L410.742,21.537L411.465,21.521L412.188,21.482L412.91,21.487L413.633,21.466L414.355,21.466L415.078,21.44L415.801,21.437L416.523,21.423L417.246,21.414L417.969,21.387L418.691,21.389L419.414,21.386L420.137,21.366L420.859,21.359L421.582,21.342L422.305,21.34L423.027,21.332L423.75,21.334L424.473,21.317L425.195,21.312L425.918,21.312L426.641,21.303L427.363,21.294L428.086,21.283L428.809,21.28L429.531,21.273L430.254,21.269L430.977,21.267L431.699,21.258L432.422,21.254L433.145,21.252L433.867,21.243L434.59,21.238L435.313,21.243L436.035,21.23L436.758,21.224L437.48,21.219L438.203,21.22L438.926,21.22L439.648,21.208L440.371,21.214L441.094,21.208L441.816,21.203L442.539,21.203L443.262,21.198L443.984,21.19L444.707,21.195L445.43,21.191L446.152,21.187L446.875,21.188L447.598,21.18L448.32,21.183L449.043,21.174L449.766,21.173L450.488,21.171L451.211,21.171L451.934,21.166L452.656,21.17L453.379,21.165L454.102,21.161L454.824,21.167L455.547,21.159L456.27,21.159L456.992,21.16L457.715,21.155L458.438,21.157L459.16,21.156L459.883,21.157L460.605,21.154L461.328,21.155L462.051,21.147L462.773,21.151L463.496,21.149L464.219,21.147L464.941,21.146L465.664,21.147L466.387,21.144L467.109,21.141L467.832,21.14L468.555,21.141L469.277,21.14"/><g transform="translate(15,190) scale(1.7) rotate(-90)"><text>Drift</text></g><g transform="translate(315,395) scale(1.8)"><text></text></g><g transform="translate(0,350)" fill="none" font-size="10" font-family="sans-serif" text-anchor="middle"><path class="domain" stroke="currentColor" d="M100,6V0H470V6"/><g class="tick" opacity="1" transform="translate(136.96669666966696,0)"><line stroke="currentColor" y2="6"/><text fill="currentColor" y="9" dy="0.71em" font-size="20px"> </text></g><g class="tick" opacity="1" transform="translate(173.97039703970398,0)"><line stroke="currentColor" y2="6"/><text fill="currentColor" y="9" dy="0.71em" font-size="20px">20</text></g><g class="tick" opacity="1" transform="translate(210.97409740974098,0)"><line stroke="currentColor" y2="6"/><text fill="currentColor" y="9" dy="0.71em" font-size="20px"> </text></g><g class="tick" opacity="1" transform="translate(247.97779777977803,0)"><line stroke="currentColor" y2="6"/><text fill="currentColor" y="9" dy="0.71em" font-size="20px">40</text></g><g class="tick" opacity="1" transform="translate(284.981498149815,0)"><line stroke="currentColor" y2="6"/><text fill="currentColor" y="9" dy="0.71em" font-size="20px"> </text></g><g class="tick" opacity="1" transform="translate(321.985198519852,0)"><line stroke="currentColor" y2="6"/><text fill="currentColor" y="9" dy="0.71em" font-size="20px">60</text></g><g class="tick" opacity="1" transform="translate(358.988898889889,0)"><line stroke="currentColor" y2="6"/><text fill="currentColor" y="9" dy="0.71em" font-size="20px"> </text></g><g class="tick" opacity="1" transform="translate(395.992599259926,0)"><line stroke="currentColor" y2="6"/><text fill="currentColor" y="9" dy="0.71em" font-size="20px">80</text></g><g class="tick" opacity="1" transform="translate(432.996299629963,0)"><line stroke="currentColor" y2="6"/><text fill="currentColor" y="9" dy="0.71em" font-size="20px"> </text></g><g class="tick" opacity="1" transform="translate(470,0)"><line stroke="currentColor" y2="6"/><text fill="currentColor" y="9" dy="0.71em" font-size="20px">100</text></g></g><g transform="translate(100,0)" fill="none" font-size="10" font-family="sans-serif" text-anchor="end"><path class="domain" stroke="currentColor" d="M-6,350H0V20H-6"/><g class="tick" opacity="1" transform="translate(0,343.6649448483127)"><line stroke="currentColor" x2="-6"/><text fill="currentColor" x="-9" dy="0.32em" font-size="20px">0.55</text></g><g class="tick" opacity="1" transform="translate(0,313.4264701145594)"><line stroke="currentColor" x2="-6"/><text fill="currentColor" x="-9" dy="0.32em" font-size="20px">0.50</text></g><g class="tick" opacity="1" transform="translate(0,283.18799538080617)"><line stroke="currentColor" x2="-6"/><text fill="currentColor" x="-9" dy="0.32em" font-size="20px">0.45</text></g><g class="tick" opacity="1" transform="translate(0,252.94952064705288)"><line stroke="currentColor" x2="-6"/><text fill="currentColor" x="-9" dy="0.32em" font-size="20px">0.40</text></g><g class="tick" opacity="1" transform="translate(0,222.71104591329964)"><line stroke="currentColor" x2="-6"/><text fill="currentColor" x="-9" dy="0.32em" font-size="20px">0.35</text></g><g class="tick" opacity="1" transform="translate(0,192.47257117954635)"><line stroke="currentColor" x2="-6"/><text fill="currentColor" x="-9" dy="0.32em" font-size="20px">0.30</text></g><g class="tick" opacity="1" transform="translate(0,162.23409644579309)"><line stroke="currentColor" x2="-6"/><text fill="currentColor" x="-9" dy="0.32em" font-size="20px">0.25</text></g><g class="tick" opacity="1" transform="translate(0,131.99562171203988)"><line stroke="currentColor" x2="-6"/><text fill="currentColor" x="-9" dy="0.32em" font-size="20px">0.20</text></g><g class="tick" opacity="1" transform="translate(0,101.7571469782866)"><line stroke="currentColor" x2="-6"/><text fill="currentColor" x="-9" dy="0.32em" font-size="20px">0.15</text></g><g class="tick" opacity="1" transform="translate(0,71.51867224453329)"><line stroke="currentColor" x2="-6"/><text fill="currentColor" x="-9" dy="0.32em" font-size="20px">0.10</text></g><g class="tick" opacity="1" transform="translate(0,41.2801975107801)"><line stroke="currentColor" x2="-6"/><text fill="currentColor" x="-9" dy="0.32em" font-size="20px">0.05</text></g></g><circle cx="355" cy="150" r="8" style="fill: rgb(35, 23, 27);"/><circle cx="355" cy="175" r="8" style="fill: rgb(69, 105, 238);"/><circle cx="355" cy="200" r="8" style="fill: rgb(38, 188, 225);"/><circle cx="355" cy="225" r="8" style="fill: rgb(63, 243, 147);"/><circle cx="355" cy="250" r="8" style="fill: rgb(149, 251, 81);"/><circle cx="355" cy="275" r="8" style="fill: rgb(236, 209, 46);"/><circle cx="355" cy="300" r="8" style="fill: rgb(255, 130, 29);"/><circle cx="355" cy="325" r="8" style="fill: rgb(203, 47, 13);"/><text x="370" y="150" text-anchor="left" font-size="22" alignment-baseline="middle" style="fill: rgb(35, 23, 27);"> = 0</text><text x="370" y="175" text-anchor="left" font-size="22" alignment-baseline="middle" style="fill: rgb(69, 105, 238);"> = 0.22</text><text x="370" y="200" text-anchor="left" font-size="22" alignment-baseline="middle" style="fill: rgb(38, 188, 225);"> = 0.45</text><text x="370" y="225" text-anchor="left" font-size="22" alignment-baseline="middle" style="fill: rgb(63, 243, 147);"> = 0.67</text><text x="370" y="250" text-anchor="left" font-size="22" alignment-baseline="middle" style="fill: rgb(149, 251, 81);"> = 0.9</text><text x="370" y="275" text-anchor="left" font-size="22" alignment-baseline="middle" style="fill: rgb(236, 209, 46);"> = 1.12</text><text x="370" y="300" text-anchor="left" font-size="22" alignment-baseline="middle" style="fill: rgb(255, 130, 29);"> = 1.35</text><text x="370" y="325" text-anchor="left" font-size="22" alignment-baseline="middle" style="fill: rgb(203, 47, 13);"> = 1.57</text></svg>