<svg xmlns="http://www.w3.org/2000/svg" class="bg-white" width="500" height="400" viewBox="-10 -1 500 400"><path fill="none" stroke="rgb(35, 23, 27)" stroke-width="1.5" d="M100,93.859L100.723,94.247L101.445,94.259L102.168,94.469L102.891,94.771L103.613,94.894L104.336,95.313L105.059,95.384L105.781,95.691L106.504,95.832L107.227,95.992L107.949,96.515L108.672,96.638L109.395,96.814L110.117,97.175L110.84,97.526L111.563,97.69L112.285,97.975L113.008,98.277L113.73,98.442L114.453,98.816L115.176,99.039L115.898,99.516L116.621,99.739L117.344,100.089L118.066,100.428L118.789,100.609L119.512,100.941L120.234,101.425L120.957,101.561L121.68,102.076L122.402,102.463L123.125,102.792L123.848,103.344L124.57,103.669L125.293,103.859L126.016,104.391L126.738,104.741L127.461,105.134L128.184,105.665L128.906,106.164L129.629,106.536L130.352,106.859L131.074,107.493L131.797,108.016L132.52,108.404L133.242,108.907L133.965,109.518L134.688,109.992L135.41,110.443L136.133,110.999L136.855,111.583L137.578,112.119L138.301,112.736L139.023,113.354L139.746,114.012L140.469,114.524L141.191,115.102L141.914,115.756L142.637,116.338L143.359,117.136L144.082,117.734L144.805,118.523L145.527,119.156L146.25,119.943L146.973,120.784L147.695,121.489L148.418,122.182L149.141,123.009L149.863,123.795L150.586,124.486L151.309,125.564L152.031,126.434L152.754,127.299L153.477,128.269L154.199,129.142L154.922,130.232L155.645,131.059L156.367,132.166L157.09,133.238L157.813,134.302L158.535,135.338L159.258,136.56L159.98,137.713L160.703,138.909L161.426,139.941L162.148,141.323L162.871,142.637L163.594,143.941L164.316,145.311L165.039,146.65L165.762,148.068L166.484,149.568L167.207,151.091L167.93,152.787L168.652,154.409L169.375,156.045L170.098,157.68L170.82,159.449L171.543,161.377L172.266,163.21L172.988,165.256L173.711,167.396L174.434,169.497L175.156,171.704L175.879,173.892L176.602,176.27L177.324,178.756L178.047,181.243L178.77,183.83L179.492,186.589L180.215,189.404L180.938,192.16L181.66,195.205L182.383,198.276L183.105,201.344L183.828,204.695L184.551,208.023L185.273,211.552L185.996,214.937L186.719,218.346L187.441,222.122L188.164,225.773L188.887,229.591L189.609,233.41L190.332,237.438L191.055,241.314L191.777,245.246L192.5,249.245L193.223,253.349L193.945,257.482L194.668,261.444L195.391,265.356L196.113,269.653L196.836,273.705L197.559,277.726L198.281,281.704L199.004,285.685L199.727,289.446L200.449,293.305L201.172,296.986L201.895,300.898L202.617,304.301L203.34,308.013L204.063,311.262L204.785,314.532L205.508,317.927L206.23,320.833L206.953,323.711L207.676,326.631L208.398,329.329L209.121,331.7L209.844,334.081L210.566,336.208L211.289,338.385L212.012,340.274L212.734,341.812L213.457,343.66L214.18,344.913L214.902,346.194L215.625,347.13L216.348,347.902L217.07,348.765L217.793,349.187L218.516,349.657L219.238,349.698L219.961,350L220.684,349.905L221.406,349.216L222.129,348.864L222.852,348.424L223.574,347.293L224.297,346.447L225.02,345.677L225.742,344.682L226.465,343.054L227.188,341.56L227.91,339.972L228.633,337.772L229.355,335.699L230.078,334.12L230.801,331.936L231.523,329.222L232.246,327.219L232.969,324.488L233.691,321.682L234.414,318.894L235.137,316.145L235.859,313.808L236.582,311.131L237.305,307.217L238.027,304.576L238.75,301.529L239.473,297.826L240.195,294.949L240.918,291.092L241.641,287.798L242.363,284.369L243.086,281.243L243.809,277.263L244.531,273.83L245.254,270.16L245.977,266.853L246.699,263.088L247.422,259.561L248.145,255.949L248.867,252.045L249.59,248.406L250.313,244.674L251.035,240.767L251.758,237.173L252.48,233.26L253.203,229.78L253.926,226.034L254.648,222.435L255.371,218.745L256.094,214.985L256.816,211.508L257.539,207.912L258.262,204.281L258.984,200.755L259.707,197.277L260.43,193.818L261.152,190.34L261.875,186.95L262.598,183.582L263.32,180.232L264.043,176.847L264.766,173.687L265.488,170.153L266.211,166.865L266.934,163.738L267.656,160.298L268.379,157.134L269.102,153.713L269.824,150.579L270.547,147.288L271.27,143.798L271.992,140.722L272.715,137.511L273.438,134.269L274.16,130.971L274.883,127.895L275.605,124.888L276.328,121.738L277.051,118.591L277.773,115.681L278.496,112.668L279.219,109.652L279.941,106.662L280.664,103.876L281.387,101.048L282.109,98.283L282.832,95.526L283.555,92.94L284.277,90.282L285,88.752L285.723,89.161L286.445,90.062L287.168,90.762L287.891,91.46L288.613,92.48L289.336,93.045L290.059,91.204L290.781,89.668L291.504,87.968L292.227,86.12L292.949,84.491L293.672,82.997L294.395,81.515L295.117,79.994L295.84,78.342L296.563,76.823L297.285,75.282L298.008,74L298.73,72.421L299.453,70.984L300.176,69.872L300.898,68.468L301.621,67.111L302.344,65.834L303.066,64.525L303.789,63.365L304.512,62.092L305.234,60.762L305.957,59.609L306.68,58.472L307.402,57.378L308.125,56.276L308.848,55.356L309.57,54.132L310.293,53.348L311.016,52.232L311.738,51.135L312.461,50.312L313.184,49.318L313.906,48.422L314.629,47.666L315.352,46.65L316.074,45.907L316.797,45.018L317.52,44.153L318.242,43.53L318.965,42.569L319.688,41.973L320.41,41.002L321.133,40.557L321.855,39.823L322.578,39.099L323.301,38.562L324.023,37.935L324.746,37.354L325.469,36.903L326.191,36.257L326.914,35.66L327.637,35.135L328.359,34.519L329.082,34.193L329.805,33.673L330.527,33.255L331.25,32.713L331.973,32.154L332.695,31.984L333.418,31.519L334.141,31.271L334.863,30.498L335.586,30.338L336.309,30.116L337.031,29.721L337.754,29.294L338.477,29.154L339.199,28.691L339.922,28.536L340.645,28.096L341.367,28.018L342.09,27.603L342.813,27.389L343.535,27.284L344.258,26.838L344.98,26.76L345.703,26.65L346.426,26.405L347.148,26.235L347.871,26.031L348.594,25.585L349.316,25.436L350.039,25.584L350.762,25.391L351.484,25.116L352.207,24.989L352.93,24.753L353.652,24.678L354.375,24.831L355.098,24.073L355.82,24.33L356.543,24.314L357.266,24.325L357.988,23.988L358.711,23.75L359.434,23.91L360.156,23.643L360.879,23.793L361.602,23.64L362.324,23.694L363.047,23.191L363.77,23.592L364.492,23.233L365.215,23.102L365.938,23.073L366.66,22.838L367.383,23.143L368.105,22.998L368.828,22.975L369.551,23.033L370.273,23.203L370.996,22.815L371.719,22.862L372.441,22.868L373.164,22.954L373.887,22.746L374.609,23.329L375.332,23.051L376.055,22.641L376.777,22.299L377.5,22.111L378.223,22.326L378.945,22.725L379.668,22.295L380.391,22.332L381.113,22.545L381.836,22.373L382.559,22.465L383.281,22.269L384.004,22.054L384.727,22.812L385.449,22.56L386.172,22.832L386.895,22.519L387.617,22.892L388.34,23.41L389.063,22.826L389.785,22.568L390.508,22.677L391.23,22.52L391.953,23.437L392.676,22.894L393.398,22.899L394.121,23.204L394.844,23.092L395.566,22.926L396.289,22.922L397.012,22.795L397.734,23.047L398.457,22.975L399.18,23.252L399.902,22.36L400.625,24.606L401.348,24.387L402.07,23.899L402.793,24.004L403.516,23.484L404.238,24.069L404.961,25.034L405.684,25.279L406.406,25.937L407.129,25.589L407.852,26.978L408.574,25.94L409.297,28.308L410.02,27.493L410.742,25.378L411.465,26.599L412.188,26.17L412.91,28.02L413.633,27.832L414.355,28.652L415.078,29.755L415.801,30.82L416.523,30.229L417.246,30.446L417.969,30.689L418.691,33.453L419.414,30.528L420.137,32.213L420.859,32.167L421.582,31.34L422.305,32.463L423.027,31.671L423.75,33.238L424.473,33.278L425.195,32.185L425.918,31.679L426.641,32.224L427.363,32.981L428.086,32.253L428.809,31.471L429.531,30.384L430.254,30.607L430.977,29.983L431.699,30.255L432.422,30.341L433.145,28.971L433.867,28.529L434.59,29.308L435.313,27.968L436.035,28.06L436.758,27.628L437.48,27.532L438.203,27.978L438.926,26.829L439.648,26.244L440.371,27.071L441.094,25.322L441.816,26.25L442.539,25.922L443.262,25.677L443.984,25.816L444.707,25.097L445.43,25.272L446.152,24.946L446.875,24.534L447.598,24.348L448.32,24.254L449.043,24.315L449.766,23.934L450.488,23.923L451.211,23.466L451.934,22.988L452.656,23.65L453.379,22.829L454.102,23.076L454.824,23.13L455.547,23.165L456.27,23.113L456.992,22.828L457.715,22.771L458.438,22.492L459.16,22.71L459.883,22.568L460.605,22.387L461.328,22.267L462.051,22.511L462.773,22.456L463.496,22.238L464.219,22.323L464.941,22.302L465.664,22.272L466.387,22.013L467.109,22.066L467.832,22.165L468.555,21.882L469.277,21.92"/><path fill="none" stroke="rgb(69, 105, 238)" stroke-width="1.5" d="M100,93.578L100.723,93.632L101.445,93.977L102.168,94.141L102.891,94.372L103.613,94.652L104.336,94.852L105.059,95.074L105.781,95.185L106.504,95.464L107.227,95.784L107.949,95.999L108.672,96.24L109.395,96.538L110.117,96.692L110.84,96.964L111.563,97.295L112.285,97.414L113.008,97.783L113.73,98.041L114.453,98.371L115.176,98.578L115.898,98.862L116.621,99.162L117.344,99.611L118.066,99.79L118.789,100.195L119.512,100.587L120.234,100.755L120.957,101.223L121.68,101.577L122.402,101.886L123.125,102.259L123.848,102.581L124.57,103.008L125.293,103.371L126.016,103.841L126.738,104.235L127.461,104.619L128.184,104.996L128.906,105.324L129.629,105.823L130.352,106.279L131.074,106.818L131.797,107.186L132.52,107.678L133.242,108.159L133.965,108.686L134.688,109.095L135.41,109.686L136.133,110.171L136.855,110.657L137.578,111.238L138.301,111.793L139.023,112.343L139.746,113.038L140.469,113.666L141.191,114.237L141.914,114.835L142.637,115.504L143.359,116.104L144.082,116.797L144.805,117.402L145.527,118.167L146.25,118.881L146.973,119.507L147.695,120.347L148.418,120.961L149.141,121.854L149.863,122.504L150.586,123.378L151.309,124.254L152.031,125.082L152.754,126.023L153.477,126.776L154.199,127.744L154.922,128.625L155.645,129.5L156.367,130.494L157.09,131.433L157.813,132.501L158.535,133.591L159.258,134.643L159.98,135.694L160.703,136.904L161.426,138.073L162.148,139.151L162.871,140.218L163.594,141.613L164.316,142.897L165.039,144.167L165.762,145.673L166.484,146.901L167.207,148.222L167.93,149.876L168.652,151.198L169.375,152.726L170.098,154.325L170.82,155.849L171.543,157.463L172.266,159.157L172.988,160.845L173.711,162.621L174.434,164.473L175.156,166.214L175.879,168.085L176.602,170.2L177.324,172.171L178.047,174.099L178.77,176.119L179.492,178.532L180.215,180.63L180.938,182.64L181.66,185.066L182.383,187.421L183.105,189.848L183.828,192.053L184.551,194.548L185.273,197L185.996,199.664L186.719,202.165L187.441,204.772L188.164,207.166L188.887,210.006L189.609,212.388L190.332,215.312L191.055,218.024L191.777,220.509L192.5,223.268L193.223,226.037L193.945,228.435L194.668,231.104L195.391,234.184L196.113,236.506L196.836,239.079L197.559,241.971L198.281,244.098L199.004,246.855L199.727,249.135L200.449,251.92L201.172,254.029L201.895,256.264L202.617,258.821L203.34,261.024L204.063,262.901L204.785,264.958L205.508,266.774L206.23,268.608L206.953,270.45L207.676,272.221L208.398,273.713L209.121,275.075L209.844,276.638L210.566,278.142L211.289,279.116L212.012,280.113L212.734,281.201L213.457,281.942L214.18,282.614L214.902,283.178L215.625,283.646L216.348,284.175L217.07,284.389L217.793,284.338L218.516,284.493L219.238,284.182L219.961,284.249L220.684,283.737L221.406,283.03L222.129,282.804L222.852,281.852L223.574,281.029L224.297,280.032L225.02,279.195L225.742,278.23L226.465,276.888L227.188,275.4L227.91,273.893L228.633,272.427L229.355,270.73L230.078,269.352L230.801,267.221L231.523,265.372L232.246,263.552L232.969,261.707L233.691,259.289L234.414,257.111L235.137,255.108L235.859,252.661L236.582,249.996L237.305,247.834L238.027,245.145L238.75,242.763L239.473,240.059L240.195,237.425L240.918,235.032L241.641,231.978L242.363,229.313L243.086,226.564L243.809,223.475L244.531,220.718L245.254,218.435L245.977,215.25L246.699,212.155L247.422,209.288L248.145,206.417L248.867,203.491L249.59,200.512L250.313,197.579L251.035,194.826L251.758,191.902L252.48,189.078L253.203,185.978L253.926,183.385L254.648,180.56L255.371,177.356L256.094,174.864L256.816,171.838L257.539,169.022L258.262,166.256L258.984,163.404L259.707,160.621L260.43,157.86L261.152,155.391L261.875,152.56L262.598,149.959L263.32,147.33L264.043,144.534L264.766,142.014L265.488,139.421L266.211,136.683L266.934,134.163L267.656,131.541L268.379,129.1L269.102,126.526L269.824,124.031L270.547,121.396L271.27,118.89L271.992,116.414L272.715,113.925L273.438,111.642L274.16,109.118L274.883,106.813L275.605,104.299L276.328,101.975L277.051,99.605L277.773,97.37L278.496,95.047L279.219,92.765L279.941,90.554L280.664,88.401L281.387,85.971L282.109,83.858L282.832,81.855L283.555,79.75L284.277,80.397L285,81.551L285.723,82.663L286.445,83.933L287.168,85.189L287.891,86.416L288.613,85.72L289.336,84.463L290.059,83.081L290.781,81.744L291.504,80.364L292.227,78.952L292.949,77.877L293.672,76.464L294.395,75.166L295.117,73.808L295.84,72.663L296.563,71.517L297.285,70.228L298.008,69.112L298.73,67.864L299.453,66.796L300.176,65.661L300.898,64.731L301.621,63.401L302.344,62.384L303.066,61.397L303.789,60.1L304.512,58.88L305.234,58.254L305.957,57.207L306.68,56.236L307.402,55.093L308.125,54.23L308.848,53.33L309.57,52.427L310.293,51.567L311.016,50.852L311.738,49.885L312.461,49.075L313.184,48.248L313.906,47.266L314.629,46.379L315.352,45.759L316.074,45.101L316.797,44.368L317.52,43.538L318.242,42.981L318.965,42.204L319.688,41.67L320.41,40.766L321.133,40.286L321.855,39.595L322.578,38.97L323.301,38.685L324.023,37.928L324.746,37.507L325.469,36.78L326.191,36.46L326.914,35.892L327.637,35.293L328.359,34.792L329.082,34.49L329.805,33.867L330.527,33.391L331.25,33.125L331.973,32.308L332.695,32.18L333.418,31.77L334.141,31.738L334.863,31.25L335.586,30.693L336.309,30.312L337.031,29.988L337.754,29.723L338.477,29.076L339.199,29.083L339.922,28.979L340.645,28.582L341.367,28.493L342.09,27.734L342.813,27.832L343.535,27.326L344.258,26.933L344.98,27.043L345.703,26.889L346.426,27.007L347.148,26.58L347.871,26.105L348.594,25.928L349.316,26.038L350.039,25.715L350.762,25.626L351.484,25.164L352.207,25.236L352.93,25.137L353.652,24.637L354.375,24.444L355.098,24.258L355.82,24.545L356.543,24.992L357.266,24.104L357.988,24.661L358.711,24.794L359.434,23.846L360.156,23.854L360.879,23.719L361.602,24.276L362.324,23.606L363.047,23.407L363.77,23.703L364.492,23.156L365.215,24.207L365.938,23.527L366.66,23.651L367.383,23.197L368.105,23.156L368.828,23.054L369.551,23.51L370.273,22.742L370.996,22.443L371.719,23.232L372.441,22.319L373.164,22.942L373.887,22.908L374.609,22.18L375.332,22.316L376.055,22.157L376.777,23.411L377.5,23.111L378.223,23.203L378.945,22.597L379.668,22.812L380.391,22.594L381.113,22.42L381.836,22.206L382.559,22.777L383.281,22.127L384.004,22.575L384.727,23.373L385.449,22.189L386.172,23.961L386.895,22.353L387.617,22.76L388.34,22.415L389.063,22.275L389.785,23.626L390.508,21.67L391.23,23.189L391.953,22.547L392.676,22.737L393.398,22.342L394.121,22.405L394.844,22.289L395.566,22.864L396.289,23.323L397.012,22.788L397.734,23.205L398.457,22.813L399.18,23.602L399.902,22.217L400.625,23.523L401.348,23.325L402.07,23.002L402.793,24.707L403.516,25.429L404.238,25.253L404.961,23.697L405.684,25.095L406.406,24.751L407.129,24.258L407.852,25.283L408.574,26.173L409.297,25.861L410.02,27.123L410.742,26.714L411.465,26.947L412.188,27.16L412.91,27.119L413.633,28.928L414.355,27.035L415.078,27.087L415.801,28.619L416.523,28.155L417.246,29.657L417.969,31.027L418.691,29.513L419.414,31.301L420.137,30.202L420.859,30.606L421.582,29.505L422.305,29.934L423.027,31.411L423.75,30.163L424.473,31.236L425.195,31.58L425.918,30.138L426.641,31.193L427.363,29.94L428.086,31.647L428.809,31.082L429.531,29.315L430.254,29.62L430.977,29.464L431.699,28.846L432.422,28.52L433.145,28.691L433.867,28.509L434.59,29.113L435.313,28.308L436.035,27.784L436.758,27.718L437.48,26.785L438.203,25.967L438.926,26.396L439.648,27.101L440.371,25.8L441.094,25.751L441.816,25.601L442.539,25.592L443.262,25.362L443.984,25.366L444.707,25.183L445.43,24.995L446.152,24.002L446.875,24.303L447.598,23.953L448.32,24.097L449.043,23.818L449.766,23.597L450.488,23.019L451.211,23.241L451.934,23.347L452.656,23.109L453.379,22.976L454.102,22.908L454.824,23.121L455.547,22.946L456.27,22.718L456.992,22.56L457.715,22.585L458.438,22.317L459.16,22.277L459.883,22.41L460.605,22.491L461.328,22.12L462.051,22.338L462.773,22.171L463.496,22.255L464.219,22.142L464.941,22.311L465.664,22.16L466.387,22.107L467.109,22.141L467.832,21.963L468.555,22.024L469.277,22.009"/><path fill="none" stroke="rgb(38, 188, 225)" stroke-width="1.5" d="M100,92.692L100.723,92.937L101.445,93.199L102.168,93.342L102.891,93.596L103.613,93.532L104.336,94.045L105.059,94.208L105.781,94.348L106.504,94.572L107.227,94.765L107.949,95.052L108.672,95.241L109.395,95.432L110.117,95.723L110.84,95.896L111.563,96.202L112.285,96.471L113.008,96.743L113.73,97.068L114.453,97.241L115.176,97.495L115.898,97.732L116.621,98.092L117.344,98.326L118.066,98.58L118.789,98.933L119.512,99.209L120.234,99.566L120.957,99.834L121.68,100.352L122.402,100.635L123.125,100.88L123.848,101.179L124.57,101.654L125.293,101.91L126.016,102.302L126.738,102.698L127.461,103.172L128.184,103.503L128.906,103.947L129.629,104.282L130.352,104.581L131.074,105.052L131.797,105.433L132.52,106.026L133.242,106.387L133.965,106.763L134.688,107.208L135.41,107.726L136.133,108.143L136.855,108.658L137.578,109.264L138.301,109.71L139.023,110.329L139.746,110.853L140.469,111.207L141.191,111.722L141.914,112.479L142.637,113.066L143.359,113.61L144.082,114.226L144.805,114.7L145.527,115.485L146.25,115.97L146.973,116.761L147.695,117.244L148.418,118.045L149.141,118.724L149.863,119.545L150.586,120.242L151.309,120.911L152.031,121.742L152.754,122.5L153.477,123.23L154.199,124.038L154.922,124.897L155.645,125.515L156.367,126.421L157.09,127.509L157.813,128.321L158.535,129.08L159.258,130.093L159.98,131.185L160.703,131.947L161.426,132.857L162.148,134.001L162.871,135.067L163.594,136.023L164.316,137.007L165.039,138.326L165.762,139.344L166.484,140.492L167.207,141.624L167.93,142.952L168.652,144.109L169.375,145.137L170.098,146.53L170.82,147.846L171.543,149.202L172.266,150.471L172.988,151.749L173.711,153.357L174.434,154.728L175.156,156.197L175.879,157.777L176.602,159.164L177.324,160.628L178.047,162.068L178.77,163.88L179.492,165.226L180.215,166.757L180.938,168.511L181.66,170.023L182.383,171.909L183.105,173.547L183.828,175.252L184.551,176.833L185.273,178.39L185.996,180.411L186.719,181.79L187.441,183.752L188.164,185.254L188.887,187.166L189.609,188.697L190.332,190.385L191.055,192.367L191.777,194.019L192.5,195.645L193.223,197.202L193.945,198.784L194.668,200.245L195.391,202.117L196.113,203.494L196.836,204.984L197.559,206.551L198.281,207.732L199.004,209.325L199.727,210.7L200.449,211.799L201.172,212.954L201.895,214.326L202.617,215.459L203.34,216.271L204.063,217.361L204.785,218.197L205.508,218.882L206.23,220.026L206.953,220.481L207.676,221.294L208.398,221.664L209.121,222.097L209.844,222.674L210.566,222.951L211.289,223.019L212.012,223.33L212.734,223.339L213.457,223.329L214.18,223.173L214.902,222.935L215.625,222.259L216.348,222.174L217.07,221.699L217.793,221.088L218.516,220.686L219.238,219.904L219.961,219.035L220.684,218.26L221.406,217.317L222.129,216.084L222.852,214.97L223.574,213.76L224.297,212.396L225.02,211.019L225.742,209.919L226.465,208.385L227.188,206.568L227.91,205.091L228.633,203.269L229.355,201.947L230.078,199.789L230.801,197.891L231.523,196.183L232.246,194.122L232.969,192.021L233.691,190.349L234.414,187.864L235.137,185.989L235.859,183.848L236.582,181.638L237.305,179.468L238.027,176.805L238.75,174.354L239.473,172.389L240.195,170.217L240.918,167.903L241.641,165.595L242.363,163.118L243.086,160.969L243.809,158.311L244.531,155.797L245.254,153.672L245.977,151.26L246.699,148.874L247.422,146.53L248.145,144.054L248.867,141.825L249.59,139.198L250.313,136.876L251.035,134.647L251.758,132.166L252.48,129.902L253.203,127.739L253.926,125.366L254.648,123.152L255.371,120.957L256.094,118.742L256.816,116.611L257.539,114.364L258.262,112.308L258.984,110.256L259.707,107.983L260.43,105.939L261.152,104.077L261.875,102.028L262.598,99.942L263.32,98.02L264.043,96L264.766,93.926L265.488,92.305L266.211,90.406L266.934,88.498L267.656,86.796L268.379,85.076L269.102,83.423L269.824,81.861L270.547,80.05L271.27,78.298L271.992,76.802L272.715,75.256L273.438,73.671L274.16,72.145L274.883,70.529L275.605,69.056L276.328,67.584L277.051,66.141L277.773,64.837L278.496,63.5L279.219,62.087L279.941,60.668L280.664,61.496L281.387,63.355L282.109,65.015L282.832,66.94L283.555,68.824L284.277,70.765L285,71.277L285.723,70.535L286.445,69.723L287.168,69.011L287.891,68.334L288.613,67.48L289.336,66.83L290.059,66.062L290.781,65.36L291.504,64.821L292.227,63.842L292.949,63.141L293.672,62.445L294.395,61.67L295.117,61.099L295.84,60.362L296.563,59.518L297.285,58.997L298.008,58.169L298.73,57.57L299.453,56.829L300.176,56.032L300.898,55.554L301.621,54.833L302.344,54.191L303.066,53.453L303.789,53.097L304.512,52.135L305.234,51.61L305.957,50.948L306.68,50.538L307.402,49.715L308.125,49.187L308.848,48.609L309.57,47.995L310.293,47.324L311.016,46.741L311.738,46.261L312.461,45.575L313.184,45.141L313.906,44.663L314.629,44.081L315.352,43.493L316.074,42.901L316.797,42.437L317.52,41.899L318.242,41.268L318.965,40.811L319.688,40.144L320.41,39.643L321.133,39.155L321.855,38.676L322.578,38.53L323.301,38.04L324.023,37.531L324.746,36.9L325.469,36.564L326.191,36.019L326.914,35.648L327.637,35.171L328.359,34.812L329.082,34.641L329.805,34.088L330.527,33.787L331.25,33.431L331.973,33.087L332.695,32.624L333.418,32.368L334.141,31.931L334.863,31.795L335.586,31.35L336.309,30.91L337.031,30.668L337.754,30.322L338.477,30.052L339.199,29.769L339.922,29.577L340.645,29.411L341.367,29.02L342.09,28.885L342.813,28.545L343.535,28.143L344.258,27.703L344.98,27.763L345.703,27.89L346.426,27.417L347.148,27.205L347.871,27.02L348.594,26.71L349.316,27.207L350.039,26.398L350.762,26.61L351.484,26.197L352.207,25.512L352.93,26.126L353.652,25.341L354.375,25.928L355.098,25.159L355.82,24.955L356.543,25.371L357.266,24.911L357.988,24.929L358.711,24.467L359.434,24.504L360.156,24.729L360.879,24.369L361.602,24.356L362.324,24.45L363.047,24.166L363.77,23.647L364.492,23.841L365.215,23.775L365.938,23.41L366.66,23.621L367.383,23.764L368.105,23.243L368.828,23.624L369.551,23.043L370.273,23.713L370.996,22.858L371.719,23.139L372.441,23.417L373.164,22.929L373.887,23.17L374.609,22.083L375.332,22.96L376.055,22.584L376.777,23.329L377.5,22.481L378.223,22.939L378.945,22.959L379.668,24.029L380.391,22.846L381.113,22.906L381.836,22.806L382.559,22.877L383.281,22.506L384.004,22.676L384.727,23.176L385.449,22.016L386.172,22.896L386.895,22.544L387.617,21.907L388.34,22.694L389.063,22.998L389.785,22.879L390.508,21.193L391.23,23L391.953,23.3L392.676,22.492L393.398,22.466L394.121,22.689L394.844,23.08L395.566,23.127L396.289,22.055L397.012,22.837L397.734,23.064L398.457,22.592L399.18,21.86L399.902,22.569L400.625,22.653L401.348,22.357L402.07,23.796L402.793,23.037L403.516,24.373L404.238,24.437L404.961,25.479L405.684,24.019L406.406,22.949L407.129,22.975L407.852,24.982L408.574,24.308L409.297,22.798L410.02,24.792L410.742,23.038L411.465,25.087L412.188,24.601L412.91,23.936L413.633,24.517L414.355,24.934L415.078,27.164L415.801,25.939L416.523,25.974L417.246,26.483L417.969,25.366L418.691,27.522L419.414,26.69L420.137,25.466L420.859,27.819L421.582,26.27L422.305,26.707L423.027,28.252L423.75,26.774L424.473,27.24L425.195,27.034L425.918,27.766L426.641,27.778L427.363,27.003L428.086,27.433L428.809,26.453L429.531,28.203L430.254,26.943L430.977,26.886L431.699,26.498L432.422,26.364L433.145,26.059L433.867,25.213L434.59,25.781L435.313,26.042L436.035,26.887L436.758,25.549L437.48,25.485L438.203,25.617L438.926,25.402L439.648,25.169L440.371,25.173L441.094,24.906L441.816,24.464L442.539,24.263L443.262,23.883L443.984,24.02L444.707,24.517L445.43,23.179L446.152,23.363L446.875,23.834L447.598,23.554L448.32,23.138L449.043,23.619L449.766,23.077L450.488,23.083L451.211,22.918L451.934,22.753L452.656,22.413L453.379,22.91L454.102,22.642L454.824,22.421L455.547,22.331L456.27,22.432L456.992,22.503L457.715,22.231L458.438,22.433L459.16,22.262L459.883,22.327L460.605,22.196L461.328,22.057L462.051,22.183L462.773,21.969L463.496,22.167L464.219,22.18L464.941,22.207L465.664,21.952L466.387,21.92L467.109,21.915L467.832,21.874L468.555,21.874L469.277,21.847"/><path fill="none" stroke="rgb(63, 243, 147)" stroke-width="1.5" d="M100,91.538L100.723,91.665L101.445,91.917L102.168,92.1L102.891,92.286L103.613,92.4L104.336,92.607L105.059,92.797L105.781,92.987L106.504,93.101L107.227,93.375L107.949,93.626L108.672,93.643L109.395,94.012L110.117,94.361L110.84,94.41L111.563,94.74L112.285,94.818L113.008,95.173L113.73,95.513L114.453,95.514L115.176,95.891L115.898,96.085L116.621,96.312L117.344,96.734L118.066,96.89L118.789,97.179L119.512,97.394L120.234,97.773L120.957,97.995L121.68,98.208L122.402,98.551L123.125,98.754L123.848,99.217L124.57,99.326L125.293,99.716L126.016,100.05L126.738,100.39L127.461,100.773L128.184,101.059L128.906,101.332L129.629,101.78L130.352,102.11L131.074,102.542L131.797,102.933L132.52,103.276L133.242,103.781L133.965,103.961L134.688,104.413L135.41,104.785L136.133,105.25L136.855,105.822L137.578,106.186L138.301,106.601L139.023,107.046L139.746,107.646L140.469,107.936L141.191,108.476L141.914,108.856L142.637,109.55L143.359,110.006L144.082,110.432L144.805,111.003L145.527,111.509L146.25,112.038L146.973,112.561L147.695,113.179L148.418,113.721L149.141,114.382L149.863,114.997L150.586,115.535L151.309,116.15L152.031,116.74L152.754,117.494L153.477,117.991L154.199,118.959L154.922,119.417L155.645,120.263L156.367,120.818L157.09,121.623L157.813,122.335L158.535,123.003L159.258,123.939L159.98,124.568L160.703,125.407L161.426,126.365L162.148,127.202L162.871,127.896L163.594,128.619L164.316,129.748L165.039,130.549L165.762,131.536L166.484,132.264L167.207,133.196L167.93,134.319L168.652,134.882L169.375,135.989L170.098,137.142L170.82,138.145L171.543,138.964L172.266,140.087L172.988,141.081L173.711,142.162L174.434,143.141L175.156,144.058L175.879,145.237L176.602,146.29L177.324,147.509L178.047,148.485L178.77,149.72L179.492,150.674L180.215,151.93L180.938,152.911L181.66,154.033L182.383,155.058L183.105,155.955L183.828,157.212L184.551,158.437L185.273,159.534L185.996,160.491L186.719,161.561L187.441,162.51L188.164,163.46L188.887,164.566L189.609,165.59L190.332,166.381L191.055,167.107L191.777,168.176L192.5,169.027L193.223,169.743L193.945,170.48L194.668,171.268L195.391,171.876L196.113,172.772L196.836,173.238L197.559,173.717L198.281,174.539L199.004,174.943L199.727,175.314L200.449,175.635L201.172,175.903L201.895,176.302L202.617,176.609L203.34,176.425L204.063,176.777L204.785,176.921L205.508,176.697L206.23,176.577L206.953,176.516L207.676,176.304L208.398,175.973L209.121,175.545L209.844,175.099L210.566,174.781L211.289,174.112L212.012,173.573L212.734,172.991L213.457,172.107L214.18,171.517L214.902,170.603L215.625,169.748L216.348,168.566L217.07,167.638L217.793,166.621L218.516,165.39L219.238,164.284L219.961,162.948L220.684,161.697L221.406,160.271L222.129,158.781L222.852,157.35L223.574,155.928L224.297,154.29L225.02,152.8L225.742,151.193L226.465,149.616L227.188,147.657L227.91,146.019L228.633,144.325L229.355,142.614L230.078,140.628L230.801,138.832L231.523,137.041L232.246,135.154L232.969,133.244L233.691,131.352L234.414,129.345L235.137,127.472L235.859,125.462L236.582,123.623L237.305,121.652L238.027,119.667L238.75,117.81L239.473,115.714L240.195,113.851L240.918,111.755L241.641,110.171L242.363,107.93L243.086,105.956L243.809,103.977L244.531,102.037L245.254,100.224L245.977,98.394L246.699,96.578L247.422,94.513L248.145,92.911L248.867,91.083L249.59,89.244L250.313,87.348L251.035,85.485L251.758,83.673L252.48,82.065L253.203,80.235L253.926,78.494L254.648,76.925L255.371,75.285L256.094,73.696L256.816,72.007L257.539,70.28L258.262,68.923L258.984,67.313L259.707,65.781L260.43,64.316L261.152,62.96L261.875,61.445L262.598,60.096L263.32,58.541L264.043,57.335L264.766,56.008L265.488,54.756L266.211,53.534L266.934,52.34L267.656,51.169L268.379,49.969L269.102,48.895L269.824,47.914L270.547,46.938L271.27,45.908L271.992,44.779L272.715,43.898L273.438,42.868L274.16,42.144L274.883,44.392L275.605,46.791L276.328,48.917L277.051,51.172L277.773,53.58L278.496,56.005L279.219,55.723L279.941,55.585L280.664,55.283L281.387,54.905L282.109,54.624L282.832,54.197L283.555,53.789L284.277,53.41L285,53.28L285.723,52.866L286.445,52.557L287.168,52.289L287.891,51.788L288.613,51.662L289.336,51.372L290.059,51.018L290.781,50.622L291.504,50.305L292.227,50.109L292.949,49.775L293.672,49.376L294.395,49.173L295.117,48.881L295.84,48.498L296.563,48.281L297.285,47.985L298.008,47.672L298.73,47.507L299.453,47.056L300.176,46.878L300.898,46.568L301.621,46.189L302.344,45.95L303.066,45.575L303.789,45.402L304.512,45.069L305.234,44.726L305.957,44.425L306.68,44.298L307.402,43.894L308.125,43.538L308.848,43.284L309.57,43.187L310.293,42.736L311.016,42.428L311.738,42.178L312.461,41.804L313.184,41.495L313.906,41.223L314.629,41.015L315.352,40.604L316.074,40.318L316.797,39.943L317.52,39.725L318.242,39.345L318.965,39.032L319.688,38.964L320.41,38.442L321.133,38.131L321.855,37.83L322.578,37.437L323.301,37.173L324.023,36.84L324.746,36.581L325.469,36.164L326.191,35.897L326.914,35.473L327.637,35.419L328.359,35.001L329.082,34.795L329.805,34.318L330.527,34.038L331.25,34.041L331.973,33.607L332.695,33.325L333.418,32.651L334.141,32.649L334.863,32.425L335.586,32.093L336.309,32.071L337.031,31.509L337.754,31.36L338.477,31.105L339.199,30.864L339.922,30.528L340.645,30.226L341.367,30.024L342.09,29.923L342.813,29.452L343.535,29.541L344.258,29.181L344.98,28.866L345.703,28.646L346.426,28.398L347.148,28.288L347.871,28.11L348.594,27.724L349.316,27.687L350.039,27.337L350.762,27.133L351.484,26.96L352.207,26.791L352.93,26.563L353.652,26.685L354.375,26.095L355.098,26.27L355.82,26.334L356.543,26.462L357.266,26.012L357.988,25.235L358.711,25.426L359.434,25.318L360.156,25.269L360.879,24.516L361.602,25.417L362.324,24.815L363.047,24.909L363.77,24.674L364.492,24.837L365.215,24.843L365.938,24.027L366.66,24.281L367.383,24.527L368.105,24.228L368.828,24.158L369.551,24.065L370.273,23.108L370.996,24.145L371.719,23.513L372.441,23.778L373.164,22.921L373.887,23.402L374.609,24.218L375.332,23.157L376.055,23.073L376.777,23.135L377.5,23.497L378.223,23.53L378.945,22.837L379.668,21.942L380.391,23.045L381.113,23.01L381.836,22.743L382.559,23.251L383.281,23.096L384.004,22.784L384.727,21.955L385.449,23.302L386.172,21.737L386.895,22.545L387.617,22.728L388.34,21.804L389.063,22.757L389.785,22.831L390.508,22.325L391.23,22.483L391.953,22.786L392.676,22.247L393.398,21.864L394.121,22.653L394.844,21.764L395.566,21.939L396.289,22.075L397.012,23.286L397.734,23.151L398.457,22.818L399.18,21.479L399.902,22.311L400.625,22.466L401.348,21.438L402.07,21.733L402.793,22.568L403.516,23.648L404.238,22.855L404.961,22.974L405.684,22.368L406.406,23.18L407.129,22.347L407.852,22.067L408.574,22.593L409.297,21.847L410.02,23.76L410.742,21.626L411.465,23.472L412.188,23.681L412.91,23.279L413.633,23.471L414.355,23.49L415.078,24.176L415.801,21.74L416.523,23.667L417.246,24.509L417.969,22.267L418.691,22.504L419.414,23.203L420.137,23.514L420.859,23.364L421.582,22.058L422.305,25.929L423.027,24.608L423.75,24.892L424.473,22.729L425.195,23.383L425.918,23.27L426.641,22.745L427.363,23.114L428.086,22.759L428.809,23.53L429.531,24.474L430.254,23.532L430.977,23.553L431.699,23.12L432.422,23.155L433.145,22.176L433.867,23.928L434.59,23.091L435.313,22.726L436.035,23.285L436.758,22.972L437.48,23.706L438.203,22.752L438.926,22.5L439.648,23.037L440.371,23.102L441.094,22.547L441.816,21.914L442.539,22.486L443.262,22.597L443.984,22.86L444.707,22.544L445.43,22.52L446.152,22.941L446.875,22.381L447.598,22.004L448.32,22.029L449.043,22.734L449.766,22.302L450.488,22.133L451.211,22.24L451.934,22.104L452.656,22.025L453.379,22.08L454.102,21.885L454.824,21.923L455.547,21.944L456.27,22.106L456.992,22.085L457.715,21.805L458.438,21.737L459.16,21.671L459.883,22.003L460.605,21.84L461.328,21.777L462.051,21.875L462.773,21.9L463.496,21.876L464.219,21.837L464.941,21.828L465.664,21.827L466.387,21.83L467.109,21.751L467.832,21.849L468.555,21.715L469.277,21.693"/><path fill="none" stroke="rgb(149, 251, 81)" stroke-width="1.5" d="M100,89.549L100.723,89.683L101.445,89.714L102.168,89.917L102.891,90.087L103.613,90.27L104.336,90.516L105.059,90.562L105.781,90.8L106.504,90.888L107.227,91.178L107.949,91.253L108.672,91.561L109.395,91.715L110.117,91.926L110.84,92.086L111.563,92.294L112.285,92.418L113.008,92.578L113.73,92.78L114.453,93.004L115.176,93.214L115.898,93.533L116.621,93.63L117.344,93.925L118.066,94.243L118.789,94.204L119.512,94.627L120.234,94.826L120.957,95.128L121.68,95.35L122.402,95.622L123.125,95.944L123.848,96.087L124.57,96.372L125.293,96.657L126.016,96.914L126.738,97.097L127.461,97.375L128.184,97.843L128.906,98.04L129.629,98.289L130.352,98.62L131.074,99.006L131.797,99.255L132.52,99.69L133.242,99.943L133.965,100.33L134.688,100.493L135.41,101.034L136.133,101.23L136.855,101.638L137.578,102.064L138.301,102.397L139.023,102.798L139.746,103.25L140.469,103.544L141.191,103.883L141.914,104.32L142.637,104.915L143.359,105.243L144.082,105.697L144.805,106.098L145.527,106.545L146.25,106.967L146.973,107.395L147.695,107.865L148.418,108.299L149.141,108.981L149.863,109.406L150.586,109.992L151.309,110.531L152.031,110.904L152.754,111.501L153.477,111.941L154.199,112.529L154.922,113.175L155.645,113.469L156.367,114.243L157.09,114.845L157.813,115.339L158.535,116.094L159.258,116.549L159.98,117.042L160.703,117.901L161.426,118.434L162.148,118.981L162.871,119.723L163.594,120.392L164.316,121.115L165.039,121.633L165.762,122.491L166.484,123.098L167.207,123.761L167.93,124.586L168.652,125.111L169.375,125.801L170.098,126.438L170.82,127.271L171.543,127.926L172.266,128.763L172.988,129.332L173.711,129.975L174.434,130.508L175.156,131.254L175.879,131.964L176.602,132.576L177.324,133.251L178.047,133.887L178.77,134.662L179.492,135.13L180.215,135.601L180.938,136.262L181.66,136.816L182.383,137.526L183.105,137.775L183.828,138.32L184.551,138.764L185.273,139.184L185.996,139.716L186.719,139.922L187.441,140.438L188.164,140.584L188.887,140.864L189.609,141.194L190.332,141.361L191.055,141.547L191.777,141.668L192.5,141.792L193.223,141.873L193.945,141.732L194.668,141.714L195.391,141.72L196.113,141.456L196.836,141.381L197.559,141.086L198.281,140.909L199.004,140.582L199.727,140.108L200.449,139.79L201.172,139.171L201.895,138.778L202.617,138.089L203.34,137.578L204.063,137.041L204.785,135.943L205.508,135.434L206.23,134.516L206.953,133.79L207.676,132.909L208.398,131.794L209.121,130.863L209.844,129.764L210.566,128.96L211.289,127.77L212.012,126.42L212.734,125.274L213.457,124.106L214.18,122.831L214.902,121.571L215.625,120.283L216.348,118.931L217.07,117.499L217.793,116.134L218.516,114.656L219.238,113.243L219.961,111.701L220.684,110.201L221.406,108.737L222.129,107.17L222.852,105.665L223.574,104.092L224.297,102.551L225.02,100.966L225.742,99.249L226.465,97.838L227.188,96.112L227.91,94.325L228.633,92.845L229.355,91.208L230.078,89.645L230.801,88.095L231.523,86.369L232.246,84.916L232.969,83.327L233.691,81.673L234.414,80.052L235.137,78.703L235.859,76.892L236.582,75.315L237.305,73.744L238.027,72.215L238.75,70.674L239.473,69.16L240.195,67.65L240.918,66.186L241.641,64.617L242.363,63.106L243.086,61.546L243.809,60.104L244.531,58.673L245.254,57.312L245.977,55.927L246.699,54.463L247.422,53.144L248.145,51.732L248.867,50.432L249.59,49.01L250.313,47.805L251.035,46.451L251.758,45.224L252.48,44.015L253.203,42.753L253.926,41.693L254.648,40.628L255.371,39.523L256.094,38.385L256.816,37.394L257.539,36.284L258.262,35.359L258.984,34.414L259.707,33.355L260.43,32.546L261.152,31.818L261.875,30.955L262.598,30.051L263.32,29.394L264.043,28.651L264.766,30.236L265.488,32.631L266.211,35.182L266.934,37.711L267.656,40.168L268.379,42.83L269.102,43.971L269.824,43.813L270.547,43.663L271.27,43.641L271.992,43.586L272.715,43.416L273.438,43.418L274.16,43.348L274.883,43.201L275.605,43.153L276.328,43.021L277.051,43.01L277.773,43.008L278.496,42.918L279.219,42.908L279.941,42.736L280.664,42.63L281.387,42.749L282.109,42.483L282.832,42.425L283.555,42.406L284.277,42.305L285,42.28L285.723,42.3L286.445,42.233L287.168,42.149L287.891,41.929L288.613,41.857L289.336,41.734L290.059,41.719L290.781,41.58L291.504,41.537L292.227,41.382L292.949,41.33L293.672,41.248L294.395,41.274L295.117,41.076L295.84,41.113L296.563,41.038L297.285,40.926L298.008,40.832L298.73,40.738L299.453,40.62L300.176,40.538L300.898,40.477L301.621,40.34L302.344,40.38L303.066,40.28L303.789,40.032L304.512,39.971L305.234,39.959L305.957,39.747L306.68,39.711L307.402,39.56L308.125,39.367L308.848,39.168L309.57,39.139L310.293,38.934L311.016,38.892L311.738,38.754L312.461,38.636L313.184,38.376L313.906,38.342L314.629,38.117L315.352,37.952L316.074,37.865L316.797,37.61L317.52,37.432L318.242,37.289L318.965,37.101L319.688,36.913L320.41,36.701L321.133,36.562L321.855,36.336L322.578,36.199L323.301,35.953L324.023,35.762L324.746,35.505L325.469,35.321L326.191,35.086L326.914,34.957L327.637,34.692L328.359,34.511L329.082,34.251L329.805,34.074L330.527,33.839L331.25,33.587L331.973,33.301L332.695,33.04L333.418,32.864L334.141,32.678L334.863,32.45L335.586,32.229L336.309,31.83L337.031,31.667L337.754,31.477L338.477,31.219L339.199,30.947L339.922,30.732L340.645,30.607L341.367,30.357L342.09,30.126L342.813,29.91L343.535,29.717L344.258,29.535L344.98,29.284L345.703,29.131L346.426,28.883L347.148,28.633L347.871,28.453L348.594,28.302L349.316,28.097L350.039,27.881L350.762,27.764L351.484,27.537L352.207,27.404L352.93,27.15L353.652,27.042L354.375,26.815L355.098,26.727L355.82,26.57L356.543,26.4L357.266,26.236L357.988,26.041L358.711,25.915L359.434,25.875L360.156,25.647L360.879,25.525L361.602,25.405L362.324,25.302L363.047,25.188L363.77,25.146L364.492,24.941L365.215,24.809L365.938,24.712L366.66,24.628L367.383,24.545L368.105,24.46L368.828,24.29L369.551,24.157L370.273,24.101L370.996,24.036L371.719,23.972L372.441,23.851L373.164,23.818L373.887,23.736L374.609,23.644L375.332,23.568L376.055,23.522L376.777,23.472L377.5,23.442L378.223,23.352L378.945,23.343L379.668,23.213L380.391,23.183L381.113,23.12L381.836,23.039L382.559,23.044L383.281,22.888L384.004,22.865L384.727,22.91L385.449,22.784L386.172,22.796L386.895,22.673L387.617,22.734L388.34,22.634L389.063,22.549L389.785,22.558L390.508,22.591L391.23,22.545L391.953,22.446L392.676,22.459L393.398,22.442L394.121,22.389L394.844,22.401L395.566,22.373L396.289,22.295L397.012,22.301L397.734,22.245L398.457,22.293L399.18,22.232L399.902,22.178L400.625,22.184L401.348,22.21L402.07,22.17L402.793,22.12L403.516,22.104L404.238,22.119L404.961,22.037L405.684,22.03L406.406,22.035L407.129,22.017L407.852,22.034L408.574,21.997L409.297,22.034L410.02,22.001L410.742,21.941L411.465,21.935L412.188,21.942L412.91,21.95L413.633,21.889L414.355,21.896L415.078,21.882L415.801,21.902L416.523,21.894L417.246,21.858L417.969,21.877L418.691,21.856L419.414,21.854L420.137,21.866L420.859,21.861L421.582,21.853L422.305,21.817L423.027,21.787L423.75,21.798L424.473,21.818L425.195,21.789L425.918,21.796L426.641,21.801L427.363,21.81L428.086,21.772L428.809,21.747L429.531,21.765L430.254,21.784L430.977,21.798L431.699,21.755L432.422,21.772L433.145,21.77L433.867,21.763L434.59,21.773L435.313,21.734L436.035,21.751L436.758,21.719L437.48,21.729L438.203,21.729L438.926,21.73L439.648,21.726L440.371,21.722L441.094,21.731L441.816,21.71L442.539,21.704L443.262,21.734L443.984,21.732L444.707,21.704L445.43,21.708L446.152,21.723L446.875,21.712L447.598,21.701L448.32,21.706L449.043,21.716L449.766,21.711L450.488,21.699L451.211,21.693L451.934,21.701L452.656,21.696L453.379,21.7L454.102,21.704L454.824,21.681L455.547,21.69L456.27,21.678L456.992,21.694L457.715,21.702L458.438,21.692L459.16,21.684L459.883,21.689L460.605,21.682L461.328,21.676L462.051,21.681L462.773,21.688L463.496,21.686L464.219,21.684L464.941,21.675L465.664,21.679L466.387,21.68L467.109,21.677L467.832,21.67L468.555,21.678L469.277,21.676"/><path fill="none" stroke="rgb(236, 209, 46)" stroke-width="1.5" d="M100,86.276L100.723,86.54L101.445,86.614L102.168,86.732L102.891,86.947L103.613,87.009L104.336,87.318L105.059,87.334L105.781,87.438L106.504,87.622L107.227,87.818L107.949,87.912L108.672,88.032L109.395,88.12L110.117,88.373L110.84,88.483L111.563,88.723L112.285,88.838L113.008,89.039L113.73,89.25L114.453,89.395L115.176,89.572L115.898,89.821L116.621,89.865L117.344,90.096L118.066,90.322L118.789,90.471L119.512,90.7L120.234,90.871L120.957,91.174L121.68,91.499L122.402,91.653L123.125,91.906L123.848,91.95L124.57,92.36L125.293,92.551L126.016,92.656L126.738,92.896L127.461,93.21L128.184,93.579L128.906,93.691L129.629,94.047L130.352,94.142L131.074,94.561L131.797,94.752L132.52,94.921L133.242,95.276L133.965,95.556L134.688,95.995L135.41,96.238L136.133,96.501L136.855,96.86L137.578,97.054L138.301,97.561L139.023,97.753L139.746,98.039L140.469,98.338L141.191,98.623L141.914,99.104L142.637,99.449L143.359,99.784L144.082,100.123L144.805,100.603L145.527,100.804L146.25,101.234L146.973,101.511L147.695,101.955L148.418,102.229L149.141,102.747L149.863,103.051L150.586,103.479L151.309,103.879L152.031,104.284L152.754,104.751L153.477,105.255L154.199,105.652L154.922,105.988L155.645,106.451L156.367,106.821L157.09,107.222L157.813,107.533L158.535,108.015L159.258,108.597L159.98,108.866L160.703,109.272L161.426,109.73L162.148,110.092L162.871,110.376L163.594,110.797L164.316,111.019L165.039,111.754L165.762,111.859L166.484,112.145L167.207,112.48L167.93,112.83L168.652,113.182L169.375,113.278L170.098,113.762L170.82,114.081L171.543,114.202L172.266,114.35L172.988,114.648L173.711,114.747L174.434,114.846L175.156,114.959L175.879,115.198L176.602,115.206L177.324,115.15L178.047,115.227L178.77,115.075L179.492,115.033L180.215,114.929L180.938,114.98L181.66,114.722L182.383,114.39L183.105,114.259L183.828,114.083L184.551,113.749L185.273,113.24L185.996,112.961L186.719,112.615L187.441,112.076L188.164,111.524L188.887,110.996L189.609,110.604L190.332,109.833L191.055,109.192L191.777,108.643L192.5,107.742L193.223,107.206L193.945,106.296L194.668,105.547L195.391,104.651L196.113,103.839L196.836,102.787L197.559,101.839L198.281,100.929L199.004,99.85L199.727,98.803L200.449,97.625L201.172,96.408L201.895,95.34L202.617,94.294L203.34,93.122L204.063,92.004L204.785,90.701L205.508,89.599L206.23,88.239L206.953,87.004L207.676,85.739L208.398,84.397L209.121,83.142L209.844,81.82L210.566,80.635L211.289,79.055L212.012,77.745L212.734,76.481L213.457,75.071L214.18,73.749L214.902,72.373L215.625,70.928L216.348,69.599L217.07,68.212L217.793,66.931L218.516,65.458L219.238,64.058L219.961,62.658L220.684,61.335L221.406,59.983L222.129,58.54L222.852,57.273L223.574,55.984L224.297,54.597L225.02,53.274L225.742,51.8L226.465,50.562L227.188,49.311L227.91,47.963L228.633,46.77L229.355,45.382L230.078,44.312L230.801,43.034L231.523,41.807L232.246,40.665L232.969,39.464L233.691,38.14L234.414,37.15L235.137,36.111L235.859,35.026L236.582,34.012L237.305,33.008L238.027,32.109L238.75,31.124L239.473,30.297L240.195,29.409L240.918,28.488L241.641,27.577L242.363,26.888L243.086,26.132L243.809,25.419L244.531,24.59L245.254,23.847L245.977,23.206L246.699,22.579L247.422,21.975L248.145,21.202L248.867,21.484L249.59,24.07L250.313,26.673L251.035,29.213L251.758,31.898L252.48,34.532L253.203,36.966L253.926,36.967L254.648,36.966L255.371,36.961L256.094,36.908L256.816,36.91L257.539,36.918L258.262,36.895L258.984,36.884L259.707,36.922L260.43,37.074L261.152,37L261.875,36.981L262.598,36.921L263.32,37.006L264.043,37.004L264.766,37.014L265.488,37.118L266.211,37.144L266.934,37.193L267.656,37.158L268.379,37.282L269.102,37.34L269.824,37.295L270.547,37.496L271.27,37.453L271.992,37.488L272.715,37.583L273.438,37.669L274.16,37.687L274.883,37.771L275.605,37.811L276.328,37.81L277.051,37.883L277.773,37.952L278.496,37.92L279.219,38.04L279.941,38.137L280.664,38.139L281.387,38.145L282.109,38.106L282.832,38.164L283.555,38.223L284.277,38.23L285,38.208L285.723,38.216L286.445,38.221L287.168,38.173L287.891,38.158L288.613,38.209L289.336,38.219L290.059,38.234L290.781,38.257L291.504,38.119L292.227,38.109L292.949,38.083L293.672,38.101L294.395,38.067L295.117,38.046L295.84,37.942L296.563,37.941L297.285,37.939L298.008,37.845L298.73,37.811L299.453,37.769L300.176,37.7L300.898,37.668L301.621,37.633L302.344,37.668L303.066,37.552L303.789,37.468L304.512,37.539L305.234,37.34L305.957,37.315L306.68,37.229L307.402,37.218L308.125,37.051L308.848,37.068L309.57,36.946L310.293,36.905L311.016,36.849L311.738,36.789L312.461,36.643L313.184,36.543L313.906,36.478L314.629,36.393L315.352,36.232L316.074,36.127L316.797,36.021L317.52,35.824L318.242,35.787L318.965,35.698L319.688,35.496L320.41,35.416L321.133,35.325L321.855,35.165L322.578,35.011L323.301,34.857L324.023,34.685L324.746,34.592L325.469,34.39L326.191,34.187L326.914,34.065L327.637,33.782L328.359,33.669L329.082,33.472L329.805,33.341L330.527,33.138L331.25,32.979L331.973,32.64L332.695,32.595L333.418,32.408L334.141,32.16L334.863,31.977L335.586,31.8L336.309,31.547L337.031,31.392L337.754,31.179L338.477,31.024L339.199,30.763L339.922,30.638L340.645,30.357L341.367,30.141L342.09,29.954L342.813,29.773L343.535,29.587L344.258,29.42L344.98,29.258L345.703,29.002L346.426,28.806L347.148,28.632L347.871,28.401L348.594,28.263L349.316,28.066L350.039,27.903L350.762,27.73L351.484,27.527L352.207,27.35L352.93,27.122L353.652,27.027L354.375,26.87L355.098,26.699L355.82,26.581L356.543,26.386L357.266,26.275L357.988,26.102L358.711,25.985L359.434,25.822L360.156,25.641L360.879,25.555L361.602,25.435L362.324,25.31L363.047,25.15L363.77,25.059L364.492,24.914L365.215,24.84L365.938,24.714L366.66,24.614L367.383,24.508L368.105,24.431L368.828,24.291L369.551,24.236L370.273,24.132L370.996,24.041L371.719,23.987L372.441,23.881L373.164,23.802L373.887,23.752L374.609,23.655L375.332,23.594L376.055,23.498L376.777,23.457L377.5,23.363L378.223,23.311L378.945,23.245L379.668,23.2L380.391,23.15L381.113,23.103L381.836,23.059L382.559,22.994L383.281,22.925L384.004,22.879L384.727,22.836L385.449,22.802L386.172,22.741L386.895,22.706L387.617,22.671L388.34,22.613L389.063,22.606L389.785,22.556L390.508,22.527L391.23,22.5L391.953,22.461L392.676,22.436L393.398,22.396L394.121,22.382L394.844,22.358L395.566,22.327L396.289,22.303L397.012,22.279L397.734,22.25L398.457,22.211L399.18,22.204L399.902,22.177L400.625,22.155L401.348,22.144L402.07,22.124L402.793,22.103L403.516,22.098L404.238,22.072L404.961,22.058L405.684,22.042L406.406,22.019L407.129,22.02L407.852,22.008L408.574,21.987L409.297,21.973L410.02,21.967L410.742,21.957L411.465,21.939L412.188,21.929L412.91,21.92L413.633,21.899L414.355,21.903L415.078,21.9L415.801,21.884L416.523,21.879L417.246,21.869L417.969,21.854L418.691,21.853L419.414,21.849L420.137,21.839L420.859,21.825L421.582,21.826L422.305,21.823L423.027,21.812L423.75,21.808L424.473,21.806L425.195,21.799L425.918,21.794L426.641,21.788L427.363,21.779L428.086,21.773L428.809,21.777L429.531,21.769L430.254,21.761L430.977,21.769L431.699,21.756L432.422,21.753L433.145,21.749L433.867,21.751L434.59,21.748L435.313,21.734L436.035,21.74L436.758,21.738L437.48,21.731L438.203,21.735L438.926,21.726L439.648,21.723L440.371,21.719L441.094,21.721L441.816,21.719L442.539,21.717L443.262,21.713L443.984,21.709L444.707,21.707L445.43,21.704L446.152,21.712L446.875,21.701L447.598,21.703L448.32,21.705L449.043,21.701L449.766,21.7L450.488,21.699L451.211,21.695L451.934,21.695L452.656,21.694L453.379,21.689L454.102,21.694L454.824,21.69L455.547,21.689L456.27,21.688L456.992,21.685L457.715,21.687L458.438,21.686L459.16,21.688L459.883,21.686L460.605,21.682L461.328,21.684L462.051,21.682L462.773,21.682L463.496,21.68L464.219,21.679L464.941,21.681L465.664,21.677L466.387,21.677L467.109,21.678L467.832,21.674L468.555,21.677L469.277,21.674"/><path fill="none" stroke="rgb(255, 130, 29)" stroke-width="1.5" d="M100,79.003L100.723,79.176L101.445,79.287L102.168,79.352L102.891,79.44L103.613,79.562L104.336,79.786L105.059,79.765L105.781,79.945L106.504,80.017L107.227,80.202L107.949,80.373L108.672,80.492L109.395,80.628L110.117,80.655L110.84,80.808L111.563,80.982L112.285,81.109L113.008,81.26L113.73,81.368L114.453,81.644L115.176,81.761L115.898,81.897L116.621,82.016L117.344,82.144L118.066,82.345L118.789,82.522L119.512,82.654L120.234,82.748L120.957,82.971L121.68,83.132L122.402,83.317L123.125,83.522L123.848,83.612L124.57,83.82L125.293,83.952L126.016,84.143L126.738,84.3L127.461,84.401L128.184,84.653L128.906,84.885L129.629,84.989L130.352,85.249L131.074,85.371L131.797,85.523L132.52,85.665L133.242,85.868L133.965,85.95L134.688,86.132L135.41,86.235L136.133,86.473L136.855,86.65L137.578,86.71L138.301,86.904L139.023,87.13L139.746,87.143L140.469,87.35L141.191,87.418L141.914,87.575L142.637,87.656L143.359,87.718L144.082,87.851L144.805,88.033L145.527,87.939L146.25,88.096L146.973,88.162L147.695,88.136L148.418,88.079L149.141,88.042L149.863,88.151L150.586,88.185L151.309,88.065L152.031,87.969L152.754,87.94L153.477,87.747L154.199,87.636L154.922,87.389L155.645,87.384L156.367,87.157L157.09,86.937L157.813,86.644L158.535,86.402L159.258,86.098L159.98,85.765L160.703,85.435L161.426,85.131L162.148,84.631L162.871,84.088L163.594,83.579L164.316,83.155L165.039,82.688L165.762,82.048L166.484,81.553L167.207,80.781L167.93,80.267L168.652,79.596L169.375,78.675L170.098,78.087L170.82,77.388L171.543,76.611L172.266,75.695L172.988,74.978L173.711,74.145L174.434,73.357L175.156,72.377L175.879,71.463L176.602,70.643L177.324,69.674L178.047,68.739L178.77,67.874L179.492,66.835L180.215,65.919L180.938,64.871L181.66,64.032L182.383,63L183.105,62.01L183.828,61.089L184.551,60.071L185.273,59.096L185.996,58.09L186.719,56.991L187.441,56.092L188.164,55.102L188.887,54.121L189.609,53.154L190.332,52.21L191.055,51.143L191.777,50.148L192.5,49.162L193.223,48.162L193.945,47.299L194.668,46.263L195.391,45.356L196.113,44.394L196.836,43.34L197.559,42.502L198.281,41.444L199.004,40.6L199.727,39.744L200.449,38.861L201.172,38.026L201.895,37.104L202.617,36.209L203.34,35.33L204.063,34.47L204.785,33.799L205.508,32.945L206.23,31.996L206.953,31.377L207.676,30.743L208.398,29.979L209.121,29.277L209.844,28.597L210.566,28.007L211.289,27.335L212.012,26.748L212.734,26.193L213.457,25.534L214.18,24.977L214.902,24.482L215.625,23.932L216.348,23.345L217.07,22.894L217.793,22.342L218.516,21.824L219.238,21.452L219.961,20.961L220.684,20.559L221.406,20L222.129,21.103L222.852,23.875L223.574,26.672L224.297,29.333L225.02,32.164L225.742,34.967L226.465,36.86L227.188,36.921L227.91,37.108L228.633,37.21L229.355,37.351L230.078,37.328L230.801,37.375L231.523,37.502L232.246,37.592L232.969,37.558L233.691,37.589L234.414,37.679L235.137,37.891L235.859,37.847L236.582,37.87L237.305,37.848L238.027,37.938L238.75,37.996L239.473,38.023L240.195,38.001L240.918,38.052L241.641,38.039L242.363,38.079L243.086,38.002L243.809,38.043L244.531,38.12L245.254,38.022L245.977,38.071L246.699,38.089L247.422,38.141L248.145,38.123L248.867,38.032L249.59,38.053L250.313,38.086L251.035,38.079L251.758,38.053L252.48,38.066L253.203,38.086L253.926,38.018L254.648,37.952L255.371,38.02L256.094,37.97L256.816,37.969L257.539,37.879L258.262,37.878L258.984,37.878L259.707,37.93L260.43,37.881L261.152,37.944L261.875,37.906L262.598,37.895L263.32,37.878L264.043,37.904L264.766,37.871L265.488,37.909L266.211,37.914L266.934,37.985L267.656,37.941L268.379,37.964L269.102,37.966L269.824,37.965L270.547,38.093L271.27,38.076L271.992,38.138L272.715,38.083L273.438,38.148L274.16,38.272L274.883,38.126L275.605,38.323L276.328,38.288L277.051,38.354L277.773,38.291L278.496,38.435L279.219,38.464L279.941,38.38L280.664,38.472L281.387,38.426L282.109,38.5L282.832,38.467L283.555,38.449L284.277,38.421L285,38.51L285.723,38.459L286.445,38.42L287.168,38.386L287.891,38.419L288.613,38.362L289.336,38.301L290.059,38.304L290.781,38.245L291.504,38.198L292.227,38.183L292.949,38.202L293.672,38.168L294.395,38.036L295.117,37.952L295.84,37.949L296.563,37.948L297.285,37.861L298.008,37.813L298.73,37.77L299.453,37.686L300.176,37.737L300.898,37.571L301.621,37.507L302.344,37.49L303.066,37.476L303.789,37.361L304.512,37.315L305.234,37.21L305.957,37.2L306.68,37.191L307.402,37.112L308.125,37.038L308.848,36.933L309.57,36.92L310.293,36.791L311.016,36.656L311.738,36.624L312.461,36.562L313.184,36.475L313.906,36.41L314.629,36.308L315.352,36.215L316.074,36.105L316.797,36.074L317.52,35.958L318.242,35.855L318.965,35.763L319.688,35.658L320.41,35.555L321.133,35.377L321.855,35.254L322.578,35.15L323.301,35.028L324.023,34.846L324.746,34.775L325.469,34.636L326.191,34.38L326.914,34.278L327.637,34.123L328.359,34.001L329.082,33.847L329.805,33.537L330.527,33.468L331.25,33.317L331.973,33.108L332.695,32.923L333.418,32.761L334.141,32.563L334.863,32.38L335.586,32.228L336.309,31.976L337.031,31.843L337.754,31.662L338.477,31.439L339.199,31.301L339.922,31.052L340.645,30.871L341.367,30.662L342.09,30.455L342.813,30.255L343.535,30.127L344.258,29.852L344.98,29.705L345.703,29.525L346.426,29.3L347.148,29.151L347.871,28.91L348.594,28.731L349.316,28.559L350.039,28.369L350.762,28.229L351.484,28.042L352.207,27.875L352.93,27.665L353.652,27.526L354.375,27.302L355.098,27.146L355.82,27.012L356.543,26.882L357.266,26.71L357.988,26.524L358.711,26.422L359.434,26.215L360.156,26.073L360.879,25.939L361.602,25.795L362.324,25.696L363.047,25.538L363.77,25.429L364.492,25.293L365.215,25.166L365.938,25.051L366.66,24.926L367.383,24.847L368.105,24.739L368.828,24.618L369.551,24.555L370.273,24.413L370.996,24.349L371.719,24.231L372.441,24.144L373.164,24.031L373.887,23.977L374.609,23.933L375.332,23.834L376.055,23.758L376.777,23.649L377.5,23.601L378.223,23.527L378.945,23.444L379.668,23.405L380.391,23.354L381.113,23.269L381.836,23.233L382.559,23.178L383.281,23.127L384.004,23.049L384.727,22.973L385.449,22.957L386.172,22.904L386.895,22.861L387.617,22.842L388.34,22.769L389.063,22.729L389.785,22.674L390.508,22.653L391.23,22.62L391.953,22.573L392.676,22.554L393.398,22.527L394.121,22.474L394.844,22.456L395.566,22.413L396.289,22.372L397.012,22.354L397.734,22.345L398.457,22.301L399.18,22.279L399.902,22.254L400.625,22.229L401.348,22.233L402.07,22.205L402.793,22.172L403.516,22.151L404.238,22.13L404.961,22.132L405.684,22.09L406.406,22.084L407.129,22.06L407.852,22.053L408.574,22.031L409.297,22.035L410.02,21.997L410.742,22.009L411.465,21.977L412.188,21.97L412.91,21.961L413.633,21.941L414.355,21.933L415.078,21.932L415.801,21.923L416.523,21.911L417.246,21.888L417.969,21.891L418.691,21.879L419.414,21.873L420.137,21.865L420.859,21.86L421.582,21.849L422.305,21.843L423.027,21.834L423.75,21.834L424.473,21.831L425.195,21.825L425.918,21.815L426.641,21.809L427.363,21.798L428.086,21.798L428.809,21.797L429.531,21.788L430.254,21.786L430.977,21.778L431.699,21.776L432.422,21.772L433.145,21.768L433.867,21.758L434.59,21.758L435.313,21.754L436.035,21.748L436.758,21.747L437.48,21.743L438.203,21.745L438.926,21.743L439.648,21.739L440.371,21.733L441.094,21.73L441.816,21.729L442.539,21.725L443.262,21.721L443.984,21.72L444.707,21.72L445.43,21.716L446.152,21.712L446.875,21.713L447.598,21.713L448.32,21.708L449.043,21.71L449.766,21.704L450.488,21.705L451.211,21.699L451.934,21.701L452.656,21.702L453.379,21.694L454.102,21.695L454.824,21.694L455.547,21.698L456.27,21.693L456.992,21.69L457.715,21.691L458.438,21.688L459.16,21.688L459.883,21.69L460.605,21.687L461.328,21.686L462.051,21.683L462.773,21.683L463.496,21.684L464.219,21.681L464.941,21.681L465.664,21.681L466.387,21.678L467.109,21.682L467.832,21.679L468.555,21.678L469.277,21.677"/><path fill="none" stroke="rgb(203, 47, 13)" stroke-width="1.5" d="M100,41.633L100.723,41.509L101.445,41.298L102.168,41.104L102.891,41.034L103.613,40.767L104.336,40.574L105.059,40.45L105.781,40.188L106.504,40.054L107.227,39.834L107.949,39.767L108.672,39.536L109.395,39.377L110.117,39.222L110.84,39.049L111.563,38.856L112.285,38.751L113.008,38.492L113.73,38.408L114.453,38.069L115.176,37.856L115.898,37.759L116.621,37.523L117.344,37.317L118.066,37.149L118.789,37.029L119.512,36.849L120.234,36.608L120.957,36.429L121.68,36.238L122.402,36.032L123.125,35.834L123.848,35.587L124.57,35.478L125.293,35.242L126.016,35.072L126.738,34.885L127.461,34.702L128.184,34.593L128.906,34.258L129.629,33.951L130.352,33.925L131.074,33.673L131.797,33.549L132.52,33.359L133.242,33.115L133.965,32.945L134.688,32.656L135.41,32.54L136.133,32.232L136.855,32.083L137.578,31.903L138.301,31.725L139.023,31.631L139.746,31.29L140.469,31.226L141.191,30.899L141.914,30.653L142.637,30.491L143.359,30.317L144.082,30.185L144.805,29.971L145.527,29.833L146.25,29.61L146.973,29.419L147.695,29.258L148.418,29.033L149.141,28.861L149.863,28.645L150.586,28.45L151.309,28.349L152.031,28.115L152.754,27.806L153.477,27.706L154.199,27.501L154.922,27.277L155.645,27.156L156.367,26.894L157.09,26.76L157.813,26.505L158.535,26.359L159.258,26.213L159.98,25.984L160.703,25.753L161.426,25.67L162.148,25.411L162.871,25.212L163.594,25.019L164.316,24.825L165.039,24.735L165.762,24.457L166.484,24.239L167.207,24.086L167.93,23.799L168.652,23.63L169.375,23.355L170.098,23.149L170.82,23.021L171.543,22.738L172.266,22.645L172.988,22.332L173.711,22.142L174.434,21.872L175.156,21.678L175.879,21.415L176.602,21.256L177.324,21.011L178.047,22.133L178.77,25.023L179.492,28.016L180.215,30.979L180.938,33.949L181.66,36.78L182.383,39.057L183.105,39.365L183.828,39.511L184.551,39.961L185.273,40.214L185.996,40.534L186.719,40.73L187.441,41.07L188.164,41.295L188.887,41.333L189.609,41.722L190.332,41.996L191.055,42.173L191.777,42.309L192.5,42.544L193.223,42.76L193.945,42.98L194.668,43.092L195.391,43.343L196.113,43.398L196.836,43.593L197.559,43.809L198.281,43.894L199.004,43.974L199.727,44.06L200.449,44.218L201.172,44.351L201.895,44.546L202.617,44.648L203.34,44.725L204.063,44.843L204.785,44.971L205.508,45.015L206.23,45.08L206.953,45.104L207.676,45.238L208.398,45.359L209.121,45.364L209.844,45.504L210.566,45.423L211.289,45.526L212.012,45.509L212.734,45.578L213.457,45.661L214.18,45.649L214.902,45.727L215.625,45.769L216.348,45.712L217.07,45.782L217.793,45.813L218.516,45.841L219.238,45.823L219.961,45.796L220.684,45.81L221.406,45.825L222.129,45.835L222.852,45.732L223.574,45.78L224.297,45.755L225.02,45.763L225.742,45.724L226.465,45.63L227.188,45.587L227.91,45.655L228.633,45.506L229.355,45.516L230.078,45.505L230.801,45.443L231.523,45.333L232.246,45.428L232.969,45.394L233.691,45.365L234.414,45.324L235.137,45.185L235.859,45.163L236.582,45.103L237.305,45.001L238.027,44.973L238.75,44.928L239.473,44.775L240.195,44.791L240.918,44.697L241.641,44.668L242.363,44.655L243.086,44.43L243.809,44.483L244.531,44.362L245.254,44.236L245.977,44.168L246.699,44.109L247.422,44.051L248.145,43.855L248.867,43.918L249.59,43.859L250.313,43.677L251.035,43.68L251.758,43.556L252.48,43.505L253.203,43.411L253.926,43.375L254.648,43.236L255.371,43.237L256.094,43.147L256.816,42.971L257.539,42.93L258.262,42.897L258.984,42.797L259.707,42.757L260.43,42.638L261.152,42.715L261.875,42.565L262.598,42.49L263.32,42.507L264.043,42.409L264.766,42.298L265.488,42.396L266.211,42.305L266.934,42.212L267.656,42.271L268.379,42.212L269.102,42.239L269.824,42.184L270.547,42.254L271.27,42.174L271.992,42.157L272.715,42.168L273.438,42.119L274.16,42.108L274.883,42.127L275.605,42.03L276.328,42.125L277.051,42.01L277.773,42.101L278.496,42.08L279.219,41.986L279.941,41.972L280.664,41.985L281.387,41.981L282.109,41.886L282.832,41.815L283.555,41.874L284.277,41.81L285,41.776L285.723,41.752L286.445,41.606L287.168,41.658L287.891,41.549L288.613,41.51L289.336,41.501L290.059,41.279L290.781,41.296L291.504,41.168L292.227,41.205L292.949,41.043L293.672,41.007L294.395,40.911L295.117,40.87L295.84,40.849L296.563,40.739L297.285,40.591L298.008,40.599L298.73,40.407L299.453,40.44L300.176,40.277L300.898,40.172L301.621,40.096L302.344,39.986L303.066,39.883L303.789,39.755L304.512,39.776L305.234,39.589L305.957,39.57L306.68,39.458L307.402,39.353L308.125,39.278L308.848,39.254L309.57,39.121L310.293,39.059L311.016,38.958L311.738,38.802L312.461,38.69L313.184,38.569L313.906,38.456L314.629,38.429L315.352,38.369L316.074,38.285L316.797,38.082L317.52,37.98L318.242,37.745L318.965,37.684L319.688,37.594L320.41,37.467L321.133,37.307L321.855,37.079L322.578,37.03L323.301,36.87L324.023,36.689L324.746,36.491L325.469,36.443L326.191,36.195L326.914,36.019L327.637,35.935L328.359,35.722L329.082,35.542L329.805,35.347L330.527,35.181L331.25,35.027L331.973,34.772L332.695,34.566L333.418,34.391L334.141,34.158L334.863,34.004L335.586,33.753L336.309,33.572L337.031,33.441L337.754,33.173L338.477,32.95L339.199,32.634L339.922,32.45L340.645,32.216L341.367,32.035L342.09,31.834L342.813,31.6L343.535,31.391L344.258,31.155L344.98,30.963L345.703,30.874L346.426,30.587L347.148,30.306L347.871,30.088L348.594,29.93L349.316,29.74L350.039,29.517L350.762,29.258L351.484,29.1L352.207,28.887L352.93,28.699L353.652,28.513L354.375,28.344L355.098,28.099L355.82,27.949L356.543,27.712L357.266,27.62L357.988,27.438L358.711,27.279L359.434,27.022L360.156,26.936L360.879,26.732L361.602,26.553L362.324,26.418L363.047,26.305L363.77,26.19L364.492,25.971L365.215,25.849L365.938,25.742L366.66,25.564L367.383,25.466L368.105,25.335L368.828,25.214L369.551,25.093L370.273,24.951L370.996,24.862L371.719,24.753L372.441,24.647L373.164,24.561L373.887,24.449L374.609,24.363L375.332,24.247L376.055,24.154L376.777,24.081L377.5,24.027L378.223,23.934L378.945,23.813L379.668,23.784L380.391,23.681L381.113,23.617L381.836,23.551L382.559,23.445L383.281,23.427L384.004,23.366L384.727,23.314L385.449,23.244L386.172,23.191L386.895,23.122L387.617,23.077L388.34,23.03L389.063,22.96L389.785,22.94L390.508,22.865L391.23,22.828L391.953,22.799L392.676,22.748L393.398,22.7L394.121,22.652L394.844,22.624L395.566,22.588L396.289,22.566L397.012,22.523L397.734,22.492L398.457,22.454L399.18,22.415L399.902,22.394L400.625,22.36L401.348,22.357L402.07,22.331L402.793,22.309L403.516,22.279L404.238,22.242L404.961,22.229L405.684,22.211L406.406,22.199L407.129,22.178L407.852,22.162L408.574,22.13L409.297,22.117L410.02,22.093L410.742,22.077L411.465,22.068L412.188,22.063L412.91,22.037L413.633,22.015L414.355,22.007L415.078,21.984L415.801,21.978L416.523,21.987L417.246,21.963L417.969,21.951L418.691,21.939L419.414,21.941L420.137,21.929L420.859,21.907L421.582,21.895L422.305,21.893L423.027,21.889L423.75,21.874L424.473,21.879L425.195,21.866L425.918,21.854L426.641,21.848L427.363,21.836L428.086,21.832L428.809,21.834L429.531,21.821L430.254,21.82L430.977,21.817L431.699,21.799L432.422,21.8L433.145,21.793L433.867,21.788L434.59,21.792L435.313,21.781L436.035,21.776L436.758,21.776L437.48,21.768L438.203,21.768L438.926,21.758L439.648,21.753L440.371,21.752L441.094,21.746L441.816,21.746L442.539,21.744L443.262,21.743L443.984,21.732L444.707,21.734L445.43,21.734L446.152,21.729L446.875,21.725L447.598,21.727L448.32,21.723L449.043,21.721L449.766,21.717L450.488,21.719L451.211,21.714L451.934,21.714L452.656,21.712L453.379,21.704L454.102,21.704L454.824,21.706L455.547,21.704L456.27,21.701L456.992,21.701L457.715,21.702L458.438,21.695L459.16,21.694L459.883,21.698L460.605,21.693L461.328,21.695L462.051,21.692L462.773,21.689L463.496,21.687L464.219,21.687L464.941,21.689L465.664,21.685L466.387,21.683L467.109,21.686L467.832,21.68L468.555,21.681L469.277,21.684"/><g transform="translate(15,190) scale(1.7) rotate(-90)"><text>Drift</text></g><g transform="translate(315,395) scale(1.8)"><text></text></g><g transform="translate(0,350)" fill="none" font-size="10" font-family="sans-serif" text-anchor="middle"><path class="domain" stroke="currentColor" d="M100,6V0H470V6"/><g class="tick" opacity="1" transform="translate(136.96669666966696,0)"><line stroke="currentColor" y2="6"/><text fill="currentColor" y="9" dy="0.71em" font-size="20px"> </text></g><g class="tick" opacity="1" transform="translate(173.97039703970398,0)"><line stroke="currentColor" y2="6"/><text fill="currentColor" y="9" dy="0.71em" font-size="20px">20</text></g><g class="tick" opacity="1" transform="translate(210.97409740974098,0)"><line stroke="currentColor" y2="6"/><text fill="currentColor" y="9" dy="0.71em" font-size="20px"> </text></g><g class="tick" opacity="1" transform="translate(247.97779777977803,0)"><line stroke="currentColor" y2="6"/><text fill="currentColor" y="9" dy="0.71em" font-size="20px">40</text></g><g class="tick" opacity="1" transform="translate(284.981498149815,0)"><line stroke="currentColor" y2="6"/><text fill="currentColor" y="9" dy="0.71em" font-size="20px"> </text></g><g class="tick" opacity="1" transform="translate(321.985198519852,0)"><line stroke="currentColor" y2="6"/><text fill="currentColor" y="9" dy="0.71em" font-size="20px">60</text></g><g class="tick" opacity="1" transform="translate(358.988898889889,0)"><line stroke="currentColor" y2="6"/><text fill="currentColor" y="9" dy="0.71em" font-size="20px"> </text></g><g class="tick" opacity="1" transform="translate(395.992599259926,0)"><line stroke="currentColor" y2="6"/><text fill="currentColor" y="9" dy="0.71em" font-size="20px">80</text></g><g class="tick" opacity="1" transform="translate(432.996299629963,0)"><line stroke="currentColor" y2="6"/><text fill="currentColor" y="9" dy="0.71em" font-size="20px"> </text></g><g class="tick" opacity="1" transform="translate(470,0)"><line stroke="currentColor" y2="6"/><text fill="currentColor" y="9" dy="0.71em" font-size="20px">100</text></g></g><g transform="translate(100,0)" fill="none" font-size="10" font-family="sans-serif" text-anchor="end"><path class="domain" stroke="currentColor" d="M-6,350H0V20H-6"/><g class="tick" opacity="1" transform="translate(0,332.66378855454855)"><line stroke="currentColor" x2="-6"/><text fill="currentColor" x="-9" dy="0.32em" font-size="20px">0.55</text></g><g class="tick" opacity="1" transform="translate(0,303.50732267536614)"><line stroke="currentColor" x2="-6"/><text fill="currentColor" x="-9" dy="0.32em" font-size="20px">0.50</text></g><g class="tick" opacity="1" transform="translate(0,274.3508567961838)"><line stroke="currentColor" x2="-6"/><text fill="currentColor" x="-9" dy="0.32em" font-size="20px">0.45</text></g><g class="tick" opacity="1" transform="translate(0,245.19439091700147)"><line stroke="currentColor" x2="-6"/><text fill="currentColor" x="-9" dy="0.32em" font-size="20px">0.40</text></g><g class="tick" opacity="1" transform="translate(0,216.0379250378191)"><line stroke="currentColor" x2="-6"/><text fill="currentColor" x="-9" dy="0.32em" font-size="20px">0.35</text></g><g class="tick" opacity="1" transform="translate(0,186.88145915863672)"><line stroke="currentColor" x2="-6"/><text fill="currentColor" x="-9" dy="0.32em" font-size="20px">0.30</text></g><g class="tick" opacity="1" transform="translate(0,157.72499327945442)"><line stroke="currentColor" x2="-6"/><text fill="currentColor" x="-9" dy="0.32em" font-size="20px">0.25</text></g><g class="tick" opacity="1" transform="translate(0,128.5685274002721)"><line stroke="currentColor" x2="-6"/><text fill="currentColor" x="-9" dy="0.32em" font-size="20px">0.20</text></g><g class="tick" opacity="1" transform="translate(0,99.4120615210898)"><line stroke="currentColor" x2="-6"/><text fill="currentColor" x="-9" dy="0.32em" font-size="20px">0.15</text></g><g class="tick" opacity="1" transform="translate(0,70.25559564190742)"><line stroke="currentColor" x2="-6"/><text fill="currentColor" x="-9" dy="0.32em" font-size="20px">0.10</text></g><g class="tick" opacity="1" transform="translate(0,41.099129762725134)"><line stroke="currentColor" x2="-6"/><text fill="currentColor" x="-9" dy="0.32em" font-size="20px">0.05</text></g></g><circle cx="355" cy="150" r="8" style="fill: rgb(35, 23, 27);"/><circle cx="355" cy="175" r="8" style="fill: rgb(69, 105, 238);"/><circle cx="355" cy="200" r="8" style="fill: rgb(38, 188, 225);"/><circle cx="355" cy="225" r="8" style="fill: rgb(63, 243, 147);"/><circle cx="355" cy="250" r="8" style="fill: rgb(149, 251, 81);"/><circle cx="355" cy="275" r="8" style="fill: rgb(236, 209, 46);"/><circle cx="355" cy="300" r="8" style="fill: rgb(255, 130, 29);"/><circle cx="355" cy="325" r="8" style="fill: rgb(203, 47, 13);"/><text x="370" y="150" text-anchor="left" font-size="22" alignment-baseline="middle" style="fill: rgb(35, 23, 27);"> = 0</text><text x="370" y="175" text-anchor="left" font-size="22" alignment-baseline="middle" style="fill: rgb(69, 105, 238);"> = 0.22</text><text x="370" y="200" text-anchor="left" font-size="22" alignment-baseline="middle" style="fill: rgb(38, 188, 225);"> = 0.45</text><text x="370" y="225" text-anchor="left" font-size="22" alignment-baseline="middle" style="fill: rgb(63, 243, 147);"> = 0.67</text><text x="370" y="250" text-anchor="left" font-size="22" alignment-baseline="middle" style="fill: rgb(149, 251, 81);"> = 0.9</text><text x="370" y="275" text-anchor="left" font-size="22" alignment-baseline="middle" style="fill: rgb(236, 209, 46);"> = 1.12</text><text x="370" y="300" text-anchor="left" font-size="22" alignment-baseline="middle" style="fill: rgb(255, 130, 29);"> = 1.35</text><text x="370" y="325" text-anchor="left" font-size="22" alignment-baseline="middle" style="fill: rgb(203, 47, 13);"> = 1.57</text></svg>