<svg xmlns="http://www.w3.org/2000/svg" class="bg-white" width="500" height="400" viewBox="-10 -1 500 400"><path fill="none" stroke="rgb(35, 23, 27)" stroke-width="1.5" d="M100,203.633L100.723,205.185L101.445,206.621L102.168,208.281L102.891,210.155L103.613,211.601L104.336,213.385L105.059,215.076L105.781,217.096L106.504,218.96L107.227,220.972L107.949,223.247L108.672,225.26L109.395,227.578L110.117,230.084L110.84,232.299L111.563,234.737L112.285,237.248L113.008,240.045L113.73,242.645L114.453,245.22L115.176,248.159L115.898,251.146L116.621,253.726L117.344,256.675L118.066,259.755L118.789,262.775L119.512,266.108L120.234,268.981L120.957,272.075L121.68,275.288L122.402,278.465L123.125,281.764L123.848,285.015L124.57,288.312L125.293,291.15L126.016,294.605L126.738,297.455L127.461,300.767L128.184,303.698L128.906,306.851L129.629,309.766L130.352,312.487L131.074,315.351L131.797,318.188L132.52,320.956L133.242,323.243L133.965,325.971L134.688,328.217L135.41,330.635L136.133,332.774L136.855,334.741L137.578,336.544L138.301,338.456L139.023,340.311L139.746,341.861L140.469,343.09L141.191,344.716L141.914,345.867L142.637,346.473L143.359,347.678L144.082,348.65L144.805,349.28L145.527,349.329L146.25,349.81L146.973,350L147.695,349.98L148.418,349.721L149.141,349.977L149.863,349.536L150.586,348.672L151.309,348.43L152.031,347.468L152.754,346.642L153.477,345.695L154.199,344.244L154.922,343.039L155.645,341.583L156.367,339.977L157.09,338.734L157.813,336.611L158.535,334.781L159.258,332.886L159.98,330.858L160.703,328.742L161.426,326.402L162.148,324.049L162.871,321.665L163.594,319.264L164.316,316.658L165.039,314.066L165.762,311.248L166.484,308.668L167.207,305.851L167.93,303.011L168.652,300.098L169.375,297.087L170.098,294.493L170.82,291.132L171.543,288.122L172.266,284.81L172.988,282.033L173.711,279.211L174.434,275.431L175.156,272.386L175.879,269.147L176.602,266.08L177.324,262.852L178.047,259.893L178.77,256.242L179.492,253.157L180.215,249.909L180.938,246.632L181.66,243.644L182.383,240.296L183.105,237.197L183.828,233.747L184.551,230.646L185.273,227.695L185.996,224.802L186.719,221.345L187.441,218.316L188.164,215.052L188.887,212.386L189.609,209.307L190.332,206L191.055,203.084L191.777,199.891L192.5,197.331L193.223,194.124L193.945,191.352L194.668,188.549L195.391,185.678L196.113,182.62L196.836,180.073L197.559,177.145L198.281,174.564L199.004,171.35L199.727,169.187L200.449,166.443L201.172,163.752L201.895,161.248L202.617,158.59L203.34,156.062L204.063,153.732L204.785,151.344L205.508,148.692L206.23,146.303L206.953,143.885L207.676,141.671L208.398,139.442L209.121,136.975L209.844,134.546L210.566,132.478L211.289,130.48L212.012,128.184L212.734,126.06L213.457,123.979L214.18,122.265L214.902,122.404L215.625,122.855L216.348,123.109L217.07,123.623L217.793,124.107L218.516,124.357L219.238,122.917L219.961,121.435L220.684,120.198L221.406,118.571L222.129,116.946L222.852,115.624L223.574,114.2L224.297,112.79L225.02,111.38L225.742,109.919L226.465,108.538L227.188,107.203L227.91,106.016L228.633,104.564L229.355,103.215L230.078,101.948L230.801,100.698L231.523,99.566L232.246,98.093L232.969,96.832L233.691,95.652L234.414,94.349L235.137,93.219L235.859,92.127L236.582,90.84L237.305,89.625L238.027,88.599L238.75,87.419L239.473,86.207L240.195,85.244L240.918,83.904L241.641,82.979L242.363,81.878L243.086,80.826L243.809,79.614L244.531,78.733L245.254,77.616L245.977,76.668L246.699,75.616L247.422,74.766L248.145,73.838L248.867,72.74L249.59,71.886L250.313,70.898L251.035,69.95L251.758,69.105L252.48,68.11L253.203,67.502L253.926,66.41L254.648,65.637L255.371,64.813L256.094,63.952L256.816,63.347L257.539,62.719L258.262,61.763L258.984,61.053L259.707,60.545L260.43,59.661L261.152,58.961L261.875,58.367L262.598,57.608L263.32,57.067L264.043,56.42L264.766,55.812L265.488,55.13L266.211,54.623L266.934,54.114L267.656,53.552L268.379,53.01L269.102,52.423L269.824,51.936L270.547,51.444L271.27,50.891L271.992,50.359L272.715,49.833L273.438,49.373L274.16,48.73L274.883,48.272L275.605,47.937L276.328,47.451L277.051,47.134L277.773,46.55L278.496,46.167L279.219,45.676L279.941,45.156L280.664,44.648L281.387,44.231L282.109,43.938L282.832,43.442L283.555,43.121L284.277,42.69L285,42.313L285.723,41.83L286.445,41.6L287.168,41.037L287.891,40.784L288.613,40.467L289.336,39.942L290.059,39.707L290.781,39.303L291.504,39.038L292.227,38.674L292.949,38.315L293.672,37.966L294.395,37.703L295.117,37.417L295.84,36.993L296.563,36.596L297.285,36.345L298.008,35.968L298.73,35.705L299.453,35.416L300.176,35.234L300.898,34.908L301.621,34.608L302.344,34.362L303.066,34.069L303.789,33.807L304.512,33.428L305.234,33.226L305.957,32.991L306.68,32.592L307.402,32.489L308.125,32.237L308.848,32.077L309.57,31.772L310.293,31.657L311.016,31.358L311.738,31.018L312.461,30.904L313.184,30.702L313.906,30.355L314.629,30.373L315.352,30.065L316.074,29.934L316.797,29.66L317.52,29.419L318.242,29.379L318.965,29.056L319.688,28.892L320.41,28.587L321.133,28.56L321.855,28.371L322.578,28.149L323.301,28.015L324.023,27.892L324.746,27.735L325.469,27.655L326.191,27.457L326.914,27.297L327.637,27.156L328.359,26.903L329.082,26.872L329.805,26.771L330.527,26.603L331.25,26.375L331.973,26.152L332.695,26.208L333.418,26.064L334.141,25.985L334.863,25.605L335.586,25.689L336.309,25.628L337.031,25.448L337.754,25.298L338.477,25.257L339.199,25.015L339.922,25.097L340.645,24.807L341.367,24.865L342.09,24.617L342.813,24.501L343.535,24.59L344.258,24.276L344.98,24.277L345.703,24.268L346.426,24.15L347.148,24.12L347.871,23.994L348.594,23.696L349.316,23.595L350.039,23.808L350.762,23.72L351.484,23.486L352.207,23.479L352.93,23.315L353.652,23.242L354.375,23.432L355.098,22.869L355.82,23.056L356.543,23.044L357.266,23.081L357.988,22.881L358.711,22.667L359.434,22.808L360.156,22.596L360.879,22.664L361.602,22.612L362.324,22.658L363.047,22.29L363.77,22.515L364.492,22.299L365.215,22.198L365.938,22.174L366.66,21.989L367.383,22.159L368.105,22.1L368.828,22.063L369.551,22.096L370.273,22.195L370.996,21.918L371.719,21.935L372.441,21.929L373.164,21.938L373.887,21.782L374.609,22.236L375.332,22.009L376.055,21.652L376.777,21.402L377.5,21.256L378.223,21.375L378.945,21.658L379.668,21.346L380.391,21.345L381.113,21.47L381.836,21.335L382.559,21.375L383.281,21.17L384.004,21.024L384.727,21.588L385.449,21.377L386.172,21.542L386.895,21.309L387.617,21.572L388.34,21.934L389.063,21.489L389.785,21.279L390.508,21.336L391.23,21.173L391.953,21.876L392.676,21.455L393.398,21.444L394.121,21.652L394.844,21.551L395.566,21.414L396.289,21.391L397.012,21.291L397.734,21.463L398.457,21.397L399.18,21.577L399.902,20.902L400.625,22.533L401.348,22.39L402.07,22.013L402.793,22.07L403.516,21.68L404.238,22.098L404.961,22.799L405.684,22.974L406.406,23.453L407.129,23.179L407.852,24.205L408.574,23.423L409.297,25.176L410.02,24.56L410.742,22.978L411.465,23.866L412.188,23.545L412.91,24.915L413.633,24.764L414.355,25.366L415.078,26.178L415.801,26.973L416.523,26.523L417.246,26.673L417.969,26.854L418.691,28.901L419.414,26.715L420.137,27.972L420.859,27.923L421.582,27.304L422.305,28.139L423.027,27.542L423.75,28.708L424.473,28.731L425.195,27.907L425.918,27.531L426.641,27.933L427.363,28.492L428.086,27.948L428.809,27.361L429.531,26.546L430.254,26.714L430.977,26.245L431.699,26.444L432.422,26.505L433.145,25.482L433.867,25.152L434.59,25.729L435.313,24.73L436.035,24.795L436.758,24.472L437.48,24.401L438.203,24.729L438.926,23.873L439.648,23.435L440.371,24.046L441.094,22.743L441.816,23.431L442.539,23.186L443.262,23.007L443.984,23.106L444.707,22.569L445.43,22.698L446.152,22.452L446.875,22.148L447.598,22.009L448.32,21.937L449.043,21.983L449.766,21.694L450.488,21.686L451.211,21.343L451.934,20.988L452.656,21.485L453.379,20.869L454.102,21.052L454.824,21.091L455.547,21.117L456.27,21.077L456.992,20.863L457.715,20.822L458.438,20.611L459.16,20.776L459.883,20.67L460.605,20.534L461.328,20.446L462.051,20.624L462.773,20.584L463.496,20.421L464.219,20.486L464.941,20.466L465.664,20.446L466.387,20.253L467.109,20.293L467.832,20.365L468.555,20.153L469.277,20.181"/><path fill="none" stroke="rgb(69, 105, 238)" stroke-width="1.5" d="M100,200.778L100.723,201.872L101.445,203.282L102.168,204.765L102.891,206.146L103.613,207.583L104.336,209.158L105.059,210.689L105.781,212.031L106.504,213.43L107.227,215.281L107.949,216.717L108.672,218.658L109.395,220.24L110.117,221.887L110.84,223.735L111.563,225.475L112.285,227.227L113.008,229.38L113.73,231.115L114.453,233.22L115.176,235.098L115.898,236.755L116.621,238.786L117.344,240.936L118.066,242.932L118.789,245.001L119.512,247.218L120.234,249.018L120.957,251.086L121.68,253.086L122.402,255.302L123.125,257.092L123.848,259.319L124.57,261.149L125.293,263.292L126.016,265.052L126.738,266.939L127.461,268.858L128.184,270.684L128.906,272.248L129.629,274.34L130.352,275.783L131.074,277.537L131.797,278.966L132.52,280.546L133.242,282.314L133.965,283.553L134.688,285.134L135.41,286.308L136.133,287.365L136.855,288.444L137.578,289.613L138.301,290.25L139.023,291.157L139.746,292.206L140.469,292.798L141.191,293.167L141.914,293.65L142.637,294.1L143.359,294.402L144.082,294.48L144.805,294.368L145.527,294.787L146.25,294.176L146.973,293.965L147.695,293.899L148.418,293.117L149.141,292.971L149.863,291.967L150.586,291.249L151.309,290.529L152.031,289.683L152.754,288.536L153.477,287.235L154.199,286.433L154.922,284.992L155.645,283.228L156.367,281.992L157.09,280.196L157.813,278.578L158.535,276.803L159.258,275.275L159.98,273.087L160.703,271.557L161.426,269.336L162.148,267.264L162.871,265.028L163.594,263.061L164.316,260.881L165.039,258.181L165.762,256.398L166.484,253.829L167.207,251.388L167.93,248.74L168.652,246.294L169.375,243.625L170.098,241.305L170.82,238.683L171.543,236.197L172.266,233.481L172.988,231.09L173.711,228.143L174.434,225.729L175.156,223.001L175.879,219.969L176.602,217.359L177.324,214.692L178.047,211.919L178.77,209.313L179.492,206.884L180.215,203.792L180.938,201.24L181.66,198.529L182.383,196.116L183.105,193.182L183.828,190.758L184.551,188.065L185.273,185.548L185.996,182.834L186.719,179.865L187.441,177.582L188.164,174.826L188.887,172.254L189.609,169.751L190.332,167.123L191.055,164.405L191.777,162.267L192.5,159.945L193.223,157.202L193.945,155.047L194.668,152.59L195.391,150.22L196.113,147.878L196.836,145.791L197.559,143.051L198.281,140.887L199.004,138.684L199.727,136.458L200.449,134.213L201.172,132.06L201.895,129.902L202.617,127.849L203.34,125.761L204.063,123.635L204.785,121.82L205.508,119.478L206.23,117.387L206.953,115.679L207.676,113.681L208.398,111.854L209.121,109.775L209.844,107.857L210.566,106.235L211.289,104.316L212.012,102.63L212.734,100.659L213.457,100.128L214.18,100.706L214.902,101.782L215.625,102.298L216.348,102.94L217.07,103.668L217.793,103.606L218.516,102.545L219.238,101.206L219.961,100.121L220.684,98.72L221.406,97.557L222.129,96.616L222.852,95.231L223.574,94.195L224.297,93.261L225.02,91.965L225.742,90.751L226.465,89.65L227.188,88.488L227.91,87.497L228.633,86.757L229.355,85.327L230.078,84.371L230.801,83.23L231.523,82.316L232.246,81.196L232.969,80.354L233.691,79.464L234.414,78.272L235.137,77.353L235.859,76.441L236.582,75.396L237.305,74.457L238.027,73.581L238.75,72.653L239.473,71.872L240.195,70.868L240.918,69.899L241.641,69.047L242.363,68.195L243.086,67.298L243.809,66.419L244.531,65.668L245.254,65.06L245.977,64.012L246.699,63.219L247.422,62.446L248.145,61.578L248.867,60.78L249.59,60.112L250.313,59.346L251.035,58.88L251.758,58.146L252.48,57.333L253.203,56.67L253.926,55.904L254.648,55.531L255.371,54.747L256.094,54.085L256.816,53.57L257.539,52.967L258.262,52.415L258.984,51.828L259.707,51.319L260.43,50.6L261.152,50.352L261.875,49.787L262.598,49.243L263.32,48.852L264.043,48.457L264.766,48.117L265.488,47.376L266.211,47.125L266.934,46.579L267.656,46.336L268.379,45.944L269.102,45.637L269.824,45.151L270.547,44.874L271.27,44.526L271.992,44.114L272.715,43.672L273.438,43.396L274.16,43.058L274.883,42.729L275.605,42.255L276.328,41.917L277.051,41.656L277.773,41.35L278.496,41.03L279.219,40.68L279.941,40.321L280.664,40.135L281.387,39.715L282.109,39.277L282.832,39.072L283.555,38.895L284.277,38.54L285,38.217L285.723,37.941L286.445,37.645L287.168,37.31L287.891,37.081L288.613,36.725L289.336,36.403L290.059,36.098L290.781,36.046L291.504,35.595L292.227,35.378L292.949,35.236L293.672,34.824L294.395,34.634L295.117,34.326L295.84,34.07L296.563,33.814L297.285,33.564L298.008,33.318L298.73,33.135L299.453,32.907L300.176,32.726L300.898,32.507L301.621,32.254L302.344,32.04L303.066,31.78L303.789,31.568L304.512,31.143L305.234,31.146L305.957,30.854L306.68,30.714L307.402,30.494L308.125,30.287L308.848,30.123L309.57,29.911L310.293,29.836L311.016,29.582L311.738,29.336L312.461,29.24L313.184,28.989L313.906,28.808L314.629,28.561L315.352,28.434L316.074,28.395L316.797,28.172L317.52,28.054L318.242,27.945L318.965,27.652L319.688,27.622L320.41,27.414L321.133,27.377L321.855,27.192L322.578,26.963L323.301,27.091L324.023,26.779L324.746,26.846L325.469,26.522L326.191,26.558L326.914,26.386L327.637,26.238L328.359,26.038L329.082,26.072L329.805,25.818L330.527,25.772L331.25,25.678L331.973,25.355L332.695,25.434L333.418,25.276L334.141,25.407L334.863,25.214L335.586,24.997L336.309,24.919L337.031,24.842L337.754,24.76L338.477,24.414L339.199,24.474L339.922,24.625L340.645,24.439L341.367,24.418L342.09,23.996L342.813,24.152L343.535,23.903L344.258,23.708L344.98,23.848L345.703,23.82L346.426,23.957L347.148,23.746L347.871,23.465L348.594,23.382L349.316,23.5L350.039,23.321L350.762,23.301L351.484,23.039L352.207,23.189L352.93,23.121L353.652,22.787L354.375,22.651L355.098,22.576L355.82,22.794L356.543,23.18L357.266,22.493L357.988,22.943L358.711,23.095L359.434,22.367L360.156,22.444L360.879,22.302L361.602,22.733L362.324,22.244L363.047,22.116L363.77,22.356L364.492,21.955L365.215,22.722L365.938,22.238L366.66,22.332L367.383,22.001L368.105,21.926L368.828,21.895L369.551,22.212L370.273,21.601L370.996,21.414L371.719,22L372.441,21.309L373.164,21.773L373.887,21.683L374.609,21.182L375.332,21.271L376.055,21.145L376.777,22.05L377.5,21.814L378.223,21.883L378.945,21.422L379.668,21.574L380.391,21.342L381.113,21.249L381.836,21.102L382.559,21.512L383.281,20.988L384.004,21.303L384.727,21.891L385.449,20.987L386.172,22.312L386.895,21.072L387.617,21.392L388.34,21.115L389.063,21L389.785,21.985L390.508,20.522L391.23,21.634L391.953,21.158L392.676,21.278L393.398,20.966L394.121,21.005L394.844,20.895L395.566,21.325L396.289,21.642L397.012,21.239L397.734,21.526L398.457,21.226L399.18,21.832L399.902,20.762L400.625,21.731L401.348,21.552L402.07,21.338L402.793,22.575L403.516,23.097L404.238,22.94L404.961,21.791L405.684,22.81L406.406,22.558L407.129,22.181L407.852,22.936L408.574,23.592L409.297,23.341L410.02,24.275L410.742,23.965L411.465,24.127L412.188,24.28L412.91,24.249L413.633,25.583L414.355,24.171L415.078,24.193L415.801,25.333L416.523,24.982L417.246,26.099L417.969,27.098L418.691,25.977L419.414,27.298L420.137,26.477L420.859,26.781L421.582,25.946L422.305,26.263L423.027,27.346L423.75,26.422L424.473,27.214L425.195,27.469L425.918,26.385L426.641,27.171L427.363,26.235L428.086,27.493L428.809,27.078L429.531,25.75L430.254,25.985L430.977,25.87L431.699,25.401L432.422,25.152L433.145,25.272L433.867,25.144L434.59,25.59L435.313,24.988L436.035,24.591L436.758,24.548L437.48,23.843L438.203,23.235L438.926,23.548L439.648,24.072L440.371,23.107L441.094,23.067L441.816,22.954L442.539,22.947L443.262,22.773L443.984,22.77L444.707,22.64L445.43,22.493L446.152,21.756L446.875,21.981L447.598,21.716L448.32,21.822L449.043,21.615L449.766,21.446L450.488,21.017L451.211,21.177L451.934,21.257L452.656,21.082L453.379,20.982L454.102,20.929L454.824,21.089L455.547,20.956L456.27,20.787L456.992,20.669L457.715,20.686L458.438,20.485L459.16,20.455L459.883,20.554L460.605,20.612L461.328,20.335L462.051,20.5L462.773,20.375L463.496,20.437L464.219,20.351L464.941,20.478L465.664,20.363L466.387,20.325L467.109,20.349L467.832,20.217L468.555,20.262L469.277,20.25"/><path fill="none" stroke="rgb(38, 188, 225)" stroke-width="1.5" d="M100,194.602L100.723,195.784L101.445,196.905L102.168,197.887L102.891,199.03L103.613,200.183L104.336,201.076L105.059,202.456L105.781,203.608L106.504,204.643L107.227,206.087L107.949,207.161L108.672,208.427L109.395,209.853L110.117,210.95L110.84,212.18L111.563,213.745L112.285,214.734L113.008,216.636L113.73,217.823L114.453,218.98L115.176,220.347L115.898,221.586L116.621,222.983L117.344,224.227L118.066,225.779L118.789,227.145L119.512,228.445L120.234,229.9L120.957,231.162L121.68,232.431L122.402,233.694L123.125,234.686L123.848,235.93L124.57,237.422L125.293,238.699L126.016,239.714L126.738,240.921L127.461,242.19L128.184,242.966L128.906,243.98L129.629,244.895L130.352,245.684L131.074,246.339L131.797,247.428L132.52,248.213L133.242,248.617L133.965,249.568L134.688,249.824L135.41,250.471L136.133,251.118L136.855,251.366L137.578,251.484L138.301,251.718L139.023,251.82L139.746,252.166L140.469,251.958L141.191,251.92L141.914,251.861L142.637,251.781L143.359,251.366L144.082,250.883L144.805,250.243L145.527,249.675L146.25,249.081L146.973,248.69L147.695,247.634L148.418,246.609L149.141,246.086L149.863,244.944L150.586,243.915L151.309,242.637L152.031,241.64L152.754,240.162L153.477,238.856L154.199,237.572L154.922,235.763L155.645,234.435L156.367,232.771L157.09,231.397L157.813,229.421L158.535,227.392L159.258,225.571L159.98,224.037L160.703,221.811L161.426,219.904L162.148,217.885L162.871,216.023L163.594,213.832L164.316,212.057L165.039,209.695L165.762,207.562L166.484,205.15L167.207,202.742L167.93,200.77L168.652,198.477L169.375,196.109L170.098,193.932L170.82,191.829L171.543,189.466L172.266,187.221L172.988,184.445L173.711,182.238L174.434,180.382L175.156,177.781L175.879,175.587L176.602,173.167L177.324,170.933L178.047,168.298L178.77,166.093L179.492,163.884L180.215,161.474L180.938,159.244L181.66,156.793L182.383,154.768L183.105,152.513L183.828,150.293L184.551,148.088L185.273,145.65L185.996,143.705L186.719,141.505L187.441,139.193L188.164,137.217L188.887,135.015L189.609,132.839L190.332,130.595L191.055,128.85L191.777,126.575L192.5,124.539L193.223,122.601L193.945,120.855L194.668,118.566L195.391,116.707L196.113,114.739L196.836,113.07L197.559,111.155L198.281,109.009L199.004,107.277L199.727,105.647L200.449,103.567L201.172,101.983L201.895,100.162L202.617,98.697L203.34,96.844L204.063,95.024L204.785,93.467L205.508,91.858L206.23,90.271L206.953,88.635L207.676,86.906L208.398,85.519L209.121,84.085L209.844,82.514L210.566,83.212L211.289,84.125L212.012,85.028L212.734,85.871L213.457,86.863L214.18,87.837L214.902,87.313L215.625,86.293L216.348,85.288L217.07,84.398L217.793,83.207L218.516,82.522L219.238,81.42L219.961,80.622L220.684,79.621L221.406,78.676L222.129,77.602L222.852,76.801L223.574,75.85L224.297,75.006L225.02,74.193L225.742,73.303L226.465,72.469L227.188,71.695L227.91,70.606L228.633,69.96L229.355,69.01L230.078,68.121L230.801,67.303L231.523,66.553L232.246,65.722L232.969,64.871L233.691,64.224L234.414,63.417L235.137,62.665L235.859,61.873L236.582,61.228L237.305,60.575L238.027,59.647L238.75,58.896L239.473,58.327L240.195,57.631L240.918,56.949L241.641,56.365L242.363,55.647L243.086,54.968L243.809,54.381L244.531,53.705L245.254,53.088L245.977,52.548L246.699,51.901L247.422,51.366L248.145,50.797L248.867,50.194L249.59,49.583L250.313,49.063L251.035,48.725L251.758,48.138L252.48,47.627L253.203,47.244L253.926,46.733L254.648,46.343L255.371,45.844L256.094,45.424L256.816,44.977L257.539,44.628L258.262,44.243L258.984,43.885L259.707,43.504L260.43,43.109L261.152,42.855L261.875,42.64L262.598,42.344L263.32,41.989L264.043,41.817L264.766,41.457L265.488,41.207L266.211,40.984L266.934,40.83L267.656,40.453L268.379,40.283L269.102,40.062L269.824,39.857L270.547,39.599L271.27,39.295L271.992,39.151L272.715,38.933L273.438,38.695L274.16,38.462L274.883,38.23L275.605,38.093L276.328,37.743L277.051,37.574L277.773,37.321L278.496,37.158L279.219,36.958L279.941,36.708L280.664,36.485L281.387,36.267L282.109,35.977L282.832,35.692L283.555,35.511L284.277,35.299L285,35.073L285.723,34.799L286.445,34.597L287.168,34.33L287.891,34.101L288.613,33.917L289.336,33.684L290.059,33.506L290.781,33.262L291.504,33.079L292.227,32.798L292.949,32.527L293.672,32.452L294.395,32.157L295.117,31.882L295.84,31.732L296.563,31.506L297.285,31.368L298.008,31.064L298.73,30.96L299.453,30.615L300.176,30.468L300.898,30.397L301.621,30.16L302.344,29.907L303.066,29.77L303.789,29.642L304.512,29.327L305.234,29.205L305.957,28.949L306.68,28.944L307.402,28.678L308.125,28.545L308.848,28.439L309.57,28.305L310.293,28.112L311.016,27.934L311.738,27.832L312.461,27.627L313.184,27.587L313.906,27.397L314.629,27.324L315.352,27.16L316.074,26.959L316.797,26.873L317.52,26.695L318.242,26.476L318.965,26.427L319.688,26.177L320.41,26.044L321.133,25.922L321.855,25.771L322.578,25.89L323.301,25.78L324.023,25.666L324.746,25.364L325.469,25.37L326.191,25.282L326.914,25.053L327.637,24.979L328.359,24.946L329.082,24.907L329.805,24.718L330.527,24.65L331.25,24.631L331.973,24.532L332.695,24.321L333.418,24.382L334.141,24.14L334.863,24.217L335.586,24.098L336.309,23.918L337.031,23.864L337.754,23.764L338.477,23.731L339.199,23.637L339.922,23.652L340.645,23.605L341.367,23.459L342.09,23.495L342.813,23.34L343.535,23.156L344.258,22.936L344.98,23.093L345.703,23.312L346.426,23.045L347.148,22.988L347.871,22.891L348.594,22.757L349.316,23.261L350.039,22.707L350.762,22.949L351.484,22.723L352.207,22.257L352.93,22.826L353.652,22.244L354.375,22.775L355.098,22.262L355.82,22.15L356.543,22.513L357.266,22.23L357.988,22.291L358.711,21.961L359.434,22.055L360.156,22.256L360.879,22.022L361.602,22.063L362.324,22.184L363.047,21.961L363.77,21.642L364.492,21.788L365.215,21.754L365.938,21.528L366.66,21.711L367.383,21.83L368.105,21.459L368.828,21.754L369.551,21.33L370.273,21.859L370.996,21.198L371.719,21.456L372.441,21.687L373.164,21.315L373.887,21.494L374.609,20.683L375.332,21.35L376.055,21.069L376.777,21.63L377.5,20.992L378.223,21.352L378.945,21.371L379.668,22.152L380.391,21.289L381.113,21.33L381.836,21.243L382.559,21.275L383.281,21.054L384.004,21.161L384.727,21.506L385.449,20.652L386.172,21.309L386.895,21.049L387.617,20.558L388.34,21.149L389.063,21.365L389.785,21.29L390.508,20.005L391.23,21.354L391.953,21.581L392.676,20.964L393.398,20.945L394.121,21.108L394.844,21.395L395.566,21.412L396.289,20.613L397.012,21.195L397.734,21.352L398.457,20.997L399.18,20.439L399.902,20.954L400.625,21.021L401.348,20.794L402.07,21.865L402.793,21.27L403.516,22.266L404.238,22.311L404.961,23.086L405.684,21.978L406.406,21.193L407.129,21.191L407.852,22.684L408.574,22.171L409.297,21.034L410.02,22.526L410.742,21.209L411.465,22.731L412.188,22.365L412.91,21.85L413.633,22.29L414.355,22.584L415.078,24.241L415.801,23.338L416.523,23.353L417.246,23.709L417.969,22.87L418.691,24.483L419.414,23.855L420.137,22.946L420.859,24.69L421.582,23.521L422.305,23.859L423.027,24.995L423.75,23.903L424.473,24.239L425.195,24.079L425.918,24.612L426.641,24.625L427.363,24.05L428.086,24.361L428.809,23.63L429.531,24.924L430.254,23.987L430.977,23.949L431.699,23.653L432.422,23.544L433.145,23.324L433.867,22.688L434.59,23.106L435.313,23.3L436.035,23.927L436.758,22.928L437.48,22.88L438.203,22.981L438.926,22.817L439.648,22.639L440.371,22.638L441.094,22.435L441.816,22.105L442.539,21.959L443.262,21.674L443.984,21.77L444.707,22.137L445.43,21.15L446.152,21.279L446.875,21.629L447.598,21.419L448.32,21.11L449.043,21.465L449.766,21.065L450.488,21.063L451.211,20.941L451.934,20.823L452.656,20.565L453.379,20.936L454.102,20.73L454.824,20.57L455.547,20.497L456.27,20.576L456.992,20.627L457.715,20.421L458.438,20.573L459.16,20.442L459.883,20.495L460.605,20.396L461.328,20.292L462.051,20.385L462.773,20.223L463.496,20.371L464.219,20.378L464.941,20.399L465.664,20.211L466.387,20.185L467.109,20.184L467.832,20.15L468.555,20.154L469.277,20.128"/><path fill="none" stroke="rgb(63, 243, 147)" stroke-width="1.5" d="M100,188.09L100.723,188.863L101.445,189.676L102.168,190.519L102.891,191.517L103.613,192.411L104.336,193.273L105.059,194.309L105.781,194.91L106.504,195.826L107.227,196.982L107.949,197.852L108.672,198.781L109.395,199.566L110.117,200.703L110.84,201.611L111.563,202.272L112.285,203.377L113.008,204.371L113.73,205.243L114.453,205.996L115.176,207.111L115.898,207.865L116.621,208.738L117.344,209.45L118.066,210.368L118.789,211.25L119.512,211.942L120.234,212.804L120.957,213.464L121.68,214.159L122.402,214.716L123.125,215.459L123.848,216.111L124.57,216.783L125.293,217.33L126.016,217.796L126.738,218.26L127.461,218.692L128.184,219.058L128.906,219.286L129.629,219.533L130.352,219.868L131.074,219.99L131.797,220.075L132.52,220.087L133.242,220.161L133.965,219.931L134.688,220.081L135.41,219.685L136.133,219.514L136.855,219.213L137.578,218.915L138.301,218.442L139.023,217.764L139.746,217.452L140.469,216.629L141.191,215.864L141.914,215.048L142.637,214.413L143.359,213.655L144.082,212.607L144.805,211.634L145.527,210.545L146.25,209.35L146.973,208.122L147.695,206.824L148.418,205.667L149.141,204.247L149.863,202.887L150.586,201.59L151.309,199.915L152.031,198.304L152.754,196.838L153.477,195.172L154.199,193.556L154.922,191.856L155.645,190.094L156.367,188.291L157.09,186.329L157.813,184.735L158.535,182.768L159.258,180.97L159.98,179.13L160.703,176.982L161.426,175.286L162.148,173.177L162.871,171.245L163.594,169.229L164.316,167.286L165.039,165.133L165.762,163.122L166.484,161.099L167.207,159.091L167.93,157.16L168.652,154.913L169.375,152.813L170.098,150.926L170.82,148.925L171.543,146.731L172.266,144.883L172.988,142.646L173.711,140.691L174.434,138.654L175.156,136.618L175.879,134.598L176.602,132.805L177.324,130.637L178.047,128.89L178.77,126.746L179.492,124.804L180.215,122.827L180.938,121.185L181.66,119.076L182.383,117.194L183.105,115.432L183.828,113.399L184.551,111.44L185.273,109.741L185.996,107.912L186.719,106.252L187.441,104.535L188.164,102.674L188.887,100.934L189.609,99.191L190.332,97.561L191.055,95.737L191.777,94.233L192.5,92.716L193.223,91.088L193.945,89.243L194.668,87.835L195.391,86.242L196.113,84.727L196.836,83.149L197.559,81.739L198.281,80.289L199.004,78.912L199.727,77.393L200.449,76.022L201.172,74.661L201.895,73.326L202.617,71.919L203.34,70.537L204.063,69.33L204.785,69.964L205.508,71.071L206.23,72.149L206.953,73.349L207.676,74.406L208.398,75.492L209.121,75.307L209.844,74.472L210.566,73.787L211.289,72.794L212.012,72.152L212.734,71.288L213.457,70.45L214.18,69.844L214.902,68.782L215.625,68.171L216.348,67.407L217.07,66.685L217.793,66.02L218.516,65.186L219.238,64.5L219.961,63.829L220.684,63.196L221.406,62.339L222.129,61.524L222.852,60.821L223.574,60.366L224.297,59.387L225.02,58.862L225.742,58.194L226.465,57.494L227.188,56.95L227.91,56.309L228.633,55.669L229.355,55.182L230.078,54.529L230.801,53.861L231.523,53.373L232.246,52.591L232.969,52.132L233.691,51.486L234.414,50.79L235.137,50.428L235.859,49.827L236.582,49.34L237.305,48.789L238.027,48.238L238.75,47.883L239.473,47.283L240.195,46.78L240.918,46.333L241.641,45.991L242.363,45.362L243.086,44.999L243.809,44.515L244.531,44.1L245.254,43.819L245.977,43.285L246.699,43.081L247.422,42.604L248.145,42.257L248.867,42.009L249.59,41.629L250.313,41.347L251.035,40.887L251.758,40.677L252.48,40.319L253.203,40.085L253.926,39.769L254.648,39.619L255.371,39.389L256.094,39.185L256.816,38.896L257.539,38.634L258.262,38.452L258.984,38.212L259.707,37.934L260.43,37.836L261.152,37.673L261.875,37.525L262.598,37.329L263.32,37.089L264.043,36.956L264.766,36.691L265.488,36.625L266.211,36.516L266.934,36.232L267.656,36.176L268.379,36.04L269.102,35.784L269.824,35.737L270.547,35.686L271.27,35.511L271.992,35.319L272.715,35.076L273.438,34.918L274.16,34.863L274.883,34.678L275.605,34.647L276.328,34.373L277.051,34.162L277.773,34.031L278.496,33.877L279.219,33.671L279.941,33.506L280.664,33.368L281.387,33.206L282.109,33.079L282.832,32.834L283.555,32.673L284.277,32.501L285,32.294L285.723,32.086L286.445,32.009L287.168,31.73L287.891,31.582L288.613,31.446L289.336,31.25L290.059,31.148L290.781,30.86L291.504,30.696L292.227,30.517L292.949,30.322L293.672,30.159L294.395,29.964L295.117,29.907L295.84,29.699L296.563,29.484L297.285,29.342L298.008,29.218L298.73,29.09L299.453,28.833L300.176,28.788L300.898,28.58L301.621,28.431L302.344,28.302L303.066,28.09L303.789,28.01L304.512,27.847L305.234,27.657L305.957,27.553L306.68,27.449L307.402,27.313L308.125,27.229L308.848,26.999L309.57,27.073L310.293,26.816L311.016,26.66L311.738,26.625L312.461,26.454L313.184,26.317L313.906,26.212L314.629,26.131L315.352,26.007L316.074,25.919L316.797,25.784L317.52,25.708L318.242,25.553L318.965,25.494L319.688,25.534L320.41,25.268L321.133,25.154L321.855,25.124L322.578,24.926L323.301,24.828L324.023,24.784L324.746,24.694L325.469,24.603L326.191,24.489L326.914,24.32L327.637,24.454L328.359,24.229L329.082,24.276L329.805,24.044L330.527,23.956L331.25,24.148L331.973,23.92L332.695,23.923L333.418,23.537L334.141,23.638L334.863,23.615L335.586,23.5L336.309,23.573L337.031,23.35L337.754,23.381L338.477,23.321L339.199,23.238L339.922,23.16L340.645,23.021L341.367,23.013L342.09,23.054L342.813,22.838L343.535,23.01L344.258,22.819L344.98,22.71L345.703,22.702L346.426,22.617L347.148,22.597L347.871,22.585L348.594,22.381L349.316,22.464L350.039,22.262L350.762,22.25L351.484,22.202L352.207,22.153L352.93,22.088L353.652,22.224L354.375,21.906L355.098,22.111L355.82,22.196L356.543,22.354L357.266,22.1L357.988,21.613L358.711,21.826L359.434,21.771L360.156,21.803L360.879,21.302L361.602,22.025L362.324,21.643L363.047,21.749L363.77,21.632L364.492,21.762L365.215,21.832L365.938,21.255L366.66,21.511L367.383,21.725L368.105,21.514L368.828,21.517L369.551,21.512L370.273,20.8L370.996,21.601L371.719,21.154L372.441,21.385L373.164,20.803L373.887,21.181L374.609,21.778L375.332,21.038L376.055,20.998L376.777,21.069L377.5,21.361L378.223,21.386L378.945,20.881L379.668,20.244L380.391,21.061L381.113,21.083L381.836,20.892L382.559,21.281L383.281,21.183L384.004,20.95L384.727,20.337L385.449,21.362L386.172,20.201L386.895,20.802L387.617,20.958L388.34,20.279L389.063,20.98L389.785,21.04L390.508,20.687L391.23,20.805L391.953,21.018L392.676,20.626L393.398,20.333L394.121,20.932L394.844,20.269L395.566,20.39L396.289,20.493L397.012,21.414L397.734,21.301L398.457,21.044L399.18,20.061L399.902,20.669L400.625,20.784L401.348,20.032L402.07,20.237L402.793,20.871L403.516,21.665L404.238,21.06L404.961,21.155L405.684,20.698L406.406,21.294L407.129,20.692L407.852,20.468L408.574,20.852L409.297,20.293L410.02,21.714L410.742,20.116L411.465,21.494L412.188,21.653L412.91,21.338L413.633,21.469L414.355,21.489L415.078,22.005L415.801,20.177L416.523,21.619L417.246,22.243L417.969,20.576L418.691,20.745L419.414,21.258L420.137,21.494L420.859,21.36L421.582,20.394L422.305,23.281L423.027,22.294L423.75,22.49L424.473,20.874L425.195,21.359L425.918,21.287L426.641,20.884L427.363,21.152L428.086,20.897L428.809,21.453L429.531,22.153L430.254,21.452L430.977,21.47L431.699,21.142L432.422,21.166L433.145,20.432L433.867,21.74L434.59,21.109L435.313,20.831L436.035,21.255L436.758,21.017L437.48,21.565L438.203,20.85L438.926,20.662L439.648,21.056L440.371,21.092L441.094,20.689L441.816,20.208L442.539,20.641L443.262,20.72L443.984,20.914L444.707,20.677L445.43,20.658L446.152,20.972L446.875,20.545L447.598,20.268L448.32,20.283L449.043,20.812L449.766,20.492L450.488,20.36L451.211,20.44L451.934,20.334L452.656,20.284L453.379,20.321L454.102,20.17L454.824,20.2L455.547,20.213L456.27,20.333L456.992,20.318L457.715,20.11L458.438,20.059L459.16,20.008L459.883,20.252L460.605,20.131L461.328,20.086L462.051,20.158L462.773,20.179L463.496,20.159L464.219,20.129L464.941,20.119L465.664,20.12L466.387,20.118L467.109,20.064L467.832,20.132L468.555,20.037L469.277,20.018"/><path fill="none" stroke="rgb(149, 251, 81)" stroke-width="1.5" d="M100,183.023L100.723,183.942L101.445,184.337L102.168,185.002L102.891,185.626L103.613,186.388L104.336,187.055L105.059,187.686L105.781,188.294L106.504,188.769L107.227,189.437L107.949,190.063L108.672,190.775L109.395,191.255L110.117,191.862L110.84,192.317L111.563,192.939L112.285,193.253L113.008,193.653L113.73,194.212L114.453,194.747L115.176,195.006L115.898,195.413L116.621,195.712L117.344,196.041L118.066,196.352L118.789,196.554L119.512,196.751L120.234,196.837L120.957,196.928L121.68,196.985L122.402,197.139L123.125,196.86L123.848,196.774L124.57,196.616L125.293,196.61L126.016,196.257L126.738,195.944L127.461,195.805L128.184,195.313L128.906,194.842L129.629,194.309L130.352,193.657L131.074,193.281L131.797,192.474L132.52,191.66L133.242,190.905L133.965,190.004L134.688,189.25L135.41,188.457L136.133,187.453L136.855,186.429L137.578,185.319L138.301,184.059L139.023,183.121L139.746,181.839L140.469,180.692L141.191,179.103L141.914,177.869L142.637,176.422L143.359,174.924L144.082,173.416L144.805,172.163L145.527,170.447L146.25,168.947L146.973,167.425L147.695,165.916L148.418,164.271L149.141,162.547L149.863,160.716L150.586,159.109L151.309,157.231L152.031,155.552L152.754,153.882L153.477,151.946L154.199,150.23L154.922,148.328L155.645,146.506L156.367,144.747L157.09,142.874L157.813,141.009L158.535,138.999L159.258,137.319L159.98,135.261L160.703,133.622L161.426,131.632L162.148,129.871L162.871,128.04L163.594,126.397L164.316,124.509L165.039,122.716L165.762,120.841L166.484,119.012L167.207,117.253L167.93,115.497L168.652,113.615L169.375,111.799L170.098,109.937L170.82,108.514L171.543,106.618L172.266,105.064L172.988,103.214L173.711,101.503L174.434,99.835L175.156,97.993L175.879,96.505L176.602,94.947L177.324,93.409L178.047,91.775L178.77,90.361L179.492,88.695L180.215,87.15L180.938,85.577L181.66,84.187L182.383,82.627L183.105,80.975L183.828,79.734L184.551,78.316L185.273,76.861L185.996,75.517L186.719,74.087L187.441,72.831L188.164,71.349L188.887,69.999L189.609,68.774L190.332,67.339L191.055,66.175L191.777,64.96L192.5,63.801L193.223,62.563L193.945,61.292L194.668,60.168L195.391,59.718L196.113,60.934L196.836,62.252L197.559,63.457L198.281,64.789L199.004,66.048L199.727,66.937L200.449,66.277L201.172,65.649L201.895,64.925L202.617,64.241L203.34,63.559L204.063,63.014L204.785,62.17L205.508,61.621L206.23,61.001L206.953,60.347L207.676,59.731L208.398,59.107L209.121,58.504L209.844,57.752L210.566,57.4L211.289,56.678L212.012,56.108L212.734,55.43L213.457,54.885L214.18,54.371L214.902,53.728L215.625,53.148L216.348,52.64L217.07,51.942L217.793,51.552L218.516,50.904L219.238,50.547L219.961,49.926L220.684,49.419L221.406,48.946L222.129,48.422L222.852,48.018L223.574,47.537L224.297,47.023L225.02,46.594L225.742,45.989L226.465,45.705L227.188,45.235L227.91,44.775L228.633,44.295L229.355,43.937L230.078,43.616L230.801,43.137L231.523,42.757L232.246,42.517L232.969,42.031L233.691,41.762L234.414,41.262L235.137,41.178L235.859,40.748L236.582,40.272L237.305,40.039L238.027,39.756L238.75,39.485L239.473,39.095L240.195,38.926L240.918,38.654L241.641,38.302L242.363,38.005L243.086,37.859L243.809,37.521L244.531,37.306L245.254,37.144L245.977,36.925L246.699,36.623L247.422,36.513L248.145,36.215L248.867,36.057L249.59,35.793L250.313,35.655L251.035,35.444L251.758,35.16L252.48,35.009L253.203,34.733L253.926,34.702L254.648,34.508L255.371,34.416L256.094,34.253L256.816,34.096L257.539,33.858L258.262,33.795L258.984,33.546L259.707,33.352L260.43,33.209L261.152,33.204L261.875,32.997L262.598,32.779L263.32,32.767L264.043,32.598L264.766,32.507L265.488,32.322L266.211,32.292L266.934,32.154L267.656,31.999L268.379,31.973L269.102,31.8L269.824,31.74L270.547,31.599L271.27,31.573L271.992,31.451L272.715,31.235L273.438,31.201L274.16,31.125L274.883,31.024L275.605,30.934L276.328,30.823L277.051,30.679L277.773,30.593L278.496,30.486L279.219,30.43L279.941,30.271L280.664,30.176L281.387,30.132L282.109,29.844L282.832,29.744L283.555,29.631L284.277,29.541L285,29.422L285.723,29.327L286.445,29.21L287.168,29.132L287.891,28.907L288.613,28.815L289.336,28.633L290.059,28.543L290.781,28.454L291.504,28.264L292.227,28.16L292.949,28.001L293.672,27.854L294.395,27.845L295.117,27.637L295.84,27.541L296.563,27.414L297.285,27.282L298.008,27.142L298.73,27.027L299.453,26.965L300.176,26.835L300.898,26.737L301.621,26.62L302.344,26.483L303.066,26.423L303.789,26.218L304.512,26.13L305.234,26.045L305.957,25.881L306.68,25.807L307.402,25.719L308.125,25.609L308.848,25.484L309.57,25.386L310.293,25.253L311.016,25.193L311.738,25.127L312.461,25.072L313.184,24.955L313.906,24.835L314.629,24.732L315.352,24.655L316.074,24.575L316.797,24.47L317.52,24.401L318.242,24.319L318.965,24.226L319.688,24.151L320.41,24.102L321.133,24.031L321.855,23.921L322.578,23.918L323.301,23.773L324.023,23.693L324.746,23.596L325.469,23.555L326.191,23.501L326.914,23.477L327.637,23.393L328.359,23.363L329.082,23.238L329.805,23.222L330.527,23.125L331.25,23.072L331.973,23.015L332.695,22.949L333.418,22.885L334.141,22.848L334.863,22.777L335.586,22.763L336.309,22.621L337.031,22.595L337.754,22.583L338.477,22.528L339.199,22.408L339.922,22.391L340.645,22.393L341.367,22.344L342.09,22.244L342.813,22.261L343.535,22.18L344.258,22.154L344.98,22.168L345.703,22.088L346.426,22.029L347.148,21.983L347.871,21.93L348.594,21.914L349.316,21.853L350.039,21.837L350.762,21.808L351.484,21.763L352.207,21.742L352.93,21.668L353.652,21.684L354.375,21.604L355.098,21.625L355.82,21.647L356.543,21.572L357.266,21.531L357.988,21.467L358.711,21.458L359.434,21.48L360.156,21.385L360.879,21.365L361.602,21.372L362.324,21.327L363.047,21.297L363.77,21.35L364.492,21.304L365.215,21.213L365.938,21.221L366.66,21.176L367.383,21.192L368.105,21.178L368.828,21.11L369.551,21.068L370.273,21.08L370.996,21.074L371.719,21.049L372.441,21.027L373.164,21.028L373.887,21.024L374.609,20.983L375.332,20.941L376.055,20.945L376.777,20.952L377.5,20.958L378.223,20.899L378.945,20.925L379.668,20.903L380.391,20.883L381.113,20.851L381.836,20.816L382.559,20.846L383.281,20.752L384.004,20.747L384.727,20.802L385.449,20.751L386.172,20.743L386.895,20.696L387.617,20.774L388.34,20.686L389.063,20.652L389.785,20.673L390.508,20.684L391.23,20.687L391.953,20.616L392.676,20.624L393.398,20.623L394.121,20.593L394.844,20.601L395.566,20.606L396.289,20.554L397.012,20.568L397.734,20.533L398.457,20.57L399.18,20.519L399.902,20.471L400.625,20.49L401.348,20.498L402.07,20.484L402.793,20.447L403.516,20.445L404.238,20.473L404.961,20.407L405.684,20.397L406.406,20.403L407.129,20.398L407.852,20.405L408.574,20.377L409.297,20.406L410.02,20.37L410.742,20.324L411.465,20.325L412.188,20.335L412.91,20.334L413.633,20.292L414.355,20.281L415.078,20.279L415.801,20.287L416.523,20.288L417.246,20.242L417.969,20.264L418.691,20.258L419.414,20.249L420.137,20.256L420.859,20.232L421.582,20.233L422.305,20.202L423.027,20.184L423.75,20.177L424.473,20.203L425.195,20.17L425.918,20.17L426.641,20.177L427.363,20.185L428.086,20.142L428.809,20.129L429.531,20.14L430.254,20.144L430.977,20.158L431.699,20.129L432.422,20.137L433.145,20.139L433.867,20.126L434.59,20.136L435.313,20.097L436.035,20.107L436.758,20.092L437.48,20.094L438.203,20.09L438.926,20.087L439.648,20.078L440.371,20.08L441.094,20.075L441.816,20.065L442.539,20.068L443.262,20.079L443.984,20.075L444.707,20.054L445.43,20.056L446.152,20.07L446.875,20.056L447.598,20.044L448.32,20.052L449.043,20.055L449.766,20.047L450.488,20.04L451.211,20.033L451.934,20.042L452.656,20.034L453.379,20.037L454.102,20.036L454.824,20.019L455.547,20.024L456.27,20.019L456.992,20.026L457.715,20.034L458.438,20.024L459.16,20.023L459.883,20.021L460.605,20.012L461.328,20.011L462.051,20.017L462.773,20.017L463.496,20.016L464.219,20.014L464.941,20.006L465.664,20.011L466.387,20.008L467.109,20.007L467.832,20L468.555,20.005L469.277,20.006"/><path fill="none" stroke="rgb(236, 209, 46)" stroke-width="1.5" d="M100,179.908L100.723,180.382L101.445,180.672L102.168,180.773L102.891,181.05L103.613,181.169L104.336,181.189L105.059,181.219L105.781,181.236L106.504,181.406L107.227,181.269L107.949,181.264L108.672,181.187L109.395,181.012L110.117,180.858L110.84,180.535L111.563,180.228L112.285,179.933L113.008,179.542L113.73,179.248L114.453,178.722L115.176,178.188L115.898,177.718L116.621,176.973L117.344,176.332L118.066,175.583L118.789,174.858L119.512,174.106L120.234,173.311L120.957,172.522L121.68,171.621L122.402,170.553L123.125,169.643L123.848,168.378L124.57,167.39L125.293,166.207L126.016,164.986L126.738,163.814L127.461,162.509L128.184,161.184L128.906,159.857L129.629,158.55L130.352,157.068L131.074,155.677L131.797,154.237L132.52,152.789L133.242,151.173L133.965,149.54L134.688,148.426L135.41,146.526L136.133,145.017L136.855,143.438L137.578,141.665L138.301,140.063L139.023,138.495L139.746,136.75L140.469,135.045L141.191,133.271L141.914,131.774L142.637,129.992L143.359,128.403L144.082,126.723L144.805,124.98L145.527,123.188L146.25,121.407L146.973,119.674L147.695,118.024L148.418,116.497L149.141,114.761L149.863,112.974L150.586,111.23L151.309,109.603L152.031,108.122L152.754,106.217L153.477,104.703L154.199,103.074L154.922,101.433L155.645,99.813L156.367,98.117L157.09,96.533L157.813,94.895L158.535,93.337L159.258,92.008L159.98,90.318L160.703,88.756L161.426,87.173L162.148,85.751L162.871,84.296L163.594,82.85L164.316,81.257L165.039,80.004L165.762,78.522L166.484,77.171L167.207,75.789L167.93,74.538L168.652,73.063L169.375,71.814L170.098,70.393L170.82,69.074L171.543,67.945L172.266,66.596L172.988,65.491L173.711,64.112L174.434,62.869L175.156,61.669L175.879,60.406L176.602,59.359L177.324,58.213L178.047,57.1L178.77,56.025L179.492,54.948L180.215,53.951L180.938,54.009L181.66,55.164L182.383,56.433L183.105,57.942L183.828,59.147L184.551,60.384L185.273,61.386L185.996,60.763L186.719,60.24L187.441,59.521L188.164,59.021L188.887,58.463L189.609,57.945L190.332,57.292L191.055,56.762L191.777,56.244L192.5,55.578L193.223,55.102L193.945,54.494L194.668,54.045L195.391,53.573L196.113,52.925L196.836,52.438L197.559,51.888L198.281,51.478L199.004,50.926L199.727,50.496L200.449,49.888L201.172,49.391L201.895,48.823L202.617,48.493L203.34,47.877L204.063,47.592L204.785,47.127L205.508,46.653L206.23,46.229L206.953,45.736L207.676,45.37L208.398,45.036L209.121,44.547L209.844,44.112L210.566,43.815L211.289,43.232L212.012,42.967L212.734,42.606L213.457,42.187L214.18,41.713L214.902,41.437L215.625,41.075L216.348,40.824L217.07,40.448L217.793,40.062L218.516,39.836L219.238,39.415L219.961,39.055L220.684,38.9L221.406,38.592L222.129,38.248L222.852,37.935L223.574,37.713L224.297,37.362L225.02,37.157L225.742,36.821L226.465,36.542L227.188,36.37L227.91,36.034L228.633,35.793L229.355,35.554L230.078,35.476L230.801,35.183L231.523,34.909L232.246,34.858L232.969,34.497L233.691,34.201L234.414,34.021L235.137,33.922L235.859,33.649L236.582,33.444L237.305,33.256L238.027,33.156L238.75,32.93L239.473,32.828L240.195,32.595L240.918,32.409L241.641,32.216L242.363,32.011L243.086,31.931L243.809,31.823L244.531,31.635L245.254,31.379L245.977,31.222L246.699,31.19L247.422,30.966L248.145,30.79L248.867,30.732L249.59,30.607L250.313,30.41L251.035,30.342L251.758,30.205L252.48,30.039L253.203,29.874L253.926,29.815L254.648,29.647L255.371,29.619L256.094,29.411L256.816,29.282L257.539,29.19L258.262,29.144L258.984,28.965L259.707,28.948L260.43,28.913L261.152,28.763L261.875,28.634L262.598,28.56L263.32,28.487L264.043,28.399L264.766,28.314L265.488,28.321L266.211,28.211L266.934,28.195L267.656,28.099L268.379,28.033L269.102,28.009L269.824,27.905L270.547,27.932L271.27,27.781L271.992,27.769L272.715,27.691L273.438,27.675L274.16,27.603L274.883,27.556L275.605,27.517L276.328,27.466L277.051,27.444L277.773,27.381L278.496,27.275L279.219,27.252L279.941,27.202L280.664,27.147L281.387,27.059L282.109,27.019L282.832,26.98L283.555,26.878L284.277,26.791L285,26.738L285.723,26.644L286.445,26.589L287.168,26.503L287.891,26.367L288.613,26.332L289.336,26.234L290.059,26.188L290.781,26.079L291.504,25.971L292.227,25.91L292.949,25.79L293.672,25.721L294.395,25.638L295.117,25.544L295.84,25.453L296.563,25.311L297.285,25.24L298.008,25.156L298.73,25.034L299.453,24.939L300.176,24.899L300.898,24.791L301.621,24.714L302.344,24.583L303.066,24.534L303.789,24.449L304.512,24.377L305.234,24.228L305.957,24.166L306.68,24.092L307.402,24.027L308.125,23.931L308.848,23.853L309.57,23.764L310.293,23.672L311.016,23.643L311.738,23.532L312.461,23.477L313.184,23.408L313.906,23.331L314.629,23.245L315.352,23.186L316.074,23.149L316.797,23.052L317.52,22.991L318.242,22.959L318.965,22.85L319.688,22.816L320.41,22.729L321.133,22.707L321.855,22.617L322.578,22.583L323.301,22.514L324.023,22.487L324.746,22.416L325.469,22.363L326.191,22.297L326.914,22.287L327.637,22.22L328.359,22.188L329.082,22.129L329.805,22.094L330.527,22.017L331.25,22.016L331.973,21.956L332.695,21.91L333.418,21.872L334.141,21.83L334.863,21.773L335.586,21.764L336.309,21.739L337.031,21.68L337.754,21.676L338.477,21.65L339.199,21.587L339.922,21.57L340.645,21.526L341.367,21.5L342.09,21.476L342.813,21.43L343.535,21.418L344.258,21.381L344.98,21.36L345.703,21.315L346.426,21.312L347.148,21.268L347.871,21.243L348.594,21.247L349.316,21.209L350.039,21.2L350.762,21.17L351.484,21.159L352.207,21.135L352.93,21.12L353.652,21.095L354.375,21.08L355.098,21.034L355.82,21.041L356.543,21.037L357.266,20.996L357.988,20.969L358.711,20.985L359.434,20.942L360.156,20.93L360.879,20.915L361.602,20.902L362.324,20.895L363.047,20.869L363.77,20.871L364.492,20.843L365.215,20.859L365.938,20.806L366.66,20.823L367.383,20.813L368.105,20.79L368.828,20.773L369.551,20.769L370.273,20.744L370.996,20.748L371.719,20.737L372.441,20.724L373.164,20.732L373.887,20.736L374.609,20.692L375.332,20.696L376.055,20.682L376.777,20.668L377.5,20.663L378.223,20.655L378.945,20.637L379.668,20.619L380.391,20.63L381.113,20.629L381.836,20.614L382.559,20.606L383.281,20.594L384.004,20.594L384.727,20.585L385.449,20.573L386.172,20.578L386.895,20.572L387.617,20.551L388.34,20.552L389.063,20.535L389.785,20.536L390.508,20.516L391.23,20.509L391.953,20.506L392.676,20.506L393.398,20.485L394.121,20.48L394.844,20.486L395.566,20.465L396.289,20.463L397.012,20.436L397.734,20.441L398.457,20.43L399.18,20.405L399.902,20.406L400.625,20.424L401.348,20.42L402.07,20.403L402.793,20.383L403.516,20.384L404.238,20.373L404.961,20.371L405.684,20.374L406.406,20.349L407.129,20.356L407.852,20.343L408.574,20.327L409.297,20.32L410.02,20.308L410.742,20.317L411.465,20.291L412.188,20.292L412.91,20.291L413.633,20.274L414.355,20.278L415.078,20.27L415.801,20.259L416.523,20.254L417.246,20.244L417.969,20.234L418.691,20.219L419.414,20.206L420.137,20.223L420.859,20.215L421.582,20.199L422.305,20.21L423.027,20.19L423.75,20.194L424.473,20.182L425.195,20.179L425.918,20.169L426.641,20.16L427.363,20.157L428.086,20.16L428.809,20.149L429.531,20.143L430.254,20.136L430.977,20.134L431.699,20.125L432.422,20.124L433.145,20.12L433.867,20.115L434.59,20.105L435.313,20.101L436.035,20.102L436.758,20.094L437.48,20.088L438.203,20.094L438.926,20.079L439.648,20.084L440.371,20.077L441.094,20.072L441.816,20.071L442.539,20.072L443.262,20.066L443.984,20.06L444.707,20.068L445.43,20.056L446.152,20.059L446.875,20.056L447.598,20.051L448.32,20.05L449.043,20.052L449.766,20.048L450.488,20.039L451.211,20.044L451.934,20.035L452.656,20.039L453.379,20.03L454.102,20.026L454.824,20.03L455.547,20.027L456.27,20.024L456.992,20.022L457.715,20.023L458.438,20.024L459.16,20.02L459.883,20.02L460.605,20.018L461.328,20.016L462.051,20.017L462.773,20.016L463.496,20.012L464.219,20.013L464.941,20.01L465.664,20.006L466.387,20.008L467.109,20.006L467.832,20.011L468.555,20.006L469.277,20.008"/><path fill="none" stroke="rgb(255, 130, 29)" stroke-width="1.5" d="M100,154.95L100.723,153.674L101.445,152.667L102.168,151.405L102.891,149.92L103.613,148.795L104.336,147.361L105.059,145.922L105.781,144.609L106.504,143.101L107.227,141.708L107.949,140.2L108.672,138.784L109.395,137.179L110.117,135.709L110.84,134.206L111.563,132.591L112.285,131.053L113.008,129.535L113.73,127.946L114.453,126.362L115.176,124.849L115.898,123.358L116.621,121.615L117.344,120.019L118.066,118.529L118.789,116.74L119.512,115.248L120.234,113.452L120.957,111.9L121.68,110.313L122.402,108.706L123.125,107.067L123.848,105.403L124.57,103.876L125.293,102.444L126.016,100.966L126.738,99.033L127.461,97.599L128.184,96.003L128.906,94.674L129.629,93.085L130.352,91.492L131.074,89.979L131.797,88.566L132.52,87.133L133.242,85.502L133.965,84.092L134.688,82.718L135.41,81.267L136.133,79.99L136.855,78.418L137.578,77.084L138.301,75.801L139.023,74.425L139.746,73.145L140.469,71.874L141.191,70.4L141.914,69.314L142.637,68.053L143.359,66.609L144.082,65.425L144.805,64.349L145.527,63.111L146.25,61.944L146.973,60.649L147.695,59.592L148.418,58.378L149.141,57.239L149.863,56.262L150.586,55.097L151.309,53.955L152.031,53.091L152.754,51.963L153.477,50.823L154.199,51.348L154.922,52.598L155.645,54.081L156.367,55.424L157.09,56.908L157.813,58.213L158.535,58.79L159.258,58.38L159.98,57.769L160.703,57.1L161.426,56.637L162.148,56.148L162.871,55.503L163.594,55.053L164.316,54.586L165.039,54.143L165.762,53.597L166.484,53.092L167.207,52.447L167.93,52.052L168.652,51.517L169.375,50.949L170.098,50.465L170.82,50.019L171.543,49.627L172.266,49.042L172.988,48.671L173.711,48.207L174.434,47.872L175.156,47.196L175.879,46.782L176.602,46.409L177.324,45.964L178.047,45.579L178.77,45.117L179.492,44.638L180.215,44.295L180.938,43.834L181.66,43.459L182.383,43.019L183.105,42.642L183.828,42.409L184.551,41.857L185.273,41.532L185.996,41.298L186.719,40.865L187.441,40.486L188.164,40.113L188.887,39.861L189.609,39.468L190.332,39.155L191.055,38.798L191.777,38.434L192.5,38.199L193.223,37.852L193.945,37.574L194.668,37.342L195.391,36.973L196.113,36.72L196.836,36.376L197.559,36.154L198.281,35.819L199.004,35.564L199.727,35.353L200.449,35.031L201.172,34.911L201.895,34.7L202.617,34.337L203.34,34.126L204.063,33.953L204.785,33.712L205.508,33.493L206.23,33.161L206.953,33.035L207.676,32.831L208.398,32.652L209.121,32.403L209.844,32.118L210.566,32.094L211.289,31.85L212.012,31.738L212.734,31.494L213.457,31.227L214.18,31.106L214.902,30.936L215.625,30.761L216.348,30.528L217.07,30.462L217.793,30.238L218.516,30.04L219.238,29.908L219.961,29.798L220.684,29.684L221.406,29.44L222.129,29.388L222.852,29.171L223.574,29.093L224.297,28.934L225.02,28.742L225.742,28.656L226.465,28.474L227.188,28.388L227.91,28.32L228.633,28.17L229.355,28.104L230.078,27.917L230.801,27.805L231.523,27.741L232.246,27.585L232.969,27.421L233.691,27.326L234.414,27.262L235.137,27.164L235.859,27.063L236.582,26.955L237.305,26.852L238.027,26.772L238.75,26.673L239.473,26.54L240.195,26.446L240.918,26.463L241.641,26.304L242.363,26.224L243.086,26.133L243.809,26.032L244.531,26.056L245.254,25.87L245.977,25.842L246.699,25.767L247.422,25.698L248.145,25.596L248.867,25.526L249.59,25.493L250.313,25.459L251.035,25.35L251.758,25.284L252.48,25.235L253.203,25.198L253.926,25.14L254.648,25.054L255.371,25.053L256.094,25.031L256.816,24.97L257.539,24.878L258.262,24.858L258.984,24.813L259.707,24.812L260.43,24.784L261.152,24.758L261.875,24.701L262.598,24.698L263.32,24.634L264.043,24.69L264.766,24.609L265.488,24.661L266.211,24.601L266.934,24.62L267.656,24.62L268.379,24.58L269.102,24.622L269.824,24.575L270.547,24.631L271.27,24.593L271.992,24.652L272.715,24.615L273.438,24.639L274.16,24.645L274.883,24.612L275.605,24.684L276.328,24.638L277.051,24.681L277.773,24.661L278.496,24.699L279.219,24.698L279.941,24.667L280.664,24.676L281.387,24.666L282.109,24.647L282.832,24.62L283.555,24.603L284.277,24.593L285,24.583L285.723,24.498L286.445,24.479L287.168,24.466L287.891,24.422L288.613,24.396L289.336,24.331L290.059,24.293L290.781,24.249L291.504,24.219L292.227,24.164L292.949,24.097L293.672,24.048L294.395,24.008L295.117,23.956L295.84,23.894L296.563,23.834L297.285,23.767L298.008,23.74L298.73,23.674L299.453,23.619L300.176,23.563L300.898,23.47L301.621,23.444L302.344,23.372L303.066,23.303L303.789,23.237L304.512,23.205L305.234,23.106L305.957,23.104L306.68,23.012L307.402,22.968L308.125,22.902L308.848,22.844L309.57,22.811L310.293,22.742L311.016,22.684L311.738,22.651L312.461,22.601L313.184,22.532L313.906,22.498L314.629,22.423L315.352,22.372L316.074,22.318L316.797,22.311L317.52,22.253L318.242,22.196L318.965,22.146L319.688,22.106L320.41,22.097L321.133,22.039L321.855,22L322.578,21.958L323.301,21.915L324.023,21.867L324.746,21.819L325.469,21.777L326.191,21.759L326.914,21.734L327.637,21.686L328.359,21.665L329.082,21.639L329.805,21.614L330.527,21.543L331.25,21.537L331.973,21.511L332.695,21.473L333.418,21.45L334.141,21.42L334.863,21.405L335.586,21.387L336.309,21.341L337.031,21.305L337.754,21.305L338.477,21.256L339.199,21.266L339.922,21.243L340.645,21.201L341.367,21.187L342.09,21.172L342.813,21.156L343.535,21.139L344.258,21.107L344.98,21.081L345.703,21.067L346.426,21.052L347.148,21.036L347.871,21.031L348.594,21.018L349.316,20.994L350.039,20.974L350.762,20.959L351.484,20.952L352.207,20.925L352.93,20.921L353.652,20.905L354.375,20.875L355.098,20.867L355.82,20.874L356.543,20.849L357.266,20.844L357.988,20.826L358.711,20.812L359.434,20.792L360.156,20.792L360.879,20.779L361.602,20.761L362.324,20.755L363.047,20.768L363.77,20.744L364.492,20.722L365.215,20.714L365.938,20.708L366.66,20.698L367.383,20.686L368.105,20.677L368.828,20.669L369.551,20.67L370.273,20.663L370.996,20.665L371.719,20.656L372.441,20.643L373.164,20.621L373.887,20.63L374.609,20.631L375.332,20.615L376.055,20.627L376.777,20.591L377.5,20.604L378.223,20.592L378.945,20.567L379.668,20.592L380.391,20.576L381.113,20.582L381.836,20.565L382.559,20.554L383.281,20.562L384.004,20.555L384.727,20.527L385.449,20.54L386.172,20.531L386.895,20.531L387.617,20.514L388.34,20.501L389.063,20.493L389.785,20.501L390.508,20.48L391.23,20.495L391.953,20.488L392.676,20.47L393.398,20.472L394.121,20.466L394.844,20.467L395.566,20.451L396.289,20.433L397.012,20.426L397.734,20.429L398.457,20.422L399.18,20.418L399.902,20.417L400.625,20.41L401.348,20.401L402.07,20.382L402.793,20.395L403.516,20.384L404.238,20.382L404.961,20.359L405.684,20.369L406.406,20.363L407.129,20.344L407.852,20.336L408.574,20.343L409.297,20.328L410.02,20.323L410.742,20.313L411.465,20.302L412.188,20.293L412.91,20.277L413.633,20.289L414.355,20.284L415.078,20.27L415.801,20.271L416.523,20.261L417.246,20.248L417.969,20.246L418.691,20.23L419.414,20.235L420.137,20.229L420.859,20.223L421.582,20.211L422.305,20.204L423.027,20.197L423.75,20.196L424.473,20.191L425.195,20.182L425.918,20.184L426.641,20.168L427.363,20.163L428.086,20.164L428.809,20.16L429.531,20.151L430.254,20.148L430.977,20.133L431.699,20.135L432.422,20.121L433.145,20.129L433.867,20.122L434.59,20.123L435.313,20.117L436.035,20.108L436.758,20.107L437.48,20.101L438.203,20.099L438.926,20.094L439.648,20.08L440.371,20.087L441.094,20.083L441.816,20.073L442.539,20.081L443.262,20.075L443.984,20.072L444.707,20.064L445.43,20.071L446.152,20.059L446.875,20.063L447.598,20.062L448.32,20.054L449.043,20.053L449.766,20.046L450.488,20.047L451.211,20.04L451.934,20.043L452.656,20.036L453.379,20.035L454.102,20.036L454.824,20.032L455.547,20.032L456.27,20.026L456.992,20.026L457.715,20.025L458.438,20.026L459.16,20.025L459.883,20.02L460.605,20.021L461.328,20.021L462.051,20.017L462.773,20.017L463.496,20.012L464.219,20.017L464.941,20.011L465.664,20.011L466.387,20.01L467.109,20.011L467.832,20.009L468.555,20.008L469.277,20.006"/><path fill="none" stroke="rgb(203, 47, 13)" stroke-width="1.5" d="M100,37.317L100.723,37.245L101.445,37.034L102.168,36.942L102.891,36.908L103.613,36.601L104.336,36.537L105.059,36.444L105.781,36.29L106.504,36.264L107.227,36.15L107.949,36.046L108.672,35.924L109.395,35.879L110.117,35.736L110.84,35.598L111.563,35.48L112.285,35.435L113.008,35.301L113.73,35.287L114.453,35.056L115.176,34.805L115.898,34.856L116.621,34.717L117.344,34.557L118.066,34.469L118.789,34.423L119.512,34.385L120.234,34.308L120.957,34.234L121.68,33.998L122.402,33.956L123.125,33.947L123.848,33.772L124.57,33.746L125.293,33.55L126.016,33.35L126.738,33.311L127.461,33.295L128.184,33.123L128.906,33.071L129.629,32.821L130.352,32.85L131.074,32.704L131.797,32.697L132.52,32.594L133.242,32.445L133.965,32.442L134.688,32.26L135.41,32.151L136.133,32.038L136.855,31.913L137.578,31.884L138.301,31.742L139.023,31.772L139.746,31.579L140.469,31.585L141.191,31.438L141.914,31.331L142.637,31.235L143.359,31.096L144.082,31.058L144.805,30.97L145.527,30.909L146.25,30.829L146.973,30.752L147.695,30.798L148.418,30.55L149.141,30.522L149.863,30.469L150.586,30.371L151.309,30.401L152.031,30.216L152.754,30.13L153.477,30.11L154.199,29.98L154.922,29.873L155.645,29.82L156.367,29.697L157.09,29.623L157.813,29.511L158.535,29.493L159.258,29.529L159.98,29.289L160.703,29.205L161.426,29.273L162.148,29.122L162.871,29.042L163.594,29.007L164.316,28.928L165.039,28.985L165.762,28.808L166.484,28.822L167.207,28.767L167.93,28.668L168.652,28.533L169.375,28.464L170.098,28.454L170.82,28.409L171.543,28.344L172.266,28.36L172.988,28.212L173.711,28.203L174.434,28.077L175.156,28.009L175.879,27.959L176.602,27.91L177.324,27.813L178.047,27.797L178.77,27.742L179.492,27.671L180.215,27.643L180.938,27.67L181.66,27.497L182.383,27.469L183.105,27.414L183.828,27.297L184.551,27.308L185.273,27.309L185.996,27.25L186.719,27.222L187.441,27.208L188.164,27.162L188.887,27.026L189.609,27.013L190.332,27.037L191.055,27.022L191.777,26.789L192.5,26.775L193.223,26.833L193.945,26.802L194.668,26.756L195.391,26.704L196.113,26.62L196.836,26.6L197.559,26.555L198.281,26.573L199.004,26.479L199.727,26.34L200.449,26.362L201.172,26.333L201.895,26.325L202.617,26.271L203.34,26.241L204.063,26.236L204.785,26.219L205.508,26.166L206.23,26.117L206.953,26.006L207.676,26.059L208.398,26.042L209.121,25.941L209.844,25.914L210.566,25.823L211.289,25.865L212.012,25.879L212.734,25.806L213.457,25.795L214.18,25.715L214.902,25.749L215.625,25.686L216.348,25.678L217.07,25.665L217.793,25.587L218.516,25.628L219.238,25.598L219.961,25.499L220.684,25.534L221.406,25.533L222.129,25.496L222.852,25.41L223.574,25.412L224.297,25.412L225.02,25.361L225.742,25.373L226.465,25.274L227.188,25.245L227.91,25.266L228.633,25.197L229.355,25.162L230.078,25.204L230.801,25.15L231.523,25.143L232.246,25.128L232.969,25.115L233.691,25.127L234.414,25.084L235.137,25.068L235.859,25.023L236.582,24.982L237.305,24.978L238.027,24.981L238.75,24.942L239.473,24.911L240.195,24.948L240.918,24.908L241.641,24.897L242.363,24.889L243.086,24.811L243.809,24.871L244.531,24.797L245.254,24.761L245.977,24.8L246.699,24.749L247.422,24.8L248.145,24.687L248.867,24.707L249.59,24.69L250.313,24.681L251.035,24.724L251.758,24.66L252.48,24.658L253.203,24.631L253.926,24.579L254.648,24.623L255.371,24.592L256.094,24.605L256.816,24.554L257.539,24.571L258.262,24.624L258.984,24.572L259.707,24.578L260.43,24.561L261.152,24.6L261.875,24.56L262.598,24.577L263.32,24.62L264.043,24.619L264.766,24.565L265.488,24.653L266.211,24.699L266.934,24.683L267.656,24.715L268.379,24.737L269.102,24.75L269.824,24.781L270.547,24.832L271.27,24.792L271.992,24.833L272.715,24.837L273.438,24.882L274.16,24.901L274.883,24.918L275.605,24.938L276.328,24.949L277.051,24.967L277.773,25.02L278.496,25.002L279.219,25.021L279.941,25.014L280.664,25.051L281.387,24.989L282.109,24.982L282.832,25.024L283.555,25.003L284.277,24.956L285,24.947L285.723,24.917L286.445,24.887L287.168,24.881L287.891,24.888L288.613,24.817L289.336,24.809L290.059,24.726L290.781,24.688L291.504,24.65L292.227,24.609L292.949,24.571L293.672,24.533L294.395,24.471L295.117,24.408L295.84,24.357L296.563,24.291L297.285,24.195L298.008,24.195L298.73,24.118L299.453,24.066L300.176,24.037L300.898,23.981L301.621,23.929L302.344,23.862L303.066,23.778L303.789,23.752L304.512,23.65L305.234,23.614L305.957,23.543L306.68,23.483L307.402,23.396L308.125,23.37L308.848,23.309L309.57,23.258L310.293,23.198L311.016,23.152L311.738,23.069L312.461,23.015L313.184,22.98L313.906,22.955L314.629,22.895L315.352,22.844L316.074,22.806L316.797,22.748L317.52,22.681L318.242,22.634L318.965,22.605L319.688,22.586L320.41,22.488L321.133,22.457L321.855,22.424L322.578,22.38L323.301,22.319L324.023,22.274L324.746,22.264L325.469,22.197L326.191,22.21L326.914,22.162L327.637,22.102L328.359,22.075L329.082,22.036L329.805,21.99L330.527,21.969L331.25,21.944L331.973,21.888L332.695,21.851L333.418,21.86L334.141,21.85L334.863,21.773L335.586,21.746L336.309,21.725L337.031,21.718L337.754,21.676L338.477,21.66L339.199,21.632L339.922,21.606L340.645,21.557L341.367,21.554L342.09,21.547L342.813,21.525L343.535,21.503L344.258,21.449L344.98,21.45L345.703,21.45L346.426,21.459L347.148,21.379L347.871,21.371L348.594,21.379L349.316,21.333L350.039,21.301L350.762,21.306L351.484,21.275L352.207,21.276L352.93,21.248L353.652,21.228L354.375,21.221L355.098,21.203L355.82,21.167L356.543,21.165L357.266,21.152L357.988,21.146L358.711,21.116L359.434,21.116L360.156,21.108L360.879,21.108L361.602,21.076L362.324,21.074L363.047,21.044L363.77,21.057L364.492,21.022L365.215,21.004L365.938,20.996L366.66,21.004L367.383,20.961L368.105,20.963L368.828,20.953L369.551,20.938L370.273,20.948L370.996,20.935L371.719,20.913L372.441,20.904L373.164,20.912L373.887,20.907L374.609,20.878L375.332,20.892L376.055,20.855L376.777,20.86L377.5,20.839L378.223,20.847L378.945,20.845L379.668,20.819L380.391,20.811L381.113,20.793L381.836,20.81L382.559,20.788L383.281,20.782L384.004,20.8L384.727,20.755L385.449,20.77L386.172,20.745L386.895,20.758L387.617,20.73L388.34,20.729L389.063,20.729L389.785,20.712L390.508,20.701L391.23,20.691L391.953,20.681L392.676,20.69L393.398,20.655L394.121,20.673L394.844,20.656L395.566,20.657L396.289,20.627L397.012,20.625L397.734,20.613L398.457,20.616L399.18,20.59L399.902,20.597L400.625,20.578L401.348,20.559L402.07,20.573L402.793,20.561L403.516,20.544L404.238,20.532L404.961,20.536L405.684,20.524L406.406,20.516L407.129,20.5L407.852,20.49L408.574,20.482L409.297,20.464L410.02,20.469L410.742,20.478L411.465,20.442L412.188,20.429L412.91,20.431L413.633,20.411L414.355,20.425L415.078,20.394L415.801,20.387L416.523,20.391L417.246,20.38L417.969,20.367L418.691,20.371L419.414,20.346L420.137,20.333L420.859,20.33L421.582,20.319L422.305,20.319L423.027,20.301L423.75,20.285L424.473,20.298L425.195,20.273L425.918,20.28L426.641,20.261L427.363,20.254L428.086,20.256L428.809,20.252L429.531,20.244L430.254,20.229L430.977,20.216L431.699,20.218L432.422,20.201L433.145,20.199L433.867,20.195L434.59,20.177L435.313,20.171L436.035,20.177L436.758,20.167L437.48,20.165L438.203,20.157L438.926,20.156L439.648,20.148L440.371,20.137L441.094,20.141L441.816,20.137L442.539,20.124L443.262,20.12L443.984,20.117L444.707,20.113L445.43,20.119L446.152,20.102L446.875,20.091L447.598,20.099L448.32,20.098L449.043,20.088L449.766,20.081L450.488,20.084L451.211,20.076L451.934,20.078L452.656,20.069L453.379,20.077L454.102,20.068L454.824,20.06L455.547,20.067L456.27,20.054L456.992,20.052L457.715,20.053L458.438,20.05L459.16,20.051L459.883,20.04L460.605,20.041L461.328,20.04L462.051,20.04L462.773,20.039L463.496,20.033L464.219,20.032L464.941,20.033L465.664,20.025L466.387,20.025L467.109,20.028L467.832,20.02L468.555,20.021L469.277,20.02"/><g transform="translate(15,190) scale(1.7) rotate(-90)"><text>Drift</text></g><g transform="translate(315,395) scale(1.8)"><text></text></g><g transform="translate(0,350)" fill="none" font-size="10" font-family="sans-serif" text-anchor="middle"><path class="domain" stroke="currentColor" d="M100,6V0H470V6"/><g class="tick" opacity="1" transform="translate(136.96669666966696,0)"><line stroke="currentColor" y2="6"/><text fill="currentColor" y="9" dy="0.71em" font-size="20px"> </text></g><g class="tick" opacity="1" transform="translate(173.97039703970398,0)"><line stroke="currentColor" y2="6"/><text fill="currentColor" y="9" dy="0.71em" font-size="20px">20</text></g><g class="tick" opacity="1" transform="translate(210.97409740974098,0)"><line stroke="currentColor" y2="6"/><text fill="currentColor" y="9" dy="0.71em" font-size="20px"> </text></g><g class="tick" opacity="1" transform="translate(247.97779777977803,0)"><line stroke="currentColor" y2="6"/><text fill="currentColor" y="9" dy="0.71em" font-size="20px">40</text></g><g class="tick" opacity="1" transform="translate(284.981498149815,0)"><line stroke="currentColor" y2="6"/><text fill="currentColor" y="9" dy="0.71em" font-size="20px"> </text></g><g class="tick" opacity="1" transform="translate(321.985198519852,0)"><line stroke="currentColor" y2="6"/><text fill="currentColor" y="9" dy="0.71em" font-size="20px">60</text></g><g class="tick" opacity="1" transform="translate(358.988898889889,0)"><line stroke="currentColor" y2="6"/><text fill="currentColor" y="9" dy="0.71em" font-size="20px"> </text></g><g class="tick" opacity="1" transform="translate(395.992599259926,0)"><line stroke="currentColor" y2="6"/><text fill="currentColor" y="9" dy="0.71em" font-size="20px">80</text></g><g class="tick" opacity="1" transform="translate(432.996299629963,0)"><line stroke="currentColor" y2="6"/><text fill="currentColor" y="9" dy="0.71em" font-size="20px"> </text></g><g class="tick" opacity="1" transform="translate(470,0)"><line stroke="currentColor" y2="6"/><text fill="currentColor" y="9" dy="0.71em" font-size="20px">100</text></g></g><g transform="translate(100,0)" fill="none" font-size="10" font-family="sans-serif" text-anchor="end"><path class="domain" stroke="currentColor" d="M-6,350H0V20H-6"/><g class="tick" opacity="1" transform="translate(0,316.4664423441007)"><line stroke="currentColor" x2="-6"/><text fill="currentColor" x="-9" dy="0.32em" font-size="20px">0.7</text></g><g class="tick" opacity="1" transform="translate(0,273.079082294633)"><line stroke="currentColor" x2="-6"/><text fill="currentColor" x="-9" dy="0.32em" font-size="20px">0.6</text></g><g class="tick" opacity="1" transform="translate(0,229.6917222451653)"><line stroke="currentColor" x2="-6"/><text fill="currentColor" x="-9" dy="0.32em" font-size="20px">0.5</text></g><g class="tick" opacity="1" transform="translate(0,186.30436219569756)"><line stroke="currentColor" x2="-6"/><text fill="currentColor" x="-9" dy="0.32em" font-size="20px">0.4</text></g><g class="tick" opacity="1" transform="translate(0,142.91700214622986)"><line stroke="currentColor" x2="-6"/><text fill="currentColor" x="-9" dy="0.32em" font-size="20px">0.3</text></g><g class="tick" opacity="1" transform="translate(0,99.52964209676217)"><line stroke="currentColor" x2="-6"/><text fill="currentColor" x="-9" dy="0.32em" font-size="20px">0.2</text></g><g class="tick" opacity="1" transform="translate(0,56.14228204729446)"><line stroke="currentColor" x2="-6"/><text fill="currentColor" x="-9" dy="0.32em" font-size="20px">0.1</text></g></g><circle cx="355" cy="150" r="8" style="fill: rgb(35, 23, 27);"/><circle cx="355" cy="175" r="8" style="fill: rgb(69, 105, 238);"/><circle cx="355" cy="200" r="8" style="fill: rgb(38, 188, 225);"/><circle cx="355" cy="225" r="8" style="fill: rgb(63, 243, 147);"/><circle cx="355" cy="250" r="8" style="fill: rgb(149, 251, 81);"/><circle cx="355" cy="275" r="8" style="fill: rgb(236, 209, 46);"/><circle cx="355" cy="300" r="8" style="fill: rgb(255, 130, 29);"/><circle cx="355" cy="325" r="8" style="fill: rgb(203, 47, 13);"/><text x="370" y="150" text-anchor="left" font-size="22" alignment-baseline="middle" style="fill: rgb(35, 23, 27);"> = 0</text><text x="370" y="175" text-anchor="left" font-size="22" alignment-baseline="middle" style="fill: rgb(69, 105, 238);"> = 0.22</text><text x="370" y="200" text-anchor="left" font-size="22" alignment-baseline="middle" style="fill: rgb(38, 188, 225);"> = 0.45</text><text x="370" y="225" text-anchor="left" font-size="22" alignment-baseline="middle" style="fill: rgb(63, 243, 147);"> = 0.67</text><text x="370" y="250" text-anchor="left" font-size="22" alignment-baseline="middle" style="fill: rgb(149, 251, 81);"> = 0.9</text><text x="370" y="275" text-anchor="left" font-size="22" alignment-baseline="middle" style="fill: rgb(236, 209, 46);"> = 1.12</text><text x="370" y="300" text-anchor="left" font-size="22" alignment-baseline="middle" style="fill: rgb(255, 130, 29);"> = 1.35</text><text x="370" y="325" text-anchor="left" font-size="22" alignment-baseline="middle" style="fill: rgb(203, 47, 13);"> = 1.57</text></svg>