<svg xmlns="http://www.w3.org/2000/svg" class="bg-white" width="500" height="400" viewBox="-10 -1 500 400"><path fill="none" stroke="rgb(35, 23, 27)" stroke-width="1.5" d="M100,136.371L100.723,137.057L101.445,137.492L102.168,137.845L102.891,138.521L103.613,138.939L104.336,139.397L105.059,139.928L105.781,140.398L106.504,140.934L107.227,141.587L107.949,142.258L108.672,142.745L109.395,143.396L110.117,144.087L110.84,144.711L111.563,145.249L112.285,146.011L113.008,146.746L113.73,147.566L114.453,148.052L115.176,148.906L115.898,149.616L116.621,150.338L117.344,151.13L118.066,152.038L118.789,152.69L119.512,153.483L120.234,154.422L120.957,155.314L121.68,156.192L122.402,157.309L123.125,158.222L123.848,159.269L124.57,160.327L125.293,161.168L126.016,162.35L126.738,163.386L127.461,164.57L128.184,165.733L128.906,166.884L129.629,168.047L130.352,169.262L131.074,170.944L131.797,172.212L132.52,173.563L133.242,174.81L133.965,176.555L134.688,178.087L135.41,179.551L136.133,181.07L136.855,182.997L137.578,184.579L138.301,186.615L139.023,188.546L139.746,190.351L140.469,192.497L141.191,194.595L141.914,196.754L142.637,198.947L143.359,201.387L144.082,203.816L144.805,206.189L145.527,208.687L146.25,211.583L146.973,214.157L147.695,217.189L148.418,220.044L149.141,222.78L149.863,225.788L150.586,229.145L151.309,232.389L152.031,235.508L152.754,239.139L153.477,242.181L154.199,245.548L154.922,249.395L155.645,252.562L156.367,256.189L157.09,260.108L157.813,263.69L158.535,267.202L159.258,271.071L159.98,274.43L160.703,278.078L161.426,281.982L162.148,285.269L162.871,288.86L163.594,292.532L164.316,296.357L165.039,299.414L165.762,302.722L166.484,305.902L167.207,309.267L167.93,312.705L168.652,315.822L169.375,318.923L170.098,321.1L170.82,323.853L171.543,327.048L172.266,329.001L172.988,332.006L173.711,333.756L174.434,335.784L175.156,337.749L175.879,339.784L176.602,341.541L177.324,343.148L178.047,344.145L178.77,345.666L179.492,346.578L180.215,347.475L180.938,348.133L181.66,348.804L182.383,349.784L183.105,349.431L183.828,350L184.551,349.625L185.273,349.66L185.996,349.108L186.719,348.992L187.441,348.106L188.164,347.647L188.887,346.846L189.609,345.555L190.332,344.917L191.055,343.549L191.777,341.718L192.5,340.373L193.223,338.548L193.945,337.257L194.668,334.939L195.391,333.316L196.113,331.007L196.836,328.697L197.559,326.816L198.281,323.929L199.004,321.455L199.727,318.904L200.449,316.296L201.172,313.617L201.895,311.219L202.617,308.231L203.34,305.874L204.063,302.723L204.785,299.751L205.508,296.636L206.23,293.248L206.953,290.168L207.676,287.88L208.398,284.029L209.121,280.733L209.844,277.921L210.566,275.142L211.289,272.011L212.012,268.754L212.734,264.825L213.457,261.65L214.18,257.993L214.902,255.054L215.625,251.35L216.348,248.361L217.07,244.78L217.793,241.54L218.516,238.616L219.238,235.978L219.961,231.822L220.684,229.484L221.406,225.706L222.129,222.676L222.852,219.154L223.574,216.575L224.297,212.917L225.02,210.04L225.742,207.225L226.465,204.124L227.188,201.07L227.91,197.595L228.633,194.662L229.355,191.639L230.078,188.48L230.801,185.548L231.523,182.604L232.246,179.337L232.969,176.748L233.691,174.007L234.414,171.085L235.137,168.296L235.859,165.441L236.582,162.838L237.305,159.854L238.027,157.336L238.75,154.455L239.473,151.842L240.195,149.141L240.918,146.43L241.641,143.994L242.363,141.337L243.086,138.789L243.809,136.211L244.531,133.751L245.254,131.338L245.977,128.859L246.699,126.368L247.422,123.956L248.145,121.875L248.867,119.725L249.59,117.096L250.313,115.588L251.035,116.145L251.758,116.635L252.48,117.244L253.203,117.9L253.926,118.521L254.648,118.797L255.371,117.359L256.094,115.792L256.816,114.231L257.539,112.705L258.262,111.12L258.984,109.775L259.707,108.146L260.43,106.841L261.152,105.35L261.875,103.961L262.598,102.481L263.32,100.964L264.043,99.683L264.766,98.298L265.488,96.768L266.211,95.417L266.934,94.308L267.656,92.77L268.379,91.849L269.102,90.465L269.824,89.4L270.547,88.006L271.27,86.785L271.992,85.33L272.715,84.412L273.438,83.199L274.16,81.958L274.883,80.94L275.605,79.595L276.328,78.692L277.051,77.614L277.773,76.756L278.496,75.376L279.219,74.501L279.941,73.197L280.664,72.383L281.387,71.471L282.109,70.398L282.832,69.292L283.555,68.523L284.277,67.545L285,66.828L285.723,65.687L286.445,64.946L287.168,64.028L287.891,63.228L288.613,62.356L289.336,61.544L290.059,60.684L290.781,59.99L291.504,59.166L292.227,58.487L292.949,57.566L293.672,56.765L294.395,56.178L295.117,55.47L295.84,54.641L296.563,53.857L297.285,53.237L298.008,52.642L298.73,51.886L299.453,51.239L300.176,50.723L300.898,50.048L301.621,49.4L302.344,48.802L303.066,48.102L303.789,47.592L304.512,46.939L305.234,46.374L305.957,45.823L306.68,45.171L307.402,44.769L308.125,44.233L308.848,43.678L309.57,43.138L310.293,42.813L311.016,42.128L311.738,41.552L312.461,41.175L313.184,40.743L313.906,40.178L314.629,39.956L315.352,39.42L316.074,39.101L316.797,38.459L317.52,38.018L318.242,37.707L318.965,37.262L319.688,36.855L320.41,36.346L321.133,36.173L321.855,35.679L322.578,35.261L323.301,34.973L324.023,34.583L324.746,34.243L325.469,34.018L326.191,33.705L326.914,33.265L327.637,32.861L328.359,32.455L329.082,32.375L329.805,32.027L330.527,31.678L331.25,31.382L331.973,30.903L332.695,30.933L333.418,30.558L334.141,30.426L334.863,29.805L335.586,29.744L336.309,29.551L337.031,29.252L337.754,29.013L338.477,28.784L339.199,28.442L339.922,28.309L340.645,27.935L341.367,27.833L342.09,27.518L342.813,27.345L343.535,27.286L344.258,26.846L344.98,26.781L345.703,26.704L346.426,26.421L347.148,26.281L347.871,26.079L348.594,25.719L349.316,25.443L350.039,25.553L350.762,25.379L351.484,25.143L352.207,25.012L352.93,24.724L353.652,24.645L354.375,24.708L355.098,24.055L355.82,24.184L356.543,24.152L357.266,24.126L357.988,23.833L358.711,23.575L359.434,23.642L360.156,23.34L360.879,23.414L361.602,23.25L362.324,23.268L363.047,22.78L363.77,23.1L364.492,22.743L365.215,22.576L365.938,22.548L366.66,22.276L367.383,22.528L368.105,22.352L368.828,22.317L369.551,22.329L370.273,22.426L370.996,22.075L371.719,22.058L372.441,22.055L373.164,22.097L373.887,21.864L374.609,22.351L375.332,22.081L376.055,21.68L376.777,21.368L377.5,21.174L378.223,21.331L378.945,21.646L379.668,21.268L380.391,21.272L381.113,21.394L381.836,21.256L382.559,21.294L383.281,21.101L384.004,20.898L384.727,21.56L385.449,21.303L386.172,21.508L386.895,21.229L387.617,21.535L388.34,21.97L389.063,21.452L389.785,21.203L390.508,21.295L391.23,21.135L391.953,21.907L392.676,21.433L393.398,21.422L394.121,21.669L394.844,21.576L395.566,21.416L396.289,21.399L397.012,21.279L397.734,21.498L398.457,21.41L399.18,21.624L399.902,20.862L400.625,22.774L401.348,22.592L402.07,22.178L402.793,22.236L403.516,21.788L404.238,22.292L404.961,23.112L405.684,23.329L406.406,23.871L407.129,23.56L407.852,24.759L408.574,23.856L409.297,25.892L410.02,25.193L410.742,23.355L411.465,24.409L412.188,24.029L412.91,25.615L413.633,25.455L414.355,26.155L415.078,27.109L415.801,28.022L416.523,27.511L417.246,27.684L417.969,27.893L418.691,30.263L419.414,27.753L420.137,29.2L420.859,29.158L421.582,28.442L422.305,29.404L423.027,28.721L423.75,30.07L424.473,30.091L425.195,29.157L425.918,28.728L426.641,29.188L427.363,29.847L428.086,29.218L428.809,28.547L429.531,27.608L430.254,27.805L430.977,27.268L431.699,27.494L432.422,27.568L433.145,26.393L433.867,26.012L434.59,26.683L435.313,25.531L436.035,25.609L436.758,25.238L437.48,25.157L438.203,25.543L438.926,24.557L439.648,24.055L440.371,24.757L441.094,23.26L441.816,24.052L442.539,23.771L443.262,23.563L443.984,23.684L444.707,23.066L445.43,23.216L446.152,22.932L446.875,22.583L447.598,22.424L448.32,22.341L449.043,22.395L449.766,22.065L450.488,22.052L451.211,21.661L451.934,21.254L452.656,21.826L453.379,21.115L454.102,21.331L454.824,21.372L455.547,21.405L456.27,21.357L456.992,21.115L457.715,21.064L458.438,20.825L459.16,21.012L459.883,20.893L460.605,20.735L461.328,20.634L462.051,20.84L462.773,20.795L463.496,20.609L464.219,20.682L464.941,20.662L465.664,20.637L466.387,20.414L467.109,20.46L467.832,20.546L468.555,20.301L469.277,20.335"/><path fill="none" stroke="rgb(69, 105, 238)" stroke-width="1.5" d="M100,135.943L100.723,136.294L101.445,136.797L102.168,137.388L102.891,137.871L103.613,138.436L104.336,138.794L105.059,139.358L105.781,139.932L106.504,140.463L107.227,140.884L107.949,141.466L108.672,142.1L109.395,142.758L110.117,143.305L110.84,144.033L111.563,144.626L112.285,145.198L113.008,145.852L113.73,146.51L114.453,147.582L115.176,147.98L115.898,148.64L116.621,149.404L117.344,150.152L118.066,151.245L118.789,151.784L119.512,152.574L120.234,153.665L120.957,154.12L121.68,155.074L122.402,155.961L123.125,156.881L123.848,157.832L124.57,158.736L125.293,159.808L126.016,160.799L126.738,161.912L127.461,162.907L128.184,163.999L128.906,165.078L129.629,166.163L130.352,167.326L131.074,168.559L131.797,169.928L132.52,171.06L133.242,172.464L133.965,173.723L134.688,175.146L135.41,176.654L136.133,177.972L136.855,179.306L137.578,181.256L138.301,182.364L139.023,184.078L139.746,185.739L140.469,187.391L141.191,189.2L141.914,190.737L142.637,192.613L143.359,194.494L144.082,196.61L144.805,198.077L145.527,200.121L146.25,202.161L146.973,204.667L147.695,206.18L148.418,208.418L149.141,210.548L149.863,213.144L150.586,214.969L151.309,217.24L152.031,219.402L152.754,221.819L153.477,224.154L154.199,226.467L154.922,228.678L155.645,230.984L156.367,233.354L157.09,235.64L157.813,237.934L158.535,240.244L159.258,242.724L159.98,244.853L160.703,247.168L161.426,249.55L162.148,251.746L162.871,253.761L163.594,256.021L164.316,257.915L165.039,260.214L165.762,262.238L166.484,263.97L167.207,265.778L167.93,267.938L168.652,269.673L169.375,271.138L170.098,273.501L170.82,274.629L171.543,276.079L172.266,277.343L172.988,278.629L173.711,279.913L174.434,281.129L175.156,281.755L175.879,282.621L176.602,283.739L177.324,284.453L178.047,284.849L178.77,285.521L179.492,285.591L180.215,286.036L180.938,286.064L181.66,286.417L182.383,286.215L183.105,286.095L183.828,285.894L184.551,285.177L185.273,284.71L185.996,284.689L186.719,283.713L187.441,282.747L188.164,281.957L188.887,280.441L189.609,279.593L190.332,278.537L191.055,276.895L191.777,275.743L192.5,274.476L193.223,272.578L193.945,271.185L194.668,269.53L195.391,267.803L196.113,265.907L196.836,263.829L197.559,261.742L198.281,259.539L199.004,257.806L199.727,255.564L200.449,253.31L201.172,250.719L201.895,248.619L202.617,246.161L203.34,243.904L204.063,241.138L204.785,238.908L205.508,236.393L206.23,233.62L206.953,231.263L207.676,228.821L208.398,226.127L209.121,223.407L209.844,220.518L210.566,217.917L211.289,215.549L212.012,212.875L212.734,210.463L213.457,207.224L214.18,204.332L214.902,202.385L215.625,199.082L216.348,196.265L217.07,193.712L217.793,191.204L218.516,188.362L219.238,185.695L219.961,183.309L220.684,180.409L221.406,177.903L222.129,175.081L222.852,172.486L223.574,170.128L224.297,167.142L225.02,164.663L225.742,162.02L226.465,159.591L227.188,157.195L227.91,154.514L228.633,152.107L229.355,149.985L230.078,147.071L230.801,144.625L231.523,142.23L232.246,139.945L232.969,137.618L233.691,135.382L234.414,132.709L235.137,130.681L235.859,128.249L236.582,125.996L237.305,123.702L238.027,121.379L238.75,119.513L239.473,117.098L240.195,114.938L240.918,112.7L241.641,110.654L242.363,108.605L243.086,106.476L243.809,104.521L244.531,102.64L245.254,100.504L245.977,98.461L246.699,96.548L247.422,94.659L248.145,92.579L248.867,90.955L249.59,90.822L250.313,91.577L251.035,92.728L251.758,93.617L252.48,94.734L253.203,95.925L253.926,95.817L254.648,94.835L255.371,93.459L256.094,92.231L256.816,91.076L257.539,89.939L258.262,88.765L258.984,87.698L259.707,86.471L260.43,85.523L261.152,84.403L261.875,83.443L262.598,82.329L263.32,81.321L264.043,80.497L264.766,79.493L265.488,78.454L266.211,77.594L266.934,76.711L267.656,75.769L268.379,74.842L269.102,73.856L269.824,73.173L270.547,72.364L271.27,71.47L271.992,70.613L272.715,69.844L273.438,69.012L274.16,68.238L274.883,67.582L275.605,66.685L276.328,65.861L277.051,65.214L277.773,64.545L278.496,63.72L279.219,63.078L279.941,62.314L280.664,61.792L281.387,61.02L282.109,60.186L282.832,59.514L283.555,58.935L284.277,58.256L285,57.589L285.723,57.085L286.445,56.373L287.168,55.909L287.891,55.172L288.613,54.605L289.336,53.922L290.059,53.309L290.781,52.872L291.504,52.34L292.227,51.725L292.949,51.33L293.672,50.508L294.395,50.145L295.117,49.425L295.84,48.981L296.563,48.601L297.285,47.926L298.008,47.398L298.73,46.891L299.453,46.554L300.176,46.037L300.898,45.561L301.621,45.128L302.344,44.611L303.066,44.177L303.789,43.69L304.512,42.917L305.234,42.727L305.957,42.418L306.68,41.95L307.402,41.407L308.125,40.942L308.848,40.641L309.57,40.224L310.293,39.886L311.016,39.6L311.738,39.214L312.461,38.734L313.184,38.303L313.906,37.845L314.629,37.422L315.352,37.137L316.074,36.893L316.797,36.548L317.52,36.151L318.242,35.944L318.965,35.553L319.688,35.252L320.41,34.687L321.133,34.573L321.855,34.224L322.578,33.794L323.301,33.749L324.023,33.333L324.746,33.251L325.469,32.715L326.191,32.575L326.914,32.342L327.637,31.962L328.359,31.593L329.082,31.556L329.805,31.029L330.527,30.832L331.25,30.654L331.973,30.072L332.695,30.088L333.418,29.856L334.141,29.774L334.863,29.538L335.586,29.19L336.309,28.898L337.031,28.688L337.754,28.52L338.477,28.016L339.199,28.056L339.922,28.023L340.645,27.652L341.367,27.619L342.09,26.987L342.813,27.052L343.535,26.684L344.258,26.348L344.98,26.467L345.703,26.342L346.426,26.445L347.148,26.121L347.871,25.682L348.594,25.436L349.316,25.631L350.039,25.292L350.762,25.166L351.484,24.749L352.207,24.847L352.93,24.662L353.652,24.28L354.375,24.081L355.098,23.895L355.82,24.082L356.543,24.46L357.266,23.628L357.988,24.111L358.711,24.191L359.434,23.307L360.156,23.319L360.879,23.168L361.602,23.639L362.324,22.988L363.047,22.801L363.77,23.035L364.492,22.531L365.215,23.392L365.938,22.845L366.66,22.884L367.383,22.454L368.105,22.377L368.828,22.306L369.551,22.612L370.273,21.898L370.996,21.638L371.719,22.297L372.441,21.524L373.164,21.998L373.887,21.913L374.609,21.294L375.332,21.394L376.055,21.232L376.777,22.282L377.5,21.981L378.223,22.033L378.945,21.484L379.668,21.66L380.391,21.43L381.113,21.261L381.836,21.06L382.559,21.547L383.281,20.971L384.004,21.317L384.727,21.996L385.449,20.974L386.172,22.465L386.895,21.084L387.617,21.415L388.34,21.087L389.063,20.956L389.785,22.114L390.508,20.422L391.23,21.72L391.953,21.151L392.676,21.307L393.398,20.94L394.121,20.993L394.844,20.858L395.566,21.363L396.289,21.75L397.012,21.289L397.734,21.625L398.457,21.289L399.18,21.949L399.902,20.751L400.625,21.868L401.348,21.691L402.07,21.406L402.793,22.862L403.516,23.481L404.238,23.313L404.961,21.972L405.684,23.175L406.406,22.87L407.129,22.439L407.852,23.299L408.574,24.081L409.297,23.798L410.02,24.887L410.742,24.519L411.465,24.725L412.188,24.897L412.91,24.862L413.633,26.406L414.355,24.783L415.078,24.82L415.801,26.14L416.523,25.737L417.246,27.019L417.969,28.191L418.691,26.883L419.414,28.417L420.137,27.479L420.859,27.831L421.582,26.877L422.305,27.237L423.027,28.506L423.75,27.432L424.473,28.355L425.195,28.643L425.918,27.408L426.641,28.316L427.363,27.234L428.086,28.701L428.809,28.215L429.531,26.688L430.254,26.96L430.977,26.827L431.699,26.291L432.422,26.011L433.145,26.152L433.867,26.001L434.59,26.514L435.313,25.822L436.035,25.378L436.758,25.318L437.48,24.514L438.203,23.812L438.926,24.178L439.648,24.787L440.371,23.67L441.094,23.628L441.816,23.497L442.539,23.491L443.262,23.292L443.984,23.293L444.707,23.14L445.43,22.975L446.152,22.125L446.875,22.387L447.598,22.087L448.32,22.205L449.043,21.965L449.766,21.775L450.488,21.28L451.211,21.468L451.934,21.561L452.656,21.358L453.379,21.244L454.102,21.185L454.824,21.368L455.547,21.216L456.27,21.023L456.992,20.886L457.715,20.908L458.438,20.678L459.16,20.642L459.883,20.757L460.605,20.825L461.328,20.504L462.051,20.694L462.773,20.553L463.496,20.625L464.219,20.527L464.941,20.672L465.664,20.541L466.387,20.494L467.109,20.527L467.832,20.373L468.555,20.424L469.277,20.414"/><path fill="none" stroke="rgb(38, 188, 225)" stroke-width="1.5" d="M100,134.475L100.723,134.985L101.445,135.311L102.168,135.714L102.891,136.381L103.613,136.608L104.336,137.194L105.059,137.752L105.781,138.192L106.504,138.729L107.227,139.082L107.949,139.802L108.672,140.274L109.395,140.773L110.117,141.241L110.84,141.731L111.563,142.418L112.285,143.001L113.008,143.532L113.73,144.405L114.453,144.95L115.176,145.554L115.898,146.126L116.621,146.709L117.344,147.273L118.066,147.937L118.789,148.763L119.512,149.514L120.234,150.319L120.957,151.053L121.68,151.721L122.402,152.46L123.125,153.376L123.848,154.099L124.57,155.043L125.293,155.783L126.016,156.738L126.738,157.638L127.461,158.498L128.184,159.238L128.906,160.368L129.629,161.343L130.352,162.282L131.074,163.351L131.797,164.194L132.52,165.504L133.242,166.415L133.965,167.586L134.688,168.825L135.41,169.899L136.133,171.179L136.855,172.27L137.578,173.232L138.301,174.614L139.023,175.914L139.746,177.136L140.469,178.596L141.191,179.789L141.914,181.279L142.637,182.699L143.359,184.131L144.082,185.492L144.805,186.897L145.527,188.161L146.25,189.644L146.973,191.292L147.695,192.67L148.418,194.003L149.141,195.863L149.863,197.374L150.586,198.774L151.309,200.136L152.031,202.035L152.754,203.176L153.477,204.929L154.199,206.431L154.922,208.174L155.645,209.185L156.367,210.775L157.09,212.292L157.813,213.748L158.535,215.301L159.258,216.807L159.98,218.145L160.703,219.594L161.426,220.623L162.148,222.068L162.871,223.366L163.594,224.462L164.316,225.87L165.039,227.025L165.762,227.887L166.484,228.853L167.207,229.833L167.93,230.918L168.652,231.446L169.375,232.375L170.098,233.129L170.82,233.559L171.543,234.14L172.266,234.86L172.988,235.127L173.711,235.607L174.434,235.96L175.156,236.2L175.879,236.21L176.602,236.014L177.324,236.152L178.047,236.049L178.77,236.109L179.492,235.476L180.215,235.049L180.938,234.646L181.66,234.25L182.383,233.545L183.105,232.938L183.828,232.298L184.551,231.36L185.273,230.496L185.996,229.313L186.719,228.249L187.441,227.412L188.164,225.989L188.887,224.842L189.609,223.415L190.332,221.981L191.055,220.387L191.777,219.221L192.5,217.449L193.223,215.682L193.945,213.848L194.668,212.277L195.391,210.736L196.113,208.564L196.836,206.804L197.559,204.647L198.281,202.71L199.004,200.765L199.727,198.788L200.449,196.671L201.172,194.482L201.895,192.411L202.617,190.353L203.34,187.973L204.063,185.982L204.785,183.943L205.508,181.585L206.23,179.381L206.953,177.171L207.676,174.592L208.398,172.551L209.121,170.188L209.844,167.861L210.566,165.681L211.289,163.483L212.012,161.134L212.734,158.83L213.457,156.595L214.18,154.259L214.902,152.077L215.625,149.49L216.348,147.524L217.07,145.26L217.793,143.06L218.516,140.726L219.238,138.715L219.961,136.297L220.684,133.938L221.406,132.098L222.129,129.89L222.852,127.483L223.574,125.441L224.297,123.381L225.02,121.207L225.742,119.228L226.465,116.98L227.188,115.174L227.91,112.907L228.633,110.849L229.355,108.879L230.078,106.692L230.801,104.909L231.523,102.93L232.246,100.914L232.969,98.858L233.691,97.132L234.414,95.162L235.137,93.47L235.859,91.649L236.582,89.854L237.305,87.945L238.027,86.343L238.75,84.398L239.473,82.532L240.195,81.184L240.918,79.318L241.641,77.79L242.363,76.182L243.086,74.507L243.809,72.894L244.531,71.228L245.254,69.869L245.977,68.378L246.699,69.589L247.422,70.943L248.145,72.226L248.867,73.525L249.59,74.591L250.313,76.101L251.035,75.577L251.758,74.626L252.48,73.6L253.203,72.87L253.926,71.994L254.648,71.332L255.371,70.32L256.094,69.479L256.816,68.672L257.539,67.952L258.262,67.177L258.984,66.451L259.707,65.654L260.43,64.912L261.152,64.331L261.875,63.749L262.598,63.093L263.32,62.451L264.043,61.784L264.766,61.052L265.488,60.539L266.211,59.941L266.934,59.484L267.656,58.931L268.379,58.384L269.102,57.874L269.824,57.336L270.547,56.749L271.27,56.225L271.992,55.803L272.715,55.36L273.438,54.809L274.16,54.236L274.883,53.917L275.605,53.414L276.328,52.901L277.051,52.423L277.773,52.019L278.496,51.435L279.219,51.09L279.941,50.684L280.664,50.248L281.387,49.756L282.109,49.269L282.832,48.774L283.555,48.376L284.277,47.948L285,47.531L285.723,47.046L286.445,46.627L287.168,46.268L287.891,45.801L288.613,45.414L289.336,45.009L290.059,44.526L290.781,44.195L291.504,43.797L292.227,43.339L292.949,42.968L293.672,42.615L294.395,42.189L295.117,41.839L295.84,41.452L296.563,41.09L297.285,40.79L298.008,40.339L298.73,39.995L299.453,39.557L300.176,39.265L300.898,39.065L301.621,38.661L302.344,38.295L303.066,37.998L303.789,37.9L304.512,37.319L305.234,37.057L305.957,36.651L306.68,36.622L307.402,36.201L308.125,35.847L308.848,35.645L309.57,35.447L310.293,35.126L311.016,34.797L311.738,34.629L312.461,34.325L313.184,34.134L313.906,33.83L314.629,33.603L315.352,33.307L316.074,33.1L316.797,32.825L317.52,32.522L318.242,32.274L318.965,32.126L319.688,31.723L320.41,31.543L321.133,31.261L321.855,31.084L322.578,31.069L323.301,30.836L324.023,30.692L324.746,30.204L325.469,30.083L326.191,29.965L326.914,29.602L327.637,29.404L328.359,29.339L329.082,29.304L329.805,28.899L330.527,28.769L331.25,28.698L331.973,28.504L332.695,28.173L333.418,28.083L334.141,27.845L334.863,27.837L335.586,27.622L336.309,27.331L337.031,27.275L337.754,27.059L338.477,26.942L339.199,26.762L339.922,26.704L340.645,26.594L341.367,26.341L342.09,26.328L342.813,26.077L343.535,25.847L344.258,25.449L344.98,25.61L345.703,25.84L346.426,25.442L347.148,25.328L347.871,25.152L348.594,24.965L349.316,25.412L350.039,24.759L350.762,24.985L351.484,24.643L352.207,24.044L352.93,24.696L353.652,23.884L354.375,24.547L355.098,23.837L355.82,23.667L356.543,24.089L357.266,23.704L357.988,23.711L358.711,23.293L359.434,23.372L360.156,23.543L360.879,23.25L361.602,23.215L362.324,23.301L363.047,23.036L363.77,22.659L364.492,22.774L365.215,22.681L365.938,22.359L366.66,22.536L367.383,22.618L368.105,22.187L368.828,22.514L369.551,21.997L370.273,22.575L370.996,21.82L371.719,22.034L372.441,22.282L373.164,21.828L373.887,22.008L374.609,21.046L375.332,21.798L376.055,21.461L376.777,22.089L377.5,21.334L378.223,21.725L378.945,21.75L379.668,22.632L380.391,21.588L381.113,21.625L381.836,21.524L382.559,21.566L383.281,21.273L384.004,21.388L384.727,21.796L385.449,20.797L386.172,21.54L386.895,21.218L387.617,20.647L388.34,21.323L389.063,21.57L389.785,21.467L390.508,20L391.23,21.527L391.953,21.798L392.676,21.08L393.398,21.025L394.121,21.233L394.844,21.569L395.566,21.58L396.289,20.664L397.012,21.335L397.734,21.512L398.457,21.105L399.18,20.462L399.902,21.047L400.625,21.13L401.348,20.855L402.07,22.093L402.793,21.424L403.516,22.578L404.238,22.633L404.961,23.511L405.684,22.254L406.406,21.331L407.129,21.337L407.852,23.07L408.574,22.475L409.297,21.174L410.02,22.879L410.742,21.373L411.465,23.136L412.188,22.715L412.91,22.125L413.633,22.635L414.355,22.974L415.078,24.901L415.801,23.847L416.523,23.863L417.246,24.3L417.969,23.339L418.691,25.184L419.414,24.472L420.137,23.415L420.859,25.428L421.582,24.099L422.305,24.474L423.027,25.806L423.75,24.531L424.473,24.931L425.195,24.749L425.918,25.38L426.641,25.379L427.363,24.721L428.086,25.092L428.809,24.246L429.531,25.739L430.254,24.664L430.977,24.612L431.699,24.279L432.422,24.163L433.145,23.904L433.867,23.172L434.59,23.659L435.313,23.881L436.035,24.604L436.758,23.461L437.48,23.404L438.203,23.518L438.926,23.33L439.648,23.133L440.371,23.132L441.094,22.906L441.816,22.525L442.539,22.355L443.262,22.027L443.984,22.14L444.707,22.567L445.43,21.422L446.152,21.58L446.875,21.984L447.598,21.741L448.32,21.386L449.043,21.796L449.766,21.333L450.488,21.333L451.211,21.196L451.934,21.056L452.656,20.764L453.379,21.186L454.102,20.956L454.824,20.768L455.547,20.693L456.27,20.779L456.992,20.836L457.715,20.602L458.438,20.775L459.16,20.625L459.883,20.686L460.605,20.575L461.328,20.454L462.051,20.561L462.773,20.381L463.496,20.549L464.219,20.558L464.941,20.583L465.664,20.366L466.387,20.334L467.109,20.333L467.832,20.294L468.555,20.297L469.277,20.272"/><path fill="none" stroke="rgb(63, 243, 147)" stroke-width="1.5" d="M100,132.61L100.723,133.075L101.445,133.623L102.168,133.847L102.891,134.362L103.613,134.564L104.336,135.009L105.059,135.509L105.781,135.757L106.504,136.279L107.227,136.777L107.949,137.181L108.672,137.648L109.395,138.109L110.117,138.773L110.84,139.078L111.563,139.591L112.285,140.05L113.008,140.422L113.73,141.1L114.453,141.532L115.176,142.325L115.898,142.754L116.621,143.142L117.344,143.898L118.066,144.45L118.789,145.032L119.512,145.704L120.234,146.244L120.957,146.848L121.68,147.531L122.402,148.143L123.125,148.787L123.848,149.535L124.57,150.361L125.293,150.992L126.016,151.786L126.738,152.371L127.461,153.164L128.184,153.986L128.906,154.727L129.629,155.437L130.352,156.488L131.074,157.273L131.797,157.986L132.52,158.813L133.242,159.752L133.965,160.605L134.688,161.509L135.41,162.589L136.133,163.308L136.855,164.274L137.578,165.311L138.301,166.225L139.023,167.215L139.746,168.309L140.469,169.141L141.191,170.063L141.914,171.379L142.637,172.257L143.359,173.429L144.082,174.24L144.805,175.21L145.527,176.268L146.25,177.403L146.973,178.252L147.695,179.336L148.418,180.631L149.141,181.381L149.863,182.44L150.586,183.457L151.309,184.247L152.031,185.384L152.754,186.18L153.477,187.26L154.199,188.211L154.922,188.875L155.645,189.579L156.367,190.616L157.09,191.428L157.813,192.1L158.535,193.001L159.258,193.785L159.98,194.221L160.703,194.952L161.426,195.667L162.148,196.125L162.871,196.791L163.594,197.033L164.316,197.389L165.039,197.779L165.762,198.196L166.484,198.217L167.207,198.545L167.93,198.396L168.652,198.519L169.375,198.425L170.098,198.398L170.82,198.457L171.543,197.986L172.266,198.067L172.988,197.566L173.711,197.183L174.434,197.035L175.156,196.383L175.879,195.56L176.602,195.065L177.324,194.445L178.047,193.741L178.77,192.894L179.492,191.952L180.215,191.092L180.938,189.957L181.66,189.055L182.383,187.822L183.105,186.899L183.828,185.624L184.551,184.162L185.273,183.129L185.996,181.481L186.719,180.162L187.441,178.698L188.164,177.341L188.887,175.567L189.609,174.254L190.332,172.602L191.055,170.757L191.777,169.204L192.5,167.46L193.223,165.827L193.945,163.895L194.668,162.027L195.391,160.159L196.113,158.511L196.836,156.521L197.559,154.735L198.281,152.743L199.004,151.018L199.727,149.094L200.449,146.867L201.172,145.062L201.895,143.119L202.617,141.185L203.34,138.935L204.063,137.058L204.785,135.351L205.508,133.273L206.23,131.307L206.953,129.476L207.676,127.194L208.398,125.344L209.121,123.515L209.844,121.501L210.566,119.595L211.289,117.535L212.012,115.852L212.734,113.733L213.457,111.867L214.18,109.994L214.902,108.095L215.625,106.207L216.348,104.225L217.07,102.386L217.793,100.646L218.516,98.839L219.238,96.871L219.961,95.123L220.684,93.546L221.406,91.692L222.129,89.767L222.852,88.105L223.574,86.49L224.297,84.669L225.02,83.044L225.742,81.517L226.465,79.759L227.188,78.223L227.91,76.575L228.633,75.031L229.355,73.358L230.078,71.915L230.801,70.223L231.523,68.903L232.246,67.25L232.969,65.966L233.691,64.472L234.414,62.842L235.137,61.674L235.859,60.161L236.582,58.991L237.305,57.559L238.027,56.316L238.75,55.093L239.473,53.703L240.195,52.476L240.918,53.69L241.641,55.359L242.363,56.706L243.086,58.317L243.809,59.792L244.531,61.471L245.254,61.518L245.977,60.791L246.699,60.345L247.422,59.629L248.145,59.084L248.867,58.448L249.59,57.847L250.313,57.332L251.035,56.504L251.758,56.111L252.48,55.568L253.203,55.026L253.926,54.468L254.648,54.036L255.371,53.631L256.094,53.182L256.816,52.591L257.539,52.122L258.262,51.741L258.984,51.319L259.707,50.802L260.43,50.533L261.152,50.132L261.875,49.763L262.598,49.239L263.32,48.965L264.043,48.57L264.766,48.137L265.488,47.818L266.211,47.613L266.934,47.15L267.656,46.969L268.379,46.626L269.102,46.239L269.824,45.978L270.547,45.772L271.27,45.391L271.992,45.103L272.715,44.837L273.438,44.513L274.16,44.215L274.883,43.943L275.605,43.704L276.328,43.397L277.051,43L277.773,42.716L278.496,42.566L279.219,42.086L279.941,41.871L280.664,41.66L281.387,41.293L282.109,41.047L282.832,40.734L283.555,40.352L284.277,40.114L285,39.876L285.723,39.549L286.445,39.311L287.168,38.901L287.891,38.622L288.613,38.416L289.336,38.1L290.059,37.905L290.781,37.592L291.504,37.286L292.227,37.041L292.949,36.715L293.672,36.31L294.395,36.154L295.117,36.005L295.84,35.653L296.563,35.337L297.285,35.074L298.008,34.92L298.73,34.712L299.453,34.359L300.176,34.185L300.898,33.95L301.621,33.721L302.344,33.48L303.066,33.192L303.789,32.951L304.512,32.743L305.234,32.506L305.957,32.365L306.68,32.138L307.402,31.935L308.125,31.723L308.848,31.512L309.57,31.464L310.293,31.194L311.016,30.957L311.738,30.803L312.461,30.571L313.184,30.408L313.906,30.222L314.629,30.178L315.352,29.953L316.074,29.804L316.797,29.567L317.52,29.424L318.242,29.226L318.965,29.1L319.688,29.196L320.41,28.796L321.133,28.637L321.855,28.552L322.578,28.382L323.301,28.167L324.023,28.053L324.746,27.961L325.469,27.819L326.191,27.658L326.914,27.411L327.637,27.583L328.359,27.311L329.082,27.26L329.805,27.046L330.527,26.949L331.25,27.056L331.973,26.76L332.695,26.738L333.418,26.273L334.141,26.403L334.863,26.355L335.586,26.19L336.309,26.247L337.031,25.933L337.754,25.969L338.477,25.914L339.199,25.82L339.922,25.674L340.645,25.533L341.367,25.434L342.09,25.436L342.813,25.141L343.535,25.379L344.258,25.141L344.98,24.959L345.703,24.975L346.426,24.819L347.148,24.804L347.871,24.719L348.594,24.41L349.316,24.531L350.039,24.304L350.762,24.236L351.484,24.194L352.207,24.058L352.93,24.006L353.652,24.106L354.375,23.709L355.098,23.937L355.82,23.99L356.543,24.177L357.266,23.824L357.988,23.206L358.711,23.407L359.434,23.331L360.156,23.312L360.879,22.736L361.602,23.54L362.324,23.039L363.047,23.14L363.77,22.958L364.492,23.109L365.215,23.189L365.938,22.458L366.66,22.736L367.383,22.917L368.105,22.683L368.828,22.618L369.551,22.573L370.273,21.765L370.996,22.648L371.719,22.064L372.441,22.33L373.164,21.618L373.887,22.02L374.609,22.722L375.332,21.775L376.055,21.725L376.777,21.759L377.5,22.119L378.223,22.087L378.945,21.52L379.668,20.73L380.391,21.676L381.113,21.669L381.836,21.41L382.559,21.841L383.281,21.7L384.004,21.427L384.727,20.66L385.449,21.83L386.172,20.495L386.895,21.155L387.617,21.322L388.34,20.533L389.063,21.333L389.785,21.398L390.508,20.953L391.23,21.104L391.953,21.334L392.676,20.856L393.398,20.525L394.121,21.194L394.844,20.427L395.566,20.563L396.289,20.671L397.012,21.711L397.734,21.58L398.457,21.291L399.18,20.135L399.902,20.84L400.625,20.962L401.348,20.094L402.07,20.319L402.793,21.052L403.516,21.961L404.238,21.256L404.961,21.376L405.684,20.845L406.406,21.532L407.129,20.813L407.852,20.58L408.574,21.024L409.297,20.372L410.02,22.002L410.742,20.17L411.465,21.761L412.188,21.93L412.91,21.579L413.633,21.73L414.355,21.746L415.078,22.335L415.801,20.247L416.523,21.894L417.246,22.617L417.969,20.696L418.691,20.888L419.414,21.488L420.137,21.759L420.859,21.619L421.582,20.499L422.305,23.821L423.027,22.684L423.75,22.924L424.473,21.06L425.195,21.628L425.918,21.525L426.641,21.076L427.363,21.39L428.086,21.084L428.809,21.738L429.531,22.544L430.254,21.736L430.977,21.758L431.699,21.379L432.422,21.415L433.145,20.572L433.867,22.075L434.59,21.36L435.313,21.042L436.035,21.525L436.758,21.251L437.48,21.885L438.203,21.065L438.926,20.839L439.648,21.311L440.371,21.359L441.094,20.885L441.816,20.34L442.539,20.831L443.262,20.924L443.984,21.148L444.707,20.876L445.43,20.856L446.152,21.218L446.875,20.732L447.598,20.407L448.32,20.431L449.043,21.038L449.766,20.67L450.488,20.524L451.211,20.612L451.934,20.493L452.656,20.431L453.379,20.479L454.102,20.308L454.824,20.343L455.547,20.361L456.27,20.496L456.992,20.477L457.715,20.236L458.438,20.18L459.16,20.125L459.883,20.406L460.605,20.269L461.328,20.214L462.051,20.295L462.773,20.322L463.496,20.298L464.219,20.268L464.941,20.257L465.664,20.258L466.387,20.259L467.109,20.192L467.832,20.274L468.555,20.161L469.277,20.141"/><path fill="none" stroke="rgb(149, 251, 81)" stroke-width="1.5" d="M100,130.74L100.723,131.152L101.445,131.456L102.168,131.833L102.891,131.958L103.613,132.491L104.336,132.723L105.059,133.023L105.781,133.471L106.504,133.833L107.227,134.418L107.949,134.626L108.672,135.255L109.395,135.523L110.117,136.16L110.84,136.311L111.563,136.734L112.285,137.164L113.008,137.612L113.73,138.25L114.453,138.637L115.176,138.982L115.898,139.411L116.621,140.074L117.344,140.476L118.066,140.989L118.789,141.61L119.512,142.12L120.234,142.797L120.957,143.202L121.68,143.733L122.402,144.236L123.125,144.984L123.848,145.612L124.57,146.168L125.293,146.712L126.016,147.308L126.738,147.99L127.461,148.532L128.184,149.338L128.906,150.011L129.629,150.546L130.352,151.326L131.074,152.032L131.797,152.79L132.52,153.441L133.242,154.073L133.965,154.623L134.688,155.362L135.41,156.265L136.133,156.865L136.855,157.65L137.578,158.358L138.301,159.059L139.023,159.649L139.746,160.427L140.469,161.118L141.191,161.577L141.914,162.329L142.637,163.097L143.359,163.573L144.082,164.301L144.805,164.813L145.527,165.325L146.25,165.92L146.973,166.602L147.695,167.165L148.418,167.576L149.141,168.158L149.863,168.438L150.586,168.844L151.309,169.244L152.031,169.614L152.754,170.142L153.477,170.226L154.199,170.458L154.922,170.648L155.645,170.715L156.367,170.967L157.09,171.066L157.813,171.029L158.535,170.921L159.258,171.029L159.98,170.679L160.703,170.839L161.426,170.489L162.148,170.137L162.871,169.83L163.594,169.581L164.316,169.201L165.039,168.587L165.762,168.264L166.484,167.725L167.207,167.05L167.93,166.569L168.652,165.933L169.375,164.885L170.098,164.01L170.82,163.368L171.543,162.348L172.266,161.425L172.988,160.344L173.711,159.321L174.434,158.199L175.156,157.025L175.879,155.941L176.602,154.751L177.324,153.626L178.047,152.149L178.77,150.99L179.492,149.563L180.215,148.036L180.938,146.765L181.66,145.299L182.383,143.807L183.105,142.117L183.828,140.642L184.551,139.24L185.273,137.527L185.996,136.006L186.719,134.177L187.441,132.678L188.164,130.919L188.887,129.455L189.609,127.584L190.332,125.772L191.055,124.355L191.777,122.495L192.5,120.831L193.223,119.183L193.945,117.366L194.668,115.559L195.391,113.893L196.113,112.032L196.836,110.311L197.559,108.751L198.281,106.977L199.004,105.183L199.727,103.459L200.449,101.836L201.172,100.035L201.895,98.402L202.617,96.63L203.34,95.027L204.063,93.442L204.785,91.609L205.508,89.895L206.23,88.447L206.953,86.719L207.676,85.111L208.398,83.531L209.121,81.938L209.844,80.219L210.566,78.829L211.289,77.366L212.012,75.612L212.734,74.112L213.457,72.565L214.18,71.25L214.902,69.717L215.625,68.156L216.348,66.787L217.07,65.318L217.793,63.979L218.516,62.562L219.238,61.219L219.961,59.812L220.684,58.564L221.406,57.252L222.129,55.936L222.852,54.827L223.574,53.418L224.297,52.351L225.02,51.05L225.742,49.805L226.465,48.614L227.188,47.577L227.91,46.323L228.633,45.213L229.355,44.194L230.078,43.232L230.801,42.163L231.523,42.638L232.246,44.369L232.969,46.079L233.691,47.892L234.414,49.587L235.137,51.635L235.859,52.346L236.582,51.798L237.305,51.327L238.027,50.77L238.75,50.385L239.473,49.995L240.195,49.498L240.918,49.184L241.641,48.746L242.363,48.306L243.086,47.922L243.809,47.455L244.531,47.094L245.254,46.747L245.977,46.435L246.699,45.932L247.422,45.693L248.145,45.246L248.867,44.932L249.59,44.558L250.313,44.255L251.035,43.873L251.758,43.489L252.48,43.209L253.203,42.818L253.926,42.535L254.648,42.333L255.371,42.078L256.094,41.73L256.816,41.425L257.539,41.112L258.262,40.867L258.984,40.656L259.707,40.288L260.43,40.094L261.152,39.869L261.875,39.643L262.598,39.279L263.32,39.266L264.043,38.929L264.766,38.707L265.488,38.487L266.211,38.324L266.934,38.108L267.656,37.836L268.379,37.704L269.102,37.544L269.824,37.338L270.547,37.107L271.27,36.98L271.992,36.854L272.715,36.587L273.438,36.449L274.16,36.276L274.883,36.034L275.605,35.889L276.328,35.733L277.051,35.526L277.773,35.379L278.496,35.189L279.219,35.095L279.941,34.869L280.664,34.669L281.387,34.536L282.109,34.24L282.832,34.031L283.555,33.956L284.277,33.772L285,33.533L285.723,33.396L286.445,33.19L287.168,33.088L287.891,32.836L288.613,32.648L289.336,32.432L290.059,32.263L290.781,32.108L291.504,31.889L292.227,31.736L292.949,31.532L293.672,31.302L294.395,31.206L295.117,30.995L295.84,30.86L296.563,30.64L297.285,30.52L298.008,30.331L298.73,30.157L299.453,30.017L300.176,29.831L300.898,29.717L301.621,29.52L302.344,29.341L303.066,29.295L303.789,29.027L304.512,28.939L305.234,28.805L305.957,28.621L306.68,28.541L307.402,28.387L308.125,28.253L308.848,28.118L309.57,27.982L310.293,27.85L311.016,27.758L311.738,27.644L312.461,27.543L313.184,27.401L313.906,27.351L314.629,27.207L315.352,27.079L316.074,26.984L316.797,26.897L317.52,26.781L318.242,26.669L318.965,26.568L319.688,26.515L320.41,26.414L321.133,26.34L321.855,26.253L322.578,26.224L323.301,26.074L324.023,25.935L324.746,25.896L325.469,25.842L326.191,25.748L326.914,25.737L327.637,25.65L328.359,25.652L329.082,25.463L329.805,25.455L330.527,25.355L331.25,25.271L331.973,25.269L332.695,25.199L333.418,25.109L334.141,25.081L334.863,25.022L335.586,24.987L336.309,24.802L337.031,24.788L337.754,24.787L338.477,24.709L339.199,24.54L339.922,24.533L340.645,24.597L341.367,24.519L342.09,24.409L342.813,24.413L343.535,24.322L344.258,24.273L344.98,24.259L345.703,24.195L346.426,24.089L347.148,24.018L347.871,23.978L348.594,23.963L349.316,23.863L350.039,23.84L350.762,23.775L351.484,23.769L352.207,23.719L352.93,23.613L353.652,23.558L354.375,23.47L355.098,23.467L355.82,23.459L356.543,23.383L357.266,23.325L357.988,23.267L358.711,23.211L359.434,23.232L360.156,23.082L360.879,23.031L361.602,22.987L362.324,22.917L363.047,22.902L363.77,22.871L364.492,22.808L365.215,22.699L365.938,22.689L366.66,22.617L367.383,22.601L368.105,22.542L368.828,22.443L369.551,22.379L370.273,22.322L370.996,22.256L371.719,22.268L372.441,22.199L373.164,22.175L373.887,22.151L374.609,22.08L375.332,21.998L376.055,21.983L376.777,21.913L377.5,21.92L378.223,21.839L378.945,21.816L379.668,21.721L380.391,21.725L381.113,21.642L381.836,21.568L382.559,21.567L383.281,21.467L384.004,21.424L384.727,21.459L385.449,21.357L386.172,21.332L386.895,21.257L387.617,21.324L388.34,21.221L389.063,21.141L389.785,21.134L390.508,21.148L391.23,21.115L391.953,21.022L392.676,21.051L393.398,21.012L394.121,20.96L394.844,20.96L395.566,20.929L396.289,20.873L397.012,20.854L397.734,20.82L398.457,20.831L399.18,20.798L399.902,20.729L400.625,20.74L401.348,20.738L402.07,20.723L402.793,20.666L403.516,20.652L404.238,20.655L404.961,20.583L405.684,20.57L406.406,20.562L407.129,20.547L407.852,20.552L408.574,20.524L409.297,20.552L410.02,20.522L410.742,20.451L411.465,20.449L412.188,20.448L412.91,20.446L413.633,20.394L414.355,20.396L415.078,20.373L415.801,20.389L416.523,20.389L417.246,20.343L417.969,20.359L418.691,20.344L419.414,20.349L420.137,20.342L420.859,20.337L421.582,20.321L422.305,20.301L423.027,20.272L423.75,20.275L424.473,20.284L425.195,20.27L425.918,20.263L426.641,20.268L427.363,20.272L428.086,20.236L428.809,20.214L429.531,20.223L430.254,20.241L430.977,20.253L431.699,20.224L432.422,20.239L433.145,20.233L433.867,20.217L434.59,20.226L435.313,20.197L436.035,20.203L436.758,20.183L437.48,20.18L438.203,20.187L438.926,20.183L439.648,20.177L440.371,20.183L441.094,20.178L441.816,20.164L442.539,20.164L443.262,20.185L443.984,20.187L444.707,20.156L445.43,20.16L446.152,20.179L446.875,20.162L447.598,20.154L448.32,20.162L449.043,20.167L449.766,20.162L450.488,20.151L451.211,20.145L451.934,20.157L452.656,20.146L453.379,20.148L454.102,20.15L454.824,20.135L455.547,20.139L456.27,20.131L456.992,20.141L457.715,20.151L458.438,20.141L459.16,20.135L459.883,20.136L460.605,20.132L461.328,20.129L462.051,20.131L462.773,20.138L463.496,20.135L464.219,20.133L464.941,20.127L465.664,20.128L466.387,20.13L467.109,20.127L467.832,20.122L468.555,20.128L469.277,20.126"/><path fill="none" stroke="rgb(236, 209, 46)" stroke-width="1.5" d="M100,130.446L100.723,130.86L101.445,131.128L102.168,131.503L102.891,131.835L103.613,132.089L104.336,132.455L105.059,132.868L105.781,133.109L106.504,133.681L107.227,133.83L107.949,134.378L108.672,134.746L109.395,135.203L110.117,135.55L110.84,136.067L111.563,136.551L112.285,137.027L113.008,137.375L113.73,137.961L114.453,138.291L115.176,138.699L115.898,139.358L116.621,139.629L117.344,140.083L118.066,140.686L118.789,141.097L119.512,141.662L120.234,142.023L120.957,142.814L121.68,143.199L122.402,143.555L123.125,144.221L123.848,144.43L124.57,145.175L125.293,145.583L126.016,145.871L126.738,146.385L127.461,146.791L128.184,147.389L128.906,147.685L129.629,148.044L130.352,148.523L131.074,149.053L131.797,149.435L132.52,149.706L133.242,149.926L133.965,150.199L134.688,150.624L135.41,150.966L136.133,151.284L136.855,151.427L137.578,151.548L138.301,151.847L139.023,151.907L139.746,151.866L140.469,151.973L141.191,152.105L141.914,152.061L142.637,152.196L143.359,152.081L144.082,151.943L144.805,151.72L145.527,151.515L146.25,151.41L146.973,150.957L147.695,150.837L148.418,150.5L149.141,150.186L149.863,149.598L150.586,149.222L151.309,148.802L152.031,148.223L152.754,147.493L153.477,147.144L154.199,146.269L154.922,145.521L155.645,144.998L156.367,144.043L157.09,143.296L157.813,142.28L158.535,141.231L159.258,140.639L159.98,139.387L160.703,138.37L161.426,137.373L162.148,136.224L162.871,134.959L163.594,133.872L164.316,132.647L165.039,131.509L165.762,130.128L166.484,128.767L167.207,127.45L167.93,126.128L168.652,124.914L169.375,123.396L170.098,122.141L170.82,120.496L171.543,119.235L172.266,117.704L172.988,116.272L173.711,114.673L174.434,113.26L175.156,111.736L175.879,110.221L176.602,108.559L177.324,106.975L178.047,105.475L178.77,103.875L179.492,102.396L180.215,100.847L180.938,99.43L181.66,97.803L182.383,96.177L183.105,94.661L183.828,93.137L184.551,91.526L185.273,90.015L185.996,88.582L186.719,86.952L187.441,85.488L188.164,83.833L188.887,82.236L189.609,80.853L190.332,79.42L191.055,77.992L191.777,76.466L192.5,74.915L193.223,73.718L193.945,72.178L194.668,70.71L195.391,69.311L196.113,67.923L196.836,66.647L197.559,65.157L198.281,63.901L199.004,62.519L199.727,61.18L200.449,59.848L201.172,58.573L201.895,57.27L202.617,55.992L203.34,54.679L204.063,53.601L204.785,52.38L205.508,51.126L206.23,49.943L206.953,48.713L207.676,47.647L208.398,46.581L209.121,45.496L209.844,44.349L210.566,43.451L211.289,42.209L212.012,41.208L212.734,40.333L213.457,39.27L214.18,38.193L214.902,37.348L215.625,36.388L216.348,35.494L217.07,36.737L217.793,38.781L218.516,40.467L219.238,42.27L219.961,44.154L220.684,46.148L221.406,46.482L222.129,46.093L222.852,45.699L223.574,45.366L224.297,45.013L225.02,44.574L225.742,44.135L226.465,43.798L227.188,43.533L227.91,43.045L228.633,42.777L229.355,42.405L230.078,42.159L230.801,41.779L231.523,41.455L232.246,41.316L232.969,40.798L233.691,40.549L234.414,40.198L235.137,39.913L235.859,39.651L236.582,39.287L237.305,39.052L238.027,38.795L238.75,38.435L239.473,38.335L240.195,37.931L240.918,37.663L241.641,37.386L242.363,37.165L243.086,36.899L243.809,36.742L244.531,36.46L245.254,36.106L245.977,35.908L246.699,35.727L247.422,35.41L248.145,35.164L248.867,34.993L249.59,34.811L250.313,34.608L251.035,34.312L251.758,34.108L252.48,33.931L253.203,33.702L253.926,33.506L254.648,33.338L255.371,33.175L256.094,32.904L256.816,32.744L257.539,32.565L258.262,32.414L258.984,32.218L259.707,32.085L260.43,32.051L261.152,31.803L261.875,31.65L262.598,31.489L263.32,31.419L264.043,31.24L264.766,31.028L265.488,31.066L266.211,30.915L266.934,30.937L267.656,30.714L268.379,30.592L269.102,30.583L269.824,30.409L270.547,30.399L271.27,30.25L271.992,30.174L272.715,30.124L273.438,30.014L274.16,29.971L274.883,29.864L275.605,29.856L276.328,29.73L277.051,29.689L277.773,29.674L278.496,29.571L279.219,29.493L279.941,29.46L280.664,29.368L281.387,29.304L282.109,29.206L282.832,29.128L283.555,29.082L284.277,29.006L285,28.915L285.723,28.821L286.445,28.722L287.168,28.696L287.891,28.545L288.613,28.491L289.336,28.383L290.059,28.303L290.781,28.265L291.504,28.109L292.227,28.02L292.949,27.934L293.672,27.846L294.395,27.787L295.117,27.679L295.84,27.525L296.563,27.438L297.285,27.391L298.008,27.296L298.73,27.205L299.453,27.048L300.176,27.018L300.898,26.907L301.621,26.827L302.344,26.721L303.066,26.632L303.789,26.572L304.512,26.53L305.234,26.38L305.957,26.304L306.68,26.215L307.402,26.124L308.125,26.05L308.848,26.003L309.57,25.903L310.293,25.77L311.016,25.746L311.738,25.673L312.461,25.598L313.184,25.534L313.906,25.48L314.629,25.358L315.352,25.302L316.074,25.265L316.797,25.156L317.52,25.083L318.242,25.056L318.965,24.965L319.688,24.913L320.41,24.876L321.133,24.858L321.855,24.767L322.578,24.716L323.301,24.659L324.023,24.571L324.746,24.55L325.469,24.481L326.191,24.404L326.914,24.402L327.637,24.364L328.359,24.339L329.082,24.239L329.805,24.191L330.527,24.134L331.25,24.117L331.973,24.063L332.695,24.015L333.418,23.985L334.141,23.942L334.863,23.878L335.586,23.827L336.309,23.847L337.031,23.768L337.754,23.75L338.477,23.689L339.199,23.672L339.922,23.661L340.645,23.635L341.367,23.576L342.09,23.528L342.813,23.501L343.535,23.49L344.258,23.407L344.98,23.44L345.703,23.336L346.426,23.335L347.148,23.296L347.871,23.271L348.594,23.245L349.316,23.193L350.039,23.139L350.762,23.136L351.484,23.086L352.207,23.081L352.93,23.012L353.652,22.992L354.375,22.9L355.098,22.925L355.82,22.887L356.543,22.863L357.266,22.832L357.988,22.782L358.711,22.737L359.434,22.704L360.156,22.649L360.879,22.616L361.602,22.617L362.324,22.571L363.047,22.497L363.77,22.5L364.492,22.427L365.215,22.39L365.938,22.391L366.66,22.284L367.383,22.295L368.105,22.248L368.828,22.235L369.551,22.181L370.273,22.136L370.996,22.064L371.719,22.042L372.441,21.986L373.164,21.952L373.887,21.931L374.609,21.856L375.332,21.837L376.055,21.78L376.777,21.751L377.5,21.725L378.223,21.661L378.945,21.614L379.668,21.604L380.391,21.584L381.113,21.525L381.836,21.47L382.559,21.455L383.281,21.41L384.004,21.364L384.727,21.331L385.449,21.338L386.172,21.288L386.895,21.244L387.617,21.19L388.34,21.181L389.063,21.18L389.785,21.119L390.508,21.075L391.23,21.049L391.953,21.023L392.676,20.985L393.398,20.962L394.121,20.945L394.844,20.928L395.566,20.882L396.289,20.86L397.012,20.845L397.734,20.808L398.457,20.78L399.18,20.739L399.902,20.72L400.625,20.716L401.348,20.685L402.07,20.662L402.793,20.655L403.516,20.632L404.238,20.604L404.961,20.592L405.684,20.592L406.406,20.539L407.129,20.539L407.852,20.523L408.574,20.506L409.297,20.494L410.02,20.477L410.742,20.478L411.465,20.455L412.188,20.434L412.91,20.425L413.633,20.423L414.355,20.4L415.078,20.383L415.801,20.377L416.523,20.374L417.246,20.353L417.969,20.352L418.691,20.339L419.414,20.328L420.137,20.323L420.859,20.313L421.582,20.298L422.305,20.299L423.027,20.292L423.75,20.286L424.473,20.278L425.195,20.267L425.918,20.27L426.641,20.258L427.363,20.247L428.086,20.248L428.809,20.243L429.531,20.243L430.254,20.234L430.977,20.234L431.699,20.223L432.422,20.213L433.145,20.216L433.867,20.208L434.59,20.211L435.313,20.199L436.035,20.201L436.758,20.195L437.48,20.193L438.203,20.188L438.926,20.183L439.648,20.182L440.371,20.178L441.094,20.182L441.816,20.173L442.539,20.171L443.262,20.169L443.984,20.165L444.707,20.165L445.43,20.161L446.152,20.158L446.875,20.155L447.598,20.159L448.32,20.154L449.043,20.156L449.766,20.155L450.488,20.151L451.211,20.147L451.934,20.145L452.656,20.145L453.379,20.143L454.102,20.144L454.824,20.143L455.547,20.141L456.27,20.142L456.992,20.14L457.715,20.137L458.438,20.137L459.16,20.14L459.883,20.135L460.605,20.133L461.328,20.134L462.051,20.133L462.773,20.132L463.496,20.128L464.219,20.13L464.941,20.131L465.664,20.127L466.387,20.128L467.109,20.128L467.832,20.125L468.555,20.125L469.277,20.125"/><path fill="none" stroke="rgb(255, 130, 29)" stroke-width="1.5" d="M100,134.337L100.723,134.65L101.445,135.004L102.168,135.094L102.891,135.373L103.613,135.663L104.336,135.891L105.059,136.076L105.781,136.243L106.504,136.56L107.227,136.833L107.949,137.007L108.672,137.16L109.395,137.427L110.117,137.354L110.84,137.467L111.563,137.548L112.285,137.466L113.008,137.666L113.73,137.741L114.453,137.87L115.176,137.745L115.898,137.703L116.621,137.538L117.344,137.439L118.066,137.267L118.789,137.098L119.512,136.937L120.234,136.676L120.957,136.366L121.68,135.904L122.402,135.691L123.125,135.269L123.848,134.809L124.57,134.423L125.293,133.988L126.016,133.462L126.738,132.837L127.461,132.105L128.184,131.578L128.906,130.865L129.629,130.096L130.352,129.44L131.074,128.609L131.797,127.785L132.52,127.061L133.242,126.097L133.965,125.133L134.688,124.187L135.41,123.042L136.133,122.093L136.855,121.186L137.578,119.903L138.301,118.897L139.023,117.88L139.746,116.66L140.469,115.607L141.191,114.234L141.914,113.095L142.637,111.784L143.359,110.505L144.082,109.315L144.805,108.114L145.527,106.826L146.25,105.477L146.973,104.061L147.695,102.737L148.418,101.357L149.141,100.03L149.863,98.659L150.586,97.405L151.309,95.856L152.031,94.509L152.754,93.067L153.477,91.835L154.199,90.477L154.922,88.879L155.645,87.647L156.367,86.231L157.09,84.784L157.813,83.418L158.535,81.892L159.258,80.705L159.98,79.326L160.703,77.886L161.426,76.618L162.148,75.126L162.871,73.801L163.594,72.448L164.316,71.077L165.039,69.834L165.762,68.532L166.484,67.219L167.207,65.805L167.93,64.557L168.652,63.268L169.375,61.856L170.098,60.569L170.82,59.424L171.543,58.333L172.266,57.017L172.988,55.849L173.711,54.646L174.434,53.539L175.156,52.278L175.879,51.145L176.602,49.973L177.324,48.897L178.047,47.704L178.77,46.593L179.492,45.468L180.215,44.5L180.938,43.415L181.66,42.474L182.383,41.319L183.105,40.236L183.828,39.378L184.551,38.323L185.273,37.35L185.996,36.477L186.719,35.441L187.441,34.579L188.164,33.646L188.887,32.745L189.609,34.367L190.332,36.184L191.055,38.175L191.777,39.908L192.5,41.843L193.223,43.743L193.945,43.933L194.668,43.587L195.391,43.22L196.113,42.811L196.836,42.336L197.559,42.097L198.281,41.594L199.004,41.331L199.727,40.923L200.449,40.569L201.172,40.229L201.895,39.954L202.617,39.527L203.34,39.212L204.063,38.826L204.785,38.66L205.508,38.253L206.23,37.776L206.953,37.551L207.676,37.291L208.398,36.97L209.121,36.684L209.844,36.297L210.566,36.149L211.289,35.781L212.012,35.593L212.734,35.317L213.457,35.003L214.18,34.747L214.902,34.505L215.625,34.285L216.348,33.959L217.07,33.861L217.793,33.581L218.516,33.292L219.238,33.077L219.961,32.898L220.684,32.728L221.406,32.471L222.129,32.297L222.852,32.178L223.574,31.966L224.297,31.793L225.02,31.602L225.742,31.444L226.465,31.192L227.188,31.082L227.91,31.011L228.633,30.835L229.355,30.751L230.078,30.55L230.801,30.382L231.523,30.281L232.246,30.159L232.969,30L233.691,29.864L234.414,29.818L235.137,29.721L235.859,29.574L236.582,29.465L237.305,29.359L238.027,29.305L238.75,29.173L239.473,29.083L240.195,28.946L240.918,28.92L241.641,28.835L242.363,28.73L243.086,28.609L243.809,28.515L244.531,28.551L245.254,28.368L245.977,28.309L246.699,28.299L247.422,28.245L248.145,28.17L248.867,28.067L249.59,28.076L250.313,28.039L251.035,27.943L251.758,27.854L252.48,27.797L253.203,27.83L253.926,27.788L254.648,27.674L255.371,27.66L256.094,27.601L256.816,27.6L257.539,27.534L258.262,27.511L258.984,27.471L259.707,27.466L260.43,27.485L261.152,27.426L261.875,27.426L262.598,27.391L263.32,27.341L264.043,27.365L264.766,27.341L265.488,27.38L266.211,27.321L266.934,27.356L267.656,27.352L268.379,27.375L269.102,27.38L269.824,27.34L270.547,27.387L271.27,27.341L271.992,27.437L272.715,27.422L273.438,27.42L274.16,27.449L274.883,27.399L275.605,27.492L276.328,27.487L277.051,27.503L277.773,27.472L278.496,27.516L279.219,27.538L279.941,27.51L280.664,27.494L281.387,27.508L282.109,27.537L282.832,27.442L283.555,27.464L284.277,27.435L285,27.383L285.723,27.375L286.445,27.308L287.168,27.293L287.891,27.28L288.613,27.187L289.336,27.134L290.059,27.121L290.781,27.092L291.504,27.025L292.227,26.947L292.949,26.908L293.672,26.862L294.395,26.765L295.117,26.712L295.84,26.655L296.563,26.588L297.285,26.496L298.008,26.421L298.73,26.403L299.453,26.314L300.176,26.25L300.898,26.139L301.621,26.044L302.344,26.021L303.066,25.968L303.789,25.856L304.512,25.821L305.234,25.729L305.957,25.663L306.68,25.591L307.402,25.471L308.125,25.468L308.848,25.419L309.57,25.346L310.293,25.271L311.016,25.185L311.738,25.118L312.461,25.102L313.184,25.018L313.906,24.954L314.629,24.886L315.352,24.83L316.074,24.789L316.797,24.693L317.52,24.66L318.242,24.59L318.965,24.563L319.688,24.509L320.41,24.432L321.133,24.406L321.855,24.389L322.578,24.315L323.301,24.252L324.023,24.211L324.746,24.13L325.469,24.127L326.191,24.067L326.914,23.991L327.637,23.973L328.359,23.923L329.082,23.893L329.805,23.849L330.527,23.851L331.25,23.754L331.973,23.746L332.695,23.686L333.418,23.679L334.141,23.659L334.863,23.618L335.586,23.581L336.309,23.537L337.031,23.52L337.754,23.511L338.477,23.472L339.199,23.436L339.922,23.391L340.645,23.382L341.367,23.341L342.09,23.308L342.813,23.283L343.535,23.27L344.258,23.189L344.98,23.154L345.703,23.145L346.426,23.168L347.148,23.13L347.871,23.118L348.594,23.057L349.316,23.043L350.039,23.005L350.762,22.999L351.484,22.98L352.207,22.942L352.93,22.897L353.652,22.899L354.375,22.856L355.098,22.836L355.82,22.795L356.543,22.756L357.266,22.73L357.988,22.69L358.711,22.666L359.434,22.668L360.156,22.643L360.879,22.559L361.602,22.527L362.324,22.533L363.047,22.485L363.77,22.439L364.492,22.431L365.215,22.418L365.938,22.385L366.66,22.3L367.383,22.312L368.105,22.275L368.828,22.224L369.551,22.172L370.273,22.189L370.996,22.126L371.719,22.081L372.441,22.046L373.164,22.002L373.887,21.961L374.609,21.907L375.332,21.896L376.055,21.875L376.777,21.825L377.5,21.793L378.223,21.758L378.945,21.73L379.668,21.676L380.391,21.641L381.113,21.571L381.836,21.561L382.559,21.505L383.281,21.507L384.004,21.435L384.727,21.398L385.449,21.406L386.172,21.331L386.895,21.299L387.617,21.275L388.34,21.235L389.063,21.234L389.785,21.174L390.508,21.144L391.23,21.122L391.953,21.074L392.676,21.051L393.398,21.035L394.121,21.007L394.844,20.975L395.566,20.955L396.289,20.908L397.012,20.877L397.734,20.854L398.457,20.836L399.18,20.815L399.902,20.779L400.625,20.779L401.348,20.741L402.07,20.72L402.793,20.704L403.516,20.668L404.238,20.669L404.961,20.652L405.684,20.614L406.406,20.602L407.129,20.587L407.852,20.587L408.574,20.548L409.297,20.543L410.02,20.501L410.742,20.507L411.465,20.491L412.188,20.47L412.91,20.463L413.633,20.447L414.355,20.435L415.078,20.426L415.801,20.409L416.523,20.41L417.246,20.391L417.969,20.378L418.691,20.375L419.414,20.357L420.137,20.356L420.859,20.343L421.582,20.343L422.305,20.329L423.027,20.31L423.75,20.305L424.473,20.293L425.195,20.288L425.918,20.286L426.641,20.274L427.363,20.273L428.086,20.261L428.809,20.261L429.531,20.252L430.254,20.252L430.977,20.241L431.699,20.237L432.422,20.231L433.145,20.224L433.867,20.219L434.59,20.219L435.313,20.211L436.035,20.209L436.758,20.209L437.48,20.207L438.203,20.195L438.926,20.192L439.648,20.19L440.371,20.186L441.094,20.19L441.816,20.19L442.539,20.179L443.262,20.181L443.984,20.174L444.707,20.172L445.43,20.169L446.152,20.168L446.875,20.166L447.598,20.172L448.32,20.161L449.043,20.158L449.766,20.159L450.488,20.157L451.211,20.155L451.934,20.154L452.656,20.154L453.379,20.15L454.102,20.147L454.824,20.147L455.547,20.146L456.27,20.143L456.992,20.145L457.715,20.144L458.438,20.138L459.16,20.141L459.883,20.136L460.605,20.136L461.328,20.132L462.051,20.135L462.773,20.134L463.496,20.132L464.219,20.134L464.941,20.134L465.664,20.132L466.387,20.132L467.109,20.131L467.832,20.131L468.555,20.129L469.277,20.127"/><path fill="none" stroke="rgb(203, 47, 13)" stroke-width="1.5" d="M100,47.224L100.723,47.323L101.445,47.302L102.168,47.403L102.891,47.441L103.613,47.395L104.336,47.441L105.059,47.523L105.781,47.406L106.504,47.518L107.227,47.479L107.949,47.651L108.672,47.572L109.395,47.653L110.117,47.645L110.84,47.689L111.563,47.656L112.285,47.582L113.008,47.56L113.73,47.697L114.453,47.576L115.176,47.552L115.898,47.577L116.621,47.546L117.344,47.437L118.066,47.437L118.789,47.589L119.512,47.451L120.234,47.396L120.957,47.402L121.68,47.305L122.402,47.339L123.125,47.36L123.848,47.24L124.57,47.186L125.293,47.254L126.016,47.014L126.738,47.012L127.461,47.009L128.184,46.984L128.906,46.88L129.629,46.769L130.352,46.792L131.074,46.537L131.797,46.675L132.52,46.56L133.242,46.403L133.965,46.465L134.688,46.262L135.41,46.227L136.133,46.122L136.855,46.024L137.578,46.057L138.301,45.927L139.023,45.871L139.746,45.654L140.469,45.74L141.191,45.533L141.914,45.342L142.637,45.325L143.359,45.303L144.082,45.21L144.805,45.057L145.527,45.064L146.25,44.95L146.973,44.87L147.695,44.771L148.418,44.596L149.141,44.579L149.863,44.377L150.586,44.402L151.309,44.259L152.031,44.099L152.754,43.877L153.477,43.885L154.199,43.69L154.922,43.629L155.645,43.561L156.367,43.385L157.09,43.348L157.813,43.15L158.535,43.01L159.258,42.923L159.98,42.785L160.703,42.678L161.426,42.621L162.148,42.484L162.871,42.468L163.594,42.275L164.316,42.175L165.039,42.192L165.762,41.917L166.484,41.886L167.207,41.722L167.93,41.611L168.652,41.516L169.375,41.296L170.098,41.246L170.82,41.137L171.543,41.006L172.266,40.944L172.988,40.718L173.711,40.719L174.434,40.527L175.156,40.36L175.879,40.249L176.602,40.168L177.324,39.97L178.047,39.896L178.77,39.811L179.492,39.723L180.215,39.526L180.938,39.487L181.66,39.3L182.383,39.237L183.105,39.077L183.828,38.866L184.551,38.893L185.273,38.71L185.996,38.624L186.719,38.556L187.441,38.468L188.164,38.318L188.887,38.085L189.609,38.009L190.332,37.932L191.055,37.807L191.777,37.688L192.5,37.554L193.223,37.474L193.945,37.41L194.668,37.291L195.391,37.243L196.113,37.072L196.836,36.991L197.559,36.929L198.281,36.7L199.004,36.526L199.727,36.403L200.449,36.353L201.172,36.267L201.895,36.223L202.617,36.093L203.34,35.976L204.063,35.862L204.785,35.734L205.508,35.684L206.23,35.569L206.953,35.418L207.676,35.367L208.398,35.289L209.121,35.121L209.844,34.984L210.566,34.944L211.289,34.863L212.012,34.748L212.734,34.66L213.457,34.553L214.18,34.368L214.902,34.418L215.625,34.297L216.348,34.212L217.07,34.101L217.793,34.094L218.516,33.957L219.238,33.909L219.961,33.685L220.684,33.651L221.406,33.652L222.129,33.535L222.852,33.372L223.574,33.285L224.297,33.223L225.02,33.112L225.742,33.118L226.465,33.021L227.188,32.94L227.91,32.865L228.633,32.743L229.355,32.736L230.078,32.631L230.801,32.563L231.523,32.412L232.246,32.406L232.969,32.291L233.691,32.332L234.414,32.182L235.137,32.111L235.859,32.064L236.582,32.016L237.305,31.994L238.027,31.746L238.75,31.745L239.473,31.703L240.195,31.657L240.918,31.56L241.641,31.494L242.363,31.444L243.086,31.329L243.809,31.399L244.531,31.283L245.254,31.187L245.977,31.119L246.699,31.024L247.422,31.051L248.145,30.906L248.867,30.796L249.59,30.834L250.313,30.695L251.035,30.797L251.758,30.658L252.48,30.696L253.203,30.542L253.926,30.478L254.648,30.462L255.371,30.424L256.094,30.395L256.816,30.314L257.539,30.295L258.262,30.256L258.984,30.16L259.707,30.09L260.43,30.1L261.152,30.107L261.875,30.029L262.598,30.083L263.32,30.04L264.043,29.96L264.766,29.966L265.488,29.971L266.211,29.964L266.934,29.914L267.656,29.894L268.379,29.883L269.102,29.905L269.824,29.897L270.547,29.909L271.27,29.849L271.992,29.883L272.715,29.868L273.438,29.897L274.16,29.88L274.883,29.877L275.605,29.826L276.328,29.837L277.051,29.778L277.773,29.926L278.496,29.835L279.219,29.775L279.941,29.79L280.664,29.835L281.387,29.75L282.109,29.654L282.832,29.708L283.555,29.621L284.277,29.657L285,29.546L285.723,29.496L286.445,29.449L287.168,29.399L287.891,29.394L288.613,29.248L289.336,29.202L290.059,29.122L290.781,29.106L291.504,29.027L292.227,28.929L292.949,28.876L293.672,28.814L294.395,28.732L295.117,28.645L295.84,28.575L296.563,28.454L297.285,28.389L298.008,28.299L298.73,28.222L299.453,28.129L300.176,28.059L300.898,28.013L301.621,27.864L302.344,27.806L303.066,27.716L303.789,27.574L304.512,27.529L305.234,27.381L305.957,27.369L306.68,27.252L307.402,27.238L308.125,27.137L308.848,26.982L309.57,26.927L310.293,26.868L311.016,26.818L311.738,26.735L312.461,26.596L313.184,26.57L313.906,26.518L314.629,26.367L315.352,26.34L316.074,26.232L316.797,26.18L317.52,26.106L318.242,26.039L318.965,25.973L319.688,25.909L320.41,25.82L321.133,25.774L321.855,25.739L322.578,25.65L323.301,25.599L324.023,25.574L324.746,25.492L325.469,25.4L326.191,25.342L326.914,25.305L327.637,25.261L328.359,25.23L329.082,25.119L329.805,25.087L330.527,25.062L331.25,24.979L331.973,24.937L332.695,24.916L333.418,24.839L334.141,24.787L334.863,24.8L335.586,24.712L336.309,24.71L337.031,24.658L337.754,24.604L338.477,24.55L339.199,24.51L339.922,24.47L340.645,24.424L341.367,24.433L342.09,24.356L342.813,24.343L343.535,24.277L344.258,24.193L344.98,24.206L345.703,24.184L346.426,24.149L347.148,24.088L347.871,24.031L348.594,24.029L349.316,23.963L350.039,23.958L350.762,23.938L351.484,23.851L352.207,23.852L352.93,23.78L353.652,23.77L354.375,23.731L355.098,23.712L355.82,23.617L356.543,23.643L357.266,23.61L357.988,23.6L358.711,23.515L359.434,23.477L360.156,23.436L360.879,23.401L361.602,23.366L362.324,23.28L363.047,23.274L363.77,23.242L364.492,23.189L365.215,23.115L365.938,23.1L366.66,23.043L367.383,23.004L368.105,22.969L368.828,22.886L369.551,22.879L370.273,22.81L370.996,22.815L371.719,22.712L372.441,22.706L373.164,22.596L373.887,22.58L374.609,22.579L375.332,22.491L376.055,22.451L376.777,22.41L377.5,22.343L378.223,22.313L378.945,22.267L379.668,22.225L380.391,22.181L381.113,22.108L381.836,22.085L382.559,22.008L383.281,22.005L384.004,21.931L384.727,21.905L385.449,21.858L386.172,21.803L386.895,21.76L387.617,21.725L388.34,21.643L389.063,21.622L389.785,21.583L390.508,21.557L391.23,21.498L391.953,21.449L392.676,21.447L393.398,21.365L394.121,21.339L394.844,21.325L395.566,21.27L396.289,21.236L397.012,21.214L397.734,21.155L398.457,21.133L399.18,21.1L399.902,21.094L400.625,21.046L401.348,21.007L402.07,20.983L402.793,20.953L403.516,20.936L404.238,20.91L404.961,20.872L405.684,20.844L406.406,20.814L407.129,20.808L407.852,20.772L408.574,20.761L409.297,20.715L410.02,20.714L410.742,20.687L411.465,20.674L412.188,20.639L412.91,20.641L413.633,20.615L414.355,20.604L415.078,20.573L415.801,20.555L416.523,20.531L417.246,20.541L417.969,20.514L418.691,20.493L419.414,20.487L420.137,20.46L420.859,20.459L421.582,20.441L422.305,20.423L423.027,20.42L423.75,20.413L424.473,20.403L425.195,20.386L425.918,20.376L426.641,20.363L427.363,20.37L428.086,20.346L428.809,20.342L429.531,20.328L430.254,20.322L430.977,20.316L431.699,20.307L432.422,20.3L433.145,20.292L433.867,20.292L434.59,20.29L435.313,20.277L436.035,20.274L436.758,20.263L437.48,20.256L438.203,20.253L438.926,20.254L439.648,20.243L440.371,20.234L441.094,20.224L441.816,20.235L442.539,20.221L443.262,20.213L443.984,20.211L444.707,20.213L445.43,20.207L446.152,20.207L446.875,20.194L447.598,20.197L448.32,20.192L449.043,20.191L449.766,20.183L450.488,20.189L451.211,20.183L451.934,20.174L452.656,20.176L453.379,20.175L454.102,20.176L454.824,20.17L455.547,20.167L456.27,20.169L456.992,20.163L457.715,20.16L458.438,20.157L459.16,20.16L459.883,20.16L460.605,20.154L461.328,20.151L462.051,20.154L462.773,20.147L463.496,20.149L464.219,20.149L464.941,20.143L465.664,20.147L466.387,20.143L467.109,20.146L467.832,20.143L468.555,20.14L469.277,20.135"/><g transform="translate(15,190) scale(1.7) rotate(-90)"><text>Drift</text></g><g transform="translate(315,395) scale(1.8)"><text></text></g><g transform="translate(0,350)" fill="none" font-size="10" font-family="sans-serif" text-anchor="middle"><path class="domain" stroke="currentColor" d="M100,6V0H470V6"/><g class="tick" opacity="1" transform="translate(136.96669666966696,0)"><line stroke="currentColor" y2="6"/><text fill="currentColor" y="9" dy="0.71em" font-size="20px"> </text></g><g class="tick" opacity="1" transform="translate(173.97039703970398,0)"><line stroke="currentColor" y2="6"/><text fill="currentColor" y="9" dy="0.71em" font-size="20px">20</text></g><g class="tick" opacity="1" transform="translate(210.97409740974098,0)"><line stroke="currentColor" y2="6"/><text fill="currentColor" y="9" dy="0.71em" font-size="20px"> </text></g><g class="tick" opacity="1" transform="translate(247.97779777977803,0)"><line stroke="currentColor" y2="6"/><text fill="currentColor" y="9" dy="0.71em" font-size="20px">40</text></g><g class="tick" opacity="1" transform="translate(284.981498149815,0)"><line stroke="currentColor" y2="6"/><text fill="currentColor" y="9" dy="0.71em" font-size="20px"> </text></g><g class="tick" opacity="1" transform="translate(321.985198519852,0)"><line stroke="currentColor" y2="6"/><text fill="currentColor" y="9" dy="0.71em" font-size="20px">60</text></g><g class="tick" opacity="1" transform="translate(358.988898889889,0)"><line stroke="currentColor" y2="6"/><text fill="currentColor" y="9" dy="0.71em" font-size="20px"> </text></g><g class="tick" opacity="1" transform="translate(395.992599259926,0)"><line stroke="currentColor" y2="6"/><text fill="currentColor" y="9" dy="0.71em" font-size="20px">80</text></g><g class="tick" opacity="1" transform="translate(432.996299629963,0)"><line stroke="currentColor" y2="6"/><text fill="currentColor" y="9" dy="0.71em" font-size="20px"> </text></g><g class="tick" opacity="1" transform="translate(470,0)"><line stroke="currentColor" y2="6"/><text fill="currentColor" y="9" dy="0.71em" font-size="20px">100</text></g></g><g transform="translate(100,0)" fill="none" font-size="10" font-family="sans-serif" text-anchor="end"><path class="domain" stroke="currentColor" d="M-6,350H0V20H-6"/><g class="tick" opacity="1" transform="translate(0,336.9576448495117)"><line stroke="currentColor" x2="-6"/><text fill="currentColor" x="-9" dy="0.32em" font-size="20px">0.65</text></g><g class="tick" opacity="1" transform="translate(0,311.9436113331274)"><line stroke="currentColor" x2="-6"/><text fill="currentColor" x="-9" dy="0.32em" font-size="20px">0.60</text></g><g class="tick" opacity="1" transform="translate(0,286.9295778167432)"><line stroke="currentColor" x2="-6"/><text fill="currentColor" x="-9" dy="0.32em" font-size="20px">0.55</text></g><g class="tick" opacity="1" transform="translate(0,261.91554430035893)"><line stroke="currentColor" x2="-6"/><text fill="currentColor" x="-9" dy="0.32em" font-size="20px">0.50</text></g><g class="tick" opacity="1" transform="translate(0,236.90151078397463)"><line stroke="currentColor" x2="-6"/><text fill="currentColor" x="-9" dy="0.32em" font-size="20px">0.45</text></g><g class="tick" opacity="1" transform="translate(0,211.8874772675904)"><line stroke="currentColor" x2="-6"/><text fill="currentColor" x="-9" dy="0.32em" font-size="20px">0.40</text></g><g class="tick" opacity="1" transform="translate(0,186.8734437512061)"><line stroke="currentColor" x2="-6"/><text fill="currentColor" x="-9" dy="0.32em" font-size="20px">0.35</text></g><g class="tick" opacity="1" transform="translate(0,161.8594102348219)"><line stroke="currentColor" x2="-6"/><text fill="currentColor" x="-9" dy="0.32em" font-size="20px">0.30</text></g><g class="tick" opacity="1" transform="translate(0,136.84537671843765)"><line stroke="currentColor" x2="-6"/><text fill="currentColor" x="-9" dy="0.32em" font-size="20px">0.25</text></g><g class="tick" opacity="1" transform="translate(0,111.83134320205339)"><line stroke="currentColor" x2="-6"/><text fill="currentColor" x="-9" dy="0.32em" font-size="20px">0.20</text></g><g class="tick" opacity="1" transform="translate(0,86.81730968566913)"><line stroke="currentColor" x2="-6"/><text fill="currentColor" x="-9" dy="0.32em" font-size="20px">0.15</text></g><g class="tick" opacity="1" transform="translate(0,61.803276169284885)"><line stroke="currentColor" x2="-6"/><text fill="currentColor" x="-9" dy="0.32em" font-size="20px">0.10</text></g><g class="tick" opacity="1" transform="translate(0,36.78924265290067)"><line stroke="currentColor" x2="-6"/><text fill="currentColor" x="-9" dy="0.32em" font-size="20px">0.05</text></g></g><circle cx="355" cy="150" r="8" style="fill: rgb(35, 23, 27);"/><circle cx="355" cy="175" r="8" style="fill: rgb(69, 105, 238);"/><circle cx="355" cy="200" r="8" style="fill: rgb(38, 188, 225);"/><circle cx="355" cy="225" r="8" style="fill: rgb(63, 243, 147);"/><circle cx="355" cy="250" r="8" style="fill: rgb(149, 251, 81);"/><circle cx="355" cy="275" r="8" style="fill: rgb(236, 209, 46);"/><circle cx="355" cy="300" r="8" style="fill: rgb(255, 130, 29);"/><circle cx="355" cy="325" r="8" style="fill: rgb(203, 47, 13);"/><text x="370" y="150" text-anchor="left" font-size="22" alignment-baseline="middle" style="fill: rgb(35, 23, 27);"> = 0</text><text x="370" y="175" text-anchor="left" font-size="22" alignment-baseline="middle" style="fill: rgb(69, 105, 238);"> = 0.22</text><text x="370" y="200" text-anchor="left" font-size="22" alignment-baseline="middle" style="fill: rgb(38, 188, 225);"> = 0.45</text><text x="370" y="225" text-anchor="left" font-size="22" alignment-baseline="middle" style="fill: rgb(63, 243, 147);"> = 0.67</text><text x="370" y="250" text-anchor="left" font-size="22" alignment-baseline="middle" style="fill: rgb(149, 251, 81);"> = 0.9</text><text x="370" y="275" text-anchor="left" font-size="22" alignment-baseline="middle" style="fill: rgb(236, 209, 46);"> = 1.12</text><text x="370" y="300" text-anchor="left" font-size="22" alignment-baseline="middle" style="fill: rgb(255, 130, 29);"> = 1.35</text><text x="370" y="325" text-anchor="left" font-size="22" alignment-baseline="middle" style="fill: rgb(203, 47, 13);"> = 1.57</text></svg>