<svg xmlns="http://www.w3.org/2000/svg" class="bg-white" width="500" height="400" viewBox="-10 -1 500 400"><path fill="none" stroke="rgb(35, 23, 27)" stroke-width="1.5" d="M100,220.802L100.723,222.779L101.445,224.651L102.168,226.973L102.891,228.948L103.613,231.267L104.336,233.506L105.059,235.666L105.781,238.126L106.504,240.666L107.227,243.244L107.949,246.171L108.672,248.485L109.395,251.371L110.117,254.082L110.84,257.073L111.563,259.882L112.285,262.808L113.008,265.974L113.73,268.817L114.453,272.158L115.176,274.906L115.898,278.004L116.621,281.302L117.344,284.233L118.066,287.494L118.789,290.775L119.512,293.61L120.234,296.754L120.957,299.821L121.68,302.825L122.402,305.811L123.125,308.726L123.848,311.597L124.57,314.512L125.293,316.879L126.016,319.715L126.738,322.011L127.461,324.634L128.184,327.143L128.906,329.533L129.629,331.704L130.352,333.407L131.074,335.669L131.797,337.641L132.52,339.087L133.242,341.034L133.965,342.331L134.688,343.549L135.41,345.098L136.133,346.161L136.855,346.815L137.578,347.902L138.301,348.54L139.023,349.193L139.746,349.32L140.469,349.65L141.191,350L141.914,349.856L142.637,349.459L143.359,349.441L144.082,348.494L144.805,348.226L145.527,347.468L146.25,346.845L146.973,346.064L147.695,344.633L148.418,343.569L149.141,341.833L149.863,340.857L150.586,339.128L151.309,337.4L152.031,335.881L152.754,333.907L153.477,331.619L154.199,329.786L154.922,327.954L155.645,325.351L156.367,323.031L157.09,320.664L157.813,318.178L158.535,315.593L159.258,312.768L159.98,310.342L160.703,307.547L161.426,304.718L162.148,301.892L162.871,299.049L163.594,295.789L164.316,292.812L165.039,289.978L165.762,286.869L166.484,283.87L167.207,280.895L167.93,277.777L168.652,274.168L169.375,271.129L170.098,268.39L170.82,265.068L171.543,261.78L172.266,258.739L172.988,254.974L173.711,252.326L174.434,248.963L175.156,245.794L175.879,242.224L176.602,239.566L177.324,235.752L178.047,232.603L178.77,229.416L179.492,226.566L180.215,223.361L180.938,220.461L181.66,217.14L182.383,214.109L183.105,210.984L183.828,208.113L184.551,204.898L185.273,202.498L185.996,199.135L186.719,196.275L187.441,193.206L188.164,190.475L188.887,187.438L189.609,184.703L190.332,182.027L191.055,179.203L191.777,176.159L192.5,173.597L193.223,171.037L193.945,168.444L194.668,165.741L195.391,162.983L196.113,160.336L196.836,158.015L197.559,155.262L198.281,152.921L199.004,150.792L199.727,147.881L200.449,145.565L201.172,143.373L201.895,141.077L202.617,138.789L203.34,136.536L204.063,134.273L204.785,132.185L205.508,129.939L206.23,128.004L206.953,125.674L207.676,123.604L208.398,122.67L209.121,123.05L209.844,123.147L210.566,123.45L211.289,123.881L212.012,124.224L212.734,124.284L213.457,122.585L214.18,121.074L214.902,119.56L215.625,118.063L216.348,116.588L217.07,115.169L217.793,113.806L218.516,112.37L219.238,110.811L219.961,109.57L220.684,108.103L221.406,106.936L222.129,105.533L222.852,104.136L223.574,103.046L224.297,101.755L225.02,100.558L225.742,99.074L226.465,98.025L227.188,96.823L227.91,95.666L228.633,94.24L229.355,93.19L230.078,91.881L230.801,90.766L231.523,89.541L232.246,88.552L232.969,87.486L233.691,86.383L234.414,85.087L235.137,84.084L235.859,83.042L236.582,82.008L237.305,81.09L238.027,80.052L238.75,78.944L239.473,77.882L240.195,76.904L240.918,75.972L241.641,74.954L242.363,74.118L243.086,73.069L243.809,72.029L244.531,71.393L245.254,70.474L245.977,69.542L246.699,68.387L247.422,67.685L248.145,67.019L248.867,65.967L249.59,65.147L250.313,64.353L251.035,63.555L251.758,62.665L252.48,61.921L253.203,61.216L253.926,60.447L254.648,59.851L255.371,59.142L256.094,58.214L256.816,57.648L257.539,57.123L258.262,56.318L258.984,55.735L259.707,55.235L260.43,54.671L261.152,53.958L261.875,53.375L262.598,52.792L263.32,52.357L264.043,51.743L264.766,51.343L265.488,50.743L266.211,50.327L266.934,49.801L267.656,49.317L268.379,48.846L269.102,48.251L269.824,47.904L270.547,47.456L271.27,47L271.992,46.535L272.715,46.123L273.438,45.574L274.16,45.119L274.883,44.727L275.605,44.414L276.328,44.039L277.051,43.664L277.773,43.233L278.496,42.957L279.219,42.467L279.941,42.014L280.664,41.749L281.387,41.241L282.109,40.993L282.832,40.516L283.555,40.296L284.277,39.789L285,39.591L285.723,39.163L286.445,38.987L287.168,38.492L287.891,38.18L288.613,37.957L289.336,37.54L290.059,37.257L290.781,36.94L291.504,36.644L292.227,36.403L292.949,36.035L293.672,35.714L294.395,35.501L295.117,35.237L295.84,34.811L296.563,34.575L297.285,34.315L298.008,34.173L298.73,33.768L299.453,33.534L300.176,33.365L300.898,33.114L301.621,32.846L302.344,32.596L303.066,32.325L303.789,32.162L304.512,31.867L305.234,31.598L305.957,31.388L306.68,31.138L307.402,30.951L308.125,30.75L308.848,30.623L309.57,30.379L310.293,30.238L311.016,30.013L311.738,29.707L312.461,29.591L313.184,29.41L313.906,29.197L314.629,29.124L315.352,28.866L316.074,28.81L316.797,28.564L317.52,28.293L318.242,28.237L318.965,28.001L319.688,27.897L320.41,27.582L321.133,27.582L321.855,27.389L322.578,27.177L323.301,27.101L324.023,26.953L324.746,26.839L325.469,26.771L326.191,26.588L326.914,26.458L327.637,26.313L328.359,26.1L329.082,26.119L329.805,25.963L330.527,25.861L331.25,25.653L331.973,25.477L332.695,25.507L333.418,25.397L334.141,25.363L334.863,24.993L335.586,25.028L336.309,24.983L337.031,24.876L337.754,24.733L338.477,24.695L339.199,24.491L339.922,24.537L340.645,24.301L341.367,24.302L342.09,24.132L342.813,24.052L343.535,24.108L344.258,23.832L344.98,23.86L345.703,23.861L346.426,23.773L347.148,23.712L347.871,23.598L348.594,23.318L349.316,23.258L350.039,23.411L350.762,23.331L351.484,23.157L352.207,23.111L352.93,22.966L353.652,22.972L354.375,23.085L355.098,22.573L355.82,22.778L356.543,22.745L357.266,22.8L357.988,22.595L358.711,22.428L359.434,22.537L360.156,22.379L360.879,22.491L361.602,22.365L362.324,22.397L363.047,22.059L363.77,22.351L364.492,22.089L365.215,21.99L365.938,21.98L366.66,21.803L367.383,22.025L368.105,21.923L368.828,21.901L369.551,21.938L370.273,22.036L370.996,21.768L371.719,21.802L372.441,21.792L373.164,21.846L373.887,21.66L374.609,22.097L375.332,21.886L376.055,21.547L376.777,21.304L377.5,21.167L378.223,21.299L378.945,21.562L379.668,21.261L380.391,21.281L381.113,21.401L381.836,21.265L382.559,21.308L383.281,21.137L384.004,20.99L384.727,21.535L385.449,21.323L386.172,21.497L386.895,21.263L387.617,21.521L388.34,21.885L389.063,21.449L389.785,21.25L390.508,21.313L391.23,21.188L391.953,21.837L392.676,21.415L393.398,21.415L394.121,21.631L394.844,21.524L395.566,21.393L396.289,21.381L397.012,21.263L397.734,21.452L398.457,21.389L399.18,21.553L399.902,20.904L400.625,22.514L401.348,22.356L402.07,21.998L402.793,22.041L403.516,21.672L404.238,22.077L404.961,22.756L405.684,22.944L406.406,23.412L407.129,23.134L407.852,24.124L408.574,23.381L409.297,25.094L410.02,24.479L410.742,22.939L411.465,23.813L412.188,23.491L412.91,24.835L413.633,24.686L414.355,25.274L415.078,26.071L415.801,26.834L416.523,26.396L417.246,26.549L417.969,26.718L418.691,28.722L419.414,26.587L420.137,27.808L420.859,27.767L421.582,27.158L422.305,27.97L423.027,27.391L423.75,28.524L424.473,28.547L425.195,27.748L425.918,27.381L426.641,27.766L427.363,28.316L428.086,27.78L428.809,27.213L429.531,26.416L430.254,26.575L430.977,26.12L431.699,26.313L432.422,26.37L433.145,25.376L433.867,25.051L434.59,25.614L435.313,24.635L436.035,24.699L436.758,24.386L437.48,24.312L438.203,24.633L438.926,23.801L439.648,23.371L440.371,23.971L441.094,22.695L441.816,23.371L442.539,23.13L443.262,22.95L443.984,23.048L444.707,22.524L445.43,22.652L446.152,22.412L446.875,22.11L447.598,21.977L448.32,21.906L449.043,21.947L449.766,21.666L450.488,21.656L451.211,21.328L451.934,20.98L452.656,21.464L453.379,20.863L454.102,21.042L454.824,21.079L455.547,21.105L456.27,21.061L456.992,20.853L457.715,20.817L458.438,20.61L459.16,20.767L459.883,20.666L460.605,20.536L461.328,20.447L462.051,20.621L462.773,20.581L463.496,20.421L464.219,20.484L464.941,20.466L465.664,20.445L466.387,20.258L467.109,20.296L467.832,20.368L468.555,20.159L469.277,20.188"/><path fill="none" stroke="rgb(69, 105, 238)" stroke-width="1.5" d="M100,215.801L100.723,217.141L101.445,218.633L102.168,220.476L102.891,222.088L103.613,223.823L104.336,225.514L105.059,227.012L105.781,228.831L106.504,230.489L107.227,232.621L107.949,234.493L108.672,236.087L109.395,238.068L110.117,239.788L110.84,242.043L111.563,244.063L112.285,245.929L113.008,248.036L113.73,249.906L114.453,251.856L115.176,253.866L115.898,255.838L116.621,257.836L117.344,259.955L118.066,261.92L118.789,263.501L119.512,265.707L120.234,267.549L120.957,269.19L121.68,271.226L122.402,272.868L123.125,274.484L123.848,276.254L124.57,278.21L125.293,279.854L126.016,281.288L126.738,282.784L127.461,284.066L128.184,285.498L128.906,286.891L129.629,287.96L130.352,289.065L131.074,290.367L131.797,290.994L132.52,291.802L133.242,292.568L133.965,293.426L134.688,294.232L135.41,294.764L136.133,294.758L136.855,295.036L137.578,295.299L138.301,295.852L139.023,295.434L139.746,295.554L140.469,295.358L141.191,295.401L141.914,294.253L142.637,294.304L143.359,293.764L144.082,292.501L144.805,292.403L145.527,291.353L146.25,290.489L146.973,289.124L147.695,288.021L148.418,286.744L149.141,285.235L149.863,283.989L150.586,282.372L151.309,280.866L152.031,279.033L152.754,277.006L153.477,275.349L154.199,273.766L154.922,271.777L155.645,269.728L156.367,267.788L157.09,265.357L157.813,263.19L158.535,261.365L159.258,258.649L159.98,256.539L160.703,254.175L161.426,251.407L162.148,248.887L162.871,246.618L163.594,243.627L164.316,241.676L165.039,239.007L165.762,236.339L166.484,233.794L167.207,230.937L167.93,228.225L168.652,225.544L169.375,223.065L170.098,220.202L170.82,217.433L171.543,215.008L172.266,212.098L172.988,209.545L173.711,206.953L174.434,203.981L175.156,201.397L175.879,198.178L176.602,196.201L177.324,193.231L178.047,190.223L178.77,188.044L179.492,185.321L180.215,182.99L180.938,180.294L181.66,177.369L182.383,174.976L183.105,172.716L183.828,169.576L184.551,167.21L185.273,164.988L185.996,162.212L186.719,159.997L187.441,157.475L188.164,155.129L188.887,152.73L189.609,150.417L190.332,148.127L191.055,145.886L191.777,143.506L192.5,141.144L193.223,138.87L193.945,136.75L194.668,134.571L195.391,132.33L196.113,130.257L196.836,127.986L197.559,125.983L198.281,123.813L199.004,122.178L199.727,119.718L200.449,118.029L201.172,115.818L201.895,114.148L202.617,112.149L203.34,110.498L204.063,108.457L204.785,106.792L205.508,104.697L206.23,102.897L206.953,101.324L207.676,101.565L208.398,101.971L209.121,102.981L209.844,103.238L210.566,103.984L211.289,104.579L212.012,104.057L212.734,102.73L213.457,101.545L214.18,100.264L214.902,99.291L215.625,98.058L216.348,96.957L217.07,95.711L217.793,94.597L218.516,93.379L219.238,92.24L219.961,91.302L220.684,90.159L221.406,88.919L222.129,87.921L222.852,86.939L223.574,85.901L224.297,84.805L225.02,83.869L225.742,82.962L226.465,81.791L227.188,80.671L227.91,79.688L228.633,78.793L229.355,77.78L230.078,76.857L230.801,75.94L231.523,75.088L232.246,74.127L232.969,73.194L233.691,72.406L234.414,71.422L235.137,70.481L235.859,69.735L236.582,68.85L237.305,67.899L238.027,67.078L238.75,66.294L239.473,65.458L240.195,64.724L240.918,63.823L241.641,62.99L242.363,62.411L243.086,61.552L243.809,60.669L244.531,59.996L245.254,59.331L245.977,58.659L246.699,57.772L247.422,57.179L248.145,56.282L248.867,55.697L249.59,55.055L250.313,54.427L251.035,53.904L251.758,53.339L252.48,52.606L253.203,52.024L253.926,51.474L254.648,51.137L255.371,50.383L256.094,49.86L256.816,49.274L257.539,48.996L258.262,48.451L258.984,47.857L259.707,47.436L260.43,46.868L261.152,46.538L261.875,46.09L262.598,45.613L263.32,45.367L264.043,44.964L264.766,44.642L265.488,43.998L266.211,43.789L266.934,43.504L267.656,43.157L268.379,42.785L269.102,42.452L269.824,42.171L270.547,41.83L271.27,41.535L271.992,41.198L272.715,41.048L273.438,40.617L274.16,40.311L274.883,40.066L275.605,39.601L276.328,39.412L277.051,39.122L277.773,38.803L278.496,38.568L279.219,38.348L279.941,38.013L280.664,37.827L281.387,37.446L282.109,37.154L282.832,36.931L283.555,36.682L284.277,36.511L285,36.022L285.723,35.844L286.445,35.606L287.168,35.338L287.891,35.103L288.613,34.815L289.336,34.658L290.059,34.235L290.781,34.159L291.504,33.75L292.227,33.576L292.949,33.426L293.672,33.084L294.395,32.886L295.117,32.683L295.84,32.427L296.563,32.299L297.285,31.95L298.008,31.67L298.73,31.554L299.453,31.472L300.176,31.233L300.898,31.115L301.621,30.797L302.344,30.585L303.066,30.443L303.789,30.163L304.512,29.806L305.234,29.825L305.957,29.757L306.68,29.444L307.402,29.188L308.125,29.072L308.848,28.933L309.57,28.74L310.293,28.75L311.016,28.556L311.738,28.354L312.461,28.167L313.184,27.989L313.906,27.766L314.629,27.581L315.352,27.463L316.074,27.458L316.797,27.283L317.52,27.083L318.242,27.022L318.965,26.812L319.688,26.829L320.41,26.484L321.133,26.533L321.855,26.339L322.578,26.232L323.301,26.252L324.023,25.997L324.746,26.055L325.469,25.743L326.191,25.828L326.914,25.649L327.637,25.521L328.359,25.335L329.082,25.358L329.805,25.142L330.527,25.038L331.25,25.051L331.973,24.674L332.695,24.741L333.418,24.654L334.141,24.83L334.863,24.656L335.586,24.41L336.309,24.363L337.031,24.194L337.754,24.189L338.477,23.891L339.199,24.049L339.922,24.105L340.645,23.99L341.367,23.919L342.09,23.506L342.813,23.754L343.535,23.501L344.258,23.238L344.98,23.479L345.703,23.361L346.426,23.517L347.148,23.375L347.871,23.099L348.594,23.006L349.316,23.171L350.039,22.97L350.762,22.984L351.484,22.726L352.207,22.783L352.93,22.745L353.652,22.451L354.375,22.344L355.098,22.269L355.82,22.532L356.543,22.847L357.266,22.265L357.988,22.72L358.711,22.795L359.434,22.112L360.156,22.191L360.879,22.092L361.602,22.501L362.324,22.035L363.047,21.895L363.77,22.139L364.492,21.74L365.215,22.513L365.938,22.053L366.66,22.163L367.383,21.865L368.105,21.799L368.828,21.721L369.551,22.054L370.273,21.477L370.996,21.287L371.719,21.859L372.441,21.19L373.164,21.641L373.887,21.604L374.609,21.059L375.332,21.196L376.055,21.062L376.777,21.948L377.5,21.73L378.223,21.795L378.945,21.332L379.668,21.495L380.391,21.332L381.113,21.188L381.836,21.02L382.559,21.429L383.281,20.965L384.004,21.257L384.727,21.822L385.449,20.964L386.172,22.254L386.895,21.075L387.617,21.357L388.34,21.087L389.063,20.978L389.785,21.943L390.508,20.527L391.23,21.601L391.953,21.128L392.676,21.26L393.398,20.942L394.121,21.013L394.844,20.886L395.566,21.294L396.289,21.626L397.012,21.222L397.734,21.516L398.457,21.216L399.18,21.783L399.902,20.763L400.625,21.714L401.348,21.547L402.07,21.307L402.793,22.54L403.516,23.05L404.238,22.918L404.961,21.765L405.684,22.781L406.406,22.521L407.129,22.152L407.852,22.884L408.574,23.529L409.297,23.292L410.02,24.206L410.742,23.893L411.465,24.064L412.188,24.197L412.91,24.162L413.633,25.478L414.355,24.094L415.078,24.132L415.801,25.236L416.523,24.885L417.246,25.971L417.969,26.964L418.691,25.847L419.414,27.147L420.137,26.347L420.859,26.63L421.582,25.822L422.305,26.14L423.027,27.202L423.75,26.296L424.473,27.061L425.195,27.305L425.918,26.257L426.641,27.018L427.363,26.103L428.086,27.344L428.809,26.927L429.531,25.636L430.254,25.858L430.977,25.744L431.699,25.291L432.422,25.047L433.145,25.165L433.867,25.042L434.59,25.47L435.313,24.882L436.035,24.496L436.758,24.452L437.48,23.764L438.203,23.172L438.926,23.481L439.648,23.993L440.371,23.042L441.094,23.004L441.816,22.899L442.539,22.89L443.262,22.722L443.984,22.719L444.707,22.589L445.43,22.445L446.152,21.724L446.875,21.943L447.598,21.687L448.32,21.791L449.043,21.586L449.766,21.422L450.488,21.002L451.211,21.16L451.934,21.24L452.656,21.067L453.379,20.969L454.102,20.917L454.824,21.069L455.547,20.943L456.27,20.779L456.992,20.663L457.715,20.681L458.438,20.486L459.16,20.453L459.883,20.551L460.605,20.608L461.328,20.334L462.051,20.495L462.773,20.373L463.496,20.436L464.219,20.352L464.941,20.475L465.664,20.364L466.387,20.326L467.109,20.35L467.832,20.221L468.555,20.263L469.277,20.252"/><path fill="none" stroke="rgb(38, 188, 225)" stroke-width="1.5" d="M100,207.365L100.723,208.342L101.445,209.612L102.168,210.825L102.891,212.234L103.613,213.372L104.336,214.575L105.059,215.896L105.781,217.37L106.504,218.726L107.227,219.679L107.949,220.914L108.672,222.44L109.395,223.646L110.117,225.133L110.84,226.364L111.563,227.473L112.285,229.039L113.008,230.319L113.73,231.616L114.453,233.084L115.176,234.314L115.898,235.464L116.621,236.648L117.344,237.926L118.066,239.046L118.789,240.239L119.512,241.444L120.234,242.767L120.957,243.673L121.68,244.73L122.402,245.742L123.125,246.465L123.848,247.504L124.57,248.26L125.293,249.317L126.016,250.077L126.738,250.517L127.461,251.311L128.184,251.907L128.906,252.705L129.629,252.895L130.352,253.2L131.074,253.997L131.797,254.346L132.52,254.353L133.242,254.214L133.965,254.37L134.688,254.194L135.41,254.013L136.133,254.069L136.855,253.595L137.578,253.133L138.301,252.91L139.023,252.583L139.746,252.044L140.469,251.048L141.191,250.126L141.914,249.542L142.637,248.86L143.359,247.713L144.082,246.648L144.805,245.636L145.527,244.496L146.25,243.127L146.973,241.909L147.695,240.514L148.418,239.127L149.141,237.406L149.863,236.07L150.586,234.142L151.309,232.715L152.031,230.951L152.754,228.812L153.477,227.055L154.199,225.36L154.922,223.477L155.645,221.473L156.367,219.465L157.09,217.333L157.813,215.145L158.535,212.961L159.258,210.837L159.98,208.718L160.703,206.547L161.426,204.254L162.148,202.03L162.871,199.728L163.594,197.66L164.316,195.191L165.039,193.046L165.762,190.484L166.484,188.208L167.207,186.015L167.93,183.551L168.652,181.01L169.375,178.848L170.098,176.674L170.82,174.448L171.543,171.912L172.266,169.745L172.988,167.179L173.711,164.948L174.434,162.64L175.156,160.348L175.879,158.16L176.602,155.962L177.324,153.616L178.047,151.273L178.77,149.005L179.492,146.725L180.215,144.636L180.938,142.526L181.66,140.272L182.383,138.183L183.105,136.07L183.828,133.944L184.551,131.871L185.273,129.744L185.996,127.901L186.719,125.879L187.441,123.894L188.164,121.759L188.887,119.902L189.609,117.778L190.332,115.853L191.055,114.01L191.777,112.349L192.5,110.279L193.223,108.439L193.945,106.656L194.668,104.693L195.391,103.102L196.113,101.36L196.836,99.709L197.559,97.953L198.281,96.139L199.004,94.619L199.727,93.025L200.449,91.431L201.172,89.84L201.895,88.256L202.617,86.708L203.34,85.272L204.063,84.347L204.785,85.179L205.508,86.036L206.23,86.941L206.953,87.66L207.676,88.734L208.398,89.289L209.121,88.388L209.844,87.409L210.566,86.297L211.289,85.364L212.012,84.285L212.734,83.489L213.457,82.419L214.18,81.538L214.902,80.594L215.625,79.634L216.348,78.751L217.07,77.843L217.793,76.861L218.516,75.988L219.238,75.087L219.961,74.245L220.684,73.395L221.406,72.503L222.129,71.664L222.852,70.754L223.574,69.979L224.297,69.185L225.02,68.37L225.742,67.589L226.465,66.65L227.188,66.12L227.91,65.205L228.633,64.522L229.355,63.685L230.078,62.799L230.801,62.217L231.523,61.375L232.246,60.722L232.969,59.916L233.691,59.316L234.414,58.61L235.137,57.974L235.859,57.263L236.582,56.676L237.305,55.986L238.027,55.243L238.75,54.474L239.473,53.969L240.195,53.433L240.918,52.652L241.641,52.103L242.363,51.633L243.086,51.01L243.809,50.439L244.531,49.771L245.254,49.384L245.977,48.761L246.699,48.252L247.422,47.741L248.145,47.25L248.867,46.78L249.59,46.091L250.313,45.714L251.035,45.291L251.758,44.954L252.48,44.457L253.203,44.023L253.926,43.667L254.648,43.408L255.371,42.924L256.094,42.569L256.816,42.161L257.539,41.811L258.262,41.518L258.984,41.143L259.707,40.817L260.43,40.563L261.152,40.439L261.875,40.165L262.598,39.899L263.32,39.6L264.043,39.411L264.766,39.119L265.488,38.822L266.211,38.784L266.934,38.53L267.656,38.31L268.379,38.133L269.102,37.98L269.824,37.814L270.547,37.57L271.27,37.33L271.992,37.13L272.715,36.984L273.438,36.848L274.16,36.574L274.883,36.447L275.605,36.217L276.328,35.991L277.051,35.852L277.773,35.582L278.496,35.485L279.219,35.295L279.941,35.042L280.664,34.878L281.387,34.631L282.109,34.457L282.832,34.186L283.555,33.99L284.277,33.851L285,33.628L285.723,33.384L286.445,33.232L287.168,32.981L287.891,32.705L288.613,32.53L289.336,32.374L290.059,32.225L290.781,31.938L291.504,31.808L292.227,31.603L292.949,31.37L293.672,31.226L294.395,30.944L295.117,30.8L295.84,30.627L296.563,30.42L297.285,30.333L298.008,29.996L298.73,29.872L299.453,29.623L300.176,29.463L300.898,29.359L301.621,29.212L302.344,28.929L303.066,28.864L303.789,28.758L304.512,28.441L305.234,28.33L305.957,28.109L306.68,28.134L307.402,27.87L308.125,27.716L308.848,27.61L309.57,27.514L310.293,27.339L311.016,27.138L311.738,27.097L312.461,26.888L313.184,26.848L313.906,26.71L314.629,26.531L315.352,26.448L316.074,26.302L316.797,26.159L317.52,25.986L318.242,25.811L318.965,25.791L319.688,25.572L320.41,25.453L321.133,25.314L321.855,25.248L322.578,25.338L323.301,25.207L324.023,25.141L324.746,24.854L325.469,24.828L326.191,24.719L326.914,24.551L327.637,24.458L328.359,24.4L329.082,24.49L329.805,24.205L330.527,24.192L331.25,24.159L331.973,24.063L332.695,23.894L333.418,23.95L334.141,23.75L334.863,23.803L335.586,23.673L336.309,23.521L337.031,23.464L337.754,23.41L338.477,23.321L339.199,23.218L339.922,23.28L340.645,23.252L341.367,23.113L342.09,23.136L342.813,22.998L343.535,22.846L344.258,22.586L344.98,22.772L345.703,22.973L346.426,22.679L347.148,22.718L347.871,22.596L348.594,22.496L349.316,22.962L350.039,22.436L350.762,22.653L351.484,22.449L352.207,22.024L352.93,22.54L353.652,21.994L354.375,22.516L355.098,22.033L355.82,21.937L356.543,22.292L357.266,22.021L357.988,22.073L358.711,21.758L359.434,21.87L360.156,22.062L360.879,21.84L361.602,21.831L362.324,21.976L363.047,21.792L363.77,21.46L364.492,21.64L365.215,21.577L365.938,21.338L366.66,21.529L367.383,21.671L368.105,21.286L368.828,21.608L369.551,21.213L370.273,21.722L370.996,21.072L371.719,21.31L372.441,21.545L373.164,21.193L373.887,21.361L374.609,20.583L375.332,21.234L376.055,20.991L376.777,21.523L377.5,20.914L378.223,21.267L378.945,21.28L379.668,22.07L380.391,21.196L381.113,21.251L381.836,21.182L382.559,21.203L383.281,20.974L384.004,21.097L384.727,21.438L385.449,20.609L386.172,21.234L386.895,20.994L387.617,20.538L388.34,21.097L389.063,21.297L389.785,21.238L390.508,20L391.23,21.309L391.953,21.511L392.676,20.935L393.398,20.904L394.121,21.064L394.844,21.353L395.566,21.378L396.289,20.571L397.012,21.165L397.734,21.312L398.457,20.959L399.18,20.415L399.902,20.947L400.625,21.007L401.348,20.774L402.07,21.818L402.793,21.249L403.516,22.229L404.238,22.272L404.961,23.017L405.684,21.948L406.406,21.17L407.129,21.164L407.852,22.627L408.574,22.133L409.297,21.018L410.02,22.474L410.742,21.188L411.465,22.678L412.188,22.312L412.91,21.83L413.633,22.244L414.355,22.546L415.078,24.151L415.801,23.264L416.523,23.282L417.246,23.647L417.969,22.841L418.691,24.387L419.414,23.791L420.137,22.89L420.859,24.586L421.582,23.468L422.305,23.785L423.027,24.905L423.75,23.814L424.473,24.161L425.195,24.003L425.918,24.531L426.641,24.541L427.363,23.97L428.086,24.287L428.809,23.563L429.531,24.823L430.254,23.917L430.977,23.868L431.699,23.58L432.422,23.477L433.145,23.266L433.867,22.639L434.59,23.043L435.313,23.238L436.035,23.852L436.758,22.873L437.48,22.822L438.203,22.918L438.926,22.76L439.648,22.588L440.371,22.592L441.094,22.395L441.816,22.072L442.539,21.926L443.262,21.654L443.984,21.744L444.707,22.104L445.43,21.129L446.152,21.26L446.875,21.608L447.598,21.398L448.32,21.094L449.043,21.439L449.766,21.048L450.488,21.052L451.211,20.933L451.934,20.81L452.656,20.565L453.379,20.923L454.102,20.724L454.824,20.563L455.547,20.501L456.27,20.574L456.992,20.622L457.715,20.422L458.438,20.568L459.16,20.445L459.883,20.492L460.605,20.395L461.328,20.294L462.051,20.385L462.773,20.23L463.496,20.372L464.219,20.38L464.941,20.4L465.664,20.215L466.387,20.189L467.109,20.188L467.832,20.155L468.555,20.156L469.277,20.134"/><path fill="none" stroke="rgb(63, 243, 147)" stroke-width="1.5" d="M100,198.87L100.723,199.882L101.445,200.596L102.168,201.583L102.891,202.608L103.613,203.302L104.336,204.219L105.059,205.368L105.781,206.2L106.504,206.977L107.227,208.2L107.949,208.933L108.672,209.751L109.395,210.572L110.117,211.618L110.84,212.237L111.563,213.086L112.285,214.178L113.008,214.625L113.73,215.727L114.453,216.501L115.176,217.005L115.898,217.644L116.621,218.208L117.344,218.872L118.066,219.585L118.789,220.059L119.512,220.612L120.234,221.04L120.957,221.454L121.68,221.9L122.402,222.202L123.125,222.454L123.848,222.739L124.57,222.867L125.293,223.122L126.016,223.214L126.738,223.082L127.461,223.209L128.184,223.305L128.906,222.961L129.629,222.731L130.352,222.465L131.074,222.079L131.797,221.877L132.52,221.192L133.242,220.804L133.965,220.059L134.688,219.421L135.41,218.745L136.133,217.932L136.855,217.331L137.578,216.24L138.301,214.997L139.023,214.275L139.746,213.194L140.469,212.123L141.191,210.635L141.914,209.512L142.637,208.104L143.359,206.923L144.082,205.523L144.805,203.885L145.527,202.559L146.25,200.871L146.973,199.18L147.695,197.755L148.418,195.945L149.141,194.201L149.863,192.44L150.586,190.583L151.309,188.934L152.031,186.902L152.754,185.017L153.477,183.294L154.199,181.246L154.922,179.451L155.645,177.465L156.367,175.485L157.09,173.345L157.813,171.326L158.535,169.32L159.258,167.257L159.98,165.247L160.703,163.298L161.426,161.157L162.148,159.277L162.871,157.131L163.594,154.965L164.316,152.757L165.039,151.013L165.762,148.969L166.484,146.583L167.207,144.694L167.93,142.489L168.652,140.688L169.375,138.49L170.098,136.552L170.82,134.676L171.543,132.571L172.266,130.541L172.988,128.736L173.711,126.888L174.434,124.851L175.156,122.772L175.879,121.05L176.602,119.042L177.324,117.189L178.047,115.277L178.77,113.618L179.492,111.688L180.215,109.851L180.938,108.011L181.66,106.195L182.383,104.673L183.105,102.759L183.828,101.07L184.551,99.22L185.273,97.876L185.996,95.855L186.719,94.349L187.441,92.819L188.164,91.189L188.887,89.461L189.609,88.153L190.332,86.422L191.055,85.134L191.777,83.594L192.5,82.118L193.223,80.741L193.945,79.18L194.668,77.791L195.391,76.317L196.113,75.025L196.836,73.614L197.559,72.38L198.281,71.145L199.004,72.327L199.727,73.272L200.449,74.242L201.172,75.487L201.895,76.368L202.617,77.538L203.34,76.83L204.063,76.034L204.785,75.137L205.508,74.352L206.23,73.518L206.953,72.886L207.676,71.846L208.398,71.213L209.121,70.402L209.844,69.591L210.566,68.786L211.289,68.172L212.012,67.301L212.734,66.538L213.457,65.835L214.18,65.271L214.902,64.296L215.625,63.628L216.348,62.919L217.07,62.154L217.793,61.538L218.516,60.711L219.238,60.128L219.961,59.384L220.684,58.897L221.406,58.145L222.129,57.34L222.852,56.83L223.574,56.322L224.297,55.564L225.02,54.981L225.742,54.358L226.465,53.77L227.188,53.227L227.91,52.581L228.633,51.944L229.355,51.585L230.078,50.962L230.801,50.375L231.523,49.96L232.246,49.204L232.969,48.832L233.691,48.358L234.414,47.678L235.137,47.288L235.859,46.677L236.582,46.351L237.305,45.671L238.027,45.243L238.75,44.905L239.473,44.532L240.195,43.979L240.918,43.581L241.641,43.235L242.363,42.738L243.086,42.428L243.809,41.945L244.531,41.639L245.254,41.371L245.977,40.887L246.699,40.715L247.422,40.329L248.145,40.027L248.867,39.767L249.59,39.448L250.313,39.166L251.035,38.749L251.758,38.552L252.48,38.37L253.203,38.141L253.926,37.722L254.648,37.609L255.371,37.482L256.094,37.274L256.816,36.988L257.539,36.795L258.262,36.702L258.984,36.478L259.707,36.305L260.43,36.174L261.152,36.054L261.875,35.909L262.598,35.715L263.32,35.523L264.043,35.365L264.766,35.18L265.488,35.066L266.211,34.98L266.934,34.819L267.656,34.715L268.379,34.625L269.102,34.456L269.824,34.362L270.547,34.305L271.27,34.077L271.992,33.999L272.715,33.82L273.438,33.678L274.16,33.583L274.883,33.44L275.605,33.365L276.328,33.201L277.051,32.986L277.773,32.865L278.496,32.787L279.219,32.554L279.941,32.475L280.664,32.347L281.387,32.119L282.109,31.992L282.832,31.812L283.555,31.657L284.277,31.464L285,31.364L285.723,31.171L286.445,31.05L287.168,30.832L287.891,30.629L288.613,30.542L289.336,30.322L290.059,30.229L290.781,30.012L291.504,29.871L292.227,29.739L292.949,29.506L293.672,29.28L294.395,29.203L295.117,29.139L295.84,28.907L296.563,28.704L297.285,28.575L298.008,28.466L298.73,28.396L299.453,28.116L300.176,28.083L300.898,27.914L301.621,27.704L302.344,27.626L303.066,27.473L303.789,27.298L304.512,27.213L305.234,27.07L305.957,26.981L306.68,26.872L307.402,26.725L308.125,26.624L308.848,26.485L309.57,26.506L310.293,26.269L311.016,26.164L311.738,26.074L312.461,25.937L313.184,25.786L313.906,25.699L314.629,25.686L315.352,25.504L316.074,25.429L316.797,25.318L317.52,25.219L318.242,25.12L318.965,25.004L319.688,25.145L320.41,24.835L321.133,24.707L321.855,24.698L322.578,24.545L323.301,24.432L324.023,24.422L324.746,24.34L325.469,24.249L326.191,24.129L326.914,23.991L327.637,24.106L328.359,23.903L329.082,23.903L329.805,23.722L330.527,23.651L331.25,23.82L331.973,23.598L332.695,23.593L333.418,23.214L334.141,23.345L334.863,23.325L335.586,23.219L336.309,23.308L337.031,23.083L337.754,23.089L338.477,23.048L339.199,22.986L339.922,22.924L340.645,22.777L341.367,22.79L342.09,22.817L342.813,22.607L343.535,22.767L344.258,22.631L344.98,22.509L345.703,22.484L346.426,22.396L347.148,22.404L347.871,22.371L348.594,22.188L349.316,22.266L350.039,22.091L350.762,22.076L351.484,22.018L352.207,21.953L352.93,21.915L353.652,22.068L354.375,21.735L355.098,21.932L355.82,22.024L356.543,22.185L357.266,21.941L357.988,21.468L358.711,21.669L359.434,21.623L360.156,21.639L360.879,21.178L361.602,21.864L362.324,21.516L363.047,21.602L363.77,21.47L364.492,21.614L365.215,21.689L365.938,21.137L366.66,21.371L367.383,21.582L368.105,21.387L368.828,21.384L369.551,21.388L370.273,20.688L370.996,21.484L371.719,21.04L372.441,21.274L373.164,20.689L373.887,21.055L374.609,21.679L375.332,20.92L376.055,20.901L376.777,20.949L377.5,21.261L378.223,21.278L378.945,20.783L379.668,20.168L380.391,20.987L381.113,20.999L381.836,20.792L382.559,21.213L383.281,21.077L384.004,20.873L384.727,20.261L385.449,21.265L386.172,20.143L386.895,20.736L387.617,20.878L388.34,20.218L389.063,20.89L389.785,20.978L390.508,20.637L391.23,20.731L391.953,20.952L392.676,20.569L393.398,20.292L394.121,20.871L394.844,20.23L395.566,20.352L396.289,20.458L397.012,21.335L397.734,21.235L398.457,21.014L399.18,20.029L399.902,20.638L400.625,20.743L401.348,20.015L402.07,20.22L402.793,20.825L403.516,21.613L404.238,21.029L404.961,21.129L405.684,20.673L406.406,21.265L407.129,20.661L407.852,20.451L408.574,20.825L409.297,20.291L410.02,21.673L410.742,20.113L411.465,21.464L412.188,21.616L412.91,21.317L413.633,21.451L414.355,21.458L415.078,21.965L415.801,20.176L416.523,21.586L417.246,22.204L417.969,20.562L418.691,20.726L419.414,21.238L420.137,21.462L420.859,21.344L421.582,20.387L422.305,23.201L423.027,22.243L423.75,22.437L424.473,20.867L425.195,21.336L425.918,21.27L426.641,20.88L427.363,21.135L428.086,20.879L428.809,21.432L429.531,22.115L430.254,21.434L430.977,21.446L431.699,21.119L432.422,21.152L433.145,20.435L433.867,21.707L434.59,21.09L435.313,20.826L436.035,21.232L436.758,21.004L437.48,21.54L438.203,20.84L438.926,20.65L439.648,21.044L440.371,21.085L441.094,20.685L441.816,20.227L442.539,20.637L443.262,20.714L443.984,20.902L444.707,20.676L445.43,20.653L446.152,20.961L446.875,20.547L447.598,20.272L448.32,20.288L449.043,20.807L449.766,20.495L450.488,20.364L451.211,20.446L451.934,20.338L452.656,20.279L453.379,20.323L454.102,20.177L454.824,20.206L455.547,20.217L456.27,20.334L456.992,20.316L457.715,20.112L458.438,20.068L459.16,20.018L459.883,20.258L460.605,20.136L461.328,20.095L462.051,20.16L462.773,20.182L463.496,20.163L464.219,20.137L464.941,20.125L465.664,20.124L466.387,20.127L467.109,20.072L467.832,20.137L468.555,20.045L469.277,20.026"/><path fill="none" stroke="rgb(149, 251, 81)" stroke-width="1.5" d="M100,192.256L100.723,192.791L101.445,193.262L102.168,193.937L102.891,194.378L103.613,195.114L104.336,195.743L105.059,196.062L105.781,196.602L106.504,197.275L107.227,197.61L107.949,198.066L108.672,198.664L109.395,198.73L110.117,199.114L110.84,199.482L111.563,199.874L112.285,200.115L113.008,200.152L113.73,200.435L114.453,200.382L115.176,200.651L115.898,200.39L116.621,200.642L117.344,200.384L118.066,200.421L118.789,200.28L119.512,200.21L120.234,199.952L120.957,199.489L121.68,198.992L122.402,198.697L123.125,198.357L123.848,197.748L124.57,197.094L125.293,196.479L126.016,195.822L126.738,195.101L127.461,194.373L128.184,193.527L128.906,192.601L129.629,191.632L130.352,190.507L131.074,189.477L131.797,188.468L132.52,187.423L133.242,186.091L133.965,185.081L134.688,183.54L135.41,182.19L136.133,181.112L136.855,179.353L137.578,177.953L138.301,176.523L139.023,174.978L139.746,173.456L140.469,171.825L141.191,170.219L141.914,168.59L142.637,166.922L143.359,165.389L144.082,163.501L144.805,161.775L145.527,160.108L146.25,158.277L146.973,156.529L147.695,154.744L148.418,152.801L149.141,151.032L149.863,149.148L150.586,147.24L151.309,145.292L152.031,143.691L152.754,141.693L153.477,139.984L154.199,138.094L154.922,136.337L155.645,134.337L156.367,132.479L157.09,130.712L157.813,128.762L158.535,127.016L159.258,124.972L159.98,123.08L160.703,121.464L161.426,119.577L162.148,117.81L162.871,116.074L163.594,114.19L164.316,112.584L165.039,110.626L165.762,109.126L166.484,107.216L167.207,105.609L167.93,103.837L168.652,102.187L169.375,100.423L170.098,98.942L170.82,97.29L171.543,95.513L172.266,94.101L172.988,92.423L173.711,90.846L174.434,89.234L175.156,87.629L175.879,86.178L176.602,84.861L177.324,83.335L178.047,81.917L178.77,80.346L179.492,78.978L180.215,77.679L180.938,76.355L181.66,74.827L182.383,73.471L183.105,72.052L183.828,70.884L184.551,69.747L185.273,68.335L185.996,67.003L186.719,65.753L187.441,64.718L188.164,63.396L188.887,62.221L189.609,62.712L190.332,63.757L191.055,65.132L191.777,66.286L192.5,67.505L193.223,68.578L193.945,68.698L194.668,68.081L195.391,67.271L196.113,66.703L196.836,66.05L197.559,65.216L198.281,64.709L199.004,63.961L199.727,63.404L200.449,62.629L201.172,61.896L201.895,61.255L202.617,60.594L203.34,60.041L204.063,59.414L204.785,58.555L205.508,58.15L206.23,57.536L206.953,56.927L207.676,56.361L208.398,55.673L209.121,55.206L209.844,54.448L210.566,54.061L211.289,53.478L212.012,52.857L212.734,52.239L213.457,51.807L214.18,51.367L214.902,50.825L215.625,50.177L216.348,49.701L217.07,49.169L217.793,48.601L218.516,48.26L219.238,47.729L219.961,47.171L220.684,46.757L221.406,46.335L222.129,45.879L222.852,45.383L223.574,44.857L224.297,44.62L225.02,44.133L225.742,43.648L226.465,43.324L227.188,42.809L227.91,42.401L228.633,42.061L229.355,41.738L230.078,41.346L230.801,41.021L231.523,40.68L232.246,40.382L232.969,39.928L233.691,39.719L234.414,39.331L235.137,39.23L235.859,38.842L236.582,38.407L237.305,38.147L238.027,37.916L238.75,37.654L239.473,37.442L240.195,37.137L240.918,36.998L241.641,36.647L242.363,36.346L243.086,36.167L243.809,35.943L244.531,35.779L245.254,35.608L245.977,35.42L246.699,35.119L247.422,35.075L248.145,34.787L248.867,34.669L249.59,34.393L250.313,34.278L251.035,34.119L251.758,33.887L252.48,33.778L253.203,33.557L253.926,33.353L254.648,33.268L255.371,33.269L256.094,32.974L256.816,32.871L257.539,32.695L258.262,32.641L258.984,32.469L259.707,32.284L260.43,32.163L261.152,32.188L261.875,31.988L262.598,31.741L263.32,31.837L264.043,31.642L264.766,31.56L265.488,31.417L266.211,31.33L266.934,31.233L267.656,31.124L268.379,31.083L269.102,30.987L269.824,30.846L270.547,30.734L271.27,30.742L271.992,30.625L272.715,30.509L273.438,30.415L274.16,30.34L274.883,30.204L275.605,30.089L276.328,30.044L277.051,29.969L277.773,29.885L278.496,29.765L279.219,29.724L279.941,29.581L280.664,29.461L281.387,29.444L282.109,29.182L282.832,29.132L283.555,29.032L284.277,28.924L285,28.778L285.723,28.711L286.445,28.635L287.168,28.527L287.891,28.317L288.613,28.242L289.336,28.047L290.059,27.977L290.781,27.902L291.504,27.708L292.227,27.596L292.949,27.491L293.672,27.378L294.395,27.313L295.117,27.136L295.84,27.076L296.563,26.887L297.285,26.821L298.008,26.744L298.73,26.548L299.453,26.509L300.176,26.413L300.898,26.286L301.621,26.14L302.344,26.065L303.066,25.954L303.789,25.78L304.512,25.744L305.234,25.657L305.957,25.532L306.68,25.421L307.402,25.338L308.125,25.24L308.848,25.1L309.57,25.018L310.293,24.929L311.016,24.86L311.738,24.807L312.461,24.772L313.184,24.616L313.906,24.569L314.629,24.484L315.352,24.37L316.074,24.305L316.797,24.211L317.52,24.124L318.242,24.046L318.965,23.965L319.688,23.89L320.41,23.838L321.133,23.755L321.855,23.72L322.578,23.63L323.301,23.591L324.023,23.487L324.746,23.361L325.469,23.371L326.191,23.286L326.914,23.232L327.637,23.17L328.359,23.155L329.082,23.042L329.805,23.03L330.527,22.949L331.25,22.869L331.973,22.836L332.695,22.748L333.418,22.734L334.141,22.666L334.863,22.617L335.586,22.576L336.309,22.451L337.031,22.433L337.754,22.43L338.477,22.345L339.199,22.237L339.922,22.222L340.645,22.259L341.367,22.2L342.09,22.107L342.813,22.092L343.535,22.037L344.258,22.007L344.98,22.033L345.703,21.947L346.426,21.891L347.148,21.834L347.871,21.808L348.594,21.79L349.316,21.723L350.039,21.681L350.762,21.673L351.484,21.646L352.207,21.612L352.93,21.523L353.652,21.541L354.375,21.48L355.098,21.483L355.82,21.498L356.543,21.445L357.266,21.396L357.988,21.34L358.711,21.346L359.434,21.359L360.156,21.283L360.879,21.239L361.602,21.226L362.324,21.236L363.047,21.161L363.77,21.225L364.492,21.179L365.215,21.086L365.938,21.1L366.66,21.055L367.383,21.094L368.105,21.055L368.828,20.998L369.551,20.952L370.273,20.955L370.996,20.967L371.719,20.93L372.441,20.917L373.164,20.935L373.887,20.913L374.609,20.876L375.332,20.844L376.055,20.851L376.777,20.857L377.5,20.858L378.223,20.818L378.945,20.844L379.668,20.785L380.391,20.782L381.113,20.761L381.836,20.746L382.559,20.755L383.281,20.662L384.004,20.659L384.727,20.717L385.449,20.665L386.172,20.663L386.895,20.613L387.617,20.678L388.34,20.597L389.063,20.571L389.785,20.596L390.508,20.629L391.23,20.599L391.953,20.533L392.676,20.588L393.398,20.556L394.121,20.531L394.844,20.541L395.566,20.538L396.289,20.488L397.012,20.494L397.734,20.49L398.457,20.528L399.18,20.482L399.902,20.436L400.625,20.45L401.348,20.462L402.07,20.445L402.793,20.41L403.516,20.416L404.238,20.435L404.961,20.366L405.684,20.389L406.406,20.367L407.129,20.377L407.852,20.384L408.574,20.347L409.297,20.39L410.02,20.365L410.742,20.31L411.465,20.307L412.188,20.308L412.91,20.319L413.633,20.272L414.355,20.273L415.078,20.266L415.801,20.273L416.523,20.272L417.246,20.251L417.969,20.25L418.691,20.248L419.414,20.245L420.137,20.248L420.859,20.238L421.582,20.229L422.305,20.216L423.027,20.183L423.75,20.189L424.473,20.206L425.195,20.166L425.918,20.178L426.641,20.184L427.363,20.189L428.086,20.157L428.809,20.137L429.531,20.145L430.254,20.157L430.977,20.164L431.699,20.137L432.422,20.139L433.145,20.143L433.867,20.129L434.59,20.141L435.313,20.109L436.035,20.111L436.758,20.092L437.48,20.105L438.203,20.1L438.926,20.098L439.648,20.093L440.371,20.088L441.094,20.094L441.816,20.073L442.539,20.07L443.262,20.089L443.984,20.09L444.707,20.061L445.43,20.064L446.152,20.081L446.875,20.059L447.598,20.055L448.32,20.057L449.043,20.067L449.766,20.063L450.488,20.049L451.211,20.045L451.934,20.053L452.656,20.046L453.379,20.046L454.102,20.046L454.824,20.032L455.547,20.038L456.27,20.029L456.992,20.038L457.715,20.044L458.438,20.035L459.16,20.027L459.883,20.031L460.605,20.029L461.328,20.022L462.051,20.021L462.773,20.028L463.496,20.025L464.219,20.021L464.941,20.017L465.664,20.018L466.387,20.02L467.109,20.014L467.832,20.007L468.555,20.016L469.277,20.015"/><path fill="none" stroke="rgb(236, 209, 46)" stroke-width="1.5" d="M100,185.416L100.723,185.394L101.445,185.376L102.168,185.213L102.891,185.146L103.613,185.02L104.336,184.902L105.059,184.634L105.781,184.345L106.504,184.002L107.227,183.641L107.949,183.238L108.672,182.708L109.395,182.01L110.117,181.508L110.84,180.935L111.563,180.305L112.285,179.651L113.008,178.871L113.73,177.997L114.453,176.977L115.176,176.078L115.898,175.291L116.621,174.084L117.344,173.15L118.066,171.97L118.789,170.754L119.512,169.626L120.234,168.543L120.957,167.248L121.68,166.101L122.402,164.82L123.125,163.49L123.848,161.998L124.57,160.561L125.293,159.07L126.016,157.623L126.738,155.993L127.461,154.397L128.184,153.078L128.906,151.428L129.629,149.806L130.352,148.168L131.074,146.572L131.797,144.906L132.52,143.218L133.242,141.504L133.965,139.89L134.688,138.233L135.41,136.396L136.133,134.73L136.855,133.107L137.578,131.338L138.301,129.575L139.023,128.146L139.746,125.985L140.469,124.348L141.191,122.641L141.914,120.941L142.637,119.507L143.359,117.511L144.082,115.87L144.805,114.274L145.527,112.455L146.25,110.703L146.973,108.922L147.695,107.347L148.418,105.63L149.141,104.23L149.863,102.441L150.586,100.836L151.309,99.11L152.031,97.551L152.754,95.995L153.477,94.377L154.199,92.911L154.922,91.378L155.645,89.903L156.367,88.384L157.09,86.838L157.813,85.311L158.535,83.792L159.258,82.532L159.98,80.96L160.703,79.625L161.426,78.347L162.148,76.956L162.871,75.47L163.594,74.03L164.316,72.692L165.039,71.485L165.762,70.109L166.484,68.919L167.207,67.543L167.93,66.503L168.652,65.157L169.375,63.891L170.098,62.871L170.82,61.799L171.543,60.585L172.266,59.311L172.988,58.402L173.711,57.185L174.434,56.033L175.156,56.868L175.879,58.069L176.602,59.402L177.324,60.648L178.047,62.048L178.77,63.27L179.492,63.246L180.215,62.692L180.938,62.064L181.66,61.672L182.383,60.921L183.105,60.216L183.828,59.621L184.551,58.989L185.273,58.49L185.996,57.914L186.719,57.35L187.441,56.777L188.164,56.256L188.887,55.741L189.609,55.032L190.332,54.536L191.055,53.983L191.777,53.391L192.5,52.918L193.223,52.432L193.945,51.879L194.668,51.361L195.391,50.893L196.113,50.383L196.836,49.925L197.559,49.325L198.281,49.024L199.004,48.439L199.727,47.989L200.449,47.542L201.172,46.998L201.895,46.602L202.617,46.055L203.34,45.617L204.063,45.172L204.785,44.86L205.508,44.451L206.23,43.953L206.953,43.625L207.676,43.229L208.398,42.872L209.121,42.486L209.844,42.112L210.566,41.762L211.289,41.193L212.012,40.978L212.734,40.68L213.457,40.344L214.18,39.974L214.902,39.695L215.625,39.351L216.348,39.002L217.07,38.809L217.793,38.594L218.516,38.15L219.238,37.763L219.961,37.47L220.684,37.301L221.406,37.029L222.129,36.699L222.852,36.424L223.574,36.22L224.297,36.017L225.02,35.696L225.742,35.4L226.465,35.125L227.188,34.963L227.91,34.691L228.633,34.513L229.355,34.245L230.078,34.187L230.801,33.984L231.523,33.722L232.246,33.652L232.969,33.366L233.691,33.169L234.414,32.913L235.137,32.772L235.859,32.592L236.582,32.349L237.305,32.182L238.027,32.095L238.75,31.942L239.473,31.82L240.195,31.632L240.918,31.393L241.641,31.304L242.363,31.145L243.086,31.018L243.809,30.899L244.531,30.812L245.254,30.547L245.977,30.443L246.699,30.298L247.422,30.149L248.145,29.984L248.867,29.84L249.59,29.827L250.313,29.696L251.035,29.531L251.758,29.444L252.48,29.383L253.203,29.187L253.926,29.107L254.648,28.976L255.371,28.902L256.094,28.755L256.816,28.668L257.539,28.576L258.262,28.49L258.984,28.369L259.707,28.38L260.43,28.268L261.152,28.156L261.875,28.064L262.598,27.98L263.32,27.865L264.043,27.864L264.766,27.738L265.488,27.753L266.211,27.685L266.934,27.714L267.656,27.59L268.379,27.557L269.102,27.504L269.824,27.398L270.547,27.431L271.27,27.313L271.992,27.309L272.715,27.233L273.438,27.206L274.16,27.171L274.883,27.115L275.605,27.077L276.328,27.04L277.051,27.026L277.773,26.958L278.496,26.905L279.219,26.863L279.941,26.857L280.664,26.762L281.387,26.686L282.109,26.632L282.832,26.591L283.555,26.558L284.277,26.444L285,26.371L285.723,26.337L286.445,26.23L287.168,26.169L287.891,26.083L288.613,26.037L289.336,25.946L290.059,25.892L290.781,25.817L291.504,25.67L292.227,25.594L292.949,25.509L293.672,25.438L294.395,25.35L295.117,25.269L295.84,25.19L296.563,25.079L297.285,24.985L298.008,24.949L298.73,24.813L299.453,24.718L300.176,24.666L300.898,24.567L301.621,24.494L302.344,24.392L303.066,24.299L303.789,24.226L304.512,24.172L305.234,24.038L305.957,23.948L306.68,23.882L307.402,23.806L308.125,23.735L308.848,23.659L309.57,23.585L310.293,23.5L311.016,23.459L311.738,23.367L312.461,23.305L313.184,23.221L313.906,23.166L314.629,23.09L315.352,23.003L316.074,22.978L316.797,22.893L317.52,22.826L318.242,22.779L318.965,22.699L319.688,22.654L320.41,22.608L321.133,22.563L321.855,22.505L322.578,22.439L323.301,22.389L324.023,22.333L324.746,22.296L325.469,22.24L326.191,22.158L326.914,22.125L327.637,22.071L328.359,22.04L329.082,21.99L329.805,21.953L330.527,21.875L331.25,21.862L331.973,21.799L332.695,21.782L333.418,21.745L334.141,21.688L334.863,21.662L335.586,21.623L336.309,21.614L337.031,21.538L337.754,21.522L338.477,21.493L339.199,21.462L339.922,21.445L340.645,21.404L341.367,21.375L342.09,21.358L342.813,21.313L343.535,21.29L344.258,21.254L344.98,21.246L345.703,21.207L346.426,21.187L347.148,21.157L347.871,21.124L348.594,21.141L349.316,21.091L350.039,21.091L350.762,21.059L351.484,21.022L352.207,21.017L352.93,20.983L353.652,20.995L354.375,20.938L355.098,20.937L355.82,20.923L356.543,20.9L357.266,20.876L357.988,20.855L358.711,20.844L359.434,20.832L360.156,20.823L360.879,20.81L361.602,20.81L362.324,20.778L363.047,20.774L363.77,20.772L364.492,20.729L365.215,20.738L365.938,20.72L366.66,20.691L367.383,20.693L368.105,20.688L368.828,20.668L369.551,20.675L370.273,20.65L370.996,20.649L371.719,20.653L372.441,20.632L373.164,20.611L373.887,20.619L374.609,20.596L375.332,20.581L376.055,20.58L376.777,20.578L377.5,20.564L378.223,20.553L378.945,20.547L379.668,20.543L380.391,20.553L381.113,20.543L381.836,20.516L382.559,20.522L383.281,20.5L384.004,20.5L384.727,20.504L385.449,20.483L386.172,20.478L386.895,20.483L387.617,20.469L388.34,20.467L389.063,20.456L389.785,20.458L390.508,20.445L391.23,20.443L391.953,20.426L392.676,20.426L393.398,20.406L394.121,20.416L394.844,20.424L395.566,20.405L396.289,20.408L397.012,20.406L397.734,20.381L398.457,20.374L399.18,20.369L399.902,20.359L400.625,20.356L401.348,20.365L402.07,20.357L402.793,20.348L403.516,20.345L404.238,20.334L404.961,20.321L405.684,20.328L406.406,20.309L407.129,20.325L407.852,20.315L408.574,20.303L409.297,20.285L410.02,20.285L410.742,20.289L411.465,20.285L412.188,20.278L412.91,20.265L413.633,20.25L414.355,20.264L415.078,20.252L415.801,20.242L416.523,20.23L417.246,20.215L417.969,20.227L418.691,20.225L419.414,20.212L420.137,20.205L420.859,20.198L421.582,20.188L422.305,20.191L423.027,20.187L423.75,20.188L424.473,20.172L425.195,20.177L425.918,20.178L426.641,20.166L427.363,20.16L428.086,20.158L428.809,20.149L429.531,20.144L430.254,20.145L430.977,20.138L431.699,20.131L432.422,20.128L433.145,20.125L433.867,20.121L434.59,20.113L435.313,20.115L436.035,20.111L436.758,20.109L437.48,20.103L438.203,20.094L438.926,20.088L439.648,20.089L440.371,20.089L441.094,20.08L441.816,20.08L442.539,20.08L443.262,20.083L443.984,20.072L444.707,20.072L445.43,20.067L446.152,20.066L446.875,20.06L447.598,20.058L448.32,20.059L449.043,20.055L449.766,20.052L450.488,20.056L451.211,20.043L451.934,20.041L452.656,20.047L453.379,20.04L454.102,20.04L454.824,20.037L455.547,20.036L456.27,20.036L456.992,20.032L457.715,20.035L458.438,20.036L459.16,20.03L459.883,20.028L460.605,20.024L461.328,20.023L462.051,20.025L462.773,20.024L463.496,20.018L464.219,20.019L464.941,20.023L465.664,20.017L466.387,20.016L467.109,20.017L467.832,20.017L468.555,20.012L469.277,20.013"/><path fill="none" stroke="rgb(255, 130, 29)" stroke-width="1.5" d="M100,148.316L100.723,146.854L101.445,145.342L102.168,143.994L102.891,142.325L103.613,140.707L104.336,139.323L105.059,137.668L105.781,136.154L106.504,134.609L107.227,132.993L107.949,131.222L108.672,129.85L109.395,128.089L110.117,126.446L110.84,124.762L111.563,123.178L112.285,121.571L113.008,120.003L113.73,118.204L114.453,116.764L115.176,114.942L115.898,113.408L116.621,111.822L117.344,110.211L118.066,108.52L118.789,106.909L119.512,105.292L120.234,103.575L120.957,102.102L121.68,100.555L122.402,98.897L123.125,97.394L123.848,95.9L124.57,94.179L125.293,92.705L126.016,91.237L126.738,89.639L127.461,88.351L128.184,86.884L128.906,85.525L129.629,83.941L130.352,82.598L131.074,81.258L131.797,79.811L132.52,78.394L133.242,77.084L133.965,75.632L134.688,74.457L135.41,72.889L136.133,71.686L136.855,70.441L137.578,69.058L138.301,67.997L139.023,66.794L139.746,65.4L140.469,64.373L141.191,63.093L141.914,61.947L142.637,60.82L143.359,59.564L144.082,58.508L144.805,57.492L145.527,56.3L146.25,55.289L146.973,54.309L147.695,53.248L148.418,54.15L149.141,55.388L149.863,56.772L150.586,58.102L151.309,59.387L152.031,60.692L152.754,60.739L153.477,60.124L154.199,59.644L154.922,58.994L155.645,58.613L156.367,57.969L157.09,57.36L157.813,56.734L158.535,56.206L159.258,55.773L159.98,55.152L160.703,54.593L161.426,54.195L162.148,53.523L162.871,53.06L163.594,52.566L164.316,52.098L165.039,51.557L165.762,51.098L166.484,50.592L167.207,50.076L167.93,49.665L168.652,49.258L169.375,48.499L170.098,48.158L170.82,47.717L171.543,47.304L172.266,46.847L172.988,46.49L173.711,46.063L174.434,45.517L175.156,45.089L175.879,44.583L176.602,44.323L177.324,43.895L178.047,43.471L178.77,43.075L179.492,42.735L180.215,42.349L180.938,41.929L181.66,41.617L182.383,41.19L183.105,40.848L183.828,40.45L184.551,40.159L185.273,39.756L185.996,39.474L186.719,39.195L187.441,38.85L188.164,38.55L188.887,38.166L189.609,37.862L190.332,37.618L191.055,37.294L191.777,36.964L192.5,36.737L193.223,36.368L193.945,36.165L194.668,35.869L195.391,35.63L196.113,35.376L196.836,34.998L197.559,34.798L198.281,34.526L199.004,34.294L199.727,34.111L200.449,33.869L201.172,33.691L201.895,33.548L202.617,33.152L203.34,32.982L204.063,32.791L204.785,32.679L205.508,32.393L206.23,32.037L206.953,32.036L207.676,31.802L208.398,31.639L209.121,31.411L209.844,31.228L210.566,31.203L211.289,30.875L212.012,30.761L212.734,30.562L213.457,30.371L214.18,30.254L214.902,30.117L215.625,29.962L216.348,29.768L217.07,29.643L217.793,29.532L218.516,29.348L219.238,29.199L219.961,29.082L220.684,29.001L221.406,28.783L222.129,28.601L222.852,28.546L223.574,28.497L224.297,28.266L225.02,28.2L225.742,28.071L226.465,27.89L227.188,27.828L227.91,27.772L228.633,27.605L229.355,27.581L230.078,27.394L230.801,27.302L231.523,27.221L232.246,27.076L232.969,26.932L233.691,26.841L234.414,26.771L235.137,26.759L235.859,26.609L236.582,26.533L237.305,26.413L238.027,26.373L238.75,26.259L239.473,26.207L240.195,26.115L240.918,26.063L241.641,25.943L242.363,25.896L243.086,25.777L243.809,25.69L244.531,25.685L245.254,25.521L245.977,25.492L246.699,25.461L247.422,25.411L248.145,25.321L248.867,25.217L249.59,25.202L250.313,25.17L251.035,25.063L251.758,25.013L252.48,24.952L253.203,24.957L253.926,24.887L254.648,24.788L255.371,24.772L256.094,24.77L256.816,24.73L257.539,24.638L258.262,24.619L258.984,24.558L259.707,24.571L260.43,24.534L261.152,24.5L261.875,24.466L262.598,24.478L263.32,24.419L264.043,24.431L264.766,24.389L265.488,24.427L266.211,24.334L266.934,24.377L267.656,24.356L268.379,24.372L269.102,24.376L269.824,24.359L270.547,24.393L271.27,24.385L271.992,24.412L272.715,24.383L273.438,24.41L274.16,24.398L274.883,24.381L275.605,24.412L276.328,24.391L277.051,24.448L277.773,24.408L278.496,24.458L279.219,24.46L279.941,24.435L280.664,24.437L281.387,24.422L282.109,24.392L282.832,24.371L283.555,24.353L284.277,24.332L285,24.33L285.723,24.27L286.445,24.25L287.168,24.215L287.891,24.165L288.613,24.135L289.336,24.103L290.059,24.073L290.781,24.05L291.504,23.975L292.227,23.928L292.949,23.861L293.672,23.845L294.395,23.769L295.117,23.713L295.84,23.657L296.563,23.631L297.285,23.556L298.008,23.528L298.73,23.465L299.453,23.399L300.176,23.332L300.898,23.266L301.621,23.227L302.344,23.149L303.066,23.112L303.789,23.053L304.512,22.991L305.234,22.929L305.957,22.891L306.68,22.828L307.402,22.774L308.125,22.701L308.848,22.652L309.57,22.617L310.293,22.557L311.016,22.515L311.738,22.461L312.461,22.416L313.184,22.337L313.906,22.288L314.629,22.255L315.352,22.206L316.074,22.156L316.797,22.102L317.52,22.067L318.242,22.034L318.965,21.979L319.688,21.968L320.41,21.912L321.133,21.88L321.855,21.837L322.578,21.784L323.301,21.743L324.023,21.699L324.746,21.674L325.469,21.625L326.191,21.616L326.914,21.569L327.637,21.544L328.359,21.509L329.082,21.481L329.805,21.44L330.527,21.417L331.25,21.38L331.973,21.362L332.695,21.334L333.418,21.313L334.141,21.284L334.863,21.256L335.586,21.209L336.309,21.189L337.031,21.176L337.754,21.178L338.477,21.142L339.199,21.128L339.922,21.09L340.645,21.085L341.367,21.063L342.09,21.03L342.813,21.012L343.535,20.997L344.258,20.969L344.98,20.955L345.703,20.946L346.426,20.918L347.148,20.914L347.871,20.898L348.594,20.869L349.316,20.849L350.039,20.839L350.762,20.851L351.484,20.831L352.207,20.809L352.93,20.797L353.652,20.787L354.375,20.759L355.098,20.757L355.82,20.737L356.543,20.732L357.266,20.713L357.988,20.698L358.711,20.684L359.434,20.668L360.156,20.664L360.879,20.657L361.602,20.652L362.324,20.65L363.047,20.642L363.77,20.625L364.492,20.604L365.215,20.611L365.938,20.612L366.66,20.593L367.383,20.586L368.105,20.578L368.828,20.578L369.551,20.551L370.273,20.555L370.996,20.543L371.719,20.531L372.441,20.526L373.164,20.544L373.887,20.528L374.609,20.525L375.332,20.513L376.055,20.508L376.777,20.492L377.5,20.486L378.223,20.496L378.945,20.485L379.668,20.489L380.391,20.478L381.113,20.467L381.836,20.466L382.559,20.464L383.281,20.457L384.004,20.454L384.727,20.44L385.449,20.444L386.172,20.436L386.895,20.42L387.617,20.421L388.34,20.422L389.063,20.421L389.785,20.416L390.508,20.405L391.23,20.395L391.953,20.401L392.676,20.401L393.398,20.395L394.121,20.399L394.844,20.384L395.566,20.376L396.289,20.379L397.012,20.377L397.734,20.365L398.457,20.361L399.18,20.363L399.902,20.358L400.625,20.345L401.348,20.349L402.07,20.334L402.793,20.341L403.516,20.332L404.238,20.336L404.961,20.313L405.684,20.322L406.406,20.298L407.129,20.312L407.852,20.299L408.574,20.298L409.297,20.283L410.02,20.286L410.742,20.287L411.465,20.275L412.188,20.281L412.91,20.25L413.633,20.259L414.355,20.254L415.078,20.248L415.801,20.245L416.523,20.237L417.246,20.238L417.969,20.223L418.691,20.228L419.414,20.218L420.137,20.206L420.859,20.223L421.582,20.206L422.305,20.197L423.027,20.187L423.75,20.182L424.473,20.188L425.195,20.175L425.918,20.179L426.641,20.167L427.363,20.163L428.086,20.162L428.809,20.16L429.531,20.148L430.254,20.151L430.977,20.137L431.699,20.138L432.422,20.139L433.145,20.137L433.867,20.121L434.59,20.124L435.313,20.126L436.035,20.116L436.758,20.119L437.48,20.104L438.203,20.097L438.926,20.098L439.648,20.104L440.371,20.086L441.094,20.081L441.816,20.091L442.539,20.085L443.262,20.078L443.984,20.073L444.707,20.079L445.43,20.073L446.152,20.07L446.875,20.069L447.598,20.067L448.32,20.057L449.043,20.06L449.766,20.063L450.488,20.055L451.211,20.056L451.934,20.05L452.656,20.048L453.379,20.046L454.102,20.041L454.824,20.042L455.547,20.039L456.27,20.038L456.992,20.039L457.715,20.035L458.438,20.033L459.16,20.035L459.883,20.035L460.605,20.026L461.328,20.032L462.051,20.03L462.773,20.029L463.496,20.026L464.219,20.025L464.941,20.025L465.664,20.021L466.387,20.02L467.109,20.018L467.832,20.017L468.555,20.018L469.277,20.015"/><path fill="none" stroke="rgb(203, 47, 13)" stroke-width="1.5" d="M100,34.786L100.723,34.74L101.445,34.583L102.168,34.518L102.891,34.442L103.613,34.247L104.336,34.126L105.059,33.99L105.781,33.819L106.504,33.848L107.227,33.678L107.949,33.721L108.672,33.572L109.395,33.45L110.117,33.32L110.84,33.27L111.563,33.166L112.285,33.11L113.008,32.995L113.73,32.919L114.453,32.692L115.176,32.674L115.898,32.611L116.621,32.494L117.344,32.389L118.066,32.294L118.789,32.229L119.512,32.178L120.234,32.129L120.957,31.963L121.68,31.855L122.402,31.757L123.125,31.687L123.848,31.635L124.57,31.452L125.293,31.469L126.016,31.281L126.738,31.174L127.461,31.12L128.184,31.104L128.906,30.931L129.629,30.808L130.352,30.876L131.074,30.665L131.797,30.64L132.52,30.66L133.242,30.426L133.965,30.48L134.688,30.283L135.41,30.327L136.133,30.005L136.855,30.015L137.578,29.914L138.301,29.849L139.023,29.874L139.746,29.773L140.469,29.708L141.191,29.585L141.914,29.475L142.637,29.378L143.359,29.282L144.082,29.282L144.805,29.169L145.527,29.205L146.25,29.114L146.973,29.023L147.695,29.076L148.418,28.934L149.141,28.862L149.863,28.772L150.586,28.759L151.309,28.653L152.031,28.594L152.754,28.453L153.477,28.427L154.199,28.293L154.922,28.323L155.645,28.201L156.367,28.133L157.09,28.087L157.813,27.958L158.535,27.92L159.258,27.922L159.98,27.884L160.703,27.718L161.426,27.774L162.148,27.654L162.871,27.598L163.594,27.576L164.316,27.465L165.039,27.588L165.762,27.327L166.484,27.358L167.207,27.277L167.93,27.245L168.652,27.188L169.375,27.102L170.098,27.078L170.82,27.081L171.543,26.952L172.266,27.041L172.988,26.839L173.711,26.843L174.434,26.725L175.156,26.736L175.879,26.643L176.602,26.686L177.324,26.613L178.047,26.589L178.77,26.526L179.492,26.496L180.215,26.478L180.938,26.386L181.66,26.32L182.383,26.322L183.105,26.275L183.828,26.124L184.551,26.222L185.273,26.157L185.996,26.131L186.719,26.116L187.441,26.144L188.164,26.088L188.887,25.87L189.609,25.881L190.332,25.931L191.055,25.885L191.777,25.764L192.5,25.809L193.223,25.808L193.945,25.782L194.668,25.695L195.391,25.676L196.113,25.599L196.836,25.628L197.559,25.573L198.281,25.574L199.004,25.471L199.727,25.357L200.449,25.445L201.172,25.343L201.895,25.368L202.617,25.355L203.34,25.316L204.063,25.278L204.785,25.286L205.508,25.258L206.23,25.21L206.953,25.168L207.676,25.136L208.398,25.2L209.121,25.089L209.844,25.091L210.566,25.018L211.289,25.015L212.012,24.965L212.734,25.008L213.457,24.995L214.18,24.933L214.902,24.922L215.625,24.846L216.348,24.874L217.07,24.843L217.793,24.809L218.516,24.894L219.238,24.813L219.961,24.758L220.684,24.75L221.406,24.727L222.129,24.698L222.852,24.693L223.574,24.696L224.297,24.613L225.02,24.58L225.742,24.625L226.465,24.527L227.188,24.536L227.91,24.595L228.633,24.504L229.355,24.5L230.078,24.471L230.801,24.505L231.523,24.433L232.246,24.462L232.969,24.415L233.691,24.447L234.414,24.439L235.137,24.417L235.859,24.387L236.582,24.341L237.305,24.364L238.027,24.293L238.75,24.272L239.473,24.279L240.195,24.292L240.918,24.314L241.641,24.266L242.363,24.258L243.086,24.208L243.809,24.248L244.531,24.2L245.254,24.161L245.977,24.21L246.699,24.152L247.422,24.228L248.145,24.099L248.867,24.129L249.59,24.159L250.313,24.138L251.035,24.141L251.758,24.098L252.48,24.132L253.203,24.082L253.926,24.05L254.648,24.075L255.371,24.092L256.094,24.059L256.816,24.035L257.539,24.078L258.262,24.058L258.984,24.063L259.707,24.051L260.43,24.052L261.152,24.116L261.875,24.065L262.598,24.083L263.32,24.108L264.043,24.081L264.766,24.117L265.488,24.164L266.211,24.205L266.934,24.193L267.656,24.22L268.379,24.222L269.102,24.271L269.824,24.282L270.547,24.328L271.27,24.329L271.992,24.367L272.715,24.383L273.438,24.417L274.16,24.434L274.883,24.433L275.605,24.452L276.328,24.497L277.051,24.507L277.773,24.554L278.496,24.57L279.219,24.543L279.941,24.58L280.664,24.578L281.387,24.556L282.109,24.579L282.832,24.551L283.555,24.553L284.277,24.563L285,24.538L285.723,24.51L286.445,24.489L287.168,24.45L287.891,24.46L288.613,24.417L289.336,24.37L290.059,24.302L290.781,24.275L291.504,24.271L292.227,24.226L292.949,24.127L293.672,24.108L294.395,24.095L295.117,24.026L295.84,23.992L296.563,23.91L297.285,23.87L298.008,23.819L298.73,23.771L299.453,23.684L300.176,23.636L300.898,23.619L301.621,23.545L302.344,23.48L303.066,23.442L303.789,23.353L304.512,23.299L305.234,23.258L305.957,23.188L306.68,23.135L307.402,23.092L308.125,23.046L308.848,22.99L309.57,22.946L310.293,22.889L311.016,22.842L311.738,22.792L312.461,22.727L313.184,22.676L313.906,22.663L314.629,22.599L315.352,22.538L316.074,22.507L316.797,22.462L317.52,22.397L318.242,22.364L318.965,22.319L319.688,22.284L320.41,22.217L321.133,22.209L321.855,22.154L322.578,22.092L323.301,22.055L324.023,22.047L324.746,22.007L325.469,21.975L326.191,21.942L326.914,21.892L327.637,21.892L328.359,21.816L329.082,21.794L329.805,21.758L330.527,21.73L331.25,21.705L331.973,21.68L332.695,21.666L333.418,21.595L334.141,21.581L334.863,21.565L335.586,21.527L336.309,21.52L337.031,21.481L337.754,21.468L338.477,21.456L339.199,21.418L339.922,21.399L340.645,21.364L341.367,21.349L342.09,21.331L342.813,21.294L343.535,21.271L344.258,21.296L344.98,21.242L345.703,21.219L346.426,21.224L347.148,21.191L347.871,21.195L348.594,21.149L349.316,21.137L350.039,21.128L350.762,21.109L351.484,21.091L352.207,21.061L352.93,21.065L353.652,21.049L354.375,21.033L355.098,21.028L355.82,21.028L356.543,21.02L357.266,20.967L357.988,20.976L358.711,20.953L359.434,20.917L360.156,20.915L360.879,20.92L361.602,20.91L362.324,20.893L363.047,20.878L363.77,20.881L364.492,20.854L365.215,20.843L365.938,20.87L366.66,20.819L367.383,20.829L368.105,20.816L368.828,20.825L369.551,20.776L370.273,20.784L370.996,20.79L371.719,20.774L372.441,20.749L373.164,20.75L373.887,20.738L374.609,20.756L375.332,20.727L376.055,20.714L376.777,20.725L377.5,20.703L378.223,20.708L378.945,20.703L379.668,20.704L380.391,20.68L381.113,20.667L381.836,20.677L382.559,20.659L383.281,20.647L384.004,20.631L384.727,20.609L385.449,20.631L386.172,20.628L386.895,20.619L387.617,20.608L388.34,20.608L389.063,20.617L389.785,20.605L390.508,20.57L391.23,20.579L391.953,20.569L392.676,20.569L393.398,20.557L394.121,20.554L394.844,20.554L395.566,20.524L396.289,20.544L397.012,20.525L397.734,20.516L398.457,20.537L399.18,20.522L399.902,20.494L400.625,20.502L401.348,20.512L402.07,20.505L402.793,20.474L403.516,20.48L404.238,20.483L404.961,20.459L405.684,20.444L406.406,20.464L407.129,20.434L407.852,20.435L408.574,20.438L409.297,20.434L410.02,20.414L410.742,20.415L411.465,20.412L412.188,20.392L412.91,20.377L413.633,20.39L414.355,20.396L415.078,20.366L415.801,20.34L416.523,20.351L417.246,20.344L417.969,20.341L418.691,20.327L419.414,20.315L420.137,20.309L420.859,20.308L421.582,20.302L422.305,20.295L423.027,20.292L423.75,20.295L424.473,20.259L425.195,20.27L425.918,20.263L426.641,20.248L427.363,20.233L428.086,20.255L428.809,20.241L429.531,20.232L430.254,20.228L430.977,20.216L431.699,20.207L432.422,20.198L433.145,20.197L433.867,20.197L434.59,20.18L435.313,20.171L436.035,20.176L436.758,20.172L437.48,20.165L438.203,20.165L438.926,20.159L439.648,20.152L440.371,20.143L441.094,20.137L441.816,20.131L442.539,20.131L443.262,20.127L443.984,20.129L444.707,20.132L445.43,20.109L446.152,20.115L446.875,20.118L447.598,20.103L448.32,20.096L449.043,20.111L449.766,20.092L450.488,20.093L451.211,20.089L451.934,20.089L452.656,20.078L453.379,20.083L454.102,20.086L454.824,20.075L455.547,20.074L456.27,20.072L456.992,20.069L457.715,20.059L458.438,20.063L459.16,20.059L459.883,20.058L460.605,20.053L461.328,20.051L462.051,20.05L462.773,20.048L463.496,20.044L464.219,20.042L464.941,20.044L465.664,20.044L466.387,20.035L467.109,20.04L467.832,20.031L468.555,20.034L469.277,20.032"/><g transform="translate(15,190) scale(1.7) rotate(-90)"><text>Drift</text></g><g transform="translate(315,395) scale(1.8)"><text></text></g><g transform="translate(0,350)" fill="none" font-size="10" font-family="sans-serif" text-anchor="middle"><path class="domain" stroke="currentColor" d="M100,6V0H470V6"/><g class="tick" opacity="1" transform="translate(136.96669666966696,0)"><line stroke="currentColor" y2="6"/><text fill="currentColor" y="9" dy="0.71em" font-size="20px"> </text></g><g class="tick" opacity="1" transform="translate(173.97039703970398,0)"><line stroke="currentColor" y2="6"/><text fill="currentColor" y="9" dy="0.71em" font-size="20px">20</text></g><g class="tick" opacity="1" transform="translate(210.97409740974098,0)"><line stroke="currentColor" y2="6"/><text fill="currentColor" y="9" dy="0.71em" font-size="20px"> </text></g><g class="tick" opacity="1" transform="translate(247.97779777977803,0)"><line stroke="currentColor" y2="6"/><text fill="currentColor" y="9" dy="0.71em" font-size="20px">40</text></g><g class="tick" opacity="1" transform="translate(284.981498149815,0)"><line stroke="currentColor" y2="6"/><text fill="currentColor" y="9" dy="0.71em" font-size="20px"> </text></g><g class="tick" opacity="1" transform="translate(321.985198519852,0)"><line stroke="currentColor" y2="6"/><text fill="currentColor" y="9" dy="0.71em" font-size="20px">60</text></g><g class="tick" opacity="1" transform="translate(358.988898889889,0)"><line stroke="currentColor" y2="6"/><text fill="currentColor" y="9" dy="0.71em" font-size="20px"> </text></g><g class="tick" opacity="1" transform="translate(395.992599259926,0)"><line stroke="currentColor" y2="6"/><text fill="currentColor" y="9" dy="0.71em" font-size="20px">80</text></g><g class="tick" opacity="1" transform="translate(432.996299629963,0)"><line stroke="currentColor" y2="6"/><text fill="currentColor" y="9" dy="0.71em" font-size="20px"> </text></g><g class="tick" opacity="1" transform="translate(470,0)"><line stroke="currentColor" y2="6"/><text fill="currentColor" y="9" dy="0.71em" font-size="20px">100</text></g></g><g transform="translate(100,0)" fill="none" font-size="10" font-family="sans-serif" text-anchor="end"><path class="domain" stroke="currentColor" d="M-6,350H0V20H-6"/><g class="tick" opacity="1" transform="translate(0,309.4103511910539)"><line stroke="currentColor" x2="-6"/><text fill="currentColor" x="-9" dy="0.32em" font-size="20px">0.7</text></g><g class="tick" opacity="1" transform="translate(0,267.05671379712726)"><line stroke="currentColor" x2="-6"/><text fill="currentColor" x="-9" dy="0.32em" font-size="20px">0.6</text></g><g class="tick" opacity="1" transform="translate(0,224.70307640320055)"><line stroke="currentColor" x2="-6"/><text fill="currentColor" x="-9" dy="0.32em" font-size="20px">0.5</text></g><g class="tick" opacity="1" transform="translate(0,182.3494390092739)"><line stroke="currentColor" x2="-6"/><text fill="currentColor" x="-9" dy="0.32em" font-size="20px">0.4</text></g><g class="tick" opacity="1" transform="translate(0,139.9958016153472)"><line stroke="currentColor" x2="-6"/><text fill="currentColor" x="-9" dy="0.32em" font-size="20px">0.3</text></g><g class="tick" opacity="1" transform="translate(0,97.64216422142054)"><line stroke="currentColor" x2="-6"/><text fill="currentColor" x="-9" dy="0.32em" font-size="20px">0.2</text></g><g class="tick" opacity="1" transform="translate(0,55.28852682749381)"><line stroke="currentColor" x2="-6"/><text fill="currentColor" x="-9" dy="0.32em" font-size="20px">0.1</text></g></g><circle cx="355" cy="150" r="8" style="fill: rgb(35, 23, 27);"/><circle cx="355" cy="175" r="8" style="fill: rgb(69, 105, 238);"/><circle cx="355" cy="200" r="8" style="fill: rgb(38, 188, 225);"/><circle cx="355" cy="225" r="8" style="fill: rgb(63, 243, 147);"/><circle cx="355" cy="250" r="8" style="fill: rgb(149, 251, 81);"/><circle cx="355" cy="275" r="8" style="fill: rgb(236, 209, 46);"/><circle cx="355" cy="300" r="8" style="fill: rgb(255, 130, 29);"/><circle cx="355" cy="325" r="8" style="fill: rgb(203, 47, 13);"/><text x="370" y="150" text-anchor="left" font-size="22" alignment-baseline="middle" style="fill: rgb(35, 23, 27);"> = 0</text><text x="370" y="175" text-anchor="left" font-size="22" alignment-baseline="middle" style="fill: rgb(69, 105, 238);"> = 0.22</text><text x="370" y="200" text-anchor="left" font-size="22" alignment-baseline="middle" style="fill: rgb(38, 188, 225);"> = 0.45</text><text x="370" y="225" text-anchor="left" font-size="22" alignment-baseline="middle" style="fill: rgb(63, 243, 147);"> = 0.67</text><text x="370" y="250" text-anchor="left" font-size="22" alignment-baseline="middle" style="fill: rgb(149, 251, 81);"> = 0.9</text><text x="370" y="275" text-anchor="left" font-size="22" alignment-baseline="middle" style="fill: rgb(236, 209, 46);"> = 1.12</text><text x="370" y="300" text-anchor="left" font-size="22" alignment-baseline="middle" style="fill: rgb(255, 130, 29);"> = 1.35</text><text x="370" y="325" text-anchor="left" font-size="22" alignment-baseline="middle" style="fill: rgb(203, 47, 13);"> = 1.57</text></svg>