<svg xmlns="http://www.w3.org/2000/svg" class="bg-white" width="500" height="400" viewBox="-10 -1 500 400"><path fill="none" stroke="rgb(35, 23, 27)" stroke-width="1.5" d="M100,105.552L100.723,106.05L101.445,105.997L102.168,106.354L102.891,106.594L103.613,107.06L104.336,107.316L105.059,107.462L105.781,107.785L106.504,108.071L107.227,108.415L107.949,108.885L108.672,109.049L109.395,109.471L110.117,109.738L110.84,110.332L111.563,110.513L112.285,110.793L113.008,111.342L113.73,111.572L114.453,111.923L115.176,112.36L115.898,112.806L116.621,113.22L117.344,113.591L118.066,114.029L118.789,114.496L119.512,114.835L120.234,115.529L120.957,115.748L121.68,116.26L122.402,116.764L123.125,117.437L123.848,118.042L124.57,118.389L125.293,118.746L126.016,119.453L126.738,119.867L127.461,120.652L128.184,121.13L128.906,121.751L129.629,122.235L130.352,122.945L131.074,123.5L131.797,124.231L132.52,124.967L133.242,125.609L133.965,126.266L134.688,127.067L135.41,127.588L136.133,128.457L136.855,129.079L137.578,129.888L138.301,130.82L139.023,131.505L139.746,132.346L140.469,133.115L141.191,134.164L141.914,135.037L142.637,135.656L143.359,136.75L144.082,137.693L144.805,138.851L145.527,139.78L146.25,140.718L146.973,142.031L147.695,142.863L148.418,144.074L149.141,145.042L149.863,146.363L150.586,147.533L151.309,148.755L152.031,150.002L152.754,151.297L153.477,152.705L154.199,154.204L154.922,155.728L155.645,157.113L156.367,158.667L157.09,160.123L157.813,161.9L158.535,163.561L159.258,165.111L159.98,167.136L160.703,169.011L161.426,170.723L162.148,172.759L162.871,175.013L163.594,177.161L164.316,179.335L165.039,181.621L165.762,183.683L166.484,186.501L167.207,188.958L167.93,191.429L168.652,194.266L169.375,197.078L170.098,199.886L170.82,202.972L171.543,205.989L172.266,209.103L172.988,212.601L173.711,215.754L174.434,219.201L175.156,222.584L175.879,226.377L176.602,229.852L177.324,233.704L178.047,237.206L178.77,240.727L179.492,244.717L180.215,249.014L180.938,252.55L181.66,256.991L182.383,260.964L183.105,264.287L183.828,268.373L184.551,272.418L185.273,276.189L185.996,280.206L186.719,284.069L187.441,287.752L188.164,291.936L188.887,295.614L189.609,299.266L190.332,302.352L191.055,305.799L191.777,309.704L192.5,312.87L193.223,316.153L193.945,319.263L194.668,321.979L195.391,324.884L196.113,327.15L196.836,330.389L197.559,332.79L198.281,334.852L199.004,337.002L199.727,339.044L200.449,340.59L201.172,342.21L201.895,343.664L202.617,345.42L203.34,346.519L204.063,347.505L204.785,348.289L205.508,349.278L206.23,349.414L206.953,349.694L207.676,349.998L208.398,350L209.121,349.74L209.844,349.59L210.566,348.918L211.289,348.936L212.012,347.715L212.734,346.856L213.457,345.72L214.18,344.349L214.902,343.757L215.625,341.719L216.348,340.125L217.07,338.249L217.793,336.74L218.516,334.761L219.238,332.729L219.961,330.367L220.684,328.412L221.406,325.79L222.129,323.243L222.852,320.879L223.574,318.238L224.297,315.605L225.02,312.753L225.742,309.862L226.465,306.997L227.188,304.328L227.91,301.222L228.633,298.08L229.355,294.815L230.078,291.532L230.801,288.308L231.523,285.257L232.246,281.617L232.969,278.677L233.691,275.301L234.414,271.839L235.137,268.051L235.859,264.797L236.582,261.685L237.305,258.094L238.027,254.441L238.75,250.751L239.473,247.8L240.195,243.355L240.918,240.102L241.641,236.964L242.363,233.5L243.086,229.946L243.809,226.449L244.531,223.099L245.254,219.534L245.977,216.037L246.699,212.369L247.422,209.202L248.145,205.093L248.867,201.625L249.59,199.355L250.313,195.654L251.035,191.767L251.758,188.411L252.48,185.204L253.203,182.711L253.926,179.412L254.648,175.723L255.371,173.068L256.094,169.3L256.816,166.31L257.539,163.93L258.262,160.546L258.984,157.57L259.707,154.749L260.43,151.578L261.152,148.854L261.875,145.936L262.598,142.346L263.32,139.496L264.043,137.088L264.766,133.953L265.488,131.712L266.211,129.035L266.934,126.117L267.656,123.524L268.379,120.491L269.102,118.234L269.824,115.684L270.547,113.025L271.27,110.254L271.992,108.128L272.715,105.495L273.438,103.059L274.16,102.179L274.883,102.922L275.605,103.56L276.328,103.739L277.051,104.875L277.773,105.376L278.496,105.618L279.219,103.817L279.941,101.847L280.664,100.23L281.387,98.485L282.109,96.914L282.832,95.392L283.555,93.728L284.277,92.123L285,90.669L285.723,89.055L286.445,87.771L287.168,86.199L287.891,84.819L288.613,83.411L289.336,81.869L290.059,80.593L290.781,79.267L291.504,77.906L292.227,76.652L292.949,75.393L293.672,74.081L294.395,72.872L295.117,71.681L295.84,70.423L296.563,69.169L297.285,68.093L298.008,66.918L298.73,65.851L299.453,64.666L300.176,63.721L300.898,62.692L301.621,61.542L302.344,60.613L303.066,59.529L303.789,58.557L304.512,57.572L305.234,56.536L305.957,55.727L306.68,54.754L307.402,53.861L308.125,52.971L308.848,52.169L309.57,51.208L310.293,50.558L311.016,49.673L311.738,48.784L312.461,48.054L313.184,47.306L313.906,46.558L314.629,45.955L315.352,45.036L316.074,44.481L316.797,43.682L317.52,42.878L318.242,42.413L318.965,41.604L319.688,41.033L320.41,40.145L321.133,39.833L321.855,39.168L322.578,38.535L323.301,38.03L324.023,37.448L324.746,36.943L325.469,36.486L326.191,35.855L326.914,35.36L327.637,34.861L328.359,34.285L329.082,33.934L329.805,33.492L330.527,33.058L331.25,32.551L331.973,31.929L332.695,31.755L333.418,31.347L334.141,31.076L334.863,30.326L335.586,30.143L336.309,29.908L337.031,29.534L337.754,29.083L338.477,28.909L339.199,28.431L339.922,28.289L340.645,27.836L341.367,27.677L342.09,27.301L342.813,27.022L343.535,26.904L344.258,26.471L344.98,26.334L345.703,26.209L346.426,25.946L347.148,25.727L347.871,25.526L348.594,25.078L349.316,24.848L350.039,24.977L350.762,24.796L351.484,24.468L352.207,24.33L352.93,24.063L353.652,24.005L354.375,24.1L355.098,23.353L355.82,23.56L356.543,23.492L357.266,23.465L357.988,23.198L358.711,22.929L359.434,23.029L360.156,22.765L360.879,22.866L361.602,22.702L362.324,22.751L363.047,22.248L363.77,22.615L364.492,22.266L365.215,22.122L365.938,22.053L366.66,21.83L367.383,22.094L368.105,21.95L368.828,21.918L369.551,21.98L370.273,22.092L370.996,21.729L371.719,21.781L372.441,21.752L373.164,21.828L373.887,21.597L374.609,22.163L375.332,21.901L376.055,21.468L376.777,21.15L377.5,20.978L378.223,21.149L378.945,21.517L379.668,21.123L380.391,21.152L381.113,21.318L381.836,21.161L382.559,21.229L383.281,21.045L384.004,20.833L384.727,21.577L385.449,21.31L386.172,21.554L386.895,21.262L387.617,21.607L388.34,22.097L389.063,21.544L389.785,21.292L390.508,21.393L391.23,21.239L391.953,22.109L392.676,21.59L393.398,21.596L394.121,21.88L394.844,21.77L395.566,21.612L396.289,21.606L397.012,21.48L397.734,21.718L398.457,21.65L399.18,21.894L399.902,21.065L400.625,23.177L401.348,22.981L402.07,22.516L402.793,22.604L403.516,22.121L404.238,22.679L404.961,23.578L405.684,23.823L406.406,24.44L407.129,24.11L407.852,25.427L408.574,24.444L409.297,26.691L410.02,25.915L410.742,23.907L411.465,25.058L412.188,24.647L412.91,26.409L413.633,26.224L414.355,27.001L415.078,28.049L415.801,29.063L416.523,28.499L417.246,28.705L417.969,28.936L418.691,31.556L419.414,28.781L420.137,30.382L420.859,30.336L421.582,29.555L422.305,30.617L423.027,29.867L423.75,31.354L424.473,31.39L425.195,30.349L425.918,29.877L426.641,30.388L427.363,31.108L428.086,30.419L428.809,29.676L429.531,28.647L430.254,28.861L430.977,28.267L431.699,28.525L432.422,28.607L433.145,27.309L433.867,26.889L434.59,27.627L435.313,26.355L436.035,26.444L436.758,26.035L437.48,25.945L438.203,26.368L438.926,25.279L439.648,24.723L440.371,25.506L441.094,23.848L441.816,24.727L442.539,24.417L443.262,24.187L443.984,24.317L444.707,23.635L445.43,23.799L446.152,23.49L446.875,23.1L447.598,22.927L448.32,22.834L449.043,22.893L449.766,22.532L450.488,22.518L451.211,22.085L451.934,21.636L452.656,22.264L453.379,21.481L454.102,21.719L454.824,21.769L455.547,21.804L456.27,21.753L456.992,21.483L457.715,21.427L458.438,21.161L459.16,21.37L459.883,21.236L460.605,21.063L461.328,20.953L462.051,21.18L462.773,21.128L463.496,20.923L464.219,21.003L464.941,20.98L465.664,20.953L466.387,20.708L467.109,20.761L467.832,20.855L468.555,20.584L469.277,20.623"/><path fill="none" stroke="rgb(69, 105, 238)" stroke-width="1.5" d="M100,105.3L100.723,105.38L101.445,105.773L102.168,106.104L102.891,106.347L103.613,106.71L104.336,106.864L105.059,107.234L105.781,107.463L106.504,107.811L107.227,108.108L107.949,108.435L108.672,108.756L109.395,109.122L110.117,109.429L110.84,109.741L111.563,110.093L112.285,110.434L113.008,110.71L113.73,111.168L114.453,111.592L115.176,111.821L115.898,112.302L116.621,112.734L117.344,113.111L118.066,113.553L118.789,113.984L119.512,114.491L120.234,114.746L120.957,115.256L121.68,115.792L122.402,116.31L123.125,116.578L123.848,117.092L124.57,117.75L125.293,118.23L126.016,118.815L126.738,119.306L127.461,119.763L128.184,120.372L128.906,120.95L129.629,121.467L130.352,121.993L131.074,122.836L131.797,123.389L132.52,124.041L133.242,124.673L133.965,125.373L134.688,125.985L135.41,126.725L136.133,127.28L136.855,128.078L137.578,128.927L138.301,129.682L139.023,130.394L139.746,131.285L140.469,132.06L141.191,132.927L141.914,133.64L142.637,134.55L143.359,135.4L144.082,136.471L144.805,137.16L145.527,138.23L146.25,139.162L146.973,140.303L147.695,141.125L148.418,142.362L149.141,143.497L149.863,144.403L150.586,145.561L151.309,146.749L152.031,148.013L152.754,149.271L153.477,150.478L154.199,151.758L154.922,152.901L155.645,154.27L156.367,155.758L157.09,157.251L157.813,158.74L158.535,160.172L159.258,161.824L159.98,163.322L160.703,165.078L161.426,166.558L162.148,168.21L162.871,169.917L163.594,171.913L164.316,173.711L165.039,175.477L165.762,177.506L166.484,179.397L167.207,181.339L167.93,183.518L168.652,185.402L169.375,187.722L170.098,189.994L170.82,192.125L171.543,194.309L172.266,196.688L172.988,199.092L173.711,201.595L174.434,203.866L175.156,206.149L175.879,208.713L176.602,211.254L177.324,213.955L178.047,216.237L178.77,218.74L179.492,221.615L180.215,223.894L180.938,226.355L181.66,229.289L182.383,231.448L183.105,234.389L183.828,236.778L184.551,239.066L185.273,241.775L185.996,244.369L186.719,246.507L187.441,248.845L188.164,251.351L188.887,253.453L189.609,255.673L190.332,258.077L191.055,260L191.777,262.014L192.5,264.286L193.223,265.723L193.945,267.762L194.668,269.578L195.391,271.29L196.113,272.653L196.836,274.144L197.559,275.625L198.281,276.309L199.004,277.682L199.727,278.916L200.449,279.798L201.172,280.55L201.895,281.195L202.617,281.753L203.34,282.382L204.063,282.413L204.785,282.765L205.508,283.078L206.23,282.972L206.953,282.825L207.676,282.736L208.398,282.471L209.121,282.12L209.844,281.39L210.566,280.813L211.289,280.079L212.012,279.187L212.734,277.939L213.457,277.115L214.18,275.698L214.902,274.488L215.625,273.343L216.348,271.575L217.07,270.338L217.793,268.462L218.516,267.124L219.238,264.9L219.961,263.175L220.684,261.288L221.406,259.379L222.129,257.252L222.852,255.074L223.574,253.072L224.297,250.602L225.02,248.54L225.742,246.036L226.465,243.602L227.188,240.969L227.91,238.451L228.633,236.267L229.355,233.434L230.078,230.774L230.801,228.185L231.523,225.438L232.246,222.985L232.969,220.332L233.691,217.399L234.414,214.519L235.137,211.922L235.859,209.264L236.582,206.289L237.305,203.607L238.027,200.684L238.75,197.892L239.473,195.1L240.195,192.302L240.918,189.284L241.641,186.381L242.363,183.748L243.086,180.99L243.809,178.11L244.531,175.389L245.254,172.688L245.977,169.884L246.699,166.966L247.422,164.272L248.145,161.515L248.867,158.918L249.59,156.246L250.313,153.442L251.035,150.97L251.758,148.413L252.48,145.672L253.203,142.969L253.926,140.499L254.648,138.301L255.371,135.444L256.094,133.257L256.816,130.538L257.539,128.115L258.262,125.795L258.984,123.432L259.707,120.993L260.43,118.705L261.152,116.534L261.875,114.09L262.598,111.994L263.32,109.767L264.043,107.776L264.766,105.615L265.488,103.251L266.211,101.409L266.934,99.343L267.656,97.328L268.379,95.401L269.102,93.56L269.824,91.551L270.547,89.735L271.27,87.852L271.992,85.838L272.715,84.089L273.438,85.351L274.16,86.747L274.883,87.87L275.605,89.086L276.328,90.555L277.051,91.692L277.773,91.084L278.496,89.846L279.219,88.495L279.941,87.53L280.664,86.275L281.387,84.986L282.109,83.823L282.832,82.65L283.555,81.651L284.277,80.465L285,79.397L285.723,78.376L286.445,77.306L287.168,76.15L287.891,75.121L288.613,74.075L289.336,72.937L290.059,71.983L290.781,71.04L291.504,69.981L292.227,69.113L292.949,68.222L293.672,67.026L294.395,66.257L295.117,65.096L295.84,64.309L296.563,63.401L297.285,62.445L298.008,61.521L298.73,60.576L299.453,59.852L300.176,59.008L300.898,58.164L301.621,57.21L302.344,56.496L303.066,55.607L303.789,54.766L304.512,53.762L305.234,53.251L305.957,52.52L306.68,51.676L307.402,50.879L308.125,50.071L308.848,49.442L309.57,48.615L310.293,48.137L311.016,47.488L311.738,46.768L312.461,46.002L313.184,45.291L313.906,44.509L314.629,43.859L315.352,43.263L316.074,42.821L316.797,42.163L317.52,41.512L318.242,41.016L318.965,40.425L319.688,39.927L320.41,39.236L321.133,38.793L321.855,38.193L322.578,37.64L323.301,37.333L324.023,36.768L324.746,36.43L325.469,35.709L326.191,35.363L326.914,34.847L327.637,34.377L328.359,33.906L329.082,33.637L329.805,33.067L330.527,32.675L331.25,32.335L331.973,31.636L332.695,31.509L333.418,31.134L334.141,31.087L334.863,30.587L335.586,30.099L336.309,29.793L337.031,29.426L337.754,29.186L338.477,28.555L339.199,28.514L339.922,28.425L340.645,28.011L341.367,27.88L342.09,27.206L342.813,27.255L343.535,26.762L344.258,26.412L344.98,26.487L345.703,26.232L346.426,26.385L347.148,25.931L347.871,25.422L348.594,25.251L349.316,25.321L350.039,24.96L350.762,24.889L351.484,24.481L352.207,24.485L352.93,24.312L353.652,23.932L354.375,23.662L355.098,23.452L355.82,23.695L356.543,24.123L357.266,23.235L357.988,23.793L358.711,23.856L359.434,22.915L360.156,22.941L360.879,22.757L361.602,23.261L362.324,22.611L363.047,22.443L363.77,22.689L364.492,22.147L365.215,23.112L365.938,22.49L366.66,22.583L367.383,22.126L368.105,22.071L368.828,21.99L369.551,22.393L370.273,21.629L370.996,21.363L371.719,22.121L372.441,21.221L373.164,21.821L373.887,21.745L374.609,21.072L375.332,21.194L376.055,21.032L376.777,22.198L377.5,21.896L378.223,21.978L378.945,21.398L379.668,21.605L380.391,21.376L381.113,21.203L381.836,21.013L382.559,21.547L383.281,20.914L384.004,21.32L384.727,22.086L385.449,20.952L386.172,22.641L386.895,21.108L387.617,21.489L388.34,21.165L389.063,21.031L389.785,22.299L390.508,20.436L391.23,21.874L391.953,21.275L392.676,21.455L393.398,21.076L394.121,21.128L394.844,21.013L395.566,21.559L396.289,21.993L397.012,21.478L397.734,21.873L398.457,21.504L399.18,22.244L399.902,20.932L400.625,22.158L401.348,21.972L402.07,21.674L402.793,23.294L403.516,23.958L404.238,23.796L404.961,22.315L405.684,23.65L406.406,23.315L407.129,22.851L407.852,23.818L408.574,24.664L409.297,24.376L410.02,25.566L410.742,25.171L411.465,25.402L412.188,25.593L412.91,25.556L413.633,27.275L414.355,25.484L415.078,25.523L415.801,26.978L416.523,26.54L417.246,27.966L417.969,29.265L418.691,27.82L419.414,29.524L420.137,28.479L420.859,28.869L421.582,27.819L422.305,28.219L423.027,29.621L423.75,28.439L424.473,29.458L425.195,29.783L425.918,28.417L426.641,29.416L427.363,28.227L428.086,29.852L428.809,29.316L429.531,27.627L430.254,27.927L430.977,27.779L431.699,27.191L432.422,26.879L433.145,27.036L433.867,26.875L434.59,27.441L435.313,26.675L436.035,26.186L436.758,26.125L437.48,25.231L438.203,24.453L438.926,24.863L439.648,25.535L440.371,24.3L441.094,24.253L441.816,24.111L442.539,24.104L443.262,23.886L443.984,23.885L444.707,23.717L445.43,23.536L446.152,22.595L446.875,22.885L447.598,22.551L448.32,22.685L449.043,22.42L449.766,22.209L450.488,21.664L451.211,21.873L451.934,21.973L452.656,21.749L453.379,21.623L454.102,21.562L454.824,21.76L455.547,21.593L456.27,21.377L456.992,21.227L457.715,21.252L458.438,20.997L459.16,20.958L459.883,21.088L460.605,21.164L461.328,20.807L462.051,21.018L462.773,20.858L463.496,20.939L464.219,20.832L464.941,20.993L465.664,20.85L466.387,20.797L467.109,20.832L467.832,20.664L468.555,20.72L469.277,20.706"/><path fill="none" stroke="rgb(38, 188, 225)" stroke-width="1.5" d="M100,104.598L100.723,104.896L101.445,105.053L102.168,105.349L102.891,105.675L103.613,105.816L104.336,106.166L105.059,106.337L105.781,106.553L106.504,106.982L107.227,107.177L107.949,107.581L108.672,107.813L109.395,108.154L110.117,108.5L110.84,108.711L111.563,109.1L112.285,109.345L113.008,109.83L113.73,110.242L114.453,110.345L115.176,110.746L115.898,111.245L116.621,111.564L117.344,111.782L118.066,112.278L118.789,112.676L119.512,112.909L120.234,113.605L120.957,113.982L121.68,114.25L122.402,114.878L123.125,115.186L123.848,115.631L124.57,116.176L125.293,116.621L126.016,117.058L126.738,117.563L127.461,118.171L128.184,118.615L128.906,119.06L129.629,119.614L130.352,120.19L131.074,120.715L131.797,121.232L132.52,122.005L133.242,122.399L133.965,122.993L134.688,123.706L135.41,124.382L136.133,124.88L136.855,125.493L137.578,126.195L138.301,126.749L139.023,127.605L139.746,128.352L140.469,128.968L141.191,129.748L141.914,130.653L142.637,131.379L143.359,132.003L144.082,132.828L144.805,133.666L145.527,134.503L146.25,135.318L146.973,136.404L147.695,137.177L148.418,138.209L149.141,139.043L149.863,140.052L150.586,141.074L151.309,141.777L152.031,143.007L152.754,144.004L153.477,145.04L154.199,146.04L154.922,147.202L155.645,148.348L156.367,149.48L157.09,150.782L157.813,151.88L158.535,153.11L159.258,154.289L159.98,155.676L160.703,156.808L161.426,158.19L162.148,159.702L162.871,160.962L163.594,162.431L164.316,163.716L165.039,165.116L165.762,166.76L166.484,168.117L167.207,169.828L167.93,171.257L168.652,172.723L169.375,174.215L170.098,176.08L170.82,177.551L171.543,179.256L172.266,180.79L172.988,182.394L173.711,184.087L174.434,185.741L175.156,187.498L175.879,189.208L176.602,190.629L177.324,192.41L178.047,194.087L178.77,195.749L179.492,197.305L180.215,198.647L180.938,200.526L181.66,201.999L182.383,203.489L183.105,204.96L183.828,206.739L184.551,208.087L185.273,209.538L185.996,210.572L186.719,212.192L187.441,213.364L188.164,214.956L188.887,216.078L189.609,217.067L190.332,218.196L191.055,219.281L191.777,220.409L192.5,221.297L193.223,221.977L193.945,222.816L194.668,223.28L195.391,223.817L196.113,224.737L196.836,225.323L197.559,225.546L198.281,225.904L199.004,225.955L199.727,226.267L200.449,226.422L201.172,226.397L201.895,226.428L202.617,225.907L203.34,226.036L204.063,225.709L204.785,225.106L205.508,224.743L206.23,224.277L206.953,223.421L207.676,222.531L208.398,221.685L209.121,220.94L209.844,219.871L210.566,218.809L211.289,217.315L212.012,216.373L212.734,215.4L213.457,213.825L214.18,212.429L214.902,211.004L215.625,209.282L216.348,207.566L217.07,206.043L217.793,204.465L218.516,202.739L219.238,201.076L219.961,198.99L220.684,197.056L221.406,195.317L222.129,193.317L222.852,191.043L223.574,188.945L224.297,187.061L225.02,184.892L225.742,182.547L226.465,180.451L227.188,178.28L227.91,175.968L228.633,173.792L229.355,171.397L230.078,169.066L230.801,166.728L231.523,164.433L232.246,162.032L232.969,159.705L233.691,157.381L234.414,155.025L235.137,152.709L235.859,150.428L236.582,148.113L237.305,145.94L238.027,143.362L238.75,140.841L239.473,138.547L240.195,136.46L240.918,133.948L241.641,131.756L242.363,129.386L243.086,127.208L243.809,124.758L244.531,122.642L245.254,120.359L245.977,118.019L246.699,115.835L247.422,113.726L248.145,111.413L248.867,109.303L249.59,106.989L250.313,105.023L251.035,102.88L251.758,100.923L252.48,98.765L253.203,96.697L253.926,94.719L254.648,92.81L255.371,90.833L256.094,88.855L256.816,87.183L257.539,85.33L258.262,83.464L258.984,81.66L259.707,79.939L260.43,78.318L261.152,76.747L261.875,75.151L262.598,73.461L263.32,71.893L264.043,70.305L264.766,68.934L265.488,67.297L266.211,65.791L266.934,64.696L267.656,63.177L268.379,61.972L269.102,60.724L269.824,60.795L270.547,62.229L271.27,64.069L271.992,65.965L272.715,67.722L273.438,69.619L274.16,70.696L274.883,70.101L275.605,69.254L276.328,68.512L277.051,67.885L277.773,67.277L278.496,66.685L279.219,66.026L279.941,65.392L280.664,64.79L281.387,64.186L282.109,63.48L282.832,62.729L283.555,62.049L284.277,61.532L285,61.039L285.723,60.227L286.445,59.662L287.168,59.19L287.891,58.432L288.613,57.842L289.336,57.419L290.059,56.696L290.781,56.137L291.504,55.677L292.227,55.091L292.949,54.43L293.672,53.855L294.395,53.307L295.117,52.699L295.84,52.174L296.563,51.614L297.285,51.236L298.008,50.567L298.73,50.15L299.453,49.397L300.176,48.9L300.898,48.527L301.621,48.083L302.344,47.612L303.066,47.016L303.789,46.628L304.512,46.024L305.234,45.517L305.957,44.966L306.68,44.693L307.402,44.128L308.125,43.683L308.848,43.204L309.57,42.889L310.293,42.422L311.016,41.725L311.738,41.551L312.461,41.061L313.184,40.704L313.906,40.206L314.629,39.875L315.352,39.487L316.074,38.961L316.797,38.578L317.52,38.151L318.242,37.679L318.965,37.382L319.688,36.947L320.41,36.46L321.133,36.058L321.855,35.741L322.578,35.599L323.301,35.226L324.023,34.892L324.746,34.345L325.469,34.131L326.191,33.724L326.914,33.325L327.637,33.022L328.359,32.693L329.082,32.605L329.805,32.123L330.527,31.835L331.25,31.606L331.973,31.315L332.695,30.884L333.418,30.606L334.141,30.306L334.863,30.213L335.586,29.863L336.309,29.418L337.031,29.268L337.754,28.936L338.477,28.722L339.199,28.449L339.922,28.293L340.645,28.151L341.367,27.73L342.09,27.732L342.813,27.383L343.535,27.012L344.258,26.612L344.98,26.654L345.703,26.831L346.426,26.357L347.148,26.143L347.871,25.931L348.594,25.692L349.316,26.176L350.039,25.403L350.762,25.583L351.484,25.18L352.207,24.499L352.93,25.117L353.652,24.308L354.375,24.91L355.098,24.117L355.82,23.982L356.543,24.353L357.266,23.898L357.988,23.892L358.711,23.463L359.434,23.533L360.156,23.702L360.879,23.298L361.602,23.296L362.324,23.403L363.047,23.096L363.77,22.622L364.492,22.799L365.215,22.645L365.938,22.336L366.66,22.545L367.383,22.654L368.105,22.139L368.828,22.476L369.551,21.932L370.273,22.587L370.996,21.721L371.719,22.01L372.441,22.262L373.164,21.797L373.887,22.007L374.609,20.936L375.332,21.776L376.055,21.417L376.777,22.139L377.5,21.305L378.223,21.741L378.945,21.738L379.668,22.755L380.391,21.624L381.113,21.683L381.836,21.593L382.559,21.609L383.281,21.289L384.004,21.444L384.727,21.883L385.449,20.785L386.172,21.639L386.895,21.289L387.617,20.672L388.34,21.432L389.063,21.706L389.785,21.605L390.508,20L391.23,21.698L391.953,21.998L392.676,21.232L393.398,21.178L394.121,21.406L394.844,21.771L395.566,21.794L396.289,20.788L397.012,21.538L397.734,21.754L398.457,21.297L399.18,20.602L399.902,21.258L400.625,21.337L401.348,21.055L402.07,22.437L402.793,21.709L403.516,22.991L404.238,23.036L404.961,24.025L405.684,22.629L406.406,21.62L407.129,21.633L407.852,23.551L408.574,22.9L409.297,21.462L410.02,23.359L410.742,21.697L411.465,23.636L412.188,23.18L412.91,22.538L413.633,23.093L414.355,23.484L415.078,25.602L415.801,24.449L416.523,24.472L417.246,24.941L417.969,23.89L418.691,25.943L419.414,25.144L420.137,23.985L420.859,26.216L421.582,24.746L422.305,25.161L423.027,26.631L423.75,25.23L424.473,25.676L425.195,25.472L425.918,26.172L426.641,26.176L427.363,25.445L428.086,25.857L428.809,24.926L429.531,26.575L430.254,25.39L430.977,25.338L431.699,24.964L432.422,24.834L433.145,24.549L433.867,23.749L434.59,24.278L435.313,24.532L436.035,25.333L436.758,24.061L437.48,24.004L438.203,24.129L438.926,23.923L439.648,23.701L440.371,23.705L441.094,23.454L441.816,23.035L442.539,22.848L443.262,22.488L443.984,22.611L444.707,23.083L445.43,21.818L446.152,21.988L446.875,22.441L447.598,22.171L448.32,21.777L449.043,22.232L449.766,21.719L450.488,21.723L451.211,21.569L451.934,21.413L452.656,21.094L453.379,21.561L454.102,21.305L454.824,21.096L455.547,21.01L456.27,21.112L456.992,21.174L457.715,20.917L458.438,21.112L459.16,20.943L459.883,21.011L460.605,20.884L461.328,20.75L462.051,20.87L462.773,20.669L463.496,20.854L464.219,20.869L464.941,20.896L465.664,20.653L466.387,20.621L467.109,20.618L467.832,20.578L468.555,20.576L469.277,20.552"/><path fill="none" stroke="rgb(63, 243, 147)" stroke-width="1.5" d="M100,103.621L100.723,103.626L101.445,103.93L102.168,104.113L102.891,104.384L103.613,104.76L104.336,104.897L105.059,105.267L105.781,105.459L106.504,105.569L107.227,105.763L107.949,106.131L108.672,106.487L109.395,106.803L110.117,107.006L110.84,107.291L111.563,107.442L112.285,107.719L113.008,108.159L113.73,108.499L114.453,108.705L115.176,109.153L115.898,109.285L116.621,109.683L117.344,110.007L118.066,110.465L118.789,110.894L119.512,111.034L120.234,111.473L120.957,111.81L121.68,112.154L122.402,112.635L123.125,112.828L123.848,113.397L124.57,113.658L125.293,114.109L126.016,114.659L126.738,115.139L127.461,115.387L128.184,115.997L128.906,116.237L129.629,116.731L130.352,117.369L131.074,117.866L131.797,118.424L132.52,118.661L133.242,119.394L133.965,119.727L134.688,120.359L135.41,120.626L136.133,121.318L136.855,122.049L137.578,122.572L138.301,123.066L139.023,123.715L139.746,124.271L140.469,124.984L141.191,125.482L141.914,126.024L142.637,126.887L143.359,127.515L144.082,128.254L144.805,128.835L145.527,129.599L146.25,130.368L146.973,131.05L147.695,131.821L148.418,132.438L149.141,133.223L149.863,134.036L150.586,134.829L151.309,135.653L152.031,136.519L152.754,137.346L153.477,138.277L154.199,139.11L154.922,139.849L155.645,141.006L156.367,141.845L157.09,142.793L157.813,143.694L158.535,144.757L159.258,145.674L159.98,146.744L160.703,147.593L161.426,148.481L162.148,149.789L162.871,150.726L163.594,151.686L164.316,152.86L165.039,153.924L165.762,154.936L166.484,155.812L167.207,157.194L167.93,158.231L168.652,159.211L169.375,160.246L170.098,161.631L170.82,162.459L171.543,163.399L172.266,164.633L172.988,165.578L173.711,166.682L174.434,167.733L175.156,168.667L175.879,169.667L176.602,170.63L177.324,171.648L178.047,172.717L178.77,173.86L179.492,174.306L180.215,175.524L180.938,176.23L181.66,176.909L182.383,177.654L183.105,178.485L183.828,179.248L184.551,179.75L185.273,180.623L185.996,180.861L186.719,181.173L187.441,181.933L188.164,182.126L188.887,182.49L189.609,182.804L190.332,183.104L191.055,183.272L191.777,183.184L192.5,183.504L193.223,183.422L193.945,183.199L194.668,183.293L195.391,182.968L196.113,182.883L196.836,182.483L197.559,182.145L198.281,181.831L199.004,181.07L199.727,180.639L200.449,179.814L201.172,179.416L201.895,178.729L202.617,177.66L203.34,176.994L204.063,175.943L204.785,175.14L205.508,173.857L206.23,172.725L206.953,171.61L207.676,170.543L208.398,169.22L209.121,167.788L209.844,166.253L210.566,164.967L211.289,163.543L212.012,162.187L212.734,160.69L213.457,158.987L214.18,157.446L214.902,155.657L215.625,154.125L216.348,152.153L217.07,150.693L217.793,148.697L218.516,147.12L219.238,145.441L219.961,143.485L220.684,141.716L221.406,139.61L222.129,137.648L222.852,135.692L223.574,133.768L224.297,131.76L225.02,129.913L225.742,127.89L226.465,125.988L227.188,123.972L227.91,122.056L228.633,120.083L229.355,118.138L230.078,116.28L230.801,114.154L231.523,112.262L232.246,110.052L232.969,108.278L233.691,106.267L234.414,104.279L235.137,102.556L235.859,100.439L236.582,98.689L237.305,96.566L238.027,94.755L238.75,92.92L239.473,90.956L240.195,89.169L240.918,87.255L241.641,85.85L242.363,83.851L243.086,82.002L243.809,80.232L244.531,78.578L245.254,76.776L245.977,75.118L246.699,73.552L247.422,71.843L248.145,70.391L248.867,68.665L249.59,67.038L250.313,65.572L251.035,63.794L251.758,62.374L252.48,61.058L253.203,59.674L253.926,58.067L254.648,56.965L255.371,55.56L256.094,54.235L256.816,53.019L257.539,51.621L258.262,50.466L258.984,49.401L259.707,48.169L260.43,47.092L261.152,46.028L261.875,44.904L262.598,43.841L263.32,42.779L264.043,43.506L264.766,45.466L265.488,47.576L266.211,49.791L266.934,51.655L267.656,53.856L268.379,55.01L269.102,54.622L269.824,54.236L270.547,54.049L271.27,53.452L271.992,53.18L272.715,52.728L273.438,52.363L274.16,52.031L274.883,51.664L275.605,51.366L276.328,50.979L277.051,50.599L277.773,50.192L278.496,49.811L279.219,49.426L279.941,49.094L280.664,48.816L281.387,48.388L282.109,48.142L282.832,47.698L283.555,47.311L284.277,47.021L285,46.616L285.723,46.264L286.445,45.991L287.168,45.542L287.891,45.208L288.613,44.867L289.336,44.569L290.059,44.297L290.781,43.94L291.504,43.594L292.227,43.33L292.949,42.947L293.672,42.599L294.395,42.265L295.117,42.129L295.84,41.706L296.563,41.364L297.285,41.146L298.008,40.842L298.73,40.675L299.453,40.21L300.176,40.097L300.898,39.834L301.621,39.493L302.344,39.236L303.066,39L303.789,38.728L304.512,38.548L305.234,38.167L305.957,38.1L306.68,37.792L307.402,37.605L308.125,37.437L308.848,37.075L309.57,37.114L310.293,36.723L311.016,36.472L311.738,36.311L312.461,35.972L313.184,35.809L313.906,35.504L314.629,35.497L315.352,35.245L316.074,35.073L316.797,34.849L317.52,34.526L318.242,34.379L318.965,34.156L319.688,34.24L320.41,33.781L321.133,33.508L321.855,33.393L322.578,33.111L323.301,32.896L324.023,32.743L324.746,32.57L325.469,32.264L326.191,32.122L326.914,31.801L327.637,31.774L328.359,31.514L329.082,31.391L329.805,31.028L330.527,30.874L331.25,30.985L331.973,30.614L332.695,30.5L333.418,29.93L334.141,29.953L334.863,29.764L335.586,29.526L336.309,29.482L337.031,29.095L337.754,29.065L338.477,28.876L339.199,28.615L339.922,28.487L340.645,28.128L341.367,28.039L342.09,27.985L342.813,27.655L343.535,27.727L344.258,27.371L344.98,27.146L345.703,27.039L346.426,26.808L347.148,26.748L347.871,26.57L348.594,26.246L349.316,26.19L350.039,25.855L350.762,25.778L351.484,25.61L352.207,25.407L352.93,25.278L353.652,25.362L354.375,24.821L355.098,25.034L355.82,25.014L356.543,25.234L357.266,24.785L357.988,24.027L358.711,24.268L359.434,24.092L360.156,24.093L360.879,23.354L361.602,24.186L362.324,23.643L363.047,23.709L363.77,23.495L364.492,23.636L365.215,23.623L365.938,22.835L366.66,23.129L367.383,23.35L368.105,23.032L368.828,22.958L369.551,22.914L370.273,21.946L370.996,22.945L371.719,22.319L372.441,22.585L373.164,21.739L373.887,22.232L374.609,23L375.332,21.976L376.055,21.896L376.777,21.962L377.5,22.283L378.223,22.304L378.945,21.639L379.668,20.807L380.391,21.808L381.113,21.796L381.836,21.534L382.559,22.019L383.281,21.879L384.004,21.548L384.727,20.745L385.449,22.023L386.172,20.56L386.895,21.312L387.617,21.462L388.34,20.605L389.063,21.483L389.785,21.562L390.508,21.099L391.23,21.225L391.953,21.518L392.676,20.997L393.398,20.6L394.121,21.369L394.844,20.528L395.566,20.691L396.289,20.819L397.012,21.957L397.734,21.831L398.457,21.514L399.18,20.235L399.902,21.037L400.625,21.169L401.348,20.201L402.07,20.464L402.793,21.271L403.516,22.289L404.238,21.519L404.961,21.656L405.684,21.062L406.406,21.831L407.129,21.049L407.852,20.787L408.574,21.279L409.297,20.575L410.02,22.378L410.742,20.35L411.465,22.105L412.188,22.314L412.91,21.923L413.633,22.088L414.355,22.129L415.078,22.773L415.801,20.466L416.523,22.283L417.246,23.097L417.969,20.959L418.691,21.188L419.414,21.848L420.137,22.149L420.859,21.994L421.582,20.766L422.305,24.435L423.027,23.179L423.75,23.442L424.473,21.391L425.195,22.017L425.918,21.907L426.641,21.406L427.363,21.764L428.086,21.426L428.809,22.155L429.531,23.04L430.254,22.149L430.977,22.174L431.699,21.754L432.422,21.799L433.145,20.864L433.867,22.526L434.59,21.732L435.313,21.381L436.035,21.922L436.758,21.625L437.48,22.317L438.203,21.414L438.926,21.168L439.648,21.686L440.371,21.739L441.094,21.218L441.816,20.617L442.539,21.161L443.262,21.263L443.984,21.508L444.707,21.212L445.43,21.187L446.152,21.589L446.875,21.058L447.598,20.698L448.32,20.715L449.043,21.394L449.766,20.987L450.488,20.821L451.211,20.924L451.934,20.795L452.656,20.722L453.379,20.777L454.102,20.585L454.824,20.627L455.547,20.644L456.27,20.799L456.992,20.777L457.715,20.514L458.438,20.45L459.16,20.387L459.883,20.697L460.605,20.546L461.328,20.486L462.051,20.575L462.773,20.608L463.496,20.58L464.219,20.543L464.941,20.534L465.664,20.536L466.387,20.536L467.109,20.463L467.832,20.553L468.555,20.428L469.277,20.408"/><path fill="none" stroke="rgb(149, 251, 81)" stroke-width="1.5" d="M100,102.061L100.723,102.273L101.445,102.382L102.168,102.677L102.891,102.795L103.613,103.086L104.336,103.26L105.059,103.337L105.781,103.629L106.504,103.822L107.227,104.18L107.949,104.222L108.672,104.558L109.395,104.795L110.117,105.11L110.84,105.246L111.563,105.454L112.285,105.716L113.008,106.041L113.73,106.263L114.453,106.6L115.176,106.772L115.898,107.045L116.621,107.369L117.344,107.718L118.066,108.061L118.789,108.34L119.512,108.566L120.234,108.96L120.957,109.275L121.68,109.651L122.402,109.949L123.125,110.354L123.848,110.614L124.57,110.917L125.293,111.263L126.016,111.624L126.738,111.981L127.461,112.4L128.184,112.761L128.906,113.206L129.629,113.492L130.352,114.055L131.074,114.436L131.797,114.763L132.52,115.238L133.242,115.697L133.965,116.058L134.688,116.511L135.41,117.024L136.133,117.401L136.855,117.809L137.578,118.396L138.301,118.794L139.023,119.38L139.746,119.948L140.469,120.377L141.191,120.855L141.914,121.34L142.637,122.08L143.359,122.718L144.082,123.414L144.805,123.786L145.527,124.543L146.25,124.841L146.973,125.558L147.695,126.187L148.418,126.878L149.141,127.396L149.863,127.972L150.586,128.805L151.309,129.496L152.031,130.012L152.754,130.826L153.477,131.418L154.199,132.117L154.922,132.897L155.645,133.411L156.367,134.357L157.09,134.997L157.813,135.552L158.535,136.323L159.258,137.04L159.98,137.561L160.703,138.544L161.426,139.155L162.148,139.832L162.871,140.462L163.594,141.134L164.316,141.931L165.039,142.455L165.762,143.313L166.484,143.861L167.207,144.419L167.93,145.166L168.652,145.528L169.375,146.261L170.098,146.75L170.82,147.343L171.543,147.837L172.266,148.47L172.988,148.861L173.711,149.244L174.434,149.415L175.156,149.848L175.879,150.246L176.602,150.574L177.324,150.877L178.047,151.209L178.77,151.288L179.492,151.393L180.215,151.484L180.938,151.664L181.66,151.588L182.383,151.688L183.105,151.403L183.828,151.392L184.551,151.507L185.273,151.087L185.996,150.94L186.719,150.484L187.441,150.178L188.164,149.535L188.887,149.176L189.609,148.85L190.332,148.002L191.055,147.624L191.777,146.807L192.5,146.182L193.223,145.526L193.945,144.67L194.668,143.895L195.391,142.891L196.113,142.021L196.836,141.064L197.559,139.898L198.281,138.897L199.004,137.777L199.727,136.664L200.449,135.469L201.172,134.258L201.895,132.904L202.617,131.742L203.34,130.29L204.063,128.976L204.785,127.439L205.508,126.261L206.23,124.727L206.953,123.263L207.676,121.819L208.398,120.292L209.121,118.798L209.844,117.042L210.566,115.559L211.289,113.913L212.012,112.505L212.734,110.695L213.457,109.002L214.18,107.506L214.902,105.786L215.625,104.163L216.348,102.547L217.07,100.846L217.793,99.245L218.516,97.389L219.238,95.855L219.961,93.979L220.684,92.507L221.406,90.673L222.129,89.154L222.852,87.641L223.574,85.728L224.297,84.201L225.02,82.552L225.742,80.89L226.465,79.328L227.188,77.655L227.91,76.005L228.633,74.436L229.355,72.971L230.078,71.363L230.801,69.738L231.523,68.182L232.246,66.968L232.969,65.222L233.691,63.751L234.414,62.272L235.137,61.093L235.859,59.576L236.582,57.99L237.305,56.722L238.027,55.278L238.75,53.886L239.473,52.673L240.195,51.363L240.918,50.078L241.641,48.812L242.363,47.448L243.086,46.312L243.809,44.994L244.531,43.911L245.254,42.823L245.977,41.638L246.699,40.45L247.422,39.475L248.145,38.357L248.867,37.401L249.59,36.187L250.313,35.307L251.035,34.321L251.758,33.262L252.48,32.346L253.203,31.443L253.926,30.595L254.648,32.08L255.371,34.277L256.094,36.501L256.816,38.583L257.539,40.836L258.262,43.067L258.984,43.82L259.707,43.397L260.43,43.182L261.152,42.935L261.875,42.667L262.598,42.327L263.32,42.193L264.043,41.915L264.766,41.743L265.488,41.461L266.211,41.255L266.934,41.08L267.656,40.835L268.379,40.665L269.102,40.59L269.824,40.215L270.547,40.097L271.27,39.999L271.992,39.803L272.715,39.587L273.438,39.441L274.16,39.315L274.883,39.047L275.605,38.921L276.328,38.798L277.051,38.647L277.773,38.444L278.496,38.353L279.219,38.192L279.941,38.046L280.664,37.857L281.387,37.786L282.109,37.526L282.832,37.326L283.555,37.274L284.277,37.122L285,36.88L285.723,36.812L286.445,36.616L287.168,36.617L287.891,36.327L288.613,36.289L289.336,36.028L290.059,35.898L290.781,35.792L291.504,35.528L292.227,35.47L292.949,35.336L293.672,35.13L294.395,35.103L295.117,34.99L295.84,34.811L296.563,34.705L297.285,34.616L298.008,34.47L298.73,34.303L299.453,34.195L300.176,34.103L300.898,34.014L301.621,33.854L302.344,33.793L303.066,33.694L303.789,33.499L304.512,33.384L305.234,33.369L305.957,33.168L306.68,33.147L307.402,33.012L308.125,32.901L308.848,32.787L309.57,32.692L310.293,32.549L311.016,32.513L311.738,32.408L312.461,32.429L313.184,32.293L313.906,32.149L314.629,32.096L315.352,31.982L316.074,31.912L316.797,31.77L317.52,31.678L318.242,31.664L318.965,31.483L319.688,31.382L320.41,31.275L321.133,31.148L321.855,31.067L322.578,31.043L323.301,30.957L324.023,30.754L324.746,30.609L325.469,30.567L326.191,30.474L326.914,30.36L327.637,30.29L328.359,30.161L329.082,29.987L329.805,29.887L330.527,29.837L331.25,29.642L331.973,29.591L332.695,29.457L333.418,29.29L334.141,29.189L334.863,29.034L335.586,28.911L336.309,28.685L337.031,28.618L337.754,28.449L338.477,28.36L339.199,28.071L339.922,28.049L340.645,27.985L341.367,27.81L342.09,27.579L342.813,27.546L343.535,27.35L344.258,27.263L344.98,27.083L345.703,26.922L346.426,26.791L347.148,26.698L347.871,26.511L348.594,26.389L349.316,26.278L350.039,26.115L350.762,25.962L351.484,25.837L352.207,25.705L352.93,25.584L353.652,25.426L354.375,25.256L355.098,25.197L355.82,25.122L356.543,24.907L357.266,24.801L357.988,24.644L358.711,24.501L359.434,24.481L360.156,24.275L360.879,24.133L361.602,24.094L362.324,24.007L363.047,23.864L363.77,23.816L364.492,23.704L365.215,23.519L365.938,23.464L366.66,23.347L367.383,23.317L368.105,23.169L368.828,23.072L369.551,22.936L370.273,22.894L370.996,22.835L371.719,22.743L372.441,22.648L373.164,22.613L373.887,22.55L374.609,22.438L375.332,22.383L376.055,22.306L376.777,22.242L377.5,22.234L378.223,22.086L378.945,22.068L379.668,21.978L380.391,21.949L381.113,21.889L381.836,21.824L382.559,21.807L383.281,21.662L384.004,21.609L384.727,21.663L385.449,21.561L386.172,21.526L386.895,21.438L387.617,21.505L388.34,21.392L389.063,21.312L389.785,21.303L390.508,21.348L391.23,21.289L391.953,21.183L392.676,21.212L393.398,21.171L394.121,21.123L394.844,21.14L395.566,21.112L396.289,21.059L397.012,21.032L397.734,20.976L398.457,21.024L399.18,20.969L399.902,20.897L400.625,20.915L401.348,20.913L402.07,20.894L402.793,20.841L403.516,20.83L404.238,20.846L404.961,20.765L405.684,20.77L406.406,20.751L407.129,20.744L407.852,20.745L408.574,20.729L409.297,20.755L410.02,20.719L410.742,20.661L411.465,20.653L412.188,20.67L412.91,20.665L413.633,20.609L414.355,20.604L415.078,20.59L415.801,20.606L416.523,20.614L417.246,20.565L417.969,20.59L418.691,20.571L419.414,20.57L420.137,20.576L420.859,20.574L421.582,20.566L422.305,20.535L423.027,20.503L423.75,20.508L424.473,20.529L425.195,20.502L425.918,20.51L426.641,20.518L427.363,20.525L428.086,20.48L428.809,20.462L429.531,20.47L430.254,20.491L430.977,20.504L431.699,20.476L432.422,20.488L433.145,20.482L433.867,20.479L434.59,20.481L435.313,20.451L436.035,20.46L436.758,20.434L437.48,20.438L438.203,20.444L438.926,20.446L439.648,20.44L440.371,20.438L441.094,20.442L441.816,20.422L442.539,20.421L443.262,20.445L443.984,20.444L444.707,20.416L445.43,20.422L446.152,20.44L446.875,20.418L447.598,20.414L448.32,20.424L449.043,20.428L449.766,20.423L450.488,20.414L451.211,20.409L451.934,20.418L452.656,20.408L453.379,20.413L454.102,20.411L454.824,20.395L455.547,20.405L456.27,20.39L456.992,20.407L457.715,20.416L458.438,20.406L459.16,20.401L459.883,20.399L460.605,20.393L461.328,20.391L462.051,20.397L462.773,20.404L463.496,20.398L464.219,20.395L464.941,20.392L465.664,20.392L466.387,20.395L467.109,20.392L467.832,20.381L468.555,20.392L469.277,20.392"/><path fill="none" stroke="rgb(236, 209, 46)" stroke-width="1.5" d="M100,99.965L100.723,100.265L101.445,100.537L102.168,100.622L102.891,100.72L103.613,100.969L104.336,101.321L105.059,101.334L105.781,101.616L106.504,101.766L107.227,101.911L107.949,102.176L108.672,102.299L109.395,102.599L110.117,102.681L110.84,103.028L111.563,103.212L112.285,103.494L113.008,103.675L113.73,103.966L114.453,104.27L115.176,104.437L115.898,104.751L116.621,104.934L117.344,105.158L118.066,105.487L118.789,105.777L119.512,106.093L120.234,106.338L120.957,106.715L121.68,107.059L122.402,107.266L123.125,107.621L123.848,107.876L124.57,108.222L125.293,108.554L126.016,108.754L126.738,109.162L127.461,109.459L128.184,109.935L128.906,110.273L129.629,110.644L130.352,110.884L131.074,111.333L131.797,111.797L132.52,112.065L133.242,112.447L133.965,112.857L134.688,113.406L135.41,113.87L136.133,114.328L136.855,114.744L137.578,114.954L138.301,115.581L139.023,115.904L139.746,116.306L140.469,116.737L141.191,117.2L141.914,117.839L142.637,118.218L143.359,118.686L144.082,119.051L144.805,119.475L145.527,120.011L146.25,120.508L146.973,120.851L147.695,121.15L148.418,121.718L149.141,122.202L149.863,122.618L150.586,122.993L151.309,123.43L152.031,123.83L152.754,124.245L153.477,124.705L154.199,125.041L154.922,125.355L155.645,125.749L156.367,126.051L157.09,126.318L157.813,126.609L158.535,126.838L159.258,127.209L159.98,127.548L160.703,127.537L161.426,127.724L162.148,127.933L162.871,128.054L163.594,128.094L164.316,128.098L165.039,128.295L165.762,128.109L166.484,128.086L167.207,128.049L167.93,128.087L168.652,127.678L169.375,127.735L170.098,127.534L170.82,127.384L171.543,127.033L172.266,126.655L172.988,126.353L173.711,125.993L174.434,125.418L175.156,124.913L175.879,124.509L176.602,123.836L177.324,123.216L178.047,122.603L178.77,122.067L179.492,121.256L180.215,120.522L180.938,119.959L181.66,118.932L182.383,118.099L183.105,117.128L183.828,116.293L184.551,115.208L185.273,114.299L185.996,113.266L186.719,112.189L187.441,111.177L188.164,109.938L188.887,108.677L189.609,107.575L190.332,106.439L191.055,105.157L191.777,103.944L192.5,102.662L193.223,101.381L193.945,99.935L194.668,98.759L195.391,97.495L196.113,96.078L196.836,94.7L197.559,93.182L198.281,91.953L199.004,90.441L199.727,89.205L200.449,87.657L201.172,86.174L201.895,84.819L202.617,83.397L203.34,81.877L204.063,80.552L204.785,79.088L205.508,77.737L206.23,76.259L206.953,74.744L207.676,73.4L208.398,71.964L209.121,70.501L209.844,69.095L210.566,67.799L211.289,66.256L212.012,64.936L212.734,63.606L213.457,62.131L214.18,60.753L214.902,59.366L215.625,58.068L216.348,56.714L217.07,55.409L217.793,54.048L218.516,52.778L219.238,51.359L219.961,50.032L220.684,48.926L221.406,47.564L222.129,46.39L222.852,45.132L223.574,43.952L224.297,42.676L225.02,41.491L225.742,40.32L226.465,39.123L227.188,38.092L227.91,36.849L228.633,35.814L229.355,34.583L230.078,33.802L230.801,32.668L231.523,31.601L232.246,30.762L232.969,29.687L233.691,28.757L234.414,27.769L235.137,26.909L235.859,26.026L236.582,25.112L237.305,24.283L238.027,23.572L238.75,23.311L239.473,25.596L240.195,27.838L240.918,30.059L241.641,32.395L242.363,34.715L243.086,36.921L243.809,36.798L244.531,36.635L245.254,36.393L245.977,36.126L246.699,36.042L247.422,35.849L248.145,35.549L248.867,35.471L249.59,35.378L250.313,35.198L251.035,35L251.758,34.832L252.48,34.699L253.203,34.558L253.926,34.414L254.648,34.233L255.371,34.189L256.094,33.949L256.816,33.911L257.539,33.76L258.262,33.715L258.984,33.541L259.707,33.565L260.43,33.488L261.152,33.38L261.875,33.235L262.598,33.135L263.32,33.094L264.043,33.065L264.766,32.912L265.488,33.001L266.211,32.948L266.934,33.007L267.656,32.916L268.379,32.832L269.102,32.903L269.824,32.812L270.547,32.892L271.27,32.782L271.992,32.817L272.715,32.803L273.438,32.767L274.16,32.792L274.883,32.78L275.605,32.814L276.328,32.792L277.051,32.8L277.773,32.82L278.496,32.762L279.219,32.759L279.941,32.83L280.664,32.798L281.387,32.729L282.109,32.656L282.832,32.625L283.555,32.72L284.277,32.642L285,32.634L285.723,32.612L286.445,32.527L287.168,32.496L287.891,32.425L288.613,32.456L289.336,32.376L290.059,32.294L290.781,32.3L291.504,32.174L292.227,32.137L292.949,32.109L293.672,32.052L294.395,31.997L295.117,31.938L295.84,31.876L296.563,31.769L297.285,31.717L298.008,31.712L298.73,31.621L299.453,31.528L300.176,31.415L300.898,31.358L301.621,31.363L302.344,31.322L303.066,31.154L303.789,31.172L304.512,31.145L305.234,30.953L305.957,30.944L306.68,30.887L307.402,30.841L308.125,30.784L308.848,30.691L309.57,30.684L310.293,30.52L311.016,30.553L311.738,30.492L312.461,30.389L313.184,30.366L313.906,30.285L314.629,30.179L315.352,30.122L316.074,30.064L316.797,29.992L317.52,29.91L318.242,29.966L318.965,29.846L319.688,29.798L320.41,29.752L321.133,29.655L321.855,29.562L322.578,29.55L323.301,29.475L324.023,29.322L324.746,29.322L325.469,29.255L326.191,29.174L326.914,29.077L327.637,29.051L328.359,28.95L329.082,28.83L329.805,28.768L330.527,28.619L331.25,28.568L331.973,28.486L332.695,28.416L333.418,28.301L334.141,28.206L334.863,28.136L335.586,28.08L336.309,28.001L337.031,27.83L337.754,27.724L338.477,27.636L339.199,27.548L339.922,27.445L340.645,27.304L341.367,27.274L342.09,27.092L342.813,26.961L343.535,26.871L344.258,26.768L344.98,26.653L345.703,26.495L346.426,26.374L347.148,26.26L347.871,26.198L348.594,26.077L349.316,25.914L350.039,25.82L350.762,25.691L351.484,25.544L352.207,25.456L352.93,25.303L353.652,25.212L354.375,25.099L355.098,24.997L355.82,24.895L356.543,24.738L357.266,24.64L357.988,24.531L358.711,24.41L359.434,24.271L360.156,24.176L360.879,24.054L361.602,23.998L362.324,23.878L363.047,23.786L363.77,23.7L364.492,23.573L365.215,23.483L365.938,23.403L366.66,23.295L367.383,23.216L368.105,23.11L368.828,23.061L369.551,22.96L370.273,22.852L370.996,22.784L371.719,22.704L372.441,22.636L373.164,22.577L373.887,22.474L374.609,22.384L375.332,22.342L376.055,22.291L376.777,22.226L377.5,22.135L378.223,22.072L378.945,22.012L379.668,21.964L380.391,21.927L381.113,21.879L381.836,21.824L382.559,21.764L383.281,21.703L384.004,21.646L384.727,21.594L385.449,21.557L386.172,21.515L386.895,21.475L387.617,21.426L388.34,21.395L389.063,21.367L389.785,21.323L390.508,21.272L391.23,21.28L391.953,21.208L392.676,21.164L393.398,21.13L394.121,21.12L394.844,21.131L395.566,21.078L396.289,21.052L397.012,21.022L397.734,20.985L398.457,20.96L399.18,20.918L399.902,20.92L400.625,20.905L401.348,20.87L402.07,20.852L402.793,20.838L403.516,20.828L404.238,20.798L404.961,20.786L405.684,20.774L406.406,20.754L407.129,20.745L407.852,20.734L408.574,20.704L409.297,20.698L410.02,20.688L410.742,20.681L411.465,20.659L412.188,20.644L412.91,20.638L413.633,20.63L414.355,20.613L415.078,20.615L415.801,20.599L416.523,20.588L417.246,20.589L417.969,20.57L418.691,20.579L419.414,20.56L420.137,20.564L420.859,20.549L421.582,20.54L422.305,20.533L423.027,20.528L423.75,20.528L424.473,20.516L425.195,20.513L425.918,20.514L426.641,20.499L427.363,20.494L428.086,20.486L428.809,20.49L429.531,20.492L430.254,20.479L430.977,20.48L431.699,20.47L432.422,20.466L433.145,20.458L433.867,20.456L434.59,20.461L435.313,20.458L436.035,20.451L436.758,20.45L437.48,20.442L438.203,20.447L438.926,20.441L439.648,20.438L440.371,20.435L441.094,20.43L441.816,20.432L442.539,20.429L443.262,20.427L443.984,20.427L444.707,20.421L445.43,20.422L446.152,20.419L446.875,20.42L447.598,20.42L448.32,20.413L449.043,20.414L449.766,20.41L450.488,20.412L451.211,20.407L451.934,20.408L452.656,20.409L453.379,20.403L454.102,20.41L454.824,20.405L455.547,20.402L456.27,20.404L456.992,20.403L457.715,20.402L458.438,20.401L459.16,20.399L459.883,20.396L460.605,20.394L461.328,20.398L462.051,20.396L462.773,20.396L463.496,20.395L464.219,20.393L464.941,20.393L465.664,20.394L466.387,20.395L467.109,20.392L467.832,20.392L468.555,20.391L469.277,20.389"/><path fill="none" stroke="rgb(255, 130, 29)" stroke-width="1.5" d="M100,95.968L100.723,96.182L101.445,96.466L102.168,96.376L102.891,96.65L103.613,96.84L104.336,97.2L105.059,97.345L105.781,97.462L106.504,97.619L107.227,97.89L107.949,98.169L108.672,98.339L109.395,98.572L110.117,98.812L110.84,99.071L111.563,99.216L112.285,99.553L113.008,99.688L113.73,99.842L114.453,100.291L115.176,100.582L115.898,100.71L116.621,101.053L117.344,101.206L118.066,101.445L118.789,101.79L119.512,101.912L120.234,102.157L120.957,102.482L121.68,102.643L122.402,102.994L123.125,103.268L123.848,103.472L124.57,103.559L125.293,103.874L126.016,104.2L126.738,104.357L127.461,104.449L128.184,104.652L128.906,104.898L129.629,105.084L130.352,105.371L131.074,105.472L131.797,105.605L132.52,105.725L133.242,105.957L133.965,105.958L134.688,106.101L135.41,106.066L136.133,106.21L136.855,106.193L137.578,106.248L138.301,106.284L139.023,106.387L139.746,106.084L140.469,106.221L141.191,106.007L141.914,105.951L142.637,105.849L143.359,105.63L144.082,105.404L144.805,105.375L145.527,104.898L146.25,104.733L146.973,104.317L147.695,103.973L148.418,103.531L149.141,103.114L149.863,102.715L150.586,102.282L151.309,101.755L152.031,101.143L152.754,100.6L153.477,100.045L154.199,99.369L154.922,98.726L155.645,98.023L156.367,97.242L157.09,96.47L157.813,95.656L158.535,94.823L159.258,94.064L159.98,93.201L160.703,92.262L161.426,91.347L162.148,90.395L162.871,89.271L163.594,88.328L164.316,87.39L165.039,86.312L165.762,85.366L166.484,84.374L167.207,83.061L167.93,81.969L168.652,80.837L169.375,79.645L170.098,78.398L170.82,77.31L171.543,76.244L172.266,74.921L172.988,73.854L173.711,72.633L174.434,71.314L175.156,70.007L175.879,68.707L176.602,67.511L177.324,66.408L178.047,65.016L178.77,63.907L179.492,62.51L180.215,61.365L180.938,60.056L181.66,58.796L182.383,57.655L183.105,56.231L183.828,55.168L184.551,53.874L185.273,52.605L185.996,51.394L186.719,50.218L187.441,49.098L188.164,47.876L188.887,46.64L189.609,45.623L190.332,44.276L191.055,43.177L191.777,42.042L192.5,40.967L193.223,39.884L193.945,38.779L194.668,37.636L195.391,36.651L196.113,35.568L196.836,34.452L197.559,33.564L198.281,32.489L199.004,31.628L199.727,30.713L200.449,29.786L201.172,28.905L201.895,28.01L202.617,27.173L203.34,26.27L204.063,25.585L204.785,24.844L205.508,24.006L206.23,23.199L206.953,22.66L207.676,21.96L208.398,21.289L209.121,20.594L209.844,20.054L210.566,21.565L211.289,23.881L212.012,26.371L212.734,28.797L213.457,31.256L214.18,33.81L214.902,34.953L215.625,34.912L216.348,34.742L217.07,34.775L217.793,34.683L218.516,34.607L219.238,34.605L219.961,34.616L220.684,34.475L221.406,34.433L222.129,34.449L222.852,34.429L223.574,34.368L224.297,34.305L225.02,34.264L225.742,34.21L226.465,34.05L227.188,34.084L227.91,34.071L228.633,34.054L229.355,34.07L230.078,33.954L230.801,33.915L231.523,33.863L232.246,33.799L232.969,33.756L233.691,33.659L234.414,33.684L235.137,33.733L235.859,33.562L236.582,33.6L237.305,33.515L238.027,33.582L238.75,33.457L239.473,33.431L240.195,33.325L240.918,33.397L241.641,33.32L242.363,33.288L243.086,33.163L243.809,33.117L244.531,33.187L245.254,33.059L245.977,33.07L246.699,32.964L247.422,33.026L248.145,32.956L248.867,32.857L249.59,32.825L250.313,32.818L251.035,32.771L251.758,32.698L252.48,32.681L253.203,32.703L253.926,32.675L254.648,32.551L255.371,32.548L256.094,32.499L256.816,32.495L257.539,32.456L258.262,32.468L258.984,32.392L259.707,32.421L260.43,32.375L261.152,32.352L261.875,32.34L262.598,32.335L263.32,32.265L264.043,32.344L264.766,32.244L265.488,32.302L266.211,32.262L266.934,32.286L267.656,32.289L268.379,32.316L269.102,32.353L269.824,32.308L270.547,32.335L271.27,32.355L271.992,32.418L272.715,32.391L273.438,32.396L274.16,32.414L274.883,32.41L275.605,32.371L276.328,32.454L277.051,32.518L277.773,32.501L278.496,32.551L279.219,32.554L279.941,32.512L280.664,32.534L281.387,32.554L282.109,32.542L282.832,32.486L283.555,32.474L284.277,32.412L285,32.411L285.723,32.422L286.445,32.382L287.168,32.326L287.891,32.313L288.613,32.259L289.336,32.231L290.059,32.155L290.781,32.123L291.504,32.07L292.227,31.969L292.949,31.929L293.672,31.91L294.395,31.816L295.117,31.786L295.84,31.709L296.563,31.657L297.285,31.574L298.008,31.507L298.73,31.412L299.453,31.329L300.176,31.3L300.898,31.179L301.621,31.192L302.344,31.072L303.066,31.015L303.789,30.964L304.512,30.874L305.234,30.855L305.957,30.761L306.68,30.701L307.402,30.641L308.125,30.552L308.848,30.354L309.57,30.423L310.293,30.34L311.016,30.253L311.738,30.203L312.461,30.155L313.184,30.07L313.906,30.09L314.629,30.006L315.352,29.934L316.074,29.858L316.797,29.725L317.52,29.711L318.242,29.695L318.965,29.627L319.688,29.597L320.41,29.48L321.133,29.502L321.855,29.408L322.578,29.289L323.301,29.26L324.023,29.159L324.746,29.146L325.469,29.089L326.191,29.016L326.914,28.892L327.637,28.89L328.359,28.845L329.082,28.805L329.805,28.675L330.527,28.601L331.25,28.581L331.973,28.48L332.695,28.427L333.418,28.273L334.141,28.299L334.863,28.141L335.586,28.082L336.309,27.94L337.031,27.894L337.754,27.842L338.477,27.69L339.199,27.614L339.922,27.568L340.645,27.372L341.367,27.381L342.09,27.229L342.813,27.06L343.535,27.021L344.258,26.977L344.98,26.797L345.703,26.728L346.426,26.596L347.148,26.509L347.871,26.407L348.594,26.295L349.316,26.161L350.039,26.037L350.762,25.956L351.484,25.849L352.207,25.694L352.93,25.56L353.652,25.544L354.375,25.406L355.098,25.263L355.82,25.128L356.543,25.03L357.266,24.9L357.988,24.791L358.711,24.719L359.434,24.568L360.156,24.47L360.879,24.38L361.602,24.281L362.324,24.198L363.047,24.046L363.77,23.994L364.492,23.849L365.215,23.746L365.938,23.624L366.66,23.579L367.383,23.474L368.105,23.367L368.828,23.288L369.551,23.218L370.273,23.091L370.996,23.009L371.719,22.93L372.441,22.886L373.164,22.81L373.887,22.722L374.609,22.647L375.332,22.546L376.055,22.467L376.777,22.407L377.5,22.318L378.223,22.282L378.945,22.234L379.668,22.142L380.391,22.095L381.113,22.033L381.836,21.975L382.559,21.897L383.281,21.845L384.004,21.823L384.727,21.73L385.449,21.701L386.172,21.681L386.895,21.615L387.617,21.585L388.34,21.523L389.063,21.506L389.785,21.444L390.508,21.418L391.23,21.367L391.953,21.329L392.676,21.279L393.398,21.283L394.121,21.221L394.844,21.176L395.566,21.173L396.289,21.141L397.012,21.114L397.734,21.075L398.457,21.048L399.18,21.023L399.902,20.994L400.625,20.958L401.348,20.941L402.07,20.934L402.793,20.908L403.516,20.88L404.238,20.861L404.961,20.844L405.684,20.822L406.406,20.811L407.129,20.804L407.852,20.771L408.574,20.772L409.297,20.757L410.02,20.725L410.742,20.717L411.465,20.694L412.188,20.697L412.91,20.687L413.633,20.677L414.355,20.667L415.078,20.646L415.801,20.643L416.523,20.628L417.246,20.609L417.969,20.602L418.691,20.596L419.414,20.588L420.137,20.578L420.859,20.569L421.582,20.575L422.305,20.555L423.027,20.549L423.75,20.546L424.473,20.531L425.195,20.54L425.918,20.522L426.641,20.525L427.363,20.517L428.086,20.507L428.809,20.509L429.531,20.508L430.254,20.491L430.977,20.495L431.699,20.486L432.422,20.483L433.145,20.483L433.867,20.474L434.59,20.471L435.313,20.466L436.035,20.464L436.758,20.458L437.48,20.457L438.203,20.458L438.926,20.454L439.648,20.45L440.371,20.448L441.094,20.441L441.816,20.448L442.539,20.438L443.262,20.438L443.984,20.435L444.707,20.438L445.43,20.43L446.152,20.43L446.875,20.429L447.598,20.425L448.32,20.424L449.043,20.421L449.766,20.419L450.488,20.417L451.211,20.416L451.934,20.416L452.656,20.415L453.379,20.412L454.102,20.41L454.824,20.409L455.547,20.408L456.27,20.407L456.992,20.406L457.715,20.404L458.438,20.403L459.16,20.405L459.883,20.401L460.605,20.401L461.328,20.404L462.051,20.399L462.773,20.398L463.496,20.399L464.219,20.395L464.941,20.395L465.664,20.395L466.387,20.394L467.109,20.393L467.832,20.393L468.555,20.391L469.277,20.393"/><path fill="none" stroke="rgb(203, 47, 13)" stroke-width="1.5" d="M100,33.591L100.723,33.424L101.445,33.184L102.168,32.951L102.891,32.768L103.613,32.472L104.336,32.319L105.059,32.076L105.781,31.765L106.504,31.642L107.227,31.363L107.949,31.348L108.672,31.064L109.395,30.919L110.117,30.707L110.84,30.45L111.563,30.315L112.285,30.109L113.008,29.892L113.73,29.783L114.453,29.43L115.176,29.17L115.898,29.07L116.621,28.81L117.344,28.601L118.066,28.407L118.789,28.239L119.512,28.044L120.234,27.906L120.957,27.642L121.68,27.465L122.402,27.254L123.125,27.097L123.848,26.843L124.57,26.72L125.293,26.471L126.016,26.218L126.738,26.104L127.461,25.879L128.184,25.727L128.906,25.426L129.629,25.188L130.352,25.093L131.074,24.828L131.797,24.671L132.52,24.484L133.242,24.206L133.965,24.071L134.688,23.768L135.41,23.615L136.133,23.29L136.855,23.135L137.578,22.952L138.301,22.717L139.023,22.602L139.746,22.328L140.469,22.175L141.191,21.849L141.914,21.967L142.637,24.822L143.359,27.589L144.082,30.431L144.805,33.172L145.527,36.003L146.25,38.809L146.973,39.105L147.695,39.463L148.418,39.703L149.141,39.977L149.863,40.181L150.586,40.458L151.309,40.743L152.031,40.901L152.754,41.042L153.477,41.335L154.199,41.537L154.922,41.779L155.645,41.924L156.367,42.093L157.09,42.305L157.813,42.41L158.535,42.6L159.258,42.838L159.98,42.93L160.703,43.046L161.426,43.247L162.148,43.408L162.871,43.559L163.594,43.684L164.316,43.832L165.039,44.029L165.762,44.009L166.484,44.167L167.207,44.309L167.93,44.309L168.652,44.392L169.375,44.464L170.098,44.548L170.82,44.666L171.543,44.721L172.266,44.865L172.988,44.829L173.711,44.938L174.434,45.066L175.156,44.961L175.879,44.98L176.602,45.136L177.324,45.07L178.047,45.11L178.77,45.174L179.492,45.182L180.215,45.287L180.938,45.315L181.66,45.262L182.383,45.248L183.105,45.235L183.828,45.075L184.551,45.345L185.273,45.243L185.996,45.343L186.719,45.266L187.441,45.374L188.164,45.267L188.887,45.121L189.609,45.183L190.332,45.232L191.055,45.229L191.777,45.052L192.5,45.101L193.223,45.074L193.945,45.052L194.668,45.01L195.391,45.003L196.113,44.887L196.836,44.939L197.559,44.77L198.281,44.758L199.004,44.583L199.727,44.556L200.449,44.524L201.172,44.476L201.895,44.41L202.617,44.352L203.34,44.285L204.063,44.279L204.785,44.136L205.508,44.129L206.23,44.058L206.953,43.903L207.676,43.836L208.398,43.879L209.121,43.684L209.844,43.585L210.566,43.431L211.289,43.445L212.012,43.257L212.734,43.224L213.457,43.21L214.18,42.953L214.902,42.909L215.625,42.861L216.348,42.812L217.07,42.694L217.793,42.658L218.516,42.642L219.238,42.412L219.961,42.301L220.684,42.203L221.406,42.175L222.129,42.068L222.852,41.977L223.574,41.849L224.297,41.744L225.02,41.653L225.742,41.574L226.465,41.45L227.188,41.359L227.91,41.33L228.633,41.156L229.355,41.014L230.078,40.911L230.801,40.901L231.523,40.683L232.246,40.718L232.969,40.484L233.691,40.5L234.414,40.391L235.137,40.277L235.859,40.153L236.582,39.987L237.305,39.94L238.027,39.803L238.75,39.72L239.473,39.663L240.195,39.576L240.918,39.454L241.641,39.351L242.363,39.241L243.086,39.1L243.809,39.01L244.531,38.903L245.254,38.803L245.977,38.744L246.699,38.67L247.422,38.596L248.145,38.42L248.867,38.375L249.59,38.266L250.313,38.159L251.035,38.119L251.758,38.029L252.48,37.906L253.203,37.852L253.926,37.708L254.648,37.669L255.371,37.647L256.094,37.528L256.816,37.452L257.539,37.372L258.262,37.242L258.984,37.18L259.707,37.152L260.43,37.087L261.152,37.099L261.875,36.948L262.598,36.854L263.32,36.89L264.043,36.766L264.766,36.664L265.488,36.721L266.211,36.647L266.934,36.601L267.656,36.618L268.379,36.55L269.102,36.551L269.824,36.533L270.547,36.466L271.27,36.457L271.992,36.44L272.715,36.332L273.438,36.345L274.16,36.34L274.883,36.332L275.605,36.27L276.328,36.278L277.051,36.273L277.773,36.29L278.496,36.097L279.219,36.125L279.941,36.125L280.664,36.167L281.387,36.039L282.109,35.995L282.832,35.978L283.555,35.93L284.277,35.836L285,35.758L285.723,35.781L286.445,35.649L287.168,35.574L287.891,35.537L288.613,35.465L289.336,35.487L290.059,35.28L290.781,35.203L291.504,35.088L292.227,35.081L292.949,34.965L293.672,34.921L294.395,34.832L295.117,34.608L295.84,34.552L296.563,34.464L297.285,34.392L298.008,34.328L298.73,34.165L299.453,34.137L300.176,34.048L300.898,33.952L301.621,33.855L302.344,33.705L303.066,33.633L303.789,33.553L304.512,33.386L305.234,33.326L305.957,33.235L306.68,33.149L307.402,33.061L308.125,32.958L308.848,32.792L309.57,32.792L310.293,32.69L311.016,32.559L311.738,32.545L312.461,32.415L313.184,32.361L313.906,32.256L314.629,32.17L315.352,32.077L316.074,32.045L316.797,31.831L317.52,31.8L318.242,31.752L318.965,31.668L319.688,31.648L320.41,31.508L321.133,31.454L321.855,31.323L322.578,31.292L323.301,31.216L324.023,31.079L324.746,31.044L325.469,30.974L326.191,30.888L326.914,30.783L327.637,30.67L328.359,30.643L329.082,30.54L329.805,30.393L330.527,30.37L331.25,30.283L331.973,30.183L332.695,30.11L333.418,30.008L334.141,29.876L334.863,29.818L335.586,29.682L336.309,29.609L337.031,29.504L337.754,29.448L338.477,29.288L339.199,29.167L339.922,29.061L340.645,28.964L341.367,28.774L342.09,28.698L342.813,28.56L343.535,28.481L344.258,28.297L344.98,28.199L345.703,28.052L346.426,28.002L347.148,27.814L347.871,27.716L348.594,27.557L349.316,27.455L350.039,27.368L350.762,27.195L351.484,27.029L352.207,26.941L352.93,26.786L353.652,26.628L354.375,26.526L355.098,26.451L355.82,26.234L356.543,26.102L357.266,26.002L357.988,25.867L358.711,25.696L359.434,25.612L360.156,25.469L360.879,25.317L361.602,25.186L362.324,25.061L363.047,24.944L363.77,24.842L364.492,24.742L365.215,24.657L365.938,24.476L366.66,24.391L367.383,24.24L368.105,24.167L368.828,24.025L369.551,23.938L370.273,23.805L370.996,23.703L371.719,23.653L372.441,23.526L373.164,23.43L373.887,23.316L374.609,23.265L375.332,23.165L376.055,23.048L376.777,22.989L377.5,22.893L378.223,22.817L378.945,22.707L379.668,22.677L380.391,22.577L381.113,22.483L381.836,22.403L382.559,22.352L383.281,22.28L384.004,22.211L384.727,22.185L385.449,22.096L386.172,22.05L386.895,21.983L387.617,21.925L388.34,21.852L389.063,21.812L389.785,21.774L390.508,21.731L391.23,21.659L391.953,21.638L392.676,21.566L393.398,21.538L394.121,21.519L394.844,21.446L395.566,21.396L396.289,21.395L397.012,21.316L397.734,21.284L398.457,21.254L399.18,21.254L399.902,21.192L400.625,21.175L401.348,21.154L402.07,21.12L402.793,21.09L403.516,21.056L404.238,21.03L404.961,21.021L405.684,20.983L406.406,20.958L407.129,20.945L407.852,20.919L408.574,20.892L409.297,20.88L410.02,20.872L410.742,20.847L411.465,20.828L412.188,20.809L412.91,20.794L413.633,20.779L414.355,20.773L415.078,20.747L415.801,20.732L416.523,20.72L417.246,20.71L417.969,20.695L418.691,20.679L419.414,20.683L420.137,20.664L420.859,20.653L421.582,20.642L422.305,20.638L423.027,20.618L423.75,20.613L424.473,20.604L425.195,20.583L425.918,20.596L426.641,20.582L427.363,20.568L428.086,20.569L428.809,20.559L429.531,20.556L430.254,20.544L430.977,20.537L431.699,20.53L432.422,20.524L433.145,20.527L433.867,20.519L434.59,20.515L435.313,20.505L436.035,20.502L436.758,20.496L437.48,20.493L438.203,20.491L438.926,20.481L439.648,20.479L440.371,20.479L441.094,20.472L441.816,20.468L442.539,20.456L443.262,20.461L443.984,20.465L444.707,20.455L445.43,20.449L446.152,20.454L446.875,20.447L447.598,20.44L448.32,20.447L449.043,20.445L449.766,20.437L450.488,20.437L451.211,20.429L451.934,20.433L452.656,20.433L453.379,20.429L454.102,20.425L454.824,20.42L455.547,20.421L456.27,20.417L456.992,20.416L457.715,20.415L458.438,20.415L459.16,20.418L459.883,20.415L460.605,20.413L461.328,20.413L462.051,20.407L462.773,20.405L463.496,20.406L464.219,20.406L464.941,20.402L465.664,20.403L466.387,20.402L467.109,20.404L467.832,20.398L468.555,20.4L469.277,20.399"/><g transform="translate(15,190) scale(1.7) rotate(-90)"><text>Drift</text></g><g transform="translate(315,395) scale(1.8)"><text></text></g><g transform="translate(0,350)" fill="none" font-size="10" font-family="sans-serif" text-anchor="middle"><path class="domain" stroke="currentColor" d="M100,6V0H470V6"/><g class="tick" opacity="1" transform="translate(136.96669666966696,0)"><line stroke="currentColor" y2="6"/><text fill="currentColor" y="9" dy="0.71em" font-size="20px"> </text></g><g class="tick" opacity="1" transform="translate(173.97039703970398,0)"><line stroke="currentColor" y2="6"/><text fill="currentColor" y="9" dy="0.71em" font-size="20px">20</text></g><g class="tick" opacity="1" transform="translate(210.97409740974098,0)"><line stroke="currentColor" y2="6"/><text fill="currentColor" y="9" dy="0.71em" font-size="20px"> </text></g><g class="tick" opacity="1" transform="translate(247.97779777977803,0)"><line stroke="currentColor" y2="6"/><text fill="currentColor" y="9" dy="0.71em" font-size="20px">40</text></g><g class="tick" opacity="1" transform="translate(284.981498149815,0)"><line stroke="currentColor" y2="6"/><text fill="currentColor" y="9" dy="0.71em" font-size="20px"> </text></g><g class="tick" opacity="1" transform="translate(321.985198519852,0)"><line stroke="currentColor" y2="6"/><text fill="currentColor" y="9" dy="0.71em" font-size="20px">60</text></g><g class="tick" opacity="1" transform="translate(358.988898889889,0)"><line stroke="currentColor" y2="6"/><text fill="currentColor" y="9" dy="0.71em" font-size="20px"> </text></g><g class="tick" opacity="1" transform="translate(395.992599259926,0)"><line stroke="currentColor" y2="6"/><text fill="currentColor" y="9" dy="0.71em" font-size="20px">80</text></g><g class="tick" opacity="1" transform="translate(432.996299629963,0)"><line stroke="currentColor" y2="6"/><text fill="currentColor" y="9" dy="0.71em" font-size="20px"> </text></g><g class="tick" opacity="1" transform="translate(470,0)"><line stroke="currentColor" y2="6"/><text fill="currentColor" y="9" dy="0.71em" font-size="20px">100</text></g></g><g transform="translate(100,0)" fill="none" font-size="10" font-family="sans-serif" text-anchor="end"><path class="domain" stroke="currentColor" d="M-6,350H0V20H-6"/><g class="tick" opacity="1" transform="translate(0,342.8947170388961)"><line stroke="currentColor" x2="-6"/><text fill="currentColor" x="-9" dy="0.32em" font-size="20px">0.60</text></g><g class="tick" opacity="1" transform="translate(0,315.2503281492902)"><line stroke="currentColor" x2="-6"/><text fill="currentColor" x="-9" dy="0.32em" font-size="20px">0.55</text></g><g class="tick" opacity="1" transform="translate(0,287.6059392596843)"><line stroke="currentColor" x2="-6"/><text fill="currentColor" x="-9" dy="0.32em" font-size="20px">0.50</text></g><g class="tick" opacity="1" transform="translate(0,259.96155037007844)"><line stroke="currentColor" x2="-6"/><text fill="currentColor" x="-9" dy="0.32em" font-size="20px">0.45</text></g><g class="tick" opacity="1" transform="translate(0,232.31716148047258)"><line stroke="currentColor" x2="-6"/><text fill="currentColor" x="-9" dy="0.32em" font-size="20px">0.40</text></g><g class="tick" opacity="1" transform="translate(0,204.67277259086666)"><line stroke="currentColor" x2="-6"/><text fill="currentColor" x="-9" dy="0.32em" font-size="20px">0.35</text></g><g class="tick" opacity="1" transform="translate(0,177.02838370126076)"><line stroke="currentColor" x2="-6"/><text fill="currentColor" x="-9" dy="0.32em" font-size="20px">0.30</text></g><g class="tick" opacity="1" transform="translate(0,149.3839948116549)"><line stroke="currentColor" x2="-6"/><text fill="currentColor" x="-9" dy="0.32em" font-size="20px">0.25</text></g><g class="tick" opacity="1" transform="translate(0,121.73960592204901)"><line stroke="currentColor" x2="-6"/><text fill="currentColor" x="-9" dy="0.32em" font-size="20px">0.20</text></g><g class="tick" opacity="1" transform="translate(0,94.09521703244314)"><line stroke="currentColor" x2="-6"/><text fill="currentColor" x="-9" dy="0.32em" font-size="20px">0.15</text></g><g class="tick" opacity="1" transform="translate(0,66.45082814283725)"><line stroke="currentColor" x2="-6"/><text fill="currentColor" x="-9" dy="0.32em" font-size="20px">0.10</text></g><g class="tick" opacity="1" transform="translate(0,38.80643925323139)"><line stroke="currentColor" x2="-6"/><text fill="currentColor" x="-9" dy="0.32em" font-size="20px">0.05</text></g></g><circle cx="355" cy="150" r="8" style="fill: rgb(35, 23, 27);"/><circle cx="355" cy="175" r="8" style="fill: rgb(69, 105, 238);"/><circle cx="355" cy="200" r="8" style="fill: rgb(38, 188, 225);"/><circle cx="355" cy="225" r="8" style="fill: rgb(63, 243, 147);"/><circle cx="355" cy="250" r="8" style="fill: rgb(149, 251, 81);"/><circle cx="355" cy="275" r="8" style="fill: rgb(236, 209, 46);"/><circle cx="355" cy="300" r="8" style="fill: rgb(255, 130, 29);"/><circle cx="355" cy="325" r="8" style="fill: rgb(203, 47, 13);"/><text x="370" y="150" text-anchor="left" font-size="22" alignment-baseline="middle" style="fill: rgb(35, 23, 27);"> = 0</text><text x="370" y="175" text-anchor="left" font-size="22" alignment-baseline="middle" style="fill: rgb(69, 105, 238);"> = 0.22</text><text x="370" y="200" text-anchor="left" font-size="22" alignment-baseline="middle" style="fill: rgb(38, 188, 225);"> = 0.45</text><text x="370" y="225" text-anchor="left" font-size="22" alignment-baseline="middle" style="fill: rgb(63, 243, 147);"> = 0.67</text><text x="370" y="250" text-anchor="left" font-size="22" alignment-baseline="middle" style="fill: rgb(149, 251, 81);"> = 0.9</text><text x="370" y="275" text-anchor="left" font-size="22" alignment-baseline="middle" style="fill: rgb(236, 209, 46);"> = 1.12</text><text x="370" y="300" text-anchor="left" font-size="22" alignment-baseline="middle" style="fill: rgb(255, 130, 29);"> = 1.35</text><text x="370" y="325" text-anchor="left" font-size="22" alignment-baseline="middle" style="fill: rgb(203, 47, 13);"> = 1.57</text></svg>