<svg xmlns="http://www.w3.org/2000/svg" class="bg-white" width="500" height="400" viewBox="-10 -1 500 400"><path fill="none" stroke="rgb(35, 23, 27)" stroke-width="1.5" d="M100,112.514L100.723,112.906L101.445,113.063L102.168,113.456L102.891,113.736L103.613,114.097L104.336,114.506L105.059,114.691L105.781,115.181L106.504,115.449L107.227,115.791L107.949,116.307L108.672,116.568L109.395,116.974L110.117,117.325L110.84,117.851L111.563,118.175L112.285,118.585L113.008,119.105L113.73,119.459L114.453,119.94L115.176,120.369L115.898,120.902L116.621,121.376L117.344,121.795L118.066,122.388L118.789,122.814L119.512,123.319L120.234,123.855L120.957,124.384L121.68,124.906L122.402,125.456L123.125,126.051L123.848,126.786L124.57,127.398L125.293,127.811L126.016,128.639L126.738,129.116L127.461,129.836L128.184,130.517L128.906,131.25L129.629,131.873L130.352,132.612L131.074,133.375L131.797,134.238L132.52,134.894L133.242,135.734L133.965,136.505L134.688,137.446L135.41,138.125L136.133,139.03L136.855,140.022L137.578,140.941L138.301,141.844L139.023,142.898L139.746,143.827L140.469,144.719L141.191,145.817L141.914,146.938L142.637,147.898L143.359,149.048L144.082,150.23L144.805,151.431L145.527,152.602L146.25,154.02L146.973,155.306L147.695,156.554L148.418,157.872L149.141,159.278L149.863,160.682L150.586,162.157L151.309,163.857L152.031,165.428L152.754,167.061L153.477,168.944L154.199,170.605L154.922,172.393L155.645,174.283L156.367,176.277L157.09,178.252L157.813,180.429L158.535,182.624L159.258,184.996L159.98,187.222L160.703,189.808L161.426,192.082L162.148,194.655L162.871,197.464L163.594,200.217L164.316,203.204L165.039,205.966L165.762,209.077L166.484,212.115L167.207,215.434L167.93,218.628L168.652,222.031L169.375,225.582L170.098,228.813L170.82,232.311L171.543,236.01L172.266,239.629L172.988,243.833L173.711,247.638L174.434,250.915L175.156,254.763L175.879,258.588L176.602,263.129L177.324,266.666L178.047,270.309L178.77,274.058L179.492,278.407L180.215,281.889L180.938,285.817L181.66,289.745L182.383,293.183L183.105,297.041L183.828,300.54L184.551,304.081L185.273,307.416L185.996,310.75L186.719,314.199L187.441,317.232L188.164,319.808L188.887,323.008L189.609,325.54L190.332,328.29L191.055,331.039L191.777,333.308L192.5,335.091L193.223,337.112L193.945,339.039L194.668,341.342L195.391,342.277L196.113,343.856L196.836,345.146L197.559,346.77L198.281,347.186L199.004,348.081L199.727,348.686L200.449,349.212L201.172,349.722L201.895,349.852L202.617,350L203.34,349.484L204.063,349.226L204.785,348.885L205.508,348.431L206.23,347.475L206.953,346.354L207.676,345.382L208.398,344.456L209.121,342.975L209.844,341.521L210.566,339.607L211.289,338.2L212.012,336.184L212.734,334.262L213.457,332.36L214.18,330.173L214.902,327.926L215.625,325.717L216.348,323.01L217.07,320.755L217.793,318.184L218.516,315.251L219.238,312.565L219.961,309.773L220.684,306.933L221.406,303.864L222.129,300.945L222.852,298.081L223.574,294.671L224.297,291.622L225.02,288.545L225.742,285.643L226.465,282.155L227.188,278.868L227.91,275.591L228.633,272.282L229.355,268.774L230.078,265.539L230.801,262.441L231.523,258.726L232.246,255.323L232.969,252.16L233.691,248.612L234.414,245.082L235.137,241.873L235.859,238.528L236.582,235.014L237.305,231.475L238.027,228.156L238.75,224.826L239.473,221.54L240.195,218.17L240.918,214.747L241.641,211.498L242.363,208.148L243.086,204.759L243.809,201.466L244.531,198.379L245.254,195.044L245.977,191.79L246.699,188.549L247.422,185.38L248.145,182.385L248.867,179.104L249.59,176.096L250.313,172.963L251.035,169.952L251.758,166.778L252.48,163.665L253.203,160.939L253.926,157.623L254.648,155.02L255.371,152.097L256.094,148.92L256.816,146.427L257.539,143.603L258.262,140.802L258.984,137.957L259.707,135.402L260.43,132.74L261.152,129.952L261.875,127.365L262.598,124.778L263.32,122.244L264.043,119.754L264.766,117.472L265.488,114.898L266.211,112.567L266.934,110.139L267.656,107.792L268.379,107.251L269.102,107.757L269.824,108.569L270.547,109.239L271.27,109.852L271.992,110.716L272.715,110.382L273.438,108.666L274.16,106.859L274.883,105.407L275.605,103.748L276.328,102.039L277.051,100.48L277.773,98.936L278.496,97.526L279.219,95.809L279.941,94.22L280.664,92.846L281.387,91.412L282.109,89.93L282.832,88.474L283.555,87.054L284.277,85.601L285,84.35L285.723,82.921L286.445,81.803L287.168,80.489L287.891,79.197L288.613,77.904L289.336,76.59L290.059,75.438L290.781,74.302L291.504,73.169L292.227,71.928L292.949,70.854L293.672,69.789L294.395,68.782L295.117,67.59L295.84,66.494L296.563,65.395L297.285,64.345L298.008,63.465L298.73,62.51L299.453,61.42L300.176,60.698L300.898,59.707L301.621,58.75L302.344,57.858L303.066,56.96L303.789,56.095L304.512,55.189L305.234,54.209L305.957,53.518L306.68,52.636L307.402,51.787L308.125,51.206L308.848,50.44L309.57,49.473L310.293,48.963L311.016,48.052L311.738,47.339L312.461,46.757L313.184,46.031L313.906,45.236L314.629,44.83L315.352,44.04L316.074,43.555L316.797,42.796L317.52,42.087L318.242,41.643L318.965,40.917L319.688,40.406L320.41,39.751L321.133,39.345L321.855,38.818L322.578,38.215L323.301,37.702L324.023,37.179L324.746,36.692L325.469,36.305L326.191,35.844L326.914,35.239L327.637,34.778L328.359,34.226L329.082,33.957L329.805,33.514L330.527,33.088L331.25,32.604L331.973,32.166L332.695,31.898L333.418,31.526L334.141,31.248L334.863,30.557L335.586,30.396L336.309,30.102L337.031,29.782L337.754,29.354L338.477,29.158L339.199,28.732L339.922,28.571L340.645,28.125L341.367,27.968L342.09,27.59L342.813,27.3L343.535,27.228L344.258,26.784L344.98,26.625L345.703,26.506L346.426,26.242L347.148,26.043L347.871,25.815L348.594,25.365L349.316,25.128L350.039,25.259L350.762,25.067L351.484,24.749L352.207,24.607L352.93,24.332L353.652,24.246L354.375,24.331L355.098,23.584L355.82,23.773L356.543,23.72L357.266,23.686L357.988,23.388L358.711,23.131L359.434,23.248L360.156,22.948L360.879,23.038L361.602,22.895L362.324,22.893L363.047,22.408L363.77,22.739L364.492,22.4L365.215,22.251L365.938,22.196L366.66,21.956L367.383,22.209L368.105,22.061L368.828,22.019L369.551,22.055L370.273,22.18L370.996,21.821L371.719,21.847L372.441,21.836L373.164,21.9L373.887,21.678L374.609,22.212L375.332,21.939L376.055,21.513L376.777,21.189L377.5,21.029L378.223,21.195L378.945,21.545L379.668,21.159L380.391,21.177L381.113,21.341L381.836,21.179L382.559,21.24L383.281,21.064L384.004,20.853L384.727,21.561L385.449,21.304L386.172,21.539L386.895,21.251L387.617,21.588L388.34,22.066L389.063,21.518L389.785,21.273L390.508,21.362L391.23,21.203L391.953,22.054L392.676,21.549L393.398,21.551L394.121,21.828L394.844,21.718L395.566,21.564L396.289,21.553L397.012,21.431L397.734,21.66L398.457,21.584L399.18,21.829L399.902,21.016L400.625,23.077L401.348,22.886L402.07,22.429L402.793,22.511L403.516,22.044L404.238,22.581L404.961,23.451L405.684,23.693L406.406,24.299L407.129,23.975L407.852,25.244L408.574,24.292L409.297,26.482L410.02,25.723L410.742,23.765L411.465,24.899L412.188,24.496L412.91,26.204L413.633,26.037L414.355,26.782L415.078,27.804L415.801,28.797L416.523,28.239L417.246,28.449L417.969,28.672L418.691,31.226L419.414,28.522L420.137,30.077L420.859,30.035L421.582,29.264L422.305,30.308L423.027,29.571L423.75,31.02L424.473,31.05L425.195,30.05L425.918,29.581L426.641,30.076L427.363,30.782L428.086,30.112L428.809,29.382L429.531,28.38L430.254,28.593L430.977,28.007L431.699,28.258L432.422,28.342L433.145,27.079L433.867,26.664L434.59,27.386L435.313,26.148L436.035,26.233L436.758,25.834L437.48,25.746L438.203,26.156L438.926,25.097L439.648,24.557L440.371,25.318L441.094,23.703L441.816,24.56L442.539,24.256L443.262,24.033L443.984,24.163L444.707,23.496L445.43,23.658L446.152,23.354L446.875,22.979L447.598,22.808L448.32,22.716L449.043,22.775L449.766,22.418L450.488,22.407L451.211,21.987L451.934,21.548L452.656,22.16L453.379,21.399L454.102,21.627L454.824,21.674L455.547,21.712L456.27,21.66L456.992,21.4L457.715,21.342L458.438,21.085L459.16,21.288L459.883,21.161L460.605,20.991L461.328,20.884L462.051,21.106L462.773,21.056L463.496,20.854L464.219,20.935L464.941,20.912L465.664,20.886L466.387,20.647L467.109,20.696L467.832,20.789L468.555,20.524L469.277,20.561"/><path fill="none" stroke="rgb(69, 105, 238)" stroke-width="1.5" d="M100,112.309L100.723,112.431L101.445,112.938L102.168,113.253L102.891,113.471L103.613,113.927L104.336,114.186L105.059,114.547L105.781,114.818L106.504,115.187L107.227,115.558L107.949,115.866L108.672,116.315L109.395,116.717L110.117,117.044L110.84,117.419L111.563,117.792L112.285,118.262L113.008,118.58L113.73,119.079L114.453,119.494L115.176,119.996L115.898,120.476L116.621,120.751L117.344,121.316L118.066,121.787L118.789,122.308L119.512,122.936L120.234,123.33L120.957,123.804L121.68,124.501L122.402,124.943L123.125,125.525L123.848,126.127L124.57,126.753L125.293,127.257L126.016,127.951L126.738,128.641L127.461,129.137L128.184,129.819L128.906,130.427L129.629,131.139L130.352,131.766L131.074,132.616L131.797,133.293L132.52,134.037L133.242,134.759L133.965,135.54L134.688,136.376L135.41,137.255L136.133,138.09L136.855,138.808L137.578,139.693L138.301,140.584L139.023,141.405L139.746,142.522L140.469,143.565L141.191,144.47L141.914,145.445L142.637,146.47L143.359,147.532L144.082,148.787L144.805,149.68L145.527,150.883L146.25,151.936L146.973,153.334L147.695,154.535L148.418,155.667L149.141,157.037L149.863,158.301L150.586,159.721L151.309,161.137L152.031,162.596L152.754,164.166L153.477,165.52L154.199,167.097L154.922,168.769L155.645,170.223L156.367,172.042L157.09,173.719L157.813,175.424L158.535,177.222L159.258,179.189L159.98,180.784L160.703,182.923L161.426,184.878L162.148,186.945L162.871,188.937L163.594,190.956L164.316,193.253L165.039,195.228L165.762,197.683L166.484,200.075L167.207,202.184L167.93,204.495L168.652,206.934L169.375,209.258L170.098,211.782L170.82,214.334L171.543,216.626L172.266,219.079L172.988,221.787L173.711,224.11L174.434,226.821L175.156,229.03L175.879,231.511L176.602,233.854L177.324,236.674L178.047,239.121L178.77,241.388L179.492,243.889L180.215,246.221L180.938,248.567L181.66,250.94L182.383,253.247L183.105,255.452L183.828,257.368L184.551,259.37L185.273,261.54L185.996,263.536L186.719,265.663L187.441,267.155L188.164,268.831L188.887,270.701L189.609,272.209L190.332,273.732L191.055,275.165L191.777,276.61L192.5,277.622L193.223,278.482L193.945,279.708L194.668,280.518L195.391,281.295L196.113,281.862L196.836,282.68L197.559,282.805L198.281,283.18L199.004,283.55L199.727,283.64L200.449,283.452L201.172,283.228L201.895,283.005L202.617,282.655L203.34,282.229L204.063,281.653L204.785,281.015L205.508,280.033L206.23,279.204L206.953,278.234L207.676,277.058L208.398,275.935L209.121,274.699L209.844,273.152L210.566,271.618L211.289,270.174L212.012,268.49L212.734,266.736L213.457,264.891L214.18,263.023L214.902,261.355L215.625,258.99L216.348,257.128L217.07,255.071L217.793,252.671L218.516,250.375L219.238,248.204L219.961,245.834L220.684,243.44L221.406,240.832L222.129,238.453L222.852,235.892L223.574,233.376L224.297,230.704L225.02,228.289L225.742,225.591L226.465,222.981L227.188,220.232L227.91,217.447L228.633,214.804L229.355,212.048L230.078,209.421L230.801,206.614L231.523,204.188L232.246,201.178L232.969,198.232L233.691,195.459L234.414,192.594L235.137,189.873L235.859,187.171L236.582,184.624L237.305,181.713L238.027,179.128L238.75,176.308L239.473,173.416L240.195,170.713L240.918,168.024L241.641,165.196L242.363,162.749L243.086,159.793L243.809,157.269L244.531,154.637L245.254,152.15L245.977,149.543L246.699,146.888L247.422,144.238L248.145,141.659L248.867,139.251L249.59,136.596L250.313,134.136L251.035,132.019L251.758,129.323L252.48,126.79L253.203,124.584L253.926,121.905L254.648,119.777L255.371,117.503L256.094,115.37L256.816,112.987L257.539,110.851L258.262,108.765L258.984,106.653L259.707,104.732L260.43,102.38L261.152,100.554L261.875,98.431L262.598,96.686L263.32,94.696L264.043,92.478L264.766,90.836L265.488,88.827L266.211,87.422L266.934,85.494L267.656,86.563L268.379,87.665L269.102,88.929L269.824,90.299L270.547,91.476L271.27,92.843L271.992,92.298L272.715,91.076L273.438,89.962L274.16,88.935L274.883,87.791L275.605,86.759L276.328,85.6L277.051,84.552L277.773,83.534L278.496,82.45L279.219,81.46L279.941,80.342L280.664,79.361L281.387,78.305L282.109,77.128L282.832,76.363L283.555,75.437L284.277,74.402L285,73.436L285.723,72.423L286.445,71.511L287.168,70.562L287.891,69.707L288.613,68.787L289.336,67.765L290.059,66.857L290.781,66.13L291.504,65.205L292.227,64.368L292.949,63.729L293.672,62.666L294.395,62.024L295.117,61.026L295.84,60.246L296.563,59.515L297.285,58.598L298.008,57.941L298.73,57.271L299.453,56.518L300.176,55.652L300.898,55.038L301.621,54.308L302.344,53.582L303.066,52.923L303.789,52.041L304.512,51.236L305.234,50.719L305.957,50.041L306.68,49.341L307.402,48.652L308.125,48.095L308.848,47.4L309.57,46.902L310.293,46.361L311.016,45.74L311.738,45.046L312.461,44.451L313.184,43.774L313.906,43.213L314.629,42.587L315.352,42.095L316.074,41.71L316.797,41.085L317.52,40.532L318.242,40.005L318.965,39.597L319.688,39.074L320.41,38.473L321.133,38.11L321.855,37.595L322.578,37.053L323.301,36.839L324.023,36.264L324.746,35.969L325.469,35.316L326.191,35.02L326.914,34.659L327.637,34.186L328.359,33.67L329.082,33.475L329.805,32.942L330.527,32.53L331.25,32.332L331.973,31.617L332.695,31.528L333.418,31.159L334.141,31.14L334.863,30.706L335.586,30.133L336.309,29.909L337.031,29.521L337.754,29.297L338.477,28.684L339.199,28.655L339.922,28.605L340.645,28.177L341.367,28.074L342.09,27.346L342.813,27.425L343.535,26.977L344.258,26.602L344.98,26.71L345.703,26.446L346.426,26.586L347.148,26.168L347.871,25.643L348.594,25.47L349.316,25.569L350.039,25.216L350.762,25.054L351.484,24.728L352.207,24.66L352.93,24.507L353.652,24.111L354.375,23.853L355.098,23.724L355.82,23.872L356.543,24.243L357.266,23.458L357.988,23.906L358.711,24.002L359.434,23.09L360.156,23.068L360.879,22.937L361.602,23.4L362.324,22.753L363.047,22.567L363.77,22.809L364.492,22.298L365.215,23.192L365.938,22.606L366.66,22.659L367.383,22.256L368.105,22.157L368.828,22.085L369.551,22.455L370.273,21.69L370.996,21.454L371.719,22.174L372.441,21.314L373.164,21.848L373.887,21.786L374.609,21.13L375.332,21.229L376.055,21.067L376.777,22.197L377.5,21.919L378.223,21.993L378.945,21.426L379.668,21.6L380.391,21.374L381.113,21.217L381.836,21.01L382.559,21.534L383.281,20.915L384.004,21.298L384.727,22.043L385.449,20.951L386.172,22.575L386.895,21.088L387.617,21.458L388.34,21.134L389.063,21L389.785,22.251L390.508,20.434L391.23,21.837L391.953,21.224L392.676,21.419L393.398,21.042L394.121,21.078L394.844,20.973L395.566,21.505L396.289,21.935L397.012,21.432L397.734,21.81L398.457,21.442L399.18,22.152L399.902,20.879L400.625,22.081L401.348,21.899L402.07,21.601L402.793,23.19L403.516,23.84L404.238,23.667L404.961,22.23L405.684,23.528L406.406,23.21L407.129,22.742L407.852,23.692L408.574,24.511L409.297,24.233L410.02,25.402L410.742,25.014L411.465,25.23L412.188,25.426L412.91,25.383L413.633,27.047L414.355,25.309L415.078,25.344L415.801,26.768L416.523,26.338L417.246,27.724L417.969,28.993L418.691,27.585L419.414,29.239L420.137,28.222L420.859,28.603L421.582,27.578L422.305,27.977L423.027,29.341L423.75,28.186L424.473,29.176L425.195,29.494L425.918,28.16L426.641,29.134L427.363,27.976L428.086,29.556L428.809,29.035L429.531,27.389L430.254,27.686L430.977,27.541L431.699,26.965L432.422,26.664L433.145,26.815L433.867,26.658L434.59,27.212L435.313,26.464L436.035,25.981L436.758,25.922L437.48,25.053L438.203,24.299L438.926,24.699L439.648,25.351L440.371,24.15L441.094,24.098L441.816,23.966L442.539,23.954L443.262,23.746L443.984,23.742L444.707,23.576L445.43,23.402L446.152,22.485L446.875,22.764L447.598,22.44L448.32,22.576L449.043,22.315L449.766,22.109L450.488,21.577L451.211,21.779L451.934,21.877L452.656,21.659L453.379,21.535L454.102,21.477L454.824,21.671L455.547,21.507L456.27,21.298L456.992,21.154L457.715,21.177L458.438,20.927L459.16,20.891L459.883,21.015L460.605,21.089L461.328,20.744L462.051,20.948L462.773,20.793L463.496,20.871L464.219,20.768L464.941,20.922L465.664,20.782L466.387,20.733L467.109,20.765L467.832,20.6L468.555,20.656L469.277,20.644"/><path fill="none" stroke="rgb(38, 188, 225)" stroke-width="1.5" d="M100,111.448L100.723,111.784L101.445,112.08L102.168,112.355L102.891,112.684L103.613,112.902L104.336,113.326L105.059,113.695L105.781,113.787L106.504,114.257L107.227,114.536L107.949,114.987L108.672,115.144L109.395,115.554L110.117,115.971L110.84,116.238L111.563,116.66L112.285,117.003L113.008,117.466L113.73,118.001L114.453,118.222L115.176,118.653L115.898,119.057L116.621,119.452L117.344,119.736L118.066,120.23L118.789,120.834L119.512,121.116L120.234,121.752L120.957,122.327L121.68,122.865L122.402,123.286L123.125,123.67L123.848,124.181L124.57,124.869L125.293,125.32L126.016,125.84L126.738,126.495L127.461,127.121L128.184,127.492L128.906,128.26L129.629,128.785L130.352,129.434L131.074,130.15L131.797,130.706L132.52,131.534L133.242,131.912L133.965,132.656L134.688,133.523L135.41,134.263L136.133,134.871L136.855,135.598L137.578,136.475L138.301,137.233L139.023,138.085L139.746,138.903L140.469,139.547L141.191,140.566L141.914,141.536L142.637,142.375L143.359,143.24L144.082,144.337L144.805,145.173L145.527,146.158L146.25,147.079L146.973,148.195L147.695,149.167L148.418,150.328L149.141,151.3L149.863,152.665L150.586,153.701L151.309,154.717L152.031,155.923L152.754,157.241L153.477,158.207L154.199,159.459L154.922,160.876L155.645,162.23L156.367,163.487L157.09,165.044L157.813,166.123L158.535,167.666L159.258,169.149L159.98,170.707L160.703,171.941L161.426,173.365L162.148,175.118L162.871,176.275L163.594,177.891L164.316,179.549L165.039,181.152L165.762,182.803L166.484,184.489L167.207,186.048L167.93,187.542L168.652,189.296L169.375,190.622L170.098,192.606L170.82,194.044L171.543,195.874L172.266,197.222L172.988,198.929L173.711,200.563L174.434,202.182L175.156,203.487L175.879,205.179L176.602,206.686L177.324,208.053L178.047,209.69L178.77,211.158L179.492,212.257L180.215,213.631L180.938,215.103L181.66,216.382L182.383,217.743L183.105,218.784L183.828,219.862L184.551,220.781L185.273,221.883L185.996,223.094L186.719,223.855L187.441,224.343L188.164,225.568L188.887,225.856L189.609,226.505L190.332,227.11L191.055,227.772L191.777,227.986L192.5,228.384L193.223,228.617L193.945,228.734L194.668,228.764L195.391,228.724L196.113,228.591L196.836,228.485L197.559,228.05L198.281,227.416L199.004,227.163L199.727,226.625L200.449,226.061L201.172,225.235L201.895,224.749L202.617,223.845L203.34,222.708L204.063,221.729L204.785,220.786L205.508,219.678L206.23,218.313L206.953,216.906L207.676,215.887L208.398,214.316L209.121,212.94L209.844,211.359L210.566,209.463L211.289,208.131L212.012,206.318L212.734,204.603L213.457,202.812L214.18,200.873L214.902,198.831L215.625,197.011L216.348,195.018L217.07,192.94L217.793,190.731L218.516,189.018L219.238,186.755L219.961,184.668L220.684,182.362L221.406,180.307L222.129,177.776L222.852,175.7L223.574,173.521L224.297,171.236L225.02,168.85L225.742,166.92L226.465,164.348L227.188,162.01L227.91,159.713L228.633,157.373L229.355,155.302L230.078,152.745L230.801,150.659L231.523,148.222L232.246,145.692L232.969,143.263L233.691,141.149L234.414,138.784L235.137,136.763L235.859,134.439L236.582,131.979L237.305,129.763L238.027,127.367L238.75,125.114L239.473,122.88L240.195,120.735L240.918,118.414L241.641,116.406L242.363,114.2L243.086,112.123L243.809,109.767L244.531,107.693L245.254,105.702L245.977,103.436L246.699,101.208L247.422,99.398L248.145,97.274L248.867,95.47L249.59,93.231L250.313,91.313L251.035,89.596L251.758,87.698L252.48,85.796L253.203,83.908L253.926,82.013L254.648,80.542L255.371,78.647L256.094,76.959L256.816,75.352L257.539,73.636L258.262,72.145L258.984,70.537L259.707,68.967L260.43,67.469L261.152,66.189L261.875,64.748L262.598,63.337L263.32,61.94L264.043,61.933L264.766,63.344L265.488,65.022L266.211,66.7L266.934,68.376L267.656,70.043L268.379,71.226L269.102,70.716L269.824,70.1L270.547,69.383L271.27,68.573L271.992,67.889L272.715,67.349L273.438,66.775L274.16,65.984L274.883,65.344L275.605,64.808L276.328,64.187L277.051,63.503L277.773,62.992L278.496,62.25L279.219,61.757L279.941,61.142L280.664,60.501L281.387,60.015L282.109,59.26L282.832,58.662L283.555,58.227L284.277,57.595L285,57.052L285.723,56.42L286.445,55.984L287.168,55.266L287.891,54.843L288.613,54.187L289.336,53.766L290.059,53.248L290.781,52.652L291.504,52.236L292.227,51.654L292.949,51.025L293.672,50.652L294.395,50.107L295.117,49.622L295.84,49.158L296.563,48.639L297.285,48.295L298.008,47.611L298.73,47.247L299.453,46.539L300.176,46.198L300.898,45.946L301.621,45.359L302.344,44.973L303.066,44.577L303.789,44.282L304.512,43.645L305.234,43.186L305.957,42.728L306.68,42.469L307.402,41.92L308.125,41.521L308.848,41.173L309.57,40.759L310.293,40.488L311.016,40.05L311.738,39.676L312.461,39.27L313.184,38.971L313.906,38.596L314.629,38.205L315.352,37.886L316.074,37.493L316.797,37.182L317.52,36.719L318.242,36.359L318.965,36.167L319.688,35.605L320.41,35.314L321.133,34.865L321.855,34.612L322.578,34.558L323.301,34.218L324.023,33.874L324.746,33.489L325.469,33.212L326.191,32.882L326.914,32.527L327.637,32.151L328.359,32.033L329.082,31.828L329.805,31.439L330.527,31.226L331.25,31.072L331.973,30.729L332.695,30.34L333.418,30.263L334.141,29.798L334.863,29.811L335.586,29.454L336.309,29.147L337.031,28.916L337.754,28.706L338.477,28.453L339.199,28.183L339.922,28.072L340.645,27.901L341.367,27.601L342.09,27.523L342.813,27.232L343.535,26.917L344.258,26.525L344.98,26.597L345.703,26.721L346.426,26.248L347.148,26.137L347.871,25.884L348.594,25.636L349.316,26.117L350.039,25.366L350.762,25.56L351.484,25.171L352.207,24.57L352.93,25.124L353.652,24.341L354.375,24.912L355.098,24.215L355.82,24.035L356.543,24.34L357.266,23.992L357.988,23.953L358.711,23.51L359.434,23.562L360.156,23.715L360.879,23.368L361.602,23.345L362.324,23.423L363.047,23.147L363.77,22.688L364.492,22.809L365.215,22.728L365.938,22.393L366.66,22.589L367.383,22.691L368.105,22.192L368.828,22.54L369.551,21.988L370.273,22.605L370.996,21.778L371.719,22.044L372.441,22.303L373.164,21.854L373.887,22.016L374.609,20.983L375.332,21.822L376.055,21.463L376.777,22.122L377.5,21.328L378.223,21.745L378.945,21.763L379.668,22.733L380.391,21.623L381.113,21.684L381.836,21.577L382.559,21.607L383.281,21.303L384.004,21.445L384.727,21.863L385.449,20.813L386.172,21.603L386.895,21.281L387.617,20.675L388.34,21.4L389.063,21.664L389.785,21.57L390.508,20L391.23,21.66L391.953,21.939L392.676,21.186L393.398,21.157L394.121,21.352L394.844,21.712L395.566,21.754L396.289,20.753L397.012,21.496L397.734,21.7L398.457,21.257L399.18,20.568L399.902,21.223L400.625,21.289L401.348,21.004L402.07,22.35L402.793,21.639L403.516,22.873L404.238,22.934L404.961,23.895L405.684,22.532L406.406,21.548L407.129,21.564L407.852,23.425L408.574,22.794L409.297,21.389L410.02,23.24L410.742,21.62L411.465,23.521L412.188,23.067L412.91,22.436L413.633,22.972L414.355,23.358L415.078,25.421L415.801,24.294L416.523,24.323L417.246,24.78L417.969,23.748L418.691,25.751L419.414,24.977L420.137,23.848L420.859,26.014L421.582,24.585L422.305,24.989L423.027,26.425L423.75,25.055L424.473,25.48L425.195,25.288L425.918,25.974L426.641,25.975L427.363,25.262L428.086,25.667L428.809,24.759L429.531,26.36L430.254,25.207L430.977,25.16L431.699,24.793L432.422,24.663L433.145,24.389L433.867,23.608L434.59,24.129L435.313,24.374L436.035,25.151L436.758,23.917L437.48,23.854L438.203,23.979L438.926,23.779L439.648,23.563L440.371,23.568L441.094,23.322L441.816,22.914L442.539,22.73L443.262,22.38L443.984,22.499L444.707,22.96L445.43,21.725L446.152,21.892L446.875,22.333L447.598,22.071L448.32,21.69L449.043,22.131L449.766,21.628L450.488,21.633L451.211,21.482L451.934,21.332L452.656,21.023L453.379,21.479L454.102,21.228L454.824,21.024L455.547,20.941L456.27,21.039L456.992,21.1L457.715,20.849L458.438,21.036L459.16,20.873L459.883,20.937L460.605,20.816L461.328,20.688L462.051,20.805L462.773,20.604L463.496,20.792L464.219,20.8L464.941,20.825L465.664,20.591L466.387,20.561L467.109,20.559L467.832,20.515L468.555,20.518L469.277,20.493"/><path fill="none" stroke="rgb(63, 243, 147)" stroke-width="1.5" d="M100,110.362L100.723,110.536L101.445,110.881L102.168,110.946L102.891,111.497L103.613,111.599L104.336,112.009L105.059,112.204L105.781,112.518L106.504,112.669L107.227,113.032L107.949,113.249L108.672,113.583L109.395,114.001L110.117,114.328L110.84,114.602L111.563,115.007L112.285,115.199L113.008,115.712L113.73,116.043L114.453,116.263L115.176,116.817L115.898,117.105L116.621,117.308L117.344,117.839L118.066,118.406L118.789,118.497L119.512,119.102L120.234,119.447L120.957,119.94L121.68,120.336L122.402,120.624L123.125,120.97L123.848,121.556L124.57,122.045L125.293,122.569L126.016,122.941L126.738,123.532L127.461,124.133L128.184,124.448L128.906,124.853L129.629,125.41L130.352,126.123L131.074,126.763L131.797,127.342L132.52,127.76L133.242,128.332L133.965,128.961L134.688,129.604L135.41,130.22L136.133,130.77L136.855,131.616L137.578,132.226L138.301,132.68L139.023,133.466L139.746,134.083L140.469,134.685L141.191,135.307L141.914,136.282L142.637,137.019L143.359,137.857L144.082,138.63L144.805,139.424L145.527,140.251L146.25,141.06L146.973,141.643L147.695,142.752L148.418,143.509L149.141,144.471L149.863,145.226L150.586,146.164L151.309,147.004L152.031,148.073L152.754,149.039L153.477,149.874L154.199,150.954L154.922,151.957L155.645,152.94L156.367,153.924L157.09,154.869L157.813,155.971L158.535,157.019L159.258,158.147L159.98,159.371L160.703,160.117L161.426,161.278L162.148,162.583L162.871,163.517L163.594,164.584L164.316,165.335L165.039,166.611L165.762,167.887L166.484,168.714L167.207,169.845L167.93,170.857L168.652,171.765L169.375,172.771L170.098,173.979L170.82,174.994L171.543,175.715L172.266,176.696L172.988,177.639L173.711,178.558L174.434,179.53L175.156,179.895L175.879,180.81L176.602,181.674L177.324,182.312L178.047,183.063L178.77,183.607L179.492,183.977L180.215,184.574L180.938,185.415L181.66,185.767L182.383,186.074L183.105,186.183L183.828,186.726L184.551,186.902L185.273,187.112L185.996,187.071L186.719,187.169L187.441,187.104L188.164,187.122L188.887,186.793L189.609,186.875L190.332,186.486L191.055,186.122L191.777,185.809L192.5,185.331L193.223,184.774L193.945,184.234L194.668,183.627L195.391,182.669L196.113,182.196L196.836,181.174L197.559,180.541L198.281,179.37L199.004,178.785L199.727,177.375L200.449,176.399L201.172,175.214L201.895,174.105L202.617,172.771L203.34,171.412L204.063,170.053L204.785,168.706L205.508,166.982L206.23,165.716L206.953,164.154L207.676,162.268L208.398,160.874L209.121,159.382L209.844,157.554L210.566,155.898L211.289,154.016L212.012,152.353L212.734,150.549L213.457,148.733L214.18,146.857L214.902,144.917L215.625,143.154L216.348,141.177L217.07,139.143L217.793,137.468L218.516,135.268L219.238,133.366L219.961,131.51L220.684,129.73L221.406,127.66L222.129,125.507L222.852,123.686L223.574,121.771L224.297,119.651L225.02,117.65L225.742,115.645L226.465,113.762L227.188,111.767L227.91,109.886L228.633,107.869L229.355,106.108L230.078,104.157L230.801,102.176L231.523,100.171L232.246,98.317L232.969,96.492L233.691,94.568L234.414,92.742L235.137,90.891L235.859,88.922L236.582,87.281L237.305,85.273L238.027,83.685L238.75,81.781L239.473,80.047L240.195,78.431L240.918,76.722L241.641,75.249L242.363,73.325L243.086,71.816L243.809,70.176L244.531,68.571L245.254,67.082L245.977,65.472L246.699,64.207L247.422,62.57L248.145,61.234L248.867,59.669L249.59,58.318L250.313,57.099L251.035,55.512L251.758,54.316L252.48,52.997L253.203,51.717L253.926,50.431L254.648,49.402L255.371,48.208L256.094,47.2L256.816,45.973L257.539,44.754L258.262,45.105L258.984,46.923L259.707,48.741L260.43,50.782L261.152,52.798L261.875,54.762L262.598,56.257L263.32,55.748L264.043,55.243L264.766,54.758L265.488,54.362L266.211,54.059L266.934,53.621L267.656,53.204L268.379,52.847L269.102,52.451L269.824,52.101L270.547,51.946L271.27,51.425L271.992,50.993L272.715,50.621L273.438,50.328L274.16,49.945L274.883,49.6L275.605,49.357L276.328,48.914L277.051,48.57L277.773,48.151L278.496,47.911L279.219,47.382L279.941,47.103L280.664,46.783L281.387,46.503L282.109,46.195L282.832,45.749L283.555,45.411L284.277,45.035L285,44.755L285.723,44.353L286.445,44.07L287.168,43.731L287.891,43.28L288.613,42.972L289.336,42.65L290.059,42.396L290.781,42.028L291.504,41.697L292.227,41.397L292.949,41.062L293.672,40.702L294.395,40.374L295.117,40.196L295.84,39.774L296.563,39.462L297.285,39.151L298.008,38.977L298.73,38.783L299.453,38.319L300.176,38.241L300.898,37.93L301.621,37.593L302.344,37.388L303.066,37.092L303.789,36.857L304.512,36.675L305.234,36.354L305.957,36.209L306.68,35.953L307.402,35.71L308.125,35.517L308.848,35.246L309.57,35.234L310.293,34.922L311.016,34.625L311.738,34.503L312.461,34.19L313.184,34.064L313.906,33.837L314.629,33.746L315.352,33.52L316.074,33.354L316.797,33.144L317.52,32.98L318.242,32.738L318.965,32.599L319.688,32.621L320.41,32.21L321.133,32L321.855,31.922L322.578,31.619L323.301,31.446L324.023,31.398L324.746,31.17L325.469,31.04L326.191,30.786L326.914,30.586L327.637,30.562L328.359,30.278L329.082,30.232L329.805,29.964L330.527,29.744L331.25,29.921L331.973,29.536L332.695,29.461L333.418,28.941L334.141,28.958L334.863,28.936L335.586,28.663L336.309,28.733L337.031,28.378L337.754,28.294L338.477,28.143L339.199,27.973L339.922,27.833L340.645,27.547L341.367,27.441L342.09,27.435L342.813,27.118L343.535,27.225L344.258,26.955L344.98,26.732L345.703,26.634L346.426,26.432L347.148,26.34L347.871,26.213L348.594,25.904L349.316,25.902L350.039,25.603L350.762,25.503L351.484,25.367L352.207,25.189L352.93,25.055L353.652,25.139L354.375,24.702L355.098,24.822L355.82,24.878L356.543,25.081L357.266,24.644L357.988,23.929L358.711,24.122L359.434,24.02L360.156,23.952L360.879,23.339L361.602,24.156L362.324,23.634L363.047,23.674L363.77,23.446L364.492,23.576L365.215,23.63L365.938,22.825L366.66,23.107L367.383,23.324L368.105,23.047L368.828,22.965L369.551,22.873L370.273,21.991L370.996,22.913L371.719,22.327L372.441,22.547L373.164,21.764L373.887,22.218L374.609,22.944L375.332,21.973L376.055,21.883L376.777,21.94L377.5,22.265L378.223,22.25L378.945,21.633L379.668,20.806L380.391,21.805L381.113,21.792L381.836,21.533L382.559,21.993L383.281,21.842L384.004,21.552L384.727,20.756L385.449,21.998L386.172,20.569L386.895,21.276L387.617,21.451L388.34,20.594L389.063,21.463L389.785,21.533L390.508,21.082L391.23,21.204L391.953,21.484L392.676,20.964L393.398,20.613L394.121,21.335L394.844,20.517L395.566,20.667L396.289,20.764L397.012,21.896L397.734,21.779L398.457,21.467L399.18,20.224L399.902,21.001L400.625,21.125L401.348,20.185L402.07,20.44L402.793,21.204L403.516,22.199L404.238,21.463L404.961,21.582L405.684,21.02L406.406,21.768L407.129,20.993L407.852,20.735L408.574,21.223L409.297,20.519L410.02,22.284L410.742,20.315L411.465,22.018L412.188,22.226L412.91,21.831L413.633,21.998L414.355,22.028L415.078,22.659L415.801,20.42L416.523,22.188L417.246,22.972L417.969,20.9L418.691,21.118L419.414,21.762L420.137,22.045L420.859,21.903L421.582,20.696L422.305,24.278L423.027,23.054L423.75,23.307L424.473,21.308L425.195,21.929L425.918,21.823L426.641,21.333L427.363,21.672L428.086,21.346L428.809,22.052L429.531,22.924L430.254,22.059L430.977,22.076L431.699,21.67L432.422,21.711L433.145,20.801L433.867,22.422L434.59,21.649L435.313,21.309L436.035,21.827L436.758,21.533L437.48,22.219L438.203,21.331L438.926,21.091L439.648,21.597L440.371,21.651L441.094,21.139L441.816,20.557L442.539,21.087L443.262,21.186L443.984,21.432L444.707,21.133L445.43,21.115L446.152,21.504L446.875,20.986L447.598,20.636L448.32,20.66L449.043,21.311L449.766,20.915L450.488,20.753L451.211,20.85L451.934,20.728L452.656,20.66L453.379,20.713L454.102,20.528L454.824,20.563L455.547,20.584L456.27,20.733L456.992,20.713L457.715,20.452L458.438,20.393L459.16,20.332L459.883,20.634L460.605,20.488L461.328,20.431L462.051,20.52L462.773,20.542L463.496,20.519L464.219,20.485L464.941,20.473L465.664,20.476L466.387,20.477L467.109,20.406L467.832,20.493L468.555,20.372L469.277,20.352"/><path fill="none" stroke="rgb(149, 251, 81)" stroke-width="1.5" d="M100,108.896L100.723,109.17L101.445,109.259L102.168,109.535L102.891,109.669L103.613,110.058L104.336,110.272L105.059,110.345L105.781,110.725L106.504,110.982L107.227,111.235L107.949,111.505L108.672,111.877L109.395,112.058L110.117,112.317L110.84,112.623L111.563,112.93L112.285,113.184L113.008,113.569L113.73,113.772L114.453,114.08L115.176,114.483L115.898,114.678L116.621,114.916L117.344,115.454L118.066,115.656L118.789,116.082L119.512,116.378L120.234,116.777L120.957,117.27L121.68,117.63L122.402,117.886L123.125,118.329L123.848,118.581L124.57,119.051L125.293,119.46L126.016,119.799L126.738,120.249L127.461,120.765L128.184,121.19L128.906,121.672L129.629,122.052L130.352,122.491L131.074,123.032L131.797,123.559L132.52,124.059L133.242,124.596L133.965,124.999L134.688,125.518L135.41,126.117L136.133,126.578L136.855,127.155L137.578,127.617L138.301,128.069L139.023,128.871L139.746,129.495L140.469,130.14L141.191,130.596L141.914,131.226L142.637,131.86L143.359,132.487L144.082,133.085L144.805,133.927L145.527,134.452L146.25,135.028L146.973,135.818L147.695,136.482L148.418,137.204L149.141,137.892L149.863,138.768L150.586,139.361L151.309,140.065L152.031,140.614L152.754,141.477L153.477,142.279L154.199,142.826L154.922,143.601L155.645,144.158L156.367,144.881L157.09,145.674L157.813,146.376L158.535,146.904L159.258,147.748L159.98,148.138L160.703,148.927L161.426,149.662L162.148,150.075L162.871,150.696L163.594,151.368L164.316,151.965L165.039,152.264L165.762,152.815L166.484,153.292L167.207,153.793L167.93,154.246L168.652,154.531L169.375,154.99L170.098,155.276L170.82,155.579L171.543,155.903L172.266,156.197L172.988,156.331L173.711,156.464L174.434,156.358L175.156,156.522L175.879,156.589L176.602,156.526L177.324,156.467L178.047,156.237L178.77,156.305L179.492,155.995L180.215,155.775L180.938,155.629L181.66,154.932L182.383,154.81L183.105,154.001L183.828,153.744L184.551,153.006L185.273,152.473L185.996,151.679L186.719,151.098L187.441,150.394L188.164,149.446L188.887,148.547L189.609,147.821L190.332,146.661L191.055,145.856L191.777,144.704L192.5,143.722L193.223,142.457L193.945,141.41L194.668,140.188L195.391,138.86L196.113,137.618L196.836,136.38L197.559,134.981L198.281,133.73L199.004,132.194L199.727,130.902L200.449,129.27L201.172,127.83L201.895,126.297L202.617,124.62L203.34,123.129L204.063,121.661L204.785,119.89L205.508,118.47L206.23,116.828L206.953,115.092L207.676,113.63L208.398,111.837L209.121,110.353L209.844,108.304L210.566,106.868L211.289,105.221L212.012,103.451L212.734,101.793L213.457,100.04L214.18,98.433L214.902,96.727L215.625,94.968L216.348,93.373L217.07,91.573L217.793,89.982L218.516,88.317L219.238,86.739L219.961,84.956L220.684,83.349L221.406,81.697L222.129,80.12L222.852,78.577L223.574,76.855L224.297,75.283L225.02,73.768L225.742,72.132L226.465,70.767L227.188,69.173L227.91,67.532L228.633,66.084L229.355,64.589L230.078,63.24L230.801,61.654L231.523,60.272L232.246,59.016L232.969,57.444L233.691,56.255L234.414,54.773L235.137,53.707L235.859,52.161L236.582,50.849L237.305,49.712L238.027,48.444L238.75,47.192L239.473,46.103L240.195,44.941L240.918,43.817L241.641,42.642L242.363,41.542L243.086,40.392L243.809,39.306L244.531,38.317L245.254,37.338L245.977,36.365L246.699,35.34L247.422,34.51L248.145,33.5L248.867,33.976L249.59,35.965L250.313,37.971L251.035,40.133L251.758,42.126L252.48,44.384L253.203,45.631L253.926,45.401L254.648,45.127L255.371,44.878L256.094,44.441L256.816,44.159L257.539,43.861L258.262,43.593L258.984,43.244L259.707,42.905L260.43,42.635L261.152,42.436L261.875,42.071L262.598,41.777L263.32,41.675L264.043,41.37L264.766,41.179L265.488,40.876L266.211,40.698L266.934,40.484L267.656,40.178L268.379,40.021L269.102,39.862L269.824,39.614L270.547,39.383L271.27,39.265L271.992,39.069L272.715,38.856L273.438,38.625L274.16,38.431L274.883,38.359L275.605,38.133L276.328,37.89L277.051,37.709L277.773,37.555L278.496,37.43L279.219,37.296L279.941,37.058L280.664,36.779L281.387,36.78L282.109,36.42L282.832,36.252L283.555,36.183L284.277,35.995L285,35.793L285.723,35.635L286.445,35.512L287.168,35.379L287.891,35.105L288.613,34.96L289.336,34.769L290.059,34.604L290.781,34.471L291.504,34.26L292.227,34.151L292.949,33.994L293.672,33.726L294.395,33.666L295.117,33.507L295.84,33.322L296.563,33.227L297.285,33.146L298.008,32.907L298.73,32.766L299.453,32.667L300.176,32.529L300.898,32.418L301.621,32.269L302.344,32.133L303.066,31.972L303.789,31.867L304.512,31.78L305.234,31.685L305.957,31.461L306.68,31.494L307.402,31.274L308.125,31.209L308.848,31.089L309.57,30.905L310.293,30.852L311.016,30.777L311.738,30.686L312.461,30.597L313.184,30.484L313.906,30.406L314.629,30.256L315.352,30.186L316.074,30.212L316.797,30.093L317.52,29.966L318.242,29.876L318.965,29.741L319.688,29.653L320.41,29.645L321.133,29.554L321.855,29.446L322.578,29.427L323.301,29.259L324.023,29.132L324.746,29.081L325.469,29.01L326.191,28.949L326.914,28.864L327.637,28.762L328.359,28.769L329.082,28.575L329.805,28.547L330.527,28.449L331.25,28.343L331.973,28.228L332.695,28.144L333.418,28.037L334.141,27.997L334.863,27.808L335.586,27.782L336.309,27.6L337.031,27.514L337.754,27.463L338.477,27.34L339.199,27.115L339.922,27.09L340.645,27.044L341.367,26.963L342.09,26.867L342.813,26.734L343.535,26.616L344.258,26.514L344.98,26.475L345.703,26.358L346.426,26.195L347.148,26.079L347.871,25.975L348.594,25.857L349.316,25.733L350.039,25.606L350.762,25.508L351.484,25.465L352.207,25.31L352.93,25.15L353.652,25.073L354.375,24.912L355.098,24.857L355.82,24.853L356.543,24.672L357.266,24.553L357.988,24.444L358.711,24.309L359.434,24.27L360.156,24.117L360.879,24.027L361.602,23.922L362.324,23.827L363.047,23.716L363.77,23.727L364.492,23.57L365.215,23.441L365.938,23.374L366.66,23.222L367.383,23.214L368.105,23.09L368.828,22.974L369.551,22.873L370.273,22.823L370.996,22.784L371.719,22.685L372.441,22.595L373.164,22.567L373.887,22.501L374.609,22.42L375.332,22.3L376.055,22.251L376.777,22.225L377.5,22.179L378.223,22.1L378.945,22.076L379.668,21.95L380.391,21.941L381.113,21.858L381.836,21.794L382.559,21.795L383.281,21.642L384.004,21.602L384.727,21.636L385.449,21.525L386.172,21.549L386.895,21.42L387.617,21.478L388.34,21.362L389.063,21.313L389.785,21.299L390.508,21.289L391.23,21.27L391.953,21.175L392.676,21.166L393.398,21.142L394.121,21.084L394.844,21.122L395.566,21.08L396.289,21.012L397.012,21.008L397.734,20.952L398.457,20.995L399.18,20.939L399.902,20.86L400.625,20.865L401.348,20.883L402.07,20.861L402.793,20.81L403.516,20.785L404.238,20.806L404.961,20.728L405.684,20.725L406.406,20.711L407.129,20.708L407.852,20.703L408.574,20.683L409.297,20.724L410.02,20.676L410.742,20.618L411.465,20.614L412.188,20.625L412.91,20.613L413.633,20.565L414.355,20.568L415.078,20.547L415.801,20.568L416.523,20.558L417.246,20.529L417.969,20.532L418.691,20.534L419.414,20.517L420.137,20.537L420.859,20.52L421.582,20.511L422.305,20.486L423.027,20.447L423.75,20.463L424.473,20.478L425.195,20.457L425.918,20.46L426.641,20.459L427.363,20.476L428.086,20.431L428.809,20.407L429.531,20.421L430.254,20.433L430.977,20.455L431.699,20.415L432.422,20.428L433.145,20.423L433.867,20.418L434.59,20.428L435.313,20.396L436.035,20.404L436.758,20.385L437.48,20.383L438.203,20.392L438.926,20.388L439.648,20.384L440.371,20.381L441.094,20.385L441.816,20.371L442.539,20.367L443.262,20.395L443.984,20.392L444.707,20.361L445.43,20.37L446.152,20.383L446.875,20.367L447.598,20.362L448.32,20.369L449.043,20.372L449.766,20.367L450.488,20.358L451.211,20.352L451.934,20.36L452.656,20.354L453.379,20.361L454.102,20.36L454.824,20.34L455.547,20.347L456.27,20.337L456.992,20.352L457.715,20.357L458.438,20.351L459.16,20.343L459.883,20.348L460.605,20.339L461.328,20.336L462.051,20.339L462.773,20.346L463.496,20.347L464.219,20.343L464.941,20.335L465.664,20.338L466.387,20.338L467.109,20.336L467.832,20.328L468.555,20.337L469.277,20.335"/><path fill="none" stroke="rgb(236, 209, 46)" stroke-width="1.5" d="M100,107.561L100.723,107.726L101.445,107.999L102.168,108.186L102.891,108.379L103.613,108.666L104.336,109.009L105.059,109.149L105.781,109.305L106.504,109.688L107.227,109.7L107.949,110.058L108.672,110.345L109.395,110.528L110.117,110.764L110.84,111.087L111.563,111.422L112.285,111.666L113.008,111.803L113.73,112.17L114.453,112.464L115.176,112.81L115.898,113.204L116.621,113.365L117.344,113.502L118.066,113.873L118.789,114.222L119.512,114.516L120.234,114.884L120.957,115.331L121.68,115.735L122.402,116.157L123.125,116.445L123.848,116.8L124.57,117.226L125.293,117.532L126.016,117.948L126.738,118.237L127.461,118.631L128.184,119.157L128.906,119.598L129.629,120.171L130.352,120.317L131.074,120.906L131.797,121.357L132.52,121.763L133.242,122.047L133.965,122.55L134.688,123.197L135.41,123.594L136.133,124.064L136.855,124.67L137.578,124.948L138.301,125.566L139.023,126.085L139.746,126.321L140.469,126.808L141.191,127.297L141.914,127.906L142.637,128.273L143.359,128.779L144.082,129.125L144.805,129.616L145.527,130.064L146.25,130.391L146.973,130.732L147.695,131.077L148.418,131.529L149.141,131.944L149.863,132.177L150.586,132.492L151.309,132.884L152.031,133.115L152.754,133.435L153.477,133.791L154.199,133.926L154.922,134.027L155.645,134.152L156.367,134.407L157.09,134.534L157.813,134.594L158.535,134.61L159.258,134.761L159.98,134.69L160.703,134.633L161.426,134.659L162.148,134.516L162.871,134.336L163.594,134.343L164.316,133.827L165.039,133.649L165.762,133.369L166.484,133.021L167.207,132.525L167.93,132.353L168.652,131.796L169.375,131.328L170.098,130.731L170.82,130.209L171.543,129.498L172.266,128.957L172.988,128.333L173.711,127.433L174.434,126.636L175.156,125.747L175.879,125.001L176.602,124.15L177.324,123.218L178.047,122.196L178.77,121.163L179.492,120.223L180.215,119.058L180.938,118.109L181.66,116.865L182.383,115.717L183.105,114.499L183.828,113.39L184.551,112.05L185.273,110.929L185.996,109.469L186.719,108.325L187.441,106.913L188.164,105.503L188.887,104.213L189.609,102.743L190.332,101.376L191.055,99.993L191.777,98.615L192.5,97.2L193.223,95.888L193.945,94.356L194.668,93.026L195.391,91.5L196.113,90.023L196.836,88.485L197.559,87.078L198.281,85.679L199.004,84.03L199.727,82.656L200.449,81.221L201.172,79.764L201.895,78.162L202.617,76.832L203.34,75.246L204.063,73.925L204.785,72.485L205.508,71.015L206.23,69.544L206.953,68.159L207.676,66.848L208.398,65.318L209.121,64.051L209.844,62.623L210.566,61.339L211.289,59.868L212.012,58.576L212.734,57.265L213.457,55.971L214.18,54.57L214.902,53.295L215.625,52.035L216.348,50.782L217.07,49.447L217.793,48.296L218.516,46.994L219.238,45.789L219.961,44.58L220.684,43.502L221.406,42.343L222.129,41.198L222.852,40.017L223.574,39.084L224.297,37.946L225.02,36.877L225.742,35.719L226.465,34.768L227.188,33.806L227.91,32.732L228.633,31.697L229.355,30.727L230.078,29.997L230.801,29.019L231.523,28.131L232.246,27.378L232.969,26.378L233.691,26.606L234.414,28.751L235.137,30.899L235.859,33.007L236.582,35.191L237.305,37.361L238.027,39.103L238.75,38.766L239.473,38.605L240.195,38.308L240.918,38.017L241.641,37.721L242.363,37.518L243.086,37.288L243.809,37.059L244.531,36.854L245.254,36.571L245.977,36.367L246.699,36.167L247.422,35.944L248.145,35.61L248.867,35.476L249.59,35.345L250.313,35.12L251.035,34.93L251.758,34.704L252.48,34.58L253.203,34.305L253.926,34.13L254.648,33.972L255.371,33.849L256.094,33.625L256.816,33.499L257.539,33.356L258.262,33.231L258.984,33.027L259.707,33.06L260.43,32.923L261.152,32.818L261.875,32.586L262.598,32.501L263.32,32.396L264.043,32.347L264.766,32.23L265.488,32.217L266.211,32.155L266.934,32.109L267.656,32.032L268.379,31.944L269.102,31.964L269.824,31.857L270.547,31.884L271.27,31.756L271.992,31.731L272.715,31.706L273.438,31.748L274.16,31.68L274.883,31.629L275.605,31.628L276.328,31.629L277.051,31.64L277.773,31.584L278.496,31.572L279.219,31.509L279.941,31.536L280.664,31.487L281.387,31.41L282.109,31.442L282.832,31.343L283.555,31.404L284.277,31.296L285,31.248L285.723,31.232L286.445,31.145L287.168,31.101L287.891,31.01L288.613,30.996L289.336,30.938L290.059,30.864L290.781,30.774L291.504,30.713L292.227,30.63L292.949,30.544L293.672,30.559L294.395,30.44L295.117,30.343L295.84,30.298L296.563,30.221L297.285,30.153L298.008,30.133L298.73,29.983L299.453,29.914L300.176,29.913L300.898,29.797L301.621,29.68L302.344,29.649L303.066,29.605L303.789,29.461L304.512,29.466L305.234,29.306L305.957,29.231L306.68,29.201L307.402,29.086L308.125,29.078L308.848,29.024L309.57,28.939L310.293,28.863L311.016,28.819L311.738,28.759L312.461,28.696L313.184,28.643L313.906,28.565L314.629,28.434L315.352,28.364L316.074,28.327L316.797,28.295L317.52,28.242L318.242,28.202L318.965,28.089L319.688,28.111L320.41,27.997L321.133,28.038L321.855,27.897L322.578,27.849L323.301,27.789L324.023,27.715L324.746,27.718L325.469,27.615L326.191,27.53L326.914,27.499L327.637,27.442L328.359,27.423L329.082,27.335L329.805,27.269L330.527,27.228L331.25,27.188L331.973,27.051L332.695,27.02L333.418,26.962L334.141,26.83L334.863,26.825L335.586,26.751L336.309,26.71L337.031,26.636L337.754,26.589L338.477,26.465L339.199,26.389L339.922,26.359L340.645,26.234L341.367,26.222L342.09,26.136L342.813,25.996L343.535,25.944L344.258,25.826L344.98,25.817L345.703,25.764L346.426,25.589L347.148,25.562L347.871,25.425L348.594,25.38L349.316,25.268L350.039,25.236L350.762,25.11L351.484,24.994L352.207,24.932L352.93,24.847L353.652,24.779L354.375,24.634L355.098,24.548L355.82,24.48L356.543,24.351L357.266,24.282L357.988,24.195L358.711,24.142L359.434,24.04L360.156,23.941L360.879,23.83L361.602,23.744L362.324,23.634L363.047,23.547L363.77,23.543L364.492,23.374L365.215,23.302L365.938,23.25L366.66,23.153L367.383,23.08L368.105,22.98L368.828,22.942L369.551,22.86L370.273,22.752L370.996,22.689L371.719,22.638L372.441,22.58L373.164,22.523L373.887,22.432L374.609,22.368L375.332,22.299L376.055,22.229L376.777,22.171L377.5,22.103L378.223,22.047L378.945,21.985L379.668,21.916L380.391,21.89L381.113,21.823L381.836,21.749L382.559,21.722L383.281,21.671L384.004,21.599L384.727,21.575L385.449,21.53L386.172,21.482L386.895,21.422L387.617,21.41L388.34,21.337L389.063,21.345L389.785,21.293L390.508,21.262L391.23,21.226L391.953,21.188L392.676,21.147L393.398,21.089L394.121,21.098L394.844,21.069L395.566,21.05L396.289,21.016L397.012,20.979L397.734,20.947L398.457,20.924L399.18,20.899L399.902,20.875L400.625,20.85L401.348,20.849L402.07,20.807L402.793,20.797L403.516,20.775L404.238,20.764L404.961,20.741L405.684,20.738L406.406,20.712L407.129,20.701L407.852,20.689L408.574,20.666L409.297,20.662L410.02,20.646L410.742,20.637L411.465,20.619L412.188,20.609L412.91,20.596L413.633,20.584L414.355,20.574L415.078,20.561L415.801,20.56L416.523,20.546L417.246,20.536L417.969,20.53L418.691,20.518L419.414,20.507L420.137,20.508L420.859,20.498L421.582,20.482L422.305,20.487L423.027,20.479L423.75,20.469L424.473,20.464L425.195,20.464L425.918,20.457L426.641,20.445L427.363,20.444L428.086,20.437L428.809,20.443L429.531,20.434L430.254,20.426L430.977,20.424L431.699,20.42L432.422,20.41L433.145,20.41L433.867,20.41L434.59,20.405L435.313,20.401L436.035,20.399L436.758,20.397L437.48,20.393L438.203,20.388L438.926,20.388L439.648,20.386L440.371,20.383L441.094,20.378L441.816,20.377L442.539,20.38L443.262,20.374L443.984,20.368L444.707,20.366L445.43,20.367L446.152,20.367L446.875,20.364L447.598,20.363L448.32,20.36L449.043,20.364L449.766,20.359L450.488,20.356L451.211,20.355L451.934,20.355L452.656,20.354L453.379,20.352L454.102,20.352L454.824,20.35L455.547,20.35L456.27,20.347L456.992,20.349L457.715,20.346L458.438,20.344L459.16,20.344L459.883,20.346L460.605,20.343L461.328,20.344L462.051,20.34L462.773,20.34L463.496,20.34L464.219,20.339L464.941,20.337L465.664,20.335L466.387,20.335L467.109,20.336L467.832,20.337L468.555,20.337L469.277,20.337"/><path fill="none" stroke="rgb(255, 130, 29)" stroke-width="1.5" d="M100,105.563L100.723,105.808L101.445,106.007L102.168,106.201L102.891,106.422L103.613,106.656L104.336,106.953L105.059,107.285L105.781,107.423L106.504,107.768L107.227,107.925L107.949,108.282L108.672,108.506L109.395,108.725L110.117,109.011L110.84,109.372L111.563,109.555L112.285,109.786L113.008,110.179L113.73,110.441L114.453,110.742L115.176,111.026L115.898,111.154L116.621,111.489L117.344,111.911L118.066,112.051L118.789,112.337L119.512,112.487L120.234,112.731L120.957,112.987L121.68,113.126L122.402,113.576L123.125,113.605L123.848,113.752L124.57,113.925L125.293,114.081L126.016,114.37L126.738,114.506L127.461,114.535L128.184,114.692L128.906,114.833L129.629,114.97L130.352,114.945L131.074,115.018L131.797,115.11L132.52,114.932L133.242,114.956L133.965,114.786L134.688,114.767L135.41,114.653L136.133,114.539L136.855,114.34L137.578,114.091L138.301,113.887L139.023,113.818L139.746,113.301L140.469,113.036L141.191,112.704L141.914,112.493L142.637,111.982L143.359,111.393L144.082,111.01L144.805,110.673L145.527,109.878L146.25,109.361L146.973,108.845L147.695,108.064L148.418,107.439L149.141,106.663L149.863,105.931L150.586,105.222L151.309,104.415L152.031,103.526L152.754,102.611L153.477,101.855L154.199,100.836L154.922,99.887L155.645,99.112L156.367,98.027L157.09,97.018L157.813,96.032L158.535,94.864L159.258,93.72L159.98,92.743L160.703,91.616L161.426,90.517L162.148,89.242L162.871,88.039L163.594,86.898L164.316,85.695L165.039,84.586L165.762,83.399L166.484,82.262L167.207,80.815L167.93,79.635L168.652,78.38L169.375,77L170.098,75.738L170.82,74.629L171.543,73.217L172.266,71.953L172.988,70.805L173.711,69.503L174.434,68.167L175.156,66.804L175.879,65.558L176.602,64.326L177.324,62.914L178.047,61.65L178.77,60.465L179.492,59.131L180.215,57.989L180.938,56.56L181.66,55.453L182.383,54.076L183.105,52.859L183.828,51.701L184.551,50.36L185.273,49.142L185.996,48.109L186.719,46.688L187.441,45.619L188.164,44.453L188.887,43.31L189.609,42.171L190.332,40.972L191.055,39.841L191.777,38.784L192.5,37.641L193.223,36.52L193.945,35.558L194.668,34.501L195.391,33.52L196.113,32.49L196.836,31.402L197.559,30.589L198.281,29.525L199.004,28.698L199.727,27.812L200.449,26.921L201.172,26.046L201.895,25.309L202.617,24.464L203.34,23.689L204.063,22.937L204.785,22.279L205.508,24.279L206.23,26.333L206.953,28.746L207.676,31.045L208.398,33.359L209.121,35.557L209.844,35.951L210.566,35.909L211.289,35.586L212.012,35.517L212.734,35.355L213.457,35.175L214.18,35.097L214.902,34.997L215.625,34.854L216.348,34.675L217.07,34.645L217.793,34.434L218.516,34.295L219.238,34.251L219.961,34.116L220.684,34.112L221.406,33.832L222.129,33.793L222.852,33.732L223.574,33.661L224.297,33.45L225.02,33.429L225.742,33.371L226.465,33.185L227.188,33.197L227.91,33.104L228.633,33.007L229.355,32.957L230.078,32.857L230.801,32.781L231.523,32.715L232.246,32.661L232.969,32.491L233.691,32.457L234.414,32.42L235.137,32.444L235.859,32.27L236.582,32.171L237.305,32.158L238.027,32.078L238.75,32.121L239.473,31.991L240.195,31.926L240.918,31.932L241.641,31.795L242.363,31.746L243.086,31.714L243.809,31.634L244.531,31.641L245.254,31.538L245.977,31.529L246.699,31.464L247.422,31.475L248.145,31.332L248.867,31.255L249.59,31.286L250.313,31.211L251.035,31.182L251.758,31.104L252.48,31.001L253.203,31.114L253.926,31.011L254.648,30.959L255.371,30.96L256.094,30.948L256.816,30.898L257.539,30.77L258.262,30.796L258.984,30.799L259.707,30.776L260.43,30.796L261.152,30.705L261.875,30.668L262.598,30.694L263.32,30.598L264.043,30.599L264.766,30.592L265.488,30.703L266.211,30.654L266.934,30.564L267.656,30.694L268.379,30.65L269.102,30.715L269.824,30.664L270.547,30.72L271.27,30.709L271.992,30.747L272.715,30.758L273.438,30.792L274.16,30.827L274.883,30.734L275.605,30.833L276.328,30.767L277.051,30.804L277.773,30.877L278.496,30.866L279.219,30.901L279.941,30.824L280.664,30.824L281.387,30.89L282.109,30.815L282.832,30.803L283.555,30.818L284.277,30.766L285,30.794L285.723,30.687L286.445,30.685L287.168,30.686L287.891,30.629L288.613,30.557L289.336,30.553L290.059,30.441L290.781,30.413L291.504,30.352L292.227,30.303L292.949,30.221L293.672,30.184L294.395,30.103L295.117,30.075L295.84,30.002L296.563,29.923L297.285,29.842L298.008,29.773L298.73,29.731L299.453,29.625L300.176,29.548L300.898,29.474L301.621,29.438L302.344,29.35L303.066,29.265L303.789,29.194L304.512,29.096L305.234,29.037L305.957,28.98L306.68,28.947L307.402,28.877L308.125,28.757L308.848,28.735L309.57,28.582L310.293,28.582L311.016,28.531L311.738,28.459L312.461,28.408L313.184,28.329L313.906,28.28L314.629,28.232L315.352,28.099L316.074,28.044L316.797,27.977L317.52,27.979L318.242,27.886L318.965,27.849L319.688,27.791L320.41,27.771L321.133,27.714L321.855,27.592L322.578,27.592L323.301,27.533L324.023,27.465L324.746,27.461L325.469,27.368L326.191,27.305L326.914,27.293L327.637,27.246L328.359,27.226L329.082,27.136L329.805,27.088L330.527,26.948L331.25,26.944L331.973,26.942L332.695,26.792L333.418,26.826L334.141,26.776L334.863,26.763L335.586,26.701L336.309,26.633L337.031,26.545L337.754,26.498L338.477,26.397L339.199,26.383L339.922,26.306L340.645,26.234L341.367,26.18L342.09,26.118L342.813,26.084L343.535,25.98L344.258,25.939L344.98,25.836L345.703,25.78L346.426,25.699L347.148,25.604L347.871,25.546L348.594,25.45L349.316,25.366L350.039,25.243L350.762,25.194L351.484,25.118L352.207,25.046L352.93,24.939L353.652,24.884L354.375,24.79L355.098,24.713L355.82,24.643L356.543,24.515L357.266,24.469L357.988,24.38L358.711,24.301L359.434,24.206L360.156,24.091L360.879,23.998L361.602,23.94L362.324,23.833L363.047,23.75L363.77,23.707L364.492,23.61L365.215,23.499L365.938,23.465L366.66,23.371L367.383,23.28L368.105,23.183L368.828,23.126L369.551,23.03L370.273,22.964L370.996,22.876L371.719,22.808L372.441,22.755L373.164,22.679L373.887,22.613L374.609,22.538L375.332,22.42L376.055,22.409L376.777,22.337L377.5,22.291L378.223,22.215L378.945,22.122L379.668,22.07L380.391,22.023L381.113,21.966L381.836,21.915L382.559,21.834L383.281,21.829L384.004,21.79L384.727,21.698L385.449,21.656L386.172,21.619L386.895,21.562L387.617,21.525L388.34,21.496L389.063,21.457L389.785,21.399L390.508,21.368L391.23,21.31L391.953,21.316L392.676,21.252L393.398,21.207L394.121,21.185L394.844,21.164L395.566,21.124L396.289,21.082L397.012,21.07L397.734,21.039L398.457,21.019L399.18,20.978L399.902,20.96L400.625,20.928L401.348,20.896L402.07,20.908L402.793,20.869L403.516,20.866L404.238,20.823L404.961,20.795L405.684,20.79L406.406,20.769L407.129,20.749L407.852,20.739L408.574,20.718L409.297,20.706L410.02,20.696L410.742,20.672L411.465,20.662L412.188,20.639L412.91,20.639L413.633,20.621L414.355,20.625L415.078,20.603L415.801,20.586L416.523,20.578L417.246,20.56L417.969,20.561L418.691,20.545L419.414,20.544L420.137,20.529L420.859,20.528L421.582,20.517L422.305,20.513L423.027,20.495L423.75,20.491L424.473,20.485L425.195,20.488L425.918,20.474L426.641,20.464L427.363,20.466L428.086,20.46L428.809,20.457L429.531,20.45L430.254,20.445L430.977,20.438L431.699,20.431L432.422,20.425L433.145,20.423L433.867,20.419L434.59,20.418L435.313,20.412L436.035,20.413L436.758,20.405L437.48,20.407L438.203,20.4L438.926,20.396L439.648,20.397L440.371,20.387L441.094,20.392L441.816,20.39L442.539,20.384L443.262,20.379L443.984,20.38L444.707,20.383L445.43,20.377L446.152,20.377L446.875,20.372L447.598,20.374L448.32,20.366L449.043,20.364L449.766,20.363L450.488,20.361L451.211,20.36L451.934,20.357L452.656,20.357L453.379,20.358L454.102,20.355L454.824,20.357L455.547,20.352L456.27,20.352L456.992,20.352L457.715,20.351L458.438,20.347L459.16,20.348L459.883,20.345L460.605,20.347L461.328,20.347L462.051,20.343L462.773,20.347L463.496,20.341L464.219,20.341L464.941,20.341L465.664,20.339L466.387,20.341L467.109,20.339L467.832,20.338L468.555,20.338L469.277,20.338"/><path fill="none" stroke="rgb(203, 47, 13)" stroke-width="1.5" d="M100,29.75L100.723,29.592L101.445,29.387L102.168,29.172L102.891,28.999L103.613,28.712L104.336,28.473L105.059,28.302L105.781,28.017L106.504,27.903L107.227,27.639L107.949,27.595L108.672,27.352L109.395,27.132L110.117,26.903L110.84,26.745L111.563,26.494L112.285,26.341L113.008,26.136L113.73,26.023L114.453,25.654L115.176,25.36L115.898,25.268L116.621,25.004L117.344,24.814L118.066,24.557L118.789,24.466L119.512,24.222L120.234,24.07L120.957,23.834L121.68,23.606L122.402,23.398L123.125,23.19L123.848,22.941L124.57,25.463L125.293,28.203L126.016,30.864L126.738,33.562L127.461,36.307L128.184,39.031L128.906,39.832L129.629,40.011L130.352,40.362L131.074,40.642L131.797,40.891L132.52,41.126L133.242,41.313L133.965,41.62L134.688,41.718L135.41,42.021L136.133,42.104L136.855,42.334L137.578,42.606L138.301,42.735L139.023,43.033L139.746,43.099L140.469,43.286L141.191,43.423L141.914,43.563L142.637,43.671L143.359,43.891L144.082,44.035L144.805,44.113L145.527,44.342L146.25,44.39L146.973,44.511L147.695,44.699L148.418,44.705L149.141,44.939L149.863,44.976L150.586,45.057L151.309,45.157L152.031,45.193L152.754,45.179L153.477,45.304L154.199,45.397L154.922,45.363L155.645,45.535L156.367,45.539L157.09,45.604L157.813,45.606L158.535,45.657L159.258,45.719L159.98,45.672L160.703,45.663L161.426,45.817L162.148,45.8L162.871,45.844L163.594,45.873L164.316,45.976L165.039,46.016L165.762,45.878L166.484,45.853L167.207,45.932L167.93,45.832L168.652,45.848L169.375,45.824L170.098,45.873L170.82,45.855L171.543,45.781L172.266,45.856L172.988,45.719L173.711,45.69L174.434,45.647L175.156,45.57L175.879,45.5L176.602,45.55L177.324,45.513L178.047,45.464L178.77,45.418L179.492,45.418L180.215,45.453L180.938,45.248L181.66,45.163L182.383,45.081L183.105,45.096L183.828,44.931L184.551,45.001L185.273,44.854L185.996,44.878L186.719,44.67L187.441,44.727L188.164,44.645L188.887,44.403L189.609,44.395L190.332,44.436L191.055,44.309L191.777,44.171L192.5,44.084L193.223,44.082L193.945,43.983L194.668,43.891L195.391,43.868L196.113,43.629L196.836,43.617L197.559,43.404L198.281,43.482L199.004,43.339L199.727,43.071L200.449,43.069L201.172,42.959L201.895,42.915L202.617,42.793L203.34,42.76L204.063,42.534L204.785,42.529L205.508,42.453L206.23,42.327L206.953,42.118L207.676,42.071L208.398,42.049L209.121,41.881L209.844,41.791L210.566,41.639L211.289,41.654L212.012,41.401L212.734,41.312L213.457,41.252L214.18,41.09L214.902,41.044L215.625,40.816L216.348,40.74L217.07,40.688L217.793,40.575L218.516,40.483L219.238,40.43L219.961,40.227L220.684,40.142L221.406,40.027L222.129,39.973L222.852,39.818L223.574,39.724L224.297,39.604L225.02,39.569L225.742,39.386L226.465,39.3L227.188,39.192L227.91,39.197L228.633,38.964L229.355,38.894L230.078,38.733L230.801,38.715L231.523,38.478L232.246,38.466L232.969,38.35L233.691,38.35L234.414,38.25L235.137,38.035L235.859,37.956L236.582,37.797L237.305,37.755L238.027,37.574L238.75,37.488L239.473,37.497L240.195,37.403L240.918,37.24L241.641,37.139L242.363,37.147L243.086,36.985L243.809,36.906L244.531,36.795L245.254,36.651L245.977,36.645L246.699,36.512L247.422,36.503L248.145,36.371L248.867,36.325L249.59,36.14L250.313,36.14L251.035,36.059L251.758,35.881L252.48,35.903L253.203,35.788L253.926,35.646L254.648,35.601L255.371,35.532L256.094,35.456L256.816,35.34L257.539,35.334L258.262,35.269L258.984,35.159L259.707,35.144L260.43,35.085L261.152,35.037L261.875,34.93L262.598,34.92L263.32,34.829L264.043,34.73L264.766,34.749L265.488,34.742L266.211,34.671L266.934,34.647L267.656,34.628L268.379,34.594L269.102,34.521L269.824,34.53L270.547,34.498L271.27,34.523L271.992,34.48L272.715,34.514L273.438,34.445L274.16,34.443L274.883,34.419L275.605,34.313L276.328,34.399L277.051,34.331L277.773,34.366L278.496,34.347L279.219,34.274L279.941,34.277L280.664,34.208L281.387,34.199L282.109,34.083L282.832,34.027L283.555,33.989L284.277,34.02L285,33.898L285.723,33.862L286.445,33.83L287.168,33.724L287.891,33.666L288.613,33.541L289.336,33.553L290.059,33.377L290.781,33.368L291.504,33.252L292.227,33.176L292.949,32.999L293.672,32.986L294.395,32.869L295.117,32.821L295.84,32.652L296.563,32.609L297.285,32.478L298.008,32.453L298.73,32.333L299.453,32.326L300.176,32.133L300.898,32.017L301.621,31.978L302.344,31.809L303.066,31.707L303.789,31.679L304.512,31.549L305.234,31.441L305.957,31.377L306.68,31.191L307.402,31.116L308.125,31.061L308.848,30.968L309.57,30.854L310.293,30.782L311.016,30.713L311.738,30.646L312.461,30.525L313.184,30.489L313.906,30.348L314.629,30.255L315.352,30.183L316.074,30.064L316.797,30.005L317.52,29.952L318.242,29.947L318.965,29.8L319.688,29.688L320.41,29.678L321.133,29.502L321.855,29.47L322.578,29.43L323.301,29.458L324.023,29.301L324.746,29.161L325.469,29.251L326.191,29.1L326.914,29.053L327.637,28.93L328.359,28.903L329.082,28.831L329.805,28.763L330.527,28.689L331.25,28.627L331.973,28.538L332.695,28.415L333.418,28.483L334.141,28.301L334.863,28.231L335.586,28.178L336.309,28.09L337.031,28.044L337.754,27.94L338.477,27.94L339.199,27.848L339.922,27.677L340.645,27.704L341.367,27.634L342.09,27.549L342.813,27.406L343.535,27.318L344.258,27.251L344.98,27.234L345.703,27.095L346.426,27.005L347.148,26.884L347.871,26.839L348.594,26.727L349.316,26.645L350.039,26.51L350.762,26.41L351.484,26.338L352.207,26.258L352.93,26.16L353.652,26.047L354.375,25.923L355.098,25.81L355.82,25.745L356.543,25.634L357.266,25.519L357.988,25.418L358.711,25.271L359.434,25.229L360.156,25.139L360.879,25.018L361.602,24.895L362.324,24.766L363.047,24.722L363.77,24.607L364.492,24.499L365.215,24.395L365.938,24.298L366.66,24.229L367.383,24.137L368.105,24.002L368.828,23.919L369.551,23.846L370.273,23.76L370.996,23.623L371.719,23.543L372.441,23.396L373.164,23.373L373.887,23.278L374.609,23.2L375.332,23.114L376.055,23.024L376.777,22.965L377.5,22.885L378.223,22.77L378.945,22.703L379.668,22.652L380.391,22.555L381.113,22.492L381.836,22.407L382.559,22.353L383.281,22.278L384.004,22.262L384.727,22.187L385.449,22.089L386.172,22.053L386.895,21.969L387.617,21.96L388.34,21.86L389.063,21.85L389.785,21.781L390.508,21.723L391.23,21.686L391.953,21.617L392.676,21.574L393.398,21.516L394.121,21.506L394.844,21.445L395.566,21.411L396.289,21.38L397.012,21.323L397.734,21.298L398.457,21.261L399.18,21.21L399.902,21.196L400.625,21.177L401.348,21.143L402.07,21.102L402.793,21.059L403.516,21.041L404.238,21.023L404.961,21.016L405.684,20.969L406.406,20.941L407.129,20.927L407.852,20.895L408.574,20.899L409.297,20.879L410.02,20.849L410.742,20.809L411.465,20.802L412.188,20.775L412.91,20.756L413.633,20.747L414.355,20.728L415.078,20.718L415.801,20.691L416.523,20.687L417.246,20.675L417.969,20.66L418.691,20.656L419.414,20.633L420.137,20.628L420.859,20.612L421.582,20.588L422.305,20.582L423.027,20.572L423.75,20.568L424.473,20.564L425.195,20.558L425.918,20.54L426.641,20.54L427.363,20.533L428.086,20.522L428.809,20.515L429.531,20.507L430.254,20.496L430.977,20.498L431.699,20.488L432.422,20.479L433.145,20.473L433.867,20.477L434.59,20.463L435.313,20.464L436.035,20.454L436.758,20.445L437.48,20.441L438.203,20.444L438.926,20.436L439.648,20.431L440.371,20.426L441.094,20.415L441.816,20.419L442.539,20.42L443.262,20.413L443.984,20.408L444.707,20.406L445.43,20.405L446.152,20.401L446.875,20.4L447.598,20.389L448.32,20.392L449.043,20.393L449.766,20.388L450.488,20.383L451.211,20.385L451.934,20.381L452.656,20.375L453.379,20.373L454.102,20.375L454.824,20.373L455.547,20.373L456.27,20.365L456.992,20.364L457.715,20.366L458.438,20.359L459.16,20.361L459.883,20.36L460.605,20.362L461.328,20.357L462.051,20.356L462.773,20.352L463.496,20.354L464.219,20.355L464.941,20.349L465.664,20.35L466.387,20.349L467.109,20.348L467.832,20.345L468.555,20.349L469.277,20.346"/><g transform="translate(15,190) scale(1.7) rotate(-90)"><text>Drift</text></g><g transform="translate(315,395) scale(1.8)"><text></text></g><g transform="translate(0,350)" fill="none" font-size="10" font-family="sans-serif" text-anchor="middle"><path class="domain" stroke="currentColor" d="M100,6V0H470V6"/><g class="tick" opacity="1" transform="translate(136.96669666966696,0)"><line stroke="currentColor" y2="6"/><text fill="currentColor" y="9" dy="0.71em" font-size="20px"> </text></g><g class="tick" opacity="1" transform="translate(173.97039703970398,0)"><line stroke="currentColor" y2="6"/><text fill="currentColor" y="9" dy="0.71em" font-size="20px">20</text></g><g class="tick" opacity="1" transform="translate(210.97409740974098,0)"><line stroke="currentColor" y2="6"/><text fill="currentColor" y="9" dy="0.71em" font-size="20px"> </text></g><g class="tick" opacity="1" transform="translate(247.97779777977803,0)"><line stroke="currentColor" y2="6"/><text fill="currentColor" y="9" dy="0.71em" font-size="20px">40</text></g><g class="tick" opacity="1" transform="translate(284.981498149815,0)"><line stroke="currentColor" y2="6"/><text fill="currentColor" y="9" dy="0.71em" font-size="20px"> </text></g><g class="tick" opacity="1" transform="translate(321.985198519852,0)"><line stroke="currentColor" y2="6"/><text fill="currentColor" y="9" dy="0.71em" font-size="20px">60</text></g><g class="tick" opacity="1" transform="translate(358.988898889889,0)"><line stroke="currentColor" y2="6"/><text fill="currentColor" y="9" dy="0.71em" font-size="20px"> </text></g><g class="tick" opacity="1" transform="translate(395.992599259926,0)"><line stroke="currentColor" y2="6"/><text fill="currentColor" y="9" dy="0.71em" font-size="20px">80</text></g><g class="tick" opacity="1" transform="translate(432.996299629963,0)"><line stroke="currentColor" y2="6"/><text fill="currentColor" y="9" dy="0.71em" font-size="20px"> </text></g><g class="tick" opacity="1" transform="translate(470,0)"><line stroke="currentColor" y2="6"/><text fill="currentColor" y="9" dy="0.71em" font-size="20px">100</text></g></g><g transform="translate(100,0)" fill="none" font-size="10" font-family="sans-serif" text-anchor="end"><path class="domain" stroke="currentColor" d="M-6,350H0V20H-6"/><g class="tick" opacity="1" transform="translate(0,334.61272782747875)"><line stroke="currentColor" x2="-6"/><text fill="currentColor" x="-9" dy="0.32em" font-size="20px">0.60</text></g><g class="tick" opacity="1" transform="translate(0,307.6735492083298)"><line stroke="currentColor" x2="-6"/><text fill="currentColor" x="-9" dy="0.32em" font-size="20px">0.55</text></g><g class="tick" opacity="1" transform="translate(0,280.73437058918086)"><line stroke="currentColor" x2="-6"/><text fill="currentColor" x="-9" dy="0.32em" font-size="20px">0.50</text></g><g class="tick" opacity="1" transform="translate(0,253.79519197003185)"><line stroke="currentColor" x2="-6"/><text fill="currentColor" x="-9" dy="0.32em" font-size="20px">0.45</text></g><g class="tick" opacity="1" transform="translate(0,226.85601335088288)"><line stroke="currentColor" x2="-6"/><text fill="currentColor" x="-9" dy="0.32em" font-size="20px">0.40</text></g><g class="tick" opacity="1" transform="translate(0,199.9168347317339)"><line stroke="currentColor" x2="-6"/><text fill="currentColor" x="-9" dy="0.32em" font-size="20px">0.35</text></g><g class="tick" opacity="1" transform="translate(0,172.97765611258495)"><line stroke="currentColor" x2="-6"/><text fill="currentColor" x="-9" dy="0.32em" font-size="20px">0.30</text></g><g class="tick" opacity="1" transform="translate(0,146.03847749343598)"><line stroke="currentColor" x2="-6"/><text fill="currentColor" x="-9" dy="0.32em" font-size="20px">0.25</text></g><g class="tick" opacity="1" transform="translate(0,119.099298874287)"><line stroke="currentColor" x2="-6"/><text fill="currentColor" x="-9" dy="0.32em" font-size="20px">0.20</text></g><g class="tick" opacity="1" transform="translate(0,92.16012025513805)"><line stroke="currentColor" x2="-6"/><text fill="currentColor" x="-9" dy="0.32em" font-size="20px">0.15</text></g><g class="tick" opacity="1" transform="translate(0,65.22094163598908)"><line stroke="currentColor" x2="-6"/><text fill="currentColor" x="-9" dy="0.32em" font-size="20px">0.10</text></g><g class="tick" opacity="1" transform="translate(0,38.28176301684013)"><line stroke="currentColor" x2="-6"/><text fill="currentColor" x="-9" dy="0.32em" font-size="20px">0.05</text></g></g><circle cx="355" cy="150" r="8" style="fill: rgb(35, 23, 27);"/><circle cx="355" cy="175" r="8" style="fill: rgb(69, 105, 238);"/><circle cx="355" cy="200" r="8" style="fill: rgb(38, 188, 225);"/><circle cx="355" cy="225" r="8" style="fill: rgb(63, 243, 147);"/><circle cx="355" cy="250" r="8" style="fill: rgb(149, 251, 81);"/><circle cx="355" cy="275" r="8" style="fill: rgb(236, 209, 46);"/><circle cx="355" cy="300" r="8" style="fill: rgb(255, 130, 29);"/><circle cx="355" cy="325" r="8" style="fill: rgb(203, 47, 13);"/><text x="370" y="150" text-anchor="left" font-size="22" alignment-baseline="middle" style="fill: rgb(35, 23, 27);"> = 0</text><text x="370" y="175" text-anchor="left" font-size="22" alignment-baseline="middle" style="fill: rgb(69, 105, 238);"> = 0.22</text><text x="370" y="200" text-anchor="left" font-size="22" alignment-baseline="middle" style="fill: rgb(38, 188, 225);"> = 0.45</text><text x="370" y="225" text-anchor="left" font-size="22" alignment-baseline="middle" style="fill: rgb(63, 243, 147);"> = 0.67</text><text x="370" y="250" text-anchor="left" font-size="22" alignment-baseline="middle" style="fill: rgb(149, 251, 81);"> = 0.9</text><text x="370" y="275" text-anchor="left" font-size="22" alignment-baseline="middle" style="fill: rgb(236, 209, 46);"> = 1.12</text><text x="370" y="300" text-anchor="left" font-size="22" alignment-baseline="middle" style="fill: rgb(255, 130, 29);"> = 1.35</text><text x="370" y="325" text-anchor="left" font-size="22" alignment-baseline="middle" style="fill: rgb(203, 47, 13);"> = 1.57</text></svg>