<svg xmlns="http://www.w3.org/2000/svg" class="bg-white" width="500" height="400" viewBox="-10 -1 500 400"><path fill="none" stroke="rgb(35, 23, 27)" stroke-width="1.5" d="M100,46.739L100.723,47.12L101.445,46.801L102.168,47.135L102.891,47.138L103.613,47.306L104.336,47.625L105.059,47.458L105.781,47.745L106.504,47.772L107.227,47.875L107.949,48.367L108.672,48.232L109.395,48.467L110.117,48.585L110.84,48.866L111.563,48.955L112.285,49.037L113.008,49.259L113.73,49.422L114.453,49.492L115.176,49.758L115.898,49.991L116.621,50.165L117.344,50.3L118.066,50.513L118.789,50.663L119.512,50.738L120.234,51.043L120.957,51.055L121.68,51.368L122.402,51.558L123.125,51.837L123.848,52.325L124.57,52.429L125.293,52.335L126.016,52.826L126.738,52.868L127.461,53.237L128.184,53.515L128.906,53.776L129.629,53.923L130.352,53.997L131.074,54.522L131.797,54.869L132.52,54.946L133.242,55.197L133.965,55.662L134.688,55.891L135.41,56.084L136.133,56.37L136.855,56.709L137.578,57.037L138.301,57.26L139.023,57.748L139.746,58.172L140.469,58.365L141.191,58.636L141.914,58.942L142.637,59.14L143.359,59.668L144.082,60.082L144.805,60.44L145.527,60.696L146.25,61.248L146.973,61.791L147.695,62.072L148.418,62.319L149.141,62.762L149.863,63.079L150.586,63.337L151.309,64.083L152.031,64.483L152.754,64.941L153.477,65.438L154.199,65.793L154.922,66.529L155.645,66.815L156.367,67.426L157.09,67.914L157.813,68.489L158.535,69.014L159.258,69.574L159.98,70.142L160.703,70.665L161.426,71.063L162.148,71.768L162.871,72.398L163.594,73.072L164.316,73.6L165.039,74.214L165.762,74.688L166.484,75.455L167.207,76.092L167.93,76.959L168.652,77.572L169.375,78.311L170.098,78.833L170.82,79.528L171.543,80.438L172.266,81.094L172.988,81.986L173.711,82.777L174.434,83.452L175.156,84.328L175.879,85.173L176.602,86.092L177.324,86.873L178.047,87.829L178.77,88.511L179.492,89.791L180.215,90.779L180.938,91.517L181.66,92.675L182.383,93.747L183.105,94.601L183.828,95.631L184.551,96.752L185.273,98.084L185.996,98.932L186.719,100.045L187.441,101.468L188.164,102.469L188.887,103.77L189.609,104.929L190.332,106.243L191.055,107.447L191.777,108.656L192.5,110.121L193.223,111.462L193.945,112.977L194.668,114.403L195.391,115.566L196.113,117.258L196.836,118.767L197.559,120.301L198.281,121.822L199.004,123.444L199.727,125.151L200.449,126.89L201.172,128.637L201.895,130.336L202.617,132.273L203.34,133.968L204.063,135.865L204.785,138.097L205.508,139.918L206.23,141.899L206.953,143.877L207.676,146.096L208.398,148.489L209.121,150.496L209.844,152.764L210.566,154.94L211.289,157.515L212.012,159.989L212.734,162.604L213.457,165.082L214.18,167.657L214.902,170.335L215.625,173.049L216.348,175.824L217.07,178.794L217.793,181.885L218.516,184.891L219.238,188.101L219.961,191.318L220.684,194.589L221.406,197.784L222.129,201.295L222.852,204.867L223.574,208.385L224.297,212.209L225.02,215.769L225.742,219.793L226.465,223.61L227.188,227.63L227.91,231.781L228.633,235.849L229.355,239.747L230.078,244.073L230.801,248.383L231.523,252.602L232.246,256.836L232.969,261.244L233.691,265.592L234.414,269.792L235.137,274.219L235.859,278.668L236.582,283.128L237.305,287.185L238.027,291.54L238.75,295.805L239.473,299.807L240.195,303.905L240.918,307.641L241.641,311.625L242.363,315.299L243.086,318.856L243.809,322.157L244.531,325.774L245.254,328.762L245.977,331.592L246.699,334.133L247.422,336.882L248.145,339.29L248.867,341.202L249.59,343.178L250.313,344.817L251.035,346.377L251.758,347.41L252.48,348.389L253.203,349.202L253.926,349.647L254.648,350L255.371,349.904L256.094,349.42L256.816,349.216L257.539,348.375L258.262,347.329L258.984,346.045L259.707,344.616L260.43,343.195L261.152,340.934L261.875,338.806L262.598,336.276L263.32,333.639L264.043,330.851L264.766,327.997L265.488,324.764L266.211,321.932L266.934,317.912L267.656,314.259L268.379,310.429L269.102,306.701L269.824,302.834L270.547,298.311L271.27,293.911L271.992,289.292L272.715,284.591L273.438,279.626L274.16,274.434L274.883,269.535L275.605,264.211L276.328,258.561L277.051,252.735L277.773,247.045L278.496,241.092L279.219,234.806L279.941,228.405L280.664,222.141L281.387,215.553L282.109,208.905L282.832,201.952L283.555,194.991L284.277,187.919L285,181.274L285.723,174.304L286.445,167.908L287.168,161.328L287.891,154.918L288.613,148.871L289.336,142.604L290.059,136.722L290.781,131.092L291.504,125.368L292.227,119.255L292.949,113.897L293.672,108.581L294.395,103.696L295.117,98.818L295.84,93.807L296.563,89.116L297.285,84.626L298.008,80.445L298.73,76.031L299.453,71.926L300.176,68.235L300.898,64.282L301.621,60.505L302.344,56.989L303.066,57.334L303.789,60.62L304.512,63.98L305.234,67.372L305.957,71.019L306.68,74.63L307.402,76.208L308.125,74.375L308.848,72.824L309.57,70.92L310.293,69.52L311.016,67.759L311.738,65.987L312.461,64.655L313.184,63.207L313.906,61.761L314.629,60.691L315.352,59.151L316.074,58.14L316.797,56.67L317.52,55.186L318.242,54.448L318.965,52.996L319.688,52.101L320.41,50.542L321.133,50.025L321.855,48.893L322.578,47.798L323.301,47.067L324.023,46.164L324.746,45.324L325.469,44.719L326.191,43.769L326.914,42.865L327.637,42.11L328.359,41.163L329.082,40.812L329.805,40.098L330.527,39.434L331.25,38.602L331.973,37.71L332.695,37.546L333.418,36.941L334.141,36.635L334.863,35.32L335.586,35.199L336.309,34.851L337.031,34.348L337.754,33.703L338.477,33.511L339.199,32.72L339.922,32.682L340.645,31.927L341.367,31.834L342.09,31.219L342.813,30.833L343.535,30.843L344.258,30.045L344.98,29.975L345.703,29.891L346.426,29.5L347.148,29.255L347.871,28.931L348.594,28.097L349.316,27.779L350.039,28.214L350.762,27.957L351.484,27.4L352.207,27.241L352.93,26.785L353.652,26.766L354.375,27.095L355.098,25.54L355.82,26.117L356.543,26.097L357.266,26.167L357.988,25.612L358.711,25.166L359.434,25.533L360.156,25.007L360.879,25.326L361.602,24.972L362.324,25.178L363.047,24.176L363.77,25.009L364.492,24.294L365.215,24.028L365.938,23.99L366.66,23.523L367.383,24.15L368.105,23.881L368.828,23.845L369.551,23.978L370.273,24.307L370.996,23.543L371.719,23.647L372.441,23.665L373.164,23.848L373.887,23.372L374.609,24.639L375.332,24.057L376.055,23.148L376.777,22.444L377.5,22.086L378.223,22.499L378.945,23.328L379.668,22.466L380.391,22.541L381.113,22.922L381.836,22.588L382.559,22.749L383.281,22.314L384.004,21.86L384.727,23.488L385.449,22.912L386.172,23.457L386.895,22.819L387.617,23.604L388.34,24.691L389.063,23.465L389.785,22.922L390.508,23.146L391.23,22.807L391.953,24.728L392.676,23.588L393.398,23.594L394.121,24.227L394.844,23.986L395.566,23.644L396.289,23.627L397.012,23.355L397.734,23.879L398.457,23.727L399.18,24.269L399.902,22.434L400.625,27.097L401.348,26.674L402.07,25.646L402.793,25.835L403.516,24.768L404.238,25.995L404.961,27.978L405.684,28.511L406.406,29.888L407.129,29.137L407.852,32.039L408.574,29.874L409.297,34.832L410.02,33.107L410.742,28.676L411.465,31.229L412.188,30.332L412.91,34.198L413.633,33.805L414.355,35.517L415.078,37.819L415.801,40.05L416.523,38.807L417.246,39.259L417.969,39.763L418.691,45.545L419.414,39.424L420.137,42.956L420.859,42.847L421.582,41.124L422.305,43.463L423.027,41.809L423.75,45.088L424.473,45.165L425.195,42.877L425.918,41.827L426.641,42.957L427.363,44.548L428.086,43.017L428.809,41.39L429.531,39.115L430.254,39.586L430.977,38.275L431.699,38.842L432.422,39.023L433.145,36.159L433.867,35.231L434.59,36.862L435.313,34.06L436.035,34.25L436.758,33.348L437.48,33.148L438.203,34.081L438.926,31.678L439.648,30.455L440.371,32.179L441.094,28.522L441.816,30.462L442.539,29.775L443.262,29.268L443.984,29.557L444.707,28.047L445.43,28.413L446.152,27.73L446.875,26.873L447.598,26.488L448.32,26.285L449.043,26.413L449.766,25.609L450.488,25.589L451.211,24.633L451.934,23.637L452.656,25.031L453.379,23.302L454.102,23.825L454.824,23.929L455.547,24.005L456.27,23.893L456.992,23.298L457.715,23.177L458.438,22.591L459.16,23.049L459.883,22.755L460.605,22.373L461.328,22.127L462.051,22.63L462.773,22.516L463.496,22.061L464.219,22.242L464.941,22.191L465.664,22.131L466.387,21.589L467.109,21.702L467.832,21.91L468.555,21.311L469.277,21.394"/><path fill="none" stroke="rgb(69, 105, 238)" stroke-width="1.5" d="M100,46.631L100.723,46.569L101.445,46.708L102.168,46.907L102.891,46.988L103.613,47.255L104.336,47.265L105.059,47.584L105.781,47.49L106.504,47.619L107.227,47.82L107.949,48.014L108.672,48.098L109.395,48.528L110.117,48.326L110.84,48.59L111.563,48.691L112.285,48.726L113.008,49.019L113.73,49.18L114.453,49.42L115.176,49.399L115.898,49.587L116.621,49.799L117.344,50.041L118.066,50.177L118.789,50.513L119.512,50.767L120.234,50.746L120.957,51.122L121.68,51.277L122.402,51.435L123.125,51.561L123.848,51.713L124.57,52.129L125.293,52.236L126.016,52.52L126.738,52.84L127.461,53.044L128.184,53.169L128.906,53.425L129.629,53.572L130.352,53.818L131.074,54.248L131.797,54.324L132.52,54.755L133.242,54.955L133.965,55.349L134.688,55.447L135.41,55.894L136.133,55.994L136.855,56.182L137.578,56.605L138.301,56.923L139.023,57.231L139.746,57.788L140.469,58.068L141.191,58.417L141.914,58.68L142.637,58.933L143.359,59.244L144.082,59.749L144.805,60.048L145.527,60.501L146.25,60.792L146.973,61.1L147.695,61.504L148.418,61.883L149.141,62.318L149.863,62.624L150.586,63.221L151.309,63.673L152.031,64.1L152.754,64.579L153.477,64.873L154.199,65.431L154.922,65.85L155.645,66.206L156.367,66.752L157.09,67.247L157.813,67.749L158.535,68.368L159.258,68.858L159.98,69.335L160.703,70.047L161.426,70.49L162.148,71.052L162.871,71.551L163.594,72.318L164.316,72.842L165.039,73.347L165.762,74.213L166.484,74.822L167.207,75.258L167.93,76.066L168.652,76.695L169.375,77.418L170.098,78.274L170.82,78.912L171.543,79.519L172.266,80.313L172.988,81.074L173.711,81.81L174.434,82.713L175.156,83.281L175.879,84.084L176.602,85.178L177.324,85.936L178.047,86.688L178.77,87.548L179.492,88.652L180.215,89.52L180.938,90.279L181.66,91.402L182.383,92.601L183.105,93.576L183.828,94.62L184.551,95.42L185.273,96.85L185.996,97.601L186.719,98.733L187.441,99.715L188.164,101.012L188.887,102.168L189.609,103.198L190.332,104.577L191.055,105.941L191.777,107.071L192.5,108.426L193.223,109.635L193.945,111.215L194.668,112.501L195.391,114.033L196.113,115.276L196.836,116.886L197.559,118.359L198.281,119.706L199.004,121.428L199.727,123.054L200.449,124.704L201.172,126.249L201.895,127.776L202.617,129.857L203.34,131.642L204.063,133.353L204.785,135.193L205.508,137.031L206.23,138.962L206.953,140.979L207.676,142.924L208.398,145.14L209.121,147.482L209.844,149.439L210.566,151.73L211.289,153.807L212.012,156.272L212.734,158.725L213.457,161.06L214.18,163.508L214.902,165.978L215.625,168.511L216.348,171.112L217.07,174.076L217.793,176.647L218.516,179.613L219.238,182.352L219.961,185.467L220.684,188.382L221.406,191.359L222.129,194.449L222.852,197.864L223.574,201.117L224.297,204.144L225.02,207.862L225.742,211.509L226.465,214.592L227.188,218.304L227.91,222.05L228.633,225.684L229.355,229.143L230.078,233.356L230.801,236.803L231.523,240.806L232.246,244.835L232.969,248.911L233.691,252.313L234.414,256.117L235.137,260.141L235.859,264.308L236.582,268.368L237.305,271.796L238.027,275.762L238.75,279.831L239.473,283.011L240.195,287.217L240.918,290.589L241.641,293.966L242.363,297.154L243.086,300.272L243.809,303.364L244.531,306.6L245.254,309.588L245.977,312.227L246.699,315.044L247.422,317.418L248.145,319.647L248.867,321.351L249.59,323.165L250.313,324.774L251.035,326.494L251.758,327.792L252.48,328.895L253.203,329.688L253.926,330.26L254.648,331.24L255.371,330.989L256.094,331.543L256.816,330.871L257.539,330.591L258.262,330.054L258.984,329.046L259.707,327.954L260.43,326.602L261.152,325.4L261.875,323.433L262.598,321.862L263.32,319.608L264.043,317.511L264.766,315.046L265.488,312.406L266.211,309.515L266.934,306.203L267.656,303.392L268.379,299.767L269.102,296.165L269.824,292.96L270.547,289.471L271.27,285.038L271.992,281.403L272.715,276.954L273.438,272.248L274.16,268.033L274.883,263.249L275.605,258.019L276.328,253.047L277.051,247.987L277.773,242.783L278.496,236.709L279.219,230.97L279.941,225.461L280.664,219.38L281.387,213.297L282.109,207.018L282.832,200.63L283.555,194.309L284.277,187.099L285,180.513L285.723,174.428L286.445,167.905L287.168,161.951L287.891,155.62L288.613,149.787L289.336,144.029L290.059,138.198L290.781,132.501L291.504,127.236L292.227,121.769L292.949,116.706L293.672,111.386L294.395,106.473L295.117,101.531L295.84,96.588L296.563,92.145L297.285,87.39L298.008,83.386L298.73,79.133L299.453,75.247L300.176,71.344L300.898,67.338L301.621,63.808L302.344,60.529L303.066,63.847L303.789,67.01L304.512,69.902L305.234,73.6L305.957,77.411L306.68,81.195L307.402,79.306L308.125,77.582L308.848,75.864L309.57,73.952L310.293,72.633L311.016,71.086L311.738,69.604L312.461,67.648L313.184,65.997L313.906,64.445L314.629,62.796L315.352,61.582L316.074,60.517L316.797,58.982L317.52,57.641L318.242,56.604L318.965,55.394L319.688,54.34L320.41,52.808L321.133,52.161L321.855,51.043L322.578,49.761L323.301,49.37L324.023,48.162L324.746,47.726L325.469,46.054L326.191,45.676L326.914,44.693L327.637,43.792L328.359,42.899L329.082,42.453L329.805,41.382L330.527,40.799L331.25,40.315L331.973,38.822L332.695,38.801L333.418,38.085L334.141,38.181L334.863,37.372L335.586,36.471L336.309,35.957L337.031,35.403L337.754,34.917L338.477,33.668L339.199,33.968L339.922,33.826L340.645,33.126L341.367,33.004L342.09,31.514L342.813,31.965L343.535,31.006L344.258,30.392L344.98,30.764L345.703,30.405L346.426,30.777L347.148,30.054L347.871,29.121L348.594,28.829L349.316,29.159L350.039,28.517L350.762,28.383L351.484,27.517L352.207,27.75L352.93,27.492L353.652,26.628L354.375,26.235L355.098,25.942L355.82,26.566L356.543,27.446L357.266,25.69L357.988,26.929L358.711,27.229L359.434,25.243L360.156,25.32L360.879,25.042L361.602,26.241L362.324,24.847L363.047,24.472L363.77,25.143L364.492,23.977L365.215,26.128L365.938,24.844L366.66,25.081L367.383,24.169L368.105,24.046L368.828,23.863L369.551,24.832L370.273,23.153L370.996,22.615L371.719,24.302L372.441,22.379L373.164,23.719L373.887,23.574L374.609,22.083L375.332,22.4L376.055,22.062L376.777,24.645L377.5,24.04L378.223,24.245L378.945,22.977L379.668,23.444L380.391,22.913L381.113,22.608L381.836,22.162L382.559,23.337L383.281,21.991L384.004,22.883L384.727,24.563L385.449,22.149L386.172,25.815L386.895,22.463L387.617,23.313L388.34,22.566L389.063,22.286L389.785,25.094L390.508,21.017L391.23,24.216L391.953,22.853L392.676,23.254L393.398,22.417L394.121,22.533L394.844,22.267L395.566,23.479L396.289,24.442L397.012,23.332L397.734,24.21L398.457,23.378L399.18,25.012L399.902,22.115L400.625,24.83L401.348,24.426L402.07,23.763L402.793,27.316L403.516,28.832L404.238,28.45L404.961,25.182L405.684,28.122L406.406,27.409L407.129,26.379L407.852,28.491L408.574,30.373L409.297,29.714L410.02,32.351L410.742,31.473L411.465,31.986L412.188,32.428L412.91,32.339L413.633,36.096L414.355,32.164L415.078,32.253L415.801,35.47L416.523,34.49L417.246,37.634L417.969,40.487L418.691,37.317L419.414,41.068L420.137,38.768L420.859,39.613L421.582,37.296L422.305,38.202L423.027,41.285L423.75,38.677L424.473,40.925L425.195,41.619L425.918,38.62L426.641,40.821L427.363,38.203L428.086,41.777L428.809,40.601L429.531,36.875L430.254,37.532L430.977,37.204L431.699,35.91L432.422,35.219L433.145,35.566L433.867,35.203L434.59,36.46L435.313,34.772L436.035,33.674L436.758,33.545L437.48,31.579L438.203,29.867L438.926,30.758L439.648,32.253L440.371,29.523L441.094,29.417L441.816,29.11L442.539,29.096L443.262,28.598L443.984,28.597L444.707,28.234L445.43,27.835L446.152,25.751L446.875,26.393L447.598,25.658L448.32,25.959L449.043,25.363L449.766,24.908L450.488,23.703L451.211,24.158L451.934,24.382L452.656,23.887L453.379,23.609L454.102,23.472L454.824,23.914L455.547,23.542L456.27,23.068L456.992,22.738L457.715,22.785L458.438,22.223L459.16,22.146L459.883,22.431L460.605,22.591L461.328,21.81L462.051,22.274L462.773,21.919L463.496,22.097L464.219,21.862L464.941,22.215L465.664,21.895L466.387,21.786L467.109,21.859L467.832,21.484L468.555,21.613L469.277,21.582"/><path fill="none" stroke="rgb(38, 188, 225)" stroke-width="1.5" d="M100,45.938L100.723,46.108L101.445,46.214L102.168,46.245L102.891,46.575L103.613,46.454L104.336,46.725L105.059,46.868L105.781,46.751L106.504,47.267L107.227,47.184L107.949,47.461L108.672,47.563L109.395,47.548L110.117,47.828L110.84,47.882L111.563,48.159L112.285,48.142L113.008,48.444L113.73,48.786L114.453,48.742L115.176,48.79L115.898,49.048L116.621,49.103L117.344,49.164L118.066,49.304L118.789,49.601L119.512,49.792L120.234,50.168L120.957,50.356L121.68,50.574L122.402,50.694L123.125,50.686L123.848,50.945L124.57,51.279L125.293,51.554L126.016,51.592L126.738,51.951L127.461,52.122L128.184,52.246L128.906,52.598L129.629,52.688L130.352,52.949L131.074,53.223L131.797,53.324L132.52,53.8L133.242,53.925L133.965,54.228L134.688,54.404L135.41,54.796L136.133,55.021L136.855,55.268L137.578,55.513L138.301,55.916L139.023,56.137L139.746,56.509L140.469,56.47L141.191,57.079L141.914,57.558L142.637,57.796L143.359,58.089L144.082,58.392L144.805,58.656L145.527,58.886L146.25,59.194L146.973,59.846L147.695,60.076L148.418,60.461L149.141,60.852L149.863,61.418L150.586,61.607L151.309,61.929L152.031,62.606L152.754,62.844L153.477,63.159L154.199,63.755L154.922,64.092L155.645,64.673L156.367,65.111L157.09,65.642L157.813,65.947L158.535,66.518L159.258,67.016L159.98,67.702L160.703,67.998L161.426,68.606L162.148,69.109L162.871,69.554L163.594,70.08L164.316,70.66L165.039,71.3L165.762,71.848L166.484,72.456L167.207,73.149L167.93,73.607L168.652,74.366L169.375,74.751L170.098,75.773L170.82,76.204L171.543,76.977L172.266,77.655L172.988,78.188L173.711,78.908L174.434,79.765L175.156,80.733L175.879,81.393L176.602,81.988L177.324,82.906L178.047,83.662L178.77,84.719L179.492,85.185L180.215,86.036L180.938,87.112L181.66,87.708L182.383,88.811L183.105,89.718L183.828,90.767L184.551,91.645L185.273,92.315L185.996,93.651L186.719,94.632L187.441,95.465L188.164,96.848L188.887,97.795L189.609,98.658L190.332,99.654L191.055,101.161L191.777,102.339L192.5,103.302L193.223,104.527L193.945,105.735L194.668,106.957L195.391,108.239L196.113,109.629L196.836,110.918L197.559,112.176L198.281,113.225L199.004,115.034L199.727,116.521L200.449,117.806L201.172,119.315L201.895,120.797L202.617,122.582L203.34,123.81L204.063,125.475L204.785,127.121L205.508,128.877L206.23,130.63L206.953,132.024L207.676,133.85L208.398,135.492L209.121,137.656L209.844,139.254L210.566,141.075L211.289,143.07L212.012,144.968L212.734,147.001L213.457,149.007L214.18,150.977L214.902,153.04L215.625,154.961L216.348,157.336L217.07,159.417L217.793,161.857L218.516,164.099L219.238,166.457L219.961,168.686L220.684,171.282L221.406,173.724L222.129,175.755L222.852,178.356L223.574,180.998L224.297,183.247L225.02,186.197L225.742,188.573L226.465,191.169L227.188,193.986L227.91,196.665L228.633,199.346L229.355,202L230.078,204.613L230.801,207.55L231.523,210.373L232.246,213.043L232.969,216.038L233.691,218.972L234.414,221.379L235.137,224.888L235.859,227.395L236.582,230.585L237.305,233.171L238.027,235.735L238.75,238.842L239.473,241.44L240.195,244.663L240.918,247.11L241.641,249.641L242.363,252.719L243.086,255.059L243.809,257.453L244.531,260.097L245.254,262.692L245.977,264.684L246.699,267.092L247.422,269.089L248.145,271.196L248.867,273.031L249.59,274.763L250.313,276.56L251.035,278.017L251.758,279.656L252.48,280.625L253.203,282.307L253.926,282.869L254.648,283.961L255.371,284.56L256.094,285.166L256.816,286.287L257.539,286.081L258.262,286.129L258.984,285.875L259.707,285.82L260.43,285.598L261.152,285.491L261.875,285.092L262.598,284.126L263.32,282.826L264.043,281.863L264.766,281.18L265.488,279.446L266.211,277.906L266.934,276.12L267.656,274.793L268.379,272.478L269.102,270.804L269.824,268.653L270.547,265.972L271.27,262.996L271.992,260.326L272.715,257.322L273.438,254.193L274.16,250.166L274.883,246.566L275.605,243.407L276.328,239.706L277.051,235.393L277.773,230.832L278.496,226.618L279.219,221.641L279.941,216.869L280.664,211.906L281.387,206.621L282.109,200.702L282.832,195.796L283.555,189.449L284.277,184.216L285,178.158L285.723,172.749L286.445,167.056L287.168,161.348L287.891,156.219L288.613,150.544L289.336,145.195L290.059,139.914L290.781,134.861L291.504,129.502L292.227,125.052L292.949,119.537L293.672,114.889L294.395,110.625L295.117,106.11L295.84,101.443L296.563,97.038L297.285,93.21L298.008,88.205L298.73,84.509L299.453,80.4L300.176,76.465L300.898,72.796L301.621,72.727L302.344,75.994L303.066,79.412L303.789,82.772L304.512,85.646L305.234,89.501L305.957,90.1L306.68,88.997L307.402,86.645L308.125,84.549L308.848,82.935L309.57,81.235L310.293,78.886L311.016,77.262L311.738,75.753L312.461,73.818L313.184,72.532L313.906,70.699L314.629,69.232L315.352,67.879L316.074,66.143L316.797,64.951L317.52,63.242L318.242,61.775L318.965,60.653L319.688,59.003L320.41,57.939L321.133,56.561L321.855,55.397L322.578,54.828L323.301,53.676L324.023,52.646L324.746,51.208L325.469,50.351L326.191,49.32L326.914,48.139L327.637,47.065L328.359,46.571L329.082,46L329.805,44.779L330.527,44.077L331.25,43.449L331.973,42.72L332.695,41.793L333.418,41.281L334.141,40.147L334.863,40.093L335.586,39.22L336.309,38.382L337.031,37.855L337.754,37.244L338.477,36.684L339.199,36.196L339.922,35.757L340.645,35.404L341.367,34.646L342.09,34.553L342.813,33.812L343.535,33.037L344.258,32.068L344.98,32.324L345.703,32.79L346.426,31.719L347.148,31.526L347.871,31.011L348.594,30.365L349.316,31.544L350.039,29.873L350.762,30.416L351.484,29.691L352.207,28.232L352.93,29.571L353.652,27.821L354.375,29.272L355.098,27.617L355.82,27.259L356.543,28.131L357.266,27.266L357.988,27.268L358.711,26.389L359.434,26.485L360.156,26.938L360.879,26.157L361.602,26.251L362.324,26.456L363.047,25.872L363.77,24.865L364.492,25.241L365.215,25.07L365.938,24.377L366.66,24.918L367.383,25.245L368.105,24.117L368.828,24.938L369.551,23.785L370.273,25.148L370.996,23.312L371.719,23.961L372.441,24.55L373.164,23.618L373.887,24.075L374.609,21.736L375.332,23.642L376.055,22.817L376.777,24.384L377.5,22.559L378.223,23.648L378.945,23.638L379.668,25.879L380.391,23.39L381.113,23.526L381.836,23.365L382.559,23.428L383.281,22.733L384.004,23.099L384.727,24.072L385.449,21.683L386.172,23.502L386.895,22.79L387.617,21.472L388.34,23.121L389.063,23.723L389.785,23.529L390.508,20L391.23,23.73L391.953,24.379L392.676,22.686L393.398,22.626L394.121,23.102L394.844,23.948L395.566,23.994L396.289,21.754L397.012,23.433L397.734,23.881L398.457,22.89L399.18,21.349L399.902,22.832L400.625,23.011L401.348,22.366L402.07,25.446L402.793,23.829L403.516,26.625L404.238,26.738L404.961,28.904L405.684,25.827L406.406,23.631L407.129,23.651L407.852,27.864L408.574,26.453L409.297,23.286L410.02,27.445L410.742,23.797L411.465,28.096L412.188,27.045L412.91,25.653L413.633,26.862L414.355,27.736L415.078,32.398L415.801,29.866L416.523,29.919L417.246,30.959L417.969,28.629L418.691,33.153L419.414,31.415L420.137,28.853L420.859,33.763L421.582,30.519L422.305,31.432L423.027,34.667L423.75,31.583L424.473,32.554L425.195,32.119L425.918,33.658L426.641,33.665L427.363,32.048L428.086,32.96L428.809,30.912L429.531,34.546L430.254,31.916L430.977,31.801L431.699,30.982L432.422,30.708L433.145,30.074L433.867,28.299L434.59,29.472L435.313,30.029L436.035,31.792L436.758,29.004L437.48,28.864L438.203,29.132L438.926,28.687L439.648,28.201L440.371,28.203L441.094,27.653L441.816,26.717L442.539,26.319L443.262,25.516L443.984,25.796L444.707,26.838L445.43,24.028L446.152,24.421L446.875,25.406L447.598,24.818L448.32,23.948L449.043,24.947L449.766,23.825L450.488,23.83L451.211,23.49L451.934,23.143L452.656,22.436L453.379,23.469L454.102,22.903L454.824,22.44L455.547,22.263L456.27,22.47L456.992,22.612L457.715,22.039L458.438,22.474L459.16,22.107L459.883,22.248L460.605,21.973L461.328,21.685L462.051,21.947L462.773,21.496L463.496,21.909L464.219,21.941L464.941,22.001L465.664,21.468L466.387,21.39L467.109,21.391L467.832,21.297L468.555,21.298L469.277,21.241"/><path fill="none" stroke="rgb(63, 243, 147)" stroke-width="1.5" d="M100,44.803L100.723,44.684L101.445,45.107L102.168,45.045L102.891,45.267L103.613,45.215L104.336,45.441L105.059,45.601L105.781,45.597L106.504,45.807L107.227,45.86L107.949,45.974L108.672,46.021L109.395,46.22L110.117,46.596L110.84,46.519L111.563,46.693L112.285,46.673L113.008,46.909L113.73,47.214L114.453,47.178L115.176,47.463L115.898,47.377L116.621,47.552L117.344,47.805L118.066,48.119L118.789,48.131L119.512,48.38L120.234,48.448L120.957,48.656L121.68,48.804L122.402,48.904L123.125,48.953L123.848,49.285L124.57,49.376L125.293,49.598L126.016,49.855L126.738,50.112L127.461,50.235L128.184,50.455L128.906,50.484L129.629,50.71L130.352,51.089L131.074,51.275L131.797,51.614L132.52,51.69L133.242,52.136L133.965,52.226L134.688,52.353L135.41,52.565L136.133,52.883L136.855,53.27L137.578,53.473L138.301,53.582L139.023,53.896L139.746,54.285L140.469,54.313L141.191,54.445L141.914,54.915L142.637,55.377L143.359,55.693L144.082,55.88L144.805,56.164L145.527,56.687L146.25,56.897L146.973,56.959L147.695,57.486L148.418,57.754L149.141,58.111L149.863,58.405L150.586,58.928L151.309,59.086L152.031,59.555L152.754,59.961L153.477,60.232L154.199,60.661L154.922,61.028L155.645,61.583L156.367,61.758L157.09,62.282L157.813,62.71L158.535,63.026L159.258,63.589L159.98,63.911L160.703,64.508L161.426,64.908L162.148,65.461L162.871,65.968L163.594,66.343L164.316,66.781L165.039,67.399L165.762,68.079L166.484,68.223L167.207,68.861L167.93,69.478L168.652,70.024L169.375,70.515L170.098,71.072L170.82,71.862L171.543,72.157L172.266,72.873L172.988,73.549L173.711,74.017L174.434,74.901L175.156,75.246L175.879,75.876L176.602,76.764L177.324,77.413L178.047,78.157L178.77,78.826L179.492,79.233L180.215,80.296L180.938,81.017L181.66,81.64L182.383,82.392L183.105,83.322L183.828,83.897L184.551,84.81L185.273,85.855L185.996,86.421L186.719,87.374L187.441,88.275L188.164,89.146L188.887,89.892L189.609,90.896L190.332,91.81L191.055,92.619L191.777,93.577L192.5,94.723L193.223,95.632L193.945,96.508L194.668,97.698L195.391,98.576L196.113,99.741L196.836,100.613L197.559,101.823L198.281,102.865L199.004,104.261L199.727,105.354L200.449,106.377L201.172,107.583L201.895,108.845L202.617,109.967L203.34,111.057L204.063,112.477L204.785,113.979L205.508,114.708L206.23,116.219L206.953,117.6L207.676,118.835L208.398,120.453L209.121,121.634L209.844,123.056L210.566,124.39L211.289,125.88L212.012,127.377L212.734,128.785L213.457,130.218L214.18,131.947L214.902,133.079L215.625,134.917L216.348,136.037L217.07,138.013L217.793,139.646L218.516,141.159L219.238,142.826L219.961,144.404L220.684,146.212L221.406,147.907L222.129,149.298L222.852,150.893L223.574,152.657L224.297,154.333L225.02,156.256L225.742,157.984L226.465,159.878L227.188,161.574L227.91,163.438L228.633,165.413L229.355,167.27L230.078,169.032L230.801,170.57L231.523,172.953L232.246,174.449L232.969,176.602L233.691,178.571L234.414,180.222L235.137,182.206L235.859,184.104L236.582,186.341L237.305,188.021L238.027,190.202L238.75,191.961L239.473,194.15L240.195,195.75L240.918,198.119L241.641,200.417L242.363,202.01L243.086,203.918L243.809,205.97L244.531,208.039L245.254,209.966L245.977,211.908L246.699,214.207L247.422,215.585L248.145,217.701L248.867,219.37L249.59,220.859L250.313,222.87L251.035,224.466L251.758,225.916L252.48,227.043L253.203,229.427L253.926,229.95L254.648,231.406L255.371,233.24L256.094,233.827L256.816,235.232L257.539,235.907L258.262,237.633L258.984,237.535L259.707,238.358L260.43,239.113L261.152,239.912L261.875,239.786L262.598,240.607L263.32,240.242L264.043,240.369L264.766,240.098L265.488,239.815L266.211,239.909L266.934,238.848L267.656,238.777L268.379,237.98L269.102,236.859L269.824,235.824L270.547,235.342L271.27,233.821L271.992,231.561L272.715,230.263L273.438,228.217L274.16,225.252L274.883,223.513L275.605,221.017L276.328,218.241L277.051,215.195L277.773,211.983L278.496,209.022L279.219,205.1L279.941,201.31L280.664,197.993L281.387,193.871L282.109,189.763L282.832,184.79L283.555,180.167L284.277,175.322L285,170.914L285.723,166.115L286.445,161.338L287.168,156.664L287.891,151.443L288.613,146.749L289.336,142.516L290.059,137.567L290.781,133.444L291.504,128.807L292.227,124.244L292.949,119.837L293.672,115.254L294.395,111.069L295.117,107.038L295.84,103.067L296.563,98.724L297.285,94.742L298.008,90.726L298.73,87.43L299.453,84.754L300.176,87.743L300.898,90.812L301.621,93.808L302.344,97.136L303.066,100.489L303.789,103.515L304.512,101.356L305.234,99.361L305.957,96.993L306.68,95.064L307.402,92.976L308.125,90.987L308.848,88.932L309.57,87.462L310.293,85.409L311.016,83.487L311.738,81.959L312.461,79.854L313.184,78.342L313.906,76.397L314.629,75.021L315.352,72.977L316.074,71.782L316.797,70.271L317.52,68.619L318.242,67.171L318.965,65.94L319.688,65.195L320.41,63.18L321.133,61.959L321.855,60.809L322.578,59.31L323.301,58.175L324.023,57.174L324.746,55.969L325.469,54.906L326.191,53.853L326.914,52.644L327.637,52.099L328.359,50.913L329.082,49.983L329.805,48.772L330.527,47.871L331.25,47.831L331.973,46.382L332.695,45.931L333.418,44.157L334.141,43.918L334.863,43.293L335.586,42.465L336.309,42.233L337.031,41.225L337.754,40.638L338.477,40.178L339.199,39.315L339.922,38.7L340.645,37.865L341.367,37.529L342.09,37.227L342.813,36.44L343.535,36.434L344.258,35.588L344.98,35.032L345.703,34.653L346.426,33.976L347.148,33.772L347.871,33.555L348.594,32.619L349.316,32.625L350.039,31.699L350.762,31.565L351.484,31.144L352.207,30.836L352.93,30.35L353.652,30.599L354.375,29.474L355.098,29.884L355.82,29.86L356.543,30.363L357.266,29.446L357.988,27.792L358.711,28.249L359.434,27.897L360.156,27.831L360.879,26.354L361.602,28.263L362.324,27.023L363.047,27.25L363.77,26.754L364.492,27.087L365.215,27.154L365.938,25.483L366.66,26.027L367.383,26.645L368.105,25.915L368.828,25.853L369.551,25.806L370.273,23.672L370.996,25.901L371.719,24.498L372.441,25.08L373.164,23.41L373.887,24.338L374.609,26.139L375.332,23.858L376.055,23.697L376.777,23.878L377.5,24.675L378.223,24.652L378.945,23.206L379.668,21.425L380.391,23.71L381.113,23.66L381.836,23.088L382.559,24.205L383.281,23.893L384.004,23.224L384.727,21.425L385.449,24.276L386.172,21.038L386.895,22.677L387.617,23.084L388.34,21.179L389.063,23.132L389.785,23.38L390.508,22.3L391.23,22.616L391.953,23.255L392.676,22.14L393.398,21.303L394.121,22.972L394.844,21.119L395.566,21.448L396.289,21.751L397.012,24.269L397.734,24.007L398.457,23.31L399.18,20.553L399.902,22.277L400.625,22.562L401.348,20.453L402.07,21.035L402.793,22.798L403.516,25.013L404.238,23.371L404.961,23.675L405.684,22.371L406.406,24.062L407.129,22.332L407.852,21.728L408.574,22.864L409.297,21.268L410.02,25.247L410.742,20.795L411.465,24.667L412.188,25.138L412.91,24.253L413.633,24.635L414.355,24.709L415.078,26.156L415.801,21.044L416.523,25.064L417.246,26.853L417.969,22.151L418.691,22.642L419.414,24.106L420.137,24.75L420.859,24.432L421.582,21.721L422.305,29.822L423.027,27.053L423.75,27.618L424.473,23.101L425.195,24.481L425.918,24.237L426.641,23.135L427.363,23.923L428.086,23.175L428.809,24.776L429.531,26.749L430.254,24.797L430.977,24.822L431.699,23.904L432.422,24.006L433.145,21.95L433.867,25.607L434.59,23.866L435.313,23.083L436.035,24.272L436.758,23.625L437.48,25.151L438.203,23.142L438.926,22.607L439.648,23.746L440.371,23.867L441.094,22.73L441.816,21.387L442.539,22.582L443.262,22.811L443.984,23.361L444.707,22.699L445.43,22.654L446.152,23.533L446.875,22.372L447.598,21.57L448.32,21.614L449.043,23.103L449.766,22.209L450.488,21.848L451.211,22.063L451.934,21.773L452.656,21.623L453.379,21.742L454.102,21.319L454.824,21.399L455.547,21.443L456.27,21.782L456.992,21.741L457.715,21.149L458.438,21.013L459.16,20.872L459.883,21.56L460.605,21.226L461.328,21.091L462.051,21.3L462.773,21.358L463.496,21.306L464.219,21.223L464.941,21.198L465.664,21.203L466.387,21.2L467.109,21.045L467.832,21.237L468.555,20.967L469.277,20.918"/><path fill="none" stroke="rgb(149, 251, 81)" stroke-width="1.5" d="M100,43.288L100.723,43.532L101.445,43.444L102.168,43.518L102.891,43.526L103.613,43.779L104.336,43.796L105.059,43.723L105.781,43.92L106.504,44.007L107.227,44.294L107.949,44.254L108.672,44.627L109.395,44.499L110.117,44.726L110.84,44.736L111.563,44.795L112.285,44.809L113.008,44.902L113.73,45.195L114.453,45.284L115.176,45.431L115.898,45.583L116.621,45.657L117.344,45.88L118.066,46.01L118.789,45.999L119.512,46.368L120.234,46.374L120.957,46.604L121.68,46.712L122.402,46.837L123.125,47.132L123.848,47.154L124.57,47.304L125.293,47.392L126.016,47.68L126.738,47.68L127.461,47.921L128.184,48.204L128.906,48.42L129.629,48.353L130.352,48.66L131.074,48.873L131.797,49.164L132.52,49.298L133.242,49.286L133.965,49.497L134.688,49.751L135.41,50.121L136.133,50.147L136.855,50.376L137.578,50.686L138.301,50.771L139.023,51.037L139.746,51.41L140.469,51.499L141.191,51.613L141.914,51.957L142.637,52.313L143.359,52.463L144.082,52.836L144.805,53.088L145.527,53.262L146.25,53.322L146.973,53.788L147.695,54.015L148.418,54.426L149.141,54.773L149.863,54.878L150.586,55.304L151.309,55.653L152.031,55.703L152.754,56.089L153.477,56.514L154.199,56.813L154.922,57.185L155.645,57.307L156.367,57.867L157.09,58.141L157.813,58.412L158.535,58.77L159.258,59.113L159.98,59.195L160.703,59.912L161.426,60.108L162.148,60.549L162.871,60.968L163.594,61.477L164.316,61.971L165.039,62.101L165.762,62.853L166.484,63.147L167.207,63.586L167.93,63.967L168.652,64.313L169.375,64.808L170.098,65.259L170.82,65.949L171.543,66.201L172.266,66.983L172.988,67.276L173.711,67.922L174.434,68.079L175.156,68.596L175.879,69.233L176.602,69.767L177.324,70.435L178.047,70.953L178.77,71.889L179.492,72.021L180.215,72.482L180.938,73.354L181.66,73.881L182.383,74.579L183.105,74.894L183.828,75.811L184.551,76.427L185.273,76.92L185.996,77.582L186.719,78.229L187.441,79.082L188.164,79.522L188.887,80.33L189.609,81.022L190.332,81.468L191.055,82.469L191.777,83.224L192.5,83.891L193.223,84.767L193.945,85.312L194.668,86.145L195.391,86.932L196.113,87.675L196.836,88.366L197.559,89.217L198.281,90.298L199.004,91.077L199.727,91.963L200.449,92.826L201.172,93.486L201.895,94.527L202.617,95.299L203.34,96.1L204.063,97.219L204.785,97.704L205.508,99.02L206.23,99.848L206.953,100.914L207.676,101.873L208.398,102.845L209.121,103.8L209.844,104.5L210.566,105.847L211.289,106.797L212.012,107.8L212.734,108.72L213.457,109.815L214.18,110.97L214.902,112.016L215.625,112.933L216.348,113.966L217.07,115.086L217.793,116.214L218.516,117.409L219.238,118.743L219.961,119.408L220.684,120.828L221.406,121.995L222.129,123.173L222.852,124.601L223.574,125.45L224.297,126.903L225.02,128.119L225.742,129.232L226.465,130.63L227.188,131.813L227.91,133.141L228.633,134.509L229.355,135.822L230.078,137.31L230.801,138.486L231.523,140.094L232.246,141.552L232.969,143.195L233.691,144.562L234.414,145.806L235.137,147.956L235.859,149.303L236.582,150.371L237.305,151.852L238.027,153.86L238.75,155.292L239.473,157.239L240.195,158.808L240.918,160.511L241.641,162.025L242.363,163.946L243.086,165.494L243.809,166.886L244.531,168.825L245.254,170.635L245.977,172.384L246.699,173.936L247.422,175.816L248.145,177.475L248.867,179.435L249.59,180.864L250.313,182.491L251.035,183.923L251.758,185.404L252.48,186.98L253.203,188.343L253.926,190.062L254.648,191.415L255.371,193.007L256.094,194.468L256.816,195.187L257.539,196.899L258.262,198.061L258.984,198.66L259.707,199.527L260.43,200.555L261.152,201.501L261.875,202.036L262.598,202.939L263.32,203.741L264.043,203.761L264.766,204.226L265.488,204.844L266.211,204.604L266.934,204.658L267.656,204.688L268.379,204.861L269.102,204.328L269.824,204.113L270.547,203.462L271.27,203.187L271.992,202.361L272.715,201.121L273.438,200.135L274.16,198.616L274.883,197.302L275.605,195.02L276.328,193.683L277.051,191.308L277.773,189.235L278.496,186.987L279.219,184.648L279.941,181.597L280.664,178.783L281.387,175.866L282.109,172.522L282.832,168.844L283.555,165.256L284.277,161.536L285,157.861L285.723,154.178L286.445,150.242L287.168,146.161L287.891,142.253L288.613,138.68L289.336,134.833L290.059,130.756L290.781,126.495L291.504,122.688L292.227,118.688L292.949,114.764L293.672,110.988L294.395,107.593L295.117,103.59L295.84,99.872L296.563,96.047L297.285,96.021L298.008,98.752L298.73,102.012L299.453,105.201L300.176,108.494L300.898,111.751L301.621,113.261L302.344,111.053L303.066,108.801L303.789,106.637L304.512,104.106L305.234,102.189L305.957,100.229L306.68,97.924L307.402,96.118L308.125,94.02L308.848,92.152L309.57,90.073L310.293,87.951L311.016,86.467L311.738,84.727L312.461,83.012L313.184,80.886L313.906,79.36L314.629,77.684L315.352,76.073L316.074,74.583L316.797,72.971L317.52,71.501L318.242,69.964L318.965,68.407L319.688,67.092L320.41,65.717L321.133,64.336L321.855,62.927L322.578,61.773L323.301,60.64L324.023,59.405L324.746,58.05L325.469,56.945L326.191,55.974L326.914,54.994L327.637,54.012L328.359,52.879L329.082,51.788L329.805,50.895L330.527,49.933L331.25,48.899L331.973,48.219L332.695,47.237L333.418,46.544L334.141,45.793L334.863,44.939L335.586,44.257L336.309,43.157L337.031,42.607L337.754,41.94L338.477,41.231L339.199,40.493L339.922,39.808L340.645,39.486L341.367,38.861L342.09,38.235L342.813,37.711L343.535,37.082L344.258,36.607L344.98,36.207L345.703,35.662L346.426,35.206L347.148,34.521L347.871,34.192L348.594,33.787L349.316,33.343L350.039,32.892L350.762,32.613L351.484,32.165L352.207,31.823L352.93,31.473L353.652,31.046L354.375,30.692L355.098,30.439L355.82,30.268L356.543,29.884L357.266,29.563L357.988,29.148L358.711,28.95L359.434,28.815L360.156,28.368L360.879,28.123L361.602,27.89L362.324,27.714L363.047,27.473L363.77,27.528L364.492,27.045L365.215,26.758L365.938,26.639L366.66,26.373L367.383,26.395L368.105,26.15L368.828,25.784L369.551,25.593L370.273,25.529L370.996,25.413L371.719,25.28L372.441,25.091L373.164,24.959L373.887,24.859L374.609,24.677L375.332,24.484L376.055,24.473L376.777,24.381L377.5,24.291L378.223,24.051L378.945,24.077L379.668,23.896L380.391,23.803L381.113,23.7L381.836,23.552L382.559,23.572L383.281,23.268L384.004,23.171L384.727,23.335L385.449,23.101L386.172,23.099L386.895,22.879L387.617,23.025L388.34,22.763L389.063,22.638L389.785,22.67L390.508,22.709L391.23,22.632L391.953,22.425L392.676,22.494L393.398,22.404L394.121,22.34L394.844,22.367L395.566,22.27L396.289,22.156L397.012,22.106L397.734,22.004L398.457,22.127L399.18,22.031L399.902,21.886L400.625,21.927L401.348,21.915L402.07,21.886L402.793,21.802L403.516,21.772L404.238,21.808L404.961,21.625L405.684,21.637L406.406,21.619L407.129,21.606L407.852,21.605L408.574,21.572L409.297,21.654L410.02,21.579L410.742,21.452L411.465,21.422L412.188,21.46L412.91,21.464L413.633,21.334L414.355,21.323L415.078,21.318L415.801,21.347L416.523,21.361L417.246,21.255L417.969,21.297L418.691,21.271L419.414,21.266L420.137,21.281L420.859,21.275L421.582,21.266L422.305,21.2L423.027,21.121L423.75,21.148L424.473,21.192L425.195,21.123L425.918,21.144L426.641,21.16L427.363,21.17L428.086,21.071L428.809,21.048L429.531,21.057L430.254,21.113L430.977,21.139L431.699,21.061L432.422,21.086L433.145,21.087L433.867,21.062L434.59,21.083L435.313,21.024L436.035,21.03L436.758,20.98L437.48,20.994L438.203,21.005L438.926,21.006L439.648,20.991L440.371,20.989L441.094,20.991L441.816,20.957L442.539,20.947L443.262,20.997L443.984,21.003L444.707,20.943L445.43,20.949L446.152,20.99L446.875,20.947L447.598,20.937L448.32,20.955L449.043,20.969L449.766,20.955L450.488,20.932L451.211,20.915L451.934,20.951L452.656,20.923L453.379,20.932L454.102,20.932L454.824,20.895L455.547,20.907L456.27,20.882L456.992,20.918L457.715,20.932L458.438,20.913L459.16,20.906L459.883,20.909L460.605,20.887L461.328,20.888L462.051,20.897L462.773,20.905L463.496,20.906L464.219,20.896L464.941,20.884L465.664,20.891L466.387,20.888L467.109,20.887L467.832,20.869L468.555,20.885L469.277,20.878"/><path fill="none" stroke="rgb(236, 209, 46)" stroke-width="1.5" d="M100,41.265L100.723,41.711L101.445,41.769L102.168,41.856L102.891,41.991L103.613,41.995L104.336,42.162L105.059,42.148L105.781,42.19L106.504,42.341L107.227,42.376L107.949,42.437L108.672,42.526L109.395,42.587L110.117,42.676L110.84,42.796L111.563,42.934L112.285,42.98L113.008,43.048L113.73,43.242L114.453,43.268L115.176,43.422L115.898,43.62L116.621,43.38L117.344,43.547L118.066,43.873L118.789,43.877L119.512,44.023L120.234,44.052L120.957,44.395L121.68,44.629L122.402,44.782L123.125,44.851L123.848,44.815L124.57,45.12L125.293,45.21L126.016,45.137L126.738,45.11L127.461,45.393L128.184,45.699L128.906,45.834L129.629,46.119L130.352,45.986L131.074,46.354L131.797,46.428L132.52,46.499L133.242,46.606L133.965,46.726L134.688,47.292L135.41,47.221L136.133,47.478L136.855,47.735L137.578,47.633L138.301,48.096L139.023,48.205L139.746,48.194L140.469,48.419L141.191,48.548L141.914,48.946L142.637,49.129L143.359,49.304L144.082,49.483L144.805,49.819L145.527,49.858L146.25,50.138L146.973,50.212L147.695,50.547L148.418,50.747L149.141,51.131L149.863,51.288L150.586,51.497L151.309,51.692L152.031,51.97L152.754,52.228L153.477,52.571L154.199,52.889L154.922,53.017L155.645,53.349L156.367,53.595L157.09,53.959L157.813,54.032L158.535,54.379L159.258,54.88L159.98,55.116L160.703,55.343L161.426,55.679L162.148,56.026L162.871,56.209L163.594,56.574L164.316,56.745L165.039,57.452L165.762,57.558L166.484,57.701L167.207,58.101L167.93,58.616L168.652,58.93L169.375,59.25L170.098,59.797L170.82,60.216L171.543,60.651L172.266,60.926L172.988,61.315L173.711,61.764L174.434,61.831L175.156,62.437L175.879,62.741L176.602,63.086L177.324,63.591L178.047,64.036L178.77,64.535L179.492,64.834L180.215,65.419L180.938,66.084L181.66,66.27L182.383,66.757L183.105,67.344L183.828,67.817L184.551,68.064L185.273,68.651L185.996,69.22L186.719,69.911L187.441,70.251L188.164,70.743L188.887,71.283L189.609,71.771L190.332,72.362L191.055,72.89L191.777,73.521L192.5,74.011L193.223,74.818L193.945,75.087L194.668,75.941L195.391,76.601L196.113,76.923L196.836,77.737L197.559,78.25L198.281,79.011L199.004,79.582L199.727,80.175L200.449,80.876L201.172,81.351L201.895,82.046L202.617,82.768L203.34,83.381L204.063,84.238L204.785,85.147L205.508,85.648L206.23,86.449L206.953,87.037L207.676,87.887L208.398,88.482L209.121,89.429L209.844,90.211L210.566,91.224L211.289,91.729L212.012,92.531L212.734,93.618L213.457,94.345L214.18,95.377L214.902,96.324L215.625,97.102L216.348,97.911L217.07,98.922L217.793,99.999L218.516,100.859L219.238,101.737L219.961,102.739L220.684,103.832L221.406,104.88L222.129,105.808L222.852,106.903L223.574,108.052L224.297,109.122L225.02,110.303L225.742,111.108L226.465,112.22L227.188,113.464L227.91,114.479L228.633,115.979L229.355,116.699L230.078,118.379L230.801,119.673L231.523,120.743L232.246,122.254L232.969,123.354L233.691,124.437L234.414,125.893L235.137,127.294L235.859,128.456L236.582,129.688L237.305,131.03L238.027,132.602L238.75,133.968L239.473,135.272L240.195,136.577L240.918,137.804L241.641,139.385L242.363,140.663L243.086,142.326L243.809,143.733L244.531,144.944L245.254,146.382L245.977,148.068L246.699,149.218L247.422,150.567L248.145,151.893L248.867,153.537L249.59,154.633L250.313,156.132L251.035,157.639L251.758,158.717L252.48,160.214L253.203,161.389L253.926,162.725L254.648,163.605L255.371,164.913L256.094,165.959L256.816,167.338L257.539,168.415L258.262,169.799L258.984,170.261L259.707,171.588L260.43,172.396L261.152,173.439L261.875,173.7L262.598,174.266L263.32,175.171L264.043,175.885L264.766,176.581L265.488,176.954L266.211,177.26L266.934,177.615L267.656,177.7L268.379,178.027L269.102,178.668L269.824,178.026L270.547,178.214L271.27,178.32L271.992,177.565L272.715,177.068L273.438,176.309L274.16,175.275L274.883,174.14L275.605,173.04L276.328,171.522L277.051,169.781L277.773,168.67L278.496,166.33L279.219,164.604L279.941,162.626L280.664,160.518L281.387,157.583L282.109,154.761L282.832,152.05L283.555,148.954L284.277,146.198L285,143.436L285.723,140.453L286.445,137.042L287.168,134.503L287.891,130.915L288.613,128.122L289.336,124.547L290.059,121.464L290.781,118.189L291.504,114.834L292.227,111.869L292.949,108.338L293.672,105.012L294.395,101.183L295.117,104.692L295.84,108.244L296.563,111.369L297.285,114.762L298.008,117.997L298.73,121.364L299.453,119.556L300.176,117.875L300.898,115.596L301.621,113.234L302.344,111.476L303.066,108.967L303.789,107.066L304.512,104.812L305.234,102.868L305.957,100.624L306.68,98.671L307.402,96.885L308.125,94.753L308.848,92.663L309.57,90.999L310.293,88.837L311.016,87.184L311.738,85.182L312.461,83.404L313.184,81.556L313.906,80.083L314.629,78.408L315.352,76.405L316.074,74.993L316.797,73.229L317.52,71.731L318.242,70.227L318.965,68.764L319.688,67.498L320.41,66.08L321.133,64.986L321.855,63.387L322.578,61.71L323.301,60.635L324.023,59.639L324.746,58.352L325.469,57.148L326.191,55.943L326.914,54.795L327.637,53.92L328.359,52.832L329.082,51.696L329.805,50.697L330.527,49.739L331.25,48.966L331.973,47.805L332.695,46.912L333.418,46.207L334.141,45.298L334.863,44.557L335.586,43.808L336.309,43.051L337.031,42.375L337.754,41.567L338.477,40.968L339.199,40.281L339.922,39.632L340.645,38.936L341.367,38.396L342.09,37.83L342.813,37.163L343.535,36.764L344.258,36.114L344.98,35.643L345.703,35.238L346.426,34.624L347.148,34.2L347.871,33.708L348.594,33.181L349.316,32.782L350.039,32.46L350.762,32.169L351.484,31.712L352.207,31.298L352.93,30.863L353.652,30.679L354.375,30.266L355.098,29.859L355.82,29.663L356.543,29.301L357.266,29.045L357.988,28.778L358.711,28.482L359.434,28.149L360.156,27.977L360.879,27.705L361.602,27.508L362.324,27.241L363.047,26.977L363.77,26.836L364.492,26.601L365.215,26.416L365.938,26.222L366.66,26.021L367.383,25.836L368.105,25.58L368.828,25.447L369.551,25.368L370.273,25.157L370.996,25.067L371.719,24.907L372.441,24.775L373.164,24.625L373.887,24.526L374.609,24.29L375.332,24.246L376.055,24.107L376.777,24.022L377.5,23.869L378.223,23.791L378.945,23.637L379.668,23.527L380.391,23.492L381.113,23.361L381.836,23.288L382.559,23.159L383.281,23.134L384.004,23.044L384.727,22.997L385.449,22.849L386.172,22.816L386.895,22.758L387.617,22.667L388.34,22.6L389.063,22.598L389.785,22.475L390.508,22.394L391.23,22.328L391.953,22.325L392.676,22.245L393.398,22.181L394.121,22.149L394.844,22.139L395.566,22.072L396.289,22.021L397.012,21.991L397.734,21.915L398.457,21.885L399.18,21.811L399.902,21.803L400.625,21.788L401.348,21.761L402.07,21.713L402.793,21.677L403.516,21.672L404.238,21.604L404.961,21.591L405.684,21.582L406.406,21.536L407.129,21.518L407.852,21.508L408.574,21.45L409.297,21.454L410.02,21.436L410.742,21.391L411.465,21.355L412.188,21.369L412.91,21.34L413.633,21.325L414.355,21.295L415.078,21.29L415.801,21.279L416.523,21.257L417.246,21.229L417.969,21.24L418.691,21.225L419.414,21.207L420.137,21.21L420.859,21.167L421.582,21.161L422.305,21.159L423.027,21.15L423.75,21.127L424.473,21.12L425.195,21.128L425.918,21.118L426.641,21.08L427.363,21.093L428.086,21.054L428.809,21.074L429.531,21.058L430.254,21.047L430.977,21.046L431.699,21.041L432.422,21.028L433.145,21.025L433.867,21.011L434.59,21.008L435.313,21.008L436.035,21.005L436.758,21.001L437.48,20.986L438.203,20.997L438.926,20.972L439.648,20.966L440.371,20.967L441.094,20.972L441.816,20.975L442.539,20.957L443.262,20.954L443.984,20.95L444.707,20.948L445.43,20.944L446.152,20.941L446.875,20.938L447.598,20.938L448.32,20.928L449.043,20.924L449.766,20.927L450.488,20.928L451.211,20.917L451.934,20.917L452.656,20.92L453.379,20.905L454.102,20.908L454.824,20.903L455.547,20.911L456.27,20.904L456.992,20.901L457.715,20.897L458.438,20.9L459.16,20.895L459.883,20.892L460.605,20.889L461.328,20.894L462.051,20.893L462.773,20.888L463.496,20.893L464.219,20.883L464.941,20.891L465.664,20.878L466.387,20.88L467.109,20.879L467.832,20.875L468.555,20.881L469.277,20.877"/><path fill="none" stroke="rgb(255, 130, 29)" stroke-width="1.5" d="M100,40.223L100.723,40.425L101.445,40.592L102.168,40.414L102.891,40.44L103.613,40.631L104.336,40.62L105.059,40.752L105.781,40.747L106.504,40.763L107.227,41.001L107.949,41.04L108.672,41.128L109.395,41.218L110.117,41.15L110.84,41.358L111.563,41.309L112.285,41.388L113.008,41.64L113.73,41.569L114.453,41.873L115.176,41.905L115.898,41.95L116.621,42.11L117.344,42.183L118.066,42.221L118.789,42.479L119.512,42.476L120.234,42.377L120.957,42.59L121.68,42.696L122.402,42.921L123.125,43.022L123.848,43.053L124.57,43.231L125.293,43.281L126.016,43.503L126.738,43.472L127.461,43.533L128.184,43.646L128.906,43.986L129.629,44.096L130.352,44.256L131.074,44.425L131.797,44.442L132.52,44.495L133.242,44.708L133.965,44.842L134.688,44.955L135.41,44.976L136.133,45.264L136.855,45.384L137.578,45.375L138.301,45.651L139.023,46.133L139.746,45.91L140.469,46.276L141.191,46.351L141.914,46.639L142.637,46.683L143.359,46.708L144.082,47.028L144.805,47.492L145.527,47.332L146.25,47.646L146.973,47.793L147.695,47.979L148.418,48.097L149.141,48.145L149.863,48.647L150.586,48.901L151.309,49.015L152.031,49.207L152.754,49.414L153.477,49.622L154.199,49.751L154.922,49.921L155.645,50.536L156.367,50.554L157.09,50.861L157.813,50.93L158.535,51.158L159.258,51.483L159.98,51.825L160.703,51.987L161.426,52.378L162.148,52.52L162.871,52.559L163.594,52.947L164.316,53.305L165.039,53.772L165.762,53.903L166.484,54.388L167.207,54.458L167.93,54.956L168.652,55.235L169.375,55.143L170.098,55.579L170.82,56.133L171.543,56.391L172.266,56.647L172.988,57.144L173.711,57.452L174.434,57.829L175.156,58.065L175.879,58.33L176.602,58.802L177.324,59.224L178.047,59.459L178.77,60.033L179.492,60.184L180.215,60.706L180.938,60.947L181.66,61.553L182.383,61.903L183.105,62.21L183.828,62.939L184.551,63.16L185.273,63.509L185.996,64.13L186.719,64.484L187.441,65.071L188.164,65.47L188.887,66.026L189.609,66.48L190.332,66.992L191.055,67.428L191.777,67.867L192.5,68.467L193.223,68.841L193.945,69.409L194.668,69.967L195.391,70.502L196.113,71.057L196.836,71.557L197.559,72.208L198.281,72.58L199.004,73.264L199.727,73.945L200.449,74.457L201.172,75.203L201.895,76.006L202.617,76.403L203.34,76.972L204.063,77.624L204.785,78.55L205.508,79.05L206.23,79.439L206.953,80.38L207.676,81.138L208.398,81.805L209.121,82.456L209.844,83.104L210.566,84.085L211.289,84.579L212.012,85.528L212.734,86.235L213.457,87.005L214.18,87.705L214.902,88.784L215.625,89.507L216.348,90.089L217.07,91.081L217.793,91.889L218.516,92.729L219.238,93.547L219.961,94.425L220.684,95.313L221.406,96.187L222.129,97.035L222.852,98.098L223.574,99.12L224.297,99.875L225.02,100.904L225.742,101.828L226.465,102.664L227.188,103.743L227.91,104.772L228.633,105.761L229.355,106.892L230.078,107.982L230.801,108.833L231.523,109.919L232.246,110.948L232.969,111.743L233.691,113.066L234.414,113.926L235.137,115.391L235.859,116.149L236.582,117.452L237.305,118.48L238.027,119.529L238.75,120.682L239.473,122.155L240.195,123.301L240.918,124.346L241.641,125.409L242.363,126.977L243.086,127.822L243.809,128.923L244.531,130.323L245.254,131.359L245.977,132.679L246.699,133.812L247.422,134.964L248.145,136.219L248.867,137.212L249.59,138.701L250.313,139.687L251.035,141.208L251.758,142.371L252.48,143.735L253.203,144.7L253.926,145.762L254.648,146.673L255.371,147.817L256.094,149.318L256.816,149.998L257.539,151.493L258.262,152.445L258.984,153.461L259.707,154.099L260.43,154.982L261.152,156.174L261.875,156.874L262.598,157.592L263.32,158.231L264.043,159.108L264.766,159.169L265.488,160.059L266.211,160.332L266.934,160.819L267.656,160.968L268.379,161.477L269.102,161.432L269.824,161.912L270.547,162.234L271.27,162.254L271.992,161.95L272.715,161.186L273.438,160.751L274.16,160.82L274.883,159.472L275.605,158.284L276.328,156.819L277.051,155.774L277.773,154.315L278.496,153.133L279.219,151.531L279.941,149.414L280.664,147.91L281.387,145.551L282.109,143.129L282.832,140.64L283.555,138.239L284.277,135.565L285,133.141L285.723,130.506L286.445,128.203L287.168,125.293L287.891,122.461L288.613,119.47L289.336,116.895L290.059,114.073L290.781,111.105L291.504,108.304L292.227,105.168L292.949,108.929L293.672,112.334L294.395,115.675L295.117,119.101L295.84,122.761L296.563,126.071L297.285,125.496L298.008,123.614L298.73,121.362L299.453,119.209L300.176,117.206L300.898,115.097L301.621,113.159L302.344,110.721L303.066,108.79L303.789,107.203L304.512,104.969L305.234,102.631L305.957,100.617L306.68,98.732L307.402,96.59L308.125,94.75L308.848,92.775L309.57,90.834L310.293,89.16L311.016,87.081L311.738,85.532L312.461,83.518L313.184,81.731L313.906,80.178L314.629,78.351L315.352,76.766L316.074,75.113L316.797,73.407L317.52,72.132L318.242,70.213L318.965,68.88L319.688,67.268L320.41,66.226L321.133,64.865L321.855,63.354L322.578,62.175L323.301,60.794L324.023,59.621L324.746,58.422L325.469,57.22L326.191,56.217L326.914,54.98L327.637,53.804L328.359,52.676L329.082,51.706L329.805,50.733L330.527,49.821L331.25,48.881L331.973,47.836L332.695,47.125L333.418,46.17L334.141,45.342L334.863,44.539L335.586,43.859L336.309,42.933L337.031,42.209L337.754,41.516L338.477,40.85L339.199,40.375L339.922,39.567L340.645,38.963L341.367,38.32L342.09,37.706L342.813,37.19L343.535,36.625L344.258,35.99L344.98,35.472L345.703,35.07L346.426,34.59L347.148,34.217L347.871,33.608L348.594,33.186L349.316,32.745L350.039,32.319L350.762,31.933L351.484,31.562L352.207,31.217L352.93,30.831L353.652,30.569L354.375,30.221L355.098,29.814L355.82,29.511L356.543,29.268L357.266,28.948L357.988,28.686L358.711,28.413L359.434,28.125L360.156,27.922L360.879,27.579L361.602,27.393L362.324,27.217L363.047,26.969L363.77,26.773L364.492,26.52L365.215,26.273L365.938,26.144L366.66,25.952L367.383,25.775L368.105,25.573L368.828,25.435L369.551,25.277L370.273,25.078L370.996,24.958L371.719,24.814L372.441,24.641L373.164,24.59L373.887,24.443L374.609,24.329L375.332,24.165L376.055,24.034L376.777,23.953L377.5,23.799L378.223,23.755L378.945,23.645L379.668,23.518L380.391,23.449L381.113,23.329L381.836,23.245L382.559,23.193L383.281,23.07L384.004,22.99L384.727,22.887L385.449,22.846L386.172,22.72L386.895,22.72L387.617,22.646L388.34,22.586L389.063,22.53L389.785,22.462L390.508,22.383L391.23,22.303L391.953,22.285L392.676,22.248L393.398,22.199L394.121,22.129L394.844,22.11L395.566,22.025L396.289,22.024L397.012,21.951L397.734,21.916L398.457,21.872L399.18,21.844L399.902,21.817L400.625,21.752L401.348,21.703L402.07,21.715L402.793,21.665L403.516,21.628L404.238,21.646L404.961,21.583L405.684,21.554L406.406,21.501L407.129,21.487L407.852,21.476L408.574,21.468L409.297,21.421L410.02,21.424L410.742,21.397L411.465,21.381L412.188,21.329L412.91,21.338L413.633,21.319L414.355,21.313L415.078,21.284L415.801,21.251L416.523,21.252L417.246,21.224L417.969,21.229L418.691,21.221L419.414,21.193L420.137,21.187L420.859,21.173L421.582,21.159L422.305,21.14L423.027,21.142L423.75,21.141L424.473,21.11L425.195,21.115L425.918,21.102L426.641,21.098L427.363,21.086L428.086,21.064L428.809,21.063L429.531,21.059L430.254,21.037L430.977,21.045L431.699,21.033L432.422,21.017L433.145,21.013L433.867,21.01L434.59,21.008L435.313,21.005L436.035,20.992L436.758,20.994L437.48,20.986L438.203,20.984L438.926,20.966L439.648,20.975L440.371,20.973L441.094,20.97L441.816,20.953L442.539,20.962L443.262,20.958L443.984,20.946L444.707,20.945L445.43,20.935L446.152,20.934L446.875,20.942L447.598,20.934L448.32,20.933L449.043,20.925L449.766,20.925L450.488,20.918L451.211,20.921L451.934,20.919L452.656,20.912L453.379,20.908L454.102,20.907L454.824,20.911L455.547,20.901L456.27,20.898L456.992,20.901L457.715,20.894L458.438,20.9L459.16,20.898L459.883,20.888L460.605,20.886L461.328,20.889L462.051,20.889L462.773,20.885L463.496,20.887L464.219,20.891L464.941,20.884L465.664,20.879L466.387,20.885L467.109,20.877L467.832,20.878L468.555,20.879L469.277,20.877"/><path fill="none" stroke="rgb(203, 47, 13)" stroke-width="1.5" d="M100,39.687L100.723,39.764L101.445,39.832L102.168,39.797L102.891,40.045L103.613,39.804L104.336,39.948L105.059,40.074L105.781,40.049L106.504,40.186L107.227,40.172L107.949,40.341L108.672,40.42L109.395,40.591L110.117,40.633L110.84,40.791L111.563,40.768L112.285,40.936L113.008,40.925L113.73,41.228L114.453,41.037L115.176,41.063L115.898,41.288L116.621,41.317L117.344,41.415L118.066,41.443L118.789,41.656L119.512,41.822L120.234,41.911L120.957,41.953L121.68,42.103L122.402,42.116L123.125,42.331L123.848,42.339L124.57,42.497L125.293,42.633L126.016,42.664L126.738,42.856L127.461,43.003L128.184,43.161L128.906,43.198L129.629,43.068L130.352,43.444L131.074,43.514L131.797,43.806L132.52,44.018L133.242,43.928L133.965,44.166L134.688,44.186L135.41,44.461L136.133,44.381L136.855,44.666L137.578,44.896L138.301,44.953L139.023,45.324L139.746,45.264L140.469,45.565L141.191,45.561L141.914,45.543L142.637,45.859L143.359,46.007L144.082,46.267L144.805,46.392L145.527,46.66L146.25,46.775L146.973,46.925L147.695,47.332L148.418,47.374L149.141,47.637L149.863,47.75L150.586,48.045L151.309,48.23L152.031,48.332L152.754,48.439L153.477,48.772L154.199,48.998L154.922,49.153L155.645,49.451L156.367,49.561L157.09,49.875L157.813,50.044L158.535,50.243L159.258,50.6L159.98,50.765L160.703,50.946L161.426,51.317L162.148,51.548L162.871,51.7L163.594,52.077L164.316,52.309L165.039,52.867L165.762,52.897L166.484,53.238L167.207,53.569L167.93,53.767L168.652,53.997L169.375,54.216L170.098,54.605L170.82,55.043L171.543,55.329L172.266,55.73L172.988,55.871L173.711,56.252L174.434,56.55L175.156,56.919L175.879,57.17L176.602,57.637L177.324,57.955L178.047,58.343L178.77,58.655L179.492,59.189L180.215,59.572L180.938,59.921L181.66,60.078L182.383,60.521L183.105,61.024L183.828,61.184L184.551,61.958L185.273,62.244L185.996,62.71L186.719,63.079L187.441,63.669L188.164,64.083L188.887,64.348L189.609,64.863L190.332,65.431L191.055,65.987L191.777,66.234L192.5,66.895L193.223,67.347L193.945,67.954L194.668,68.366L195.391,68.997L196.113,69.297L196.836,69.941L197.559,70.545L198.281,71.053L199.004,71.494L199.727,71.861L200.449,72.684L201.172,73.243L201.895,73.859L202.617,74.439L203.34,75.124L204.063,75.675L204.785,76.249L205.508,77.016L206.23,77.65L206.953,78.096L207.676,78.864L208.398,79.574L209.121,80.207L209.844,80.857L210.566,81.502L211.289,82.269L212.012,82.954L212.734,83.627L213.457,84.421L214.18,85.094L214.902,85.964L215.625,86.652L216.348,87.47L217.07,88.142L217.793,89.109L218.516,89.902L219.238,90.588L219.961,91.239L220.684,92.15L221.406,93.019L222.129,93.937L222.852,94.757L223.574,95.61L224.297,96.365L225.02,97.151L225.742,98.31L226.465,99.066L227.188,99.999L227.91,101.086L228.633,101.871L229.355,102.952L230.078,103.895L230.801,104.814L231.523,105.767L232.246,106.898L232.969,107.681L233.691,108.83L234.414,110.087L235.137,110.8L235.859,111.77L236.582,112.729L237.305,114.027L238.027,114.86L238.75,116.008L239.473,117.063L240.195,118.373L240.918,119.511L241.641,120.377L242.363,121.663L243.086,122.526L243.809,123.646L244.531,125.154L245.254,126.1L245.977,127.128L246.699,128.429L247.422,129.637L248.145,130.346L248.867,131.594L249.59,132.98L250.313,134.113L251.035,135.455L251.758,136.135L252.48,137.521L253.203,138.744L253.926,139.563L254.648,140.68L255.371,142.078L256.094,143.083L256.816,144.345L257.539,145.148L258.262,146.173L258.984,147.205L259.707,148.424L260.43,148.726L261.152,150.026L261.875,150.605L262.598,151.129L263.32,152.109L264.043,152.858L264.766,153.643L265.488,154.363L266.211,154.39L266.934,154.952L267.656,155.366L268.379,155.674L269.102,155.618L269.824,156.072L270.547,156.586L271.27,156.381L271.992,156.079L272.715,155.626L273.438,155.243L274.16,155.102L274.883,154.347L275.605,153.234L276.328,152.237L277.051,150.826L277.773,149.824L278.496,148.333L279.219,146.611L279.941,144.931L280.664,143.048L281.387,141.067L282.109,138.83L282.832,136.684L283.555,133.941L284.277,131.691L285,129.509L285.723,126.863L286.445,124.175L287.168,121.558L287.891,119.241L288.613,116.277L289.336,113.904L290.059,111.308L290.781,108.444L291.504,107.153L292.227,110.651L292.949,114.632L293.672,118.11L294.395,122.101L295.117,125.801L295.84,128.654L296.563,127.034L297.285,125.263L298.008,123.081L298.73,120.96L299.453,119.189L300.176,117.066L300.898,115.194L301.621,113.197L302.344,111.198L303.066,108.903L303.789,106.918L304.512,104.66L305.234,102.535L305.957,100.721L306.68,98.7L307.402,96.735L308.125,94.727L308.848,92.863L309.57,91.029L310.293,89.082L311.016,87.54L311.738,85.435L312.461,83.633L313.184,81.75L313.906,80.174L314.629,78.398L315.352,76.995L316.074,75.156L316.797,73.589L317.52,71.835L318.242,70.566L318.965,69.117L319.688,67.738L320.41,66.204L321.133,64.791L321.855,63.261L322.578,62.116L323.301,60.903L324.023,59.633L324.746,58.42L325.469,57.323L326.191,55.843L326.914,54.965L327.637,53.967L328.359,52.705L329.082,51.84L329.805,50.918L330.527,49.715L331.25,48.832L331.973,47.98L332.695,46.995L333.418,46.289L334.141,45.45L334.863,44.488L335.586,43.825L336.309,43.036L337.031,42.237L337.754,41.559L338.477,40.915L339.199,40.155L339.922,39.618L340.645,38.844L341.367,38.275L342.09,37.671L342.813,37.092L343.535,36.521L344.258,36.066L344.98,35.521L345.703,35.014L346.426,34.546L347.148,34.027L347.871,33.597L348.594,33.245L349.316,32.693L350.039,32.369L350.762,31.946L351.484,31.56L352.207,31.156L352.93,30.824L353.652,30.532L354.375,30.175L355.098,29.822L355.82,29.477L356.543,29.273L357.266,28.908L357.988,28.707L358.711,28.429L359.434,28.135L360.156,27.907L360.879,27.578L361.602,27.386L362.324,27.187L363.047,26.924L363.77,26.74L364.492,26.499L365.215,26.382L365.938,26.161L366.66,25.961L367.383,25.822L368.105,25.714L368.828,25.429L369.551,25.301L370.273,25.179L370.996,24.988L371.719,24.801L372.441,24.651L373.164,24.522L373.887,24.396L374.609,24.309L375.332,24.178L376.055,24.032L376.777,23.965L377.5,23.823L378.223,23.794L378.945,23.628L379.668,23.535L380.391,23.38L381.113,23.365L381.836,23.221L382.559,23.152L383.281,23.077L384.004,22.986L384.727,22.936L385.449,22.85L386.172,22.769L386.895,22.721L387.617,22.616L388.34,22.61L389.063,22.492L389.785,22.454L390.508,22.394L391.23,22.374L391.953,22.274L392.676,22.234L393.398,22.187L394.121,22.114L394.844,22.074L395.566,22.031L396.289,21.998L397.012,21.972L397.734,21.915L398.457,21.874L399.18,21.85L399.902,21.788L400.625,21.8L401.348,21.743L402.07,21.697L402.793,21.689L403.516,21.623L404.238,21.597L404.961,21.583L405.684,21.542L406.406,21.529L407.129,21.486L407.852,21.454L408.574,21.475L409.297,21.443L410.02,21.401L410.742,21.381L411.465,21.37L412.188,21.325L412.91,21.326L413.633,21.295L414.355,21.288L415.078,21.289L415.801,21.273L416.523,21.247L417.246,21.221L417.969,21.226L418.691,21.199L419.414,21.194L420.137,21.183L420.859,21.161L421.582,21.17L422.305,21.138L423.027,21.128L423.75,21.119L424.473,21.104L425.195,21.103L425.918,21.092L426.641,21.082L427.363,21.072L428.086,21.062L428.809,21.062L429.531,21.046L430.254,21.047L430.977,21.042L431.699,21.027L432.422,21.021L433.145,21.017L433.867,21.003L434.59,21.012L435.313,21.003L436.035,20.982L436.758,21.001L437.48,20.987L438.203,20.984L438.926,20.97L439.648,20.975L440.371,20.97L441.094,20.96L441.816,20.967L442.539,20.962L443.262,20.951L443.984,20.95L444.707,20.95L445.43,20.944L446.152,20.929L446.875,20.934L447.598,20.935L448.32,20.923L449.043,20.929L449.766,20.926L450.488,20.925L451.211,20.918L451.934,20.918L452.656,20.911L453.379,20.901L454.102,20.904L454.824,20.903L455.547,20.901L456.27,20.9L456.992,20.902L457.715,20.892L458.438,20.898L459.16,20.896L459.883,20.89L460.605,20.889L461.328,20.89L462.051,20.889L462.773,20.888L463.496,20.887L464.219,20.881L464.941,20.883L465.664,20.882L466.387,20.881L467.109,20.872L467.832,20.883L468.555,20.879L469.277,20.875"/><g transform="translate(15,190) scale(1.7) rotate(-90)"><text>Drift</text></g><g transform="translate(315,395) scale(1.8)"><text></text></g><g transform="translate(0,350)" fill="none" font-size="10" font-family="sans-serif" text-anchor="middle"><path class="domain" stroke="currentColor" d="M100,6V0H470V6"/><g class="tick" opacity="1" transform="translate(136.96669666966696,0)"><line stroke="currentColor" y2="6"/><text fill="currentColor" y="9" dy="0.71em" font-size="20px"> </text></g><g class="tick" opacity="1" transform="translate(173.97039703970398,0)"><line stroke="currentColor" y2="6"/><text fill="currentColor" y="9" dy="0.71em" font-size="20px">20</text></g><g class="tick" opacity="1" transform="translate(210.97409740974098,0)"><line stroke="currentColor" y2="6"/><text fill="currentColor" y="9" dy="0.71em" font-size="20px"> </text></g><g class="tick" opacity="1" transform="translate(247.97779777977803,0)"><line stroke="currentColor" y2="6"/><text fill="currentColor" y="9" dy="0.71em" font-size="20px">40</text></g><g class="tick" opacity="1" transform="translate(284.981498149815,0)"><line stroke="currentColor" y2="6"/><text fill="currentColor" y="9" dy="0.71em" font-size="20px"> </text></g><g class="tick" opacity="1" transform="translate(321.985198519852,0)"><line stroke="currentColor" y2="6"/><text fill="currentColor" y="9" dy="0.71em" font-size="20px">60</text></g><g class="tick" opacity="1" transform="translate(358.988898889889,0)"><line stroke="currentColor" y2="6"/><text fill="currentColor" y="9" dy="0.71em" font-size="20px"> </text></g><g class="tick" opacity="1" transform="translate(395.992599259926,0)"><line stroke="currentColor" y2="6"/><text fill="currentColor" y="9" dy="0.71em" font-size="20px">80</text></g><g class="tick" opacity="1" transform="translate(432.996299629963,0)"><line stroke="currentColor" y2="6"/><text fill="currentColor" y="9" dy="0.71em" font-size="20px"> </text></g><g class="tick" opacity="1" transform="translate(470,0)"><line stroke="currentColor" y2="6"/><text fill="currentColor" y="9" dy="0.71em" font-size="20px">100</text></g></g><g transform="translate(100,0)" fill="none" font-size="10" font-family="sans-serif" text-anchor="end"><path class="domain" stroke="currentColor" d="M-6,350H0V20H-6"/><g class="tick" opacity="1" transform="translate(0,341.9999123788538)"><line stroke="currentColor" x2="-6"/><text fill="currentColor" x="-9" dy="0.32em" font-size="20px">0.28</text></g><g class="tick" opacity="1" transform="translate(0,317.6087520986777)"><line stroke="currentColor" x2="-6"/><text fill="currentColor" x="-9" dy="0.32em" font-size="20px">0.26</text></g><g class="tick" opacity="1" transform="translate(0,293.2175918185016)"><line stroke="currentColor" x2="-6"/><text fill="currentColor" x="-9" dy="0.32em" font-size="20px">0.24</text></g><g class="tick" opacity="1" transform="translate(0,268.8264315383255)"><line stroke="currentColor" x2="-6"/><text fill="currentColor" x="-9" dy="0.32em" font-size="20px">0.22</text></g><g class="tick" opacity="1" transform="translate(0,244.4352712581494)"><line stroke="currentColor" x2="-6"/><text fill="currentColor" x="-9" dy="0.32em" font-size="20px">0.20</text></g><g class="tick" opacity="1" transform="translate(0,220.04411097797328)"><line stroke="currentColor" x2="-6"/><text fill="currentColor" x="-9" dy="0.32em" font-size="20px">0.18</text></g><g class="tick" opacity="1" transform="translate(0,195.65295069779717)"><line stroke="currentColor" x2="-6"/><text fill="currentColor" x="-9" dy="0.32em" font-size="20px">0.16</text></g><g class="tick" opacity="1" transform="translate(0,171.26179041762106)"><line stroke="currentColor" x2="-6"/><text fill="currentColor" x="-9" dy="0.32em" font-size="20px">0.14</text></g><g class="tick" opacity="1" transform="translate(0,146.87063013744498)"><line stroke="currentColor" x2="-6"/><text fill="currentColor" x="-9" dy="0.32em" font-size="20px">0.12</text></g><g class="tick" opacity="1" transform="translate(0,122.47946985726888)"><line stroke="currentColor" x2="-6"/><text fill="currentColor" x="-9" dy="0.32em" font-size="20px">0.10</text></g><g class="tick" opacity="1" transform="translate(0,98.08830957709279)"><line stroke="currentColor" x2="-6"/><text fill="currentColor" x="-9" dy="0.32em" font-size="20px">0.08</text></g><g class="tick" opacity="1" transform="translate(0,73.69714929691665)"><line stroke="currentColor" x2="-6"/><text fill="currentColor" x="-9" dy="0.32em" font-size="20px">0.06</text></g><g class="tick" opacity="1" transform="translate(0,49.305989016740554)"><line stroke="currentColor" x2="-6"/><text fill="currentColor" x="-9" dy="0.32em" font-size="20px">0.04</text></g><g class="tick" opacity="1" transform="translate(0,24.914828736564452)"><line stroke="currentColor" x2="-6"/><text fill="currentColor" x="-9" dy="0.32em" font-size="20px">0.02</text></g></g><circle cx="355" cy="150" r="8" style="fill: rgb(35, 23, 27);"/><circle cx="355" cy="175" r="8" style="fill: rgb(69, 105, 238);"/><circle cx="355" cy="200" r="8" style="fill: rgb(38, 188, 225);"/><circle cx="355" cy="225" r="8" style="fill: rgb(63, 243, 147);"/><circle cx="355" cy="250" r="8" style="fill: rgb(149, 251, 81);"/><circle cx="355" cy="275" r="8" style="fill: rgb(236, 209, 46);"/><circle cx="355" cy="300" r="8" style="fill: rgb(255, 130, 29);"/><circle cx="355" cy="325" r="8" style="fill: rgb(203, 47, 13);"/><text x="370" y="150" text-anchor="left" font-size="22" alignment-baseline="middle" style="fill: rgb(35, 23, 27);"> = 0</text><text x="370" y="175" text-anchor="left" font-size="22" alignment-baseline="middle" style="fill: rgb(69, 105, 238);"> = 0.22</text><text x="370" y="200" text-anchor="left" font-size="22" alignment-baseline="middle" style="fill: rgb(38, 188, 225);"> = 0.45</text><text x="370" y="225" text-anchor="left" font-size="22" alignment-baseline="middle" style="fill: rgb(63, 243, 147);"> = 0.67</text><text x="370" y="250" text-anchor="left" font-size="22" alignment-baseline="middle" style="fill: rgb(149, 251, 81);"> = 0.9</text><text x="370" y="275" text-anchor="left" font-size="22" alignment-baseline="middle" style="fill: rgb(236, 209, 46);"> = 1.12</text><text x="370" y="300" text-anchor="left" font-size="22" alignment-baseline="middle" style="fill: rgb(255, 130, 29);"> = 1.35</text><text x="370" y="325" text-anchor="left" font-size="22" alignment-baseline="middle" style="fill: rgb(203, 47, 13);"> = 1.57</text></svg>