<svg xmlns="http://www.w3.org/2000/svg" class="bg-white" width="500" height="400" viewBox="-10 -1 500 400"><path fill="none" stroke="rgb(35, 23, 27)" stroke-width="1.5" d="M100,176.906L100.723,177.741L101.445,178.549L102.168,179.592L102.891,180.53L103.613,181.851L104.336,182.759L105.059,183.727L105.781,185.021L106.504,186.067L107.227,187.187L107.949,188.608L108.672,189.971L109.395,191.148L110.117,192.612L110.84,194.223L111.563,195.628L112.285,196.862L113.008,198.476L113.73,200.1L114.453,201.755L115.176,203.764L115.898,205.625L116.621,207.191L117.344,209.107L118.066,211.151L118.789,213.165L119.512,215.282L120.234,217.558L120.957,219.834L121.68,222.19L122.402,224.659L123.125,227.237L123.848,230.223L124.57,232.497L125.293,235.432L126.016,238.4L126.738,241.164L127.461,244.142L128.184,246.929L128.906,249.925L129.629,253.333L130.352,256.534L131.074,259.419L131.797,263.035L132.52,266.008L133.242,269.287L133.965,272.751L134.688,275.772L135.41,279.642L136.133,282.515L136.855,285.804L137.578,289.273L138.301,292.59L139.023,295.869L139.746,299.486L140.469,302.414L141.191,305.557L141.914,308.589L142.637,311.515L143.359,314.515L144.082,317.348L144.805,319.83L145.527,322.521L146.25,325.063L146.973,327.68L147.695,330.314L148.418,332.116L149.141,334.245L149.863,336.197L150.586,338.178L151.309,340.344L152.031,341.593L152.754,342.978L153.477,344.374L154.199,345.551L154.922,347.07L155.645,347.566L156.367,348.356L157.09,348.995L157.813,349.325L158.535,349.469L159.258,350L159.98,349.672L160.703,349.547L161.426,349.28L162.148,348.857L162.871,348.794L163.594,347.75L164.316,346.896L165.039,345.963L165.762,344.775L166.484,344.23L167.207,342.321L167.93,341.373L168.652,339.885L169.375,338.033L170.098,335.997L170.82,334.01L171.543,332.229L172.266,330.335L172.988,328.036L173.711,325.87L174.434,323.047L175.156,320.756L175.879,318.27L176.602,315.938L177.324,313.256L178.047,310.735L178.77,307.562L179.492,304.875L180.215,301.985L180.938,298.849L181.66,296.304L182.383,293.183L183.105,289.921L183.828,287.142L184.551,283.695L185.273,280.992L185.996,277.723L186.719,274.589L187.441,271.158L188.164,268.036L188.887,265.092L189.609,261.353L190.332,258.679L191.055,255.283L191.777,251.719L192.5,248.824L193.223,245.352L193.945,242.353L194.668,239.132L195.391,235.774L196.113,232.662L196.836,229.725L197.559,226.386L198.281,223.103L199.004,220.275L199.727,217.043L200.449,213.626L201.172,210.504L201.895,207.594L202.617,204.601L203.34,201.707L204.063,198.57L204.785,195.847L205.508,192.9L206.23,189.775L206.953,187.12L207.676,184.338L208.398,181.617L209.121,178.723L209.844,175.83L210.566,173.082L211.289,170.467L212.012,167.736L212.734,164.682L213.457,162.003L214.18,159.534L214.902,156.973L215.625,154.716L216.348,151.819L217.07,149.741L217.793,147.191L218.516,144.541L219.238,142.519L219.961,139.945L220.684,137.847L221.406,135.448L222.129,132.922L222.852,130.664L223.574,128.366L224.297,126.536L225.02,123.931L225.742,122.331L226.465,121.315L227.188,121.173L227.91,121.882L228.633,122.576L229.355,122.659L230.078,123.171L230.801,123.474L231.523,121.716L232.246,120.242L232.969,118.87L233.691,117.282L234.414,115.549L235.137,114.296L235.859,112.465L236.582,111.347L237.305,109.985L238.027,108.16L238.75,107.247L239.473,105.617L240.195,104.01L240.918,102.558L241.641,101.316L242.363,100.291L243.086,98.842L243.809,97.635L244.531,96.103L245.254,95.025L245.977,93.765L246.699,92.446L247.422,91.186L248.145,89.885L248.867,88.724L249.59,87.565L250.313,86.272L251.035,85.416L251.758,84.216L252.48,83.123L253.203,82.057L253.926,80.811L254.648,79.912L255.371,78.593L256.094,77.481L256.816,76.586L257.539,75.762L258.262,74.882L258.984,73.858L259.707,72.905L260.43,72.054L261.152,71.201L261.875,70.366L262.598,69.366L263.32,68.583L264.043,67.502L264.766,66.947L265.488,66.068L266.211,65.216L266.934,64.466L267.656,63.754L268.379,63.145L269.102,62.333L269.824,61.765L270.547,60.792L271.27,60.245L271.992,59.576L272.715,58.917L273.438,58.195L274.16,57.457L274.883,56.897L275.605,56.278L276.328,55.57L277.051,54.996L277.773,54.427L278.496,53.891L279.219,53.067L279.941,52.569L280.664,52.004L281.387,51.448L282.109,50.916L282.832,50.314L283.555,49.769L284.277,49.278L285,48.761L285.723,48.09L286.445,47.729L287.168,47.182L287.891,46.68L288.613,46.27L289.336,45.755L290.059,45.17L290.781,44.894L291.504,44.333L292.227,43.882L292.949,43.405L293.672,42.983L294.395,42.669L295.117,42.268L295.84,41.667L296.563,41.196L297.285,40.803L298.008,40.482L298.73,40.073L299.453,39.769L300.176,39.44L300.898,39.026L301.621,38.567L302.344,38.223L303.066,38.009L303.789,37.664L304.512,37.189L305.234,36.879L305.957,36.603L306.68,36.157L307.402,35.852L308.125,35.53L308.848,35.407L309.57,34.959L310.293,34.792L311.016,34.471L311.738,34.062L312.461,33.754L313.184,33.536L313.906,33.22L314.629,33.032L315.352,32.778L316.074,32.628L316.797,32.258L317.52,31.915L318.242,31.804L318.965,31.457L319.688,31.299L320.41,30.855L321.133,30.859L321.855,30.637L322.578,30.307L323.301,30.17L324.023,29.936L324.746,29.685L325.469,29.6L326.191,29.447L326.914,29.105L327.637,28.897L328.359,28.702L329.082,28.685L329.805,28.39L330.527,28.212L331.25,27.99L331.973,27.694L332.695,27.689L333.418,27.535L334.141,27.464L334.863,27.006L335.586,27.016L336.309,26.9L337.031,26.743L337.754,26.518L338.477,26.433L339.199,26.216L339.922,26.209L340.645,25.934L341.367,25.909L342.09,25.676L342.813,25.537L343.535,25.544L344.258,25.259L344.98,25.218L345.703,25.187L346.426,25.054L347.148,24.955L347.871,24.83L348.594,24.501L349.316,24.453L350.039,24.506L350.762,24.497L351.484,24.165L352.207,24.104L352.93,23.917L353.652,23.926L354.375,24.029L355.098,23.405L355.82,23.588L356.543,23.571L357.266,23.585L357.988,23.418L358.711,23.154L359.434,23.249L360.156,23.024L360.879,23.128L361.602,22.995L362.324,23.014L363.047,22.611L363.77,22.93L364.492,22.606L365.215,22.487L365.938,22.444L366.66,22.273L367.383,22.461L368.105,22.32L368.828,22.28L369.551,22.306L370.273,22.396L370.996,22.097L371.719,22.127L372.441,22.09L373.164,22.15L373.887,21.926L374.609,22.375L375.332,22.133L376.055,21.772L376.777,21.472L377.5,21.341L378.223,21.457L378.945,21.736L379.668,21.4L380.391,21.397L381.113,21.527L381.836,21.376L382.559,21.413L383.281,21.245L384.004,21.055L384.727,21.638L385.449,21.387L386.172,21.556L386.895,21.329L387.617,21.601L388.34,21.985L389.063,21.504L389.785,21.285L390.508,21.348L391.23,21.204L391.953,21.903L392.676,21.461L393.398,21.449L394.121,21.669L394.844,21.557L395.566,21.405L396.289,21.387L397.012,21.269L397.734,21.454L398.457,21.384L399.18,21.573L399.902,20.885L400.625,22.612L401.348,22.439L402.07,22.048L402.793,22.107L403.516,21.687L404.238,22.13L404.961,22.879L405.684,23.057L406.406,23.56L407.129,23.27L407.852,24.345L408.574,23.531L409.297,25.371L410.02,24.719L410.742,23.061L411.465,24.012L412.188,23.666L412.91,25.102L413.633,24.947L414.355,25.579L415.078,26.436L415.801,27.258L416.523,26.805L417.246,26.956L417.969,27.14L418.691,29.303L419.414,27.005L420.137,28.316L420.859,28.265L421.582,27.636L422.305,28.504L423.027,27.874L423.75,29.102L424.473,29.127L425.195,28.259L425.918,27.877L426.641,28.283L427.363,28.877L428.086,28.304L428.809,27.687L429.531,26.849L430.254,27.013L430.977,26.525L431.699,26.734L432.422,26.795L433.145,25.73L433.867,25.379L434.59,25.985L435.313,24.939L436.035,25.008L436.758,24.677L437.48,24.6L438.203,24.94L438.926,24.047L439.648,23.59L440.371,24.233L441.094,22.865L441.816,23.586L442.539,23.329L443.262,23.139L443.984,23.246L444.707,22.683L445.43,22.821L446.152,22.567L446.875,22.243L447.598,22.102L448.32,22.026L449.043,22.07L449.766,21.771L450.488,21.76L451.211,21.403L451.934,21.03L452.656,21.551L453.379,20.905L454.102,21.101L454.824,21.139L455.547,21.167L456.27,21.125L456.992,20.902L457.715,20.858L458.438,20.638L459.16,20.812L459.883,20.701L460.605,20.558L461.328,20.467L462.051,20.653L462.773,20.613L463.496,20.441L464.219,20.508L464.941,20.488L465.664,20.467L466.387,20.266L467.109,20.307L467.832,20.384L468.555,20.161L469.277,20.192"/><path fill="none" stroke="rgb(69, 105, 238)" stroke-width="1.5" d="M100,175.402L100.723,176.155L101.445,177.21L102.168,178.078L102.891,178.834L103.613,180.13L104.336,181.047L105.059,181.943L105.781,182.911L106.504,184.096L107.227,185.128L107.949,186.316L108.672,187.507L109.395,188.834L110.117,189.92L110.84,190.963L111.563,192.389L112.285,193.604L113.008,195.078L113.73,196.338L114.453,197.77L115.176,199.159L115.898,200.905L116.621,202.19L117.344,203.755L118.066,205.559L118.789,207.326L119.512,208.797L120.234,210.338L120.957,212.236L121.68,214.074L122.402,215.894L123.125,217.938L123.848,219.652L124.57,221.538L125.293,223.654L126.016,225.589L126.738,227.579L127.461,229.591L128.184,231.621L128.906,233.64L129.629,235.734L130.352,238.023L131.074,240.138L131.797,242.167L132.52,244.231L133.242,246.379L133.965,248.778L134.688,250.654L135.41,252.939L136.133,254.932L136.855,257.032L137.578,258.989L138.301,261.078L139.023,262.913L139.746,265.066L140.469,267.288L141.191,268.717L141.914,270.817L142.637,272.132L143.359,274.187L144.082,275.719L144.805,277.19L145.527,279.094L146.25,280.22L146.973,281.666L147.695,282.996L148.418,284.265L149.141,285.52L149.863,286.577L150.586,287.426L151.309,288.188L152.031,289.2L152.754,289.848L153.477,290.397L154.199,290.906L154.922,291.002L155.645,291.556L156.367,291.518L157.09,291.737L157.813,291.793L158.535,291.376L159.258,291.004L159.98,291.061L160.703,290.134L161.426,289.677L162.148,289.021L162.871,288.17L163.594,287.76L164.316,286.783L165.039,285.664L165.762,284.414L166.484,283.332L167.207,281.708L167.93,280.386L168.652,278.801L169.375,276.906L170.098,275.788L170.82,273.689L171.543,271.979L172.266,270.057L172.988,268.318L173.711,266.296L174.434,263.586L175.156,261.922L175.879,259.14L176.602,257.307L177.324,255.33L178.047,252.668L178.77,250.437L179.492,247.718L180.215,245.565L180.938,242.911L181.66,240.325L182.383,237.925L183.105,235.316L183.828,232.893L184.551,229.676L185.273,227.782L185.996,224.896L186.719,221.698L187.441,219.234L188.164,216.885L188.887,213.94L189.609,211.432L190.332,208.696L191.055,205.981L191.777,203.073L192.5,200.717L193.223,197.866L193.945,195.35L194.668,192.56L195.391,189.824L196.113,187.294L196.836,184.453L197.559,182.026L198.281,179.297L199.004,176.715L199.727,174.248L200.449,171.633L201.172,168.949L201.895,166.33L202.617,164.044L203.34,161.642L204.063,158.98L204.785,156.664L205.508,154.073L206.23,151.822L206.953,149.185L207.676,146.58L208.398,144.407L209.121,142.387L209.844,140.091L210.566,137.755L211.289,135.764L212.012,133.337L212.734,130.998L213.457,129.029L214.18,126.803L214.902,124.59L215.625,122.484L216.348,120.554L217.07,118.717L217.793,116.395L218.516,114.523L219.238,112.259L219.961,110.457L220.684,108.546L221.406,106.699L222.129,104.882L222.852,102.952L223.574,101.285L224.297,99.409L225.02,97.647L225.742,98.191L226.465,98.841L227.188,99.868L227.91,100.406L228.633,101.239L229.355,102.162L230.078,101.394L230.801,100.089L231.523,99.025L232.246,97.791L232.969,96.423L233.691,95.327L234.414,93.949L235.137,93.001L235.859,91.932L236.582,90.718L237.305,89.357L238.027,88.479L238.75,87.321L239.473,86.202L240.195,85.16L240.918,84.08L241.641,82.809L242.363,81.926L243.086,80.784L243.809,79.598L244.531,78.71L245.254,77.869L245.977,76.745L246.699,75.748L247.422,74.771L248.145,73.8L248.867,72.831L249.59,71.865L250.313,70.839L251.035,70.144L251.758,69.161L252.48,68.321L253.203,67.503L253.926,66.695L254.648,66.027L255.371,65.191L256.094,64.392L256.816,63.59L257.539,62.773L258.262,62.127L258.984,61.404L259.707,60.524L260.43,59.753L261.152,59.395L261.875,58.581L262.598,57.962L263.32,57.411L264.043,56.619L264.766,56.207L265.488,55.603L266.211,55.086L266.934,54.415L267.656,53.954L268.379,53.422L269.102,52.838L269.824,52.426L270.547,51.992L271.27,51.461L271.992,50.892L272.715,50.338L273.438,49.959L274.16,49.553L274.883,49.104L275.605,48.671L276.328,48.199L277.051,47.795L277.773,47.344L278.496,46.847L279.219,46.453L279.941,46.075L280.664,45.66L281.387,45.122L282.109,44.72L282.832,44.419L283.555,43.986L284.277,43.581L285,43.193L285.723,42.819L286.445,42.396L287.168,41.99L287.891,41.761L288.613,41.22L289.336,40.916L290.059,40.466L290.781,40.292L291.504,39.877L292.227,39.555L292.949,39.35L293.672,38.895L294.395,38.618L295.117,38.173L295.84,37.922L296.563,37.639L297.285,37.148L298.008,36.924L298.73,36.615L299.453,36.437L300.176,36.148L300.898,35.822L301.621,35.556L302.344,35.267L303.066,35.029L303.789,34.694L304.512,34.283L305.234,34.134L305.957,33.949L306.68,33.651L307.402,33.262L308.125,33.031L308.848,32.818L309.57,32.611L310.293,32.435L311.016,32.281L311.738,32.078L312.461,31.767L313.184,31.488L313.906,31.217L314.629,30.956L315.352,30.879L316.074,30.717L316.797,30.434L317.52,30.212L318.242,30.139L318.965,29.877L319.688,29.789L320.41,29.378L321.133,29.382L321.855,29.143L322.578,28.948L323.301,28.997L324.023,28.645L324.746,28.606L325.469,28.309L326.191,28.269L326.914,28.105L327.637,27.904L328.359,27.642L329.082,27.67L329.805,27.339L330.527,27.249L331.25,27.202L331.973,26.776L332.695,26.83L333.418,26.625L334.141,26.762L334.863,26.621L335.586,26.312L336.309,26.174L337.031,26.023L337.754,25.937L338.477,25.488L339.199,25.701L339.922,25.691L340.645,25.442L341.367,25.483L342.09,25.016L342.813,25.144L343.535,24.846L344.258,24.6L344.98,24.741L345.703,24.717L346.426,24.847L347.148,24.619L347.871,24.279L348.594,24.158L349.316,24.361L350.039,24.078L350.762,24.061L351.484,23.72L352.207,23.809L352.93,23.727L353.652,23.402L354.375,23.242L355.098,23.13L355.82,23.353L356.543,23.662L357.266,23.065L357.988,23.489L358.711,23.616L359.434,22.796L360.156,22.852L360.879,22.735L361.602,23.184L362.324,22.623L363.047,22.509L363.77,22.723L364.492,22.294L365.215,23.053L365.938,22.559L366.66,22.65L367.383,22.276L368.105,22.215L368.828,22.133L369.551,22.478L370.273,21.834L370.996,21.623L371.719,22.187L372.441,21.485L373.164,21.939L373.887,21.889L374.609,21.321L375.332,21.412L376.055,21.264L376.777,22.218L377.5,21.99L378.223,22.019L378.945,21.532L379.668,21.667L380.391,21.471L381.113,21.327L381.836,21.16L382.559,21.565L383.281,21.035L384.004,21.384L384.727,21.967L385.449,21.02L386.172,22.397L386.895,21.137L387.617,21.438L388.34,21.144L389.063,21.017L389.785,22.04L390.508,20.518L391.23,21.683L391.953,21.162L392.676,21.302L393.398,20.979L394.121,21.007L394.844,20.884L395.566,21.349L396.289,21.678L397.012,21.247L397.734,21.548L398.457,21.24L399.18,21.842L399.902,20.746L400.625,21.75L401.348,21.588L402.07,21.331L402.793,22.652L403.516,23.199L404.238,23.048L404.961,21.818L405.684,22.902L406.406,22.633L407.129,22.234L407.852,23.014L408.574,23.709L409.297,23.46L410.02,24.431L410.742,24.096L411.465,24.29L412.188,24.444L412.91,24.404L413.633,25.804L414.355,24.333L415.078,24.355L415.801,25.548L416.523,25.176L417.246,26.339L417.969,27.417L418.691,26.22L419.414,27.618L420.137,26.747L420.859,27.057L421.582,26.193L422.305,26.523L423.027,27.681L423.75,26.705L424.473,27.528L425.195,27.788L425.918,26.666L426.641,27.486L427.363,26.514L428.086,27.832L428.809,27.389L429.531,26.003L430.254,26.251L430.977,26.12L431.699,25.634L432.422,25.378L433.145,25.514L433.867,25.37L434.59,25.837L435.313,25.21L436.035,24.8L436.758,24.744L437.48,24.013L438.203,23.373L438.926,23.709L439.648,24.26L440.371,23.241L441.094,23.2L441.816,23.081L442.539,23.074L443.262,22.896L443.984,22.892L444.707,22.756L445.43,22.606L446.152,21.832L446.875,22.065L447.598,21.793L448.32,21.902L449.043,21.683L449.766,21.509L450.488,21.059L451.211,21.23L451.934,21.312L452.656,21.126L453.379,21.025L454.102,20.971L454.824,21.132L455.547,20.998L456.27,20.82L456.992,20.698L457.715,20.718L458.438,20.507L459.16,20.474L459.883,20.579L460.605,20.642L461.328,20.346L462.051,20.52L462.773,20.389L463.496,20.455L464.219,20.369L464.941,20.499L465.664,20.38L466.387,20.34L467.109,20.365L467.832,20.228L468.555,20.275L469.277,20.263"/><path fill="none" stroke="rgb(38, 188, 225)" stroke-width="1.5" d="M100,171.961L100.723,172.755L101.445,173.71L102.168,174.213L102.891,175.153L103.613,175.997L104.336,176.871L105.059,177.708L105.781,178.576L106.504,179.515L107.227,180.257L107.949,181.277L108.672,182.301L109.395,183.285L110.117,184.274L110.84,185.467L111.563,186.426L112.285,187.35L113.008,188.777L113.73,189.59L114.453,190.867L115.176,192.135L115.898,193.31L116.621,194.17L117.344,195.365L118.066,196.672L118.789,197.904L119.512,199.524L120.234,200.655L120.957,201.848L121.68,203.165L122.402,204.579L123.125,206.007L123.848,207.318L124.57,208.623L125.293,210.091L126.016,211.489L126.738,212.925L127.461,214.199L128.184,215.603L128.906,216.984L129.629,218.523L130.352,220.194L131.074,221.294L131.797,222.779L132.52,224.156L133.242,225.443L133.965,226.881L134.688,228.204L135.41,229.372L136.133,230.52L136.855,231.852L137.578,233.402L138.301,234.405L139.023,235.561L139.746,236.608L140.469,237.504L141.191,238.826L141.914,239.835L142.637,240.541L143.359,241.49L144.082,242.35L144.805,243.169L145.527,243.712L146.25,244.527L146.973,245.068L147.695,245.465L148.418,246.01L149.141,246.373L149.863,246.792L150.586,246.783L151.309,247.025L152.031,247.066L152.754,247.376L153.477,246.886L154.199,246.746L154.922,246.717L155.645,245.933L156.367,245.598L157.09,245.087L157.813,244.525L158.535,244.114L159.258,243.422L159.98,242.363L160.703,241.497L161.426,240.485L162.148,239.587L162.871,238.547L163.594,237.437L164.316,236.06L165.039,235.1L165.762,233.521L166.484,231.883L167.207,230.546L167.93,229.192L168.652,227.237L169.375,225.58L170.098,223.984L170.82,222.157L171.543,220.265L172.266,218.502L172.988,216.554L173.711,214.39L174.434,212.387L175.156,210.471L175.879,208.388L176.602,206.55L177.324,204.277L178.047,202.292L178.77,200.141L179.492,197.491L180.215,195.367L180.938,193.029L181.66,190.989L182.383,188.592L183.105,186.421L183.828,184.304L184.551,181.856L185.273,179.316L185.996,177.419L186.719,174.889L187.441,172.672L188.164,170.68L188.887,167.951L189.609,165.538L190.332,163.332L191.055,161.15L191.777,158.862L192.5,156.386L193.223,154.273L193.945,151.944L194.668,149.653L195.391,147.438L196.113,145.457L196.836,142.935L197.559,140.995L198.281,138.727L199.004,136.502L199.727,134.481L200.449,132.323L201.172,130.079L201.895,128.287L202.617,126.11L203.34,123.997L204.063,121.947L204.785,119.906L205.508,117.781L206.23,116.064L206.953,114.008L207.676,112.057L208.398,110.316L209.121,108.48L209.844,106.404L210.566,104.456L211.289,102.705L212.012,100.946L212.734,99.145L213.457,97.441L214.18,95.573L214.902,93.936L215.625,92.233L216.348,90.509L217.07,89.027L217.793,87.209L218.516,85.862L219.238,84.154L219.961,82.684L220.684,81.131L221.406,79.578L222.129,78.559L222.852,79.511L223.574,80.568L224.297,81.532L225.02,82.671L225.742,83.64L226.465,84.709L227.188,83.667L227.91,82.703L228.633,81.839L229.355,80.821L230.078,79.765L230.801,78.884L231.523,77.787L232.246,76.901L232.969,75.947L233.691,75.269L234.414,74.135L235.137,73.39L235.859,72.542L236.582,71.587L237.305,70.692L238.027,69.698L238.75,68.876L239.473,68.146L240.195,67.302L240.918,66.394L241.641,65.732L242.363,64.927L243.086,64.105L243.809,63.262L244.531,62.523L245.254,61.83L245.977,61.154L246.699,60.309L247.422,59.656L248.145,58.94L248.867,58.179L249.59,57.52L250.313,56.692L251.035,56.228L251.758,55.634L252.48,54.99L253.203,54.243L253.926,53.812L254.648,53.335L255.371,52.681L256.094,52.229L256.816,51.608L257.539,51.131L258.262,50.478L258.984,50.132L259.707,49.643L260.43,49.142L261.152,48.888L261.875,48.39L262.598,48.08L263.32,47.487L264.043,47.343L264.766,46.879L265.488,46.516L266.211,46.216L266.934,45.863L267.656,45.478L268.379,45.291L269.102,44.989L269.824,44.7L270.547,44.278L271.27,43.995L271.992,43.669L272.715,43.415L273.438,43.093L274.16,42.836L274.883,42.418L275.605,42.096L276.328,41.858L277.051,41.629L277.773,41.258L278.496,41.03L279.219,40.705L279.941,40.388L280.664,40.159L281.387,39.98L282.109,39.61L282.832,39.218L283.555,38.966L284.277,38.795L285,38.411L285.723,38.125L286.445,37.773L287.168,37.542L287.891,37.241L288.613,36.989L289.336,36.746L290.059,36.418L290.781,36.204L291.504,35.894L292.227,35.595L292.949,35.359L293.672,35.195L294.395,34.826L295.117,34.503L295.84,34.349L296.563,34.002L297.285,33.926L298.008,33.548L298.73,33.414L299.453,32.993L300.176,32.764L300.898,32.65L301.621,32.436L302.344,32.173L303.066,31.964L303.789,31.894L304.512,31.489L305.234,31.28L305.957,31.042L306.68,30.954L307.402,30.682L308.125,30.462L308.848,30.309L309.57,30.158L310.293,29.951L311.016,29.715L311.738,29.631L312.461,29.372L313.184,29.267L313.906,29.067L314.629,28.972L315.352,28.81L316.074,28.525L316.797,28.432L317.52,28.203L318.242,27.957L318.965,27.865L319.688,27.606L320.41,27.467L321.133,27.317L321.855,27.169L322.578,27.263L323.301,27.094L324.023,26.973L324.746,26.655L325.469,26.612L326.191,26.502L326.914,26.268L327.637,26.12L328.359,26.113L329.082,26.094L329.805,25.835L330.527,25.766L331.25,25.726L331.973,25.64L332.695,25.378L333.418,25.388L334.141,25.205L334.863,25.229L335.586,25.091L336.309,24.877L337.031,24.805L337.754,24.692L338.477,24.611L339.199,24.512L339.922,24.51L340.645,24.465L341.367,24.311L342.09,24.3L342.813,24.165L343.535,23.973L344.258,23.7L344.98,23.818L345.703,24.035L346.426,23.746L347.148,23.714L347.871,23.601L348.594,23.458L349.316,23.908L350.039,23.363L350.762,23.592L351.484,23.378L352.207,22.846L352.93,23.365L353.652,22.81L354.375,23.376L355.098,22.807L355.82,22.652L356.543,23.031L357.266,22.758L357.988,22.762L358.711,22.453L359.434,22.513L360.156,22.69L360.879,22.466L361.602,22.456L362.324,22.584L363.047,22.335L363.77,22.032L364.492,22.149L365.215,22.119L365.938,21.847L366.66,22.028L367.383,22.17L368.105,21.728L368.828,22.062L369.551,21.631L370.273,22.148L370.996,21.485L371.719,21.718L372.441,21.924L373.164,21.539L373.887,21.722L374.609,20.851L375.332,21.553L376.055,21.256L376.777,21.832L377.5,21.181L378.223,21.523L378.945,21.549L379.668,22.372L380.391,21.443L381.113,21.497L381.836,21.365L382.559,21.426L383.281,21.151L384.004,21.277L384.727,21.624L385.449,20.744L386.172,21.419L386.895,21.13L387.617,20.634L388.34,21.23L389.063,21.463L389.785,21.384L390.508,20.051L391.23,21.423L391.953,21.677L392.676,21.03L393.398,20.991L394.121,21.15L394.844,21.436L395.566,21.474L396.289,20.62L397.012,21.232L397.734,21.396L398.457,21.02L399.18,20.44L399.902,21L400.625,21.041L401.348,20.789L402.07,21.922L402.793,21.315L403.516,22.352L404.238,22.399L404.961,23.198L405.684,22.045L406.406,21.199L407.129,21.216L407.852,22.774L408.574,22.245L409.297,21.055L410.02,22.608L410.742,21.234L411.465,22.828L412.188,22.445L412.91,21.912L413.633,22.357L414.355,22.679L415.078,24.412L415.801,23.458L416.523,23.482L417.246,23.861L417.969,22.986L418.691,24.671L419.414,24.011L420.137,23.061L420.859,24.886L421.582,23.667L422.305,24.016L423.027,25.214L423.75,24.055L424.473,24.414L425.195,24.252L425.918,24.821L426.641,24.822L427.363,24.219L428.086,24.556L428.809,23.788L429.531,25.138L430.254,24.163L430.977,24.116L431.699,23.803L432.422,23.701L433.145,23.468L433.867,22.804L434.59,23.234L435.313,23.438L436.035,24.099L436.758,23.062L437.48,22.999L438.203,23.106L438.926,22.933L439.648,22.755L440.371,22.75L441.094,22.545L441.816,22.2L442.539,22.042L443.262,21.743L443.984,21.847L444.707,22.238L445.43,21.189L446.152,21.33L446.875,21.7L447.598,21.478L448.32,21.154L449.043,21.529L449.766,21.108L450.488,21.111L451.211,20.982L451.934,20.854L452.656,20.591L453.379,20.976L454.102,20.763L454.824,20.589L455.547,20.52L456.27,20.602L456.992,20.651L457.715,20.441L458.438,20.597L459.16,20.462L459.883,20.516L460.605,20.409L461.328,20.304L462.051,20.399L462.773,20.234L463.496,20.388L464.219,20.398L464.941,20.418L465.664,20.223L466.387,20.194L467.109,20.189L467.832,20.156L468.555,20.157L469.277,20.134"/><path fill="none" stroke="rgb(63, 243, 147)" stroke-width="1.5" d="M100,167.69L100.723,167.882L101.445,168.76L102.168,169.522L102.891,170.2L103.613,170.967L104.336,171.49L105.059,172.38L105.781,172.936L106.504,173.722L107.227,174.597L107.949,175.365L108.672,175.945L109.395,176.936L110.117,177.724L110.84,178.634L111.563,179.455L112.285,180.287L113.008,181.313L113.73,182.091L114.453,182.926L115.176,183.813L115.898,184.628L116.621,185.669L117.344,186.554L118.066,187.613L118.789,188.678L119.512,189.266L120.234,190.462L120.957,191.524L121.68,192.312L122.402,193.277L123.125,194.071L123.848,195.103L124.57,196.12L125.293,197.073L126.016,198.051L126.738,199.027L127.461,199.869L128.184,200.695L128.906,201.682L129.629,202.545L130.352,203.578L131.074,204.216L131.797,205.249L132.52,205.781L133.242,206.653L133.965,207.253L134.688,207.997L135.41,208.666L136.133,209.277L136.855,209.916L137.578,210.638L138.301,210.77L139.023,211.272L139.746,211.805L140.469,212.031L141.191,212.378L141.914,212.697L142.637,212.891L143.359,213.251L144.082,213.096L144.805,213.067L145.527,213.279L146.25,213.094L146.973,212.893L147.695,212.677L148.418,212.608L149.141,212.165L149.863,211.748L150.586,211.185L151.309,210.525L152.031,210.227L152.754,209.534L153.477,208.777L154.199,208.01L154.922,207.186L155.645,206.397L156.367,205.483L157.09,204.317L157.813,203.292L158.535,202.099L159.258,200.908L159.98,199.633L160.703,198.516L161.426,196.972L162.148,195.756L162.871,194.361L163.594,192.489L164.316,191.147L165.039,189.699L165.762,188.059L166.484,186.396L167.207,184.598L167.93,182.839L168.652,181.329L169.375,179.352L170.098,177.501L170.82,175.56L171.543,173.623L172.266,171.736L172.988,169.88L173.711,167.999L174.434,166.321L175.156,164.189L175.879,162.129L176.602,160.19L177.324,158.196L178.047,156.419L178.77,154.314L179.492,152.181L180.215,150.131L180.938,148.28L181.66,146.201L182.383,144.141L183.105,142.086L183.828,140.033L184.551,138.069L185.273,136.224L185.996,133.988L186.719,132.234L187.441,130.141L188.164,128.103L188.887,126.34L189.609,124.226L190.332,122.378L191.055,120.234L191.777,118.486L192.5,116.716L193.223,114.697L193.945,112.681L194.668,111.043L195.391,109.132L196.113,107.251L196.836,105.398L197.559,103.765L198.281,101.963L199.004,100.25L199.727,98.444L200.449,96.717L201.172,94.961L201.895,93.313L202.617,91.691L203.34,89.988L204.063,88.544L204.785,86.826L205.508,85.25L206.23,83.744L206.953,82.122L207.676,80.655L208.398,79.232L209.121,77.678L209.844,76.158L210.566,74.772L211.289,73.348L212.012,72.065L212.734,70.577L213.457,69.165L214.18,67.998L214.902,66.51L215.625,65.305L216.348,64.4L217.07,65.735L217.793,66.945L218.516,68.123L219.238,69.387L219.961,70.597L220.684,71.873L221.406,70.962L222.129,70.24L222.852,69.463L223.574,68.779L224.297,67.796L225.02,67.109L225.742,66.32L226.465,65.644L227.188,64.909L227.91,64.225L228.633,63.392L229.355,62.777L230.078,62.022L230.801,61.262L231.523,60.647L232.246,59.884L232.969,59.366L233.691,58.676L234.414,57.782L235.137,57.305L235.859,56.554L236.582,55.991L237.305,55.298L238.027,54.767L238.75,54.191L239.473,53.487L240.195,52.915L240.918,52.43L241.641,51.927L242.363,51.238L243.086,50.796L243.809,50.181L244.531,49.744L245.254,49.269L245.977,48.726L246.699,48.331L247.422,47.802L248.145,47.486L248.867,47.048L249.59,46.569L250.313,46.188L251.035,45.603L251.758,45.307L252.48,44.86L253.203,44.628L253.926,44.129L254.648,43.936L255.371,43.59L256.094,43.303L256.816,42.951L257.539,42.584L258.262,42.478L258.984,42.079L259.707,41.829L260.43,41.594L261.152,41.342L261.875,41.115L262.598,40.883L263.32,40.607L264.043,40.458L264.766,40.067L265.488,39.929L266.211,39.756L266.934,39.499L267.656,39.336L268.379,39.138L269.102,38.922L269.824,38.782L270.547,38.681L271.27,38.455L271.992,38.173L272.715,37.957L273.438,37.801L274.16,37.582L274.883,37.381L275.605,37.235L276.328,36.948L277.051,36.692L277.773,36.583L278.496,36.442L279.219,36.149L279.941,36.002L280.664,35.741L281.387,35.641L282.109,35.402L282.832,35.139L283.555,34.903L284.277,34.733L285,34.521L285.723,34.267L286.445,34.058L287.168,33.808L287.891,33.556L288.613,33.418L289.336,33.306L290.059,33.022L290.781,32.782L291.504,32.63L292.227,32.393L292.949,32.193L293.672,31.915L294.395,31.716L295.117,31.609L295.84,31.333L296.563,31.114L297.285,31.006L298.008,30.87L298.73,30.718L299.453,30.396L300.176,30.373L300.898,30.114L301.621,29.892L302.344,29.737L303.066,29.535L303.789,29.413L304.512,29.26L305.234,29.022L305.957,28.951L306.68,28.752L307.402,28.603L308.125,28.465L308.848,28.277L309.57,28.291L310.293,28.106L311.016,27.889L311.738,27.748L312.461,27.601L313.184,27.485L313.906,27.314L314.629,27.256L315.352,27.066L316.074,26.978L316.797,26.812L317.52,26.726L318.242,26.532L318.965,26.487L319.688,26.533L320.41,26.214L321.133,26.031L321.855,26.016L322.578,25.813L323.301,25.694L324.023,25.618L324.746,25.543L325.469,25.422L326.191,25.303L326.914,25.113L327.637,25.207L328.359,25L329.082,24.993L329.805,24.807L330.527,24.696L331.25,24.879L331.973,24.622L332.695,24.631L333.418,24.192L334.141,24.317L334.863,24.269L335.586,24.133L336.309,24.239L337.031,23.956L337.754,23.994L338.477,23.921L339.199,23.848L339.922,23.748L340.645,23.603L341.367,23.572L342.09,23.592L342.813,23.395L343.535,23.536L344.258,23.37L344.98,23.232L345.703,23.201L346.426,23.124L347.148,23.143L347.871,23.064L348.594,22.875L349.316,22.938L350.039,22.751L350.762,22.703L351.484,22.669L352.207,22.567L352.93,22.525L353.652,22.706L354.375,22.335L355.098,22.557L355.82,22.631L356.543,22.81L357.266,22.521L357.988,22.014L358.711,22.221L359.434,22.147L360.156,22.196L360.879,21.668L361.602,22.4L362.324,22.003L363.047,22.133L363.77,21.98L364.492,22.14L365.215,22.201L365.938,21.577L366.66,21.844L367.383,22.067L368.105,21.857L368.828,21.839L369.551,21.833L370.273,21.093L370.996,21.935L371.719,21.421L372.441,21.668L373.164,21.054L373.887,21.444L374.609,22.115L375.332,21.285L376.055,21.231L376.777,21.313L377.5,21.608L378.223,21.618L378.945,21.102L379.668,20.439L380.391,21.282L381.113,21.286L381.836,21.069L382.559,21.48L383.281,21.387L384.004,21.145L384.727,20.458L385.449,21.541L386.172,20.317L386.895,20.946L387.617,21.103L388.34,20.393L389.063,21.115L389.785,21.198L390.508,20.798L391.23,20.903L391.953,21.137L392.676,20.726L393.398,20.413L394.121,21.003L394.844,20.341L395.566,20.463L396.289,20.572L397.012,21.505L397.734,21.412L398.457,21.13L399.18,20.093L399.902,20.741L400.625,20.842L401.348,20.053L402.07,20.275L402.793,20.913L403.516,21.74L404.238,21.106L404.961,21.232L405.684,20.733L406.406,21.37L407.129,20.721L407.852,20.487L408.574,20.902L409.297,20.301L410.02,21.797L410.742,20.124L411.465,21.557L412.188,21.714L412.91,21.396L413.633,21.527L414.355,21.55L415.078,22.086L415.801,20.176L416.523,21.672L417.246,22.341L417.969,20.581L418.691,20.764L419.414,21.302L420.137,21.535L420.859,21.41L421.582,20.395L422.305,23.42L423.027,22.378L423.75,22.595L424.473,20.912L425.195,21.417L425.918,21.326L426.641,20.908L427.363,21.188L428.086,20.924L428.809,21.505L429.531,22.248L430.254,21.512L430.977,21.525L431.699,21.183L432.422,21.202L433.145,20.449L433.867,21.809L434.59,21.154L435.313,20.863L436.035,21.299L436.758,21.056L437.48,21.621L438.203,20.873L438.926,20.669L439.648,21.095L440.371,21.141L441.094,20.707L441.816,20.211L442.539,20.659L443.262,20.745L443.984,20.948L444.707,20.698L445.43,20.68L446.152,21.009L446.875,20.57L447.598,20.272L448.32,20.29L449.043,20.845L449.766,20.507L450.488,20.37L451.211,20.455L451.934,20.347L452.656,20.284L453.379,20.329L454.102,20.175L454.824,20.205L455.547,20.22L456.27,20.346L456.992,20.328L457.715,20.11L458.438,20.058L459.16,20.004L459.883,20.263L460.605,20.137L461.328,20.087L462.051,20.162L462.773,20.184L463.496,20.163L464.219,20.134L464.941,20.125L465.664,20.124L466.387,20.125L467.109,20.062L467.832,20.138L468.555,20.035L469.277,20.018"/><path fill="none" stroke="rgb(149, 251, 81)" stroke-width="1.5" d="M100,164.045L100.723,164.764L101.445,165.263L102.168,165.808L102.891,166.336L103.613,167.02L104.336,167.621L105.059,168.151L105.781,168.904L106.504,169.461L107.227,170.223L107.949,171.023L108.672,171.582L109.395,172.164L110.117,172.93L110.84,173.705L111.563,174.245L112.285,174.859L113.008,175.544L113.73,176.2L114.453,176.937L115.176,177.683L115.898,178.376L116.621,178.992L117.344,179.663L118.066,180.215L118.789,180.839L119.512,181.467L120.234,182.027L120.957,182.656L121.68,183.165L122.402,183.705L123.125,184.299L123.848,184.767L124.57,185.519L125.293,185.693L126.016,186.235L126.738,186.594L127.461,187.163L128.184,187.46L128.906,187.758L129.629,187.934L130.352,188.133L131.074,188.459L131.797,188.627L132.52,188.626L133.242,188.768L133.965,188.625L134.688,188.832L135.41,188.858L136.133,188.561L136.855,188.385L137.578,188.264L138.301,188.02L139.023,187.624L139.746,187.42L140.469,186.951L141.191,186.486L141.914,185.985L142.637,185.326L143.359,184.681L144.082,184.056L144.805,183.546L145.527,182.536L146.25,181.585L146.973,180.783L147.695,180.084L148.418,179.147L149.141,177.842L149.863,176.684L150.586,175.615L151.309,174.332L152.031,173.15L152.754,172.129L153.477,170.718L154.199,169.266L154.922,167.889L155.645,166.516L156.367,165.169L157.09,163.498L157.813,162.036L158.535,160.563L159.258,158.964L159.98,157.089L160.703,155.717L161.426,154.007L162.148,152.453L162.871,150.909L163.594,148.913L164.316,147.321L165.039,145.49L165.762,143.875L166.484,142.124L167.207,140.197L167.93,138.549L168.652,136.757L169.375,134.759L170.098,132.985L170.82,131.362L171.543,129.585L172.266,127.672L172.988,125.728L173.711,124.153L174.434,122.248L175.156,120.438L175.879,118.762L176.602,116.878L177.324,115.01L178.047,113.26L178.77,111.741L179.492,109.682L180.215,108.049L180.938,106.34L181.66,104.686L182.383,103.063L183.105,101.165L183.828,99.539L184.551,97.918L185.273,96.217L185.996,94.453L186.719,92.928L187.441,91.355L188.164,89.671L188.887,88.199L189.609,86.587L190.332,84.922L191.055,83.34L191.777,81.914L192.5,80.541L193.223,79.109L193.945,77.508L194.668,75.998L195.391,74.74L196.113,73.286L196.836,71.835L197.559,70.466L198.281,69.253L199.004,67.944L199.727,66.437L200.449,65.281L201.172,63.929L201.895,62.742L202.617,61.331L203.34,60.145L204.063,59.019L204.785,57.781L205.508,56.78L206.23,55.358L206.953,54.278L207.676,55.006L208.398,56.304L209.121,57.721L209.844,58.898L210.566,60.546L211.289,61.876L212.012,62.236L212.734,61.577L213.457,60.976L214.18,60.345L214.902,59.836L215.625,59.116L216.348,58.45L217.07,57.758L217.793,57.319L218.516,56.588L219.238,56.136L219.961,55.515L220.684,54.951L221.406,54.337L222.129,53.764L222.852,53.372L223.574,52.627L224.297,52.177L225.02,51.678L225.742,50.969L226.465,50.53L227.188,50.081L227.91,49.555L228.633,49.021L229.355,48.547L230.078,48.117L230.801,47.602L231.523,47.252L232.246,46.776L232.969,46.407L233.691,45.97L234.414,45.478L235.137,45.298L235.859,44.757L236.582,44.226L237.305,43.823L238.027,43.542L238.75,43.163L239.473,42.864L240.195,42.594L240.918,42.203L241.641,41.818L242.363,41.453L243.086,41.249L243.809,40.817L244.531,40.627L245.254,40.335L245.977,40.067L246.699,39.693L247.422,39.485L248.145,39.253L248.867,38.959L249.59,38.684L250.313,38.474L251.035,38.186L251.758,37.861L252.48,37.738L253.203,37.411L253.926,37.288L254.648,37.099L255.371,36.955L256.094,36.727L256.816,36.443L257.539,36.272L258.262,36.089L258.984,35.836L259.707,35.674L260.43,35.421L261.152,35.314L261.875,35.158L262.598,34.91L263.32,34.888L264.043,34.743L264.766,34.575L265.488,34.307L266.211,34.283L266.934,34.071L267.656,33.888L268.379,33.808L269.102,33.672L269.824,33.574L270.547,33.317L271.27,33.338L271.992,33.213L272.715,33.002L273.438,32.906L274.16,32.723L274.883,32.666L275.605,32.549L276.328,32.419L277.051,32.223L277.773,32.15L278.496,32.027L279.219,31.989L279.941,31.776L280.664,31.643L281.387,31.493L282.109,31.307L282.832,31.118L283.555,31.037L284.277,30.881L285,30.748L285.723,30.636L286.445,30.52L287.168,30.375L287.891,30.176L288.613,30.043L289.336,29.888L290.059,29.729L290.781,29.6L291.504,29.43L292.227,29.296L292.949,29.177L293.672,28.953L294.395,28.889L295.117,28.693L295.84,28.566L296.563,28.469L297.285,28.322L298.008,28.158L298.73,27.996L299.453,27.923L300.176,27.774L300.898,27.593L301.621,27.472L302.344,27.37L303.066,27.254L303.789,27.039L304.512,27.025L305.234,26.909L305.957,26.719L306.68,26.648L307.402,26.48L308.125,26.387L308.848,26.217L309.57,26.119L310.293,25.974L311.016,25.869L311.738,25.845L312.461,25.735L313.184,25.617L313.906,25.537L314.629,25.41L315.352,25.257L316.074,25.188L316.797,25.099L317.52,24.971L318.242,24.89L318.965,24.823L319.688,24.721L320.41,24.625L321.133,24.577L321.855,24.464L322.578,24.393L323.301,24.307L324.023,24.167L324.746,24.097L325.469,24.07L326.191,24.009L326.914,23.945L327.637,23.849L328.359,23.813L329.082,23.692L329.805,23.691L330.527,23.593L331.25,23.472L331.973,23.445L332.695,23.391L333.418,23.332L334.141,23.29L334.863,23.22L335.586,23.191L336.309,23.045L337.031,23.028L337.754,22.996L338.477,22.925L339.199,22.799L339.922,22.801L340.645,22.819L341.367,22.764L342.09,22.668L342.813,22.636L343.535,22.603L344.258,22.563L344.98,22.564L345.703,22.468L346.426,22.449L347.148,22.34L347.871,22.309L348.594,22.293L349.316,22.238L350.039,22.205L350.762,22.19L351.484,22.131L352.207,22.121L352.93,22.068L353.652,22.047L354.375,21.984L355.098,21.988L355.82,22L356.543,21.948L357.266,21.891L357.988,21.822L358.711,21.825L359.434,21.846L360.156,21.779L360.879,21.743L361.602,21.711L362.324,21.714L363.047,21.664L363.77,21.697L364.492,21.639L365.215,21.551L365.938,21.571L366.66,21.519L367.383,21.549L368.105,21.508L368.828,21.442L369.551,21.388L370.273,21.424L370.996,21.402L371.719,21.369L372.441,21.341L373.164,21.344L373.887,21.309L374.609,21.29L375.332,21.248L376.055,21.238L376.777,21.232L377.5,21.252L378.223,21.183L378.945,21.177L379.668,21.154L380.391,21.136L381.113,21.125L381.836,21.075L382.559,21.085L383.281,20.988L384.004,20.999L384.727,21.029L385.449,20.966L386.172,20.96L386.895,20.89L387.617,20.966L388.34,20.875L389.063,20.819L389.785,20.858L390.508,20.865L391.23,20.829L391.953,20.756L392.676,20.775L393.398,20.75L394.121,20.755L394.844,20.753L395.566,20.72L396.289,20.679L397.012,20.657L397.734,20.618L398.457,20.678L399.18,20.614L399.902,20.58L400.625,20.582L401.348,20.575L402.07,20.579L402.793,20.524L403.516,20.518L404.238,20.534L404.961,20.456L405.684,20.472L406.406,20.451L407.129,20.45L407.852,20.443L408.574,20.419L409.297,20.461L410.02,20.414L410.742,20.358L411.465,20.357L412.188,20.366L412.91,20.345L413.633,20.308L414.355,20.31L415.078,20.287L415.801,20.302L416.523,20.287L417.246,20.258L417.969,20.269L418.691,20.251L419.414,20.251L420.137,20.245L420.859,20.241L421.582,20.239L422.305,20.205L423.027,20.181L423.75,20.177L424.473,20.205L425.195,20.176L425.918,20.168L426.641,20.177L427.363,20.19L428.086,20.14L428.809,20.129L429.531,20.128L430.254,20.142L430.977,20.15L431.699,20.127L432.422,20.136L433.145,20.129L433.867,20.12L434.59,20.122L435.313,20.097L436.035,20.101L436.758,20.081L437.48,20.08L438.203,20.092L438.926,20.085L439.648,20.077L440.371,20.072L441.094,20.075L441.816,20.06L442.539,20.056L443.262,20.075L443.984,20.078L444.707,20.043L445.43,20.05L446.152,20.066L446.875,20.048L447.598,20.039L448.32,20.044L449.043,20.051L449.766,20.044L450.488,20.039L451.211,20.029L451.934,20.041L452.656,20.031L453.379,20.037L454.102,20.037L454.824,20.016L455.547,20.026L456.27,20.013L456.992,20.025L457.715,20.027L458.438,20.023L459.16,20.016L459.883,20.02L460.605,20.013L461.328,20.013L462.051,20.011L462.773,20.018L463.496,20.015L464.219,20.015L464.941,20.006L465.664,20.011L466.387,20.011L467.109,20.008L467.832,20L468.555,20.007L469.277,20.003"/><path fill="none" stroke="rgb(236, 209, 46)" stroke-width="1.5" d="M100,164.331L100.723,164.85L101.445,165.301L102.168,165.796L102.891,166.138L103.613,166.764L104.336,167.131L105.059,167.556L105.781,168.061L106.504,168.604L107.227,168.843L107.949,169.153L108.672,169.532L109.395,169.978L110.117,170.186L110.84,170.65L111.563,170.818L112.285,171.124L113.008,171.356L113.73,171.678L114.453,171.884L115.176,172.006L115.898,172.141L116.621,172.03L117.344,172.265L118.066,172.357L118.789,172.21L119.512,172.26L120.234,172.006L120.957,171.872L121.68,171.899L122.402,171.634L123.125,171.514L123.848,171.17L124.57,170.641L125.293,170.227L126.016,170.036L126.738,169.283L127.461,168.892L128.184,168.392L128.906,167.69L129.629,167.031L130.352,166.332L131.074,165.63L131.797,164.928L132.52,163.97L133.242,162.933L133.965,161.969L134.688,161.266L135.41,160.12L136.133,159.214L136.855,158.153L137.578,156.986L138.301,155.557L139.023,154.442L139.746,153.246L140.469,152.057L141.191,150.555L141.914,149.294L142.637,147.985L143.359,146.398L144.082,145.065L144.805,143.598L145.527,142.048L146.25,140.591L146.973,139.066L147.695,137.565L148.418,136.105L149.141,134.508L149.863,132.963L150.586,131.306L151.309,129.642L152.031,127.995L152.754,126.364L153.477,124.764L154.199,123.182L154.922,121.469L155.645,119.835L156.367,118.152L157.09,116.611L157.813,114.749L158.535,113.089L159.258,111.676L159.98,109.836L160.703,108.133L161.426,106.568L162.148,104.934L162.871,103.275L163.594,101.604L164.316,99.98L165.039,98.513L165.762,96.8L166.484,95.243L167.207,93.662L167.93,92.117L168.652,90.523L169.375,89.035L170.098,87.572L170.82,85.954L171.543,84.516L172.266,82.98L172.988,81.583L173.711,80.038L174.434,78.528L175.156,77.215L175.879,75.81L176.602,74.368L177.324,72.903L178.047,71.588L178.77,70.411L179.492,68.817L180.215,67.552L180.938,66.316L181.66,65.057L182.383,63.725L183.105,62.66L183.828,61.502L184.551,59.883L185.273,58.879L185.996,57.672L186.719,56.601L187.441,55.37L188.164,54.386L188.887,53.163L189.609,52.052L190.332,50.947L191.055,49.88L191.777,48.769L192.5,47.856L193.223,48.871L193.945,50.269L194.668,51.751L195.391,53.521L196.113,54.811L196.836,56.359L197.559,56.47L198.281,56.051L199.004,55.428L199.727,55.044L200.449,54.452L201.172,53.913L201.895,53.34L202.617,52.809L203.34,52.253L204.063,51.905L204.785,51.491L205.508,50.912L206.23,50.532L206.953,49.903L207.676,49.475L208.398,48.98L209.121,48.477L209.844,48.039L210.566,47.662L211.289,47.124L212.012,46.744L212.734,46.395L213.457,45.882L214.18,45.479L214.902,45.051L215.625,44.612L216.348,44.229L217.07,43.903L217.793,43.58L218.516,43.187L219.238,42.646L219.961,42.336L220.684,42.019L221.406,41.818L222.129,41.252L222.852,40.986L223.574,40.642L224.297,40.327L225.02,39.984L225.742,39.563L226.465,39.37L227.188,39.121L227.91,38.697L228.633,38.478L229.355,38.054L230.078,37.997L230.801,37.675L231.523,37.38L232.246,37.193L232.969,36.899L233.691,36.618L234.414,36.351L235.137,36.134L235.859,35.897L236.582,35.694L237.305,35.479L238.027,35.197L238.75,34.993L239.473,34.833L240.195,34.59L240.918,34.406L241.641,34.137L242.363,33.959L243.086,33.804L243.809,33.613L244.531,33.499L245.254,33.26L245.977,33.05L246.699,32.87L247.422,32.722L248.145,32.502L248.867,32.305L249.59,32.182L250.313,32.046L251.035,31.894L251.758,31.718L252.48,31.541L253.203,31.387L253.926,31.24L254.648,31.061L255.371,30.993L256.094,30.738L256.816,30.613L257.539,30.567L258.262,30.42L258.984,30.276L259.707,30.178L260.43,30.087L261.152,29.993L261.875,29.785L262.598,29.665L263.32,29.556L264.043,29.538L264.766,29.361L265.488,29.356L266.211,29.289L266.934,29.241L267.656,29.126L268.379,29.045L269.102,29.025L269.824,28.847L270.547,28.818L271.27,28.719L271.992,28.635L272.715,28.622L273.438,28.574L274.16,28.476L274.883,28.386L275.605,28.348L276.328,28.292L277.051,28.215L277.773,28.19L278.496,28.065L279.219,28.032L279.941,27.952L280.664,27.887L281.387,27.771L282.109,27.73L282.832,27.62L283.555,27.586L284.277,27.483L285,27.4L285.723,27.329L286.445,27.213L287.168,27.131L287.891,27.019L288.613,26.944L289.336,26.838L290.059,26.764L290.781,26.693L291.504,26.552L292.227,26.434L292.949,26.349L293.672,26.261L294.395,26.209L295.117,26.043L295.84,25.947L296.563,25.838L297.285,25.767L298.008,25.673L298.73,25.554L299.453,25.436L300.176,25.362L300.898,25.284L301.621,25.189L302.344,25.078L303.066,24.979L303.789,24.888L304.512,24.845L305.234,24.71L305.957,24.644L306.68,24.523L307.402,24.468L308.125,24.396L308.848,24.299L309.57,24.217L310.293,24.095L311.016,24.086L311.738,23.97L312.461,23.901L313.184,23.826L313.906,23.754L314.629,23.686L315.352,23.569L316.074,23.546L316.797,23.478L317.52,23.409L318.242,23.361L318.965,23.295L319.688,23.214L320.41,23.165L321.133,23.121L321.855,23.029L322.578,22.959L323.301,22.938L324.023,22.858L324.746,22.828L325.469,22.76L326.191,22.707L326.914,22.652L327.637,22.63L328.359,22.59L329.082,22.549L329.805,22.463L330.527,22.4L331.25,22.387L331.973,22.333L332.695,22.266L333.418,22.263L334.141,22.206L334.863,22.144L335.586,22.132L336.309,22.112L337.031,22.053L337.754,22.042L338.477,22.003L339.199,21.936L339.922,21.938L340.645,21.912L341.367,21.899L342.09,21.843L342.813,21.804L343.535,21.797L344.258,21.736L344.98,21.733L345.703,21.684L346.426,21.663L347.148,21.645L347.871,21.61L348.594,21.598L349.316,21.557L350.039,21.565L350.762,21.547L351.484,21.507L352.207,21.484L352.93,21.44L353.652,21.468L354.375,21.387L355.098,21.395L355.82,21.374L356.543,21.357L357.266,21.346L357.988,21.339L358.711,21.328L359.434,21.282L360.156,21.283L360.879,21.248L361.602,21.247L362.324,21.242L363.047,21.238L363.77,21.211L364.492,21.167L365.215,21.165L365.938,21.183L366.66,21.155L367.383,21.121L368.105,21.108L368.828,21.092L369.551,21.102L370.273,21.057L370.996,21.074L371.719,21.033L372.441,21.044L373.164,21.013L373.887,21.013L374.609,20.98L375.332,20.994L376.055,20.993L376.777,20.991L377.5,20.944L378.223,20.947L378.945,20.906L379.668,20.906L380.391,20.896L381.113,20.891L381.836,20.885L382.559,20.877L383.281,20.853L384.004,20.816L384.727,20.82L385.449,20.802L386.172,20.805L386.895,20.786L387.617,20.759L388.34,20.763L389.063,20.741L389.785,20.745L390.508,20.699L391.23,20.693L391.953,20.691L392.676,20.666L393.398,20.669L394.121,20.661L394.844,20.651L395.566,20.637L396.289,20.593L397.012,20.593L397.734,20.573L398.457,20.572L399.18,20.555L399.902,20.526L400.625,20.536L401.348,20.513L402.07,20.483L402.793,20.487L403.516,20.472L404.238,20.457L404.961,20.443L405.684,20.454L406.406,20.413L407.129,20.421L407.852,20.396L408.574,20.393L409.297,20.371L410.02,20.375L410.742,20.349L411.465,20.34L412.188,20.34L412.91,20.309L413.633,20.313L414.355,20.299L415.078,20.301L415.801,20.282L416.523,20.274L417.246,20.272L417.969,20.259L418.691,20.251L419.414,20.231L420.137,20.228L420.859,20.22L421.582,20.21L422.305,20.211L423.027,20.183L423.75,20.191L424.473,20.189L425.195,20.188L425.918,20.18L426.641,20.159L427.363,20.155L428.086,20.139L428.809,20.142L429.531,20.143L430.254,20.14L430.977,20.129L431.699,20.126L432.422,20.116L433.145,20.115L433.867,20.11L434.59,20.108L435.313,20.101L436.035,20.102L436.758,20.096L437.48,20.086L438.203,20.086L438.926,20.081L439.648,20.079L440.371,20.074L441.094,20.069L441.816,20.073L442.539,20.068L443.262,20.064L443.984,20.061L444.707,20.06L445.43,20.052L446.152,20.049L446.875,20.049L447.598,20.041L448.32,20.044L449.043,20.042L449.766,20.037L450.488,20.038L451.211,20.038L451.934,20.036L452.656,20.031L453.379,20.031L454.102,20.029L454.824,20.026L455.547,20.026L456.27,20.027L456.992,20.021L457.715,20.02L458.438,20.019L459.16,20.022L459.883,20.019L460.605,20.014L461.328,20.018L462.051,20.014L462.773,20.011L463.496,20.014L464.219,20.012L464.941,20.013L465.664,20.008L466.387,20.007L467.109,20.007L467.832,20.005L468.555,20.007L469.277,20.003"/><path fill="none" stroke="rgb(255, 130, 29)" stroke-width="1.5" d="M100,158.854L100.723,158.286L101.445,157.757L102.168,157.078L102.891,156.573L103.613,155.805L104.336,155.109L105.059,154.499L105.781,153.548L106.504,152.69L107.227,151.969L107.949,150.953L108.672,149.982L109.395,149.057L110.117,147.926L110.84,147.165L111.563,145.817L112.285,144.68L113.008,143.7L113.73,142.522L114.453,141.446L115.176,139.951L115.898,138.671L116.621,137.359L117.344,135.959L118.066,134.786L118.789,133.265L119.512,131.937L120.234,130.603L120.957,129.048L121.68,127.538L122.402,126.294L123.125,124.741L123.848,123.322L124.57,121.758L125.293,120.356L126.016,118.834L126.738,117.177L127.461,115.692L128.184,113.953L128.906,112.488L129.629,110.944L130.352,109.572L131.074,107.913L131.797,106.272L132.52,104.799L133.242,103.468L133.965,101.638L134.688,100.22L135.41,98.752L136.133,97.135L136.855,95.65L137.578,94.032L138.301,92.679L139.023,91.149L139.746,89.482L140.469,88.232L141.191,86.658L141.914,85.275L142.637,83.83L143.359,82.267L144.082,80.954L144.805,79.582L145.527,78.042L146.25,76.82L146.973,75.302L147.695,74.054L148.418,72.614L149.141,71.108L149.863,70.038L150.586,68.743L151.309,67.39L152.031,65.99L152.754,64.76L153.477,63.681L154.199,62.378L154.922,61.034L155.645,60.09L156.367,58.806L157.09,57.719L157.813,56.447L158.535,55.43L159.258,54.336L159.98,53.262L160.703,52.101L161.426,50.994L162.148,50.013L162.871,48.923L163.594,47.899L164.316,46.853L165.039,46.006L165.762,45.084L166.484,46.431L167.207,47.951L167.93,49.457L168.652,51.093L169.375,52.456L170.098,54.096L170.82,54.09L171.543,53.643L172.266,53.101L172.988,52.659L173.711,52.157L174.434,51.733L175.156,51.071L175.879,50.575L176.602,50.277L177.324,49.772L178.047,49.284L178.77,48.864L179.492,48.336L180.215,47.966L180.938,47.434L181.66,47.115L182.383,46.554L183.105,46.112L183.828,45.764L184.551,45.364L185.273,44.911L185.996,44.635L186.719,44.109L187.441,43.718L188.164,43.282L188.887,42.938L189.609,42.628L190.332,42.21L191.055,41.801L191.777,41.404L192.5,41.096L193.223,40.715L193.945,40.421L194.668,40.041L195.391,39.711L196.113,39.434L196.836,38.95L197.559,38.765L198.281,38.366L199.004,38.089L199.727,37.795L200.449,37.456L201.172,37.182L201.895,36.992L202.617,36.582L203.34,36.36L204.063,36.003L204.785,35.874L205.508,35.508L206.23,35.181L206.953,35.002L207.676,34.809L208.398,34.525L209.121,34.27L209.844,34.077L210.566,33.875L211.289,33.552L212.012,33.335L212.734,33.106L213.457,32.807L214.18,32.687L214.902,32.508L215.625,32.321L216.348,32.036L217.07,31.936L217.793,31.676L218.516,31.501L219.238,31.255L219.961,31.141L220.684,30.959L221.406,30.683L222.129,30.58L222.852,30.426L223.574,30.247L224.297,30.044L225.02,29.856L225.742,29.725L226.465,29.531L227.188,29.409L227.91,29.306L228.633,29.123L229.355,29.042L230.078,28.854L230.801,28.685L231.523,28.643L232.246,28.475L232.969,28.265L233.691,28.169L234.414,28.035L235.137,28.056L235.859,27.812L236.582,27.691L237.305,27.655L238.027,27.488L238.75,27.372L239.473,27.265L240.195,27.16L240.918,27.088L241.641,26.964L242.363,26.911L243.086,26.775L243.809,26.655L244.531,26.669L245.254,26.49L245.977,26.425L246.699,26.386L247.422,26.333L248.145,26.21L248.867,26.106L249.59,26.072L250.313,26.037L251.035,25.923L251.758,25.894L252.48,25.812L253.203,25.804L253.926,25.736L254.648,25.632L255.371,25.607L256.094,25.592L256.816,25.539L257.539,25.477L258.262,25.432L258.984,25.383L259.707,25.405L260.43,25.361L261.152,25.318L261.875,25.272L262.598,25.264L263.32,25.219L264.043,25.248L264.766,25.178L265.488,25.218L266.211,25.202L266.934,25.212L267.656,25.171L268.379,25.167L269.102,25.207L269.824,25.199L270.547,25.208L271.27,25.203L271.992,25.205L272.715,25.239L273.438,25.256L274.16,25.254L274.883,25.24L275.605,25.248L276.328,25.235L277.051,25.282L277.773,25.284L278.496,25.298L279.219,25.29L279.941,25.262L280.664,25.315L281.387,25.271L282.109,25.239L282.832,25.245L283.555,25.221L284.277,25.184L285,25.172L285.723,25.13L286.445,25.093L287.168,25.1L287.891,25.035L288.613,24.996L289.336,24.95L290.059,24.898L290.781,24.882L291.504,24.819L292.227,24.757L292.949,24.698L293.672,24.668L294.395,24.594L295.117,24.539L295.84,24.5L296.563,24.412L297.285,24.363L298.008,24.289L298.73,24.241L299.453,24.196L300.176,24.134L300.898,24.031L301.621,23.996L302.344,23.94L303.066,23.871L303.789,23.815L304.512,23.743L305.234,23.672L305.957,23.622L306.68,23.568L307.402,23.503L308.125,23.427L308.848,23.357L309.57,23.329L310.293,23.262L311.016,23.229L311.738,23.151L312.461,23.115L313.184,23.029L313.906,22.981L314.629,22.949L315.352,22.875L316.074,22.821L316.797,22.776L317.52,22.739L318.242,22.678L318.965,22.617L319.688,22.613L320.41,22.552L321.133,22.499L321.855,22.47L322.578,22.396L323.301,22.39L324.023,22.292L324.746,22.292L325.469,22.234L326.191,22.217L326.914,22.164L327.637,22.116L328.359,22.108L329.082,22.063L329.805,22.021L330.527,22.006L331.25,21.971L331.973,21.925L332.695,21.898L333.418,21.874L334.141,21.837L334.863,21.799L335.586,21.758L336.309,21.745L337.031,21.715L337.754,21.705L338.477,21.666L339.199,21.651L339.922,21.613L340.645,21.604L341.367,21.585L342.09,21.554L342.813,21.543L343.535,21.512L344.258,21.497L344.98,21.457L345.703,21.449L346.426,21.437L347.148,21.39L347.871,21.388L348.594,21.378L349.316,21.376L350.039,21.343L350.762,21.342L351.484,21.297L352.207,21.289L352.93,21.298L353.652,21.267L354.375,21.233L355.098,21.22L355.82,21.225L356.543,21.193L357.266,21.208L357.988,21.169L358.711,21.175L359.434,21.152L360.156,21.133L360.879,21.093L361.602,21.108L362.324,21.126L363.047,21.089L363.77,21.077L364.492,21.076L365.215,21.084L365.938,21.068L366.66,21.038L367.383,21.019L368.105,21.018L368.828,21.016L369.551,21.017L370.273,20.988L370.996,20.99L371.719,20.966L372.441,20.964L373.164,20.957L373.887,20.933L374.609,20.908L375.332,20.9L376.055,20.922L376.777,20.899L377.5,20.888L378.223,20.895L378.945,20.875L379.668,20.881L380.391,20.846L381.113,20.844L381.836,20.859L382.559,20.824L383.281,20.814L384.004,20.82L384.727,20.794L385.449,20.784L386.172,20.781L386.895,20.758L387.617,20.77L388.34,20.73L389.063,20.722L389.785,20.713L390.508,20.691L391.23,20.701L391.953,20.676L392.676,20.659L393.398,20.655L394.121,20.662L394.844,20.638L395.566,20.623L396.289,20.593L397.012,20.584L397.734,20.588L398.457,20.565L399.18,20.569L399.902,20.548L400.625,20.539L401.348,20.525L402.07,20.501L402.793,20.499L403.516,20.494L404.238,20.482L404.961,20.451L405.684,20.451L406.406,20.448L407.129,20.451L407.852,20.424L408.574,20.392L409.297,20.401L410.02,20.371L410.742,20.364L411.465,20.362L412.188,20.335L412.91,20.35L413.633,20.337L414.355,20.323L415.078,20.32L415.801,20.293L416.523,20.284L417.246,20.278L417.969,20.264L418.691,20.272L419.414,20.26L420.137,20.239L420.859,20.235L421.582,20.229L422.305,20.23L423.027,20.215L423.75,20.202L424.473,20.197L425.195,20.188L425.918,20.184L426.641,20.181L427.363,20.174L428.086,20.172L428.809,20.164L429.531,20.155L430.254,20.158L430.977,20.139L431.699,20.147L432.422,20.133L433.145,20.123L433.867,20.124L434.59,20.117L435.313,20.115L436.035,20.11L436.758,20.106L437.48,20.101L438.203,20.101L438.926,20.087L439.648,20.088L440.371,20.084L441.094,20.085L441.816,20.072L442.539,20.073L443.262,20.072L443.984,20.07L444.707,20.063L445.43,20.063L446.152,20.051L446.875,20.052L447.598,20.052L448.32,20.053L449.043,20.052L449.766,20.044L450.488,20.045L451.211,20.044L451.934,20.039L452.656,20.037L453.379,20.037L454.102,20.032L454.824,20.028L455.547,20.031L456.27,20.027L456.992,20.026L457.715,20.027L458.438,20.022L459.16,20.023L459.883,20.021L460.605,20.015L461.328,20.018L462.051,20.016L462.773,20.016L463.496,20.014L464.219,20.014L464.941,20.011L465.664,20.008L466.387,20.01L467.109,20.01L467.832,20.009L468.555,20.008L469.277,20.005"/><path fill="none" stroke="rgb(203, 47, 13)" stroke-width="1.5" d="M100,42.598L100.723,42.468L101.445,42.397L102.168,42.301L102.891,42.054L103.613,41.9L104.336,41.788L105.059,41.801L105.781,41.598L106.504,41.47L107.227,41.298L107.949,41.254L108.672,41.158L109.395,41.056L110.117,40.834L110.84,40.767L111.563,40.731L112.285,40.61L113.008,40.433L113.73,40.413L114.453,40.139L115.176,39.967L115.898,39.955L116.621,39.826L117.344,39.604L118.066,39.505L118.789,39.496L119.512,39.438L120.234,39.295L120.957,39.2L121.68,39.1L122.402,38.861L123.125,38.804L123.848,38.654L124.57,38.533L125.293,38.475L126.016,38.303L126.738,38.165L127.461,38.061L128.184,38.064L128.906,37.834L129.629,37.656L130.352,37.618L131.074,37.41L131.797,37.445L132.52,37.304L133.242,37.137L133.965,36.997L134.688,36.873L135.41,36.835L136.133,36.563L136.855,36.508L137.578,36.487L138.301,36.338L139.023,36.306L139.746,36.112L140.469,36.068L141.191,35.703L141.914,35.701L142.637,35.523L143.359,35.525L144.082,35.455L144.805,35.232L145.527,35.287L146.25,35.155L146.973,34.984L147.695,34.908L148.418,34.842L149.141,34.736L149.863,34.612L150.586,34.455L151.309,34.471L152.031,34.231L152.754,34.147L153.477,34.048L154.199,33.896L154.922,33.79L155.645,33.798L156.367,33.592L157.09,33.557L157.813,33.413L158.535,33.364L159.258,33.241L159.98,33.063L160.703,33.005L161.426,32.974L162.148,32.786L162.871,32.756L163.594,32.622L164.316,32.49L165.039,32.589L165.762,32.333L166.484,32.237L167.207,32.291L167.93,32.121L168.652,32.03L169.375,31.873L170.098,31.924L170.82,31.784L171.543,31.757L172.266,31.701L172.988,31.479L173.711,31.412L174.434,31.393L175.156,31.231L175.879,31.132L176.602,31.055L177.324,30.992L178.047,30.902L178.77,30.759L179.492,30.866L180.215,30.736L180.938,30.643L181.66,30.599L182.383,30.459L183.105,30.322L183.828,30.189L184.551,30.227L185.273,30.144L185.996,30.13L186.719,30.058L187.441,30.059L188.164,29.97L188.887,29.705L189.609,29.69L190.332,29.763L191.055,29.714L191.777,29.518L192.5,29.493L193.223,29.499L193.945,29.367L194.668,29.3L195.391,29.267L196.113,29.197L196.836,29.171L197.559,29.154L198.281,29.035L199.004,28.927L199.727,28.824L200.449,28.831L201.172,28.732L201.895,28.711L202.617,28.639L203.34,28.618L204.063,28.542L204.785,28.566L205.508,28.445L206.23,28.357L206.953,28.307L207.676,28.358L208.398,28.378L209.121,28.187L209.844,28.145L210.566,28.065L211.289,28.059L212.012,27.999L212.734,27.975L213.457,27.963L214.18,27.86L214.902,27.802L215.625,27.792L216.348,27.765L217.07,27.704L217.793,27.671L218.516,27.664L219.238,27.596L219.961,27.503L220.684,27.466L221.406,27.458L222.129,27.406L222.852,27.393L223.574,27.326L224.297,27.281L225.02,27.239L225.742,27.265L226.465,27.08L227.188,27.122L227.91,27.143L228.633,27.025L229.355,26.927L230.078,26.948L230.801,26.977L231.523,26.845L232.246,26.882L232.969,26.853L233.691,26.862L234.414,26.834L235.137,26.726L235.859,26.713L236.582,26.647L237.305,26.652L238.027,26.612L238.75,26.58L239.473,26.522L240.195,26.507L240.918,26.458L241.641,26.455L242.363,26.484L243.086,26.399L243.809,26.386L244.531,26.325L245.254,26.292L245.977,26.285L246.699,26.203L247.422,26.246L248.145,26.123L248.867,26.164L249.59,26.151L250.313,26.141L251.035,26.124L251.758,26.099L252.48,26.093L253.203,26.022L253.926,25.999L254.648,25.99L255.371,26.02L256.094,25.97L256.816,25.881L257.539,25.937L258.262,25.913L258.984,25.897L259.707,25.934L260.43,25.831L261.152,25.93L261.875,25.871L262.598,25.891L263.32,25.901L264.043,25.881L264.766,25.875L265.488,25.914L266.211,25.926L266.934,25.901L267.656,25.944L268.379,25.939L269.102,25.944L269.824,25.946L270.547,26.029L271.27,25.993L271.992,26.032L272.715,26.036L273.438,26.053L274.16,26.049L274.883,26.085L275.605,26.064L276.328,26.143L277.051,26.091L277.773,26.138L278.496,26.126L279.219,26.061L279.941,26.109L280.664,26.135L281.387,26.131L282.109,26.091L282.832,26.094L283.555,26.108L284.277,26.071L285,26.06L285.723,26.022L286.445,25.951L287.168,25.943L287.891,25.925L288.613,25.864L289.336,25.82L290.059,25.74L290.781,25.745L291.504,25.617L292.227,25.602L292.949,25.527L293.672,25.499L294.395,25.465L295.117,25.385L295.84,25.327L296.563,25.261L297.285,25.179L298.008,25.153L298.73,25.066L299.453,24.999L300.176,24.932L300.898,24.912L301.621,24.824L302.344,24.722L303.066,24.642L303.789,24.594L304.512,24.5L305.234,24.497L305.957,24.414L306.68,24.335L307.402,24.27L308.125,24.198L308.848,24.129L309.57,24.071L310.293,24.01L311.016,23.992L311.738,23.9L312.461,23.816L313.184,23.809L313.906,23.748L314.629,23.649L315.352,23.579L316.074,23.539L316.797,23.497L317.52,23.423L318.242,23.429L318.965,23.316L319.688,23.311L320.41,23.2L321.133,23.179L321.855,23.134L322.578,23.083L323.301,23.04L324.023,22.985L324.746,22.935L325.469,22.932L326.191,22.861L326.914,22.83L327.637,22.791L328.359,22.779L329.082,22.705L329.805,22.64L330.527,22.602L331.25,22.557L331.973,22.526L332.695,22.547L333.418,22.475L334.141,22.44L334.863,22.42L335.586,22.366L336.309,22.36L337.031,22.314L337.754,22.29L338.477,22.238L339.199,22.213L339.922,22.177L340.645,22.164L341.367,22.159L342.09,22.098L342.813,22.082L343.535,22.039L344.258,22.038L344.98,21.993L345.703,21.973L346.426,21.961L347.148,21.941L347.871,21.921L348.594,21.917L349.316,21.873L350.039,21.866L350.762,21.81L351.484,21.82L352.207,21.785L352.93,21.774L353.652,21.744L354.375,21.706L355.098,21.696L355.82,21.715L356.543,21.692L357.266,21.675L357.988,21.642L358.711,21.603L359.434,21.612L360.156,21.605L360.879,21.581L361.602,21.568L362.324,21.54L363.047,21.544L363.77,21.498L364.492,21.492L365.215,21.494L365.938,21.491L366.66,21.482L367.383,21.437L368.105,21.446L368.828,21.443L369.551,21.405L370.273,21.422L370.996,21.355L371.719,21.329L372.441,21.316L373.164,21.329L373.887,21.291L374.609,21.303L375.332,21.283L376.055,21.255L376.777,21.268L377.5,21.245L378.223,21.235L378.945,21.223L379.668,21.221L380.391,21.195L381.113,21.175L381.836,21.175L382.559,21.16L383.281,21.145L384.004,21.149L384.727,21.106L385.449,21.081L386.172,21.083L386.895,21.091L387.617,21.046L388.34,21.042L389.063,21.024L389.785,21.009L390.508,21.001L391.23,20.953L391.953,20.979L392.676,20.929L393.398,20.957L394.121,20.915L394.844,20.894L395.566,20.883L396.289,20.845L397.012,20.848L397.734,20.864L398.457,20.814L399.18,20.804L399.902,20.804L400.625,20.781L401.348,20.722L402.07,20.745L402.793,20.697L403.516,20.705L404.238,20.709L404.961,20.667L405.684,20.65L406.406,20.636L407.129,20.619L407.852,20.609L408.574,20.594L409.297,20.591L410.02,20.573L410.742,20.539L411.465,20.53L412.188,20.526L412.91,20.51L413.633,20.486L414.355,20.469L415.078,20.482L415.801,20.45L416.523,20.43L417.246,20.419L417.969,20.409L418.691,20.403L419.414,20.384L420.137,20.359L420.859,20.377L421.582,20.36L422.305,20.341L423.027,20.318L423.75,20.318L424.473,20.309L425.195,20.298L425.918,20.285L426.641,20.281L427.363,20.289L428.086,20.263L428.809,20.256L429.531,20.247L430.254,20.232L430.977,20.234L431.699,20.21L432.422,20.209L433.145,20.203L433.867,20.191L434.59,20.192L435.313,20.182L436.035,20.175L436.758,20.165L437.48,20.168L438.203,20.155L438.926,20.157L439.648,20.145L440.371,20.138L441.094,20.132L441.816,20.127L442.539,20.123L443.262,20.124L443.984,20.11L444.707,20.108L445.43,20.1L446.152,20.107L446.875,20.097L447.598,20.089L448.32,20.09L449.043,20.09L449.766,20.086L450.488,20.079L451.211,20.078L451.934,20.068L452.656,20.074L453.379,20.06L454.102,20.058L454.824,20.061L455.547,20.056L456.27,20.057L456.992,20.053L457.715,20.048L458.438,20.048L459.16,20.048L459.883,20.043L460.605,20.04L461.328,20.037L462.051,20.037L462.773,20.034L463.496,20.035L464.219,20.035L464.941,20.029L465.664,20.025L466.387,20.024L467.109,20.028L467.832,20.024L468.555,20.026L469.277,20.022"/><g transform="translate(15,190) scale(1.7) rotate(-90)"><text>Drift</text></g><g transform="translate(315,395) scale(1.8)"><text></text></g><g transform="translate(0,350)" fill="none" font-size="10" font-family="sans-serif" text-anchor="middle"><path class="domain" stroke="currentColor" d="M100,6V0H470V6"/><g class="tick" opacity="1" transform="translate(136.96669666966696,0)"><line stroke="currentColor" y2="6"/><text fill="currentColor" y="9" dy="0.71em" font-size="20px"> </text></g><g class="tick" opacity="1" transform="translate(173.97039703970398,0)"><line stroke="currentColor" y2="6"/><text fill="currentColor" y="9" dy="0.71em" font-size="20px">20</text></g><g class="tick" opacity="1" transform="translate(210.97409740974098,0)"><line stroke="currentColor" y2="6"/><text fill="currentColor" y="9" dy="0.71em" font-size="20px"> </text></g><g class="tick" opacity="1" transform="translate(247.97779777977803,0)"><line stroke="currentColor" y2="6"/><text fill="currentColor" y="9" dy="0.71em" font-size="20px">40</text></g><g class="tick" opacity="1" transform="translate(284.981498149815,0)"><line stroke="currentColor" y2="6"/><text fill="currentColor" y="9" dy="0.71em" font-size="20px"> </text></g><g class="tick" opacity="1" transform="translate(321.985198519852,0)"><line stroke="currentColor" y2="6"/><text fill="currentColor" y="9" dy="0.71em" font-size="20px">60</text></g><g class="tick" opacity="1" transform="translate(358.988898889889,0)"><line stroke="currentColor" y2="6"/><text fill="currentColor" y="9" dy="0.71em" font-size="20px"> </text></g><g class="tick" opacity="1" transform="translate(395.992599259926,0)"><line stroke="currentColor" y2="6"/><text fill="currentColor" y="9" dy="0.71em" font-size="20px">80</text></g><g class="tick" opacity="1" transform="translate(432.996299629963,0)"><line stroke="currentColor" y2="6"/><text fill="currentColor" y="9" dy="0.71em" font-size="20px"> </text></g><g class="tick" opacity="1" transform="translate(470,0)"><line stroke="currentColor" y2="6"/><text fill="currentColor" y="9" dy="0.71em" font-size="20px">100</text></g></g><g transform="translate(100,0)" fill="none" font-size="10" font-family="sans-serif" text-anchor="end"><path class="domain" stroke="currentColor" d="M-6,350H0V20H-6"/><g class="tick" opacity="1" transform="translate(0,330.59098865107626)"><line stroke="currentColor" x2="-6"/><text fill="currentColor" x="-9" dy="0.32em" font-size="20px">0.7</text></g><g class="tick" opacity="1" transform="translate(0,285.13694087089453)"><line stroke="currentColor" x2="-6"/><text fill="currentColor" x="-9" dy="0.32em" font-size="20px">0.6</text></g><g class="tick" opacity="1" transform="translate(0,239.68289309071275)"><line stroke="currentColor" x2="-6"/><text fill="currentColor" x="-9" dy="0.32em" font-size="20px">0.5</text></g><g class="tick" opacity="1" transform="translate(0,194.22884531053094)"><line stroke="currentColor" x2="-6"/><text fill="currentColor" x="-9" dy="0.32em" font-size="20px">0.4</text></g><g class="tick" opacity="1" transform="translate(0,148.77479753034916)"><line stroke="currentColor" x2="-6"/><text fill="currentColor" x="-9" dy="0.32em" font-size="20px">0.3</text></g><g class="tick" opacity="1" transform="translate(0,103.32074975016744)"><line stroke="currentColor" x2="-6"/><text fill="currentColor" x="-9" dy="0.32em" font-size="20px">0.2</text></g><g class="tick" opacity="1" transform="translate(0,57.866701969985606)"><line stroke="currentColor" x2="-6"/><text fill="currentColor" x="-9" dy="0.32em" font-size="20px">0.1</text></g></g><circle cx="355" cy="150" r="8" style="fill: rgb(35, 23, 27);"/><circle cx="355" cy="175" r="8" style="fill: rgb(69, 105, 238);"/><circle cx="355" cy="200" r="8" style="fill: rgb(38, 188, 225);"/><circle cx="355" cy="225" r="8" style="fill: rgb(63, 243, 147);"/><circle cx="355" cy="250" r="8" style="fill: rgb(149, 251, 81);"/><circle cx="355" cy="275" r="8" style="fill: rgb(236, 209, 46);"/><circle cx="355" cy="300" r="8" style="fill: rgb(255, 130, 29);"/><circle cx="355" cy="325" r="8" style="fill: rgb(203, 47, 13);"/><text x="370" y="150" text-anchor="left" font-size="22" alignment-baseline="middle" style="fill: rgb(35, 23, 27);"> = 0</text><text x="370" y="175" text-anchor="left" font-size="22" alignment-baseline="middle" style="fill: rgb(69, 105, 238);"> = 0.22</text><text x="370" y="200" text-anchor="left" font-size="22" alignment-baseline="middle" style="fill: rgb(38, 188, 225);"> = 0.45</text><text x="370" y="225" text-anchor="left" font-size="22" alignment-baseline="middle" style="fill: rgb(63, 243, 147);"> = 0.67</text><text x="370" y="250" text-anchor="left" font-size="22" alignment-baseline="middle" style="fill: rgb(149, 251, 81);"> = 0.9</text><text x="370" y="275" text-anchor="left" font-size="22" alignment-baseline="middle" style="fill: rgb(236, 209, 46);"> = 1.12</text><text x="370" y="300" text-anchor="left" font-size="22" alignment-baseline="middle" style="fill: rgb(255, 130, 29);"> = 1.35</text><text x="370" y="325" text-anchor="left" font-size="22" alignment-baseline="middle" style="fill: rgb(203, 47, 13);"> = 1.57</text></svg>